<?xml version="1.0" standalone="no"?>
<!DOCTYPE svg PUBLIC "-//W3C//DTD SVG 20010904//EN"
 "http://www.w3.org/TR/2001/REC-SVG-20010904/DTD/svg10.dtd">
<svg version="1.0" xmlns="http://www.w3.org/2000/svg"
 width="312.000000pt" height="308.000000pt" viewBox="0 0 312.000000 308.000000"
 preserveAspectRatio="xMidYMid meet">

<g transform="translate(0.000000,308.000000) scale(0.100000,-0.100000)" stroke="none">
<path d="M1400 2985 c-179 -36 -331 -139 -402 -272 -21 -38 -25 -41 -53 -35
-135 31 -298 -25 -427 -146 -131 -123 -191 -251 -192 -407 0 -67 4 -90 28
-142 32 -70 89 -129 158 -164 23 -12 44 -22 46 -24 1 -1 -16 -114 -38 -251
-75 -472 -71 -543 39 -725 l38 -63 -27 -26 c-59 -55 -63 -155 -10 -229 36 -50
91 -79 164 -87 50 -6 58 -10 82 -46 86 -124 266 -219 484 -256 93 -16 316 -22
419 -12 233 24 457 131 553 264 25 35 37 42 88 53 111 22 190 104 190 196 0
43 -20 96 -42 115 -14 11 -12 19 18 69 90 150 91 254 11 836 l-14 97 63 30
c107 52 185 158 205 282 10 63 -1 159 -27 240 -24 73 -103 186 -177 254 -121
111 -232 154 -397 154 l-95 0 -25 37 c-14 21 -52 65 -85 98 -142 141 -363 203
-575 160z m315 -89 c41 -13 97 -38 125 -56 63 -40 152 -137 192 -206 16 -30
32 -54 34 -54 3 0 18 10 34 21 25 19 38 21 117 17 77 -3 100 -9 164 -40 99
-47 170 -106 229 -191 119 -168 132 -353 35 -480 -34 -45 -125 -104 -139 -90
-3 4 -6 23 -6 43 0 99 -158 235 -354 305 -109 39 -139 43 -134 19 2 -11 31
-26 83 -44 88 -29 165 -66 165 -79 0 -4 -3 -11 -7 -15 -13 -12 -11 -36 2 -36
8 0 11 7 8 20 -7 25 12 26 52 2 28 -17 31 -26 52 -143 l22 -124 -6 105 c-5 99
-4 104 12 88 13 -12 24 -66 45 -225 38 -283 39 -293 34 -293 -3 0 -17 9 -32
19 -15 11 -45 31 -68 44 l-41 25 -7 84 c-16 200 -29 288 -44 288 -12 0 -14
-11 -8 -62 3 -35 9 -114 13 -177 6 -110 5 -114 -13 -107 -183 71 -362 115
-545 136 -104 12 -416 8 -502 -6 l-39 -6 8 92 c6 77 4 92 -7 88 -13 -4 -18
-26 -34 -140 -6 -46 -8 -48 -48 -58 -107 -27 -239 -73 -315 -110 l-83 -40 6
58 c27 233 67 476 82 493 7 9 42 31 78 50 67 35 89 67 38 54 -88 -21 -245
-145 -319 -249 -26 -36 -57 -31 -113 19 -60 55 -84 121 -79 221 4 71 10 94 43
161 44 91 148 201 231 245 55 30 175 62 202 54 9 -2 29 -7 44 -10 25 -6 27
-11 30 -59 3 -43 6 -52 22 -52 15 0 23 14 36 60 54 195 206 325 428 365 71 13
194 2 277 -24z m-972 -913 c-3 -21 -13 -90 -23 -153 -16 -97 -50 -332 -50
-344 0 -2 -22 -20 -50 -40 -28 -20 -50 -33 -50 -28 0 4 5 34 10 67 6 33 24
145 39 249 16 103 34 193 41 200 13 13 10 -29 -21 -238 -20 -135 -25 -231 -8
-151 16 78 59 356 59 386 0 30 33 89 50 89 5 0 6 -17 3 -37z m1072 -348 c232
-39 397 -94 546 -181 102 -60 129 -85 129 -125 0 -26 -3 -29 -14 -20 -24 20
-188 98 -266 126 -86 30 -277 77 -395 96 -118 19 -435 17 -565 -5 -273 -45
-458 -110 -633 -222 -48 -31 -67 -39 -67 -28 0 59 108 158 244 224 158 76 341
128 533 150 106 12 379 4 488 -15z m-161 -173 c8 -15 24 -36 36 -47 12 -11 26
-29 32 -40 6 -11 -12 1 -39 28 -44 43 -83 61 -83 38 0 -5 46 -52 103 -106 90
-84 137 -139 137 -159 0 -14 -84 -18 -165 -7 -198 28 -367 87 -484 168 -45 31
-67 41 -74 34 -17 -17 69 -92 155 -134 42 -20 132 -53 200 -73 111 -33 138
-36 281 -41 141 -5 157 -4 157 11 0 9 6 16 13 16 14 0 30 -26 45 -75 7 -26 14
-30 50 -33 33 -3 47 -10 65 -33 12 -17 38 -40 59 -51 38 -22 61 -63 89 -162
15 -52 31 -65 54 -46 13 11 15 4 15 -51 0 -84 -32 -198 -74 -263 -84 -131
-242 -217 -481 -262 -136 -25 -376 -16 -510 20 -210 55 -323 128 -401 262 -47
79 -85 264 -55 264 5 0 15 46 22 103 7 56 15 92 17 80 2 -13 10 -23 18 -23 18
0 18 47 -1 80 -8 14 -14 45 -14 70 l0 45 24 -27 c48 -55 75 -24 75 86 0 35 3
77 6 94 l6 30 42 -32 c53 -40 132 -74 210 -90 64 -14 86 -12 86 8 0 8 36 3
115 -17 64 -16 122 -26 130 -23 28 11 16 34 -22 41 -73 13 -229 67 -295 102
-47 24 -84 55 -123 98 -30 35 -55 66 -55 69 0 24 334 72 522 75 97 1 98 1 112
-27z m166 3 c206 -33 456 -113 580 -185 106 -62 105 -60 105 -219 0 -131 -1
-138 -30 -195 -29 -57 -67 -89 -84 -70 -5 5 -3 55 5 114 18 131 15 225 -6 225
-11 0 -16 -13 -17 -50 -5 -90 -25 -240 -35 -255 -6 -10 -6 20 -1 85 15 190 7
315 -20 315 -10 0 -13 -27 -13 -112 1 -114 -20 -267 -34 -251 -4 4 -29 72 -55
150 -44 130 -66 175 -81 161 -3 -3 1 -40 9 -82 8 -42 13 -76 10 -76 -3 0 -71
61 -153 135 -164 149 -322 325 -293 325 10 0 61 -7 113 -15z m-815 -95 c10
-22 49 -69 87 -106 38 -37 66 -69 64 -72 -13 -12 -159 70 -201 113 -24 26 -49
44 -53 41 -5 -3 -12 -38 -16 -78 -15 -163 -17 -170 -36 -153 -9 8 -22 15 -29
15 -20 0 -51 -81 -51 -135 0 -27 -4 -56 -8 -63 -21 -32 -79 84 -88 177 -6 52
-10 61 -27 61 -18 0 -19 -5 -15 -69 4 -54 15 -90 53 -172 26 -57 50 -115 53
-129 5 -23 4 -24 -12 -11 -21 17 -70 112 -101 196 -32 83 -49 85 -41 4 l6 -64
-22 45 c-12 25 -23 73 -26 111 -7 103 17 136 162 215 56 30 253 111 277 113 3
1 14 -17 24 -39z m-302 -680 c4 -4 12 -36 17 -72 5 -36 14 -78 20 -92 15 -40
13 -46 -15 -46 -86 0 -157 102 -126 179 19 44 73 60 104 31z m1746 -6 c44 -56
17 -150 -53 -184 -61 -29 -80 -27 -72 8 3 15 11 59 17 97 16 101 64 135 108
79z"/>
<path d="M1205 2200 c-12 -19 5 -28 113 -64 213 -70 352 -74 500 -14 28 12 52
28 52 35 0 18 -16 16 -85 -8 -125 -44 -297 -33 -479 31 -96 34 -93 33 -101 20z"/>
<path d="M2262 1968 c-16 -16 -15 -28 3 -28 8 0 15 9 15 20 0 23 -2 24 -18 8z"/>
<path d="M1845 1798 c-11 -29 -1 -93 15 -96 12 -2 14 7 12 45 -4 52 -17 76
-27 51z"/>
<path d="M2391 1724 c0 -11 3 -14 6 -6 3 7 2 16 -1 19 -3 4 -6 -2 -5 -13z"/>
<path d="M973 870 c-25 -10 -47 -45 -38 -60 9 -15 31 -12 45 5 7 8 21 15 32
15 14 0 19 -6 16 -22 -2 -18 -10 -23 -33 -23 -32 0 -42 -19 -44 -83 -4 -129
156 -182 228 -76 51 74 16 194 -69 236 -37 19 -101 23 -137 8z"/>
<path d="M1955 864 c-68 -35 -95 -79 -95 -154 0 -59 20 -100 60 -124 54 -32
127 -13 166 43 21 30 21 104 1 135 -21 32 -21 36 2 36 32 0 35 32 6 57 -31 28
-95 31 -140 7z m105 -54 c0 -5 -7 -7 -15 -4 -8 4 -15 8 -15 10 0 2 7 4 15 4 8
0 15 -4 15 -10z"/>
<path d="M1397 593 c-14 -13 -7 -51 14 -77 62 -79 203 -73 252 11 21 37 15 73
-13 73 -12 0 -21 -10 -25 -30 -19 -85 -158 -88 -185 -4 -11 32 -28 43 -43 27z"/>
</g>
</svg>
