<?xml version="1.0" standalone="no"?>
<!DOCTYPE svg PUBLIC "-//W3C//DTD SVG 20010904//EN"
 "http://www.w3.org/TR/2001/REC-SVG-20010904/DTD/svg10.dtd">
<svg version="1.0" xmlns="http://www.w3.org/2000/svg"
 width="312.000000pt" height="308.000000pt" viewBox="0 0 312.000000 308.000000"
 preserveAspectRatio="xMidYMid meet">

<g transform="translate(0.000000,308.000000) scale(0.100000,-0.100000)"
 stroke="none">
<path d="M1380 3070 c-71 -13 -154 -45 -202 -78 -62 -43 -161 -151 -195 -214
-19 -35 -34 -51 -44 -48 -7 3 -59 5 -115 5 -96 0 -103 -2 -176 -37 -125 -62
-225 -186 -259 -323 -15 -61 -7 -160 19 -217 25 -58 90 -129 148 -163 44 -26
45 -27 40 -68 -3 -23 -10 -127 -16 -232 -16 -285 -39 -555 -51 -600 -6 -22
-34 -83 -62 -135 -70 -129 -87 -173 -94 -246 -5 -55 -2 -70 21 -118 15 -30 43
-69 62 -86 l36 -31 -13 -49 c-32 -125 67 -224 234 -235 46 -3 73 -9 76 -17 2
-7 23 -32 46 -54 52 -51 124 -77 175 -65 44 10 80 29 80 41 0 6 15 27 33 47
18 21 63 83 100 138 36 56 83 121 105 145 l40 45 168 2 169 1 105 -89 c59 -49
133 -119 165 -155 101 -115 174 -146 260 -110 28 12 65 54 77 88 2 4 35 12 73
18 123 19 195 84 195 175 0 22 -9 54 -19 72 l-20 31 54 42 c76 59 109 127 103
213 -3 52 -15 86 -65 193 -76 160 -77 163 -103 359 -12 88 -44 296 -71 463
-27 166 -49 309 -49 317 0 9 13 34 30 56 89 123 91 263 8 421 -30 57 -107 141
-163 178 -59 40 -153 61 -252 59 l-92 -3 -44 60 c-74 99 -139 148 -244 183
-67 23 -207 34 -273 21z m237 -78 c115 -36 210 -118 264 -228 17 -35 34 -64
37 -64 3 0 17 10 30 23 34 32 161 31 247 -3 75 -29 167 -119 210 -205 46 -93
48 -222 4 -294 l-20 -33 -28 43 c-60 94 -218 214 -293 222 -42 4 -29 -24 21
-46 l50 -22 5 -145 c3 -79 8 -216 12 -304 7 -154 6 -159 -12 -153 -106 34
-199 59 -256 69 -79 13 -75 4 -81 156 -2 56 -7 105 -10 108 -16 16 -22 -13
-17 -93 3 -48 4 -101 2 -118 l-3 -30 -207 0 c-114 0 -229 -2 -257 -5 l-50 -5
-8 115 c-4 63 -10 117 -13 119 -2 3 -9 0 -14 -5 -6 -6 -7 -46 -2 -107 4 -53 5
-105 1 -115 -5 -14 -25 -23 -71 -31 -34 -7 -109 -29 -166 -48 -57 -19 -105
-33 -108 -31 -3 4 -18 188 -39 489 l-6 77 88 35 c51 20 89 41 91 50 5 23 -51
6 -163 -48 -157 -76 -242 -164 -252 -260 -3 -30 -10 -55 -15 -55 -14 0 -95 85
-115 121 -13 26 -18 56 -18 124 0 114 28 180 112 263 64 64 127 98 211 113 83
16 172 -6 172 -42 0 -10 4 -20 8 -23 15 -9 29 9 46 61 49 147 206 300 343 332
69 16 207 12 270 -7z m620 -685 c57 -60 77 -92 69 -113 -3 -7 4 -80 14 -161
23 -173 36 -343 26 -343 -16 0 -147 72 -151 83 -2 7 -9 125 -15 262 -6 138
-13 267 -15 288 -7 52 11 48 72 -16z m-1423 -39 c3 -18 10 -109 16 -203 5 -93
13 -204 16 -246 l6 -76 -59 -33 c-32 -18 -80 -48 -107 -67 l-49 -35 7 88 c4
49 9 175 11 279 l3 190 66 68 c36 37 70 67 76 67 5 0 11 -15 14 -32z m1555
-298 c17 -107 35 -222 41 -255 12 -72 12 -85 2 -85 -18 0 -30 42 -37 121 -3
46 -15 145 -26 219 -29 204 -32 227 -21 210 6 -8 24 -103 41 -210z m-599 -140
c237 -29 546 -141 594 -215 9 -14 25 -25 36 -25 14 0 23 -11 31 -40 15 -50 8
-58 -28 -32 -90 63 -311 145 -493 182 -132 27 -375 37 -519 21 -261 -28 -531
-109 -692 -207 -31 -19 -59 -34 -63 -34 -3 0 -6 13 -6 30 0 113 339 270 680
315 120 16 349 18 460 5z m-65 -241 c126 -127 210 -181 420 -273 105 -45 122
-56 137 -87 23 -46 22 -151 -2 -269 -32 -154 -109 -249 -266 -329 -86 -43
-130 -57 -250 -81 -183 -35 -421 -23 -584 31 -93 30 -166 74 -233 140 -65 66
-99 131 -123 239 -22 95 -10 194 37 307 59 142 125 234 219 305 39 30 145 61
260 77 41 6 86 13 100 15 14 2 66 4 115 5 l90 1 80 -81z m179 56 c81 -13 155
-29 166 -35 11 -6 29 -28 39 -48 11 -21 42 -76 71 -122 28 -47 47 -86 42 -88
-23 -7 -220 91 -319 159 -53 37 -163 138 -163 150 0 12 -1 12 164 -16z m385
-123 l94 -47 4 -114 c5 -112 -1 -181 -15 -181 -4 0 -27 39 -51 88 -24 48 -72
135 -107 193 -35 58 -64 109 -64 113 0 12 41 -3 139 -52z m-1309 42 c0 -3 -20
-28 -44 -55 -59 -66 -130 -213 -158 -326 -13 -51 -26 -93 -29 -93 -12 0 -22
54 -28 153 -3 53 -10 98 -16 100 -20 4 -28 -106 -16 -222 12 -110 12 -113 -8
-128 -31 -21 -51 -66 -51 -113 0 -71 37 -120 117 -155 57 -26 73 -47 73 -98 0
-25 -10 -47 -35 -77 -37 -44 -54 -103 -38 -129 5 -9 27 -24 49 -35 63 -30 81
-71 47 -108 -13 -14 -31 -18 -87 -18 -109 1 -186 45 -199 115 -7 40 3 63 33
78 38 19 30 37 -34 81 -33 23 -67 57 -78 76 -22 43 -24 123 -3 184 17 49 98
200 125 231 13 16 20 56 29 185 9 125 16 171 30 189 20 29 142 101 237 141 73
30 84 33 84 24z m1469 -131 c18 -15 25 -42 42 -148 28 -182 41 -230 98 -344
28 -54 56 -120 62 -146 21 -84 -15 -155 -118 -226 -24 -17 -43 -36 -43 -44 0
-8 -4 -15 -10 -15 -5 0 -10 18 -10 39 0 46 -14 61 -29 32 -30 -56 2 -133 60
-146 37 -8 45 -26 29 -65 -21 -51 -73 -75 -163 -75 -71 0 -81 2 -98 24 -28 34
-24 58 17 103 86 96 85 209 -4 285 -35 31 -36 33 -19 50 16 16 17 16 17 0 0
-9 7 -17 15 -17 8 0 15 9 15 20 0 13 10 24 28 31 92 37 111 50 137 93 43 74
31 157 -29 202 -23 18 -24 22 -17 92 7 71 0 189 -14 245 -8 31 3 35 34 10z
m-19 -403 c51 -51 4 -156 -79 -178 -22 -5 -42 -8 -44 -6 -2 3 2 28 10 56 7 29
13 67 13 84 0 60 59 85 100 44z m-1652 -82 c7 -7 12 -22 12 -35 0 -12 12 -52
26 -88 15 -36 25 -67 23 -69 -2 -1 -23 1 -47 6 -62 13 -112 66 -112 118 0 63
61 105 98 68z m152 -296 c90 -76 179 -119 313 -151 59 -14 107 -28 107 -31 0
-3 -13 -12 -29 -21 -34 -20 -126 -129 -149 -176 -9 -18 -21 -32 -26 -30 -6 2
-16 28 -22 58 -10 53 -26 68 -32 30 -2 -11 2 -46 8 -78 l11 -58 -43 -38 c-38
-34 -47 -38 -81 -34 -38 5 -104 47 -114 74 -3 8 5 25 17 38 21 22 22 27 11 72
-16 63 -33 88 -81 118 -49 31 -50 51 -5 105 42 50 50 76 41 136 -3 24 -3 44 0
44 3 0 36 -26 74 -58z m1339 17 c34 -42 49 -97 37 -143 -3 -13 -26 -48 -51
-77 -47 -55 -57 -97 -34 -140 9 -18 8 -20 -17 -17 -28 3 -37 13 -54 61 -12 34
-30 26 -30 -13 0 -46 47 -92 93 -92 42 0 51 -9 42 -38 -8 -26 -55 -50 -96 -50
-28 0 -51 18 -173 139 -78 77 -154 151 -171 164 -34 29 -39 25 80 57 100 27
215 87 280 145 28 24 52 44 55 44 3 1 20 -18 39 -40z"/>
<path d="M1095 2431 c-7 -12 -12 -9 123 -66 64 -27 119 -44 129 -41 23 9 12
16 -110 69 -111 48 -132 54 -142 38z"/>
<path d="M1723 2387 c-82 -41 -100 -57 -65 -57 29 0 184 79 177 90 -10 16 -24
11 -112 -33z"/>
<path d="M1587 2333 c-13 -12 -7 -23 13 -23 11 0 20 7 20 15 0 15 -21 21 -33
8z"/>
<path d="M1377 2324 c-10 -11 3 -24 24 -24 10 0 19 7 19 15 0 15 -31 21 -43 9z"/>
<path d="M1530 2320 c-12 -7 -12 -12 -2 -22 9 -9 15 -9 24 0 8 8 9 15 2 22 -5
5 -15 6 -24 0z"/>
<path d="M1452 2308 c7 -19 38 -22 38 -4 0 10 -9 16 -21 16 -12 0 -19 -5 -17
-12z"/>
<path d="M1958 1175 c-49 -33 -82 -103 -75 -157 10 -78 66 -126 131 -114 92
18 129 137 61 200 -33 31 -31 37 7 34 25 -2 33 1 36 16 10 50 -97 64 -160 21z"/>
<path d="M1035 1170 c-12 -4 -27 -15 -34 -24 -12 -15 -12 -19 1 -32 13 -13 20
-14 37 -5 24 13 41 7 41 -14 0 -7 -12 -15 -27 -17 -23 -2 -31 -11 -42 -45 -43
-122 91 -215 181 -126 78 79 27 233 -87 262 -24 6 -45 11 -47 10 -2 0 -12 -4
-23 -9z"/>
<path d="M1655 912 c-8 -41 -36 -63 -84 -69 -49 -7 -88 15 -103 58 -11 31 -32
38 -42 13 -9 -23 21 -72 57 -94 61 -38 156 -18 198 41 23 33 22 72 -3 77 -11
2 -18 -6 -23 -26z"/>
<path d="M602 677 c-9 -10 -6 -21 11 -45 12 -17 28 -32 35 -32 16 0 16 1 -11
49 -19 33 -26 39 -35 28z"/>
<path d="M957 393 c-4 -3 -7 -45 -7 -92 l1 -86 20 25 c18 21 20 33 14 85 -6
60 -15 81 -28 68z"/>
<path d="M2010 421 c0 -40 44 -127 71 -141 30 -17 34 -6 9 28 -13 17 -31 54
-40 83 -21 61 -40 75 -40 30z"/>
</g>
</svg>
