<?xml version="1.0" standalone="no"?>
<!DOCTYPE svg PUBLIC "-//W3C//DTD SVG 20010904//EN"
 "http://www.w3.org/TR/2001/REC-SVG-20010904/DTD/svg10.dtd">
<svg version="1.0" xmlns="http://www.w3.org/2000/svg"
 width="312.000000pt" height="308.000000pt" viewBox="0 0 312.000000 308.000000"
 preserveAspectRatio="xMidYMid meet">

<g transform="translate(0.000000,308.000000) scale(0.100000,-0.100000)"
stroke="none">
<path d="M1390 3064 c-171 -31 -299 -108 -391 -235 -24 -32 -46 -55 -49 -50
-16 26 -97 54 -166 59 -195 12 -381 -84 -459 -237 -17 -34 -32 -51 -51 -55
-43 -11 -127 -70 -167 -117 -21 -24 -50 -68 -65 -99 -25 -50 -27 -65 -27 -170
1 -107 3 -119 32 -182 69 -147 178 -218 363 -237 l65 -6 -2 -65 c-1 -36 -12
-166 -24 -290 -33 -335 -35 -427 -9 -504 18 -55 19 -69 9 -114 -10 -43 -10
-57 5 -96 9 -25 34 -60 55 -79 51 -46 53 -50 40 -86 -22 -63 -66 -62 -110 4
-13 19 -31 34 -39 33 -21 -4 -60 -77 -60 -114 0 -59 31 -126 82 -175 27 -26
62 -52 77 -59 16 -6 34 -23 40 -36 20 -46 91 -68 218 -70 94 -1 116 -5 140
-22 36 -25 96 -42 152 -42 40 0 48 4 93 53 26 28 65 73 86 100 37 47 38 47 82
41 25 -3 123 -6 219 -5 l173 1 83 -72 c129 -111 187 -125 347 -83 49 12 55 12
85 -6 46 -29 134 -36 181 -16 20 9 57 21 82 28 107 27 199 101 220 178 14 52
12 146 -4 186 -17 40 -26 43 -43 15 -32 -50 -121 -63 -165 -23 -27 24 -58 87
-58 117 0 14 15 48 33 77 27 45 32 62 33 118 0 36 8 91 17 121 23 72 28 135
35 445 l7 259 80 12 c277 39 436 167 475 382 21 116 -25 257 -111 343 -39 39
-167 109 -200 109 -13 0 -15 9 -11 56 16 192 -108 358 -305 409 -109 29 -236
17 -343 -31 l-56 -25 -77 75 c-82 80 -173 133 -277 162 -54 15 -289 27 -340
18z m266 -79 c135 -26 286 -115 349 -205 15 -21 35 -46 46 -56 18 -17 21 -16
62 13 99 72 272 91 391 44 73 -29 149 -97 184 -166 25 -50 30 -108 20 -245
l-3 -35 54 -7 c76 -11 133 -39 185 -91 69 -69 91 -125 91 -227 0 -73 -4 -93
-29 -144 -39 -79 -77 -120 -150 -160 -70 -39 -144 -62 -232 -71 l-61 -6 -7 38
c-8 49 -8 134 0 201 5 40 11 52 24 52 10 0 24 7 31 16 11 14 10 18 -6 30 -10
8 -26 14 -34 14 -9 0 -29 25 -46 57 -36 69 -125 167 -198 217 -51 35 -208 108
-261 122 -21 5 -26 3 -26 -14 0 -13 9 -22 28 -27 15 -3 65 -24 111 -46 l84
-41 -6 -76 c-4 -42 -10 -193 -13 -334 -4 -141 -10 -262 -14 -268 -4 -7 -32 -1
-86 19 -98 37 -289 84 -414 102 -91 13 -421 19 -540 10 l-55 -5 3 120 c1 65 5
134 8 152 4 29 2 33 -13 30 -16 -3 -19 -22 -30 -156 -6 -85 -13 -155 -15 -156
-1 -1 -43 -10 -93 -20 -74 -15 -178 -44 -297 -83 -16 -5 -18 3 -18 68 0 40 7
159 15 264 8 104 16 217 17 250 l3 60 67 35 c68 35 87 60 47 60 -60 0 -212
-111 -271 -199 -18 -25 -36 -49 -42 -53 -6 -4 -12 -44 -14 -90 -2 -46 -7 -87
-12 -92 -4 -4 -6 -23 -3 -41 3 -19 0 -35 -6 -40 -19 -11 -152 15 -206 41 -61
30 -72 38 -113 91 -94 120 -107 288 -32 406 37 59 120 125 168 132 53 9 64 17
78 57 45 130 181 223 344 235 87 7 142 -10 195 -58 24 -23 52 -39 61 -37 9 2
30 28 48 59 50 89 73 116 141 165 131 93 305 125 491 89z m722 -830 c33 -30
62 -69 81 -108 l29 -62 -5 -282 -6 -282 -41 28 c-22 16 -70 43 -105 60 l-63
32 6 302 c4 166 9 319 12 339 7 45 14 43 92 -27z m-1698 8 c0 -16 -7 -109 -15
-208 -8 -99 -15 -219 -15 -267 0 -48 -4 -98 -9 -111 -9 -22 -97 -84 -107 -75
-2 3 0 61 6 129 5 68 14 185 20 259 5 74 14 149 19 166 9 32 80 132 94 133 4
1 7 -11 7 -26z m1055 -524 c163 -23 252 -45 396 -95 184 -63 349 -169 349
-222 0 -12 -1 -22 -3 -22 -2 0 -39 20 -82 44 -139 80 -441 166 -690 196 -116
15 -388 15 -535 0 -215 -21 -470 -84 -593 -146 -27 -13 -51 -24 -53 -24 -9 0
9 56 25 73 45 52 228 128 401 167 241 54 539 65 785 29z m-431 -241 c25 -51
70 -126 101 -166 61 -81 58 -83 -42 -34 -56 27 -131 86 -180 143 -32 36 -77
118 -70 125 3 4 88 18 134 23 6 0 32 -41 57 -91z m157 30 c64 -128 191 -273
313 -357 33 -23 57 -41 55 -41 -3 0 -33 11 -67 24 -124 49 -239 132 -330 239
-49 57 -112 162 -112 187 0 6 24 10 55 10 l55 0 31 -62z m266 45 c7 -3 31 -35
52 -72 51 -85 87 -135 167 -226 67 -78 74 -88 49 -79 -9 4 -15 0 -15 -9 0 -8
7 -20 15 -27 48 -40 -28 -40 -112 -1 -87 41 -155 95 -245 190 -74 78 -138 170
-153 220 l-7 24 117 -7 c65 -4 124 -10 132 -13z m-728 -40 c-23 -61 -84 -165
-169 -288 -50 -71 -109 -162 -133 -202 -23 -40 -45 -73 -49 -73 -17 0 -2 76
39 203 8 26 -24 22 -38 -5 -7 -13 -22 -57 -34 -98 -38 -131 -71 -76 -45 75 15
86 83 291 104 314 15 17 87 40 246 80 41 10 78 19 82 20 4 0 3 -11 -3 -26z
m961 -3 c69 -17 130 -34 135 -38 11 -8 122 -279 160 -391 14 -41 25 -88 25
-104 0 -26 -10 -15 -63 74 -92 151 -91 149 -104 149 -7 0 -13 -7 -13 -15 0
-34 -189 174 -279 308 -31 46 -32 47 -9 47 12 0 79 -14 148 -30z m-865 -71
c43 -66 108 -129 181 -178 62 -41 199 -92 254 -95 27 -1 69 -14 105 -33 110
-57 190 -74 363 -82 l157 -6 39 -75 c38 -74 38 -76 33 -163 -16 -246 -188
-392 -521 -442 -199 -29 -398 -15 -596 42 -270 78 -429 269 -404 486 7 70 33
120 130 253 86 118 175 264 195 317 7 20 15 37 19 37 3 0 23 -28 45 -61z
m1159 -19 c41 -17 79 -37 84 -43 18 -24 44 -184 49 -306 l6 -124 -24 6 c-13 4
-27 7 -31 7 -3 0 -21 46 -38 102 -30 97 -49 146 -119 317 -17 40 -31 75 -31
78 0 6 3 5 104 -37z m-1663 -87 c-47 -125 -65 -210 -74 -338 l-2 -40 -13 40
c-15 49 -15 158 -1 245 18 117 25 133 71 162 24 15 44 23 46 19 2 -5 -10 -44
-27 -88z m1847 -19 l35 -27 -6 -151 c-3 -83 -9 -161 -12 -173 -14 -46 -25 -21
-25 60 0 72 -14 181 -36 285 -8 39 -1 40 44 6z m-1810 -430 c17 -11 22 -25 22
-56 0 -23 7 -68 16 -100 9 -32 14 -61 11 -64 -13 -13 -90 20 -127 55 -35 33
-40 43 -40 83 0 82 60 123 118 82z m1781 -30 c57 -73 -6 -182 -116 -200 l-41
-6 14 58 c7 33 14 75 14 96 0 69 88 104 129 52z m-35 -298 c12 -39 27 -64 60
-94 49 -45 92 -58 162 -48 42 5 44 4 44 -19 0 -37 -19 -71 -47 -84 -66 -30
-170 2 -224 70 -34 43 -49 49 -49 19 0 -25 63 -96 104 -117 17 -9 60 -19 96
-23 l65 -6 -50 -24 c-35 -17 -68 -24 -112 -25 -55 0 -65 3 -93 30 -42 39 -61
78 -75 145 -8 36 -17 55 -26 55 -11 0 -13 -12 -11 -50 3 -60 51 -165 89 -195
25 -19 25 -20 4 -20 -83 0 -154 86 -176 213 -4 23 -11 37 -20 37 -21 0 -19
-62 4 -128 l18 -53 -31 30 c-18 17 -35 28 -39 25 -15 -15 -6 -43 19 -63 l27
-21 -43 0 c-52 0 -98 26 -141 81 -17 22 -30 41 -28 43 2 2 44 23 93 47 93 46
180 116 216 175 19 30 27 34 63 35 23 0 51 4 62 9 11 5 21 9 22 9 1 1 9 -23
17 -53z m-1596 -34 c58 -59 96 -88 155 -117 42 -21 77 -44 77 -51 0 -30 -61
-82 -122 -105 -71 -26 -181 -31 -233 -10 l-30 13 38 13 c60 21 126 85 127 123
0 30 -23 28 -40 -4 -18 -33 -88 -74 -127 -74 -37 0 -93 19 -93 31 0 5 12 9 28
9 32 1 121 47 136 72 14 23 0 36 -22 20 -42 -31 -101 -52 -146 -52 -41 0 -53
5 -82 34 -19 19 -34 43 -34 54 0 20 0 20 50 -1 48 -20 51 -20 85 -4 36 17 65
64 65 107 0 17 6 20 45 20 43 0 49 -4 123 -78z m367 -198 l30 -12 -50 -50
c-48 -48 -98 -72 -152 -72 -37 0 -35 17 7 50 23 18 50 50 61 71 21 42 31 44
104 13z m734 -17 c13 -33 60 -87 96 -108 l30 -19 -38 0 c-48 0 -67 10 -140 73
-59 51 -62 62 -17 70 51 9 61 7 69 -16z m-669 0 c0 -7 -23 -38 -50 -68 l-51
-54 36 48 c19 27 35 57 35 68 0 10 7 19 15 19 8 0 15 -6 15 -13z"/>
<path d="M1797 1944 c-4 -4 -7 -45 -7 -91 0 -67 3 -83 15 -83 12 0 15 15 17
70 1 39 2 78 2 87 1 17 -16 28 -27 17z"/>
<path d="M1803 1733 c-15 -5 -18 -43 -4 -43 5 0 11 10 14 22 7 26 6 27 -10 21z"/>
<path d="M587 1873 c-4 -3 -6 -36 -6 -72 l2 -66 7 70 c8 73 8 79 -3 68z"/>
<path d="M573 1640 c0 -47 2 -66 4 -42 2 23 2 61 0 85 -2 23 -4 4 -4 -43z"/>
<path d="M966 1174 c-9 -8 -16 -22 -16 -29 0 -32 87 -48 110 -20 36 43 -53 90
-94 49z"/>
<path d="M917 948 c-43 -12 -69 -50 -49 -70 9 -9 21 -8 48 6 34 15 39 16 53 2
22 -23 -1 -46 -28 -29 -24 15 -47 -8 -62 -61 -30 -109 108 -204 196 -134 99
78 57 241 -74 286 -19 7 -37 12 -40 11 -3 -1 -23 -6 -44 -11z"/>
<path d="M1943 920 c-45 -10 -81 -36 -103 -72 -77 -128 27 -277 150 -213 43
22 60 53 60 111 0 54 -27 104 -56 104 -8 0 -14 5 -14 10 0 14 33 13 47 -1 14
-14 43 -5 43 14 0 36 -68 62 -127 47z"/>
<path d="M1317 683 c-12 -11 -8 -44 10 -73 39 -66 146 -90 229 -50 63 31 98
120 47 120 -11 0 -25 -16 -36 -39 -39 -85 -165 -79 -204 10 -16 37 -31 47 -46
32z"/>
</g>
</svg>
