<svg xmlns="http://www.w3.org/2000/svg" viewBox="140 -852.31 680 752.31"><path d="M240-100.001q-41.922 0-70.961-29.038-29.038-29.039-29.038-70.78v-100.18h120v-552.307l55.385 47.692 56.153-47.692 56.154 47.692 56.153-47.692L540-804.614l56.154-47.692 56.153 47.692 56.154-47.692 56.153 47.692 55.385-47.692V-200q0 41.922-29.038 70.961-29.039 29.038-70.961 29.038H240ZM720-160q17 0 28.5-11.5T760-200v-560H320v460.001h360V-200q0 17 11.5 28.5T720-160ZM367.693-610.001v-59.998h226.922v59.998H367.693Zm0 120v-59.998h226.922v59.998H367.693Zm309.999-114.615q-14.692 0-25.038-10.346T642.308-640q0-14.692 10.346-25.038t25.038-10.346q14.692 0 25.038 10.346T713.076-640q0 14.692-10.346 25.038t-25.038 10.346Zm0 120q-14.692 0-25.038-10.346T642.308-520q0-14.692 10.346-25.038t25.038-10.346q14.692 0 25.038 10.346T713.076-520q0 14.692-10.346 25.038t-25.038 10.346ZM240-160h380.001v-80H200v40q0 17 11.5 28.5T240-160Zm-40 0v-80 80Z"/></svg>