<svg xmlns="http://www.w3.org/2000/svg" viewBox="140 -660 680 360"><path d="M293.078-597.692v-59.999h526.921v59.999H293.078Zm0 147.691v-59.998h526.921v59.998H293.078Zm0 147.692v-59.999h526.921v59.999H293.078ZM172.309-595.384q-13.731 0-23.019-9.399-9.289-9.399-9.289-23.293 0-13.567 9.289-22.745 9.288-9.178 23.019-9.178 13.73 0 23.018 9.178 9.289 9.178 9.289 22.745 0 13.894-9.289 23.293-9.288 9.399-23.018 9.399Zm0 147.306q-13.731 0-23.019-9.177-9.289-9.178-9.289-22.745 0-14.307 9.289-23.5 9.288-9.192 23.019-9.192 13.73 0 23.018 9.192 9.289 9.193 9.289 23.5 0 13.567-9.289 22.745-9.288 9.177-23.018 9.177Zm0 148.077q-13.731 0-23.019-9.399-9.289-9.399-9.289-23.293 0-13.567 9.289-22.745 9.288-9.178 23.019-9.178 13.73 0 23.018 9.178 9.289 9.178 9.289 22.745 0 13.894-9.289 23.293-9.288 9.399-23.018 9.399Z"/></svg>