<?xml version="1.0" standalone="no"?>
<!DOCTYPE svg PUBLIC "-//W3C//DTD SVG 20010904//EN"
 "http://www.w3.org/TR/2001/REC-SVG-20010904/DTD/svg10.dtd">
<svg version="1.0" xmlns="http://www.w3.org/2000/svg"
 width="524.000000pt" height="856.000000pt" viewBox="0 0 524.000000 856.000000"
 preserveAspectRatio="xMidYMid meet">

<g transform="translate(0.000000,856.000000) scale(0.100000,-0.100000)">
<path d="M1975 8539 c-139 -18 -327 -82 -427 -145 -21 -13 -40 -24 -44 -24
-12 0 -169 -128 -205 -166 -85 -93 -173 -223 -210 -311 l-21 -50 -111 -6
c-365 -18 -675 -213 -831 -524 -68 -135 -89 -223 -90 -373 0 -104 4 -136 23
-190 90 -258 298 -424 594 -475 20 -3 37 -9 37 -13 0 -4 -18 -95 -41 -202 -22
-107 -51 -253 -64 -325 -13 -71 -35 -162 -49 -200 -94 -261 -67 -579 72 -833
l34 -64 -23 -16 c-76 -51 -129 -136 -149 -240 -51 -258 143 -496 419 -515 l63
-4 32 -64 c48 -97 103 -176 181 -257 176 -186 397 -304 718 -383 48 -12 87
-24 87 -28 0 -4 -14 -15 -30 -25 -63 -36 -189 -144 -299 -253 l-113 -114 -120
21 c-158 26 -231 27 -258 0 -23 -23 -23 -14 -10 -118 l11 -83 -34 -40 c-149
-173 -154 -427 -11 -567 l54 -52 0 -584 c0 -469 3 -586 13 -594 39 -32 395
-90 610 -99 81 -3 149 -9 151 -12 2 -3 7 -25 11 -48 6 -41 6 -42 -30 -52 -127
-35 -255 -186 -255 -302 0 -59 28 -86 107 -105 137 -32 470 -6 713 56 111 28
146 44 160 71 7 12 17 97 22 188 11 193 14 211 33 211 17 0 20 -27 33 -239 9
-154 9 -154 39 -181 70 -63 474 -131 684 -116 177 12 249 44 249 111 0 65 -40
146 -105 210 -46 47 -137 107 -182 121 -10 3 25 138 37 144 8 5 67 16 130 25
124 18 358 68 430 92 24 9 50 23 58 32 10 13 12 123 10 562 l-3 546 43 43
c142 137 135 395 -15 560 l-34 38 6 94 c4 51 8 103 11 116 3 15 -4 31 -21 48
-22 22 -30 24 -77 18 -29 -4 -88 -15 -130 -24 -43 -9 -81 -14 -85 -11 -4 3
-26 28 -47 54 -46 58 -223 217 -283 255 -44 28 -52 40 -30 46 338 99 498 180
658 333 95 91 154 170 203 273 l36 74 99 17 c181 30 294 107 362 245 29 58 34
80 37 159 8 182 -53 294 -212 390 -16 9 -14 16 12 75 56 124 74 203 79 360 5
161 -11 271 -63 413 -14 39 -30 90 -35 112 -13 57 -109 642 -109 664 0 15 11
19 63 25 202 20 407 129 528 280 104 129 149 259 149 433 0 228 -78 431 -229
595 -153 166 -369 268 -567 268 l-82 0 -32 58 c-98 172 -264 323 -438 396
-274 115 -633 80 -895 -88 -32 -20 -61 -36 -65 -36 -4 0 -30 23 -57 51 -196
201 -553 309 -880 268z m375 -119 c177 -43 354 -140 444 -242 26 -29 62 -85
81 -125 40 -82 61 -100 93 -77 27 19 27 46 1 103 -11 25 -16 48 -12 52 18 17
136 79 199 104 340 136 657 87 903 -141 120 -111 202 -250 241 -409 26 -107
49 -134 84 -99 20 19 20 73 1 144 -8 30 -15 58 -15 63 0 13 76 7 161 -14 269
-67 492 -292 560 -568 18 -70 20 -105 16 -200 -5 -136 -24 -199 -88 -292 -41
-61 -149 -171 -192 -195 -124 -71 -229 -105 -332 -108 l-40 -1 -41 205 c-23
113 -51 224 -62 246 -24 48 -78 103 -108 110 -74 19 -98 -27 -34 -65 22 -14
47 -40 56 -60 19 -39 59 -241 99 -496 15 -93 44 -280 66 -414 21 -134 39 -250
39 -258 0 -9 -17 -5 -58 16 -261 132 -757 267 -1177 321 -257 33 -457 43 -755
37 -360 -8 -596 -34 -921 -103 -307 -64 -692 -191 -838 -275 -18 -11 -36 -18
-38 -15 -5 5 4 60 74 421 97 509 133 678 150 712 10 21 33 47 50 58 34 21 38
41 12 58 -39 24 -107 -23 -145 -100 -19 -40 -91 -320 -100 -388 -3 -22 -8 -43
-12 -47 -20 -20 -215 42 -308 99 -209 127 -304 367 -249 628 40 187 186 389
359 496 137 84 341 149 470 149 l49 0 -7 -32 c-19 -95 -19 -116 2 -127 31 -16
56 13 76 87 19 74 91 221 149 307 59 86 200 229 278 281 121 80 274 141 424
169 105 19 281 12 395 -15z m559 -2480 c79 -6 164 -11 188 -12 40 -1 47 -5 73
-42 61 -88 283 -286 321 -286 11 0 24 11 31 26 12 25 9 29 -52 82 -105 90
-196 185 -182 190 7 2 43 -1 80 -8 137 -24 161 -31 167 -51 9 -27 113 -137
146 -155 37 -19 75 -18 83 2 7 19 -8 40 -69 95 -69 63 -49 62 210 -14 215 -63
476 -166 565 -222 35 -22 42 -33 64 -107 65 -217 62 -393 -11 -575 -53 -135
-146 -264 -216 -299 -55 -29 -141 18 -202 109 l-35 52 77 13 c152 25 247 95
229 168 -15 57 -198 204 -256 204 -83 0 -62 -84 43 -167 49 -38 56 -48 45 -59
-25 -25 -143 -36 -267 -24 -381 37 -756 193 -1030 431 -97 83 -115 93 -141 79
-28 -15 -35 -53 -15 -84 17 -25 124 -122 212 -191 66 -53 217 -144 314 -189
153 -71 358 -129 591 -166 l77 -13 32 -65 c50 -101 152 -195 252 -231 32 -12
32 -10 17 -218 -16 -215 -55 -349 -143 -479 -157 -234 -422 -390 -806 -474
-612 -135 -1321 -81 -1743 131 -264 133 -456 352 -521 594 -20 74 -44 239 -53
360 l-6 90 49 32 c100 65 249 246 322 391 13 24 38 85 57 135 19 50 37 93 39
96 3 2 32 -22 65 -53 64 -59 115 -87 192 -106 43 -11 50 -10 97 15 57 31 81
71 81 134 0 23 4 41 9 41 4 0 44 -30 87 -66 210 -175 449 -288 729 -344 123
-25 279 -24 325 1 57 32 79 52 95 85 32 68 0 116 -160 237 -220 167 -375 321
-512 513 -28 39 -61 91 -73 115 -38 74 -59 99 -86 99 -39 0 -50 -37 -30 -98
19 -56 97 -186 172 -284 77 -102 309 -326 436 -421 65 -49 120 -93 124 -99 4
-5 -1 -17 -10 -26 -24 -24 -175 -20 -295 8 -351 83 -701 297 -887 546 -59 78
-75 89 -104 74 -38 -20 -34 -48 19 -154 55 -111 71 -184 49 -226 -19 -34 -41
-36 -102 -6 -116 57 -234 199 -295 355 -15 38 -33 76 -40 85 -20 24 -54 16
-69 -17 -11 -23 -11 -36 3 -84 9 -31 32 -87 51 -125 19 -37 34 -76 34 -87 0
-66 -112 -310 -193 -420 -90 -123 -212 -231 -260 -231 -31 0 -95 60 -139 129
-57 90 -99 188 -134 306 -26 90 -29 114 -29 245 0 144 13 232 41 276 11 19
110 72 235 128 267 118 744 240 1102 281 283 33 668 43 936 25z m1650 -1374
c15 -8 46 -35 69 -59 101 -111 93 -294 -19 -422 -40 -45 -140 -93 -213 -101
l-58 -7 6 29 c15 69 25 198 24 316 l-1 127 69 65 c38 36 75 65 82 66 7 0 25
-6 41 -14z m-3821 -57 c26 -23 65 -50 88 -61 l41 -20 12 -142 c7 -77 19 -177
27 -221 8 -44 14 -82 14 -84 0 -10 -112 13 -155 33 -71 32 -116 75 -156 148
-30 57 -33 71 -33 143 0 60 5 92 21 127 25 54 71 118 85 118 6 0 31 -19 56
-41z m2594 -1421 c121 -82 328 -262 328 -286 0 -10 -31 -24 -96 -43 -33 -9
-49 -8 -87 5 -26 9 -59 16 -72 16 -25 0 -25 1 -25 90 0 72 -3 92 -15 96 -32
13 -45 -15 -45 -96 l0 -77 -326 1 -326 0 34 31 c19 16 67 57 108 90 40 33 96
85 124 116 l51 56 90 12 c50 7 106 16 125 21 59 14 67 11 132 -32z m-1069 -4
l78 -7 62 -64 c34 -36 90 -86 125 -111 l62 -46 -35 -36 -35 -36 -177 -12 c-98
-7 -209 -16 -246 -19 l-69 -6 7 99 c5 81 4 103 -9 119 -14 18 -16 19 -31 4
-11 -11 -19 -46 -25 -113 -10 -106 -14 -116 -37 -116 -9 0 -67 -12 -131 -26
-114 -25 -162 -26 -162 0 0 16 159 170 255 248 39 31 103 76 143 101 66 41 76
44 110 36 20 -4 72 -11 115 -15z m557 -23 c0 -13 -142 -141 -155 -141 -15 1
-158 113 -163 127 -3 9 35 13 150 16 84 1 156 4 161 5 4 1 7 -2 7 -7z m1163
-368 c-3 -38 -8 -70 -10 -73 -2 -3 -33 -3 -67 -2 -168 9 -275 -111 -310 -348
-2 -14 -4 29 -5 96 0 66 -4 161 -7 211 l-7 90 114 26 c129 30 281 65 290 66 4
1 4 -29 2 -66z m-576 -16 c45 -7 84 -15 86 -17 16 -17 53 -1797 39 -1847 -5
-15 -28 -20 -207 -38 -374 -37 -574 -47 -1082 -52 l-523 -6 0 941 c0 887 1
941 18 946 80 24 457 67 742 86 193 12 826 4 927 -13z m-2052 -7 c33 -5 111
-22 173 -37 l113 -28 -2 -142 c0 -82 -5 -141 -10 -137 -5 3 -9 11 -9 19 0 7
-10 39 -22 70 -50 132 -201 220 -320 187 -35 -10 -36 -9 -42 20 -12 62 -9 69
27 64 17 -3 59 -10 92 -16z m2602 -156 c85 -41 143 -134 151 -243 10 -151 -65
-261 -181 -261 -102 0 -190 74 -223 188 -56 191 101 387 253 316z m-2543 -24
c77 -38 135 -162 122 -261 -21 -154 -130 -259 -257 -247 -64 6 -96 30 -134 99
-27 49 -30 62 -30 144 1 99 18 152 70 213 59 70 151 91 229 52z m2234 -411
c26 -56 97 -124 160 -152 27 -11 73 -22 107 -23 l60 -3 3 -491 c1 -308 -1
-498 -8 -509 -10 -21 -80 -40 -246 -70 l-101 -18 -7 546 c-3 300 -9 616 -11
701 -5 142 -4 151 8 110 8 -25 24 -66 35 -91z m-2018 -629 c0 -393 -1 -715 -3
-716 -1 -1 -83 11 -182 27 -99 15 -181 28 -183 29 -1 0 -1 244 0 542 l3 542
35 3 c87 9 166 48 226 110 46 49 94 133 94 167 0 10 2 17 5 14 3 -3 5 -326 5
-718z m1695 -822 c-22 -128 -53 -151 -210 -156 -72 -3 -128 2 -199 17 -54 11
-99 21 -101 23 -1 2 -5 30 -8 64 l-5 61 157 8 c86 4 190 10 231 15 41 4 90 8
108 9 l34 1 -7 -42z m-745 -46 c0 -21 -6 -45 -12 -53 -19 -24 -194 -59 -290
-59 -87 0 -182 20 -204 42 -15 15 -35 94 -26 103 3 3 124 5 269 5 l263 0 0
-38z m732 -174 c-23 -24 -47 -51 -54 -61 -12 -16 -22 -16 -179 8 -222 32 -259
42 -259 67 0 16 5 19 23 14 159 -44 357 -46 447 -3 30 14 57 24 59 21 2 -2
-14 -23 -37 -46z m-1235 20 c43 -20 63 -23 198 -22 127 0 160 4 215 22 81 27
82 27 78 0 -3 -25 -4 -25 -273 -72 -77 -13 -144 -26 -150 -27 -5 -2 -37 24
-69 59 -32 34 -56 62 -53 62 3 0 27 -10 54 -22z m-128 -17 c11 -11 47 -56 81
-100 34 -45 68 -81 75 -81 8 0 22 8 32 19 12 13 44 22 103 30 94 13 280 48
304 57 12 5 16 -1 16 -25 0 -23 -6 -34 -27 -45 -31 -15 -163 -49 -268 -68 -86
-15 -489 -18 -504 -3 -11 11 -4 47 16 80 11 18 21 20 122 18 102 -3 111 -1
111 15 0 36 -37 56 -101 57 -32 0 -59 2 -59 4 0 7 64 60 73 61 4 0 16 -9 26
-19z m1504 9 c7 -6 24 -21 39 -33 l28 -23 -40 4 c-43 4 -92 -10 -124 -37 -16
-13 -16 -10 4 18 29 42 63 79 73 80 4 1 13 -4 20 -9z m-586 -99 c17 -5 103
-19 190 -32 126 -17 161 -26 171 -40 19 -28 50 -23 70 10 16 28 19 29 123 36
59 4 117 4 129 0 24 -8 56 -73 43 -86 -48 -48 -474 -28 -678 32 -71 21 -95 39
-95 71 0 21 4 21 47 9z"/>
<path d="M2803 7183 c-3 -10 -8 -21 -10 -25 -7 -13 72 -79 148 -123 189 -112
434 -119 647 -18 67 31 73 37 70 61 -4 37 -39 39 -112 7 -214 -95 -482 -63
-638 75 -50 43 -94 53 -105 23z"/>
<path d="M1406 7171 c-26 -29 -19 -52 31 -99 149 -143 462 -187 763 -107 108
29 297 116 306 140 4 10 -1 25 -14 37 l-20 21 -100 -47 c-54 -26 -144 -58
-198 -73 -87 -23 -119 -27 -259 -27 -224 -1 -334 31 -422 123 -49 51 -65 57
-87 32z"/>
<path d="M723 5313 c-26 -39 -42 -108 -43 -181 0 -57 2 -63 25 -74 37 -17 47
-1 57 84 4 40 13 93 19 119 7 25 9 54 6 63 -10 25 -45 19 -64 -11z"/>
<path d="M1648 4418 c-44 -12 -98 -61 -124 -115 -15 -30 -19 -61 -19 -148 0
-102 2 -113 28 -157 39 -66 84 -98 149 -105 48 -5 57 -2 102 28 76 52 101 109
101 230 0 86 -3 101 -30 154 -48 94 -125 135 -207 113z"/>
<path d="M3536 4415 c-87 -31 -139 -121 -140 -245 -1 -98 8 -137 44 -191 82
-125 234 -114 309 21 33 59 41 182 17 264 -21 71 -79 138 -134 154 -48 14 -48
14 -96 -3z"/>
<path d="M2358 4036 c-43 -33 -6 -158 68 -230 109 -106 332 -100 447 12 45 43
63 74 76 133 12 54 -7 99 -43 99 -29 0 -41 -14 -61 -71 -29 -81 -114 -139
-204 -139 -80 0 -170 60 -192 128 -24 78 -52 98 -91 68z"/>
<path d="M2955 2183 c-62 -7 -79 -27 -48 -59 15 -15 34 -16 176 -9 88 3 166 9
173 12 19 7 18 49 -2 57 -17 6 -232 5 -299 -1z"/>
<path d="M2146 2161 c-93 -6 -117 -19 -103 -55 6 -14 37 -16 300 -16 303 0
357 6 357 39 0 38 -17 41 -244 39 -122 -1 -261 -4 -310 -7z"/>
<path d="M3362 1998 c-36 -36 6 -91 46 -62 26 18 28 37 6 58 -19 19 -36 20
-52 4z"/>
<path d="M1840 1975 c-26 -32 13 -81 48 -59 34 22 22 74 -18 74 -10 0 -23 -7
-30 -15z"/>
<path d="M2899 1869 c-19 -19 -20 -23 -5 -37 13 -13 41 -16 178 -13 90 1 173
5 185 7 24 6 35 26 27 49 -5 13 -35 15 -185 15 -169 0 -180 -1 -200 -21z"/>
<path d="M2515 1860 c-24 -26 -5 -50 41 -50 28 0 35 4 40 26 11 44 -47 62 -81
24z"/>
<path d="M2058 1859 c-26 -15 -23 -47 6 -55 13 -3 83 -4 155 -2 106 2 133 6
147 20 14 14 15 20 4 32 -10 13 -38 16 -154 16 -77 0 -149 -5 -158 -11z"/>
<path d="M3362 1663 c2 -10 10 -18 18 -18 8 0 16 8 18 18 2 12 -3 17 -18 17
-15 0 -20 -5 -18 -17z"/>
<path d="M1832 1608 c-29 -29 4 -76 42 -62 18 7 31 47 21 63 -8 15 -48 14 -63
-1z"/>
<path d="M2928 1509 c-23 -13 -23 -46 0 -58 10 -5 80 -7 164 -4 126 5 150 9
164 24 14 15 14 21 4 34 -10 12 -40 15 -164 15 -84 0 -159 -5 -168 -11z"/>
<path d="M2310 1490 c-129 -3 -243 -9 -252 -14 -29 -13 -23 -54 9 -62 15 -4
161 -3 325 2 264 8 299 11 315 27 14 13 15 21 7 35 -13 20 -51 21 -404 12z"/>
<path d="M3362 1318 c-32 -32 3 -84 44 -66 32 15 37 35 14 58 -23 23 -41 25
-58 8z"/>
<path d="M1846 1244 c-19 -19 -20 -36 -4 -52 32 -32 83 2 67 46 -10 26 -41 29
-63 6z"/>
<path d="M3044 1251 c-120 -6 -154 -16 -154 -46 0 -21 26 -25 173 -25 146 0
189 9 195 41 3 18 -38 40 -71 37 -12 -1 -76 -4 -143 -7z"/>
<path d="M2478 1233 c-22 -6 -31 -32 -17 -49 8 -10 37 -14 100 -14 116 0 163
22 127 58 -12 12 -171 16 -210 5z"/>
<path d="M2086 1221 c-47 -7 -66 -31 -46 -56 13 -15 29 -17 128 -13 86 4 118
9 130 21 14 15 14 18 -3 37 -15 17 -29 20 -94 19 -42 -1 -94 -5 -115 -8z"/>
<path d="M3005 953 c-377 -17 -394 -20 -395 -60 0 -32 39 -35 309 -24 315 14
338 16 352 43 25 47 -9 53 -266 41z"/>
<path d="M2166 921 c-114 -6 -137 -17 -123 -55 5 -14 26 -16 141 -16 74 0 146
4 160 10 54 20 16 74 -47 68 -12 -1 -71 -4 -131 -7z"/>
</g>
</svg>
