<?xml version="1.0" standalone="no"?>
<!DOCTYPE svg PUBLIC "-//W3C//DTD SVG 20010904//EN"
 "http://www.w3.org/TR/2001/REC-SVG-20010904/DTD/svg10.dtd">
<svg version="1.0" xmlns="http://www.w3.org/2000/svg"
 width="844.000000pt" height="822.000000pt" viewBox="0 0 844.000000 822.000000"
 preserveAspectRatio="xMidYMid meet">

<g transform="translate(0.000000,822.000000) scale(0.100000,-0.100000)">
<path d="M5177 8194 c-264 -48 -505 -221 -627 -449 -27 -53 -37 -62 -73 -74
-123 -38 -284 -183 -353 -317 -61 -118 -78 -188 -78 -324 0 -131 17 -206 71
-311 65 -126 191 -252 315 -315 l47 -24 -59 -123 c-83 -169 -76 -160 -112
-153 -55 11 -192 82 -277 145 -46 33 -90 61 -96 61 -7 0 -24 -9 -39 -21 -22
-17 -26 -28 -26 -67 1 -44 26 -130 64 -215 16 -37 16 -37 -8 -47 -79 -30 -149
-43 -226 -43 -103 0 -145 11 -274 70 -93 43 -101 45 -125 32 -24 -14 -26 -20
-25 -90 0 -96 30 -183 93 -280 46 -69 154 -183 229 -240 l34 -26 -45 -37 c-24
-20 -47 -36 -51 -36 -3 0 -6 16 -6 35 0 28 -9 45 -39 78 l-40 42 -138 0 c-76
0 -280 -6 -453 -14 -222 -10 -326 -11 -352 -3 -26 7 -153 5 -445 -8 -224 -10
-509 -21 -633 -25 -177 -5 -238 -11 -285 -25 -51 -16 -130 -21 -515 -35 -250
-8 -474 -18 -497 -21 -50 -6 -100 -44 -118 -89 -10 -23 -11 -135 -4 -520 4
-269 13 -778 19 -1130 26 -1525 28 -1616 48 -1654 10 -20 34 -46 52 -58 30
-21 45 -23 149 -23 64 0 181 5 261 10 80 5 271 16 425 25 154 8 343 20 420 25
77 5 327 21 555 35 388 23 565 35 1258 85 185 13 283 24 303 34 24 12 29 12
29 1 0 -19 56 -83 79 -90 9 -3 25 -21 34 -40 9 -20 27 -39 40 -44 13 -5 55
-33 93 -62 157 -119 346 -165 517 -125 35 8 57 10 57 3 0 -5 -16 -76 -35 -157
-42 -182 -102 -492 -111 -581 -6 -63 -5 -68 18 -83 13 -9 40 -19 59 -22 66
-13 65 -12 73 -147 19 -356 91 -655 169 -700 15 -8 73 -12 180 -12 l159 0 28
31 c15 18 37 58 49 90 12 33 26 68 31 79 5 11 23 72 40 135 17 63 40 145 51
183 l20 67 95 0 c52 0 104 -4 114 -10 12 -6 32 -50 56 -122 20 -62 57 -165 81
-228 92 -234 80 -225 283 -225 145 0 161 2 187 21 72 53 138 331 162 675 5 70
11 131 14 137 4 5 35 13 69 16 77 9 124 28 132 53 4 11 -5 86 -19 168 -14 82
-25 154 -25 162 0 7 15 20 33 29 17 9 64 38 102 64 39 26 81 51 95 55 36 11
60 35 60 60 0 13 15 48 34 79 80 133 48 274 -108 484 -134 181 -356 388 -574
537 -56 39 -102 73 -102 76 0 3 53 9 118 13 373 21 640 121 848 319 l71 67 76
-10 c223 -31 422 90 472 289 20 75 14 139 -21 228 l-25 61 54 80 c97 141 144
299 154 509 10 202 -24 376 -109 571 l-40 92 75 163 c41 89 85 187 97 217 13
30 27 59 32 65 5 5 54 8 116 6 253 -7 450 99 550 295 51 99 67 266 37 389 -14
60 -14 60 14 95 111 141 165 347 142 544 -47 399 -332 736 -709 838 -59 16
-109 21 -213 22 l-137 1 -17 55 c-40 125 -112 241 -222 353 -123 125 -259 206
-448 263 -83 25 -104 28 -265 28 -138 1 -192 -3 -255 -18 -96 -22 -223 -68
-284 -102 -24 -13 -46 -24 -50 -24 -4 0 -30 18 -59 39 -153 116 -365 157 -595
115z m337 -109 c67 -17 186 -77 212 -106 14 -16 15 -23 4 -49 -10 -24 -10 -33
0 -45 19 -23 37 -18 109 29 91 60 131 79 241 114 137 43 229 56 372 49 239
-10 434 -94 599 -257 140 -137 238 -346 239 -507 0 -56 8 -73 35 -73 32 0 45
20 52 79 7 63 15 66 157 58 123 -7 196 -26 301 -77 221 -108 401 -330 466
-575 31 -116 31 -284 1 -383 -34 -109 -65 -158 -162 -258 -70 -71 -169 -124
-277 -148 -93 -21 -177 -20 -285 2 -95 20 -118 15 -118 -23 0 -34 62 -62 177
-80 49 -8 53 13 -39 -200 -100 -230 -279 -628 -299 -667 -8 -15 -21 -8 -97 58
-78 67 -196 155 -364 270 -32 21 -58 43 -58 47 0 5 13 27 28 50 81 120 99 177
54 177 -13 0 -37 -28 -77 -91 -32 -50 -64 -93 -71 -96 -7 -3 -64 24 -126 60
-257 147 -634 320 -883 404 -365 124 -838 213 -1127 213 -71 0 -128 2 -128 4
0 5 154 325 266 552 57 116 110 217 118 223 11 10 27 6 75 -18 100 -51 201
-74 329 -75 120 -1 135 5 130 49 -3 18 -13 21 -88 27 -135 12 -224 36 -329 89
-169 84 -297 224 -343 373 -69 223 22 477 230 642 74 59 218 129 312 154 96
24 280 27 364 5z m-1029 -653 c1 -111 4 -136 27 -199 32 -90 101 -194 173
-262 l56 -53 -105 -208 c-57 -115 -106 -214 -108 -222 -12 -36 -188 103 -264
209 -137 191 -146 451 -20 645 40 62 112 135 182 183 27 19 51 34 54 34 3 1 5
-56 5 -127z m-389 -1357 c145 -83 251 -107 550 -125 94 -5 206 -15 250 -21 90
-12 382 -72 464 -95 153 -43 331 -99 390 -122 14 -6 52 -20 85 -33 33 -12 89
-36 125 -52 36 -16 108 -49 161 -73 475 -213 1006 -555 1120 -720 42 -61 92
-166 117 -244 97 -307 55 -694 -96 -870 -24 -28 -33 -32 -43 -23 -10 10 -10
24 1 69 15 62 8 87 -28 92 -24 4 -58 -42 -69 -90 -5 -26 -7 -27 -97 -30 -50
-2 -95 -2 -99 0 -5 2 1 15 14 28 27 29 32 91 7 107 -24 15 -61 -6 -80 -47 -35
-73 -116 -173 -205 -252 -52 -46 -99 -81 -104 -78 -12 7 -11 442 1 579 17 192
14 182 73 195 28 6 55 14 61 19 6 5 35 11 64 13 84 8 133 55 96 93 -16 16 -26
16 -79 1 -16 -5 -30 8 -70 67 -71 103 -237 266 -305 300 -30 15 -63 27 -72 27
-38 0 -63 -57 -35 -83 6 -7 46 -39 87 -71 108 -86 240 -221 240 -245 0 -20 -6
-21 -97 -21 -94 0 -273 23 -298 38 -6 4 -66 75 -132 157 -141 176 -240 285
-258 285 -7 0 -31 20 -53 45 -22 25 -82 85 -132 132 l-92 87 -29 -32 c-16 -18
-29 -36 -29 -41 0 -5 24 -31 53 -58 28 -27 85 -80 125 -118 39 -37 72 -73 72
-78 0 -6 17 -26 38 -46 21 -20 53 -54 71 -76 19 -22 67 -75 107 -117 77 -80
91 -106 52 -93 -13 4 -84 9 -160 11 -121 3 -142 6 -190 29 -97 46 -196 117
-287 204 -62 59 -84 68 -116 47 -31 -20 -31 -37 -3 -79 20 -30 137 -139 183
-171 11 -8 17 -17 14 -21 -8 -8 -225 28 -328 55 -169 43 -422 142 -511 200
-130 85 -194 131 -243 173 -68 58 -165 184 -197 256 -13 28 -27 51 -31 51 -12
0 -24 -28 -38 -83 -12 -51 -61 -137 -142 -252 -161 -227 -192 -273 -239 -350
-66 -111 -132 -247 -167 -346 -15 -43 -33 -79 -40 -79 -22 0 -117 85 -150 134
-86 127 -93 357 -17 585 34 102 60 166 77 186 4 6 30 44 56 85 51 78 158 178
259 240 29 17 52 37 52 44 0 15 -30 43 -91 84 -74 50 -200 173 -240 236 -41
62 -83 162 -74 176 3 4 22 0 43 -10 69 -33 187 -53 286 -48 91 5 223 38 261
64 27 20 37 18 92 -16 70 -44 153 -72 170 -59 24 20 14 36 -54 90 -84 66 -123
104 -150 149 -21 35 -38 80 -30 80 2 0 39 -20 83 -45z m4082 -212 c14 -221
-131 -401 -363 -449 -76 -16 -185 -13 -185 5 0 5 38 95 84 202 l83 193 69 12
c81 14 181 52 244 94 29 19 48 26 54 20 6 -6 12 -40 14 -77z m-4759 -519 c16
-20 21 -41 21 -85 0 -53 -4 -64 -40 -111 -84 -111 -156 -280 -186 -435 -21
-112 -21 -307 0 -386 33 -123 105 -221 212 -292 30 -20 54 -42 54 -50 0 -8
-15 -65 -32 -127 -29 -101 -33 -127 -33 -243 0 -120 2 -135 27 -191 l27 -61 1
-269 c0 -148 1 -285 0 -305 0 -33 -3 -37 -55 -58 -161 -67 -191 -251 -65 -394
16 -19 55 -52 85 -72 37 -26 55 -45 55 -59 0 -44 -13 -49 -142 -57 -67 -5
-294 -20 -503 -34 -209 -14 -524 -34 -700 -45 -176 -11 -462 -29 -635 -40
-595 -38 -1052 -62 -1076 -56 -13 4 -29 16 -35 29 -9 16 -15 160 -20 502 -5
264 -13 739 -19 1055 -21 1191 -24 1616 -11 1648 12 29 16 31 84 36 60 5 551
26 610 26 15 0 17 -12 18 -107 0 -137 11 -199 37 -225 21 -21 22 -21 304 -9
156 7 487 21 735 31 250 11 461 24 472 29 10 6 24 25 30 42 13 37 14 204 2
267 l-8 42 71 1 c39 0 175 7 301 13 127 7 267 14 312 14 77 2 83 1 102 -24z
m-971 -9 c15 -11 33 -14 55 -10 30 6 35 4 40 -17 13 -45 8 -218 -5 -223 -7 -2
-188 -11 -403 -20 -214 -8 -517 -21 -673 -27 -245 -10 -285 -10 -293 3 -5 7
-9 62 -9 121 0 101 1 108 23 122 17 11 94 17 342 26 262 10 797 33 880 39 11
0 30 -6 43 -14z m-2199 -129 c-10 -29 -10 -195 0 -893 25 -1668 38 -2297 49
-2324 14 -34 8 -39 -42 -39 -52 0 -84 22 -91 63 -3 18 -12 442 -20 942 -8 501
-20 1212 -26 1582 -10 540 -10 675 0 687 8 10 34 16 74 18 34 2 64 2 65 1 2
-1 -2 -17 -9 -37z m3996 -327 c211 -214 532 -380 905 -467 161 -38 355 -55
618 -55 88 0 92 -1 92 -22 0 -12 8 -29 18 -37 18 -17 208 -78 240 -78 29 0 45
25 37 60 -4 16 -5 30 -3 30 2 0 44 -9 93 -19 50 -11 121 -23 158 -26 l68 -7
-5 -37 c-29 -195 -33 -667 -6 -771 31 -124 99 -107 325 85 102 86 230 125 318
96 84 -28 150 -131 150 -237 0 -177 -202 -314 -385 -260 -31 9 -64 16 -73 16
-9 0 -56 -36 -103 -81 -48 -44 -118 -101 -157 -127 -238 -158 -579 -217 -1104
-193 -905 43 -1412 194 -1737 516 -196 195 -216 327 -102 675 93 286 160 424
309 643 54 78 133 195 176 259 43 64 80 117 83 117 3 1 41 -35 85 -80z m-592
-1735 c194 -177 491 -319 818 -390 l127 -28 -17 -44 c-12 -32 -29 -53 -66 -79
-76 -55 -182 -143 -267 -222 l-76 -71 -50 62 c-86 108 -126 141 -161 136 -17
-3 -35 0 -40 6 -4 6 -23 54 -41 106 -59 166 -133 212 -210 131 -34 -36 -38
-37 -62 -25 -24 13 -25 15 -31 171 -9 196 -9 313 -1 313 3 0 38 -30 77 -66z
m1131 -466 c58 -29 176 -110 176 -119 0 -14 -7 -11 -52 17 -63 40 -160 84
-185 84 -26 0 -35 12 -27 34 7 19 26 15 88 -16z m-1016 -40 c11 -29 26 -71 32
-93 7 -22 21 -56 32 -76 l20 -36 -86 -86 c-47 -48 -87 -87 -89 -87 -18 0 -200
109 -231 138 -80 76 -95 166 -36 216 52 44 123 45 202 5 20 -10 42 -19 47 -19
6 0 24 20 41 45 17 25 35 45 39 45 5 0 18 -24 29 -52z m1353 22 c27 0 49 -4
49 -9 0 -10 -75 -61 -91 -61 -7 0 -32 19 -57 42 l-45 41 48 -6 c26 -4 70 -7
96 -7z m543 -85 l46 -45 -34 -118 c-101 -351 -142 -640 -154 -1097 l-7 -240
-339 -3 c-187 -1 -343 1 -346 5 -4 5 -4 191 -2 415 l4 406 34 -20 c30 -17 39
-19 64 -8 34 14 34 15 55 135 19 111 33 162 46 171 6 3 21 3 33 0 19 -5 29
-22 50 -88 18 -53 24 -84 17 -86 -20 -7 -11 -53 15 -77 14 -13 39 -44 54 -69
16 -24 38 -47 50 -51 35 -11 72 24 97 91 14 38 26 58 35 55 49 -15 66 -12 87
14 44 57 11 122 -58 112 -36 -4 -37 -3 -55 40 -10 25 -37 72 -59 104 -21 33
-37 62 -35 64 3 3 33 -7 69 -21 83 -33 174 -42 216 -20 17 8 42 32 55 53 20
33 23 50 22 133 -1 61 -7 111 -18 139 -19 53 -19 51 -1 51 8 0 35 -20 59 -45z
m-894 -22 c30 -13 75 -36 100 -51 l45 -27 -35 -5 c-64 -9 -45 -70 23 -70 49 0
26 -23 -64 -63 -157 -70 -201 -44 -207 121 -6 142 9 153 138 95z m754 -13 c19
-48 21 -155 3 -190 -8 -15 -23 -26 -39 -28 -29 -3 -258 66 -258 78 0 4 15 11
33 16 25 8 32 15 32 34 0 20 -6 26 -27 28 -16 2 -28 7 -28 11 0 8 108 60 165
79 17 6 46 11 66 11 34 1 38 -2 53 -39z m341 -110 c241 -179 506 -463 586
-626 32 -64 49 -156 32 -167 -5 -3 -24 21 -41 53 -92 167 -243 250 -382 209
-25 -7 -49 -13 -54 -14 -5 0 -16 31 -25 69 -17 75 -38 99 -68 80 -16 -10 -18
-25 -15 -114 4 -131 -6 -160 -57 -160 -56 0 -99 -32 -128 -96 -53 -117 -12
-276 97 -378 81 -75 157 -91 282 -60 25 6 27 4 34 -41 5 -34 3 -49 -6 -55 -24
-15 -287 -44 -460 -52 l-65 -3 2 223 c3 345 32 629 93 897 35 152 78 295 88
295 4 0 43 -27 87 -60z m-1322 -12 c8 -83 23 -131 52 -166 23 -27 25 -42 35
-198 11 -184 14 -882 4 -933 -6 -26 -11 -31 -36 -31 -46 0 -242 30 -250 39 -9
8 73 420 133 676 43 180 44 215 5 215 -32 0 -51 -25 -78 -100 -23 -64 -24 -65
-78 -84 -82 -29 -243 -28 -330 3 -61 22 -184 95 -209 124 -8 11 18 48 120 170
73 86 137 157 145 157 18 0 100 -95 136 -157 19 -34 37 -53 48 -53 25 0 28 14
18 79 -5 30 -8 60 -6 67 3 13 268 253 279 254 4 0 9 -28 12 -62z m573 -3 c10
-16 14 -43 12 -87 l-3 -63 -47 -3 -46 -3 -4 78 c-4 90 -2 101 20 105 28 6 53
-4 68 -27z m-1134 -32 c23 -21 23 -36 -3 -59 -12 -10 -73 -81 -136 -156 -63
-76 -117 -138 -121 -138 -13 0 -52 44 -52 59 0 15 274 311 288 311 3 0 14 -7
24 -17z m786 -243 c-29 -44 -56 -80 -60 -80 -5 0 -8 17 -8 39 0 21 -3 53 -6
70 -6 31 -6 31 37 31 24 0 51 5 59 10 33 21 28 7 -22 -70z m462 18 c40 -55 62
-131 54 -186 -9 -57 -21 -61 -34 -10 -11 46 -57 198 -66 223 -12 30 17 14 46
-27z m-296 10 c-17 -53 -34 -124 -34 -143 0 -11 -4 -27 -10 -35 -8 -12 -13
-12 -44 3 -20 9 -36 23 -36 30 0 13 65 113 98 150 21 24 35 21 26 -5z m-179
-680 c0 -339 3 -470 12 -479 18 -18 934 -6 1131 15 84 9 173 21 199 26 25 6
48 9 50 6 3 -2 7 -22 10 -44 l5 -39 -108 -16 c-406 -61 -1086 -70 -1499 -22
-128 15 -235 32 -241 38 -2 2 -1 20 3 41 l6 38 46 -6 c197 -27 314 -37 325
-26 8 8 12 149 14 476 l3 465 22 -3 22 -3 0 -467z m1436 307 c50 -17 95 -56
137 -118 41 -58 82 -143 82 -166 0 -13 -30 -39 -97 -84 -147 -98 -135 -95
-176 -39 -46 63 -111 192 -132 265 -14 49 -15 63 -4 89 26 62 101 83 190 53z
m-272 -195 c14 -54 80 -196 111 -240 28 -40 25 -50 -15 -50 -113 0 -217 115
-219 240 0 78 14 100 67 100 l43 0 13 -50z m-1267 -777 c292 -30 1088 -22
1271 13 27 6 27 5 27 -48 0 -175 -56 -529 -101 -640 l-11 -28 -123 0 -123 0
-20 48 c-11 26 -47 126 -80 222 -33 96 -63 183 -67 193 -6 14 -1 17 30 17 20
0 45 5 56 10 22 12 25 42 6 58 -11 9 -436 17 -685 12 -19 0 -23 -5 -20 -27 3
-30 20 -38 101 -48 45 -6 47 -7 41 -33 -12 -54 -94 -339 -112 -392 l-19 -55
-121 -3 -121 -3 -15 34 c-38 91 -86 371 -101 590 -7 85 -5 97 9 97 8 0 89 -8
178 -17z"/>
<path d="M4822 7861 c-114 -115 -179 -295 -169 -462 8 -128 40 -188 77 -144
10 11 9 26 -1 67 -17 71 -14 206 6 276 22 78 74 166 134 232 56 60 56 61 39
78 -19 19 -24 16 -86 -47z"/>
<path d="M5730 7025 c-27 -33 15 -142 93 -243 109 -142 318 -241 508 -242 171
0 316 68 254 120 -13 11 -26 10 -74 -3 -148 -41 -285 -27 -431 44 -114 56
-212 154 -265 263 -37 78 -58 93 -85 61z"/>
<path d="M4838 6665 c-10 -22 -9 -28 3 -36 20 -12 25 -11 44 7 21 22 15 48
-13 52 -16 2 -25 -4 -34 -23z"/>
<path d="M4939 6563 c-85 -181 -160 -364 -162 -392 -2 -19 3 -27 19 -29 27 -4
37 9 72 98 17 41 62 147 102 234 74 163 78 186 36 194 -12 3 -29 -24 -67 -105z"/>
<path d="M4762 6483 c-32 -71 -32 -88 -2 -88 20 0 30 10 47 45 27 54 26 84 -3
88 -16 2 -25 -8 -42 -45z"/>
<path d="M5426 6365 c-8 -9 -13 -22 -10 -29 6 -17 15 -20 214 -84 85 -27 220
-75 300 -107 149 -59 175 -62 175 -19 0 28 -128 87 -355 164 -68 23 -295 90
-306 90 -1 0 -9 -7 -18 -15z"/>
<path d="M6880 6345 c-42 -50 115 -232 260 -301 65 -32 133 -42 155 -24 24 20
18 49 -12 62 -162 66 -235 118 -315 226 -40 53 -65 64 -88 37z"/>
<path d="M4654 6246 c-29 -63 -28 -91 1 -91 14 0 27 14 42 45 32 64 34 94 5
98 -19 3 -27 -6 -48 -52z"/>
<path d="M6918 5993 c-20 -23 -148 -281 -148 -299 0 -7 9 -18 20 -24 17 -9 23
-5 47 33 16 24 53 94 83 156 43 87 52 115 44 128 -15 24 -28 26 -46 6z"/>
<path d="M7004 5848 c-88 -171 -94 -183 -94 -201 0 -10 7 -20 17 -24 23 -9 49
27 118 166 50 101 57 122 46 135 -24 29 -39 17 -87 -76z"/>
<path d="M6713 5608 c-18 -22 -53 -96 -53 -112 0 -13 20 -26 39 -26 14 0 62
100 59 123 -3 25 -30 34 -45 15z"/>
<path d="M5158 5408 c-23 -29 -23 -37 5 -60 12 -11 33 -29 47 -41 14 -12 51
-44 82 -70 l57 -48 25 38 25 38 -42 38 c-60 55 -157 127 -170 127 -7 0 -20
-10 -29 -22z"/>
<path d="M2800 4549 c-69 -4 -262 -15 -429 -24 -168 -9 -308 -18 -313 -21 -14
-9 -9 -44 8 -51 8 -3 173 2 367 11 506 24 617 32 629 44 5 5 8 18 6 28 -3 16
-14 19 -73 20 -39 1 -126 -2 -195 -7z"/>
<path d="M645 4364 c-19 -20 -25 -38 -25 -70 0 -59 32 -95 84 -97 33 -1 44 5
70 35 l31 36 285 16 c157 8 344 18 415 21 72 3 149 8 173 11 48 6 64 27 40 51
-16 15 -193 9 -788 -26 l-125 -7 -33 28 c-44 37 -94 38 -127 2z m80 -75 c0
-24 -5 -34 -15 -34 -16 0 -25 37 -16 62 10 26 31 8 31 -28z"/>
<path d="M2475 4278 c-410 -20 -434 -24 -419 -61 5 -14 21 -17 93 -17 169 0
915 40 924 49 5 5 7 17 5 27 -3 17 -14 19 -103 20 -55 1 -280 -7 -500 -18z"/>
<path d="M1410 4049 c-69 -4 -262 -15 -430 -25 -168 -9 -313 -20 -322 -25 -23
-12 -23 -36 0 -48 9 -5 46 -7 82 -5 36 2 189 11 340 19 631 35 645 36 659 50
12 12 12 17 1 29 -14 18 -109 19 -330 5z"/>
<path d="M2800 4035 c-129 -7 -343 -18 -475 -25 -132 -7 -243 -14 -247 -17
-15 -8 -8 -44 9 -50 30 -12 954 32 991 47 30 13 28 38 -4 50 -14 6 -28 9 -32
9 -4 -1 -113 -7 -242 -14z"/>
<path d="M673 3795 c-25 -18 -44 -74 -36 -107 11 -43 43 -68 89 -68 35 0 47 5
68 30 l25 31 457 29 c473 30 494 33 478 73 -7 20 -26 21 -249 7 -88 -5 -278
-17 -423 -25 l-264 -16 -34 31 c-39 33 -77 39 -111 15z m73 -57 c4 -6 2 -14
-4 -16 -7 -2 -12 -10 -12 -18 0 -8 -7 -14 -15 -14 -16 0 -19 17 -9 44 7 19 30
21 40 4z"/>
<path d="M2835 3605 c-115 -8 -325 -19 -465 -26 -140 -6 -265 -16 -277 -20
-27 -10 -31 -44 -7 -53 29 -11 990 41 1016 55 36 19 7 61 -39 58 -10 -1 -112
-7 -228 -14z"/>
<path d="M675 3245 c-34 -33 -36 -112 -2 -142 46 -42 89 -36 137 17 l25 29
275 15 c151 9 358 21 460 27 192 11 220 19 206 55 -6 16 -21 16 -189 10 -100
-4 -312 -15 -472 -25 l-290 -17 -27 28 c-35 37 -88 39 -123 3z m80 -46 c11
-16 -4 -59 -20 -59 -10 0 -15 11 -15 35 0 35 20 49 35 24z"/>
<path d="M3005 3193 c-160 -9 -750 -44 -822 -50 -83 -6 -99 -15 -87 -48 7 -18
57 -19 259 -5 77 5 266 16 420 25 343 18 345 19 345 49 0 16 -7 26 -22 30 -13
3 -25 5 -28 4 -3 -1 -32 -3 -65 -5z"/>
<path d="M1545 2954 c-104 -7 -302 -20 -440 -29 -307 -19 -315 -20 -315 -45 0
-11 8 -23 18 -28 10 -6 165 0 402 14 532 32 561 35 574 57 9 15 7 21 -8 33
-11 8 -25 13 -30 13 -6 -1 -96 -8 -201 -15z"/>
<path d="M2850 2929 c-63 -4 -252 -15 -420 -24 -248 -13 -307 -19 -317 -32 -6
-8 -9 -21 -6 -29 7 -19 70 -18 503 6 501 27 508 28 515 51 4 10 3 23 0 29 -7
11 -103 11 -275 -1z"/>
<path d="M1385 2680 c-148 -10 -361 -23 -473 -30 -168 -11 -204 -16 -211 -29
-24 -47 22 -50 394 -26 127 8 330 21 453 29 178 10 227 16 239 29 13 13 14 19
3 31 -15 20 -46 19 -405 -4z"/>
<path d="M2830 2674 c-552 -34 -705 -45 -713 -53 -5 -5 -7 -17 -5 -27 3 -17
14 -19 128 -17 69 1 289 12 490 23 389 23 422 29 400 70 -12 23 6 23 -300 4z"/>
<path d="M1630 2429 c-69 -5 -277 -18 -464 -29 l-338 -21 -22 20 c-29 27 -85
27 -120 0 -22 -17 -26 -28 -26 -70 0 -40 5 -55 25 -74 46 -47 126 -27 148 36
8 22 30 25 687 65 146 9 273 20 283 25 36 20 14 61 -31 58 -9 -1 -73 -6 -142
-10z m-865 -108 c0 -39 -19 -52 -34 -23 -14 26 -3 64 18 60 11 -2 16 -14 16
-37z"/>
<path d="M4075 4591 c-58 -25 -68 -77 -19 -99 33 -15 176 -15 209 0 36 16 43
54 16 81 -18 19 -35 22 -104 24 -45 2 -91 -1 -102 -6z"/>
<path d="M4147 4126 c-69 -25 -111 -80 -127 -169 -20 -103 19 -200 96 -237 52
-26 97 -25 151 1 152 73 144 329 -11 400 -49 22 -59 22 -109 5z"/>
<path d="M5803 3893 c-59 -38 -95 -107 -101 -194 -4 -60 -1 -75 23 -124 35
-72 85 -107 152 -108 114 -1 193 89 193 223 0 101 -39 174 -112 211 -53 27
-106 24 -155 -8z"/>
<path d="M4752 3741 c-21 -13 -30 -74 -20 -137 36 -231 251 -322 403 -171 56
56 81 112 92 204 5 43 2 57 -12 73 -22 24 -52 26 -77 3 -41 -37 -253 -28 -313
13 -38 26 -52 29 -73 15z m243 -150 l114 -6 -19 -42 c-33 -74 -116 -104 -181
-66 -51 30 -91 145 -44 127 8 -4 67 -9 130 -13z"/>
<path d="M6942 3494 c-66 -33 -102 -89 -102 -158 0 -38 5 -52 26 -71 31 -28
56 -32 74 -10 10 12 10 24 0 61 -13 45 -12 46 17 76 22 22 47 34 89 42 48 10
60 16 62 33 4 28 -33 53 -78 53 -20 0 -60 -12 -88 -26z"/>
<path d="M5342 1667 c-31 -33 -29 -80 4 -106 41 -32 76 -24 102 26 18 32 15
51 -13 78 -30 31 -65 32 -93 2z"/>
<path d="M4867 1668 c-26 -20 -32 -70 -10 -95 28 -34 66 -39 96 -11 36 33 41
60 16 91 -23 30 -72 37 -102 15z"/>
<path d="M4884 1310 c-31 -12 -49 -62 -33 -92 27 -51 61 -60 103 -27 62 49 4
149 -70 119z"/>
<path d="M5353 1308 c-48 -23 -47 -103 1 -126 79 -39 137 71 64 122 -26 18
-34 19 -65 4z"/>
</g>
</svg>
