<svg xmlns="http://www.w3.org/2000/svg" width="448" height="418" viewBox="0 0 448 418" version="1.1"><path d="M 207.500 1.609 C 194.006 3.585, 177.175 8.837, 166 14.557 C 139.837 27.950, 116.537 52.756, 106.257 78.165 L 103.500 84.977 98.500 84.239 C 90.431 83.047, 74.991 83.604, 68.316 85.328 C 64.914 86.206, 58.434 88.751, 53.915 90.982 C 33.422 101.102, 18.525 116.211, 8.823 136.716 C 2.031 151.071, 0.626 158.051, 0.615 177.500 C 0.606 193.154, 0.820 195.195, 3.308 203.282 C 15.263 242.139, 48.839 269.892, 87.250 272.667 L 96 273.299 96.250 297.400 C 96.388 310.655, 96.500 337.925, 96.500 358 L 96.500 394.500 99.172 399.563 C 102.197 405.295, 107.877 410.828, 114.205 414.207 L 118.500 416.500 224 416.500 L 329.500 416.500 334.804 413.562 C 340.827 410.225, 345.858 405.067, 349.207 398.795 C 351.477 394.542, 351.500 394.141, 351.500 358 C 351.500 337.925, 351.613 310.655, 351.750 297.400 L 352 273.299 360.750 272.671 C 385.682 270.879, 410.802 257.475, 427.027 237.307 C 436.703 225.278, 447 201.581, 447 191.340 C 447 190.053, 447.450 189, 448 189 C 448.613 189, 449 184.167, 449 176.500 C 449 168.833, 448.613 164, 448 164 C 447.450 164, 447 162.925, 447 161.612 C 447 156.966, 441.841 141.511, 437.470 133.062 C 425.397 109.723, 403.916 92.029, 378.438 84.437 C 371.440 82.351, 366.613 81.661, 356.195 81.254 L 342.889 80.735 338.837 72.618 C 321.670 38.229, 291.622 13.990, 254.217 4.359 C 246.147 2.281, 241.619 1.799, 227.500 1.513 C 218.150 1.324, 209.150 1.367, 207.500 1.609 M 0.389 177.500 C 0.390 184.650, 0.550 187.444, 0.742 183.708 C 0.935 179.973, 0.934 174.123, 0.739 170.708 C 0.545 167.294, 0.387 170.350, 0.389 177.500" stroke="none" fill="#272727" fill-rule="evenodd"/></svg>