<svg xmlns="http://www.w3.org/2000/svg" viewBox="4 2 24 28.08"><path d="M 16 2 C 8.714844 2 4.398438 5.199219 4.398438 5.199219 L 4 5.5 L 4 17 C 4 21.082031 7.035156 24.28125 9.890625 26.46875 C 12.75 28.660156 15.59375 29.914063 15.59375 29.914063 L 15.964844 30.078125 L 16.34375 29.9375 C 16.34375 29.9375 19.210938 28.902344 22.089844 26.808594 C 24.964844 24.714844 28 21.457031 28 17 L 28 5.5 L 27.597656 5.199219 C 27.597656 5.199219 23.285156 2 16 2 Z M 16 4 C 22.214844 4 25.496094 6.234375 26 6.59375 L 26 17 C 26 20.542969 23.535156 23.285156 20.910156 25.191406 C 19.335938 26.335938 17.929688 27.054688 17 27.480469 L 17 24 L 15 24 L 15 27.375 C 14.0625 26.882813 12.667969 26.078125 11.109375 24.882813 C 8.464844 22.859375 6 20.054688 6 17 L 6 6.59375 C 6.503906 6.234375 9.785156 4 16 4 Z M 11 7 C 9.667969 7 8 8 7 10 C 8.300781 9.09375 9.40625 8.332031 10.332031 8.332031 C 12.125 8.332031 13.019531 10.433594 13.292969 10.707031 C 13.683594 11.097656 14.316406 11.097656 14.707031 10.707031 C 15.097656 10.316406 15.097656 9.683594 14.707031 9.292969 C 14.464844 9.050781 13.292969 7 11 7 Z M 21 7 C 18.707031 7 17.535156 9.050781 17.292969 9.292969 C 16.902344 9.683594 16.902344 10.316406 17.292969 10.707031 C 17.683594 11.097656 18.316406 11.097656 18.707031 10.707031 C 18.980469 10.433594 20.210938 8 22 8 C 22.925781 8 24 9 25 10 C 24 7 22.332031 7 21 7 Z M 10.5 11 C 9.476563 11 8.574219 11.394531 8 12 C 8.574219 12.605469 9.476563 13 10.5 13 C 11.523438 13 12.425781 12.605469 13 12 C 12.425781 11.394531 11.523438 11 10.5 11 Z M 21.5 11 C 20.476563 11 19.574219 11.394531 19 12 C 19.574219 12.605469 20.476563 13 21.5 13 C 22.523438 13 23.425781 12.605469 24 12 C 23.425781 11.394531 22.523438 11 21.5 11 Z M 8 17 L 11 22 L 15 22 L 16 21 L 17 22 L 21 22 L 24 17 L 20 20 L 19 20 L 17 18 L 15 18 L 13 20 L 12 20 Z"/></svg>