<svg xmlns="http://www.w3.org/2000/svg" height="24" viewBox="0 -960 960 960" width="24"><path d="M287.694-535.386 480-850.767l192.306 315.381H287.694ZM700-95.386q-68.846 0-116.73-47.884T535.386-260q0-68.846 47.884-116.73T700-424.614q68.846 0 116.73 47.884T864.614-260q0 68.846-47.884 116.73T700-95.386Zm-564.614-20v-289.228h289.228v289.228H135.386Zm564.603-39.998q43.934 0 74.28-30.336 30.347-30.335 30.347-74.269 0-43.934-30.336-74.28-30.335-30.347-74.269-30.347-43.934 0-74.28 30.336-30.347 30.335-30.347 74.269 0 43.934 30.336 74.28 30.335 30.347 74.269 30.347Zm-504.605-20h169.232v-169.232H195.384v169.232Zm198.154-420h172.924L480-734.462l-86.462 139.078Zm86.462 0ZM364.616-344.616ZM700-260Z"/></svg>