<svg xmlns="http://www.w3.org/2000/svg" version="1.1" viewBox="20.48 15.11 471.52 481.78"><path d="M 153 17.021 C 136.287 23.059, 105.907 41.188, 96.148 50.947 C 86.969 60.126, 82.500 73.830, 84.746 85.908 C 85.365 89.239, 87.584 95.685, 89.677 100.233 C 93.024 107.505, 93.480 109.406, 93.466 116.030 C 93.445 125.583, 90.156 132.876, 82.944 139.361 C 77.171 144.551, 71.326 146.800, 61.533 147.602 C 39.546 149.401, 25.794 161.502, 21.813 182.554 C 20.042 191.923, 20.034 233.039, 21.802 242.382 C 24.460 256.426, 32.232 267.035, 44.169 272.912 C 49.349 275.462, 52.687 276.311, 60.405 277.041 C 71.990 278.137, 77.189 280.226, 83.860 286.466 C 90.562 292.735, 93.351 299.307, 93.425 309 C 93.475 315.604, 93.038 317.463, 89.771 324.558 C 83.248 338.726, 82.544 348.331, 87.128 360.641 C 89.885 368.044, 99.620 377.975, 112.500 386.526 C 123.015 393.505, 147.983 406.324, 155.293 408.494 C 170.891 413.127, 189.153 407.025, 198.701 393.992 C 209.686 378.998, 215.718 374.959, 228.250 374.208 C 232.512 373.952, 236 374.109, 236 374.555 C 236 375.002, 229.332 382.148, 221.181 390.434 C 212.325 399.438, 205.098 407.735, 203.219 411.055 C 195.187 425.251, 194.958 443.023, 202.611 458.267 C 206.135 465.286, 228.586 487.801, 235.543 491.293 C 244.743 495.910, 251.417 497.295, 262.007 496.786 C 270.199 496.391, 272.756 495.820, 279.071 492.975 C 286.276 489.729, 288.069 488.069, 338.500 437.941 L 390.500 386.254 401.511 386.155 C 426.770 385.928, 449.726 375.752, 467.289 356.995 C 483.640 339.533, 492 318.303, 492 294.244 C 492 271.228, 486.689 261.615, 473.973 261.615 C 469.746 261.615, 466.647 263.145, 442.174 277.308 C 427.260 285.938, 414.245 293, 413.251 293 C 408.211 293, 405.141 286.738, 408.250 282.799 C 408.938 281.928, 420.975 274.628, 435 266.576 C 449.025 258.524, 461.715 250.618, 463.201 249.007 C 469.454 242.226, 468.888 232.801, 461.816 225.937 C 457.627 221.872, 446.528 214.105, 441.895 211.996 C 439.367 210.846, 439.269 210.462, 438.620 199.155 C 438.252 192.745, 437.322 184.516, 436.553 180.869 C 432.501 161.656, 419.571 150.203, 399.389 147.949 C 386.886 146.553, 381.876 144.653, 375.620 138.936 C 368.246 132.197, 365.558 125.957, 365.525 115.500 C 365.503 108.294, 365.871 106.722, 369.241 99.666 C 376.101 85.298, 376.437 73.893, 370.365 61.493 C 365.251 51.048, 347.340 37.092, 323.748 25.167 C 306.998 16.701, 299.981 14.643, 289.750 15.193 C 275.259 15.973, 266.159 21.827, 254.989 37.556 C 241.614 56.389, 213.310 54.743, 201.412 34.440 C 197.890 28.430, 189.893 21.301, 183.218 18.222 C 175.409 14.619, 161.210 14.055, 153 17.021 M 162.618 48.563 C 151.385 52.682, 128.889 65.768, 120.734 72.928 C 116.180 76.927, 116.079 78.800, 119.966 87.138 C 124.308 96.451, 126.295 105.283, 126.347 115.500 C 126.401 126.112, 124.929 132.940, 120.526 142.500 C 110.467 164.342, 91.550 177.589, 67.053 179.944 C 56.374 180.971, 54.594 182.626, 53.534 192.523 C 52.628 200.990, 52.633 224.058, 53.543 232.561 C 54.544 241.901, 56.184 243.568, 65.219 244.430 C 82.601 246.087, 96.192 252.225, 107.484 263.516 C 119.906 275.938, 126.279 291.339, 126.306 309 C 126.322 319.863, 124.381 328.549, 119.960 337.395 C 116.618 344.084, 116.327 346.595, 118.532 349.742 C 122.927 356.017, 159.858 376.971, 166.559 376.991 C 170.435 377.002, 171.616 375.999, 177.292 367.876 C 184.904 356.984, 195.562 349.206, 209.500 344.371 C 216.519 341.937, 218.972 341.596, 229.500 341.596 C 240.014 341.596, 242.491 341.939, 249.500 344.363 C 253.900 345.884, 258.440 347.738, 259.590 348.483 C 261.554 349.755, 263.070 348.445, 284.840 326.660 L 308 303.484 308 293.926 C 308 268.930, 317.386 246.343, 335.027 228.885 C 351.530 212.554, 372.016 203.505, 395.250 202.282 C 407.509 201.637, 406.693 202.572, 405.032 191.080 C 403.732 182.089, 402.315 180.940, 391.276 179.921 C 370.939 178.045, 351.897 166.342, 341.762 149.490 C 335.509 139.095, 332.698 129.123, 332.602 117 C 332.506 104.980, 333.838 98.593, 338.625 88.109 C 340.481 84.044, 342 79.822, 342 78.727 C 342 74.625, 326.669 63.367, 309.020 54.508 C 291.140 45.533, 289.432 45.511, 283.647 54.190 C 271.553 72.330, 251.863 83.140, 230.500 83.366 C 219.435 83.483, 212.598 82.123, 203.313 77.958 C 191.643 72.723, 182.379 64.866, 174.912 53.870 C 172.719 50.642, 170.529 48, 170.045 48 C 169.560 48, 168.564 47.807, 167.832 47.570 C 167.099 47.334, 164.753 47.781, 162.618 48.563 M 214.651 131.529 C 182.837 137.555, 157.069 162.098, 149.316 193.759 C 147.013 203.165, 147.070 222.287, 149.428 231.500 C 157.014 261.129, 180.100 284.420, 209.500 292.102 C 219.759 294.783, 237.409 295.034, 247.329 292.640 C 279.016 284.993, 303.296 260.174, 310.076 228.500 C 312.051 219.270, 311.570 201.997, 309.072 192.500 C 304.674 175.779, 294.825 160.028, 282.118 149.395 C 274.403 142.939, 258.465 134.884, 248.775 132.544 C 239.037 130.191, 224.064 129.746, 214.651 131.529 M 219 164.091 C 211.397 165.565, 200.987 171.386, 194.687 177.687 C 168.957 203.416, 178.964 246.560, 213.581 259.143 C 221.776 262.122, 237.087 262.174, 245.106 259.251 C 273.560 248.877, 286.540 217.959, 273.759 191 C 270.005 183.081, 259.780 172.443, 252.263 168.633 C 242.408 163.639, 230.042 161.951, 219 164.091 M 385.072 236.591 C 366.607 241.555, 350.204 256.609, 343.987 274.295 C 340.842 283.246, 339.906 292.303, 341.100 302.258 C 341.884 308.798, 341.848 311.964, 340.958 314.758 C 340.023 317.693, 328.167 330.149, 285.994 372.500 C 256.419 402.200, 231.722 427.483, 231.111 428.684 C 230.500 429.886, 230 433.081, 230 435.784 C 230 441.734, 232.287 445.187, 243.161 455.657 C 251.800 463.974, 256.231 465.805, 263.250 463.959 C 267.012 462.970, 273.753 456.611, 322 408.534 C 364.735 365.951, 377.305 353.971, 380.231 353.042 C 383.092 352.134, 385.756 352.129, 391.650 353.023 C 416.324 356.763, 441.834 343.385, 452.875 320.914 C 455.148 316.286, 457.308 310.936, 457.675 309.023 L 458.341 305.547 455.920 307.130 C 445.645 313.853, 427.524 323.181, 422.015 324.584 C 404.569 329.028, 386.094 320.091, 377.768 303.180 C 374.760 297.071, 374.503 295.787, 374.532 287.022 C 374.594 268.337, 380.318 260.395, 403.373 247.004 C 411.418 242.331, 418 238.206, 418 237.837 C 418 235.085, 394.044 234.179, 385.072 236.591"  fill-rule="evenodd"/></svg>