<svg xmlns="http://www.w3.org/2000/svg" viewBox="180 -880 600 780"><path d="M252.309-619.999H600v-80q0-50-35-85t-85-35q-50 0-85 35t-35 85h-59.999q0-74.922 52.538-127.46Q405.078-879.997 480-879.997t127.461 52.538q52.538 52.538 52.538 127.46v80h47.692q29.923 0 51.115 21.193 21.193 21.192 21.193 51.115v375.382q0 29.923-21.193 51.115-21.192 21.193-51.115 21.193H252.309q-29.923 0-51.115-21.193-21.193-21.192-21.193-51.115v-375.382q0-29.923 21.193-51.115 21.192-21.193 51.115-21.193Zm0 459.999h455.382q5.385 0 8.847-3.462 3.462-3.462 3.462-8.847v-375.382q0-5.385-3.462-8.847-3.462-3.462-8.847-3.462H252.309q-5.385 0-8.847 3.462-3.462 3.462-3.462 8.847v375.382q0 5.385 3.462 8.847 3.462 3.462 8.847 3.462ZM480-290.001q29.154 0 49.576-20.423 20.423-20.422 20.423-49.576t-20.423-49.576Q509.154-429.999 480-429.999t-49.576 20.423Q410.001-389.154 410.001-360t20.423 49.576q20.422 20.423 49.576 20.423ZM240-160v-400 400Z"/></svg>