
<svg xmlns="http://www.w3.org/2000/svg" xml:space="preserve" version="1.1" style="shape-rendering:geometricPrecision; text-rendering:geometricPrecision; image-rendering:optimizeQuality; fill-rule:evenodd; clip-rule:evenodd"
viewBox="0 0 29700 29700"
 xmlns:xlink="http://www.w3.org/1999/xlink"
 xmlns:xodm="http://www.corel.com/coreldraw/odm/2003">

 <g id="Слой_x0020_1">
  <metadata id="CorelCorpID_0Corel-Layer"/>
  <path  d="M14920.17 14639.88c-1681.92,0 -3121.75,-579.98 -4319.49,-1739.95 -1197.75,-1159.96 -1796.62,-2554.37 -1796.62,-4183.27 0,-1628.88 598.87,-3023.29 1796.62,-4183.25 1197.74,-1159.97 2637.57,-1739.96 4319.49,-1739.96 1681.97,0 3121.74,579.99 4319.52,1739.96 1197.79,1159.96 1796.61,2554.37 1796.61,4183.25 0,1628.9 -598.82,3023.31 -1796.61,4183.27 -1197.78,1159.97 -2637.55,1739.95 -4319.52,1739.95zm-12232.2 8884.76l0 -1184.63c0,-839.05 222.97,-1610.36 668.95,-2313.69 445.96,-703.46 1038.46,-1240.25 1777.49,-1610.35 1579.99,-765.13 3185.46,-1338.93 4816.43,-1721.44 1630.97,-382.62 3287.41,-573.8 4969.33,-573.8 1681.97,0 3338.45,191.18 4969.4,573.8 1630.95,382.51 3236.38,956.31 4816.4,1721.44 738.98,370.1 1331.48,906.89 1777.42,1610.35 446.06,703.33 668.95,1474.64 668.95,2313.69l0 1184.63c0,814.53 -299.35,1511.68 -898.3,2091.68 -598.83,579.99 -1318.72,869.99 -2159.65,869.99l-18348.37 0c-840.97,0 -1560.88,-290 -2159.75,-869.99 -598.87,-580 -898.3,-1277.15 -898.3,-2091.68zm3058.05 0l18348.37 0 0 -1184.63c0,-271.43 -70.14,-518.22 -210.26,-740.36 -140.15,-222.15 -325.01,-394.88 -554.36,-518.21 -1376.08,-666.43 -2764.92,-1166.2 -4166.52,-1499.41 -1401.61,-333.09 -2815.98,-499.76 -4243.08,-499.76 -1427.08,0 -2841.43,166.67 -4243.04,499.76 -1401.6,333.21 -2790.48,832.98 -4166.59,1499.41 -229.36,123.33 -414.11,296.06 -554.28,518.21 -140.16,222.14 -210.24,468.93 -210.24,740.36l0 1184.63zm9174.15 -11846.37c841.03,0 1560.92,-289.99 2159.74,-869.96 598.84,-579.99 898.31,-1277.2 898.31,-2091.65 0,-814.44 -299.47,-1511.64 -898.31,-2091.63 -598.82,-579.98 -1318.71,-869.97 -2159.74,-869.97 -840.96,0 -1560.87,289.99 -2159.74,869.97 -598.87,579.99 -898.3,1277.19 -898.3,2091.63 0,814.45 299.43,1511.66 898.3,2091.65 598.87,579.97 1318.78,869.96 2159.74,869.96z"/>
 </g>
</svg>
