<svg xmlns="http://www.w3.org/2000/svg" viewBox="0.29 0.97 22.42 22.42">
<path d="M2.60515 23.3906C1.95794 23.3906 1.41014 23.1664 0.961719 22.7179C0.513281 22.2695 0.289062 21.7217 0.289062 21.0745V3.92552C0.289062 3.27832 0.513281 2.7305 0.961719 2.28206C1.41014 1.83363 1.95794 1.60941 2.60515 1.60941H13.3726C13.6449 1.60941 13.8731 1.70154 14.0572 1.8858C14.2414 2.07007 14.3335 2.29839 14.3335 2.57076C14.3335 2.84315 14.2414 3.07133 14.0572 3.2553C13.8731 3.43927 13.6449 3.53125 13.3726 3.53125H2.60515C2.50658 3.53125 2.41623 3.57231 2.3341 3.65444C2.25195 3.73659 2.21087 3.82695 2.21087 3.92552V21.0745C2.21087 21.173 2.25195 21.2634 2.3341 21.3456C2.41623 21.4277 2.50658 21.4688 2.60515 21.4688H19.7541C19.8527 21.4688 19.943 21.4277 20.0252 21.3456C20.1073 21.2634 20.1484 21.173 20.1484 21.0745V10.307C20.1484 10.0348 20.2405 9.80656 20.4248 9.62238C20.609 9.4382 20.8374 9.34611 21.1097 9.34611C21.3821 9.34611 21.6103 9.4382 21.7943 9.62238C21.9782 9.80656 22.0702 10.0348 22.0702 10.307V21.0745C22.0702 21.7217 21.846 22.2695 21.3976 22.7179C20.9491 23.1664 20.4013 23.3906 19.7541 23.3906H2.60515ZM7.33587 18.5859C7.06363 18.5859 6.83542 18.4938 6.65124 18.3095C6.46706 18.1253 6.37497 17.897 6.37497 17.6246C6.37497 17.3522 6.46706 17.124 6.65124 16.94C6.83542 16.7561 7.06363 16.6641 7.33587 16.6641H15.0234C15.2956 16.6641 15.5239 16.7562 15.708 16.9405C15.8922 17.1247 15.9843 17.353 15.9843 17.6254C15.9843 17.8978 15.8922 18.126 15.708 18.31C15.5239 18.4939 15.2956 18.5859 15.0234 18.5859H7.33587ZM7.33587 14.7422C7.06363 14.7422 6.83542 14.65 6.65124 14.4658C6.46706 14.2815 6.37497 14.0532 6.37497 13.7808C6.37497 13.5084 6.46706 13.2803 6.65124 13.0963C6.83542 12.9123 7.06363 12.8203 7.33587 12.8203H15.0234C15.2956 12.8203 15.5239 12.9125 15.708 13.0967C15.8922 13.281 15.9843 13.5093 15.9843 13.7817C15.9843 14.0541 15.8922 14.2822 15.708 14.4662C15.5239 14.6502 15.2956 14.7422 15.0234 14.7422H7.33587ZM7.33587 10.8984C7.06363 10.8984 6.83542 10.8063 6.65124 10.622C6.46706 10.4378 6.37497 10.2095 6.37497 9.93708C6.37497 9.66469 6.46706 9.43651 6.65124 9.25254C6.83542 9.06858 7.06363 8.97659 7.33587 8.97659H15.0234C15.2956 8.97659 15.5239 9.06872 15.708 9.25296C15.8922 9.43723 15.9843 9.66554 15.9843 9.93792C15.9843 10.2103 15.8922 10.4385 15.708 10.6225C15.5239 10.8064 15.2956 10.8984 15.0234 10.8984H7.33587ZM19.1871 8.01559C18.9147 8.01559 18.6865 7.9235 18.5025 7.73932C18.3185 7.55514 18.2266 7.32692 18.2266 7.05466V5.45309H16.625C16.3527 5.45309 16.1245 5.36096 15.9403 5.17669C15.7561 4.99243 15.6641 4.76411 15.6641 4.49174C15.6641 4.21935 15.7561 3.99116 15.9403 3.8072C16.1245 3.62323 16.3527 3.53125 16.625 3.53125H18.2266V1.92966C18.2266 1.65741 18.3187 1.4292 18.5029 1.24502C18.6872 1.06084 18.9155 0.96875 19.1879 0.96875C19.4603 0.96875 19.6885 1.06084 19.8724 1.24502C20.0564 1.4292 20.1484 1.65741 20.1484 1.92966V3.53125H21.75C22.0222 3.53125 22.2505 3.62338 22.4346 3.80765C22.6188 3.99189 22.7109 4.22021 22.7109 4.4926C22.7109 4.76498 22.6188 4.99315 22.4346 5.17711C22.2505 5.3611 22.0222 5.45309 21.75 5.45309H20.1484V7.05466C20.1484 7.32692 20.0563 7.55514 19.872 7.73932C19.6877 7.9235 19.4594 8.01559 19.1871 8.01559Z"/>
</svg>