<svg viewBox="0 0 18 13" xmlns="http://www.w3.org/2000/svg">
<path d="M12.1772 7.93824H2.34067C1.91968 7.93824 1.55942 7.78847 1.25987 7.48892C0.960321 7.18937 0.810547 6.82911 0.810547 6.40812C0.810547 5.98713 0.960321 5.62687 1.25987 5.32732C1.55942 5.02777 1.91968 4.878 2.34067 4.878H12.1772L10.307 3.00784C10.0156 2.71639 9.86985 2.36017 9.86985 1.93919C9.86985 1.5182 10.0156 1.16198 10.307 0.870528C10.5985 0.579076 10.9547 0.43335 11.3757 0.43335C11.7967 0.43335 12.1529 0.579076 12.4443 0.870528L16.9133 5.31517C17.059 5.4609 17.1724 5.63091 17.2533 5.82522C17.3343 6.01952 17.3747 6.21382 17.3747 6.40812C17.3747 6.60242 17.3343 6.79672 17.2533 6.99102C17.1724 7.18533 17.059 7.35534 16.9133 7.50107L12.4443 11.9457C12.1529 12.2372 11.7967 12.3829 11.3757 12.3829C10.9547 12.3829 10.5985 12.2372 10.307 11.9457C10.0156 11.6543 9.86985 11.298 9.86985 10.8771C9.86985 10.4561 10.0156 10.0998 10.307 9.8084L12.1772 7.93824Z" />
</svg>
