<svg  viewBox="0 0 12 8"  xmlns="http://www.w3.org/2000/svg">
<path d="M4.27892 6.24789L10.7715 0.160662C10.8833 0.0558667 11.016 0.00233504 11.1697 6.83595e-05C11.3234 -0.00218658 11.4585 0.0513451 11.5751 0.160662C11.6917 0.269968 11.75 0.395539 11.75 0.537377C11.75 0.679203 11.6917 0.804775 11.5751 0.914093L4.75444 7.30893C4.61857 7.43631 4.46007 7.5 4.27892 7.5C4.09778 7.5 3.93927 7.43631 3.80341 7.30893L0.665527 4.36696C0.553754 4.26217 0.498587 4.13772 0.500027 3.99363C0.501481 3.84954 0.560499 3.72284 0.677083 3.61353C0.79368 3.50421 0.927613 3.44955 1.07888 3.44955C1.23017 3.44955 1.3641 3.50421 1.48068 3.61353L4.27892 6.24789Z" />
</svg>
