<svg xmlns="http://www.w3.org/2000/svg" version="1.1" viewBox="25.09 4.21 125.72 164.94"><path d="M 76.720 5.493 C 74.091 6.216, 70.304 8.056, 68.304 9.581 C 65.386 11.808, 62.777 12.617, 55.084 13.681 C 49.813 14.410, 45.350 15.455, 45.167 16.004 C 44.983 16.552, 44.411 17, 43.895 17 C 41.940 17, 35.128 22.258, 31.934 26.231 C 23.943 36.175, 22.729 55.307, 29.440 65.548 C 32.075 69.571, 39.471 76.099, 43.719 78.152 L 47.938 80.191 48.219 91.846 L 48.500 103.500 89.750 103.761 L 131 104.022 131 92.940 L 131 81.858 139.398 73.628 C 148.737 64.477, 149.739 62.374, 150.666 50 C 151.386 40.383, 149.263 32.777, 143.999 26.118 C 139.755 20.749, 135.066 17, 132.596 17 C 131.718 17, 131 16.621, 131 16.158 C 131 14.932, 124.215 13.096, 116.877 12.335 C 113.227 11.956, 109.431 10.896, 108 9.854 C 100.813 4.623, 86.924 2.687, 76.720 5.493 M 79.123 19.313 C 77.266 20.018, 75.016 21.474, 74.123 22.548 C 71.579 25.608, 67.430 26.997, 60.703 27.039 C 44.736 27.139, 34.335 42.390, 40.882 56.100 C 42.584 59.663, 44.659 61.748, 50.087 65.350 C 53.941 67.907, 57.411 70.004, 57.797 70.008 C 59.403 70.026, 61.238 75.967, 61.734 82.750 L 62.263 90 89.522 90 L 116.781 90 117.148 82.746 C 117.583 74.126, 119.598 70.671, 127.158 65.579 C 133.032 61.624, 135.975 56.645, 136.723 49.400 C 137.412 42.721, 135.381 37.381, 130.171 32.171 C 125.551 27.551, 124.097 27.047, 112.607 26.079 C 105.829 25.508, 103.405 24.907, 102.413 23.550 C 101.697 22.572, 99.849 21.095, 98.306 20.270 C 94.539 18.255, 83.375 17.698, 79.123 19.313 M 58.557 115.223 C 56.642 117.956, 56.412 127, 58.257 127 C 58.948 127, 60.964 126.584, 62.737 126.075 C 64.780 125.489, 67.301 125.521, 69.618 126.160 C 72.756 127.027, 73.558 126.887, 75.270 125.175 C 77.264 123.181, 77.263 123.176, 75.095 118.696 C 72.764 113.882, 71.159 113.036, 64.307 113.014 C 61.098 113.003, 59.748 113.522, 58.557 115.223 M 107.923 115.923 C 104.768 119.078, 104.201 122.525, 106.353 125.468 C 107.508 127.048, 108.275 127.176, 111.603 126.347 C 113.876 125.780, 117.142 125.724, 119.440 126.212 C 125.132 127.420, 126.715 125.626, 125.087 119.811 C 123.703 114.866, 120.863 113, 114.724 113 C 111.771 113, 110.149 113.697, 107.923 115.923 M 65 134.951 C 64.175 135.409, 60.946 136.520, 57.825 137.419 C 53.174 138.760, 51.229 140.063, 47.038 144.649 C 41.769 150.413, 39 155.540, 39 159.528 C 39 161.378, 40.426 162.506, 46.519 165.477 C 53.492 168.876, 54.699 169.143, 63.112 169.143 C 69.957 169.143, 72.611 168.757, 73.921 167.571 C 74.876 166.707, 76.373 166, 77.248 166 C 78.123 166, 81.282 163.767, 84.268 161.038 L 89.698 156.075 92.487 158.987 C 94.022 160.588, 98.511 163.496, 102.463 165.449 C 108.751 168.556, 110.577 168.999, 117.075 168.994 C 121.443 168.990, 125.592 168.418, 127.153 167.603 C 128.613 166.842, 131.313 165.706, 133.153 165.079 C 137.558 163.578, 142 159.591, 142 157.138 C 142 152.277, 128.325 138.661, 121.807 137.031 C 119.438 136.439, 116.719 135.514, 115.764 134.977 C 113.592 133.755, 105.557 133.700, 103.236 134.891 C 102.281 135.382, 98.934 136.523, 95.798 137.427 C 90.541 138.944, 89.682 138.946, 84.798 137.464 C 81.884 136.579, 78.719 135.438, 77.764 134.928 C 75.638 133.792, 67.058 133.807, 65 134.951" stroke="none" fill-rule="evenodd"/><path d="" stroke="none" fill-rule="evenodd"/></svg>