
<svg xmlns="http://www.w3.org/2000/svg" xml:space="preserve" version="1.1" 
viewBox="0 0 21000 29700"
 xmlns:xlink="http://www.w3.org/1999/xlink"
 xmlns:xodm="http://www.corel.com/coreldraw/odm/2003">
 <g id="Слой_x0020_1">
  <metadata id="CorelCorpID_0Corel-Layer"/>
  <path class="fil0" d="M4699.47 22008.25l-2026.4 2034.83c-288.22,289.06 -619.42,354.8 -993.61,196.36 -374.6,-158.44 -561.69,-443.29 -561.69,-854.97l0 -14783.59c0,-513.23 176.98,-947.67 531.36,-1303.31 354.37,-356.07 787.13,-533.89 1298.26,-533.89l15572.4 0c511.55,0 944.3,177.82 1298.26,533.89 354.38,355.64 531.78,790.08 531.78,1303.31l0 11570.59c0,513.23 -177.4,947.67 -531.78,1303.32 -353.96,355.64 -786.71,533.46 -1298.26,533.46l-13820.32 0zm-646.39 -1524.12l14466.71 0c77.95,0 149.16,-32.87 214.06,-97.76 64.89,-65.31 97.33,-136.95 97.33,-214.9l0 -11570.59c0,-77.95 -32.44,-149.59 -97.33,-214.9 -64.9,-65.31 -136.11,-97.76 -214.06,-97.76l-15572.4 0c-77.96,0 -149.17,32.45 -214.06,97.76 -64.89,65.31 -97.34,136.95 -97.34,214.9l0 13290.23 1417.09 -1406.98z"/>
 </g>
</svg>
