
<svg version="1.0" xmlns="http://www.w3.org/2000/svg"
 viewBox="0 0 1053.000000 874.000000"
 preserveAspectRatio="xMidYMid meet">

<g transform="translate(0.000000,874.000000) scale(0.100000,-0.100000)">
<path d="M4735 8720 c-60 -7 -229 -49 -295 -72 -175 -64 -358 -207 -463 -362
l-33 -50 -60 2 c-151 6 -358 -61 -529 -170 -102 -65 -264 -243 -329 -361 -123
-225 -159 -525 -90 -752 42 -139 147 -295 261 -387 69 -56 200 -128 256 -142
l28 -7 -2 -107 c-1 -59 -5 -163 -10 -232 -28 -418 -31 -450 -54 -655 -18 -153
-32 -253 -51 -369 -9 -48 -13 -94 -11 -100 3 -7 -3 -42 -13 -78 -37 -133 -24
-372 31 -597 l21 -83 -36 -30 c-127 -105 -165 -308 -89 -474 63 -138 211 -242
369 -259 66 -7 76 -16 134 -110 52 -85 221 -253 320 -318 107 -70 180 -106
333 -167 31 -12 57 -24 57 -27 0 -3 -20 -28 -44 -56 -58 -70 -143 -195 -196
-289 -24 -43 -48 -78 -52 -78 -4 0 -8 15 -9 33 -1 37 -2 45 -19 107 -31 116
-130 228 -220 250 -149 36 -256 -51 -267 -217 -12 -171 73 -367 197 -458 41
-30 53 -48 80 -113 17 -42 35 -86 39 -97 34 -82 34 -74 -3 -145 -73 -138 -79
-255 -18 -346 53 -79 114 -118 202 -130 48 -6 52 -9 72 -50 11 -25 24 -46 28
-49 4 -2 5 -78 2 -169 -5 -188 5 -255 45 -286 14 -11 34 -20 44 -20 11 0 19
-3 20 -7 0 -5 3 -19 5 -33 2 -14 11 -68 19 -120 19 -116 62 -295 81 -332 32
-62 48 -68 172 -68 62 0 122 5 133 10 36 20 48 74 60 273 l12 192 314 0 313 0
1 -35 c1 -19 3 -46 4 -60 2 -14 4 -61 6 -104 3 -121 24 -224 50 -252 20 -21
31 -24 98 -23 52 0 95 7 136 22 55 20 62 26 88 77 26 51 64 211 82 340 12 92
15 100 49 114 18 7 42 26 54 41 21 27 22 35 21 309 0 154 -4 333 -9 396 -4 63
-6 117 -4 119 2 2 26 -17 54 -42 105 -95 252 -82 304 27 35 75 14 196 -76 431
-73 188 -83 211 -153 350 -93 181 -174 311 -272 433 -24 30 -43 57 -43 60 0 4
35 20 78 36 267 98 496 274 634 486 l56 86 83 12 c146 21 274 104 347 224 59
99 72 248 30 358 -19 51 -66 138 -78 145 -16 10 -12 37 14 91 36 75 67 170 86
264 26 120 21 329 -9 420 -46 140 -98 226 -191 319 -39 39 -35 19 -76 361 -9
82 -44 477 -54 620 -5 85 -12 180 -15 211 l-4 56 92 61 c131 85 217 168 291
280 73 113 100 175 126 292 28 132 32 192 20 297 -52 434 -341 784 -735 890
-85 23 -120 27 -235 27 -90 0 -160 -6 -209 -17 l-74 -16 -61 53 c-149 131
-335 230 -531 284 -89 24 -158 40 -215 48 -25 3 -70 9 -100 14 -71 9 -338 10
-415 0z m428 -139 c43 -12 86 -26 95 -30 9 -5 43 -21 76 -36 88 -39 168 -97
269 -196 51 -48 100 -89 109 -89 23 0 48 27 48 54 0 29 -55 102 -112 149 -23
20 -40 38 -37 42 9 8 126 -54 200 -108 65 -46 116 -94 108 -101 -2 -2 -38 -27
-79 -54 -98 -65 -160 -128 -160 -161 0 -33 9 -47 37 -55 18 -6 38 6 100 56
302 246 701 253 1010 18 263 -199 403 -530 358 -850 -34 -243 -225 -491 -467
-604 -286 -134 -574 -140 -823 -18 -76 38 -215 150 -215 174 0 6 13 27 29 47
48 61 119 196 120 228 1 19 -40 63 -59 63 -15 0 -60 -53 -80 -94 -74 -153
-237 -310 -404 -390 -140 -67 -243 -85 -382 -67 -264 33 -460 213 -558 511
-28 87 -56 112 -100 92 -22 -10 -26 -18 -26 -52 0 -72 58 -220 125 -321 l36
-54 -65 -61 c-162 -149 -390 -208 -661 -170 -331 46 -555 247 -621 559 -16 77
-17 234 -3 314 24 132 101 294 196 412 157 196 406 331 613 331 l60 0 -10 -26
c-6 -14 -10 -43 -10 -64 0 -31 5 -43 24 -55 36 -24 61 -6 81 57 85 260 303
458 596 539 118 33 168 38 339 35 131 -3 181 -8 243 -25z m486 -1945 c98 -96
201 -158 321 -195 207 -64 416 -62 637 6 29 9 55 15 57 12 3 -3 7 -47 11 -99
3 -52 7 -124 10 -160 2 -36 7 -101 10 -145 3 -44 7 -98 10 -120 2 -22 7 -67
10 -100 3 -33 10 -100 15 -150 5 -49 11 -108 12 -130 l3 -40 -79 -5 c-62 -4
-81 -9 -90 -23 -9 -15 -7 -21 9 -33 16 -12 36 -14 92 -8 81 7 71 18 92 -91 11
-57 8 -65 -24 -65 -13 0 -26 -4 -29 -9 -3 -4 -97 -12 -209 -16 -195 -6 -205
-6 -243 14 -65 35 -157 25 -214 -24 -17 -15 -295 -33 -289 -19 41 92 85 167
99 171 28 7 29 44 2 75 -74 85 -79 88 -126 88 -54 0 -108 -19 -198 -73 -64
-37 -72 -39 -169 -43 -102 -4 -139 -14 -139 -37 0 -24 24 -37 69 -37 l46 0
-74 -44 c-41 -25 -93 -52 -115 -62 -23 -9 -59 -25 -81 -34 -111 -49 -224 -70
-440 -85 -49 -3 -103 -8 -120 -10 -16 -2 -86 -7 -155 -10 -107 -5 -382 -23
-772 -51 -113 -8 -104 -20 -85 111 l12 80 90 3 c77 2 92 5 108 23 14 17 15 25
5 36 -9 11 -27 13 -86 7 -40 -3 -81 -7 -90 -8 -19 -1 -19 2 -9 99 5 39 10 95
13 125 3 30 7 71 9 90 2 19 7 85 11 145 3 61 8 122 9 137 2 15 6 100 10 190 3
90 8 187 11 216 l6 54 61 -8 c72 -8 237 -8 287 1 188 32 331 99 464 216 l47
42 59 -47 c33 -25 63 -46 67 -46 3 0 14 -6 22 -14 28 -24 170 -75 249 -90 204
-38 447 28 639 171 40 30 75 59 79 64 9 15 14 12 73 -45z m616 -1861 c40 -327
189 -712 351 -912 38 -47 41 -69 18 -151 -54 -195 -149 -355 -296 -498 -195
-190 -461 -306 -828 -360 -122 -18 -477 -25 -580 -12 -301 39 -469 87 -658
189 -125 67 -153 87 -249 175 -92 84 -174 194 -233 312 -39 78 -90 218 -90
247 0 8 18 38 39 66 83 110 202 392 276 654 31 109 47 155 52 155 3 0 51 -16
107 -35 139 -48 256 -67 427 -70 81 -2 155 -7 165 -13 88 -46 446 -63 634 -29
325 59 525 137 789 308 25 16 50 29 57 29 7 0 15 -22 19 -55z m-2805 -760 c17
-35 41 -77 54 -92 32 -39 42 -60 55 -123 13 -58 44 -154 67 -207 18 -41 18
-43 -7 -43 -47 0 -124 37 -175 83 -99 90 -138 213 -105 332 9 33 63 115 76
115 2 0 18 -29 35 -65z m3531 -1 c28 -58 37 -174 19 -230 -24 -72 -69 -132
-131 -173 -54 -36 -165 -79 -176 -68 -2 3 12 53 31 111 20 58 36 113 36 122 0
9 22 40 48 68 26 29 65 89 87 134 22 44 45 81 52 81 6 1 21 -20 34 -45z
m-2371 -1242 c0 -5 -9 -35 -19 -68 -10 -32 -27 -86 -36 -119 -15 -55 -45 -132
-80 -210 -60 -134 -130 -324 -155 -418 -10 -38 -21 -71 -24 -74 -6 -7 -116
218 -116 237 0 15 101 221 140 285 17 28 33 57 37 65 16 35 124 185 177 245
53 60 76 77 76 57z m1193 -54 c87 -101 179 -238 234 -348 7 -14 22 -39 33 -57
10 -18 44 -90 75 -160 31 -70 62 -141 69 -158 8 -16 24 -58 36 -93 18 -53 20
-66 8 -79 -13 -16 -140 -78 -190 -93 -26 -8 -27 -7 -33 38 -18 131 -91 387
-151 530 -8 17 -20 47 -28 65 -70 166 -141 417 -118 417 6 0 35 -28 65 -62z
m-174 5 c75 -289 120 -517 124 -628 2 -77 1 -80 -21 -83 -26 -4 -57 20 -78 59
-13 26 -46 195 -60 304 -3 28 -15 100 -25 160 -11 61 -22 133 -26 162 -5 48
-4 52 18 56 53 10 58 8 68 -30z m-842 -15 c-3 -24 -8 -56 -11 -73 -9 -47 -37
-232 -52 -335 -3 -19 -7 -46 -9 -60 -3 -14 -7 -43 -10 -65 -12 -86 -35 -135
-70 -152 -41 -20 -65 -12 -65 21 0 59 58 378 100 548 41 168 36 158 81 158
l41 0 -5 -42z m662 -33 c13 -68 19 -110 27 -175 3 -30 8 -58 10 -62 9 -15
-102 -23 -316 -23 -124 1 -247 4 -274 9 l-48 8 7 46 c3 26 8 58 10 72 6 35 25
164 25 170 0 3 124 5 275 5 l275 0 9 -50z m-1510 -9 c45 -29 71 -63 109 -143
26 -55 27 -66 29 -231 3 -180 9 -223 48 -307 13 -27 44 -97 70 -155 25 -58 55
-122 66 -143 27 -53 24 -60 -18 -37 -21 11 -44 20 -51 20 -15 0 -23 17 -118
263 l-69 179 -72 64 c-80 72 -133 156 -158 253 -50 195 35 318 164 237z m1011
-351 c77 -8 341 -7 454 1 110 7 95 25 126 -151 30 -171 62 -220 164 -247 54
-14 109 -1 155 38 l29 24 15 -52 c8 -29 20 -89 26 -133 9 -72 13 -113 26 -255
13 -150 23 -575 16 -671 l-6 -74 -36 -12 c-37 -12 -149 -29 -249 -39 -30 -3
-68 -8 -85 -10 -55 -10 -699 -13 -780 -4 -280 32 -396 53 -421 77 -12 12 -14
43 -12 166 l3 151 37 9 c46 11 85 54 94 104 8 41 -13 116 -77 276 -30 76 -39
111 -39 159 0 69 37 298 50 312 5 5 23 -3 42 -20 51 -45 107 -60 163 -44 60
17 120 75 136 132 16 63 19 75 30 168 15 115 13 112 51 106 18 -3 58 -8 88
-11z m1378 -659 c4 -48 1 -57 -21 -80 -40 -40 -92 -30 -146 28 -28 29 -23 53
14 62 15 4 50 19 78 35 32 17 55 25 61 19 5 -5 11 -34 14 -64z m-2268 -6 c0
-5 -4 -10 -10 -10 -5 0 -10 5 -10 10 0 6 5 10 10 10 6 0 10 -4 10 -10z m126
-85 c59 -29 104 -81 104 -120 0 -14 -11 -37 -25 -50 -48 -49 -153 -25 -206 48
-28 39 -46 113 -35 143 9 23 94 12 162 -21z m207 -249 c21 -50 11 -86 -22 -86
-21 0 -51 40 -51 67 0 16 37 63 49 63 3 0 14 -20 24 -44z"/>
<path d="M7036 7493 c-4 -9 -3 -20 2 -25 11 -11 36 17 27 32 -9 15 -22 12 -29
-7z"/>
<path d="M6301 6236 c-9 -10 -9 -34 -2 -91 10 -86 29 -117 59 -98 14 9 16 23
14 74 -3 88 -14 123 -39 127 -11 2 -25 -4 -32 -12z"/>
<path d="M3890 6176 c-6 -8 -10 -25 -8 -38 2 -17 10 -23 28 -23 18 0 26 6 28
23 3 22 -13 52 -28 52 -4 0 -13 -7 -20 -14z"/>
<path d="M3877 6005 c-10 -25 -19 -173 -12 -196 5 -15 14 -19 33 -17 l27 3 0
110 c0 105 -1 110 -21 113 -12 2 -24 -4 -27 -13z"/>
<path d="M6331 5951 c-11 -7 -12 -26 -7 -86 9 -106 25 -131 65 -106 11 7 12
26 6 92 -8 102 -23 126 -64 100z"/>
<path d="M3867 5684 c-11 -11 -8 -62 3 -69 6 -3 19 -3 31 0 28 9 23 69 -6 73
-12 2 -24 0 -28 -4z"/>
<path d="M6399 5488 c-10 -18 -8 -24 7 -35 10 -7 23 -12 29 -10 16 5 18 49 3
58 -20 13 -26 11 -39 -13z"/>
<path d="M6118 5490 c-105 -6 -138 -17 -138 -46 0 -27 39 -36 133 -29 171 12
177 14 177 44 0 24 -20 41 -44 39 -12 0 -69 -4 -128 -8z"/>
<path d="M4930 5430 c-64 -6 -80 -14 -80 -40 0 -28 31 -33 147 -26 120 8 129
11 136 36 10 40 -32 46 -203 30z"/>
<path d="M4628 5415 c-2 -2 -32 -4 -68 -6 -80 -4 -102 -13 -98 -42 3 -21 7
-22 116 -21 91 1 117 5 130 18 25 25 4 51 -41 52 -20 1 -38 0 -39 -1z"/>
<path d="M4309 5396 c-2 -3 -33 -6 -68 -7 -75 -3 -115 -26 -92 -53 10 -12 32
-16 92 -16 92 0 129 11 129 40 0 13 -10 24 -26 30 -29 11 -29 11 -35 6z"/>
<path d="M3873 5362 c-36 -4 -58 -25 -49 -47 5 -13 23 -16 98 -14 105 2 131
10 126 42 -3 20 -9 22 -73 22 -38 0 -84 -1 -102 -3z"/>
<path d="M4292 4077 c-26 -28 -27 -45 -6 -75 22 -31 67 -29 93 4 27 34 26 40
-4 69 -30 31 -55 32 -83 2z"/>
<path d="M5983 4090 c-12 -5 -25 -21 -29 -35 -17 -68 79 -107 111 -45 17 34 9
62 -25 80 -22 12 -28 12 -57 0z"/>
<path d="M4300 3890 c-113 -23 -181 -127 -167 -251 13 -112 122 -198 233 -185
88 10 161 66 189 145 40 114 -10 228 -122 277 -55 25 -74 27 -133 14z m-30
-140 c6 -12 8 -30 5 -41 -10 -29 -59 -22 -63 9 -7 46 38 70 58 32z"/>
<path d="M5942 3885 c-144 -34 -209 -214 -122 -340 43 -62 122 -100 194 -92
154 16 237 139 195 291 -15 54 -95 131 -146 140 -21 4 -45 9 -53 11 -8 2 -39
-3 -68 -10z m-34 -137 c16 -16 15 -33 -4 -52 -19 -20 -54 -5 -54 22 0 20 18
42 35 42 6 0 16 -5 23 -12z"/>
<path d="M4995 3656 c-43 -31 -12 -128 55 -172 116 -77 300 -11 317 115 10 75
-57 97 -90 29 -27 -55 -69 -82 -118 -75 -49 6 -62 17 -89 73 -23 46 -42 54
-75 30z"/>
<path d="M3956 2593 c-11 -11 -7 -35 17 -97 13 -34 32 -83 42 -110 17 -47 18
-48 36 -29 17 17 18 25 9 71 -17 90 -79 189 -104 165z"/>
<path d="M3874 2566 c-3 -8 8 -52 25 -98 16 -46 32 -95 35 -109 8 -37 40 -74
55 -64 9 5 11 20 7 49 -9 60 -56 198 -74 219 -18 21 -41 22 -48 3z"/>
<path d="M3816 2504 c-23 -60 57 -234 100 -217 19 7 13 39 -28 151 -23 60 -35
82 -48 82 -10 0 -21 -7 -24 -16z"/>
<path d="M4480 1014 c-11 -13 -10 -19 7 -36 24 -24 53 -18 53 10 0 38 -37 54
-60 26z"/>
<path d="M5837 1023 c-13 -13 -7 -51 9 -57 18 -7 54 19 54 39 0 20 -48 34 -63
18z"/>
<path d="M4627 1009 c-18 -10 -23 -44 -9 -53 9 -6 40 -11 117 -21 60 -7 91 9
81 43 -6 17 -18 22 -64 27 -31 3 -68 7 -82 10 -14 2 -33 -1 -43 -6z"/>
<path d="M5615 1003 c-36 -4 -65 -24 -65 -45 0 -17 47 -25 113 -18 72 8 102
25 91 53 -6 17 -38 19 -139 10z"/>
<path d="M4933 979 c-7 -7 -13 -18 -13 -25 0 -23 26 -31 113 -37 69 -4 91 -2
102 10 19 18 19 28 1 45 -19 19 -186 24 -203 7z"/>
<path d="M5254 969 c-14 -15 -14 -21 -4 -34 9 -11 33 -15 92 -15 87 0 118 11
118 40 0 25 -21 30 -113 28 -60 -1 -80 -5 -93 -19z"/>
<path d="M2040 5725 c-174 -27 -281 -78 -402 -193 l-57 -54 -56 46 c-114 92
-303 156 -467 156 -250 0 -438 -101 -543 -294 -37 -67 -52 -85 -88 -104 -75
-39 -181 -144 -216 -213 -95 -185 -94 -401 1 -597 23 -48 57 -92 122 -157 l89
-89 -7 -131 c-4 -71 -9 -143 -11 -160 -2 -16 -6 -73 -9 -125 -3 -52 -8 -124
-11 -160 -2 -36 -7 -99 -10 -140 -2 -41 -10 -140 -16 -220 -6 -80 -12 -199
-14 -265 -1 -66 -6 -177 -10 -248 l-8 -127 -43 -27 c-115 -73 -175 -239 -134
-369 15 -50 63 -121 106 -157 40 -34 130 -67 183 -67 38 0 41 -3 77 -62 34
-57 189 -221 256 -273 l26 -20 6 -195 c3 -107 9 -243 12 -303 l7 -107 -49 -1
c-52 0 -79 -3 -219 -20 -202 -25 -313 -66 -336 -125 -6 -19 -15 -24 -36 -22
-48 3 -122 -23 -144 -51 -19 -23 -21 -36 -17 -113 4 -81 7 -90 33 -118 28 -29
86 -52 131 -52 21 0 22 -6 28 -147 7 -179 7 -178 34 -221 55 -90 180 -148 362
-169 246 -28 537 -21 728 19 52 11 114 20 136 20 57 1 117 25 139 55 16 21 26
25 72 25 37 0 57 -5 66 -17 28 -33 91 -53 170 -53 97 0 168 21 213 64 35 35
71 94 63 103 -3 2 3 29 13 59 11 30 22 82 26 115 6 57 9 61 43 77 60 28 74 68
67 194 -6 102 -2 120 20 99 5 -6 35 -17 66 -25 118 -30 202 33 191 144 -8 83
-91 285 -155 380 -13 19 -27 42 -30 50 -3 8 -31 50 -62 93 -56 78 -65 97 -46
97 6 0 54 17 108 39 232 92 413 245 520 441 l37 68 60 7 c150 16 253 112 286
264 28 130 -66 297 -197 347 l-40 15 -12 137 c-7 75 -17 162 -22 192 -26 155
-45 255 -67 350 -13 58 -35 159 -48 225 -40 197 -84 404 -94 443 -6 20 -13 53
-16 72 -3 19 -12 60 -20 90 -32 131 -32 131 25 202 90 109 143 257 143 398 -1
82 -4 103 -28 188 -35 118 -108 220 -203 281 -67 44 -72 49 -72 79 0 47 -51
134 -115 197 -127 126 -339 189 -535 160z m224 -120 c152 -36 293 -145 312
-243 5 -26 3 -30 -24 -35 -56 -11 -67 -78 -15 -98 13 -5 48 -9 76 -9 130 0
249 -167 264 -370 11 -155 -40 -281 -164 -402 -122 -118 -242 -167 -411 -169
-183 -2 -303 61 -362 188 -50 111 -55 118 -79 121 -61 9 -78 -66 -35 -158 l26
-55 -42 -37 c-62 -55 -122 -87 -207 -108 -131 -34 -253 -22 -368 34 -97 48
-167 121 -224 232 -40 77 -50 89 -74 92 -78 9 -77 -87 2 -202 17 -25 31 -49
31 -55 0 -6 -24 -23 -52 -37 -43 -22 -71 -28 -148 -32 -84 -4 -104 -1 -174 22
-160 54 -258 157 -316 331 -46 138 -30 306 40 415 50 78 153 160 202 160 25 0
57 39 72 89 51 172 236 291 451 291 171 0 345 -70 458 -183 78 -79 96 -81 136
-21 68 99 222 204 351 238 70 19 198 19 274 1z m-306 -1344 c133 -93 318 -122
497 -76 52 13 127 39 167 58 40 19 74 33 76 32 6 -6 47 -191 153 -705 16 -80
32 -153 35 -162 4 -12 -2 -17 -23 -20 -41 -5 -39 -42 3 -46 29 -3 31 -7 49
-73 9 -38 16 -71 14 -73 -2 -2 -204 -6 -449 -10 -245 -4 -521 -9 -615 -11
-421 -12 -644 -20 -790 -30 -38 -2 -137 -7 -220 -11 -82 -3 -161 -8 -175 -9
-14 -2 -68 -4 -120 -6 -108 -2 -107 -4 -95 86 5 47 8 52 29 48 13 -3 28 2 36
12 12 15 12 19 -5 31 -10 8 -27 11 -38 8 -20 -6 -20 0 -2 201 2 28 11 160 20
295 8 135 17 273 19 308 2 35 6 66 9 68 3 3 25 0 48 -7 24 -7 53 -14 64 -15
36 -7 169 -6 203 0 49 10 164 55 184 73 16 14 21 13 70 -19 113 -75 196 -100
338 -104 151 -4 231 15 370 91 14 8 43 30 65 49 47 41 49 42 83 17z m688
-1180 c13 -1 20 -16 39 -81 58 -204 153 -386 255 -485 37 -36 40 -43 40 -92 0
-120 -84 -332 -182 -461 -48 -62 -138 -147 -204 -191 -131 -89 -331 -164 -514
-194 -155 -26 -188 -28 -340 -29 -234 0 -435 30 -615 91 -70 23 -70 24 -73 81
-4 105 -59 165 -140 157 -32 -4 -53 -13 -77 -37 l-34 -33 -73 75 c-127 129
-223 310 -254 477 l-17 93 55 56 c122 126 233 305 306 493 13 32 35 36 289 45
183 7 183 7 220 -18 86 -56 122 -77 178 -103 33 -15 74 -33 90 -40 89 -41 256
-81 379 -91 83 -7 140 10 151 46 4 13 12 19 23 16 52 -15 158 -36 238 -45 145
-17 243 9 270 74 19 47 -1 92 -65 142 -28 21 -50 41 -51 45 0 11 53 15 106 9z
m303 -10 c6 -10 13 -45 16 -77 l5 -59 -34 70 c-19 39 -35 73 -35 78 -2 16 39
6 48 -12z m-488 -63 c54 -40 95 -76 91 -80 -15 -15 -218 65 -294 115 -16 10
-28 23 -28 28 0 5 30 9 66 9 65 0 66 0 165 -72z m370 -26 c22 -48 64 -134 93
-192 55 -110 72 -155 58 -164 -22 -13 -136 204 -188 358 -44 129 -23 128 37
-2z m-1155 57 c36 -38 75 -59 109 -59 30 0 31 5 5 48 l-20 33 22 -12 c12 -6
49 -32 82 -56 34 -25 84 -57 111 -71 47 -25 48 -27 23 -30 -73 -9 -301 50
-428 110 -103 49 -104 52 -19 59 41 3 77 6 80 7 3 1 18 -12 35 -29z m465 -25
c35 -30 66 -59 67 -65 7 -20 -226 79 -247 105 -12 14 -7 16 51 16 64 0 65 -1
129 -56z m-1436 -26 c-13 -66 -213 -387 -242 -388 -24 0 -13 27 46 112 33 47
81 130 107 184 63 129 104 172 89 92z m-145 19 c0 -19 -79 -169 -101 -192 -19
-19 -19 -19 -18 5 0 14 6 61 12 105 12 77 13 80 42 86 49 11 65 10 65 -4z
m2603 -447 c57 -51 81 -109 74 -180 -9 -78 -42 -130 -106 -162 -88 -45 -92
-42 -70 50 24 99 27 127 28 240 1 108 6 111 74 52z m-2809 -137 c10 -60 30
-147 46 -195 27 -84 27 -88 9 -88 -33 0 -96 38 -122 72 -48 65 -62 169 -31
231 17 33 63 87 74 87 4 0 15 -48 24 -107z m591 -654 c7 -11 6 -584 -1 -694
-2 -33 -3 -64 -4 -69 0 -6 -3 -6 -9 0 -15 15 -41 725 -28 758 7 18 33 21 42 5z
m166 -235 c31 -10 46 -20 42 -28 -24 -41 -95 -146 -98 -146 -3 0 -5 43 -5 95
0 52 3 95 6 95 3 0 27 -7 55 -16z m1154 -117 c87 -125 151 -239 208 -367 42
-95 49 -117 45 -151 -3 -30 -7 -34 -36 -37 -39 -4 -107 33 -145 78 -17 20 -53
113 -106 274 -45 134 -81 249 -81 254 0 9 18 16 55 21 6 0 32 -32 60 -72z
m-960 54 c3 -6 -15 -79 -39 -163 -24 -84 -49 -172 -56 -195 l-11 -43 -74 0
-75 0 0 46 c0 36 8 59 34 98 18 28 45 73 60 100 59 107 106 166 131 166 13 0
26 -4 30 -9z m151 -83 c-20 -242 -21 -231 9 -258 l27 -25 221 0 c243 1 270 6
295 58 13 26 8 110 -14 260 -6 37 -5 37 29 37 32 0 35 -3 42 -37 3 -20 22 -86
41 -147 39 -122 109 -388 119 -451 12 -71 21 -206 15 -216 -22 -35 -384 -77
-602 -70 -34 2 -19 29 20 36 89 17 145 85 145 175 0 37 -6 65 -18 83 -23 36
-84 67 -129 67 -29 0 -38 5 -51 30 -25 49 -125 95 -252 115 -31 5 -43 12 -43
24 0 9 16 79 35 156 31 122 43 166 60 223 3 6 16 12 31 12 l26 0 -6 -72z m439
50 c1 -1 5 -30 8 -63 4 -33 9 -81 13 -107 6 -44 5 -48 -17 -57 -13 -5 -98 -8
-189 -7 l-165 1 3 85 c1 47 4 94 7 105 2 11 4 27 4 35 1 13 26 15 167 13 91 0
167 -3 169 -5z m-1065 -473 c0 -14 1 -28 3 -32 1 -5 -30 -9 -69 -10 -39 -1
-90 -4 -115 -7 -138 -16 -291 -28 -296 -22 -21 21 103 58 252 76 49 5 104 12
120 14 17 1 47 4 68 5 33 1 37 -2 37 -24z m402 9 c129 -17 248 -53 248 -76 0
-12 -196 -4 -298 13 -31 5 -76 9 -99 9 -43 0 -43 0 -43 36 l0 37 75 -7 c40 -4
93 -9 117 -12z m-772 -175 c93 -20 140 -23 405 -25 165 -1 327 1 360 6 115 15
150 21 206 36 31 8 62 14 68 14 21 0 12 -49 -12 -64 -24 -15 -163 -51 -237
-61 -25 -4 -59 -8 -75 -11 -115 -17 -234 -21 -489 -14 -57 1 -72 -2 -83 -16
-11 -15 -11 -21 2 -34 13 -13 54 -15 253 -17 300 -2 443 14 600 68 41 14 54
15 58 6 2 -7 3 -98 1 -202 -2 -135 -7 -197 -16 -215 -41 -76 -107 -110 -266
-135 -180 -29 -415 -30 -593 -4 -143 20 -208 41 -258 83 -60 49 -67 78 -72
290 -4 182 -4 189 14 182 11 -4 42 -14 69 -22 28 -7 59 -16 71 -19 27 -8 52
20 38 43 -6 9 -39 25 -75 37 -105 36 -119 44 -119 78 0 25 3 28 23 23 12 -3
70 -15 127 -27z m-260 -33 c0 -30 2 -60 5 -68 15 -42 -40 -48 -83 -8 -47 44
-15 130 50 130 27 0 28 -1 28 -54z m1491 33 c37 -37 10 -118 -44 -135 -12 -4
-23 -1 -28 7 -10 16 -12 133 -2 142 13 14 54 6 74 -14z m443 -356 c-19 -121
-54 -205 -97 -237 -36 -27 -167 -31 -191 -6 -11 11 -17 48 -22 128 l-7 112 29
1 c34 2 51 3 159 13 44 4 82 9 84 12 2 2 15 4 27 4 19 0 22 -4 18 -27z m-414
-93 c0 -49 0 -93 0 -97 0 -5 -19 -8 -42 -8 l-43 0 -3 98 -3 97 46 0 45 0 0
-90z m-189 -234 c-7 -8 -26 -19 -43 -25 -36 -13 -35 -11 12 22 37 25 51 27 31
3z"/>
<path d="M2426 4105 c-8 -9 -13 -22 -10 -30 7 -17 39 -29 54 -20 14 8 13 38
-2 53 -16 16 -23 15 -42 -3z"/>
<path d="M684 3986 c-3 -8 -4 -27 -2 -43 2 -22 9 -29 31 -31 25 -3 27 0 27 30
0 35 -15 58 -37 58 -8 0 -16 -6 -19 -14z"/>
<path d="M2462 3944 c-10 -18 1 -82 19 -116 16 -29 55 -20 51 12 -9 85 -48
143 -70 104z"/>
<path d="M694 3806 c-6 -25 10 -66 26 -66 10 0 30 32 30 49 0 12 -28 41 -41
41 -5 0 -11 -11 -15 -24z"/>
<path d="M2515 3709 c-10 -16 4 -96 19 -108 8 -6 21 -8 30 -5 29 11 3 124 -29
124 -7 0 -17 -5 -20 -11z"/>
<path d="M2245 3380 c-48 -4 -61 -9 -63 -24 -6 -27 15 -36 90 -36 80 0 118 12
118 39 0 22 -47 29 -145 21z"/>
<path d="M2477 3383 c-14 -13 -6 -42 13 -48 39 -12 57 25 21 45 -23 12 -26 12
-34 3z"/>
<path d="M2632 3368 c6 -44 118 -43 118 2 0 18 -6 20 -61 20 -57 0 -60 -1 -57
-22z"/>
<path d="M1889 3364 c-6 -7 -9 -21 -5 -29 4 -12 24 -15 93 -15 95 0 117 7 111
36 -3 17 -14 19 -95 21 -68 1 -95 -3 -104 -13z"/>
<path d="M1571 3357 c-16 -16 -13 -34 5 -41 20 -8 162 -8 192 0 16 5 22 13 20
28 -3 20 -9 21 -105 22 -60 1 -106 -3 -112 -9z"/>
<path d="M1297 3352 c-15 -2 -32 -12 -37 -23 -16 -29 21 -39 118 -30 89 7 114
20 92 46 -12 15 -78 18 -173 7z"/>
<path d="M1058 3343 c-46 -3 -58 -8 -63 -23 -10 -31 3 -40 58 -40 74 0 127 17
127 39 0 20 -21 32 -48 29 -9 -1 -43 -3 -74 -5z"/>
<path d="M823 3320 c-46 -19 -14 -53 44 -48 33 3 38 7 38 28 0 21 -5 25 -30
27 -16 1 -40 -2 -52 -7z"/>
<path d="M623 3294 c-9 -24 10 -36 53 -32 32 2 40 7 42 26 3 20 -1 22 -43 22
-32 0 -47 -5 -52 -16z"/>
<path d="M2392 2593 c-22 -8 -34 -41 -22 -63 12 -23 59 -27 78 -8 32 32 -10
87 -56 71z"/>
<path d="M986 2574 c-31 -30 -13 -74 30 -74 25 0 54 24 54 45 0 20 -28 45 -50
45 -10 0 -26 -7 -34 -16z"/>
<path d="M2386 2423 c-32 -9 -74 -38 -98 -68 -29 -38 -36 -134 -14 -188 21
-47 85 -94 142 -103 59 -9 143 31 175 83 72 117 -4 271 -139 279 -26 1 -56 0
-66 -3z m-14 -119 c10 -22 10 -28 -6 -39 -25 -19 -46 -8 -46 24 0 48 33 57 52
15z"/>
<path d="M945 2401 c-52 -24 -80 -56 -95 -108 -30 -99 23 -195 122 -227 49
-15 58 -15 98 -1 130 46 174 185 93 292 -47 62 -139 81 -218 44z m10 -117 c0
-24 -4 -29 -25 -29 -30 0 -38 26 -14 49 23 23 39 15 39 -20z"/>
<path d="M1559 2206 c-31 -67 37 -151 138 -171 93 -19 213 65 213 148 0 53
-65 63 -88 14 -21 -44 -65 -66 -113 -57 -46 9 -46 8 -67 52 -22 44 -66 51 -83
14z"/>
<path d="M8675 5556 c-33 -6 -87 -23 -120 -36 -60 -24 -163 -91 -178 -117 -6
-10 -24 -12 -70 -7 -77 7 -247 -25 -323 -63 -118 -58 -235 -178 -275 -283 -27
-68 -49 -180 -49 -242 0 -136 76 -332 166 -428 l23 -25 -44 -90 c-275 -561
-425 -855 -452 -887 -18 -22 -33 -50 -33 -63 0 -12 -6 -28 -14 -34 -31 -26
-99 -224 -122 -351 -3 -19 -6 -95 -6 -167 l-1 -132 -37 -25 c-90 -59 -147
-172 -137 -271 6 -69 48 -159 95 -209 45 -47 124 -84 194 -91 28 -3 52 -6 53
-8 136 -239 250 -351 465 -459 69 -34 127 -63 129 -65 2 -1 -23 -37 -55 -80
-67 -89 -117 -161 -127 -183 -4 -8 -19 -33 -33 -55 -59 -93 -114 -239 -114
-302 0 -41 32 -92 68 -109 41 -19 122 -15 170 10 16 8 31 13 34 11 2 -2 0 -44
-4 -92 -14 -144 3 -197 69 -217 16 -5 24 -17 28 -44 16 -104 48 -198 87 -259
55 -85 93 -104 213 -111 104 -5 160 7 200 44 l28 26 16 -21 c27 -34 88 -53
176 -53 96 -1 154 14 194 47 57 49 108 169 127 298 6 43 10 50 43 65 23 11 43
31 55 55 16 35 17 50 9 145 -5 59 -9 108 -7 110 1 2 16 -3 32 -12 78 -41 177
-24 208 35 33 66 17 153 -57 304 -63 128 -89 174 -151 260 -28 38 -51 76 -52
83 -1 9 34 25 99 46 161 52 278 119 390 225 60 56 60 57 117 55 193 -7 344
138 337 321 -3 67 -44 158 -94 206 -33 32 -35 37 -30 79 3 25 14 63 25 85 10
22 21 69 24 105 3 36 12 117 20 180 9 63 22 169 31 235 9 66 18 134 20 150 16
112 28 192 30 205 2 14 6 44 21 165 7 60 10 65 35 65 10 0 59 13 108 29 150
48 199 103 252 286 27 93 29 112 29 270 0 228 -23 323 -113 473 -75 125 -147
200 -245 254 -114 62 -221 88 -360 85 l-114 -2 -23 61 c-60 159 -202 315 -380
417 -44 25 -105 55 -135 66 -131 47 -332 63 -465 37z m361 -124 c221 -73 407
-221 499 -398 25 -48 30 -67 28 -121 -2 -58 0 -65 23 -80 24 -15 28 -15 72 6
57 28 179 35 270 16 173 -38 332 -162 415 -327 57 -113 69 -178 69 -378 0
-130 -2 -154 -26 -227 -36 -110 -74 -159 -160 -203 -65 -33 -76 -35 -182 -39
-197 -6 -334 22 -493 102 -94 47 -176 126 -224 215 l-29 53 51 54 c54 57 61
78 34 107 -26 29 -50 22 -133 -41 -107 -80 -168 -102 -301 -109 -80 -3 -119 0
-163 12 -96 28 -166 67 -231 128 -79 73 -120 153 -142 273 -17 97 -33 125 -69
125 -42 0 -56 -37 -44 -116 6 -38 17 -93 26 -122 8 -29 12 -58 8 -64 -5 -7
-33 -9 -85 -5 -209 16 -375 156 -449 377 -18 54 -21 82 -18 170 3 99 6 110 42
182 71 142 197 230 354 250 42 5 91 17 109 25 18 9 40 13 49 9 15 -6 15 -9 -6
-31 -29 -31 -39 -105 -17 -124 30 -24 51 -8 87 66 63 131 147 193 315 237 48
12 261 -2 321 -22z m-1039 -1181 c32 -16 81 -37 108 -46 64 -22 212 -31 255
-16 32 11 34 9 110 -62 169 -159 406 -219 623 -159 42 12 83 22 90 22 6 0 28
-26 49 -58 90 -142 198 -230 363 -297 64 -26 259 -65 326 -65 l61 0 -5 -57
c-3 -32 -10 -89 -16 -128 -6 -38 -15 -104 -20 -145 -12 -90 -20 -144 -26 -185
-3 -16 -9 -65 -15 -107 -5 -43 -15 -113 -20 -155 -6 -43 -13 -100 -16 -128 -4
-27 -10 -58 -15 -67 -9 -17 -12 -16 -57 1 -26 11 -67 27 -92 36 -25 10 -63 25
-85 35 -22 10 -98 38 -170 63 -71 25 -168 60 -215 77 -159 58 -796 267 -980
322 -19 6 -45 14 -58 19 -21 8 -339 99 -594 170 -65 18 -118 36 -118 41 0 12
60 117 71 124 5 3 19 -2 31 -10 12 -9 33 -16 46 -16 19 0 23 5 20 23 -2 15
-14 25 -38 33 -19 7 -35 16 -35 20 0 5 62 135 138 289 76 154 157 319 180 367
23 48 43 88 44 88 1 0 28 -13 60 -29z m-19 -1156 c7 -14 12 -31 12 -37 0 -20
63 -144 94 -183 44 -56 98 -104 117 -105 9 0 22 6 28 14 10 12 2 30 -42 93
-76 110 -116 203 -85 203 14 0 48 -30 48 -43 0 -18 116 -183 160 -227 53 -54
139 -118 195 -145 124 -59 266 -94 372 -92 82 2 86 3 114 35 l29 32 50 -25
c61 -31 196 -74 254 -81 50 -7 120 10 158 38 15 10 33 16 39 12 21 -13 39 -74
59 -209 22 -141 49 -250 76 -297 14 -26 13 -31 -11 -81 -92 -186 -262 -323
-500 -401 -151 -50 -215 -62 -424 -78 -297 -24 -606 25 -838 133 -126 58 -252
156 -334 259 -91 115 -189 322 -189 399 0 61 104 211 320 462 69 80 159 191
200 247 41 56 78 102 81 102 3 0 11 -11 17 -25z m-767 -602 c11 -28 24 -98 32
-164 2 -20 14 -68 27 -108 12 -40 20 -74 18 -76 -2 -3 -21 1 -42 7 -132 41
-186 258 -85 343 17 14 33 25 35 25 2 0 9 -12 15 -27z m2709 -320 c40 -85 11
-192 -66 -245 -39 -26 -131 -52 -139 -38 -2 3 9 31 24 61 16 30 45 99 66 154
20 55 41 108 46 118 15 26 42 6 69 -50z m-1913 -894 c-30 -90 -66 -199 -78
-242 -34 -110 -99 -177 -174 -177 -57 0 -52 52 15 189 78 158 276 437 288 403
1 -5 -22 -84 -51 -173z m220 156 c8 -3 10 -22 6 -62 -5 -53 -3 -62 20 -89 l25
-29 227 0 227 0 25 29 c21 25 24 37 20 72 -6 53 0 61 42 66 34 3 34 3 57 -67
87 -269 135 -499 137 -659 l2 -119 -43 -12 c-24 -7 -71 -16 -105 -20 -34 -4
-71 -9 -82 -12 -51 -12 -391 -15 -482 -4 -54 7 -118 14 -143 17 -58 7 -120 21
-155 34 l-28 11 7 102 c4 56 9 122 12 147 8 59 76 325 121 470 19 63 37 121
39 128 3 11 26 10 71 -3z m769 -32 c29 -33 143 -201 174 -258 104 -189 124
-263 81 -290 -19 -11 -75 14 -114 51 -27 27 -42 54 -57 103 -25 88 -97 325
-114 379 -16 49 -6 54 30 15z m-448 8 l133 -1 -3 -32 -3 -33 -170 0 -170 0 -3
38 -3 37 43 -4 c24 -3 103 -5 176 -5z m-408 -965 c46 -7 164 -18 215 -20 l40
-2 3 -100 c2 -55 -1 -112 -8 -128 l-10 -28 -84 4 c-56 3 -92 10 -110 21 -33
22 -72 99 -91 179 -18 77 -18 89 -2 83 6 -2 28 -6 47 -9z m766 -38 c-15 -96
-39 -157 -76 -198 l-37 -40 -80 0 c-53 0 -84 4 -91 13 -6 7 -12 62 -13 122
l-2 110 79 6 c105 8 198 20 203 25 15 15 23 -1 17 -38z"/>
<path d="M8080 4031 c-17 -32 -12 -61 10 -61 21 0 55 53 45 70 -10 17 -44 11
-55 -9z"/>
<path d="M8014 3875 c-15 -38 -12 -55 11 -55 23 0 49 58 34 76 -18 22 -29 17
-45 -21z"/>
<path d="M9681 3516 c-20 -24 -9 -51 19 -51 21 0 25 5 25 30 0 34 -24 45 -44
21z"/>
<path d="M7743 3472 c-40 -6 -25 -30 33 -51 59 -23 74 -21 74 9 0 21 -70 48
-107 42z"/>
<path d="M7933 3405 c-4 -12 0 -23 12 -31 24 -18 51 -18 58 -1 8 20 -5 35 -36
42 -20 6 -28 3 -34 -10z"/>
<path d="M8084 3366 c-9 -7 -14 -17 -11 -23 9 -14 123 -47 141 -40 36 14 2 44
-76 65 -27 7 -41 7 -54 -2z"/>
<path d="M9630 3361 c-17 -33 -12 -61 10 -61 23 0 46 40 37 64 -9 22 -34 20
-47 -3z"/>
<path d="M8317 3303 c-23 -23 44 -73 79 -59 25 10 14 37 -21 52 -38 16 -49 17
-58 7z"/>
<path d="M8510 3240 c-27 -17 3 -44 71 -62 35 -10 70 -16 77 -13 28 10 10 34
-40 53 -82 30 -92 32 -108 22z"/>
<path d="M9574 3183 c-9 -21 -18 -55 -21 -75 -5 -33 -3 -38 14 -38 34 0 79
124 52 141 -23 14 -28 11 -45 -28z"/>
<path d="M8747 3174 c-16 -16 -5 -42 21 -52 70 -27 189 -62 210 -62 15 0 22 6
22 19 0 14 -23 26 -112 56 -62 21 -118 39 -124 42 -5 2 -13 0 -17 -3z"/>
<path d="M9080 3047 c0 -19 60 -52 112 -62 28 -5 37 -3 42 11 3 9 5 18 4 19
-20 15 -82 37 -115 42 -35 5 -43 3 -43 -10z"/>
<path d="M9326 2982 c-25 -24 29 -68 94 -75 38 -3 38 28 -1 49 -42 21 -86 34
-93 26z"/>
<path d="M9523 2894 c-8 -22 5 -46 24 -42 27 5 29 44 3 51 -13 3 -23 0 -27 -9z"/>
<path d="M9656 2844 c-9 -23 1 -31 61 -54 38 -14 53 -16 62 -7 20 20 11 35
-31 51 -76 27 -85 28 -92 10z"/>
<path d="M7836 2558 c-15 -21 -14 -24 3 -41 24 -25 61 -15 61 17 0 46 -39 60
-64 24z"/>
<path d="M9145 2464 c-19 -20 -16 -43 8 -58 37 -24 76 33 40 59 -23 18 -28 18
-48 -1z"/>
<path d="M7768 2410 c-59 -31 -91 -82 -95 -148 -12 -181 218 -263 321 -114 34
49 41 92 26 146 -30 109 -156 166 -252 116z m20 -118 c3 -29 1 -32 -23 -32
-31 0 -41 20 -25 50 17 31 44 21 48 -18z"/>
<path d="M9113 2320 c-145 -35 -180 -227 -58 -322 24 -19 42 -23 96 -23 57 0
71 4 103 29 43 32 75 95 76 144 1 109 -111 198 -217 172z m-17 -104 c8 -21
-15 -58 -34 -54 -9 2 -18 11 -20 21 -7 36 42 65 54 33z"/>
<path d="M8331 2182 c-15 -29 7 -96 43 -131 73 -71 215 -50 261 39 46 88 -22
139 -78 59 -26 -38 -30 -40 -75 -37 -44 3 -48 6 -70 46 -26 46 -63 57 -81 24z"/>
<path d="M8182 1123 c-22 -23 -23 -29 -21 -154 1 -72 7 -153 12 -181 14 -68
57 -111 129 -129 69 -17 339 -17 395 -1 104 31 133 94 133 289 0 134 -14 193
-47 193 -10 0 -144 2 -298 4 l-279 3 -24 -24z m552 -190 c-1 -188 -12 -198
-224 -197 -157 0 -211 11 -234 47 -15 23 -33 247 -22 265 4 7 91 10 244 9
l237 -2 -1 -122z"/>
<path d="M375 1664 c-34 -34 -16 -100 44 -161 32 -33 41 -49 41 -76 0 -38 14
-50 43 -35 22 11 23 65 0 98 -9 14 -31 42 -50 63 -25 28 -33 46 -33 76 0 44
-20 59 -45 35z"/>
<path d="M565 1417 c-8 -13 -15 -44 -16 -69 -2 -40 3 -52 34 -88 20 -24 37
-56 39 -73 4 -36 19 -44 42 -22 25 25 19 56 -20 105 -31 39 -35 51 -34 95 1
27 1 56 1 63 -2 20 -29 14 -46 -11z"/>
<path d="M370 1375 c-6 -8 -14 -32 -17 -53 -7 -49 16 -95 61 -124 22 -14 39
-37 47 -60 14 -44 23 -47 45 -13 22 34 11 58 -48 107 -49 42 -50 44 -44 87 8
59 -16 90 -44 56z"/>
</g>
</svg>
