<svg xmlns="http://www.w3.org/2000/svg" width="975" height="751" viewBox="0 0 975 751" version="1.1"><path d="M 169 1.039 C 157.901 2.973, 148.545 13.976, 150.345 22.977 C 150.743 24.966, 150.357 26.272, 149.012 27.489 C 146.736 29.549, 143.998 37.172, 144.006 41.428 C 144.013 45.628, 145.615 51.051, 148.991 58.313 L 151.833 64.425 148.923 65.834 C 144.692 67.883, 139.296 74.271, 138.072 78.679 C 136.847 83.091, 136.779 90.593, 137.938 93.500 C 138.472 94.840, 138.162 96.324, 136.997 98 C 136.040 99.375, 129.962 109.275, 123.490 120 C 102.254 155.189, 99.196 160.207, 81.754 188.488 L 64.493 216.476 59.917 217.131 C 47.384 218.924, 40 227.570, 40 240.453 C 40 246.780, 44.061 255.554, 48.048 257.842 C 50.271 259.118, 52.129 262.773, 58.020 277.455 C 62.001 287.380, 66.954 299.550, 69.026 304.500 C 80.191 331.178, 85.033 343.300, 84.670 343.663 C 84.448 343.886, 79.633 341.803, 73.971 339.034 C 62.137 333.247, 57.917 332.671, 55.408 336.500 C 53.530 339.367, 53.930 344.872, 56.930 357.468 C 58.971 366.033, 59.206 365.810, 50.535 363.551 C 47.475 362.754, 41.265 361.802, 36.736 361.435 C 29.397 360.842, 28.231 360.987, 26.028 362.774 C 23.888 364.509, 23.587 365.495, 23.788 370.115 C 24.287 381.586, 29.581 396.233, 37.462 407.944 C 39.757 411.354, 41 414.374, 41 416.541 C 41 418.379, 41.450 420.160, 42 420.500 C 44.344 421.948, 42.557 422.747, 35.750 423.293 C 24.637 424.185, 8.696 430.225, 2.750 435.797 C -0.488 438.832, -0.955 443.826, 1.770 446.292 C 5.753 449.896, 32.580 459, 39.219 459 C 40.818 459, 40.713 459.476, 38.318 463.096 C 36.018 466.571, 35.545 468.506, 35.203 475.846 C 34.543 489.993, 36.576 510.379, 42.422 548.231 C 48.370 586.747, 49.069 589.219, 55.637 594.987 C 64.534 602.798, 85.297 608.617, 107.768 609.599 C 132.461 610.677, 151.520 607.700, 167.295 600.299 C 177.252 595.628, 181.235 591.310, 183.882 582.316 C 189.072 564.680, 195.348 516.685, 196.673 484.495 C 197.248 470.539, 197.144 469.203, 195.190 465.372 C 194.034 463.106, 191.719 459.960, 190.044 458.380 C 186.934 455.444, 186.248 454, 187.965 454 C 189.483 454, 203.889 445.097, 210.444 440.108 C 213.714 437.620, 219.676 432.412, 223.694 428.534 C 231.260 421.233, 232.426 418.533, 229.983 413.968 C 228.537 411.267, 220.113 409.022, 208.750 408.309 C 203.387 407.973, 199 407.571, 199 407.416 C 199 407.261, 201.238 403.449, 203.974 398.945 C 209.283 390.205, 212.442 382.699, 214.134 374.809 C 215.348 369.148, 213.730 365.472, 209.564 364.427 C 207.385 363.880, 194.922 365.925, 190.860 367.495 C 189.414 368.055, 189.281 367.370, 189.737 361.692 C 190.196 355.968, 190.004 355.004, 188.007 353.007 C 186.148 351.148, 185.049 350.862, 181.630 351.347 C 177.970 351.866, 163.468 356.364, 158.738 358.447 C 157.107 359.165, 157.122 358.880, 158.942 354.636 C 163.540 343.908, 166.996 327.881, 166.999 317.273 C 167 311.704, 166.731 310.870, 164.455 309.378 C 161.135 307.203, 156.916 308.388, 144.091 315.095 C 138.916 317.801, 134.618 319.900, 134.539 319.758 C 134.461 319.616, 133.594 316.800, 132.613 313.500 C 130.211 305.421, 123.719 292.135, 120.519 288.750 C 119.073 287.221, 116.843 286, 115.494 286 C 112.130 286, 106.884 290.901, 101.370 299.196 C 97.610 304.852, 96.526 305.904, 95.799 304.605 C 95.302 303.718, 91.490 294.557, 87.327 284.246 C 83.164 273.936, 79.109 263.914, 78.316 261.976 C 76.920 258.565, 76.989 258.261, 80.437 252.535 C 82.397 249.280, 84.034 245.691, 84.077 244.559 C 84.119 243.426, 84.301 241.733, 84.481 240.795 C 84.662 239.858, 84.434 237.425, 83.975 235.390 C 83.070 231.375, 83.573 230.487, 123.042 166.500 C 129.827 155.500, 140.244 138.449, 146.189 128.610 C 152.135 118.770, 157 111.635, 157 112.754 C 157 118.629, 159.332 136.560, 161.064 144 C 165.436 162.781, 169.850 173.183, 174.009 174.503 C 175.085 174.844, 180.960 174.389, 187.064 173.491 C 221.750 168.385, 259.566 150.477, 281.381 128.824 L 290.261 120.009 289.756 115.527 C 289.147 110.129, 281.299 95.874, 272.948 85 C 260.149 68.333, 243.302 55.459, 228.492 51.028 C 224.775 49.915, 224.120 49.130, 219.492 40.223 C 207.109 16.395, 201.802 10.296, 192.545 9.252 C 189.554 8.915, 187.879 8.193, 187.528 7.089 C 186.260 3.092, 176.155 -0.207, 169 1.039 M 166.750 14.220 C 161.348 17.351, 162.127 18.471, 167.750 15.657 C 170.363 14.350, 173.175 13.028, 174 12.719 C 174.912 12.378, 174.520 12.136, 173 12.102 C 171.625 12.071, 168.813 13.024, 166.750 14.220 M 177.481 24.287 C 167.237 28.442, 160.719 32.272, 157.976 35.749 C 154.970 39.558, 155.684 44.326, 160.964 55.688 L 165.228 64.866 170.288 60.867 C 175.778 56.527, 189.505 49.665, 200.250 45.890 C 203.963 44.585, 207 43.236, 207 42.891 C 207 41.116, 199.027 28.127, 195.905 24.814 C 191.343 19.975, 188.323 19.888, 177.481 24.287 M 204 57.367 C 194.937 60.029, 180.612 67.495, 177.513 71.171 C 170.147 79.910, 166.829 116.325, 171.437 137.838 C 173.453 147.246, 177.743 160.111, 179.443 161.845 C 181.462 163.905, 193.026 161.767, 209 156.381 C 234.297 147.852, 256.381 135.676, 271.091 122.146 C 278.402 115.422, 278.403 115.415, 271.524 103.893 C 262.938 89.509, 247.924 74.140, 235.500 67.014 C 232.750 65.437, 226.900 62.953, 222.500 61.495 C 218.100 60.036, 213.825 58.014, 213 57.003 C 211.548 55.222, 211.262 55.233, 204 57.367 M 865.369 62.847 C 854.795 70.507, 843.216 88.129, 837.999 104.500 C 836.347 109.683, 835.636 114.908, 835.258 124.633 C 834.652 140.213, 836.180 148.759, 841.591 160.049 L 845.111 167.396 839.806 162.427 C 822.471 146.192, 798.302 136.066, 776.773 136.017 C 769.655 136.001, 768.919 136.194, 767.432 138.464 C 766.012 140.631, 765.948 142.359, 766.902 152.807 C 770.218 189.151, 786.741 217.794, 811.327 229.821 C 820.874 234.491, 828.247 236.106, 842.771 236.710 L 856.043 237.262 858.680 240.381 C 860.130 242.097, 862.255 245.525, 863.403 248 C 865.333 252.163, 865.510 254.562, 865.770 280 L 866.050 307.500 863.182 302 C 861.605 298.975, 859.344 294.717, 858.157 292.539 C 856.971 290.360, 856 288.006, 856 287.308 C 856 286.609, 854.875 285.805, 853.500 285.519 C 852.125 285.234, 849.987 284.790, 848.750 284.534 C 847.513 284.278, 844.075 282.240, 841.112 280.006 C 833.399 274.190, 823.845 269.046, 813.608 265.197 C 803.866 261.534, 800.964 261.588, 799.198 265.464 C 797.109 270.049, 797.100 270.042, 815.086 278.311 C 831.524 285.868, 845.114 296.545, 849.818 305.598 L 850.908 307.696 839.411 305.691 C 831.204 304.260, 827.606 303.994, 826.838 304.762 C 825.411 306.189, 832.116 309.627, 839.217 311.110 C 848.093 312.964, 847.522 314.330, 838.155 313.652 C 820.071 312.343, 804.685 300.643, 795.216 281 C 790.703 271.637, 786 256.741, 786 251.810 C 786 249.385, 790.878 249.411, 803.253 251.900 C 816.943 254.654, 826.350 259.340, 835.415 267.920 C 839.530 271.814, 843.734 275, 844.759 275 C 847.204 275, 851 271.412, 851 269.102 C 851 266.336, 843.500 258.404, 835.719 252.939 C 823.236 244.173, 806.012 239.110, 787.693 238.823 C 778.934 238.685, 777.661 238.894, 775.777 240.778 C 773.303 243.253, 773.228 247.367, 775.444 258.958 C 782.099 293.758, 799.775 316.183, 826.495 323.723 C 829.248 324.499, 837.291 325.461, 844.370 325.860 C 857.204 326.583, 857.248 326.594, 860.085 329.769 C 863.011 333.044, 866.624 343.182, 865.508 344.987 C 865.156 345.557, 860.647 346.004, 855.191 346.008 C 836.133 346.024, 815.194 349.730, 804.793 354.927 C 798.124 358.260, 795 362.716, 795 368.900 C 795 373.295, 794.807 373.606, 790.750 375.764 C 788.413 377.008, 785.450 379.565, 784.167 381.446 C 781.976 384.657, 781.854 385.628, 782.167 397.355 C 782.473 408.847, 782.688 410.045, 784.849 412.342 C 786.141 413.715, 788.503 415.380, 790.099 416.041 C 792.706 417.121, 793.001 417.711, 793.012 421.871 C 793.018 424.417, 793.676 433.250, 794.472 441.500 C 795.269 449.750, 796.158 459.650, 796.447 463.500 C 796.736 467.350, 797.217 472.975, 797.515 476 C 797.814 479.025, 798.232 483.525, 798.446 486 C 798.994 492.343, 802.031 520.992, 802.474 524 C 802.677 525.375, 803.153 530.775, 803.531 536 C 803.910 541.225, 804.815 546.945, 805.543 548.712 C 806.894 551.991, 807.551 555.876, 808.552 566.500 C 810.020 582.087, 812.132 594.542, 813.791 597.399 C 818.077 604.779, 831.823 609.603, 856.894 612.525 C 878.906 615.090, 912.144 612.011, 925.312 606.186 C 931.167 603.596, 936.675 598.557, 937.867 594.700 C 938.722 591.933, 939.568 585.206, 942.588 557.179 C 942.904 554.252, 943.743 550.427, 944.454 548.679 C 945.165 546.930, 946.046 541.450, 946.413 536.500 C 947.367 523.641, 947.959 516.743, 948.988 506.500 C 949.485 501.550, 950.169 493.225, 950.507 488 C 951.036 479.822, 953.562 447.940, 955.556 424.281 C 956.125 417.532, 956.371 416.933, 959.332 415.100 C 964.939 411.628, 966 408.560, 965.996 395.846 C 965.992 382.320, 964.778 379.532, 957.036 375.262 C 952.176 372.581, 952.028 372.367, 952.014 367.973 C 951.990 360.238, 945.601 355.120, 930.852 351.020 C 920.351 348.100, 902.820 346, 888.949 346 C 879.725 346, 877 345.699, 877 344.682 C 877 341.170, 880.406 332.578, 882.907 329.778 C 885.690 326.663, 885.812 326.633, 898.606 325.871 C 917.508 324.745, 929.305 320.480, 941.879 310.226 C 954.920 299.591, 966.015 275.622, 968.833 252 C 970.426 238.645, 968.605 237.340, 950.500 238.856 C 927.336 240.795, 908.089 249.355, 897.895 262.252 C 893.509 267.800, 892.762 272.267, 895.934 273.965 C 899.207 275.716, 900.771 275.161, 905.215 270.671 C 911.755 264.064, 917.173 260.247, 925.193 256.598 C 933.970 252.604, 939.488 251.187, 949.575 250.334 L 957.169 249.692 956.503 254.596 C 953.669 275.479, 942.136 296.431, 928.694 305.119 C 920.204 310.607, 912.773 313.126, 903.250 313.745 C 893.218 314.398, 892.231 312.856, 901.577 311.134 C 909.935 309.594, 916 307.179, 916 305.391 C 916 303.731, 913.464 303.641, 905.434 305.016 C 902.170 305.575, 897.973 306.283, 896.106 306.589 L 892.712 307.145 894.722 303.971 C 901.188 293.758, 915.945 282.868, 932.500 276.090 C 936.900 274.289, 941.594 271.753, 942.931 270.454 C 945.061 268.385, 945.217 267.772, 944.190 265.518 C 942.609 262.048, 940.550 261.446, 935.096 262.857 C 929.180 264.387, 911.075 273.104, 905.507 277.102 C 902.631 279.168, 899.474 280.411, 895.996 280.847 L 890.790 281.500 886.203 289 C 883.681 293.125, 880.571 298.975, 879.293 302 L 876.968 307.500 877.273 280 C 877.597 250.713, 877.809 249.325, 882.982 242.750 C 885.044 240.129, 885.551 240, 893.823 239.993 C 905.350 239.984, 917.058 237.075, 928.942 231.268 C 937.021 227.320, 939.902 225.197, 947.560 217.548 C 965.068 200.061, 973.560 179.360, 974.713 151.356 L 975.254 138.212 972.581 136.461 C 970.174 134.884, 969.043 134.827, 961.204 135.892 C 938.588 138.965, 914.707 150.054, 902.426 163.183 C 899.874 165.911, 897.949 167.774, 898.150 167.322 C 898.350 166.870, 899.923 163.800, 901.645 160.500 C 906.143 151.878, 907.961 144.879, 908.660 133.483 C 909.879 113.641, 903.415 93.402, 890.424 76.383 C 887.437 72.469, 882.763 67.181, 880.039 64.633 C 874.112 59.090, 871.068 58.719, 865.369 62.847 M 865.535 79.172 C 849.455 97.057, 843.151 120.791, 848.183 144.500 C 849.587 151.116, 855.248 161.879, 859.482 165.982 L 862.878 169.274 860.516 163.387 C 857.634 156.202, 855.608 142.666, 856.791 138.500 C 857.260 136.850, 858.399 135.355, 859.322 135.177 C 860.686 134.914, 861 135.672, 861 139.233 C 861 141.641, 862.013 146.512, 863.250 150.056 L 865.500 156.500 865.764 124.411 L 866.027 92.323 868.363 90.129 C 870.272 88.336, 871.167 88.113, 873.264 88.910 C 874.674 89.447, 876.074 90.699, 876.373 91.693 C 876.673 92.687, 877.023 107.787, 877.152 125.250 C 877.280 142.713, 877.512 157, 877.667 157 C 877.822 157, 878.705 155.537, 879.630 153.750 C 882.280 148.628, 883.975 141.043, 883.988 134.250 C 883.997 129.480, 884.341 128, 885.441 128 C 887.731 128, 888.036 129.302, 888.060 139.185 C 888.084 149.505, 886.213 158.135, 882.520 164.744 C 879.468 170.203, 880.878 170.206, 885.349 164.750 C 894.156 154.002, 897.455 142.660, 896.765 125.500 C 896.350 115.184, 895.855 112.408, 893.235 105.716 C 891.559 101.435, 888.371 94.875, 886.152 91.138 C 881.612 83.496, 873.493 74, 871.500 74 C 870.777 74, 868.093 76.328, 865.535 79.172 M 154.221 76.549 C 150.398 78.157, 149 80.696, 149 86.034 C 149 89.438, 149.622 90.822, 152.400 93.600 C 156.266 97.466, 158 97.899, 158 95 C 158 93.900, 157.395 93, 156.655 93 C 154.517 93, 151.750 89.306, 151.750 86.451 C 151.750 82.145, 153.993 79.092, 157.661 78.404 C 159.497 78.059, 161 77.430, 161 77.005 C 161 75.523, 157.260 75.271, 154.221 76.549 M 177.669 87.686 C 170.597 101.426, 175.088 147.500, 183.500 147.500 C 186.251 147.500, 186.027 143.868, 182.557 132.216 C 179.899 123.293, 179.814 122.324, 180.360 107.216 C 180.673 98.572, 181.057 90.194, 181.214 88.598 C 181.596 84.722, 179.475 84.177, 177.669 87.686 M 144.247 107.358 C 143.599 108.780, 134.433 124.018, 123.879 141.222 C 88.006 199.690, 75.761 220.094, 76.249 220.582 C 76.516 220.850, 82.704 211.266, 89.999 199.284 C 97.294 187.303, 108.082 169.625, 113.973 160 C 142.328 113.668, 146.201 107.102, 145.826 105.979 C 145.605 105.316, 144.894 105.936, 144.247 107.358 M 291.267 126.314 C 289.847 129.430, 290.972 131.178, 297.512 136.009 C 303.711 140.589, 306.315 140.975, 308.500 137.641 C 310.641 134.372, 309.747 132.814, 303.021 128.096 C 296.340 123.409, 292.832 122.877, 291.267 126.314 M 314.655 141.829 C 311.333 145.500, 312.907 147.723, 324.950 156.369 C 332.156 161.543, 334.197 161.984, 336.396 158.845 C 338.450 155.912, 337.417 154.310, 329.312 147.860 C 318.564 139.307, 317.379 138.819, 314.655 141.829 M 778.567 147.892 C 777.724 149.255, 779.523 163.353, 781.546 171.245 C 782.428 174.685, 785.073 181.550, 787.423 186.500 C 798.323 209.456, 814.515 222.339, 835.869 225.047 C 840.035 225.575, 844.947 225.725, 846.785 225.381 L 850.125 224.754 847.145 222.942 C 845.506 221.945, 842.322 220.578, 840.071 219.903 C 835.261 218.462, 833.758 217.009, 834.999 215.001 C 835.752 213.784, 836.889 213.904, 842.587 215.807 C 846.273 217.037, 849.492 217.841, 849.741 217.592 C 850.595 216.739, 843.595 207.554, 836.157 199.768 C 827.198 190.392, 819.154 184.354, 804.500 176.005 C 791.979 168.872, 790 167.369, 790 165 C 790 162.771, 793.142 160, 795.668 160 C 798.444 160, 814.907 168.511, 825.620 175.485 C 830.504 178.664, 837.592 184.408, 841.371 188.249 L 848.241 195.232 845.020 189.189 C 837.942 175.910, 826.152 164.449, 811.951 157.044 C 800.875 151.269, 780.014 145.550, 778.567 147.892 M 956.757 148.034 C 932.937 152.044, 907.938 169.252, 897.750 188.652 C 893.081 197.542, 893.015 198.577, 897.491 192.715 C 904.060 184.112, 919.456 172.685, 934.883 164.962 C 946.202 159.295, 949.495 158.798, 951.182 162.500 C 952.956 166.393, 950.990 169.199, 943.862 172.949 C 919.534 185.747, 908.129 195.269, 896.367 212.601 C 894.054 216.009, 891 221.526, 891 222.296 C 891 222.771, 900.362 220.608, 908 218.369 C 911.025 217.483, 916.134 215.432, 919.354 213.812 C 926.610 210.161, 929.631 210.689, 925.594 214.902 C 922.050 218.601, 911.551 223.681, 902.601 226.028 L 895.500 227.890 900.324 227.945 C 910.764 228.064, 929.320 219.400, 938.755 210 C 952.668 196.140, 961.189 176.617, 963.665 152.935 C 964.353 146.352, 964.812 146.678, 956.757 148.034 M 183.667 151.667 C 182.394 152.940, 183.009 156.789, 184.582 157.393 C 186.950 158.302, 187.705 158.152, 189.427 156.431 C 190.611 155.246, 190.743 154.388, 189.963 152.931 C 188.969 151.074, 185.047 150.286, 183.667 151.667 M 256.500 174.808 C 247.155 178.066, 239.885 184.661, 235.742 193.641 L 233.500 198.500 233.237 346.988 C 232.949 509.512, 232.609 499.499, 238.722 508.320 C 240.206 510.461, 242.910 513.226, 244.733 514.464 L 248.045 516.715 242.265 518.823 C 233.844 521.894, 229.877 526.666, 215.931 550.500 C 209.173 562.050, 198.698 579.600, 192.654 589.500 C 176.338 616.228, 170.533 626.134, 169.073 629.746 C 167.161 634.476, 168.053 650.333, 170.520 655.457 C 173.260 661.149, 179.287 666.563, 185.826 669.206 L 191.500 671.500 494 671.500 L 796.500 671.500 802.651 668.658 C 813.027 663.864, 817.934 656.654, 818.770 644.976 C 819.685 632.176, 821.046 634.901, 778.606 564.500 C 766.670 544.700, 755.535 527.086, 753.861 525.358 C 750.279 521.661, 746.202 519.464, 740 517.889 C 736.745 517.062, 735.991 516.567, 737.275 516.101 C 740.391 514.969, 746.823 507.994, 749.200 503.169 L 751.500 498.500 751.500 349 C 751.500 200.206, 751.490 199.477, 749.437 194.677 C 745.241 184.867, 738.202 178.146, 728.679 174.855 C 723.761 173.156, 711.847 173.065, 492.500 173.065 C 275.429 173.065, 261.198 173.170, 256.500 174.808 M 850.722 175.631 C 856.457 183.748, 862.064 197.636, 864.447 209.633 L 865.812 216.500 865.906 200.358 C 865.999 184.417, 865.972 184.210, 863.750 183.651 C 862.513 183.339, 858.619 180.762, 855.097 177.923 C 850.160 173.943, 849.158 173.418, 850.722 175.631 M 888 178.055 C 885.525 180.239, 882.038 182.560, 880.250 183.214 L 877 184.402 877.136 200.451 C 877.211 209.278, 877.441 215.375, 877.648 214 C 879.685 200.439, 883.602 189.243, 889.883 179.035 C 891.587 176.266, 892.873 174.019, 892.741 174.043 C 892.608 174.066, 890.475 175.872, 888 178.055 M 184.927 179.588 C 183.102 181.787, 183.398 185.738, 186.343 198.500 C 190.077 214.680, 198.497 250.973, 203.162 271 C 205.404 280.625, 207.865 291.425, 208.631 295 C 211.135 306.697, 213.316 309.507, 217.962 307.020 C 220.766 305.520, 220.606 301.797, 217.074 286.320 C 196.041 194.172, 193.032 181.756, 191.247 179.750 C 189.309 177.571, 186.657 177.504, 184.927 179.588 M 265.859 184.015 C 256.316 185.636, 249.754 190.781, 245.784 199.754 C 243.911 203.990, 243.858 208.120, 243.858 349.173 L 243.858 494.235 246.720 498.868 C 248.493 501.738, 251.278 504.451, 254.041 506 L 258.500 508.500 493 508.499 C 712.543 508.499, 727.700 508.389, 730.631 506.785 C 734.718 504.548, 738.497 499.986, 740.164 495.275 C 741.255 492.193, 741.500 465.172, 741.500 348 L 741.500 204.500 739.130 199.258 C 736.529 193.504, 730.792 187.720, 725.140 185.153 C 721.792 183.633, 703.397 183.489, 496 183.363 C 371.975 183.288, 268.411 183.581, 265.859 184.015 M 264.444 192.886 C 259.400 195.177, 253.369 202.087, 251.736 207.447 C 250.782 210.576, 250.500 241.579, 250.500 343.500 L 250.500 475.500 253.254 480.185 C 254.768 482.761, 257.468 485.911, 259.254 487.185 L 262.500 489.500 340.313 489.768 C 407.413 489.999, 418.440 490.242, 420.410 491.533 C 421.666 492.356, 425.319 493.714, 428.528 494.549 C 435.541 496.376, 441.559 495.709, 448.217 492.367 L 452.934 490 492.617 490 L 532.301 490 537.711 492.647 C 545.298 496.359, 554.504 496.359, 561.894 492.647 L 567.164 490 643.017 490 C 687.535 490, 719.884 489.615, 721.324 489.067 C 725.126 487.621, 730.914 482.091, 732.797 478.105 C 734.375 474.765, 734.495 464.851, 734.437 343 C 734.389 241.450, 734.092 210.519, 733.133 207.193 C 731.595 201.853, 725.797 195.278, 720.500 192.866 C 716.669 191.121, 707.063 191.044, 492.500 191.044 C 277.030 191.044, 268.346 191.114, 264.444 192.886 M 272.115 202.004 C 270.254 202.443, 267.104 204.429, 265.115 206.418 L 261.500 210.033 261.211 338.767 C 261.052 409.570, 261.194 469.011, 261.526 470.859 C 261.859 472.706, 263.293 475.293, 264.712 476.609 L 267.292 479 322.646 479 C 353.091 479, 378 478.801, 378 478.557 C 378 478.314, 377.133 476.626, 376.074 474.807 C 363.498 453.213, 368.958 415.457, 389.590 381.328 L 393.926 374.155 389.560 367.643 C 387.158 364.061, 384.205 358.514, 382.997 355.315 C 380.408 348.455, 378.009 334.797, 378.004 326.881 C 377.998 318.718, 380.588 305.147, 383.648 297.310 C 386.892 288.999, 386.973 285.775, 384.194 275.500 C 380.335 261.230, 381.794 240.041, 387.019 234.480 C 390.114 231.185, 396.338 230.447, 408.802 231.896 C 418.517 233.025, 435.850 237.801, 438.641 240.117 C 439.559 240.879, 441.664 240.475, 446.206 238.665 C 449.668 237.287, 457.450 234.922, 463.500 233.411 C 473.450 230.926, 476.218 230.663, 492.500 230.657 C 512.301 230.649, 519.212 231.680, 536.279 237.188 L 546.059 240.344 551.279 238.258 C 562.497 233.776, 575.891 231, 586.300 231 C 600.001 231, 602.511 235.187, 602.481 258 C 602.465 270.252, 602.109 273.634, 600.183 279.814 L 597.904 287.127 600.864 294.814 C 605.694 307.358, 607.097 314.286, 607.145 325.839 C 607.212 342.192, 603.798 354.278, 595.478 367.140 L 591.033 374.012 594.384 379.256 C 600.094 388.191, 606.974 402.754, 610.495 413.356 C 618.439 437.273, 617.661 461.337, 608.497 475.184 L 605.972 479 661.351 479 C 714.898 479, 716.813 478.935, 719.230 477.034 C 720.605 475.953, 722.249 473.814, 722.883 472.282 C 723.739 470.215, 723.968 436.225, 723.768 340.498 C 723.505 213.991, 723.462 211.437, 721.522 208.229 C 720.434 206.430, 717.704 204.067, 715.456 202.979 C 711.419 201.025, 708.653 201.001, 493.434 201.102 C 373.570 201.159, 273.977 201.564, 272.115 202.004 M 281.571 209.571 C 277.624 213.519, 281.577 219.425, 286.626 217.124 C 289.673 215.736, 289.953 210.581, 287.066 209.035 C 284.438 207.629, 283.414 207.729, 281.571 209.571 M 697.161 210.547 C 696.522 211.948, 696 213.266, 696 213.476 C 696 214.604, 699.399 217, 701 217 C 703.170 217, 706 214.453, 706 212.500 C 706 210.405, 703.108 208, 700.589 208 C 699.129 208, 697.908 208.907, 697.161 210.547 M 698.234 222.789 L 695.968 224.533 696.041 295.252 C 696.104 357.020, 696.305 366.162, 697.628 367.485 C 699.663 369.520, 702.332 369.395, 704.345 367.171 C 705.852 365.506, 706 359.032, 706 294.728 L 706 224.113 703.777 222.557 C 701.045 220.643, 701.021 220.644, 698.234 222.789 M 281.655 224.829 C 280.201 226.435, 280 229.935, 280 253.629 C 280 282.112, 280.140 283, 284.643 283 C 289.593 283, 290 280.668, 290 252.334 C 290 226.372, 289.978 226.098, 287.777 224.557 C 284.898 222.540, 283.677 222.594, 281.655 224.829 M 671.200 225.200 C 669.205 227.195, 669.700 233.769, 671.934 234.965 C 676.405 237.357, 681 234.553, 681 229.432 C 681 225.128, 674.206 222.194, 671.200 225.200 M 58.500 228.908 C 55.814 230.058, 53.374 232.885, 52.040 236.396 C 49.828 242.214, 54.535 249.563, 61.162 250.639 C 67.858 251.725, 74.701 242.522, 72.017 236.040 C 69.602 230.211, 63.265 226.867, 58.500 228.908 M 56.452 233.646 C 53.657 236.663, 53.351 239.843, 55.463 243.928 C 57.996 248.828, 62.920 249.409, 67.195 245.313 C 69.262 243.333, 70 241.668, 70 238.987 C 70 231.574, 61.484 228.216, 56.452 233.646 M 480.750 242.672 C 479.232 243.084, 479 244.469, 479 253.119 C 479 262.373, 478.823 263.268, 476.545 265.545 C 473.561 268.530, 472.984 268.562, 469.635 265.927 C 467.117 263.947, 467 263.430, 467 254.316 L 467 244.777 463.395 245.454 C 460.059 246.079, 450.467 249.594, 441.925 253.321 C 438.441 254.841, 438.240 254.806, 433.925 251.920 C 427.202 247.421, 414.733 243.956, 404.378 243.709 C 395.823 243.505, 395.611 243.556, 394.913 246 C 394.521 247.375, 394.155 252.366, 394.100 257.090 C 394.006 265.169, 394.817 269.588, 399.145 284.582 C 400.243 288.386, 400.071 289.253, 396.615 297.299 C 391.321 309.625, 389.677 318.329, 390.346 330.500 C 391.471 350.978, 400.602 366.823, 417.858 378.240 C 422.400 381.246, 423.131 383.941, 420.443 387.777 C 418.284 390.860, 415.316 390.562, 408.741 386.603 L 403.100 383.206 398.946 389.583 C 396.661 393.090, 393.026 400.054, 390.868 405.060 C 377.683 435.642, 378.028 461.403, 391.820 476.250 C 394.154 478.763, 395 479, 401.635 479 L 408.895 479 405.862 472.518 C 400.035 460.067, 398.345 448.808, 401.829 445.655 C 406.332 441.579, 410.309 444.803, 412.413 454.234 C 414.216 462.318, 417.847 470.799, 421.624 475.752 C 424.704 479.790, 431.178 483.200, 435.763 483.200 C 446.472 483.200, 451.311 473.163, 447.843 458.140 C 446.849 453.834, 446.923 452.767, 448.366 450.564 C 450.379 447.492, 454.878 447.103, 457.311 449.791 C 459.797 452.538, 461.281 461.425, 460.796 470.659 L 460.359 479 492.765 479 L 525.171 479 524.507 471.750 C 523.627 462.133, 525.265 452.060, 528.085 449.750 C 530.907 447.438, 534.268 447.533, 536.489 449.988 C 538.138 451.810, 538.187 452.708, 537.086 460.770 C 535.886 469.549, 536.154 471.787, 539.099 477.581 C 540.638 480.607, 545.454 483.118, 549.837 483.178 C 559.956 483.318, 568.369 473.041, 572.760 455.177 C 575.459 444.196, 578.706 441.615, 583.627 446.536 C 585.825 448.734, 586.077 449.635, 585.514 453.286 C 584.389 460.590, 581.934 468.316, 579.014 473.750 L 576.192 479 583.493 479 C 590.598 479, 590.876 478.906, 593.898 475.463 C 597.777 471.046, 601.339 463.984, 602.898 457.621 C 605.723 446.092, 603.251 426.316, 597.070 411 C 593.812 402.929, 584.955 386.269, 582.962 384.466 C 581.387 383.041, 580.863 383.158, 576.870 385.827 C 569.456 390.784, 565.577 390.815, 562.968 385.939 C 561.225 382.683, 562.667 380.494, 569.446 376.110 C 584.031 366.678, 592.670 352.248, 595.011 333.410 C 596.698 319.839, 594.516 309.120, 586.937 293.740 C 584.787 289.377, 584.700 288.627, 585.883 284.740 C 590.327 270.143, 590.887 267.065, 590.942 256.941 C 591.020 242.755, 590.814 242.501, 579.897 243.285 C 570.167 243.984, 559.723 246.932, 552.265 251.085 C 546.096 254.520, 545.539 254.572, 540.985 252.135 C 535.817 249.368, 523.238 245, 520.440 245 C 518.017 245, 518 245.069, 518 254.943 C 518 264.085, 517.821 265.012, 515.777 266.443 C 512.728 268.579, 511.315 268.406, 508.455 265.545 C 506.159 263.250, 506 262.409, 506 252.545 L 506 242 502.500 242 L 499 242 499 259.427 L 499 276.855 496.409 278.893 C 494.103 280.707, 493.470 280.790, 490.659 279.644 L 487.500 278.357 487 260.428 C 486.525 243.398, 486.400 242.492, 484.500 242.348 C 483.400 242.265, 481.712 242.411, 480.750 242.672 M 671.492 244.373 C 669.268 247.765, 670.938 251, 674.913 251 C 678.794 251, 680.612 248.648, 679.404 245.190 C 678.085 241.417, 673.723 240.966, 671.492 244.373 M 402.354 250.134 C 399.302 251.668, 398.779 256.017, 400.593 264.796 C 402.316 273.138, 404.316 277.800, 406.537 278.653 C 407.437 278.998, 411.376 275.813, 417.115 270.101 C 422.145 265.096, 426.651 261, 427.130 261 C 429.031 261, 427.846 257.024, 425.362 255.070 C 420.438 251.197, 406.281 248.159, 402.354 250.134 M 569.417 250.884 C 562.715 252.803, 557 256.343, 557 258.575 C 557 259.366, 558.237 261.009, 559.750 262.226 C 561.263 263.442, 565.753 267.714, 569.730 271.719 C 573.706 275.724, 577.592 279, 578.366 279 C 580.199 279, 582.580 273.883, 584.463 265.896 C 588.195 250.062, 584.648 246.523, 569.417 250.884 M 671.750 259.392 C 670.240 260.538, 670 262.516, 670 273.789 C 670 284.336, 670.303 287.160, 671.571 288.429 C 673.398 290.255, 675.353 290.417, 678.066 288.965 C 679.830 288.020, 680 286.754, 680 274.536 C 680 263.694, 679.701 260.844, 678.429 259.571 C 676.527 257.670, 674.104 257.605, 671.750 259.392 M 65 262.791 C 65 263.447, 69.237 274.449, 74.416 287.241 C 88.392 321.762, 89.090 323.413, 90.158 324.500 C 91.914 326.286, 89.873 319.948, 85.006 308.500 C 82.434 302.450, 77.265 289.850, 73.521 280.500 C 67.041 264.323, 65 260.080, 65 262.791 M 281.655 287.829 C 280.345 289.277, 280 291.764, 280 299.772 C 280 309.091, 280.175 310.009, 282.223 311.443 C 285.108 313.465, 285.533 313.418, 287.961 310.811 C 289.705 308.940, 290 307.299, 290 299.486 C 290 291.228, 289.777 290.139, 287.686 288.174 C 284.864 285.524, 283.796 285.463, 281.655 287.829 M 111.605 305.273 C 108.437 309.427, 104.210 318.591, 102.349 325.339 C 100.225 333.042, 99.370 352.454, 101.019 355.535 C 102.623 358.532, 103.656 358.660, 104.511 355.966 C 105.356 353.304, 108.947 350, 110.996 350 C 111.914 350, 113.352 348.330, 114.317 346.142 C 115.254 344.019, 117.791 339.632, 119.956 336.392 L 123.892 330.500 122.543 323.500 C 121.182 316.441, 116.483 303.416, 114.955 302.472 C 114.502 302.192, 112.994 303.452, 111.605 305.273 M 432.007 306.593 C 422.890 310.546, 417.638 321.007, 419.845 330.813 C 424.345 350.810, 451.484 352.844, 459.447 333.782 C 466.358 317.237, 448.429 299.471, 432.007 306.593 M 536.252 307.104 C 521.072 314.618, 520.272 336.957, 534.907 344.676 C 545.505 350.265, 558.979 345.569, 564.104 334.500 C 572.035 317.370, 553.113 298.758, 536.252 307.104 M 671.121 308.354 C 670.341 309.294, 670.017 312.580, 670.206 317.620 C 670.482 324.949, 670.668 325.525, 673.229 326.959 C 675.758 328.375, 676.105 328.339, 677.970 326.474 C 680.581 323.863, 681.702 313.641, 679.777 310 C 678.217 307.052, 673.022 306.064, 671.121 308.354 M 436.455 314.455 C 435.105 315.805, 434 317.319, 434 317.820 C 434 319.867, 438.292 324, 440.418 324 C 445.572 324, 447.984 316.503, 443.777 313.557 C 440.728 311.421, 439.315 311.594, 436.455 314.455 M 540.073 314.635 C 537.590 317.791, 537.513 318.860, 539.557 321.777 C 542.526 326.017, 550 323.572, 550 318.360 C 550 315.784, 546.450 312, 544.034 312 C 542.995 312, 541.212 313.186, 540.073 314.635 M 148.619 326.637 C 140.251 331.567, 133.785 337.293, 129.201 343.834 C 123.437 352.058, 122.054 355.826, 123.505 359.346 L 124.678 362.191 125.861 359.336 C 127.717 354.855, 135.213 344.407, 138.331 341.954 C 140.969 339.879, 141.270 339.842, 142.824 341.395 C 144.378 342.949, 144.301 343.377, 141.682 347.780 C 135.190 358.697, 129.807 371.093, 130.448 373.650 C 130.990 375.810, 131.309 375.988, 132.646 374.879 C 136.865 371.377, 145.359 356.599, 149.546 345.473 C 151.688 339.782, 155.423 324.087, 154.786 323.455 C 154.629 323.300, 151.854 324.731, 148.619 326.637 M 483.984 331.030 C 482.588 333.638, 482.818 337.176, 484.532 339.441 C 486.502 342.045, 486.381 344.345, 484.171 346.345 C 481.075 349.147, 478.271 348.389, 475.500 344 C 472.632 339.457, 470.098 338.902, 466.887 342.113 C 462.882 346.118, 466.152 353.929, 473.414 357.705 C 477.344 359.750, 485.845 359.008, 489.568 356.296 L 492.398 354.235 495.135 356.258 C 498.539 358.774, 506.907 359.695, 510.993 358.003 C 515.651 356.074, 520 350.537, 520 346.537 C 520 339.392, 513.836 337.680, 509.917 343.736 C 506.970 348.290, 504.588 348.901, 501.411 345.916 C 498.628 343.302, 498.389 341.752, 500.500 340 C 502.323 338.487, 502.498 331.645, 500.750 330.243 C 500.063 329.691, 496.230 329.229, 492.234 329.216 C 486.188 329.195, 484.803 329.500, 483.984 331.030 M 672.169 334.512 C 669.698 337.653, 670.408 340.813, 673.774 341.658 C 679.135 343.004, 682.299 336.723, 677.835 333.597 C 674.841 331.500, 674.495 331.556, 672.169 334.512 M 671.750 349.392 C 670.324 350.474, 670 352.299, 670 359.238 C 670 364.869, 670.424 368.083, 671.250 368.722 C 676.191 372.545, 679.843 369.812, 680.630 361.701 C 681.271 355.087, 680.678 351.821, 678.427 349.570 C 676.527 347.670, 674.104 347.605, 671.750 349.392 M 67 349.318 C 67 349.494, 67.703 352.005, 68.563 354.900 C 71.113 363.487, 75.672 370.788, 83.948 379.538 C 87.923 383.741, 89.491 384.833, 90.123 383.836 C 90.588 383.101, 90.976 382.138, 90.985 381.695 C 90.993 381.252, 91.927 378.856, 93.059 376.370 L 95.118 371.850 91.569 367.519 C 85.834 360.520, 67 346.568, 67 349.318 M 417.245 354.250 C 416.695 354.938, 415.942 356.489, 415.571 357.699 C 414.073 362.591, 423.552 366.574, 425.965 362.066 C 427.450 359.291, 427.242 356.385, 425.429 354.571 C 423.549 352.691, 418.646 352.499, 417.245 354.250 M 433.219 354.559 C 428.966 357.538, 431.435 365, 436.674 365 C 439.371 365, 442 361.937, 442 358.794 C 442 354.447, 436.895 351.985, 433.219 354.559 M 545.223 354.557 C 540.976 357.531, 543.430 365, 548.654 365 C 550.957 365, 555 361.088, 555 358.860 C 555 356.972, 550.871 353, 548.908 353 C 548.103 353, 546.445 353.701, 545.223 354.557 M 559.575 354.918 C 557.240 357.497, 557.909 360.859, 561.250 363.345 L 564 365.391 566.750 363.345 C 568.263 362.220, 569.649 360.295, 569.830 359.067 C 570.273 356.076, 567.317 353, 564 353 C 562.520 353, 560.529 353.863, 559.575 354.918 M 820 361.345 C 815.875 362.576, 811.263 364.403, 809.750 365.406 C 807.143 367.135, 807 367.633, 807 374.992 L 807 382.754 811.934 384.876 C 819.337 388.061, 831.872 390.788, 847.500 392.613 C 877.078 396.068, 922.144 391.572, 936.365 383.748 C 940.244 381.614, 940.519 381.168, 940.812 376.553 C 940.984 373.847, 940.885 370.680, 940.593 369.515 C 939.979 367.067, 931.480 362.697, 923 360.469 C 914.793 358.313, 913.742 358.772, 920.500 361.560 C 927.220 364.333, 929 366.125, 929 370.119 C 929 375.206, 920.912 379.080, 904 382.093 C 893.753 383.918, 852.094 383.963, 842 382.160 C 826.708 379.428, 817.955 375.718, 817.168 371.636 C 816.158 366.391, 819.169 363.407, 828.416 360.487 C 831.530 359.504, 831.906 359.187, 830 359.152 C 828.625 359.128, 824.125 360.114, 820 361.345 M 849.500 365.045 C 841.755 366.298, 833.955 368.263, 833.445 369.090 C 832.542 370.551, 847.258 372.731, 863.500 373.542 C 877.276 374.230, 899.722 372.819, 909 370.680 L 914.500 369.413 911 368.171 C 900.561 364.466, 864.423 362.629, 849.500 365.045 M 168.844 367.392 C 150.214 373.968, 132.908 388.732, 133.059 397.921 C 133.112 401.139, 133.238 401.301, 134.309 399.523 C 136.485 395.911, 148.456 383.827, 151.341 382.329 C 153.902 381, 154.370 381.025, 156.091 382.582 C 157.141 383.533, 158 384.743, 158 385.271 C 158 385.800, 155.454 388.983, 152.342 392.344 C 142.574 402.895, 135.621 415.363, 131.658 429.432 L 129.206 438.142 136.353 430.701 C 143.283 423.486, 154.164 415.499, 158.570 414.393 C 160.130 414.001, 161.712 411.583, 164.270 405.676 C 169.199 394.292, 176.826 370.325, 176.976 365.750 C 177.012 364.639, 176.146 364.814, 168.844 367.392 M 109.010 371.250 C 97.506 391.178, 98.813 416.025, 112.613 439.744 C 113.651 441.528, 114.755 442.990, 115.066 442.994 C 116.094 443.005, 120.050 414.445, 120.626 402.862 C 121.096 393.420, 120.837 390.015, 119.095 382.709 C 117.221 374.848, 113.728 366, 112.500 366 C 112.247 366, 110.677 368.363, 109.010 371.250 M 36.388 376.253 C 37.722 383.365, 45.299 399.235, 49.755 404.250 C 50.814 405.441, 52.790 406, 55.945 406 C 58.494 406, 63.222 406.688, 66.452 407.529 C 69.681 408.371, 72.746 408.918, 73.263 408.746 C 74.892 408.203, 65.515 397.641, 58.047 391.607 C 51.247 386.114, 50.952 385.705, 52.304 383.658 C 53.088 382.471, 54.578 381.372, 55.615 381.216 C 58.459 380.789, 67.275 386.805, 75.058 394.486 C 82.458 401.789, 84.445 401.393, 79.107 393.680 C 70.812 381.696, 60.426 376.231, 40.614 373.424 L 35.727 372.732 36.388 376.253 M 697.655 375.829 C 694.238 379.604, 696.420 385, 701.363 385 C 705.546 385, 707.460 378.632, 704.171 375.655 C 701.794 373.504, 699.709 373.560, 697.655 375.829 M 193.984 379.704 C 190.418 381.118, 186.979 382.683, 186.342 383.183 C 185.705 383.684, 183.964 387.784, 182.474 392.296 C 180.984 396.808, 179.143 401.715, 178.383 403.200 C 176.354 407.161, 176.613 407.594, 180.750 407.159 C 184.043 406.813, 185.021 406.018, 188.775 400.632 C 193.179 394.316, 201.591 378.257, 200.872 377.539 C 200.650 377.317, 197.550 378.291, 193.984 379.704 M 951.935 388.578 C 947.064 394.448, 922.696 401.428, 898.894 403.772 C 885.369 405.104, 849.355 404.442, 837.378 402.641 C 818.682 399.830, 801.237 394.239, 795.796 389.315 C 794.082 387.764, 794 388.062, 794 395.825 L 794 403.959 797.928 405.963 C 804.297 409.213, 818.142 412.820, 833.318 415.184 C 845.168 417.029, 851.775 417.400, 873.500 417.435 C 896.021 417.472, 901.507 417.163, 914.500 415.124 C 930.061 412.684, 945.131 408.487, 950.750 405.029 C 953.980 403.042, 954 402.980, 954 395.015 C 954 390.607, 953.830 387, 953.622 387 C 953.415 387, 952.656 387.710, 951.935 388.578 M 697.750 392.080 C 694.200 394.148, 696.632 401, 700.916 401 C 703.022 401, 706 397.969, 706 395.826 C 706 393.961, 702.852 390.989, 700.921 391.030 C 700.140 391.047, 698.712 391.519, 697.750 392.080 M 93.675 409.753 C 92.571 411.490, 93.905 419.526, 95.659 421.705 C 96.995 423.365, 97.052 423.314, 96.416 421.036 C 96.039 419.681, 95.446 416.306, 95.100 413.536 C 94.716 410.466, 94.160 408.989, 93.675 409.753 M 57.513 420.104 C 58.543 423.437, 60.431 427.069, 66.657 437.687 C 73.143 448.751, 78.358 455.533, 86.438 463.410 C 92.057 468.889, 105.671 478.662, 106.512 477.822 C 106.714 477.619, 103.042 472.964, 98.352 467.477 C 81.455 447.710, 78.834 444.199, 79.174 441.796 C 79.424 440.033, 80.142 439.500, 82.268 439.500 C 84.459 439.500, 87.455 441.897, 96.639 451 C 106.553 460.826, 108.143 462.063, 107.566 459.500 C 106.313 453.930, 101.305 444.529, 97.031 439.723 C 88.892 430.571, 71.032 419.988, 61.026 418.388 C 56.885 417.726, 56.792 417.772, 57.513 420.104 M 194.431 419.780 L 190.362 420.097 188.056 427.299 C 186.788 431.259, 184.674 436.637, 183.358 439.250 C 182.043 441.863, 181.231 444, 181.555 444 C 185.181 444, 215.513 422.076, 213.911 420.613 C 213.277 420.035, 198.999 419.425, 194.431 419.780 M 168.441 422.855 C 156.985 427.377, 144.407 437.213, 137.772 446.839 C 134.936 450.953, 129.636 462.969, 130.344 463.678 C 130.527 463.860, 135.567 458.798, 141.545 452.429 C 147.523 446.060, 153.221 440.417, 154.207 439.889 C 156.495 438.665, 160.006 440.424, 159.985 442.785 C 159.970 444.561, 145.600 462.540, 136.836 471.750 C 131.118 477.758, 132.245 478.546, 139.513 473.622 C 147.926 467.923, 157.900 458.057, 163.220 450.174 C 170.940 438.733, 179.124 419.918, 176.329 420.034 C 175.873 420.053, 172.324 421.323, 168.441 422.855 M 805 427.977 C 805 431.576, 825.903 437.957, 844.211 439.945 C 858.667 441.515, 896.640 441.272, 908 439.537 C 926.786 436.667, 943 431.330, 943 428.016 C 943 426.428, 941.989 426.524, 931.332 429.124 C 912.283 433.771, 904.835 434.449, 873 434.439 C 841.895 434.428, 832.834 433.482, 812.250 428.096 C 805.348 426.290, 805 426.285, 805 427.977 M 31.450 435.461 C 23.847 436.842, 17.237 439.681, 18.635 440.964 C 21.008 443.140, 40.993 447.902, 54.406 449.485 L 60.312 450.183 58.117 446.841 C 56.910 445.004, 54.807 441.363, 53.444 438.750 L 50.966 434 44.733 434.090 C 41.305 434.140, 35.327 434.757, 31.450 435.461 M 940.571 435.886 C 940.269 436.373, 937.093 437.565, 933.512 438.534 L 927 440.297 926.985 449.898 C 926.970 460.032, 925.750 464.232, 922.650 464.829 C 921.661 465.019, 919.979 464.386, 918.912 463.420 C 917.250 461.916, 916.990 460.395, 917.093 452.772 C 917.158 447.881, 917.009 443.676, 916.761 443.428 C 916.513 443.180, 912.753 443.539, 908.405 444.227 C 903.395 445.019, 890.613 445.447, 873.500 445.396 C 844.342 445.309, 833.767 444.086, 815.004 438.629 C 810.332 437.270, 806.314 436.353, 806.076 436.591 C 805.838 436.829, 806.199 442.531, 806.878 449.262 C 807.745 457.850, 808.563 461.845, 809.622 462.658 C 812.947 465.210, 835.308 469.999, 850.740 471.463 C 873.835 473.655, 912.113 471.046, 929 466.130 C 941.091 462.609, 940.754 462.961, 941.461 453.126 C 941.802 448.382, 942.330 442.363, 942.634 439.750 C 943.144 435.376, 942.097 433.416, 940.571 435.886 M 173.411 464.077 C 181.270 473.416, 170.427 481.253, 141.674 487.017 C 117.332 491.897, 77.464 487.388, 62.814 478.097 C 56.087 473.831, 54.911 470.868, 57.498 464.699 C 58.153 463.136, 57.874 462.984, 55.376 463.548 C 51.767 464.364, 48 468.384, 48 471.421 C 48 479.289, 65.463 487.578, 88.484 490.637 C 104.362 492.746, 130.316 492.722, 144.177 490.586 C 160.969 487.997, 177.698 481.741, 181.811 476.514 C 184.247 473.416, 184.652 469.219, 182.750 466.778 C 180.991 464.520, 174.854 461.008, 172.661 461.004 C 171.039 461, 171.127 461.363, 173.411 464.077 M 70.750 469.080 C 69.787 469.641, 69 470.478, 69 470.941 C 69 471.929, 75.022 474.437, 79.955 475.502 L 83.409 476.249 78.644 472.124 C 73.457 467.636, 73.321 467.583, 70.750 469.080 M 158.913 473.050 L 155.500 476.017 158.500 474.824 C 162.301 473.312, 164.474 471.411, 163.259 470.660 C 162.745 470.343, 160.789 471.418, 158.913 473.050 M 933.500 476.082 C 903.945 485.438, 854.064 486.039, 820.192 477.447 C 814.887 476.101, 810.178 475, 809.728 475 C 809.278 475, 809.139 476.462, 809.419 478.250 C 809.965 481.729, 810.546 487.307, 811.530 498.500 C 813.778 524.076, 816.031 541.402, 817.205 542.133 C 818.767 543.106, 833.642 546.495, 844 548.238 C 848.697 549.028, 860.469 549.473, 875.500 549.428 C 900.652 549.353, 909.490 548.394, 925.932 543.958 C 933.794 541.837, 933.859 541.792, 934.386 538.160 C 935.198 532.566, 936.169 521.955, 937.558 503.500 C 937.931 498.550, 938.382 493.375, 938.562 492 C 939.375 485.764, 940.249 474.009, 939.894 474.091 C 939.677 474.141, 936.800 475.037, 933.500 476.082 M 182 489.960 C 178.112 492.794, 163.200 497.691, 151.300 500.043 C 137.692 502.733, 109.881 503.751, 94.373 502.127 C 80.056 500.628, 64.696 496.844, 55.292 492.499 C 51.126 490.575, 47.557 489, 47.359 489 C 47.162 489, 47 490.771, 47 492.935 C 47 500.299, 48.205 501.750, 58.291 506.528 C 88.529 520.852, 137.743 521.631, 168.991 508.280 C 183.836 501.937, 185.735 499.895, 184.827 491.252 L 184.500 488.139 182 489.960 M 854.334 494.029 C 846.522 497.961, 844.511 507.392, 849.367 517.317 C 852.388 523.492, 865.646 537.804, 870.750 540.399 C 873.775 541.937, 874.225 541.936, 877.250 540.384 C 879.038 539.467, 884.201 535.024, 888.725 530.512 C 897.906 521.353, 901.974 514.205, 901.990 507.200 C 902.020 494.305, 889.192 488.391, 878.648 496.439 C 874.845 499.342, 873.959 499.655, 872.959 498.451 C 870.960 496.042, 865.682 493.200, 862 492.550 C 859.485 492.105, 857.327 492.522, 854.334 494.029 M 49.192 516.786 L 49.500 520.500 60 524.692 C 78.164 531.942, 87.610 533.437, 115.500 533.471 C 134.963 533.494, 141.083 533.159, 147.875 531.694 C 158.756 529.348, 170.112 525.660, 177 522.235 C 181.791 519.852, 182.540 519.081, 182.813 516.250 C 182.986 514.462, 182.957 513, 182.751 513 C 182.544 513, 180.111 514.092, 177.345 515.426 C 145.102 530.981, 88.993 531.259, 55.408 516.031 L 48.884 513.073 49.192 516.786 M 280.500 517 C 280.089 517.665, 351.156 518, 492.941 518 C 634.314 518, 706 517.664, 706 517 C 706 515.614, 281.357 515.614, 280.500 517 M 176.500 528.070 C 160.642 535.636, 125.297 540.232, 100 538.017 C 83.373 536.561, 73.893 534.713, 61.434 530.501 C 55.740 528.575, 50.822 527, 50.506 527 C 49.677 527, 51.090 537.156, 52.225 539.354 C 53.414 541.658, 62.752 545.925, 74.200 549.396 C 105.007 558.736, 147.828 556.177, 173.023 543.489 L 179.702 540.125 180.658 533.063 C 181.183 529.178, 181.363 526.036, 181.057 526.081 C 180.751 526.125, 178.700 527.021, 176.500 528.070 M 245.371 529.945 C 240.684 532.044, 241.112 531.413, 217.178 571.500 C 206.669 589.100, 194.006 610.227, 189.036 618.449 C 184.066 626.672, 180 634.387, 180 635.596 C 180 638.571, 186.055 643.710, 190.729 644.701 C 192.803 645.140, 329.950 645.500, 495.500 645.500 C 773.708 645.500, 796.727 645.375, 799.500 643.845 C 801.150 642.935, 803.560 641.055, 804.856 639.667 L 807.213 637.145 804.742 631.822 C 803.383 628.895, 799.227 621.550, 795.507 615.500 C 791.788 609.450, 779.550 589.200, 768.313 570.500 C 757.076 551.800, 746.102 534.700, 743.926 532.500 L 739.971 528.500 494.610 528.354 C 263.632 528.217, 249.023 528.310, 245.371 529.945 M 288.660 536.250 C 287.317 538.038, 284.539 542.860, 282.487 546.968 C 280.435 551.075, 276.601 558.315, 273.968 563.058 C 267.213 575.223, 257 595.593, 257 596.901 C 257 597.505, 257.900 598.900, 259 600 C 260.988 601.988, 262.333 602, 492.443 602 L 723.887 602 725.443 599.777 C 727.796 596.418, 727.420 594.711, 722.130 584.708 C 719.451 579.643, 713.072 567.175, 707.953 557 C 702.834 546.825, 697.517 537.263, 696.136 535.750 L 693.626 533 492.364 533 L 291.102 533 288.660 536.250 M 251.963 536.250 C 248.452 539.985, 229.914 573.358, 230.218 575.398 C 230.602 577.980, 233.185 579.421, 236.112 578.687 C 238.594 578.064, 239.126 577.269, 251.274 556 C 254.573 550.225, 258.111 544.427, 259.136 543.115 C 261.608 539.953, 261.490 537.456, 258.777 535.557 C 255.782 533.458, 254.461 533.593, 251.963 536.250 M 296.651 545.468 C 296.341 546.275, 296.495 547.188, 296.993 547.496 C 298.161 548.217, 678.978 548.035, 685.173 547.310 C 688.600 546.909, 689.705 546.394, 689.316 545.381 C 688.491 543.232, 297.475 543.319, 296.651 545.468 M 169.500 554.071 C 153.102 559.773, 147.128 560.484, 116 560.446 C 85.701 560.409, 78.383 559.553, 61.066 554.021 C 57.586 552.909, 54.410 552, 54.006 552 C 53.603 552, 53.684 554.362, 54.185 557.250 C 55.301 563.670, 57.300 565.515, 67.205 569.267 C 82.214 574.951, 93.309 577.105, 110.500 577.672 C 127.970 578.248, 141.158 576.815, 154.358 572.905 C 163.664 570.149, 175.807 564.220, 176.411 562.139 C 177.132 559.653, 178.278 550.980, 177.864 551.145 C 177.664 551.225, 173.900 552.542, 169.500 554.071 M 924.500 555.908 L 918.500 557.653 918 564.677 C 917.454 572.343, 916.016 575, 912.413 575 C 909.207 575, 908 572.251, 908 564.952 L 908 558.773 904.750 559.407 C 902.962 559.755, 892.078 560.318, 880.563 560.658 C 858.578 561.307, 848.150 560.527, 830.140 556.890 C 824.992 555.851, 820.334 555, 819.788 555 C 818.849 555, 819.473 567.125, 820.622 571.197 C 821.224 573.330, 828.860 576.180, 840.500 578.616 C 848.033 580.193, 853.902 580.500, 876.500 580.498 C 905.702 580.495, 913.792 579.499, 924.594 574.575 L 929.689 572.253 930.620 563.127 C 931.132 558.107, 931.314 554.037, 931.025 554.081 C 930.736 554.126, 927.800 554.948, 924.500 555.908 M 491.083 557 C 338.435 557.379, 289.572 557.784, 289.276 558.671 C 288.736 560.292, 342.997 560.768, 489 560.421 C 553.625 560.268, 626.638 560.110, 651.250 560.071 C 693.691 560.004, 699.474 559.629, 694.250 557.285 C 693.288 556.853, 601.862 556.725, 491.083 557 M 281.667 571.667 C 278.298 575.035, 276.079 575, 491.833 575 C 607.792 575, 702.936 574.731, 703.264 574.402 C 703.593 574.073, 703.620 573.173, 703.324 572.402 C 702.865 571.205, 671.991 571, 492.560 571 C 376.935 571, 282.033 571.300, 281.667 571.667 M 165.500 578.625 C 150.980 584.550, 136.644 586.952, 115.628 586.980 C 97.201 587.005, 82.982 584.971, 70.005 580.453 C 64.548 578.554, 59.791 577, 59.433 577 C 57.888 577, 60.399 582.771, 63.221 585.705 C 68.970 591.680, 87.005 596.968, 107 598.540 C 117.853 599.394, 139.584 597.542, 148.852 594.974 C 158.292 592.358, 168.165 587.618, 169.849 584.893 C 171.075 582.909, 171.029 582.783, 169.349 583.511 C 161.484 586.916, 147.132 591.322, 139.767 592.594 C 129.702 594.330, 94.848 594.254, 93.089 592.492 C 90.444 589.840, 93.652 589.360, 107.344 590.360 C 122.679 591.480, 135.888 590.387, 146.519 587.117 C 156.063 584.182, 169.371 578.881, 170.964 577.380 C 172.796 575.654, 172.762 575.662, 165.500 578.625 M 303.404 584.765 L 275.307 585.030 274.175 587.515 L 273.043 590 305.161 590 C 334.577 590, 337.391 589.853, 338.608 588.250 C 340.985 585.118, 340.256 584.114, 335.750 584.313 C 333.413 584.416, 318.857 584.619, 303.404 584.765 M 490 584.744 C 363.077 584.978, 353.412 585.115, 352.250 586.689 C 351.563 587.620, 351 588.746, 351 589.191 C 351 589.636, 415.125 590, 493.500 590 C 571.875 590, 636 589.650, 636 589.223 C 636 588.795, 635.299 587.445, 634.443 586.223 C 633.301 584.591, 632.037 584.066, 629.693 584.246 C 627.937 584.382, 565.075 584.606, 490 584.744 M 647 585.316 C 647 585.764, 647.466 587.002, 648.035 588.066 C 649.024 589.914, 650.445 590, 680.035 590 C 705.670 590, 711 589.763, 711 588.622 C 711 585.100, 708.579 584.813, 677.533 584.655 C 660.740 584.570, 647 584.867, 647 585.316 M 822.505 587.151 C 824.434 593.597, 829.835 596.612, 845 599.707 C 853.999 601.544, 885.616 602.176, 897.750 600.761 L 906 599.800 906 594.793 C 906 590.404, 905.784 589.879, 904.250 590.538 C 901.060 591.910, 859.607 592.317, 850.786 591.063 C 843.403 590.014, 828.645 586.920, 823.651 585.375 C 822.100 584.895, 821.916 585.181, 822.505 587.151 M 921.500 586.908 C 916.653 588.608, 916.490 588.792, 916.188 592.918 C 915.892 596.957, 915.994 597.138, 918.188 596.460 C 923.282 594.888, 925.990 592.875, 926.569 590.232 C 926.898 588.729, 927.340 586.938, 927.552 586.250 C 928.029 584.701, 927.689 584.738, 921.500 586.908 M 219.200 592.200 C 215.705 595.695, 220.574 602.369, 224.921 600.042 C 227.492 598.666, 228.639 594.475, 226.989 592.487 C 225.506 590.700, 220.871 590.529, 219.200 592.200 M 423.003 609.843 C 421.109 611.737, 419.299 615.510, 417.580 621.145 C 416.161 625.797, 415 630.121, 415 630.755 C 415 633.245, 417.307 636.750, 419.990 638.335 C 422.548 639.846, 429.341 640, 493.504 640 L 564.200 640 567.600 636.600 C 569.976 634.224, 571 632.284, 571 630.160 C 571 625.042, 566.132 612.754, 562.914 609.750 L 559.968 607 492.907 607 L 425.846 607 423.003 609.843 M 16.984 617.863 C 9.683 621.767, 8.359 627.353, 7.592 657.500 C 7.299 669.050, 6.762 687.725, 6.400 699 C 5.678 721.484, 6.246 725.762, 10.645 730.990 C 15.840 737.164, 14.291 737, 67.450 737 L 116 737 116.014 740.250 C 116.036 745.559, 117.092 747.996, 120.026 749.513 C 122.540 750.813, 123.035 750.760, 125.345 748.943 C 127.318 747.392, 127.961 745.873, 128.196 742.220 L 128.500 737.500 138.205 737.214 C 147.374 736.944, 148.027 736.781, 150.012 734.258 C 152.380 731.247, 152.225 729.891, 148.434 720.500 L 146.012 714.500 148.629 712.577 C 150.069 711.519, 151.856 709.195, 152.601 707.412 C 154.258 703.446, 154.269 703.483, 143.060 673.500 C 128.681 635.033, 123.159 622.347, 119.338 618.992 L 115.930 616 68.200 616 C 23.551 616, 20.244 616.120, 16.984 617.863 M 200.035 618.934 C 197.881 622.959, 199.920 626, 204.774 626 C 207.344 626, 209.362 621.545, 207.969 618.943 C 206.569 616.325, 201.434 616.320, 200.035 618.934 M 217.067 619.375 C 216.099 621.183, 216.067 622.257, 216.933 623.875 C 218.057 625.976, 218.449 626, 250.964 626 C 279.534 626, 284.064 625.793, 285.429 624.429 C 287.271 622.586, 287.371 621.562, 285.965 618.934 C 284.973 617.081, 283.529 617, 251.634 617 L 218.338 617 217.067 619.375 M 293.387 619.594 C 292.577 622.822, 293.942 625.385, 296.690 625.798 C 299.363 626.200, 301.216 623.740, 300.822 620.310 C 300.553 617.959, 299.975 617.449, 297.284 617.189 C 294.507 616.921, 293.976 617.249, 293.387 619.594 M 311.211 618.189 C 309.539 619.861, 309.693 623.501, 311.499 624.999 C 312.646 625.951, 322.471 626.216, 353.249 626.124 C 393.123 626.006, 393.517 625.985, 395.277 623.859 C 396.832 621.980, 396.879 621.450, 395.655 619.606 C 394.276 617.529, 393.693 617.496, 353.339 617.239 C 322.349 617.041, 312.128 617.272, 311.211 618.189 M 431.160 618.395 C 430.329 619.484, 427 627.586, 427 628.520 C 427 628.784, 456.700 629, 493 629 C 529.300 629, 559 628.815, 559 628.589 C 559 628.363, 558.052 625.701, 556.894 622.674 L 554.787 617.170 493.396 617.230 C 449.831 617.273, 431.759 617.611, 431.160 618.395 M 588.933 619.125 C 587.359 622.066, 589.447 625.797, 592.891 626.197 C 594.326 626.364, 614.502 626.378, 637.726 626.229 C 679.498 625.961, 679.964 625.935, 681.079 623.852 C 681.895 622.328, 681.907 621.092, 681.124 619.374 L 680.043 617 635.057 617 C 590.212 617, 590.067 617.007, 588.933 619.125 M 697.571 618.571 C 695.402 620.741, 695.605 623.610, 698.050 625.322 C 699.714 626.488, 703.425 626.663, 717.800 626.252 C 727.535 625.973, 736.063 625.297, 736.750 624.750 C 738.338 623.486, 738.366 619.766, 736.800 618.200 C 735.954 617.354, 730.216 617, 717.371 617 C 702.133 617, 698.885 617.258, 697.571 618.571 M 746.035 618.934 C 744.377 622.032, 744.822 623.962, 747.470 625.168 C 750.268 626.443, 752.470 625.244, 753.544 621.862 C 754.896 617.601, 748.155 614.973, 746.035 618.934 M 759.847 619.436 C 757.226 625.188, 761.623 627.367, 773.917 626.408 C 783.228 625.682, 785 624.910, 785 621.578 C 785 617.624, 783.197 617, 771.779 617 C 761.282 617, 760.924 617.073, 759.847 619.436 M 24.315 627.001 C 23.114 627.489, 21.704 628.700, 21.183 629.694 C 19.729 632.465, 16.729 695.003, 18.050 695.001 C 18.352 695, 19.163 694.438, 19.850 693.750 C 20.821 692.779, 31.926 692.544, 69.645 692.698 L 118.191 692.897 117.683 690.698 C 117.404 689.489, 116.413 680.400, 115.480 670.500 C 114.547 660.600, 113.041 646.650, 112.132 639.500 L 110.481 626.500 68.491 626.308 C 45.396 626.202, 25.517 626.514, 24.315 627.001 M 802 653.832 C 798.759 655.376, 776.072 655.519, 495.999 655.758 C 236.723 655.979, 192.712 655.812, 188 654.590 C 184.977 653.806, 182.354 653.312, 182.173 653.494 C 181.527 654.140, 190.568 658.844, 194.500 659.907 C 197.326 660.671, 285.280 660.990, 494.068 660.994 C 818.340 661.001, 795.561 661.437, 803 655.075 C 806.993 651.659, 806.872 651.509, 802 653.832 M 126.040 663 C 126.029 663.825, 126.682 670.350, 127.490 677.500 C 129.288 693.389, 129.384 701.216, 127.800 702.800 C 126.867 703.733, 127.922 703.997, 132.550 703.985 C 142.328 703.960, 142.261 704.653, 134.559 683.330 C 127.408 663.535, 126.076 660.356, 126.040 663 M 507.500 694.722 C 502.594 695.950, 470.730 706.091, 463.500 708.725 C 455.736 711.554, 455.491 711.743, 455.201 715.125 C 454.962 717.921, 455.357 718.843, 457.201 719.787 C 460.471 721.462, 473.307 725.361, 491.666 730.255 L 507.500 734.477 588.748 734.782 L 669.997 735.088 672.453 737.544 L 674.909 740 699.705 740.250 C 713.342 740.388, 734.175 740.360, 746 740.189 C 767.227 739.882, 767.532 739.847, 770.055 737.439 C 771.570 735.992, 773.808 734.996, 775.555 734.991 C 777.175 734.985, 780.823 733.649, 783.662 732.021 C 787.812 729.641, 789.357 727.969, 791.547 723.494 C 793.815 718.858, 794.171 717.092, 793.678 712.926 C 792.899 706.348, 789.606 700.683, 784.576 697.268 L 780.500 694.500 645 694.361 C 570.475 694.284, 508.600 694.447, 507.500 694.722 M 24.250 703.740 C 22.462 704.632, 21 705.747, 21 706.217 C 21 706.686, 21.870 706.605, 22.934 706.035 C 24.187 705.365, 40.963 705, 70.518 705 C 106.592 705, 116.079 704.738, 115.750 703.750 C 115.427 702.779, 105.524 702.457, 71.417 702.308 C 32.649 702.139, 27.119 702.307, 24.250 703.740 M 521 714 L 521 724 620.500 724 L 720 724 720 721.500 L 720 719 624.082 719 C 571.327 719, 527.452 718.727, 526.582 718.393 C 525.663 718.040, 525 716.618, 525 715 C 525 713.382, 525.663 711.960, 526.582 711.607 C 527.452 711.273, 571.327 711, 624.082 711 L 720 711 720 707.500 L 720 704 620.500 704 L 521 704 521 714 M 731.714 704.620 C 731.321 705.012, 731 706.608, 731 708.167 C 731 710.905, 731.170 711, 736.063 711 L 741.127 711 740.813 707.750 C 740.522 704.730, 740.214 704.479, 736.464 704.203 C 734.244 704.040, 732.106 704.227, 731.714 704.620 M 752.713 704.621 C 752.321 705.013, 752 706.608, 752 708.167 C 752 710.748, 752.317 711, 755.563 711 C 758.981 711, 759.114 710.867, 758.813 707.750 C 758.559 705.116, 758.019 704.444, 755.963 704.204 C 754.567 704.041, 753.104 704.229, 752.713 704.621 M 770 715 C 770 720.500, 770.239 725, 770.532 725 C 770.825 725, 772.561 724.375, 774.390 723.610 C 781.419 720.673, 783.831 715.102, 780.296 709.973 C 777.800 706.351, 775.840 705.068, 772.750 705.032 L 770 705 770 715 M 507.667 706.667 C 506.449 707.885, 506.978 710, 508.500 710 C 509.333 710, 510 709.111, 510 708 C 510 706.008, 508.934 705.399, 507.667 706.667 M 488.594 711.739 C 481.341 714.091, 480.301 714.634, 481.243 715.577 C 482.089 716.423, 496.348 719.985, 496.856 719.477 C 497.094 719.239, 496.886 716.897, 496.394 714.272 L 495.500 709.500 488.594 711.739 M 125.528 716.750 C 125.936 717.712, 126.775 719.850, 127.393 721.500 C 129.230 726.408, 129.691 726.731, 134.209 726.279 C 136.559 726.044, 138.532 725.773, 138.595 725.676 C 138.657 725.579, 137.619 723.138, 136.288 720.250 C 133.887 715.043, 133.831 715, 129.327 715 C 125.386 715, 124.884 715.231, 125.528 716.750 M 21.797 716.680 C 18.169 717.635, 18.531 723.078, 22.368 725.278 C 24.798 726.671, 94.446 727.643, 108.788 726.484 C 116.689 725.845, 117.045 725.713, 116.407 723.657 C 116.039 722.471, 114.866 720.263, 113.801 718.750 L 111.864 716 67.682 716.116 C 43.382 716.180, 22.734 716.434, 21.797 716.680 M 731.173 721.192 C 731.459 723.212, 732.061 723.500, 736 723.500 C 739.833 723.500, 740.500 723.204, 740.500 721.500 C 740.500 719.819, 739.731 719.451, 735.673 719.192 C 731.131 718.902, 730.865 719.021, 731.173 721.192 M 752 721.563 C 752 723.853, 752.347 724.093, 755.250 723.813 C 757.741 723.573, 758.575 722.975, 758.820 721.250 C 759.100 719.277, 758.699 719, 755.570 719 C 752.405 719, 752 719.291, 752 721.563" stroke="none"  fill-rule="evenodd"/></svg>