<svg xmlns="http://www.w3.org/2000/svg" viewBox="120 -820 718.46 687"><path d="M481-133Q373.154-241.077 303.269-314.846q-69.885-73.769-110.615-127.616-40.731-53.846-56.693-94.769Q120-578.154 120-620q0-83.539 58.231-141.769Q236.461-820 320-820q38.077 0 73.923 13.038 35.846 13.039 65 37.885L393.077-540h122.308l-30.154 322.692L607.692-620H486.154l59.461-178.154q21.154-10.923 44.808-16.385Q614.077-820 638.462-820q83.538 0 141.769 58.231 58.231 58.23 58.231 141.769 0 42.615-17.231 84.923t-58.846 97.423q-41.615 55.116-110.231 128Q583.539-236.769 481-133Z"/></svg>