<svg xmlns="http://www.w3.org/2000/svg" viewBox="120 -820 718.46 687"><path d="M481-133Q373.154-241.077 303.269-314.846q-69.885-73.769-110.615-127.616-40.731-53.846-56.693-94.769Q120-578.154 120-620q0-83.636 58.182-141.818Q236.363-820 320-820q38.292 0 74.03 13.038 35.739 13.039 64.893 37.885L393.077-540h122.308l-30.154 322.692L607.692-620H486.154l59.461-178.154q21.295-10.923 44.72-16.385Q613.759-820 638.462-820q83.636 0 141.818 58.182Q838.462-703.636 838.462-620q0 42.615-17.231 84.923t-58.846 97.423q-41.615 55.116-110.231 128Q583.539-236.769 481-133Zm-33.308-90.616L473.307-500H340.154l72.692-253.769q-21.385-11.077-44.98-18.654Q344.27-780 320-780q-66.286 0-113.143 46.857T160-620q0 32.538 13.808 67.385 13.807 34.846 47.307 80.5 33.5 45.653 88.923 105.461t137.654 143.038Zm84.155-18q147.922-152.23 207.268-234.23 59.347-82 59.347-144.154 0-66.286-46.858-113.143Q704.747-780 638.462-780q-15.616 0-30.462 3.423t-29.692 8.192L542.77-660h116.769L531.847-241.616ZM659.539-660ZM340.154-500Z"/></svg>