
<svg xmlns="http://www.w3.org/2000/svg" xml:space="preserve"  version="1.1" style="shape-rendering:geometricPrecision; text-rendering:geometricPrecision; image-rendering:optimizeQuality; fill-rule:evenodd; clip-rule:evenodd"
viewBox="0 0 29700 29700"
 xmlns:xlink="http://www.w3.org/1999/xlink"
 xmlns:xodm="http://www.corel.com/coreldraw/odm/2003">
 <g id="Слой_x0020_1">
  <metadata id="CorelCorpID_0Corel-Layer"/>
  <path class="fil0" d="M16182.65 26367.69c-453.33,0 -838.5,-158.59 -1155.54,-475.62 -317.16,-317.16 -475.75,-702.34 -475.75,-1155.53 0,-453.2 158.59,-838.38 475.75,-1155.54 317.04,-317.16 702.21,-475.74 1155.54,-475.74l6916.81 0 0 -16817.91 -6916.81 0c-453.33,0 -838.5,-158.57 -1155.54,-475.72 -317.16,-317.14 -475.75,-702.32 -475.75,-1155.53 0,-453.18 158.59,-838.36 475.75,-1155.51 317.04,-317.12 702.21,-475.69 1155.54,-475.69l6916.81 0c909.1,0 1680.08,316.47 2313.04,949.42 632.98,632.95 949.4,1403.97 949.4,2313.03l0 16817.91c0,909.1 -316.42,1680.07 -949.4,2313.03 -632.96,632.98 -1403.94,949.4 -2313.04,949.4l-6916.81 0zm-3864.74 -10040.13l-7667.6 0c-453.18,0 -838.36,-158.59 -1155.51,-475.75 -317.12,-317.16 -475.7,-702.34 -475.7,-1155.54 0,-453.14 158.58,-838.32 475.7,-1155.47 317.15,-317.15 702.33,-475.73 1155.51,-475.73l7667.6 0 -1908.22 -1908.18c-306.88,-306.9 -460.3,-682.47 -460.3,-1126.73 0,-444.28 153.42,-824.32 460.3,-1140.14 306.9,-327.41 684.04,-493.34 1131.44,-497.79 447.39,-4.48 834.79,157 1162.2,484.42l4679.57 4679.54c315.82,327.41 473.65,707.45 473.65,1140.08 0,432.74 -157.83,812.75 -473.65,1140.14l-4679.57 4679.56c-315.81,327.38 -698.06,488.93 -1146.81,484.36 -448.74,-4.43 -831.02,-170.28 -1146.83,-497.67 -306.88,-315.81 -458.07,-698.15 -453.63,-1146.91 4.45,-448.64 160.13,-826.54 467.02,-1133.35l1894.83 -1894.84z"/>
 </g>
</svg>
