
<svg xmlns="http://www.w3.org/2000/svg" xml:space="preserve"  
viewBox="0 0 21000 29700"
 xmlns:xlink="http://www.w3.org/1999/xlink"
 xmlns:xodm="http://www.corel.com/coreldraw/odm/2003">

 <g id="Слой_x0020_1">
  <path class="fil0" d="M10502.39 19213.14c1102.65,0 2039.14,-424.31 2809.4,-1272.82 770.37,-848.57 1155.44,-1878.96 1155.44,-3091.19 0,-1212.21 -385.85,-2241.72 -1157.76,-3088.54 -771.92,-846.83 -1709.18,-1270.23 -2811.86,-1270.23 -1102.66,0 -2039.14,424.27 -2809.44,1272.83 -770.31,848.56 -1155.46,1878.97 -1155.46,3091.19 0,1212.21 385.95,2241.72 1157.82,3088.59 771.9,846.74 1709.18,1270.17 2811.86,1270.17zm-2.39 -1589.92c-700.27,0 -1295.5,-269.49 -1785.7,-808.38 -490.18,-538.88 -735.27,-1193.24 -735.27,-1963.08 0,-769.84 245.09,-1424.2 735.27,-1963.09 490.2,-538.89 1085.43,-808.33 1785.7,-808.33 700.29,0 1295.48,269.44 1785.66,808.33 490.19,538.89 735.33,1193.25 735.33,1963.09 0,769.84 -245.14,1424.2 -735.33,1963.08 -490.18,538.89 -1085.37,808.38 -1785.66,808.38zm0 4965.39c-2141.2,0 -4115.41,-624.36 -5922.64,-1873.2 -1807.24,-1248.73 -3257.61,-2892.36 -4351.1,-4930.99 -87.54,-146.56 -147.13,-297.01 -178.78,-451.36 -31.65,-154.33 -47.48,-312.74 -47.48,-475.21 0,-162.48 15.83,-322.92 47.48,-481.31 31.65,-158.41 91.24,-310.9 178.78,-457.46 1093.49,-2038.58 2543.86,-3682.25 4351.1,-4931.01 1807.23,-1248.77 3781.44,-1873.16 5922.64,-1873.16 2141.23,0 4115.45,624.39 5922.66,1873.16 1807.22,1248.76 3257.55,2892.43 4351.09,4931.01 87.54,146.56 147.11,297.02 178.72,451.37 31.72,154.34 47.53,312.74 47.53,475.22 0,162.47 -15.81,322.9 -47.53,481.3 -31.61,158.41 -91.18,310.89 -178.72,457.45 -1093.54,2038.63 -2543.87,3682.26 -4351.09,4930.99 -1807.21,1248.84 -3781.43,1873.2 -5922.66,1873.2zm0 -1501.17c1960.74,0 3772.71,-558.16 5435.91,-1674.36 1663.08,-1116.32 2941.1,-2636.73 3833.93,-4561.32 -892.83,-1924.6 -2170.85,-3445.03 -3833.93,-4561.29 -1663.2,-1116.27 -3475.17,-1674.4 -5435.91,-1674.4 -1960.76,0 -3772.72,558.13 -5435.86,1674.4 -1663.15,1116.26 -2941.14,2636.69 -3833.98,4561.29 892.84,1924.59 2170.83,3445 3833.98,4561.32 1663.14,1116.2 3475.1,1674.36 5435.86,1674.36z"/>
 </g>
</svg>
