
<svg xmlns="http://www.w3.org/2000/svg" xml:space="preserve"
viewBox="0 0 21000 29700"
 xmlns:xlink="http://www.w3.org/1999/xlink"
>
 <g id="Слой_x0020_1">
  <path id="Vector" class="fil0" d="M14212.7 16029.65l-1279.56 -1408.3c56.37,-736.66 -149.21,-1370.7 -616.63,-1902.15 -467.53,-531.44 -1029.11,-751.4 -1684.99,-659.88l-1279.53 -1408.3c175.64,-66.45 356.37,-112.59 542.15,-138.42 185.78,-25.83 370.55,-38.74 554.3,-38.74 1099.8,0 2033.31,422.21 2800.47,1266.62 767.27,844.42 1150.8,1871.87 1150.8,3082.37 0,202.24 -10.06,406.32 -30.17,612.26 -20.12,205.93 -72.4,404.11 -156.84,594.54zm3458.37 3784.41l-997.83 -1076.16c627.68,-537.34 1198.77,-1127.55 1713.04,-1770.43 514.39,-642.9 946,-1357.78 1294.71,-2144.62 -854.37,-1938.31 -2114.15,-3459.22 -3779.34,-4562.71 -1665.19,-1103.49 -3482.9,-1655.24 -5453.21,-1655.24 -451.49,0 -891.28,31.19 -1319.4,93.56 -428.13,62.37 -860.15,155.93 -1296.06,280.66l-1114.55 -1226.71c595.51,-250.96 1204.48,-421.1 1826.95,-510.42 622.46,-89.32 1256.81,-133.97 1903.06,-133.97 2195.56,0 4225.6,609.32 6089.96,1827.96 1864.35,1218.64 3286.5,2906.79 4266.42,5064.46 67.64,143.79 112.74,280.44 135.51,409.99 22.88,129.54 34.26,267.02 34.26,412.42 0,145.41 -13.04,282.9 -39.24,412.42 -26.19,129.55 -65.43,267.39 -117.71,413.54 -370.15,828.18 -826.18,1585.12 -1368.09,2270.87 -541.8,685.63 -1134.67,1317.13 -1778.48,1894.38zm-7222.63 2723.61c-2150.02,0 -4133.74,-618.88 -5951.12,-1856.76 -1817.42,-1237.76 -3259.23,-2888.2 -4325.45,-4951.22 -85.92,-142.49 -140.28,-290.01 -163.07,-442.56 -22.81,-152.55 -34.21,-307.55 -34.21,-465.02 0,-157.46 13.08,-314.06 39.23,-469.8 26.16,-155.75 82.82,-303 170.01,-441.77 441.28,-878.36 945.21,-1695.28 1511.81,-2450.76 566.59,-755.47 1217.48,-1433.25 1952.67,-2033.33l-2152.73 -2358.34c-144.86,-152.05 -220.64,-321.81 -227.33,-509.29 -6.71,-187.48 65.7,-364.62 217.26,-531.43 151.56,-166.81 313.52,-250.22 485.87,-250.22 172.34,0 334.3,83.41 485.85,250.22l15982.44 17590.9c144.79,159.44 217.18,332.84 217.18,520.37 0,187.52 -72.39,360.94 -217.18,520.36 -151.53,166.88 -313.56,250.26 -485.87,250.26 -172.43,0 -334.35,-83.38 -485.88,-250.26l-2766.36 -3038.09c-676.31,320.33 -1370.53,553.28 -2082.76,698.58 -712.23,145.44 -1435.63,218.16 -2170.36,218.16zm-5828.42 -12012.94c-717.57,559.49 -1373.11,1192.07 -1966.63,1897.74 -593.51,705.64 -1072.69,1505.77 -1437.5,2400.38 854.38,1938.32 2114.16,3459.26 3779.32,4562.72 1665.17,1103.45 3482.92,1655.24 5453.23,1655.24 557.56,0 1105.33,-42.78 1643.37,-128.45 538.15,-85.57 1065.36,-226.63 1581.74,-422.99l-1559.3 -1694.01c-264.16,140.27 -536.83,238.11 -817.79,293.5 -281,55.28 -563.67,83.03 -848.02,83.03 -1099.83,0 -2033.33,-422.3 -2800.53,-1266.66 -767.19,-844.41 -1150.8,-1871.88 -1150.8,-3082.38 0,-312.97 35.55,-624.09 106.64,-933.35 71.08,-309.29 149.55,-609.34 235.39,-900.17l-2219.12 -2464.6z"/>
 </g>
</svg>
