<svg viewBox="0 0 37 38" xmlns="http://www.w3.org/2000/svg">
<g id="Group">
<path id="Vector" d="M13.8523 1.08543C4.90073 3.53109 -0.421849 11.0311 0.102344 20.4061C0.384602 25.0528 1.83622 28.3952 5.06202 31.8191C9.05396 36.0583 13.5701 37.811 19.4975 37.4441C22.562 37.2811 23.4894 37.0365 26.0701 35.7322C31.7153 32.9197 35.3846 27.9468 36.312 21.8327C38.2878 8.99304 26.0701 -2.21619 13.8523 1.08543ZM22.4007 2.75663C28.7717 4.42783 33.4894 9.64522 34.7394 16.4523C36.0298 23.5447 32.2394 30.8409 25.5056 34.1833C22.562 35.6914 22.2798 35.7322 18.1669 35.7322C14.1346 35.7322 13.7717 35.6507 11.1104 34.3463C7.5217 32.5528 4.77976 29.7403 3.12654 26.2349C1.91686 23.667 1.83622 23.2186 1.83622 19.0202C1.83622 14.9849 1.95718 14.292 2.92493 12.1724C4.98138 7.72946 9.90073 3.61261 14.4572 2.55283C16.8362 1.98217 19.8201 2.0637 22.4007 2.75663Z" />
<path id="Vector_2" d="M19.0943 9.07455C17.1588 9.6452 16.2717 11.1126 15.9491 14.1289L15.6669 16.7784H14.0943H12.5217V18.6126V20.4468H14.1346H15.7072L15.8282 25.2159L15.9491 30.0256L17.8846 30.1479L19.7798 30.2702V25.3789V20.4876L21.5137 20.3653C23.2072 20.243 23.2072 20.243 23.3282 18.4903L23.4491 16.7784H21.6346H19.7798V15.1887C19.7798 13.1914 20.6266 12.2947 22.4411 12.2947C23.7717 12.2947 23.8121 12.2539 23.8121 10.705C23.8121 9.27835 23.6911 9.11531 22.5621 8.87074C21.0298 8.58542 20.7475 8.58542 19.0943 9.07455Z" />
</g>
</svg>
