
<svg xmlns="http://www.w3.org/2000/svg" xml:space="preserve" version="1.1" 
viewBox="0 0 21000 29700"
 xmlns:xlink="http://www.w3.org/1999/xlink"
 xmlns:xodm="http://www.corel.com/coreldraw/odm/2003">

 </defs>
 <g id="Слой_x0020_1">
  <metadata id="CorelCorpID_0Corel-Layer"/>
  <path class="fil0" d="M452.58 29131.72l0 -25479.83c0,-861.37 270.32,-1590.47 810.95,-2187.29 540.63,-596.83 1201.08,-895.25 1981.34,-895.25l14495.98 0c780.22,0 1440.74,298.42 1981.42,895.25 540.54,596.82 810.88,1325.92 810.88,2187.29l0 25479.83 -10040.28 -4754.96 -10040.29 4754.96zm2316.96 -3921.96l7723.33 -3666.18 7723.28 3666.18 0 -21557.87c0,-131.2 -49.42,-251.46 -148.4,-360.8 -99.12,-109.29 -208.04,-163.95 -326.9,-163.95l-14495.98 0c-118.83,0 -227.76,54.66 -326.81,163.95 -99.01,109.34 -148.52,229.6 -148.52,360.8l0 21557.87z"/>
 </g>
</svg>
