
<svg version="1.0" xmlns="http://www.w3.org/2000/svg"
 viewBox="0 0 216.000000 184.000000"
 preserveAspectRatio="xMidYMid meet">

<g transform="translate(0.000000,184.000000) scale(0.100000,-0.100000)"
>
<path d="M588 1820 c-20 -11 -45 -35 -57 -53 -20 -33 -21 -48 -21 -308 0 -239
2 -278 16 -298 16 -22 16 -25 0 -51 -14 -25 -16 -82 -16 -520 0 -476 1 -494
20 -525 40 -65 37 -65 560 -65 401 0 475 2 500 15 63 32 60 -5 60 884 l0 810
-33 34 c-22 24 -45 37 -72 42 -22 3 -47 10 -55 16 -60 38 -69 39 -472 39 -368
-1 -395 -2 -430 -20z m848 -73 l27 -24 1 -264 c0 -145 -3 -270 -7 -276 -6 -10
-105 -13 -437 -13 -381 0 -429 2 -434 16 -3 9 -6 132 -6 275 l0 260 25 24 24
25 390 0 390 0 27 -23z m21 -659 c12 -19 14 -915 2 -961 -7 -27 -18 -41 -36
-48 -16 -6 -177 -9 -420 -7 -377 3 -395 4 -409 22 -19 27 -21 975 -2 994 18
18 853 17 865 0z"/>
<path d="M655 1558 c-3 -8 -4 -86 -3 -173 l3 -160 25 0 25 0 0 170 c0 169 0
170 -23 173 -12 2 -24 -3 -27 -10z"/>
<path d="M896 1544 c-9 -8 -16 -22 -16 -29 0 -18 27 -45 45 -45 16 0 45 27 45
41 0 43 -45 63 -74 33z"/>
<path d="M1120 1546 c-28 -35 11 -93 48 -70 35 22 22 84 -18 84 -10 0 -23 -7
-30 -14z"/>
<path d="M1014 1450 c-28 -11 -54 -48 -47 -66 8 -20 31 -17 43 6 6 11 20 20
30 20 11 0 25 -9 32 -20 15 -24 34 -26 42 -5 6 18 -31 61 -59 68 -11 3 -30 2
-41 -3z"/>
<path d="M655 1038 c-3 -8 -4 -92 -3 -188 l3 -175 25 0 25 0 0 185 c0 184 0
185 -23 188 -12 2 -24 -3 -27 -10z"/>
<path d="M1400 220 c0 -69 3 -91 13 -87 8 2 12 29 12 87 0 58 -4 85 -12 88
-10 3 -13 -19 -13 -88z"/>
</g>
</svg>
