<svg viewBox="0 0 38 38"  xmlns="http://www.w3.org/2000/svg">
<g id="inst 1" clip-path="url(#clip0_77_313)">
<g id="Group">
<path id="Vector" d="M14.6959 1.07209C5.46516 3.27318 -0.716161 12.1998 0.478894 21.4933C2.49813 36.9417 21.619 43.0966 32.5805 31.8466C33.5284 30.8683 35.0119 28.6672 35.836 27.0368C37.3196 24.0205 37.3608 23.8982 37.3608 19.0884C37.3608 14.2379 37.3196 14.1156 35.836 11.0585C31.9624 3.23242 23.0613 -0.96595 14.6959 1.07209ZM22.6904 2.58025C27.5531 3.68079 32.4157 7.6346 34.5998 12.1998C35.5888 14.3601 35.7124 15.0123 35.7124 19.2514C35.7124 23.7759 35.6712 24.0205 34.3525 26.5476C32.4981 30.0123 29.5723 32.8656 26.1108 34.4552C23.5558 35.6781 23.0201 35.7596 18.9816 35.7596C14.8196 35.7596 14.5311 35.7188 11.5229 34.2514C2.91021 30.0123 -0.4277 20.4335 3.73439 11.7107C6.98988 4.74057 15.108 0.82753 22.6904 2.58025Z" />
<path id="Vector_2" d="M13.7482 10.2433C10.4927 11.0585 9.83338 12.6889 10.0394 19.7813C10.1631 24.9987 10.2043 25.3656 11.1521 26.3438C12.6356 27.9335 14.5724 28.3004 19.9295 28.1373C24.0092 28.0558 24.9158 27.8927 25.9048 27.159C27.8004 25.7324 28.0889 24.7949 28.0889 19.0476C28.0889 13.3004 27.6356 11.7514 25.5339 10.6509C24.4213 10.0395 15.7674 9.75416 13.7482 10.2433ZM25.4515 12.852C26.3581 13.9118 26.4405 14.3194 26.4405 18.8438C26.4405 21.534 26.2345 24.1427 25.9872 24.6726C25.2867 26.2215 23.9268 26.5884 18.9817 26.5884C14.2839 26.5884 12.3883 26.0993 11.8526 24.7542C11.729 24.3873 11.6054 21.8194 11.6054 19.0884C11.6054 14.6455 11.6878 13.9525 12.4295 13.015C13.501 11.6699 14.1191 11.5476 19.7647 11.6292C24.3389 11.7107 24.4625 11.7514 25.4515 12.852Z" />
<path id="Vector_3" d="M22.9789 13.7895C22.6492 14.6455 23.0201 15.1754 23.9679 15.1754C24.8745 15.1754 25.3278 14.2379 24.6684 13.5857C24.0091 12.9335 23.2673 13.015 22.9789 13.7895Z" />
<path id="Vector_4" d="M16.6741 15.1753C15.0257 16.1536 14.49 17.1318 14.49 19.2514C14.49 20.6373 14.7372 21.2079 15.8911 22.3492C17.0449 23.4905 17.6219 23.7351 19.023 23.7351C20.4241 23.7351 21.001 23.4905 22.1548 22.3492C23.3087 21.2079 23.5559 20.678 23.5559 19.1699C23.5559 17.0503 22.6905 15.7052 20.8361 14.9308C19.023 14.1563 18.24 14.1971 16.6741 15.1753ZM20.8361 16.8465C22.979 18.5177 21.7839 22.1047 19.023 22.1047C16.262 22.1047 15.0669 18.5177 17.2098 16.8465C17.8279 16.3574 18.6109 15.9905 19.023 15.9905C19.435 15.9905 20.218 16.3574 20.8361 16.8465Z" />
</g>
</g>
</svg>
