<svg xmlns="http://www.w3.org/2000/svg" version="1.0" preserveAspectRatio="xMidYMid meet" viewBox="15.03 90.2 1054.34 822.36">

<g transform="translate(0.000000,1024.000000) scale(0.100000,-0.100000)"  stroke="none">
<path d="M7845 9329 c-421 -30 -764 -153 -985 -354 -22 -20 -55 -36 -90 -44 -64 -16 -227 -95 -314 -153 -80 -54 -228 -204 -292 -298 -217 -316 -270 -692 -149 -1055 37 -113 121 -287 213 -445 82 -140 89 -161 63 -197 -25 -34 -41 -83 -133 -408 -97 -345 -160 -595 -154 -612 3 -8 -19 -52 -50 -99 -66 -100 -104 -189 -111 -260 -5 -44 -2 -55 17 -74 21 -21 22 -26 11 -54 -82 -211 -100 -385 -41 -416 10 -5 30 -10 44 -10 34 0 153 56 261 123 57 36 91 52 93 44 7 -31 -79 -547 -102 -614 -77 -224 -74 -384 9 -561 39 -82 70 -127 133 -194 l44 -46 -33 -37 c-47 -51 -107 -150 -125 -210 -9 -27 -19 -100 -21 -162 -5 -95 -2 -122 17 -185 68 -229 251 -410 460 -458 30 -7 60 -14 66 -16 7 -1 13 -33 16 -76 5 -89 34 -156 107 -246 l51 -62 -57 -26 c-32 -13 -64 -31 -73 -39 -13 -11 -23 -11 -70 1 -112 31 -243 -5 -304 -83 -17 -20 -41 -64 -55 -97 -23 -54 -25 -75 -26 -191 0 -112 3 -140 24 -200 13 -38 42 -94 63 -123 41 -55 130 -132 154 -132 8 0 14 -4 14 -8 0 -22 305 -22 445 0 133 21 363 54 453 65 62 7 75 6 87 -7 8 -9 15 -21 15 -27 0 -20 113 -113 170 -141 52 -25 64 -27 190 -27 l135 0 214 64 c220 65 488 164 608 225 158 79 253 237 270 446 4 56 13 96 26 118 16 26 18 42 12 80 -3 26 -6 58 -6 72 6 128 7 122 -43 214 l-48 88 11 61 c5 34 13 78 16 97 8 55 -12 226 -39 330 -32 122 -83 244 -152 360 -55 95 -62 110 -44 110 6 0 52 28 103 62 112 75 214 175 291 285 52 74 61 83 89 83 100 0 224 59 306 144 106 111 155 256 132 389 -11 61 -10 62 28 137 51 99 102 259 108 340 4 46 37 162 114 396 139 424 148 459 136 506 -8 35 -7 39 30 69 75 62 263 262 305 322 81 120 135 261 172 457 19 100 24 166 36 421 14 298 -11 513 -80 704 -44 122 -166 373 -221 455 -209 315 -557 565 -910 654 -76 19 -93 28 -145 75 -140 125 -381 259 -599 334 -142 49 -346 93 -512 112 -151 16 -204 17 -378 4z m470 -123 c292 -46 560 -146 795 -297 42 -26 85 -59 97 -71 l22 -23 -44 -2 c-56 -2 -183 -37 -258 -70 -31 -14 -56 -27 -54 -29 1 -2 20 1 42 6 165 38 378 31 545 -17 100 -28 298 -122 402 -189 275 -177 511 -469 598 -739 12 -38 26 -74 30 -80 13 -18 61 -169 82 -255 16 -69 21 -132 25 -339 10 -484 -46 -735 -209 -941 -62 -79 -290 -310 -305 -310 -8 0 -63 85 -63 98 0 4 33 27 73 50 104 61 210 163 295 281 39 55 72 102 72 104 0 2 -39 -35 -87 -83 -78 -76 -181 -168 -238 -210 -11 -8 -3 5 16 30 91 115 215 315 275 445 25 54 34 88 34 126 l0 52 -64 -129 c-90 -183 -216 -367 -405 -593 -14 -15 -24 -7 -118 101 l-103 117 44 93 c24 51 70 147 101 213 117 247 258 606 243 620 -2 3 -19 -32 -38 -78 -63 -156 -393 -807 -410 -807 -4 0 -13 6 -19 14 -9 10 0 45 40 152 101 274 151 432 195 612 25 101 43 189 41 195 -2 6 -34 -79 -71 -189 -88 -262 -261 -714 -272 -714 -2 0 -39 25 -81 56 -43 30 -104 71 -135 90 -32 20 -58 43 -58 51 0 9 25 104 56 212 85 298 134 512 105 461 -5 -8 -54 -153 -110 -321 -56 -168 -106 -310 -109 -316 -5 -8 -59 14 -163 66 -86 43 -161 80 -168 82 -8 3 6 74 48 244 69 277 143 606 138 611 -5 5 -109 -333 -188 -606 -34 -118 -62 -216 -63 -217 -2 -2 -47 15 -102 36 -54 21 -138 51 -186 67 -49 15 -88 34 -88 40 0 11 47 242 130 642 22 102 70 384 69 398 -3 35 -56 -170 -210 -806 -28 -118 -53 -217 -55 -219 -2 -2 -59 10 -126 27 -68 17 -158 38 -201 47 -64 14 -77 20 -73 33 3 9 15 73 26 142 12 69 43 249 70 400 96 544 140 846 120 823 -8 -9 -86 -384 -151 -723 -70 -363 -126 -640 -131 -645 -2 -2 -46 2 -98 10 -52 8 -146 18 -209 21 l-113 7 6 61 c4 34 22 169 41 301 44 306 63 472 69 610 l6 110 -25 -110 c-13 -60 -33 -171 -45 -245 -12 -74 -42 -256 -66 -404 -24 -147 -44 -279 -44 -292 0 -18 -6 -24 -22 -24 -13 0 -80 -1 -151 -3 -108 -2 -127 0 -127 13 0 8 16 139 35 290 69 540 100 866 82 849 -4 -3 -16 -63 -27 -135 -11 -71 -34 -210 -50 -309 -16 -99 -41 -259 -54 -355 -31 -212 -54 -351 -58 -355 -6 -5 -299 -47 -302 -44 -3 3 7 171 28 504 3 44 8 166 11 270 3 105 8 209 10 233 3 23 1 42 -3 42 -9 0 -29 -134 -38 -255 -3 -44 -7 -87 -9 -95 -4 -14 -6 -39 -20 -215 -20 -248 -46 -500 -52 -505 -5 -4 -47 -19 -96 -34 -48 -15 -95 -30 -103 -33 -18 -7 -18 4 6 477 12 219 17 537 9 544 -13 13 -72 -618 -85 -895 l-7 -156 -44 -22 c-25 -12 -46 -21 -47 -19 -10 16 -72 218 -95 313 -58 232 -87 444 -98 710 -8 197 -18 174 -29 -70 -7 -156 6 -376 30 -515 8 -41 12 -76 11 -78 -3 -4 -85 204 -102 258 -75 242 -69 480 18 705 75 197 238 400 409 513 78 51 208 117 216 110 3 -3 -2 -23 -10 -43 -25 -60 -18 -63 27 -13 178 197 432 343 725 417 81 21 262 49 347 54 127 7 368 -1 470 -17z m-575 -2211 c485 -56 919 -183 1345 -395 474 -236 769 -490 934 -804 34 -63 41 -85 35 -110 -13 -61 -21 -63 -44 -9 -22 53 -54 91 -63 76 -3 -4 15 -38 39 -75 l43 -68 -26 -87 c-15 -49 -64 -197 -108 -331 l-80 -243 -63 79 c-113 144 -322 334 -497 452 -443 299 -978 509 -1540 604 -390 66 -845 56 -1170 -25 -86 -22 -270 -84 -347 -118 -33 -14 -48 -16 -48 -8 0 51 214 794 237 825 59 79 368 190 648 232 158 24 515 26 705 5z m-320 -955 c-30 -4 -50 -8 -45 -8 6 -1 64 -9 130 -17 179 -22 311 -44 392 -66 39 -11 75 -19 80 -18 4 1 15 -1 23 -4 8 -3 49 -15 90 -26 270 -71 589 -202 895 -369 266 -145 597 -419 715 -592 13 -19 27 -37 31 -40 3 -3 18 -25 33 -49 30 -47 30 -62 6 -156 -16 -62 -71 -205 -80 -205 -3 0 -24 18 -45 41 -60 61 -136 100 -202 105 -31 2 -57 5 -59 7 -2 1 6 41 16 87 11 47 21 128 24 180 2 52 2 82 0 65 -10 -61 -36 -181 -45 -205 -5 -14 -11 -34 -13 -45 -7 -32 -56 -146 -88 -205 -65 -118 -137 -236 -159 -260 -89 -98 -119 -127 -124 -120 -3 5 -10 43 -15 85 -9 73 -33 165 -61 230 -7 17 -12 33 -11 37 1 4 -13 54 -32 110 -18 57 -45 148 -60 203 -128 466 -176 625 -189 625 -5 0 -55 -14 -111 -31 -259 -80 -413 -120 -661 -175 -60 -14 -118 -29 -127 -34 -9 -5 -19 -6 -22 -2 -6 10 35 50 89 86 84 56 111 79 87 71 -128 -38 -500 -260 -611 -364 -24 -23 -48 -41 -54 -41 -16 0 -1 106 27 188 31 92 89 195 160 291 31 41 56 79 56 85 -1 10 -18 -8 -83 -84 -49 -59 -134 -194 -157 -250 -12 -30 -27 -66 -32 -80 l-11 -25 -10 35 c-17 64 -18 144 -4 244 9 54 13 106 9 114 -3 8 -1 13 4 9 5 -3 18 18 28 46 22 63 72 165 94 192 17 20 17 20 -8 0 -14 -11 -52 -47 -85 -81 -51 -52 -68 -63 -115 -73 -93 -21 -324 -99 -405 -136 -17 -7 -52 -23 -78 -34 -49 -21 -207 -128 -240 -162 -78 -82 -10 115 89 258 26 37 50 70 53 73 32 26 121 130 103 121 -38 -20 -225 -212 -264 -271 -55 -85 -79 -130 -73 -141 4 -5 2 -9 -4 -9 -5 0 -15 -24 -22 -54 l-12 -55 -145 -76 c-79 -41 -155 -78 -168 -81 -22 -6 -24 -3 -24 27 0 71 48 210 109 314 71 122 220 283 355 384 38 28 67 51 64 51 -14 0 -185 -93 -224 -121 -86 -64 -159 -126 -196 -167 -21 -23 -42 -42 -48 -42 -13 0 14 72 59 156 43 80 143 208 188 240 68 50 209 107 336 134 31 7 57 17 57 23 0 5 7 7 15 4 8 -4 60 3 115 13 55 11 122 21 148 21 45 2 45 2 12 8 -19 4 71 5 201 2 160 -2 242 0 255 7 11 6 44 11 74 10 l55 -1 -55 -7z m-335 -636 c-25 -118 -30 -296 -11 -392 27 -135 66 -202 117 -202 20 0 47 16 91 56 101 90 204 156 302 191 23 8 199 55 391 104 193 50 408 108 478 130 71 22 130 39 132 37 1 -2 19 -73 39 -158 50 -209 96 -377 167 -609 33 -107 76 -259 96 -338 36 -145 59 -193 93 -193 68 0 265 241 374 458 l27 52 53 -4 c66 -5 123 -33 166 -82 46 -53 63 -99 62 -174 0 -94 -31 -167 -103 -244 -79 -85 -151 -118 -271 -124 -48 -2 -100 0 -117 6 -38 13 -40 0 -5 -25 l26 -19 -20 -40 c-27 -53 -89 -131 -154 -193 -216 -206 -522 -329 -938 -377 -163 -18 -507 -15 -641 6 l-75 12 -14 45 c-32 111 -187 287 -309 352 -100 53 -167 72 -276 78 -120 6 -218 -12 -304 -56 l-58 -29 -35 31 c-90 83 -168 220 -189 331 -13 75 1 188 41 329 17 56 37 154 45 217 34 273 54 428 61 467 6 40 13 48 110 121 114 86 193 132 327 193 102 46 322 121 334 114 2 -1 -4 -33 -12 -71z m-207 -1749 c71 -17 180 -69 188 -90 3 -8 -16 -61 -43 -117 -132 -277 -337 -491 -575 -603 -106 -49 -106 -49 -153 20 -52 77 -76 150 -82 249 -10 147 37 273 143 386 134 141 330 200 522 155z m355 -274 c38 -68 57 -153 57 -246 -1 -277 -249 -514 -538 -515 -86 0 -185 24 -256 63 -56 30 -82 57 -56 57 22 0 174 82 250 134 185 127 366 360 445 570 l19 49 27 -32 c14 -18 38 -54 52 -80z m1605 -239 c113 -219 159 -440 126 -612 -29 -155 -97 -260 -221 -343 l-67 -45 -17 85 c-34 166 -153 348 -251 383 -21 8 -38 16 -38 20 1 13 115 53 186 64 76 13 78 13 41 21 -22 4 -64 5 -94 2 -64 -7 -61 3 15 53 49 32 43 39 -15 15 -19 -8 -37 -15 -39 -15 -7 0 8 53 27 98 23 55 16 53 -21 -5 -34 -53 -33 -54 -31 62 2 72 -14 39 -35 -71 -27 -147 -32 -160 -59 -172 -14 -7 -32 -12 -40 -12 -7 0 -26 -11 -42 -24 -16 -14 -41 -28 -56 -31 l-27 -7 0 191 c0 224 8 211 -127 211 l-88 1 39 32 c22 17 75 57 117 88 73 53 85 57 190 78 126 25 282 70 349 100 l45 20 41 -46 c23 -24 64 -88 92 -141z m-1336 -25 c45 -39 83 -78 86 -85 2 -8 -9 -12 -38 -12 -36 0 -49 6 -92 48 -47 45 -78 89 -78 112 0 28 48 3 122 -63z m597 69 c-37 -34 -189 -153 -208 -163 -29 -15 -81 -18 -81 -4 0 13 150 145 169 148 9 2 36 6 61 9 25 4 47 8 49 10 2 2 7 4 9 4 3 0 3 -2 1 -4z m-353 -22 l121 -6 -70 -69 c-48 -47 -78 -69 -95 -69 -17 0 -46 23 -101 81 l-78 81 51 -6 c28 -3 105 -8 172 -12z m-311 -136 c5 -5 -8 -8 -28 -8 -35 0 -37 2 -37 32 l0 31 28 -24 c15 -13 31 -27 37 -31z m683 -73 c9 -3 12 -50 12 -190 0 -102 -3 -185 -7 -185 -24 1 -31 25 -36 130 -6 109 -8 116 -36 143 -59 60 -141 30 -141 -51 0 -68 68 -106 114 -63 l21 20 -3 -68 -3 -67 -87 4 c-70 3 -97 0 -138 -16 l-50 -20 -110 116 c-61 65 -140 149 -178 189 l-67 71 348 -5 c191 -2 354 -6 361 -8z m-771 -51 c14 -38 -191 -274 -239 -274 -10 0 -18 3 -18 7 0 3 33 37 73 74 39 37 92 99 117 138 47 73 57 81 67 55z m128 -135 c44 -49 111 -121 148 -160 l68 -71 -26 -34 c-39 -51 -56 -100 -57 -163 -1 -70 16 -132 42 -156 23 -21 27 -40 6 -28 -8 4 -64 55 -125 112 -126 118 -124 116 -260 235 -55 48 -101 90 -101 93 0 3 19 24 43 47 60 60 97 104 137 163 19 29 37 52 40 52 3 0 41 -41 85 -90z m517 29 c-15 -15 -26 -4 -18 18 5 13 9 15 18 6 9 -9 9 -15 0 -24z m-938 -248 c52 -29 251 -196 315 -264 l35 -36 -20 -27 c-49 -66 -176 -104 -285 -84 -148 26 -238 115 -239 236 0 94 65 189 139 204 2 1 27 -12 55 -29z m1332 4 c98 -47 199 -221 211 -365 7 -81 -6 -108 -66 -139 -44 -22 -121 -37 -121 -24 0 33 -24 150 -42 204 -30 93 -92 214 -134 260 l-36 40 43 20 c54 24 100 25 145 4z m-320 -35 c87 -33 147 -94 200 -206 39 -81 83 -227 72 -238 -7 -7 -81 13 -88 24 -4 8 -28 8 -77 2 -117 -15 -278 12 -353 57 -173 106 -155 317 32 378 55 18 138 11 214 -17z m-1235 4 c-5 -10 -14 -44 -21 -76 -6 -32 -13 -57 -15 -55 -1 2 -6 33 -9 70 -7 59 -5 67 11 71 38 10 44 8 34 -10z m2219 -309 c11 -18 10 -27 -6 -60 -31 -64 -149 -112 -319 -131 l-70 -8 50 -5 c68 -7 175 7 263 35 l73 23 8 -21 c15 -38 -17 -75 -94 -112 -73 -35 -194 -75 -225 -75 -11 0 -21 -4 -24 -8 -12 -19 191 5 282 33 27 9 29 -7 7 -103 -24 -104 -108 -231 -181 -274 -29 -16 -31 -15 -169 47 -138 63 -140 64 -137 94 6 52 -33 116 -137 230 -56 60 -101 112 -101 115 0 13 24 5 51 -19 44 -37 87 -41 171 -15 93 28 126 45 164 84 16 17 59 47 94 66 78 43 159 116 201 180 l31 48 27 -51 c15 -29 33 -61 41 -73z m-1524 -74 c49 -45 49 -45 -40 -28 l-64 12 21 28 c11 15 25 28 30 28 5 0 29 -18 53 -40z m-502 -71 c56 -18 84 -21 160 -17 50 3 107 12 126 20 29 12 40 12 65 2 17 -7 66 -17 110 -23 44 -6 94 -13 110 -15 17 -2 35 -5 41 -5 6 -1 27 -16 46 -35 l35 -34 -50 -23 c-64 -30 -138 -113 -168 -190 -13 -32 -29 -59 -35 -59 -26 0 -207 51 -268 76 -113 45 -406 228 -406 254 0 4 26 17 59 29 32 12 64 28 71 36 7 9 18 14 24 11 6 -3 42 -15 80 -27z m732 23 c37 -32 220 -82 298 -82 l55 0 139 -135 c83 -80 146 -150 156 -173 16 -36 16 -40 -1 -87 -24 -65 -45 -68 -103 -16 -25 23 -49 41 -53 41 -5 0 -6 4 -3 8 2 4 -57 69 -132 144 -117 117 -151 144 -232 188 -100 55 -126 74 -141 102 -10 19 0 24 17 10z m-1089 -114 c54 -25 130 -108 166 -182 70 -144 76 -365 11 -437 -29 -33 -33 -21 -12 44 58 183 -42 472 -187 538 -80 37 -191 16 -241 -45 l-26 -31 24 44 c50 94 155 121 265 69z m-48 -78 c165 -84 242 -441 118 -546 -28 -24 -37 -26 -92 -22 -111 9 -188 71 -248 198 -27 57 -31 76 -31 156 -1 84 1 94 29 139 53 85 144 116 224 75z m1295 -40 c128 -61 206 -215 206 -405 0 -94 -20 -173 -54 -212 -34 -39 -39 -26 -15 37 12 32 23 90 26 140 15 240 -110 429 -284 430 -57 0 -136 -23 -168 -48 -11 -9 -5 -1 12 18 68 72 179 88 277 40z m-893 -103 c114 -70 223 -110 412 -151 l28 -7 -3 -81 -3 -82 -258 -39 c-142 -22 -260 -37 -263 -35 -2 3 3 34 12 69 31 119 5 295 -58 398 l-23 36 40 -31 c22 -16 74 -51 116 -77z m848 27 c61 -31 94 -69 129 -150 22 -51 25 -74 26 -174 1 -104 -2 -120 -24 -164 -38 -73 -68 -91 -145 -90 -111 3 -205 68 -262 184 -25 49 -28 66 -28 155 0 115 17 161 82 214 68 57 141 65 222 25z m421 -297 c19 -14 48 -29 63 -32 25 -7 34 -1 76 42 l48 49 91 -51 c50 -28 94 -54 97 -57 3 -2 -59 -31 -137 -63 -156 -63 -398 -147 -398 -138 0 3 12 31 28 62 25 51 27 66 27 168 l0 112 35 -33 c19 -18 51 -45 70 -59z"/>
<path d="M7118 6891 c-31 -3 -60 -10 -64 -14 -15 -15 17 -24 64 -20 73 7 94 13 89 26 -5 15 -17 16 -89 8z"/>
<path d="M7297 6894 c-19 -19 0 -25 76 -22 46 2 82 7 82 13 0 11 -147 20 -158 9z"/>
<path d="M7540 6891 c-24 -16 -3 -25 71 -29 58 -4 69 -2 69 12 0 12 -10 16 -42 16 -24 0 -52 3 -63 5 -11 3 -27 1 -35 -4z"/>
<path d="M7745 6870 c-8 -14 11 -30 36 -30 9 0 37 -3 63 -6 37 -6 46 -4 46 9 0 19 -12 23 -82 32 -39 5 -58 3 -63 -5z"/>
<path d="M6871 6857 c-52 -14 -67 -37 -24 -37 43 0 126 24 131 38 5 15 -47 15 -107 -1z"/>
<path d="M7947 6843 c-14 -14 -5 -21 37 -32 56 -14 96 -14 96 -1 0 19 -119 48 -133 33z"/>
<path d="M6693 6815 c-61 -14 -118 -47 -91 -53 19 -4 114 22 137 37 29 19 5 28 -46 16z"/>
<path d="M8130 6797 c0 -13 93 -47 128 -47 28 0 9 28 -25 38 -80 22 -103 24 -103 9z"/>
<path d="M6465 6736 c-56 -26 -89 -56 -61 -56 23 0 136 58 136 70 0 16 -21 12 -75 -14z"/>
<path d="M8334 6749 c-8 -14 -8 -14 63 -38 70 -24 83 -25 83 -11 0 21 -135 66 -146 49z"/>
<path d="M8540 6677 c0 -13 103 -57 133 -57 33 0 16 18 -42 44 -64 29 -91 33 -91 13z"/>
<path d="M8740 6607 c0 -12 138 -87 160 -87 6 0 10 6 10 13 0 8 -35 30 -78 50 -87 41 -92 42 -92 24z"/>
<path d="M8970 6500 c0 -13 100 -70 123 -70 31 0 13 23 -39 52 -50 28 -84 35 -84 18z"/>
<path d="M9170 6400 c0 -5 24 -25 54 -44 84 -54 117 -69 128 -58 6 6 -10 22 -44 44 -92 61 -138 80 -138 58z"/>
<path d="M9406 6261 c-7 -10 54 -65 103 -94 26 -15 31 -16 31 -3 0 26 -123 115 -134 97z"/>
<path d="M9590 6121 c0 -5 24 -30 53 -56 39 -36 53 -44 55 -31 4 17 -2 24 -56 69 -34 28 -52 34 -52 18z"/>
<path d="M9730 5995 c0 -10 82 -95 91 -95 18 0 8 21 -27 60 -31 34 -64 52 -64 35z"/>
<path d="M9865 5850 c-3 -5 10 -26 29 -46 37 -38 44 -35 26 10 -10 29 -45 52 -55 36z"/>
<path d="M6700 5260 c-11 -11 -20 -27 -20 -35 0 -17 38 -35 75 -35 12 0 47 -16 75 -35 54 -36 83 -39 94 -9 7 18 -14 62 -40 85 -58 51 -148 65 -184 29z"/>
<path d="M8216 5150 c-89 -27 -87 -112 2 -88 47 13 108 3 161 -27 51 -30 67 -31 79 -7 13 24 0 54 -37 85 -51 43 -135 58 -205 37z"/>
<path d="M6707 4816 c-46 -10 -66 -21 -102 -56 -95 -93 -117 -225 -58 -352 90 -191 316 -189 412 4 56 111 39 248 -42 344 -49 58 -120 78 -210 60z"/>
<path d="M8070 4690 c-111 -40 -172 -139 -174 -280 -1 -61 4 -85 25 -130 102 -217 377 -220 486 -5 78 152 7 358 -143 415 -68 25 -123 25 -194 0z"/>
<path d="M9356 4335 c-42 -15 -103 -68 -116 -100 -4 -11 -1 -41 7 -69 8 -26 12 -54 9 -62 -8 -20 12 -17 22 4 6 9 13 41 17 70 6 44 12 55 34 67 42 21 86 -9 104 -71 l14 -48 11 32 c14 40 1 86 -34 123 l-26 27 29 6 c15 4 43 2 61 -3 17 -5 32 -8 32 -5 0 2 -15 13 -32 24 -38 23 -77 25 -132 5z"/>
<path d="M7151 4131 c-29 -54 -3 -146 52 -179 44 -28 89 -28 137 -1 l37 21 27 -26 c70 -64 164 -52 210 27 40 69 36 137 -8 137 -19 0 -26 -8 -35 -43 -25 -102 -74 -116 -140 -41 -21 24 -42 44 -47 44 -5 0 -27 -14 -48 -30 -41 -31 -86 -39 -104 -17 -5 6 -14 37 -19 67 -7 46 -12 56 -30 58 -14 2 -26 -4 -32 -17z"/>
<path d="M2683 8539 c-301 -29 -560 -140 -710 -303 l-59 -65 -80 -10 c-225 -28 -456 -120 -632 -251 -148 -109 -335 -336 -406 -491 -20 -43 -34 -59 -63 -73 -62 -29 -160 -103 -231 -175 -185 -186 -308 -460 -343 -763 -24 -215 3 -459 66 -587 12 -25 37 -75 54 -111 70 -144 205 -282 345 -350 76 -37 203 -70 271 -70 l53 0 82 -222 c46 -123 94 -244 107 -270 16 -32 23 -65 23 -102 0 -71 38 -193 104 -331 50 -103 53 -114 48 -171 -18 -248 201 -493 444 -494 39 0 42 -3 68 -51 52 -95 146 -207 227 -272 78 -63 238 -153 312 -177 20 -6 37 -15 37 -19 0 -5 -35 -11 -77 -14 -88 -6 -183 -37 -270 -88 -35 -21 -117 -93 -208 -185 -97 -97 -170 -161 -206 -181 -64 -36 -81 -67 -67 -121 12 -46 111 -141 188 -181 36 -19 66 -35 67 -35 2 -2 -13 -74 -27 -126 -5 -20 -30 -57 -55 -82 -75 -77 -55 -139 57 -178 99 -35 209 -23 341 34 14 7 17 3 17 -17 0 -14 11 -39 25 -55 21 -25 25 -40 25 -93 0 -35 7 -93 14 -129 13 -61 69 -198 85 -210 4 -3 21 -25 39 -50 18 -25 47 -57 66 -72 92 -73 433 -215 626 -261 115 -27 406 -31 461 -6 58 27 146 100 175 147 l28 44 81 -7 c44 -3 114 -13 155 -21 227 -43 396 -66 490 -65 145 1 274 60 339 155 87 127 119 286 86 432 -29 131 -81 210 -169 257 -59 31 -181 30 -254 -2 -29 -13 -55 -21 -59 -18 -3 3 5 23 17 44 16 27 23 57 25 103 2 36 9 85 16 110 20 71 16 232 -9 326 -45 169 -104 298 -207 449 -41 61 -60 97 -52 100 386 131 609 278 757 495 153 226 180 431 94 715 l-35 118 25 26 c92 96 133 381 86 593 -10 48 -24 98 -31 110 -11 21 -11 22 5 9 9 -8 46 -49 83 -93 37 -43 77 -81 90 -84 81 -21 93 145 27 386 -49 179 -150 359 -279 498 -43 46 -63 79 -85 139 -34 92 -88 229 -157 403 -28 69 -53 132 -55 140 -3 9 18 32 59 63 123 93 222 236 276 400 26 78 31 112 35 223 3 109 1 144 -16 211 -72 284 -229 481 -489 612 -167 84 -392 125 -557 102 -67 -10 -68 -9 -114 23 -289 204 -760 308 -1199 265z m452 -114 c214 -29 385 -83 586 -186 112 -58 209 -125 362 -250 59 -49 107 -84 107 -78 0 25 -68 136 -115 187 l-50 55 110 -6 c234 -12 458 -116 616 -285 84 -90 161 -236 184 -350 22 -107 19 -251 -5 -341 -29 -105 -103 -246 -128 -246 -4 0 -20 -9 -37 -21 -89 -60 -240 -98 -300 -75 -17 7 -11 13 40 37 88 42 192 150 239 244 44 92 62 202 48 300 l-10 65 -1 -60 c-5 -218 -122 -410 -306 -501 -83 -41 -163 -53 -239 -37 l-39 8 64 42 c64 41 78 55 135 128 52 68 49 70 -18 13 -140 -119 -266 -167 -416 -160 l-43 2 42 56 c56 77 104 183 123 278 16 80 21 297 7 346 -7 23 -8 21 -14 -15 -4 -22 -7 -65 -7 -95 0 -155 -62 -343 -145 -445 -72 -87 -190 -160 -305 -188 -73 -18 -388 -70 -523 -87 -108 -13 -211 -1 -291 34 -188 83 -335 235 -450 464 -25 50 -48 92 -51 92 -7 0 31 -102 69 -184 69 -151 189 -303 300 -382 l28 -21 -32 -37 c-78 -88 -234 -183 -501 -305 -170 -77 -281 -111 -368 -111 -218 0 -430 165 -556 432 -40 84 -36 49 7 -63 91 -242 284 -406 508 -431 23 -3 21 -5 -20 -30 -102 -61 -200 -72 -297 -34 l-38 16 40 -35 c22 -19 43 -35 46 -35 4 0 23 -7 43 -15 l37 -16 -43 -36 c-99 -83 -216 -109 -358 -79 -78 16 -234 87 -292 132 -18 15 -1 -5 38 -44 111 -108 237 -162 381 -162 l55 0 -44 -37 c-66 -55 -119 -75 -202 -75 -85 0 -183 28 -276 80 -81 45 -212 175 -263 262 -43 75 -46 73 -12 -11 50 -125 168 -256 285 -318 70 -37 194 -71 262 -71 26 0 48 -3 48 -6 0 -12 -72 -95 -96 -111 -13 -8 -50 -26 -81 -39 l-58 -25 53 3 c28 2 52 2 52 2 0 -5 -84 -161 -91 -168 -13 -15 -149 12 -216 44 -258 120 -400 350 -433 703 -21 222 17 471 100 654 60 132 196 306 293 375 l30 22 -6 -44 c-7 -51 7 -37 24 24 8 29 13 36 20 25 5 -8 9 -25 9 -39 0 -44 23 -10 137 203 26 48 82 134 124 191 286 380 708 560 1179 503 126 -16 378 -53 415 -62 45 -11 -47 27 -148 60 -133 44 -285 83 -354 91 -64 8 -62 18 21 80 120 92 317 168 511 198 120 19 364 19 500 1z m1646 -1544 c-29 -40 -133 -132 -145 -128 -23 8 -13 24 30 46 25 14 64 47 87 73 43 52 63 58 28 9z m-550 -72 c98 -13 231 -44 269 -64 16 -8 37 -35 50 -62 55 -116 225 -542 219 -548 -3 -2 -22 0 -44 5 -209 49 -590 58 -851 21 -618 -87 -1213 -301 -1775 -638 -193 -115 -380 -247 -511 -360 -89 -76 -251 -240 -310 -312 l-35 -44 -21 54 c-11 30 -50 128 -85 219 -35 91 -76 201 -91 246 -25 76 -26 83 -11 117 101 242 560 624 1036 863 368 184 870 367 1174 428 44 9 91 19 105 21 107 22 212 39 310 50 144 16 460 19 571 4z m379 -750 c69 -12 133 -25 143 -30 33 -18 190 -175 239 -239 74 -96 153 -265 183 -390 32 -134 31 -147 -4 -84 -57 104 -157 220 -240 277 l-44 30 67 -82 c62 -76 116 -154 116 -166 0 -3 -21 8 -47 23 -27 15 -61 34 -77 42 -19 10 -46 43 -76 96 -56 97 -121 182 -185 244 l-48 45 51 -66 c200 -257 322 -573 322 -827 0 -60 -7 -115 -29 -222 l-7 -35 -13 37 c-19 57 -96 195 -141 253 -111 144 -373 392 -560 531 -144 106 -165 117 -104 53 28 -30 94 -106 147 -169 52 -63 109 -130 127 -149 17 -18 30 -35 28 -37 -2 -1 -57 12 -123 31 -197 56 -467 167 -783 322 -107 52 -196 92 -199 90 -14 -15 135 -269 201 -341 20 -22 36 -41 36 -42 0 -5 -172 73 -240 109 -231 122 -370 205 -487 290 -29 21 -53 35 -53 33 0 -8 201 -172 282 -230 218 -156 502 -298 745 -373 51 -15 93 -31 93 -35 0 -13 -138 -21 -265 -15 -146 7 -314 39 -455 86 -261 88 -540 234 -729 383 -40 32 -77 58 -81 58 -4 0 -10 -62 -13 -137 -10 -247 -71 -447 -234 -763 -57 -113 -109 -209 -114 -214 -5 -6 -9 47 -10 135 -1 142 -1 143 -16 99 -20 -62 -29 -312 -14 -431 6 -52 14 -114 17 -139 l6 -45 -46 50 c-62 68 -156 205 -199 290 -62 124 -88 225 -96 370 l-7 130 -17 -72 c-11 -48 -17 -113 -17 -197 l0 -126 -30 0 c-54 0 -140 -40 -191 -89 l-48 -47 -30 67 c-39 87 -71 186 -71 219 0 61 235 304 495 513 312 250 808 514 1282 682 297 106 728 204 969 221 54 3 101 9 104 11 12 12 374 -9 490 -28z m-920 -681 c257 -125 617 -259 790 -293 124 -24 122 -23 198 -107 130 -144 158 -202 191 -393 11 -66 34 -167 51 -225 71 -236 42 -433 -92 -628 -130 -190 -414 -369 -741 -468 -717 -216 -1560 -135 -1962 190 -87 70 -154 148 -204 237 l-31 56 40 27 c22 14 40 28 40 30 0 2 -19 -1 -42 -6 -73 -17 -207 -4 -273 26 -162 74 -266 251 -235 400 21 101 105 179 207 193 l38 5 37 -79 c66 -140 274 -377 355 -404 34 -11 38 -10 56 12 12 15 17 32 13 49 -34 156 -46 224 -46 275 0 56 5 68 61 165 228 389 304 588 334 878 4 34 8 62 10 62 2 0 45 -29 96 -64 141 -96 417 -229 589 -284 202 -65 339 -86 570 -86 229 -1 338 22 355 74 12 38 -12 57 -132 104 -65 25 -143 62 -173 83 -61 41 -230 205 -230 223 0 6 3 10 8 8 4 -2 59 -29 122 -60z m409 -2295 c103 -130 215 -379 240 -533 12 -72 14 -153 5 -163 -3 -3 -25 17 -47 45 -57 70 -107 108 -168 128 l-52 18 29 15 c16 8 49 18 74 22 l45 8 -39 11 c-36 10 -37 12 -20 27 11 9 28 21 39 27 42 24 -16 13 -65 -12 l-48 -24 5 92 c4 60 2 100 -5 112 -10 17 -12 15 -12 -16 -2 -72 -15 -74 -33 -3 -22 83 -58 185 -64 179 -2 -2 5 -59 17 -127 11 -68 23 -157 27 -197 5 -67 4 -75 -17 -97 -13 -14 -26 -25 -30 -25 -3 0 -19 70 -35 155 -25 136 -27 162 -17 206 7 28 12 86 12 129 l0 79 33 10 c56 16 63 13 126 -66z m-1464 34 c17 -9 46 -30 65 -47 62 -54 264 -215 305 -243 22 -15 48 -27 57 -27 10 0 18 -6 18 -13 0 -7 7 -67 15 -132 8 -66 17 -136 19 -156 l4 -36 -47 23 c-75 35 -142 131 -183 257 -32 100 -56 152 -43 92 6 -29 5 -28 -40 20 l-46 50 37 -75 c47 -95 89 -216 70 -201 -8 7 -38 14 -67 17 l-54 6 61 -31 c33 -17 69 -40 79 -51 18 -20 17 -20 -33 -20 -64 0 -76 -15 -17 -23 42 -6 177 -68 220 -101 20 -15 20 -15 -1 -30 -42 -30 -134 -163 -187 -273 -30 -61 -57 -118 -59 -125 -7 -20 -141 51 -220 116 -134 111 -221 271 -243 446 -10 80 10 231 45 338 37 114 61 162 105 211 32 35 38 38 72 31 21 -3 52 -14 68 -23z m1250 -6 c6 -21 5 -93 -2 -128 -4 -16 -12 -23 -29 -23 -13 0 -24 4 -24 8 0 14 -48 32 -67 25 -18 -7 -19 -10 34 74 41 65 76 82 88 44z m-1060 -15 c39 -8 91 -17 117 -20 36 -5 63 -18 112 -55 35 -27 78 -57 95 -67 17 -10 31 -21 31 -24 0 -3 -15 -11 -34 -18 -18 -7 -41 -21 -51 -32 -24 -26 -28 -26 -83 12 -76 52 -274 218 -261 218 2 0 36 -6 74 -14z m904 -38 c-40 -69 -37 -66 -92 -77 -44 -8 -47 -7 -35 9 7 9 27 35 43 58 27 37 62 58 102 61 7 1 -1 -21 -18 -51z m-176 -28 c-45 -57 -50 -60 -92 -60 -43 0 -48 3 -154 90 -4 4 34 8 85 9 74 2 191 13 206 20 1 0 -19 -26 -45 -59z m-1183 42 c0 -21 -30 -44 -89 -67 -86 -33 -139 -66 -181 -111 -19 -21 -26 -31 -15 -22 43 35 218 108 230 96 2 -2 -3 -17 -10 -35 -11 -25 -29 -39 -87 -66 -145 -68 -264 -182 -338 -324 l-32 -62 -49 25 c-50 25 -129 95 -129 114 0 5 15 16 33 23 46 20 127 90 211 184 92 103 155 156 231 193 91 45 225 76 225 52z m869 -39 c14 -13 41 -33 59 -44 41 -26 41 -36 -3 -41 -35 -4 -56 8 -196 106 -14 10 -5 11 49 8 52 -4 71 -10 91 -29z m555 -120 c8 -26 44 -281 52 -366 l7 -74 -37 -33 c-20 -18 -41 -48 -47 -65 -7 -18 -26 -41 -42 -50 -17 -10 -47 -33 -67 -51 l-37 -34 -39 19 c-21 10 -65 24 -96 31 -41 9 -62 20 -74 37 -8 14 -44 37 -79 53 -57 26 -64 32 -69 62 -2 18 -12 87 -20 153 -9 66 -24 154 -35 195 -11 41 -18 76 -17 78 18 18 357 59 503 61 79 1 92 -1 97 -16z m90 -85 c4 -39 14 -108 22 -152 16 -90 18 -156 6 -156 -7 0 -63 330 -62 368 0 6 6 12 14 12 9 0 15 -21 20 -72z m-707 -15 c1 -27 9 -93 17 -148 28 -186 31 -245 13 -245 -9 0 -18 4 -21 8 -3 5 -17 97 -32 206 -27 193 -27 197 -8 211 28 21 29 19 31 -32z m-913 -49 c-5 -27 -20 -50 -57 -83 -59 -55 -97 -104 -73 -95 9 3 16 9 16 13 0 4 16 15 36 24 l35 17 -43 -57 c-65 -85 -138 -212 -138 -239 0 -3 44 47 98 109 l97 114 3 -105 c2 -91 0 -111 -19 -151 -12 -25 -23 -64 -25 -85 -2 -29 -10 -46 -31 -63 -106 -88 -232 -119 -332 -81 l-24 9 21 22 c36 38 62 113 83 235 26 158 72 255 164 340 56 53 181 129 193 118 2 -2 0 -21 -4 -42z m1874 -280 c28 -14 70 -47 93 -72 48 -55 109 -174 109 -215 0 -40 -25 -94 -68 -145 -20 -24 -44 -54 -53 -65 -16 -20 -17 -19 -28 33 -16 75 -67 166 -127 225 -52 53 -147 105 -189 105 -14 0 -25 4 -25 8 0 12 114 123 142 138 36 21 90 16 146 -12z m-854 -167 c42 -20 76 -38 76 -40 0 -2 -24 -40 -53 -83 -29 -44 -76 -127 -104 -184 -66 -135 -87 -155 -161 -155 -41 0 -73 8 -116 28 l-59 27 6 50 c12 96 129 308 209 375 27 23 39 27 79 23 26 -3 81 -21 123 -41z m-881 -127 c22 -30 52 -68 66 -84 l26 -28 -25 7 c-67 20 -162 81 -180 115 -8 14 -6 29 5 56 8 20 15 48 15 63 0 22 4 18 26 -24 15 -28 44 -75 67 -105z m1522 76 c82 -35 195 -175 195 -243 0 -103 -234 -209 -353 -159 -37 15 -38 16 -30 53 15 71 7 142 -25 205 l-29 59 31 31 c61 62 143 82 211 54z m-396 -75 c63 -33 124 -127 123 -193 -1 -38 -19 -108 -28 -108 -3 0 -14 9 -26 20 -59 54 -217 77 -308 45 -24 -8 -45 -13 -47 -11 -11 11 94 189 140 239 32 33 89 37 146 8z m-1219 -92 c23 -11 86 -32 139 -45 60 -15 122 -39 165 -64 38 -22 73 -40 77 -40 5 0 9 -4 9 -9 0 -15 -104 -24 -194 -18 -128 8 -249 60 -262 112 -5 20 11 85 20 85 1 0 22 -9 46 -21z m2330 -114 c30 -15 63 -50 80 -85 12 -24 12 -24 -14 3 -34 37 -85 57 -143 57 -123 0 -222 -106 -269 -289 -21 -83 -16 -250 8 -298 21 -41 8 -42 -26 -3 -32 38 -41 83 -40 190 2 167 79 338 181 402 75 45 161 54 223 23z m-391 -132 c-28 -56 -56 -128 -64 -168 -19 -93 -19 -235 0 -282 8 -20 14 -37 13 -39 -4 -4 -325 53 -398 71 l-65 16 5 85 5 85 70 31 c83 37 160 87 246 163 39 33 73 55 87 55 32 0 85 26 113 56 41 43 38 26 -12 -73z m396 49 c44 -27 92 -80 104 -114 6 -15 9 -68 8 -116 -3 -108 -35 -187 -105 -255 -66 -64 -115 -87 -184 -87 -101 0 -138 55 -138 207 0 169 73 323 175 369 43 19 105 17 140 -4z m-2271 -29 c80 -22 257 -22 351 -1 42 9 71 12 74 6 14 -40 207 -115 265 -104 20 4 27 2 23 -7 -65 -147 -82 -228 -74 -352 3 -44 12 -99 21 -122 8 -24 14 -43 13 -43 -19 0 -230 68 -312 101 -232 92 -359 211 -405 379 -14 49 -29 160 -22 160 2 0 32 -8 66 -17z m1136 -14 c22 -13 47 -34 56 -47 l17 -25 -32 22 c-50 36 -126 52 -181 39 -104 -25 -162 -76 -206 -180 -50 -119 -53 -310 -5 -408 23 -48 13 -52 -23 -9 -61 72 -73 255 -27 401 60 188 255 289 401 207z m-1 -75 c95 -48 138 -139 129 -278 -10 -155 -104 -269 -243 -295 -72 -13 -121 -2 -158 36 -52 56 -76 175 -58 293 33 213 177 320 330 244z m356 -8 l59 0 -89 -43 c-49 -24 -93 -43 -99 -43 -6 0 -18 23 -27 51 l-16 51 56 -9 c31 -4 83 -8 116 -7z"/>
<path d="M3843 6713 c-29 -3 -43 -9 -43 -19 0 -11 15 -14 68 -14 83 0 112 7 105 26 -5 14 -33 15 -130 7z"/>
<path d="M4030 6706 c0 -9 18 -15 53 -20 85 -10 97 -8 97 14 0 18 -7 20 -75 20 -57 0 -75 -3 -75 -14z"/>
<path d="M4230 6700 c0 -13 11 -17 73 -25 37 -5 47 -3 47 8 0 8 -7 18 -16 21 -26 10 -104 7 -104 -4z"/>
<path d="M3626 6687 c-27 -7 -51 -18 -54 -26 -4 -11 8 -13 68 -7 85 9 100 13 100 32 0 17 -44 17 -114 1z"/>
<path d="M4392 6678 c5 -13 102 -32 122 -24 6 2 -6 11 -26 20 -45 19 -102 22 -96 4z"/>
<path d="M3420 6653 c-64 -11 -100 -25 -100 -39 0 -11 9 -13 43 -7 88 14 141 29 145 41 4 12 -33 14 -88 5z"/>
<path d="M3136 6590 c-116 -37 -102 -63 16 -31 95 25 135 51 78 50 -19 0 -61 -9 -94 -19z"/>
<path d="M2865 6515 c-38 -14 -71 -25 -72 -25 -2 0 -3 -7 -3 -15 0 -20 15 -19 96 9 96 33 104 37 104 47 0 16 -54 9 -125 -16z"/>
<path d="M2601 6422 c-61 -26 -90 -52 -57 -52 26 0 148 48 165 64 14 15 13 16 -14 16 -17 0 -59 -13 -94 -28z"/>
<path d="M2408 6338 c-49 -21 -70 -56 -25 -42 40 12 97 44 97 54 0 15 -20 12 -72 -12z"/>
<path d="M2219 6258 c-63 -33 -86 -58 -52 -58 24 1 136 62 141 78 6 20 -23 14 -89 -20z"/>
<path d="M2047 6166 c-49 -29 -61 -42 -53 -55 4 -6 30 4 66 26 33 19 57 39 54 44 -8 13 -25 10 -67 -15z"/>
<path d="M1898 6083 c-45 -25 -64 -53 -35 -53 21 1 108 60 102 70 -9 14 -14 13 -67 -17z"/>
<path d="M1758 5995 c-38 -26 -53 -43 -45 -52 9 -9 107 49 107 64 0 19 -20 15 -62 -12z"/>
<path d="M1624 5904 c-58 -39 -134 -105 -134 -115 0 -27 78 20 158 94 54 51 39 64 -24 21z"/>
<path d="M1390 5706 c-68 -53 -106 -94 -97 -103 11 -10 46 13 112 72 42 37 57 57 50 64 -7 7 -27 -3 -65 -33z"/>
<path d="M1189 5522 c-101 -114 -123 -145 -117 -163 4 -11 140 139 161 176 17 31 -13 22 -44 -13z"/>
<path d="M2739 5100 c-80 -27 -123 -88 -85 -119 11 -10 26 -6 67 15 43 21 62 25 106 22 46 -4 56 -2 65 15 8 16 5 24 -14 43 -38 38 -77 45 -139 24z"/>
<path d="M4225 4865 c-52 -20 -97 -65 -128 -128 -35 -72 -36 -201 -2 -274 62 -134 193 -199 306 -150 44 19 105 80 131 131 65 127 7 329 -116 401 -56 33 -135 41 -191 20z"/>
<path d="M2820 4711 c-120 -37 -214 -190 -195 -318 9 -61 54 -150 97 -192 54 -53 85 -65 177 -68 76 -2 90 1 134 25 97 53 147 143 147 266 0 166 -122 297 -275 295 -33 0 -71 -4 -85 -8z"/>
<path d="M1588 4214 c-36 -19 -37 -37 -1 -23 14 5 39 7 54 4 l27 -6 -24 -42 c-26 -47 -30 -93 -10 -119 18 -24 25 -23 19 2 -12 45 49 126 85 113 42 -15 62 -45 62 -95 0 -27 5 -59 12 -71 11 -21 13 -20 20 18 23 110 22 118 -14 157 -64 72 -164 98 -230 62z"/>
<path d="M3907 4193 c-4 -3 -7 -30 -7 -59 0 -43 -4 -56 -22 -68 -32 -23 -49 -20 -94 14 -49 37 -60 37 -78 3 -17 -34 -54 -69 -82 -77 -26 -8 -58 25 -76 79 -10 32 -19 41 -39 43 -22 3 -27 -2 -32 -24 -12 -63 45 -154 106 -170 45 -11 98 5 134 41 l33 33 40 -20 c96 -48 205 39 187 149 -3 19 -11 41 -18 49 -12 15 -41 19 -52 7z"/>
<path d="M3680 2818 c-12 -14 -20 -35 -20 -58 0 -73 80 -108 128 -57 28 29 28 60 1 103 -17 28 -27 34 -54 34 -22 0 -41 -8 -55 -22z m70 -43 c9 -11 10 -19 2 -27 -14 -14 -32 -1 -32 23 0 23 13 25 30 4z"/>
<path d="M3261 2774 c-25 -31 -26 -55 -6 -93 33 -66 134 -51 137 20 2 43 -2 55 -22 77 -30 32 -82 30 -109 -4z m72 -30 c9 -10 -4 -34 -19 -34 -16 0 -16 2 -8 24 6 17 16 20 27 10z"/>
</g>
</svg>