<svg  viewBox="0 0 19 17" xmlns="http://www.w3.org/2000/svg">
<path d="M9.74885 16.9351L8.69627 16.0091C7.11555 14.6057 5.80837 13.3997 4.77471 12.3911C3.74107 11.3825 2.92198 10.4849 2.31745 9.69819C1.7129 8.91153 1.29052 8.19396 1.0503 7.5455C0.81006 6.89703 0.689941 6.23899 0.689941 5.57138C0.689941 4.24693 1.14625 3.13813 2.05887 2.24499C2.97148 1.35185 4.10445 0.905273 5.45778 0.905273C6.29032 0.905273 7.07702 1.09582 7.81787 1.4769C8.55871 1.85797 9.20237 2.40444 9.74885 3.11632C10.2953 2.40444 10.939 1.85797 11.6798 1.4769C12.4207 1.09582 13.2074 0.905273 14.0399 0.905273C15.3933 0.905273 16.5262 1.35185 17.4388 2.24499C18.3515 3.13813 18.8078 4.24693 18.8078 5.57138C18.8078 6.23899 18.6876 6.89703 18.4474 7.5455C18.2072 8.19396 17.7848 8.91153 17.1803 9.69819C16.5757 10.4849 15.7582 11.3825 14.7276 12.3911C13.697 13.3997 12.3883 14.6057 10.8014 16.0091L9.74885 16.9351ZM9.74885 15.0436C11.2746 13.7 12.5301 12.5484 13.5155 11.5889C14.5008 10.6293 15.2796 9.79572 15.8517 9.08803C16.4239 8.38033 16.8212 7.7519 17.0437 7.20272C17.2662 6.65355 17.3774 6.10977 17.3774 5.57138C17.3774 4.63815 17.0596 3.86046 16.4239 3.23831C15.7881 2.61616 14.9935 2.30509 14.0399 2.30509C13.2868 2.30509 12.5909 2.51417 11.9521 2.93233C11.3134 3.35048 10.8076 3.93225 10.4347 4.67765H9.06302C8.68404 3.92628 8.17669 3.34301 7.54097 2.92783C6.90526 2.51267 6.21086 2.30509 5.45778 2.30509C4.51032 2.30509 3.71721 2.61616 3.07842 3.23831C2.43966 3.86046 2.12028 4.63815 2.12028 5.57138C2.12028 6.10977 2.23153 6.65355 2.45403 7.20272C2.67653 7.7519 3.07385 8.38033 3.64599 9.08803C4.21813 9.79572 4.99688 10.6278 5.98224 11.5844C6.9676 12.541 8.22314 13.694 9.74885 15.0436Z" />
</svg>
