<?xml version="1.0" standalone="no"?>
<!DOCTYPE svg PUBLIC "-//W3C//DTD SVG 20010904//EN"
 "http://www.w3.org/TR/2001/REC-SVG-20010904/DTD/svg10.dtd">
<svg version="1.0" xmlns="http://www.w3.org/2000/svg"
  viewBox="0 0 517.000000 807.000000"
 preserveAspectRatio="xMidYMid meet">

<g transform="translate(0.000000,807.000000) scale(0.100000,-0.100000)"
>
<path d="M2085 8040 c-112 -24 -189 -51 -285 -101 -191 -99 -359 -274 -446
-464 -30 -64 -31 -64 -147 -33 -117 32 -354 32 -477 0 -178 -46 -310 -117
-432 -231 -95 -89 -153 -168 -207 -282 -64 -133 -76 -191 -76 -364 0 -136 3
-157 27 -225 107 -302 339 -495 640 -533 l103 -13 2 -39 c1 -22 7 -134 14
-250 l12 -210 -42 -89 c-126 -269 -167 -478 -158 -793 8 -272 51 -444 172
-688 91 -182 175 -296 337 -457 76 -75 138 -143 138 -150 -1 -7 -28 -33 -62
-58 -160 -118 -323 -310 -408 -480 -92 -185 -124 -319 -123 -520 0 -147 18
-241 69 -356 39 -88 127 -216 187 -270 55 -49 176 -114 214 -114 l22 0 3 -289
c3 -276 4 -291 24 -318 12 -15 39 -35 60 -42 48 -18 50 -21 58 -85 4 -28 20
-111 36 -184 17 -73 30 -143 30 -155 -1 -14 -13 -29 -33 -42 -18 -11 -40 -37
-50 -57 -16 -32 -16 -40 -4 -70 29 -68 42 -73 210 -76 260 -6 359 19 449 110
81 83 125 207 168 476 l12 72 131 0 c73 1 213 2 312 3 l180 2 7 -40 c71 -373
97 -446 189 -529 82 -74 132 -87 350 -94 207 -5 243 1 284 49 39 47 34 84 -20
136 -25 23 -45 51 -45 62 0 10 16 83 34 162 19 79 38 167 42 195 l6 52 57 6
c60 7 102 28 129 67 14 20 18 58 22 229 l5 205 75 5 c88 7 164 43 207 98 21
28 110 212 171 355 6 15 17 29 24 31 118 34 208 108 254 208 51 113 35 255
-42 369 -19 28 -34 56 -34 63 0 6 15 38 33 71 l32 60 80 5 c140 10 260 72 355
185 84 100 200 383 200 487 0 125 -51 239 -150 338 -101 102 -195 139 -348
140 -213 0 -362 -112 -491 -369 -121 -240 -104 -447 52 -617 26 -28 47 -55 47
-59 0 -19 -54 -125 -64 -125 -6 0 -24 28 -41 62 -100 206 -307 441 -517 588
-60 42 -108 82 -108 91 0 9 45 61 101 115 327 320 500 708 516 1155 10 294
-40 534 -167 798 -80 164 -76 129 -63 494 6 193 7 197 28 197 43 0 182 42 251
76 192 94 337 284 395 514 18 72 21 103 16 210 -10 238 -96 430 -269 602 -170
170 -382 264 -623 275 -139 6 -263 -11 -372 -53 -111 -42 -106 -43 -140 18
-102 179 -305 354 -501 431 -146 57 -205 68 -377 73 -132 3 -176 0 -250 -16z
m445 -230 c227 -63 423 -229 531 -447 48 -98 85 -143 116 -143 8 0 58 23 111
50 411 213 881 63 1058 -336 54 -123 71 -303 38 -415 -54 -183 -198 -326 -378
-372 -53 -14 -58 -14 -62 1 -24 75 -55 97 -131 93 -12 0 -33 -13 -46 -27 -28
-30 -36 -73 -38 -219 -1 -55 -3 -103 -5 -107 -2 -3 -44 11 -92 31 -48 21 -117
49 -154 62 l-68 24 0 188 c0 231 -9 256 -96 257 -31 0 -46 -6 -65 -26 -23 -25
-24 -32 -28 -195 -1 -93 -6 -169 -11 -169 -4 0 -61 11 -126 24 -66 13 -167 30
-226 36 l-107 13 -3 169 -3 170 -28 24 c-39 34 -95 33 -128 -2 -23 -25 -24
-32 -27 -190 l-4 -164 -66 6 c-121 11 -525 -26 -678 -61 -21 -5 -22 -2 -26
131 l-4 136 -33 30 c-28 25 -39 29 -70 24 -21 -3 -45 -16 -58 -31 -22 -25 -23
-35 -23 -181 0 -115 -3 -156 -12 -158 -7 -2 -75 -23 -150 -45 -123 -37 -394
-147 -426 -173 -7 -6 -15 -9 -17 -6 -3 2 -9 67 -15 143 -10 149 -20 178 -68
196 -62 24 -128 -20 -136 -91 -2 -19 -8 -36 -15 -38 -27 -9 -151 22 -220 55
-96 46 -202 150 -249 245 -87 177 -78 390 25 568 55 94 181 215 279 267 214
113 473 119 724 17 33 -13 71 -24 86 -24 39 0 79 47 99 115 24 85 76 179 149
272 128 162 299 257 522 293 90 14 267 4 354 -20z m140 -1891 c154 -11 333
-36 483 -70 119 -26 370 -110 475 -160 l82 -38 0 -81 0 -81 -31 16 c-55 29
-284 113 -375 138 -257 72 -478 105 -759 114 -526 16 -965 -71 -1409 -281 -65
-31 -120 -56 -122 -56 -2 0 -4 37 -4 83 l0 83 113 53 c461 220 1006 319 1547
280z m30 -389 c123 -11 314 -40 331 -51 16 -9 -18 -50 -86 -105 -226 -183
-541 -278 -814 -246 -107 13 -226 48 -359 107 -114 51 -130 47 -235 -57 -129
-128 -252 -200 -391 -230 -49 -10 -231 -7 -243 5 -3 4 14 49 38 101 l44 94
130 69 c228 119 390 183 606 237 125 31 350 68 474 79 88 8 406 6 505 -3z
m671 -139 c51 -17 214 -88 326 -141 49 -24 54 -30 101 -126 104 -210 152 -415
152 -649 0 -74 -5 -168 -11 -210 -27 -200 -127 -446 -250 -619 -105 -147 -301
-337 -445 -428 -55 -35 -210 -113 -276 -138 -290 -111 -674 -132 -983 -54
-168 43 -393 144 -511 231 -36 26 -78 56 -93 65 -45 30 -210 199 -267 275
-193 255 -293 557 -294 885 0 99 16 247 29 260 3 4 24 2 46 -4 60 -17 219 -15
301 5 150 35 330 134 443 242 l56 54 70 -30 c108 -46 223 -77 337 -89 226 -25
526 29 733 132 74 37 213 129 239 157 28 31 41 26 56 -21 41 -138 141 -274
253 -345 121 -76 297 -83 349 -12 57 76 -1 159 -111 159 -104 0 -214 89 -276
225 -28 59 -55 152 -55 185 0 15 20 12 81 -9z m1416 -2048 c66 -33 126 -97
147 -160 17 -51 21 -113 7 -113 -5 0 -109 43 -232 96 -123 53 -230 98 -236
101 -31 13 -1 46 76 84 58 29 169 26 238 -8z m-146 -282 c139 -60 255 -113
257 -119 4 -14 -43 -107 -54 -105 -8 2 -347 144 -456 192 -27 11 -48 27 -48
35 0 16 37 106 43 106 3 0 118 -49 258 -109z m-3089 -173 c-1 -35 -6 -151 -12
-258 -5 -107 -12 -327 -16 -487 -4 -161 -10 -293 -14 -293 -4 0 -12 17 -18 38
-12 37 -52 88 -88 108 -18 11 -19 24 -19 243 0 230 0 232 -24 257 -55 58 -123
33 -156 -56 -28 -79 -29 -384 -2 -445 22 -47 34 -34 -133 -137 -141 -86 -136
-84 -143 -56 -3 13 -16 50 -28 83 -32 84 -32 292 -1 408 61 224 206 425 457
636 l97 80 51 -29 52 -30 -3 -62z m1959 21 c99 -69 215 -175 293 -268 70 -84
155 -210 176 -261 12 -29 12 -33 -6 -43 -10 -5 -39 -31 -64 -57 -78 -81 -107
-209 -76 -330 16 -63 16 -65 -6 -112 -13 -26 -26 -48 -29 -48 -4 0 -9 82 -12
183 -7 260 -43 445 -97 498 -46 47 -128 33 -149 -25 -5 -12 1 -83 15 -176 27
-183 51 -653 56 -1100 l3 -295 -824 -3 -824 -2 6 287 c4 159 10 424 14 591 l6
302 512 0 c282 0 573 3 648 7 l135 6 6 -54 c3 -30 19 -227 36 -439 17 -212 35
-409 40 -439 13 -73 40 -101 96 -101 35 0 47 5 69 32 25 30 27 37 21 93 -14
134 -57 710 -76 1018 -19 302 -41 587 -56 730 -4 34 -3 57 3 57 5 0 43 -23 84
-51z m-287 24 c13 -42 61 -655 54 -675 -5 -11 -124 -13 -643 -10 l-637 2 7
268 c4 147 9 269 11 271 2 2 54 -4 116 -13 142 -20 369 -21 504 -1 138 21 329
74 461 129 59 25 111 45 115 45 4 1 9 -7 12 -16z m1156 -33 c38 -19 151 -66
295 -125 50 -20 94 -40 99 -45 14 -14 -44 -59 -97 -75 -177 -53 -355 58 -375
232 -5 44 -4 45 19 38 13 -4 40 -15 59 -25z m-2581 -41 c32 -11 32 -12 27 -63
-3 -28 -11 -244 -16 -481 -26 -1084 -30 -1266 -30 -1352 l0 -93 -49 0 -49 0 4
118 c2 64 9 335 14 602 11 508 25 950 36 1158 7 131 7 130 63 111z m2438 -680
c62 -23 123 -106 123 -169 0 -44 -27 -97 -64 -125 -28 -21 -46 -26 -89 -26
-69 0 -109 20 -145 73 -37 57 -39 147 -3 197 39 54 112 75 178 50z m-2893
-439 c30 -75 16 -133 -44 -183 -62 -53 -158 -43 -232 23 l-42 37 49 33 c57 39
225 130 241 130 7 0 19 -18 28 -40z m2683 -58 l32 -27 -58 -128 c-33 -71 -62
-131 -65 -134 -6 -6 -86 26 -86 35 0 2 23 52 51 111 28 58 58 121 65 139 8 17
18 32 22 32 4 0 22 -13 39 -28z m-2525 -504 c-2 -156 -5 -289 -7 -295 -3 -9
-27 -13 -71 -13 l-66 0 4 237 c3 223 5 237 23 247 11 6 40 32 65 58 25 25 47
47 50 47 3 1 4 -126 2 -281z m408 -532 c0 -27 -40 -243 -51 -277 -17 -51 -57
-99 -95 -115 -19 -8 -67 -14 -111 -14 l-78 0 -19 98 c-42 222 -56 298 -56 310
0 9 48 12 205 12 167 0 205 -3 205 -14z m1477 -3 c-3 -10 -22 -107 -43 -215
l-39 -198 -35 0 c-74 1 -159 19 -189 41 -16 12 -39 43 -50 69 -17 40 -71 274
-71 309 0 8 63 11 216 11 200 0 215 -1 211 -17z"/>
<path d="M1561 4479 c-87 -35 -137 -118 -129 -214 20 -234 358 -249 409 -18
10 45 10 59 -6 100 -34 91 -106 143 -197 142 -29 0 -64 -5 -77 -10z"/>
<path d="M3125 4471 c-54 -25 -90 -66 -109 -126 -31 -96 8 -192 97 -241 157
-85 347 57 303 226 -34 130 -171 197 -291 141z"/>
<path d="M2171 4196 c-47 -26 -53 -92 -16 -165 28 -56 66 -91 133 -123 72 -33
207 -31 283 4 147 68 215 233 117 284 -48 25 -85 10 -120 -46 -39 -63 -82 -84
-155 -77 -62 7 -72 13 -110 72 -39 62 -82 79 -132 51z"/>
<path d="M2162 1949 c-76 -22 -95 -135 -33 -191 46 -41 98 -39 145 6 31 28 36
40 36 77 0 65 -23 93 -95 112 -11 3 -35 1 -53 -4z"/>
<path d="M2143 1184 c-66 -33 -80 -128 -25 -179 38 -36 81 -41 129 -16 91 46
79 163 -20 200 -37 14 -46 14 -84 -5z"/>
</g>
</svg>
