<svg xmlns="http://www.w3.org/2000/svg" width="512" height="512" viewBox="0 0 512 512" version="1.1"><path d="M 352 1.411 C 328.519 5.565, 308.961 13.802, 290.719 27.220 C 285.703 30.909, 265.436 50.261, 238.707 76.882 C 189.800 125.594, 189 126.585, 189 138.500 C 189 143.406, 189.637 145.955, 192.089 150.863 C 199 164.692, 214.480 170.047, 228.712 163.532 C 233.669 161.262, 240.543 154.848, 278.482 117.091 C 302.692 92.997, 324.525 71.929, 327 70.275 C 334.309 65.388, 343.372 61.172, 351.701 58.786 C 362.910 55.575, 384.090 55.575, 395.299 58.786 C 423.137 66.762, 445.177 88.741, 453.176 116.500 C 455.092 123.150, 455.481 126.863, 455.481 138.500 C 455.481 155.194, 453.545 163.336, 446.209 177.500 C 441.661 186.282, 440.452 187.604, 396.301 232.070 C 357.487 271.161, 350.683 278.451, 348.445 283.340 C 341.954 297.518, 347.331 313.012, 361.137 319.911 C 366.045 322.363, 368.594 323, 373.500 323 C 385.481 323, 386.335 322.308, 436.039 272.289 C 484.060 223.965, 489.038 218.119, 498.014 199.500 C 503.683 187.741, 507.167 177.737, 509.680 166 C 512.258 153.962, 512.259 123.052, 509.683 111 C 503.867 83.789, 491.035 60.152, 471.441 40.559 C 451.917 21.035, 429.274 8.803, 401 2.507 C 390.882 0.254, 362.168 -0.388, 352 1.411 M 324.885 151.329 C 322.897 152.067, 319.972 153.616, 318.385 154.769 C 312.635 158.951, 154.152 318.593, 152.369 322 C 151.017 324.582, 150.532 327.728, 150.519 334 C 150.497 343.735, 152.148 348.148, 158 354 C 163.840 359.840, 168.267 361.500, 178 361.500 C 185.438 361.500, 187.062 361.165, 191 358.816 C 196.659 355.440, 357.114 194.810, 359.631 190 C 362.284 184.931, 362.228 170.968, 359.533 165.533 C 357.006 160.436, 351.507 154.954, 346.467 152.509 C 341.487 150.092, 329.918 149.459, 324.885 151.329 M 126.394 191.961 C 121.397 194.458, 113.500 201.935, 75.961 239.711 C 27.940 288.035, 22.962 293.881, 13.986 312.500 C 8.317 324.259, 4.833 334.263, 2.320 346 C -0.258 358.038, -0.259 388.948, 2.317 401 C 8.133 428.211, 20.965 451.848, 40.559 471.441 C 60.371 491.253, 83.190 503.461, 112.024 509.674 C 123.983 512.250, 153.017 512.250, 164.976 509.674 C 185.328 505.289, 203.609 497.427, 219.334 486.298 C 224.843 482.399, 242.071 466.044, 272.289 436.025 C 322.309 386.335, 323 385.483, 323 373.500 C 323 368.594, 322.363 366.045, 319.911 361.137 C 313 347.308, 297.520 341.953, 283.288 348.468 C 278.331 350.738, 271.457 357.152, 233.518 394.909 C 209.308 419.003, 187.475 440.071, 185 441.725 C 177.691 446.612, 168.628 450.828, 160.299 453.214 C 149.090 456.425, 127.910 456.425, 116.701 453.214 C 88.863 445.238, 66.823 423.259, 58.824 395.500 C 56.908 388.850, 56.519 385.137, 56.519 373.500 C 56.519 356.806, 58.455 348.664, 65.791 334.500 C 70.339 325.718, 71.548 324.396, 115.699 279.930 C 154.513 240.839, 161.317 233.549, 163.555 228.660 C 170.046 214.482, 164.669 198.988, 150.863 192.089 C 142.338 187.829, 134.742 187.790, 126.394 191.961"  fill-rule="evenodd"/></svg>