<?xml version="1.0" standalone="no"?>
<!DOCTYPE svg PUBLIC "-//W3C//DTD SVG 20010904//EN"
 "http://www.w3.org/TR/2001/REC-SVG-20010904/DTD/svg10.dtd">
<svg version="1.0" xmlns="http://www.w3.org/2000/svg"
 width="149.000000pt" height="124.000000pt" viewBox="0 0 149.000000 124.000000"
 preserveAspectRatio="xMidYMid meet">

<g transform="translate(0.000000,124.000000) scale(0.100000,-0.100000)"
 stroke="none">
<path d="M590 1227 c-105 -30 -205 -107 -251 -193 -13 -24 -25 -32 -55 -36
-93 -13 -200 -93 -243 -181 -28 -58 -44 -150 -36 -206 15 -108 86 -210 178
-257 l47 -24 0 -59 c0 -49 4 -65 25 -90 14 -16 36 -33 47 -37 30 -9 57 -44 58
-74 0 -34 10 -47 44 -60 43 -16 116 9 116 40 0 28 -38 68 -70 75 -16 4 -32 10
-35 15 -10 16 24 141 52 192 21 38 31 48 52 48 26 0 107 20 146 35 20 8 20 8
2 -13 -10 -11 -17 -29 -15 -39 3 -16 14 -18 98 -18 81 0 103 4 152 27 36 16
55 21 52 13 -15 -38 39 -22 88 27 l22 22 48 -53 c56 -61 118 -177 118 -220 0
-24 -5 -29 -32 -35 -43 -8 -68 -33 -68 -66 0 -71 122 -78 151 -9 9 23 9 42 0
82 -6 29 -18 84 -26 122 -31 138 -33 143 -69 155 -65 21 -106 85 -106 166 0
61 22 110 62 134 137 83 242 -135 136 -282 -11 -15 -4 -44 41 -180 29 -90 57
-167 62 -172 19 -21 16 3 -12 84 -33 97 -35 116 -14 124 45 17 69 122 44 193
-9 26 -7 36 15 68 14 20 35 62 47 93 57 152 -33 344 -195 419 -52 24 -75 28
-153 29 l-92 1 -55 51 c-34 31 -78 59 -114 72 -70 27 -198 35 -262 17z m237
-29 c54 -18 80 -34 125 -78 l57 -55 103 0 c92 0 108 -3 153 -26 66 -35 130
-101 162 -168 21 -43 27 -69 27 -130 1 -65 -3 -85 -29 -136 -17 -32 -35 -61
-41 -62 -10 -3 -37 45 -64 115 -15 40 -59 78 -100 87 -41 9 -45 20 -20 56 12
16 19 33 16 36 -6 6 -18 -7 -47 -49 -3 -5 -42 3 -86 18 l-81 26 15 35 c8 19
12 40 10 46 -3 7 -13 -7 -23 -31 l-19 -43 -138 0 c-82 0 -144 4 -151 10 -7 6
-19 29 -26 51 -7 22 -17 40 -22 40 -13 0 -10 -18 12 -62 11 -23 18 -43 16 -45
-4 -5 -166 -54 -197 -60 -18 -3 -38 5 -73 32 -26 20 -50 34 -53 31 -9 -9 9
-28 54 -56 44 -28 44 -29 21 -40 -13 -7 -45 -30 -71 -52 -49 -41 -73 -45 -129
-23 -11 4 -18 3 -18 -4 0 -6 20 -16 45 -22 l44 -11 -20 -39 c-19 -38 -21 -39
-70 -39 -31 0 -48 -4 -44 -10 3 -5 26 -10 51 -10 50 0 53 -7 29 -63 -10 -25
-20 -35 -30 -31 -8 4 -15 1 -15 -5 0 -6 7 -11 15 -11 10 0 15 -10 15 -30 0
-38 -14 -38 -72 0 -86 57 -130 149 -130 272 0 88 26 158 81 220 38 43 141 98
185 98 39 0 46 6 71 55 76 150 280 222 462 163z m218 -400 c39 -11 83 -27 99
-35 l30 -15 -28 -15 c-24 -13 -41 -13 -103 -4 -155 23 -345 7 -488 -42 -92
-32 -139 -56 -211 -110 -32 -25 -60 -42 -62 -37 -7 18 32 82 77 126 137 136
460 198 686 132z m44 -92 c9 -6 9 -13 -4 -33 -9 -13 -19 -43 -23 -65 l-7 -41
-96 2 c-255 5 -514 -82 -651 -220 l-58 -57 0 74 c0 89 11 113 78 176 78 73
207 132 358 163 73 15 378 16 403 1z m286 -216 c16 -45 8 -51 -22 -17 -16 16
-19 31 -16 56 6 38 13 31 38 -39z m-977 -304 c2 -60 1 -66 -17 -66 -42 0 -55
78 -20 117 12 12 25 21 28 18 4 -2 8 -33 9 -69z m63 -76 c15 0 40 -46 33 -64
-9 -22 -20 -20 -29 7 -8 22 -8 22 -12 -3 -7 -37 -23 -49 -30 -22 -4 18 -8 20
-20 10 -11 -9 -16 -9 -24 3 -5 8 -9 19 -9 26 0 17 52 55 68 48 7 -3 18 -5 23
-5z m784 -15 c28 -27 29 -33 14 -55 -8 -11 -12 -12 -16 -2 -7 19 -20 14 -26
-9 -7 -27 -27 -15 -27 17 0 13 -4 24 -10 24 -5 0 -10 -9 -10 -20 0 -11 -5 -20
-11 -20 -6 0 -9 14 -7 32 2 23 11 36 28 45 34 17 37 17 65 -12z"/>
<path d="M1135 680 c-39 -41 -46 -119 -16 -178 12 -23 30 -46 40 -52 34 -18
86 -12 107 12 l19 22 -25 -17 c-30 -21 -53 -21 -89 -3 -36 19 -51 55 -51 120
0 89 47 130 117 101 l38 -15 -24 20 c-35 30 -82 26 -116 -10z"/>
<path d="M1130 556 c0 -21 11 -46 20 -46 10 0 0 49 -11 56 -5 3 -9 -1 -9 -10z"/>
<path d="M543 299 c-44 -16 -42 -101 2 -121 32 -14 71 2 86 36 23 51 -33 105
-88 85z"/>
<path d="M1006 278 c-22 -32 -20 -55 9 -83 29 -30 54 -32 83 -5 27 25 29 71 4
93 -27 25 -78 22 -96 -5z"/>
<path d="M770 207 c0 -38 62 -50 80 -16 15 26 3 40 -14 16 -16 -21 -35 -22
-42 -2 -7 18 -24 20 -24 2z"/>
<path d="M465 160 c-11 -18 16 -41 44 -38 40 5 36 42 -6 46 -17 2 -34 -2 -38
-8z"/>
<path d="M1094 155 c-8 -21 4 -35 30 -35 27 0 51 24 41 40 -9 15 -65 12 -71
-5z"/>
</g>
</svg>
