<svg xmlns="http://www.w3.org/2000/svg" viewBox="181.16 -538.38 597.69 116.77"><path d="M239.539-421.617q-24.249 0-41.316-17.067-17.067-17.067-17.067-41.316 0-24.249 17.067-41.316 17.067-17.067 41.316-17.067 24.25 0 41.317 17.067 17.066 17.067 17.066 41.316 0 24.249-17.066 41.316-17.067 17.067-41.317 17.067Zm240.461 0q-24.249 0-41.316-17.067-17.067-17.067-17.067-41.316 0-24.249 17.067-41.316 17.067-17.067 41.316-17.067 24.249 0 41.316 17.067 17.067 17.067 17.067 41.316 0 24.249-17.067 41.316-17.067 17.067-41.316 17.067Zm240.461 0q-24.25 0-41.317-17.067-17.066-17.067-17.066-41.316 0-24.249 17.066-41.316 17.067-17.067 41.317-17.067 24.249 0 41.316 17.067 17.067 17.067 17.067 41.316 0 24.249-17.067 41.316-17.067 17.067-41.316 17.067Z"/></svg>