<svg xmlns="http://www.w3.org/2000/svg" version="1.1" viewBox="0.02 0.1 512.99 511.73"><path d="M 222 1.630 C 177.172 7.710, 134.260 25.778, 98 53.838 C 86.381 62.829, 66.428 82.457, 56.910 94.258 C 26.459 132.016, 7.604 176.267, 1.500 224.301 C -0.490 239.960, -0.469 272.322, 1.542 287.659 C 9.118 345.456, 33.765 395.791, 74.458 436.573 C 96.434 458.597, 114.915 471.891, 142.500 485.519 C 178.458 503.283, 208.996 510.758, 249.500 511.710 C 283.667 512.513, 306.330 509.201, 337.764 498.812 C 354.060 493.426, 377.101 482.700, 391 474.028 C 413.138 460.216, 441.686 434.995, 456.393 416.253 C 484.975 379.832, 503.202 337.866, 509.491 294 C 510.398 287.675, 511.559 281.118, 512.070 279.429 C 513.363 275.160, 513.298 231.698, 512 232.500 C 511.398 232.872, 511 231.554, 511 229.190 C 511 219.557, 505.394 193.478, 499.459 175.500 C 482.247 123.362, 447.656 76.869, 402.998 45.845 C 368.696 22.016, 329.771 6.931, 288.690 1.546 C 273.688 -0.421, 236.775 -0.374, 222 1.630 M 240.500 30.067 C 140.454 36.514, 55.206 110.547, 34.459 209 C 29.816 231.031, 28.594 263.094, 31.536 285.699 C 36.982 327.551, 55.887 370.580, 82.324 401.297 L 88.272 408.207 106.136 390.364 L 124 372.521 124 290.412 L 124 208.303 151.998 171.901 L 179.995 135.500 180.030 126 C 180.083 111.613, 183.310 104.071, 192.155 97.658 C 199.815 92.103, 202.740 91.876, 262.710 92.202 L 317.500 92.500 323.224 95.311 C 326.373 96.857, 330.511 99.947, 332.420 102.178 C 337.463 108.069, 339 113.566, 339 125.710 L 339 136.063 343.306 142.482 L 347.612 148.900 377.963 118.537 L 408.314 88.174 405.407 85.576 C 403.808 84.148, 398.450 79.865, 393.500 76.059 C 364.365 53.658, 330.457 38.929, 293.312 32.540 C 285.567 31.208, 256.707 28.763, 253.500 29.167 C 252.950 29.237, 247.100 29.641, 240.500 30.067 M 391.810 135.750 L 360.131 167.500 374.064 188 L 387.997 208.500 387.748 291.500 L 387.500 374.500 384.314 381 C 379.084 391.670, 371.109 398.650, 360.354 401.972 C 353.949 403.951, 351.410 404, 256 404 C 160.590 404, 158.051 403.951, 151.646 401.972 C 148.035 400.857, 143.033 398.382, 140.532 396.472 C 138.030 394.563, 135.644 393, 135.229 393 C 134.815 393, 127.593 399.894, 119.180 408.319 L 103.885 423.639 108.192 427.608 C 119.598 438.119, 139.159 451.023, 156.460 459.449 C 188.362 474.987, 220.311 482.327, 256 482.319 C 282.635 482.313, 302.108 479.221, 327 471.045 C 425.274 438.767, 489.900 342.681, 482.061 240.500 C 479.016 200.797, 466.330 163.324, 445.152 131.472 C 437.901 120.566, 425.231 104.140, 423.994 104.041 C 423.716 104.018, 409.233 118.287, 391.810 135.750 M 203.557 117.223 C 202.494 118.740, 202 121.754, 202 126.723 L 202 134 259.500 134 L 317 134 317 126.723 C 317 121.754, 316.506 118.740, 315.443 117.223 L 313.887 115 259.500 115 L 205.113 115 203.557 117.223 M 213.167 151.945 C 213.350 152.464, 221.375 164.598, 231 178.908 L 248.500 204.926 304.320 204.963 L 360.140 205 354.320 196.681 C 351.119 192.106, 342.650 179.975, 335.500 169.725 L 322.500 151.088 267.667 151.044 C 233.657 151.017, 212.960 151.359, 213.167 151.945 M 173.480 179.714 L 153.773 204.500 172.452 204.772 C 182.725 204.922, 199.144 204.922, 208.938 204.772 L 226.745 204.500 209.966 179.714 L 193.187 154.928 173.480 179.714 M 146.022 295.750 C 146.043 364.074, 146.135 367.700, 147.943 371.684 C 149.138 374.315, 151.422 376.913, 154.097 378.684 L 158.350 381.500 196.175 381.795 L 234 382.090 234 303.045 L 234 224 190 224 L 146 224 146.022 295.750 M 251 303 L 251 382 300.750 381.956 C 353.066 381.910, 355.265 381.739, 360.207 377.345 C 361.349 376.330, 363.109 373.700, 364.119 371.500 C 365.847 367.738, 365.957 363.230, 365.978 295.750 L 366 224 308.500 224 L 251 224 251 303 M 0.430 256 C 0.430 268.925, 0.573 274.212, 0.747 267.750 C 0.921 261.287, 0.921 250.712, 0.747 244.250 C 0.573 237.787, 0.430 243.075, 0.430 256" fill-rule="evenodd"/></svg>