<svg xmlns="http://www.w3.org/2000/svg" xmlns:xlink="http://www.w3.org/1999/xlink" xml:space="preserve" version="1.1" viewBox="3871.31 6054.88 12329.99 8582.93">

 <g id="Слой_x0020_1">
  <path id="non-fill-youtube.svg" class="fil0" d="M5390.4 6194.7c-1244.55,181.85 -1503.69,909.25 -1503.69,4156.58 -132.2,4954.12 481.98,4119.53 6014.56,4286.53 3059.28,0 5003.77,-103.81 5366.72,-285.66 725.89,-415.79 933.31,-1272.94 933.31,-4208.67 0,-2857.68 -362.94,-3689.08 -1711.11,-3974.73 -881.41,-155.9 -7907.34,-155.9 -9099.79,25.95zm6507.26 4130.63c25.96,25.95 -622.27,441.74 -1503.68,857.34l-1581.55 805.25 0 -1662.59 0 -1662.6 1503.69 805.26c803.75,415.79 1529.64,805.44 1581.54,857.34z"/>
 </g>
</svg>