<svg xmlns="http://www.w3.org/2000/svg" xmlns:xlink="http://www.w3.org/1999/xlink" xml:space="preserve" version="1.1" viewBox="1895.88 5722.63 15208.56 9042.96">

 <g id="Слой_x0020_1">
  <path id="non-fill-vkontakte.svg" class="fil0" d="M7979.35 5895.32c-221.23,56.96 -580.62,199.06 -801.84,256.02 -304.29,113.72 -276.53,198.86 110.61,511.64 387.15,284.4 525.31,767.65 525.31,1848.09 0,796.24 -82.86,1535.32 -193.47,1620.66 -304.29,341.16 -1216.74,-682.32 -2046.33,-2331.35l-774.28 -1535.32 -1437.75 0c-884.9,0 -1465.72,113.72 -1465.72,312.78 0,170.48 525.51,1364.64 1161.43,2615.76 1935.71,3866.66 4368.97,5828.47 6802.44,5544.28 580.61,-56.97 774.08,-256.03 829.39,-881.59 138.37,-1222.53 746.73,-1222.53 2018.77,-85.13 1023.06,995.1 1216.53,1051.85 2654.49,966.72 912.45,-56.97 1603.88,-227.44 1659.18,-426.5 82.86,-199.06 -442.44,-966.72 -1133.87,-1734.38 -691.23,-767.65 -1271.84,-1506.93 -1271.84,-1649.03 0,-142.3 553.06,-1080.44 1244.29,-2075.74 691.22,-1023.47 1244.28,-2018.57 1244.28,-2217.63 0,-255.82 -497.76,-369.54 -1742.04,-369.54l-1769.59 0 -525.51 1194.16c-635.92,1478.35 -1742.04,2843.19 -2073.88,2615.75 -138.16,-85.34 -248.77,-966.72 -248.77,-1990.4 0,-1705.79 -55.51,-1848.09 -718.98,-2103.91 -746.73,-312.78 -1382.65,-341.16 -2046.32,-85.34z"/>
 </g>
</svg>