<svg xmlns="http://www.w3.org/2000/svg" xmlns:xlink="http://www.w3.org/1999/xlink" xml:space="preserve" version="1.1" viewBox="5697.56 4897.98 8341.38 10850.88">

 <g id="Слой_x0020_1">
  <g id="_2173170392592">
   <path class="fil0" d="M8381.65 5197.08c-1063.89,373.1 -2431.74,1865.61 -2627.15,2875.23 -260.56,1404.68 412.52,3160.5 1215.9,3160.5 369.12,0 521.07,-680.35 260.51,-1119.36 -151.96,-219.47 -260.51,-790.08 -260.51,-1229.09 0,-2919.11 4277.27,-4060.39 5362.92,-1448.57 651.32,1624.16 -260.57,4060.43 -1585.02,4192.09 -1107.29,109.74 -1324.45,-395.07 -890.18,-1997.26 303.96,-1207.13 325.66,-1404.69 21.7,-1843.64 -412.52,-636.52 -629.68,-636.52 -1324.46,65.85 -455.97,482.84 -521.07,680.4 -412.51,1404.69 86.85,526.72 -21.7,1514.42 -303.97,2677.66 -238.86,1009.61 -434.26,2304.56 -434.26,2897.14 0,1053.55 0,1075.46 434.26,680.4 412.52,-373.1 933.59,-1602.2 1194.15,-2831.29 130.31,-570.66 152.01,-592.63 521.12,-263.41 521.07,482.89 1932.38,439 2779.17,-87.77 1432.95,-877.91 2149.48,-3423.92 1411.25,-5070.05 -499.37,-1163.24 -1042.19,-1668.05 -2149.49,-2085.08 -1063.89,-373.1 -2127.78,-373.1 -3213.43,21.96z"/>
  </g>
 </g>
</svg>