<svg xmlns="http://www.w3.org/2000/svg" version="1.1" viewBox="-0.22 0.01 513.22 511.99"><path d="M 369.500 13.414 C 353.550 20.751, 328.705 32.164, 314.288 38.775 L 288.076 50.796 284.899 45.148 C 283.152 42.042, 278.691 36.515, 274.986 32.866 L 268.250 26.233 260.875 22.631 C 256.819 20.651, 250.818 18.348, 247.540 17.515 C 244.262 16.682, 237.962 16.007, 233.540 16.015 C 229.118 16.023, 222.599 16.713, 219.053 17.549 C 215.507 18.385, 209.657 20.515, 206.053 22.282 L 199.500 25.496 191.717 32.912 L 183.934 40.328 179.972 48.414 C 177.793 52.861, 175.278 59.425, 174.383 62.999 L 172.757 69.499 173.247 78.999 L 173.737 88.500 175.919 94.867 C 177.118 98.368, 177.965 101.329, 177.800 101.445 C 177.635 101.561, 153.030 112.851, 123.123 126.534 C 93.215 140.217, 67.669 152.259, 66.353 153.294 C 65.037 154.330, 63.294 156.465, 62.480 158.039 C 61.666 159.613, 61.002 162.836, 61.004 165.200 C 61.006 167.725, 61.828 170.846, 62.995 172.759 C 64.088 174.552, 66.448 176.912, 68.241 178.005 C 70.178 179.186, 73.275 179.994, 75.875 179.996 L 80.250 180 168.375 139.587 C 216.844 117.360, 290.849 83.413, 332.831 64.149 C 374.813 44.885, 410.272 28.397, 411.629 27.508 C 412.985 26.619, 414.972 24.453, 416.044 22.696 C 417.213 20.778, 417.993 17.700, 417.993 15 C 417.993 12.270, 417.211 9.218, 416.005 7.241 C 414.912 5.448, 412.552 3.088, 410.759 1.995 L 407.500 0.007 403 0.040 L 398.500 0.073 369.500 13.414 M 222.324 48.638 C 220.028 49.451, 216.198 51.834, 213.815 53.932 C 211.431 56.030, 208.376 59.941, 207.025 62.623 L 204.570 67.500 204.177 74.159 C 203.961 77.823, 204.328 82.463, 204.992 84.477 L 206.200 88.137 207.680 87.569 C 208.493 87.257, 220.577 81.762, 234.532 75.359 L 259.905 63.716 258.535 61.108 C 257.781 59.674, 255.440 56.837, 253.332 54.805 C 251.225 52.772, 247.475 50.195, 245 49.077 L 240.500 47.044 233.500 47.101 C 229.650 47.132, 224.621 47.824, 222.324 48.638 M 386 66.427 C 382.975 67.100, 378.700 68.232, 376.500 68.944 C 374.300 69.656, 370.204 71.530, 367.397 73.108 C 364.590 74.687, 360.238 78.177, 357.725 80.863 C 355.212 83.549, 351.717 88.599, 349.957 92.086 C 348.197 95.572, 345.918 102.491, 344.892 107.462 C 343.866 112.433, 343.020 118.993, 343.013 122.040 C 343.006 125.087, 342.316 130.205, 341.481 133.413 C 340.645 136.621, 339.064 140.505, 337.968 142.045 C 336.872 143.584, 334.062 145.575, 331.723 146.468 C 329.385 147.361, 323.583 148.666, 318.830 149.369 C 314.077 150.072, 308.999 151.426, 307.546 152.378 C 306.093 153.330, 304.028 155.547, 302.956 157.304 C 301.787 159.222, 301.007 162.300, 301.007 165 C 301.007 167.730, 301.789 170.782, 302.995 172.759 C 304.088 174.552, 306.448 176.912, 308.241 178.005 L 311.500 179.993 318.590 179.996 C 322.490 179.998, 329.240 179.097, 333.590 177.994 C 337.941 176.891, 344.240 174.648, 347.589 173.011 C 351.254 171.219, 355.754 167.839, 358.888 164.525 C 361.753 161.496, 365.410 156.201, 367.015 152.759 C 368.620 149.316, 370.615 143.800, 371.450 140.500 C 372.284 137.200, 373.401 129.550, 373.931 123.500 C 374.461 117.450, 375.599 110.514, 376.460 108.086 C 377.322 105.659, 378.583 102.998, 379.263 102.174 C 379.944 101.349, 382.408 99.829, 384.741 98.795 C 387.073 97.761, 392.632 96.498, 397.094 95.989 C 401.585 95.477, 406.609 94.245, 408.349 93.228 C 410.078 92.218, 412.547 89.841, 413.836 87.946 L 416.178 84.500 415.753 79.209 C 415.502 76.079, 414.517 72.811, 413.343 71.209 C 412.251 69.719, 409.815 67.713, 407.929 66.752 L 404.500 65.003 398 65.104 C 394.425 65.160, 389.025 65.755, 386 66.427 M 476 66.427 C 472.975 67.100, 468.700 68.232, 466.500 68.944 C 464.300 69.656, 460.204 71.530, 457.397 73.108 C 454.590 74.687, 450.238 78.177, 447.725 80.863 C 445.212 83.549, 441.717 88.599, 439.957 92.086 C 438.197 95.572, 435.918 102.491, 434.892 107.462 C 433.866 112.433, 433.020 118.993, 433.013 122.040 C 433.006 125.087, 432.316 130.205, 431.481 133.413 C 430.645 136.621, 429.064 140.505, 427.968 142.045 C 426.872 143.584, 424.062 145.575, 421.723 146.468 C 419.385 147.361, 413.583 148.666, 408.830 149.369 C 404.077 150.072, 398.999 151.426, 397.546 152.378 C 396.093 153.330, 394.028 155.547, 392.956 157.304 C 391.787 159.222, 391.007 162.300, 391.007 165 C 391.007 167.730, 391.789 170.782, 392.995 172.759 C 394.088 174.552, 396.448 176.912, 398.241 178.005 L 401.500 179.993 408.590 179.996 C 412.490 179.998, 419.240 179.097, 423.590 177.994 C 427.941 176.891, 434.240 174.648, 437.589 173.011 C 441.254 171.219, 445.754 167.839, 448.888 164.525 C 451.753 161.496, 455.410 156.201, 457.015 152.759 C 458.620 149.316, 460.615 143.800, 461.450 140.500 C 462.284 137.200, 463.401 129.550, 463.931 123.500 C 464.461 117.450, 465.599 110.514, 466.460 108.086 C 467.322 105.659, 468.583 102.998, 469.263 102.174 C 469.944 101.349, 472.408 99.829, 474.741 98.795 C 477.073 97.761, 482.632 96.498, 487.094 95.989 C 491.585 95.477, 496.609 94.245, 498.349 93.228 C 500.078 92.218, 502.547 89.841, 503.836 87.946 L 506.178 84.500 505.753 79.209 C 505.502 76.079, 504.517 72.811, 503.343 71.209 C 502.251 69.719, 499.815 67.713, 497.929 66.752 L 494.500 65.003 488 65.104 C 484.425 65.160, 479.025 65.755, 476 66.427 M 32.500 211.400 C 30.300 212.101, 26.166 213.866, 23.312 215.323 C 20.459 216.779, 15.785 220.310, 12.925 223.170 L 7.726 228.369 4.139 235.923 L 0.552 243.477 0.166 253.064 L -0.219 262.651 1.410 270.575 C 2.306 274.934, 4.618 281.835, 6.547 285.911 C 8.476 289.987, 12.014 296.069, 14.409 299.425 C 16.805 302.782, 20.842 307.443, 23.381 309.783 C 25.920 312.123, 31.035 315.975, 34.748 318.342 C 38.462 320.709, 43.750 323.583, 46.500 324.729 C 49.250 325.875, 53.413 327.322, 55.750 327.945 L 60 329.077 60 388.379 L 60 447.680 61.940 455.265 C 63.007 459.437, 65.582 466.293, 67.663 470.501 C 69.743 474.708, 73.822 481.032, 76.727 484.554 C 79.631 488.075, 84.819 493.183, 88.254 495.905 C 91.689 498.626, 97.796 502.488, 101.825 504.487 C 105.854 506.485, 112.563 508.993, 116.735 510.060 L 124.320 512 256 512 L 387.680 512 395.220 510.072 C 399.366 509.011, 406.322 506.352, 410.676 504.163 C 415.030 501.974, 421.191 498.066, 424.367 495.478 C 427.544 492.891, 432.485 487.934, 435.348 484.463 C 438.212 480.991, 442.257 474.708, 444.337 470.501 C 446.418 466.293, 448.993 459.437, 450.060 455.265 L 452 447.680 452 388.411 L 452 329.142 457.750 327.470 C 460.913 326.551, 466.796 324.169, 470.826 322.177 C 474.855 320.184, 480.991 316.212, 484.463 313.348 C 487.934 310.485, 492.838 305.609, 495.360 302.513 C 497.882 299.416, 501.945 292.890, 504.388 288.010 C 506.831 283.130, 509.333 276.518, 509.949 273.318 C 510.564 270.118, 511.503 266.719, 512.034 265.764 C 512.565 264.809, 513 259.719, 513 254.455 L 513 244.882 512 245.500 C 511.450 245.840, 511 245.291, 511 244.281 C 511 243.270, 509.478 239.269, 507.619 235.388 L 504.238 228.333 498.934 223.029 L 493.631 217.726 486.065 214.113 L 478.500 210.500 257.500 210.312 L 36.500 210.125 32.500 211.400 M 41.170 240.716 C 39.888 240.960, 37.146 242.854, 35.076 244.924 C 32.971 247.029, 31.024 250.132, 30.657 251.967 C 30.296 253.770, 30.477 258.226, 31.059 261.869 C 31.641 265.512, 33.458 271.217, 35.098 274.547 C 36.737 277.877, 39.953 282.533, 42.245 284.894 C 44.537 287.256, 48.310 290.493, 50.630 292.090 C 52.950 293.686, 56.008 295.433, 57.424 295.971 L 60 296.950 60 268.475 L 60 240 51.750 240.136 C 47.212 240.211, 42.451 240.472, 41.170 240.716 M 90.020 338.250 L 90.040 436.500 91.039 443.417 C 91.606 447.338, 93.365 453.027, 95.100 456.552 C 96.805 460.015, 100.614 465.222, 103.696 468.304 C 106.778 471.386, 111.985 475.195, 115.448 476.900 C 118.973 478.635, 124.662 480.394, 128.583 480.961 L 135.500 481.960 256 481.960 L 376.500 481.960 383.417 480.961 C 387.352 480.392, 393.030 478.634, 396.587 476.882 C 400.027 475.189, 405.132 471.486, 407.934 468.652 C 410.735 465.818, 413.983 461.925, 415.152 460 C 416.321 458.075, 418.223 454.025, 419.379 451 L 421.481 445.500 421.776 342.750 L 422.071 240 256.036 240 L 90 240 90.020 338.250 M 452 268.475 L 452 296.950 454.327 296.066 C 455.607 295.579, 458.194 294.246, 460.077 293.104 C 461.960 291.961, 465.818 288.735, 468.652 285.934 C 471.486 283.132, 475.189 278.027, 476.882 274.587 C 478.637 271.023, 480.376 265.404, 480.926 261.519 C 481.457 257.771, 481.620 253.351, 481.289 251.696 C 480.958 250.041, 479.028 247.028, 477 245 C 474.956 242.956, 471.850 241.020, 470.031 240.656 C 468.227 240.295, 463.431 240, 459.375 240 L 452 240 452 268.475" fill-rule="evenodd"/></svg>