<svg xmlns="http://www.w3.org/2000/svg" viewBox="131.33 -782.67 697.33 637.33"><path d="M646-616v-125.333H314V-616h-41.333v-166.666h414.666V-616H646Zm-473.333 41.333H787.333 172.667Zm517.833 112q18.5 0 31.667-13.345 13.166-13.345 13.166-31.5t-13.091-31.322Q709.15-552 690.667-552 672-552 659-538.905t-13 31.583q0 17.988 13 31.321 13 13.334 31.5 13.334Zm-44.5 276v-162.667H314v162.667h332Zm41.333 41.333H272.667v-159.333H131.334V-534q0-33.6 24.305-57.8Q179.945-616 214-616h532q34.433 0 58.55 24.2 24.116 24.2 24.116 57.8v229.333H687.333v159.333Zm100-200.666v-188.026q0-17.128-11.929-28.884-11.929-11.757-28.658-11.757H214q-17.567 0-29.45 11.907-11.883 11.906-11.883 28.493V-346h100v-44.667h414.666V-346h100Z"/></svg>