<svg xmlns="http://www.w3.org/2000/svg" width="512" height="512" viewBox="0 0 512 512" version="1.1"><path d="M 192 17.519 C 174.213 22.375, 158.373 35.332, 150.457 51.500 C 144.787 63.081, 144 67.922, 144 91.210 L 144 112 100.105 112 C 50.508 112, 49.167 112.168, 37.428 119.849 C 27.608 126.275, 21.413 134.590, 17.933 146.012 C 16.043 152.219, 15.963 155.096, 16.225 207.512 C 16.491 260.719, 16.565 262.586, 18.500 265.166 C 23.129 271.335, 23.745 271.447, 56.500 272.076 C 91.838 272.754, 93.192 273.047, 102.090 281.936 C 114.666 294.499, 114.666 313.501, 102.090 326.064 C 93.183 334.962, 91.906 335.235, 56 335.919 C 26.524 336.480, 25.395 336.575, 22.373 338.730 C 15.875 343.366, 16 342.127, 16 401.796 C 16 452.637, 16.115 456.160, 17.964 462.145 C 20.026 468.815, 24.386 476.522, 28.851 481.386 C 33.126 486.043, 42.913 491.916, 49.970 494.060 C 56.224 495.959, 59.037 496.038, 111.512 495.775 C 164.191 495.512, 166.607 495.418, 169.057 493.557 C 175.593 488.589, 175.445 489.379, 176.081 456 C 176.765 420.094, 177.038 418.817, 185.936 409.910 C 198.499 397.334, 217.501 397.334, 230.064 409.910 C 238.962 418.817, 239.235 420.094, 239.919 456 C 240.568 490.088, 240.476 489.651, 247.877 493.811 C 251.751 495.988, 252.070 496, 305.781 496 C 366.738 496, 366.545 496.021, 378.572 488.151 C 388.328 481.767, 394.535 473.474, 398.036 462.145 C 399.861 456.238, 400 452.699, 400 411.962 L 400 368.135 422.750 367.775 C 442.849 367.456, 446.259 367.161, 452.015 365.239 C 470.959 358.916, 487.296 342.391, 493.282 323.500 C 496.450 313.500, 496.457 294.536, 493.295 284.500 C 487.475 266.028, 472.441 250.513, 453.242 243.166 C 446.829 240.712, 445.364 240.568, 423.250 240.212 L 400 239.839 400 196.025 C 400 155.301, 399.861 151.762, 398.036 145.855 C 394.535 134.526, 388.328 126.233, 378.572 119.849 C 366.835 112.169, 365.484 112, 315.962 112 L 272.135 112 271.775 89.250 C 271.456 69.151, 271.161 65.741, 269.239 59.985 C 263.120 41.653, 248.006 26.248, 229.242 19.221 C 220.643 16, 200.874 15.097, 192 17.519 M 202.132 49.056 C 195.186 50.455, 189.388 53.774, 184.614 59.084 C 177.087 67.456, 176.743 69.270, 176.081 104 C 175.450 137.127, 175.580 136.395, 169.457 141.213 L 166.552 143.500 113.026 144 C 61.751 144.479, 59.360 144.584, 56.181 146.500 C 54.355 147.600, 51.880 150.075, 50.681 152 C 48.543 155.432, 48.494 156.324, 48.209 197.669 L 47.919 239.838 71.209 240.212 C 93.367 240.568, 94.828 240.711, 101.242 243.166 C 120.441 250.513, 135.475 266.028, 141.295 284.500 C 143.077 290.159, 143.500 293.895, 143.500 304 C 143.500 314.105, 143.077 317.841, 141.295 323.500 C 135.362 342.331, 119.011 358.856, 100 365.234 C 94.248 367.163, 90.882 367.456, 70.750 367.775 L 48 368.135 48.006 408.318 C 48.009 431.603, 48.425 449.990, 48.996 452.044 C 50.221 456.456, 55.526 461.717, 60.058 463.017 C 62.050 463.588, 80.325 464, 103.663 464 L 143.839 464 144.212 440.750 C 144.568 418.636, 144.712 417.171, 147.166 410.758 C 154.398 391.859, 169.322 377.202, 187.853 370.797 C 193.586 368.816, 196.425 368.506, 208.500 368.541 C 221.089 368.577, 223.180 368.841, 229.242 371.163 C 248.166 378.412, 263.131 393.685, 269.239 411.985 C 271.161 417.741, 271.456 421.151, 271.775 441.250 L 272.135 464 312.324 464 C 335.671 464, 353.950 463.588, 355.942 463.017 C 360.474 461.717, 365.779 456.456, 367.004 452.044 C 367.590 449.935, 367.991 428.109, 367.994 398.151 C 368.001 342.513, 367.912 343.339, 374.373 338.730 C 377.395 336.575, 378.524 336.480, 408 335.919 C 443.906 335.235, 445.183 334.962, 454.090 326.064 C 466.666 313.501, 466.666 294.499, 454.090 281.936 C 445.192 273.047, 443.838 272.754, 408.500 272.076 C 375.745 271.447, 375.129 271.335, 370.500 265.166 C 368.574 262.598, 368.482 260.531, 368 209 C 367.644 170.943, 367.164 154.923, 366.336 153.500 C 364.264 149.940, 359.434 145.985, 355.931 144.980 C 353.901 144.398, 332.057 144, 302.143 144 C 234.538 144, 240.757 147.998, 239.919 104 C 239.235 68.094, 238.962 66.817, 230.064 57.910 C 222.470 50.308, 212.154 47.038, 202.132 49.056" fill-rule="evenodd"/></svg>