<svg xmlns="http://www.w3.org/2000/svg" width="46" height="44" viewBox="0 0 46 44" version="1.1"><path d="M 19.164 18.185 C 8.899 28.187, 0.381 36.643, 0.237 36.976 C 0.092 37.309, 0.582 38.413, 1.325 39.430 C 2.271 40.724, 3.140 41.012, 4.217 40.390 C 5.064 39.900, 13.935 31.527, 23.931 21.783 C 40.225 5.899, 41.993 3.855, 41.018 2.033 C 40.419 0.915, 39.457 -0, 38.879 -0 C 38.300 -0, 29.429 8.183, 19.164 18.185 M 31.440 30.281 C 22.439 38.854, 21.786 39.732, 22.883 41.781 C 23.536 43.002, 24.463 44, 24.943 44 C 25.422 44, 30.200 39.823, 35.560 34.719 C 44.561 26.146, 45.214 25.268, 44.117 23.219 C 43.464 21.998, 42.537 21, 42.057 21 C 41.578 21, 36.800 25.177, 31.440 30.281" fill-rule="evenodd"/></svg>