<svg  viewBox="0 0 162 186" xmlns="http://www.w3.org/2000/svg">
<g id="Group">
<path id="Vector" d="M72.8401 1.46826C68.9396 2.30409 66.258 3.24438 62.9147 4.9857C56.2629 8.43349 50.4121 14.5281 47.3822 21.145C46.3374 23.3739 46.3026 23.3739 42.2628 22.2943C38.1881 21.1799 29.9343 21.1799 25.6507 22.2943C19.4516 23.8963 14.8546 26.3689 10.6058 30.3391C7.29731 33.4387 5.2774 36.1899 3.39679 40.1601C1.16791 44.792 0.75 46.8119 0.75 52.8368C0.75 57.5732 0.854478 58.3045 1.69031 60.6727C5.4167 71.1902 13.4964 77.9116 23.979 79.235L27.5661 79.6878L27.6358 81.046C27.6706 81.8122 27.8796 85.7127 28.1233 89.7525L28.5413 97.066L27.0786 100.166C22.6905 109.534 21.2626 116.812 21.576 127.783C21.7153 133.041 21.9243 135.027 22.6208 137.987C24.4318 145.614 27.0437 151.813 31.0139 157.733C36.4468 165.882 44.8399 173.684 52.1186 177.34C53.3723 177.967 54.4519 178.594 54.5564 178.733C54.8698 179.186 60.5813 181.485 61.9395 181.694C62.6709 181.798 63.4371 182.111 63.6808 182.355C64.2032 182.843 69.7406 184.445 70.1585 184.201C70.2978 184.097 71.5864 184.271 73.0142 184.584C74.8949 184.967 77.7506 185.106 83.1138 185.141C89.5567 185.176 91.1587 185.037 94.502 184.375C103.383 182.599 112.96 178.733 119.159 174.38C123.408 171.42 129.851 165.221 132.915 161.146C140.786 150.663 144.547 140.216 145 127.504C145.348 117.265 143.607 108.907 139.184 99.7128C136.398 94.0013 136.537 95.2202 136.99 82.5087C137.199 75.7872 137.234 75.6479 137.965 75.6479C139.463 75.6479 144.303 74.1852 146.706 73.0011C153.393 69.7275 158.443 63.1105 160.463 55.1005C161.09 52.593 161.194 51.5134 161.02 47.787C160.672 39.4984 157.677 32.8118 151.652 26.8217C145.731 20.9012 138.348 17.6276 129.955 17.2445C125.114 17.0355 120.796 17.6276 117 19.0903C113.134 20.553 113.308 20.5878 112.124 18.4634C108.572 12.2295 101.502 6.13496 94.6761 3.45335C89.5915 1.46826 87.5367 1.08517 81.5466 0.911041C76.9496 0.806564 75.4172 0.911041 72.8401 1.46826ZM88.3377 9.47827C96.2433 11.6723 103.069 17.4535 106.83 25.0456C108.502 28.4585 109.791 30.0257 110.87 30.0257C111.149 30.0257 112.89 29.2247 114.736 28.2844C129.049 20.8664 145.418 26.0903 151.582 39.986C153.463 44.2696 154.055 50.5383 152.905 54.4388C151.025 60.812 146.01 65.7921 139.741 67.3941C137.895 67.8817 137.721 67.8817 137.582 67.3593C136.746 64.7473 135.666 63.9812 133.02 64.1205C132.602 64.1205 131.87 64.5732 131.418 65.0608C130.443 66.1056 130.164 67.6031 130.094 72.6877C130.059 74.6031 129.99 76.2748 129.92 76.4141C129.851 76.5186 128.388 76.031 126.716 75.3345C125.044 74.6031 122.641 73.628 121.353 73.1753L118.985 72.3394V65.7921C118.985 57.7473 118.671 56.8766 115.641 56.8418C114.562 56.8418 114.039 57.0508 113.378 57.7473C112.577 58.618 112.542 58.8617 112.403 64.5384C112.368 67.7772 112.194 70.424 112.02 70.424C111.88 70.424 109.895 70.0409 107.631 69.5882C105.333 69.1354 101.815 68.5434 99.7607 68.3344L96.0343 67.8817L95.9298 61.9961L95.8254 56.0756L94.8502 55.2398C93.492 54.0557 91.5417 54.0905 90.3925 55.3095C89.5915 56.1801 89.5567 56.4239 89.4522 61.9264L89.3129 67.6379L87.0144 67.429C82.8004 67.0459 68.7306 68.3344 63.4022 69.5534C62.6709 69.7275 62.6361 69.623 62.4967 64.9911L62.3574 60.2548L61.2082 59.21C60.233 58.3393 59.85 58.2 58.7704 58.3742C58.039 58.4786 57.2032 58.9314 56.7504 59.4538C55.9843 60.3244 55.9494 60.6727 55.9494 65.7573C55.9494 69.7623 55.845 71.1902 55.5315 71.2598C55.2877 71.3295 52.9196 72.0608 50.3076 72.827C46.024 74.1156 36.5861 77.9465 35.4717 78.8519C35.2279 79.0609 34.9493 79.1654 34.8796 79.0609C34.7751 78.9912 34.5662 76.7275 34.3572 74.0808C34.009 68.8917 33.6607 67.8817 31.989 67.2548C29.8298 66.419 27.5313 67.9514 27.2527 70.424C27.183 71.0857 26.9741 71.6777 26.7303 71.7474C25.79 72.0608 21.4716 70.9812 19.0686 69.832C15.7252 68.23 12.0337 64.608 10.3968 61.2996C7.36697 55.1353 7.6804 47.7174 11.2675 41.5183C13.1829 38.2447 17.571 34.0307 20.984 32.2197C28.4368 28.2844 37.4568 28.0754 46.1981 31.6277C47.3474 32.0804 48.6708 32.4635 49.1932 32.4635C50.5514 32.4635 51.9444 30.8267 52.6409 28.4585C53.4768 25.4983 55.2877 22.2246 57.83 18.9858C62.2878 13.344 68.2431 10.0355 76.0093 8.78175C79.1436 8.29419 85.3079 8.64244 88.3377 9.47827ZM99.8304 75.7872C110.835 77.3196 120.865 80.2102 128.074 83.8321L129.781 84.7027V87.4888C129.781 89.3694 129.642 90.2749 129.363 90.2749C129.154 90.2749 128.109 89.857 127.064 89.3694C119.716 85.8868 108.537 82.9266 98.2632 81.7425C91.8552 81.0112 78.0292 81.0112 71.7953 81.7425C60.233 83.1007 49.9593 86.0609 39.9294 90.9018C37.5264 92.051 35.5413 92.9565 35.5413 92.9217C35.5065 92.9217 35.4368 91.5635 35.3672 89.9267L35.2279 87.0013L38.7105 85.2251C42.0538 83.5186 48.3573 81.046 53.1633 79.5136C60.1634 77.3196 67.4421 75.9962 77.1934 75.1604C80.7108 74.8469 96.3478 75.2648 99.8304 75.7872ZM94.2582 88.8819C98.5418 89.265 105.194 90.2749 105.786 90.658C106.343 90.9714 105.159 92.3993 102.791 94.3147C94.9199 100.688 83.9497 103.996 74.4421 102.882C70.7157 102.429 66.5714 101.21 61.9395 99.1556C57.9693 97.3794 57.4121 97.5187 53.7554 101.141C49.2628 105.598 44.9792 108.106 40.1384 109.151C38.4319 109.499 32.0935 109.394 31.6756 108.977C31.5711 108.837 32.1632 107.27 32.999 105.459L34.5314 102.185L39.0588 99.7824C46.9991 95.6381 52.6409 93.4093 60.1634 91.5286C64.5167 90.449 72.3525 89.1605 76.671 88.7774C79.7357 88.4988 90.8104 88.5684 94.2582 88.8819ZM117.627 93.7227C119.403 94.3147 125.079 96.7874 128.98 98.6332C130.686 99.469 130.86 99.678 132.497 103.021C136.119 110.335 137.791 117.474 137.791 125.623C137.791 128.201 137.617 131.474 137.408 132.937C136.467 139.902 132.985 148.469 128.701 154.494C125.044 159.614 118.219 166.231 113.204 169.4C111.288 170.619 105.89 173.335 103.592 174.206C93.492 178.072 80.1188 178.803 69.3575 176.087C63.5067 174.589 55.6708 171.072 51.5613 168.042C50.3076 167.136 48.8449 166.091 48.3225 165.778C46.7553 164.733 41.009 158.848 39.0239 156.201C32.3025 147.32 28.8199 136.803 28.785 125.38C28.785 121.932 29.3423 116.778 29.795 116.325C29.8995 116.186 30.6308 116.255 31.397 116.464C33.4866 117.056 39.0239 116.987 41.8797 116.29C47.1036 115.071 53.3723 111.623 57.3077 107.862L59.2579 105.981L61.6957 107.026C65.457 108.628 69.462 109.708 73.4322 110.126C81.3029 110.996 91.7507 109.116 98.9597 105.529C101.537 104.24 106.378 101.036 107.283 100.061C108.258 98.9814 108.711 99.1556 109.233 100.792C110.661 105.598 114.144 110.335 118.044 112.807C122.258 115.454 128.388 115.698 130.199 113.225C132.184 110.579 130.164 107.688 126.333 107.688C122.711 107.688 118.88 104.588 116.721 99.8521C115.746 97.7974 114.806 94.5585 114.806 93.4093C114.806 92.8869 115.502 92.9913 117.627 93.7227Z" />
<path id="Vector_2" d="M54.591 125.484C51.5611 126.703 49.8198 129.594 50.0984 132.937C50.7949 141.086 62.5662 141.609 64.3423 133.564C64.6906 131.997 64.6906 131.509 64.1333 130.081C62.9492 126.912 60.4418 125.101 57.2726 125.136C56.2626 125.136 55.0437 125.31 54.591 125.484Z" />
<path id="Vector_3" d="M109.059 125.763C107.178 126.633 105.925 128.061 105.263 130.151C104.183 133.494 105.542 136.837 108.641 138.544C114.109 141.504 120.726 136.559 119.193 130.673C118.009 126.146 113.238 123.812 109.059 125.763Z" />
<path id="Vector_4" d="M81.8953 133.773C78.5519 134.713 76.4972 136.245 75.2086 138.788C74.1639 140.842 74.2335 143.35 75.3131 144.151C77.1589 145.509 79.0047 144.952 80.4326 142.723C81.756 140.634 82.0694 140.425 84.2634 140.181C86.8057 139.937 88.3033 140.668 89.6615 142.862C90.8804 144.813 92.169 145.335 93.8406 144.464C97.2188 142.723 94.8854 136.907 89.9401 134.643C87.9202 133.738 83.7062 133.285 81.8953 133.773Z" />
</g>
</svg>
