<svg xmlns="http://www.w3.org/2000/svg" viewBox="0.25 0.75 23.75 23.75">
<path d="M13.0624 12.2452V7.31244C13.0624 7.04684 12.9726 6.82419 12.7928 6.6445C12.613 6.46481 12.3903 6.37497 12.1246 6.37497C11.8588 6.37497 11.6362 6.46481 11.4567 6.6445C11.2772 6.82419 11.1875 7.04684 11.1875 7.31244V12.5336C11.1875 12.6808 11.2147 12.8233 11.2692 12.9613C11.3237 13.0992 11.4094 13.2267 11.5264 13.3437L15.8077 17.625C15.9808 17.798 16.1983 17.8866 16.4603 17.8906C16.7223 17.8946 16.9439 17.8061 17.125 17.625C17.3061 17.4439 17.3966 17.2243 17.3966 16.9663C17.3966 16.7083 17.3061 16.4888 17.125 16.3077L13.0624 12.2452ZM12.1271 24.4999C10.4846 24.4999 8.94086 24.1883 7.49569 23.5649C6.0505 22.9416 4.7934 22.0957 3.72438 21.0271C2.65533 19.9586 1.80901 18.702 1.18541 17.2575C0.561802 15.813 0.25 14.2695 0.25 12.6271C0.25 10.9846 0.561667 9.44086 1.185 7.99569C1.80833 6.5505 2.65427 5.2934 3.72281 4.22438C4.79138 3.15534 6.04793 2.30901 7.49247 1.68541C8.93699 1.0618 10.4805 0.75 12.1229 0.75C13.7653 0.75 15.3091 1.06167 16.7543 1.685C18.1994 2.30833 19.4565 3.15427 20.5256 4.22281C21.5946 5.29138 22.4409 6.54793 23.0645 7.99247C23.6881 9.43699 23.9999 10.9805 23.9999 12.6229C23.9999 14.2653 23.6883 15.8091 23.0649 17.2543C22.4416 18.6994 21.5957 19.9565 20.5271 21.0256C19.4586 22.0946 18.202 22.9409 16.7575 23.5645C15.313 24.1881 13.7695 24.4999 12.1271 24.4999ZM12.125 22.625C14.8958 22.625 17.2552 21.651 19.2031 19.7031C21.151 17.7552 22.125 15.3958 22.125 12.625C22.125 9.85414 21.151 7.49476 19.2031 5.54684C17.2552 3.59893 14.8958 2.62497 12.125 2.62497C9.35414 2.62497 6.99476 3.59893 5.04684 5.54684C3.09893 7.49476 2.12497 9.85414 2.12497 12.625C2.12497 15.3958 3.09893 17.7552 5.04684 19.7031C6.99476 21.651 9.35414 22.625 12.125 22.625Z"/>
</svg>