<?xml version="1.0" standalone="no"?>
<!DOCTYPE svg PUBLIC "-//W3C//DTD SVG 20010904//EN"
 "http://www.w3.org/TR/2001/REC-SVG-20010904/DTD/svg10.dtd">
<svg version="1.0" xmlns="http://www.w3.org/2000/svg"
 width="630.000000pt" height="915.000000pt" viewBox="0 0 630.000000 915.000000"
 preserveAspectRatio="xMidYMid meet">
<metadata>
Created by potrace 1.16, written by Peter Selinger 2001-2019
</metadata>
<g transform="translate(0.000000,915.000000) scale(0.100000,-0.100000)">
<path d="M4705 9125 c-259 -51 -452 -145 -642 -314 l-92 -82 -48 34 c-119 85
-337 172 -513 203 -129 24 -355 24 -475 0 -302 -59 -574 -202 -807 -424 -74
-70 -78 -73 -100 -59 -48 31 -187 57 -303 57 -191 0 -334 -51 -445 -158 -53
-51 -58 -54 -140 -68 -265 -47 -512 -183 -730 -403 -280 -281 -410 -574 -410
-923 0 -60 7 -144 16 -186 60 -294 346 -559 675 -625 202 -41 354 -27 530 47
15 6 17 -26 22 -331 8 -475 52 -982 111 -1273 l24 -115 -48 -46 c-60 -58 -97
-134 -111 -230 -46 -294 189 -570 449 -530 36 6 67 9 68 8 1 -1 18 -35 38 -76
60 -121 133 -219 256 -342 116 -117 237 -207 335 -249 71 -31 165 -60 192 -60
12 0 23 -3 23 -7 0 -5 -27 -39 -61 -78 -200 -230 -336 -546 -355 -824 -14
-203 58 -348 219 -440 50 -28 58 -37 52 -55 -3 -11 -9 -111 -12 -221 -5 -176
-4 -204 11 -233 19 -37 65 -68 151 -102 33 -13 64 -27 68 -31 5 -4 15 -55 23
-115 37 -285 90 -535 143 -674 49 -130 118 -181 256 -188 44 -2 98 1 121 7 55
15 116 61 158 118 42 58 111 231 163 410 l38 132 45 6 c25 3 110 16 190 29 80
13 149 20 153 16 5 -4 37 -81 71 -171 183 -474 241 -548 432 -549 179 0 247
59 294 252 37 155 90 616 90 795 0 18 18 32 92 70 106 54 155 94 174 140 51
122 -65 872 -202 1306 l-24 79 27 21 c15 12 133 93 263 181 129 87 285 196
345 241 391 294 621 640 642 968 6 83 8 90 39 121 36 36 41 62 23 114 -8 25
-7 37 10 71 26 49 27 93 4 132 -19 31 -102 79 -138 79 -19 0 -24 10 -38 82
-27 138 -73 216 -199 340 -99 99 -108 111 -108 145 0 42 -13 106 -124 618 -81
376 -138 621 -186 805 -16 63 -30 117 -30 120 0 3 42 3 94 2 263 -10 548 152
689 389 87 147 130 369 109 559 -33 292 -202 692 -410 970 -80 107 -214 243
-307 313 -95 71 -245 145 -370 183 -80 24 -110 27 -260 30 -115 2 -193 -2
-240 -11z m355 -129 c209 -32 380 -121 559 -291 205 -194 409 -560 489 -874
24 -96 27 -123 26 -281 0 -158 -3 -183 -25 -257 -60 -193 -198 -341 -396 -423
-62 -26 -95 -33 -172 -37 -146 -8 -237 18 -398 114 -80 48 -83 49 -83 28 0
-46 83 -145 188 -226 29 -22 34 -34 42 -90 6 -35 30 -154 55 -264 25 -110 64
-283 86 -385 22 -102 69 -316 105 -476 35 -159 64 -294 64 -298 0 -5 -53 43
-117 105 -166 160 -277 229 -372 229 -164 0 -231 -183 -137 -371 19 -40 35
-74 33 -75 -1 -1 -58 2 -127 8 -145 12 -794 4 -1005 -12 -717 -54 -1291 -156
-1835 -327 -132 -41 -460 -163 -541 -201 -10 -5 -47 207 -69 393 -43 369 -68
721 -77 1058 l-6 248 64 66 64 65 -43 -6 c-44 -7 -157 -42 -292 -92 -69 -25
-87 -28 -220 -28 -90 -1 -166 4 -200 12 -232 57 -413 188 -514 373 -51 93 -66
150 -73 270 -17 314 115 620 378 875 205 199 401 307 651 360 161 34 426 21
553 -27 63 -24 63 -24 36 5 -37 39 -145 88 -258 116 l-107 27 49 28 c119 70
285 93 441 60 46 -10 84 -21 84 -24 0 -4 -19 -34 -43 -66 -146 -202 -236 -443
-177 -475 22 -12 17 -19 110 145 174 306 367 511 635 675 516 317 1138 251
1598 -169 42 -39 79 -71 81 -71 17 0 36 15 36 29 0 9 -30 54 -66 99 l-66 83
27 34 c63 84 237 203 377 260 206 83 398 109 588 81z m125 -3555 c59 -28 94
-57 234 -193 69 -68 178 -169 241 -225 169 -149 234 -235 270 -352 11 -35 20
-64 20 -66 0 -1 -57 -5 -127 -8 -71 -4 -152 -10 -180 -13 -49 -6 -53 -5 -53
14 0 16 -23 37 -87 78 -100 66 -201 159 -283 259 -101 123 -122 186 -78 232
28 30 71 30 127 -2 23 -14 47 -25 53 -25 21 0 -30 65 -71 91 -51 33 -129 40
-151 14 -20 -24 -27 -18 -46 37 -36 108 -15 178 54 178 20 0 55 -9 77 -19z
m-219 -439 l81 -7 63 -85 c77 -103 232 -258 294 -295 51 -30 55 -39 27 -54
-10 -6 -29 -31 -41 -56 -41 -84 -18 -204 46 -239 30 -17 31 -21 22 -108 -10
-88 -34 -195 -67 -291 -25 -73 -20 -87 31 -87 39 0 39 0 74 76 44 94 74 210
74 283 0 89 -2 88 152 68 130 -17 316 -51 325 -60 2 -3 -1 -34 -7 -68 -39
-225 -160 -446 -357 -649 -127 -132 -248 -229 -527 -420 -346 -238 -396 -282
-396 -352 0 -22 25 -136 55 -252 90 -349 157 -731 172 -974 l6 -112 -40 -38
c-42 -40 -190 -109 -203 -95 -4 4 -10 105 -12 224 l-4 216 28 19 c15 10 33 31
39 46 10 24 7 37 -26 105 l-38 78 -8 210 c-11 265 -46 662 -75 837 l-6 37 74
37 c40 20 99 54 131 76 63 43 220 178 214 184 -4 4 -137 -53 -288 -124 -99
-47 -306 -123 -397 -146 -61 -16 -63 -16 -92 6 -63 46 -200 33 -625 -63 -208
-47 -247 -48 -494 -4 -366 65 -690 178 -878 307 -188 128 -410 398 -454 550
-9 34 6 46 29 24 10 -8 44 -27 76 -42 64 -29 114 -28 147 2 25 22 24 43 -5
112 -13 31 -32 86 -41 122 -9 36 -18 73 -21 83 -4 14 1 17 31 17 44 0 48 8 69
146 8 56 29 141 46 190 31 90 129 304 139 304 3 0 74 18 158 40 178 46 454
103 603 124 178 25 159 28 202 -36 99 -150 255 -258 384 -266 56 -4 65 -2 87
20 l24 25 59 -30 c138 -70 293 -102 368 -77 39 12 76 58 76 93 0 16 6 15 54
-13 69 -39 159 -70 205 -70 84 0 131 66 111 155 -14 61 -67 175 -114 244 -20
29 -36 55 -36 57 0 6 387 3 476 -4z m-581 -54 c57 -75 67 -94 103 -180 37 -88
39 -108 14 -108 -33 0 -176 76 -252 134 -77 59 -129 91 -136 83 -6 -6 17 -69
41 -107 12 -19 25 -44 29 -54 9 -27 -12 -86 -32 -87 -126 -8 -411 140 -522
269 -55 65 -110 68 -110 5 0 -43 11 -64 68 -131 25 -29 43 -55 40 -57 -2 -3
-24 5 -48 16 -55 27 -132 99 -169 159 -30 48 -30 48 -8 53 57 14 649 54 827
56 l116 1 39 -52z m-2285 -376 c-22 -56 -51 -145 -65 -199 -14 -53 -27 -98
-29 -100 -7 -7 -69 122 -80 165 -7 25 -18 48 -25 50 -11 4 -12 -18 -9 -109 4
-93 13 -148 52 -299 25 -102 49 -193 52 -202 9 -31 -18 -20 -86 33 -115 89
-150 150 -190 331 -25 108 -45 151 -100 206 -29 29 -38 43 -29 47 259 98 542
193 547 184 1 -3 -16 -51 -38 -107z m3958 -97 c34 -10 62 -21 62 -25 0 -4 -10
-29 -21 -55 -15 -34 -20 -60 -16 -88 l5 -40 -61 6 c-127 11 -394 49 -452 63
-60 16 -105 46 -105 71 0 26 129 67 265 83 100 12 251 5 323 -15z m-4532 -92
c14 -16 47 -62 74 -103 43 -67 49 -84 59 -162 8 -68 19 -104 50 -167 l41 -80
-31 -25 c-26 -22 -40 -26 -97 -26 -56 0 -76 5 -118 29 -60 35 -104 82 -141
154 -24 45 -28 63 -28 142 0 78 4 97 28 147 31 62 86 118 118 118 11 0 32 -12
45 -27z m1259 -1474 c37 -7 207 -58 213 -64 8 -7 42 -301 46 -407 6 -145 1
-159 -55 -139 -45 16 -86 14 -115 -6 -25 -16 -25 -16 -20 10 3 15 8 38 11 51
3 15 -1 31 -12 41 -16 16 -18 16 -31 -1 -7 -11 -26 -44 -42 -75 -28 -55 -30
-56 -79 -62 -75 -9 -171 -62 -171 -94 0 -12 16 -13 90 -7 50 3 90 4 90 1 0 -2
-11 -29 -25 -60 -59 -129 -70 -285 -29 -421 6 -17 2 -18 -32 -12 -129 23 -258
107 -304 197 -72 139 -28 408 112 682 85 166 264 395 297 381 9 -3 34 -10 56
-15z m1805 -57 c31 -223 78 -812 64 -812 -6 0 -89 176 -111 235 -8 22 -46 132
-85 245 -38 113 -73 209 -79 215 -5 5 -9 37 -9 72 0 54 3 63 18 63 10 0 56 13
102 29 47 15 86 28 87 27 2 -1 7 -34 13 -74z m-326 34 c22 -46 21 -128 -1
-155 -27 -33 -226 -77 -519 -114 l-101 -12 5 47 c3 28 -2 65 -12 94 -9 26 -14
49 -11 52 2 2 59 12 127 22 119 18 381 74 423 90 45 19 72 12 89 -24z m-949
-105 c-11 -2 -36 -14 -58 -28 -58 -36 -69 -74 -66 -210 l4 -114 -34 -26 c-23
-18 -35 -22 -40 -14 -4 6 -13 84 -20 174 -6 89 -15 185 -18 213 l-5 50 128
-20 c70 -12 119 -23 109 -25z m1040 -196 c43 -191 117 -380 264 -673 l91 -182
-33 -14 c-126 -52 -416 -129 -666 -175 -161 -31 -410 -65 -417 -58 -20 20
-174 525 -174 570 0 42 4 43 74 22 105 -32 207 -14 261 47 43 47 46 90 11 165
-28 60 -110 127 -192 157 -27 10 -53 22 -57 26 -14 12 102 39 262 60 294 39
461 80 516 124 17 14 33 21 36 18 3 -4 14 -43 24 -87z m-884 -215 c111 -21
219 -96 219 -152 0 -26 -49 -58 -87 -58 -19 0 -73 12 -119 26 -76 24 -88 25
-127 13 l-44 -12 5 -49 c4 -38 -1 -59 -22 -100 -29 -60 -101 -138 -160 -176
-49 -30 -58 -41 -92 -107 -34 -64 -30 -61 -55 -39 -56 50 -83 147 -68 243 18
119 39 151 167 257 121 100 187 140 256 154 58 11 67 11 127 0z m-586 -222
c-69 -153 -70 -338 -2 -470 19 -37 31 -68 26 -68 -21 0 -69 31 -80 51 -6 11
-13 18 -16 16 -9 -10 28 -67 60 -91 37 -28 125 -49 163 -40 l24 6 0 -134 c0
-74 3 -197 7 -273 l6 -138 -74 7 c-177 18 -438 108 -456 159 -8 25 -6 340 3
369 5 15 16 18 72 17 82 -3 192 11 192 22 0 5 -19 45 -42 90 -35 66 -43 92
-46 148 -5 91 12 166 59 260 40 80 91 145 70 88 -15 -38 -6 -34 25 13 38 57
42 42 9 -32z m526 -433 c71 -235 109 -307 169 -320 16 -3 99 1 186 10 312 33
678 105 822 162 34 14 66 22 70 18 10 -9 9 -447 -1 -518 -5 -31 -15 -63 -22
-71 -53 -53 -689 -158 -1105 -181 -107 -7 -317 8 -332 23 -24 24 -40 189 -45
457 -5 268 -4 282 16 328 13 31 21 70 21 105 l0 56 78 76 77 75 18 -60 c10
-33 31 -105 48 -160z"/>
<path d="M4522 7277 c-207 -192 -398 -277 -737 -332 -146 -23 -155 -25 -155
-40 0 -42 111 -62 254 -46 244 28 438 113 589 259 71 69 115 130 123 172 9 44
-17 39 -74 -13z"/>
<path d="M2104 6996 c-5 -12 5 -30 32 -57 93 -96 264 -183 423 -214 169 -35
450 -4 543 59 32 21 37 44 8 38 -8 -2 -81 -6 -161 -9 -249 -9 -423 27 -651
133 -133 63 -184 76 -194 50z"/>
<path d="M4877 4932 c-52 -57 39 -158 166 -184 48 -10 58 -9 81 5 57 38 27 82
-108 156 -81 45 -114 50 -139 23z"/>
<path d="M2895 4808 c-45 -25 -167 -121 -180 -142 -29 -44 13 -82 77 -69 90
16 208 104 208 153 0 26 -43 70 -67 70 -10 0 -27 -6 -38 -12z"/>
<path d="M5011 4435 c-51 -16 -94 -54 -124 -110 -18 -32 -22 -57 -22 -126 0
-82 2 -88 37 -141 67 -102 184 -135 293 -84 89 41 135 115 135 213 0 108 -70
211 -167 246 -56 20 -92 21 -152 2z"/>
<path d="M2808 4286 c-94 -26 -150 -82 -175 -179 -15 -55 -15 -72 -4 -121 51
-226 353 -268 458 -63 97 191 -77 418 -279 363z"/>
<path d="M4121 3903 l-54 -26 -61 22 c-74 26 -88 26 -109 3 -36 -40 -7 -92 66
-119 51 -18 156 -15 203 6 44 20 84 63 84 91 0 22 -32 50 -56 49 -10 0 -43
-12 -73 -26z"/>
<path d="M4095 2386 c-144 -35 -235 -66 -235 -78 0 -17 84 -7 237 28 157 36
213 56 213 74 0 18 -83 9 -215 -24z"/>
</g>
</svg>
