<svg  viewBox="0 0 17 19" xmlns="http://www.w3.org/2000/svg">
<path d="M3.7938 18.731C3.27014 18.731 2.82289 18.5427 2.45202 18.1661C2.08115 17.7896 1.89571 17.3355 1.89571 16.8038V3.27307H1.63321C1.40975 3.27307 1.22264 3.19653 1.07187 3.04346C0.921093 2.89039 0.845703 2.70042 0.845703 2.47354C0.845703 2.24667 0.921093 2.0567 1.07187 1.90363C1.22264 1.75054 1.40975 1.674 1.63321 1.674H5.57069C5.57069 1.41295 5.66122 1.19052 5.84228 1.00669C6.02333 0.82287 6.24241 0.730957 6.49953 0.730957H10.9419C11.199 0.730957 11.4181 0.82287 11.5991 1.00669C11.7802 1.19052 11.8707 1.41295 11.8707 1.674H15.8082C16.0317 1.674 16.2188 1.75054 16.3695 1.90363C16.5203 2.0567 16.5957 2.24667 16.5957 2.47354C16.5957 2.70042 16.5203 2.89039 16.3695 3.04346C16.2188 3.19653 16.0317 3.27307 15.8082 3.27307H15.5457V16.8038C15.5457 17.3355 15.3603 17.7896 14.9894 18.1661C14.6185 18.5427 14.1713 18.731 13.6476 18.731H3.7938ZM13.9707 3.27307H3.47069V16.8038C3.47069 16.8995 3.50098 16.9781 3.56156 17.0396C3.62215 17.1011 3.69956 17.1319 3.7938 17.1319H13.6476C13.7418 17.1319 13.8193 17.1011 13.8798 17.0396C13.9404 16.9781 13.9707 16.8995 13.9707 16.8038V3.27307ZM5.99476 14.9998H7.56974V5.40519H5.99476V14.9998ZM9.87166 14.9998H11.4466V5.40519H9.87166V14.9998Z" />
</svg>
