<svg viewBox="0 0 39 38" xmlns="http://www.w3.org/2000/svg">
<g id="yourube 1" clip-path="url(#clip0_77_305)">
<g id="Group">
<path id="Vector" d="M13.9365 1.68351C-2.04172 6.81939 -3.63139 28.9118 11.4501 36.0449C18.7463 39.5096 26.8985 38.083 32.5235 32.4172C42.5914 22.2678 37.8632 5.18895 24.0045 1.47971C21.192 0.705254 16.7083 0.827538 13.9365 1.68351ZM26.7762 4.29221C40.6757 11.14 39.0045 30.9906 24.1675 35.5966C16.423 38.0015 7.82241 34.1699 4.11317 26.6292C2.89035 24.102 2.80883 23.6944 2.80883 19.4553C2.80883 15.1754 2.89035 14.8085 4.15393 12.1998C5.82513 8.85743 8.71915 5.84113 11.7762 4.37373C14.9556 2.82482 16.1784 2.58025 20.2137 2.66178C23.3523 2.78406 24.086 2.9471 26.7762 4.29221Z" />
<path id="Vector_2" d="M12.306 13.015C10.3495 13.3003 9.94189 14.4416 9.94189 19.5368C9.94189 23.6944 10.0234 24.1835 10.8794 25.1618L11.7761 26.2623H19.3984C24.2082 26.2623 27.2653 26.0993 27.8359 25.8139C28.9772 25.1618 29.3033 23.8166 29.3033 19.2107C29.3033 14.727 28.7327 13.4226 26.6131 12.9743C25.2272 12.7297 14.181 12.7297 12.306 13.015ZM22.537 19.496C22.5778 19.5368 21.5587 20.1889 20.1729 20.8411L17.6865 22.1047V19.496V16.8873L20.0506 18.1509C21.3142 18.8031 22.4555 19.4145 22.537 19.496Z" />
</g>
</g>
</svg>
