<svg xmlns="http://www.w3.org/2000/svg" width="512" height="512" viewBox="0 0 512 512" version="1.1"><path d="M 152.260 50.434 C 134.720 56.114, 122.592 69.385, 114.728 91.500 C 110.512 103.355, 107.188 118.845, 97.635 171.130 L 88.433 221.500 59.466 222.031 C 32.247 222.530, 30.151 222.701, 24.715 224.866 C 16.627 228.087, 7.924 236.377, 3.768 244.820 C 0.677 251.099, 0.500 252.054, 0.500 262.479 C 0.500 272.645, 0.728 273.965, 3.439 279.500 C 7.189 287.157, 14.843 294.811, 22.500 298.561 L 28.500 301.500 254 301.761 C 461.908 302.002, 479.913 301.893, 484.796 300.360 C 495.466 297.010, 505.895 287.176, 509.491 277.073 C 510.386 274.558, 511.542 271.719, 512.060 270.764 C 513.351 268.378, 513.297 252.698, 512 253.500 C 511.450 253.840, 511 253.263, 511 252.219 C 511 248.111, 504.829 238.057, 498.989 232.651 C 488.741 223.162, 486.521 222.655, 452.536 222.031 L 423.573 221.500 414.335 171 C 404.836 119.073, 401.519 103.640, 397.246 91.500 C 387.103 62.678, 368.662 47.973, 342.712 48.015 C 324.539 48.044, 314.136 52.403, 295.944 67.610 C 263.321 94.880, 248.716 94.877, 216 67.592 C 197.602 52.248, 187.384 48.002, 169 48.060 C 161.822 48.082, 157.731 48.662, 152.260 50.434 M 164.184 79.047 C 148.944 82.122, 143.029 95.023, 133.591 145.765 L 129.362 168.500 192.681 168.757 C 227.506 168.899, 284.494 168.899, 319.319 168.757 L 382.638 168.500 378.437 146 C 371.782 110.357, 367.969 97.388, 361.314 87.746 C 356.363 80.573, 346.785 77.144, 336.926 79.014 C 329.439 80.434, 326.577 82.096, 315 91.748 C 309.225 96.562, 301.886 102.230, 298.692 104.343 C 285.282 113.212, 268.422 119, 256 119 C 237.835 119, 217.626 109.491, 195.500 90.531 C 192.200 87.704, 188.150 84.465, 186.500 83.334 C 180.786 79.417, 171.341 77.603, 164.184 79.047 M 123.521 201.246 C 122.952 202.951, 120 219.365, 120 220.828 C 120 221.718, 152.689 222, 256 222 C 384.880 222, 391.997 221.908, 391.940 220.250 C 391.907 219.287, 391.110 214.450, 390.169 209.500 L 388.459 200.500 256.199 200.246 C 150.894 200.044, 123.855 200.248, 123.521 201.246 M 34.656 254.133 C 32.165 255.581, 30.066 260.896, 30.692 264.171 C 30.973 265.640, 32.319 267.890, 33.682 269.171 L 36.161 271.500 256 271.500 L 475.839 271.500 478.318 269.171 C 479.681 267.890, 481.027 265.640, 481.308 264.171 C 481.956 260.779, 479.775 255.485, 477.150 254.080 C 474.309 252.560, 37.274 252.611, 34.656 254.133 M 0.355 262.500 C 0.352 267.450, 0.521 269.601, 0.731 267.280 C 0.940 264.959, 0.943 260.909, 0.736 258.280 C 0.530 255.651, 0.358 257.550, 0.355 262.500 M 146.392 318.895 C 109.897 327.870, 85.520 362.595, 89.978 399.259 C 94.743 438.450, 127.859 466.582, 167 464.689 C 206.157 462.794, 236.773 431.507, 237.366 392.779 L 237.500 384.057 242 383.279 C 247.703 382.292, 264.102 382.303, 270 383.298 L 274.500 384.057 274.648 392.779 C 275.193 424.867, 295.943 452.035, 327.500 461.976 C 336.976 464.961, 352.992 465.731, 362.678 463.667 C 377.498 460.509, 389.671 454.080, 399.916 444 C 408.388 435.664, 413.641 427.660, 417.675 416.940 C 435.844 368.661, 400.086 317, 348.500 317 C 332.693 317, 316.557 322.460, 303.349 332.278 C 297.043 336.965, 288.216 346.748, 285.429 352.137 C 284.484 353.964, 283.322 354.954, 282.495 354.636 C 274.264 351.478, 246.507 350.690, 234.716 353.280 L 227.932 354.770 226.469 351.941 C 223.775 346.729, 214.863 336.895, 208.651 332.278 C 200.699 326.367, 188.391 320.633, 179.303 318.606 C 170.014 316.533, 155.475 316.661, 146.392 318.895 M 150.487 349.799 C 134.345 355.381, 123.510 368.035, 120.783 384.491 C 117.752 402.782, 127.529 421.210, 144.790 429.741 C 152.196 433.401, 152.688 433.500, 163.448 433.500 C 173.808 433.500, 174.923 433.300, 181.259 430.299 C 212.285 415.602, 215.667 374.380, 187.440 354.959 C 177.746 348.289, 161.438 346.012, 150.487 349.799 M 334.579 350.047 C 314.636 357.094, 302.279 377.485, 305.733 397.648 C 308.187 411.976, 317.370 423.964, 330.741 430.299 C 337.077 433.300, 338.192 433.500, 348.552 433.500 C 359.312 433.500, 359.804 433.401, 367.210 429.741 C 400.229 413.422, 399.668 367.403, 366.259 351.733 C 360.415 348.992, 358.213 348.522, 350 348.259 C 342.362 348.015, 339.340 348.365, 334.579 350.047" fill-rule="evenodd"/></svg>