<svg xmlns="http://www.w3.org/2000/svg" height="24" viewBox="0 -960 960 960" width="24"><path d="M172.309-100.001q-30.308 0-51.308-21t-21-51.308v-415.382q0-30.308 21-51.308t51.308-21h207.692V-800q0-24.922 17.538-42.461 17.539-17.538 42.461-17.538h80q24.922 0 42.461 17.538 17.538 17.539 17.538 42.461v140.001h207.692q30.308 0 51.308 21t21 51.308v415.382q0 30.308-21 51.308t-51.308 21H172.309Zm0-59.999h615.382q5.385 0 8.847-3.462 3.462-3.462 3.462-8.847v-415.382q0-5.385-3.462-8.847-3.462-3.462-8.847-3.462H579.999v15.386q0 24.538-17.731 42.268-17.73 17.73-42.268 17.73h-80q-24.538 0-42.268-17.73-17.731-17.73-17.731-42.268V-600H172.309q-5.385 0-8.847 3.462-3.462 3.462-3.462 8.847v415.382q0 5.385 3.462 8.847 3.462 3.462 8.847 3.462Zm73.845-91.539h227.692v-11.846q0-15.461-8.539-28.423-8.538-12.961-23.615-20.192-19.615-8.615-39.731-12.923-20.115-4.308-41.961-4.308t-41.961 4.308q-20.116 4.308-39.731 12.923-15.077 7.231-23.615 20.192-8.539 12.962-8.539 28.423v11.846ZM560-312.309h160V-360H560v47.691ZM360-360q22.307 0 38.077-15.769 15.769-15.769 15.769-38.077 0-22.307-15.769-38.076-15.77-15.769-38.077-15.769t-38.077 15.769q-15.769 15.769-15.769 38.076 0 22.308 15.769 38.077Q337.693-360 360-360Zm200-60h160v-47.691H560V-420ZM440-584.614h80V-800h-80v215.386ZM480-380Z"/></svg>