<svg xmlns="http://www.w3.org/2000/svg" width="512" height="512" viewBox="0 0 512 512" version="1.1"><path d="M 26.174 26.314 C 24.051 28.575, 24 29.270, 24 56.140 C 24 83.604, 24.004 83.655, 26.314 85.826 C 28.164 87.563, 29.844 88, 34.676 88 L 40.722 88 37.832 99.750 C 30.122 131.100, 22.263 175.767, 18.434 210 C 16.255 229.478, 15.413 284.870, 16.904 310.646 C 19.076 348.193, 22.755 382, 28.022 412.799 L 30.980 430.097 28.091 435.820 C 20.408 451.040, 16.019 466.025, 16.007 477.076 C 16.001 482.661, 16.348 483.979, 18.314 485.826 L 20.629 488 256.140 488 L 491.651 488 493.826 485.686 L 496 483.371 496 359.860 L 496 236.349 493.750 234.298 C 492.512 233.170, 486.984 229.262, 481.465 225.614 L 471.430 218.981 467.634 203.589 C 464.826 192.204, 463.256 187.650, 461.604 186.098 C 459.391 184.018, 458.874 184, 402.842 184 L 346.313 184 344.109 169.750 C 341.484 152.781, 334.191 116.182, 330.160 99.750 L 327.278 88 333.566 88 C 339.169 88, 340.081 87.713, 341.927 85.365 C 343.907 82.849, 344 81.528, 344 56 C 344 30.472, 343.907 29.151, 341.927 26.635 L 339.855 24 184.102 24 L 28.349 24 26.174 26.314 M 40 56 L 40 72 184 72 L 328 72 328 56 L 328 40 184 40 L 40 40 40 56 M 57.075 91.750 C 50.351 116.915, 41.830 160.540, 37.591 191.500 C 31.249 237.820, 31.070 293.438, 37.069 353.675 C 38.174 364.771, 39.403 375.752, 39.800 378.077 L 40.522 382.304 44.854 376.690 C 51.421 368.177, 68.445 352.284, 78.772 345.024 C 90.415 336.840, 103.290 329.878, 116.873 324.419 L 127.500 320.149 127.780 306.357 C 128.033 293.846, 128.258 292.354, 130.204 290.283 C 131.984 288.388, 133.382 288.002, 138.424 288.012 C 149.368 288.033, 161.425 292.457, 170.750 299.872 L 176 304.047 176 292.143 L 176 280.239 166.750 279.832 C 159.056 279.495, 156.406 278.914, 150.997 276.381 C 142.672 272.483, 135.549 265.373, 131.582 257.003 L 128.500 250.500 128.181 227.638 C 127.867 205.113, 127.896 204.740, 130.106 202.388 C 131.981 200.391, 133.321 200, 138.280 200 C 145.931 200, 154.950 202.354, 162.500 206.322 C 168.224 209.330, 180.473 220.261, 182.869 224.500 L 184 226.500 185.131 224.500 C 187.527 220.261, 199.776 209.330, 205.500 206.322 C 213.050 202.354, 222.069 200, 229.720 200 C 234.679 200, 236.019 200.391, 237.894 202.388 C 240.104 204.740, 240.133 205.113, 239.819 227.638 L 239.500 250.500 236.418 257.003 C 232.451 265.373, 225.328 272.483, 217.003 276.381 C 211.594 278.914, 208.944 279.495, 201.250 279.832 L 192 280.239 192 292.143 L 192 304.047 197.250 299.872 C 206.575 292.457, 218.632 288.033, 229.576 288.012 C 234.618 288.002, 236.016 288.388, 237.796 290.283 C 239.744 292.357, 239.966 293.842, 240.220 306.498 L 240.500 320.430 248 323.207 C 252.125 324.734, 255.613 325.987, 255.750 325.992 C 255.887 325.996, 256 307.827, 256 285.615 L 256 245.230 272.153 216.865 C 281.037 201.264, 289.216 187.488, 290.327 186.250 C 292.284 184.072, 292.935 184, 310.674 184 C 324.668 184, 329 183.705, 329 182.750 C 328.999 175.265, 315.097 105.838, 310.379 89.750 C 309.893 88.095, 303.008 88, 183.971 88 L 58.077 88 57.075 91.750 M 172.500 105.346 C 165.678 107.605, 160.685 110.621, 155.850 115.402 L 151.201 120 121.775 120 L 92.349 120 90.174 122.314 C 87.138 125.547, 87.430 129.805, 91.215 137.481 L 94.429 144 91.215 150.519 C 87.349 158.359, 87.088 162.794, 90.314 165.826 C 92.582 167.956, 93.223 168, 121.915 168 L 151.201 168 155.850 172.637 C 158.408 175.187, 163.425 178.675, 167 180.387 C 173 183.261, 174.307 183.500, 184 183.500 C 193.655 183.500, 195.023 183.252, 201.003 180.418 C 204.579 178.723, 209.606 175.236, 212.174 172.668 L 216.842 168 246.247 168 L 275.651 168 277.826 165.686 C 280.862 162.453, 280.570 158.195, 276.785 150.519 L 273.571 144 276.785 137.481 C 280.651 129.641, 280.912 125.206, 277.686 122.174 C 275.418 120.044, 274.777 120, 246.107 120 L 216.842 120 212.174 115.332 C 209.590 112.748, 204.602 109.304, 201.003 107.619 C 195.519 105.051, 193.089 104.530, 185.500 104.297 C 179.970 104.128, 174.958 104.532, 172.500 105.346 M 177.821 121.373 C 157.256 127.008, 154.350 155.099, 173.321 164.862 C 186.835 171.817, 203.719 163.862, 206.897 149.043 C 210.580 131.873, 194.689 116.750, 177.821 121.373 M 110.608 137.750 C 111.670 140.010, 111.670 147.990, 110.608 150.250 C 109.842 151.881, 110.954 152, 126.893 152 L 144 152 144 144 L 144 136 126.893 136 C 110.954 136, 109.842 136.119, 110.608 137.750 M 224 144 L 224 152 241.107 152 C 257.046 152, 258.158 151.881, 257.392 150.250 C 256.330 147.990, 256.330 140.010, 257.392 137.750 C 258.158 136.119, 257.046 136, 241.107 136 L 224 136 224 144 M 290.074 219.370 C 283.983 230.024, 279 239.024, 279 239.370 C 279 239.717, 298.047 240, 321.326 240 L 363.651 240 365.826 242.314 C 368.805 245.486, 368.739 250.957, 365.686 253.826 C 363.379 255.993, 363.216 256, 317.686 256 L 272 256 272 325.954 L 272 395.908 280.250 389.928 C 290.588 382.434, 305.787 374.838, 317.500 371.311 C 325.804 368.811, 327.853 368.601, 344 368.601 C 360.147 368.601, 362.196 368.811, 370.500 371.311 C 382.572 374.946, 398.016 382.657, 407.899 389.985 L 416 395.992 416 325.996 L 416 256 402.174 256 C 389.015 256, 388.244 255.888, 386.174 253.686 C 383.208 250.528, 383.261 245.042, 386.285 242.202 C 388.387 240.227, 389.805 240.032, 403.914 239.777 L 419.258 239.500 430.570 219.750 L 441.883 200 371.516 200 L 301.148 200 290.074 219.370 M 445.728 226.962 C 442.028 233.452, 439 239.040, 439 239.381 C 439 239.721, 441.847 240, 445.326 240 C 450.645 240, 451.997 240.368, 453.826 242.314 C 456.805 245.486, 456.739 250.957, 453.686 253.826 C 451.638 255.749, 450.254 256, 441.686 256 L 432 256 432 364 L 432 472 440 472 L 448 472 448 386.174 L 448 300.349 450.314 298.174 C 453.486 295.195, 458.957 295.261, 461.826 298.314 L 464 300.629 464 386.314 L 464 472 472 472 L 480 472 479.984 358.250 L 479.969 244.500 470.779 238.500 C 457.032 229.524, 456.473 228.939, 455.001 222.002 C 454.293 218.669, 453.431 215.766, 453.085 215.553 C 452.739 215.339, 449.428 220.473, 445.728 226.962 M 144 228.521 C 144 242.704, 145.293 248.918, 149.351 254.238 C 153.667 259.897, 159.946 262.944, 168.821 263.688 L 176 264.290 175.992 260.395 C 175.978 253.042, 173.919 243.783, 171.045 238.145 C 166.358 228.951, 156.614 220.757, 147.133 218.038 L 144 217.140 144 228.521 M 219.059 218.701 C 213.199 220.685, 210.471 222.433, 204.666 227.926 C 196.637 235.524, 192.033 247.334, 192.008 260.395 L 192 264.290 199.179 263.688 C 208.064 262.943, 214.333 259.896, 218.666 254.216 C 222.814 248.777, 224.138 242.065, 223.784 228.275 L 223.500 217.198 219.059 218.701 M 331.746 289.086 C 326.019 290.435, 318.302 294.680, 313.458 299.146 C 300.699 310.906, 300.695 329.090, 313.449 340.846 C 321.624 348.382, 331.491 351.976, 344 351.976 C 366.702 351.976, 384 338.148, 384 320 C 384 305.872, 373.179 293.815, 356.500 289.359 C 350.934 287.873, 337.522 287.724, 331.746 289.086 M 337.147 305.034 C 331.554 306.186, 324.776 310.167, 322.505 313.632 C 321.527 315.125, 320.727 317.990, 320.727 320 C 320.727 327.203, 327.471 332.933, 338.250 334.889 C 348.663 336.778, 361.254 332.840, 365.495 326.368 C 367.930 322.652, 367.763 316.880, 365.112 313.158 C 360.656 306.900, 347.141 302.974, 337.147 305.034 M 144 316.521 C 144 330.704, 145.293 336.918, 149.351 342.238 C 153.667 347.897, 159.946 350.944, 168.821 351.688 L 176 352.290 175.992 348.395 C 175.978 341.042, 173.919 331.783, 171.045 326.145 C 166.358 316.951, 156.614 308.757, 147.133 306.038 L 144 305.140 144 316.521 M 219.059 306.701 C 213.199 308.685, 210.471 310.433, 204.666 315.926 C 196.637 323.524, 192.033 335.334, 192.008 348.395 L 192 352.290 199.179 351.688 C 208.064 350.943, 214.333 347.896, 218.666 342.216 C 222.814 336.777, 224.138 330.065, 223.784 316.275 L 223.500 305.198 219.059 306.701 M 126 338.700 C 96.165 349.474, 67.136 372.211, 49.360 398.729 L 43.843 406.958 45.922 417.821 C 47.065 423.796, 48 429.962, 48 431.523 C 48 433.084, 45.793 438.667, 43.096 443.931 C 38.429 453.038, 35.108 461.679, 33.551 468.768 L 32.841 472 104.421 472 L 176 472 176 464.119 L 176 456.239 166.750 455.832 C 159.056 455.495, 156.406 454.914, 150.997 452.381 C 142.672 448.483, 135.549 441.373, 131.582 433.003 L 128.500 426.500 128.181 403.638 C 127.867 381.113, 127.896 380.740, 130.106 378.388 C 131.996 376.375, 133.304 376.002, 138.424 376.012 C 149.368 376.033, 161.425 380.457, 170.750 387.872 L 176 392.047 176 380.143 L 176 368.239 166.750 367.832 C 159.048 367.494, 156.412 366.916, 151 364.377 C 142.660 360.464, 135.738 353.446, 131.662 344.770 C 129.923 341.068, 128.275 338.066, 128 338.099 C 127.725 338.131, 126.825 338.402, 126 338.700 M 236.318 344.763 C 232.318 353.230, 225.557 360.108, 217.178 364.233 C 211.632 366.963, 209.362 367.479, 201.352 367.830 L 192 368.239 192 380.143 L 192 392.047 197.250 387.872 C 206.575 380.457, 218.632 376.033, 229.576 376.012 C 234.696 376.002, 236.004 376.375, 237.894 378.388 C 240.104 380.740, 240.133 381.113, 239.819 403.638 L 239.500 426.500 236.418 433.003 C 232.451 441.373, 225.328 448.483, 217.003 452.381 C 211.594 454.914, 208.944 455.495, 201.250 455.832 L 192 456.239 192 464.119 L 192 472 224 472 L 256 472 255.997 408.250 L 255.993 344.500 249.247 341.774 C 245.536 340.275, 241.825 338.819, 241 338.537 C 239.930 338.173, 238.588 339.956, 236.318 344.763 M 334.061 385.046 C 315.007 387.632, 293.957 398.391, 277.750 413.828 L 272 419.304 272 445.652 L 272 472 344 472 L 416 472 416 445.594 L 416 419.187 408.862 412.579 C 386.825 392.176, 358.459 381.735, 334.061 385.046 M 144 404.521 C 144 418.704, 145.293 424.918, 149.351 430.238 C 153.667 435.897, 159.946 438.944, 168.821 439.688 L 176 440.290 175.992 436.395 C 175.978 429.042, 173.919 419.783, 171.045 414.145 C 166.358 404.951, 156.614 396.757, 147.133 394.038 L 144 393.140 144 404.521 M 219.059 394.701 C 213.199 396.685, 210.471 398.433, 204.666 403.926 C 196.637 411.524, 192.033 423.334, 192.008 436.395 L 192 440.290 199.179 439.688 C 208.064 438.943, 214.333 435.896, 218.666 430.216 C 222.814 424.777, 224.138 418.065, 223.784 404.275 L 223.500 393.198 219.059 394.701" stroke="none" fill-rule="evenodd"/></svg>