<svg xmlns="http://www.w3.org/2000/svg" xmlns:xlink="http://www.w3.org/1999/xlink" version="1.1" style="shape-rendering:geometricPrecision; text-rendering:geometricPrecision; image-rendering:optimizeQuality; fill-rule:evenodd; clip-rule:evenodd" viewBox="61.5 47.65 320.06 223.88">
<g><path style="opacity:0.982"  d="M 203.5,48.5 C 250.066,43.9651 290.232,57.6318 324,89.5C 326.637,93.9449 325.47,96.9449 320.5,98.5C 310.679,90.7567 300.679,83.2567 290.5,76C 244.5,51.3333 198.5,51.3333 152.5,76C 127.943,91.7823 108.609,112.449 94.5,138C 106.821,136.428 118.154,139.094 128.5,146C 131.167,146.667 133.833,146.667 136.5,146C 153.511,134.673 170.511,134.673 187.5,146C 190.5,146.667 193.5,146.667 196.5,146C 213.167,134.667 229.833,134.667 246.5,146C 249.5,146.667 252.5,146.667 255.5,146C 272.489,134.673 289.489,134.673 306.5,146C 309.167,146.667 311.833,146.667 314.5,146C 324.785,138.842 336.118,136.175 348.5,138C 343.284,129.066 337.451,120.566 331,112.5C 329.332,106.507 331.498,104.007 337.5,105C 347.246,116.763 355.413,129.596 362,143.5C 383.672,160.604 387.339,180.937 373,204.5C 367.022,210.984 360.022,215.984 352,219.5C 349.698,232.431 344.698,244.097 337,254.5C 327.142,265.011 314.975,270.511 300.5,271C 244.48,271.958 188.48,271.624 132.5,270C 114.664,265.496 102.498,254.663 96,237.5C 94.2955,229.521 96.9622,227.187 104,230.5C 109.8,248.313 121.966,258.48 140.5,261C 194.5,261.667 248.5,261.667 302.5,261C 318.838,258.99 330.338,250.49 337,235.5C 338.308,230.579 339.808,225.745 341.5,221C 337.469,220.519 333.469,219.853 329.5,219C 322.996,216.324 316.496,213.824 310,211.5C 303.95,214.103 297.783,216.603 291.5,219C 283.083,221.084 274.75,220.751 266.5,218C 261.591,215.126 256.424,212.96 251,211.5C 245.652,213.167 240.485,215.334 235.5,218C 226.167,221.333 216.833,221.333 207.5,218C 202.515,215.334 197.348,213.167 192,211.5C 186.576,212.96 181.409,215.126 176.5,218C 168.25,220.751 159.917,221.084 151.5,219C 145.217,216.603 139.05,214.103 133,211.5C 126.504,213.824 120.004,216.324 113.5,219C 87.2987,223.154 70.132,212.654 62,187.5C 59.5829,169.006 65.9162,154.339 81,143.5C 99.3105,103.189 128.81,74.3559 169.5,57C 180.674,52.9816 192.007,50.1483 203.5,48.5 Z M 98.5,147.5 C 102.915,147.305 107.249,147.805 111.5,149C 118.381,152.522 125.547,155.356 133,157.5C 138.477,156.678 143.31,154.511 147.5,151C 160.248,145.602 172.248,146.935 183.5,155C 186.311,155.911 189.144,156.744 192,157.5C 198.376,156.228 204.209,153.728 209.5,150C 221.382,145.719 232.382,147.386 242.5,155C 245.311,155.911 248.144,156.744 251,157.5C 257.376,156.228 263.209,153.728 268.5,150C 280.424,145.733 291.424,147.4 301.5,155C 304.311,155.911 307.144,156.744 310,157.5C 317.453,155.356 324.619,152.522 331.5,149C 344.657,146.052 355.824,149.552 365,159.5C 376.703,179.856 372.537,196.023 352.5,208C 339.461,212.409 327.461,210.409 316.5,202C 312.5,201.333 308.5,201.333 304.5,202C 289.676,212.786 274.676,213.119 259.5,203C 254.924,201.524 250.257,201.19 245.5,202C 238.181,206.829 230.181,209.662 221.5,210.5C 212.819,209.662 204.819,206.829 197.5,202C 192.743,201.19 188.076,201.524 183.5,203C 168.324,213.119 153.324,212.786 138.5,202C 134.5,201.333 130.5,201.333 126.5,202C 109.208,214.218 93.0416,213.051 78,198.5C 69.3333,185.5 69.3333,172.5 78,159.5C 83.7732,153.535 90.6066,149.535 98.5,147.5 Z"/></g>
<g><path style="opacity:0.969"  d="M 169.5,82.5 C 174.81,82.9866 177.143,85.9866 176.5,91.5C 176.951,96.0564 175.118,99.0564 171,100.5C 169.108,100.223 167.775,99.2231 167,97.5C 166.333,93.1667 166.333,88.8333 167,84.5C 167.995,83.9341 168.828,83.2674 169.5,82.5 Z"/></g>
<g><path style="opacity:0.969"  d="M 270.5,82.5 C 272.582,82.472 274.416,83.1387 276,84.5C 276.667,88.8333 276.667,93.1667 276,97.5C 273.763,101.02 271.096,101.353 268,98.5C 265.422,92.4059 266.255,87.0726 270.5,82.5 Z"/></g>
<g><path style="opacity:0.988"  d="M 206.5,85.5 C 216.506,85.3335 226.506,85.5002 236.5,86C 238.848,86.3459 240.681,87.5125 242,89.5C 244.989,97.6795 245.322,106.013 243,114.5C 237.189,128.28 227.022,133.113 212.5,129C 204.666,124.84 200.166,118.34 199,109.5C 197.902,102.615 198.569,95.9487 201,89.5C 202.5,87.5313 204.333,86.198 206.5,85.5 Z M 209.5,95.5 C 217.5,95.5 225.5,95.5 233.5,95.5C 233.666,101.509 233.499,107.509 233,113.5C 227.932,120.868 221.432,122.368 213.5,118C 211.951,116.786 210.785,115.286 210,113.5C 209.501,107.509 209.334,101.509 209.5,95.5 Z"/></g>
</svg>