<svg xmlns="http://www.w3.org/2000/svg" version="1.1" viewBox="48.04 58.14 303.46 319.86"><path d="M 303.500 59.227 C 296.214 61.824, 287.626 69.662, 282.520 78.375 C 281.030 80.919, 279.440 83, 278.987 83 C 278.535 83, 275.990 81.912, 273.332 80.583 C 259.086 73.459, 239.268 73.231, 225.923 80.039 C 223.889 81.077, 219.362 82.383, 215.863 82.942 C 190.470 87, 170.551 101.514, 160.516 123.272 C 155.890 133.302, 154.060 140.806, 153.327 152.750 L 152.699 163 148.059 163 C 142.324 163, 133.236 165.301, 126.098 168.562 C 123.126 169.919, 120.609 170.910, 120.503 170.764 C 120.396 170.619, 118.499 167.799, 116.286 164.499 C 109.035 153.681, 98.793 146.053, 91.500 146.037 C 83.143 146.019, 81.879 155.529, 89.897 158.095 C 91.879 158.729, 94.982 160.354, 96.793 161.707 C 100.654 164.592, 108 173.609, 108 175.465 C 108 176.172, 106.623 177.025, 104.941 177.362 C 92.566 179.837, 76.868 193.098, 70.449 206.500 C 66.963 213.779, 66.612 215.266, 66.559 223 C 66.493 232.515, 68.690 239.969, 72.306 242.502 C 77.993 246.485, 93.693 242.617, 105.252 234.385 C 107.866 232.523, 110.369 231, 110.815 231 C 111.261 231, 112.867 232.296, 114.385 233.880 C 121.503 241.309, 138.387 246.235, 144.666 242.715 C 149.921 239.768, 155.336 229.177, 157.171 218.255 C 158.380 211.057, 158.415 211, 161.514 211 C 168.614 211, 184.785 204.389, 190.201 199.271 C 193.413 196.237, 194.464 192.350, 193.066 188.674 C 191.641 184.925, 193.545 185.137, 202.354 189.709 C 211.273 194.339, 222.326 205.144, 226.725 213.535 C 232.583 224.711, 234.357 233.501, 234.286 251 C 234.200 272.351, 230.658 293.590, 222.378 322.404 C 217.098 340.779, 211.302 349.617, 199.550 357.213 C 190.221 363.242, 181.888 365.351, 169.653 364.778 C 158.159 364.241, 153.057 362.367, 137.221 352.868 C 97.972 329.326, 72.831 306.299, 64.760 286.500 C 60.006 274.838, 59.129 260.744, 62.415 248.827 C 64.588 240.949, 64.020 237.294, 60.485 236.407 C 56.074 235.300, 53.341 236.690, 51.658 240.897 C 46.685 253.325, 46.852 274.188, 52.036 288.376 C 61.166 313.357, 87.041 338.022, 131.500 364.125 C 149.670 374.793, 159.137 378, 172.453 378 C 195.485 378, 216.826 365.195, 227.416 345.022 C 231.224 337.766, 235.531 324.052, 239.958 305.086 C 245.706 280.456, 246.391 274.906, 246.445 252.500 C 246.490 233.476, 246.279 230.753, 244.198 223.557 C 239.242 206.424, 228.755 191.628, 215.203 182.651 C 206.235 176.710, 198.336 173.536, 187.500 171.519 C 182.550 170.598, 176.700 169.007, 174.500 167.985 C 172.300 166.962, 169.303 165.674, 167.841 165.122 C 165.193 164.123, 165.183 164.080, 165.691 155.809 C 166.367 144.776, 169.244 133.225, 173.197 125.664 C 177.769 116.920, 188.768 106.255, 197.951 101.661 C 207.241 97.013, 208.125 96.982, 206.786 101.345 C 205.184 106.564, 207.778 110.909, 215.071 115.223 C 220.990 118.725, 231.080 122.332, 238.113 123.460 C 241.579 124.016, 241.749 124.236, 242.296 128.855 C 243.741 141.054, 250.783 153.558, 257.455 155.771 C 260.655 156.833, 262.275 156.789, 267.288 155.505 C 274.375 153.689, 281.296 150.098, 285.773 145.915 L 288.997 142.902 293.248 145.816 C 299.704 150.242, 306.790 153.517, 314.132 155.469 C 322.233 157.624, 327.251 156.482, 329.862 151.892 C 330.763 150.308, 331.816 149.010, 332.203 149.006 C 332.590 149.003, 333.759 150.928, 334.802 153.285 C 340.237 165.572, 340.913 181.548, 336.546 194.500 C 329.630 215.010, 306.594 238.207, 272.477 259.018 C 254.943 269.712, 254 270.501, 254 274.471 C 254 278.234, 256.003 280, 260.271 280 C 263.290 280, 287.590 265.064, 301.662 254.559 C 320.885 240.207, 337.795 222.232, 344.478 209.044 C 350.101 197.947, 351.500 191.463, 351.500 176.500 C 351.500 164.360, 351.183 161.570, 349.111 155.500 C 345.911 146.125, 343.121 140.732, 337.576 133.206 C 335.026 129.744, 332.024 124.467, 330.907 121.481 C 325.702 107.570, 311.277 94.448, 296.250 89.954 C 291.429 88.513, 291.098 87.471, 294.166 83.385 C 299.022 76.917, 303.576 72.999, 308.613 70.954 C 315.446 68.181, 317.139 64.094, 313.255 59.750 C 311.513 57.802, 308.024 57.615, 303.500 59.227 M 236.324 89.377 C 234.027 90.130, 230.588 91.710, 228.681 92.888 C 224.491 95.477, 219.631 101.597, 220.326 103.408 C 221.357 106.093, 234.132 110.167, 243.722 110.869 C 249.022 111.257, 253.488 112.089, 254.222 112.825 C 255.083 113.687, 255.501 117.270, 255.503 123.803 C 255.506 132.457, 255.803 134.065, 258.270 138.750 C 259.790 141.637, 261.471 144, 262.006 144 C 264.065 144, 273.008 140.139, 275.514 138.167 C 276.961 137.030, 279.707 134.051, 281.618 131.549 C 286.453 125.217, 289.373 125.313, 296.742 132.047 C 302.730 137.520, 307.696 140.402, 314.844 142.553 C 320.637 144.297, 321.187 143.595, 320.764 135 C 319.982 119.112, 307.031 105.651, 287.959 100.904 C 283.307 99.746, 277.475 97.523, 275 95.964 C 265.928 90.249, 261.146 88.768, 250.500 88.377 C 243.816 88.131, 239.115 88.463, 236.324 89.377 M 196.591 147.250 C 195.791 148.488, 194.215 151.857, 193.088 154.737 C 190.144 162.263, 191.915 166, 198.427 166 C 201.315 166, 203.116 163.838, 205.828 157.117 C 208.501 150.492, 208.517 149.517, 206 147 C 203.254 144.254, 198.446 144.382, 196.591 147.250 M 246.292 166.199 C 244.295 168.704, 241 177.279, 241 179.972 C 241 185.195, 247.894 188.087, 251.196 184.250 C 252.024 183.287, 253.765 179.880, 255.065 176.677 C 257.235 171.332, 257.306 170.635, 255.933 168.177 C 254.822 166.188, 253.524 165.423, 250.883 165.199 C 248.829 165.026, 246.891 165.448, 246.292 166.199 M 146.500 175.737 C 139.340 176.354, 128.855 180.515, 123.871 184.717 C 122.976 185.472, 118.522 186.979, 113.973 188.065 C 102.988 190.689, 95.088 195.057, 88.543 202.127 C 82.386 208.777, 79 216.523, 79 223.956 C 79 231.591, 79.401 232.089, 84.329 230.578 C 91.932 228.246, 97.918 224.848, 104.032 219.393 C 107.356 216.427, 110.761 214, 111.600 214 C 112.438 214, 116.133 217.093, 119.812 220.874 C 125.032 226.239, 127.798 228.224, 132.412 229.920 C 139.029 232.352, 138.687 232.522, 142.316 225 C 144.052 221.400, 144.488 218.680, 144.493 211.407 C 144.502 199.904, 145.141 199.008, 153.372 198.976 C 156.743 198.962, 161.525 198.486, 164 197.917 C 169.762 196.592, 180 192.018, 180 190.768 C 180 188.679, 175.455 183.610, 171.113 180.856 C 164.596 176.724, 155.942 174.923, 146.500 175.737 M 297.200 185.118 C 294.705 186.045, 291.227 192.824, 290.293 198.580 C 289.293 204.746, 296.255 208.704, 300.266 204.250 C 302.150 202.158, 306 192.669, 306 190.118 C 306 186.607, 300.935 183.729, 297.200 185.118 M 257.805 209.206 C 255.818 210.723, 252 220.046, 252 223.382 C 252 226.581, 255.215 229.220, 258.629 228.825 C 261.847 228.452, 264.811 224.633, 266.977 218.069 C 268.207 214.343, 268.199 213.443, 266.914 211.143 C 265.227 208.122, 260.532 207.124, 257.805 209.206 M 195.911 233.357 C 191.544 235.534, 191.344 238.871, 195.116 246.582 C 197.989 252.456, 198.929 253.549, 201.338 253.825 C 205.114 254.257, 208.009 251.536, 207.968 247.595 C 207.924 243.371, 202.992 233.801, 200.395 232.901 C 199.226 232.496, 197.231 232.699, 195.911 233.357 M 145.455 254.455 C 142.458 257.451, 142.433 258.310, 145.146 265.117 C 148.508 273.549, 153.490 276.431, 157.345 272.171 C 159.635 269.641, 159.416 265.999, 156.592 259.613 C 153.152 251.835, 149.682 250.227, 145.455 254.455 M 96.411 274.323 C 94.099 276.311, 93.810 277.139, 94.397 280.073 C 95.602 286.097, 99.290 292.425, 102.173 293.414 C 106.002 294.729, 110 291.966, 110 288.005 C 110 283.945, 105.626 274.405, 103.158 273.085 C 100.288 271.549, 99.459 271.701, 96.411 274.323 M 182.347 278.593 C 180.742 281.043, 180.752 281.487, 182.530 286.719 C 183.564 289.762, 185.251 293.321, 186.278 294.626 C 189.762 299.055, 197 296.922, 197 291.466 C 197 288.108, 193.217 278.749, 191.254 277.250 C 188.433 275.095, 184.224 275.729, 182.347 278.593 M 136.029 296.318 C 131.844 298.439, 131.368 300.360, 133.485 306.587 C 136.013 314.023, 138.423 317, 141.918 317 C 145.117 317, 148 314.279, 148 311.260 C 148 310.115, 147.028 306.637, 145.839 303.532 C 143.296 296.885, 139.874 294.369, 136.029 296.318 M 172 321 C 169.367 323.633, 169.475 325.657, 172.637 332.950 C 174.551 337.361, 175.923 339.194, 177.637 339.624 C 181.574 340.612, 184.903 339.236, 185.635 336.318 C 186.433 333.140, 183.530 323.946, 180.806 321.022 C 178.404 318.444, 174.566 318.434, 172 321" fill-rule="evenodd"/></svg>