<svg xmlns="http://www.w3.org/2000/svg" version="1.0" preserveAspectRatio="xMidYMid meet" viewBox="0.15 20.02 511.72 472">

<g transform="translate(0.000000,512.000000) scale(0.100000,-0.100000)">
<path d="M874 4901 c-42 -25 -133 -139 -177 -221 -45 -82 -67 -168 -67 -259 0 -39 -3 -71 -7 -71 -5 0 -33 7 -63 15 -30 8 -99 18 -152 21 l-97 7 -30 -31 c-35 -35 -37 -56 -21 -189 17 -137 66 -254 139 -335 l46 -51 -30 7 c-17 3 -87 9 -157 13 -126 6 -126 6 -152 -20 -24 -24 -26 -33 -26 -105 0 -231 93 -474 225 -590 l42 -37 -110 3 c-102 3 -111 2 -133 -19 -22 -20 -24 -31 -24 -110 0 -227 91 -466 222 -585 l41 -36 -90 7 c-107 8 -158 -7 -169 -50 -12 -47 3 -236 25 -320 19 -71 81 -213 112 -256 10 -13 0 -41 -54 -150 -121 -245 -157 -386 -164 -649 -6 -209 4 -276 57 -379 36 -72 127 -173 197 -217 28 -19 87 -46 130 -60 71 -24 96 -27 269 -32 229 -6 258 -2 279 38 20 39 19 62 -6 94 l-20 26 -178 0 c-98 0 -202 5 -231 10 -130 25 -246 112 -303 229 l-32 66 1 195 c0 186 2 200 31 310 53 195 132 359 252 520 74 100 228 252 327 322 73 52 258 157 277 158 4 0 7 -141 7 -312 0 -185 4 -328 10 -350 14 -49 52 -93 104 -121 58 -31 174 -31 233 1 50 26 87 72 102 127 7 25 11 171 11 401 l0 361 70 7 c38 4 119 4 180 0 l110 -7 0 -361 c0 -211 4 -376 10 -397 43 -156 264 -214 384 -101 65 61 66 68 66 485 l0 377 183 0 182 0 0 -378 0 -377 26 -50 c36 -71 99 -108 190 -113 59 -4 77 0 123 22 35 17 63 41 82 68 l29 41 3 339 c1 186 6 338 10 338 18 -1 204 -106 276 -158 104 -73 275 -244 349 -348 153 -217 242 -452 267 -711 26 -265 -36 -437 -191 -530 -110 -66 -46 -63 -1406 -63 -1220 0 -1233 0 -1253 -20 -26 -26 -26 -80 -1 -111 l19 -24 1239 -3 c1359 -3 1309 -5 1438 57 127 60 234 177 282 308 34 95 47 246 33 396 -6 67 -15 140 -20 162 -5 22 -10 45 -10 51 0 8 44 13 138 16 105 4 150 9 194 25 102 37 203 123 252 213 57 105 56 80 56 1126 l0 961 63 65 c110 113 178 236 213 384 22 93 14 312 -14 399 -22 71 -65 157 -99 203 -29 39 -76 43 -117 11 -36 -28 -33 -59 14 -154 58 -115 73 -187 68 -314 -7 -171 -59 -288 -183 -414 -111 -114 -99 9 -105 -1127 -5 -929 -6 -998 -23 -1033 -26 -56 -94 -125 -152 -155 -46 -24 -62 -26 -202 -30 l-152 -4 -14 34 c-36 86 -49 78 133 78 141 0 166 2 200 20 37 19 77 62 96 105 5 11 11 461 14 1015 l5 995 24 44 c13 25 57 80 98 123 129 135 180 282 155 450 -30 204 -178 371 -377 423 -85 22 -1831 23 -1914 0 -91 -24 -162 -65 -231 -134 -102 -103 -150 -221 -150 -369 0 -139 48 -247 162 -369 132 -140 123 -82 126 -750 l3 -573 -56 0 -55 0 0 560 c0 455 -3 567 -14 593 -7 18 -45 64 -82 103 -111 114 -163 218 -185 369 -20 132 18 292 97 410 53 80 162 177 246 218 138 68 129 67 1092 67 918 0 933 -1 1065 -48 84 -30 131 -6 131 67 0 40 -25 64 -91 89 -129 47 -118 47 -1109 47 -1050 0 -993 4 -1157 -75 -491 -238 -590 -890 -194 -1275 l41 -39 0 -543 0 -543 -290 0 -290 0 39 78 c52 102 79 201 93 345 10 104 10 122 -5 152 -20 43 -40 48 -161 43 l-94 -3 54 54 c124 123 192 297 210 537 8 104 -7 149 -53 160 -28 7 -228 -2 -278 -13 l-30 -6 43 48 c88 100 142 260 142 420 0 124 -7 131 -140 128 -53 0 -125 -8 -159 -17 -35 -9 -66 -16 -69 -16 -4 0 -8 42 -8 93 -2 149 -61 279 -184 409 -72 75 -92 82 -146 49z m130 -307 c35 -70 50 -137 43 -197 -7 -58 -61 -174 -105 -227 l-29 -35 -41 64 c-64 98 -85 163 -80 246 5 78 44 171 100 239 l30 37 29 -39 c15 -21 39 -60 53 -88z m3441 -119 c156 -46 268 -211 251 -368 -9 -89 -44 -155 -133 -249 -80 -85 -124 -160 -142 -239 -7 -28 -11 -393 -11 -1002 0 -641 -3 -965 -10 -978 -10 -18 -23 -19 -198 -19 l-188 0 -17 29 c-10 17 -44 65 -75 108 -283 381 -763 653 -1199 680 l-93 6 0 552 c0 334 -4 574 -10 606 -18 92 -62 171 -143 256 -42 43 -88 103 -104 133 -24 48 -28 66 -28 145 0 76 4 99 26 145 45 96 116 160 217 196 58 20 1789 20 1857 -1z m-3886 -276 c110 -36 184 -98 228 -195 26 -58 51 -170 39 -181 -12 -12 -131 14 -195 42 -66 30 -127 88 -159 152 -26 51 -52 139 -52 178 l0 32 51 -8 c28 -4 67 -13 88 -20z m861 9 c-1 -39 -35 -149 -62 -200 -37 -70 -82 -112 -156 -146 -47 -21 -191 -54 -201 -46 -8 6 31 152 53 201 42 90 128 156 244 188 63 18 122 19 122 3z m-977 -590 c199 -55 317 -180 367 -391 11 -45 20 -100 20 -121 l0 -39 -61 7 c-314 32 -484 203 -524 525 l-7 54 67 -8 c37 -4 99 -16 138 -27z m1145 -35 c-26 -216 -128 -373 -291 -448 -74 -34 -198 -65 -263 -65 l-36 0 7 56 c18 147 77 285 155 364 87 86 258 153 406 159 l30 1 -8 -67z m-1148 -714 c159 -44 264 -128 325 -262 35 -77 65 -193 65 -253 l0 -37 -62 7 c-314 35 -484 204 -524 522 l-7 57 65 -7 c35 -3 97 -15 138 -27z m1150 -6 c0 -64 -39 -202 -75 -273 -20 -36 -57 -87 -83 -112 -43 -42 -54 -47 -132 -63 -69 -13 -225 -58 -289 -83 -11 -4 -12 5 -6 49 35 274 172 438 410 493 101 23 107 24 143 25 31 1 32 -1 32 -36z m590 -942 c0 -334 -1 -360 -18 -382 -13 -15 -30 -22 -52 -22 -22 0 -39 7 -52 22 -17 22 -18 48 -18 382 l0 359 70 0 70 0 0 -359z m-820 -7 c0 -206 -4 -353 -10 -364 -22 -42 -97 -42 -119 -1 -8 14 -10 129 -9 353 l3 332 45 12 c25 7 55 12 68 13 l22 1 0 -346z m1610 326 l25 -6 0 -344 0 -343 -26 -19 c-18 -14 -33 -17 -53 -12 -52 13 -56 39 -56 402 0 181 3 332 7 335 6 7 50 1 103 -13z m-2560 -110 c41 -10 97 -28 123 -39 l49 -21 -74 -69 c-40 -38 -95 -96 -123 -130 l-50 -60 -22 43 c-28 55 -60 170 -69 246 l-6 58 48 -5 c27 -2 83 -13 124 -23z"/>
<path d="M4130 4218 c-28 -31 -26 -83 5 -113 30 -30 64 -32 99 -4 33 26 37 88 6 119 -27 27 -83 27 -110 -2z"/>
<path d="M2803 4110 c-75 -30 -46 -150 36 -150 58 0 90 47 71 105 -15 46 -59 64 -107 45z"/>
<path d="M3855 3275 c-52 -52 -21 -135 50 -135 48 0 75 29 75 79 0 72 -76 106 -125 56z"/>
<path d="M3023 2972 c-48 -7 -70 -84 -37 -130 12 -17 25 -22 59 -22 52 0 75 24 75 81 0 52 -39 80 -97 71z"/>
<path d="M3988 2343 c-55 -65 -4 -157 76 -137 86 21 67 154 -23 154 -24 0 -44 -7 -53 -17z"/>
</g>
</svg>