<svg xmlns="http://www.w3.org/2000/svg" xmlns:xlink="http://www.w3.org/1999/xlink" version="1.1" style="shape-rendering:geometricPrecision; text-rendering:geometricPrecision; image-rendering:optimizeQuality; fill-rule:evenodd; clip-rule:evenodd" viewBox="64.97 69.5 315.18 315">
<g><path d="M 102.5,300.5 C 104.179,300.715 105.179,300.048 105.5,298.5C 105.762,297.022 105.429,295.689 104.5,294.5C 96.8932,289.973 92.2266,283.307 90.5,274.5C 84.1788,273.001 77.8455,271.501 71.5,270C 69.5561,267.847 69.0561,265.347 70,262.5C 75,253.833 80,245.167 85,236.5C 87.1529,234.556 89.6529,234.056 92.5,235C 96.5,239.667 100.5,244.333 104.5,249C 110.058,247.813 115.725,247.48 121.5,248C 128.44,250.275 134.94,253.442 141,257.5C 140.778,248.835 140.112,240.169 139,231.5C 131.958,226.127 129.625,219.127 132,210.5C 133.569,206.928 135.902,203.928 139,201.5C 138.911,168.806 142.245,136.473 149,104.5C 149.333,96.8333 149.667,89.1667 150,81.5C 156.914,76.7103 164.247,72.7103 172,69.5C 178.009,72.0881 183.842,75.0881 189.5,78.5C 195.158,75.0881 200.991,72.0881 207,69.5C 213.009,72.0881 218.842,75.0881 224.5,78.5C 230.158,75.0881 235.991,72.0881 242,69.5C 248.009,72.0881 253.842,75.0881 259.5,78.5C 265.158,75.0881 270.991,72.0881 277,69.5C 283.009,72.0881 288.842,75.0881 294.5,78.5C 300.158,75.0881 305.991,72.0881 312,69.5C 318.009,72.0881 323.842,75.0881 329.5,78.5C 335.158,75.0881 340.991,72.0881 347,69.5C 354.753,72.7103 362.086,76.7103 369,81.5C 369.333,89.1667 369.667,96.8333 370,104.5C 379.043,149.071 382.043,194.071 379,239.5C 377.494,261.376 374.494,283.043 370,304.5C 369.667,312.167 369.333,319.833 369,327.5C 362.086,332.29 354.753,336.29 347,339.5C 340.991,336.912 335.158,333.912 329.5,330.5C 323.842,333.912 318.009,336.912 312,339.5C 307.511,338.172 303.344,336.172 299.5,333.5C 294.234,347.1 284.567,355.767 270.5,359.5C 266.701,371.799 258.701,379.965 246.5,384C 203.5,384.667 160.5,384.667 117.5,384C 105.299,379.965 97.2989,371.799 93.5,359.5C 73.8626,354.371 64.3626,341.704 65,321.5C 65.5,321 66,320.5 66.5,320C 72.5275,319.83 78.5275,319.33 84.5,318.5C 87.5444,309.456 93.5444,303.456 102.5,300.5 Z M 171.5,80.5 C 177.247,84.0401 183.247,87.0401 189.5,89.5C 195.641,87.1791 201.474,84.1791 207,80.5C 212.526,84.1791 218.359,87.1791 224.5,89.5C 230.641,87.1791 236.474,84.1791 242,80.5C 247.526,84.1791 253.359,87.1791 259.5,89.5C 265.641,87.1791 271.474,84.1791 277,80.5C 282.526,84.1791 288.359,87.1791 294.5,89.5C 300.641,87.1791 306.474,84.1791 312,80.5C 316.751,83.4594 321.584,86.2928 326.5,89C 328.5,89.6667 330.5,89.6667 332.5,89C 337.416,86.2928 342.249,83.4594 347,80.5C 350.836,83.0857 354.836,85.419 359,87.5C 359.499,91.4862 359.666,95.4862 359.5,99.5C 292.833,99.5 226.167,99.5 159.5,99.5C 159.334,95.4862 159.501,91.4862 160,87.5C 164.147,85.5177 167.98,83.1844 171.5,80.5 Z M 152.5,197.5 C 151.609,198.11 150.609,198.443 149.5,198.5C 149.645,168.533 152.645,138.867 158.5,109.5C 225.833,109.5 293.167,109.5 360.5,109.5C 372.5,172.833 372.5,236.167 360.5,299.5C 333.159,299.833 305.825,299.5 278.5,298.5C 275.586,286.428 269.252,276.594 259.5,269C 250.456,264.094 241.123,259.761 231.5,256C 223.921,251.091 216.921,245.425 210.5,239C 207.064,237.787 203.73,237.287 200.5,237.5C 194.586,229.34 188.919,221.007 183.5,212.5C 189.219,203.576 188.219,195.41 180.5,188C 170.402,182.258 161.568,183.758 154,192.5C 153.392,194.154 152.892,195.821 152.5,197.5 Z M 167.5,194.5 C 174.159,194.655 176.993,197.989 176,204.5C 175.047,206.455 173.713,208.122 172,209.5C 171.333,211.5 171.333,213.5 172,215.5C 178.746,224.659 185.246,233.992 191.5,243.5C 188.403,246.888 184.736,249.555 180.5,251.5C 173.3,241.616 165.967,231.782 158.5,222C 154.218,222.629 149.885,222.962 145.5,223C 140.664,219.166 140.33,214.999 144.5,210.5C 149.475,208.422 153.475,209.589 156.5,214C 160.926,215.252 163.592,213.586 164.5,209C 161.034,203.025 162.034,198.192 167.5,194.5 Z M 171.5,274.5 C 165.232,271.698 159.232,268.365 153.5,264.5C 151.464,254.334 150.797,244.168 151.5,234C 153.367,233.289 154.867,233.789 156,235.5C 161,242.833 166,250.167 171,257.5C 170.951,260.345 170.451,263.178 169.5,266C 170.275,268.822 170.942,271.656 171.5,274.5 Z M 202.5,248.5 C 203.873,248.343 205.207,248.51 206.5,249C 211.761,254.953 217.761,259.953 224.5,264C 233.783,268.534 243.116,272.868 252.5,277C 265.837,288.18 271.17,302.347 268.5,319.5C 242.5,319.5 216.5,319.5 190.5,319.5C 191.362,300.999 188.029,283.333 180.5,266.5C 180.529,264.971 181.196,263.804 182.5,263C 189.411,258.39 196.078,253.557 202.5,248.5 Z M 84.5,262.5 C 84.1667,261.833 83.8333,261.167 83.5,260.5C 85.4462,256.561 87.7795,252.894 90.5,249.5C 92.9837,251.483 95.3171,253.65 97.5,256C 95.9684,258.034 94.6351,260.201 93.5,262.5C 90.5535,263.321 87.5535,263.321 84.5,262.5 Z M 113.5,257.5 C 118.182,257.338 122.515,258.505 126.5,261C 143.914,270.789 161.081,280.955 178,291.5C 178.853,300.721 179.686,309.888 180.5,319C 178.5,319.667 176.5,319.667 174.5,319C 171.5,309.333 165.167,303 155.5,300C 148.451,282.142 135.784,276.142 117.5,282C 115.359,283.308 113.359,284.808 111.5,286.5C 102.965,282.371 100.132,275.705 103,266.5C 105.489,262.168 108.989,259.168 113.5,257.5 Z M 127.5,289.5 C 138.524,290.358 144.357,296.358 145,307.5C 149.003,309.245 153.17,310.745 157.5,312C 159.874,314.039 161.874,316.372 163.5,319C 140.833,319.667 118.167,319.667 95.5,319C 99.1518,312.338 104.818,309.004 112.5,309C 114.245,304.997 115.745,300.83 117,296.5C 119.701,292.748 123.201,290.415 127.5,289.5 Z M 279.5,309.5 C 306.167,309.5 332.833,309.5 359.5,309.5C 359.666,313.514 359.499,317.514 359,321.5C 354.836,323.581 350.836,325.914 347,328.5C 341.474,324.821 335.641,321.821 329.5,319.5C 323.359,321.821 317.526,324.821 312,328.5C 307.249,325.541 302.416,322.707 297.5,320C 291.141,319.831 284.807,319.331 278.5,318.5C 279.407,315.579 279.74,312.579 279.5,309.5 Z M 75.5,329.5 C 146.5,329.5 217.5,329.5 288.5,329.5C 285.532,340.301 278.532,346.801 267.5,349C 210.5,349.667 153.5,349.667 96.5,349C 85.4399,346.77 78.4399,340.27 75.5,329.5 Z M 105.5,359.5 C 156.504,359.167 207.504,359.5 258.5,360.5C 255.316,368.189 249.65,372.689 241.5,374C 201.833,374.667 162.167,374.667 122.5,374C 113.912,372.577 108.245,367.744 105.5,359.5 Z"/></g>
<g><path style="opacity:0.977"  d="M 287.5,172.5 C 289.436,168.285 290.103,163.619 289.5,158.5C 291.987,153.637 295.153,153.304 299,157.5C 299.333,162.167 299.667,166.833 300,171.5C 302.921,173.712 306.088,175.545 309.5,177C 312.797,181.713 311.797,185.213 306.5,187.5C 302.5,185.167 298.5,182.833 294.5,180.5C 286.662,185.253 278.662,189.753 270.5,194C 278.334,199.085 286.334,203.918 294.5,208.5C 297.5,206.667 300.5,204.833 303.5,203C 310.931,201.766 313.098,204.6 310,211.5C 306.501,213.248 303.168,215.248 300,217.5C 299.667,222.167 299.333,226.833 299,231.5C 295.153,235.696 291.987,235.363 289.5,230.5C 290.103,225.381 289.436,220.715 287.5,216.5C 279.782,212.557 272.282,208.224 265,203.5C 264.333,212.833 264.333,222.167 265,231.5C 268.167,233.333 271.333,235.167 274.5,237C 279.017,241.749 278.183,245.249 272,247.5C 267.768,245.3 263.602,242.967 259.5,240.5C 255.398,242.967 251.232,245.3 247,247.5C 242.414,246.592 240.748,243.926 242,239.5C 245.828,236.585 249.828,233.919 254,231.5C 254.667,222.167 254.667,212.833 254,203.5C 246.333,208.167 238.667,212.833 231,217.5C 230.667,221.833 230.333,226.167 230,230.5C 227.201,235.278 224.034,235.611 220.5,231.5C 221.108,226.056 220.442,221.056 218.5,216.5C 215.281,214.973 212.115,213.307 209,211.5C 205.902,204.6 208.069,201.766 215.5,203C 218.667,204.833 221.833,206.667 225,208.5C 232.751,203.707 240.584,199.041 248.5,194.5C 240.584,189.959 232.751,185.293 225,180.5C 220.753,182.707 216.586,185.04 212.5,187.5C 207.923,186.079 206.423,183.079 208,178.5C 211.311,176.097 214.811,174.097 218.5,172.5C 220.442,167.944 221.108,162.944 220.5,157.5C 224.034,153.389 227.201,153.722 230,158.5C 230.333,162.833 230.667,167.167 231,171.5C 238.667,176.167 246.333,180.833 254,185.5C 254.667,176.167 254.667,166.833 254,157.5C 249.828,155.081 245.828,152.415 242,149.5C 240.748,145.074 242.414,142.408 247,141.5C 251.232,143.7 255.398,146.033 259.5,148.5C 263.602,146.033 267.768,143.7 272,141.5C 278.183,143.751 279.017,147.251 274.5,152C 271.333,153.833 268.167,155.667 265,157.5C 264.333,166.833 264.333,176.167 265,185.5C 272.282,180.776 279.782,176.443 287.5,172.5 Z"/></g>
<g><path style="opacity:0.408"  d="M 220.5,157.5 C 221.108,162.944 220.442,167.944 218.5,172.5C 219.121,167.398 219.787,162.398 220.5,157.5 Z"/></g>
<g><path style="opacity:0.188"  d="M 289.5,158.5 C 290.103,163.619 289.436,168.285 287.5,172.5C 288.117,167.731 288.784,163.064 289.5,158.5 Z"/></g>
<g><path style="opacity:0.471"  d="M 152.5,197.5 C 151.947,199.552 150.947,199.885 149.5,198.5C 150.609,198.443 151.609,198.11 152.5,197.5 Z"/></g>
<g><path style="opacity:0.408" d="M 218.5,216.5 C 220.442,221.056 221.108,226.056 220.5,231.5C 219.787,226.602 219.121,221.602 218.5,216.5 Z"/></g>
<g><path style="opacity:0.188" d="M 287.5,216.5 C 289.436,220.715 290.103,225.381 289.5,230.5C 288.784,225.936 288.117,221.269 287.5,216.5 Z"/></g>
<g><path style="opacity:0.22" d="M 83.5,260.5 C 83.8333,261.167 84.1667,261.833 84.5,262.5C 82.5759,262.289 82.2426,261.623 83.5,260.5 Z"/></g>
<g><path style="opacity:0.576"  d="M 105.5,298.5 C 105.179,300.048 104.179,300.715 102.5,300.5C 103.29,299.599 104.29,298.932 105.5,298.5 Z"/></g>
</svg>