<svg xmlns="http://www.w3.org/2000/svg" xmlns:xlink="http://www.w3.org/1999/xlink" version="1.1" style="shape-rendering:geometricPrecision; text-rendering:geometricPrecision; image-rendering:optimizeQuality; fill-rule:evenodd; clip-rule:evenodd" viewBox="66.96 83.5 316.47 316">
<g><path  d="M 150.5,244.5 C 154.33,243.311 155.33,240.978 153.5,237.5C 151.953,222.155 150.287,206.821 148.5,191.5C 133.779,187.892 121.279,180.558 111,169.5C 108.731,165.962 106.731,162.295 105,158.5C 82.5191,167.791 74.1857,160.791 80,137.5C 84.7247,127.371 92.558,120.871 103.5,118C 97.7556,113.131 91.4222,109.297 84.5,106.5C 82.8209,103.054 83.4876,100.221 86.5,98C 96.2378,98.7865 104.405,102.953 111,110.5C 116.4,91.7921 128.9,83.2921 148.5,85C 151.583,85.786 153.749,87.6193 155,90.5C 156.009,97.5576 155.176,104.391 152.5,111C 168.474,120.158 179.14,133.658 184.5,151.5C 213.833,152.833 243.167,152.833 272.5,151.5C 275.902,142.128 279.402,132.795 283,123.5C 301.667,109.669 320.667,96.3354 340,83.5C 345.023,84.6078 346.69,87.6078 345,92.5C 327.333,105.167 309.667,117.833 292,130.5C 289.192,137.757 286.692,145.09 284.5,152.5C 294.506,152.334 304.506,152.5 314.5,153C 323.466,157.864 326.633,165.364 324,175.5C 319.933,214.768 315.433,253.934 310.5,293C 334.333,316.833 358.167,340.667 382,364.5C 383.483,367.702 383.817,371.036 383,374.5C 375.33,383.592 365.83,390.092 354.5,394C 335.389,401.086 316.222,401.252 297,394.5C 294.046,396.393 290.879,397.893 287.5,399C 252.833,399.667 218.167,399.667 183.5,399C 179.921,398.257 176.754,396.757 174,394.5C 163.261,400.015 152.261,400.682 141,396.5C 128.637,401.06 116.803,399.893 105.5,393C 85.7044,379.277 73.5377,360.443 69,336.5C 64.2038,315.153 67.8705,295.487 80,277.5C 84.3673,272.796 89.5339,269.296 95.5,267C 91,263.167 86.5,259.333 82,255.5C 79.3949,249.926 80.5616,245.426 85.5,242C 98.3164,238.757 111.316,237.757 124.5,239C 132.613,240.638 139.446,244.471 145,250.5C 146.331,248.004 148.164,246.004 150.5,244.5 Z M 125.5,117.5 C 124.5,117.5 123.5,117.5 122.5,117.5C 122.5,115.833 122.5,114.167 122.5,112.5C 125.299,101.088 132.632,95.4214 144.5,95.5C 144.549,108.446 138.216,115.779 125.5,117.5 Z M 143.5,121.5 C 153.351,123.51 160.851,128.844 166,137.5C 168.735,142.299 170.902,147.299 172.5,152.5C 151.942,149.724 142.942,158.724 145.5,179.5C 137.208,176.022 129.541,171.522 122.5,166C 118.842,162.018 116.509,157.352 115.5,152C 119.538,144.714 121.872,136.881 122.5,128.5C 130.468,128.733 137.468,126.4 143.5,121.5 Z M 107.5,128.5 C 108.833,128.5 110.167,128.5 111.5,128.5C 110.842,143.158 103.175,150.825 88.5,151.5C 88.7604,138.59 95.0937,130.923 107.5,128.5 Z M 161.5,162.5 C 196.833,162.5 232.167,162.5 267.5,162.5C 262.797,177.579 257.797,192.579 252.5,207.5C 236.439,203.423 221.105,205.256 206.5,213C 196.006,216.031 185.673,215.364 175.5,211C 170.588,208.628 165.755,206.128 161,203.5C 158.939,190.896 157.939,178.229 158,165.5C 159.145,164.364 160.312,163.364 161.5,162.5 Z M 310.5,201.5 C 309.599,202.29 308.932,203.29 308.5,204.5C 298.738,210.299 288.238,213.965 277,215.5C 272.5,214.641 268,213.641 263.5,212.5C 263.167,212 262.833,211.5 262.5,211C 268.133,195.101 273.967,179.267 280,163.5C 289.422,162.349 298.922,162.182 308.5,163C 310.329,163.273 311.829,164.107 313,165.5C 312.647,177.514 311.814,189.514 310.5,201.5 Z M 162.5,218.5 C 162.842,217.662 163.508,217.328 164.5,217.5C 177.95,225.605 192.283,227.772 207.5,224C 213.978,221.093 220.644,218.76 227.5,217C 234.195,216.335 240.862,216.502 247.5,217.5C 231.173,263.645 214.339,309.645 197,355.5C 195.527,359.417 194.361,363.417 193.5,367.5C 194.193,372.151 196.859,373.651 201.5,372C 203.041,370.421 204.208,368.587 205,366.5C 222.799,318.577 240.299,270.577 257.5,222.5C 275.174,228.443 292.007,226.443 308,216.5C 305.87,238.793 303.537,261.127 301,283.5C 292.5,275 284,266.5 275.5,258C 271.167,254.667 266.833,254.667 262.5,258C 241.777,281.734 235.611,308.901 244,339.5C 250.906,360.402 263.739,376.569 282.5,388C 249.833,388.667 217.167,388.667 184.5,388C 182.667,387.5 181.5,386.333 181,384.5C 174.832,329.156 168.665,273.823 162.5,218.5 Z M 192.5,247.5 C 198.766,246.117 202.433,248.45 203.5,254.5C 203.246,259.255 200.746,261.922 196,262.5C 189.887,261.28 187.554,257.614 189,251.5C 190.376,250.295 191.542,248.962 192.5,247.5 Z M 100.5,249.5 C 109.25,249.09 117.916,249.59 126.5,251C 130.419,252.54 133.919,254.707 137,257.5C 139.497,261.351 138.663,264.184 134.5,266C 127.725,268.1 121.059,267.767 114.5,265C 107.151,261.663 100.484,257.329 94.5,252C 96.5018,250.981 98.5018,250.148 100.5,249.5 Z M 148.5,273.5 C 147.662,273.158 147.328,272.492 147.5,271.5C 148.943,265.67 151.443,260.336 155,255.5C 156.476,260.076 156.81,264.743 156,269.5C 153.552,270.973 151.052,272.307 148.5,273.5 Z M 268.5,267.5 C 271.146,269.479 273.479,271.812 275.5,274.5C 257.005,301.058 256.839,327.724 275,354.5C 297.572,378.767 324.072,384.267 354.5,371C 358.088,368.623 361.588,366.123 365,363.5C 367.35,365.683 369.517,368.016 371.5,370.5C 351.502,387.135 328.836,391.968 303.5,385C 270.87,373.089 253.537,349.756 251.5,315C 251.44,297.047 257.107,281.214 268.5,267.5 Z M 105.5,275.5 C 108.522,275.804 111.522,276.304 114.5,277C 121.275,280.388 128.275,283.221 135.5,285.5C 135.335,289.182 135.501,292.848 136,296.5C 139.843,300.729 143.177,300.395 146,295.5C 146.498,292.183 146.665,288.85 146.5,285.5C 150.437,284.965 154.104,283.632 157.5,281.5C 162.52,315.702 166.354,350.036 169,384.5C 164.728,386.523 160.228,387.856 155.5,388.5C 150.514,387.671 145.681,386.337 141,384.5C 135.405,387.025 129.571,388.192 123.5,388C 112.282,385.46 103.116,379.627 96,370.5C 78.0186,346.254 74.0186,319.92 84,291.5C 88.5427,282.435 95.7094,277.101 105.5,275.5 Z M 283.5,282.5 C 292.632,291.131 301.632,299.964 310.5,309C 297.82,309.833 285.154,309.666 272.5,308.5C 273.988,298.864 277.654,290.197 283.5,282.5 Z M 272.5,320.5 C 285.344,320.171 298.011,320.505 310.5,321.5C 301.535,329.964 292.702,338.631 284,347.5C 277.422,339.676 273.588,330.676 272.5,320.5 Z M 318.5,328.5 C 319.495,340.989 319.829,353.656 319.5,366.5C 309.256,365.755 300.256,362.089 292.5,355.5C 301.188,346.479 309.855,337.479 318.5,328.5 Z M 331.5,329.5 C 339.812,338.146 348.145,346.813 356.5,355.5C 349.81,361.843 341.81,365.509 332.5,366.5C 331.17,360.705 330.504,354.538 330.5,348C 330.5,341.657 330.834,335.491 331.5,329.5 Z"/></g>
<g><path style="opacity:0.227"  d="M 122.5,112.5 C 122.5,114.167 122.5,115.833 122.5,117.5C 123.5,117.5 124.5,117.5 125.5,117.5C 124.432,118.434 123.099,118.768 121.5,118.5C 121.205,116.265 121.539,114.265 122.5,112.5 Z"/></g>
<g><path style="opacity:0.976"  d="M 148.5,136.5 C 156.558,136.145 158.558,139.479 154.5,146.5C 147.478,148.309 144.978,145.642 147,138.5C 147.717,137.956 148.217,137.289 148.5,136.5 Z"/></g>
<g><path style="opacity:0.955"  d="M 132.5,152.5 C 139.943,151.917 142.276,154.917 139.5,161.5C 130.791,163.458 128.458,160.458 132.5,152.5 Z"/></g>
<g><path style="opacity:0.494"  d="M 310.5,201.5 C 310.715,203.179 310.048,204.179 308.5,204.5C 308.932,203.29 309.599,202.29 310.5,201.5 Z"/></g>
<g><path style="opacity:0.447"  d="M 164.5,217.5 C 163.508,217.328 162.842,217.662 162.5,218.5C 161.115,217.698 161.282,217.031 163,216.5C 163.765,216.57 164.265,216.903 164.5,217.5 Z"/></g>
<g><path style="opacity:0.982"  d="M 194.5,235.5 C 206.637,236.471 213.304,242.971 214.5,255C 213.052,265.782 206.885,271.948 196,273.5C 178.714,269.594 173.714,259.594 181,243.5C 184.617,239.116 189.117,236.45 194.5,235.5 Z M 192.5,247.5 C 191.542,248.962 190.376,250.295 189,251.5C 187.554,257.614 189.887,261.28 196,262.5C 200.746,261.922 203.246,259.255 203.5,254.5C 202.433,248.45 198.766,246.117 192.5,247.5 Z"/></g>
<g><path style="opacity:0.741"  d="M 153.5,237.5 C 155.33,240.978 154.33,243.311 150.5,244.5C 152.85,242.787 153.85,240.453 153.5,237.5 Z"/></g>
<g><path style="opacity:0.251"  d="M 147.5,271.5 C 147.328,272.492 147.662,273.158 148.5,273.5C 147.698,274.885 147.031,274.718 146.5,273C 146.57,272.235 146.903,271.735 147.5,271.5 Z"/></g>
<g><path style="opacity:0.98" d="M 101.5,286.5 C 108.493,284.996 111.327,287.663 110,294.5C 105.082,297.082 102.082,301.082 101,306.5C 98.3035,316.392 98.4702,326.392 101.5,336.5C 100.345,342.581 97.1784,343.915 92,340.5C 86.5326,324.038 87.5326,308.038 95,292.5C 97.0627,290.266 99.2294,288.266 101.5,286.5 Z"/></g>
<g><path style="opacity:0.965" d="M 185.5,288.5 C 193.818,288.987 195.485,292.487 190.5,299C 184.714,299.881 182.214,297.381 183,291.5C 184.045,290.627 184.878,289.627 185.5,288.5 Z"/></g>
<g><path style="opacity:0.967" d="M 191.5,314.5 C 197.843,314.999 199.843,318.166 197.5,324C 192.438,326.859 189.104,325.526 187.5,320C 188.007,317.455 189.341,315.621 191.5,314.5 Z"/></g>
<g><path style="opacity:0.513"  d="M 272.5,320.5 C 285.339,319.175 298.339,319.175 311.5,320.5C 311.376,321.107 311.043,321.44 310.5,321.5C 298.011,320.505 285.344,320.171 272.5,320.5 Z"/></g>
<g><path style="opacity:0.212" d="M 331.5,329.5 C 330.834,335.491 330.5,341.657 330.5,348C 330.504,354.538 331.17,360.705 332.5,366.5C 331.791,367.404 330.791,367.737 329.5,367.5C 329.333,354.163 329.5,340.829 330,327.5C 330.717,328.044 331.217,328.711 331.5,329.5 Z"/></g>
</svg>