<svg xmlns="http://www.w3.org/2000/svg" width="337" height="327" viewBox="0 0 337 327" version="1.1"><path d="M 109.500 30.134 C 99.600 35.609, 87.675 42.164, 83 44.701 C 78.325 47.238, 67.075 53.437, 58 58.477 C 48.925 63.517, 34.618 71.367, 26.206 75.922 C 10.051 84.670, 7.295 87.088, 8.893 91.115 C 9.414 92.427, 17.526 101.145, 26.920 110.489 L 44.001 127.479 26.599 144.989 C 17.027 154.620, 8.899 163.505, 8.536 164.733 C 7.531 168.132, 10.603 170.471, 29.245 180.500 L 45.974 189.500 45.987 221.703 C 45.996 243.317, 46.368 254.714, 47.120 256.364 C 47.901 258.077, 53.131 261.483, 64.370 267.595 C 73.242 272.420, 85.900 279.362, 92.500 283.024 C 99.100 286.685, 108.100 291.624, 112.500 294 C 116.900 296.376, 125.900 301.326, 132.500 305 C 139.100 308.674, 148.100 313.610, 152.500 315.970 C 156.900 318.329, 162.188 321.184, 164.250 322.314 L 168 324.368 171.750 322.314 C 173.813 321.184, 179.100 318.329, 183.500 315.970 C 187.900 313.610, 196.900 308.674, 203.500 305 C 210.100 301.326, 219.100 296.376, 223.500 294 C 227.900 291.624, 236.900 286.685, 243.500 283.024 C 250.100 279.362, 262.758 272.420, 271.630 267.595 C 282.869 261.483, 288.099 258.077, 288.880 256.364 C 289.632 254.714, 290.004 243.317, 290.013 221.703 L 290.026 189.500 306.755 180.500 C 325.397 170.471, 328.469 168.132, 327.464 164.733 C 327.101 163.505, 318.973 154.620, 309.401 144.989 L 291.999 127.479 309.080 110.489 C 318.474 101.145, 326.586 92.427, 327.107 91.115 C 327.794 89.384, 327.644 88.105, 326.559 86.450 C 325.729 85.183, 315.474 78.975, 303.495 72.486 C 286.527 63.295, 281.390 60.936, 279.419 61.431 C 276.652 62.125, 275.109 65.122, 275.762 68.534 C 276.193 70.788, 278.295 72.124, 300.441 84.216 C 305.908 87.201, 310.522 90.066, 310.694 90.582 C 310.866 91.097, 304.568 97.946, 296.700 105.801 L 282.393 120.082 269.946 113.198 C 259.523 107.433, 219.832 85.639, 209.500 80.007 C 207.850 79.108, 200.071 74.822, 192.214 70.484 L 177.928 62.597 192.662 47.838 L 207.396 33.079 214.948 37.206 C 219.102 39.476, 225.583 43.061, 229.350 45.173 C 233.118 47.284, 237.299 49.288, 238.641 49.625 C 243.731 50.902, 247.292 43.303, 243.250 39.789 C 240.007 36.969, 207.738 20, 205.619 20 C 204.234 20, 197.483 26.030, 185.760 37.740 L 168 55.479 150.240 37.740 C 136.366 23.882, 131.935 20.020, 129.990 20.090 C 128.620 20.139, 119.400 24.659, 109.500 30.134 M 109.500 43.591 C 99.050 49.377, 87.125 55.943, 83 58.181 C 78.875 60.419, 68.075 66.332, 59 71.322 C 49.925 76.312, 38.701 82.479, 34.057 85.025 C 29.414 87.572, 25.475 90.075, 25.304 90.588 C 25.133 91.100, 31.432 97.946, 39.300 105.801 L 53.607 120.082 66.054 113.198 C 77.565 106.831, 118.285 84.477, 127.500 79.465 C 141.089 72.075, 154.741 64.487, 156.202 63.514 C 157.686 62.524, 156.025 60.506, 143.202 47.724 L 128.500 33.069 109.500 43.591 M 256.908 52.092 C 255.522 53.478, 255.011 54.914, 255.394 56.342 C 255.712 57.529, 255.979 58.765, 255.986 59.089 C 256.014 60.291, 261.036 61.924, 262.738 61.285 C 267.066 59.661, 268.162 55.162, 265 52 C 262.426 49.426, 259.541 49.459, 256.908 52.092 M 150.500 80.134 C 141.700 85.086, 131.125 90.969, 127 93.207 C 116.999 98.632, 66.722 126.113, 65.677 126.726 C 64.601 127.357, 66.634 128.687, 77.500 134.462 C 82.450 137.092, 87.850 140.040, 89.500 141.013 C 91.150 141.985, 106.675 150.540, 124 160.022 C 141.325 169.505, 158.313 178.804, 161.750 180.686 L 168 184.109 174.250 180.686 C 177.688 178.804, 194.675 169.505, 212 160.022 C 229.325 150.540, 244.850 141.985, 246.500 141.013 C 248.150 140.040, 253.550 137.092, 258.500 134.462 C 269.366 128.687, 271.399 127.357, 270.323 126.726 C 269.566 126.282, 224.081 101.417, 209 93.203 C 205.425 91.256, 194.958 85.464, 185.741 80.332 C 176.523 75.199, 168.423 71.029, 167.741 71.064 C 167.058 71.100, 159.300 75.181, 150.500 80.134 M 38.987 149.527 C 27.337 161.209, 24.794 164.244, 26 165.027 C 26.825 165.562, 39.875 172.820, 55 181.156 C 70.125 189.491, 88.350 199.546, 95.500 203.500 C 102.650 207.454, 112.550 212.851, 117.500 215.493 C 122.450 218.135, 126.974 220.662, 127.553 221.108 C 128.198 221.604, 134.350 216.166, 143.416 207.084 L 158.226 192.249 135.863 179.967 C 123.563 173.213, 107.200 164.207, 99.500 159.955 C 75.228 146.552, 54.053 135, 53.758 135 C 53.602 135, 46.955 141.537, 38.987 149.527 M 273 139.838 C 268.325 142.467, 254.600 150.047, 242.500 156.684 C 230.400 163.320, 210.888 174.039, 199.141 180.503 L 177.782 192.257 192.588 207.088 C 201.636 216.151, 207.803 221.604, 208.447 221.110 C 209.026 220.666, 213.100 218.382, 217.500 216.035 C 221.900 213.687, 233.825 207.171, 244 201.554 C 254.175 195.937, 272.850 185.639, 285.500 178.669 C 298.150 171.699, 309.175 165.559, 310 165.025 C 311.206 164.244, 308.656 161.202, 297.013 149.527 C 289.045 141.537, 282.295 135.013, 282.013 135.029 C 281.731 135.045, 277.675 137.209, 273 139.838 M 58 223.839 L 58 250.891 68.750 256.624 C 74.662 259.777, 86.925 266.478, 96 271.515 C 105.075 276.552, 116.100 282.626, 120.500 285.014 C 124.900 287.402, 135.691 293.326, 144.480 298.178 C 153.269 303.030, 160.806 307, 161.230 307 C 161.653 307, 162 292.475, 162 274.723 C 162 239.039, 162.170 238, 168 238 C 173.830 238, 174 239.039, 174 274.723 C 174 292.475, 174.347 307, 174.770 307 C 175.194 307, 182.731 303.030, 191.520 298.178 C 200.309 293.326, 211.100 287.402, 215.500 285.014 C 219.900 282.626, 230.925 276.552, 240 271.515 C 249.075 266.478, 261.338 259.777, 267.250 256.624 L 278 250.891 278 223.839 C 278 198.489, 277.890 196.828, 276.250 197.448 C 275.288 197.811, 263.244 204.334, 249.486 211.942 C 208.853 234.411, 207.262 235.213, 204.755 234.471 C 203.515 234.104, 194.738 226.090, 185.250 216.662 L 168 199.521 150.750 216.662 C 141.262 226.090, 132.485 234.104, 131.245 234.471 C 128.738 235.213, 127.147 234.411, 86.514 211.942 C 72.756 204.334, 60.712 197.811, 59.750 197.448 C 58.110 196.828, 58 198.489, 58 223.839 M 163.333 219.615 C 161.795 221.961, 161.771 222.502, 163.098 224.865 C 164.246 226.910, 165.343 227.500, 168 227.500 C 170.657 227.500, 171.754 226.910, 172.902 224.865 C 174.229 222.502, 174.205 221.961, 172.667 219.615 C 171.460 217.772, 170.082 217, 168 217 C 165.918 217, 164.540 217.772, 163.333 219.615"  fill-rule="evenodd"/></svg>