<svg xmlns="http://www.w3.org/2000/svg" version="1.1" viewBox="0.01 0.3 512.44 509.45"><path d="M 244.334 1.455 C 222.045 5.579, 200.909 17.072, 184.794 33.829 C 167.188 52.137, 157.103 73.063, 154.109 97.500 C 153.439 102.960, 153.005 126.217, 153.003 156.632 L 153 206.764 144.250 209.468 C 134.787 212.393, 63.475 245.957, 53.265 252.291 C 27.252 268.432, 18.252 302.828, 32.614 331.218 L 35.001 335.936 27.197 343.718 C 14.654 356.225, 9.046 369.432, 9.015 386.540 C 8.997 396.027, 10.796 403.581, 15.610 414.245 L 19.128 422.036 14.275 427.481 C 5.052 437.829, -0.011 451.556, 0.015 466.144 C 0.034 476.951, 1.901 484.618, 7.154 495.464 C 11.846 505.152, 15.415 508.425, 22.506 509.545 C 27.660 510.359, 29.467 509.637, 66.111 492.140 L 95.723 478 138.361 478 C 171.792 478, 181.005 478.270, 181.025 479.250 C 181.038 479.938, 182.575 482.578, 184.438 485.117 C 191.690 494.999, 205.009 497.880, 216.542 492.062 C 222.241 489.188, 222.421 489.163, 224.933 490.909 C 230.785 494.978, 239.539 496.117, 247.236 493.811 C 251.995 492.385, 260.245 485.236, 261.989 481.026 L 263.243 478 377.871 477.978 C 486.644 477.957, 492.704 477.863, 496.500 476.133 C 502.494 473.400, 506.556 469.531, 509.380 463.865 L 511.916 458.777 512.295 466.638 C 512.503 470.962, 512.502 464.825, 512.293 453 C 512.083 441.175, 511.396 429.489, 510.765 427.031 C 509.964 423.910, 508.092 420.999, 504.559 417.376 C 498.426 411.087, 492.453 409, 480.586 409 L 472.534 409 477.707 404.475 C 487.913 395.547, 495.318 381.459, 498.431 365.050 C 501.838 347.087, 499.143 311.975, 493.931 306.427 C 492.693 305.109, 490.081 303.731, 488.127 303.364 C 482.753 302.356, 459.337 304.738, 448.999 307.344 L 439.849 309.650 434.499 302.575 C 428.195 294.240, 419.373 285.048, 410.946 278.035 C 400.805 269.595, 396.906 271.059, 378.319 290.282 C 358.848 310.421, 349.876 329.274, 349.863 350.080 C 349.851 367.936, 357.550 385.488, 374.061 405.250 L 377.194 409 333.045 409 L 288.896 409 294.698 404.141 C 312.543 389.195, 323.262 372.810, 329.791 350.500 L 332.425 341.500 332.753 264.879 L 333.081 188.259 343.291 187.757 C 356.133 187.126, 364.610 184.386, 374.817 177.566 C 386.774 169.578, 395.913 156.697, 399.344 143 L 400.721 137.500 412.187 137 C 422.475 136.551, 424.066 136.227, 427.670 133.839 C 434.491 129.322, 435.510 125.930, 435.436 108 C 435.363 90.459, 434.221 82.443, 429.944 69.445 C 419.321 37.157, 392.704 12.413, 358.175 2.727 C 350.847 0.671, 348.262 0.563, 301 0.351 C 263.356 0.182, 249.784 0.447, 244.334 1.455 M 255.877 18.010 C 219.378 21.505, 187.943 46.232, 176.148 80.728 C 171.454 94.455, 170.999 100.969, 171.010 154.381 L 171.021 204.500 180.760 204.741 C 198.047 205.168, 213.514 209.356, 229.652 217.979 L 239 222.974 239 200.647 C 239 181.856, 239.306 177.124, 240.932 170.766 C 245.592 152.544, 257.220 137.410, 274 127.727 C 279.742 124.414, 292.899 120, 297.033 120 C 299.722 120, 300.082 119.729, 299.357 118.250 C 298.886 117.287, 298.372 94.112, 298.215 66.750 L 297.929 17 280.715 17.140 C 271.247 17.217, 260.070 17.608, 255.877 18.010 M 316 64.414 C 316 113.292, 316.111 114.799, 319.913 117.718 C 321.109 118.636, 333.431 118.944, 369.902 118.968 L 418.304 119 417.707 104.250 C 417.010 87.028, 414.898 77.561, 409.076 65.554 C 397.825 42.352, 377.500 25.911, 352.764 20.003 C 347.960 18.855, 338.669 17.768, 330.288 17.372 L 316 16.697 316 64.414 M 253.220 36.578 C 243.975 41.185, 239.058 49.273, 239.022 59.934 C 238.944 82.817, 266.720 94.199, 282.876 77.905 C 292.417 68.282, 292.564 51.617, 283.196 41.624 C 276.027 33.975, 262.882 31.763, 253.220 36.578 M 335.463 36.278 C 331.734 39.486, 331.631 45.086, 335.236 48.691 C 338.371 51.825, 346.600 52.947, 352.405 51.031 C 359.221 48.782, 360.835 40.375, 355.288 36.012 C 351.393 32.948, 339.143 33.112, 335.463 36.278 M 259.736 53.250 C 257.255 55.134, 255.899 59.604, 256.962 62.399 C 258.079 65.337, 261.705 68, 264.588 68 C 267.513 68, 271.639 64.575, 272.409 61.507 C 273.138 58.602, 270.893 53.557, 268.455 52.621 C 265.802 51.603, 261.496 51.914, 259.736 53.250 M 295.348 138.420 C 275.577 143.215, 259.557 161.011, 257.015 181 C 256.491 185.125, 256.048 199.464, 256.031 212.864 L 256 237.228 260.868 242.864 C 289.923 276.499, 295.763 324.286, 275.733 364.500 C 267.901 380.225, 254.469 396.330, 241.493 405.555 L 236.503 409.103 241.001 408.448 C 254.810 406.436, 265.910 402.182, 277.659 394.399 C 293.158 384.132, 304.989 368.505, 311.274 350 L 314.500 340.500 314.777 238.750 L 315.055 137 307.777 137.085 C 303.775 137.132, 298.182 137.732, 295.348 138.420 M 333 153.500 L 333 170 340.395 170 C 357.820 170, 372.340 160.932, 379.621 145.500 C 383.895 136.442, 385.348 137, 357.500 137 L 333 137 333 153.500 M 168 222.617 C 160.416 223.533, 149.161 226.370, 142.500 229.046 C 133.843 232.523, 69.155 263.547, 62.819 267.260 C 49.501 275.065, 41.347 293.009, 43.904 308.885 C 45.136 316.533, 50.428 328.457, 52.248 327.684 C 52.937 327.392, 75.659 316.544, 102.742 303.577 C 129.824 290.609, 153.147 280, 154.569 280 C 156.093 280, 158.354 281.200, 160.077 282.923 C 163.680 286.526, 163.935 290.863, 160.750 294.355 C 159.426 295.807, 135.448 307.793, 102.500 323.474 C 65.262 341.196, 44.992 351.385, 42 353.886 C 27.462 366.035, 22.861 386.818, 30.795 404.500 C 32.522 408.350, 34.460 411.367, 35.102 411.205 C 35.744 411.043, 62.142 398.556, 93.766 383.455 C 125.389 368.355, 152.358 356, 153.697 356 C 157.430 356, 160.029 357.825, 161.578 361.533 C 163.149 365.291, 162.427 368.430, 159.365 371.166 C 158.339 372.082, 130.333 385.798, 97.129 401.646 C 53.238 422.595, 35.556 431.519, 32.353 434.339 C 22.482 443.027, 17.987 453.242, 18.022 466.907 C 18.041 474.342, 18.492 476.578, 21.369 483.500 C 23.250 488.026, 25.223 491.382, 25.913 491.228 C 27.099 490.963, 127.360 443.205, 191.201 412.495 C 208.637 404.108, 225.803 395.175, 229.348 392.645 C 248.157 379.224, 261.508 359.333, 267.187 336.274 C 270.167 324.173, 270.154 303.938, 267.160 292.758 C 262.950 277.044, 257.696 266.813, 247.749 254.964 C 236.235 241.247, 216.684 229.235, 199.083 225.064 C 190.699 223.076, 174.657 221.814, 168 222.617 M 391.755 301.903 C 368.908 325.911, 362.593 346.335, 371.329 367.964 C 374.365 375.480, 378.945 383.105, 383.910 388.909 L 387.682 393.318 388.368 381.181 C 389.967 352.879, 399.522 332.869, 417.154 320.895 L 423.071 316.877 419.822 312.689 C 415.760 307.452, 401.900 293, 400.940 293 C 400.548 293, 396.415 297.006, 391.755 301.903 M 467 322.125 C 447.957 324.322, 431.029 331.154, 421.444 340.511 C 415.248 346.561, 410.083 356.479, 407.910 366.500 C 406.422 373.358, 406.093 394.647, 407.340 403.391 L 408.179 409.281 416.692 408.627 C 445.371 406.422, 467.240 395.237, 475.317 378.641 C 480.815 367.344, 482.308 358.506, 481.753 340.541 C 481.481 331.718, 480.927 323.712, 480.522 322.750 C 479.713 320.827, 478.669 320.779, 467 322.125 M 199.250 428.220 C 197.019 429.296, 197 429.491, 197 450.979 C 197 472.340, 197.033 472.683, 199.314 474.826 C 202.690 477.997, 208.244 477.777, 210.927 474.365 C 212.884 471.878, 213 470.477, 213 449.365 L 213 427 207.250 427.068 C 204.088 427.105, 200.488 427.624, 199.250 428.220 M 231 449.826 C 231 472.392, 231.026 472.676, 233.314 474.826 C 236.690 477.997, 242.244 477.777, 244.927 474.365 C 246.884 471.878, 247 470.477, 247 449.365 L 247 427 239 427 L 231 427 231 449.826 M 265 443.500 L 265 460 377.500 460 C 487.591 460, 490.042 459.958, 491.944 458.056 C 494.555 455.445, 495.334 450.587, 494.793 440.287 C 494.382 432.441, 494.104 431.487, 491.615 429.346 L 488.888 427 376.944 427 L 265 427 265 443.500 M 156.442 448.957 L 134.385 459.500 156.340 459.770 C 168.415 459.918, 178.469 459.864, 178.682 459.651 C 178.896 459.438, 178.942 454.572, 178.785 448.838 L 178.500 438.413 156.442 448.957 M 0.370 466 C 0.370 471.775, 0.535 474.137, 0.737 471.250 C 0.939 468.363, 0.939 463.637, 0.737 460.750 C 0.535 457.863, 0.370 460.225, 0.370 466" fill-rule="evenodd"/></svg>