<svg xmlns="http://www.w3.org/2000/svg" xmlns:xlink="http://www.w3.org/1999/xlink" version="1.1" style="shape-rendering:geometricPrecision; text-rendering:geometricPrecision; image-rendering:optimizeQuality; fill-rule:evenodd; clip-rule:evenodd" viewBox="-0.5 -0.5 512 512">
<g><path style="opacity:0.944"  d="M 384.5,-0.5 C 400.833,-0.5 417.167,-0.5 433.5,-0.5C 444.095,2.97932 450.262,10.3127 452,21.5C 452.333,47.8333 452.667,74.1667 453,100.5C 455.274,117.712 460.941,133.712 470,148.5C 481.221,161.057 490.888,174.723 499,189.5C 505.333,202.985 509.499,216.985 511.5,231.5C 511.5,247.5 511.5,263.5 511.5,279.5C 506.201,346.01 501.034,412.677 496,479.5C 491.21,496.457 480.377,507.124 463.5,511.5C 316.167,511.5 168.833,511.5 21.5,511.5C 10.5,507.833 3.16667,500.5 -0.5,489.5C -0.5,484.167 -0.5,478.833 -0.5,473.5C 3.82978,461.804 12.1631,454.471 24.5,451.5C 31.9472,374.925 70.9472,321.758 141.5,292C 152.583,288.063 163.917,285.063 175.5,283C 165.39,263.549 169.056,247.216 186.5,234C 203.813,225.765 218.98,228.599 232,242.5C 238.113,251.611 240.113,261.611 238,272.5C 237.08,276.263 235.58,279.763 233.5,283C 261.222,287.618 286.389,298.118 309,314.5C 308.097,294.354 307.264,274.187 306.5,254C 305.248,228.593 310.748,204.759 323,182.5C 331.266,169.635 340.266,157.301 350,145.5C 357.788,132.136 362.788,117.803 365,102.5C 365.051,74.132 365.718,45.7987 367,17.5C 370.353,8.98151 376.186,2.98151 384.5,-0.5 Z M 388.5,17.5 C 402.931,17.0342 417.264,17.5342 431.5,19C 432.46,20.4194 433.293,21.9194 434,23.5C 434.499,29.4908 434.666,35.4908 434.5,41.5C 417.5,41.5 400.5,41.5 383.5,41.5C 383.171,34.7586 383.671,28.092 385,21.5C 386.376,20.2949 387.542,18.9616 388.5,17.5 Z M 383.5,59.5 C 400.5,59.5 417.5,59.5 434.5,59.5C 428.527,107.741 442.027,149.408 475,184.5C 483.863,197.916 489.697,212.583 492.5,228.5C 436.836,229.667 381.17,229.833 325.5,229C 328.207,215.88 332.707,203.38 339,191.5C 346.231,180.268 354.231,169.601 363,159.5C 381.528,128.681 388.362,95.3475 383.5,59.5 Z M 200.5,247.5 C 218.051,248.268 223.885,256.935 218,273.5C 208.365,283.049 199.032,282.715 190,272.5C 185.62,260.798 189.12,252.465 200.5,247.5 Z M 324.5,247.5 C 380.833,247.5 437.167,247.5 493.5,247.5C 491.687,292.878 489.021,338.212 485.5,383.5C 445.832,383.667 406.165,383.5 366.5,383C 361.296,372.754 355.463,362.921 349,353.5C 342.333,345.5 335.667,337.5 329,329.5C 326.598,302.21 325.098,274.877 324.5,247.5 Z M 194.5,298.5 C 268.407,298.318 321.24,331.318 353,397.5C 360.161,414.805 364.328,432.805 365.5,451.5C 258.167,451.5 150.833,451.5 43.5,451.5C 49.5444,385.549 82.5444,338.715 142.5,311C 159.369,304.331 176.702,300.165 194.5,298.5 Z M 374.5,401.5 C 411.168,401.333 447.835,401.5 484.5,402C 482.501,426.803 480.335,451.636 478,476.5C 475.565,483.934 470.732,489.101 463.5,492C 447.567,493.621 431.567,493.954 415.5,493C 421.316,474.781 415.65,461.448 398.5,453C 393.58,451.75 388.58,451.25 383.5,451.5C 382.557,434.451 379.557,417.785 374.5,401.5 Z M 25.5,469.5 C 147.5,469.333 269.5,469.5 391.5,470C 399.504,473.954 401.671,480.12 398,488.5C 396.457,490.378 394.624,491.878 392.5,493C 269.833,493.667 147.167,493.667 24.5,493C 17.0095,488.021 15.5095,481.521 20,473.5C 22.0153,472.303 23.8487,470.97 25.5,469.5 Z"/></g>
<g><path style="opacity:0.941"  d="M 55.5,16.5 C 61.4888,15.0652 65.6554,17.0652 68,22.5C 68.4988,26.4862 68.6655,30.4862 68.5,34.5C 83.8388,37.7663 94.3388,46.7663 100,61.5C 101.976,67.3731 102.643,73.3731 102,79.5C 96.7886,86.9394 91.122,87.2727 85,80.5C 84.9759,68.4415 79.8092,59.4415 69.5,53.5C 68.5006,69.8197 68.1672,86.1531 68.5,102.5C 89.7575,108.428 101.091,122.428 102.5,144.5C 101.838,160.667 94.8382,173.167 81.5,182C 77.3937,184.202 73.0604,185.702 68.5,186.5C 68.6655,190.514 68.4988,194.514 68,198.5C 63.8251,205.275 58.4918,206.275 52,201.5C 50.6115,196.628 50.1115,191.628 50.5,186.5C 26.8942,180.307 15.7276,164.973 17,140.5C 20.4256,135.562 24.9256,134.395 30.5,137C 33.8042,140.81 35.3042,145.31 35,150.5C 37.1429,158.475 41.9762,164.142 49.5,167.5C 50.4994,151.18 50.8328,134.847 50.5,118.5C 24.5434,110.96 13.3767,93.6269 17,66.5C 21.8469,49.1518 33.0136,38.4852 50.5,34.5C 50.3343,30.1539 50.501,25.8206 51,21.5C 52.025,19.313 53.525,17.6464 55.5,16.5 Z M 48.5,53.5 C 49.8309,60.803 50.4976,68.4697 50.5,76.5C 50.3333,84.1667 50.1667,91.8333 50,99.5C 34.0108,90.5226 30.3441,77.856 39,61.5C 41.772,58.2166 44.9386,55.5499 48.5,53.5 Z M 68.5,121.5 C 84.2368,130.11 88.0701,142.444 80,158.5C 76.9142,162.257 73.2475,165.257 69,167.5C 68.5001,152.17 68.3334,136.837 68.5,121.5 Z"/></g>
<g><path style="opacity:0.941" d="M 157.5,16.5 C 161.839,15.8461 165.673,16.8461 169,19.5C 170.388,24.3722 170.888,29.3722 170.5,34.5C 191.293,39.4633 202.626,52.63 204.5,74C 204.455,83.695 199.788,87.0284 190.5,84C 187.196,80.1903 185.696,75.6903 186,70.5C 183.857,62.5249 179.024,56.8582 171.5,53.5C 170.501,69.8197 170.167,86.1531 170.5,102.5C 192.259,108.001 203.592,122.001 204.5,144.5C 203.586,167.02 192.253,181.02 170.5,186.5C 170.666,190.846 170.499,195.179 170,199.5C 167.103,204.155 162.937,205.655 157.5,204C 155.274,202.773 153.774,200.939 153,198.5C 152.501,194.514 152.334,190.514 152.5,186.5C 139.386,183.551 129.553,176.218 123,164.5C 119.474,157.204 118.14,149.537 119,141.5C 122.04,135.632 126.54,134.132 132.5,137C 134.049,138.214 135.215,139.714 136,141.5C 136.337,153.193 141.504,161.86 151.5,167.5C 152.833,151.167 152.833,134.833 151.5,118.5C 130.768,112.106 119.768,98.1056 118.5,76.5C 119.425,53.9451 130.758,39.9451 152.5,34.5C 152.334,30.4862 152.501,26.4862 153,22.5C 153.804,19.8541 155.304,17.8541 157.5,16.5 Z M 150.5,53.5 C 151.831,60.803 152.498,68.4697 152.5,76.5C 152.333,84.1667 152.167,91.8333 152,99.5C 135.416,89.1668 132.416,75.8334 143,59.5C 145.688,57.636 148.188,55.636 150.5,53.5 Z M 170.5,121.5 C 186.072,129.379 190.239,141.379 183,157.5C 180.252,162.081 176.419,165.415 171.5,167.5C 170.501,152.181 170.167,136.848 170.5,121.5 Z"/></g>
<g><path style="opacity:0.941" d="M 259.5,16.5 C 264.535,15.5021 268.702,16.8354 272,20.5C 273.225,25.0853 273.725,29.752 273.5,34.5C 294.237,40.247 305.571,53.9137 307.5,75.5C 305.512,84.9998 300.179,87.4998 291.5,83C 289.838,76.0432 287.671,69.2099 285,62.5C 281.942,58.9383 278.442,55.9383 274.5,53.5C 273.167,69.8333 273.167,86.1667 274.5,102.5C 299.874,111.239 310.374,128.906 306,155.5C 300.839,171.829 290.005,182.162 273.5,186.5C 273.725,191.248 273.225,195.915 272,200.5C 266.667,205.833 261.333,205.833 256,200.5C 255.501,195.845 255.334,191.179 255.5,186.5C 233.949,181.108 222.282,167.275 220.5,145C 222.204,136.313 227.204,133.647 235.5,137C 236.701,137.903 237.535,139.069 238,140.5C 237.999,152.972 243.499,161.972 254.5,167.5C 255.499,151.18 255.833,134.847 255.5,118.5C 233.7,113.027 222.033,99.0268 220.5,76.5C 222.078,53.9342 233.745,39.9342 255.5,34.5C 255.334,29.8215 255.501,25.1548 256,20.5C 257.376,19.2949 258.542,17.9616 259.5,16.5 Z M 253.5,53.5 C 254.831,60.803 255.498,68.4697 255.5,76.5C 255.167,84.1667 254.833,91.8333 254.5,99.5C 240.116,91.4115 235.949,79.7448 242,64.5C 245.07,59.9273 248.904,56.2607 253.5,53.5 Z M 273.5,121.5 C 289.446,130.73 292.946,143.397 284,159.5C 281.244,162.927 277.91,165.593 274,167.5C 273.5,152.17 273.333,136.837 273.5,121.5 Z"/></g>
<g><path style="opacity:0.938"  d="M 362.5,289.5 C 393.502,289.333 424.502,289.5 455.5,290C 460.155,292.897 461.655,297.063 460,302.5C 458.363,304.81 456.196,306.31 453.5,307C 423.833,307.667 394.167,307.667 364.5,307C 357.608,304.193 355.775,299.36 359,292.5C 360.145,291.364 361.312,290.364 362.5,289.5 Z"/></g>
<g><path style="opacity:0.926" d="M 173.5,317.5 C 185.531,315.359 190.031,320.026 187,331.5C 186.097,332.701 184.931,333.535 183.5,334C 129.574,345.927 95.0743,378.427 80,431.5C 72.1697,438.917 66.3363,437.584 62.5,427.5C 78.3227,369.343 115.323,332.677 173.5,317.5 Z"/></g>
<g><path style="opacity:0.93"  d="M 379.5,323.5 C 399.169,323.333 418.836,323.5 438.5,324C 443.155,326.897 444.655,331.063 443,336.5C 441.457,338.378 439.624,339.878 437.5,341C 418.5,341.667 399.5,341.667 380.5,341C 374.516,337.637 373.016,332.803 376,326.5C 377.145,325.364 378.312,324.364 379.5,323.5 Z"/></g>
<g><path style="opacity:0.929"  d="M 454.5,424.5 C 459.382,424.175 462.882,426.175 465,430.5C 465.094,443.856 464.427,457.189 463,470.5C 462.31,473.196 460.81,475.363 458.5,477C 451.392,477.924 444.392,477.591 437.5,476C 431.485,466.319 434.151,460.819 445.5,459.5C 446.333,449.845 447.166,440.178 448,430.5C 449.436,427.558 451.603,425.558 454.5,424.5 Z"/></g>
</svg>