<svg xmlns="http://www.w3.org/2000/svg" version="1.0" preserveAspectRatio="xMidYMid meet" viewBox="0.14 19.14 511.63 473.86">

<g transform="translate(0.000000,512.000000) scale(0.100000,-0.100000)" >
<path d="M3421 4895 c-57 -27 -93 -54 -157 -118 -94 -95 -150 -193 -180 -321 l-17 -74 -67 -6 c-414 -41 -663 -392 -741 -1041 -21 -178 -24 -183 -248 -405 -116 -116 -216 -224 -245 -266 l-48 -71 -87 28 c-48 15 -119 33 -157 39 -126 21 -117 16 -109 58 22 126 123 251 250 312 86 41 105 63 105 121 0 20 -10 40 -29 60 -37 37 -75 37 -156 3 -94 -40 -92 -40 -99 -1 -12 61 -76 176 -134 239 -115 124 -261 189 -427 189 -205 1 -245 -38 -245 -236 0 -172 52 -299 169 -415 99 -98 238 -170 330 -170 45 0 50 -9 37 -72 -6 -31 -14 -59 -18 -63 -3 -3 -37 -10 -74 -16 -254 -35 -498 -155 -688 -339 -206 -200 -328 -436 -371 -720 -79 -516 192 -1041 661 -1282 181 -93 365 -138 569 -138 248 0 462 61 676 192 l36 22 124 -47 c163 -62 335 -110 489 -137 159 -28 465 -38 619 -20 638 73 1152 399 1521 966 167 256 330 661 374 929 40 240 45 592 12 778 -14 75 -17 80 -79 146 -99 105 -143 197 -177 372 -15 76 -42 101 -118 107 -105 7 -240 -42 -315 -115 -40 -38 -42 -45 -57 -208 -15 -158 -21 -175 -74 -203 -48 -26 -51 -32 -112 -197 -20 -55 -59 -144 -86 -198 l-49 -99 -85 139 c-131 211 -153 256 -168 327 -13 59 -12 81 5 203 69 506 1 839 -214 1045 -61 58 -176 125 -254 149 -49 14 -50 20 -27 100 38 129 124 227 250 285 85 39 107 70 94 131 -5 19 -10 36 -12 37 -61 46 -100 46 -197 1z m-226 -730 c192 -45 314 -161 373 -355 47 -153 53 -401 16 -620 -42 -248 -16 -346 164 -637 44 -70 97 -162 117 -204 l38 -76 -57 -76 c-314 -418 -764 -729 -1260 -872 -48 -14 -89 -25 -91 -25 -1 0 -2 64 -2 143 -1 257 -61 454 -209 682 -64 100 -220 262 -311 323 -34 23 -64 46 -67 51 -11 17 87 136 198 241 201 189 244 239 287 325 41 82 41 82 88 385 27 168 61 284 123 409 81 165 201 273 343 307 70 17 172 17 250 -1z m-2161 -759 c131 -60 225 -208 226 -353 0 -42 -1 -43 -35 -43 -207 0 -380 157 -393 356 -4 64 -3 72 14 76 36 7 138 -12 188 -36z m3640 -178 c29 -107 98 -237 165 -309 l60 -66 11 -109 c19 -207 5 -490 -35 -673 -67 -314 -247 -703 -439 -951 -264 -341 -604 -570 -995 -671 -563 -145 -1195 -23 -1781 344 -104 66 -300 207 -300 218 0 3 19 28 42 54 47 54 25 52 228 15 146 -28 491 -38 637 -21 550 67 1032 296 1442 686 289 275 517 620 655 990 20 54 34 75 57 89 74 43 110 135 128 320 6 60 12 110 13 111 2 1 17 10 33 18 52 28 60 23 79 -45z m-3156 -782 c300 -83 530 -273 667 -551 64 -130 91 -222 104 -365 9 -93 3 -251 -9 -264 -3 -2 -47 -7 -99 -12 l-94 -7 7 24 c14 51 18 207 7 276 -18 114 -57 229 -88 252 -37 30 -94 28 -126 -4 -37 -38 -39 -64 -12 -156 14 -46 28 -115 31 -154 6 -70 -10 -213 -25 -228 -11 -11 -230 18 -339 43 -121 29 -142 27 -199 -18 -149 -118 -238 -288 -188 -359 37 -52 313 -253 487 -354 l100 -58 -48 -24 c-63 -32 -190 -71 -280 -87 -103 -18 -317 -9 -421 19 -593 155 -931 776 -736 1351 120 354 421 616 799 695 111 23 345 13 462 -19z"/>
<path d="M3163 3973 c-39 -7 -73 -52 -73 -95 0 -34 7 -46 54 -92 44 -45 56 -63 66 -107 18 -87 23 -217 11 -319 -7 -52 -14 -127 -18 -167 -6 -70 -5 -72 25 -102 52 -53 128 -36 157 33 7 17 21 94 30 171 27 217 10 411 -46 529 -43 93 -138 162 -206 149z"/>
<path d="M3775 1139 c-66 -19 -87 -102 -39 -158 54 -64 164 -24 164 61 0 52 -14 77 -55 94 -19 8 -36 14 -37 13 -2 0 -16 -5 -33 -10z"/>
<path d="M3490 974 c-190 -89 -442 -154 -601 -154 -81 0 -130 -87 -85 -154 26 -40 59 -49 161 -42 239 18 631 145 681 221 29 44 24 93 -14 126 -40 36 -71 37 -142 3z"/>
<path d="M1719 2041 c-63 -64 -16 -171 75 -171 14 0 40 13 58 29 27 24 33 36 33 71 0 35 -6 47 -33 71 -44 40 -93 40 -133 0z"/>
</g>
</svg>