<svg xmlns="http://www.w3.org/2000/svg" xmlns:xlink="http://www.w3.org/1999/xlink" version="1.1" style="shape-rendering:geometricPrecision; text-rendering:geometricPrecision; image-rendering:optimizeQuality; fill-rule:evenodd; clip-rule:evenodd" viewBox="73.37 55.39 244.05 256.11">
<g><path style="opacity:0.967"   d="M 74.5,55.5 C 77.0444,55.1043 79.2111,55.771 81,57.5C 81.6667,68.1667 81.6667,78.8333 81,89.5C 78.6667,92.1667 76.3333,92.1667 74,89.5C 73.2103,78.1206 73.377,66.7872 74.5,55.5 Z"/></g>
<g><path style="opacity:0.992"  d="M 92.5,55.5 C 95.0444,55.1043 97.2111,55.771 99,57.5C 99.6667,66.8333 99.6667,76.1667 99,85.5C 96.6667,88.1667 94.3333,88.1667 92,85.5C 91.2165,75.4531 91.3832,65.4531 92.5,55.5 Z"/></g>
<g><path style="opacity:0.963"  d="M 109.5,55.5 C 111.722,55.178 113.556,55.8446 115,57.5C 115.667,63.5 115.667,69.5 115,75.5C 112.667,78.1667 110.333,78.1667 108,75.5C 107.333,69.5 107.333,63.5 108,57.5C 108.717,56.9558 109.217,56.2891 109.5,55.5 Z"/></g>
<g><path style="opacity:0.965"   d="M 124.5,55.5 C 127.044,55.1043 129.211,55.771 131,57.5C 131.667,66.8333 131.667,76.1667 131,85.5C 128.667,88.1667 126.333,88.1667 124,85.5C 123.217,75.4531 123.383,65.4531 124.5,55.5 Z"/></g>
<g><path style="opacity:0.967"   d="M 141.5,55.5 C 143.766,55.1412 145.599,55.8078 147,57.5C 147.667,68.1667 147.667,78.8333 147,89.5C 144.667,92.1667 142.333,92.1667 140,89.5C 139.333,78.8333 139.333,68.1667 140,57.5C 140.717,56.9558 141.217,56.2891 141.5,55.5 Z"/></g>
<g><path style="opacity:0.981"   d="M 110.5,81.5 C 111.496,81.4142 112.329,81.7476 113,82.5C 117.915,91.332 123.082,99.9987 128.5,108.5C 123.167,114.5 117.5,120.167 111.5,125.5C 105.5,120.167 99.8333,114.5 94.5,108.5C 100.108,99.6097 105.442,90.6097 110.5,81.5 Z"/></g>
<g><path style="opacity:0.977"   d="M 73.5,99.5 C 84.7984,110.298 95.9651,121.298 107,132.5C 107.667,144.167 107.667,155.833 107,167.5C 98,158.5 89,149.5 80,140.5C 78.0797,137.661 76.4131,134.661 75,131.5C 73.5973,120.898 73.0973,110.231 73.5,99.5 Z"/></g>
<g><path style="opacity:0.981"   d="M 148.5,99.5 C 149.912,110.052 149.745,120.718 148,131.5C 146.587,134.661 144.92,137.661 143,140.5C 134,149.5 125,158.5 116,167.5C 115.333,155.833 115.333,144.167 116,132.5C 127.035,121.632 137.869,110.632 148.5,99.5 Z"/></g>
<g><path style="opacity:0.981"  d="M 262.5,106.5 C 268.261,106.634 269.761,109.301 267,114.5C 257.833,123 249,131.833 240.5,141C 232.641,143.132 230.808,140.632 235,133.5C 244.394,124.605 253.56,115.605 262.5,106.5 Z"/></g>
<g><path style="opacity:0.967"  d="M 274.5,117.5 C 280.023,118.311 281.356,120.977 278.5,125.5C 270.348,133.152 262.348,140.985 254.5,149C 248.609,149.362 247.109,146.862 250,141.5C 258.062,133.27 266.228,125.27 274.5,117.5 Z"/></g>
<g><path style="opacity:0.972"  d="M 286.5,130.5 C 292.366,130.575 293.866,133.241 291,138.5C 285.681,143.318 280.515,148.318 275.5,153.5C 270.544,155.374 268.378,153.707 269,148.5C 274.728,142.274 280.561,136.274 286.5,130.5 Z"/></g>
<g><path style="opacity:0.975"  d="M 226.5,141.5 C 227.662,157.661 227.828,173.995 227,190.5C 219.333,198.167 211.667,205.833 204,213.5C 203.065,198.112 203.398,182.779 205,167.5C 206.413,164.339 208.08,161.339 210,158.5C 215.703,152.965 221.203,147.298 226.5,141.5 Z"/></g>
<g><path style="opacity:0.972" d="M 299.5,142.5 C 304.729,143.206 306.229,145.872 304,150.5C 296.167,158.333 288.333,166.167 280.5,174C 275.502,175.33 273.336,173.496 274,168.5C 282.702,159.965 291.202,151.298 299.5,142.5 Z"/></g>
<g><path style="opacity:0.977"  d="M 73.5,145.5 C 84.7984,156.298 95.9651,167.298 107,178.5C 107.667,190.167 107.667,201.833 107,213.5C 98,204.5 89,195.5 80,186.5C 78.0797,183.661 76.4131,180.661 75,177.5C 73.5973,166.898 73.0973,156.231 73.5,145.5 Z"/></g>
<g><path style="opacity:0.981" d="M 148.5,145.5 C 149.912,156.052 149.745,166.718 148,177.5C 146.587,180.661 144.92,183.661 143,186.5C 134,195.5 125,204.5 116,213.5C 115.333,201.833 115.333,190.167 116,178.5C 127.035,167.632 137.869,156.632 148.5,145.5 Z"/></g>
<g><path style="opacity:0.039"  d="M 265.5,156.5 C 265.56,155.957 265.893,155.624 266.5,155.5C 267.773,156.257 267.773,156.923 266.5,157.5C 266.5,156.833 266.167,156.5 265.5,156.5 Z"/></g>
<g><path style="opacity:0.985"  d="M 265.5,156.5 C 266.167,156.5 266.5,156.833 266.5,157.5C 264.736,167.491 262.403,177.324 259.5,187C 251.507,187.5 243.507,187.666 235.5,187.5C 235.334,179.493 235.5,171.493 236,163.5C 245.718,160.779 255.551,158.446 265.5,156.5 Z"/></g>
<g><path style="opacity:0.975" d="M 311.5,155.5 C 317.366,155.575 318.866,158.241 316,163.5C 306.473,172.694 296.973,181.861 287.5,191C 282.293,191.622 280.626,189.456 282.5,184.5C 292.215,174.785 301.881,165.119 311.5,155.5 Z"/></g>
<g><path style="opacity:0.982"  d="M 194.5,173.5 C 195.662,189.661 195.828,205.995 195,222.5C 187.333,230.167 179.667,237.833 172,245.5C 171.065,230.112 171.398,214.779 173,199.5C 174.413,196.339 176.08,193.339 178,190.5C 183.703,184.965 189.203,179.298 194.5,173.5 Z"/></g>
<g><path style="opacity:0.977"  d="M 73.5,191.5 C 84.7984,202.298 95.9651,213.298 107,224.5C 107.667,236.167 107.667,247.833 107,259.5C 98,250.5 89,241.5 80,232.5C 78.0797,229.661 76.4131,226.661 75,223.5C 73.5973,212.898 73.0973,202.231 73.5,191.5 Z"/></g>
<g><path style="opacity:0.974"  d="M 148.5,191.5 C 149.652,196.985 149.818,202.651 149,208.5C 137.685,217.796 131.685,229.796 131,244.5C 126,249.5 121,254.5 116,259.5C 115.333,247.833 115.333,236.167 116,224.5C 127.035,213.632 137.869,202.632 148.5,191.5 Z"/></g>
<g><path style="opacity:0.991"  d="M 251.5,218.5 C 237.99,218.829 224.656,218.496 211.5,217.5C 218.297,210.202 225.297,203.035 232.5,196C 248.833,195.333 265.167,195.333 281.5,196C 275.5,202 269.5,208 263.5,214C 259.781,216.364 255.781,217.864 251.5,218.5 Z"/></g>
<g><path style="opacity:0.991"  d="M 162.5,205.5 C 163.662,221.661 163.828,237.995 163,254.5C 155.333,262.167 147.667,269.833 140,277.5C 139.065,262.112 139.398,246.779 141,231.5C 142.333,228.833 143.667,226.167 145,223.5C 151.036,217.631 156.87,211.631 162.5,205.5 Z"/></g>
<g><path style="opacity:0.671"  d="M 211.5,217.5 C 224.656,218.496 237.99,218.829 251.5,218.5C 237.673,219.661 223.673,219.827 209.5,219C 210.044,218.283 210.711,217.783 211.5,217.5 Z"/></g>
<g><path style="opacity:0.671"  d="M 200.5,228.5 C 216.661,227.338 232.995,227.172 249.5,228C 248.956,228.717 248.289,229.217 247.5,229.5C 232.009,228.504 216.342,228.17 200.5,228.5 Z"/></g>
<g><path style="opacity:0.991"  d="M 200.5,228.5 C 216.342,228.17 232.009,228.504 247.5,229.5C 241.252,237.249 233.919,243.749 225.5,249C 223.5,249.667 221.5,250.333 219.5,251C 205.5,251.667 191.5,251.667 177.5,251C 185.035,243.298 192.702,235.798 200.5,228.5 Z"/></g>
<g><path style="opacity:0.984" d="M 168.5,259.5 C 184.837,259.333 201.17,259.5 217.5,260C 210.388,268.118 202.388,275.118 193.5,281C 191.5,281.667 189.5,282.333 187.5,283C 173.5,283.667 159.5,283.667 145.5,283C 153.369,275.298 161.036,267.465 168.5,259.5 Z"/></g>
<g><path style="opacity:0.967" d="M 109.5,267.5 C 111.722,267.178 113.556,267.845 115,269.5C 115.667,282.833 115.667,296.167 115,309.5C 112.667,312.167 110.333,312.167 108,309.5C 107.333,296.167 107.333,282.833 108,269.5C 108.717,268.956 109.217,268.289 109.5,267.5 Z"/></g>
<g><path style="opacity:0.97"  d="M 133.5,283.5 C 139.245,282.825 140.911,285.159 138.5,290.5C 134.833,294.167 131.167,297.833 127.5,301.5C 122.544,303.374 120.378,301.707 121,296.5C 125.034,291.968 129.2,287.634 133.5,283.5 Z"/></g>
</svg>