<svg xmlns="http://www.w3.org/2000/svg" xmlns:xlink="http://www.w3.org/1999/xlink" version="1.1" style="shape-rendering:geometricPrecision; text-rendering:geometricPrecision; image-rendering:optimizeQuality; fill-rule:evenodd; clip-rule:evenodd" viewBox="7.57 7.32 496.04 496.21">
<g><path style="opacity:0.941" d="M 81.5,7.5 C 135.584,7.00863 189.584,7.50863 243.5,9C 245.049,10.214 246.215,11.714 247,13.5C 247.333,30.8333 247.667,48.1667 248,65.5C 265.052,87.5509 281.718,109.884 298,132.5C 298.5,150.497 298.667,168.497 298.5,186.5C 320.56,188.075 340.227,195.741 357.5,209.5C 358.535,203.829 358.368,198.162 357,192.5C 353.137,177.577 348.47,162.91 343,148.5C 336.272,124.731 338.772,102.064 350.5,80.5C 356.069,82.7748 361.069,85.7748 365.5,89.5C 358.559,103.043 356.059,117.376 358,132.5C 362.396,148.689 367.396,164.689 373,180.5C 374.385,185.761 375.385,191.094 376,196.5C 430.384,174.015 469.05,190.015 492,244.5C 512.709,299.486 505.709,350.486 471,397.5C 462.347,407.495 452.514,415.995 441.5,423C 453.829,431.426 465.329,440.926 476,451.5C 493.233,474.391 488.066,489.891 460.5,498C 440.704,501.962 420.704,503.795 400.5,503.5C 346.365,502.578 292.699,497.078 239.5,487C 212.47,482.165 186.803,473.498 162.5,461C 147.507,452.339 138.34,439.505 135,422.5C 119.409,441.035 100.909,455.868 79.5,467C 56.1361,475.212 37.6361,469.045 24,448.5C 18.6335,434.698 20.6335,422.031 30,410.5C 35.4005,405.263 41.2338,400.597 47.5,396.5C 36.0598,391.702 25.8931,385.035 17,376.5C 5.94411,362.452 4.61078,347.452 13,331.5C 16,327.167 19.6667,323.5 24,320.5C 24.3333,258.167 24.6667,195.833 25,133.5C 41.1675,110.512 57.8342,87.8457 75,65.5C 75.3333,48.5 75.6667,31.5 76,14.5C 76.9383,11.4025 78.7716,9.06914 81.5,7.5 Z M 93.5,25.5 C 138.833,25.5 184.167,25.5 229.5,25.5C 229.5,36.5 229.5,47.5 229.5,58.5C 184.167,58.5 138.833,58.5 93.5,58.5C 93.5,47.5 93.5,36.5 93.5,25.5 Z M 89.5,76.5 C 133.168,76.3333 176.835,76.5 220.5,77C 207.833,93.6667 195.167,110.333 182.5,127C 138.833,127.667 95.1667,127.667 51.5,127C 64.3832,110.29 77.0499,93.4564 89.5,76.5 Z M 237.5,83.5 C 249.156,97.59 260.489,112.09 271.5,127C 249.5,127.667 227.5,127.667 205.5,127C 216.77,112.903 227.437,98.4033 237.5,83.5 Z M 42.5,145.5 C 87.8333,145.5 133.167,145.5 178.5,145.5C 178.5,162.167 178.5,178.833 178.5,195.5C 133.167,195.5 87.8333,195.5 42.5,195.5C 42.5,178.833 42.5,162.167 42.5,145.5 Z M 196.5,145.5 C 224.5,145.5 252.5,145.5 280.5,145.5C 280.5,159.833 280.5,174.167 280.5,188.5C 265.46,191.941 252.96,199.607 243,211.5C 218.974,244.598 209.14,281.598 213.5,322.5C 207.833,322.5 202.167,322.5 196.5,322.5C 196.5,263.5 196.5,204.5 196.5,145.5 Z M 288.5,204.5 C 306.314,203.604 322.647,208.104 337.5,218C 343.854,222.363 350.188,226.697 356.5,231C 354.66,235.687 353.327,240.52 352.5,245.5C 345.188,243.858 339.522,239.858 335.5,233.5C 330.133,236.178 325.133,239.345 320.5,243C 332.161,260.783 348.494,267.45 369.5,263C 380.776,259.699 389.443,253.032 395.5,243C 390.5,239.833 385.5,236.667 380.5,233.5C 378.211,236.291 375.711,238.958 373,241.5C 374.086,234.557 375.253,227.557 376.5,220.5C 395.626,204.642 416.96,200.809 440.5,209C 457.664,219.45 469.497,234.283 476,253.5C 493.581,301.657 486.914,345.99 456,386.5C 448.341,395.501 439.508,403.001 429.5,409C 427.35,410.59 425.017,411.257 422.5,411C 374.255,381.545 323.588,356.878 270.5,337C 258.014,332.712 245.347,329.045 232.5,326C 227.37,292.316 233.537,260.816 251,231.5C 260.086,217.556 272.586,208.556 288.5,204.5 Z M 42.5,213.5 C 87.8333,213.5 133.167,213.5 178.5,213.5C 178.833,251.173 178.5,288.839 177.5,326.5C 170.364,329.472 164.197,333.805 159,339.5C 155.307,315.753 147.64,293.419 136,272.5C 122.779,255.227 105.612,249.727 84.5,256C 69.1801,263.337 62.3468,275.504 64,292.5C 64.9059,300.551 67.4059,308.051 71.5,315C 65.2132,314.639 58.8799,314.139 52.5,313.5C 49.1453,313.724 45.812,314.057 42.5,314.5C 42.5,280.833 42.5,247.167 42.5,213.5 Z M 95.5,271.5 C 108.111,270.295 117.278,275.295 123,286.5C 135.16,311.474 142.16,337.807 144,365.5C 141.333,374.833 138.667,384.167 136,393.5C 120.378,414.124 101.878,431.624 80.5,446C 66.5614,455.642 53.7281,454.475 42,442.5C 37.7108,435.553 38.3775,428.886 44,422.5C 54.1139,413.023 65.9473,406.523 79.5,403C 83.5,398 83.5,393 79.5,388C 63.3474,383.753 48.3474,377.087 34.5,368C 24.7108,359.681 23.2108,350.181 30,339.5C 36.5732,333.864 44.2399,331.197 53,331.5C 66.3354,332.96 79.5021,335.293 92.5,338.5C 100.624,337.847 103.457,333.513 101,325.5C 91.0121,314.837 84.5121,302.337 81.5,288C 82.0984,278.911 86.765,273.411 95.5,271.5 Z M 193.5,340.5 C 202.213,340.248 210.88,340.748 219.5,342C 231.301,344.367 242.968,347.2 254.5,350.5C 248.006,375.149 241.006,399.649 233.5,424C 239.277,426.446 245.277,428.279 251.5,429.5C 258.372,405.552 265.039,381.552 271.5,357.5C 319.61,375.556 365.61,397.889 409.5,424.5C 410.631,426.074 410.798,427.741 410,429.5C 407.029,438.386 404.529,447.386 402.5,456.5C 408.5,457.833 414.5,459.167 420.5,460.5C 422.352,452.107 424.518,443.774 427,435.5C 439.532,443.693 451.199,453.027 462,463.5C 464.555,466.781 466.722,470.281 468.5,474C 462.618,478.478 455.951,481.145 448.5,482C 432.259,484.398 415.925,485.565 399.5,485.5C 374.786,484.971 350.119,483.638 325.5,481.5C 327.661,471.852 330.327,462.352 333.5,453C 327.677,450.545 321.677,448.712 315.5,447.5C 312.982,457.57 310.149,467.57 307,477.5C 264.956,475.29 224.122,466.79 184.5,452C 154.171,439.4 145.004,417.567 157,386.5C 159.876,374.195 164.876,362.862 172,352.5C 178.012,346.248 185.179,342.248 193.5,340.5 Z"/></g>
<g><path style="opacity:0.934" d="M 403.5,109.5 C 417.991,109.714 429.824,115.381 439,126.5C 441.166,129.333 442.666,132.5 443.5,136C 436.033,152.749 423.033,161.583 404.5,162.5C 385.937,161.572 372.937,152.738 365.5,136C 372.819,119.516 385.486,110.683 403.5,109.5 Z M 397.5,128.5 C 407.262,126.605 415.595,129.105 422.5,136C 410.5,147.333 398.5,147.333 386.5,136C 389.818,132.825 393.485,130.325 397.5,128.5 Z"/></g>
</svg>