<svg xmlns="http://www.w3.org/2000/svg" width="50" height="50" viewBox="0 0 50 50" version="1.1"><path d="M 4.694 4.640 C 4.312 5.021, 4 13.625, 4 23.760 C 4 41.346, 4.091 42.211, 6 42.710 C 7.100 42.998, 8 43.856, 8 44.617 C 8 45.487, 9.112 46, 11 46 C 13 46, 14 45.500, 14 44.500 C 14 42.382, 21.560 42.411, 22.374 44.533 C 22.864 45.809, 24.852 46.018, 34.231 45.783 L 45.500 45.500 45.500 33 L 45.500 20.500 39.291 20.203 L 33.082 19.907 32.791 12.203 L 32.500 4.500 18.944 4.223 C 11.488 4.071, 5.075 4.258, 4.694 4.640 M 6.697 6.637 C 6.314 7.020, 6 9.058, 6 11.167 L 6 15 18.557 15 L 31.115 15 30.807 10.750 L 30.500 6.500 18.947 6.220 C 12.592 6.066, 7.080 6.253, 6.697 6.637 M 9 10.500 C 9 11.875, 9.450 13, 10 13 C 10.550 13, 11 11.875, 11 10.500 C 11 9.125, 10.550 8, 10 8 C 9.450 8, 9 9.125, 9 10.500 M 6.218 28.750 L 6.500 40.500 14.215 40.791 L 21.929 41.083 22.215 30.791 L 22.500 20.500 26.750 20.193 C 29.644 19.983, 31 19.425, 31 18.443 C 31 17.263, 28.719 17, 18.468 17 L 5.937 17 6.218 28.750 M 9 22 C 9 23.650, 9.450 25, 10 25 C 10.550 25, 11 23.650, 11 22 C 11 20.350, 10.550 19, 10 19 C 9.450 19, 9 20.350, 9 22 M 24.443 23.287 C 24.156 24.037, 24.051 28.891, 24.210 34.075 L 24.500 43.500 34 43.500 L 43.500 43.500 43.500 33 L 43.500 22.500 34.233 22.212 C 27.130 21.992, 24.844 22.243, 24.443 23.287 M 36 25 C 36 25.550, 36.450 26, 37 26 C 37.550 26, 38 25.550, 38 25 C 38 24.450, 37.550 24, 37 24 C 36.450 24, 36 24.450, 36 25 M 40 25 C 40 25.550, 40.450 26, 41 26 C 41.550 26, 42 25.550, 42 25 C 42 24.450, 41.550 24, 41 24 C 40.450 24, 40 24.450, 40 25 M 29.571 29.571 C 27.550 31.592, 27.550 36.408, 29.571 38.429 C 30.436 39.293, 32.429 40, 34 40 C 37.644 40, 40 37.644, 40 34 C 40 30.356, 37.644 28, 34 28 C 32.429 28, 30.436 28.707, 29.571 29.571 M 31.571 31.571 C 30.707 32.436, 30 33.529, 30 34 C 30 35.111, 32.889 38, 34 38 C 35.111 38, 38 35.111, 38 34 C 38 32.889, 35.111 30, 34 30 C 33.529 30, 32.436 30.707, 31.571 31.571 M 10.333 43.667 C 10.700 44.033, 11.300 44.033, 11.667 43.667 C 12.033 43.300, 11.733 43, 11 43 C 10.267 43, 9.967 43.300, 10.333 43.667"  fill-rule="evenodd"/></svg>