<?xml version="1.0" standalone="no"?>
<!DOCTYPE svg PUBLIC "-//W3C//DTD SVG 20010904//EN"
 "http://www.w3.org/TR/2001/REC-SVG-20010904/DTD/svg10.dtd">
<svg version="1.0" xmlns="http://www.w3.org/2000/svg"
 width="1024.000000pt" height="1024.000000pt" viewBox="0 0 1024.000000 1024.000000"
 preserveAspectRatio="xMidYMid meet">

<g transform="translate(0.000000,1024.000000) scale(0.100000,-0.100000)">
<path d="M5925 9648 c-449 -84 -787 -436 -812 -848 -3 -52 -10 -101 -16 -107
-7 -10 -57 -13 -186 -13 -175 0 -176 0 -235 30 -34 18 -74 30 -97 30 l-37 0
-7 88 c-3 48 -11 108 -16 134 -22 99 -131 176 -235 165 -66 -7 -124 -37 -163
-84 -41 -50 -51 -89 -51 -205 l0 -98 -34 0 c-28 0 -35 5 -44 28 -74 199 -108
259 -190 332 -123 110 -284 127 -435 47 -104 -55 -186 -172 -223 -322 -22 -85
-29 -95 -64 -95 l-28 0 -3 108 c-4 91 -8 115 -29 157 -64 123 -224 160 -343
78 -67 -46 -87 -94 -92 -219 -3 -60 -5 -112 -5 -116 0 -4 -17 -15 -37 -23 -21
-9 -48 -26 -61 -38 -24 -22 -24 -22 -555 -27 l-532 -5 -54 -30 c-59 -32 -96
-75 -117 -132 -17 -49 -18 -390 -4 -1953 6 -652 14 -1590 19 -2085 l8 -900
-38 -42 c-21 -23 -41 -53 -45 -67 -8 -34 3 -91 21 -106 7 -6 17 -26 21 -43 3
-18 17 -50 30 -73 13 -22 24 -57 24 -76 l0 -35 -72 -13 c-217 -38 -358 -121
-387 -227 -14 -51 -14 -61 8 -109 l19 -42 -26 -53 -27 -54 3 -665 c2 -409 7
-680 13 -705 13 -51 60 -125 96 -151 96 -70 274 -135 453 -165 76 -13 482 -19
630 -9 l75 5 3 -40 c4 -66 11 -84 47 -124 79 -87 260 -125 496 -103 218 20
360 60 575 162 70 33 138 63 151 66 13 4 23 10 23 14 0 5 16 14 35 21 19 7 35
17 35 21 0 4 7 8 15 8 8 0 15 5 15 10 0 6 9 10 20 10 11 0 20 4 20 8 0 9 166
122 179 122 5 0 12 -30 16 -67 8 -79 18 -104 65 -164 52 -67 98 -104 173 -139
61 -28 75 -31 189 -33 116 -2 126 0 181 25 32 16 60 28 63 28 11 0 72 48 107
85 51 53 75 102 93 186 24 114 -4 223 -79 309 l-31 35 115 3 114 3 25 -32
c175 -228 359 -369 580 -444 151 -51 276 -68 510 -69 118 0 267 6 330 13 435
47 778 317 1023 807 39 77 68 122 99 149 66 60 81 82 74 111 l-7 25 -47 -39
c-200 -165 -458 -249 -927 -302 -221 -26 -663 -31 -875 -11 -466 44 -773 129
-996 277 -28 19 -56 34 -63 34 -24 0 -9 -40 33 -87 27 -30 61 -85 84 -139 37
-83 61 -130 94 -183 22 -37 -2 -43 -153 -38 l-137 4 -31 34 c-33 37 -38 49
-18 49 18 0 64 49 76 83 26 69 2 160 -50 187 -65 35 -121 30 -226 -20 -34 -17
-64 -30 -67 -30 -3 0 9 21 28 48 44 62 66 132 66 209 l0 63 110 0 109 0 15
-29 c46 -88 192 -158 471 -227 441 -108 1156 -142 1660 -78 406 51 737 153
832 255 63 68 65 154 7 240 -19 29 -33 55 -32 60 2 4 37 31 78 61 169 121 259
299 231 460 -23 137 -161 347 -345 527 -53 51 -96 97 -96 102 0 4 52 24 115
44 143 44 240 89 353 161 98 64 120 81 214 169 l66 63 81 -5 c242 -17 451 120
527 347 13 39 19 84 18 155 0 92 -2 105 -32 165 -17 36 -37 72 -43 80 -9 13
-1 36 39 115 70 140 120 316 137 480 13 128 11 125 55 125 179 0 406 112 530
261 193 231 245 685 121 1050 -48 141 -111 258 -207 379 -85 108 -145 159
-313 267 -2 1 17 42 42 90 50 99 87 207 114 333 27 130 25 439 -5 576 -63 293
-186 527 -377 719 -200 202 -451 334 -781 411 -112 27 -132 28 -359 29 -266 0
-316 -7 -518 -72 l-108 -34 -70 65 c-131 125 -284 206 -451 240 -85 18 -271
20 -353 4z m348 -154 c38 -8 102 -28 144 -45 72 -30 243 -135 257 -158 4 -6
-23 -41 -62 -79 -61 -60 -122 -156 -122 -192 0 -6 28 8 63 30 174 114 384 196
588 231 172 29 450 23 609 -14 362 -85 646 -266 835 -532 162 -228 245 -520
231 -820 -3 -77 -12 -169 -20 -205 -19 -90 -69 -234 -96 -280 -84 -142 -112
-183 -153 -224 -54 -52 -52 -52 48 -15 28 11 55 19 61 19 13 0 173 -118 223
-164 48 -45 153 -180 196 -254 114 -195 169 -460 145 -700 -14 -140 -29 -234
-39 -247 -5 -5 -12 -26 -16 -45 -10 -46 -66 -149 -123 -227 -45 -61 -106 -114
-149 -127 -13 -4 -23 -11 -23 -15 0 -15 -150 -68 -209 -73 -44 -4 -46 3 -54
182 -11 208 -59 384 -155 565 -56 105 -103 181 -123 197 -8 7 -33 36 -54 63
-22 28 -43 52 -47 53 -5 2 -8 19 -8 38 0 19 -7 51 -15 71 -17 40 -20 73 -6 73
5 0 12 17 16 38 4 20 13 51 20 67 7 17 16 44 20 60 4 17 12 44 19 60 7 17 18
48 23 70 6 22 22 81 37 130 35 116 31 139 -33 205 -28 29 -51 56 -51 60 0 4
-7 11 -16 14 -16 6 -14 0 18 -46 10 -14 18 -36 18 -47 0 -34 -161 -496 -179
-514 -13 -13 -66 26 -88 63 -9 17 -21 30 -25 30 -4 0 -8 5 -8 11 0 6 -11 20
-25 31 -14 11 -25 26 -25 33 0 8 -13 24 -30 37 -16 12 -30 26 -30 32 0 16
-193 202 -229 220 -25 14 -36 15 -47 6 -16 -14 -11 -25 36 -77 459 -496 492
-540 496 -658 1 -46 5 -59 16 -58 27 5 154 -182 238 -352 77 -155 123 -479
102 -710 -19 -201 -48 -359 -71 -390 -5 -5 -16 -32 -25 -60 -10 -27 -27 -72
-39 -98 -21 -46 -23 -48 -57 -43 -19 3 -61 8 -93 12 l-59 7 6 43 c3 24 8 65
12 92 l5 47 -35 -70 c-41 -85 -93 -154 -162 -218 -28 -26 -53 -47 -55 -47 -3
0 -6 26 -7 58 -1 31 -6 150 -11 264 -9 193 -1 481 15 532 4 11 2 16 -4 12 -26
-16 -86 -222 -117 -400 l-6 -38 -25 23 c-42 39 -123 175 -169 282 -76 176
-136 413 -152 595 -3 40 -10 75 -15 78 -4 3 -31 -19 -58 -50 -126 -137 -459
-296 -836 -400 -280 -77 -685 -136 -931 -136 -62 0 -63 0 -63 28 0 48 -56 92
-117 92 -44 0 -111 -38 -125 -72 -13 -29 -15 -30 -65 -26 -29 3 -56 7 -59 10
-22 23 97 152 245 266 82 64 90 72 64 72 -70 -1 -188 -41 -285 -97 -219 -128
-394 -430 -433 -751 l-7 -54 -23 22 c-29 27 -76 117 -103 195 -95 280 -12 718
175 925 70 76 226 205 396 324 69 50 125 91 123 93 -6 6 -171 -58 -262 -103
-50 -24 -129 -70 -175 -101 -77 -52 -87 -56 -135 -54 -105 3 -294 69 -294 102
0 5 12 14 26 19 65 25 168 106 265 206 160 168 246 249 339 320 78 60 200 129
260 148 18 6 -20 12 -125 22 -196 17 -278 39 -338 92 -22 19 -7 32 39 32 58 0
190 42 339 107 181 79 266 110 363 129 94 18 272 18 342 0 30 -8 57 -13 58
-11 5 5 -62 38 -120 60 -27 10 -48 21 -48 26 0 18 64 40 147 51 229 29 552
-61 868 -242 162 -94 502 -330 593 -413 48 -44 18 7 -49 83 -237 269 -766 566
-1134 636 -99 19 -289 22 -367 6 -27 -5 -48 -6 -48 -2 0 20 113 255 163 340
61 103 77 123 122 159 l30 24 -30 -7 c-16 -4 -92 -10 -167 -13 -111 -4 -147
-2 -187 11 -27 9 -58 16 -68 16 -10 0 -27 7 -37 15 -11 8 -26 15 -33 15 -14 0
-38 15 -133 85 -64 46 -80 61 -80 71 0 4 -15 25 -34 48 -49 61 -92 142 -118
226 -33 107 -33 292 1 400 70 225 228 401 454 505 177 81 345 99 540 59z
m-2593 -420 c96 -52 157 -139 216 -309 44 -128 9 -117 374 -113 299 3 317 2
355 -17 60 -30 93 -99 107 -221 5 -52 7 -98 3 -102 -11 -11 -420 -20 -1367
-28 l-908 -7 0 54 c1 94 19 191 46 236 43 74 51 76 375 81 158 3 292 8 298 12
6 3 23 49 36 101 14 52 39 122 55 156 38 77 122 157 188 178 70 22 158 14 222
-21z m703 -60 c45 -33 67 -90 69 -184 l3 -85 -151 -3 -151 -3 -5 28 c-7 40 0
140 12 178 12 36 43 69 80 84 36 15 113 7 143 -15z m-1510 5 c32 -16 77 -61
77 -75 0 -7 4 -14 9 -16 5 -1 11 -46 12 -98 l3 -95 -157 -3 -157 -3 0 101 c0
60 4 100 10 100 6 0 10 6 10 13 0 14 43 58 75 75 26 15 90 15 118 1z m2232
-421 c3 -3 12 -32 20 -64 9 -32 31 -92 50 -133 19 -40 35 -77 35 -82 0 -5 -87
-9 -195 -9 l-195 0 0 73 c0 65 -16 154 -35 199 -6 16 5 18 122 21 150 3 191 2
198 -5z m-2704 -61 c-10 -28 -17 -123 -21 -254 0 -9 -99 -13 -397 -15 -375 -3
-400 -4 -438 -23 -22 -11 -50 -36 -63 -55 l-24 -35 6 -635 c4 -349 11 -941 16
-1315 5 -374 12 -1110 16 -1635 l7 -955 -69 -17 c-38 -9 -76 -19 -85 -23 -19
-7 -19 -51 -45 3012 -15 1811 -15 1832 4 1876 18 41 50 72 97 93 16 7 991 24
1003 17 2 -1 -1 -17 -7 -36z m2923 -353 c32 -31 56 -57 54 -58 -1 -2 -50 -17
-108 -35 -380 -118 -658 -365 -749 -666 -68 -223 -11 -452 154 -619 41 -42 75
-79 75 -84 0 -4 -57 -67 -127 -138 -118 -120 -136 -134 -228 -180 -120 -60
-135 -80 -116 -145 25 -83 160 -178 301 -212 l48 -11 -49 -91 c-97 -181 -138
-338 -146 -555 -7 -177 4 -252 52 -363 l37 -85 -31 -42 c-48 -67 -66 -131 -66
-245 1 -94 3 -104 35 -169 44 -88 111 -155 194 -196 55 -27 66 -37 71 -64 10
-48 41 -129 79 -203 43 -85 190 -240 296 -310 147 -99 337 -180 530 -227 57
-15 106 -28 108 -31 3 -3 -28 -40 -69 -82 -41 -43 -100 -110 -131 -150 l-57
-71 -36 34 c-56 52 -126 66 -193 38 -86 -35 -135 -123 -114 -204 10 -39 10
-39 -32 -64 -55 -32 -81 -61 -107 -121 -43 -96 -24 -203 50 -287 17 -20 31
-38 31 -40 0 -15 -215 -19 -1282 -24 l-1178 -6 0 62 c0 34 -9 86 -20 121 -19
56 -20 62 -4 114 14 50 14 60 0 109 -13 42 -27 64 -66 99 -72 65 -173 99 -393
132 -34 5 -37 9 -31 28 9 30 7 30 52 16 53 -16 104 -5 141 30 27 26 31 35 31
84 0 49 -4 59 -31 86 -17 17 -41 34 -55 37 -17 5 -27 17 -35 46 -19 71 -78
111 -216 149 -43 12 -79 22 -81 24 -1 1 5 19 14 41 23 55 68 109 104 124 27
11 33 10 69 -19 80 -64 144 -75 221 -40 56 25 86 53 111 101 58 114 15 269
-90 322 -62 32 -172 23 -179 -15 -2 -13 9 -17 57 -22 77 -7 118 -31 148 -86
28 -54 30 -112 3 -165 -26 -53 -62 -78 -119 -83 -39 -4 -53 0 -93 27 -27 18
-48 35 -48 40 0 4 17 15 38 24 l37 16 -50 -5 c-144 -14 -237 -94 -288 -246 -4
-12 -13 -15 -33 -11 l-27 5 6 81 c11 151 73 264 171 310 30 14 72 26 93 26 45
0 110 -28 137 -59 15 -16 22 -18 33 -10 21 18 15 45 -20 82 -98 104 -304 60
-400 -86 -54 -83 -69 -133 -76 -242 l-6 -100 -77 -3 -78 -3 0 253 c0 359 -18
2043 -29 2818 -18 1192 -18 1410 1 1446 9 17 30 36 45 42 19 7 384 14 1133 21
1121 11 2424 29 2470 35 69 8 75 6 134 -50z m356 -202 c41 -12 102 -26 135
-32 92 -17 90 -14 61 -64 -14 -25 -26 -51 -26 -60 0 -8 -9 -23 -20 -34 -10
-10 -35 -56 -54 -102 -47 -118 -58 -140 -68 -140 -4 0 -8 -6 -8 -13 0 -7 -6
-25 -12 -40 -11 -22 -19 -27 -53 -27 -102 -1 -249 -46 -460 -140 -183 -82
-195 -86 -320 -105 -90 -13 -103 -18 -127 -45 -16 -17 -28 -40 -28 -52 0 -63
87 -171 173 -214 29 -15 54 -28 57 -31 7 -6 -81 -83 -95 -83 -13 0 -63 52 -95
100 -13 19 -29 38 -36 43 -7 4 -20 31 -29 60 -9 28 -22 63 -28 76 -7 15 -12
71 -11 145 0 111 3 127 31 198 38 95 100 183 189 269 151 144 297 218 604 308
49 14 132 7 220 -17z m1650 -2329 c27 -185 98 -387 186 -535 46 -77 151 -197
202 -230 20 -14 24 -28 32 -119 5 -57 9 -165 10 -239 0 -146 4 -160 51 -160
34 0 87 36 171 116 104 100 193 128 276 85 48 -24 66 -45 93 -105 18 -41 21
-63 17 -125 -10 -167 -118 -299 -283 -347 -47 -13 -83 -16 -175 -11 l-115 6
-90 -92 c-216 -220 -500 -338 -909 -378 -164 -16 -637 -6 -776 16 -464 73
-795 214 -991 421 -74 79 -115 140 -146 221 -31 80 -33 148 -16 553 9 224 12
252 38 330 15 47 31 90 35 95 5 6 18 34 30 64 30 77 58 115 75 101 55 -46 474
-74 760 -51 424 34 774 115 1115 258 106 44 287 141 349 188 19 14 38 25 41
25 4 0 13 -39 20 -87z m-2678 -885 c30 -29 67 -62 83 -73 l27 -20 -21 -131
c-12 -71 -21 -133 -21 -137 0 -14 -55 21 -87 55 -70 73 -99 198 -69 301 9 31
20 57 24 57 5 0 33 -24 64 -52z m-2907 -1237 c20 -17 51 -32 76 -36 37 -6 45
-4 60 14 21 26 40 26 122 1 67 -21 127 -61 127 -85 0 -36 -95 -81 -234 -112
-97 -21 -347 -21 -442 0 -160 36 -229 78 -200 122 38 58 216 108 440 124 10 0
33 -12 51 -28z m85 9 c0 -15 -7 -20 -25 -20 -24 0 -34 18 -18 33 15 15 43 7
43 -13z m4297 -124 c7 -6 -80 -85 -95 -86 -13 0 -23 22 -36 74 l-7 29 67 -6
c37 -4 69 -8 71 -11z m434 -5 c10 -2 -35 -90 -46 -91 -6 0 -30 20 -54 44 l-44
45 54 3 c47 3 61 2 90 -1z m456 -45 l47 -43 -48 -22 c-27 -11 -52 -19 -56 -16
-4 3 -11 22 -15 42 -3 21 -9 48 -12 61 -9 38 33 27 84 -22z m-333 -7 c3 -17 6
-56 6 -85 l0 -54 -48 0 c-27 0 -117 -3 -200 -7 l-152 -6 0 76 c0 57 3 77 13
77 16 0 127 -67 161 -97 43 -38 73 -40 107 -7 16 15 29 34 29 41 0 26 51 92
71 93 4 0 9 -14 13 -31z m-454 -74 c0 -46 -4 -67 -13 -71 -8 -3 -54 -1 -103 3
l-89 8 65 46 c65 46 118 78 133 79 4 0 7 -29 7 -65z m-4000 40 c24 -13 30 -22
30 -50 0 -56 -61 -85 -102 -48 -25 23 -23 59 7 88 28 29 28 29 65 10z m3720
-3 c0 -10 9 -34 19 -55 l19 -37 -35 0 c-28 0 -34 3 -29 16 3 9 6 33 6 55 0 21
5 39 10 39 6 0 10 -8 10 -18z m-95 -49 c-3 -27 -10 -66 -16 -88 -6 -22 -9 -74
-7 -115 l3 -75 48 -12 c204 -50 742 -49 865 2 36 16 36 16 23 223 -5 81 -3
102 7 102 22 0 52 -20 52 -33 0 -7 8 -22 19 -33 34 -37 100 -323 101 -434 0
-75 0 -75 -37 -105 -26 -20 -58 -34 -100 -42 -34 -6 -77 -19 -96 -28 -48 -22
-107 -84 -114 -117 -7 -33 3 -33 -220 -13 -92 8 -263 19 -379 24 -116 6 -218
13 -225 16 -8 3 -22 22 -31 43 -9 20 -37 62 -62 92 -26 31 -46 65 -46 78 0 39
29 156 83 335 39 129 57 174 79 197 43 46 61 40 53 -17z m1318 -57 c26 -30 47
-56 47 -59 0 -3 -24 -13 -52 -22 -29 -10 -75 -31 -101 -47 -26 -17 -49 -29
-50 -27 -4 5 -34 108 -41 140 -5 23 0 28 57 56 41 20 67 28 78 22 9 -4 37 -32
62 -63z m-5723 44 c123 -12 336 -12 425 1 155 22 195 23 195 6 0 -47 -176 -82
-405 -82 -173 1 -282 18 -343 55 -42 26 -42 44 1 36 17 -3 75 -10 127 -16z
m4220 -99 c-13 -39 -26 -71 -29 -71 -12 0 -31 24 -31 38 0 16 71 114 78 108 2
-3 -6 -36 -18 -75z m-3630 20 c0 -5 -8 -19 -18 -31 -44 -54 -355 -87 -531 -56
-113 20 -145 34 -149 64 -4 26 -2 26 80 8 141 -32 371 -28 533 8 77 17 85 18
85 7z m4053 -7 l127 -7 0 -46 c0 -74 -2 -75 -132 -67 -62 4 -128 9 -145 12
-32 6 -33 7 -33 58 0 59 6 69 35 62 11 -2 77 -8 148 -12z m607 -49 c0 -49 -3
-57 -24 -64 -13 -5 -106 -11 -207 -13 l-184 -3 -3 56 c-4 69 -10 66 173 69 71
1 132 3 134 6 2 2 28 4 58 4 l53 0 0 -55z m-1326 -30 c36 -33 69 -108 101
-225 31 -116 31 -120 3 -120 -18 0 -29 14 -52 66 -21 46 -45 80 -85 116 -31
28 -61 60 -68 72 -16 27 -16 89 -1 104 21 21 73 14 102 -13z m1908 -12 c33
-36 88 -114 88 -125 0 -4 -24 -8 -53 -8 -81 0 -151 -25 -199 -70 -23 -22 -43
-38 -45 -36 -3 2 -13 37 -23 77 -21 82 -20 86 43 126 43 27 125 62 148 62 8 1
27 -11 41 -26z m-1669 -31 c18 -19 18 -23 -4 -94 l-22 -73 -8 35 c-5 19 -16
58 -25 87 -14 42 -15 55 -4 67 14 17 34 10 63 -22z m-3625 -49 l-3 -67 -40 -3
c-22 -2 -65 -9 -95 -16 -55 -12 -54 -12 69 -15 125 -3 146 3 134 34 -9 24 19
24 119 -1 122 -31 153 -47 139 -74 -20 -36 -186 -86 -371 -112 -133 -18 -445
-16 -574 5 -176 29 -303 76 -290 109 7 19 62 43 166 71 l86 24 7 -34 c6 -34 6
-34 58 -33 29 0 75 4 102 8 55 8 46 14 -45 29 l-45 7 -3 64 c-3 62 -3 63 20
57 94 -29 366 -29 493 -1 33 7 64 13 68 14 4 1 7 -29 5 -66z m251 20 c199 -40
306 -122 281 -215 -6 -19 -20 -44 -33 -56 -54 -51 -192 -95 -417 -134 -107
-19 -164 -22 -400 -22 -290 -1 -355 5 -534 50 -285 71 -349 205 -146 306 78
39 196 74 288 85 51 6 52 5 52 -20 0 -22 -6 -26 -52 -37 -113 -25 -213 -63
-241 -92 -27 -26 -28 -30 -15 -51 35 -54 201 -108 392 -127 436 -41 966 47
966 161 0 40 -104 86 -252 111 -66 12 -68 13 -68 41 l0 29 53 -7 c28 -4 85
-13 126 -22z m5146 -123 c52 -20 82 -147 54 -227 l-10 -30 -57 54 c-31 31 -90
73 -129 95 -40 22 -73 43 -73 47 0 4 11 18 25 31 36 34 137 50 190 30z m-2136
-35 c77 -39 150 -168 138 -242 -18 -110 -148 -111 -241 -1 -63 73 -70 148 -18
209 40 49 75 58 121 34z m1975 -119 c34 -19 87 -61 120 -94 68 -69 68 -77 1
-152 l-43 -49 -38 65 c-34 58 -104 133 -163 174 l-22 15 31 38 c17 20 36 37
42 37 6 0 39 -15 72 -34z m-1714 -53 c42 -27 90 -76 122 -121 31 -45 81 -179
93 -248 7 -46 -15 -114 -37 -114 -27 0 -88 -21 -103 -36 -22 -22 -46 -14 -72
24 -55 83 -77 244 -48 361 11 45 14 84 10 111 -7 44 -2 48 35 23z m1602 -78
c63 -52 118 -124 133 -172 5 -17 0 -29 -21 -47 l-28 -24 -33 69 c-22 44 -57
93 -103 140 -38 39 -67 75 -64 80 13 22 55 5 116 -46z m-4591 -6 c12 -30 11
-33 -14 -55 -67 -57 -314 -129 -532 -155 -154 -18 -507 -16 -650 5 -222 32
-400 89 -449 144 -16 19 -17 25 -6 52 7 16 17 30 22 30 6 0 49 -15 97 -34 172
-69 450 -102 766 -93 305 9 500 42 661 110 44 19 82 32 85 31 4 -2 12 -18 20
-35z m4434 -55 c46 -21 115 -128 115 -176 0 -21 -58 -39 -147 -45 -70 -5 -87
-3 -125 16 -46 22 -88 74 -88 108 0 35 10 52 47 74 64 40 144 49 198 23z
m-4415 -324 c0 -154 -3 -280 -7 -280 -5 0 -28 7 -52 16 -27 9 -69 14 -105 12
l-61 -3 -5 74 c-4 54 -9 77 -22 84 -12 8 -49 5 -135 -11 -255 -47 -615 -53
-878 -15 -66 9 -142 17 -170 17 l-50 1 0 -422 c0 -374 2 -424 16 -438 9 -9 70
-28 140 -42 114 -24 145 -26 389 -27 146 -1 302 2 347 7 l81 7 12 -37 c7 -21
21 -53 32 -72 16 -28 17 -39 8 -62 -7 -15 -19 -31 -28 -34 -32 -13 -407 -18
-540 -6 -389 32 -608 128 -641 280 -12 56 -16 1211 -5 1211 4 0 21 -9 38 -19
130 -81 427 -133 756 -133 348 0 592 43 805 142 33 16 63 29 68 29 4 1 7 -125
7 -279z m3780 184 c272 -27 299 -33 315 -64 22 -43 92 -97 149 -117 66 -22
207 -22 257 0 32 14 39 14 65 1 16 -8 48 -34 72 -57 54 -53 57 -89 10 -134
-33 -31 -88 -63 -108 -63 -5 0 -10 8 -10 18 0 103 -322 194 -790 224 -167 10
-177 12 -210 38 -66 51 -101 64 -172 65 l-67 0 -6 40 c-4 22 -9 49 -12 59 -5
19 1 19 178 12 101 -4 249 -13 329 -22z m-984 -21 c3 -21 12 -63 20 -93 7 -30
10 -58 6 -61 -4 -4 -52 -12 -107 -18 -382 -43 -627 -117 -671 -203 -18 -35
-29 -35 -86 1 -57 36 -82 72 -74 105 29 115 292 216 746 286 166 26 158 26
166 -17z m-686 17 c0 -5 -6 -10 -13 -10 -7 0 -55 -20 -105 -45 -103 -50 -179
-114 -208 -175 l-19 -41 -130 4 c-98 2 -141 8 -176 22 -46 19 -46 19 -90 -4
l-44 -23 -622 -5 -623 -6 0 142 0 141 948 3 c521 1 977 3 1015 5 39 1 67 -2
67 -8z m1342 -209 c57 -36 65 -49 42 -66 -27 -21 -67 -18 -119 7 l-45 22 -54
-27 c-38 -19 -62 -26 -80 -21 -27 6 -46 24 -27 24 6 0 28 16 49 35 49 43 74
54 138 54 39 1 60 -5 96 -28z m-550 -65 l47 -52 -11 -66 c-10 -58 -10 -69 5
-92 28 -42 87 -74 177 -97 77 -20 103 -21 275 -16 194 6 241 14 321 55 56 29
82 56 93 99 18 63 13 86 -36 165 -13 21 -23 39 -23 41 0 6 249 -22 342 -38
103 -18 246 -55 298 -77 54 -23 76 -53 64 -86 -12 -36 -89 -63 -284 -102 -403
-80 -912 -101 -1359 -55 -312 32 -626 96 -688 140 -58 41 -4 87 154 134 111
33 481 98 563 99 8 0 36 -23 62 -52z m792 -49 c31 -42 28 -99 -8 -136 -102
-107 -540 -114 -643 -12 -20 21 -24 32 -19 59 7 45 32 82 55 82 10 0 38 -7 61
-15 55 -19 100 -19 150 1 37 15 43 15 74 0 56 -26 113 -20 192 19 80 41 109
41 138 2z m-3980 -29 c12 -45 6 -103 -14 -133 -26 -40 -25 -100 2 -153 l23
-43 -28 -22 c-154 -120 -201 -196 -215 -356 l-7 -75 -40 -10 c-63 -15 -606
-13 -700 2 -118 20 -153 30 -159 50 -7 26 -11 740 -4 747 3 4 57 -1 120 -10
250 -37 649 -36 863 4 140 26 151 25 159 -1z m1736 -13 c22 -45 17 -132 -10
-185 -21 -41 -144 -180 -160 -180 -3 0 -21 13 -39 28 l-34 28 82 155 c46 85
90 162 99 172 22 24 44 18 62 -18z m-236 -118 c-36 -72 -71 -137 -76 -144 -7
-9 -17 -8 -43 3 -122 50 -285 9 -478 -120 -37 -25 -71 -46 -75 -46 -5 0 -16
16 -25 35 -27 57 -133 122 -199 124 -24 1 -28 5 -28 30 0 55 -93 88 -166 61
-38 -15 -44 -2 -44 97 0 77 1 82 23 86 12 2 282 4 600 5 l577 2 -66 -133z
m-1245 -55 c20 -16 38 -39 39 -52 3 -20 1 -22 -20 -15 -63 20 -149 35 -201 35
-64 0 -70 10 -25 43 58 43 146 38 207 -11z m249 -74 c3 -17 -123 -168 -140
-168 -5 0 -8 24 -8 54 0 40 6 60 22 81 39 49 119 70 126 33z m-265 -61 c40
-17 54 -34 60 -73 7 -47 -5 -61 -38 -44 -35 18 -105 95 -105 115 0 19 39 20
83 2z m1751 -23 c20 -20 20 -62 0 -102 -11 -22 -26 -34 -52 -41 -147 -40 -330
-61 -343 -39 -12 18 -11 58 1 58 5 0 76 31 157 70 154 73 207 85 237 54z
m-1346 -25 c52 -26 109 -104 91 -125 -6 -7 -39 -29 -72 -48 -34 -18 -84 -46
-112 -62 -27 -15 -158 -79 -290 -141 -131 -62 -267 -131 -300 -153 -34 -22
-64 -40 -67 -40 -7 0 -35 104 -43 160 -8 56 10 161 35 209 24 44 113 132 158
155 20 10 42 14 55 10 36 -11 87 -55 87 -74 0 -44 63 -58 151 -34 57 15 71 25
135 91 80 82 97 88 172 52z m724 -6 c67 -39 142 -171 156 -275 4 -30 -1 -47
-22 -78 -74 -112 -261 -252 -498 -374 -290 -149 -537 -216 -788 -216 -239 1
-328 50 -318 176 8 99 68 150 301 257 345 158 513 247 692 362 128 82 224 136
279 156 62 24 151 20 198 -8z m1162 -39 c84 -29 319 -78 476 -98 544 -73 1239
-30 1625 99 55 18 113 36 128 39 l28 7 -27 -53 c-28 -56 -80 -139 -124 -198
-15 -19 -45 -60 -68 -90 -55 -74 -168 -188 -234 -239 -172 -129 -446 -200
-776 -201 -501 -1 -762 128 -1037 510 -60 83 -164 262 -165 282 0 4 24 -2 53
-13 28 -12 83 -32 121 -45z m-593 -196 c32 -36 37 -72 13 -106 -13 -19 -22
-22 -57 -18 -23 3 -43 5 -45 5 -2 1 -10 17 -17 36 -17 40 -8 75 27 99 32 23
45 20 79 -16z m-164 -106 c18 -29 76 -52 133 -52 52 0 105 20 112 42 3 9 12 9
37 -2 54 -22 90 -58 123 -123 50 -101 41 -212 -27 -300 -73 -95 -175 -142
-305 -141 -197 1 -320 107 -346 297 -16 118 66 237 195 283 49 18 64 17 78 -4z"/>
<path d="M6363 8533 c-7 -2 -13 -17 -13 -32 0 -55 78 -251 100 -251 6 0 10 -7
10 -16 0 -9 15 -30 33 -48 17 -17 50 -54 71 -80 22 -27 78 -78 125 -113 83
-61 287 -173 317 -173 8 0 41 -9 73 -20 191 -64 413 -85 605 -58 118 16 204
36 242 56 11 5 30 14 44 20 51 20 120 57 120 64 0 5 9 8 19 8 21 0 35 15 27
28 -5 9 -55 4 -196 -21 -303 -54 -564 -39 -827 48 -56 19 -130 48 -165 66
-174 87 -349 238 -462 399 -64 91 -96 130 -105 129 -3 0 -12 -3 -18 -6z"/>
<path d="M3532 7999 c-24 -12 -46 -28 -49 -36 -10 -25 15 -404 28 -419 17 -21
57 -17 70 7 6 12 9 50 7 87 l-3 66 43 8 c99 17 162 79 162 161 0 111 -145 182
-258 126z m127 -70 c57 -20 55 -100 -4 -125 -57 -23 -72 -19 -79 24 -8 49 -8
97 1 105 10 10 46 8 82 -4z"/>
<path d="M2185 7990 c-17 -5 -41 -19 -53 -30 -21 -20 -22 -27 -22 -214 0 -177
2 -196 19 -217 19 -23 21 -23 48 -9 26 15 28 20 31 93 l3 77 38 0 c41 0 49 -7
144 -123 42 -52 78 -62 97 -26 14 26 -20 88 -83 151 l-43 42 32 33 c68 68 67
155 -3 203 -29 20 -50 25 -107 27 -39 1 -85 -2 -101 -7z m146 -80 c26 -14 25
-64 -2 -89 -20 -19 -105 -48 -114 -39 -3 3 -8 32 -11 65 -6 59 -6 61 17 66 45
8 90 7 110 -3z"/>
<path d="M2953 7969 c-145 -72 -180 -264 -66 -371 59 -56 150 -73 218 -41 29
14 35 22 35 49 0 36 -21 50 -50 34 -10 -6 -37 -10 -59 -10 -59 0 -111 49 -118
111 -13 112 81 188 184 148 24 -9 30 -7 46 12 22 28 19 38 -23 67 -43 29 -110
29 -167 1z"/>
<path d="M3233 7983 c-14 -3 -25 -14 -29 -29 -7 -29 -4 -35 25 -37 19 -1 21
-7 21 -77 0 -41 3 -111 6 -156 l7 -81 -27 -7 c-22 -5 -27 -12 -24 -34 3 -23 9
-28 41 -33 22 -3 64 -3 95 0 55 6 57 7 57 36 0 25 -4 30 -27 33 l-28 3 0 98
c0 54 -3 126 -6 160 -7 61 -7 61 19 61 31 0 50 28 36 53 -8 14 -23 17 -77 16
-37 -1 -77 -4 -89 -6z"/>
<path d="M3890 7973 c-53 -27 -62 -67 -58 -251 3 -148 4 -155 27 -173 17 -14
39 -19 83 -19 68 0 98 12 98 40 0 25 -29 40 -78 40 -35 0 -40 3 -45 27 -8 42
0 50 55 56 59 7 78 20 78 53 0 23 -3 24 -65 24 l-65 0 0 64 0 63 38 7 c20 3
49 6 64 6 34 0 53 30 35 54 -20 27 -122 32 -167 9z"/>
<path d="M2621 7970 c-18 -4 -43 -18 -55 -29 -19 -20 -21 -34 -24 -169 -4
-166 5 -211 44 -233 50 -26 156 -13 174 22 19 34 -4 49 -71 49 l-59 0 0 40 0
40 40 0 c30 0 47 7 66 25 36 36 19 53 -54 57 l-57 3 -3 57 -3 56 58 7 c69 7
87 15 91 42 5 36 -65 52 -147 33z"/>
<path d="M4202 7970 c-66 -28 -101 -75 -102 -133 0 -45 33 -83 113 -129 50
-29 60 -55 31 -79 -13 -11 -24 -10 -64 4 -61 22 -67 21 -75 -3 -14 -44 43 -90
111 -90 76 0 143 74 130 145 -7 34 -36 64 -115 117 -73 50 -49 92 50 86 53 -3
63 0 75 18 13 19 12 24 -4 44 -14 18 -31 24 -73 26 -30 2 -65 -1 -77 -6z"/>
<path d="M3260 7279 c-574 -9 -634 -11 -616 -21 13 -7 587 -11 823 -5 57 1 93
-2 93 -8 0 -6 3 -6 8 1 4 6 62 10 162 9 85 0 160 1 165 4 13 7 204 3 216 -4 5
-4 9 -3 9 2 0 4 28 9 63 9 167 3 216 7 211 15 -6 10 -461 9 -1134 -2z"/>
<path d="M2788 7233 c7 -3 16 -2 19 1 4 3 -2 6 -13 5 -11 0 -14 -3 -6 -6z"/>
<path d="M2843 7233 c9 -2 23 -2 30 0 6 3 -1 5 -18 5 -16 0 -22 -2 -12 -5z"/>
<path d="M1866 6864 c-13 -13 -16 -43 -16 -175 0 -190 2 -193 102 -204 99 -11
272 -2 291 14 15 11 17 37 17 168 0 149 -6 187 -34 205 -6 4 -86 8 -178 8
-138 0 -169 -3 -182 -16z m318 -37 c18 -13 13 -20 -68 -103 l-86 -89 -39 43
c-41 44 -55 51 -64 29 -12 -31 70 -147 104 -147 12 0 49 31 91 75 39 41 74 75
77 75 4 0 8 -40 9 -90 l2 -90 -145 0 -145 0 -10 26 c-6 14 -10 81 -10 149 l0
124 48 3 c144 9 219 8 236 -5z"/>
<path d="M4045 6602 c-96 -2 -142 -6 -147 -15 -6 -9 -10 -9 -17 1 -7 11 -104
13 -552 8 -539 -7 -680 -12 -629 -25 22 -6 1185 -4 1233 1 9 1 17 6 17 11 0 4
5 5 12 1 21 -13 142 -14 150 -1 6 9 8 9 8 0 0 -8 14 -13 35 -13 19 0 35 5 35
11 0 6 5 7 13 2 16 -10 77 -12 83 -2 2 4 18 4 34 -1 21 -6 30 -5 30 3 0 8 3 8
8 2 12 -17 42 -17 42 0 0 9 -9 15 -22 16 -13 0 -40 3 -62 5 -29 4 -42 0 -52
-13 -13 -17 -13 -17 -14 2 l-1 20 -9 -20 c-5 -11 -9 -15 -9 -9 -1 17 -30 19
-186 16z"/>
<path d="M3153 6182 c-189 -1 -343 -6 -343 -11 0 -15 312 -22 725 -16 220 3
425 7 455 9 30 2 94 4 143 5 50 0 87 5 87 11 0 10 -81 10 -1067 2z"/>
<path d="M2021 6163 c-85 -2 -150 -8 -158 -15 -10 -8 -13 -53 -13 -184 0 -219
-15 -204 207 -204 134 0 164 3 177 16 13 13 16 44 16 183 0 221 14 209 -229
204z m153 -49 c12 -5 -4 -27 -67 -95 l-82 -88 -36 39 c-41 45 -69 52 -69 17 0
-35 78 -137 106 -137 6 0 44 36 84 80 40 44 76 80 81 80 5 0 9 -42 9 -94 0
-69 -4 -97 -14 -106 -19 -15 -267 -3 -278 14 -4 6 -8 73 -8 148 0 122 2 137
18 141 26 7 238 8 256 1z"/>
<path d="M4128 5715 c-1 -1 -310 -5 -684 -8 -375 -2 -687 -8 -694 -12 -24 -15
14 -25 95 -25 48 0 86 5 93 12 8 8 15 8 25 -1 17 -13 674 -12 1077 2 129 5
243 9 253 8 9 0 17 5 17 11 0 6 -12 8 -30 5 -16 -4 -30 -3 -30 1 0 7 -114 14
-122 7z"/>
<path d="M4339 5710 c-19 -13 -8 -18 21 -10 19 4 21 7 9 12 -9 3 -22 2 -30 -2z"/>
<path d="M1895 5502 c-43 -9 -45 -17 -45 -193 0 -223 -13 -209 200 -209 214 0
202 -13 198 207 -4 214 5 205 -192 202 -78 -2 -150 -5 -161 -7z m289 -51 c3
-5 -34 -50 -83 -101 l-89 -91 -26 25 c-28 29 -56 34 -56 10 0 -26 44 -92 68
-104 28 -12 51 3 102 67 19 23 47 52 62 63 l28 21 0 -96 0 -95 -32 -1 c-53 -2
-68 -2 -159 -1 l-86 2 -6 147 c-3 81 -4 150 -1 155 7 11 271 10 278 -1z"/>
<path d="M3130 5123 c-283 -2 -522 -6 -530 -10 -8 -3 -18 -5 -22 -5 -7 2 -12
-17 -5 -19 30 -8 141 -9 146 -1 4 8 20 8 50 1 30 -7 48 -6 55 1 5 5 15 10 21
10 5 0 3 -5 -5 -10 -11 -7 1 -10 42 -10 36 0 58 5 61 13 4 8 8 8 14 2 5 -6 54
-9 118 -9 1165 17 1293 20 1330 32 30 10 -56 11 -1275 5z"/>
<path d="M1975 4560 c-7 -11 22 -26 32 -16 3 3 12 1 19 -5 7 -6 18 -7 25 -3 6
4 506 7 1110 8 603 1 1100 4 1103 7 4 4 24 5 46 3 22 -2 42 1 45 6 4 7 -419
10 -1184 10 -788 0 -1192 -3 -1196 -10z"/>
<path d="M2860 3979 l-55 -6 55 -3 55 -3 -50 -7 c-32 -4 6 -7 103 -7 87 -1
152 2 152 8 0 5 7 9 15 9 8 0 15 -4 15 -9 0 -6 18 -9 40 -9 22 0 40 4 40 9 0
5 9 9 21 9 11 0 17 -4 14 -10 -4 -6 15 -10 49 -10 34 0 57 5 60 13 5 10 7 10
12 0 7 -16 38 -17 65 -3 11 6 19 7 19 2 0 -6 18 -10 40 -10 22 0 40 2 40 6 0
4 18 7 40 7 22 0 40 -2 40 -6 0 -3 18 -6 40 -7 26 -1 40 2 40 11 0 8 3 8 8 1
9 -13 291 -13 311 0 10 6 12 6 7 -2 -9 -15 46 -12 56 3 5 7 8 7 8 0 0 -16 138
-19 156 -4 13 10 17 10 24 -2 7 -10 14 -11 27 -4 10 6 78 10 151 10 72 -1 132
2 132 6 0 4 15 10 33 12 49 7 -1700 3 -1763 -4z"/>
<path d="M4675 3980 c3 -5 10 -10 16 -10 5 0 9 5 9 10 0 6 -7 10 -16 10 -8 0
-12 -4 -9 -10z"/>
<path d="M2631 3441 c-17 -11 1 -23 23 -15 9 3 16 1 16 -4 0 -7 11 -8 28 -4
15 4 215 5 445 2 274 -3 417 -2 417 5 0 6 3 6 8 0 8 -12 52 -18 52 -7 0 10
282 8 303 -2 10 -5 23 -4 30 2 6 5 28 8 47 6 84 -8 1080 -2 1080 6 0 9 32 6
48 -4 6 -4 12 -4 12 1 0 4 20 7 45 5 28 -3 45 0 45 7 0 13 -2577 16 -2599 2z"/>
<path d="M3440 2930 c-349 -3 -628 -6 -620 -8 10 -2 11 -5 3 -10 -6 -4 43 -7
108 -6 66 0 123 -4 126 -9 3 -5 8 -5 12 2 5 8 16 7 39 -1 27 -10 34 -10 41 1
6 9 11 10 15 2 9 -13 443 -10 465 3 8 5 12 5 8 0 -4 -8 1193 -8 1201 0 1 2 0
9 -3 17 -6 16 -339 19 -1395 9z m1171 -18 c-7 -2 -18 1 -23 6 -8 8 -4 9 13 5
13 -4 18 -8 10 -11z"/>
<path d="M4850 2930 c0 -5 10 -10 23 -10 18 0 19 2 7 10 -19 13 -30 13 -30 0z"/>
<path d="M6965 5409 c-30 -27 -35 -37 -35 -74 0 -36 5 -48 35 -73 38 -34 98
-48 172 -39 64 7 97 34 101 84 6 75 -71 133 -177 133 -53 0 -65 -4 -96 -31z"/>
<path d="M5312 4987 c-48 -15 -119 -82 -148 -138 -126 -250 -12 -532 216 -532
68 0 122 26 174 84 49 54 73 109 86 196 30 211 -91 405 -250 402 -25 -1 -60
-6 -78 -12z"/>
<path d="M7000 4895 c-130 -40 -230 -203 -232 -374 0 -92 12 -141 51 -202 53
-84 119 -121 216 -121 245 -1 393 320 262 565 -37 71 -85 113 -151 132 -60 18
-87 18 -146 0z"/>
<path d="M5997 4412 c-41 -45 -12 -146 56 -196 40 -30 153 -30 193 0 41 30 64
65 75 112 13 58 -2 92 -40 92 -26 0 -31 -5 -40 -37 -6 -21 -11 -43 -11 -49 0
-23 -47 -54 -83 -54 -48 0 -73 28 -81 90 -6 44 -18 60 -45 60 -4 0 -15 -8 -24
-18z"/>
<path d="M8035 4416 c-63 -27 -128 -134 -106 -174 7 -13 12 -10 24 14 36 68
131 134 193 134 26 0 27 0 9 20 -21 23 -74 26 -120 6z"/>
<path d="M4815 2051 c-41 -9 -39 -35 2 -39 38 -4 73 13 73 33 0 16 -22 18 -75
6z"/>
<path d="M6432 2033 c3 -14 13 -18 53 -18 38 0 50 4 50 15 0 11 -14 16 -53 18
-47 3 -53 1 -50 -15z"/>
<path d="M6633 2019 c-21 -21 -2 -39 42 -39 43 0 73 19 60 40 -8 14 -88 13
-102 -1z"/>
<path d="M5285 1990 c-12 -19 6 -30 48 -30 56 0 87 9 87 26 0 11 -16 14 -64
14 -36 0 -68 -4 -71 -10z"/>
<path d="M5000 1971 c-14 -4 -25 -13 -25 -21 0 -12 13 -14 59 -12 64 4 106 16
106 32 0 11 -100 12 -140 1z"/>
<path d="M3520 1538 c0 -15 80 -118 91 -118 12 0 11 6 -7 43 -18 35 -63 87
-76 87 -4 0 -8 -5 -8 -12z"/>
<path d="M3450 1366 c0 -19 73 -112 78 -98 4 12 -58 112 -70 112 -5 0 -8 -6
-8 -14z"/>
<path d="M3015 1310 c-13 -21 141 -310 165 -310 18 0 -1 52 -69 184 -64 126
-82 149 -96 126z"/>
<path d="M3230 1298 c0 -8 13 -35 29 -60 50 -79 72 -73 26 7 -31 51 -55 75
-55 53z"/>
<path d="M2754 1195 c-7 -18 8 -57 78 -206 28 -60 55 -109 59 -109 17 0 9 50
-20 127 -58 159 -102 229 -117 188z"/>
<path d="M2507 1112 c-14 -21 95 -288 112 -277 6 3 8 11 6 18 -74 239 -98 292
-118 259z"/>
<path d="M2322 1003 c9 -63 50 -203 59 -203 17 0 9 74 -16 157 -27 86 -52 113
-43 46z"/>
<path d="M3800 1115 c-16 -19 -5 -62 20 -75 15 -8 24 -6 40 10 24 24 25 43 4
64 -20 20 -48 20 -64 1z"/>
<path d="M4202 1018 c-19 -19 -14 -45 10 -62 19 -13 25 -14 43 -2 25 16 31 42
15 61 -15 18 -52 19 -68 3z"/>
<path d="M3957 1003 c-27 -26 20 -77 61 -66 24 6 30 41 10 61 -13 13 -60 16
-71 5z"/>
<path d="M8271 2939 c-47 -9 -104 -43 -139 -84 -17 -19 -32 -25 -64 -25 -93 0
-196 -77 -218 -162 -17 -64 -21 -69 -74 -89 -94 -35 -150 -112 -151 -208 0
-38 -7 -68 -20 -91 -39 -66 -47 -98 -43 -162 3 -35 7 -69 9 -77 2 -7 -3 -15
-11 -16 -67 -13 -110 -63 -110 -128 0 -30 -5 -39 -23 -46 -63 -24 -98 -112
-77 -192 19 -68 38 -99 107 -170 35 -37 61 -69 56 -72 -4 -2 -29 -8 -55 -11
-27 -4 -48 -11 -48 -15 0 -5 -13 -11 -28 -14 -47 -10 -128 -91 -164 -165 -28
-59 -33 -79 -36 -169 -4 -84 0 -114 17 -170 12 -37 27 -78 34 -91 17 -30 127
-142 140 -142 6 0 40 -14 76 -31 184 -87 468 -85 656 6 40 19 78 35 83 35 5 0
30 22 55 49 l46 49 108 4 c210 9 330 60 414 175 23 32 44 60 45 62 2 2 9 -1
16 -7 27 -22 146 -55 225 -62 127 -12 260 27 326 96 27 29 68 94 89 144 29 67
26 207 -6 330 -31 120 -55 176 -111 261 -25 36 -45 69 -45 72 0 4 28 25 63 49
34 23 85 64 114 91 204 192 209 493 9 491 l-53 -1 -6 77 c-15 198 -102 279
-232 216 -84 -42 -154 -141 -174 -249 -5 -26 -12 -51 -15 -55 -14 -13 -25 23
-25 79 1 96 -45 173 -126 210 -22 10 -52 19 -67 19 -20 0 -32 8 -42 28 -47 89
-147 129 -274 107 -34 -5 -47 -3 -71 15 -53 37 -116 51 -180 39z m112 -90 c12
-6 31 -23 42 -36 19 -23 24 -24 60 -14 89 25 188 3 224 -48 11 -15 22 -44 26
-64 6 -30 11 -37 24 -32 42 17 87 16 119 -4 65 -41 87 -114 61 -201 -11 -35
-14 -38 -60 -43 -67 -8 -105 -31 -128 -76 -17 -31 -27 -39 -58 -45 -21 -3 -47
-9 -59 -12 -20 -5 -22 -1 -26 63 -3 39 -15 90 -27 118 -100 227 -322 156 -392
-125 -12 -47 -22 -86 -23 -87 -1 -1 -21 5 -45 13 -53 18 -101 10 -136 -22 -30
-28 -31 -48 -5 -92 11 -18 20 -37 20 -42 0 -14 -91 -25 -99 -11 -9 14 -72 61
-83 61 -4 0 -8 -11 -8 -24 0 -18 -16 -37 -60 -71 -34 -25 -65 -43 -69 -40 -5
2 -16 20 -25 39 -30 64 -15 161 34 215 25 26 27 35 20 66 -10 42 0 83 29 124
27 38 71 55 126 49 l45 -6 0 55 c0 117 75 194 193 197 54 2 61 5 90 39 18 20
46 43 62 52 35 18 97 20 128 4z m963 -167 c30 -19 47 -80 52 -177 l4 -100 -50
-58 c-27 -32 -67 -92 -88 -134 -22 -43 -40 -68 -42 -59 -9 42 39 291 80 414
11 35 18 65 15 68 -2 2 -16 -13 -30 -35 -48 -73 -82 -199 -108 -406 -12 -90
-14 -96 -20 -60 -4 22 -13 60 -19 85 -32 121 -2 306 63 392 44 59 111 91 143
70z m-879 -174 c8 -6 26 -35 40 -62 22 -43 26 -64 27 -141 0 -97 -5 -113 -59
-180 -18 -22 -35 -47 -38 -55 -7 -18 -11 116 -9 264 2 120 -7 129 -32 31 -11
-40 -16 -105 -16 -201 0 -78 -3 -156 -7 -174 l-6 -33 -22 44 c-12 24 -36 72
-53 105 -39 76 -48 132 -32 210 16 78 50 143 96 183 30 27 42 32 67 27 17 -3
36 -11 44 -18z m1117 -147 c37 -41 25 -156 -27 -241 -32 -54 -126 -148 -187
-189 -104 -71 -110 -61 -27 48 79 104 207 301 207 319 0 39 -144 -139 -266
-328 -26 -41 -49 -69 -52 -62 -6 20 39 185 69 249 35 74 106 164 157 198 45
30 101 33 126 6z m-625 -41 c22 -11 53 -36 70 -57 39 -47 90 -178 97 -247 l6
-51 -23 35 c-80 126 -179 249 -220 270 -33 18 -21 -4 57 -111 88 -120 121
-175 134 -218 8 -27 7 -30 -8 -22 -33 18 -219 217 -246 264 -23 38 -27 56 -23
88 3 22 11 46 17 54 18 21 94 19 139 -5z m-224 -110 c9 -27 3 -34 -70 -84 -44
-29 -89 -73 -141 -139 -70 -88 -104 -116 -104 -86 0 14 39 92 73 145 55 87
168 182 219 184 9 0 19 -9 23 -20z m-604 -29 c56 -35 107 -97 149 -180 l31
-63 -61 66 c-45 48 -82 76 -138 103 -84 42 -103 62 -83 87 20 24 51 20 102
-13z m699 -112 c0 -9 -171 -22 -178 -14 -4 4 0 10 8 15 8 4 35 24 60 44 l45
35 32 -37 c18 -20 33 -40 33 -43z m-701 -23 c39 -21 131 -137 131 -166 0 -6
-12 -9 -27 -8 -29 2 -70 -16 -88 -37 -5 -7 -33 -15 -62 -18 -28 -3 -70 -15
-92 -26 -22 -12 -45 -21 -51 -21 -6 0 -10 30 -10 74 0 44 -5 78 -11 82 -15 9
-28 -13 -22 -37 9 -32 -8 -149 -20 -149 -7 1 -32 42 -56 93 -24 51 -50 99 -58
108 -24 29 41 70 142 89 28 5 66 13 85 18 53 15 108 14 139 -2z m756 -67 c9
-17 32 -40 51 -51 19 -11 34 -25 34 -30 0 -6 8 -17 18 -24 19 -15 26 -5 -73
-93 -21 -18 -58 -63 -81 -99 l-43 -65 -11 29 c-38 105 -109 175 -217 214 -19
7 -33 19 -33 29 0 9 21 40 47 69 l47 52 123 0 122 0 16 -31z m-1247 -48 c86
-45 151 -146 160 -247 8 -109 -17 -153 -37 -66 -13 54 -81 184 -99 190 -8 2
-10 -2 -6 -13 4 -10 -18 0 -59 27 -61 40 -66 46 -67 79 0 20 3 39 7 42 13 13
64 7 101 -12z m1550 -152 c-5 -34 4 -37 23 -9 14 20 14 20 45 1 88 -54 184
-299 184 -470 0 -186 -104 -291 -289 -291 -77 0 -168 21 -226 53 -33 19 -43
31 -58 77 -40 120 -58 205 -51 243 6 36 7 38 36 32 37 -9 138 3 138 16 0 5
-36 9 -80 9 l-80 0 6 28 c12 54 83 188 124 235 64 73 128 97 155 60 11 -15 15
-11 34 33 19 43 24 47 33 31 5 -11 8 -32 6 -48z m-658 24 c114 -50 154 -134
185 -388 8 -66 26 -163 41 -216 35 -126 30 -164 -33 -241 -41 -51 -55 -61
-127 -88 -66 -26 -97 -32 -171 -33 l-90 -2 3 66 c4 79 -7 125 -59 240 -29 64
-39 100 -39 137 l0 51 50 7 c64 8 65 24 1 24 -45 0 -53 3 -76 34 -14 19 -39
40 -56 47 -36 14 -35 20 7 119 21 50 28 84 30 145 2 87 10 99 77 116 57 15
207 4 257 -18z m-985 -32 c96 -45 171 -169 182 -303 3 -38 9 -71 14 -73 10 -7
70 77 107 150 40 79 70 117 123 160 46 37 106 59 132 49 31 -11 29 -59 -4
-156 -30 -87 -95 -205 -142 -255 l-20 -23 27 0 c25 0 76 23 118 52 14 10 22 9
45 -8 26 -19 27 -26 28 -100 1 -72 5 -87 43 -166 70 -143 67 -235 -10 -323
-54 -61 -105 -89 -218 -120 -167 -44 -372 -29 -508 37 -75 37 -114 79 -156
168 -28 58 -31 74 -31 160 0 88 3 101 33 163 40 81 80 114 159 130 59 12 163
76 163 100 0 7 -37 48 -83 92 -91 88 -127 147 -127 213 0 68 48 89 125 53z"/>
<path d="M9303 1423 c-13 -2 -23 -9 -23 -14 0 -6 28 -9 68 -7 37 2 67 8 67 13
0 11 -74 16 -112 8z"/>
<path d="M8925 1264 c-21 -21 -19 -40 7 -58 30 -21 60 -4 56 31 -4 33 -41 49
-63 27z"/>
<path d="M9358 1256 c-15 -33 -4 -56 26 -56 19 0 27 7 32 25 12 49 -37 75 -58
31z"/>
<path d="M9240 1199 c-27 -36 -63 -37 -68 -1 -3 19 -9 23 -30 20 -40 -4 -41
-40 -3 -78 45 -45 120 -40 146 11 20 38 19 56 -4 69 -16 8 -23 5 -41 -21z"/>
<path d="M8283 1779 c-45 -13 -42 -36 5 -46 87 -19 222 -2 222 27 0 26 -158
39 -227 19z"/>
<path d="M8562 1556 c-64 -16 -77 -26 -31 -26 44 0 109 18 109 30 0 12 -11 12
-78 -4z"/>
<path d="M8567 1290 c-79 -14 -67 -21 28 -18 60 2 90 7 93 16 4 14 -43 15
-121 2z"/>
<path d="M8677 1103 c-12 -12 -7 -50 8 -63 30 -25 72 11 60 51 -6 19 -54 27
-68 12z"/>
<path d="M8360 1085 c-26 -32 13 -81 48 -59 34 22 22 74 -18 74 -10 0 -23 -7
-30 -15z"/>
<path d="M8492 1058 c-17 -17 -15 -32 6 -51 38 -34 109 -6 100 40 -2 14 -14
19 -48 21 -26 2 -50 -2 -58 -10z"/>
<path d="M7470 1684 c0 -3 29 -36 64 -72 35 -37 76 -85 90 -106 36 -53 33 -25
-4 38 -34 59 -150 167 -150 140z"/>
<path d="M7985 1578 c-64 -70 -100 -121 -110 -158 -5 -18 12 -4 61 49 38 41
72 83 77 94 4 10 16 32 28 48 36 51 4 31 -56 -33z"/>
<path d="M7686 949 c-21 -30 -6 -63 29 -67 16 -2 32 2 36 10 15 23 10 57 -10
68 -28 15 -38 13 -55 -11z"/>
<path d="M8110 941 c-15 -30 -12 -49 10 -61 43 -23 83 17 60 60 -14 26 -56 26
-70 1z"/>
<path d="M7850 875 c0 -71 118 -104 174 -49 51 51 24 90 -41 59 -34 -16 -38
-16 -64 -1 -42 25 -69 21 -69 -9z"/>
</g>
</svg>
