<?xml version="1.0" standalone="no"?>
<!DOCTYPE svg PUBLIC "-//W3C//DTD SVG 20010904//EN"
 "http://www.w3.org/TR/2001/REC-SVG-20010904/DTD/svg10.dtd">
<svg version="1.0" xmlns="http://www.w3.org/2000/svg"
 width="1117.000000pt" height="1024.000000pt" viewBox="0 0 1117.000000 1024.000000"
 preserveAspectRatio="xMidYMid meet">

<g transform="translate(0.000000,1024.000000) scale(0.100000,-0.100000)"
>
<path d="M8783 9051 c-54 -18 -98 -48 -149 -100 l-30 -31 -48 16 c-55 19 -149
15 -206 -10 -39 -16 -118 -71 -138 -95 -64 -79 -91 -219 -58 -304 27 -72 122
-157 192 -171 23 -5 33 -15 42 -40 12 -32 88 -112 141 -149 l25 -17 -13 -107
c-7 -60 -15 -111 -17 -114 -2 -4 -74 -7 -161 -8 -86 -1 -165 -6 -174 -12 -25
-13 -38 -67 -46 -185 -6 -100 -6 -102 18 -114 13 -7 26 -15 29 -17 3 -3 7 -93
10 -201 4 -130 10 -205 18 -219 13 -23 12 -23 -45 -24 -81 -1 -107 -10 -111
-38 -2 -13 2 -28 10 -32 7 -5 599 -9 1316 -9 l1302 0 0 41 0 41 -107 -3 -108
-3 -6 480 c-6 495 -7 511 -50 582 -22 36 -23 47 -24 300 -1 230 -3 264 -17
279 -14 13 -35 16 -114 15 -144 -3 -134 19 -134 -298 0 -144 -4 -264 -8 -266
-4 -1 -19 -28 -32 -58 l-25 -55 -3 -490 -3 -490 -52 1 -52 2 -5 468 c-6 509
-4 495 -65 597 l-25 44 0 256 c0 306 9 287 -136 287 -136 0 -130 15 -125 -292
l3 -249 -31 -62 c-17 -34 -35 -91 -41 -127 -5 -36 -10 -253 -10 -492 l0 -428
-184 0 -184 0 15 31 c18 36 29 119 39 291 l7 127 28 11 c32 14 31 11 59 140
23 109 25 143 7 158 -7 6 -81 12 -180 13 l-167 2 0 38 c0 32 6 43 44 74 24 19
74 74 111 120 63 80 69 85 106 85 76 0 170 61 211 137 73 133 51 305 -48 392
-44 39 -114 71 -155 71 -24 0 -31 6 -44 37 -36 85 -110 149 -205 177 -69 21
-132 20 -197 -3z m220 -90 c57 -28 94 -73 117 -144 l17 -52 65 -6 c80 -7 129
-35 164 -96 50 -85 28 -235 -43 -298 -29 -25 -110 -62 -118 -53 -3 3 1 24 10
47 16 47 12 67 -17 77 -26 8 -29 3 -62 -83 -31 -82 -88 -174 -135 -217 -27
-26 -31 -27 -31 -10 1 48 31 181 55 244 30 78 28 100 -9 100 -47 0 -83 -120
-121 -410 -9 -69 -18 -127 -21 -129 -4 -4 -96 -3 -100 2 -1 1 7 77 19 169 l20
168 38 26 c45 31 79 108 79 179 0 35 -4 45 -20 50 -29 9 -37 0 -45 -48 -13
-73 -34 -114 -67 -128 -28 -12 -32 -11 -51 12 -17 21 -19 36 -16 124 4 95 3
100 -17 103 -34 5 -49 -38 -48 -142 1 -100 15 -141 57 -169 l24 -15 -24 -159
c-12 -87 -25 -163 -27 -170 -3 -7 -20 -9 -48 -6 -24 3 -44 6 -45 7 0 0 5 38
12 84 8 45 15 160 17 255 l3 173 -30 50 c-24 37 -37 49 -55 49 -36 0 -39 -43
-6 -83 24 -27 26 -38 26 -121 0 -105 -7 -111 -62 -53 -42 42 -63 86 -72 154
-8 52 -16 62 -46 53 -14 -4 -20 -15 -20 -36 0 -33 -1 -34 -39 -15 -39 21 -87
77 -101 122 -38 115 48 261 174 295 58 16 141 7 176 -19 16 -12 34 -22 39 -22
6 0 29 25 52 56 56 76 137 117 224 112 36 -2 79 -13 108 -27z m777 -288 l0
-53 -49 0 c-54 0 -61 8 -61 65 0 37 10 43 73 42 l37 0 0 -54z m538 0 l3 -53
-55 0 -56 0 0 48 c0 27 3 52 7 56 4 4 28 6 53 4 l45 -3 3 -52z m-538 -140 c4
-272 8 -326 28 -353 33 -44 62 -143 62 -210 l0 -60 -135 0 -135 0 0 58 c0 69
21 156 50 205 20 34 22 50 20 207 l-1 170 56 0 c46 0 55 -3 55 -17z m540 -148
c0 -159 1 -167 25 -205 14 -22 26 -50 28 -62 2 -22 0 -23 -110 -26 -112 -3
-113 -2 -113 20 0 13 14 43 30 68 l30 45 0 163 0 162 55 0 55 0 0 -165z m68
-434 c-2 -14 -6 -25 -10 -23 -5 1 -60 2 -123 2 l-115 0 0 50 0 49 118 3 117 3
8 -29 c4 -15 7 -40 5 -55z m0 -285 l2 -206 -78 0 c-44 0 -100 -3 -126 -6 l-46
-7 0 211 c0 131 4 212 10 214 5 2 61 2 122 1 l113 -2 3 -205z m-1154 147 c-4
-19 -12 -58 -18 -87 l-11 -51 -485 -3 c-279 -1 -488 2 -493 7 -5 5 -6 42 -2
84 7 76 7 76 39 80 17 2 244 4 504 4 l472 1 -6 -35z m636 -184 l0 -209 -135 0
-135 0 0 210 0 209 108 3 c59 2 119 1 135 -1 l27 -3 0 -209z m-740 -76 c0 -83
-20 -287 -30 -319 -6 -17 -21 -41 -34 -53 -24 -22 -30 -23 -338 -27 -172 -2
-333 -1 -358 3 -41 7 -47 12 -67 53 -20 40 -22 63 -25 218 l-3 172 428 0 427
0 0 -47z m1255 -178 l0 -40 -122 -3 -123 -3 0 43 0 43 123 0 122 0 0 -40z
m-513 -102 c7 -132 18 -123 -138 -123 l-134 0 0 105 0 105 134 0 133 0 5 -87z
m516 -60 l3 -63 -126 0 -125 0 0 59 c0 38 4 61 13 65 6 2 62 4 122 3 l110 -2
3 -62z"/>
<path d="M8355 7544 c-15 -15 -17 -36 -13 -159 4 -168 13 -190 80 -200 24 -4
168 -5 320 -3 274 3 277 3 301 26 29 27 37 59 28 105 l-7 32 -13 -50 c-7 -27
-18 -53 -24 -57 -7 -4 -143 -8 -303 -8 -363 0 -338 -11 -339 151 l0 114 310 5
c171 3 320 3 333 1 20 -3 22 -9 23 -75 l0 -71 15 45 c16 52 18 118 4 140 -8
13 -61 15 -354 18 -314 2 -345 1 -361 -14z"/>
<path d="M5670 8891 c-257 -56 -484 -210 -580 -394 l-25 -48 -55 8 c-84 12
-337 8 -405 -6 -177 -37 -334 -102 -495 -206 -78 -51 -254 -219 -265 -255 -10
-33 -25 -23 -25 18 0 51 -26 136 -55 182 -35 56 -102 105 -175 130 -60 21 -78
22 -235 17 -189 -6 -559 -31 -704 -47 -79 -9 -97 -8 -117 5 -14 9 -46 15 -77
15 l-54 0 -5 63 c-18 215 -244 346 -445 257 -117 -51 -183 -160 -183 -302 0
-66 -1 -68 -27 -74 -58 -12 -69 -17 -88 -35 -21 -19 -61 -22 -510 -49 -169
-10 -408 -26 -518 -35 -70 -5 -119 -18 -189 -49 -63 -28 -73 -39 -82 -88 -6
-32 13 -940 69 -3418 9 -377 18 -697 21 -711 11 -49 76 -122 139 -154 58 -30
60 -30 219 -29 89 0 330 12 536 27 206 15 436 32 510 37 74 5 320 21 545 35
226 14 502 32 615 40 113 8 306 21 430 30 143 9 241 20 270 30 100 35 175 116
207 224 14 49 15 95 9 373 -4 175 -4 318 1 318 4 0 51 -71 103 -158 179 -296
507 -820 650 -1037 40 -60 88 -132 106 -160 18 -27 42 -60 53 -71 l20 -22 -30
-158 c-64 -339 -130 -814 -145 -1031 l-7 -102 31 -30 c17 -17 37 -31 45 -31
11 0 15 -40 21 -223 14 -469 56 -770 134 -950 14 -32 23 -60 20 -62 -8 -8
-2453 -6 -2452 2 0 4 6 22 14 38 8 17 14 53 14 81 1 61 -36 123 -90 149 -47
22 -42 35 14 35 76 0 174 20 210 42 65 40 70 51 251 623 111 350 119 380 136
464 16 79 16 127 -1 208 -6 29 -4 34 22 43 51 18 72 32 115 74 57 56 79 109
86 209 6 82 5 84 -22 105 -16 13 -42 22 -61 22 -29 0 -34 3 -34 24 0 13 -9 35
-20 49 -62 78 -214 17 -277 -111 -15 -31 -29 -50 -31 -42 -5 23 -86 80 -114
80 -14 0 -38 -10 -53 -22 -26 -21 -27 -24 -22 -87 3 -37 7 -73 9 -81 2 -9 -4
-15 -17 -15 -15 0 -21 9 -27 42 -10 63 -43 117 -98 164 -27 23 -50 51 -50 61
0 60 -81 162 -157 198 -50 23 -148 31 -215 17 -34 -7 -37 -5 -57 26 -27 44
-94 91 -160 112 -61 20 -158 16 -206 -9 -28 -15 -31 -14 -50 8 -89 103 -275
114 -375 22 -14 -13 -42 -27 -62 -30 -82 -15 -177 -112 -178 -183 0 -13 -2
-23 -5 -23 -2 0 -23 20 -46 45 -138 150 -329 119 -414 -67 -55 -121 -56 -129
-53 -996 3 -789 3 -797 24 -843 22 -48 67 -89 119 -110 17 -7 94 -13 175 -16
107 -2 146 -7 148 -16 1 -7 -12 -18 -31 -25 -37 -13 -68 -50 -85 -101 -17 -48
-15 -89 8 -139 l19 -42 -189 0 -190 0 0 -41 0 -41 2263 7 2262 7 72 -38 c67
-35 78 -37 155 -36 74 1 90 5 153 37 l70 35 550 -2 550 -3 66 -33 c55 -28 76
-33 136 -33 83 0 142 14 192 46 l36 23 375 -3 c607 -4 2014 -8 2713 -6 l647 1
0 40 0 40 -257 1 c-142 0 -277 0 -300 -1 -39 -1 -56 11 -34 24 23 14 61 221
141 762 40 275 100 779 100 845 0 21 -8 47 -20 62 -18 23 -19 32 -11 92 9 61
6 106 -14 201 -7 30 -5 32 47 53 69 30 118 67 118 91 0 25 -44 58 -97 72 -43
10 -43 11 -26 30 22 25 229 192 301 243 l53 38 -3 50 c-3 47 -5 51 -33 59 -88
26 -359 -18 -495 -80 -79 -36 -97 -54 -119 -127 -10 -31 -21 -56 -24 -55 -4 0
-23 8 -42 17 -29 14 -35 22 -35 49 0 46 16 82 50 114 17 15 30 38 30 50 0 22
-61 90 -81 90 -5 0 -9 23 -9 50 l0 50 98 1 c53 0 189 2 302 4 113 2 240 4 283
4 l77 1 0 35 0 35 -379 0 -379 0 -6 34 c-4 18 -18 55 -31 82 -14 27 -25 50
-25 52 0 1 185 2 410 2 l410 0 0 345 0 345 -36 39 c-19 22 -61 57 -92 77 -31
21 -58 41 -60 46 -2 4 -37 8 -79 8 -66 0 -74 2 -71 18 3 14 15 17 77 17 59 0
76 3 85 17 8 14 7 21 -6 34 -22 22 -222 24 -244 2 -19 -19 -8 -46 19 -50 14
-2 22 -11 23 -25 1 -17 -11 -26 -63 -48 -85 -36 -153 -93 -186 -153 l-27 -50
0 -270 0 -270 -22 -6 c-13 -3 -60 -6 -105 -6 -74 0 -84 2 -114 27 -56 48 -59
64 -59 376 0 207 -3 286 -12 295 -18 18 -133 16 -148 -4 -10 -12 -13 -77 -11
-287 1 -150 0 -284 -4 -299 -5 -19 -17 -28 -47 -37 -22 -7 -42 -10 -45 -7 -3
2 0 20 6 38 18 57 41 208 41 272 0 270 -159 438 -335 355 -100 -47 -169 -179
-215 -411 -11 -54 -13 -58 -40 -58 l-29 0 6 143 c6 160 -7 245 -53 347 -19 44
-24 63 -16 73 6 7 20 46 30 87 l20 75 -21 21 c-28 28 -135 63 -213 71 -57 5
-63 4 -77 -18 -8 -13 -23 -61 -33 -106 -17 -73 -22 -84 -47 -94 -47 -20 -131
-123 -180 -222 -64 -129 -91 -215 -222 -692 -40 -146 -145 -569 -145 -586 0
-3 -24 -15 -54 -28 -69 -28 -126 -78 -156 -134 -17 -33 -32 -47 -51 -51 -15
-3 -43 -20 -62 -38 -19 -18 -52 -47 -74 -64 -79 -64 -141 -233 -130 -357 5
-52 3 -57 -14 -57 -11 0 -32 -12 -46 -26 l-26 -26 7 -247 c8 -287 9 -316 42
-731 33 -421 52 -586 74 -644 20 -53 25 -52 -207 -50 -120 2 -221 3 -224 3 -4
1 4 28 18 61 51 128 67 452 48 972 -7 193 -6 208 10 208 9 0 32 15 51 34 41
41 42 57 14 276 -11 85 -20 163 -20 172 0 11 19 27 50 43 103 52 160 126 179
230 11 59 7 114 -11 148 -8 15 0 30 40 75 178 206 268 405 248 551 -19 140
-83 247 -246 411 -143 144 -277 254 -444 365 -64 42 -116 79 -116 80 0 2 28
17 63 35 159 83 279 187 374 327 l56 82 56 7 c241 29 396 176 395 373 -2 121
-70 242 -163 286 -38 19 -41 23 -41 61 0 36 4 43 28 53 40 17 97 70 117 110
35 71 13 141 -44 141 -22 0 -29 7 -44 49 -18 51 -100 169 -124 178 -10 4 -13
58 -13 277 l0 271 83 42 c194 100 334 273 382 475 25 104 30 269 11 375 -92
530 -555 925 -1111 950 l-130 6 -41 57 c-109 150 -327 285 -549 342 -118 29
-360 34 -475 9z m405 -105 c39 -8 97 -24 129 -36 70 -24 218 -102 261 -137 45
-37 145 -135 145 -142 0 -4 -19 -12 -43 -18 -139 -38 -211 -81 -200 -122 11
-42 35 -43 145 -7 287 96 580 58 861 -110 364 -218 569 -636 492 -1007 -20
-98 -45 -155 -100 -233 -67 -94 -157 -169 -262 -220 -50 -25 -94 -52 -97 -60
-3 -9 -6 -47 -6 -85 0 -38 -2 -69 -5 -69 -3 0 -27 11 -53 24 -26 13 -92 43
-147 66 -55 23 -103 45 -107 49 -4 3 2 42 13 85 24 95 22 130 -7 134 -31 4
-60 -42 -81 -125 -10 -37 -18 -69 -18 -70 0 -1 -40 10 -90 23 -268 72 -438 97
-775 114 -233 12 -606 0 -810 -25 -191 -24 -431 -70 -576 -111 -18 -5 -23 1
-33 42 -25 98 -60 142 -102 129 -23 -7 -24 -35 -5 -90 8 -22 17 -56 21 -76 l7
-37 -54 -20 c-29 -11 -104 -43 -165 -70 -62 -28 -114 -47 -116 -44 -2 4 -4 36
-5 72 -3 74 -8 81 -86 106 -169 55 -313 176 -384 324 -71 148 -94 287 -73 443
43 324 238 585 561 751 294 151 560 174 847 71 116 -42 130 -43 145 -11 16 37
5 53 -67 88 -36 18 -65 38 -65 44 0 26 109 152 175 203 110 84 263 148 410
171 77 12 231 5 320 -14z m-3884 -249 c81 -43 130 -168 107 -270 -12 -56 0
-67 79 -67 79 0 118 -18 132 -63 26 -77 13 -160 -28 -181 -37 -20 -71 -24
-271 -36 -96 -6 -191 -13 -210 -15 -140 -16 -228 -17 -258 -1 -41 21 -62 63
-62 123 0 83 37 122 132 138 44 7 45 8 52 142 5 97 26 163 63 196 68 60 185
75 264 34z m1362 -308 c50 -16 113 -72 138 -121 30 -59 47 -283 25 -326 -28
-54 -64 -196 -77 -301 -20 -166 6 -323 82 -490 26 -57 29 -74 29 -170 0 -58 4
-189 9 -291 6 -102 13 -273 17 -380 l6 -195 -26 -14 c-14 -8 -35 -33 -46 -56
-39 -80 -19 -194 55 -313 l35 -57 0 -175 c1 -96 5 -263 10 -370 19 -399 24
-773 11 -827 -21 -87 -102 -162 -191 -177 -19 -3 -114 -10 -210 -16 -194 -11
-214 -13 -515 -35 -280 -20 -485 -33 -625 -40 -159 -8 -667 -44 -710 -50 -19
-3 -150 -12 -290 -20 -140 -9 -316 -19 -391 -24 -300 -19 -362 36 -374 333 -5
135 -16 803 -41 2626 -8 575 -19 1076 -24 1115 -8 59 -7 74 8 104 38 76 44 77
627 111 193 11 384 23 425 26 l75 6 0 -79 c0 -71 3 -85 30 -128 38 -62 98 -95
171 -95 105 0 660 41 701 51 48 13 100 59 121 109 17 40 19 151 2 195 -7 20
-8 30 0 35 5 3 101 12 213 19 111 8 281 19 377 27 191 14 294 12 353 -7z m338
-1455 c37 -41 133 -100 220 -136 l79 -32 0 -239 0 -240 -43 -46 c-23 -25 -58
-77 -77 -116 -19 -38 -36 -72 -38 -74 -1 -3 -12 5 -25 16 -26 25 -96 63 -114
63 -7 0 -13 10 -13 23 0 12 -7 184 -15 382 -17 426 -17 425 -7 425 5 0 19 -12
33 -26z m2479 -49 c186 -23 288 -42 460 -85 176 -44 295 -87 458 -166 l114
-55 -4 -128 c-3 -110 -6 -132 -22 -150 -26 -29 -45 -27 -187 18 -280 89 -455
127 -744 163 -155 19 -230 22 -535 23 -370 0 -490 -8 -790 -56 -228 -36 -555
-110 -610 -139 -8 -4 -48 -17 -88 -28 l-73 -21 -26 23 c-29 25 -28 21 -25 202
l2 90 43 21 c314 156 695 256 1117 292 69 6 139 13 155 15 75 10 637 -4 755
-19z m-124 -485 c277 -22 614 -81 745 -131 26 -10 39 -44 39 -107 0 -70 103
-263 191 -359 39 -42 41 -48 59 -138 17 -84 24 -362 11 -445 -20 -131 -109
-286 -225 -393 -191 -177 -505 -303 -906 -363 -155 -24 -452 -24 -615 0 -534
76 -934 300 -1069 597 -77 169 -73 499 9 744 25 75 130 326 164 393 29 56 38
59 56 15 37 -88 86 -103 178 -57 63 33 175 107 240 161 48 40 48 40 195 57 81
9 185 21 232 25 125 12 547 13 696 1z m-2341 -380 c22 -11 57 -40 78 -65 35
-41 39 -53 47 -128 4 -45 7 -82 7 -82 -1 -1 -28 -11 -60 -24 -32 -13 -59 -22
-61 -20 -96 135 -137 238 -115 291 10 24 34 44 58 47 3 1 23 -8 46 -19z m185
-400 c-91 -73 -105 -87 -133 -149 -58 -123 -36 -279 53 -383 75 -86 205 -141
328 -137 l62 2 44 -60 c59 -81 165 -183 254 -244 78 -54 281 -155 372 -184 30
-10 56 -19 58 -20 1 -1 -11 -35 -28 -75 -49 -119 -127 -369 -172 -551 -23 -93
-42 -168 -43 -167 -32 41 -489 763 -617 973 -47 77 -104 169 -126 205 -76 122
-180 295 -197 328 -28 56 -45 161 -45 278 0 102 2 112 23 132 32 30 127 72
162 72 l30 -1 -25 -19z m3468 -54 c118 -61 154 -211 79 -324 -35 -52 -109
-107 -165 -121 -99 -26 -96 -26 -89 0 18 67 29 206 25 325 -3 113 -1 134 12
138 27 8 108 -2 138 -18z m-3279 -42 l31 -6 0 -127 c1 -110 10 -189 35 -307
l7 -31 -67 8 c-151 19 -255 129 -255 272 0 50 19 98 54 136 51 55 110 72 195
55z m4444 -539 c61 -18 62 -20 46 -78 -8 -30 -14 -37 -27 -32 -9 3 -37 11 -62
17 -25 6 -51 12 -59 15 -10 2 -12 14 -7 45 8 52 14 60 34 54 10 -3 43 -12 75
-21z m-33 -187 c36 -18 51 -34 73 -80 33 -65 61 -220 52 -285 l-6 -43 -37 29
c-52 42 -130 81 -148 74 -34 -13 -11 -41 81 -101 l95 -63 0 -47 c0 -54 -17
-180 -26 -194 -4 -7 -9 -7 -13 0 -10 16 -145 103 -170 109 -28 7 -45 -15 -28
-35 6 -8 51 -41 99 -73 47 -32 89 -63 93 -69 6 -10 -22 -217 -32 -233 -2 -4
-21 5 -41 21 -20 16 -65 46 -100 67 -58 35 -64 37 -79 22 -22 -22 -12 -33 104
-113 51 -36 95 -69 98 -73 8 -14 -42 -202 -58 -218 -13 -13 -24 -8 -87 37 -99
71 -116 78 -138 56 -16 -16 -15 -19 14 -44 18 -15 57 -44 87 -66 l55 -38 -29
-43 c-37 -55 -79 -144 -79 -170 0 -11 -5 -27 -10 -35 -9 -13 -14 -10 -32 15
-12 17 -46 53 -75 82 -68 66 -141 95 -241 97 l-73 1 6 35 c32 182 255 981 311
1119 46 112 85 179 126 217 71 68 133 80 208 42z m1772 -82 c73 -26 168 -116
168 -158 0 -14 -29 -16 -260 -17 -293 -2 -289 -3 -223 70 85 94 219 139 315
105z m-1212 -53 c0 -28 -28 -190 -46 -273 -17 -75 -19 -76 -38 -17 -3 9 -10
17 -16 17 -13 0 -13 -40 2 -95 13 -49 8 -92 -32 -255 -11 -47 -28 -121 -37
-165 -9 -44 -19 -84 -23 -88 -5 -5 -14 24 -21 65 -17 91 -17 347 1 447 16 96
63 241 94 289 44 70 116 116 116 75z m118 -40 c56 -79 71 -248 38 -413 -33
-158 -213 -573 -267 -611 -13 -10 -34 -20 -45 -23 l-21 -7 19 58 c11 32 34
110 52 174 34 115 34 115 100 179 36 35 66 67 66 72 0 4 -25 -8 -55 -28 -30
-21 -57 -35 -60 -32 -3 2 1 28 9 56 9 35 26 66 54 96 23 25 42 50 42 55 0 20
-22 22 -41 5 -10 -9 -21 -15 -24 -12 -10 10 26 105 46 124 41 37 82 105 70
117 -8 8 -19 3 -41 -18 -16 -16 -30 -24 -30 -18 0 9 32 169 45 231 7 29 19 28
43 -5z m304 -270 c2 -164 3 -299 2 -301 0 -1 -15 1 -33 4 -30 6 -32 9 -27 37
3 16 6 148 6 293 l0 264 24 0 24 0 4 -297z m-2914 110 c181 -104 401 -276 572
-445 233 -231 266 -398 125 -627 -53 -86 -142 -201 -156 -201 -5 0 -37 22 -72
48 -78 60 -154 109 -193 122 -28 10 -32 18 -48 86 -18 75 -18 77 1 103 22 29
77 60 108 61 27 0 65 27 65 46 0 8 -16 22 -35 30 -42 17 -114 5 -158 -27 -20
-15 -28 -17 -32 -7 -2 7 -22 75 -45 150 -64 215 -139 416 -215 582 -19 43 -34
80 -33 81 14 10 46 24 56 25 7 0 34 -12 60 -27z m3882 -213 l0 -230 -264 0
-264 0 -6 23 c-3 12 -6 115 -6 230 l0 207 270 0 270 0 0 -230z m-4086 133
c156 -311 329 -905 435 -1498 39 -218 94 -604 88 -619 -11 -27 -249 -91 -437
-116 -47 -7 -95 -13 -108 -15 -197 -30 -977 -31 -1212 -1 -248 31 -428 69
-499 106 -23 11 -41 25 -41 31 0 18 40 368 49 432 97 653 194 1111 306 1445
67 199 99 265 123 258 9 -2 43 -10 75 -17 34 -7 57 -17 57 -25 0 -7 -7 -61
-16 -118 -16 -112 -12 -135 26 -156 48 -26 539 -37 820 -19 208 13 234 23 238
91 2 26 -6 86 -17 133 -12 48 -21 92 -21 99 0 10 34 22 102 35 4 0 18 -20 32
-46z m-227 -59 c7 -27 16 -70 19 -95 l6 -46 -68 -6 c-149 -14 -487 -18 -642
-9 -90 5 -165 12 -167 14 -2 2 1 43 8 92 l12 87 115 -8 c162 -11 434 -6 570
10 63 8 120 13 125 12 6 -1 16 -24 22 -51z m2611 -251 l-3 -128 -42 -3 c-41
-3 -43 -2 -43 25 0 15 7 71 15 123 8 52 15 98 15 103 0 4 14 7 30 7 l31 0 -3
-127z m696 -88 c97 -16 122 -28 160 -78 38 -50 54 -94 62 -177 6 -64 5 -73 -7
-64 -20 16 -44 10 -80 -20 l-30 -26 -33 25 c-44 34 -99 55 -141 55 -35 0 -35
0 -35 44 0 86 -55 118 -134 75 -42 -22 -53 -20 -37 8 6 10 26 53 45 96 l35 77
53 0 c29 0 93 -7 142 -15z m-684 -131 c6 -14 10 -41 10 -60 l0 -35 -76 2 -76
3 7 44 c11 71 12 72 71 72 49 0 55 -2 64 -26z m495 -141 c-33 -109 -10 -216
62 -290 24 -25 43 -53 41 -61 -2 -9 -26 -23 -58 -32 -65 -20 -93 -33 -141 -71
l-36 -28 -22 54 c-27 66 -90 139 -142 166 -22 11 -39 24 -39 29 0 5 22 21 49
34 50 26 72 48 128 130 18 25 43 50 55 55 13 5 38 21 57 35 53 40 63 35 46
-21z m-464 -32 c3 -3 1 -35 -4 -71 l-9 -64 -22 25 c-31 38 -77 66 -119 74 -43
8 -53 41 -14 47 34 5 161 -3 168 -11z m644 -70 c49 -22 91 -69 100 -113 6 -26
3 -35 -14 -50 -33 -26 -86 -33 -114 -15 -41 27 -80 94 -85 147 l-5 50 39 0
c22 0 57 -9 79 -19z m255 -64 c41 -39 49 -51 39 -63 -15 -18 -28 -18 -50 2 -9
8 -27 16 -40 17 -29 1 -39 14 -39 48 0 25 18 52 31 47 4 -2 30 -25 59 -51z
m-1032 2 c28 -21 21 -26 -40 -28 -51 -1 -59 9 -38 50 12 21 29 16 78 -22z
m1742 -102 c-9 -7 -45 -34 -80 -61 -91 -69 -184 -149 -257 -219 -53 -52 -64
-58 -77 -47 -9 7 -16 19 -16 26 0 17 60 72 141 132 58 42 75 72 42 72 -22 0
-124 -62 -186 -113 -63 -52 -74 -41 -47 47 21 68 21 68 83 96 98 46 237 77
357 78 45 1 52 -1 40 -11z m-1690 -34 c30 -25 34 -26 80 -14 62 16 113 3 167
-44 93 -79 107 -175 49 -340 l-35 -100 -48 -2 c-85 -3 -132 -12 -175 -33 -23
-11 -45 -20 -48 -20 -4 0 -13 19 -20 43 -32 107 -91 181 -182 227 -36 18 -77
30 -100 30 -44 0 -45 4 -22 80 40 134 118 199 241 200 52 0 66 -4 93 -27z
m-7430 -6 c24 -13 45 -27 47 -33 2 -5 -18 -15 -44 -22 -31 -9 -60 -27 -90 -56
-36 -37 -43 -50 -43 -83 0 -22 3 -42 6 -45 13 -13 41 6 59 40 53 98 200 91
263 -13 29 -47 43 -58 66 -49 41 16 5 114 -60 161 -39 29 -22 45 55 51 80 6
157 -28 200 -89 43 -58 40 -78 -14 -111 -47 -29 -72 -66 -62 -92 9 -22 33 -20
57 4 42 42 174 10 205 -51 22 -41 20 -96 -4 -104 -10 -3 -27 -15 -37 -26 -18
-20 -18 -21 1 -35 10 -8 29 -14 42 -14 14 0 43 -18 72 -45 54 -51 78 -56 87
-20 5 20 -2 35 -31 70 -42 52 -43 78 -3 108 67 50 194 20 230 -53 29 -60 21
-115 -12 -85 -33 30 -75 -12 -45 -45 8 -9 15 -19 15 -22 0 -3 -35 -41 -79 -85
-93 -95 -149 -169 -216 -292 -47 -85 -52 -90 -83 -91 -29 0 -33 3 -28 20 3 11
9 30 12 43 3 12 23 50 44 83 39 62 73 131 85 170 6 24 -19 57 -39 51 -6 -2
-30 -42 -54 -90 -24 -48 -47 -87 -52 -87 -8 0 -16 63 -23 165 -1 29 -7 41 -20
43 -47 9 -57 -61 -33 -228 7 -52 11 -112 8 -132 l-4 -38 -92 0 -92 0 -22 143
c-12 78 -25 166 -28 195 -8 61 -31 83 -59 55 -13 -13 -16 -27 -11 -61 8 -61
-9 -52 -61 34 -43 71 -66 85 -87 51 -15 -24 27 -102 99 -185 54 -62 79 -119
87 -197 l3 -30 -84 0 c-103 0 -112 7 -141 110 -26 92 -42 120 -65 120 -24 0
-32 -42 -16 -87 6 -17 9 -33 7 -35 -10 -11 -54 31 -86 82 -36 56 -44 62 -69
46 -12 -8 -13 -16 -3 -50 15 -48 49 -90 115 -142 l49 -39 -106 0 c-103 0 -106
1 -106 23 -1 61 -32 326 -52 431 l-22 118 34 28 c24 19 31 32 26 45 -6 17 -28
17 -67 1 -13 -6 -22 8 -44 69 -17 44 -24 79 -19 84 48 46 146 63 194 36 34
-20 47 -18 60 5 32 60 -102 116 -193 81 -38 -15 -37 -15 -37 20 0 39 31 83 70
99 23 10 34 10 43 1 22 -22 52 -10 82 32 17 23 42 47 55 54 40 20 112 16 160
-10z m8400 -27 c0 -46 5 -44 -105 -28 l-82 12 51 26 c29 16 69 28 94 29 l42 1
0 -40z m-1666 -105 c43 -21 106 -79 106 -98 0 -7 -25 -23 -55 -36 -51 -22
-103 -68 -148 -131 -14 -20 -19 -22 -24 -10 -3 8 -29 38 -58 66 -52 52 -138
94 -190 94 -14 0 -25 4 -25 9 0 15 59 70 92 87 30 15 31 15 68 -21 59 -57 92
-35 66 44 -8 23 -8 23 60 19 39 -2 86 -12 108 -23z m-7393 -40 c121 -80 233
-412 270 -798 6 -70 10 -129 8 -132 -7 -6 -113 -8 -358 -6 l-224 1 7 233 c7
247 9 262 32 432 17 122 46 218 74 253 48 58 120 65 191 17z m9080 -3 c87 -37
159 -94 215 -170 30 -42 43 -52 59 -48 11 3 46 12 78 21 39 11 67 13 84 8 24
-8 18 -12 -68 -50 -52 -23 -111 -48 -131 -57 -21 -8 -38 -19 -38 -25 0 -18 32
-42 49 -36 9 4 28 9 43 12 25 5 27 2 38 -53 24 -114 -4 -204 -63 -204 -17 0
-160 -9 -317 -20 -157 -11 -304 -20 -327 -20 l-43 0 0 48 c0 93 -70 200 -159
242 -33 15 -51 30 -51 41 0 22 64 191 85 222 23 36 94 83 161 106 51 19 77 21
184 18 114 -3 132 -6 201 -35z m-2789 -33 c157 -107 203 -211 146 -327 -21
-40 -91 -102 -117 -102 -5 0 -13 21 -16 48 -9 59 -74 388 -82 408 -8 22 3 17
69 -27z m-4864 -5 c57 -28 92 -69 92 -107 0 -21 -6 -26 -37 -32 -21 -3 -49
-14 -62 -22 -16 -11 -26 -12 -29 -5 -11 35 -68 95 -108 114 -49 25 -54 45 -14
65 40 20 101 15 158 -13z m6143 -125 c46 -32 104 -36 139 -10 35 25 53 26 111
6 108 -39 185 -183 205 -385 l7 -70 -280 0 -280 0 -6 73 c-6 83 -35 167 -77
226 l-30 40 20 35 c21 34 74 77 120 95 35 14 39 13 71 -10z m-510 1 c66 -18
150 -91 87 -75 -34 9 -99 -8 -112 -28 -9 -15 -6 -21 14 -37 l25 -19 -23 -16
c-12 -9 -30 -32 -40 -52 l-19 -36 -17 44 c-22 54 -66 198 -66 216 0 16 97 18
151 3z m-4834 -63 c-12 -75 -125 -257 -159 -257 -6 0 -9 27 -6 73 3 61 9 83
33 123 33 52 85 94 118 94 17 0 19 -5 14 -33z m4633 -78 c15 -41 36 -94 48
-118 12 -25 20 -47 17 -49 -7 -7 -52 14 -97 45 -21 14 -44 23 -53 19 -58 -22
75 -146 156 -146 29 0 39 -5 44 -20 9 -29 49 -25 80 7 27 29 28 34 25 100 -2
48 19 93 56 122 32 25 70 27 124 5 66 -27 102 -95 115 -218 l7 -66 -78 0
c-176 1 -586 28 -597 39 -21 21 -12 158 13 225 23 60 85 139 103 133 6 -2 23
-37 37 -78z m-4515 1 c10 -16 -13 -49 -46 -66 -42 -21 -47 -11 -15 36 26 39
48 50 61 30z m-422 -32 c14 -18 32 -48 41 -65 18 -37 10 -42 -38 -23 -18 7
-27 19 -31 47 -4 21 -9 46 -12 56 -7 28 14 20 40 -15z m6367 -91 c0 -12 -9
-31 -21 -40 -29 -25 -20 -39 36 -53 58 -15 85 -40 88 -80 l2 -29 -137 0 c-75
0 -138 2 -141 5 -2 3 -7 42 -10 87 l-5 82 51 25 c30 15 70 25 95 26 37 0 42
-3 42 -23z m143 12 c75 -21 146 -111 147 -186 l0 -33 -59 0 -58 0 -6 46 c-6
57 -31 93 -85 119 -45 22 -52 38 -24 54 22 13 38 13 85 0z m-6139 -70 c-49
-52 -154 -90 -154 -56 0 30 102 85 159 87 l25 0 -30 -31z m-317 -48 c136 -69
185 -194 140 -361 -20 -75 -25 -85 -45 -84 -128 4 -115 -1 -196 74 -75 69
-108 84 -120 54 -4 -10 11 -33 40 -65 l47 -49 -88 0 -88 0 -48 45 c-26 25 -55
45 -63 45 -21 0 -28 -29 -11 -53 8 -12 15 -25 15 -29 0 -10 -88 -9 -147 0
l-42 7 47 78 c58 97 171 237 234 290 92 78 228 98 325 48z m5108 -173 c296
-13 1773 -17 1970 -5 72 4 186 10 254 14 l124 6 -7 -99 c-16 -212 -113 -914
-177 -1279 -30 -168 -39 -194 -81 -216 -46 -25 -265 -30 -1168 -29 -953 0
-1186 7 -1241 35 -16 9 -29 17 -29 19 0 2 -4 26 -10 54 -32 170 -88 875 -106
1345 l-7 179 109 -6 c60 -3 226 -11 369 -18z m-7157 -480 l3 -158 -109 0 -109
0 -5 48 c-2 26 -6 98 -7 160 l-2 113 113 -3 113 -3 3 -157z m356 153 c3 -5 9
-79 12 -166 l7 -157 -139 7 c-175 9 -184 14 -77 41 67 18 103 38 103 60 0 25
-26 26 -101 5 -40 -11 -74 -20 -75 -18 0 1 -4 55 -7 120 l-6 117 139 0 c76 0
141 -4 144 -9z m382 -4 c1 -1 -1 -73 -3 -159 l-6 -158 -138 0 -139 0 0 163 0
162 142 -3 c79 -2 144 -4 144 -5z m200 -105 c-10 -175 -35 -227 -105 -220 -24
3 -24 5 -22 98 1 52 4 125 7 163 l7 67 60 0 60 0 -7 -108z m216 98 l67 0 -6
-52 c-3 -29 -18 -102 -33 -163 -25 -106 -27 -110 -55 -113 -36 -5 -111 24
-119 45 -10 25 15 277 28 286 6 4 20 5 31 2 11 -2 50 -5 87 -5z m457 -7 l92
-6 -6 -31 c-16 -79 -26 -97 -48 -89 -73 24 -118 -11 -57 -45 66 -36 64 -32 49
-107 l-13 -68 -190 7 c-104 3 -191 8 -193 10 -9 9 45 193 62 214 1 1 26 -12
54 -29 47 -29 53 -31 67 -17 22 21 2 51 -48 74 -21 9 -38 19 -38 22 0 2 9 20
21 38 20 33 22 34 88 34 37 0 109 -3 160 -7z m444 -14 c37 -1 70 -5 72 -9 2
-4 -12 -58 -31 -121 -20 -63 -43 -138 -52 -168 l-16 -54 -95 7 c-53 3 -125 6
-160 6 l-64 0 7 47 c3 25 8 49 11 51 3 3 23 -1 45 -8 32 -10 43 -11 53 -1 16
16 0 41 -45 66 l-35 20 20 87 20 87 101 -4 c56 -2 132 -5 169 -6z m3234 -161
c6 -7 38 -101 73 -208 104 -324 228 -632 325 -805 18 -33 34 -64 34 -68 1 -5
-219 -9 -489 -10 -270 -1 -490 -1 -490 1 0 1 11 25 25 52 43 86 81 212 185
626 56 219 105 402 108 406 4 4 48 9 97 11 50 1 97 4 106 5 9 1 21 -4 26 -10z
m-5282 -231 c8 -55 4 -71 -20 -77 -14 -4 -20 -14 -20 -35 0 -25 4 -30 23 -28
21 3 22 0 22 -92 l0 -95 -100 0 c-55 0 -100 3 -100 8 0 4 -7 75 -15 157 -8 83
-15 162 -15 178 l0 27 109 0 110 0 6 -43z m358 23 c3 -3 7 -84 9 -180 l3 -175
-40 -3 c-22 -2 -86 -1 -142 3 l-103 7 0 98 0 98 58 20 c43 14 57 23 57 38 0
23 -42 31 -86 15 l-29 -10 0 51 0 50 134 -4 c74 -2 137 -6 139 -8z m352 -10
c3 -6 3 -87 -1 -180 l-7 -170 -123 0 -124 0 0 98 c0 53 -3 134 -7 180 l-6 82
131 0 c77 0 133 -4 137 -10z m414 -16 c5 -4 -46 -214 -53 -222 -2 -1 -16 2
-32 8 -16 7 -48 15 -72 20 -36 6 -44 5 -52 -10 -12 -23 10 -43 75 -67 41 -15
50 -23 50 -43 0 -24 -2 -25 -75 -26 -41 -1 -100 1 -132 4 l-58 5 5 36 c2 20 7
99 11 175 l6 139 161 -7 c88 -3 163 -9 166 -12z m238 -10 c60 -5 80 -10 76
-20 -7 -20 25 -61 63 -79 59 -28 75 6 24 52 -16 14 -30 30 -30 35 0 5 21 7 48
5 26 -1 46 -7 46 -12 -1 -9 -37 -143 -71 -262 l-14 -53 -185 0 c-148 0 -184 3
-184 13 0 8 18 83 40 168 21 85 39 155 40 157 0 4 62 2 147 -4z m627 -25 c3
-3 -12 -61 -34 -129 -53 -171 -60 -190 -73 -191 -51 -2 -282 3 -286 6 -2 3 11
60 28 127 18 68 37 140 42 162 l10 38 154 -4 c85 -2 156 -6 159 -9z m-1024
-394 c477 -8 700 -16 700 -26 0 -10 -529 -10 -1290 0 -450 6 -487 7 -510 24
-28 21 -134 21 1100 2z m-7 -115 c351 0 547 -4 547 -10 0 -5 -11 -12 -25 -16
-23 -6 -94 -74 -95 -92 -1 -4 -5 -27 -10 -52 -6 -35 -4 -55 11 -95 10 -27 19
-50 19 -50 0 0 -213 -2 -473 -4 -261 -2 -488 0 -505 3 l-31 7 21 35 c16 27 19
47 16 93 -5 69 -39 122 -94 148 -19 9 -34 20 -34 24 0 12 32 18 70 13 19 -2
281 -4 583 -4z m577 -102 c0 -2 -7 -24 -15 -51 -17 -55 -12 -75 23 -88 18 -7
31 -5 50 7 23 15 24 20 18 70 -5 43 -3 54 8 54 26 0 49 -49 43 -92 -10 -71
-70 -110 -136 -87 -70 25 -83 129 -22 176 15 11 31 17 31 11z m-1330 -21 c0
-6 -4 -27 -9 -45 -8 -28 -6 -36 14 -60 23 -26 25 -26 52 -11 30 16 35 44 19
102 -6 20 -5 27 6 27 24 0 49 -36 55 -77 10 -77 -76 -135 -146 -99 -41 22 -65
69 -56 112 7 42 65 87 65 51z"/>
<path d="M2023 8465 c-68 -29 -96 -141 -53 -212 71 -117 242 -72 257 68 11
111 -100 190 -204 144z m103 -100 c19 -30 11 -60 -23 -82 -25 -16 -26 -16 -44
6 -22 26 -25 71 -7 89 20 20 56 14 74 -13z"/>
<path d="M3140 7413 c-301 -11 -627 -24 -685 -28 -38 -3 -167 -9 -285 -15
-118 -6 -244 -12 -280 -15 -36 -2 -149 -7 -250 -11 -102 -3 -198 -7 -215 -9
-16 -2 -49 -4 -72 -4 -39 -1 -73 -20 -73 -41 0 -28 45 -31 288 -21 136 6 308
13 382 17 74 3 214 10 310 15 455 24 773 39 861 39 111 0 159 13 159 41 0 28
-34 36 -140 32z"/>
<path d="M652 7349 c-18 -4 -42 -15 -54 -25 -20 -18 -20 -25 -15 -179 8 -208
0 -200 187 -191 108 5 140 10 160 25 l25 19 -2 163 c-3 208 2 202 -158 198
-61 -2 -126 -6 -143 -10z m222 -182 c5 -65 5 -121 1 -125 -3 -4 -51 -9 -104
-10 l-98 -4 -7 118 c-3 64 -4 119 -1 122 5 6 129 18 175 17 25 0 25 -1 34
-118z"/>
<path d="M3207 7174 c-1 -1 -105 -5 -232 -8 -126 -4 -268 -8 -315 -11 -47 -3
-164 -7 -260 -10 -96 -3 -209 -7 -250 -10 -41 -3 -149 -7 -240 -11 -91 -3
-181 -8 -200 -9 -19 -2 -116 -6 -215 -10 -225 -8 -242 -10 -250 -36 -4 -12 -2
-26 4 -32 11 -11 348 -2 856 23 225 11 326 15 791 31 368 13 392 17 380 57 -6
16 -58 36 -69 26z"/>
<path d="M2988 6875 c-2 -1 -68 -5 -148 -9 -80 -4 -188 -9 -240 -12 -52 -2
-212 -9 -355 -14 -403 -16 -781 -30 -883 -34 -65 -2 -98 -8 -108 -18 -17 -16
-10 -44 13 -52 19 -8 1045 30 1348 49 44 3 206 10 360 15 266 10 281 11 298
31 13 17 15 25 6 36 -9 11 -42 13 -150 12 -76 0 -139 -2 -141 -4z"/>
<path d="M747 6431 c-99 -5 -111 -8 -128 -30 -21 -26 -24 -104 -11 -253 10
-105 20 -114 120 -111 147 4 209 13 233 36 21 20 22 24 15 169 -3 81 -9 154
-12 162 -11 30 -57 35 -217 27z m147 -192 c8 -135 17 -124 -108 -128 -57 -2
-81 1 -87 11 -5 7 -9 61 -9 120 l0 107 33 6 c46 7 151 11 158 5 4 -3 10 -57
13 -121z"/>
<path d="M2965 6368 c-82 -4 -316 -14 -520 -23 -203 -9 -428 -20 -500 -25 -71
-5 -200 -12 -285 -16 -85 -4 -158 -8 -161 -10 -3 -2 -64 -4 -135 -5 -136 -1
-164 -8 -164 -39 0 -37 28 -41 267 -30 547 24 697 31 843 40 85 6 304 17 485
25 487 22 495 23 495 56 0 28 -34 40 -108 37 -37 -2 -134 -6 -217 -10z"/>
<path d="M2920 5770 c-400 -16 -498 -21 -565 -25 -38 -3 -137 -7 -220 -11 -82
-3 -160 -7 -172 -9 -12 -2 -141 -6 -285 -10 -265 -6 -353 -11 -369 -21 -5 -3
-9 -14 -9 -24 0 -34 35 -42 139 -36 53 4 224 11 381 16 157 6 317 12 355 15
39 2 140 7 225 10 85 3 205 8 265 10 643 28 599 24 618 48 18 20 18 22 1 34
-19 14 -70 14 -364 3z"/>
<path d="M734 5691 c-104 -9 -114 -21 -113 -130 0 -47 4 -124 8 -169 9 -116 9
-116 181 -108 193 10 204 20 194 189 -12 178 -16 200 -44 214 -26 13 -100 14
-226 4z m179 -143 c4 -46 7 -104 7 -129 0 -56 -6 -59 -126 -59 l-81 0 -5 123
c-3 67 -4 124 -1 127 2 2 41 7 86 11 45 3 89 7 98 7 13 2 17 -13 22 -80z"/>
<path d="M2989 5536 c-2 -2 -98 -7 -214 -11 -115 -4 -221 -8 -235 -10 -14 -1
-99 -6 -190 -9 -91 -4 -183 -9 -205 -11 -51 -6 -207 -13 -565 -25 -157 -6
-292 -13 -302 -16 -9 -3 -19 -11 -22 -19 -9 -24 22 -45 67 -45 77 0 996 39
1287 55 52 3 221 10 375 15 225 8 283 13 295 25 11 12 12 20 4 33 -10 15 -31
17 -151 20 -76 1 -141 1 -144 -2z"/>
<path d="M1687 5194 c-1 -1 -86 -4 -187 -4 -140 -2 -191 -6 -207 -16 -25 -16
-30 -39 -10 -51 17 -11 448 -3 470 9 11 5 17 18 15 31 -2 17 -12 23 -40 28
-21 3 -39 5 -41 3z"/>
<path d="M726 5031 c-80 -11 -85 -25 -79 -189 7 -185 8 -187 132 -186 137 2
199 12 223 36 20 20 21 28 15 167 -9 184 -7 182 -146 180 -53 -1 -118 -5 -145
-8z m206 -175 c4 -61 6 -112 3 -114 -2 -3 -47 -7 -98 -10 -76 -4 -95 -2 -99
10 -3 8 -5 59 -4 114 l1 99 75 5 c128 9 114 20 122 -104z"/>
<path d="M2655 4989 c-386 -14 -761 -30 -840 -34 -44 -2 -163 -7 -265 -11
-294 -10 -290 -10 -307 -27 -15 -15 -15 -18 1 -36 16 -17 28 -19 109 -16 51 2
178 7 282 10 246 8 635 23 900 35 116 5 327 12 470 15 143 4 272 11 288 17 30
12 37 42 11 52 -20 8 -381 5 -649 -5z"/>
<path d="M2740 4512 c-206 -6 -826 -34 -1050 -47 -135 -8 -282 -15 -328 -15
-70 0 -85 -3 -103 -21 -19 -19 -20 -23 -5 -37 21 -22 92 -20 946 23 157 8 465
19 685 25 220 6 410 15 423 20 27 12 29 36 2 50 -18 10 -286 11 -570 2z"/>
<path d="M6653 6138 c-35 -9 -56 -37 -47 -62 7 -18 32 -28 55 -21 9 3 45 -4
79 -15 71 -24 90 -21 90 14 0 21 -48 76 -68 76 -4 0 -23 4 -42 8 -19 5 -50 5
-67 0z"/>
<path d="M6695 5694 c-37 -19 -60 -46 -87 -104 -31 -67 -31 -216 0 -285 30
-64 55 -91 107 -111 83 -31 169 16 204 112 25 66 28 177 6 250 -35 119 -143
183 -230 138z"/>
<path d="M4915 5683 c-35 -9 -85 -53 -105 -93 -26 -51 -40 -151 -30 -221 10
-71 40 -129 87 -168 31 -26 46 -31 88 -31 125 0 192 102 183 276 -5 97 -33
160 -89 206 -37 29 -92 42 -134 31z"/>
<path d="M5638 5089 c-28 -15 -42 -79 -42 -184 0 -90 3 -106 29 -158 55 -110
143 -166 261 -167 209 0 334 190 283 429 -6 28 -19 61 -28 73 l-18 21 -69 -28
c-61 -25 -81 -29 -174 -29 -79 0 -115 4 -145 18 -71 32 -81 34 -97 25z m178
-142 c69 -9 96 -8 169 7 112 22 119 14 94 -106 -38 -175 -218 -237 -327 -113
-45 51 -62 100 -62 180 0 55 1 57 23 50 12 -3 59 -11 103 -18z"/>
<path d="M8490 4510 c-6 -12 -9 -24 -7 -27 3 -2 11 5 17 17 6 12 9 24 7 27 -3
2 -11 -5 -17 -17z"/>
<path d="M8298 3917 c-3 -19 -2 -25 4 -19 6 6 8 18 6 28 -3 14 -5 12 -10 -9z"/>
<path d="M5506 3714 c-22 -21 -20 -29 9 -52 91 -72 682 -75 824 -5 42 21 48
35 25 58 -12 11 -27 15 -48 12 -253 -39 -262 -39 -456 -33 -172 5 -231 11
-317 31 -12 3 -28 -2 -37 -11z"/>
<path d="M750 2912 c-124 -62 -152 -91 -117 -120 10 -9 25 -5 58 13 24 14 70
39 101 56 55 30 74 51 62 70 -10 16 -48 9 -104 -19z"/>
<path d="M775 2467 c-141 -56 -191 -94 -169 -128 9 -15 35 -8 146 44 131 60
146 70 132 93 -16 27 -22 26 -109 -9z"/>
<path d="M2500 2402 c0 -22 40 -62 62 -62 28 0 29 30 1 56 -31 29 -63 32 -63
6z"/>
<path d="M8451 2284 c-18 -13 -21 -25 -21 -88 0 -84 18 -118 73 -134 17 -6
140 -13 272 -17 358 -9 396 3 403 134 5 78 -8 111 -41 111 -35 0 -47 -19 -47
-76 0 -88 7 -86 -292 -82 -289 3 -278 0 -278 76 0 72 -29 104 -69 76z"/>
<path d="M8110 6872 c-43 -5 -62 -19 -58 -46 3 -20 10 -21 188 -26 102 -3 695
-6 1318 -8 l1132 -4 0 41 0 40 -1266 1 c-697 0 -1269 1 -1273 3 -3 1 -22 1
-41 -1z"/>
<path d="M10230 6625 c-8 -9 -11 -44 -8 -103 3 -89 3 -89 -31 -127 -19 -22
-48 -69 -65 -105 l-31 -65 -3 -417 -3 -416 -44 0 -45 1 -1 166 c0 91 -4 270
-8 396 l-7 230 -42 91 c-47 103 -47 104 -28 104 20 0 26 23 26 99 0 100 -2
101 -186 101 -188 0 -194 -4 -194 -110 0 -57 4 -73 21 -88 l20 -20 -38 -88
-38 -89 0 -395 0 -395 -41 -3 -41 -3 -6 298 c-7 336 -12 369 -79 492 -96 179
-88 151 -81 274 8 143 15 137 -178 137 -191 0 -184 6 -176 -150 6 -110 5 -117
-18 -155 -58 -95 -116 -224 -125 -280 -6 -33 -10 -184 -9 -335 l2 -275 -39 -3
-40 -3 9 103 c10 122 2 510 -13 588 -5 32 -37 109 -74 183 -55 108 -64 132
-56 153 16 41 12 150 -5 164 -10 8 -63 12 -176 12 -135 -1 -165 -4 -178 -17
-13 -12 -16 -38 -16 -123 0 -105 -1 -108 -37 -168 -92 -156 -98 -195 -98 -632
l0 -312 24 -10 c23 -8 796 -13 2074 -11 l542 1 0 465 c0 368 -3 472 -13 498
-8 18 -37 62 -66 100 -43 56 -50 70 -41 86 14 27 13 144 -2 159 -19 19 -322
17 -338 -3z m280 -80 l0 -25 -110 0 -110 0 0 25 0 25 110 0 110 0 0 -25z
m-2012 -42 c-3 -16 -18 -18 -121 -21 -112 -3 -117 -2 -117 18 0 19 6 20 121
20 109 0 120 -2 117 -17z m712 -3 c0 -19 -7 -20 -110 -20 -103 0 -110 1 -110
20 0 19 7 20 110 20 103 0 110 -1 110 -20z m660 -19 c0 -24 -5 -29 -31 -35
-40 -8 -172 -8 -193 0 -19 7 -21 50 -3 57 6 3 60 6 120 6 l107 1 0 -29z m624
-54 c3 -12 26 -49 52 -82 l46 -60 -101 -3 c-56 -1 -145 -1 -198 0 l-96 3 57
69 c31 38 56 75 56 82 0 11 20 14 89 14 84 0 89 -1 95 -23z m-2012 -59 c3 -27
22 -70 48 -113 82 -134 83 -140 88 -496 3 -224 1 -323 -7 -338 -11 -20 -18
-21 -236 -21 -212 0 -225 1 -235 19 -13 26 -13 488 0 601 9 73 18 102 70 205
36 73 60 133 60 153 l0 32 104 0 103 0 5 -42z m718 -15 c0 -48 6 -68 35 -118
118 -202 127 -246 123 -600 l-3 -230 -247 -3 -247 -2 -6 53 c-4 29 -5 165 -3
303 5 283 7 296 100 450 44 73 48 86 48 142 l0 62 100 0 100 0 0 -57z m630 2
c0 -8 15 -49 34 -92 19 -43 37 -92 41 -110 l6 -32 -155 0 c-130 -1 -156 2
-156 14 0 14 26 85 55 150 7 17 16 41 19 55 5 24 9 25 81 27 60 2 75 0 75 -12z
m782 -142 c11 -10 18 -30 18 -55 l0 -38 -230 0 -230 0 0 39 c0 69 6 71 227 71
169 0 199 -2 215 -17z m-700 -168 c3 -14 3 -36 0 -50 l-4 -25 -157 2 -156 3
-3 48 -3 47 159 0 160 0 4 -25z m721 3 c3 -13 5 -111 4 -218 l-2 -195 -232 -3
-232 -2 -3 197 c-2 109 -1 208 1 221 l3 22 228 0 228 0 5 -22z m-717 -152 c3
-13 4 -38 2 -55 l-3 -32 -158 -2 -157 -2 0 58 0 57 155 0 c154 0 155 0 161
-24z m2 -198 l3 -58 -93 0 c-51 0 -123 -3 -160 -7 l-68 -6 0 65 0 65 158 -1
157 -1 3 -57z m2 -208 l0 -90 -160 0 -160 0 0 90 0 90 160 0 160 0 0 -90z
m718 48 l3 -38 -234 0 -235 0 -4 24 c-10 50 -6 51 239 51 l228 0 3 -37z m0
-111 l3 -27 -235 0 -236 0 0 28 0 27 233 0 232 0 3 -28z"/>
<path d="M9260 5150 l-1195 -5 -3 -24 c-2 -13 2 -28 10 -32 7 -5 599 -9 1316
-9 l1302 0 0 38 0 38 -117 -1 c-65 0 -656 -2 -1313 -5z"/>
</g>
</svg>
