<?xml version="1.0" standalone="no"?>
<!DOCTYPE svg PUBLIC "-//W3C//DTD SVG 20010904//EN"
 "http://www.w3.org/TR/2001/REC-SVG-20010904/DTD/svg10.dtd">
<svg version="1.0" xmlns="http://www.w3.org/2000/svg"
 width="1024.000000pt" height="1024.000000pt" viewBox="0 0 1024.000000 1024.000000"
 preserveAspectRatio="xMidYMid meet">

<g transform="translate(0.000000,1024.000000) scale(0.100000,-0.100000)"
>
<path d="M4855 9845 c-96 -13 -141 -24 -245 -57 -184 -58 -360 -157 -492 -275
-350 -315 -455 -810 -255 -1208 65 -130 163 -242 287 -330 138 -97 254 -143
399 -159 30 -4 57 -9 59 -11 3 -2 -21 -100 -51 -217 -79 -301 -147 -572 -147
-589 0 -8 -44 -36 -97 -64 -53 -27 -124 -71 -158 -97 -131 -99 -246 -256 -295
-401 -39 -117 -43 -154 -19 -178 37 -37 54 -21 83 82 48 176 160 334 307 433
93 62 94 45 2 -59 -84 -94 -177 -247 -203 -333 -25 -79 -27 -212 -5 -297 20
-75 64 -172 116 -251 27 -42 39 -71 39 -96 0 -33 -4 -39 -52 -66 -100 -56
-156 -158 -165 -297 -12 -182 64 -338 204 -417 38 -22 53 -36 53 -51 0 -50 61
-150 133 -221 164 -160 423 -266 875 -356 58 -12 61 -14 47 -30 -16 -17 -142
-79 -310 -151 -173 -75 -323 -190 -427 -331 l-51 -68 -97 0 -98 0 -26 34 c-14
19 -42 40 -61 46 -26 9 -41 23 -56 53 -42 82 -127 205 -161 231 -72 54 -197
15 -258 -80 l-28 -45 -103 -2 c-82 -3 -114 -8 -154 -26 -111 -50 -179 -123
-229 -247 l-24 -58 -98 -2 c-55 -1 -112 -7 -129 -14 -44 -17 -84 -59 -91 -97
-3 -18 1 -118 10 -221 24 -273 23 -276 -13 -355 -45 -98 -70 -195 -83 -329
-24 -238 26 -409 163 -559 27 -29 49 -62 49 -74 0 -12 9 -140 19 -286 31 -423
34 -489 23 -489 -6 0 -35 9 -65 21 l-55 21 5 59 c7 77 -3 89 -76 89 -42 0 -67
-7 -101 -26 -25 -14 -48 -31 -52 -38 -5 -9 -26 5 -66 43 -57 53 -60 59 -67
115 -20 173 -89 338 -232 558 -23 37 -43 71 -43 75 0 5 21 15 47 22 152 40
273 161 273 273 0 39 -6 54 -32 83 -31 36 -31 36 -15 71 44 92 28 212 -35 248
-46 28 -120 23 -171 -12 -84 -56 -159 -214 -187 -392 -15 -99 -19 -110 -35
-110 -26 0 -40 55 -60 226 -5 50 -5 51 32 75 20 13 54 45 76 71 31 37 37 50
28 61 -8 11 -7 21 4 45 9 17 23 63 31 104 17 80 9 118 -25 118 -21 0 -29 -18
-62 -130 -22 -79 -67 -180 -79 -180 -23 0 -38 249 -20 317 35 130 102 189 171
153 43 -23 63 -87 67 -212 2 -65 8 -118 13 -118 4 0 19 5 33 11 20 9 28 24 37
67 35 170 -61 352 -185 352 -69 0 -117 -31 -166 -108 l-28 -42 -26 44 c-78
134 -221 141 -284 14 -30 -59 -33 -194 -7 -283 9 -31 14 -59 12 -61 -2 -3 -16
0 -31 6 -65 24 -150 2 -189 -51 -10 -14 -21 -44 -24 -67 -15 -112 148 -302
354 -413 32 -17 60 -33 62 -35 2 -2 -21 -26 -52 -54 -68 -62 -97 -120 -97
-196 0 -50 3 -59 34 -90 21 -21 44 -34 59 -34 l26 0 -28 -63 c-16 -34 -34 -80
-41 -101 l-13 -39 -32 70 c-21 46 -51 87 -89 124 l-56 56 0 79 c-1 217 -54
349 -216 535 -147 169 -184 260 -184 460 0 82 1 86 25 97 23 11 25 16 25 86 0
139 7 136 -339 136 -266 0 -270 0 -296 -23 -23 -19 -27 -31 -29 -87 -2 -73 8
-107 36 -115 16 -6 18 -18 18 -113 -1 -118 -10 -174 -41 -242 -23 -50 -93
-151 -131 -190 -95 -97 -189 -259 -208 -359 -6 -33 -10 -315 -10 -735 0 -651
1 -683 20 -724 l19 -42 -47 0 c-27 0 -53 -5 -60 -12 -18 -18 -14 -56 7 -68 13
-7 1592 -10 4939 -10 4462 0 4922 1 4936 16 22 21 20 51 -3 64 -12 6 -172 11
-420 13 -220 1 -403 5 -406 9 -3 3 8 26 24 50 58 86 111 245 206 616 25 97 45
193 45 213 0 40 -20 69 -48 69 -9 0 -24 4 -32 10 -11 7 -9 11 13 19 15 6 53
27 83 47 l57 35 50 -21 c67 -29 179 -25 249 9 60 29 120 89 150 149 20 40 23
63 23 154 1 65 5 111 12 120 36 43 63 125 63 193 0 110 -41 180 -151 256 -21
15 -22 17 -9 83 16 87 8 160 -26 236 -48 107 -134 164 -270 179 -41 5 -77 11
-78 12 -2 2 -15 27 -29 54 -14 28 -43 67 -64 87 -41 39 -134 88 -169 88 -27 0
-37 13 -53 69 -14 48 -48 106 -78 133 -37 33 -110 58 -174 59 -49 1 -72 -5
-118 -28 l-56 -29 -40 18 c-70 32 -160 11 -212 -50 -21 -25 -21 -25 -65 -9
-94 36 -211 12 -280 -58 -22 -21 -55 -69 -73 -105 -31 -62 -35 -66 -90 -84
-68 -24 -141 -85 -166 -141 -21 -46 -26 -164 -8 -182 9 -9 19 -9 39 2 23 12
28 22 33 71 4 35 15 70 31 94 28 42 98 80 149 80 40 0 60 19 77 75 49 158 159
216 288 151 28 -14 58 -26 66 -26 8 0 29 20 46 45 51 74 90 83 161 35 24 -16
48 -30 53 -30 5 0 28 18 51 39 26 24 58 42 80 47 88 16 173 -45 200 -144 26
-96 34 -106 90 -113 103 -13 165 -60 209 -161 33 -74 54 -88 135 -88 118 0
189 -39 231 -127 26 -53 31 -163 11 -216 -6 -16 -11 -45 -11 -66 0 -33 4 -40
40 -60 95 -53 140 -116 140 -196 0 -52 -29 -122 -66 -155 -27 -26 -29 -46 -12
-119 44 -193 -163 -352 -322 -247 -22 14 -44 26 -49 26 -5 0 -44 -25 -87 -55
-177 -127 -373 -185 -478 -141 -29 12 -85 80 -74 91 2 2 21 0 43 -5 22 -5 56
-10 75 -10 77 0 251 82 328 154 39 36 66 82 57 97 -4 5 -2 16 5 24 8 10 8 19
0 34 -18 34 -38 25 -65 -29 -50 -96 -86 -138 -143 -163 -116 -51 -223 -54
-300 -7 -48 29 -58 64 -37 126 10 29 14 57 11 63 -4 6 -34 11 -67 11 -63 0
-119 21 -151 57 -27 29 -47 96 -59 196 -7 51 -16 102 -20 115 -11 30 -49 29
-78 -2 -31 -32 -76 -53 -126 -58 -38 -3 -40 -1 -37 22 15 117 15 128 -12 155
-14 14 -37 25 -51 25 -18 0 -25 5 -25 20 0 36 -27 88 -55 106 -15 10 -45 19
-67 20 -42 2 -58 15 -58 48 0 36 -42 108 -74 127 -68 41 -153 16 -205 -62
l-34 -48 -42 24 c-23 14 -56 25 -73 25 -23 0 -32 5 -32 16 0 74 -156 413 -274
598 -230 358 -409 513 -786 681 -58 26 -121 57 -140 68 -19 12 -57 31 -84 42
-56 23 -72 45 -32 45 37 0 258 46 359 75 115 33 258 95 323 140 46 32 54 34
80 24 45 -17 162 -15 229 5 278 82 416 429 258 649 -19 27 -32 54 -30 61 3 7
28 47 56 90 28 43 66 109 84 147 17 37 37 68 42 68 6 1 21 -19 34 -45 13 -25
37 -56 53 -70 29 -24 82 -33 92 -15 3 5 -4 35 -16 67 -20 53 -22 78 -22 234 0
160 2 178 21 210 12 19 43 105 68 190 89 294 108 350 114 350 4 0 29 -23 56
-51 161 -165 381 -237 640 -210 300 31 513 195 595 457 33 107 38 257 11 368
-46 191 -176 370 -338 466 -40 23 -73 44 -73 46 0 3 21 32 46 67 65 88 130
227 161 343 24 89 27 116 26 264 0 146 -3 176 -27 262 -104 386 -393 664 -805
776 -89 24 -111 26 -311 26 -189 1 -226 -2 -301 -21 -125 -32 -263 -89 -344
-142 -38 -25 -75 -49 -82 -53 -7 -5 -15 9 -23 45 -7 28 -30 89 -51 135 -122
263 -318 437 -594 526 -112 36 -173 46 -300 51 -237 9 -463 -51 -632 -166 -23
-16 -44 -29 -48 -29 -3 0 -21 11 -39 25 -50 38 -191 101 -291 129 -158 45
-318 55 -490 31z m390 -100 c39 -7 104 -25 145 -40 74 -27 195 -89 205 -105 3
-5 -23 -46 -58 -92 -34 -45 -71 -105 -81 -132 l-19 -49 22 -19 c32 -25 50 -12
95 64 20 35 55 85 78 111 l41 48 29 -28 c16 -15 45 -54 64 -85 27 -44 41 -58
58 -58 32 0 50 24 42 56 -8 30 -56 105 -95 147 l-26 29 25 20 c63 51 234 118
355 139 98 17 314 14 401 -5 175 -38 327 -120 453 -244 120 -118 192 -244 244
-427 l14 -50 -47 -60 c-62 -80 -101 -146 -133 -227 -33 -81 -33 -84 -2 -104
33 -22 48 -9 85 72 115 255 332 426 634 499 188 46 378 42 577 -11 484 -129
808 -583 749 -1049 -41 -323 -209 -569 -468 -687 -83 -38 -240 -78 -307 -79
-70 -1 -91 -18 -114 -91 -10 -35 -46 -148 -79 -253 -33 -104 -88 -282 -122
-395 -94 -314 -171 -550 -178 -550 -4 0 -37 34 -72 76 -131 154 -353 325 -625
482 -441 253 -1107 440 -1700 477 -55 4 -120 8 -145 10 -84 6 -384 -15 -497
-35 -61 -11 -149 -32 -193 -46 -45 -14 -84 -24 -86 -22 -5 5 123 501 220 853
98 356 105 385 95 413 -10 26 -50 30 -69 7 -6 -8 -35 -101 -64 -207 l-53 -193
-64 2 c-247 10 -534 218 -644 468 -62 138 -91 292 -81 415 27 311 190 574 474
768 143 98 395 184 597 206 63 6 243 -4 320 -19z m3681 -2265 c174 -75 319
-264 360 -469 34 -172 -21 -373 -134 -495 -179 -190 -513 -247 -777 -131 -111
49 -265 197 -265 256 0 29 187 618 202 637 6 6 24 12 40 12 110 0 321 74 443
156 44 29 81 53 82 54 1 0 23 -9 49 -20z m-2951 -710 c65 -201 248 -491 397
-626 125 -112 295 -195 448 -218 l85 -12 8 -45 c31 -169 79 -306 148 -427 l48
-82 -35 -181 c-40 -211 -41 -229 -16 -229 25 0 43 17 77 70 47 74 143 168 191
186 78 30 151 -3 196 -90 17 -32 22 -59 22 -121 0 -70 -4 -89 -32 -146 -82
-170 -289 -264 -418 -190 l-42 23 -52 -41 c-139 -110 -428 -201 -790 -248
-193 -25 -614 -25 -800 1 -268 36 -492 91 -672 165 -221 92 -347 185 -400 296
-28 59 -28 62 -28 255 0 107 -7 254 -15 325 -32 282 -12 467 77 720 31 88 93
212 139 280 45 65 100 116 106 98 12 -35 87 -143 141 -203 72 -80 207 -174
305 -213 187 -75 487 -115 487 -65 0 6 -43 52 -95 101 -192 180 -284 343 -321
567 -16 100 -16 100 -5 100 4 0 23 -39 41 -87 65 -170 149 -302 275 -428 132
-133 267 -214 470 -283 205 -70 554 -114 563 -70 2 11 -16 30 -55 56 -229 157
-422 451 -473 721 -12 67 -13 118 -1 106 5 -6 16 -35 26 -65z m-1776 -1272
c27 -222 31 -286 25 -370 -4 -49 -10 -88 -13 -88 -4 0 -26 16 -49 35 -62 54
-104 147 -110 244 -6 109 15 179 73 237 25 24 48 44 53 44 5 0 14 -46 21 -102z
m1367 -1214 c47 -6 53 -10 69 -42 18 -39 66 -262 58 -275 -6 -10 -393 -8 -393
2 0 11 94 230 121 282 21 43 35 46 145 33z m618 -103 c9 -60 19 -132 23 -160
l6 -51 -64 -1 c-302 -2 -380 -2 -385 3 -7 8 92 247 116 278 20 27 67 36 211
39 l76 1 17 -109z m-427 27 c-3 -8 -6 -5 -6 6 -1 11 2 17 5 13 3 -3 4 -12 1
-19z m606 -24 c15 -8 27 -18 27 -23 0 -4 11 -68 25 -142 28 -155 55 -370 55
-446 l0 -53 -55 0 c-38 0 -55 4 -55 13 0 34 -72 573 -87 651 -5 27 -4 28 28
21 19 -4 46 -14 62 -21z m-1089 -41 c-65 -145 -157 -391 -192 -514 -32 -112
-42 -134 -57 -134 -15 0 -21 10 -27 45 -4 25 -12 68 -18 95 -11 48 -10 54 30
155 81 204 174 356 239 390 20 10 39 19 43 20 4 0 -4 -26 -18 -57z m1371 -110
c143 -71 261 -150 348 -232 204 -192 425 -547 532 -854 35 -98 35 -98 15 -119
-23 -25 -60 -118 -60 -151 0 -19 -6 -22 -38 -23 -77 -2 -139 -58 -149 -135 -7
-49 -38 -76 -168 -149 -265 -146 -534 -225 -1135 -330 -91 -16 -211 -38 -268
-50 -57 -11 -105 -20 -106 -20 -2 0 -4 30 -5 68 -4 224 -44 447 -102 579 l-28
63 42 10 c91 24 277 84 368 120 191 76 463 216 547 281 22 17 24 17 59 -7 50
-34 182 -73 268 -81 69 -5 73 -5 80 16 10 32 -11 51 -59 51 -112 0 -271 53
-264 88 3 17 127 106 136 98 8 -9 62 24 62 38 0 24 -31 40 -71 39 -53 -3 -131
-47 -198 -113 -136 -134 -574 -340 -943 -443 l-87 -24 -46 53 c-60 70 -112 99
-224 128 -50 12 -94 26 -98 30 -7 6 -42 355 -43 424 0 31 2 32 38 32 21 0 46
6 56 13 11 8 34 70 61 162 24 83 55 179 68 215 l25 65 485 3 485 2 6 -37 c3
-21 13 -94 21 -163 24 -198 26 -204 43 -224 15 -16 29 -18 126 -14 129 5 136
10 136 102 0 101 -45 466 -67 539 -7 25 13 19 152 -50z m-1608 19 c-16 -19
-60 -110 -109 -227 l-33 -78 -110 1 c-60 1 -125 2 -142 2 -18 0 -33 4 -33 9 0
18 166 178 229 220 75 51 205 112 210 99 1 -5 -4 -17 -12 -26z m-1065 -49 c42
-59 92 -143 87 -147 -2 -2 -18 -8 -36 -14 -31 -10 -33 -9 -61 36 -63 101 -92
153 -92 162 0 6 15 10 34 10 29 0 39 -7 68 -47z m-118 -100 c45 -76 54 -103
38 -103 -19 0 -102 139 -102 171 0 26 24 1 64 -68z m-161 -2 c14 -6 41 -38 67
-83 23 -40 50 -81 58 -90 13 -16 13 -20 0 -35 -37 -42 -60 -108 -65 -185 -7
-88 -20 -99 -63 -53 -50 54 -35 194 31 285 32 44 32 70 1 70 -45 0 -108 -78
-132 -163 -11 -41 -10 -131 2 -211 5 -30 -43 -44 -76 -23 -78 52 -86 225 -16
329 35 51 37 64 11 77 -28 15 -65 -18 -103 -93 -29 -54 -32 -70 -33 -146 0
-47 3 -100 7 -117 7 -30 5 -33 -17 -33 -54 0 -93 97 -76 191 23 135 96 228
209 267 61 22 155 28 195 13z m480 -163 c35 -25 35 -57 -3 -93 -23 -22 -42
-29 -91 -34 l-62 -6 -41 -85 c-37 -78 -44 -85 -73 -88 -87 -9 -83 161 7 256
33 35 67 54 123 68 60 15 101 9 140 -18z m662 -80 c3 -3 -11 -18 -31 -33 l-36
-28 -227 6 c-124 4 -241 7 -259 7 -32 0 -32 0 -16 25 l16 25 207 3 c249 4 339
3 346 -5z m69 -66 c5 -9 58 -623 54 -628 -2 -1 -19 1 -38 5 l-35 7 -12 119
c-38 392 -41 438 -33 460 12 32 52 55 64 37z m-1710 -59 c23 -129 117 -211
211 -185 22 6 41 4 70 -9 51 -24 89 -23 142 1 35 15 49 17 79 8 27 -7 49 -7
77 2 30 9 50 9 87 -1 44 -11 52 -10 96 12 40 20 55 34 81 84 17 33 37 66 43
73 10 11 76 13 335 10 178 -2 327 -6 331 -10 4 -4 11 -49 15 -100 9 -108 30
-372 32 -408 2 -25 2 -25 -93 -26 -115 -1 -178 -24 -210 -76 -33 -55 -25 -103
27 -160 l25 -26 -31 -17 c-39 -20 -71 -70 -71 -112 0 -39 52 -99 96 -108 54
-12 52 -10 41 -54 -8 -31 -8 -46 3 -68 8 -15 16 -31 18 -35 2 -5 -3 -8 -10 -8
-23 0 -75 -58 -82 -90 -8 -44 20 -107 58 -128 23 -13 65 -18 166 -22 l135 -5
17 -215 c10 -118 31 -384 48 -590 34 -423 36 -488 16 -516 -14 -18 -36 -19
-858 -21 -463 -1 -862 1 -884 4 l-42 5 27 51 c22 44 26 63 26 143 0 85 -3 96
-37 165 -35 71 -37 80 -43 209 -5 121 -23 376 -56 825 -18 258 -47 596 -84
994 -20 211 -33 392 -29 403 9 28 39 37 135 37 l87 1 6 -37z m-2076 -262 c18
-1 22 -7 22 -30 l0 -30 -212 3 c-304 5 -278 2 -278 31 0 23 3 24 73 27 61 3
322 2 395 -1z m743 -81 c47 -26 90 -165 110 -365 17 -162 17 -197 2 -202 -16
-6 -125 127 -157 192 -42 87 -68 200 -62 268 10 102 47 139 107 107z m-773
-97 l3 -33 -190 0 -191 0 0 35 0 35 188 -2 187 -3 3 -32z m8 -193 c14 -105 33
-155 95 -248 27 -40 49 -77 49 -82 0 -6 -127 -10 -340 -10 -187 0 -340 2 -340
5 0 3 18 32 40 64 73 106 110 212 110 312 l0 38 48 4 c26 2 110 3 187 3 l139
-1 12 -85z m3773 -11 c208 -23 293 -40 349 -68 58 -30 119 -98 148 -168 18
-41 33 -63 44 -63 17 0 50 -79 71 -175 13 -63 38 -268 33 -277 -2 -3 -19 -10
-37 -13 -17 -4 -63 -24 -102 -44 -64 -33 -77 -36 -155 -36 -83 0 -89 2 -206
58 l-122 57 -134 0 c-121 0 -137 2 -152 19 -22 24 -14 55 20 78 18 12 58 17
147 21 121 4 157 12 157 34 0 24 -37 37 -105 38 -116 0 -165 23 -165 75 0 23
61 45 127 45 76 0 103 8 103 30 0 28 -46 39 -177 42 -105 3 -125 6 -150 24
-41 31 -36 55 17 82 38 19 60 22 156 22 126 0 144 4 144 31 0 20 -25 28 -148
48 -106 16 -172 53 -172 96 0 30 23 47 73 56 23 3 44 7 46 8 3 0 88 -8 190
-20z m3116 -43 c13 -13 27 -41 30 -62 21 -122 32 -135 94 -114 29 9 43 10 60
1 33 -18 27 -63 -20 -147 -22 -41 -37 -78 -34 -84 14 -23 52 -8 95 35 28 29
53 45 68 45 27 0 27 -15 -1 -100 -18 -57 -9 -86 32 -95 22 -5 31 -12 31 -26 0
-36 -30 -78 -68 -98 -63 -32 -67 -41 -54 -129 7 -42 15 -103 18 -135 8 -72 -4
-189 -19 -184 -11 3 -52 145 -92 323 l-25 111 36 54 c20 30 43 62 51 71 8 9
12 22 8 27 -7 12 -35 15 -35 4 0 -5 -17 -27 -38 -51 l-39 -43 -21 73 c-12 40
-28 100 -36 133 -12 54 -45 161 -67 223 -5 12 -16 22 -25 22 -14 0 -15 -9 -9
-67 4 -38 11 -73 16 -79 5 -6 7 -13 4 -16 -7 -6 46 -265 84 -412 17 -66 29
-121 27 -123 -8 -8 -85 47 -101 70 -8 13 -45 89 -81 168 -193 426 -210 459
-228 431 -10 -16 27 -129 95 -293 38 -91 69 -171 69 -178 0 -8 -12 -11 -37 -9
-22 2 -38 -2 -41 -10 -5 -15 46 -35 73 -28 18 5 26 -5 52 -57 43 -88 79 -126
143 -154 108 -48 118 -77 26 -80 -59 -3 -68 0 -116 33 l-53 36 -44 -22 c-90
-45 -165 -33 -198 30 -16 32 -20 97 -6 119 9 14 53 12 94 -4 14 -6 17 -1 17
34 0 47 2 46 -140 87 -149 44 -202 91 -154 138 22 23 21 73 -4 99 -23 24 -42
68 -42 96 0 25 37 61 63 61 12 -1 40 -9 62 -20 57 -27 65 -16 65 92 0 86 1 91
29 119 48 48 102 35 151 -35 17 -25 37 -46 44 -46 19 0 42 30 57 75 15 41 77
115 98 115 7 0 23 -11 36 -24z m-5025 -311 c11 -154 23 -295 26 -312 11 -72
-35 -16 -74 89 -36 96 -47 203 -34 326 15 132 40 228 53 197 4 -11 17 -146 29
-300z m-1265 220 c64 -37 305 -287 305 -316 0 -13 3 -41 6 -61 8 -49 0 -49
-105 2 -148 72 -294 197 -340 293 -27 56 -26 71 6 97 32 25 66 21 128 -15z
m787 8 c21 -19 23 -79 4 -133 -13 -36 -61 -76 -105 -87 -14 -3 -41 -19 -60
-35 -43 -38 -54 -23 -34 46 31 106 71 175 120 207 35 23 51 24 75 2z m-1171
-265 c80 -84 144 -200 165 -297 19 -90 18 -195 -1 -211 -19 -15 -22 -6 -28 74
-7 102 29 96 -534 96 -510 0 -530 -2 -547 -45 -3 -9 -6 -286 -6 -616 0 -586 0
-599 20 -619 11 -11 28 -20 38 -20 9 0 148 0 309 0 l292 1 29 -44 c17 -24 37
-49 46 -56 9 -8 16 -16 16 -20 0 -4 -156 -6 -348 -5 -387 1 -395 3 -426 68
-14 30 -16 104 -16 698 0 728 0 723 61 838 16 31 52 84 80 118 l50 62 389 0
389 0 22 -22z m1198 -27 c37 -23 4 -93 -74 -157 -53 -43 -164 -82 -177 -62
-22 35 -8 72 45 122 95 90 165 123 206 97z m4820 -158 c-1 -43 2 -122 6 -176
l7 -97 -58 6 c-33 3 -64 7 -70 9 -7 2 -12 39 -13 102 -1 54 -4 108 -7 120 -5
17 6 30 57 67 35 25 67 46 71 46 5 0 8 -35 7 -77z m1218 -10 c-3 -10 -5 -4 -5
12 0 17 2 24 5 18 2 -7 2 -21 0 -30z m-97 10 c0 -5 9 -95 19 -201 20 -202 27
-226 76 -258 48 -31 106 5 171 106 47 73 66 74 76 6 4 -27 12 -62 19 -78 11
-27 9 -32 -18 -61 -16 -18 -46 -53 -67 -79 l-37 -48 -190 0 c-179 0 -190 1
-185 18 11 33 25 215 26 317 0 97 2 102 35 155 19 30 35 60 35 66 0 23 19 64
30 64 5 0 10 -3 10 -7z m127 -145 c3 -22 1 -38 -5 -38 -11 0 -22 59 -21 110
l1 35 10 -35 c5 -19 12 -52 15 -72z m-6417 60 c0 -31 58 -149 132 -266 105
-167 162 -311 184 -464 4 -34 3 -48 -5 -48 -20 0 -43 -69 -40 -118 3 -44 2
-47 -26 -53 -17 -4 -47 -14 -67 -23 l-38 -16 -31 61 c-60 121 -171 206 -300
233 -33 6 -60 14 -60 16 0 3 2 17 6 33 10 38 -11 83 -46 97 -16 7 -29 17 -29
23 0 23 68 158 123 245 68 105 106 192 107 239 0 50 7 58 50 58 32 0 40 -3 40
-17z m4954 -39 c3 -34 6 -78 6 -99 l0 -36 -81 -24 c-45 -13 -93 -33 -108 -46
-25 -22 -25 -23 -8 -42 18 -19 21 -20 60 -6 79 28 132 36 232 35 121 -1 176
-17 186 -55 4 -14 11 -76 15 -138 8 -131 -7 -142 -25 -19 -7 44 -18 99 -26
123 -14 42 -15 40 -10 -57 3 -54 8 -109 11 -120 l5 -21 -85 20 c-86 20 -86 21
-91 56 -12 74 -36 165 -46 175 -9 7 -10 -3 -5 -40 4 -27 9 -76 13 -107 l6 -57
-101 -3 c-116 -3 -112 -8 -112 99 0 65 -15 93 -50 93 -25 0 -32 -26 -30 -107
1 -38 1 -75 1 -83 -1 -11 -20 -20 -62 -29 -33 -6 -99 -32 -145 -56 -78 -41
-84 -43 -84 -23 0 30 -39 156 -50 163 -6 3 -10 13 -10 21 0 17 98 20 180 4 93
-18 123 13 50 50 -85 43 -292 45 -430 4 -146 -43 -255 -132 -311 -253 l-33
-68 -64 -6 c-40 -4 -89 -18 -128 -36 -58 -27 -64 -28 -85 -13 -35 24 -168 29
-238 7 -194 -58 -288 -265 -201 -441 30 -61 30 -62 18 -140 -10 -71 -16 -84
-55 -131 -53 -63 -71 -68 -43 -13 16 31 20 59 20 129 0 77 -50 790 -65 921 -2
25 -6 67 -7 95 l-2 49 79 -2 c75 -2 134 11 225 51 11 5 22 -9 43 -54 31 -65
67 -91 117 -83 14 2 198 36 410 74 538 99 813 171 1020 268 36 17 70 31 76 31
6 1 14 -25 18 -60z m-5136 7 c4 -36 -50 -148 -85 -176 -15 -12 -38 -20 -51
-18 -66 8 -50 90 35 174 64 62 96 69 101 20z m5448 -52 c30 -14 48 -44 27 -44
-5 0 -17 -14 -28 -30 -32 -47 -45 -39 -45 30 0 33 3 60 6 60 3 0 21 -7 40 -16z
m-6058 -55 c24 -9 25 -11 20 -106 -3 -53 -1 -112 4 -131 5 -19 7 -36 5 -39 -3
-2 -44 4 -92 14 -85 18 -88 20 -99 53 -15 46 -66 80 -125 81 -25 1 -127 1
-225 0 -165 -1 -183 -3 -220 -24 -22 -12 -49 -37 -60 -56 -19 -33 -20 -52 -20
-375 1 -372 4 -397 55 -440 36 -31 57 -34 229 -40 131 -4 135 -5 141 -28 4
-12 7 -33 8 -46 l1 -22 -287 2 -288 3 -3 560 c-1 308 0 570 3 582 l5 21 462 0
c264 0 472 -4 486 -9z m7292 -39 c0 -23 -57 -120 -71 -120 -18 0 -9 54 16 97
27 45 55 57 55 23z m-3655 -40 c38 -23 32 13 69 -450 55 -675 55 -730 5 -794
-29 -37 -43 -33 -35 9 6 30 1 121 -19 345 -13 144 -35 432 -45 585 -7 94 -15
205 -19 248 -4 46 -3 77 2 77 5 0 24 -9 42 -20z m2508 -56 c9 -53 45 -100 100
-130 50 -27 86 -28 223 -8 l41 6 21 -50 c12 -28 22 -55 22 -60 0 -5 -43 -13
-96 -18 -89 -8 -99 -11 -117 -36 l-20 -27 36 -158 c43 -184 44 -197 20 -185
-10 5 -39 12 -65 16 -45 7 -47 8 -53 49 -11 62 -50 161 -83 210 -28 39 -30 50
-36 172 -4 72 -12 156 -17 188 -10 56 -6 82 10 72 5 -2 11 -21 14 -41z m-5942
-96 c17 -13 41 -41 54 -63 30 -50 57 -146 53 -182 -3 -25 -7 -20 -35 39 -22
48 -52 88 -102 137 -39 38 -71 76 -71 84 0 33 45 26 101 -15z m-491 23 c46
-13 35 -36 -27 -59 -48 -17 -89 -21 -240 -24 -101 -3 -183 -1 -183 3 0 25 29
64 55 75 32 14 348 18 395 5z m5457 -179 l32 -114 -37 -47 c-20 -26 -46 -65
-57 -88 l-20 -41 -101 2 -102 3 -35 36 c-19 20 -59 48 -90 62 -54 25 -56 27
-46 53 31 82 89 139 190 187 71 33 186 66 219 62 9 -1 25 -41 47 -115z m1496
97 c32 -17 87 -71 87 -86 0 -9 -16 -13 -50 -13 -55 0 -63 8 -75 73 -8 40 0 45
38 26z m-6688 -63 c98 -30 248 -149 260 -207 4 -17 5 -33 2 -35 -3 -3 -30 17
-60 44 -100 91 -191 132 -291 133 -94 0 -197 -23 -218 -49 -11 -13 -8 -14 27
-8 155 30 224 26 298 -18 45 -28 42 -31 -39 -40 -34 -4 -65 -1 -95 10 -25 9
-94 18 -161 21 -106 5 -118 8 -118 24 0 21 62 94 94 111 70 38 201 44 301 14z
m-439 -18 c-30 -40 -51 -108 -43 -140 15 -57 25 -62 166 -69 72 -3 134 -9 138
-13 3 -3 -21 -34 -54 -68 -77 -81 -119 -170 -138 -290 l-6 -38 -123 0 c-223 0
-219 -6 -226 345 -3 143 -4 270 -2 283 3 22 5 22 158 22 l155 0 -25 -32z
m7964 2 c9 -18 8 -20 -15 -20 -24 0 -34 18 -18 33 11 12 22 8 33 -13z m-1648
-84 c196 -38 278 -108 306 -264 5 -29 7 -54 3 -56 -3 -2 -53 -7 -111 -10 -366
-24 -562 -65 -649 -136 l-36 -30 -28 61 c-29 61 -74 114 -136 160 l-34 25 21
40 c52 103 190 186 354 213 83 14 230 12 310 -3z m2172 -34 c2 -4 -2 -30 -9
-57 -7 -28 -34 -131 -60 -230 -105 -402 -166 -537 -260 -570 -33 -12 -129 -14
-528 -12 l-488 2 -20 25 c-26 34 -64 157 -79 255 -7 47 -25 104 -41 138 -27
53 -100 316 -115 415 l-7 42 801 0 c441 0 803 -3 806 -8z m-7564 -16 c0 -17
-97 -136 -111 -136 -21 0 -6 47 31 97 39 51 80 71 80 39z m-356 -131 c11 -8
18 -16 15 -17 -2 -2 -31 -17 -64 -34 -43 -22 -66 -41 -80 -67 -18 -34 -19 -38
-4 -53 15 -15 21 -13 69 20 73 50 113 58 265 54 146 -4 184 -17 248 -83 38
-39 49 -42 71 -19 14 13 14 19 2 43 -22 42 -74 88 -122 108 -48 20 -51 24 -29
43 22 18 114 6 179 -23 70 -32 132 -96 169 -176 l30 -63 -31 -62 c-41 -83 -56
-153 -48 -229 l7 -63 -54 -51 -54 -51 -85 -7 c-102 -9 -116 -3 -88 32 15 20
17 29 9 39 -16 20 -26 18 -68 -17 -98 -78 -247 -78 -354 1 -23 16 -46 30 -53
30 -23 0 -25 -33 -4 -55 26 -27 18 -35 -36 -35 -132 0 -250 107 -290 261 -39
153 20 331 141 423 75 57 214 85 259 51z m4611 -9 c44 -15 58 -36 26 -36 -35
0 -118 -47 -141 -80 -38 -54 -52 -116 -40 -182 l11 -57 -40 -41 c-73 -75 -90
-194 -41 -277 11 -20 19 -38 16 -40 -8 -8 -74 7 -88 20 -57 52 -53 51 -97 19
-55 -40 -118 -56 -196 -50 -77 7 -106 23 -130 75 -16 33 -17 45 -7 92 10 48
18 65 57 117 14 20 -7 48 -39 52 -59 7 -85 133 -45 222 47 103 112 142 253
148 54 2 97 1 95 -4 -2 -5 -17 -33 -32 -62 -57 -109 -56 -210 5 -305 30 -47
31 -50 15 -77 -16 -26 -23 -70 -12 -70 3 0 14 5 25 12 16 10 23 9 43 -10 13
-12 29 -22 35 -22 17 0 15 25 -4 40 -8 8 -20 22 -25 32 -10 18 -8 19 34 13 39
-6 47 -4 56 13 9 18 5 25 -40 57 -158 113 -95 357 106 406 51 12 158 9 200 -5z
m-3494 -125 c34 -34 39 -45 39 -85 0 -25 -4 -46 -10 -46 -19 0 -110 137 -110
166 0 2 10 4 21 4 12 0 39 -17 60 -39z m249 -5 c0 -33 -58 -116 -97 -139 l-33
-19 0 32 c0 41 21 80 65 119 43 37 65 40 65 7z m3656 -16 c125 -61 183 -194
155 -356 -15 -84 -40 -133 -87 -172 -49 -40 -94 -50 -260 -56 -240 -8 -334 17
-374 100 -28 57 -21 116 20 172 35 49 56 57 111 42 70 -19 72 2 6 63 -54 50
-57 55 -57 101 0 59 27 107 71 129 25 12 64 14 192 11 156 -3 162 -4 223 -34z
m1032 -82 c44 -89 61 -236 38 -335 -20 -88 -20 -93 -1 -93 24 0 40 78 40 200
0 108 -2 119 -31 177 -29 60 -29 62 -10 65 38 6 131 -12 176 -35 87 -43 136
-161 111 -271 -18 -80 -62 -143 -119 -169 -46 -21 -58 -22 -417 -22 -391 0
-419 3 -486 48 -49 33 -88 109 -82 161 8 71 32 124 74 160 62 53 116 64 534
116 83 10 153 18 156 19 3 1 11 -9 17 -21z m-5022 -39 c43 -49 115 -97 153
-104 50 -8 128 25 188 79 l41 36 64 -20 c106 -32 166 -104 175 -209 14 -154
-78 -241 -254 -242 -78 -1 -110 9 -164 52 l-37 29 -29 -26 c-40 -38 -84 -54
-151 -54 -164 0 -256 81 -257 225 0 144 91 252 216 254 25 1 42 -6 55 -20z
m5424 -435 c0 -10 -13 -14 -40 -14 -31 0 -39 3 -33 13 4 7 15 22 23 35 l15 23
18 -22 c9 -12 17 -27 17 -35z m-5720 1 c0 -8 -6 -15 -14 -15 -17 0 -28 14 -19
24 12 12 33 6 33 -9z"/>
<path d="M5559 8304 c-9 -11 -10 -20 -2 -32 15 -24 131 -24 146 -1 6 9 7 24 4
33 -9 23 -129 23 -148 0z"/>
<path d="M5873 8303 c-19 -2 -33 -10 -33 -18 0 -18 53 -32 150 -40 41 -4 111
-13 154 -20 85 -13 112 -11 120 10 9 24 -20 48 -70 56 -62 10 -279 19 -321 12z"/>
<path d="M5090 8269 c-147 -40 -199 -60 -205 -79 -8 -25 1 -40 23 -40 32 0
271 62 289 76 14 10 16 17 7 31 -13 21 -62 26 -114 12z"/>
<path d="M6379 8234 c-27 -32 2 -48 162 -87 165 -41 199 -41 199 -3 0 26 -18
36 -116 60 -57 15 -212 46 -225 46 -4 0 -12 -7 -20 -16z"/>
<path d="M7714 7665 c-10 -25 2 -41 68 -94 35 -29 85 -70 112 -92 52 -42 88
-48 94 -15 4 21 -47 78 -128 139 -30 23 -64 50 -74 60 -24 21 -65 22 -72 2z"/>
<path d="M8112 7384 c4 -33 32 -54 49 -37 9 9 8 18 -5 37 -22 35 -48 34 -44 0z"/>
<path d="M7994 7385 c-4 -10 3 -29 15 -46 13 -17 36 -50 52 -74 40 -60 69 -68
69 -21 0 34 -81 150 -108 154 -13 2 -25 -3 -28 -13z"/>
<path d="M7957 7224 c-15 -15 -6 -47 26 -86 17 -22 41 -51 53 -65 12 -15 26
-23 32 -19 22 13 11 51 -31 111 -41 57 -64 74 -80 59z"/>
<path d="M7894 7046 c-3 -9 7 -36 23 -61 46 -76 68 -99 86 -92 25 9 21 25 -21
97 -38 66 -75 90 -88 56z"/>
<path d="M7830 6880 c-9 -18 -4 -30 34 -83 74 -100 77 -102 95 -68 8 14 0 33
-40 95 -52 79 -71 90 -89 56z"/>
<path d="M7802 6703 c-11 -22 -7 -32 41 -106 38 -58 52 -65 70 -36 7 11 -3 35
-37 87 -26 40 -51 72 -56 72 -5 0 -13 -8 -18 -17z"/>
<path d="M7747 6543 c-14 -13 -6 -51 14 -69 12 -10 30 -36 41 -57 20 -40 42
-46 61 -16 7 12 -1 32 -33 82 -39 62 -64 80 -83 60z"/>
<path d="M7690 6390 c-9 -18 -6 -27 20 -56 17 -20 42 -53 55 -75 28 -43 55
-52 55 -18 0 27 -89 169 -106 169 -7 0 -18 -9 -24 -20z"/>
<path d="M4730 5502 c-57 -59 -80 -126 -80 -231 0 -107 21 -173 71 -221 71
-68 158 -64 222 11 46 53 62 114 62 234 0 89 -3 106 -27 156 -34 68 -82 99
-154 99 -44 0 -51 -4 -94 -48z"/>
<path d="M6295 5440 c-109 -23 -170 -141 -167 -324 5 -272 279 -305 347 -41
54 212 -36 396 -180 365z"/>
<path d="M5395 5113 c-13 -13 -16 -28 -12 -64 7 -61 30 -95 78 -120 74 -37
168 -14 226 56 37 44 43 63 32 93 -14 37 -54 29 -83 -16 -31 -49 -47 -62 -88
-69 -30 -4 -38 -1 -61 27 -15 17 -27 44 -27 59 0 48 -34 65 -65 34z"/>
<path d="M7277 4995 c-46 -44 -107 -148 -107 -181 0 -22 4 -25 27 -22 22 2 39
20 82 81 29 43 64 83 78 90 18 8 23 17 21 36 -2 21 -9 27 -33 29 -24 2 -39 -5
-68 -33z"/>
<path d="M3898 3105 c-2 -2 -93 -5 -203 -6 -110 -1 -208 -4 -217 -7 -23 -6
-33 -39 -17 -59 12 -13 52 -14 354 -8 187 3 347 8 357 11 22 6 30 31 17 55 -9
18 -20 20 -149 18 -76 0 -140 -2 -142 -4z"/>
<path d="M3461 2836 c-7 -8 -11 -23 -9 -33 3 -16 16 -18 103 -21 130 -4 147 1
143 36 l-3 27 -111 3 c-88 2 -114 0 -123 -12z"/>
<path d="M3776 2563 c-1 -1 -60 -3 -131 -3 -72 -1 -140 -4 -152 -7 -28 -6 -39
-39 -21 -60 11 -14 38 -15 227 -9 134 4 219 10 227 17 17 14 18 45 2 56 -11 7
-145 12 -152 6z"/>
<path d="M3650 2341 c-85 -3 -161 -10 -167 -14 -7 -5 -13 -16 -13 -26 0 -41
19 -44 242 -36 117 4 231 8 252 10 49 5 75 28 60 53 -13 20 -101 23 -374 13z"/>
<path d="M3666 2023 c-176 -4 -199 -9 -194 -46 4 -31 47 -37 193 -32 72 3 211
7 310 10 140 5 183 9 195 21 11 11 12 19 4 32 -10 15 -31 17 -175 17 -90 1
-240 -1 -333 -2z"/>
<path d="M3652 1810 c-130 -4 -165 -8 -172 -20 -13 -20 -12 -26 5 -43 15 -16
11 -16 447 -2 98 3 184 8 193 11 18 7 20 35 3 52 -13 13 -153 13 -476 2z"/>
<path d="M7510 2401 c0 -29 135 -64 151 -40 15 23 11 26 -43 32 -29 3 -65 9
-80 13 -18 4 -28 2 -28 -5z"/>
<path d="M6286 1648 c8 -35 18 -79 23 -98 7 -36 33 -49 39 -20 4 22 -51 173
-65 177 -8 3 -7 -14 3 -59z"/>
<path d="M6984 1569 c3 -30 9 -83 12 -119 9 -117 13 -130 36 -130 20 0 21 3
14 78 -8 99 -37 214 -55 220 -11 4 -13 -5 -7 -49z"/>
<path d="M8137 1482 c-160 -2 -189 -5 -194 -18 -3 -9 0 -20 8 -25 8 -5 298 -9
647 -9 565 0 633 2 639 16 3 8 1 20 -5 26 -11 11 -652 17 -1095 10z"/>
<path d="M8137 1303 c-16 -15 -6 -43 18 -49 42 -10 166 2 175 17 18 28 -10 39
-100 39 -47 0 -90 -3 -93 -7z"/>
<path d="M7964 1285 c-8 -21 2 -45 19 -45 8 0 20 7 27 15 10 12 10 18 0 30 -7
8 -19 15 -27 15 -7 0 -16 -7 -19 -15z"/>
<path d="M9142 1288 c-17 -17 -15 -43 4 -59 14 -11 18 -10 30 6 19 25 18 51
-2 59 -20 8 -18 8 -32 -6z"/>
<path d="M8037 1073 c-10 -10 -8 -41 3 -48 5 -3 42 -8 83 -11 64 -4 75 -2 91
15 15 17 16 23 6 36 -9 11 -33 15 -95 15 -45 0 -85 -3 -88 -7z"/>
<path d="M9073 1046 c-17 -37 -12 -66 12 -66 19 0 50 62 42 84 -10 27 -36 18
-54 -18z"/>
<path d="M9007 863 c-10 -9 -8 -51 2 -57 15 -10 55 29 48 47 -6 17 -38 23 -50
10z"/>
<path d="M1189 1093 c-25 -66 35 -246 87 -259 40 -10 50 9 26 48 -27 45 -42
95 -50 170 -6 55 -10 63 -29 66 -17 3 -26 -4 -34 -25z"/>
<path d="M2058 902 c-9 -9 -25 -36 -37 -59 -11 -22 -32 -50 -47 -62 -29 -23
-25 -41 10 -41 35 0 116 99 116 141 0 29 -25 41 -42 21z"/>
<path d="M6132 1238 c-19 -19 -15 -26 28 -48 45 -23 60 -45 60 -89 0 -40 16
-40 24 -1 8 41 26 38 26 -5 0 -53 18 -42 22 12 3 48 3 48 58 70 62 24 75 48
36 63 -29 10 -53 3 -101 -29 -29 -20 -30 -20 -50 -2 -43 39 -82 50 -103 29z"/>
<path d="M6421 1071 c-12 -22 -5 -31 26 -31 59 0 52 -113 -10 -150 -18 -11
-46 -20 -64 -20 -39 0 -47 -10 -27 -38 33 -47 137 -9 185 66 40 64 40 122 0
163 -36 35 -94 41 -110 10z"/>
<path d="M6166 867 c-34 -18 -43 -19 -70 -8 -63 26 -76 26 -76 -2 0 -36 34
-57 94 -57 60 0 116 32 116 68 0 26 -12 26 -64 -1z"/>
<path d="M8676 3084 c-10 -26 -7 -41 12 -64 16 -19 22 -21 40 -11 24 13 28 41
12 72 -13 23 -55 25 -64 3z"/>
<path d="M8320 3030 c-22 -41 12 -81 51 -60 23 13 25 43 3 64 -21 22 -41 20
-54 -4z"/>
<path d="M9109 2998 c-15 -20 -17 -21 -38 -6 -27 19 -51 13 -51 -13 0 -24 35
-42 63 -33 12 4 32 8 45 9 25 1 43 22 39 45 -4 23 -40 22 -58 -2z"/>
<path d="M8283 2855 c-10 -27 5 -86 31 -120 38 -50 88 -76 154 -82 49 -4 61
-1 86 20 41 33 27 49 -34 41 -27 -4 -60 -4 -74 0 -44 11 -95 64 -107 112 -9
33 -16 44 -31 44 -10 0 -21 -7 -25 -15z"/>
<path d="M8740 2842 c0 -31 -55 -116 -69 -108 -13 8 -45 -20 -37 -32 21 -35
106 9 143 73 31 53 27 89 -9 93 -25 3 -28 0 -28 -26z"/>
<path d="M9383 2854 c-4 -10 0 -22 9 -28 21 -16 38 -51 38 -80 0 -15 8 -30 20
-36 16 -8 22 -6 36 14 18 29 13 65 -16 114 -15 25 -27 32 -50 32 -19 0 -33 -6
-37 -16z"/>
<path d="M9017 2664 c-15 -16 -7 -53 14 -59 30 -10 58 19 43 43 -12 18 -45 28
-57 16z"/>
<path d="M9272 2578 c-25 -25 -6 -68 30 -68 27 0 36 49 13 67 -23 16 -28 16
-43 1z"/>
<path d="M9313 2444 c-3 -8 4 -25 17 -40 51 -53 216 -12 180 46 -6 10 -13 9
-31 -4 -29 -20 -87 -20 -113 -1 -25 19 -45 19 -53 -1z"/>
<path d="M9222 2253 c-28 -23 -37 -25 -53 -15 -32 20 -59 15 -59 -11 0 -13 5
-28 12 -35 14 -14 54 -16 63 -2 3 5 12 7 19 4 35 -13 99 47 81 76 -10 16 -27
11 -63 -17z"/>
<path d="M9726 2195 c-27 -27 -21 -55 12 -55 41 0 70 24 56 47 -15 24 -48 28
-68 8z"/>
<path d="M9537 2043 c-14 -13 -7 -43 12 -53 23 -12 51 -3 51 15 0 29 -46 56
-63 38z"/>
<path d="M201 481 c-41 -7 -61 -33 -45 -58 11 -17 258 -18 4925 -21 2703 -1
4924 0 4937 3 30 7 30 49 0 69 -20 13 -630 15 -4903 14 -2684 -1 -4895 -4
-4914 -7z"/>
</g>
</svg>
