<svg xmlns="http://www.w3.org/2000/svg" width="329" height="299" viewBox="0 0 329 299" version="1.1"><path d="M 211 5.067 C 183.016 8.177, 150.919 18.876, 132.732 31.159 C 123.940 37.096, 110.210 51.334, 105.625 59.270 C 102.439 64.784, 101.373 65.896, 99.625 65.527 C 88.528 63.186, 83.625 62.691, 71.500 62.686 C 59.770 62.682, 55.863 63.096, 47.406 65.238 C 23.969 71.176, 11.256 80.763, 5.293 97 C 1.054 108.541, 1.609 119.693, 6.964 130.576 C 10.683 138.133, 19.920 147.158, 27.477 150.618 C 33.960 153.586, 43.729 155.235, 49.750 154.378 C 52.087 154.045, 53.995 153.937, 53.989 154.136 C 53.961 155.070, 50.642 164.999, 45.009 181 C 39.878 195.574, 38.921 199.307, 39.284 203.324 C 40.108 212.433, 43.676 215.270, 62.643 221.897 C 75.559 226.410, 76.968 226.711, 78.893 225.363 C 81.243 223.716, 81.656 220.768, 79.750 219.248 C 79.063 218.700, 72.875 216.327, 66 213.976 C 50.488 208.672, 50.366 208.608, 48.449 204.902 C 46.695 201.509, 45.745 204.957, 58.446 168.604 C 61.501 159.862, 64 151.960, 64 151.045 C 64 150.131, 63.361 148.509, 62.580 147.441 C 61.308 145.703, 59.868 145.498, 48.830 145.482 C 37.286 145.465, 36.140 145.282, 30.844 142.616 C 23.860 139.099, 18.013 133.221, 14.316 126 C 11.878 121.239, 11.501 119.358, 11.505 112 C 11.509 104.756, 11.934 102.579, 14.384 97.266 C 19.570 86.021, 29.614 78.930, 47.550 73.854 C 61.711 69.846, 89.673 70.896, 106.500 76.068 C 143.321 87.386, 163.074 97.793, 178.132 113.805 C 184.824 120.921, 193 132.423, 193 134.721 C 193 135.226, 189.308 136.239, 184.797 136.972 C 174.674 138.616, 165.146 141.087, 158.273 143.851 L 153.045 145.953 151.868 143.753 C 149.815 139.918, 140.703 130.889, 135 127.041 C 120.090 116.978, 94.895 108.968, 78.308 109.017 C 66.177 109.054, 50.635 114.054, 45.529 119.564 C 40.426 125.069, 41.722 134.031, 48.190 137.974 C 52.631 140.682, 56.420 140.508, 63 137.294 C 67.873 134.914, 69.698 134.602, 79 134.556 C 87.984 134.512, 90.727 134.917, 98 137.360 C 112.912 142.371, 120.533 146.402, 126.641 152.511 L 132.282 158.152 125.834 164.326 C 119.386 170.500, 113.882 178.851, 112.538 184.500 C 110.794 191.834, 110.270 197.863, 110.978 202.446 C 111.590 206.409, 111.289 208.689, 109.461 213.915 C 106.555 222.226, 103.961 225, 99.095 225 C 97.063 225, 94.860 225.540, 94.200 226.200 C 92.460 227.940, 92.729 231.074, 94.750 232.608 C 100.323 236.838, 113.375 230.225, 116.274 221.702 C 116.511 221.006, 117.893 221.932, 119.558 223.902 C 124.653 229.930, 128.364 232.905, 134.652 236 C 145.422 241.302, 160.131 241.690, 170.840 236.953 C 173.268 235.879, 175.422 235, 175.627 235 C 175.832 235, 176 245.729, 176 258.843 C 176 281.803, 176.085 282.847, 178.303 287.040 C 179.877 290.016, 181.984 292.123, 184.960 293.697 C 189.185 295.931, 190.094 296, 215.508 296 C 242.822 296, 246.483 295.545, 250.837 291.611 C 255.539 287.364, 256 284.443, 256 258.878 C 256 245.745, 256.188 235, 256.417 235 C 256.646 235, 258.932 235.899, 261.497 236.999 C 287.040 247.948, 317.148 231.217, 321.010 203.926 C 323.646 185.302, 315.435 169.559, 295.844 155.675 C 286.787 149.257, 266.557 140, 261.587 140 C 259.263 140, 258.078 137.571, 256.425 129.415 C 255.542 125.062, 254.458 119.925, 254.015 118 C 251.500 107.061, 249.864 98.809, 250.161 98.554 C 250.347 98.394, 253.330 98.743, 256.789 99.329 C 274.713 102.364, 293.825 92.256, 302.155 75.338 C 305.105 69.345, 305.503 67.525, 305.824 58.558 C 306.127 50.119, 305.839 47.581, 304.036 42.791 C 302.854 39.651, 301.065 36.067, 300.061 34.827 C 298.456 32.845, 297.918 32.716, 295.617 33.765 C 292.414 35.224, 292.320 37.324, 295.175 43.667 C 296.843 47.374, 297.359 50.481, 297.388 57 C 297.422 64.417, 297.059 66.236, 294.538 71.278 C 291.285 77.782, 284.407 84.731, 277.974 88.013 C 271.901 91.111, 259.911 91.855, 252.918 89.568 C 246.818 87.573, 243.640 88.093, 241.442 91.448 C 239.961 93.709, 240.155 95.222, 244.467 115.062 C 247 126.721, 248.945 136.381, 248.787 136.530 C 248.629 136.678, 244.900 136.419, 240.500 135.954 C 236.100 135.489, 225.903 135.084, 217.840 135.054 L 203.181 135 199.170 127.750 C 193.014 116.625, 184.682 106.661, 175.085 98.948 C 172.838 97.142, 171 95.366, 171 94.999 C 171 93.692, 178.570 86.768, 182.500 84.479 C 191.680 79.134, 209.068 75.002, 222.384 75.001 C 230.841 75, 231.726 75.217, 240.768 79.500 C 245.993 81.975, 251.445 83.998, 252.884 83.996 C 259.518 83.987, 265.823 76.199, 264.576 69.554 C 263.678 64.768, 261.505 62.380, 254.462 58.442 C 241.583 51.239, 239.144 50.650, 222 50.605 C 208.238 50.568, 205.323 50.871, 196 53.306 C 182.878 56.735, 174.326 60.090, 167.364 64.544 C 161.860 68.065, 153.765 75.550, 150.762 79.896 L 149.107 82.293 136.303 77.240 C 129.261 74.461, 120.921 71.441, 117.768 70.528 C 114.616 69.616, 111.761 68.422, 111.424 67.877 C 109.778 65.213, 123.722 48.695, 134.152 40.953 C 165.388 17.769, 226.499 6.214, 260 17.158 C 263.575 18.326, 269.578 20.819, 273.340 22.698 C 277.102 24.578, 281.106 25.977, 282.238 25.808 C 285.107 25.379, 286.790 22.477, 285.425 20.312 C 283.204 16.792, 266.685 9.533, 254 6.504 C 245.969 4.587, 222.411 3.799, 211 5.067 M 214 59.058 C 199.095 60.453, 184.310 64.815, 173.482 71.010 C 168.812 73.682, 157.996 83.611, 157.186 85.969 C 157.014 86.471, 158.250 87.595, 159.934 88.466 L 162.995 90.049 168.432 84.611 C 174.448 78.596, 184.782 72.992, 194.500 70.477 C 218.815 64.184, 230.841 64.557, 245.469 72.060 C 252.858 75.850, 255.500 75.710, 255.500 71.531 C 255.500 68.850, 254.763 68.214, 247.176 64.357 C 241.638 61.542, 236.951 59.916, 233.176 59.500 C 230.054 59.157, 226.375 58.737, 225 58.568 C 223.625 58.400, 218.675 58.620, 214 59.058 M 69.500 118.494 C 59.644 120.344, 52.111 123.709, 51.390 126.583 C 50.097 131.733, 52.781 132.153, 62.631 128.344 C 68.134 126.216, 71.290 125.670, 78.500 125.602 C 87.662 125.514, 91.686 126.292, 105 130.728 C 118.273 135.150, 125.019 138.984, 132.459 146.335 C 139.273 153.068, 139.469 153.179, 141.932 151.684 C 143.316 150.845, 144.615 149.656, 144.819 149.043 C 145.024 148.429, 142.111 144.902, 138.345 141.204 C 127.180 130.239, 107.814 121.491, 88 118.463 C 77.092 116.797, 78.558 116.794, 69.500 118.494 M 193 144.477 C 192.175 144.665, 188.125 145.345, 184 145.987 C 168.196 148.447, 152.582 154.463, 141.672 162.295 C 135.085 167.023, 127.230 174.675, 124.461 179.062 C 115.487 193.278, 118.145 211.767, 130.808 223.208 C 137.633 229.374, 143.118 231.354, 153.588 231.432 C 161.949 231.495, 163.179 231.240, 168.978 228.250 C 176.068 224.594, 179.935 224.166, 182.297 226.776 C 183.672 228.295, 183.947 232.412, 184.202 255.255 L 184.500 281.958 187.271 284.729 L 190.042 287.500 213.771 287.818 C 229.411 288.027, 238.805 287.750, 241.328 287.004 C 247.585 285.155, 248 283.083, 248 253.687 C 248 230.372, 248.149 228.175, 249.829 226.655 C 252.536 224.205, 256.091 224.623, 263.115 228.218 C 268.821 231.139, 270.237 231.436, 278.451 231.443 C 285.600 231.448, 288.490 230.998, 292.217 229.296 C 298.834 226.274, 306.480 218.766, 309.702 212.126 C 312.057 207.274, 312.433 205.262, 312.433 197.500 C 312.433 189.646, 312.070 187.751, 309.581 182.617 C 303.499 170.071, 284.258 155.853, 265.559 150.087 C 249.986 145.285, 245.477 144.731, 219.500 144.427 C 205.750 144.266, 193.825 144.288, 193 144.477 M 185.445 155.362 C 185.119 156.661, 184.998 159.248, 185.176 161.112 C 185.476 164.248, 185.757 164.500, 188.963 164.500 C 191.952 164.500, 192.542 164.090, 193.284 161.500 C 194.632 156.794, 192.739 153, 189.044 153 C 186.719 153, 185.904 153.535, 185.445 155.362 M 239.445 155.362 C 239.119 156.661, 238.998 159.248, 239.176 161.112 C 239.477 164.256, 239.752 164.500, 243 164.500 C 246.248 164.500, 246.523 164.256, 246.824 161.112 C 247.386 155.223, 246.338 153, 243 153 C 240.721 153, 239.901 153.544, 239.445 155.362 M 206.596 158.306 C 202.096 161.597, 208.606 169, 216 169 C 223.722 169, 230.365 160.871, 224.993 157.996 C 223.315 157.098, 222.360 157.189, 220.468 158.429 C 217.494 160.378, 214.104 160.393, 211.559 158.468 C 209.186 156.673, 208.844 156.662, 206.596 158.306 M 196.387 180.940 C 181.037 183.366, 162.774 193.764, 156.875 203.437 C 150.844 213.328, 162.238 226.173, 172.316 220.845 C 173.517 220.210, 176.525 217.914, 179 215.743 C 188.739 207.199, 196.247 205.024, 216 205.024 C 235.753 205.024, 243.261 207.199, 253 215.743 C 261.711 223.384, 266.733 224.105, 272.765 218.577 C 276.242 215.390, 276.500 214.759, 276.500 209.451 L 276.500 203.748 270.037 197.804 C 262.448 190.824, 254.218 186.039, 244.500 182.957 C 238.560 181.073, 234.774 180.691, 219.500 180.434 C 209.600 180.268, 199.199 180.496, 196.387 180.940 M 202.780 189.054 C 191.824 190.028, 181.701 193.608, 173.675 199.347 C 165.762 205.006, 163.761 207.283, 164.170 210.168 C 164.734 214.154, 168.429 213.678, 173.765 208.932 C 183.763 200.040, 197.166 196.003, 216.701 196.001 C 236.474 195.999, 249.036 200.056, 259.130 209.702 C 263.544 213.921, 267.327 213.996, 267.804 209.874 C 268.050 207.754, 267.087 206.394, 262.804 202.818 C 251.763 193.598, 243.704 190.425, 227.735 189.012 C 215.479 187.927, 215.461 187.927, 202.780 189.054" stroke="none" fill-rule="evenodd"/><path d="M 212.750 4.706 C 213.988 4.944, 216.012 4.944, 217.250 4.706 C 218.488 4.467, 217.475 4.272, 215 4.272 C 212.525 4.272, 211.512 4.467, 212.750 4.706 M 241.250 4.689 C 242.213 4.941, 243.787 4.941, 244.750 4.689 C 245.713 4.438, 244.925 4.232, 243 4.232 C 241.075 4.232, 240.287 4.438, 241.250 4.689 M 216.269 13.693 C 217.242 13.947, 218.592 13.930, 219.269 13.656 C 219.946 13.382, 219.150 13.175, 217.500 13.195 C 215.850 13.215, 215.296 13.439, 216.269 13.693 M 238.269 13.693 C 239.242 13.947, 240.592 13.930, 241.269 13.656 C 241.946 13.382, 241.150 13.175, 239.500 13.195 C 237.850 13.215, 237.296 13.439, 238.269 13.693 M 200.269 15.693 C 201.242 15.947, 202.592 15.930, 203.269 15.656 C 203.946 15.382, 203.150 15.175, 201.500 15.195 C 199.850 15.215, 199.296 15.439, 200.269 15.693 M 117.453 43.250 L 113.500 47.500 117.750 43.547 C 121.702 39.871, 122.460 39, 121.703 39 C 121.540 39, 119.627 40.913, 117.453 43.250 M 125 48.500 C 122.571 50.975, 120.809 53, 121.084 53 C 121.359 53, 123.571 50.975, 126 48.500 C 128.429 46.025, 130.191 44, 129.916 44 C 129.641 44, 127.429 46.025, 125 48.500 M 218.776 49.733 C 221.128 49.945, 224.728 49.942, 226.776 49.727 C 228.824 49.512, 226.900 49.339, 222.500 49.343 C 218.100 49.346, 216.424 49.522, 218.776 49.733 M 306.328 57.500 C 306.333 61.350, 306.513 62.802, 306.730 60.728 C 306.946 58.653, 306.943 55.503, 306.722 53.728 C 306.501 51.952, 306.324 53.650, 306.328 57.500 M 297.300 57 C 297.300 60.025, 297.487 61.263, 297.716 59.750 C 297.945 58.237, 297.945 55.763, 297.716 54.250 C 297.487 52.737, 297.300 53.975, 297.300 57 M 59.762 62.707 C 61.006 62.946, 62.806 62.937, 63.762 62.687 C 64.718 62.437, 63.700 62.241, 61.500 62.252 C 59.300 62.263, 58.518 62.468, 59.762 62.707 M 79.264 62.718 C 80.784 62.947, 83.034 62.941, 84.264 62.704 C 85.494 62.467, 84.250 62.279, 81.500 62.286 C 78.750 62.294, 77.744 62.488, 79.264 62.718 M 101.732 64 C 100.790 65.100, 100.449 66, 100.975 66 C 101.500 66, 102.411 65.100, 103 64 C 103.589 62.900, 103.930 62, 103.757 62 C 103.585 62, 102.674 62.900, 101.732 64 M 76.250 71.689 C 77.213 71.941, 78.787 71.941, 79.750 71.689 C 80.713 71.438, 79.925 71.232, 78 71.232 C 76.075 71.232, 75.287 71.438, 76.250 71.689 M 86.269 72.693 C 87.242 72.947, 88.592 72.930, 89.269 72.656 C 89.946 72.382, 89.150 72.175, 87.500 72.195 C 85.850 72.215, 85.296 72.439, 86.269 72.693 M 212.269 75.693 C 213.242 75.947, 214.592 75.930, 215.269 75.656 C 215.946 75.382, 215.150 75.175, 213.500 75.195 C 211.850 75.215, 211.296 75.439, 212.269 75.693 M 228.269 75.693 C 229.242 75.947, 230.592 75.930, 231.269 75.656 C 231.946 75.382, 231.150 75.175, 229.500 75.195 C 227.850 75.215, 227.296 75.439, 228.269 75.693 M 15 80.500 C 12.571 82.975, 10.809 85, 11.084 85 C 11.359 85, 13.571 82.975, 16 80.500 C 18.429 78.025, 20.191 76, 19.916 76 C 19.641 76, 17.429 78.025, 15 80.500 M 259.102 81.586 C 257.233 82.914, 256.196 84, 256.796 84 C 257.397 84, 259.151 82.889, 260.694 81.532 C 264.228 78.423, 263.520 78.447, 259.102 81.586 M 245.441 82.445 C 246.509 83.300, 247.821 84, 248.358 84 C 249.628 84, 249.061 83.538, 246 82.080 C 243.643 80.958, 243.611 80.978, 245.441 82.445 M 158.655 83.829 C 156.491 86.220, 156.562 86.717, 159.250 88.020 C 161.397 89.060, 161.412 89.040, 159.581 87.571 C 157.721 86.080, 157.718 85.969, 159.486 84.016 C 160.489 82.907, 161.085 82, 160.810 82 C 160.535 82, 159.565 82.823, 158.655 83.829 M 20.637 87.957 C 18.087 90.684, 16 93.234, 16 93.624 C 16 94.014, 16.143 94.146, 16.318 93.917 C 16.493 93.688, 18.805 91.138, 21.455 88.250 C 24.105 85.362, 26.049 83, 25.774 83 C 25.499 83, 23.187 85.231, 20.637 87.957 M 288.500 91.625 C 286.702 93.155, 286.334 93.763, 287.582 93.143 C 289.415 92.233, 292.853 88.941, 291.872 89.036 C 291.668 89.056, 290.150 90.221, 288.500 91.625 M 171.441 94.096 C 171.068 94.699, 171.579 95.936, 172.577 96.846 C 174.270 98.390, 174.306 98.387, 173.109 96.794 C 172.404 95.855, 172.118 94.618, 172.473 94.044 C 172.828 93.470, 172.893 93, 172.618 93 C 172.343 93, 171.813 93.493, 171.441 94.096 M 175.500 112 C 179.320 115.850, 182.671 119, 182.946 119 C 183.221 119, 180.320 115.850, 176.500 112 C 172.680 108.150, 169.329 105, 169.054 105 C 168.779 105, 171.680 108.150, 175.500 112 M 11.320 112 C 11.320 115.575, 11.502 117.037, 11.723 115.250 C 11.945 113.463, 11.945 110.537, 11.723 108.750 C 11.502 106.963, 11.320 108.425, 11.320 112 M 184 107.313 C 184 107.485, 185.463 108.948, 187.250 110.563 L 190.500 113.500 187.563 110.250 C 184.825 107.221, 184 106.540, 184 107.313 M 76.250 108.689 C 77.213 108.941, 78.787 108.941, 79.750 108.689 C 80.713 108.438, 79.925 108.232, 78 108.232 C 76.075 108.232, 75.287 108.438, 76.250 108.689 M 88.269 109.693 C 89.242 109.947, 90.592 109.930, 91.269 109.656 C 91.946 109.382, 91.150 109.175, 89.500 109.195 C 87.850 109.215, 87.296 109.439, 88.269 109.693 M 77.269 117.693 C 78.242 117.947, 79.592 117.930, 80.269 117.656 C 80.946 117.382, 80.150 117.175, 78.500 117.195 C 76.850 117.215, 76.296 117.439, 77.269 117.693 M 144 134.500 C 146.987 137.525, 149.657 140, 149.932 140 C 150.207 140, 147.987 137.525, 145 134.500 C 142.013 131.475, 139.343 129, 139.068 129 C 138.793 129, 141.013 131.475, 144 134.500 M 201.477 131.750 L 203.051 135 214.776 134.785 L 226.500 134.570 214.750 134.253 C 208.287 134.079, 203 133.587, 203 133.159 C 203 132.732, 202.303 131.509, 201.452 130.441 C 200.084 128.727, 200.087 128.879, 201.477 131.750 M 247.211 135.538 C 246.145 136.746, 246.189 137, 247.461 137 C 248.307 137, 249 136.325, 249 135.500 C 249 133.676, 248.850 133.680, 247.211 135.538 M 236.250 135.689 C 237.213 135.941, 238.787 135.941, 239.750 135.689 C 240.713 135.438, 239.925 135.232, 238 135.232 C 236.075 135.232, 235.287 135.438, 236.250 135.689 M 14.500 142 C 17.209 144.750, 19.650 147, 19.925 147 C 20.200 147, 18.209 144.750, 15.500 142 C 12.791 139.250, 10.350 137, 10.075 137 C 9.800 137, 11.791 139.250, 14.500 142 M 137.958 141.250 C 142.102 145.665, 143 146.459, 143 145.708 C 143 145.548, 140.863 143.410, 138.250 140.958 L 133.500 136.500 137.958 141.250 M 132.500 146 C 134.648 148.200, 136.631 150, 136.906 150 C 137.181 150, 135.648 148.200, 133.500 146 C 131.352 143.800, 129.369 142, 129.094 142 C 128.819 142, 130.352 143.800, 132.500 146 M 53 144.395 C 53 144.612, 54.762 144.958, 56.916 145.163 C 59.070 145.369, 60.618 145.191, 60.357 144.768 C 59.882 143.999, 53 143.650, 53 144.395 M 195.762 144.707 C 197.006 144.946, 198.806 144.937, 199.762 144.687 C 200.718 144.437, 199.700 144.241, 197.500 144.252 C 195.300 144.263, 194.518 144.468, 195.762 144.707 M 233.762 144.707 C 235.006 144.946, 236.806 144.937, 237.762 144.687 C 238.718 144.437, 237.700 144.241, 235.500 144.252 C 233.300 144.263, 232.518 144.468, 233.762 144.707 M 45.762 145.707 C 47.006 145.946, 48.806 145.937, 49.762 145.687 C 50.718 145.437, 49.700 145.241, 47.500 145.252 C 45.300 145.263, 44.518 145.468, 45.762 145.707 M 187.269 145.693 C 188.242 145.947, 189.592 145.930, 190.269 145.656 C 190.946 145.382, 190.150 145.175, 188.500 145.195 C 186.850 145.215, 186.296 145.439, 187.269 145.693 M 243.269 145.693 C 244.242 145.947, 245.592 145.930, 246.269 145.656 C 246.946 145.382, 246.150 145.175, 244.500 145.195 C 242.850 145.215, 242.296 145.439, 243.269 145.693 M 126 152.500 C 127.866 154.425, 129.617 156, 129.892 156 C 130.167 156, 128.866 154.425, 127 152.500 C 125.134 150.575, 123.383 149, 123.108 149 C 122.833 149, 124.134 150.575, 126 152.500 M 39.269 154.693 C 40.242 154.947, 41.592 154.930, 42.269 154.656 C 42.946 154.382, 42.150 154.175, 40.500 154.195 C 38.850 154.215, 38.296 154.439, 39.269 154.693 M 49 154.383 C 49 154.594, 50.125 154.982, 51.500 155.245 C 52.875 155.508, 54 155.335, 54 154.861 C 54 154.388, 52.875 154, 51.500 154 C 50.125 154, 49 154.173, 49 154.383 M 184.398 155.405 C 184.102 156.177, 184.016 158.315, 184.209 160.155 C 184.515 163.088, 184.617 162.915, 185.036 158.750 C 185.527 153.879, 185.346 152.934, 184.398 155.405 M 238.398 155.405 C 238.102 156.177, 238.016 158.315, 238.209 160.155 C 238.515 163.088, 238.617 162.915, 239.036 158.750 C 239.527 153.879, 239.346 152.934, 238.398 155.405 M 246.975 158.796 L 247.458 163.500 247.797 159.618 C 247.984 157.483, 247.767 155.367, 247.315 154.915 C 246.863 154.463, 246.710 156.210, 246.975 158.796 M 130.264 157.520 C 130.684 157.983, 129.813 159.630, 128.327 161.181 C 126.841 162.731, 125.851 164, 126.126 164 C 126.401 164, 127.872 162.699, 129.395 161.110 C 131.514 158.898, 131.851 158.039, 130.832 157.449 C 130.099 157.026, 129.844 157.058, 130.264 157.520 M 225.404 158.306 C 228.081 160.263, 227.039 164.069, 223.102 166.716 C 221.233 167.972, 220.186 169, 220.775 169 C 222.901 169, 228 163.785, 228 161.611 C 228 159.302, 226.307 157, 224.609 157 C 224.064 157, 224.421 157.588, 225.404 158.306 M 189.500 165 L 186.500 165.763 189.191 165.882 C 190.671 165.947, 192.160 165.550, 192.500 165 C 192.840 164.450, 192.979 164.053, 192.809 164.118 C 192.639 164.183, 191.150 164.580, 189.500 165 M 313.511 172.377 C 314.457 173.820, 315.419 175, 315.650 175 C 316.374 175, 314.045 171.146, 312.891 170.433 C 312.287 170.059, 312.566 170.934, 313.511 172.377 M 209.750 179.740 C 213.188 179.936, 218.813 179.936, 222.250 179.740 C 225.688 179.545, 222.875 179.385, 216 179.385 C 209.125 179.385, 206.313 179.545, 209.750 179.740 M 197.269 180.693 C 198.242 180.947, 199.592 180.930, 200.269 180.656 C 200.946 180.382, 200.150 180.175, 198.500 180.195 C 196.850 180.215, 196.296 180.439, 197.269 180.693 M 213.250 188.716 C 214.762 188.945, 217.238 188.945, 218.750 188.716 C 220.262 188.487, 219.025 188.300, 216 188.300 C 212.975 188.300, 211.738 188.487, 213.250 188.716 M 321.195 192.500 C 321.215 194.150, 321.439 194.704, 321.693 193.731 C 321.947 192.758, 321.930 191.408, 321.656 190.731 C 321.382 190.054, 321.175 190.850, 321.195 192.500 M 110.195 193.500 C 110.215 195.150, 110.439 195.704, 110.693 194.731 C 110.947 193.758, 110.930 192.408, 110.656 191.731 C 110.382 191.054, 110.175 191.850, 110.195 193.500 M 263 191.194 C 263 191.392, 265.813 193.990, 269.250 196.966 C 272.688 199.943, 274.375 201.123, 273 199.589 C 270.508 196.810, 263 190.506, 263 191.194 M 119.310 197.500 C 119.315 200.800, 119.502 202.029, 119.725 200.232 C 119.947 198.435, 119.943 195.735, 119.715 194.232 C 119.486 192.729, 119.304 194.200, 119.310 197.500 M 312.310 197.500 C 312.315 200.800, 312.502 202.029, 312.725 200.232 C 312.947 198.435, 312.943 195.735, 312.715 194.232 C 312.486 192.729, 312.304 194.200, 312.310 197.500 M 179.441 195.555 C 177.611 197.022, 177.643 197.042, 180 195.920 C 183.061 194.462, 183.628 194, 182.358 194 C 181.821 194, 180.509 194.700, 179.441 195.555 M 159.946 198.750 L 156.500 202.500 160.250 199.054 C 163.740 195.846, 164.460 195, 163.696 195 C 163.529 195, 161.842 196.688, 159.946 198.750 M 214.250 195.716 C 215.762 195.945, 218.238 195.945, 219.750 195.716 C 221.262 195.487, 220.025 195.300, 217 195.300 C 213.975 195.300, 212.738 195.487, 214.250 195.716 M 38.195 201.500 C 38.215 203.150, 38.439 203.704, 38.693 202.731 C 38.947 201.758, 38.930 200.408, 38.656 199.731 C 38.382 199.054, 38.175 199.850, 38.195 201.500 M 110.195 201.500 C 110.215 203.150, 110.439 203.704, 110.693 202.731 C 110.947 201.758, 110.930 200.408, 110.656 199.731 C 110.382 199.054, 110.175 199.850, 110.195 201.500 M 321.195 202.500 C 321.215 204.150, 321.439 204.704, 321.693 203.731 C 321.947 202.758, 321.930 201.408, 321.656 200.731 C 321.382 200.054, 321.175 200.850, 321.195 202.500 M 181.441 202.555 C 179.611 204.022, 179.643 204.042, 182 202.920 C 185.061 201.462, 185.628 201, 184.358 201 C 183.821 201, 182.509 201.700, 181.441 202.555 M 166.510 204.990 C 164.935 206.634, 163.838 208.139, 164.073 208.334 C 164.308 208.529, 165.782 207.184, 167.348 205.344 C 170.886 201.191, 170.362 200.969, 166.510 204.990 M 262 202.313 C 262 202.485, 263.462 203.948, 265.250 205.563 L 268.500 208.500 265.563 205.250 C 262.825 202.221, 262 201.540, 262 202.313 M 201.762 205.707 C 203.006 205.946, 204.806 205.937, 205.762 205.687 C 206.718 205.437, 205.700 205.241, 203.500 205.252 C 201.300 205.263, 200.518 205.468, 201.762 205.707 M 227.250 205.689 C 228.213 205.941, 229.787 205.941, 230.750 205.689 C 231.713 205.438, 230.925 205.232, 229 205.232 C 227.075 205.232, 226.287 205.438, 227.250 205.689 M 171.437 210.250 L 168.500 213.500 171.750 210.563 C 174.779 207.825, 175.460 207, 174.687 207 C 174.515 207, 173.052 208.463, 171.437 210.250 M 257 207.313 C 257 207.485, 258.462 208.948, 260.250 210.563 L 263.500 213.500 260.563 210.250 C 257.825 207.221, 257 206.540, 257 207.313 M 277.195 209.500 C 277.215 211.150, 277.439 211.704, 277.693 210.731 C 277.947 209.758, 277.930 208.408, 277.656 207.731 C 277.382 207.054, 277.175 207.850, 277.195 209.500 M 43 213.500 C 44.292 214.875, 45.574 216, 45.849 216 C 46.124 216, 45.292 214.875, 44 213.500 C 42.708 212.125, 41.426 211, 41.151 211 C 40.876 211, 41.708 212.125, 43 213.500 M 178.405 216.143 C 177.357 217.322, 175.150 219.120, 173.500 220.139 C 171.850 221.159, 171.080 221.994, 171.789 221.996 C 173.038 222, 182.101 214.075, 180.905 214.025 C 180.578 214.011, 179.453 214.964, 178.405 216.143 M 255.167 218.250 C 257.233 220.313, 259.502 221.986, 260.211 221.970 C 260.920 221.953, 260.600 221.444, 259.500 220.838 C 258.400 220.232, 256.130 218.558, 254.456 217.118 C 252.760 215.660, 253.076 216.161, 255.167 218.250 M 156 215.635 C 156 216.757, 159.647 220.284, 162 221.438 C 162.825 221.843, 162.403 221.282, 161.063 220.192 C 159.723 219.102, 158.036 217.401, 157.313 216.414 C 156.591 215.426, 156 215.075, 156 215.635 M 272.924 218.750 L 270.500 221.500 273.250 219.076 C 274.762 217.742, 276 216.505, 276 216.326 C 276 215.541, 275.190 216.180, 272.924 218.750 M 312.997 223.250 C 311.525 225.261, 311.283 225.960, 312.363 225.082 C 314.003 223.751, 316.483 220, 315.723 220 C 315.532 220, 314.305 221.463, 312.997 223.250 M 166.269 222.693 C 167.242 222.947, 168.592 222.930, 169.269 222.656 C 169.946 222.382, 169.150 222.175, 167.500 222.195 C 165.850 222.215, 165.296 222.439, 166.269 222.693 M 263.269 222.693 C 264.242 222.947, 265.592 222.930, 266.269 222.656 C 266.946 222.382, 266.150 222.175, 264.500 222.195 C 262.850 222.215, 262.296 222.439, 263.269 222.693 M 120 225.500 C 121.292 226.875, 122.574 228, 122.849 228 C 123.124 228, 122.292 226.875, 121 225.500 C 119.708 224.125, 118.426 223, 118.151 223 C 117.876 223, 118.708 224.125, 120 225.500 M 97.762 224.707 C 99.006 224.946, 100.806 224.937, 101.762 224.687 C 102.718 224.437, 101.700 224.241, 99.500 224.252 C 97.300 224.263, 96.518 224.468, 97.762 224.707 M 176.269 224.693 C 177.242 224.947, 178.592 224.930, 179.269 224.656 C 179.946 224.382, 179.150 224.175, 177.500 224.195 C 175.850 224.215, 175.296 224.439, 176.269 224.693 M 253.269 224.693 C 254.242 224.947, 255.592 224.930, 256.269 224.656 C 256.946 224.382, 256.150 224.175, 254.500 224.195 C 252.850 224.215, 252.296 224.439, 253.269 224.693 M 184.436 254.500 C 184.436 268.800, 184.577 274.511, 184.748 267.191 C 184.919 259.871, 184.918 248.171, 184.747 241.191 C 184.575 234.211, 184.435 240.200, 184.436 254.500 M 247.436 254.500 C 247.436 268.800, 247.577 274.511, 247.748 267.191 C 247.919 259.871, 247.918 248.171, 247.747 241.191 C 247.575 234.211, 247.435 240.200, 247.436 254.500 M 151.250 231.716 C 152.762 231.945, 155.238 231.945, 156.750 231.716 C 158.262 231.487, 157.025 231.300, 154 231.300 C 150.975 231.300, 149.738 231.487, 151.250 231.716 M 276.250 231.716 C 277.762 231.945, 280.238 231.945, 281.750 231.716 C 283.262 231.487, 282.025 231.300, 279 231.300 C 275.975 231.300, 274.738 231.487, 276.250 231.716 M 174.758 250.249 C 175.228 278.115, 175.595 280.759, 175.799 257.750 C 175.909 245.238, 175.662 234.999, 175.250 234.999 C 174.838 234.998, 174.616 241.860, 174.758 250.249 M 256.204 258.750 C 256.408 282.650, 256.766 279.895, 257.243 250.749 C 257.384 242.085, 257.163 234.998, 256.750 234.999 C 256.337 234.999, 256.092 245.688, 256.204 258.750 M 147.762 240.707 C 149.006 240.946, 150.806 240.937, 151.762 240.687 C 152.718 240.437, 151.700 240.241, 149.500 240.252 C 147.300 240.263, 146.518 240.468, 147.762 240.707 M 157.250 240.689 C 158.213 240.941, 159.787 240.941, 160.750 240.689 C 161.713 240.438, 160.925 240.232, 159 240.232 C 157.075 240.232, 156.287 240.438, 157.250 240.689 M 271.250 240.689 C 272.212 240.941, 273.788 240.941, 274.750 240.689 C 275.712 240.438, 274.925 240.232, 273 240.232 C 271.075 240.232, 270.288 240.438, 271.250 240.689 M 280.762 240.707 C 282.006 240.946, 283.806 240.937, 284.762 240.687 C 285.718 240.437, 284.700 240.241, 282.500 240.252 C 280.300 240.263, 279.518 240.468, 280.762 240.707 M 203.750 287.747 C 210.488 287.920, 221.512 287.920, 228.250 287.747 C 234.988 287.574, 229.475 287.432, 216 287.432 C 202.525 287.432, 197.012 287.574, 203.750 287.747 M 184.314 294.250 C 185.363 295.212, 186.959 295.971, 187.861 295.937 C 188.897 295.897, 188.600 295.514, 187.054 294.896 C 185.708 294.359, 184.112 293.600, 183.507 293.210 C 182.901 292.819, 183.264 293.288, 184.314 294.250 M 244.500 295 C 243.181 295.567, 243.011 295.878, 244 295.914 C 244.825 295.945, 246.175 295.533, 247 295 C 248.828 293.819, 247.249 293.819, 244.500 295 M 204.308 296.748 C 211.353 296.920, 222.603 296.919, 229.308 296.747 C 236.014 296.574, 230.250 296.433, 216.500 296.434 C 202.750 296.434, 197.264 296.576, 204.308 296.748" fill-rule="evenodd"/></svg>