<svg xmlns="http://www.w3.org/2000/svg" width="1024" height="1024" viewBox="0 0 1024 1024" version="1.1"><path d="M 589.688 90.081 C 572.755 92.594, 552.159 100.116, 543.612 106.910 C 541.474 108.609, 539.407 110, 539.019 110 C 537.728 110, 526.101 121.890, 523.397 125.976 C 520.214 130.787, 518.756 130.948, 509.602 127.502 C 501.433 124.427, 487.940 121.997, 479.119 122.011 C 470.036 122.025, 451.062 126.063, 442 129.910 C 433.706 133.431, 424 138.986, 424 140.211 C 424 140.645, 423.360 141, 422.578 141 C 420.320 141, 407.692 153.840, 402.544 161.371 C 395.646 171.463, 389.624 184.412, 386.371 196.148 C 383.700 205.783, 383.507 207.695, 383.582 223.750 C 383.628 233.640, 384.114 241.960, 384.722 243.250 C 385.305 244.487, 386.468 248.425, 387.307 252 C 389.071 259.513, 392.128 268.225, 393.682 270.162 C 394.272 270.898, 395.073 272.537, 395.462 273.804 C 397.773 281.336, 415.190 301.885, 425.565 309.320 C 431.064 313.262, 444.852 319.670, 454.160 322.610 L 462 325.087 462 329.257 C 462 331.550, 461.132 342.218, 460.071 352.963 C 459.011 363.708, 457.583 380.262, 456.898 389.750 C 456.201 399.420, 455.226 407, 454.680 407 C 454.145 407, 445.641 411.050, 435.782 416 C 425.924 420.950, 417.328 425.003, 416.679 425.006 C 413.529 425.020, 408 427.252, 408 428.508 C 408 430.766, 412.013 434.019, 418.746 437.218 C 424.551 439.975, 424.946 440.372, 424.344 442.842 C 423.987 444.304, 422.712 446.686, 421.509 448.135 C 419.424 450.648, 415.547 459.406, 413.127 467.071 C 411.436 472.428, 411.721 491.600, 413.572 497 C 416.861 506.596, 421.452 514.203, 427.122 519.452 C 432.652 524.572, 437 526.905, 437 524.751 C 437 524.168, 437.823 524.435, 438.829 525.345 C 439.835 526.255, 441.320 527, 442.129 527 C 443.933 527, 446 528.956, 446 530.662 C 446 533.342, 450.276 543.174, 452.688 546.040 C 455.600 549.502, 455.620 549.278, 450.935 566 C 448.114 576.068, 447.706 579.057, 447.663 590 C 447.606 604.269, 448.920 608.924, 456.162 620.129 C 465.774 635.001, 485.979 648.744, 508.591 655.791 C 520.583 659.528, 543.129 665, 546.534 665 C 548.667 665, 549 665.455, 549 668.367 C 549 670.936, 547.724 673.335, 543.612 678.494 C 538.897 684.412, 527 706.311, 527 709.074 C 527 709.627, 526.135 711.775, 525.078 713.846 C 522.996 717.929, 516.210 740.910, 513.518 753 C 512.599 757.125, 511.482 764.325, 511.034 769 C 510.587 773.675, 509.456 779.525, 508.520 782 C 507.585 784.475, 506.570 788.888, 506.264 791.807 C 505.812 796.126, 506.082 797.619, 507.714 799.826 C 508.816 801.318, 510.019 803.483, 510.385 804.637 C 510.751 805.792, 511.940 807.540, 513.026 808.523 C 514.111 809.506, 515.007 811.028, 515.015 811.905 C 515.036 814.308, 517.907 822.097, 520.052 825.577 C 522.405 829.393, 530.316 833.807, 536.261 834.622 L 540.735 835.235 541.245 855.368 C 541.526 866.440, 542.227 876.679, 542.804 878.120 C 543.482 879.817, 545.399 881.380, 548.242 882.556 L 552.632 884.372 554.825 900.532 C 558.585 928.242, 561.718 937.061, 570.568 944.851 C 579.141 952.397, 587.802 952.981, 597.332 946.655 C 600.361 944.645, 603.213 942.999, 603.669 942.998 C 604.893 942.996, 609.552 935.255, 611.846 929.412 C 612.944 926.613, 614.380 920.651, 615.037 916.162 L 616.230 908 632.136 908 C 650.433 908, 647.983 906.451, 652.435 920.834 C 656.684 934.564, 662.733 942.829, 672.884 948.778 C 676.767 951.053, 678.542 951.417, 685.939 951.456 C 693.460 951.495, 695.047 951.177, 699 948.839 C 704.906 945.347, 708.445 941.518, 710.870 936 C 713.209 930.674, 715.696 915.019, 716.746 899.010 L 717.500 887.521 722.088 885.347 C 724.612 884.151, 727.874 881.749, 729.338 880.010 C 731.980 876.871, 732 876.723, 732.008 860.673 L 732.015 844.500 735.958 842.249 C 738.126 841.011, 741.120 838.399, 742.611 836.444 C 745.698 832.395, 748.030 824.606, 747.298 820.780 C 746.910 818.750, 747.651 817.349, 750.754 814.246 C 755.672 809.328, 756.684 803.731, 754.415 794 C 753.548 790.281, 752.769 781.295, 752.594 773 C 752.172 753.004, 747.396 727.411, 740.464 708 C 736.580 697.124, 728.642 681.314, 724.011 675.230 C 718.692 668.241, 718.741 665.822, 724.250 663.554 C 738.177 657.819, 748.949 651.593, 756.489 644.917 L 764.479 637.845 771.144 638.515 C 778.632 639.266, 781.868 638.206, 788.323 632.885 C 791.906 629.932, 797 621.595, 797 618.685 C 797 617.925, 798.913 616.467, 801.250 615.445 C 809.241 611.950, 819.674 603.313, 823.065 597.386 C 826.735 590.972, 828.971 583.311, 828.988 577.096 C 828.999 573.102, 829.521 572.160, 834.579 567.004 C 840.745 560.717, 841.355 559.802, 846.576 549 C 853.499 534.675, 856.239 524.773, 857.550 509.340 C 858.511 498.019, 854.138 480.189, 848.246 471.406 C 844.436 465.727, 837.470 458, 836.159 458 C 834.751 458, 833 454.711, 833 452.066 C 833 449.321, 836.082 449.356, 841.070 452.159 C 844.320 453.986, 845.158 454.113, 846.516 452.986 C 847.921 451.820, 847.046 451.098, 839.496 447.189 C 834.231 444.463, 829.046 440.837, 826.186 437.879 L 821.500 433.034 821.279 424.767 C 821.158 420.220, 821.309 413.232, 821.616 409.239 L 822.173 401.978 834.398 402.631 C 846.849 403.297, 854.817 402.263, 867 398.402 C 879.836 394.335, 895.839 383.800, 905.590 373 C 921.255 355.648, 928.944 331.104, 926.014 307.804 C 923.411 287.108, 918.920 275.405, 907.769 260.258 C 903.364 254.274, 903.258 253.953, 903.159 246.282 C 902.721 212.500, 890.272 182.358, 867.315 159.500 C 857.240 149.468, 857.664 149.831, 849.437 144.227 C 837.909 136.373, 825.468 131.111, 808.158 126.766 C 800.910 124.947, 796.569 124.587, 781.500 124.555 C 762.703 124.515, 752.379 125.883, 739.746 130.086 C 731.931 132.686, 730.444 132.551, 720.839 128.373 C 713.479 125.173, 711.267 124.689, 702 124.253 C 692.026 123.784, 691.300 123.598, 687.500 120.558 C 671.606 107.840, 658.545 101.128, 636.719 94.463 C 623.417 90.401, 601.374 88.347, 589.688 90.081 M 587.500 99.074 C 576.665 100.556, 566.346 103.680, 556.500 108.460 C 545.924 113.595, 540.501 117.647, 529.756 128.444 C 522.329 135.906, 521.718 136.304, 519.675 135.010 C 514.626 131.812, 511.943 131.062, 501.500 129.932 C 488.524 128.528, 467.457 129.308, 458.044 131.541 C 451.654 133.057, 444.589 135.810, 434.071 140.882 C 426.115 144.718, 409.756 161.346, 404.106 171.337 C 394.772 187.846, 391.450 203.023, 392.334 225.118 C 392.982 241.306, 395.597 253.633, 401.105 266.457 C 406.298 278.546, 410.683 284.760, 421.963 296.015 C 432.678 306.707, 441.465 312.249, 456.384 317.725 C 461.398 319.566, 466.415 321.451, 467.533 321.915 C 469.813 322.862, 469.872 320.519, 466.569 360.490 C 465.706 370.935, 465 382.747, 465 386.740 L 465 394 467.878 394 C 471.280 394, 472.664 392.586, 473.262 388.500 C 473.647 385.865, 473.719 385.971, 473.850 389.379 L 474 393.258 480.250 392.606 C 483.688 392.247, 489.650 391.530, 493.500 391.013 C 517.850 387.740, 583.219 386.651, 612.456 389.031 C 641.064 391.360, 690.957 398.273, 717.035 403.520 C 721.141 404.347, 728.100 405.688, 732.500 406.501 C 736.900 407.315, 741.625 408.399, 743 408.911 C 744.375 409.423, 750.675 411.022, 757 412.465 C 770.513 415.547, 778.182 417.716, 794.500 423.071 C 801.100 425.236, 807.737 427.006, 809.250 427.004 L 812 427 812.043 409.250 C 812.090 390.213, 813.372 366.608, 814.514 363.750 C 814.899 362.788, 815.804 362, 816.524 362 C 818.056 362, 819.656 368.677, 820.501 378.596 C 820.824 382.393, 821.318 387.385, 821.597 389.690 L 822.105 393.880 827.788 395.060 C 835.036 396.564, 849.916 395.548, 860 392.859 C 869.552 390.312, 883.094 383.983, 888.538 379.522 C 910.656 361.398, 919.719 338.541, 916.981 307.784 C 916.334 300.522, 914.898 291.638, 913.788 288.040 C 911.071 279.234, 906.310 270, 904.486 270 C 903.669 270, 903 269.550, 903 269 C 903 268.450, 902.523 268, 901.941 268 C 901.359 268, 901.160 268.450, 901.500 269 C 901.840 269.550, 901.696 270, 901.180 270 C 900.665 270, 899.685 271.463, 899.003 273.250 C 893.661 287.262, 887.453 301, 886.465 301 C 886.286 301, 887.411 297.512, 888.966 293.250 C 892.403 283.823, 893.993 271.668, 893.997 254.801 C 894 242.180, 891.817 221.117, 890.056 216.772 C 889.550 215.522, 888.363 211.800, 887.419 208.500 C 884.833 199.466, 878.656 187.421, 872.148 178.726 C 853.074 153.242, 832.656 139.888, 803.645 133.925 C 789.521 131.022, 765.523 130.992, 751.868 133.861 C 739.488 136.461, 727.424 141.133, 721.598 145.581 C 717.756 148.514, 717 149.640, 717 152.424 C 717 154.256, 717.657 157.329, 718.460 159.251 C 719.264 161.173, 719.686 162.981, 719.398 163.268 C 719.111 163.556, 713.268 157.794, 706.413 150.465 C 690.669 133.632, 686.255 129.684, 674.112 121.575 C 657.978 110.800, 643.954 104.712, 625.500 100.473 C 617.584 98.654, 596.297 97.871, 587.500 99.074 M 705.033 134.750 C 705.075 138.216, 708.161 142, 710.945 142 C 714.537 142, 718 139.065, 718 136.021 C 718 133.509, 717.601 133.217, 713.360 132.636 C 705.545 131.565, 704.996 131.704, 705.033 134.750 M 598.740 296.551 C 588.559 298.266, 562.294 299.965, 543.500 300.124 C 532.583 300.216, 529.725 300.468, 533 301.051 C 539.462 302.201, 569.911 302.160, 580.500 300.987 C 590.490 299.880, 604.683 297.145, 607 295.880 C 608.827 294.882, 608.479 294.910, 598.740 296.551 M 733.500 330.819 C 735.181 332.542, 756.124 342.686, 762.500 344.865 C 774.563 348.987, 791.224 351.228, 801.500 350.111 C 807.322 349.478, 807.173 349.435, 796.500 348.689 C 776.268 347.274, 757.599 342.304, 740.500 333.781 C 736.100 331.588, 732.950 330.255, 733.500 330.819 M 479.079 333.220 C 479.036 333.616, 477.875 342.786, 476.500 353.598 C 475.125 364.411, 474.058 376.012, 474.130 379.379 L 474.259 385.500 475.081 378 C 477.087 359.683, 478.116 350.955, 479.157 343.409 C 479.770 338.959, 480.022 334.684, 479.715 333.909 C 479.409 333.134, 479.122 332.824, 479.079 333.220 M 200.242 396.125 C 193.903 398.561, 185.723 406.191, 182.987 412.219 C 180.514 417.668, 180.403 425.048, 182.750 427.920 C 183.713 429.097, 186.075 430.313, 188 430.621 C 192.847 431.396, 196.340 428.486, 198.004 422.288 C 200.730 412.128, 204.280 409, 213.082 409 C 223.418 409, 229.409 416.535, 226.065 425.329 C 225.518 426.768, 221.680 430.065, 216.815 433.274 C 207.112 439.675, 205.990 440.825, 202.936 447.500 C 201.063 451.595, 200.635 454.310, 200.574 462.500 C 200.453 478.849, 203.663 485.036, 211.503 483.565 C 216.873 482.558, 218.561 479.187, 218.216 470.165 L 217.933 462.750 229.426 451.592 C 242.604 438.801, 245.200 434.391, 245.200 424.804 C 245.200 417.425, 241.144 408.547, 234.890 402.239 C 227.259 394.540, 211.569 391.772, 200.242 396.125 M 516.253 397.513 C 506.217 398.285, 491.367 400.012, 483.253 401.351 C 470.220 403.503, 467.800 404.217, 462.500 407.476 C 455.177 411.980, 424.985 426.997, 423.250 426.999 C 421.392 427.001, 421.736 431.685, 423.648 432.418 C 424.554 432.766, 428.716 433.302, 432.898 433.609 C 437.079 433.917, 441.079 434.348, 441.787 434.567 C 442.543 434.801, 440.450 437.434, 436.716 440.946 C 426.312 450.732, 422.344 459.911, 421.348 476.500 C 420.619 488.637, 422.079 498.918, 425.806 507.894 C 427.890 512.914, 429.083 514.577, 430.774 514.820 C 431.998 514.995, 433 515.558, 433 516.070 C 433 516.581, 433.415 517, 433.923 517 C 434.448 517, 434.658 513.439, 434.410 508.750 C 433.878 498.681, 434.891 487.529, 436.067 490.500 C 436.503 491.600, 436.891 493.752, 436.930 495.282 C 437.018 498.768, 440.317 508.860, 443.613 515.724 C 447.041 522.862, 456.498 532.200, 459.893 531.799 C 462.326 531.512, 462.476 531.090, 463.727 521 C 467.543 490.214, 484.719 453.262, 503.384 435.682 C 516.993 422.864, 540.320 414.095, 552.738 417.129 C 558.048 418.426, 563 420.669, 563 421.778 C 563 422.177, 557.263 422.534, 550.250 422.570 C 535.423 422.647, 528.823 424.355, 519.529 430.524 C 503.723 441.016, 485.680 467.113, 477.665 491.074 C 473.062 504.838, 469.595 528.293, 470.709 538.133 C 471.133 541.878, 470.852 543.148, 469.242 544.758 C 468.146 545.854, 466.746 546.919, 466.130 547.125 C 464.238 547.758, 457.992 570.905, 456.805 581.680 C 454.222 605.130, 461.791 620.750, 482.375 634.446 C 498.176 644.959, 514.554 650.723, 545 656.487 C 597.496 666.424, 681.255 667.494, 713.500 658.640 C 722.828 656.079, 734.849 650.919, 740.628 646.997 C 754.084 637.865, 760.468 631.109, 767.374 618.695 C 771.817 610.708, 773.167 610, 783.960 610 C 794.761 610, 803.860 607.092, 809.593 601.808 C 816.571 595.376, 818.157 592.059, 818.730 582.698 C 819.375 572.157, 817.982 567.083, 813.065 562.066 C 808.632 557.543, 804.667 556.436, 796.541 557.452 C 789.871 558.285, 785.068 561.414, 778.046 569.500 C 775.180 572.800, 772.534 575.500, 772.167 575.500 C 771.800 575.500, 771.216 573.700, 770.870 571.500 C 770.523 569.300, 769.735 565.076, 769.120 562.114 C 768.504 559.151, 768 553.691, 768 549.980 C 768 544.453, 767.684 543.124, 766.250 542.626 C 750.826 537.273, 722.112 509.283, 721.500 499.004 C 721.271 495.149, 723.600 494.992, 725.251 498.750 C 725.916 500.262, 726.727 501.725, 727.055 502 C 727.383 502.275, 728.442 503.850, 729.409 505.500 C 730.376 507.150, 733.042 509.956, 735.333 511.736 C 737.625 513.517, 742.425 517.670, 746 520.966 C 749.575 524.263, 754.075 527.710, 756 528.628 C 757.925 529.545, 759.725 530.590, 760 530.950 C 762.359 534.037, 779.960 539, 788.548 539 L 794.731 539 793.990 535.250 C 793.582 533.188, 791.993 528.821, 790.458 525.547 C 788.006 520.317, 785.873 510, 787.243 510 C 787.517 510, 789.476 513.938, 791.596 518.750 C 793.716 523.563, 796.024 527.860, 796.725 528.300 C 797.426 528.740, 798 530.028, 798 531.164 C 798 532.299, 799.013 535.047, 800.250 537.270 C 801.953 540.330, 802.183 541.421, 801.194 541.758 C 800.476 542.003, 799.018 543.138, 797.954 544.280 C 796.191 546.172, 795.018 546.337, 784.648 546.148 L 773.276 545.941 772.176 550.221 C 770.538 556.586, 769.756 562.796, 770.450 563.919 C 771.442 565.525, 774.300 563.869, 781.097 557.750 C 784.610 554.587, 788.050 552, 788.742 552 C 789.434 552, 790 551.373, 790 550.607 C 790 548.679, 791.878 548.141, 797.156 548.557 C 807.096 549.340, 816.136 554.036, 821.544 561.224 C 825.766 566.838, 828.445 566.204, 833.059 558.500 C 841.689 544.090, 845.903 529.892, 846.683 512.590 C 847.687 490.329, 844.506 477.564, 833.618 460.164 C 830.095 454.535, 829.405 452.739, 829.083 448.368 C 829.038 447.745, 827.147 445.382, 824.882 443.118 C 821.833 440.069, 819.952 438.994, 817.632 438.978 C 815.910 438.966, 812.653 438.117, 810.395 437.092 C 802.196 433.368, 772.910 424.796, 752 419.999 C 744.575 418.296, 735.800 416.274, 732.500 415.506 C 706.635 409.488, 641.702 400.226, 609.500 397.961 C 584.664 396.215, 536.170 395.982, 516.253 397.513 M 581.420 429.500 C 584.544 452.591, 601.918 484.272, 617.432 495.167 C 624.708 500.277, 627.432 500.148, 622.433 494.930 C 618.977 491.322, 619.598 490.516, 624.314 492.487 C 626.306 493.319, 629.038 494, 630.385 494 C 631.731 494, 633.006 494.518, 633.217 495.151 C 633.778 496.835, 644.248 497.473, 647.016 495.991 C 649.167 494.840, 649.200 494.691, 647.509 493.745 C 646.512 493.187, 641.173 490.968, 635.642 488.813 C 612.443 479.772, 606.314 473.400, 589.812 441.168 C 585.400 432.551, 581.555 425.275, 581.267 425 C 580.979 424.725, 581.048 426.750, 581.420 429.500 M 654.413 441.612 C 653.438 446.810, 654.555 461.943, 656.192 465.711 L 657.586 468.922 659.007 464.211 C 659.789 461.620, 660.296 458.867, 660.134 458.093 C 659.973 457.320, 661.261 458.107, 662.997 459.843 C 664.733 461.579, 666.457 463.005, 666.827 463.012 C 667.197 463.018, 669.909 465.929, 672.854 469.479 C 678.311 476.060, 692.278 487.449, 697.250 489.374 C 699.195 490.127, 700 491.144, 700 492.849 C 700 495.103, 699.717 495.228, 695.644 494.769 C 690.104 494.145, 681.775 490.342, 675.565 485.601 C 670.572 481.790, 667.757 481.306, 667.207 484.164 C 666.035 490.250, 686.986 501.912, 699.545 502.164 C 704.918 502.272, 707.632 500.089, 708.688 494.812 C 709.155 492.477, 709.760 492, 712.259 492 C 713.914 492, 716.987 492.515, 719.089 493.145 C 722.283 494.102, 723.321 494.020, 725.419 492.645 C 726.800 491.740, 728.875 491, 730.031 491 C 732.095 491, 736.018 489.335, 737 488.042 C 737.275 487.680, 738.625 486.567, 740 485.569 C 741.819 484.248, 741.955 483.964, 740.500 484.527 C 736.348 486.132, 719.538 486.229, 711.479 484.695 C 693.515 481.275, 675.961 467.098, 660.782 443.750 C 658.726 440.587, 656.604 438, 656.067 438 C 655.530 438, 654.786 439.625, 654.413 441.612 M 524.890 473.862 C 519.604 477.039, 511.847 480.958, 507.652 482.569 C 499.773 485.597, 498.153 487.498, 502.520 488.595 C 507.727 489.901, 521.283 484.899, 530.125 478.408 C 536.063 474.050, 537.782 471.351, 535.848 469.426 C 534.720 468.303, 532.933 469.027, 524.890 473.862 M 505.457 506.860 C 492.189 513.137, 486.003 527.622, 490.796 541.190 C 494.993 553.069, 502.299 558.504, 514 558.451 C 522.044 558.415, 528.934 555.153, 534.625 548.689 C 542.432 539.820, 543.924 528.668, 538.680 518.387 C 531.983 505.260, 518.631 500.628, 505.457 506.860 M 204.981 509.865 C 196.470 518.376, 208.101 530.414, 216.949 522.250 C 221.118 518.403, 221.630 515.233, 218.769 510.975 C 216.808 508.055, 215.758 507.451, 212.199 507.192 C 208.612 506.930, 207.506 507.340, 204.981 509.865 M 684 519.879 C 675.455 522.678, 669.854 527.353, 665.883 535 C 664.042 538.546, 663.546 541.090, 663.546 547 C 663.546 555.689, 665.503 560.346, 671.675 566.344 C 678.975 573.438, 685.995 575.456, 697.129 573.660 C 706.353 572.173, 716.467 558.234, 716.467 547.009 C 716.467 541.011, 712.994 532.850, 708.322 527.869 C 702.542 521.707, 690.498 517.751, 684 519.879 M 585.030 584.053 C 578.362 586.876, 572.962 593.244, 573.033 598.200 L 573.067 600.500 575.110 598 C 582.664 588.757, 582.267 589, 589.793 589 C 601.077 589, 605.205 591.534, 609.689 601.210 C 611.778 605.719, 612.287 606.237, 613.137 604.719 C 615.434 600.616, 608.734 589.435, 601.886 585.942 C 597.085 583.492, 588.599 582.541, 585.030 584.053 M 184.451 611.841 C 177.608 613.092, 173.767 615.965, 170.856 622.010 C 168.310 627.296, 163.490 651.667, 158.496 684.500 C 154.347 711.775, 148.886 743.695, 148.024 745.712 L 147.078 747.923 100.289 747.308 C 54.482 746.706, 53.416 746.736, 49.500 748.740 C 44.478 751.310, 42.701 753.401, 41.034 758.701 C 38.675 766.200, 41.823 773.216, 50.078 778.858 C 53.449 781.161, 53.582 781.516, 55.864 794.358 C 57.148 801.586, 59.046 811.325, 60.082 816 C 61.118 820.675, 63.163 829.900, 64.627 836.500 C 66.091 843.100, 67.641 850.913, 68.073 853.863 C 68.505 856.813, 70.007 864.238, 71.410 870.363 C 72.814 876.488, 75.365 888.025, 77.079 896 C 78.793 903.975, 80.820 912.300, 81.583 914.500 C 82.346 916.700, 82.978 919.175, 82.986 920 C 83.020 923.274, 88.902 933.706, 92.491 936.858 C 103.387 946.425, 102.320 946.363, 257.500 946.437 L 387.500 946.500 394.945 943.783 C 407.685 939.134, 412.240 932.112, 416.930 909.888 C 418.600 901.975, 420.182 894.600, 420.446 893.500 C 421.213 890.305, 428.663 851.420, 430.504 841 C 433.258 825.419, 435.992 810.762, 436.940 806.500 C 437.430 804.300, 438.635 797.707, 439.619 791.848 L 441.407 781.196 444.713 780.659 C 454.408 779.086, 459.650 767.664, 455.471 757.219 C 452.414 749.579, 452.740 749.637, 405.799 748.505 C 376.227 747.792, 363.753 747.156, 362.916 746.317 C 361.220 744.619, 343.675 676.779, 338.395 651.500 C 335.942 639.758, 330.337 622.698, 327.924 619.630 C 324.893 615.777, 321.450 614.310, 312.459 613.041 C 303.262 611.743, 190.757 610.688, 184.451 611.841 M 177.997 621.509 C 176.252 626.098, 175.135 631.948, 168.352 672 C 159.772 722.670, 157.017 739.966, 157.042 743 C 157.058 744.884, 158.180 746.178, 161.593 748.250 C 168.805 752.628, 169.407 752.272, 170.784 742.828 C 172.310 732.356, 184.827 664.107, 187.167 653.500 C 188.895 645.668, 190.881 641.743, 194.754 638.504 C 198.290 635.548, 198.529 635.501, 212.719 635.004 C 227.732 634.478, 265.922 635.368, 291.305 636.835 C 307.760 637.786, 310.006 638.630, 313.212 645.065 C 314.768 648.188, 320.607 670.426, 330.392 710.500 C 332.406 718.750, 334.946 728.650, 336.035 732.500 C 337.125 736.350, 338.540 741.638, 339.180 744.250 C 340.550 749.842, 342.137 750.257, 348.750 746.754 C 351.593 745.249, 352.998 743.841, 352.993 742.502 C 352.983 739.849, 345.867 710.706, 339.929 689 C 339.402 687.075, 338.563 683.700, 338.064 681.500 C 335.999 672.391, 324.844 629.317, 323.578 625.562 C 322.330 621.860, 321.823 621.433, 317.854 620.747 C 315.459 620.332, 283.247 619.715, 246.272 619.374 L 179.044 618.755 177.997 621.509 M 777.643 620.834 C 775.699 621.204, 774 624.810, 774 628.565 C 774 630.811, 774.377 631, 778.865 631 C 785.016 631, 788.615 628.422, 789.177 623.614 L 789.575 620.198 784.488 620.349 C 781.689 620.432, 778.609 620.650, 777.643 620.834 M 203.859 641.712 C 201.052 641.947, 198.572 642.815, 197.582 643.910 C 196.565 645.033, 194.608 652.691, 192.420 664.109 C 190.482 674.224, 186.642 693.975, 183.889 708 C 181.135 722.025, 178.623 736.474, 178.308 740.110 L 177.733 746.720 190.617 747.229 C 197.703 747.510, 226.450 747.806, 254.500 747.888 C 282.550 747.970, 308.714 748.311, 312.642 748.646 C 316.569 748.982, 322.757 748.938, 326.392 748.549 C 331.909 747.958, 333 747.534, 333 745.984 C 333 741.369, 308.797 647.389, 307.190 645.764 C 305.674 644.231, 302.433 643.973, 279.486 643.552 C 252.810 643.063, 222.365 642.177, 213.500 641.631 C 210.750 641.461, 206.412 641.498, 203.859 641.712 M 567.250 669.704 C 564.479 670.065, 564 670.529, 564 672.861 C 564 675.116, 565.067 676.276, 570.089 679.475 C 576.794 683.746, 576.360 682.362, 574.417 693.276 C 573.886 696.256, 574.320 697.002, 579.212 701.526 C 582.170 704.262, 585.643 707.175, 586.929 708 C 588.216 708.825, 592.365 711.862, 596.150 714.750 C 604.163 720.865, 609 721.881, 609 717.450 C 609 714.359, 607.438 711.234, 601.799 703.047 C 599.435 699.614, 596.280 694.986, 594.789 692.763 C 593.298 690.540, 591.160 687.866, 590.039 686.822 C 588.917 685.777, 588 684.025, 588 682.928 C 588 680.848, 583.607 671.471, 582.269 670.696 C 580.962 669.938, 570.678 669.259, 567.250 669.704 M 700.605 670.115 C 698.463 670.618, 695.027 672.550, 692.970 674.408 C 690.913 676.267, 687.587 678.381, 685.580 679.107 C 681.505 680.581, 680.904 682.017, 681.262 689.433 C 681.464 693.623, 681.199 694.452, 679.500 694.933 C 678.400 695.245, 671.528 698.796, 664.228 702.825 C 645.875 712.954, 637.449 716.689, 615.500 724.425 C 605.050 728.108, 594.623 731.793, 592.329 732.613 C 590.035 733.434, 587.732 734.644, 587.211 735.303 C 585.890 736.973, 584.134 781.786, 582.400 858.091 L 581.773 885.682 592.136 886.802 C 609.649 888.694, 621.765 889.157, 652.208 889.095 C 678.236 889.042, 683.175 888.765, 696.531 886.610 C 712.565 884.022, 721.197 881.672, 723.102 879.377 C 723.938 878.370, 724.124 873.984, 723.747 864.230 C 723.170 849.339, 722.674 847, 720.089 847 C 719.156 847, 716.074 845.845, 713.241 844.433 C 708.837 842.238, 707.650 840.988, 705.069 835.822 C 703.408 832.498, 701.770 828.292, 701.429 826.474 C 700.997 824.172, 700.131 822.999, 698.576 822.608 C 694.380 821.555, 692.815 814.632, 691.091 789.500 C 689.569 767.301, 686.100 730.950, 685.003 725.701 C 683.634 719.152, 683.667 719, 686.450 719 C 687.798 719, 689.359 718.212, 689.920 717.250 C 690.700 715.911, 690.946 716.832, 690.970 721.174 C 690.986 724.294, 691.445 729.019, 691.989 731.674 C 692.532 734.328, 693.693 742.350, 694.567 749.500 C 697.746 775.499, 698.959 785.508, 698.979 785.906 C 699.032 786.927, 729.668 784.841, 736.426 783.356 L 744 781.692 744 775.266 C 744 749.583, 733.470 706.316, 722.747 687.935 C 717.638 679.178, 711.617 671.025, 710.250 671.012 C 709.563 671.005, 709 670.550, 709 670 C 709 668.814, 705.973 668.855, 700.605 670.115 M 592.141 672.892 C 591.070 673.570, 591.011 674.470, 591.861 677.127 C 592.455 678.982, 593.199 682.188, 593.516 684.250 C 593.993 687.365, 594.492 688, 596.456 688 C 599.686 688, 604.005 682.793, 603.278 679.776 C 601.971 674.356, 595.825 670.557, 592.141 672.892 M 605.274 672.809 C 604.404 673.362, 605.474 675.350, 608.964 679.664 C 614.156 686.081, 615.522 687, 619.859 687 C 623.861 687, 634 679.331, 634 676.304 C 634 675.587, 634.563 674.963, 635.250 674.919 C 635.938 674.874, 635.150 674.219, 633.500 673.464 C 630.213 671.959, 607.444 671.431, 605.274 672.809 M 659.139 676.755 C 657.138 678.827, 652.988 683.218, 649.917 686.512 C 645.596 691.147, 625.115 710.340, 624.348 710.473 C 624.264 710.488, 624.039 711.625, 623.848 713 C 623.581 714.919, 623.990 715.570, 625.608 715.801 C 627.857 716.122, 661.147 701.359, 669.500 696.336 L 674.500 693.329 674.592 686.914 C 674.719 677.997, 674.718 678, 677.393 678 C 678.709 678, 680.045 677.325, 680.362 676.500 C 680.678 675.675, 681.825 675, 682.910 675 C 683.994 675, 685.102 674.644, 685.370 674.210 C 685.639 673.775, 680.666 673.322, 674.319 673.203 L 662.779 672.986 659.139 676.755 M 640.362 676.572 C 638.788 678.047, 635.170 680.987, 632.323 683.105 C 627.122 686.973, 623.445 690.994, 628.043 687.785 C 629.394 686.842, 632.447 684.891, 634.826 683.449 C 638.803 681.038, 639.293 680.955, 640.904 682.413 C 643.664 684.911, 647.844 684.468, 648.564 681.602 C 650.371 674.403, 645.718 671.550, 640.362 676.572 M 553.415 679.481 C 548.691 682.576, 544.296 689.109, 538.021 702.362 C 529.858 719.599, 525.878 732.314, 521.025 756.657 C 518.052 771.569, 517.991 771.280, 524.750 774.276 C 531.819 777.409, 537.488 778.987, 541.705 778.994 C 544.637 779, 544.960 778.682, 545.501 775.250 C 547.406 763.171, 548.508 757.363, 550.769 747.500 C 552.155 741.450, 553.562 733.144, 553.895 729.041 C 554.443 722.289, 554.721 721.531, 556.828 721.037 C 558.562 720.630, 559.641 719.116, 561.054 715.103 C 565.461 702.589, 564.960 708.549, 558.502 745.500 C 552.881 777.660, 550.209 808.635, 549.918 845 C 549.645 879.168, 549.679 879.690, 552.250 880.305 C 553.487 880.601, 557.200 881.538, 560.500 882.386 C 563.800 883.235, 568.346 883.945, 570.603 883.964 L 574.707 884 575.353 876.349 C 575.709 872.141, 576 853.583, 576 835.108 C 576 790.801, 578.632 740.657, 581.248 735.141 C 582.079 733.388, 585.105 731.173, 590.250 728.552 C 601.123 723.014, 600.968 722.410, 585.825 711.314 C 582.346 708.765, 577.524 704.952, 575.109 702.840 C 572.694 700.728, 570.155 699, 569.467 699 C 568.580 699, 568.767 697.919, 570.108 695.289 C 572.058 691.464, 572.462 688.367, 571.379 685.545 C 570.576 683.453, 565.811 681, 562.550 681 C 561.147 681, 559.207 680.207, 558.238 679.238 C 556.554 677.554, 556.338 677.565, 553.415 679.481 M 634.500 688.982 C 632.300 690.004, 628.250 691.695, 625.500 692.741 L 620.500 694.641 620.204 701.321 C 619.928 707.572, 620.046 708, 622.050 708 C 626.450 708, 637 698.480, 637 694.509 C 637 693.277, 637.933 691.084, 639.073 689.635 C 641.551 686.484, 640.271 686.302, 634.500 688.982 M 603.187 693.639 C 602.987 698.972, 610.508 713, 613.568 713 C 616.126 713, 617 709.959, 617 701.060 C 617 695.532, 616.900 695.323, 613.466 693.685 C 611.522 692.758, 608.912 692, 607.666 692 C 606.420 692, 604.934 691.534, 604.363 690.963 C 603.648 690.248, 603.284 691.077, 603.187 693.639 M 597.927 741.073 C 596.060 742.940, 595.998 743.364, 597.299 745.323 C 599.315 748.360, 604.380 748.345, 604.813 745.302 C 605.213 742.488, 603.360 739, 601.465 739 C 600.659 739, 599.067 739.933, 597.927 741.073 M 635.571 741.571 C 633.511 743.632, 633.586 745.316, 635.829 747.345 C 638.121 749.419, 639.426 749.431, 641.463 747.395 C 642.492 746.365, 642.828 745.021, 642.399 743.645 C 641.215 739.847, 638.208 738.934, 635.571 741.571 M 350.321 752.189 C 347.143 753.725, 345.683 758.169, 346.223 764.671 C 346.827 771.962, 349.062 774, 356.456 774 C 363.602 774, 365.322 772.011, 365.817 763.177 C 366.135 757.496, 365.868 756.090, 364.023 753.750 C 362.191 751.426, 361.130 751.010, 357.177 751.068 C 354.605 751.105, 351.520 751.609, 350.321 752.189 M 51.250 753.706 C 49.148 754.111, 49.001 754.644, 49.015 761.820 C 49.024 766.044, 49.361 769.997, 49.765 770.605 C 50.721 772.041, 60.577 774.376, 62.528 773.628 C 63.355 773.310, 77.787 773.538, 94.599 774.133 C 111.410 774.728, 128.098 774.901, 131.683 774.517 L 138.200 773.819 137.508 770.660 C 137.126 768.922, 136.597 764.529, 136.331 760.897 L 135.847 754.295 125.268 753.647 C 113.838 752.948, 54.943 752.994, 51.250 753.706 M 146.455 755.455 C 144.576 757.333, 144 758.965, 144 762.407 C 144 767.553, 145.697 772, 147.661 772 C 148.397 772, 149 772.450, 149 773 C 149 774.145, 158.936 774.346, 160.600 773.235 C 162.703 771.831, 164 768.104, 164 763.467 C 164 759.538, 163.510 758.345, 160.894 755.901 C 156.726 752.007, 150.107 751.802, 146.455 755.455 M 195.899 753.768 L 173.298 754.037 172.634 764.170 C 172.269 769.743, 172.243 774.573, 172.576 774.902 C 172.909 775.231, 188.553 775.364, 207.341 775.197 C 226.128 775.031, 262.988 774.768, 289.251 774.613 C 315.515 774.457, 337.241 774.093, 337.531 773.802 C 337.822 773.512, 337.755 768.937, 337.382 763.637 L 336.705 754 329.102 753.835 C 315.522 753.541, 219.123 753.493, 195.899 753.768 M 374.448 755.500 C 373.973 757.098, 372.830 772.989, 373.181 773.106 C 375.553 773.896, 440.503 774.529, 443.634 773.793 C 447.369 772.915, 447.826 772.469, 448.373 769.161 C 449.195 764.185, 449.127 758.748, 448.225 757.329 C 447.815 756.685, 446.327 755.869, 444.918 755.516 C 440.506 754.408, 374.777 754.394, 374.448 755.500 M 598.835 777.732 C 594.772 778.664, 596.223 785, 600.500 785 C 603.024 785, 605.063 782.430, 604.278 780.239 C 603.671 778.545, 600.885 777.261, 598.835 777.732 M 635.200 779.200 C 633.345 781.055, 633.775 783.729, 636.204 785.430 C 638.081 786.745, 638.710 786.773, 640.454 785.617 C 642.951 783.962, 643.577 781.400, 641.960 779.452 C 640.499 777.691, 636.845 777.555, 635.200 779.200 M 64.094 782.386 C 62.247 784.612, 63.126 793.555, 66.906 811 C 71.685 833.057, 75.011 848.242, 75.994 852.500 C 76.502 854.700, 78.332 863.250, 80.060 871.500 C 85.569 897.792, 91.233 921.374, 93.029 925.500 C 95.233 930.564, 99.380 934.388, 104.500 936.081 C 107.735 937.151, 135.376 937.421, 249 937.496 C 400.180 937.595, 396.724 937.709, 400.824 932.497 C 404.333 928.035, 407.637 914.840, 415.969 872 C 418.269 860.175, 421.258 845.100, 422.612 838.500 C 426.935 817.426, 430.896 795.471, 431.581 788.785 C 432.220 782.550, 432.153 782.273, 429.873 781.662 C 428.568 781.313, 421.988 781.021, 415.250 781.014 L 403 781 403 783.441 C 403 784.784, 403.472 786.174, 404.049 786.530 C 404.712 786.940, 404.752 787.605, 404.159 788.339 C 403.311 789.388, 402.623 794.606, 400.255 817.942 L 399.500 825.385 375.772 825.671 L 352.044 825.958 352.489 821.729 C 352.734 819.403, 353.184 809.955, 353.489 800.734 L 354.044 783.967 351.457 782.984 C 348.275 781.774, 344.953 781.744, 343.113 782.909 C 341.933 783.656, 341.955 786.666, 343.264 803.144 C 344.110 813.790, 345.120 823.288, 345.508 824.251 C 346.170 825.892, 344.776 825.986, 323.141 825.753 L 300.067 825.505 300.553 813.002 C 300.820 806.126, 301.236 797.073, 301.478 792.884 C 302.009 783.661, 300.994 781.692, 295.956 782.171 L 292.500 782.500 292.283 799 C 292.163 808.075, 292.473 817.750, 292.971 820.500 C 293.720 824.639, 293.599 825.712, 292.270 826.733 C 291.120 827.616, 290.299 827.663, 289.376 826.897 C 288.535 826.199, 281.498 825.926, 269.072 826.109 C 251.357 826.369, 246.883 825.927, 249.691 824.191 C 250.437 823.730, 251.051 816.618, 251.486 803.370 L 252.148 783.250 248.634 782.591 C 243.517 781.631, 239.998 782.761, 240.010 785.358 C 240.047 793.558, 242.222 821.453, 242.980 823.446 C 243.747 825.464, 243.567 826.003, 241.955 826.514 C 240.880 826.856, 240 827.640, 240 828.259 C 240 828.877, 239.429 828.601, 238.730 827.646 C 237.614 826.119, 235.225 825.884, 218.980 825.705 L 200.500 825.500 200.822 804.192 L 201.143 782.885 196.322 783.192 L 191.500 783.500 191.735 800.865 C 191.864 810.416, 192.416 819.846, 192.961 821.821 C 194.150 826.127, 192.967 827.323, 188.500 826.329 C 186.850 825.962, 178.075 825.692, 169 825.728 L 152.500 825.793 152.822 804.899 L 153.145 784.006 150.507 783.003 C 149.057 782.451, 146.549 782, 144.935 782 L 142 782 142.010 789.750 C 142.020 797.727, 144.378 821.332, 145.431 824 C 145.949 825.313, 143.023 825.465, 122 825.221 C 107.690 825.055, 97.238 825.337, 96.150 825.920 C 94.469 826.819, 94.114 825.761, 91.703 812.699 C 90.262 804.889, 88.592 795.125, 87.991 791 C 87.391 786.875, 86.548 783.148, 86.118 782.718 C 85.688 782.289, 80.867 781.665, 75.404 781.332 C 66.889 780.813, 65.275 780.963, 64.094 782.386 M 92.605 781.680 C 90.850 782.164, 90.760 782.916, 91.390 791.851 C 91.764 797.158, 92.842 806, 93.785 811.500 L 95.500 821.500 101.373 821.804 L 107.246 822.107 106.549 811.304 C 105.736 798.694, 104.228 782.890, 103.798 782.475 C 103.120 781.820, 94.357 781.197, 92.605 781.680 M 110.430 782.282 C 107.852 783.574, 107.717 787.844, 109.639 807.207 C 110.388 814.746, 111 821.046, 111 821.207 C 111 821.482, 132.650 821.422, 137.907 821.133 L 140.314 821 139.638 802.281 C 139.266 791.986, 138.583 783.183, 138.120 782.720 C 137.041 781.641, 128.842 781.512, 122.880 782.481 C 119.803 782.980, 118.030 782.858, 117.571 782.115 C 116.743 780.774, 113.279 780.855, 110.430 782.282 M 360.750 782.730 L 357 784.271 357 802.636 L 357 821 366.250 821.216 C 375.407 821.430, 384.138 821.203, 384.586 820.740 C 384.713 820.608, 385.145 811.837, 385.546 801.250 L 386.275 782 382.888 781.916 C 381.024 781.870, 376.125 781.688, 372 781.511 C 366.884 781.292, 363.308 781.679, 360.750 782.730 M 514.175 787.355 C 512.542 796.214, 512.670 798.946, 514.750 799.683 C 515.712 800.025, 517.175 800.817, 518 801.445 C 521.145 803.837, 535.815 807.443, 540 806.853 C 542.459 806.506, 542.505 806.333, 542.785 796.250 C 543.048 786.787, 542.926 786, 541.192 786 C 540.158 786, 536.880 785.169, 533.907 784.152 C 530.933 783.136, 525.541 782.007, 521.925 781.642 L 515.349 780.980 514.175 787.355 M 257.853 782.670 C 256.947 782.910, 255.940 784.096, 255.616 785.304 C 254.841 788.194, 254.851 803.440, 255.635 813.500 L 256.258 821.500 272.379 821.500 L 288.500 821.500 288.795 805 C 288.957 795.925, 288.824 787.038, 288.500 785.250 L 287.909 782 273.705 782.116 C 265.892 782.180, 258.759 782.429, 257.853 782.670 M 305.473 785.884 C 304.682 789.973, 304.647 819.980, 305.432 820.765 C 306.401 821.734, 324.764 822.257, 332.465 821.535 L 340.188 820.812 339.844 802.488 C 339.655 792.410, 339.275 783.960, 339 783.710 C 338.725 783.460, 331.226 783.033, 322.336 782.762 L 306.172 782.268 305.473 785.884 M 390.389 783.180 C 389.025 785.387, 387.491 817.968, 388.663 819.841 C 390.057 822.067, 394.381 822.477, 396.294 820.563 C 398.140 818.718, 399.045 810.891, 399.307 794.500 L 399.500 782.500 395.342 782.197 C 392.742 782.008, 390.886 782.376, 390.389 783.180 M 157.546 785.366 C 156.638 786.805, 156.285 790.105, 156.464 795.500 C 156.610 799.900, 156.790 807.663, 156.865 812.750 L 157 822 170.918 822 C 178.573 822, 185.548 821.727, 186.418 821.393 C 187.768 820.875, 188 818.474, 188 805.018 C 188 796.346, 187.734 787.922, 187.410 786.298 L 186.819 783.347 172.857 783.289 C 159.658 783.235, 158.820 783.349, 157.546 785.366 M 209.954 784.028 C 209.254 784.461, 208.191 784.631, 207.591 784.407 C 204.418 783.221, 202.910 799.275, 204.639 815.820 L 205.278 821.933 221.639 821.787 L 238 821.641 238 805.446 C 238 796.538, 237.730 787.898, 237.399 786.246 L 236.798 783.241 224.013 783.241 C 216.981 783.241, 210.655 783.595, 209.954 784.028 M 736.904 790.430 C 735.906 791.427, 714.593 794, 707.326 794 L 700 794 700.014 802.750 C 700.036 816.871, 699.158 816, 713.367 815.999 C 725.806 815.997, 739.935 814.099, 744.776 811.779 C 747.472 810.486, 747.500 810.372, 747.500 800.487 L 747.500 790.500 742.462 790.205 C 739.690 790.043, 737.189 790.144, 736.904 790.430 M 524 816.017 C 524 819.585, 524.566 820.798, 527.542 823.604 C 531.280 827.129, 537.778 829.683, 540.425 828.667 C 541.619 828.209, 542 826.593, 542 821.980 C 542 816.062, 541.912 815.861, 538.750 814.547 C 536.962 813.803, 532.913 812.874, 529.750 812.482 L 524 811.770 524 816.017 M 596.391 817.526 C 594.842 819.891, 594.850 820.177, 596.523 822.026 C 598.755 824.492, 601.198 824.544, 603.345 822.171 C 605.411 819.888, 605.431 818.574, 603.429 816.571 C 601.123 814.266, 598.274 814.652, 596.391 817.526 M 633.950 816.560 C 631.915 819.012, 633.896 823.426, 637.206 823.810 C 640.780 824.226, 643.692 820.161, 642.036 817.067 C 640.699 814.569, 635.855 814.265, 633.950 816.560 M 720.750 821.804 L 708 823.318 708 826.511 C 708 835.974, 720.074 842.550, 730.258 838.635 C 736.074 836.398, 739 831.898, 739 825.188 C 739 819.115, 740.713 819.433, 720.750 821.804 M 95.189 833.616 C 95.470 834.691, 96.981 843.304, 98.547 852.758 L 101.394 869.946 121.516 869.320 C 141.365 868.702, 141.665 868.724, 143.691 870.899 C 145.613 872.962, 145.797 872.988, 146.532 871.302 C 146.964 870.311, 147.245 869.159, 147.156 868.743 C 147.068 868.327, 146.531 861.454, 145.964 853.471 C 144.487 832.661, 145.460 833.956, 131.788 834.606 C 120.118 835.160, 99.944 833.949, 96.589 832.492 C 95.013 831.808, 94.768 832.005, 95.189 833.616 M 238.791 833.127 C 238.448 834.156, 234.444 834.455, 220.759 834.475 C 211.084 834.489, 202.793 834.873, 202.334 835.330 C 201.156 836.502, 200.282 869.932, 201.419 870.308 C 201.925 870.476, 205.156 870.235, 208.599 869.774 C 212.042 869.313, 220.179 869.062, 226.680 869.218 L 238.500 869.500 238.810 873.250 L 239.121 877 221.260 877 C 210.504 877, 202.996 877.404, 202.384 878.016 C 200.987 879.413, 201.828 909.747, 203.354 913 L 204.527 915.500 223.513 915.500 L 242.500 915.500 242.490 895.580 C 242.482 880.566, 242.173 875.558, 241.233 875.244 C 240.331 874.944, 240.534 874.059, 241.963 872.051 C 243.051 870.524, 243.757 869.090, 243.532 868.866 C 243.308 868.641, 242.843 860.817, 242.500 851.479 C 242.058 839.465, 241.489 834.106, 240.554 833.152 C 239.464 832.040, 239.155 832.036, 238.791 833.127 M 251.483 836.435 C 250.673 841.039, 251.377 869.410, 252.318 870.101 C 252.768 870.432, 255.468 870.268, 258.318 869.738 C 261.168 869.207, 270.250 868.991, 278.500 869.257 L 293.500 869.741 292.850 857.121 C 292.492 850.179, 292.154 841.864, 292.100 838.642 L 292 832.783 289.250 833.505 C 285.238 834.557, 265.298 834.935, 258.161 834.094 L 252.021 833.370 251.483 836.435 M 395.583 833.750 C 395.171 834.163, 385.827 834.566, 374.819 834.648 C 361.233 834.748, 354.435 835.165, 353.652 835.947 C 352.909 836.690, 352.377 842.844, 352.152 853.299 L 351.805 869.500 373.357 869.500 L 394.909 869.500 395.509 867.110 C 396.355 863.737, 397.926 845.609, 397.966 838.750 C 397.998 833.352, 397.347 831.986, 395.583 833.750 M 153.810 837.750 C 153.640 839.813, 153.636 847.957, 153.802 855.850 L 154.105 870.199 167.302 869.572 C 174.561 869.226, 183.200 869.355, 186.500 869.857 C 190.517 870.468, 192.929 870.424, 193.797 869.723 C 194.573 869.097, 194.705 868.436, 194.127 868.078 C 193.594 867.749, 192.833 859.947, 192.436 850.740 L 191.713 834 172.917 834 L 154.121 834 153.810 837.750 M 301.665 835.903 C 300.920 836.800, 300.375 843.114, 300.152 853.403 L 299.804 869.500 322.652 869.500 L 345.500 869.500 344.857 853 C 344.503 843.925, 344.165 836.050, 344.105 835.500 C 344.036 834.869, 336.396 834.500, 323.413 834.500 C 306.969 834.500, 302.595 834.782, 301.665 835.903 M 101 844.611 C 101 853.524, 102.855 864.064, 104.817 866.297 C 105.750 867.359, 107.440 867.973, 108.948 867.797 C 111.299 867.523, 111.522 867.066, 111.779 862 C 111.932 858.975, 111.476 852.450, 110.764 847.500 L 109.469 838.500 105.235 838.193 L 101 837.885 101 844.611 M 116.628 838.668 L 112.757 839.135 113.409 845.318 C 113.767 848.718, 114.548 854.987, 115.145 859.250 L 116.230 867 122.968 867 C 126.674 867, 132.530 866.705, 135.980 866.344 L 142.254 865.689 141.790 852.841 C 141.535 845.775, 141.088 839.754, 140.796 839.463 C 140.052 838.719, 121.313 838.103, 116.628 838.668 M 161.500 838.947 C 158.611 839.491, 158.488 839.733, 158.174 845.506 C 157.995 848.803, 158.146 854.763, 158.510 858.750 L 159.171 866 174.229 866 L 189.287 866 188.758 852.948 C 188.467 845.769, 188.065 839.752, 187.864 839.576 C 187.138 838.938, 164.422 838.397, 161.500 838.947 M 205 852.500 L 205 866 208.250 866.188 C 210.037 866.291, 213.300 866.480, 215.500 866.608 C 217.700 866.736, 223.887 866.594, 229.250 866.292 L 239 865.742 238.989 856.121 C 238.983 850.830, 238.699 844.813, 238.358 842.750 L 237.738 839 221.369 839 L 205 839 205 852.500 M 256 852.346 L 256 865.742 264.123 866.450 C 268.591 866.840, 276.029 866.844, 280.652 866.459 L 289.056 865.759 288.778 852.629 L 288.500 839.500 272.250 839.225 L 256 838.950 256 852.346 M 305.667 839.667 C 305.300 840.033, 305 846.261, 305 853.505 L 305 866.677 316.750 866.526 C 323.212 866.443, 331.313 866.291, 334.750 866.187 L 341 866 341 852.500 L 341 839 323.667 839 C 314.133 839, 306.033 839.300, 305.667 839.667 M 357.667 839.667 C 357.300 840.033, 357 846.073, 357 853.087 L 357 865.841 363.500 866.537 C 367.075 866.920, 372.866 866.926, 376.368 866.551 L 382.737 865.869 383.360 860.684 C 383.702 857.833, 383.987 851.788, 383.991 847.250 L 384 839 371.167 839 C 364.108 839, 358.033 839.300, 357.667 839.667 M 388.556 839.910 C 388.247 840.410, 387.700 846.935, 387.342 854.410 L 386.690 868 389.845 868 C 392.992 868, 393 867.986, 393 862.654 C 393 859.713, 393.292 853.188, 393.650 848.154 L 394.299 839 391.709 839 C 390.284 839, 388.865 839.409, 388.556 839.910 M 596.017 851.479 C 593.884 854.049, 596.280 858.219, 599.658 857.816 C 603.057 857.409, 604.903 854.660, 603.394 852.250 C 601.947 849.939, 597.667 849.491, 596.017 851.479 M 634.932 852.126 C 633.278 855.217, 635.211 859, 638.443 859 C 643.185 859, 643.980 852.357, 639.446 850.618 C 636.866 849.628, 636.140 849.871, 634.932 852.126 M 103.227 882.316 C 104.364 891.939, 107.758 911.092, 108.448 911.781 C 109.697 913.030, 109.606 910.837, 107.832 897.005 C 106.810 889.033, 106.191 881.946, 106.456 881.255 C 107.081 879.625, 112.925 879.621, 113.516 881.250 C 114.047 882.715, 115.879 897.666, 116.671 907 C 117.027 911.196, 117.783 913.943, 118.803 914.750 C 119.880 915.602, 124.446 916, 133.156 916 C 144.504 916, 146.039 915.796, 146.908 914.173 C 147.866 912.382, 147.633 896.903, 146.426 882.250 C 145.870 875.489, 144.984 873.598, 143.500 876 C 142.706 877.285, 106.513 877.345, 104.123 876.066 C 102.503 875.199, 102.439 875.650, 103.227 882.316 M 155.339 892.561 C 156.033 910.152, 156.979 914.492, 160.313 915.386 C 161.516 915.709, 168.880 915.979, 176.679 915.986 C 187.675 915.997, 191.179 915.678, 192.292 914.565 C 193.456 913.401, 193.649 910.059, 193.316 896.815 C 193.090 887.842, 192.721 879.600, 192.496 878.500 C 192.104 876.586, 191.283 876.500, 173.396 876.500 L 154.705 876.500 155.339 892.561 M 252 894.178 C 252 907.381, 252.356 913.105, 253.254 914.332 C 254.373 915.863, 256.493 916.018, 273.004 915.774 L 291.500 915.500 292 903.347 C 292.275 896.663, 292.354 887.843, 292.176 883.747 L 291.852 876.300 286.676 877.264 C 281.564 878.216, 263.027 877.702, 255.750 876.406 L 252 875.738 252 894.178 M 384.466 877.054 C 383.897 877.975, 380.104 878.148, 369.322 877.744 C 357.167 877.289, 354.697 877.446, 353.387 878.756 C 352.082 880.061, 351.889 882.939, 352.168 896.903 C 352.351 906.031, 352.864 914.063, 353.309 914.750 C 353.905 915.670, 358.666 916, 371.368 916 C 383.609 916, 389.103 915.637, 390.290 914.750 C 392.434 913.148, 393.868 903.027, 394.010 888.500 C 394.144 874.674, 394.218 875.382, 392.800 876.800 C 391.304 878.296, 387.758 878.358, 386.313 876.913 C 385.530 876.130, 385.013 876.170, 384.466 877.054 M 300.870 879.242 C 299.663 881.497, 300.050 912.805, 301.309 914.750 C 301.911 915.681, 307.180 916, 321.937 916 C 336.597 916, 342.012 915.675, 342.744 914.750 C 344.203 912.906, 345.171 896.300, 344.405 886.250 L 343.739 877.500 322.824 877.400 C 303.087 877.306, 301.851 877.410, 300.870 879.242 M 120.101 881.061 C 117.745 882.028, 117.713 882.213, 118.321 891.273 C 118.662 896.348, 119.241 902.638, 119.607 905.250 L 120.272 910 132.257 910 L 144.241 910 143.527 896.250 C 143.134 888.688, 142.475 882.143, 142.063 881.707 C 140.908 880.484, 122.805 879.952, 120.101 881.061 M 162.752 880.652 C 160.890 880.978, 159.809 881.913, 159.396 883.557 C 158.773 886.040, 160.534 907.437, 161.488 908.981 C 161.779 909.452, 168.384 909.884, 176.165 909.941 L 190.313 910.045 189.668 895.867 C 189.314 888.070, 188.809 881.476, 188.548 881.215 C 187.879 880.545, 166.080 880.070, 162.752 880.652 M 209.248 880.685 C 208.009 880.935, 206.543 881.985, 205.990 883.018 C 204.961 884.941, 205.736 906.968, 206.898 908.822 C 207.229 909.350, 214.700 909.943, 223.500 910.141 L 239.500 910.500 239.266 896.099 C 239.137 888.178, 238.906 881.573, 238.753 881.419 C 238.227 880.894, 211.503 880.229, 209.248 880.685 M 260.500 880.964 L 256.500 881.500 256.223 895.643 L 255.946 909.785 271.723 910.213 C 280.400 910.449, 287.873 910.326, 288.330 909.941 C 289.544 908.916, 289.701 883.288, 288.500 882.167 C 287.334 881.079, 266.364 880.178, 260.500 880.964 M 305.520 882.623 C 304.094 884.049, 303.892 886.134, 304.172 896.569 C 304.352 903.318, 304.731 909.069, 305.013 909.350 C 305.753 910.085, 333.885 910.859, 337.750 910.250 L 341 909.738 341 896.492 C 341 887.102, 340.635 882.942, 339.748 882.206 C 339.013 881.595, 332.034 881.121, 322.846 881.057 C 309.441 880.963, 306.955 881.187, 305.520 882.623 M 362.250 881.688 L 357 882.105 357 895.951 L 357 909.797 363.750 910.397 C 367.462 910.728, 372.947 910.661, 375.938 910.249 C 381.094 909.539, 381.422 909.319, 382.288 906 C 383.324 902.024, 382.835 883.502, 381.663 882.330 C 380.773 881.439, 369.913 881.081, 362.250 881.688 M 389.370 891 C 389.370 896.775, 389.535 899.138, 389.737 896.250 C 389.939 893.362, 389.939 888.638, 389.737 885.750 C 389.535 882.862, 389.370 885.225, 389.370 891 M 562.015 890.621 C 562.024 892.205, 562.396 894.076, 562.843 894.781 C 563.813 896.309, 573.165 900, 576.068 900 C 577.857 900, 578.076 899.466, 577.807 895.757 C 577.449 890.809, 575.630 889.548, 567.250 888.438 L 562 887.742 562.015 890.621 M 702.888 891.445 C 702.643 891.690, 699.305 892.385, 695.471 892.990 C 691.637 893.594, 686.813 894.536, 684.750 895.083 C 681.301 895.997, 681 896.364, 681 899.655 L 681 903.233 687.458 902.541 C 691.010 902.161, 697.198 900.855, 701.208 899.638 C 708.145 897.534, 708.515 897.270, 708.813 894.213 C 709.101 891.263, 708.890 891, 706.230 891 C 704.637 891, 703.133 891.200, 702.888 891.445 M 579 896.878 L 579 900.757 585.708 902.442 C 589.397 903.368, 596.216 904.395, 600.861 904.723 L 609.307 905.319 608.607 900.947 C 608.223 898.542, 607.817 896.493, 607.704 896.392 C 607.199 895.939, 585.130 893, 582.235 893 C 579.144 893, 579 893.173, 579 896.878 M 664.500 896.687 C 653.528 897.251, 651.998 897.754, 652.015 900.795 C 652.044 905.829, 653.024 906.318, 661.638 905.603 C 678.227 904.225, 679 904.042, 679 901.488 C 679 897.077, 678.002 895.989, 674.143 896.189 C 672.139 896.293, 667.800 896.517, 664.500 896.687 M 614.250 897.656 C 612.867 898.221, 612.586 902.800, 613.816 904.737 C 614.782 906.258, 631.482 907.120, 641.500 906.166 C 648.026 905.545, 648.518 905.331, 648.759 903 C 649.261 898.158, 648.380 897.879, 631.396 897.500 C 622.653 897.304, 614.938 897.374, 614.250 897.656 M 563.607 900.582 C 562.101 904.506, 564.092 913.444, 566.794 914.890 C 567.732 915.392, 570.638 916.123, 573.250 916.515 L 578 917.227 578 910.065 L 578 902.902 573.750 900.973 C 568.548 898.612, 564.424 898.453, 563.607 900.582 M 692.250 903.262 C 681.974 905.547, 682.056 905.443, 684.207 913.486 C 685.259 917.419, 685.761 918, 688.102 918 C 691.550 918, 704.132 914.182, 705.693 912.662 C 706.349 912.023, 707.195 909.138, 707.572 906.250 L 708.258 901 704.879 901.102 C 703.020 901.158, 697.337 902.130, 692.250 903.262 M 580.181 910.497 C 580.408 914.071, 581.122 917.522, 581.767 918.167 C 582.522 918.922, 587.143 919.369, 594.720 919.420 L 606.500 919.500 606.793 913.451 L 607.085 907.401 596.293 905.691 C 590.357 904.750, 584.210 903.985, 582.634 903.990 L 579.767 904 580.181 910.497 M 672 906.533 C 671.175 906.724, 667.410 907.173, 663.633 907.532 L 656.767 908.184 657.419 913.104 C 658.559 921.692, 657.987 921.339, 669.756 920.738 C 675.497 920.445, 680.676 919.724, 681.264 919.136 C 681.993 918.407, 682.042 916.225, 681.417 912.283 C 680.509 906.559, 680.464 906.498, 677 906.343 C 675.075 906.257, 672.825 906.342, 672 906.533 M 696 919.582 C 690.482 921.359, 673.208 923.957, 666.750 923.982 C 662.656 923.997, 662 924.279, 662 926.021 C 662 927.133, 663.237 929.933, 664.750 932.244 C 670.894 941.629, 674.489 943.468, 686.733 943.486 L 695.966 943.500 699.937 939.500 C 703.336 936.076, 704.058 934.564, 704.946 929 C 706.573 918.820, 706.444 917.989, 703.250 918.067 C 701.737 918.104, 698.475 918.786, 696 919.582 M 566 920.818 C 566 924.369, 569.228 933.547, 571.565 936.643 C 575.642 942.042, 588.177 943.545, 595.886 939.559 C 599.364 937.760, 605 929.259, 605 925.811 C 605 923.313, 604.930 923.293, 593.750 922.658 C 587.563 922.306, 580.039 921.339, 577.032 920.509 C 569.477 918.424, 566 918.521, 566 920.818" stroke="none" fill-rule="evenodd"/></svg>