<svg xmlns="http://www.w3.org/2000/svg" width="1028" height="546" viewBox="0 0 1028 546" version="1.1"><path d="M 727.822 2.323 C 715.051 7.711, 706.521 18.401, 702.499 34.060 C 701.589 37.602, 700.524 40.833, 700.132 41.240 C 699.740 41.647, 696.973 40.141, 693.981 37.894 C 682.850 29.530, 673.714 26.527, 661.591 27.246 C 651.859 27.823, 645.878 30.228, 639.460 36.144 C 631.048 43.898, 627.866 51.797, 627.895 64.853 C 627.916 74.575, 630.498 83.055, 636.016 91.525 C 640.727 98.756, 651.459 109.298, 656.610 111.754 C 658.474 112.643, 660 113.694, 660 114.090 C 660 114.486, 658.087 115.942, 655.750 117.325 C 649.733 120.886, 643.481 127.657, 640.813 133.500 C 639.045 137.372, 638.527 140.317, 638.515 146.552 C 638.501 153.919, 638.834 155.279, 642.422 162.539 C 650.742 179.373, 666.859 189.467, 682.485 187.631 L 687.758 187.011 689.839 191.847 C 690.983 194.506, 692.891 200.226, 694.079 204.556 L 696.239 212.429 693.870 213.965 C 685.580 219.336, 679.866 226.785, 675.755 237.580 C 673.589 243.266, 673.502 244.703, 673.552 274 C 673.580 290.819, 674.405 317.879, 675.392 334.327 C 676.375 350.731, 677.008 364.326, 676.797 364.536 C 676.586 364.747, 674.408 362.399, 671.957 359.320 C 659.866 344.128, 639.300 331.914, 619.133 327.946 L 612.793 326.699 613.425 322.742 C 614.811 314.074, 620.170 303.183, 631.503 286 C 651.796 255.233, 656.210 243.778, 656.363 221.500 C 656.442 210.053, 656.170 207.783, 654.084 202.500 C 652.668 198.914, 650.146 194.991, 647.815 192.750 C 644.486 189.548, 643.257 189, 639.408 189 C 636.929 189, 633.671 189.636, 632.168 190.413 L 629.436 191.826 627.177 180.775 C 624.280 166.602, 620.076 155.776, 613.857 146.479 C 608.222 138.053, 602.799 133.023, 595.530 129.480 C 577.697 120.787, 558.849 126.196, 550.164 142.500 C 547.758 147.015, 547.503 148.519, 547.526 158 C 547.548 166.853, 547.970 169.639, 550.220 175.763 C 553.091 183.580, 559.928 196.233, 567.786 208.269 C 570.480 212.396, 573.896 219.042, 575.377 223.038 C 577.660 229.196, 586.060 264.456, 585.969 267.500 C 585.953 268.050, 583.652 264, 580.856 258.500 C 578.061 253, 573.768 245.676, 571.318 242.224 C 566.987 236.125, 566.882 235.796, 567.545 230.487 C 568.461 223.158, 567.430 217.772, 565.193 218.196 C 563.911 218.440, 563.379 219.909, 563 224.250 L 562.500 229.982 553.386 220.213 L 544.272 210.444 543.821 204.207 C 543.573 200.777, 542.876 197.476, 542.272 196.872 C 540.317 194.917, 539 197.004, 539 202.059 C 539 204.777, 538.718 207, 538.373 207 C 538.028 207, 533.963 203.625, 529.339 199.500 C 524.715 195.375, 520.553 192, 520.089 192 C 519.625 192, 518.726 192.626, 518.091 193.390 C 517.164 194.507, 518.469 196.179, 524.719 201.887 C 532.216 208.734, 532.391 208.994, 529.500 209.012 C 525.614 209.036, 523.550 210.386, 524.323 212.399 C 524.793 213.624, 526.365 214, 531.018 214 C 534.363 214, 538.336 214.640, 539.848 215.421 C 542.758 216.926, 557 231.408, 557 232.862 C 557 233.333, 553.298 233.808, 548.773 233.917 C 540.802 234.109, 538.659 234.948, 539.636 237.493 C 539.957 238.330, 543.058 238.536, 550.416 238.209 L 560.746 237.749 564.737 243.125 C 566.931 246.081, 571.628 254.125, 575.174 261 C 588.409 286.659, 599.079 314.117, 588.908 296.339 C 584.391 288.444, 572.815 274.744, 558.048 259.816 C 547.436 249.088, 544.808 246.951, 541.017 245.964 C 530.800 243.305, 523.152 237.974, 517.729 229.734 C 506.955 213.363, 506.174 191.095, 516.037 181.464 C 519.328 178.250, 520.729 177.605, 525.211 177.237 C 530.073 176.839, 530.991 177.132, 536.587 180.876 C 542.061 184.538, 545.278 188.057, 556.584 202.750 C 559.225 206.182, 562 207.053, 562 204.450 C 562 200.361, 550.663 184.316, 543.800 178.692 C 528.858 166.449, 514.284 169.012, 505.762 185.384 C 502.828 191.018, 502.173 205.760, 504.426 215.397 C 508.573 233.126, 519.043 244.281, 538.335 251.522 C 542.276 253.001, 545.747 256.034, 557.099 267.918 C 564.760 275.938, 573.711 286.100, 576.990 290.500 C 582.751 298.232, 593.182 317.785, 594.376 323.093 C 594.943 325.612, 594.721 325.744, 586.471 327.781 C 556.617 335.150, 533.306 353.741, 521.280 379.769 L 517.809 387.283 515.598 381.891 C 508.033 363.442, 493.944 351.461, 471.746 344.602 C 470.293 344.153, 470.780 343.273, 474.595 339.458 C 481.200 332.853, 486.060 321.885, 486.733 312.065 C 487.488 301.046, 487.229 300.925, 471.290 304.818 C 455.542 308.665, 447.534 312.500, 441.698 318.991 L 437.266 323.920 436.624 318.458 C 435.755 311.065, 433.379 305.497, 429.813 302.496 C 426.429 299.648, 423.436 299.373, 418.462 301.452 C 413.136 303.677, 412.458 306.793, 415.667 314.297 C 417.857 319.420, 418.401 322.471, 418.788 331.820 L 419.257 343.140 409.879 342.469 C 388.609 340.950, 370.249 346.732, 358.293 358.716 L 354.518 362.500 350.065 353.500 C 346.261 345.812, 344.073 342.963, 335.056 333.960 C 319.507 318.435, 306.473 312.376, 286.250 311.272 C 280.613 310.964, 276.001 310.440, 276.002 310.106 C 276.005 309.007, 287.502 294.128, 295.481 284.895 C 301.733 277.661, 303.741 275.932, 305.409 276.343 C 306.559 276.627, 310.398 277.643, 313.939 278.600 C 327.004 282.133, 340.755 276.720, 347.049 265.567 L 350.108 260.148 356.804 259.499 C 370.735 258.149, 381.700 253.075, 387.681 245.209 C 392.143 239.341, 393.572 234.181, 392.382 228.231 C 391.471 223.672, 391.569 223.336, 395.084 219 C 401.638 210.914, 403.451 206.378, 403.477 198 C 403.496 191.639, 403.049 189.610, 400.531 184.641 C 397.255 178.176, 392.204 173.314, 385.136 169.824 C 381.387 167.973, 378.831 167.532, 371.775 167.521 L 363.051 167.507 362.402 164.503 C 361.313 159.461, 357.278 152.412, 353.799 149.475 C 350.110 146.360, 341.403 142.025, 338.806 142.010 C 337.286 142.001, 337.172 140.939, 337.696 131.681 C 338.347 120.192, 337.144 114.723, 331.935 105.500 C 325.891 94.797, 312.918 85.421, 302.534 84.251 L 298.355 83.780 297.188 78.140 C 292.571 55.814, 264.028 43.491, 241.500 54.098 C 235.282 57.026, 228.440 63.751, 225.948 69.384 C 224.412 72.857, 223.296 73.912, 220.014 74.995 C 217.790 75.729, 215.522 76.871, 214.973 77.533 C 214.208 78.454, 213.004 78.256, 209.833 76.688 C 193.471 68.592, 171.608 80.254, 167.910 99.051 C 167.193 102.697, 166.232 105, 165.429 105 C 164.707 105, 162.666 102.277, 160.892 98.949 C 157.153 91.934, 153.629 88.659, 146.092 85.195 C 127.915 76.839, 107.079 89.013, 105.262 109.049 C 104.672 115.558, 106.807 123.342, 110.173 126.956 L 112.292 129.230 108.898 135.847 C 101.078 151.092, 106.451 165.646, 122.979 173.989 C 126.025 175.527, 131.047 177.373, 134.138 178.092 L 139.758 179.399 140.259 185.635 C 140.884 193.418, 144.080 200.181, 149.732 205.673 C 156.157 211.918, 162.573 213.927, 179.419 214.971 C 199.252 216.199, 209.208 220.208, 222.597 232.358 C 235.822 244.359, 243.417 262.255, 245.712 286.823 L 246.303 293.145 242.876 290.823 C 240.992 289.545, 237.436 287.643, 234.975 286.596 C 232.514 285.549, 226.675 283.007, 222 280.947 C 210.939 276.074, 206.701 275.582, 192.162 277.479 C 185.540 278.343, 178.199 278.926, 175.849 278.775 C 170.342 278.421, 169.888 280.164, 174.006 285.850 C 177.630 290.853, 184.543 295.489, 191.432 297.535 C 201.870 300.636, 217.569 298.522, 222.777 293.314 C 225.086 291.005, 225.636 290.876, 228.907 291.882 C 234.426 293.579, 244.185 299.355, 246.119 302.068 C 247.072 303.406, 248.142 306.788, 248.497 309.584 L 249.142 314.668 240.321 311.629 C 232.564 308.957, 229.855 308.543, 217.864 308.202 C 206.360 307.874, 202.843 308.153, 195.364 309.986 C 172.460 315.598, 154.248 329.617, 142.886 350.378 L 140.216 355.257 139.574 342.378 C 138.718 325.197, 136.500 307.249, 134.054 297.700 C 131.687 288.460, 126.264 277.718, 120.876 271.597 C 118.744 269.175, 116.997 266.812, 116.994 266.347 C 116.991 265.881, 116.517 263.800, 115.940 261.723 C 113.889 254.339, 105.859 247.924, 95.008 245.002 C 91.340 244.014, 90.816 243.598, 92.052 242.651 C 92.877 242.018, 96.241 239.524, 99.526 237.109 C 108.311 230.652, 112 226.886, 112 224.375 C 112 217.321, 98.622 215.207, 90.760 221.019 C 89.156 222.205, 87.623 222.956, 87.354 222.687 C 87.085 222.419, 87.978 220.003, 89.339 217.318 C 94.967 206.211, 93.173 198, 85.116 198 C 82.675 198, 80.578 198.745, 79.075 200.145 C 76.499 202.545, 73.087 209.443, 72.963 212.500 C 72.884 214.465, 72.861 214.466, 71.691 212.564 C 67.691 206.065, 60.726 203.972, 55.954 207.836 C 52.555 210.588, 53.204 214.497, 58.930 225.767 C 61.719 231.255, 64 236.314, 64 237.009 C 64 237.705, 61.738 236.158, 58.973 233.572 C 52.179 227.216, 42.420 222.714, 35.439 222.714 C 22.801 222.714, 19.893 232.682, 31.141 237.444 C 33.539 238.459, 38.372 240.578, 41.882 242.154 L 48.264 245.018 43.382 247.591 C 40.697 249.005, 36.982 251.589, 35.128 253.331 C 31.631 256.616, 27.027 265.129, 27.010 268.339 C 27.004 269.350, 24.952 272.500, 22.450 275.339 C 14.199 284.697, 8.517 298.565, 5.996 315.500 C 4.930 322.656, 3.522 365.861, 2.377 426.500 C 1.832 455.328, 1.977 461.765, 3.325 468.818 C 6.822 487.109, 17.483 501.472, 34.837 511.274 C 39.897 514.133, 41.951 516.382, 40.671 517.663 C 40.354 517.980, 36.137 518.640, 31.301 519.130 C 20.352 520.240, 19 520.668, 19 523.022 C 19 524.368, 19.932 525.072, 22.250 525.477 C 28.155 526.508, 97.436 527.729, 100.493 526.855 C 102.140 526.385, 110.098 526, 118.178 526 C 132.906 526, 138.519 525.066, 137.751 522.744 C 137.268 521.280, 130.978 520.334, 114.500 519.246 L 102.500 518.454 109.935 514.621 C 120.037 509.414, 127.889 501.715, 132.842 492.159 C 137.227 483.700, 138.679 479.085, 140.385 468.178 L 141.530 460.857 144.401 466.178 C 150.924 478.270, 164.353 493.331, 175.370 500.910 C 184.737 507.356, 200.013 513.876, 212.500 516.760 L 216.500 517.683 210 518.313 C 206.425 518.660, 196.300 519.210, 187.500 519.536 C 169.399 520.207, 163.707 521.240, 164.193 523.766 C 164.377 524.721, 165.988 525.758, 168.006 526.220 C 174.432 527.689, 266.914 528.343, 293.738 527.108 C 307.619 526.469, 319.681 525.676, 320.541 525.346 C 321.441 525.001, 321.977 523.843, 321.803 522.623 C 321.515 520.608, 320.735 520.460, 306.500 519.709 C 289.656 518.820, 282.572 518.095, 283.330 517.336 C 283.613 517.054, 285.792 516.399, 288.172 515.882 C 296.266 514.124, 310.931 507.877, 318.227 503.081 C 330.465 495.034, 339.052 485.234, 346.098 471.272 L 349.745 464.045 351.506 468.772 C 357.063 483.692, 369.327 498.503, 384.250 508.315 C 389.063 511.480, 393 514.729, 393 515.535 C 393 516.759, 390.412 517.002, 377.250 517.014 C 359.773 517.029, 356.751 517.461, 357.212 519.879 C 357.476 521.262, 360.089 521.620, 375.011 522.315 C 390.508 523.037, 392.839 523.373, 395.480 525.265 C 397.426 526.659, 399.595 527.292, 401.730 527.088 C 407.415 526.547, 425.827 526.620, 487 527.428 C 528.585 527.977, 557.038 527.847, 581.500 526.999 C 621.602 525.607, 617.427 525.652, 622.273 526.561 C 625.149 527.101, 626.493 526.864, 627.932 525.562 C 629.357 524.272, 632.802 523.645, 642.039 522.997 C 648.761 522.526, 654.703 521.697, 655.243 521.157 C 657.562 518.838, 654.564 518, 643.941 518 L 633 518 633 508.517 L 633 499.034 638.250 496.378 C 661.588 484.575, 679.776 460.491, 686.777 432.121 C 687.657 428.553, 688.502 426.053, 688.653 426.567 C 689.992 431.110, 693.285 450.484, 694.931 463.500 C 697.404 483.049, 698.978 489.263, 703.767 498.376 C 707.584 505.640, 716.951 516.211, 721.136 517.979 C 722.875 518.713, 720.327 518.952, 711.500 518.882 C 694.501 518.748, 694 518.794, 694 520.481 C 694 522.172, 695.106 522.455, 707.500 523.935 C 727.164 526.284, 754.679 527.158, 826.300 527.709 C 878.283 528.109, 901.772 527.959, 903.300 527.219 C 904.510 526.633, 914.242 525.914, 924.926 525.621 L 944.353 525.089 946.739 527.664 C 949.026 530.131, 949.495 530.221, 957.974 529.816 C 966.271 529.419, 970 528.190, 970 525.853 C 970 525.357, 968.875 524.523, 967.500 524 C 966.125 523.477, 965 522.363, 965 521.525 C 965 519.753, 967.107 519.507, 968.694 521.094 C 970.270 522.670, 991.199 521.912, 991.748 520.259 C 992.055 519.335, 992.553 519.410, 993.696 520.554 C 995.980 522.837, 1007.348 522.190, 1007.813 519.750 C 1008.118 518.151, 1006.824 517.985, 992.823 517.822 C 984.395 517.724, 976.712 517.647, 975.750 517.651 C 972.669 517.665, 973.865 516.517, 978.750 514.775 C 988.884 511.159, 1004.602 498.713, 1012.561 488 C 1016.429 482.794, 1021.349 472.586, 1024.609 463 C 1027.255 455.222, 1027.500 453.311, 1027.500 440.500 C 1027.500 424.684, 1026.744 421.458, 1019.531 406.500 C 1010.723 388.233, 998.411 376.296, 977.845 366.085 C 967.267 360.833, 962.591 359.094, 943.500 353.316 C 935.005 350.745, 935.445 348.840, 944.895 347.276 C 965.128 343.928, 982.840 328.550, 995.893 303 C 1004.988 285.198, 1008.121 272.232, 1008.089 252.526 C 1008.058 233.025, 1003.632 217.929, 996.928 214.463 C 993.086 212.476, 986.279 213.689, 977.210 217.978 C 954.431 228.751, 938.113 248.218, 933.770 269.800 C 932.907 274.088, 932.398 274.966, 931.102 274.398 C 930.221 274.011, 928.039 273.490, 926.253 273.239 C 923.591 272.864, 922.482 273.343, 920.093 275.900 C 918.466 277.642, 916.611 281.237, 915.892 284.044 L 914.604 289.068 912.095 285.784 C 907.507 279.780, 902.036 274.772, 900.648 275.305 C 899.665 275.682, 898.933 274.236, 898.048 270.165 C 893.908 251.132, 881.919 238.581, 862.920 233.388 C 855.154 231.266, 832.792 230.970, 829.110 232.941 C 821.105 237.225, 819.919 261.695, 826.600 284.749 C 836.485 318.861, 859.747 339.740, 892.096 343.535 C 898.451 344.281, 899.259 344.661, 900.825 347.637 C 901.876 349.634, 901.539 349.923, 895.725 352.022 C 882.160 356.920, 861.587 367.812, 853.255 374.507 C 834.510 389.571, 823.323 410.720, 821.495 434.548 C 818.861 468.887, 836.869 498.822, 869.304 514.021 C 873.974 516.209, 878.853 518.080, 880.147 518.177 C 881.441 518.275, 875.750 518.667, 867.500 519.048 C 847.397 519.978, 801.208 520.147, 787.238 519.342 C 776.058 518.698, 775.996 518.680, 778.738 516.961 C 783.216 514.154, 790.613 505.947, 794.476 499.500 C 801.343 488.039, 804.445 473.996, 807.507 440.500 C 808.362 431.150, 809.285 422.150, 809.558 420.500 C 810.578 414.349, 811.772 273.260, 810.898 262.155 C 810.407 255.916, 809.288 248.041, 808.411 244.655 C 805.036 231.630, 797.439 220.633, 788.562 215.923 C 785.313 214.200, 784 212.885, 784 211.355 C 784 208.212, 789.391 195.488, 792.387 191.560 C 797.166 185.294, 797.713 185, 804.604 185 C 811.885 185, 817.153 183.173, 821.339 179.197 C 827.363 173.475, 828.622 166.657, 824.882 160.004 C 820.176 151.631, 807.800 149.146, 796.866 154.379 C 793.957 155.771, 791.405 156.738, 791.194 156.527 C 790.621 155.954, 799.561 142.377, 805.156 135.323 L 810.055 129.147 812.580 131.486 C 818.877 137.322, 833.035 137.274, 844.748 131.377 C 853.366 127.038, 859 121.294, 863.065 112.701 C 865.517 107.518, 865.999 105.238, 865.999 98.815 C 866 90.062, 865.004 86.711, 861.186 82.624 C 855.179 76.191, 841.540 72.943, 833.451 76.019 C 831.084 76.919, 830.858 76.831, 831.512 75.269 C 843.125 47.539, 840.569 23.298, 825.070 14.187 C 821.191 11.906, 819.365 11.504, 813 11.525 C 806.810 11.546, 804.590 12.026, 800.287 14.273 C 793.410 17.865, 789.023 21.824, 783.337 29.568 L 778.652 35.948 776.949 31.112 C 772.997 19.889, 763.775 8.373, 754.852 3.516 C 747.257 -0.618, 735.971 -1.116, 727.822 2.323 M 731.860 8.509 C 721.620 11.791, 711.950 24.762, 708.610 39.697 C 706.584 48.757, 706.531 65.107, 708.493 76.119 C 712.026 95.948, 718.170 108.819, 731.588 124.500 C 738.473 132.546, 739.123 134.013, 739.722 142.877 C 740.138 149.020, 739.610 153.509, 737.002 166 C 734.920 175.973, 733.580 185.690, 733.246 193.250 L 732.725 205 736.863 205 L 741 205 741.021 199.750 C 741.032 196.863, 741.704 186.850, 742.513 177.500 C 744.429 155.373, 744.432 128.243, 742.520 116 C 741.704 110.775, 741.028 105.982, 741.018 105.348 C 741.008 104.714, 739.763 103.762, 738.250 103.232 C 733.448 101.549, 725.427 94.391, 721.127 87.952 C 716.491 81.010, 715.213 77.387, 716.831 75.769 C 718.316 74.284, 720.604 76.303, 723.198 81.388 C 725.433 85.770, 736.107 97, 738.036 97 C 739.459 97, 738.979 91.627, 735.579 69.500 C 734.311 61.250, 733.485 53.938, 733.744 53.250 C 734.002 52.563, 735.045 52, 736.060 52 C 738.488 52, 739.003 54.031, 743.660 81.966 C 745.772 94.633, 747.768 104.998, 748.095 104.999 C 748.422 104.999, 752.189 101.358, 756.466 96.907 C 763.465 89.625, 764.397 88.969, 765.782 90.353 C 767.166 91.738, 767.035 92.272, 764.468 95.696 C 762.899 97.788, 758.640 102.425, 755.004 106 L 748.393 112.500 749.621 121 C 751.290 132.551, 751.239 153.495, 749.500 171 C 747.914 186.962, 747.616 206.620, 749.037 201.500 C 749.495 199.850, 750.606 194.675, 751.505 190 C 756.326 164.942, 776.292 103.364, 786.902 80.826 C 791.939 70.127, 801.743 55.311, 806.617 51.031 C 809.931 48.122, 810.403 47.974, 811.834 49.405 C 813.264 50.836, 813.207 51.228, 811.197 53.739 C 803.050 63.916, 791.127 82.498, 792.135 83.447 C 792.881 84.149, 807.544 76.771, 812.208 73.347 C 816.634 70.098, 820 69.469, 820 71.891 C 820 73.914, 811.525 79.942, 800.971 85.426 C 790.281 90.980, 789.869 91.319, 787.127 96.825 C 781.809 107.504, 765.195 159.992, 759.133 185.266 C 754.703 203.731, 754.618 204.866, 757.610 205.617 C 758.976 205.960, 760.343 205.991, 760.648 205.685 C 760.953 205.380, 762.067 200.039, 763.125 193.815 C 765.360 180.656, 772.735 149.926, 777.121 135.500 C 780.894 123.089, 786.716 110.809, 791.419 105.343 C 793.387 103.057, 798.829 98.662, 803.513 95.577 C 818.803 85.507, 822.831 80.728, 827.435 67.191 C 838.131 35.744, 827.054 11, 805.841 18.954 C 801.418 20.612, 798.689 22.654, 793.341 28.308 C 789.579 32.285, 785.299 37.781, 783.832 40.520 C 781.500 44.872, 781.274 46.067, 782.038 50 C 784.943 64.948, 780.931 95, 776.031 95 C 774.979 95, 773.906 94.656, 773.646 94.237 C 773.387 93.817, 773.839 88.304, 774.651 81.987 C 776.278 69.327, 775.863 55.921, 773.495 44.628 C 770.415 29.946, 760.535 14.865, 750.714 9.854 C 745.507 7.198, 737.691 6.640, 731.860 8.509 M 654.479 35.801 C 643.964 39.437, 637.681 47.039, 635.798 58.403 C 632.230 79.933, 649.062 102.760, 675.779 112.624 C 682.464 115.092, 688.022 118.770, 687.985 120.702 C 687.976 121.141, 687.595 122.090, 687.137 122.812 C 686.466 123.870, 685.121 123.725, 680.184 122.062 C 672.904 119.610, 670.929 119.535, 664.424 121.467 C 657.488 123.526, 651.865 128.007, 648.446 134.199 C 642.571 144.839, 645.406 157.718, 656.230 169.561 C 659.027 172.622, 663.608 176.336, 666.408 177.813 C 671.056 180.266, 672.476 180.500, 682.701 180.500 L 693.902 180.500 698.508 186.695 C 701.042 190.102, 704.431 195.277, 706.039 198.195 C 709.460 204.400, 709.487 204.299, 707.419 193.078 C 705.695 183.726, 701.395 175.729, 694.250 168.583 C 690.429 164.762, 689.981 164.708, 683.947 167.322 C 677.290 170.208, 676.075 165.765, 682.662 162.624 C 686.066 161.001, 686.156 160.830, 684.549 159.054 C 683.621 158.028, 678.842 154.357, 673.931 150.896 C 665.275 144.797, 663.474 142.523, 666.410 141.396 C 668.291 140.674, 672.501 142.945, 680.493 148.995 C 684.130 151.748, 687.327 154, 687.596 154 C 687.866 154, 687.955 152.328, 687.793 150.285 C 687.566 147.408, 687.894 146.490, 689.247 146.213 C 691.425 145.766, 693 149.553, 693 155.235 C 693 158.924, 693.649 160.013, 699.414 165.984 L 705.828 172.628 706.228 168.064 C 707.016 159.065, 705.056 147.420, 699.539 128.313 C 692.330 103.347, 692.710 104.250, 689.420 104.250 C 686.589 104.250, 667.663 94.882, 660.250 89.811 C 657.913 88.212, 656 86.236, 656 85.421 C 656 82.558, 658.983 82.844, 664.715 86.256 C 675.189 92.491, 688 99.119, 687.996 98.302 C 687.985 95.847, 677.353 81.437, 669.167 72.784 C 665.689 69.107, 663.970 66.520, 664.349 65.534 C 665.323 62.995, 666.866 63.731, 673.183 69.750 C 680.427 76.652, 689.668 88.705, 695.348 98.660 C 697.632 102.662, 699.872 105.950, 700.327 105.968 C 700.782 105.986, 702.528 104.626, 704.207 102.947 L 707.260 99.894 705.147 92.697 C 701.944 81.791, 700.172 72.321, 699.387 61.923 L 698.677 52.516 693.177 47.232 C 685.135 39.506, 672.604 34.035, 663 34.057 C 661.075 34.062, 657.241 34.847, 654.479 35.801 M 251.383 57.949 C 241.645 60.274, 234.354 66.420, 231.370 74.820 C 229.800 79.241, 229.254 79.785, 225.336 80.833 C 222.181 81.676, 220.423 82.920, 218.764 85.480 C 216.135 89.539, 215.021 89.787, 212.405 86.894 C 207.185 81.121, 196.341 79.294, 188.500 82.866 C 182.877 85.427, 177.415 91.865, 175.556 98.122 C 174.700 101.005, 174 103.979, 174 104.731 C 174 108.176, 170.924 111.924, 167.583 112.550 C 162.034 113.591, 158.992 111.390, 154.500 103.082 C 151.047 96.695, 149.748 95.262, 145 92.597 C 129.709 84.016, 112.898 93.580, 112.734 110.952 C 112.676 117.168, 114.543 121.343, 119.438 125.941 C 120.847 127.265, 122 128.757, 122 129.256 C 122 129.755, 120.451 132.054, 118.558 134.364 C 114.287 139.576, 113 142.872, 113 148.597 C 113 154.777, 115.008 158.995, 119.975 163.247 C 125.896 168.314, 130.114 170.084, 138.868 171.171 C 143.039 171.688, 146.731 172.565, 147.073 173.118 C 147.415 173.671, 147.487 176.280, 147.234 178.916 C 146.227 189.396, 152.341 200.566, 161.515 205.007 C 165.181 206.782, 168.783 207.343, 180.763 208.007 C 200.430 209.095, 208.534 211.927, 222.674 222.654 C 241.639 237.039, 250.060 255.108, 253.973 289.811 C 254.574 295.140, 255.600 302.875, 256.254 307 C 257.318 313.707, 257.509 314.130, 258.065 311 C 258.406 309.075, 258.462 296.222, 258.189 282.437 C 257.720 258.814, 257.816 256.965, 259.854 250.254 C 262.396 241.887, 266.388 236.289, 274.439 229.803 C 281.545 224.078, 286.804 221.404, 288.203 222.803 C 290.067 224.667, 288.009 227.493, 281.950 231.392 C 275.781 235.362, 270.534 240.968, 267.625 246.700 C 265.341 251.199, 265.659 253.042, 268.144 249.710 C 271.194 245.621, 278.986 242, 284.735 242 C 290.439 242, 296.098 245.340, 298.115 249.898 C 299.885 253.896, 300.997 252.858, 301.015 247.191 C 301.033 241.726, 302.150 239.460, 304.399 240.323 C 305.508 240.748, 306 242.201, 306 245.050 L 306 249.162 310.994 243.331 C 319.676 233.194, 322.884 223.149, 320.887 212.348 C 319.769 206.299, 320.171 204, 322.346 204 C 326.427 204, 328.783 214.427, 327.039 224.767 C 325.301 235.074, 320.737 241.978, 304.333 259.115 C 278.842 285.746, 269.302 298.191, 268.275 306.153 L 267.714 310.500 272.778 303 C 280.941 290.911, 289.817 280.795, 311.382 259 C 322.539 247.725, 333.204 236.250, 335.083 233.500 L 338.500 228.500 338.376 215.250 C 338.252 202.051, 338.261 202, 340.554 202 C 342.619 202, 342.919 202.593, 343.470 207.750 C 343.808 210.912, 344.313 214.975, 344.592 216.777 L 345.101 220.054 351.300 211.777 C 362.573 196.727, 372.500 187.829, 372.500 192.774 C 372.500 193.383, 369.910 196.991, 366.745 200.790 C 357.173 212.282, 343.011 231.412, 343.005 232.858 C 343.002 233.761, 343.754 234.036, 345.250 233.676 C 346.488 233.379, 351.212 232.822, 355.750 232.439 L 364 231.742 364 234.181 C 364 236.551, 363.643 236.667, 351.342 238.267 C 339.445 239.815, 338.484 240.108, 335.357 243.139 C 331.553 246.825, 331.674 248.099, 335.584 245.537 C 338.022 243.939, 338.359 243.930, 339.849 245.420 C 342.403 247.974, 340.293 249.958, 331.856 252.936 C 327.690 254.406, 322.530 257.008, 320.390 258.717 C 314.479 263.437, 309.705 268.714, 310.371 269.791 C 311.109 270.986, 318.888 273, 322.765 273 C 332.082 273, 340.801 266.168, 342.958 257.175 L 344.186 252.057 353.843 252.141 C 364.880 252.237, 372.741 249.923, 378.471 244.891 C 384.693 239.429, 386.710 231.207, 383.399 224.805 L 381.798 221.708 386.896 216.820 C 393.586 210.405, 396.298 205.012, 396.361 198 C 396.477 184.927, 385.416 174, 372.068 174 C 366.467 174, 364.709 175.101, 362.505 179.990 C 360.851 183.656, 360.318 184.068, 357.575 183.800 L 354.500 183.500 354.500 172.847 C 354.500 162.617, 354.380 162.023, 351.486 157.895 C 346.752 151.143, 343.038 149.468, 333.250 149.672 C 327.054 149.802, 325 149.521, 325 148.543 C 325 147.827, 326.237 144.600, 327.749 141.371 C 330.029 136.501, 330.499 134.135, 330.499 127.500 C 330.500 120.577, 330.070 118.593, 327.307 112.759 C 321.171 99.806, 309.258 91.029, 297.785 91.010 C 291.154 90.998, 290.014 89.802, 289.978 82.816 C 289.947 76.653, 287.085 71.161, 281.103 65.782 C 272.764 58.285, 261.933 55.430, 251.383 57.949 M 253.635 64.508 C 251.498 66.645, 252.391 68, 255.937 68 C 258.442 68, 261.918 65.585, 260.890 64.557 C 259.403 63.070, 255.102 63.041, 253.635 64.508 M 263 65.859 C 263 67.843, 266.519 69.815, 267.790 68.543 C 268.736 67.598, 266.539 64.550, 264.643 64.177 C 263.558 63.963, 263 64.534, 263 65.859 M 240.831 75.471 C 239.985 77.329, 239.959 78.359, 240.740 79.140 C 242.286 80.686, 244 79.298, 244 76.500 C 244 73.050, 242.200 72.466, 240.831 75.471 M 251.688 79.646 C 251.309 80.024, 251 81.383, 251 82.667 C 251 84.358, 251.568 85, 253.066 85 C 254.719 85, 255.069 84.464, 254.816 82.327 C 254.500 79.653, 252.981 78.352, 251.688 79.646 M 258.667 79.667 C 258.300 80.033, 258 81.383, 258 82.667 C 258 84.333, 258.571 85, 260 85 C 261.556 85, 262 84.333, 262 82 C 262 79.179, 260.326 78.007, 258.667 79.667 M 831.107 83.176 C 823.839 86.774, 811.574 99.549, 807.947 107.300 C 805.044 113.504, 803.657 121.990, 805.280 123.614 C 805.609 123.942, 808.615 122.105, 811.960 119.531 C 816.168 116.293, 818.845 113.256, 820.649 109.675 C 823.907 103.208, 826.844 99, 828.099 99 C 830.208 99, 830.121 102.297, 827.900 106.482 C 826.613 108.908, 825.808 111.142, 826.112 111.445 C 826.415 111.748, 829.430 110.872, 832.812 109.498 C 840.254 106.474, 843 106.303, 843 108.863 C 843 110.743, 838.771 113.018, 826 118.009 C 819.715 120.465, 813.690 124.690, 814.532 126.052 C 814.845 126.559, 817.608 127.702, 820.672 128.593 C 833.576 132.344, 850.002 124.600, 856.793 111.563 C 858.959 107.405, 859.437 105.129, 859.465 98.827 C 859.504 90.277, 858.136 87.419, 852.010 83.250 C 847.429 80.132, 837.329 80.096, 831.107 83.176 M 226 88.500 C 226 89.333, 226.889 90, 228 90 C 229.111 90, 230 89.333, 230 88.500 C 230 87.667, 229.111 87, 228 87 C 226.889 87, 226 87.667, 226 88.500 M 189.858 91.450 C 185.912 94.132, 184.387 96.787, 185.916 98.316 C 186.558 98.958, 188.138 98.208, 190.483 96.149 C 192.456 94.417, 194.777 93, 195.642 93 C 196.665 93, 197.002 92.447, 196.607 91.418 C 196.273 90.548, 196 89.648, 196 89.418 C 196 88.291, 193.092 89.253, 189.858 91.450 M 125.314 95.950 C 121.993 97.975, 119.615 101.282, 120.700 102.367 C 121.047 102.713, 123.248 101.872, 125.593 100.498 C 127.938 99.124, 131.014 98, 132.428 98 C 134.333 98, 135 97.482, 135 96 C 135 93.311, 129.688 93.283, 125.314 95.950 M 203.624 95.538 C 203.282 96.429, 203.686 97.326, 204.584 97.671 C 206.451 98.387, 208.495 96.610, 207.554 95.087 C 206.573 93.499, 204.306 93.759, 203.624 95.538 M 271.977 98.554 C 270.063 103.020, 267.183 112.194, 264.970 120.877 C 264.286 123.561, 263.496 124.896, 262.929 124.329 C 262.420 123.820, 260.234 118.529, 258.071 112.571 C 253.946 101.208, 252.872 99.343, 251.087 100.446 C 249.308 101.546, 249.807 104.393, 253.588 114.709 C 260.661 134.013, 260.654 133.958, 257.838 147.546 L 255.360 159.500 250.930 151.052 C 248.494 146.405, 245.938 142.430, 245.251 142.218 C 242.241 141.292, 243.193 145.748, 248.401 156.962 L 253.989 168.993 253.026 176.247 C 252.496 180.236, 251.791 186.088, 251.459 189.250 C 251.128 192.412, 250.531 195, 250.135 195 C 249.738 195, 246.752 192.750, 243.500 190 C 237.172 184.649, 235 183.860, 235 186.912 C 235 188.064, 237.981 191.331, 242.500 195.132 C 250.986 202.269, 250.705 201.294, 249.340 218.820 L 248.693 227.140 241.090 219.320 C 236.909 215.019, 230.274 208.663, 226.347 205.196 C 222.419 201.728, 216.862 196.197, 213.997 192.903 L 208.788 186.914 211.906 173.207 C 215.605 156.942, 215.725 155, 213.039 155 C 211.609 155, 210.817 156.017, 210.119 158.750 C 209.592 160.813, 208.194 166.318, 207.013 170.984 C 205.831 175.651, 204.726 179.608, 204.556 179.778 C 203.927 180.406, 196.391 171.045, 193.053 165.490 C 188.659 158.177, 186.247 150.997, 184.908 141.243 C 184.323 136.984, 183.634 132.037, 183.377 130.250 C 183.022 127.786, 182.411 127, 180.849 127 C 178.909 127, 178.810 127.471, 179.152 135 C 179.351 139.400, 179.241 143, 178.907 143 C 178.572 143, 176.319 140.461, 173.899 137.357 C 161.057 120.884, 152.660 113.520, 151.316 117.552 C 151.123 118.131, 153.672 121.731, 156.979 125.552 C 160.287 129.373, 162.995 132.809, 162.997 133.186 C 162.998 133.564, 159.738 132.950, 155.750 131.823 C 146.194 129.120, 145.556 129.113, 145.189 131.691 C 144.928 133.518, 145.594 134.076, 149.188 135.047 C 163.615 138.944, 166.706 140.145, 169.769 143.044 C 172.906 146.012, 178.522 153.283, 182.402 159.398 C 184.546 162.779, 185.951 162.998, 170.500 157.545 C 159.879 153.796, 157.506 153.373, 156.473 155.044 C 155.444 156.709, 157.640 158.576, 162.238 159.944 C 170.964 162.540, 184.577 168.308, 186.840 170.369 C 190.042 173.285, 207.723 196.555, 205.934 195.499 C 197.503 190.524, 180.077 178.548, 174.220 173.703 C 168.321 168.823, 166.676 167.900, 165.944 169.056 C 164.205 171.805, 164.599 172.317, 174.725 180.469 C 178.119 183.201, 180.727 185.606, 180.521 185.812 C 180.315 186.018, 176.238 185.412, 171.462 184.464 C 164.134 183.010, 162.642 182.956, 161.904 184.120 C 161.424 184.879, 161.024 185.822, 161.015 186.215 C 160.985 187.647, 165.002 189.007, 172.170 189.989 C 188.749 192.261, 191.399 193.322, 209 204.743 C 226.953 216.391, 236.354 224.860, 246.198 238.250 C 248.927 241.963, 251.584 245, 252.102 245 C 252.619 245, 253.519 243.762, 254.101 242.250 C 259.056 229.372, 266.270 220.496, 278.728 211.947 C 283.003 209.014, 286.796 206.179, 287.157 205.648 C 288.040 204.350, 287.066 202.001, 285.643 201.996 C 283.229 201.987, 268.107 213.219, 262.074 219.502 C 258.597 223.123, 255.585 225.918, 255.381 225.714 C 255.177 225.510, 255.379 219.866, 255.830 213.172 C 256.564 202.290, 256.908 200.723, 259.075 198.385 C 262.094 195.129, 275.214 184.862, 284.500 178.488 C 293.988 171.976, 302 165.128, 302 163.530 C 302 160.812, 298.778 160.987, 295.479 163.884 C 293.660 165.481, 287.521 170.058, 281.836 174.054 C 276.151 178.051, 268.525 183.723, 264.889 186.660 C 261.252 189.597, 258.076 192, 257.830 192 C 257.383 192, 258.341 181.289, 259.506 173.255 C 260.316 167.665, 262.840 164.846, 277.352 153.322 C 292.691 141.142, 297.982 136.118, 297.312 134.371 C 296.741 132.883, 293.375 132.479, 292.833 133.833 C 292.650 134.291, 287.775 138.408, 282 142.981 C 276.225 147.554, 269.363 153.350, 266.750 155.860 L 262 160.425 262 157.640 C 262 154.227, 266.740 133.355, 268.086 130.840 C 268.622 129.839, 271.521 127.161, 274.530 124.890 C 277.538 122.618, 280 120.139, 280 119.380 C 280 117.294, 275.566 117.717, 273.500 120 C 269.409 124.521, 269.632 122.473, 275.123 105.089 C 277.477 97.636, 277.826 95.506, 276.798 94.854 C 274.559 93.434, 273.982 93.876, 271.977 98.554 M 301.604 101.590 C 300.699 103.948, 301.764 105, 305.059 105 C 308.147 105, 308.918 103.318, 306.800 101.200 C 305.103 99.503, 302.325 99.712, 301.604 101.590 M 224.014 104.750 C 224.037 109.461, 225.124 112, 227.117 112 C 229.254 112, 229.642 108.820, 228.025 104.565 C 226.694 101.066, 223.996 101.190, 224.014 104.750 M 797.615 107.083 C 792.364 112.924, 787.437 122.663, 783.650 134.689 C 778.092 152.338, 768 197.106, 768 204.110 C 768 208.082, 769.594 206.980, 770.450 202.416 C 772.042 193.926, 783.115 159.609, 786.326 153.211 C 790.808 144.280, 794.581 138.208, 797.774 134.785 C 800.213 132.171, 800.268 131.832, 799.252 125.700 C 798.120 118.873, 798.825 112.748, 801.469 106.419 C 802.326 104.370, 802.853 102.519, 802.641 102.307 C 802.429 102.096, 800.167 104.244, 797.615 107.083 M 193.492 104.177 C 192.432 106.912, 193.370 110.455, 195.250 110.813 C 197.453 111.233, 197.653 107.270, 195.571 104.441 C 194.277 102.682, 194.082 102.657, 193.492 104.177 M 705.091 109.530 L 701.682 113.038 703.357 118.769 C 711.834 147.768, 712.031 148.777, 713.087 168.500 C 713.646 178.950, 714.871 191.550, 715.808 196.500 C 717.434 205.081, 717.641 205.515, 720.257 205.816 C 722.026 206.020, 722.993 205.665, 722.979 204.816 C 722.938 202.152, 719.978 173.878, 717.502 152.500 C 716.101 140.400, 715.024 127.050, 715.107 122.834 C 715.229 116.744, 714.804 114.226, 713.041 110.584 C 711.820 108.063, 710.299 106.005, 709.661 106.011 C 709.022 106.017, 706.966 107.600, 705.091 109.530 M 123 110.727 C 123 113.528, 124.529 116, 126.260 116 C 126.734 116, 126.981 114.316, 126.810 112.258 C 126.593 109.643, 125.973 108.417, 124.750 108.185 C 123.412 107.932, 123 108.531, 123 110.727 M 313.394 115.417 C 312.566 117.574, 313.717 120.261, 315.251 119.750 C 315.938 119.521, 316.500 118.283, 316.500 117 C 316.500 114.259, 314.273 113.124, 313.394 115.417 M 722.012 131.310 C 722.025 137.531, 725.411 169.897, 726.635 175.500 C 727.193 178.053, 727.561 177.232, 729.103 170 C 732.551 153.836, 733.224 148.857, 732.820 142.507 C 732.431 136.407, 732.188 135.892, 727.207 130.625 L 722 125.120 722.012 131.310 M 196 133.073 C 196 136.412, 196.315 137.087, 197.750 136.815 C 198.973 136.583, 199.593 135.357, 199.810 132.742 C 200.077 129.530, 199.829 129, 198.060 129 C 196.317 129, 196 129.627, 196 133.073 M 317.218 133.023 C 316.159 134.719, 316.212 135.144, 317.545 135.655 C 319.623 136.453, 321.237 134.780, 320.426 132.667 C 319.583 130.472, 318.754 130.564, 317.218 133.023 M 568.637 133.465 C 561.144 136.136, 555.778 143.425, 553.925 153.447 C 552.001 163.857, 556.777 178.135, 568.550 197.169 C 585.385 224.384, 595.158 250.842, 597.483 275.500 C 597.846 279.350, 599.011 289.380, 600.072 297.788 C 601.132 306.197, 602.007 315.422, 602.015 318.288 C 602.033 324.244, 603.094 326.562, 605.399 325.677 C 606.752 325.158, 606.989 323.163, 606.929 312.781 C 606.890 306.027, 606.520 296.675, 606.108 292 C 605.425 284.254, 605.076 283.218, 602.179 280.327 C 600.431 278.582, 599 276.444, 599 275.577 C 599 273.724, 599.463 273.642, 602.066 275.035 C 604.635 276.410, 604.608 275.881, 601.144 257.206 C 598.489 242.890, 598.089 241.687, 594.904 238.386 C 591.716 235.084, 591.614 234.776, 593.298 233.535 C 595.024 232.262, 595.014 231.888, 593.048 224.188 C 591.922 219.776, 591 215.435, 591 214.542 C 591 213.648, 587.625 209.056, 583.500 204.338 C 578.672 198.815, 576 194.911, 576 193.379 C 576 189.339, 579.201 190.678, 583.500 196.516 C 587.203 201.546, 589.858 203.691, 588.738 200.750 C 588.476 200.063, 587.020 194.100, 585.502 187.500 C 583.985 180.900, 582.268 174.905, 581.688 174.177 C 581.108 173.449, 579.029 172.028, 577.067 171.018 C 570.405 167.590, 565.019 163.113, 565.633 161.513 C 566.544 159.141, 568.832 159.706, 574.163 163.620 C 576.875 165.610, 579.378 166.956, 579.724 166.609 C 580.071 166.263, 578.773 161.371, 576.840 155.739 C 573.153 144.995, 573.015 143, 575.960 143 C 577.153 143, 578.421 144.590, 579.747 147.750 C 582.367 153.994, 584.707 160.786, 585.503 164.461 C 586.121 167.314, 586.294 167.142, 590.271 159.711 C 594.203 152.363, 596.450 150.402, 597.575 153.335 C 597.857 154.070, 596.043 159.076, 593.544 164.460 C 591.045 169.845, 588.996 174.981, 588.991 175.875 C 588.987 176.769, 590.194 182.641, 591.674 188.925 C 594.003 198.819, 594.500 200.026, 595.379 197.925 C 598.809 189.728, 604.220 179, 604.925 179 C 605.382 179, 606.287 179.641, 606.937 180.424 C 607.864 181.541, 607.682 182.703, 606.095 185.814 C 604.982 187.995, 602.207 194.442, 599.928 200.140 L 595.785 210.500 598.615 221.991 L 601.445 233.482 602.734 225.991 C 604.635 214.951, 609.447 196.682, 610.546 196.334 C 611.071 196.168, 612.115 196.421, 612.866 196.897 C 613.997 197.612, 613.790 199.631, 611.663 208.631 C 610.250 214.609, 608.160 225.323, 607.020 232.439 C 605.095 244.444, 605.052 245.925, 606.415 252.939 C 607.223 257.098, 608.229 262.525, 608.652 265 C 609.398 269.370, 609.439 269.269, 610.064 261.500 C 610.514 255.899, 612.454 247.953, 616.534 235 L 622.362 216.500 622.379 200.500 C 622.395 185.870, 622.162 183.738, 619.659 175.600 C 610.914 147.167, 596.337 131.900, 578.072 132.044 C 575.007 132.068, 570.762 132.707, 568.637 133.465 M 194.443 148.288 C 194.140 149.078, 194.029 152.374, 194.196 155.612 C 194.460 160.732, 194.761 161.500, 196.500 161.500 C 198.309 161.500, 198.500 160.833, 198.500 154.514 C 198.500 148.651, 198.218 147.473, 196.747 147.190 C 195.783 147.004, 194.746 147.498, 194.443 148.288 M 122.380 152.452 C 121.605 154.473, 122.758 156, 125.059 156 C 127.236 156, 127.622 154.022, 125.800 152.200 C 124.202 150.602, 123.058 150.686, 122.380 152.452 M 133.383 158.190 C 132.543 159.548, 135.531 162.408, 136.904 161.559 C 137.507 161.187, 138 160.286, 138 159.558 C 138 157.925, 134.235 156.810, 133.383 158.190 M 800.028 159.072 C 793.130 162.201, 789.201 165.670, 786.485 171.029 C 785.118 173.726, 784 176.404, 784 176.978 C 784 177.553, 786.484 176, 789.520 173.527 C 792.556 171.054, 796.419 168.318, 798.104 167.446 C 801.711 165.581, 809.117 165.029, 809.670 166.584 C 809.883 167.180, 806.612 169.370, 802.403 171.451 C 797.185 174.029, 792.612 177.344, 788.033 181.866 C 781.682 188.139, 781.195 188.952, 779.094 196.807 C 776.940 204.855, 776.729 210.079, 778.762 205 C 782.374 195.977, 786.897 188.051, 790.472 184.476 C 794.731 180.216, 797.993 179, 805.157 179 C 813.518 179, 820.183 173.817, 820.357 167.180 C 820.475 162.652, 818.818 160.241, 814.282 158.345 C 809.793 156.469, 805.258 156.700, 800.028 159.072 M 332.655 160.829 C 330.265 163.469, 330.574 164, 334.500 164 C 337.567 164, 338 163.690, 338 161.500 C 338 158.457, 335.128 158.096, 332.655 160.829 M 338.161 174.547 C 336.685 177.786, 336.701 178, 338.429 178 C 340.542 178, 342.999 175.162, 342.351 173.471 C 341.480 171.203, 339.446 171.725, 338.161 174.547 M 228.115 174.361 C 226.569 176.224, 227.761 179, 230.107 179 C 232.344 179, 232.687 175.815, 230.633 174.110 C 229.598 173.252, 228.985 173.313, 228.115 174.361 M 313.250 173.662 C 312.563 173.940, 312 175.060, 312 176.153 C 312 179.077, 316.393 178.254, 316.820 175.250 C 317.133 173.043, 316.016 172.546, 313.250 173.662 M 242.688 176.646 C 241.521 177.812, 241.923 180.445, 243.642 182.899 C 244.981 184.811, 245.435 184.975, 246.100 183.787 C 247.727 180.878, 244.729 174.604, 242.688 176.646 M 384.563 186.250 C 385.011 188.037, 385.472 191.525, 385.589 194 C 385.705 196.475, 385.845 198.853, 385.900 199.285 C 385.955 199.717, 386.900 199.589, 388 199 C 391.907 196.909, 389.603 183, 385.349 183 C 384.045 183, 383.900 183.599, 384.563 186.250 M 331.688 184.646 C 331.309 185.024, 331 186.416, 331 187.740 C 331 189.494, 331.475 190.055, 332.750 189.810 C 333.838 189.600, 334.500 188.563, 334.500 187.070 C 334.500 184.664, 332.980 183.354, 331.688 184.646 M 609.169 189.161 C 609.351 190.447, 610.175 191.500, 611 191.500 C 613.169 191.500, 612.870 187.599, 610.669 187.175 C 609.249 186.901, 608.912 187.347, 609.169 189.161 M 229.605 196.588 C 229.195 197.656, 230.663 199.784, 234.091 203.088 C 238.841 207.666, 242 209.256, 242 207.068 C 242 206.048, 231.746 195, 230.799 195 C 230.477 195, 229.940 195.715, 229.605 196.588 M 632.973 196.668 C 631.613 197.586, 630.314 198.485, 630.087 198.665 C 629.859 198.846, 629.115 203.832, 628.433 209.747 C 627.568 217.241, 625.942 224.137, 623.068 232.500 C 618.122 246.893, 615.505 258.149, 614.068 271.211 C 612.279 287.474, 612.879 288.297, 616.463 274.500 C 618.321 267.350, 621.622 256.285, 623.798 249.910 C 627.383 239.412, 627.707 237.636, 627.236 231.060 C 626.756 224.343, 626.858 223.826, 628.601 224.162 C 629.762 224.385, 630.679 225.628, 630.992 227.401 C 631.462 230.062, 631.781 229.709, 635.241 222.703 C 639.289 214.508, 639.947 213.731, 641.846 214.905 C 642.802 215.496, 642.379 217.645, 640.048 224.030 C 636.172 234.651, 636.168 235.140, 639.962 233.708 C 641.591 233.093, 643.202 232.869, 643.543 233.210 C 644.935 234.602, 641.753 237.915, 637.761 239.229 C 633.603 240.598, 633.406 240.867, 629.610 250.342 C 627.470 255.683, 625.940 260.274, 626.211 260.544 C 626.481 260.815, 628.007 260.355, 629.601 259.524 C 633.408 257.539, 635.003 257.606, 634.988 259.750 C 634.975 261.558, 629.067 266, 626.675 266 C 625.930 266, 624.808 267.125, 624.182 268.501 C 622.672 271.814, 619.322 285.228, 618.438 291.500 L 617.733 296.500 625.929 284.132 C 646.007 253.835, 650.504 242.270, 650.476 221 C 650.463 210.769, 650.178 208.892, 647.893 203.984 C 646.480 200.950, 644.545 197.687, 643.591 196.734 C 641.392 194.535, 636.181 194.503, 632.973 196.668 M 80.728 209.750 C 75.983 220.472, 71.975 234.737, 72.089 240.500 C 72.148 243.495, 72.151 243.493, 74 239.500 C 75.018 237.300, 75.885 234.934, 75.926 234.242 C 75.967 233.550, 78.250 227.998, 81 221.903 C 85.994 210.835, 87.382 204, 84.637 204 C 83.887 204, 82.128 206.588, 80.728 209.750 M 60 213.250 C 59.999 214.850, 66.208 227, 67.025 227 C 67.986 227, 66.465 217.815, 64.997 214.750 C 63.676 211.994, 60 210.890, 60 213.250 M 719.500 213.098 C 712.253 214.129, 700.675 217.701, 696.332 220.245 C 692.029 222.766, 685.174 232.074, 682.940 238.431 C 679.619 247.878, 678.015 269.161, 679.618 282.500 L 680.219 287.500 684.603 287.150 C 688.018 286.877, 689.130 287.175, 689.639 288.501 C 690.569 290.926, 688.171 292.043, 683.595 291.316 L 679.690 290.695 680.322 299.597 C 680.670 304.494, 681.253 314.187, 681.617 321.137 L 682.280 333.774 686.222 334.303 C 690.827 334.921, 691.456 335.368, 690.655 337.457 C 690.276 338.445, 688.792 339, 686.531 339 L 683 339 682.997 344.250 C 682.984 365.484, 687.182 397.567, 692.057 413.500 C 695.260 423.971, 698.946 441.842, 701.009 456.910 C 705.132 487.017, 708.074 495.969, 716.921 505.323 C 725.891 514.808, 736.914 519.108, 752.345 519.142 C 760.409 519.160, 761.766 518.868, 767.738 515.831 C 785.947 506.571, 795.860 488.990, 798.563 461.161 L 799.276 453.823 795.888 454.013 C 790.556 454.312, 790 454.125, 790 452.034 C 790 450.431, 790.921 449.947, 795 449.406 C 797.750 449.041, 800.015 448.688, 800.032 448.621 C 800.050 448.555, 800.725 442.200, 801.532 434.500 C 803.210 418.477, 805.490 302.280, 804.681 274 C 804.091 253.415, 803.144 248.274, 797.926 237.341 C 791.689 224.275, 782.145 217.731, 763.812 213.948 C 753.773 211.876, 731.134 211.442, 719.500 213.098 M 296.200 216.200 C 294.338 218.062, 294.778 219.171, 297.240 218.820 C 298.472 218.644, 299.630 217.713, 299.813 216.750 C 300.195 214.744, 297.991 214.409, 296.200 216.200 M 531.702 221.631 C 530.562 222.771, 533.026 226, 535.035 226 C 537.093 226, 537.404 225.216, 536.393 222.582 C 535.789 221.009, 532.908 220.425, 531.702 221.631 M 982.836 223.438 C 969.764 228.870, 954.023 242.183, 947.567 253.267 C 941.758 263.239, 938.182 278.365, 939.522 287.296 C 940.496 293.790, 941.127 294.443, 945.151 293.115 C 948.342 292.062, 948.851 291.210, 953.899 278.476 C 959.726 263.777, 968.056 248.895, 975.666 239.590 C 981.417 232.558, 983.462 231.062, 985.096 232.696 C 985.965 233.565, 985.264 235.033, 982.245 238.674 C 980.043 241.328, 976.392 246.248, 974.130 249.608 C 969.486 256.507, 958.484 278.817, 959.316 279.649 C 959.615 279.948, 961.921 278.774, 964.441 277.041 C 969.015 273.894, 975.016 271, 976.968 271 C 977.536 271, 977.987 271.788, 977.970 272.750 C 977.952 273.839, 975.591 275.822, 971.720 278 C 968.299 279.925, 963.340 283.690, 960.701 286.367 L 955.901 291.235 958.701 294.051 C 960.726 296.090, 961.589 296.472, 961.823 295.434 C 962.238 293.596, 964.897 293.569, 965.598 295.396 C 965.893 296.163, 964.754 299.526, 963.067 302.867 C 961.380 306.209, 960 309.181, 960 309.471 C 960 309.762, 963.487 310.007, 967.750 310.015 C 975.797 310.031, 978.779 310.931, 977.522 312.965 C 977.015 313.784, 973.705 314.071, 966.860 313.887 L 956.933 313.620 952.999 319.060 C 948.465 325.328, 948.272 326, 951 326 C 953.369 326, 953.630 328.232, 951.470 330.025 C 950.319 330.980, 949.348 331.024, 947.545 330.202 C 945.357 329.205, 944.751 329.575, 940.574 334.465 C 936.054 339.756, 935.005 342, 937.053 342 C 940.892 342, 953.466 338.273, 958.397 335.674 C 974.448 327.212, 990.953 303.479, 998.142 278.522 C 1001.143 268.105, 1001.872 245.486, 999.520 235.760 C 998.554 231.767, 996.908 226.813, 995.862 224.750 C 993.556 220.205, 991.190 219.967, 982.836 223.438 M 354.079 223.265 C 350.407 225.138, 350.303 227, 353.870 227 C 357.732 227, 362 225.078, 362 223.339 C 362 221.646, 357.338 221.602, 354.079 223.265 M 94.927 224.977 C 89.293 227.956, 78.262 241.287, 79.172 244.017 C 79.443 244.828, 99.324 230.417, 104.971 225.317 C 105.757 224.606, 102.632 223.029, 100.500 223.060 C 99.400 223.075, 96.892 223.938, 94.927 224.977 M 33.114 228.930 C 31.556 229.893, 32.454 232, 34.423 232 C 35.141 232, 40.514 234.454, 46.364 237.453 C 52.214 240.453, 57 242.455, 57 241.902 C 57 240.108, 49.626 234.013, 44.500 231.571 C 38.311 228.622, 34.893 227.830, 33.114 228.930 M 367 239.295 C 363.524 241.053, 363.791 243.438, 367.500 243.761 C 371.624 244.119, 373.830 242.586, 372.429 240.338 C 370.976 238.008, 369.939 237.809, 367 239.295 M 836 238.860 L 831.500 239.500 830.217 245.500 C 827.520 258.117, 831.111 279.901, 838.481 295.629 C 844.801 309.116, 844.623 309, 858.942 309 L 870.884 309 870.313 302.199 C 869.870 296.907, 870.122 294.664, 871.450 292.097 C 873.109 288.889, 873.094 288.729, 870.912 286.407 C 866.455 281.662, 860.394 279.742, 842.750 277.485 C 838.926 276.996, 838 276.500, 838 274.939 C 838 273.225, 838.725 273.002, 844.250 273.021 C 847.688 273.032, 853.313 273.631, 856.750 274.351 C 860.188 275.072, 863 275.521, 863 275.350 C 863 274.787, 845.383 254.533, 843.672 253.128 C 841.450 251.304, 841.500 248.002, 843.750 247.992 C 846.016 247.981, 860.316 262.978, 869.024 274.500 C 872.766 279.450, 876.766 284.066, 877.914 284.758 C 879.874 285.941, 880 285.802, 880 282.456 C 880 277.014, 877.078 265.360, 873.985 258.467 C 872.187 254.460, 871.515 251.790, 872.076 250.890 C 875.344 245.651, 882.960 264.489, 885.474 284.029 C 886.004 288.152, 890.245 295.088, 891.480 293.853 C 893.027 292.307, 893.106 278.953, 891.604 272.996 C 885.926 250.471, 873.149 240.314, 848.500 238.733 C 844.100 238.451, 838.475 238.508, 836 238.860 M 278.466 249.400 C 274.776 251.008, 269.552 256.098, 267.221 260.356 C 265.792 262.967, 265.543 265.776, 265.756 276.923 C 265.897 284.305, 266.228 290.561, 266.492 290.825 C 266.756 291.089, 267.990 289.999, 269.235 288.403 C 270.479 286.806, 274.648 281.998, 278.499 277.718 C 293.372 261.188, 294.244 259.969, 293.577 256.633 C 292.144 249.468, 285.552 246.313, 278.466 249.400 M 94.654 253.275 C 98.039 255.148, 102.651 258.140, 104.904 259.924 C 109.955 263.924, 110.329 261.989, 105.403 257.343 C 100.939 253.134, 97.573 251.359, 92.465 250.521 C 88.554 249.880, 88.584 249.917, 94.654 253.275 M 47.637 252.465 C 45.513 253.222, 42.434 255.115, 40.796 256.671 C 37.538 259.765, 33.506 266.839, 34.458 267.791 C 34.786 268.119, 37.855 265.642, 41.277 262.286 C 44.700 258.929, 49.250 255.017, 51.390 253.592 C 55.771 250.672, 54.085 250.166, 47.637 252.465 M 78.625 255.125 C 77.741 259.543, 77.897 260.782, 79.080 258.750 C 81.494 254.606, 84.818 258.111, 82.759 262.629 C 81.713 264.925, 81.848 265.459, 83.897 267.117 C 88.464 270.815, 90.585 268.763, 88.849 262.325 C 87.797 258.423, 82.559 252, 80.429 252 C 79.780 252, 78.969 253.406, 78.625 255.125 M 770.887 256.809 C 768.349 259.077, 767.649 260.598, 767.255 264.697 C 766.803 269.403, 767.020 270.051, 770.215 273.538 C 773.167 276.759, 774.306 277.315, 778.125 277.400 C 783.718 277.525, 787.652 275.071, 789.709 270.172 C 794.300 259.241, 779.737 248.902, 770.887 256.809 M 62.047 259.627 C 60.921 262.172, 60.032 265.660, 60.071 267.377 C 60.140 270.456, 60.170 270.437, 62.187 266 C 64.711 260.447, 66.075 255, 64.941 255 C 64.475 255, 63.173 257.082, 62.047 259.627 M 701.858 257.450 C 697.623 260.328, 697 261.638, 697 267.659 C 697 271.294, 697.559 272.713, 699.923 275.077 C 702.321 277.474, 703.687 278, 707.523 278 C 711.509 278, 712.703 277.497, 715.600 274.600 C 718.225 271.975, 719 270.368, 719 267.550 C 719 262.729, 716.652 258.389, 713.033 256.517 C 708.904 254.382, 706.019 254.623, 701.858 257.450 M 563.666 257.427 C 562.752 259.809, 568.362 262.566, 571.596 261.325 C 573.950 260.422, 573.178 258.972, 569.532 257.449 C 565.205 255.641, 564.353 255.638, 563.666 257.427 M 47.545 264.955 C 42.531 269.998, 37.901 273.657, 34.895 274.950 C 29.189 277.404, 25.068 282.131, 20.468 291.500 C 13.337 306.021, 12.469 313.890, 10.770 379.500 C 9.099 443.967, 9.229 461.638, 11.434 469.920 C 14.163 480.171, 18.590 487.834, 25.992 495.118 C 38.128 507.060, 50.179 511.015, 63.723 507.502 L 70.541 505.734 75.908 508.453 C 85.484 513.306, 96.163 512.901, 107.788 507.245 C 119.585 501.505, 128.219 489.229, 131.445 473.612 C 133.474 463.790, 133.463 442.687, 131.422 428.772 C 130.283 421.005, 130.003 414.189, 130.414 404.257 C 130.728 396.691, 131.253 379.029, 131.583 365.009 C 132.928 307.779, 126.347 282.139, 106.930 268.953 C 103.631 266.712, 99.310 263.455, 97.327 261.714 C 93.846 258.658, 93.751 258.634, 94.565 261.024 C 95.923 265.012, 95.140 270.222, 92.810 272.702 C 88.439 277.355, 80.847 274.780, 74.829 266.602 C 72.998 264.114, 71.275 262.062, 71 262.043 C 70.725 262.023, 69.671 264.022, 68.659 266.485 C 65.783 273.477, 63.368 276, 59.550 276 C 53.647 276, 51.912 271.151, 54.777 262.664 C 55.829 259.549, 56.411 257, 56.071 257 C 55.731 257, 51.894 260.580, 47.545 264.955 M 334 257.740 C 332.362 258.275, 330 260.903, 330 262.191 C 330 263.980, 334.976 262.913, 336.057 260.893 C 337.313 258.547, 336.297 256.990, 334 257.740 M 987 269.306 C 982.897 270.706, 982.156 273.631, 986 273.256 C 991.328 272.736, 993 271.954, 993 269.981 C 993 267.731, 991.962 267.614, 987 269.306 M 731.953 277.087 C 730.326 280.127, 732.242 286.259, 735.659 288.946 C 740.836 293.019, 749.504 290.673, 752.484 284.393 C 755.071 278.942, 753.944 275, 749.800 275 C 748.467 275, 748 275.778, 748 278 C 748 281.382, 744.962 285, 742.122 285 C 739.688 285, 737.910 282.794, 737.083 278.750 C 736.288 274.864, 733.608 273.995, 731.953 277.087 M 923.045 281.750 C 920.596 287.027, 920.590 296.153, 923.029 306.909 C 924.287 312.459, 925.716 317, 926.204 317 C 927.076 317, 926.788 314.213, 924.935 304.701 C 923.772 298.729, 923.732 294, 924.846 294 C 926.127 294, 929 308.302, 929 314.683 C 929 320.247, 929.023 320.290, 931 318.500 C 933.830 315.939, 933.487 318.268, 930.514 321.801 C 928.715 323.939, 927.743 326.764, 926.997 332.020 C 926.431 336.014, 925.684 340.411, 925.338 341.791 C 924.422 345.439, 926.212 343.870, 928.724 338.823 C 935.371 325.471, 937.610 308.118, 934.372 295.064 C 930.936 281.216, 925.991 275.402, 923.045 281.750 M 899.415 284.137 C 898.993 284.821, 898.443 288.902, 898.194 293.207 C 897.658 302.464, 898.715 305.810, 906.705 320.161 C 909.919 325.934, 912.771 332.673, 913.792 336.904 C 914.731 340.799, 915.849 343.989, 916.275 343.993 C 917.512 344.004, 918.830 339.655, 919.501 333.343 C 920.792 321.214, 914.901 301.034, 906.726 289.577 C 902.250 283.304, 900.661 282.122, 899.415 284.137 M 190.500 285.404 L 183.500 286.570 189 289.521 C 193.852 292.124, 195.506 292.474, 203.044 292.486 C 209.634 292.497, 212.222 292.084, 214.361 290.683 C 218.010 288.292, 216.585 286.506, 209.885 285.069 C 203.903 283.786, 199.781 283.857, 190.500 285.404 M 876.988 294.514 C 875.319 296.526, 876.366 304.015, 879.148 309.952 C 880.518 312.875, 885.727 318.903, 893.731 326.825 C 900.579 333.604, 906.379 338.954, 906.619 338.714 C 906.860 338.474, 906.524 336.977, 905.874 335.389 C 905.224 333.800, 904.575 331.923, 904.430 331.218 C 903.900 328.631, 895.066 315.461, 893.026 314.217 C 890.717 312.809, 891.157 310.739, 893.570 311.665 C 894.718 312.106, 894.583 311.407, 893 308.725 C 891.631 306.404, 890.342 305.341, 889.212 305.601 C 887.231 306.056, 883.294 303.372, 884.368 302.298 C 884.766 301.901, 886.014 302.152, 887.143 302.857 C 891.343 305.480, 890.204 302.794, 885.075 297.978 C 879.238 292.498, 878.813 292.316, 876.988 294.514 M 903.872 296.761 C 904.990 298.850, 909 302.625, 909 301.589 C 909 300.372, 906.764 296.543, 905.600 295.765 C 903.683 294.485, 902.897 294.939, 903.872 296.761 M 690.175 299.669 C 690.599 301.870, 694.500 302.169, 694.500 300 C 694.500 299.175, 693.447 298.351, 692.161 298.169 C 690.347 297.912, 689.901 298.249, 690.175 299.669 M 948.244 299.531 C 944.920 301.875, 943.355 305.683, 942.610 313.237 C 942.245 316.943, 941.700 320.768, 941.399 321.737 C 940.470 324.726, 949.642 314.074, 952.467 308.884 C 956.867 300.800, 954.350 295.226, 948.244 299.531 M 910 306.676 C 910 308.033, 916.841 322, 917.505 322 C 918.382 322, 912.933 308.522, 911.456 307.036 C 910.610 306.185, 910 306.035, 910 306.676 M 424.489 311.250 C 425.665 314.913, 426.179 345.484, 425.295 359.250 C 424.845 366.262, 424.820 372, 425.238 372 C 425.657 372, 426 371.593, 426 371.095 C 426 370.598, 426.693 363.960, 427.540 356.345 C 429.252 340.952, 429.918 315.996, 428.731 311.750 C 428.205 309.868, 427.299 309, 425.864 309 C 424.142 309, 423.896 309.402, 424.489 311.250 M 469.430 311.113 C 459.578 313.505, 446.318 319.943, 446.910 322.045 C 447.136 322.845, 447.522 324.962, 447.769 326.750 C 448.392 331.253, 449.399 330.815, 451.074 325.314 C 452.850 319.478, 455 318.407, 455 323.358 C 455 328.958, 456.823 328.628, 459.619 322.522 C 461.035 319.428, 462.712 317.077, 463.347 317.297 C 464.650 317.747, 464.720 321.534, 463.479 324.424 C 462.776 326.060, 462.940 326.220, 464.576 325.496 C 468.170 323.907, 473.421 324.338, 473.801 326.253 C 474.194 328.238, 473.419 328.594, 466.750 329.487 C 464.137 329.836, 462 330.545, 462 331.061 C 462 331.578, 462.421 332, 462.935 332 C 463.449 332, 465.121 332.476, 466.651 333.057 C 471.063 334.735, 467.550 336.023, 460.507 335.311 C 454.581 334.711, 454.524 334.729, 456.250 336.680 C 457.212 337.768, 458 338.935, 458 339.274 C 458 339.613, 455.637 339.802, 452.750 339.695 C 445.154 339.413, 445.234 341.360, 452.853 342.201 C 458.750 342.851, 459.595 342.681, 464.641 339.833 C 467.631 338.146, 471.167 335.337, 472.499 333.591 C 476.200 328.738, 479.813 320.084, 480.573 314.250 C 481.381 308.051, 481.685 308.137, 469.430 311.113 M 747.667 313.667 C 747.300 314.033, 747 314.933, 747 315.667 C 747 317.565, 763.293 317.557, 764.869 315.658 C 765.481 314.920, 765.687 314.020, 765.325 313.658 C 764.461 312.795, 748.531 312.803, 747.667 313.667 M 851.220 316.096 C 853.772 319.562, 863.584 327.237, 868.986 329.993 C 873.172 332.128, 884.876 335.619, 890.428 336.388 L 894.355 336.932 885.959 328.518 C 881.342 323.891, 876.649 318.510, 875.532 316.562 L 873.500 313.020 861.220 313.010 L 848.940 313 851.220 316.096 M 204.500 315.715 C 186.935 318.144, 168.936 328.054, 158.077 341.274 C 145.831 356.183, 139.242 375.926, 138.293 400.552 C 136.942 435.627, 146.985 463.266, 168.663 484.126 C 181.097 496.091, 197.028 504.418, 214.500 508.085 C 226.493 510.602, 231.362 510.485, 240.974 507.448 L 249.051 504.897 256.775 507.567 C 267.358 511.224, 279.175 510.745, 292.936 506.099 C 323.196 495.883, 338.453 479.112, 345.790 448 C 350.116 429.655, 350.500 425.898, 350.491 402 C 350.480 375.324, 349.782 371.157, 343.041 357.500 C 327.244 325.501, 290.447 310.531, 262.312 324.659 L 257.123 327.265 246.685 322.606 C 240.944 320.044, 233.154 317.292, 229.374 316.491 C 222.942 315.128, 211.354 314.767, 204.500 315.715 M 909.478 317.500 C 910.338 320.224, 914.240 325.868, 915.637 326.410 C 917.752 327.230, 915.854 323.160, 912.318 319.295 C 910.049 316.815, 909.065 316.193, 909.478 317.500 M 207.500 321.892 C 204.369 322.368, 203.500 322.935, 203.500 324.500 C 203.500 325.929, 204.071 326.418, 205.500 326.212 C 206.600 326.054, 210.159 325.720, 213.408 325.471 C 220.265 324.945, 221.230 324.372, 218.557 322.418 C 216.554 320.953, 214.361 320.849, 207.500 321.892 M 228.500 324 C 227.603 325.451, 228.839 327, 230.892 327 C 233.195 327, 233.994 326.147, 233.324 324.402 C 232.705 322.789, 229.418 322.515, 228.500 324 M 442.596 326.500 C 440.072 331.978, 439.219 338.424, 441.100 337.809 C 443.459 337.039, 445.127 332.245, 444.774 327.250 L 444.439 322.500 442.596 326.500 M 280.667 326.667 C 278.572 328.761, 280.511 329.752, 287.750 330.287 C 292.012 330.602, 297.646 331.611, 300.268 332.530 C 302.890 333.448, 305.815 333.897, 306.768 333.526 C 308.322 332.921, 308.258 332.654, 306.151 330.935 C 304.858 329.881, 301.514 328.339, 298.719 327.509 C 293.582 325.984, 281.895 325.438, 280.667 326.667 M 898 326.826 C 898 327.813, 902.324 332, 903.344 332 C 903.738 332, 903.062 330.650, 901.842 329 C 899.692 326.092, 898 325.135, 898 326.826 M 586 334.970 C 576.108 337.599, 557.999 346.651, 550.534 352.699 C 538.701 362.286, 528.698 377.399, 523.860 393 C 520.500 403.834, 520.485 423.229, 523.828 434 C 529.736 453.037, 545.130 472.659, 563.461 484.522 C 594.330 504.498, 627.101 501.481, 654.155 476.173 C 675.667 456.051, 686.398 421.675, 680.121 393 C 676.267 375.396, 666.649 360.559, 652.586 350.524 C 644.926 345.058, 629.508 337.578, 621.500 335.442 C 611.678 332.823, 594.920 332.601, 586 334.970 M 312 340.500 C 312 341.325, 312.402 342, 312.894 342 C 313.385 342, 317.073 345.158, 321.089 349.018 C 328.194 355.846, 329.918 356.746, 330.804 354.089 C 331.511 351.967, 317.553 339, 314.562 339 C 312.951 339, 312 339.557, 312 340.500 M 716.250 340.728 C 712.507 340.997, 711 341.520, 711 342.552 C 711 343.780, 715.062 343.998, 737.750 343.986 C 764.905 343.972, 769.377 343.631, 768.708 341.623 C 768.341 340.519, 728.630 339.842, 716.250 340.728 M 101.329 342.419 C 97.327 344.209, 96 346.685, 96 352.363 C 96 359.017, 101.295 363.214, 102.481 357.500 C 102.766 356.125, 103.234 353.875, 103.519 352.500 C 104.237 349.040, 108.199 349.129, 110.773 352.662 C 113.277 356.101, 116 355.259, 116 351.047 C 116 347.192, 111.525 342.165, 107.500 341.498 C 105.850 341.224, 103.073 341.639, 101.329 342.419 M 38.750 343.080 C 34.519 345.545, 32.119 356, 35.784 356 C 36.766 356, 38.366 354.650, 39.341 353 C 40.316 351.350, 41.962 350, 43 350 C 45.417 350, 48 353.676, 48 357.116 C 48 360.568, 50.504 361.496, 53.023 358.977 C 56.667 355.333, 55.143 347.298, 50.046 343.282 C 48.167 341.801, 41.161 341.676, 38.750 343.080 M 386.634 350.586 C 378.097 352.653, 369.320 357.654, 362.651 364.252 C 356.821 370.019, 356.804 370.054, 357.412 374.769 C 357.747 377.371, 358.286 387.375, 358.609 397 C 359.087 411.225, 358.851 416.746, 357.348 426.500 C 354.940 442.136, 354.935 454.805, 357.334 462 C 365.006 485.011, 384.332 504.726, 402.511 508.087 C 407.108 508.937, 409.554 508.804, 415.602 507.378 C 422.733 505.697, 423.330 505.700, 430.060 507.445 C 464.824 516.462, 507.213 472.733, 512.888 422 C 513.947 412.527, 512.874 398.897, 510.371 390.052 C 505.249 371.952, 492.359 358.797, 473.500 352.422 C 466.636 350.102, 463.363 349.649, 450.453 349.231 L 435.406 348.745 433.781 359.617 C 432.888 365.597, 432.294 370.627, 432.461 370.794 C 432.628 370.962, 434.412 369.982, 436.424 368.616 C 443.557 363.775, 457.404 360.877, 462 363.262 C 466.322 365.505, 465.009 367.179, 457.500 368.997 C 453.650 369.929, 446.450 372.421, 441.500 374.535 C 429.895 379.490, 421.177 379.795, 411 375.604 C 403.433 372.487, 393.415 365.938, 394.057 364.527 C 394.618 363.293, 398.486 363.777, 403 365.645 C 406.220 366.978, 406.372 366.965, 404.897 365.480 C 404.015 364.592, 401.540 363.264, 399.397 362.529 C 394.042 360.692, 393.574 358, 398.611 358 C 403.635 358, 410.104 361.266, 414.318 365.930 L 417.763 369.743 418.219 361.122 C 418.907 348.109, 419.860 348.986, 405.133 349.083 C 397.944 349.131, 389.972 349.778, 386.634 350.586 M 80.667 353.667 C 80.300 354.033, 80 355.283, 80 356.444 C 80 359.343, 77.266 363, 75.098 363 C 72.798 363, 70.346 360.260, 69.456 356.696 C 68.925 354.570, 68.242 353.966, 66.628 354.196 C 63.272 354.675, 63.164 360.852, 66.442 364.749 C 72.867 372.384, 86 367.684, 86 357.750 C 86 354.204, 82.675 351.658, 80.667 353.667 M 904.500 356.482 C 887.236 361.143, 864.151 373.887, 852.220 385.344 C 837.133 399.831, 829.023 418.679, 829.007 439.292 C 828.982 470.803, 846.525 496.420, 876.498 508.640 C 890.689 514.425, 898.788 516.031, 917.104 516.688 C 935.788 517.358, 947.929 516.213, 961.976 512.453 C 1003.696 501.288, 1026.220 465.122, 1017.064 424 C 1014.725 413.493, 1012.231 407.621, 1006.359 398.789 C 995.982 383.178, 970.620 367.527, 944.499 360.613 C 939 359.157, 932.039 357.299, 929.032 356.483 C 922.342 354.669, 911.217 354.668, 904.500 356.482 M 330.523 357.963 C 330.196 358.492, 331.092 361.221, 332.513 364.026 C 334.335 367.620, 335.601 369.024, 336.799 368.778 C 339.015 368.322, 338.535 365.543, 335.414 360.750 C 332.948 356.963, 331.611 356.202, 330.523 357.963 M 301.465 385.644 C 297.680 387.534, 294.353 392.348, 293.467 397.217 C 291.956 405.516, 300.645 415.121, 308.283 413.593 C 315.582 412.134, 322 404.966, 322 398.274 C 322 393.948, 318.697 388.733, 314.396 386.266 C 309.900 383.689, 305.777 383.490, 301.465 385.644 M 199.241 388.995 C 187.501 396.152, 190.929 412.996, 204.653 415.590 C 208.917 416.396, 214.658 413.553, 216.717 409.615 C 217.613 407.902, 218.321 404.443, 218.291 401.929 C 218.150 390.163, 208.297 383.473, 199.241 388.995 M 241.607 400.582 C 240.545 403.349, 240.951 408.004, 242.517 411.033 C 246.490 418.716, 259.940 418.977, 265.832 411.486 C 268.448 408.160, 268.661 402.804, 266.272 400.415 C 264.634 398.777, 264.510 398.851, 263.903 401.818 C 262.861 406.915, 260.366 409.841, 256.431 410.579 C 250.387 411.713, 244.994 407.566, 244.645 401.516 C 244.484 398.720, 242.550 398.125, 241.607 400.582 M 733 402.648 C 725.257 403.169, 723 403.817, 723 405.519 C 723 406.765, 725.536 407, 739 407 C 752.264 407, 755 406.754, 755 405.559 C 755 404.766, 754.663 403.913, 754.250 403.662 C 753.029 402.920, 738.944 402.248, 733 402.648 M 325.280 412.020 C 321.892 413.383, 321.160 417.901, 323.960 420.169 C 326.881 422.534, 332.206 422.535, 334.345 420.171 C 339.144 414.869, 332.669 409.047, 325.280 412.020 M 793.667 411.667 C 793.300 412.033, 793 413.188, 793 414.233 C 793 417.172, 798.392 416.261, 798.820 413.250 C 799.075 411.452, 798.656 411, 796.736 411 C 795.415 411, 794.033 411.300, 793.667 411.667 M 179.571 414.571 C 175.829 418.314, 178.701 422.987, 185.194 423.718 C 188.902 424.136, 190.152 423.848, 191.809 422.191 C 195.743 418.257, 191.762 413, 184.849 413 C 182.811 413, 180.436 413.707, 179.571 414.571 M 870.450 414.407 C 868.773 415.137, 866.186 417.179, 864.700 418.944 C 862.483 421.580, 862 423.137, 862 427.654 C 862 432.358, 862.409 433.563, 864.829 435.983 C 872.269 443.423, 883.653 441.324, 887.459 431.810 C 890.236 424.871, 887.634 417.930, 880.961 414.480 C 877.473 412.676, 874.472 412.655, 870.450 414.407 M 558.912 416.280 C 554.268 419.410, 552.834 422.532, 553.329 428.441 C 553.647 432.238, 554.355 433.909, 556.388 435.657 C 563.093 441.425, 573.186 440.408, 576.701 433.612 C 579.697 427.817, 577.800 419.074, 572.783 415.561 C 569.475 413.244, 562.913 413.584, 558.912 416.280 M 641.990 415.759 C 632.630 420.430, 633.564 435.096, 643.378 437.559 C 647.365 438.559, 653.157 435.202, 655.412 430.584 C 657.147 427.030, 657.193 426.298, 655.912 422.674 C 653.523 415.919, 647.582 412.968, 641.990 415.759 M 327.190 416.750 C 327.376 417.712, 328.190 418.500, 329 418.500 C 329.810 418.500, 330.624 417.712, 330.810 416.750 C 331.046 415.522, 330.506 415, 329 415 C 327.494 415, 326.954 415.522, 327.190 416.750 M 183.185 417.750 C 183.385 418.805, 184.605 419.626, 186.259 419.816 C 189.178 420.153, 189.762 419.162, 187.800 417.200 C 185.925 415.325, 182.796 415.698, 183.185 417.750 M 969.420 417.886 C 963.904 421.250, 961.328 430.360, 964.353 435.810 C 969.138 444.434, 983.071 443.692, 987.394 434.583 C 989.445 430.259, 989.392 428.459, 987.057 423.316 C 983.910 416.386, 975.916 413.924, 969.420 417.886 M 912.571 422.571 C 908.779 426.364, 911.845 436.670, 918 440.819 C 920.875 442.757, 922.445 443.102, 926.791 442.753 C 932.751 442.275, 936.510 439.982, 939.386 435.070 C 943.001 428.897, 940.746 418.476, 936.550 421.958 C 935.698 422.666, 935 424.510, 935 426.057 C 935 432.589, 931.857 436.053, 925.771 436.226 C 921.694 436.341, 918 432.201, 918 427.516 C 918 424.744, 915.989 421, 914.500 421 C 914.304 421, 913.436 421.707, 912.571 422.571 M 366.314 423.950 C 362.290 426.404, 361 428.818, 361 433.895 C 361 438.607, 363.482 441.465, 369.013 443.122 C 380.297 446.503, 387.963 431.650, 378.614 424.519 C 374.659 421.503, 370.633 421.317, 366.314 423.950 M 469.256 423.978 C 466.180 425.284, 463.008 430.800, 463.004 434.850 C 462.999 439.538, 468.464 445.003, 473.150 444.993 C 479.490 444.981, 484.895 439.616, 484.965 433.266 C 485.040 426.424, 476.033 421.099, 469.256 423.978 M 611.458 427.750 C 610.379 434.144, 609.908 435.084, 607.282 436.083 C 602.526 437.891, 599.449 435.370, 598.037 428.506 C 597.246 424.665, 594.403 424.022, 592.889 427.343 C 592.020 429.252, 592.075 430.829, 593.128 434.135 C 597.238 447.035, 615.217 445.127, 616.738 431.630 C 617.582 424.148, 612.674 420.542, 611.458 427.750 M 411.817 434.502 C 409.009 440.666, 416.045 450, 423.500 450 C 427.290 450, 432.961 446.447, 434.721 442.970 C 436.426 439.600, 436.315 435.458, 434.471 433.614 C 432.405 431.548, 430 432.655, 430 435.673 C 430 437.025, 429.483 439.114, 428.850 440.316 C 425.417 446.839, 418.404 444.421, 417.077 436.257 C 416.319 431.593, 413.562 430.673, 411.817 434.502 M 792 435.070 C 792 436.641, 792.539 437.062, 794.240 436.820 C 797.564 436.345, 797.856 433, 794.573 433 C 792.638 433, 792 433.513, 792 435.070 M 546.875 439.515 C 542.755 441.740, 542.435 444.986, 546.015 448.250 C 549.623 451.539, 551.841 451.700, 555.365 448.927 C 558.593 446.389, 558.713 444.001, 555.750 441.289 C 552.594 438.400, 549.926 437.867, 546.875 439.515 M 654.223 439.557 C 649.631 442.772, 652.645 450, 658.576 450 C 661.010 450, 666 445.780, 666 443.722 C 666 441.544, 661.608 438, 658.908 438 C 657.553 438, 655.445 438.701, 654.223 439.557 M 516.658 441.023 C 505.801 476.410, 485.531 501.042, 458.104 512.182 C 451.168 514.999, 449.327 517.319, 453.202 518.357 C 456.276 519.180, 560.240 519.164, 570.846 518.338 L 579.192 517.689 578.543 512.094 C 577.141 500.004, 577.275 500.272, 571.290 497.532 C 552.024 488.712, 533.312 470.216, 522.012 448.823 C 519.233 443.562, 516.915 440.185, 516.658 441.023 M 548.406 443.152 C 547.474 444.660, 551.066 447.334, 552.329 446.071 C 553.603 444.797, 552.409 442, 550.590 442 C 549.781 442, 548.798 442.518, 548.406 443.152 M 656 444 C 656 445.646, 656.518 446.065, 658.250 445.820 C 659.487 445.644, 660.500 444.825, 660.500 444 C 660.500 443.175, 659.487 442.356, 658.250 442.180 C 656.518 441.935, 656 442.354, 656 444 M 728.500 443 C 727.047 445.350, 729.659 446, 740.559 446 C 751.333 446, 752 445.883, 752 444 C 752 442.117, 751.333 442, 740.559 442 C 734.010 442, 728.854 442.428, 728.500 443 M 732.029 469.942 C 729.219 471.755, 732.218 472.500, 742.331 472.500 C 750.703 472.500, 752.500 472.235, 752.500 471 C 752.500 469.790, 750.665 469.451, 743 469.246 C 737.775 469.106, 732.838 469.419, 732.029 469.942 M 26.171 487.648 C 26.364 488.654, 27.346 489.636, 28.352 489.829 C 29.673 490.084, 30.084 489.673, 29.829 488.352 C 29.636 487.346, 28.654 486.364, 27.648 486.171 C 26.327 485.916, 25.916 486.327, 26.171 487.648 M 966.578 490.267 C 962.159 492.783, 961.154 494.461, 963.522 495.370 C 965.631 496.179, 973.099 491.907, 972.762 490.083 C 972.345 487.828, 970.781 487.875, 966.578 490.267 M 94.036 492.964 C 90.589 496.411, 91.823 498.236, 96.066 495.965 C 98.122 494.864, 98.636 492.511, 97.036 491.523 C 96.507 491.195, 95.157 491.843, 94.036 492.964 M 110.213 492.188 C 108.206 494.194, 108.771 496.172, 111.250 495.820 C 112.690 495.615, 113.500 494.810, 113.500 493.583 C 113.500 491.244, 111.855 490.545, 110.213 492.188 M 33.667 493.667 C 32.429 494.905, 32.987 495.625, 36.886 497.816 C 41.439 500.375, 46 500.717, 46 498.500 C 46 497.675, 45.528 497, 44.952 497 C 44.375 497, 42.041 496.100, 39.764 495 C 35.224 492.807, 34.652 492.682, 33.667 493.667 M 971.717 498.212 C 967.718 501.420, 967.030 503, 969.632 503 C 971.990 503, 978 499.068, 978 497.525 C 978 494.979, 975.391 495.264, 971.717 498.212 M 99.750 501.105 C 95.214 503.416, 94.497 506.590, 98.750 505.534 C 103.355 504.391, 106.500 502.551, 106.500 501 C 106.500 498.876, 104.051 498.914, 99.750 501.105 M 624.015 510.250 C 624.026 515.946, 624.331 518.036, 625 517 C 626.289 515.005, 626.289 502, 625 502 C 624.413 502, 624.006 505.406, 624.015 510.250 M 585.070 508.667 C 585.176 517.423, 586.573 519.873, 587.474 512.882 C 588.315 506.355, 587.994 503.830, 586.250 503.250 C 585.340 502.947, 585.019 504.421, 585.070 508.667 M 594.843 509.371 C 594.272 518.319, 593.916 518, 604.492 518 C 609.631 518, 614.548 517.727, 615.418 517.393 C 616.632 516.927, 617 515.300, 617 510.393 L 617 504 606.093 504 L 595.185 504 594.843 509.371 M 415.250 514.721 C 412.913 515.529, 411 516.597, 411 517.095 C 411 517.593, 416.175 518, 422.500 518 C 428.825 518, 434 517.592, 434 517.094 C 434 515.870, 425.278 512.969, 422.072 513.126 C 420.657 513.195, 417.587 513.913, 415.250 514.721 M 62.298 515.404 C 56.522 517.507, 57.535 518, 67.583 517.978 L 77.500 517.956 73.141 515.978 C 68.298 513.781, 66.954 513.709, 62.298 515.404 M 243 515.142 C 241.625 515.747, 239.150 516.592, 237.500 517.019 C 235.674 517.491, 240.176 517.802, 249 517.813 L 263.500 517.830 258 516.331 C 250.232 514.215, 245.888 513.870, 243 515.142 M 400.015 516.750 C 400.033 518.743, 401.658 521.681, 402.351 520.971 C 402.894 520.414, 403.285 518.009, 403.118 516.250 C 402.934 514.306, 399.998 514.779, 400.015 516.750 M 662.171 519.294 C 660.658 521.117, 661.660 522, 665.240 522 C 667.469 522, 668.069 521.592, 667.813 520.250 C 667.396 518.060, 663.713 517.436, 662.171 519.294 M 681.500 519 C 680.466 520.674, 681.965 522, 684.892 522 C 688.163 522, 689.060 521.321, 688.324 519.402 C 687.710 517.801, 682.433 517.490, 681.500 519 M 4.070 521.869 C 2.740 524.355, 3.583 525, 8.167 525 C 11.261 525, 12 524.635, 12 523.107 C 12 519.730, 5.738 518.752, 4.070 521.869 M 328.104 520.914 C 326.019 522.235, 327.579 525, 330.410 525 C 333.672 525, 334.774 523.039, 332.462 521.348 C 330.306 519.772, 329.962 519.738, 328.104 520.914 M 143.980 522.524 C 142.374 524.459, 142.900 524.947, 147.368 525.672 C 149.686 526.048, 151.557 525.783, 152.582 524.932 C 154.039 523.722, 154.023 523.490, 152.399 522.303 C 149.989 520.540, 145.529 520.657, 143.980 522.524 M 343 523.132 C 340.570 524.110, 340.554 524.178, 342.441 525.569 C 345.071 527.508, 349.906 527.408, 350.677 525.399 C 351.815 522.433, 347.735 521.228, 343 523.132 M 1013.466 523.055 C 1013.069 523.698, 1013.364 524.627, 1014.122 525.121 C 1016.207 526.478, 1020.500 525.724, 1020.500 524 C 1020.500 522.156, 1014.518 521.353, 1013.466 523.055 M 365.345 526.543 C 365.019 527.392, 365.073 528.404, 365.464 528.793 C 366.697 530.018, 387.318 529.104, 388.131 527.788 C 389.573 525.454, 387.746 525, 376.910 525 C 367.943 525, 365.829 525.282, 365.345 526.543 M 643.250 526.031 C 636.801 528.623, 644.246 530.584, 656.860 529.614 C 665.479 528.952, 667.802 528.106, 666.554 526.087 C 665.734 524.761, 646.526 524.714, 643.250 526.031 M 687.693 526.700 C 686.665 526.967, 686.023 527.887, 686.204 528.834 C 686.464 530.196, 687.978 530.547, 694.511 530.756 C 702.998 531.028, 705.673 530.197, 704.677 527.601 C 704.186 526.320, 702.607 526.023, 696.781 526.116 C 692.777 526.180, 688.687 526.443, 687.693 526.700 M 979 527.892 C 979 530.598, 982.566 531.190, 994.084 530.397 C 1002.834 529.794, 1004 529.496, 1004 527.857 C 1004 526.147, 1003.013 526, 991.500 526 C 979.905 526, 979 526.137, 979 527.892 M 910.698 528.635 C 910.314 529.019, 910 529.933, 910 530.667 C 910 531.701, 912.596 532, 921.573 532 C 932.057 532, 933.115 531.835, 932.811 530.250 C 932.522 528.737, 931.047 528.462, 921.937 528.218 C 916.140 528.063, 911.083 528.251, 910.698 528.635 M 716.190 530.750 C 716.480 532.252, 717.726 532.500, 725 532.500 C 732.274 532.500, 733.520 532.252, 733.810 530.750 C 734.111 529.186, 733.173 529, 725 529 C 716.827 529, 715.889 529.186, 716.190 530.750" stroke="none"  fill-rule="evenodd"/></svg>