<svg xmlns="http://www.w3.org/2000/svg" width="512" height="512" viewBox="0 0 512 512" version="1.1"><path d="M 184.500 1.811 C 165.626 7.427, 149.461 22.698, 143.779 40.278 C 142.069 45.569, 141.250 46.913, 140.044 46.404 C 139.195 46.046, 133.997 45.529, 128.494 45.256 C 116.588 44.665, 109.204 46.218, 98 51.669 C 88.657 56.215, 76.993 67.521, 72.192 76.686 C 68.405 83.914, 65 96.350, 65 102.952 C 65 107.544, 64.955 107.606, 59.750 110.174 C 31.315 124.202, 26.334 163.032, 50.214 184.502 C 52.965 186.976, 57.418 190.010, 60.108 191.244 L 65 193.488 65 333.034 C 65 485.380, 64.740 478.239, 70.691 489.174 C 74.446 496.072, 83.709 504.494, 91.712 508.285 L 98.500 511.500 231 511.500 L 363.500 511.500 371.119 507.776 C 383.785 501.584, 393.024 489.805, 395.885 476.201 C 396.614 472.738, 397 454.633, 397 423.951 L 397 377 412.250 376.983 C 437.404 376.954, 448.734 373.261, 460.927 361.118 C 468.208 353.866, 473.092 345.585, 475.469 336.458 C 477.345 329.257, 477.683 276.418, 475.909 267.799 C 473.045 253.887, 461.869 238.917, 449.429 232.330 C 439.037 226.828, 434.511 226, 414.818 226 L 397 226 397 209.671 L 397 193.342 402.214 190.921 C 412.890 185.963, 422.154 174.187, 425.508 161.307 C 430.610 141.720, 420.899 119.999, 402.805 110.525 L 397.262 107.623 396.656 100.454 C 394.033 69.430, 367.634 45.074, 336.520 44.974 L 328.500 44.948 325.071 39.895 C 317.890 29.311, 304.027 19.922, 290.540 16.509 C 278.800 13.537, 262.671 14.956, 251.373 19.953 L 247.121 21.834 245.618 19.539 C 242.888 15.373, 230.632 7.046, 222.500 3.832 C 215.376 1.017, 213.186 0.636, 202.500 0.349 C 193.166 0.098, 189.167 0.423, 184.500 1.811 M 195.223 31.051 C 178.163 34.456, 167.775 51.308, 172.114 68.540 C 173.603 74.451, 172.546 79.308, 168.858 83.509 C 162.953 90.235, 154.230 90.554, 146.802 84.316 C 136.003 75.247, 123.598 73.362, 112.200 79.058 C 105.198 82.557, 101.720 86.238, 98.218 93.857 C 95.975 98.736, 95.821 99.940, 96.496 107.357 C 97.856 122.311, 97.677 126.258, 95.500 129.235 C 92.795 132.935, 86.286 136, 81.135 136 C 76.016 136, 72.120 137.880, 68.619 142.041 C 63.823 147.741, 65.381 157.658, 71.834 162.500 C 74.420 164.440, 76.464 164.515, 140.178 165 C 204.554 165.490, 205.910 165.541, 208.616 167.562 C 215.267 172.530, 215.453 173.234, 216 195.499 C 216.459 214.202, 216.671 216.090, 218.605 218.680 C 225.294 227.643, 237.994 227.277, 243.465 217.965 C 245.273 214.886, 245.556 212.272, 246 194.500 C 246.550 172.497, 246.853 171.399, 253.500 167.334 C 256.305 165.619, 260.722 165.468, 321.545 165 C 382.064 164.535, 386.782 164.374, 389.343 162.696 C 401.522 154.712, 395.698 136.066, 381 135.982 C 374.727 135.946, 368.779 132.996, 366.038 128.562 C 364.071 125.378, 363.853 124.062, 364.409 118.694 C 366.246 100.961, 366.242 100.660, 364.094 94.951 C 361.551 88.190, 355.348 81.596, 348.500 78.373 C 342.383 75.494, 334.341 75.255, 324.906 77.673 C 318.327 79.359, 318.301 79.357, 313.406 76.931 C 308.953 74.724, 308.131 73.740, 304.500 66.271 C 297.496 51.862, 289.065 45.824, 275.953 45.824 C 267.856 45.824, 262.520 47.920, 255.797 53.742 C 244.599 63.437, 234.235 61.176, 227.587 47.588 C 221.607 35.366, 208.124 28.477, 195.223 31.051 M 96.004 333.750 C 96.007 468.608, 96.048 471.567, 97.960 474.701 C 99.033 476.462, 101.394 478.712, 103.206 479.701 C 106.327 481.406, 113.036 481.500, 231 481.500 L 355.500 481.500 359.144 479.234 C 366.522 474.646, 366 485.777, 366 333.099 L 366 196 321.098 196 L 276.196 196 275.848 209.305 C 275.507 222.333, 275.423 222.767, 271.782 230.131 C 266.951 239.901, 259.899 246.952, 250.129 251.782 C 242.760 255.424, 242.371 255.500, 231.053 255.500 C 219.774 255.500, 219.314 255.411, 211.678 251.765 C 193.721 243.191, 185.031 227.546, 185.008 203.750 L 185 196 140.500 196 L 96 196 96.004 333.750 M 397 300.897 L 397 346 411.757 346 C 419.873 346, 428.046 345.560, 429.920 345.023 C 435.405 343.450, 440.534 339.273, 443.364 334.073 L 446 329.229 446 301.583 C 446 271.498, 445.685 269.441, 440.197 263.658 C 434.388 257.538, 431.037 256.608, 413.250 256.183 L 397 255.794 397 300.897 M 158.500 272.404 C 141.745 277.726, 129.046 291.592, 126.005 307.886 C 125.452 310.849, 125.007 328.399, 125.015 346.886 C 125.031 383.593, 125.618 388.852, 130.748 398.278 C 132.230 401.002, 135.725 405.541, 138.515 408.365 C 163.271 433.431, 205.443 421.872, 214.639 387.500 C 216.714 379.744, 216.559 312.568, 214.448 304.460 C 210.616 289.742, 198.799 277.529, 183.909 272.895 C 176.851 270.698, 164.616 270.462, 158.500 272.404 M 256.368 294.057 C 254.646 294.573, 251.608 296.798, 249.618 299.001 C 246.566 302.379, 246 303.725, 246 307.602 C 246 316.735, 251.377 322.980, 259.878 323.721 C 268.746 324.493, 276 317.870, 276 309 C 276 298.717, 266.061 291.152, 256.368 294.057 M 316.500 294.181 C 314.850 294.779, 312.860 295.771, 312.077 296.384 C 310.385 297.710, 251.821 370.701, 248.379 375.773 C 243.714 382.648, 245.989 392.584, 253.241 397.005 C 257.498 399.601, 264.481 399.614, 268.712 397.034 C 273.094 394.362, 334.390 317.553, 335.921 312.815 C 337.244 308.721, 336.245 303.201, 333.464 299.244 C 330.284 294.720, 321.909 292.221, 316.500 294.181 M 162.041 304.619 C 156.004 309.698, 156 309.730, 156.002 346.200 C 156.003 383.358, 156.143 384.217, 162.898 388.730 C 168.867 392.718, 176.462 391.440, 182 385.516 L 184.500 382.841 184.812 347.671 C 185.094 315.868, 184.958 312.186, 183.392 309.226 C 179.486 301.844, 168.227 299.414, 162.041 304.619 M 317.966 369.820 C 312.719 372.146, 308.010 378.581, 308.004 383.434 C 308.002 385.048, 308.932 388.294, 310.071 390.647 C 316.515 403.957, 336.756 400.690, 338.724 386.022 C 339.411 380.898, 336.013 373.789, 331.561 371.038 C 328.282 369.011, 321.219 368.378, 317.966 369.820"  fill-rule="evenodd"/></svg>