<?xml version="1.0" standalone="no"?>
<!DOCTYPE svg PUBLIC "-//W3C//DTD SVG 20010904//EN"
 "http://www.w3.org/TR/2001/REC-SVG-20010904/DTD/svg10.dtd">
<svg version="1.0" xmlns="http://www.w3.org/2000/svg"
 width="512.000000pt" height="512.000000pt" viewBox="0 0 512.000000 512.000000"
 preserveAspectRatio="xMidYMid meet">
<metadata>
Created by potrace 1.16, written by Peter Selinger 2001-2019
</metadata>
<g transform="translate(0.000000,512.000000) scale(0.100000,-0.100000)"
stroke="none">
<path d="M303 5100 c-134 -48 -237 -152 -284 -288 -18 -54 -19 -115 -19 -2252
0 -2137 1 -2198 19 -2252 47 -138 151 -242 288 -289 55 -18 97 -19 1643 -19
1546 0 1588 1 1643 19 137 47 241 151 288 289 18 51 19 88 19 504 l0 448 547
647 c618 732 606 718 640 793 38 82 44 225 14 317 -43 133 -140 236 -266 285
-50 19 -78 23 -170 22 -199 -1 -240 -30 -538 -382 l-222 -262 -5 782 c-5 841
-2 795 -58 897 -29 51 -92 115 -430 435 -259 245 -298 276 -385 305 -60 21
-73 21 -1366 20 -1246 0 -1308 -1 -1358 -19z m2397 -682 c0 -378 1 -405 19
-432 10 -15 32 -37 47 -47 27 -18 54 -19 432 -19 l402 0 0 -801 0 -800 -334
-395 c-183 -218 -346 -418 -360 -444 -18 -33 -53 -157 -106 -380 -44 -182 -80
-341 -80 -353 0 -40 43 -109 80 -129 68 -35 97 -27 412 109 161 69 309 136
328 148 19 12 41 25 48 29 11 7 13 -36 10 -240 -3 -235 -4 -251 -25 -284 -12
-19 -37 -44 -55 -55 -33 -20 -51 -20 -1568 -20 -1517 0 -1535 0 -1568 20 -18
11 -43 36 -55 55 l-22 35 0 2145 0 2145 22 35 c24 39 53 60 98 71 17 4 535 7
1153 8 l1122 1 0 -402z m705 -52 l150 -145 -277 0 -278 -1 0 266 0 266 128
-120 c70 -66 195 -186 277 -266z m1339 -1365 c43 -29 66 -70 66 -121 0 -51
-16 -81 -81 -153 l-44 -48 -108 92 c-96 81 -107 93 -95 107 97 118 130 142
193 142 22 0 53 -8 69 -19z m-371 -468 c56 -47 101 -92 101 -98 -1 -7 -182
-227 -404 -489 -273 -323 -406 -474 -415 -468 -21 12 -204 167 -204 173 -1 6
811 969 817 969 2 0 49 -39 105 -87z m-1004 -1223 c49 -41 90 -78 90 -83 1 -4
-18 -26 -41 -49 -32 -31 -77 -56 -177 -99 -74 -32 -136 -57 -138 -56 -1 2 14
68 33 147 34 142 46 173 87 218 24 26 14 31 146 -78z"/>
<path d="M666 4201 c-46 -31 -66 -69 -66 -131 0 -62 20 -100 66 -131 28 -18
62 -19 834 -19 772 0 806 1 834 19 46 31 66 69 66 131 0 62 -20 100 -66 131
-28 18 -62 19 -834 19 -772 0 -806 -1 -834 -19z"/>
<path d="M666 3291 c-46 -31 -66 -69 -66 -131 0 -62 20 -100 66 -131 28 -18
71 -19 1284 -19 1213 0 1256 1 1284 19 46 31 66 69 66 131 0 62 -20 100 -66
131 -28 18 -71 19 -1284 19 -1213 0 -1256 -1 -1284 -19z"/>
<path d="M666 2391 c-46 -31 -66 -69 -66 -131 0 -62 20 -100 66 -131 28 -18
71 -19 1284 -19 1213 0 1256 1 1284 19 46 31 66 69 66 131 0 62 -20 100 -66
131 -28 18 -71 19 -1284 19 -1213 0 -1256 -1 -1284 -19z"/>
<path d="M666 1491 c-46 -31 -66 -69 -66 -131 0 -62 20 -100 66 -131 28 -18
62 -19 834 -19 772 0 806 1 834 19 46 31 66 69 66 131 0 62 -20 100 -66 131
-28 18 -62 19 -834 19 -772 0 -806 -1 -834 -19z"/>
</g>
</svg>
