<svg xmlns="http://www.w3.org/2000/svg" width="252" height="282" viewBox="0 0 252 282" version="1.1"><path d="M 180.025 3.747 C 172.190 4.114, 169 5.657, 169 9.084 C 169 10.059, 169.751 11.608, 170.669 12.527 C 172.146 14.003, 174.757 14.156, 193.244 13.848 L 214.149 13.500 217.575 17.235 C 220.508 20.435, 221 21.679, 221 25.909 C 221 31.962, 217.703 36.464, 212.176 37.957 C 210.154 38.504, 175.650 39.635, 135.500 40.470 C 95.350 41.306, 58.146 42.263, 52.825 42.597 C 37.029 43.590, 32 40.476, 32 29.701 C 32 25.060, 32.436 23.745, 34.819 21.194 C 38.390 17.371, 39.493 17.238, 73.500 16.535 C 153.150 14.888, 155.429 14.797, 157.250 13.213 C 158.213 12.375, 159 10.482, 159 9.006 C 159 4.935, 155.896 4.058, 143.345 4.583 C 137.380 4.833, 111.800 5.493, 86.500 6.050 C 60.820 6.615, 38.733 7.532, 36.500 8.125 C 33.908 8.813, 30.909 10.828, 27.981 13.850 C 19.564 22.537, 18.665 34.290, 25.694 43.757 L 28.112 47.014 23.616 69.257 C 8.655 143.273, 1.502 194.041, 0.327 234.554 C -0.351 257.892, 0.096 260.801, 5.085 265.581 C 7.957 268.333, 8.707 268.521, 18.811 269.023 L 29.500 269.553 41.988 275.904 L 54.476 282.254 81.488 281.689 C 96.345 281.378, 115.925 280.649, 125 280.070 C 134.075 279.490, 153.650 278.328, 168.500 277.487 C 224.045 274.342, 228.482 273.990, 233.468 272.339 C 240.037 270.164, 248.317 262.005, 250.152 255.900 L 251.474 251.500 252.118 254.500 C 252.473 256.150, 252.739 249.400, 252.709 239.500 C 252.678 229.047, 252.413 224.225, 252.077 228 C 251.637 232.957, 251.190 228.920, 250.195 211 C 248.379 178.322, 246.085 145.075, 245.399 141.500 C 245.083 139.850, 243.984 134, 242.959 128.500 C 241.141 118.753, 237.821 102.847, 232.523 78.500 C 231.087 71.900, 228.791 61.256, 227.421 54.846 L 224.930 43.191 227.464 39.458 C 236.268 26.485, 230.453 8.448, 216.078 4.141 C 212.514 3.074, 197.850 2.913, 180.025 3.747 M 213.887 48.446 C 213.623 48.710, 193.628 49.411, 169.454 50.004 C 65.946 52.541, 54.796 52.870, 54.266 53.401 C 53.959 53.708, 54.252 65.556, 54.917 79.730 C 56.182 106.662, 56.918 122.490, 59.484 177.913 C 60.335 196.289, 60.770 212.151, 60.449 213.160 C 59.743 215.386, 55.295 216.675, 53.095 215.291 C 50.840 213.871, 50.295 208.989, 49.046 179 C 46.172 109.982, 43.396 54.051, 42.817 53.498 C 42.643 53.332, 41.383 53.039, 40.017 52.848 C 37.573 52.505, 37.482 52.753, 34.267 68.500 C 30.625 86.342, 22.985 128.135, 20.557 143.500 C 19.688 149, 18.523 156.200, 17.969 159.500 C 13.892 183.785, 10.675 218.739, 10.579 239.785 C 10.489 259.436, 10.290 258.960, 18.592 258.985 L 23.684 259 24.312 230.750 C 24.868 205.776, 26.938 171.416, 29.977 136.755 C 30.520 130.565, 31.248 122.125, 31.596 118 C 32.326 109.349, 33.974 106, 37.500 106 C 41.771 106, 42.839 109.262, 41.919 119.500 C 37.508 168.594, 35.123 205.184, 34.358 235.500 L 33.727 260.500 43.443 265.283 L 53.159 270.066 52.830 248.819 L 52.500 227.571 55.220 226.603 C 57.348 225.846, 58.350 226.006, 59.825 227.342 C 61.406 228.773, 61.816 231.100, 62.365 241.774 C 62.726 248.773, 63.306 258.715, 63.656 263.868 L 64.291 273.235 72.896 272.603 C 77.628 272.255, 93.650 271.298, 108.500 270.477 C 123.350 269.656, 143.375 268.536, 153 267.989 C 162.625 267.442, 182.650 266.311, 197.500 265.475 C 212.350 264.639, 225.954 263.692, 227.732 263.370 C 232.351 262.533, 239.384 255.999, 240.818 251.212 C 241.690 248.303, 241.747 243.259, 241.038 231.888 C 239.327 204.438, 238.032 181.769, 237.446 169 C 236.487 148.112, 234.836 138.336, 222.838 82.500 C 216.162 51.434, 215.067 47.266, 213.887 48.446 M 157.827 107.675 C 156.906 107.918, 155.415 109.243, 154.513 110.620 C 152.373 113.887, 151.454 125.338, 152.904 130.677 C 156.273 143.085, 172.715 143.198, 176.044 130.836 C 177.912 123.901, 172.900 113.349, 165.634 108.919 C 162.543 107.033, 161.112 106.806, 157.827 107.675 M 126.929 110.269 C 119.327 115.392, 114.934 128.105, 118.430 134.865 C 120.380 138.636, 125.401 141.991, 129.102 141.996 C 132.368 142.001, 138.073 138.226, 139.721 134.970 C 141.282 131.884, 141.362 122.322, 139.875 116.417 C 138.715 111.813, 135.154 108, 132.013 108 C 131.069 108, 128.781 109.021, 126.929 110.269 M 186.005 137.647 C 178.960 145.670, 176.820 156.911, 181.455 161.545 C 184.874 164.965, 191.689 164.974, 195.742 161.563 C 201.701 156.549, 202.576 145.490, 197.607 137.982 C 194.065 132.630, 190.500 132.527, 186.005 137.647 M 98.565 139.525 C 93.791 144.676, 93.233 156.128, 97.443 162.553 C 100.044 166.522, 105.512 168.463, 110.166 167.068 C 114.887 165.654, 117 162.697, 117 157.505 C 117 150.120, 107.544 137.019, 102.202 137.004 C 101.488 137.002, 99.852 138.136, 98.565 139.525 M 141 150.175 C 134.529 152.014, 129.007 157.063, 124.047 165.676 C 122.407 168.523, 119.245 172.316, 117.019 174.105 C 114.765 175.916, 111.818 179.716, 110.366 182.683 C 105.338 192.962, 108.895 205.466, 118.837 212.453 C 122.464 215.002, 124.258 215.525, 130.456 215.838 C 136.789 216.157, 138.626 215.831, 143.954 213.440 L 150.121 210.673 156.310 212.846 C 166.848 216.547, 174.867 215.220, 182.893 208.445 C 187.302 204.724, 190.978 196.781, 190.990 190.946 C 191.005 184.174, 186.920 176.759, 180.506 171.917 C 177.614 169.733, 173.639 165.523, 171.672 162.561 C 164.189 151.290, 152.990 146.768, 141 150.175 M 144.500 159.733 C 140.698 160.685, 136.888 164.228, 133.818 169.669 C 132.122 172.673, 128.158 177.732, 125.008 180.912 C 117.946 188.039, 116.828 191.948, 119.987 198.472 C 123.709 206.163, 131.685 208.050, 140.508 203.329 C 146.911 199.902, 152.778 199.753, 159.885 202.836 C 166.478 205.696, 170.589 205.178, 175.497 200.868 C 179.526 197.331, 181.242 192.332, 179.961 187.865 C 179.447 186.073, 175.794 181.511, 171.287 177.032 C 167.004 172.776, 161.993 167.437, 160.152 165.167 C 156.001 160.050, 150.651 158.193, 144.500 159.733 M 0.413 240.500 C 0.414 250.400, 0.564 254.315, 0.746 249.199 C 0.928 244.084, 0.927 235.984, 0.744 231.199 C 0.561 226.415, 0.412 230.600, 0.413 240.500" fill-rule="evenodd"/></svg>