<svg xmlns="http://www.w3.org/2000/svg" version="1.0" preserveAspectRatio="xMidYMid meet" viewBox="30.5 44.39 439.48 427.97">

<g transform="translate(0.000000,512.000000) scale(0.100000,-0.100000)" >
<path d="M1480 4674 c-194 -35 -292 -65 -415 -127 -164 -82 -299 -196 -384 -323 -76 -113 -93 -168 -98 -309 l-5 -120 61 -240 c68 -266 103 -352 177 -434 258 -287 801 -344 1240 -131 235 114 406 290 475 490 18 51 23 87 23 170 1 98 -4 122 -63 345 -79 298 -100 345 -206 451 -68 69 -95 89 -185 132 -151 74 -239 93 -435 97 -88 2 -171 1 -185 -1z m373 -174 l38 -11 -33 -37 c-18 -20 -210 -239 -427 -485 -216 -247 -399 -451 -407 -454 -22 -8 -115 49 -174 107 -139 136 -160 330 -52 495 123 189 368 339 639 390 90 17 354 14 416 -5z m364 -213 c245 -333 -154 -792 -737 -847 -97 -9 -263 0 -278 15 -3 3 8 20 25 38 16 17 209 236 427 485 l398 452 61 -42 c33 -24 80 -69 104 -101z m180 -599 c21 -275 -250 -539 -655 -640 -124 -31 -371 -31 -487 0 -227 62 -389 191 -411 330 l-6 41 78 -39 c404 -200 987 -102 1315 221 36 36 84 91 104 123 23 34 42 53 47 48 5 -5 12 -43 15 -84z"/>
<path d="M3386 3109 c-560 -77 -1129 -541 -1348 -1100 -123 -313 -115 -607 23 -835 40 -66 536 -595 603 -642 68 -49 180 -97 271 -118 103 -24 298 -23 410 0 401 85 793 348 1058 709 310 422 385 909 188 1215 -40 62 -453 507 -561 604 -74 67 -178 121 -285 148 -94 24 -261 33 -359 19z m324 -174 c194 -52 340 -203 379 -393 11 -53 16 -272 6 -272 -5 0 -328 -55 -1592 -272 -167 -28 -306 -48 -310 -44 -11 11 103 224 175 326 86 122 281 316 402 402 205 145 431 239 655 272 53 8 229 -4 285 -19z m740 -674 c170 -250 97 -674 -182 -1054 -81 -110 -272 -297 -388 -379 -246 -175 -508 -271 -745 -271 -214 -1 -308 38 -467 192 -60 57 -108 107 -108 110 0 3 46 4 102 3 482 -17 1037 315 1363 813 151 230 235 480 235 704 l1 96 79 -85 c44 -47 93 -105 110 -129z m-400 -172 c0 -22 -71 -179 -117 -260 -129 -223 -314 -418 -541 -570 -358 -240 -744 -305 -1008 -171 -165 84 -258 240 -270 450 -6 103 8 221 27 233 7 4 42 12 78 17 71 11 847 144 1441 247 417 72 390 68 390 54z"/>
<path d="M1270 2533 c-346 -33 -593 -135 -775 -318 -86 -86 -138 -171 -172 -280 -16 -53 -18 -97 -18 -370 0 -273 2 -317 18 -370 60 -194 203 -348 427 -461 310 -155 734 -182 1085 -68 174 57 265 114 265 166 0 26 -53 78 -80 78 -11 0 -48 -14 -81 -30 -159 -81 -343 -121 -559 -122 -198 -1 -345 27 -512 97 -206 87 -360 244 -397 406 -11 48 -15 139 -5 139 3 0 34 -26 69 -57 281 -258 810 -354 1253 -227 103 29 138 58 128 108 -7 37 -39 66 -71 66 -13 0 -64 -11 -114 -24 -137 -37 -264 -50 -420 -43 -397 18 -729 198 -821 444 -51 137 -7 320 101 420 l24 21 565 -279 c543 -269 567 -279 598 -268 59 20 72 90 24 131 -15 12 -256 135 -536 273 -576 284 -538 253 -389 315 302 126 684 126 997 1 43 -17 86 -31 97 -31 31 0 69 44 69 80 0 44 -33 72 -129 109 -191 74 -455 113 -641 94z"/>
</g>
</svg>