<svg xmlns="http://www.w3.org/2000/svg" xmlns:xlink="http://www.w3.org/1999/xlink" version="1.1" style="shape-rendering:geometricPrecision; text-rendering:geometricPrecision; image-rendering:optimizeQuality; fill-rule:evenodd; clip-rule:evenodd" viewBox="102.5 55.44 299.94 300.13">
<g><path style="opacity:0.967"  d="M 182.5,55.5 C 195.837,55.3334 209.171,55.5001 222.5,56C 227,57.8333 230.167,61 232,65.5C 232.11,93.8534 232.776,122.187 234,150.5C 235.571,161.116 238.237,171.449 242,181.5C 246.703,191.952 251.203,202.452 255.5,213C 255.095,213.945 254.428,214.612 253.5,215C 250.947,215.761 248.447,216.594 246,217.5C 240.649,204.803 235.316,192.136 230,179.5C 226.709,168.669 224.209,157.669 222.5,146.5C 209.167,145.167 195.833,145.167 182.5,146.5C 181.263,154.585 179.597,162.585 177.5,170.5C 173.396,171.909 170.062,170.909 167.5,167.5C 169.97,157.982 171.47,148.316 172,138.5C 172.333,114.167 172.667,89.8333 173,65.5C 175.022,60.98 178.189,57.6467 182.5,55.5 Z M 186.5,65.5 C 197.936,65.0441 209.269,65.5441 220.5,67C 221.126,67.7504 221.626,68.5838 222,69.5C 222.499,74.8229 222.666,80.1563 222.5,85.5C 209.167,85.5 195.833,85.5 182.5,85.5C 182.5,83.8333 182.5,82.1667 182.5,80.5C 192.5,80.5 202.5,80.5 212.5,80.5C 212.5,77.1667 212.5,73.8333 212.5,70.5C 202.494,70.6665 192.494,70.4998 182.5,70C 183.357,67.9812 184.691,66.4812 186.5,65.5 Z M 182.5,95.5 C 195.833,95.5 209.167,95.5 222.5,95.5C 222.5,98.8333 222.5,102.167 222.5,105.5C 209.167,105.5 195.833,105.5 182.5,105.5C 182.5,102.167 182.5,98.8333 182.5,95.5 Z M 182.5,115.5 C 195.833,115.5 209.167,115.5 222.5,115.5C 222.5,122.167 222.5,128.833 222.5,135.5C 209.167,135.5 195.833,135.5 182.5,135.5C 182.5,128.833 182.5,122.167 182.5,115.5 Z"/></g>
<g><path style="opacity:0.97" d="M 357.5,72.5 C 356.566,73.5676 356.232,74.901 356.5,76.5C 358.167,76.5 359.833,76.5 361.5,76.5C 382.183,80.5295 390.349,92.8628 386,113.5C 383.416,119.584 379.25,124.25 373.5,127.5C 372.167,130.5 372.167,133.5 373.5,136.5C 382.8,142.054 384.967,149.721 380,159.5C 378.261,161.741 376.094,163.408 373.5,164.5C 372.167,166.833 372.167,169.167 373.5,171.5C 382.8,177.054 384.967,184.721 380,194.5C 378.261,196.741 376.094,198.408 373.5,199.5C 373.45,225.057 376.117,250.391 381.5,275.5C 393.909,278.103 399.076,285.77 397,298.5C 393.699,301.65 394.033,303.983 398,305.5C 404.914,315.811 403.748,324.978 394.5,333C 392.35,334.411 390.016,335.245 387.5,335.5C 387.666,341.509 387.499,347.509 387,353.5C 386.5,354 386,354.5 385.5,355C 362.836,355.5 340.169,355.667 317.5,355.5C 317.5,352.167 317.5,348.833 317.5,345.5C 337.5,345.5 357.5,345.5 377.5,345.5C 377.5,342.167 377.5,338.833 377.5,335.5C 360.833,335.5 344.167,335.5 327.5,335.5C 327.5,332.167 327.5,328.833 327.5,325.5C 348.234,325.965 368.9,325.465 389.5,324C 392.551,320.852 393.051,317.352 391,313.5C 389.829,312.107 388.329,311.273 386.5,311C 371.837,310.5 357.17,310.333 342.5,310.5C 342.5,307.167 342.5,303.833 342.5,300.5C 355.504,300.667 368.504,300.5 381.5,300C 386.907,297.789 388.407,293.955 386,288.5C 384.829,287.107 383.329,286.273 381.5,286C 370.172,285.5 358.838,285.333 347.5,285.5C 347.5,282.167 347.5,278.833 347.5,275.5C 355.507,275.666 363.507,275.5 371.5,275C 365.506,250.569 362.506,225.736 362.5,200.5C 349.167,200.5 335.833,200.5 322.5,200.5C 322.438,214.911 321.438,229.244 319.5,243.5C 318.533,244.806 317.199,245.473 315.5,245.5C 313.473,245.662 311.473,245.495 309.5,245C 309.043,244.586 308.709,244.086 308.5,243.5C 311.084,228.88 312.084,214.213 311.5,199.5C 302.2,193.946 300.033,186.279 305,176.5C 306.739,174.259 308.906,172.592 311.5,171.5C 312.833,169.167 312.833,166.833 311.5,164.5C 302.2,158.946 300.033,151.279 305,141.5C 306.739,139.259 308.906,137.592 311.5,136.5C 312.833,133.5 312.833,130.5 311.5,127.5C 297.956,118.699 294.123,106.699 300,91.5C 306.317,81.4341 315.484,76.1008 327.5,75.5C 327.257,58.2351 335.257,52.4018 351.5,58C 356.123,61.7456 358.123,66.5789 357.5,72.5 Z M 341.5,65.5 C 348.866,68.2119 349.199,71.5452 342.5,75.5C 336.356,72.5953 336.023,69.262 341.5,65.5 Z M 328.5,85.5 C 337.839,85.3335 347.173,85.5002 356.5,86C 368.285,86.6886 375.285,92.6886 377.5,104C 376.377,112.455 371.71,117.788 363.5,120C 348.112,120.935 332.779,120.602 317.5,119C 305.1,110.038 304.433,100.372 315.5,90C 319.715,87.7632 324.048,86.2632 328.5,85.5 Z M 322.5,130.5 C 335.833,130.5 349.167,130.5 362.5,130.5C 362.5,132.167 362.5,133.833 362.5,135.5C 349.167,135.5 335.833,135.5 322.5,135.5C 322.5,133.833 322.5,132.167 322.5,130.5 Z M 316.5,145.5 C 333.837,145.333 351.17,145.5 368.5,146C 373.833,149 373.833,152 368.5,155C 351.167,155.667 333.833,155.667 316.5,155C 311.316,151.858 311.316,148.691 316.5,145.5 Z M 322.5,165.5 C 335.833,165.5 349.167,165.5 362.5,165.5C 362.5,167.167 362.5,168.833 362.5,170.5C 349.167,170.5 335.833,170.5 322.5,170.5C 322.5,168.833 322.5,167.167 322.5,165.5 Z M 316.5,180.5 C 333.837,180.333 351.17,180.5 368.5,181C 373.833,184 373.833,187 368.5,190C 351.167,190.667 333.833,190.667 316.5,190C 311.316,186.858 311.316,183.691 316.5,180.5 Z"/></g>
<g><path style="opacity:0.506"  d="M 357.5,72.5 C 357.5,73.5 357.5,74.5 357.5,75.5C 359.099,75.2322 360.432,75.5655 361.5,76.5C 359.833,76.5 358.167,76.5 356.5,76.5C 356.232,74.901 356.566,73.5676 357.5,72.5 Z"/></g>
<g><path style="opacity:0.963"  d="M 206.5,250.5 C 204.446,250.635 202.779,249.968 201.5,248.5C 196.543,242.372 191.376,236.372 186,230.5C 183.133,225.901 181.966,220.901 182.5,215.5C 165.833,215.5 149.167,215.5 132.5,215.5C 133.034,220.901 131.867,225.901 129,230.5C 125.034,235.467 120.701,240.134 116,244.5C 114.441,246.217 113.608,248.217 113.5,250.5C 141.5,250.5 169.5,250.5 197.5,250.5C 197.5,253.833 197.5,257.167 197.5,260.5C 169.167,260.5 140.833,260.5 112.5,260.5C 112.5,280.5 112.5,300.5 112.5,320.5C 139.167,320.5 165.833,320.5 192.5,320.5C 192.5,323.833 192.5,327.167 192.5,330.5C 165.825,330.167 139.158,330.5 112.5,331.5C 113.961,338.794 118.295,343.294 125.5,345C 146.833,345.667 168.167,345.667 189.5,345C 194.364,344.146 198.197,341.646 201,337.5C 203.748,339.458 206.582,341.291 209.5,343C 205.867,349.303 200.534,353.303 193.5,355C 169.5,355.667 145.5,355.667 121.5,355C 112,352.167 105.833,346 103,336.5C 102.333,306.833 102.333,277.167 103,247.5C 104.139,243.888 105.806,240.554 108,237.5C 112.701,233.134 117.034,228.467 121,223.5C 121.822,220.883 122.322,218.216 122.5,215.5C 110.634,212.436 105.8,204.769 108,192.5C 109.833,186.667 113.667,182.833 119.5,181C 144.833,180.333 170.167,180.333 195.5,181C 208.693,188.346 211.027,198.346 202.5,211C 199.52,213.324 196.187,214.824 192.5,215.5C 192.678,218.216 193.178,220.883 194,223.5C 197.966,228.467 202.299,233.134 207,237.5C 209.819,241.124 211.486,245.124 212,249.5C 210.301,250.406 208.467,250.739 206.5,250.5 Z M 123.5,190.5 C 146.169,190.333 168.836,190.5 191.5,191C 196.907,193.211 198.407,197.045 196,202.5C 194.829,203.893 193.329,204.727 191.5,205C 168.833,205.667 146.167,205.667 123.5,205C 118.093,202.789 116.593,198.955 119,193.5C 120.409,192.219 121.909,191.219 123.5,190.5 Z"/></g>
<g><path style="opacity:0.968"  d="M 259.5,226.5 C 271.412,226.304 282.079,229.804 291.5,237C 300.833,246.333 310.167,255.667 319.5,265C 324.833,265.333 330.167,265.667 335.5,266C 342.362,294.737 333.196,316.904 308,332.5C 307.667,339.5 307.333,346.5 307,353.5C 306.5,354 306,354.5 305.5,355C 276.833,355.667 248.167,355.667 219.5,355C 219,354.5 218.5,354 218,353.5C 217.667,346.5 217.333,339.5 217,332.5C 191.804,316.904 182.638,294.737 189.5,266C 194.833,265.667 200.167,265.333 205.5,265C 214.833,255.667 224.167,246.333 233.5,237C 241.288,231.022 249.955,227.522 259.5,226.5 Z M 256.5,237.5 C 265.464,236.592 273.797,238.426 281.5,243C 289.47,249.969 297.136,257.302 304.5,265C 276.5,265.667 248.5,265.667 220.5,265C 227.167,258.333 233.833,251.667 240.5,245C 245.557,241.635 250.89,239.135 256.5,237.5 Z M 197.5,275.5 C 240.833,275.5 284.167,275.5 327.5,275.5C 328.616,303.559 315.616,321.393 288.5,329C 271.167,331 253.833,331 236.5,329C 209.381,321.39 196.381,303.557 197.5,275.5 Z M 227.5,337.5 C 230.815,338.329 234.148,339.162 237.5,340C 254.167,340.667 270.833,340.667 287.5,340C 290.55,339.321 293.55,338.488 296.5,337.5C 297.48,340.086 297.813,342.753 297.5,345.5C 274.167,345.5 250.833,345.5 227.5,345.5C 227.5,342.833 227.5,340.167 227.5,337.5 Z"/></g>
<g><path style="opacity:0.275"  d="M 319.5,243.5 C 319.5,244.5 319.5,245.5 319.5,246.5C 317.901,246.768 316.568,246.434 315.5,245.5C 317.199,245.473 318.533,244.806 319.5,243.5 Z"/></g>
<g><path style="opacity:0.408" d="M 201.5,248.5 C 202.779,249.968 204.446,250.635 206.5,250.5C 205.081,251.451 203.415,251.784 201.5,251.5C 201.5,250.5 201.5,249.5 201.5,248.5 Z"/></g>
<g><path style="opacity:0.98" d="M 147.5,265.5 C 157.3,264.973 166.966,265.806 176.5,268C 177.672,268.419 178.672,269.085 179.5,270C 178.407,272.443 177.407,274.943 176.5,277.5C 175.833,277.833 175.167,278.167 174.5,278.5C 160.342,273.981 146.675,275.147 133.5,282C 125.5,287.667 125.5,293.333 133.5,299C 146.675,305.853 160.342,307.019 174.5,302.5C 175.647,302.818 176.481,303.484 177,304.5C 177.642,306.762 178.475,308.929 179.5,311C 175.854,313.248 171.854,314.582 167.5,315C 154.157,317.037 141.49,315.037 129.5,309C 113.5,296.667 113.5,284.333 129.5,272C 135.299,268.918 141.299,266.752 147.5,265.5 Z"/></g>
</svg>