<svg xmlns="http://www.w3.org/2000/svg" width="281" height="327" viewBox="0 0 281 327" version="1.1"><path d="M 48.924 10.750 L 46.500 13.500 49.250 11.076 C 50.763 9.742, 52 8.505, 52 8.326 C 52 7.541, 51.190 8.180, 48.924 10.750 M 101.924 10.750 L 99.500 13.500 102.250 11.076 C 104.820 8.810, 105.459 8, 104.674 8 C 104.495 8, 103.258 9.238, 101.924 10.750 M 78 11.313 C 78 11.485, 79.463 12.948, 81.250 14.563 L 84.500 17.500 81.563 14.250 C 78.825 11.221, 78 10.540, 78 11.313 M 131 11.313 C 131 11.485, 132.463 12.948, 134.250 14.563 L 137.500 17.500 134.563 14.250 C 131.825 11.221, 131 10.540, 131 11.313 M 187 14.500 C 188.292 15.875, 189.574 17, 189.849 17 C 190.124 17, 189.292 15.875, 188 14.500 C 186.708 13.125, 185.426 12, 185.151 12 C 184.876 12, 185.708 13.125, 187 14.500 M 61.762 14.707 C 63.006 14.946, 64.806 14.937, 65.762 14.687 C 66.718 14.437, 65.700 14.241, 63.500 14.252 C 61.300 14.263, 60.518 14.468, 61.762 14.707 M 114.762 14.707 C 116.006 14.946, 117.806 14.937, 118.762 14.687 C 119.718 14.437, 118.700 14.241, 116.500 14.252 C 114.300 14.263, 113.518 14.468, 114.762 14.707 M 167.762 14.707 C 169.006 14.946, 170.806 14.937, 171.762 14.687 C 172.718 14.437, 171.700 14.241, 169.500 14.252 C 167.300 14.263, 166.518 14.468, 167.762 14.707 M 55.405 17.250 L 53.500 19.500 56 17.511 C 57.375 16.417, 58.688 15.404, 58.917 15.261 C 59.146 15.117, 58.878 15, 58.322 15 C 57.765 15, 56.453 16.012, 55.405 17.250 M 127 20.500 C 128.866 22.425, 130.617 24, 130.892 24 C 131.167 24, 129.866 22.425, 128 20.500 C 126.134 18.575, 124.383 17, 124.108 17 C 123.833 17, 125.134 18.575, 127 20.500 M 178 18.313 C 178 18.485, 179.463 19.948, 181.250 21.563 L 184.500 24.500 181.563 21.250 C 178.825 18.221, 178 17.540, 178 18.313 M 75 21.500 C 76.292 22.875, 77.574 24, 77.849 24 C 78.124 24, 77.292 22.875, 76 21.500 C 74.708 20.125, 73.426 19, 73.151 19 C 72.876 19, 73.708 20.125, 75 21.500 M 88.269 27.693 C 89.242 27.947, 90.592 27.930, 91.269 27.656 C 91.946 27.382, 91.150 27.175, 89.500 27.195 C 87.850 27.215, 87.296 27.439, 88.269 27.693 M 141.269 27.693 C 142.242 27.947, 143.592 27.930, 144.269 27.656 C 144.946 27.382, 144.150 27.175, 142.500 27.195 C 140.850 27.215, 140.296 27.439, 141.269 27.693 M 194.269 27.693 C 195.242 27.947, 196.592 27.930, 197.269 27.656 C 197.946 27.382, 197.150 27.175, 195.500 27.195 C 193.850 27.215, 193.296 27.439, 194.269 27.693 M 89.250 34.743 C 93.513 34.931, 100.487 34.931, 104.750 34.743 C 109.013 34.556, 105.525 34.402, 97 34.402 C 88.475 34.402, 84.987 34.556, 89.250 34.743 M 127.250 34.743 C 131.512 34.931, 138.488 34.931, 142.750 34.743 C 147.012 34.556, 143.525 34.402, 135 34.402 C 126.475 34.402, 122.987 34.556, 127.250 34.743 M 68.264 35.718 C 69.784 35.947, 72.034 35.941, 73.264 35.704 C 74.494 35.467, 73.250 35.279, 70.500 35.286 C 67.750 35.294, 66.744 35.488, 68.264 35.718 M 160.264 35.718 C 161.784 35.947, 164.034 35.941, 165.264 35.704 C 166.494 35.467, 165.250 35.279, 162.500 35.286 C 159.750 35.294, 158.744 35.488, 160.264 35.718 M 53.269 36.693 C 54.242 36.947, 55.592 36.930, 56.269 36.656 C 56.946 36.382, 56.150 36.175, 54.500 36.195 C 52.850 36.215, 52.296 36.439, 53.269 36.693 M 177.269 36.693 C 178.242 36.947, 179.592 36.930, 180.269 36.656 C 180.946 36.382, 180.150 36.175, 178.500 36.195 C 176.850 36.215, 176.296 36.439, 177.269 36.693 M 41.750 37.706 C 42.987 37.944, 45.013 37.944, 46.250 37.706 C 47.487 37.467, 46.475 37.272, 44 37.272 C 41.525 37.272, 40.513 37.467, 41.750 37.706 M 186.750 37.706 C 187.988 37.944, 190.012 37.944, 191.250 37.706 C 192.488 37.467, 191.475 37.272, 189 37.272 C 186.525 37.272, 185.512 37.467, 186.750 37.706 M 211 37.833 C 211 38.486, 209.349 39.070, 207.250 39.160 L 203.500 39.320 206.877 39.733 C 210.175 40.136, 213.046 38.713, 211.683 37.350 C 211.308 36.974, 211 37.192, 211 37.833 M 22.762 39.707 C 24.006 39.946, 25.806 39.937, 26.762 39.687 C 27.718 39.437, 26.700 39.241, 24.500 39.252 C 22.300 39.263, 21.518 39.468, 22.762 39.707 M 103.750 43.747 C 110.487 43.920, 121.513 43.920, 128.250 43.747 C 134.988 43.574, 129.475 43.432, 116 43.432 C 102.525 43.432, 97.013 43.574, 103.750 43.747 M 70.264 44.718 C 71.784 44.947, 74.034 44.941, 75.264 44.704 C 76.494 44.467, 75.250 44.279, 72.500 44.286 C 69.750 44.294, 68.744 44.488, 70.264 44.718 M 157.250 44.716 C 158.762 44.945, 161.238 44.945, 162.750 44.716 C 164.262 44.487, 163.025 44.300, 160 44.300 C 156.975 44.300, 155.738 44.487, 157.250 44.716 M 55.264 45.718 C 56.784 45.947, 59.034 45.941, 60.264 45.704 C 61.494 45.467, 60.250 45.279, 57.500 45.286 C 54.750 45.294, 53.744 45.488, 55.264 45.718 M 172.250 45.716 C 173.762 45.945, 176.238 45.945, 177.750 45.716 C 179.262 45.487, 178.025 45.300, 175 45.300 C 171.975 45.300, 170.738 45.487, 172.250 45.716 M 185.269 46.693 C 186.242 46.947, 187.592 46.930, 188.269 46.656 C 188.946 46.382, 188.150 46.175, 186.500 46.195 C 184.850 46.215, 184.296 46.439, 185.269 46.693 M 217.195 48.500 C 217.215 50.150, 217.439 50.704, 217.693 49.731 C 217.947 48.758, 217.930 47.408, 217.656 46.731 C 217.382 46.054, 217.175 46.850, 217.195 48.500 M 33.762 47.707 C 35.006 47.946, 36.806 47.937, 37.762 47.687 C 38.718 47.437, 37.700 47.241, 35.500 47.252 C 33.300 47.263, 32.518 47.468, 33.762 47.707 M 195.250 47.689 C 196.213 47.941, 197.787 47.941, 198.750 47.689 C 199.713 47.438, 198.925 47.232, 197 47.232 C 195.075 47.232, 194.287 47.438, 195.250 47.689 M 14.195 51.500 C 14.215 53.150, 14.439 53.704, 14.693 52.731 C 14.947 51.758, 14.930 50.408, 14.656 49.731 C 14.382 49.054, 14.175 49.850, 14.195 51.500 M 208.232 52 C 208.232 53.925, 208.438 54.712, 208.689 53.750 C 208.941 52.788, 208.941 51.212, 208.689 50.250 C 208.438 49.288, 208.232 50.075, 208.232 52 M 23.272 54 C 23.272 56.475, 23.467 57.487, 23.706 56.250 C 23.944 55.013, 23.944 52.987, 23.706 51.750 C 23.467 50.513, 23.272 51.525, 23.272 54 M 218.286 60.500 C 218.294 63.250, 218.488 64.256, 218.718 62.736 C 218.947 61.216, 218.941 58.966, 218.704 57.736 C 218.467 56.506, 218.279 57.750, 218.286 60.500 M 13.286 63.500 C 13.294 66.250, 13.488 67.256, 13.718 65.736 C 13.947 64.216, 13.941 61.966, 13.704 60.736 C 13.467 59.506, 13.279 60.750, 13.286 63.500 M 209.195 62.500 C 209.215 64.150, 209.439 64.704, 209.693 63.731 C 209.947 62.758, 209.930 61.408, 209.656 60.731 C 209.382 60.054, 209.175 60.850, 209.195 62.500 M 22.232 66 C 22.232 67.925, 22.438 68.713, 22.689 67.750 C 22.941 66.787, 22.941 65.213, 22.689 64.250 C 22.438 63.288, 22.232 64.075, 22.232 66 M 219.232 72 C 219.232 73.925, 219.438 74.713, 219.689 73.750 C 219.941 72.787, 219.941 71.213, 219.689 70.250 C 219.438 69.287, 219.232 70.075, 219.232 72 M 210.310 75.500 C 210.315 78.800, 210.502 80.029, 210.725 78.232 C 210.947 76.435, 210.943 73.735, 210.715 72.232 C 210.486 70.729, 210.304 72.200, 210.310 75.500 M 12.142 76.095 C 11.994 79.854, 14.286 83, 17.174 83 C 19.586 83, 22.012 79.601, 21.868 76.421 C 21.741 73.585, 21.719 73.599, 21.118 76.896 C 19.842 83.907, 14.008 83.553, 12.892 76.398 L 12.284 72.500 12.142 76.095 M 220.286 89.500 C 220.294 92.250, 220.488 93.256, 220.718 91.736 C 220.947 90.216, 220.941 87.966, 220.704 86.736 C 220.467 85.506, 220.279 86.750, 220.286 89.500 M 106.762 87.707 C 108.006 87.946, 109.806 87.937, 110.762 87.687 C 111.718 87.437, 110.700 87.241, 108.500 87.252 C 106.300 87.263, 105.518 87.468, 106.762 87.707 M 121.750 87.706 C 122.987 87.944, 125.013 87.944, 126.250 87.706 C 127.487 87.467, 126.475 87.272, 124 87.272 C 121.525 87.272, 120.513 87.467, 121.750 87.706 M 211.286 91.500 C 211.294 94.250, 211.488 95.256, 211.718 93.736 C 211.947 92.216, 211.941 89.966, 211.704 88.736 C 211.467 87.506, 211.279 88.750, 211.286 91.500 M 12.200 93.200 C 11.540 93.860, 11.061 95.547, 11.136 96.950 L 11.272 99.500 11.732 97 C 11.985 95.625, 12.654 93.938, 13.218 93.250 C 14.528 91.655, 13.782 91.618, 12.200 93.200 M 20.252 98.500 C 20.263 100.700, 20.468 101.482, 20.707 100.238 C 20.946 98.994, 20.937 97.194, 20.687 96.238 C 20.437 95.282, 20.241 96.300, 20.252 98.500 M 57.437 100.250 L 54.500 103.500 57.750 100.563 C 59.538 98.948, 61 97.485, 61 97.313 C 61 96.540, 60.175 97.221, 57.437 100.250 M 221.365 111.500 C 221.368 117, 221.536 119.122, 221.738 116.216 C 221.941 113.311, 221.939 108.811, 221.734 106.216 C 221.528 103.622, 221.363 106, 221.365 111.500 M 50.924 106.750 L 48.500 109.500 51.250 107.076 C 53.820 104.810, 54.459 104, 53.674 104 C 53.495 104, 52.258 105.237, 50.924 106.750 M 60.966 109.750 L 55.500 115.500 61.250 110.034 C 66.592 104.956, 67.458 104, 66.716 104 C 66.560 104, 63.972 106.588, 60.966 109.750 M 10.385 119 C 10.385 125.875, 10.545 128.688, 10.740 125.250 C 10.936 121.813, 10.936 116.188, 10.740 112.750 C 10.545 109.313, 10.385 112.125, 10.385 119 M 212.320 116 C 212.320 119.575, 212.502 121.037, 212.723 119.250 C 212.945 117.463, 212.945 114.537, 212.723 112.750 C 212.502 110.963, 212.320 112.425, 212.320 116 M 19.355 125.500 C 19.352 130.450, 19.521 132.601, 19.731 130.280 C 19.940 127.959, 19.943 123.909, 19.736 121.280 C 19.530 118.651, 19.358 120.550, 19.355 125.500 M 170 123.500 C 171.292 124.875, 172.574 126, 172.849 126 C 173.124 126, 172.292 124.875, 171 123.500 C 169.708 122.125, 168.426 121, 168.151 121 C 167.876 121, 168.708 122.125, 170 123.500 M 122.924 128.750 L 120.500 131.500 123.250 129.076 C 125.820 126.810, 126.459 126, 125.674 126 C 125.495 126, 124.258 127.237, 122.924 128.750 M 161 127.313 C 161 127.485, 162.463 128.948, 164.250 130.563 L 167.500 133.500 164.563 130.250 C 161.825 127.221, 161 126.540, 161 127.313 M 129.437 135.250 L 126.500 138.500 129.750 135.563 C 132.779 132.825, 133.460 132, 132.687 132 C 132.515 132, 131.052 133.463, 129.437 135.250 M 57.689 136.250 C 54.575 139.334, 54.563 139.373, 57.454 137.008 C 59.129 135.637, 60.928 134.175, 61.450 133.758 C 61.972 133.341, 62.078 133, 61.685 133 C 61.292 133, 59.494 134.463, 57.689 136.250 M 222.409 154.500 C 222.408 163.850, 222.558 167.810, 222.743 163.299 C 222.928 158.789, 222.929 151.139, 222.745 146.299 C 222.562 141.460, 222.410 145.150, 222.409 154.500 M 102.250 139.689 C 103.213 139.941, 104.787 139.941, 105.750 139.689 C 106.713 139.438, 105.925 139.232, 104 139.232 C 102.075 139.232, 101.287 139.438, 102.250 139.689 M 213.402 155 C 213.402 163.525, 213.556 167.012, 213.743 162.750 C 213.931 158.488, 213.931 151.512, 213.743 147.250 C 213.556 142.988, 213.402 146.475, 213.402 155 M 198.195 144.500 C 198.215 146.150, 198.439 146.704, 198.693 145.731 C 198.947 144.758, 198.930 143.408, 198.656 142.731 C 198.382 142.054, 198.175 142.850, 198.195 144.500 M 180.286 147.500 C 180.294 150.250, 180.488 151.256, 180.718 149.736 C 180.947 148.216, 180.941 145.966, 180.704 144.736 C 180.467 143.506, 180.279 144.750, 180.286 147.500 M 33.232 147 C 33.232 148.925, 33.438 149.713, 33.689 148.750 C 33.941 147.787, 33.941 146.213, 33.689 145.250 C 33.438 144.287, 33.232 145.075, 33.232 147 M 78 147.500 C 79.866 149.425, 81.617 151, 81.892 151 C 82.167 151, 80.866 149.425, 79 147.500 C 77.134 145.575, 75.383 144, 75.108 144 C 74.833 144, 76.134 145.575, 78 147.500 M 89 145.878 C 89 146.360, 89.787 147.373, 90.750 148.128 C 92.298 149.342, 92.357 149.317, 91.259 147.908 C 90.576 147.032, 90.313 146.020, 90.675 145.658 C 91.037 145.296, 90.808 145, 90.167 145 C 89.525 145, 89 145.395, 89 145.878 M 171.195 147.500 C 171.215 149.150, 171.439 149.704, 171.693 148.731 C 171.947 147.758, 171.930 146.408, 171.656 145.731 C 171.382 145.054, 171.175 145.850, 171.195 147.500 M 101.750 148.706 C 102.987 148.944, 105.013 148.944, 106.250 148.706 C 107.487 148.467, 106.475 148.272, 104 148.272 C 101.525 148.272, 100.513 148.467, 101.750 148.706 M 199.195 154.500 C 199.215 156.150, 199.439 156.704, 199.693 155.731 C 199.947 154.758, 199.930 153.408, 199.656 152.731 C 199.382 152.054, 199.175 152.850, 199.195 154.500 M 33.252 162.500 C 33.263 164.700, 33.468 165.482, 33.707 164.238 C 33.946 162.994, 33.937 161.194, 33.687 160.238 C 33.437 159.282, 33.241 160.300, 33.252 162.500 M 175.144 166.750 C 174.053 169.300, 174.078 169.359, 175.484 167.559 C 176.318 166.491, 177 165.254, 177 164.809 C 177 163.289, 176.322 163.999, 175.144 166.750 M 67 167.500 C 68.292 168.875, 69.574 170, 69.849 170 C 70.124 170, 69.292 168.875, 68 167.500 C 66.708 166.125, 65.426 165, 65.151 165 C 64.876 165, 65.708 166.125, 67 167.500 M 60 173.500 C 61.292 174.875, 62.574 176, 62.849 176 C 63.124 176, 62.292 174.875, 61 173.500 C 59.708 172.125, 58.426 171, 58.151 171 C 57.876 171, 58.708 172.125, 60 173.500 M 157.946 174.750 L 154.500 178.500 158.250 175.054 C 161.740 171.846, 162.460 171, 161.696 171 C 161.529 171, 159.842 172.688, 157.946 174.750 M 88.768 175.725 C 90.565 175.947, 93.265 175.943, 94.768 175.715 C 96.271 175.486, 94.800 175.304, 91.500 175.310 C 88.200 175.315, 86.971 175.502, 88.768 175.725 M 19.349 184 C 19.349 188.675, 19.522 190.588, 19.732 188.250 C 19.943 185.912, 19.943 182.088, 19.732 179.750 C 19.522 177.412, 19.349 179.325, 19.349 184 M 46.071 177.500 C 46.071 178.050, 46.714 179.625, 47.500 181 C 48.286 182.375, 48.929 183.050, 48.929 182.500 C 48.929 181.950, 48.286 180.375, 47.500 179 C 46.714 177.625, 46.071 176.950, 46.071 177.500 M 164.946 180.750 L 161.500 184.500 165.250 181.054 C 168.740 177.846, 169.460 177, 168.696 177 C 168.529 177, 166.842 178.688, 164.946 180.750 M 10.382 190.500 C 10.384 197.100, 10.546 199.670, 10.741 196.211 C 10.937 192.752, 10.936 187.352, 10.738 184.211 C 10.540 181.070, 10.380 183.900, 10.382 190.500 M 87.776 184.733 C 90.128 184.945, 93.728 184.942, 95.776 184.727 C 97.824 184.512, 95.900 184.339, 91.500 184.343 C 87.100 184.346, 85.424 184.522, 87.776 184.733 M 131.768 184.725 C 133.565 184.947, 136.265 184.943, 137.768 184.715 C 139.271 184.486, 137.800 184.304, 134.500 184.310 C 131.200 184.315, 129.971 184.502, 131.768 184.725 M 212.320 193 C 212.320 196.575, 212.502 198.037, 212.723 196.250 C 212.945 194.463, 212.945 191.537, 212.723 189.750 C 212.502 187.963, 212.320 189.425, 212.320 193 M 221.365 198.500 C 221.368 204, 221.536 206.122, 221.738 203.216 C 221.941 200.311, 221.939 195.811, 221.734 193.216 C 221.528 190.622, 221.363 193, 221.365 198.500 M 129.269 193.693 C 130.242 193.947, 131.592 193.930, 132.269 193.656 C 132.946 193.382, 132.150 193.175, 130.500 193.195 C 128.850 193.215, 128.296 193.439, 129.269 193.693 M 137.269 193.693 C 138.242 193.947, 139.592 193.930, 140.269 193.656 C 140.946 193.382, 140.150 193.175, 138.500 193.195 C 136.850 193.215, 136.296 193.439, 137.269 193.693 M 169.966 200.750 L 164.500 206.500 170.250 201.034 C 175.592 195.956, 176.458 195, 175.716 195 C 175.560 195, 172.972 197.588, 169.966 200.750 M 58 197.313 C 58 197.485, 59.462 198.948, 61.250 200.563 L 64.500 203.500 61.563 200.250 C 58.825 197.221, 58 196.540, 58 197.313 M 174 209.227 C 169.875 213.150, 168.300 214.967, 170.500 213.265 C 174.383 210.260, 182.866 201.952, 181.953 202.047 C 181.704 202.073, 178.125 205.304, 174 209.227 M 54.500 207 C 56.648 209.200, 58.631 211, 58.906 211 C 59.181 211, 57.648 209.200, 55.500 207 C 53.352 204.800, 51.369 203, 51.094 203 C 50.819 203, 52.352 204.800, 54.500 207 M 20.300 213 C 20.300 216.025, 20.487 217.262, 20.716 215.750 C 20.945 214.238, 20.945 211.762, 20.716 210.250 C 20.487 208.738, 20.300 209.975, 20.300 213 M 11.300 216 C 11.300 219.025, 11.487 220.262, 11.716 218.750 C 11.945 217.238, 11.945 214.762, 11.716 213.250 C 11.487 211.738, 11.300 212.975, 11.300 216 M 211.286 218.500 C 211.294 221.250, 211.488 222.256, 211.718 220.736 C 211.947 219.216, 211.941 216.966, 211.704 215.736 C 211.467 214.506, 211.279 215.750, 211.286 218.500 M 65.433 215.891 C 66.146 217.045, 70 219.374, 70 218.650 C 70 218.419, 68.820 217.457, 67.377 216.511 C 65.934 215.566, 65.059 215.287, 65.433 215.891 M 220.286 220.500 C 220.294 223.250, 220.488 224.256, 220.718 222.736 C 220.947 221.216, 220.941 218.966, 220.704 217.736 C 220.467 216.506, 220.279 217.750, 220.286 220.500 M 111.750 222.732 C 114.087 222.943, 117.912 222.943, 120.250 222.732 C 122.587 222.522, 120.675 222.349, 116 222.349 C 111.325 222.349, 109.412 222.522, 111.750 222.732 M 234.768 224.725 C 236.565 224.947, 239.265 224.943, 240.768 224.715 C 242.271 224.486, 240.800 224.304, 237.500 224.310 C 234.200 224.315, 232.971 224.502, 234.768 224.725 M 21.310 230.500 C 21.315 233.800, 21.502 235.029, 21.725 233.232 C 21.947 231.435, 21.943 228.735, 21.715 227.232 C 21.486 225.729, 21.304 227.200, 21.310 230.500 M 210.168 232.436 C 210.064 234.877, 209.157 237.345, 207.778 238.936 L 205.556 241.500 208.348 238.908 C 210.685 236.737, 211.074 235.679, 210.738 232.408 L 210.336 228.500 210.168 232.436 M 129.269 230.693 C 130.242 230.947, 131.592 230.930, 132.269 230.656 C 132.946 230.382, 132.150 230.175, 130.500 230.195 C 128.850 230.215, 128.296 230.439, 129.269 230.693 M 12.232 234 C 12.232 235.925, 12.438 236.713, 12.689 235.750 C 12.941 234.787, 12.941 233.213, 12.689 232.250 C 12.438 231.287, 12.232 232.075, 12.232 234 M 108.750 231.706 C 109.987 231.944, 112.013 231.944, 113.250 231.706 C 114.487 231.467, 113.475 231.272, 111 231.272 C 108.525 231.272, 107.513 231.467, 108.750 231.706 M 119.762 231.707 C 121.006 231.946, 122.806 231.937, 123.762 231.687 C 124.718 231.437, 123.700 231.241, 121.500 231.252 C 119.300 231.263, 118.518 231.468, 119.762 231.707 M 235.250 233.689 C 236.213 233.941, 237.787 233.941, 238.750 233.689 C 239.713 233.438, 238.925 233.232, 237 233.232 C 235.075 233.232, 234.287 233.438, 235.250 233.689 M 247 236.350 C 247 236.581, 248.180 237.543, 249.623 238.489 C 251.066 239.434, 251.941 239.713, 251.567 239.109 C 250.854 237.955, 247 235.626, 247 236.350 M 22.195 243.500 C 22.215 245.150, 22.439 245.704, 22.693 244.731 C 22.947 243.758, 22.930 242.408, 22.656 241.731 C 22.382 241.054, 22.175 241.850, 22.195 243.500 M 13.286 246.500 C 13.294 249.250, 13.488 250.256, 13.718 248.736 C 13.947 247.216, 13.941 244.966, 13.704 243.736 C 13.467 242.506, 13.279 243.750, 13.286 246.500 M 213.924 245.750 L 211.500 248.500 214.250 246.076 C 216.820 243.810, 217.459 243, 216.674 243 C 216.495 243, 215.258 244.238, 213.924 245.750 M 270.080 248 C 271.538 251.061, 272 251.628, 272 250.358 C 272 249.821, 271.300 248.509, 270.445 247.441 C 268.978 245.611, 268.958 245.643, 270.080 248 M 23.286 255.500 C 23.294 258.250, 23.488 259.256, 23.718 257.736 C 23.947 256.216, 23.941 253.966, 23.704 252.736 C 23.467 251.506, 23.279 252.750, 23.286 255.500 M 116.924 253.750 L 114.500 256.500 117.250 254.076 C 118.763 252.742, 120 251.505, 120 251.326 C 120 250.541, 119.190 251.180, 116.924 253.750 M 187 254.500 C 183.806 256.326, 184.489 256.334, 189.500 254.529 C 191.700 253.736, 192.600 253.084, 191.500 253.079 C 190.400 253.075, 188.375 253.714, 187 254.500 M 126.643 257.768 C 126.382 258.191, 127.930 258.369, 130.084 258.163 C 132.238 257.958, 134 257.612, 134 257.395 C 134 256.650, 127.118 256.999, 126.643 257.768 M 265.320 267 C 265.320 270.575, 265.502 272.038, 265.723 270.250 C 265.945 268.462, 265.945 265.538, 265.723 263.750 C 265.502 261.962, 265.320 263.425, 265.320 267 M 37.762 262.707 C 39.006 262.946, 40.806 262.937, 41.762 262.687 C 42.718 262.437, 41.700 262.241, 39.500 262.252 C 37.300 262.263, 36.518 262.468, 37.762 262.707 M 49.269 263.693 C 50.242 263.947, 51.592 263.930, 52.269 263.656 C 52.946 263.382, 52.150 263.175, 50.500 263.195 C 48.850 263.215, 48.296 263.439, 49.269 263.693 M 60.250 264.716 C 61.763 264.945, 64.237 264.945, 65.750 264.716 C 67.263 264.487, 66.025 264.300, 63 264.300 C 59.975 264.300, 58.737 264.487, 60.250 264.716 M 77.768 265.725 C 79.565 265.947, 82.265 265.943, 83.768 265.715 C 85.271 265.486, 83.800 265.304, 80.500 265.310 C 77.200 265.315, 75.971 265.502, 77.768 265.725 M 175.250 266.689 C 176.213 266.941, 177.787 266.941, 178.750 266.689 C 179.713 266.438, 178.925 266.232, 177 266.232 C 175.075 266.232, 174.287 266.438, 175.250 266.689 M 26.762 270.707 C 28.006 270.946, 29.806 270.937, 30.762 270.687 C 31.718 270.437, 30.700 270.241, 28.500 270.252 C 26.300 270.263, 25.518 270.468, 26.762 270.707 M 45.750 272.706 C 46.987 272.944, 49.013 272.944, 50.250 272.706 C 51.487 272.467, 50.475 272.272, 48 272.272 C 45.525 272.272, 44.513 272.467, 45.750 272.706 M 239.200 273.200 C 238.540 273.860, 238 274.846, 238 275.391 C 238 275.936, 238.563 275.653, 239.250 274.762 C 239.938 273.871, 241.625 272.946, 243 272.707 L 245.500 272.272 242.950 272.136 C 241.548 272.061, 239.860 272.540, 239.200 273.200 M 58.250 273.689 C 59.212 273.941, 60.788 273.941, 61.750 273.689 C 62.712 273.438, 61.925 273.232, 60 273.232 C 58.075 273.232, 57.288 273.438, 58.250 273.689 M 75.250 274.716 C 76.763 274.945, 79.237 274.945, 80.750 274.716 C 82.263 274.487, 81.025 274.300, 78 274.300 C 74.975 274.300, 73.737 274.487, 75.250 274.716 M 102.185 275.730 C 109.384 276.015, 110.941 276.367, 111.284 277.787 C 111.582 279.027, 111.669 278.947, 111.598 277.500 C 111.508 275.660, 110.781 275.496, 102.500 275.444 L 93.500 275.388 102.185 275.730 M 252.881 287.219 C 253.342 289.996, 253.482 290.136, 253.797 288.135 C 254.002 286.834, 253.757 285.357, 253.253 284.853 C 252.698 284.298, 252.552 285.231, 252.881 287.219 M 50 288.500 C 51.292 289.875, 52.574 291, 52.849 291 C 53.124 291, 52.292 289.875, 51 288.500 C 49.708 287.125, 48.426 286, 48.151 286 C 47.876 286, 48.708 287.125, 50 288.500 M 101 286.313 C 101 286.485, 102.463 287.948, 104.250 289.563 L 107.500 292.500 104.563 289.250 C 101.825 286.221, 101 285.540, 101 286.313 M 244.116 287.595 C 243.919 291.155, 249.768 294.803, 251.411 292.144 C 251.702 291.674, 250.913 291.485, 249.659 291.725 C 247.221 292.191, 245.518 290.734, 244.724 287.500 C 244.251 285.576, 244.228 285.579, 244.116 287.595 M 21 288.583 C 19.319 289.516, 19.033 289.975, 20.128 289.985 C 21.023 289.993, 22.315 289.325, 23 288.500 C 24.460 286.740, 24.310 286.747, 21 288.583 M 72.946 290.750 L 69.500 294.500 73.250 291.054 C 76.740 287.846, 77.460 287, 76.696 287 C 76.529 287, 74.842 288.688, 72.946 290.750 M 257.511 290.623 C 256.566 292.066, 256.287 292.941, 256.891 292.567 C 258.045 291.854, 260.374 288, 259.650 288 C 259.419 288, 258.457 289.180, 257.511 290.623 M 128 292.500 C 129.866 294.425, 131.617 296, 131.892 296 C 132.167 296, 130.866 294.425, 129 292.500 C 127.134 290.575, 125.383 289, 125.108 289 C 124.833 289, 126.134 290.575, 128 292.500 M 31.629 292.791 C 31.360 293.226, 32.796 293.425, 34.820 293.233 C 41.004 292.647, 41.733 292.238, 36.809 292.116 C 34.229 292.052, 31.898 292.356, 31.629 292.791 M 84.629 292.791 C 84.360 293.226, 85.796 293.425, 87.820 293.233 C 94.004 292.647, 94.733 292.238, 89.809 292.116 C 87.229 292.052, 84.898 292.356, 84.629 292.791 M 44 295.500 C 45.292 296.875, 46.574 298, 46.849 298 C 47.124 298, 46.292 296.875, 45 295.500 C 43.708 294.125, 42.426 293, 42.151 293 C 41.876 293, 42.708 294.125, 44 295.500 M 97 295.500 C 98.292 296.875, 99.574 298, 99.849 298 C 100.124 298, 99.292 296.875, 98 295.500 C 96.708 294.125, 95.426 293, 95.151 293 C 94.876 293, 95.708 294.125, 97 295.500 M 175.970 294.944 C 176.543 296.014, 177.505 297.194, 178.109 297.567 C 178.713 297.941, 178.434 297.066, 177.489 295.623 C 175.487 292.568, 174.451 292.105, 175.970 294.944 M 78.946 297.750 L 75.500 301.500 79.250 298.054 C 81.313 296.158, 83 294.471, 83 294.304 C 83 293.540, 82.154 294.260, 78.946 297.750 M 18.250 298.689 C 19.212 298.941, 20.788 298.941, 21.750 298.689 C 22.712 298.438, 21.925 298.232, 20 298.232 C 18.075 298.232, 17.288 298.438, 18.250 298.689 M 247.946 302.750 L 244.500 306.500 248.250 303.054 C 251.740 299.846, 252.460 299, 251.696 299 C 251.529 299, 249.842 300.688, 247.946 302.750 M 51.861 301.941 C 53.159 303.073, 54.697 304, 55.277 304 C 56.507 304, 56.448 303.950, 52.500 301.638 L 49.500 299.881 51.861 301.941 M 104.861 301.941 C 106.159 303.073, 107.697 304, 108.277 304 C 109.507 304, 109.448 303.950, 105.500 301.638 L 102.500 299.881 104.861 301.941 M 160.269 304.693 C 161.242 304.947, 162.592 304.930, 163.269 304.656 C 163.946 304.382, 163.150 304.175, 161.500 304.195 C 159.850 304.215, 159.296 304.439, 160.269 304.693 M 255 308.500 C 252.571 310.975, 250.809 313, 251.084 313 C 251.359 313, 253.571 310.975, 256 308.500 C 258.429 306.025, 260.191 304, 259.916 304 C 259.641 304, 257.429 306.025, 255 308.500 M 149.269 312.693 C 150.242 312.947, 151.592 312.930, 152.269 312.656 C 152.946 312.382, 152.150 312.175, 150.500 312.195 C 148.850 312.215, 148.296 312.439, 149.269 312.693 M 171.269 312.693 C 172.242 312.947, 173.592 312.930, 174.269 312.656 C 174.946 312.382, 174.150 312.175, 172.500 312.195 C 170.850 312.215, 170.296 312.439, 171.269 312.693 M 159.762 313.707 C 161.006 313.946, 162.806 313.937, 163.762 313.687 C 164.718 313.437, 163.700 313.241, 161.500 313.252 C 159.300 313.263, 158.518 313.468, 159.762 313.707 M 213.250 315.728 C 215.313 315.944, 218.688 315.944, 220.750 315.728 C 222.813 315.513, 221.125 315.336, 217 315.336 C 212.875 315.336, 211.188 315.513, 213.250 315.728 M 186 316.490 C 186 317.175, 192.123 320.210, 192.580 319.753 C 192.797 319.536, 191.406 318.610, 189.487 317.695 C 187.569 316.781, 186 316.239, 186 316.490 M 209.250 324.689 C 210.213 324.941, 211.787 324.941, 212.750 324.689 C 213.713 324.438, 212.925 324.232, 211 324.232 C 209.075 324.232, 208.287 324.438, 209.250 324.689 M 221.269 324.693 C 222.242 324.947, 223.592 324.930, 224.269 324.656 C 224.946 324.382, 224.150 324.175, 222.500 324.195 C 220.850 324.215, 220.296 324.439, 221.269 324.693" stroke="none" fill="#393a3a" fill-rule="evenodd"/><path d="M 60.500 5.469 C 59.950 5.665, 58.330 6.081, 56.900 6.394 C 55.470 6.707, 51.270 9.446, 47.567 12.481 C 39.297 19.260, 35.192 19.788, 28.100 14.982 C 25.679 13.342, 22.372 12, 20.751 12 C 12.084 12, 5.869 19.927, 8.019 28.238 C 9.555 34.174, 12.126 41.095, 13.751 43.666 C 14.895 45.475, 14.922 48.564, 13.918 62.393 C 12.647 79.911, 12.975 82, 17 82 C 20.240 82, 21.063 79.284, 22.194 64.856 C 22.813 56.960, 23.810 49.967, 24.410 49.315 C 25.451 48.183, 35.846 46.950, 61 44.974 C 83.048 43.243, 125.155 42.737, 150.664 43.898 C 173.276 44.926, 201.110 47.200, 206.557 48.464 C 208.441 48.901, 208.716 50.143, 209.831 63.221 C 213.373 104.780, 214.311 164.917, 212.138 211 L 210.935 236.500 206.459 240.500 C 201.605 244.838, 200.700 248.234, 203.934 249.965 C 204.998 250.534, 206.241 251, 206.696 251 C 207.151 251, 211.034 248.070, 215.325 244.488 C 225.704 235.824, 230.118 233.609, 237 233.609 C 250.525 233.609, 264.300 248.194, 265.737 264.035 C 267.638 285, 247.870 310.403, 226.005 315.092 C 219.054 316.583, 207.133 315.663, 200.210 313.101 C 186.679 308.094, 180.720 302.561, 169.853 284.915 C 165.648 278.087, 159.940 269.583, 157.169 266.018 C 154.398 262.453, 152.264 259.402, 152.427 259.240 C 152.590 259.077, 154.970 260.072, 157.715 261.451 C 167.665 266.448, 180.482 267.265, 189.779 263.495 C 194.864 261.433, 196.567 258.929, 194.946 255.900 C 193.712 253.594, 192.792 253.635, 183.022 256.435 C 175.647 258.549, 168.664 257.230, 156.890 251.500 C 151.919 249.080, 145.875 246.804, 143.461 246.442 C 136.415 245.385, 122.712 249.115, 118.153 253.330 C 115.438 255.840, 112 262.145, 112 264.614 C 112 266.177, 110.086 266.260, 87.250 265.685 C 64.390 265.111, 35.805 262.963, 27.131 261.168 L 23.500 260.417 22.846 251.958 C 22.486 247.306, 21.625 236.300, 20.932 227.500 C 20.142 217.462, 19.623 189.544, 19.539 152.579 C 19.416 98.264, 19.272 93.574, 17.703 92.584 C 15.255 91.040, 12.724 92.947, 11.713 97.095 C 10.453 102.269, 10.538 200.125, 11.820 219.500 C 12.439 228.850, 13.434 242.575, 14.031 250 L 15.118 263.500 12.204 270 C 10.601 273.575, 8.763 278.659, 8.119 281.297 C 4.922 294.390, 18.396 302.902, 29.234 294.635 C 31.675 292.773, 33.898 292, 36.811 292 C 40.296 292, 41.739 292.715, 46.145 296.629 C 58.356 307.474, 67.211 307.709, 78.998 297.502 C 84.572 292.675, 85.877 292, 89.642 292 C 93.328 292, 94.668 292.653, 99.145 296.629 C 107.754 304.275, 113.954 306.251, 122.171 303.969 C 125.411 303.069, 126.545 303.307, 131.842 305.999 C 135.142 307.676, 140.015 309.721, 142.671 310.543 C 149.166 312.554, 165.109 313.425, 172.500 312.174 C 178.012 311.241, 178.789 311.345, 182.050 313.461 C 193.832 321.104, 204.040 324.256, 217 324.252 C 233.227 324.248, 245.790 318.499, 257.540 305.698 C 270.022 292.100, 276.586 273.735, 273.923 259.860 C 271.348 246.441, 261.642 233.484, 249.839 227.710 C 242.302 224.022, 232.830 223.935, 225.208 227.483 L 219.916 229.947 220.708 211.723 C 221.144 201.701, 221.451 173.250, 221.392 148.500 C 221.293 107.307, 220.563 87.639, 218.016 57.618 C 217.190 47.880, 217.288 46.356, 218.943 43.112 C 221.550 38.002, 225.001 27.155, 224.996 24.085 C 224.990 20.096, 221.365 15.050, 217.276 13.342 C 212.677 11.420, 208.243 12.083, 203.320 15.429 C 200.728 17.190, 198.202 18, 195.301 18 C 191.703 18, 190.309 17.327, 186.023 13.520 C 179.048 7.325, 175.470 5.677, 169 5.677 C 163.462 5.677, 159.232 7.240, 155.500 10.666 C 148.652 16.952, 146.789 18, 142.457 18 C 138.674 18, 137.369 17.380, 133.023 13.520 C 126.052 7.329, 122.470 5.678, 115.996 5.672 C 109.612 5.666, 107.611 6.586, 99.707 13.164 C 94.692 17.338, 93.291 18, 89.481 18 C 85.669 18, 84.378 17.388, 80.023 13.520 C 77.248 11.056, 73.746 8.409, 72.239 7.638 C 69.381 6.176, 62.228 4.854, 60.500 5.469 M 59 14.722 C 58.175 15.032, 55.632 16.989, 53.349 19.072 C 42.916 28.589, 33.030 29.379, 22.454 21.543 C 20.618 20.183, 20.170 20.193, 18.104 21.640 C 15.460 23.491, 15.582 25.135, 19.048 34.400 L 21.236 40.248 26.868 39.547 C 73.098 33.800, 145.226 33.191, 192 38.154 C 198.325 38.825, 205.251 39.402, 207.392 39.437 C 211.241 39.499, 211.309 39.434, 213.590 33.500 C 216.480 25.984, 216.616 22.400, 214.066 21.035 C 212.525 20.210, 211.106 20.639, 207.071 23.147 C 197.220 29.270, 189.286 27.973, 178.077 18.407 C 173.080 14.142, 172.318 13.817, 168.376 14.261 C 165.164 14.623, 162.903 15.797, 159.299 18.974 C 147.250 29.597, 138.183 29.745, 126.793 19.504 C 118.870 12.380, 113.723 12.235, 106.458 18.932 C 95.470 29.060, 84.120 29.547, 74.500 20.303 C 68.305 14.350, 64.057 12.821, 59 14.722 M 99 79.962 C 67.016 86.813, 44.093 107.217, 35.814 136.204 C 33.119 145.643, 32.933 162.538, 35.422 172 C 43.205 201.592, 69.017 224.449, 100.957 230.034 C 137.466 236.418, 174.606 218.860, 190.925 187.500 C 196.794 176.223, 198.438 168.968, 198.404 154.500 C 198.377 142.986, 198.060 140.585, 195.631 133.500 C 191.465 121.347, 185.505 111.666, 176.903 103.082 C 156.708 82.928, 126.711 74.025, 99 79.962 M 99.442 88.531 C 73.325 94.268, 52.617 112.504, 44.402 137 C 41.618 145.300, 41.796 164.138, 44.747 173.500 C 50.729 192.486, 67.047 209.394, 87 217.282 C 126.552 232.919, 172.816 213.803, 186.352 176.230 C 196.729 147.427, 185.974 117.299, 159 99.605 C 151.203 94.491, 141.935 90.587, 132.688 88.522 C 124.445 86.680, 107.847 86.685, 99.442 88.531 M 144.139 115.092 C 139.307 116.563, 133.741 120.267, 123.536 128.803 C 108.304 141.545, 104.795 142.166, 88.775 134.952 C 76.221 129.300, 66.022 129.865, 58.091 136.654 C 48.687 144.703, 50.287 162.652, 61.377 173.520 C 69.466 181.447, 75.452 183.411, 92.125 183.608 C 104.750 183.757, 106.071 183.956, 110.125 186.311 C 124.128 194.448, 139.570 195.497, 153 189.222 C 161.271 185.357, 171.145 175.008, 175.688 165.442 C 180.562 155.178, 181.379 144.643, 177.996 135.672 C 175.478 128.996, 166.876 119.510, 160.749 116.654 C 156.046 114.462, 148.533 113.755, 144.139 115.092 M 143.500 124.681 C 139.823 126.644, 134.263 130.883, 127 137.262 C 118.771 144.488, 111.063 148.010, 103.590 147.956 C 100.241 147.932, 95.717 147.277, 93.538 146.501 C 91.359 145.725, 89.455 145.212, 89.306 145.361 C 89.035 145.631, 101.900 165.650, 106.221 171.682 C 109.044 175.624, 117.897 181.582, 123.387 183.235 C 125.649 183.916, 130.885 184.479, 135.022 184.487 C 141.524 184.498, 143.452 184.053, 149.232 181.207 C 157.226 177.271, 163.699 170.399, 168.164 161.111 C 174.762 147.384, 171.227 133.539, 159.173 125.895 C 153.935 122.573, 148.272 122.134, 143.500 124.681 M 63.419 143.490 C 60.981 145.928, 60.811 146.648, 61.171 153.021 C 61.489 158.656, 62.102 160.697, 64.530 164.207 C 68.840 170.438, 78.231 174.849, 88.941 175.675 C 94.741 176.122, 97 175.972, 97 175.138 C 97 173.535, 86.801 157.192, 82.047 151.179 C 77.418 145.322, 73.680 142.504, 69.278 141.551 C 66.602 140.972, 65.608 141.301, 63.419 143.490 M 124.782 259.255 C 121.391 262.055, 120 265.748, 120 271.950 C 120 291.260, 136.772 304.245, 161.767 304.286 C 166.313 304.294, 170.283 304.050, 170.589 303.745 C 170.894 303.439, 167.241 296.959, 162.471 289.345 C 150.160 269.694, 144.284 262.716, 136.855 258.926 C 131.896 256.396, 128.119 256.499, 124.782 259.255 M 18.472 277.488 C 15.576 285.429, 15.677 287.132, 19.178 289.340 C 20.309 290.054, 21.628 289.641, 24.111 287.795 C 25.975 286.410, 29.030 284.764, 30.899 284.138 C 38.464 281.605, 43.763 283.233, 53.017 290.934 C 61.799 298.243, 65.687 297.998, 75.148 289.535 C 79.866 285.316, 85.360 283, 90.654 283 C 94.290 283, 100.288 286.207, 107.019 291.750 C 110.808 294.870, 113.067 296, 115.517 296 L 118.855 296 115.905 290.250 C 114.283 287.087, 112.616 282.475, 112.202 280 L 111.448 275.500 90.474 274.776 C 78.938 274.379, 61.625 273.325, 52 272.436 C 42.375 271.546, 31.528 270.579, 27.897 270.286 L 21.293 269.752 18.472 277.488 M 239 275 C 237.527 277.753, 239.373 281, 242.413 281 C 245.557 281, 247.372 278.617, 246.593 275.513 C 246.098 273.540, 245.328 273, 243.016 273 C 241.094 273, 239.698 273.695, 239 275 M 252 275 C 250.527 277.753, 252.373 281, 255.413 281 C 258.557 281, 260.372 278.617, 259.593 275.513 C 259.098 273.540, 258.328 273, 256.016 273 C 254.094 273, 252.698 273.695, 252 275 M 246.750 284.080 C 244.612 285.326, 244.460 289.307, 246.487 290.989 C 247.340 291.697, 249.046 291.954, 250.487 291.593 C 252.460 291.098, 253 290.328, 253 288.016 C 253 286.127, 252.306 284.699, 251.066 284.035 C 248.764 282.803, 248.946 282.801, 246.750 284.080" fill-rule="evenodd"/></svg>