<svg xmlns="http://www.w3.org/2000/svg" version="1.1" viewBox="100.79 71.07 320.11 319.43"><path d="M 111.500 72.881 C 106.742 75.066, 104.610 77.296, 102.538 82.254 C 100.748 86.540, 100.555 91.300, 102.059 94.110 C 102.642 95.199, 109.167 102.110, 116.559 109.468 C 123.952 116.826, 130 123.110, 130 123.432 C 130 124.405, 123.942 132.452, 122.678 133.159 C 122.030 133.521, 118.575 134.561, 115 135.469 C 111.425 136.378, 106.765 137.574, 104.646 138.127 L 100.791 139.133 101.253 162.317 C 101.741 186.823, 102.850 193.808, 108.243 206.343 L 110.329 211.192 107.044 213.763 C 101.599 218.024, 99.514 225.954, 102.068 232.685 C 102.656 234.233, 110.756 243.166, 120.068 252.536 C 129.381 261.906, 137 269.913, 137 270.329 C 137 270.745, 135.231 273.480, 133.070 276.406 C 129.259 281.564, 128.958 281.746, 123.159 282.403 C 115.406 283.280, 111.692 285.853, 105.654 294.533 L 100.807 301.500 101.364 310 C 102.754 331.242, 112.366 351.548, 128.136 366.557 C 136.235 374.266, 142.098 378.249, 152.327 382.991 C 167.023 389.803, 171.353 390.500, 199 390.500 C 219.900 390.500, 224.529 390.222, 230.500 388.608 C 258.165 381.131, 280.155 361.878, 291.048 335.596 C 293.053 330.760, 293.735 329.966, 295.460 330.458 C 303.907 332.865, 312.732 334, 323 334 C 351.387 334, 374.409 323.997, 394.265 303.036 C 406.014 290.634, 413.387 277.441, 418.038 260.497 C 419.788 254.123, 420.336 248.807, 420.738 234.302 C 421.015 224.293, 420.937 214.480, 420.565 212.496 C 419.762 208.217, 414.017 202.070, 407.907 198.953 C 405.610 197.781, 400.145 195.540, 395.762 193.974 C 391.378 192.407, 387.549 190.882, 387.251 190.584 C 386.953 190.287, 393.791 182.946, 402.446 174.271 C 411.101 165.597, 418.867 157.188, 419.703 155.584 C 421.681 151.790, 420.948 143.754, 418.298 140.176 C 413.263 133.378, 404.713 131.071, 397.700 134.619 C 395.940 135.510, 386.587 144.081, 376.916 153.668 L 359.332 171.097 351.916 168.609 C 335.738 163.182, 319.392 162.535, 300.250 166.566 L 297 167.250 297 153.164 L 297 139.077 292.750 137.971 C 290.413 137.363, 286.700 136.420, 284.500 135.876 C 275.138 133.562, 274.380 133.072, 269.896 126.444 C 265.158 119.442, 261.406 116.959, 252.623 115.015 C 245.534 113.445, 244.378 112.556, 242.588 107.303 C 240.403 100.892, 235.862 96.457, 229.401 94.425 C 225.300 93.135, 223.546 91.913, 221.619 89.001 C 217.521 82.808, 212.409 81, 199 81 C 185.586 81, 180.788 82.699, 176.682 88.905 C 174.732 91.851, 173.043 93.055, 169.369 94.118 C 166.546 94.934, 162.970 97.036, 160.629 99.254 C 155.961 103.676, 158.530 105.249, 139.634 86.393 C 132.411 79.184, 125.517 72.771, 124.316 72.143 C 121.147 70.485, 116.083 70.776, 111.500 72.881 M 114 84 C 112.900 85.100, 112 86.782, 112 87.737 C 112 88.692, 118.098 95.584, 125.552 103.052 L 139.103 116.629 145.132 115.157 L 151.161 113.684 135.342 97.842 C 126.642 89.129, 118.731 82, 117.762 82 C 116.793 82, 115.100 82.900, 114 84 M 186.560 93.750 C 185.778 94.713, 183.954 96.948, 182.507 98.719 C 180.752 100.865, 178.059 102.510, 174.423 103.656 C 168.133 105.639, 166.980 106.761, 164.598 113.222 C 162.399 119.182, 158.414 122.552, 151.183 124.564 C 148.058 125.434, 144.375 126.484, 143 126.897 C 141.540 127.337, 138.671 130.261, 136.103 133.929 C 131.079 141.104, 127.736 143.468, 120.240 145.146 C 117.323 145.798, 115.098 146.818, 115.288 147.415 C 115.886 149.302, 126.150 153.747, 136 156.387 C 175.802 167.052, 239.171 165.704, 271.591 153.502 C 279.028 150.703, 283 148.470, 283 147.088 C 283 146.612, 281.346 145.912, 279.325 145.533 C 271.153 144, 268.051 141.963, 262.536 134.505 C 257.303 127.429, 257.039 127.234, 250.344 125.472 C 238.718 122.413, 235.178 119.663, 232.846 111.881 C 231.446 107.206, 229.969 105.881, 223.500 103.493 C 219.007 101.835, 216.885 100.122, 211.606 93.894 C 210.210 92.247, 208.563 92, 198.990 92 C 189.713 92, 187.757 92.275, 186.560 93.750 M 195.035 103.934 C 192.679 108.336, 194.480 112, 199 112 C 202.305 112, 204 110.305, 204 107 C 204 105.570, 203.460 103.860, 202.800 103.200 C 200.899 101.299, 196.208 101.742, 195.035 103.934 M 175.223 113.557 C 173.982 114.426, 173 116.167, 173 117.500 C 173 119.872, 176.255 123, 178.723 123 C 180.480 123, 184 119.332, 184 117.500 C 184 115.668, 180.480 112, 178.723 112 C 178.020 112, 176.445 112.701, 175.223 113.557 M 197 122.766 C 193.264 123.386, 188.238 127.613, 185.983 132.034 L 183.984 135.951 187.952 137.976 C 193.006 140.554, 193.441 140.523, 194.825 137.485 C 195.455 136.102, 197.080 134.465, 198.435 133.848 C 200.657 132.835, 201.400 133.175, 205.971 137.284 C 211.078 141.876, 216.801 144, 224.065 144 C 226.457 144, 227.348 144.662, 228.660 147.413 C 230.171 150.581, 230.475 150.745, 232.894 149.700 C 234.327 149.080, 236.516 147.940, 237.758 147.166 L 240.017 145.759 237.758 141.668 C 234.431 135.642, 229.942 133, 223.026 133 C 218.290 133, 216.966 132.593, 215.041 130.544 C 209.492 124.637, 202.888 121.790, 197 122.766 M 143.536 134.960 C 141.155 137.592, 142.198 141.761, 145.443 142.575 C 151.082 143.990, 154.527 139.979, 151.560 135.451 C 149.609 132.474, 145.987 132.252, 143.536 134.960 M 164.655 144.829 C 162.484 147.228, 162.555 150.287, 164.829 152.345 C 167.206 154.496, 169.291 154.440, 171.345 152.171 C 173.431 149.867, 173.467 146.609, 171.429 144.571 C 169.341 142.484, 166.686 142.584, 164.655 144.829 M 386.211 160.288 L 369.946 176.577 374.345 179.678 L 378.744 182.779 394.372 167.128 C 410.267 151.210, 412.070 148.470, 408.800 145.200 C 405.488 141.888, 402.782 143.695, 386.211 160.288 M 112 162.326 C 112 164.486, 112.792 166.395, 114.260 167.775 C 119.659 172.847, 137.501 178.523, 158 181.690 C 174.596 184.254, 223.601 184.264, 240 181.706 C 269.055 177.176, 287 169.580, 287 161.813 C 287 160.266, 286.601 159, 286.112 159 C 285.624 159, 282.362 160.328, 278.862 161.951 C 252.661 174.104, 189.477 177.916, 146.706 169.924 C 136.901 168.091, 122.931 163.961, 117.783 161.372 C 115.189 160.067, 112.827 159, 112.533 159 C 112.240 159, 112 160.497, 112 162.326 M 313 175.014 C 287.105 178.329, 262.996 195.172, 251.517 217.967 L 248.070 224.811 251.785 226.283 C 257.445 228.525, 271.213 231.662, 284 233.622 C 300.285 236.119, 344.505 236.138, 361.500 233.657 C 373.867 231.851, 391.718 227.757, 395.089 225.953 C 397.698 224.556, 397.543 223.653, 393.394 216.107 C 389.041 208.186, 387.542 206.202, 380.195 198.631 C 363.182 181.098, 337.095 171.930, 313 175.014 M 112 179.320 C 112 182.164, 115.594 195.604, 118.074 202.037 C 120.607 208.603, 121.855 210.525, 124.840 212.454 C 126.853 213.756, 136.966 223.332, 147.314 233.734 L 166.128 252.648 172.814 251.552 C 178.781 250.573, 179.661 250.130, 181 247.424 C 185.005 239.331, 190.223 236, 198.896 236 C 206.700 236, 212.324 238.962, 215.692 244.846 C 217.157 247.406, 218.465 249.652, 218.599 249.837 C 218.732 250.023, 220.340 250.513, 222.171 250.927 L 225.500 251.679 225.172 232.234 C 224.944 218.692, 225.209 211.910, 226.045 209.890 C 228.478 204.018, 237.094 198.392, 250.500 193.924 C 254.350 192.640, 258.095 191.008, 258.821 190.295 C 260.449 188.700, 260.610 188.697, 252.315 190.395 C 236.917 193.546, 224.148 194.499, 198 194.450 C 170.280 194.398, 157.253 193.179, 139 188.929 C 129.918 186.814, 117.939 182.600, 114.250 180.221 C 113.013 179.423, 112 179.017, 112 179.320 M 314.455 186.455 C 312.566 188.343, 312.209 189.392, 312.858 191.145 C 314.003 194.240, 316.192 195.420, 319.330 194.632 C 321.069 194.195, 322.195 193.069, 322.632 191.330 C 323.420 188.192, 322.240 186.003, 319.145 184.858 C 317.392 184.209, 316.343 184.566, 314.455 186.455 M 344.408 197.500 C 342.891 199.816, 342.891 200.184, 344.408 202.500 C 348.157 208.221, 356.024 203.738, 353.182 197.500 C 352.336 195.642, 351.272 195, 349.044 195 C 346.950 195, 345.552 195.753, 344.408 197.500 M 298.698 206.781 C 296.254 209.481, 296.600 212.692, 299.541 214.619 C 304.353 217.772, 309.222 213.100, 306.611 207.834 C 305.126 204.839, 300.958 204.284, 298.698 206.781 M 329.655 206.829 C 327.304 209.427, 327.606 212.696, 330.365 214.504 C 334.071 216.932, 339 214.314, 339 209.918 C 339 208.309, 335.068 205, 333.155 205 C 332.140 205, 330.565 205.823, 329.655 206.829 M 360.655 206.829 C 358.301 209.430, 358.608 212.697, 361.377 214.511 C 366.906 218.134, 372.476 210.285, 367.240 206.250 C 364.954 204.488, 362.585 204.697, 360.655 206.829 M 240.268 209.984 C 235.790 212.706, 234.709 215.139, 236.708 217.993 L 238.320 220.296 241.227 214.548 C 242.825 211.386, 243.970 208.637, 243.770 208.437 C 243.571 208.237, 241.994 208.933, 240.268 209.984 M 404.363 213.927 C 406.725 218.431, 407.775 219.602, 408.736 218.804 C 411.222 216.741, 410.160 213.181, 406.268 210.536 C 404.215 209.141, 402.247 208, 401.895 208 C 401.543 208, 402.653 210.667, 404.363 213.927 M 267.655 211.829 C 266.745 212.835, 266 214.609, 266 215.772 C 266 217.913, 269.379 221, 271.723 221 C 273.480 221, 277 217.332, 277 215.500 C 277 213.410, 273.376 210, 271.155 210 C 270.140 210, 268.565 210.823, 267.655 211.829 M 320.223 221.557 C 317.774 223.272, 317.211 227.811, 319.200 229.800 C 322.224 232.824, 328 229.992, 328 225.485 C 328 223.472, 324.835 220, 323 220 C 322.695 220, 321.445 220.701, 320.223 221.557 M 113.750 222.080 C 112.661 222.714, 112 224.306, 112 226.293 C 112 229.141, 114.994 232.482, 139.625 257.125 L 167.249 284.762 172.183 281.696 L 177.116 278.629 148.315 249.814 C 129.408 230.900, 118.824 221.010, 117.506 221.030 C 116.403 221.047, 114.713 221.519, 113.750 222.080 M 235 234.048 C 235 239.700, 243.552 244.939, 260 249.364 C 302.189 260.715, 369.051 258.405, 399.500 244.546 C 408.112 240.626, 410 238.817, 410 234.484 L 410 231.110 404.389 233.592 C 385.435 241.974, 357.310 246.397, 323 246.390 C 288.079 246.384, 256.074 241.201, 239.851 232.924 C 235.002 230.450, 235 230.451, 235 234.048 M 192.776 248.750 C 191.932 249.713, 190.519 251.927, 189.636 253.671 C 187.742 257.411, 183.704 260.501, 179.179 261.674 L 175.931 262.516 180.359 266.861 L 184.787 271.207 187.212 267.638 L 189.638 264.069 193.569 266.689 C 195.731 268.130, 197.681 269.457, 197.902 269.639 C 198.411 270.059, 191.445 280.729, 188.624 283.850 C 187.456 285.143, 183.920 287.508, 180.768 289.106 C 174.853 292.103, 174.314 292.942, 173.770 300 C 173.500 303.497, 173.496 303.500, 168.500 303.500 L 163.500 303.500 163.201 299.431 C 162.935 295.798, 161.961 294.424, 154.130 286.629 L 145.357 277.898 141.429 283.117 C 135.966 290.375, 133.301 292.065, 125.954 292.931 C 120.522 293.571, 119.260 294.124, 116.971 296.865 C 115.507 298.620, 113.693 301.205, 112.940 302.612 C 111.686 304.955, 111.778 305.334, 114.036 307.154 C 134.102 323.318, 210.010 328.818, 258.237 317.602 C 267.365 315.479, 279.846 310.543, 283.479 307.620 C 286.265 305.379, 286.368 305.056, 285.074 302.639 C 284.314 301.218, 282.493 298.620, 281.029 296.865 C 278.740 294.124, 277.478 293.571, 272.046 292.931 C 264.510 292.042, 261.845 290.277, 256.576 282.686 C 253.460 278.198, 251.708 276.697, 248.076 275.408 C 245.559 274.515, 242.160 273.285, 240.523 272.676 C 238.885 272.067, 235.168 269.416, 232.262 266.784 C 227.793 262.738, 226.358 262, 222.950 262 C 217.694 262, 211.267 258.661, 209.168 254.839 C 205.390 247.962, 204.152 247, 199.082 247 C 195.788 247, 193.835 247.542, 192.776 248.750 M 237 253.924 C 237 257.666, 241.599 261.412, 250.602 265 C 258.951 268.328, 259.609 268.818, 263.992 274.976 L 268.602 281.451 275.795 282.533 C 284.031 283.772, 286.471 285.579, 293.211 295.438 L 297.271 301.375 296.723 310.562 L 296.175 319.749 304.338 321.568 C 315.119 323.971, 332.889 323.935, 342.500 321.490 C 351.324 319.246, 361.482 315.131, 368.813 310.833 C 376.732 306.189, 392.629 290.058, 397.782 281.438 C 401.946 274.471, 407.135 261.591, 408.337 255.242 L 408.953 251.983 405.227 253.854 C 370.301 271.389, 275.683 271.382, 240.750 253.842 C 237.050 251.985, 237 251.986, 237 253.924 M 204.106 282.719 C 202.845 285.314, 202.193 287.566, 202.657 287.723 C 206.443 289.003, 210.339 292.626, 211.936 296.351 C 215.090 303.709, 223.668 309, 232.443 309 C 234.876 309, 235 308.733, 235 303.500 L 235 298 231.223 298 C 226.576 298, 223.219 295.767, 221.431 291.490 C 219.452 286.752, 215.291 282.189, 210.914 279.956 C 208.805 278.880, 206.926 278, 206.739 278 C 206.552 278, 205.367 280.123, 204.106 282.719 M 114.073 322.792 C 116.800 334.798, 124.401 347.608, 135.025 358.098 C 142.381 365.361, 145.345 367.490, 154.116 371.808 C 168.896 379.086, 173.967 380.003, 199.312 379.985 C 222.166 379.969, 227.876 379.172, 239.256 374.405 C 253.139 368.590, 267.487 356.190, 275.395 343.173 C 278.729 337.684, 285 322.526, 285 319.954 C 285 319.411, 282.814 320.074, 280.142 321.428 C 264.750 329.228, 234.019 333.983, 199 333.983 C 164.089 333.983, 133.247 329.226, 117.973 321.487 L 113.231 319.084 114.073 322.792" fill-rule="evenodd"/></svg>