<svg xmlns="http://www.w3.org/2000/svg" xmlns:xlink="http://www.w3.org/1999/xlink" version="1.1" style="shape-rendering:geometricPrecision; text-rendering:geometricPrecision; image-rendering:optimizeQuality; fill-rule:evenodd; clip-rule:evenodd" viewBox="67.36 24.29 300.14 220.21">
<g><path style="opacity:0.97"  d="M 224.5,24.5 C 248.898,22.6062 264.731,33.2728 272,56.5C 282.462,63.2678 285.295,72.4344 280.5,84C 282.344,86.561 282.844,89.3943 282,92.5C 277.905,106.385 273.739,120.218 269.5,134C 281.181,134.833 292.848,134.666 304.5,133.5C 300.026,120.275 304.026,110.442 316.5,104C 316.012,101.023 314.678,98.5232 312.5,96.5C 309.193,95.3504 306.026,94.0171 303,92.5C 301.246,86.9281 303.246,84.2614 309,84.5C 315.004,84.8349 319.67,87.5016 323,92.5C 324.862,96.4189 326.529,100.419 328,104.5C 340.967,110.43 345.134,120.097 340.5,133.5C 348.813,134.332 357.147,134.832 365.5,135C 366,135.5 366.5,136 367,136.5C 367.667,171.833 367.667,207.167 367,242.5C 366.5,243 366,243.5 365.5,244C 275.5,244.667 185.5,244.667 95.5,244C 92.0976,242.6 89.2643,240.433 87,237.5C 84.1766,227.873 81.5099,218.206 79,208.5C 70.3858,205.614 66.5525,199.614 67.5,190.5C 67.2205,180.499 70.3872,171.832 77,164.5C 78.6132,151.441 85.1132,141.608 96.5,135C 126.602,120.133 158.102,115.966 191,122.5C 188.343,111.542 185.51,100.542 182.5,89.5C 182.486,87.3887 183.152,85.5553 184.5,84C 179.705,72.4344 182.538,63.2678 193,56.5C 197.683,39.9848 208.183,29.3181 224.5,24.5 Z M 229.5,34.5 C 248.463,35.2229 259.629,44.8895 263,63.5C 273.234,68.172 274.734,74.672 267.5,83C 245.23,84.6344 222.897,84.9677 200.5,84C 193.504,81.3474 191.337,76.5141 194,69.5C 196.181,66.7859 198.847,64.7859 202,63.5C 204.433,47.2123 213.599,37.5457 229.5,34.5 Z M 194.5,95.5 C 219.663,94.3366 244.997,94.17 270.5,95C 269.58,97.8349 268.58,100.668 267.5,103.5C 254.846,104.333 242.18,104.833 229.5,105C 225.207,112.756 221.874,120.922 219.5,129.5C 214.098,128.548 208.931,126.882 204,124.5C 202.735,121.539 201.569,118.539 200.5,115.5C 203.785,114.676 207.118,114.176 210.5,114C 213.167,111 213.167,108 210.5,105C 206.129,104.828 201.796,104.328 197.5,103.5C 196.484,100.718 195.484,98.0513 194.5,95.5 Z M 235.5,114.5 C 238.85,114.335 242.183,114.502 245.5,115C 243.203,118.887 242.369,123.054 243,127.5C 246,130.167 249,130.167 252,127.5C 253.308,123.24 254.808,119.074 256.5,115C 259.227,114.182 261.894,114.348 264.5,115.5C 262.5,121.5 260.5,127.5 258.5,133.5C 248.5,134.833 238.5,134.833 228.5,133.5C 231.434,127.362 233.767,121.029 235.5,114.5 Z M 320.5,114.5 C 330.155,115.308 333.655,120.308 331,129.5C 325.333,136.167 319.667,136.167 314,129.5C 311.427,122.371 313.594,117.371 320.5,114.5 Z M 156.5,129.5 C 174.953,129.558 192.953,132.391 210.5,138C 220.523,141.259 228.689,147.092 235,155.5C 236.636,160.012 237.636,164.678 238,169.5C 245.538,176.58 248.538,185.246 247,195.5C 241.525,199.991 235.692,200.491 229.5,197C 227.996,195.509 227.163,193.676 227,191.5C 224,188.833 221,188.833 218,191.5C 216.774,196.889 213.274,199.555 207.5,199.5C 201.726,199.555 198.226,196.889 197,191.5C 194,188.833 191,188.833 188,191.5C 186.774,196.889 183.274,199.555 177.5,199.5C 171.726,199.555 168.226,196.889 167,191.5C 164,188.833 161,188.833 158,191.5C 156.774,196.889 153.274,199.555 147.5,199.5C 141.726,199.555 138.226,196.889 137,191.5C 134,188.833 131,188.833 128,191.5C 126.774,196.889 123.274,199.555 117.5,199.5C 111.726,199.555 108.226,196.889 107,191.5C 101.648,187.942 98.3144,189.275 97,195.5C 91.5253,199.991 85.692,200.491 79.5,197C 76.1563,186.44 78.6563,177.273 87,169.5C 86.5984,160.138 90.0984,152.638 97.5,147C 104.558,142.195 112.224,138.529 120.5,136C 132.503,133.029 144.503,130.862 156.5,129.5 Z M 240.5,145.5 C 279.33,144.501 318.33,144.168 357.5,144.5C 357.5,174.5 357.5,204.5 357.5,234.5C 354.167,234.5 350.833,234.5 347.5,234.5C 347.667,208.498 347.5,182.498 347,156.5C 346.5,156 346,155.5 345.5,155C 312.162,154.833 278.828,154.333 245.5,153.5C 244.309,150.432 242.642,147.765 240.5,145.5 Z M 248.5,164.5 C 278.167,164.5 307.833,164.5 337.5,164.5C 337.5,169.5 337.5,174.5 337.5,179.5C 310.498,179.667 283.498,179.5 256.5,179C 254.445,173.791 251.778,168.958 248.5,164.5 Z M 257.5,189.5 C 284.167,189.5 310.833,189.5 337.5,189.5C 337.5,196.167 337.5,202.833 337.5,209.5C 306.832,209.667 276.165,209.5 245.5,209C 254.705,205.764 258.705,199.264 257.5,189.5 Z M 100.5,205.5 C 103.871,206.323 107.204,207.489 110.5,209C 118.327,210.424 125.66,209.257 132.5,205.5C 142.5,210.833 152.5,210.833 162.5,205.5C 172.5,210.833 182.5,210.833 192.5,205.5C 202.5,210.833 212.5,210.833 222.5,205.5C 226.466,207.158 230.466,208.825 234.5,210.5C 232.604,217.479 230.771,224.479 229,231.5C 228.097,232.701 226.931,233.535 225.5,234C 183.5,234.667 141.5,234.667 99.5,234C 98.0692,233.535 96.9025,232.701 96,231.5C 94.2294,224.479 92.396,217.479 90.5,210.5C 94.1996,209.317 97.5329,207.65 100.5,205.5 Z M 242.5,219.5 C 274.167,219.5 305.833,219.5 337.5,219.5C 337.5,224.5 337.5,229.5 337.5,234.5C 304.833,234.5 272.167,234.5 239.5,234.5C 240.659,229.532 241.659,224.532 242.5,219.5 Z"/></g>
<g><path style="opacity:0.978"  d="M 229.5,44.5 C 242.69,43.8613 250.357,50.0279 252.5,63C 252.739,68.7545 250.072,70.7545 244.5,69C 242.84,66.0888 241.674,62.9221 241,59.5C 239.833,58.3333 238.667,57.1667 237.5,56C 234.078,55.3264 230.911,54.1598 228,52.5C 227.109,49.5024 227.609,46.8357 229.5,44.5 Z"/></g>
<g><path style="opacity:0.975"  d="M 144.5,139.5 C 152.486,138.998 154.486,142.165 150.5,149C 144.585,151.139 138.585,152.972 132.5,154.5C 127.849,153.807 126.349,151.141 128,146.5C 128.5,146 129,145.5 129.5,145C 134.714,143.432 139.714,141.599 144.5,139.5 Z"/></g>
<g><path style="opacity:0.975"  d="M 174.5,139.5 C 182.495,140.332 189.995,142.666 197,146.5C 198.651,151.141 197.151,153.807 192.5,154.5C 186.415,152.972 180.415,151.139 174.5,149C 171.888,145.836 171.888,142.669 174.5,139.5 Z"/></g>
<g><path style="opacity:0.962" d="M 159.5,149.5 C 162.365,149.055 164.865,149.722 167,151.5C 167.667,156.833 167.667,162.167 167,167.5C 164,170.167 161,170.167 158,167.5C 157.333,162.167 157.333,156.833 158,151.5C 158.717,150.956 159.217,150.289 159.5,149.5 Z"/></g>
</svg>