<svg xmlns="http://www.w3.org/2000/svg" xmlns:xlink="http://www.w3.org/1999/xlink" version="1.1" style="shape-rendering:geometricPrecision; text-rendering:geometricPrecision; image-rendering:optimizeQuality; fill-rule:evenodd; clip-rule:evenodd" viewBox="117.5 96.08 311.02 310.42">
<g><path style="opacity:0.98" d="M 200.5,96.5 C 213.282,94.7024 223.782,98.7024 232,108.5C 233.481,111.11 234.648,113.777 235.5,116.5C 245.625,115.817 253.959,119.317 260.5,127C 270.353,130.354 277.02,136.854 280.5,146.5C 296.756,146.253 307.256,153.919 312,169.5C 313.627,178.299 312.127,186.466 307.5,194C 311.592,201.242 313.592,209.075 313.5,217.5C 316.625,214.854 320.125,212.854 324,211.5C 323.736,203.684 323.236,195.85 322.5,188C 321.74,178.849 325.407,172.183 333.5,168C 346.991,163.485 356.491,167.652 362,180.5C 362.586,189.883 362.086,199.216 360.5,208.5C 360.833,209.5 361.167,210.5 361.5,211.5C 365.213,212.774 368.713,214.44 372,216.5C 384.67,208.738 396.17,210.238 406.5,221C 425.036,241.273 431.869,265.106 427,292.5C 424.883,304.73 420.05,315.73 412.5,325.5C 428.169,336.357 431.669,350.357 423,367.5C 418.987,372.84 413.821,376.674 407.5,379C 346.238,388.753 284.905,397.92 223.5,406.5C 202.851,406.093 186.684,397.427 175,380.5C 164.103,384.011 152.936,385.844 141.5,386C 133.555,381.937 130.555,375.437 132.5,366.5C 123.173,365.84 118.173,360.84 117.5,351.5C 118.173,342.16 123.173,337.16 132.5,336.5C 130.7,321.88 137.033,315.38 151.5,317C 159.411,318.64 167.245,320.473 175,322.5C 179.151,316.517 183.985,311.184 189.5,306.5C 185.902,296.872 182.402,287.205 179,277.5C 159.38,271.944 150.38,258.944 152,238.5C 142.468,229.156 139.968,218.156 144.5,205.5C 125.578,188.727 122.412,169.394 135,147.5C 139.856,141.305 145.856,136.638 153,133.5C 157.799,120.033 167.299,112.533 181.5,111C 186.099,103.721 192.432,98.8877 200.5,96.5 Z M 227.5,126.5 C 227.711,128.424 228.377,128.757 229.5,127.5C 233.926,126.464 238.26,126.63 242.5,128C 235.691,130.472 230.357,134.805 226.5,141C 212.299,142.533 202.799,150.033 198,163.5C 171.804,178.283 165.804,198.95 180,225.5C 183.349,228.682 186.516,232.015 189.5,235.5C 184.968,248.156 187.468,259.156 197,268.5C 195.586,279.921 198.752,289.754 206.5,298C 204.246,299.256 201.912,300.423 199.5,301.5C 194.784,290.357 190.45,279.023 186.5,267.5C 173.066,266.892 165.066,260.058 162.5,247C 162.934,243.322 163.934,239.822 165.5,236.5C 151.563,227.093 149.23,215.426 158.5,201.5C 154.494,198.401 150.327,195.401 146,192.5C 133.776,176.003 135.276,160.836 150.5,147C 154.171,144.61 158.171,143.11 162.5,142.5C 164.435,127.724 172.768,120.89 187.5,122C 193.922,107.615 204.255,103.615 218.5,110C 223.994,114.155 226.994,119.655 227.5,126.5 Z M 272.5,156.5 C 272.711,158.424 273.377,158.757 274.5,157.5C 291.893,154.737 301.06,162.071 302,179.5C 301.562,182.376 300.562,185.043 299,187.5C 296.778,189.385 294.944,191.551 293.5,194C 294.944,196.449 296.778,198.615 299,200.5C 300.94,203.928 302.106,207.594 302.5,211.5C 295.853,210.592 289.853,212.092 284.5,216C 276.551,222.617 270.051,230.45 265,239.5C 262.838,234.35 260.671,229.184 258.5,224C 262.093,208.976 269.426,196.143 280.5,185.5C 278.852,182.028 276.518,179.528 273.5,178C 264.402,186.373 257.402,196.206 252.5,207.5C 246.278,194.054 239.278,181.054 231.5,168.5C 228.527,170.147 225.86,172.147 223.5,174.5C 228.785,184.072 233.785,193.739 238.5,203.5C 238.167,203.833 237.833,204.167 237.5,204.5C 227.327,201.515 216.994,200.515 206.5,201.5C 207.207,204.786 207.54,208.119 207.5,211.5C 217.383,210.969 227.05,212.136 236.5,215C 240.345,216.42 243.678,218.587 246.5,221.5C 250.133,230.233 253.466,239.067 256.5,248C 245.655,243.865 234.322,241.699 222.5,241.5C 222.5,244.833 222.5,248.167 222.5,251.5C 234.933,251.814 246.433,255.148 257,261.5C 257.333,271.833 257.667,282.167 258,292.5C 258.505,294.518 259.005,296.518 259.5,298.5C 259.179,300.048 258.179,300.715 256.5,300.5C 244.476,298.774 232.476,296.94 220.5,295C 208.352,288.567 205.018,279.067 210.5,266.5C 196.563,257.093 194.23,245.426 203.5,231.5C 199.683,228.534 195.683,225.701 191.5,223C 178.099,204.734 180.433,188.734 198.5,175C 201.353,173.57 204.353,172.737 207.5,172.5C 209.435,157.724 217.768,150.89 232.5,152C 238.922,137.615 249.255,133.615 263.5,140C 268.994,144.155 271.994,149.655 272.5,156.5 Z M 340.5,176.5 C 347.225,176.559 351.225,179.892 352.5,186.5C 350.266,203.38 348.933,220.213 348.5,237C 351.657,237.742 354.323,239.242 356.5,241.5C 355.221,243.146 353.555,244.313 351.5,245C 345.5,247 339.5,247 333.5,245C 331.445,244.313 329.779,243.146 328.5,241.5C 330.677,239.242 333.343,237.742 336.5,237C 336.067,220.213 334.734,203.38 332.5,186.5C 333.383,181.628 336.05,178.295 340.5,176.5 Z M 296.5,221.5 C 306.624,222.074 307.791,225.408 300,231.5C 293.777,240.613 289.777,250.613 288,261.5C 287.234,276.192 287.401,290.859 288.5,305.5C 282.934,304.686 277.434,303.686 272,302.5C 266.626,286.514 266.126,270.347 270.5,254C 275.025,239.663 283.692,228.829 296.5,221.5 Z M 384.5,221.5 C 387.688,221.618 390.688,222.451 393.5,224C 412.725,240.317 420.558,261.151 417,286.5C 415.632,299.898 410.465,311.565 401.5,321.5C 397.839,322.452 394.172,322.285 390.5,321C 393.859,314.922 396.026,308.422 397,301.5C 397.667,288.167 397.667,274.833 397,261.5C 394.598,247.596 388.765,235.429 379.5,225C 380.955,223.374 382.622,222.208 384.5,221.5 Z M 323.5,222.5 C 325.229,223.953 326.229,225.953 326.5,228.5C 323.876,230.622 321.376,232.955 319,235.5C 315.688,244.381 318.521,250.548 327.5,254C 328.059,254.725 328.392,255.558 328.5,256.5C 327.363,272.475 327.196,288.475 328,304.5C 328.236,306.764 328.736,308.931 329.5,311C 319.747,310.585 310.08,309.252 300.5,307C 299.115,303.321 298.282,299.488 298,295.5C 296.696,280.973 297.696,266.64 301,252.5C 305.846,240.46 313.346,230.46 323.5,222.5 Z M 359.5,222.5 C 366.3,225.453 371.8,230.12 376,236.5C 380.69,243.566 384.023,251.232 386,259.5C 388,274.167 388,288.833 386,303.5C 384.73,308.707 382.896,313.707 380.5,318.5C 379.833,318.833 379.167,319.167 378.5,319.5C 365.702,317.72 353.035,315.387 340.5,312.5C 339.012,307.627 338.178,302.627 338,297.5C 337.382,283.822 337.549,270.155 338.5,256.5C 349.198,257.874 358.365,254.874 366,247.5C 369.28,239.384 366.947,233.384 359,229.5C 359.207,227.249 359.373,224.915 359.5,222.5 Z M 218.5,306.5 C 280.254,314.928 341.921,324.095 403.5,334C 415.206,338.244 419.373,346.411 416,358.5C 412.327,365.488 406.494,369.321 398.5,370C 340.013,378.957 281.513,387.79 223,396.5C 195.401,394.068 180.235,379.068 177.5,351.5C 179.761,325.913 193.427,310.913 218.5,306.5 Z M 145.5,326.5 C 153.753,328.551 162.086,330.217 170.5,331.5C 170.579,332.93 170.246,334.264 169.5,335.5C 161.521,336.665 153.521,336.832 145.5,336C 141.581,332.84 141.581,329.673 145.5,326.5 Z M 131.5,346.5 C 143.5,346.5 155.5,346.5 167.5,346.5C 167.5,349.833 167.5,353.167 167.5,356.5C 155.495,356.667 143.495,356.5 131.5,356C 126.316,352.858 126.316,349.691 131.5,346.5 Z M 145.5,366.5 C 153.528,366.169 161.528,366.502 169.5,367.5C 170.246,368.736 170.579,370.07 170.5,371.5C 162.398,372.654 154.398,374.32 146.5,376.5C 141.602,373.586 141.268,370.252 145.5,366.5 Z"/></g>
<g><path style="opacity:0.063"  d="M 227.5,126.5 C 228.167,126.833 228.833,127.167 229.5,127.5C 228.377,128.757 227.711,128.424 227.5,126.5 Z"/></g>
<g><path style="opacity:0.063"  d="M 272.5,156.5 C 273.167,156.833 273.833,157.167 274.5,157.5C 273.377,158.757 272.711,158.424 272.5,156.5 Z"/></g>
<g><path style="opacity:0.094"  d="M 259.5,298.5 C 260.404,299.209 260.737,300.209 260.5,301.5C 258.901,301.768 257.568,301.434 256.5,300.5C 258.179,300.715 259.179,300.048 259.5,298.5 Z"/></g>
<g><path style="opacity:0.951"  d="M 217.5,326.5 C 220.833,326.5 224.167,326.5 227.5,326.5C 227.5,343.167 227.5,359.833 227.5,376.5C 224.167,376.5 220.833,376.5 217.5,376.5C 217.5,359.833 217.5,343.167 217.5,326.5 Z"/></g>
<g><path style="opacity:0.951"  d="M 257.5,326.5 C 260.833,326.5 264.167,326.5 267.5,326.5C 267.5,343.167 267.5,359.833 267.5,376.5C 264.167,376.5 260.833,376.5 257.5,376.5C 257.5,359.833 257.5,343.167 257.5,326.5 Z"/></g>
<g><path style="opacity:0.951"  d="M 297.5,326.5 C 300.833,326.5 304.167,326.5 307.5,326.5C 307.5,343.167 307.5,359.833 307.5,376.5C 304.167,376.5 300.833,376.5 297.5,376.5C 297.5,359.833 297.5,343.167 297.5,326.5 Z"/></g>
<g><path style="opacity:0.946"  d="M 337.5,336.5 C 340.833,336.5 344.167,336.5 347.5,336.5C 347.5,346.5 347.5,356.5 347.5,366.5C 344.167,366.5 340.833,366.5 337.5,366.5C 337.5,356.5 337.5,346.5 337.5,336.5 Z"/></g>
<g><path style="opacity:0.941"  d="M 377.5,341.5 C 380.833,341.5 384.167,341.5 387.5,341.5C 387.5,348.167 387.5,354.833 387.5,361.5C 384.167,361.5 380.833,361.5 377.5,361.5C 377.5,354.833 377.5,348.167 377.5,341.5 Z"/></g>
</svg>