<svg xmlns="http://www.w3.org/2000/svg" version="1.0" preserveAspectRatio="xMidYMid meet" viewBox="0.6 20.25 510.8 471.75">

<g transform="translate(0.000000,512.000000) scale(0.100000,-0.100000)" >
<path d="M2605 4909 c-68 -25 -115 -94 -115 -169 0 -38 -1 -40 -32 -40 -80 0 -152 -46 -177 -113 -14 -37 -14 -197 0 -234 23 -62 100 -112 172 -113 37 0 37 0 37 -40 0 -83 51 -149 133 -171 23 -6 79 -9 124 -7 127 7 181 53 198 169 l7 46 51 6 c63 8 118 44 141 92 14 30 17 58 14 148 -3 99 -6 116 -27 146 -28 39 -91 70 -142 71 -36 0 -36 0 -43 53 -8 62 -44 120 -88 144 -40 20 -207 28 -253 12z m183 -151 c7 -7 12 -43 12 -90 0 -108 11 -118 125 -118 l86 0 -3 -77 -3 -78 -88 -5 c-111 -6 -117 -13 -117 -121 0 -94 -6 -101 -92 -97 l-63 3 -5 87 c-7 118 -15 126 -129 130 l-86 3 0 75 0 75 87 3 c80 3 89 5 108 29 16 21 20 40 20 103 0 42 3 80 7 83 11 12 128 8 141 -5z"/>
<path d="M1261 4372 c-182 -67 -299 -115 -307 -127 -34 -47 -2 -115 55 -115 16 0 152 45 304 100 151 55 284 100 295 100 11 0 27 -9 36 -21 16 -23 101 -258 95 -262 -2 -1 -36 -17 -75 -36 -258 -121 -420 -412 -386 -691 6 -47 20 -113 32 -146 37 -103 55 -88 -215 -186 -270 -98 -308 -108 -403 -108 -292 0 -542 251 -542 545 0 195 117 390 287 477 37 19 122 55 187 78 66 24 128 52 138 62 40 40 7 118 -52 118 -41 0 -307 -100 -376 -141 -73 -44 -189 -159 -233 -232 -18 -31 -47 -96 -64 -144 -29 -82 -31 -98 -31 -218 0 -113 4 -140 27 -210 37 -111 90 -197 173 -279 123 -124 275 -193 447 -203 130 -8 201 8 503 118 l272 99 56 -54 c149 -146 382 -221 582 -187 38 7 76 14 85 17 13 4 17 -7 23 -59 30 -299 236 -539 526 -614 87 -22 245 -21 330 1 104 28 185 71 200 105 26 63 -37 119 -103 92 -127 -53 -173 -64 -267 -64 -115 1 -199 25 -286 81 -151 99 -239 250 -251 434 -6 87 -6 87 23 110 16 13 65 59 109 103 81 81 139 173 165 261 11 36 18 43 59 57 70 25 171 36 245 27 60 -7 70 -12 108 -52 34 -34 61 -49 126 -72 89 -31 112 -49 163 -128 47 -73 72 -153 77 -252 5 -103 -8 -172 -51 -269 -35 -79 -31 -113 17 -136 47 -22 76 -5 114 66 78 147 94 362 40 521 -21 62 -23 73 -9 69 9 -2 178 -63 377 -135 230 -84 388 -136 435 -143 332 -52 652 147 765 476 25 71 28 94 28 210 0 114 -3 140 -27 210 -14 44 -43 109 -64 145 -53 91 -172 207 -258 252 -38 20 -324 129 -635 242 -637 233 -635 232 -724 176 -61 -39 -61 -40 -261 -592 l-158 -437 -116 0 c-64 0 -132 -5 -151 -11 -65 -19 -70 -16 -70 43 0 29 -9 86 -21 127 -83 302 -352 509 -660 510 l-76 0 -48 133 c-60 165 -79 200 -128 234 -30 21 -53 28 -101 30 -56 3 -83 -5 -355 -105z m2840 -257 c483 -176 574 -212 633 -252 155 -106 246 -291 233 -478 -10 -144 -58 -249 -161 -351 -134 -133 -314 -190 -488 -153 -43 10 -1044 368 -1155 414 -27 11 -33 20 -33 44 0 35 336 962 353 973 7 4 22 8 33 8 12 0 275 -92 585 -205z m-2007 -200 c188 -49 342 -202 391 -386 20 -73 19 -212 -1 -280 -62 -209 -233 -361 -442 -391 -396 -58 -723 335 -588 707 33 90 70 150 136 214 63 62 160 117 242 137 74 17 193 17 262 -1z"/>
<path d="M1870 3711 c-89 -29 -175 -105 -211 -185 -61 -140 -13 -315 113 -406 120 -87 307 -76 414 25 40 38 45 79 14 113 -29 31 -71 28 -124 -9 -180 -127 -390 94 -248 263 64 75 179 78 271 7 32 -26 73 -24 99 4 46 49 16 110 -80 162 -45 25 -66 29 -138 32 -47 1 -96 -1 -110 -6z"/>
<path d="M2650 3050 c-19 -19 -20 -33 -20 -324 0 -381 -14 -351 167 -351 120 1 133 2 185 28 61 30 96 65 131 131 20 37 22 56 22 186 0 139 -1 148 -28 202 -30 62 -85 113 -145 134 -23 8 -86 13 -164 14 -115 0 -130 -2 -148 -20z m298 -164 l37 -34 3 -110 c5 -167 -23 -208 -150 -219 l-58 -6 0 202 0 201 65 0 c60 0 68 -3 103 -34z"/>
<path d="M3990 2513 c-64 -24 -110 -95 -110 -168 l0 -45 -54 0 c-67 0 -112 -28 -143 -90 -33 -65 -33 -208 0 -271 30 -56 85 -89 150 -89 l47 0 0 -43 c0 -64 36 -126 91 -155 40 -21 54 -23 150 -20 98 3 108 5 142 31 48 36 60 60 67 127 l5 55 58 6 c65 7 100 28 135 79 20 29 22 45 22 145 0 100 -2 116 -22 145 -36 53 -73 74 -136 80 l-57 5 -5 57 c-6 63 -27 100 -80 136 -29 19 -45 22 -139 21 -58 0 -113 -3 -121 -6z m192 -228 c6 -117 18 -129 133 -134 l85 -3 0 -74 0 -74 -79 0 c-69 0 -83 -3 -107 -23 -25 -22 -28 -31 -32 -111 l-5 -87 -71 3 -71 3 -5 87 c-7 115 -13 121 -128 128 l-87 5 -3 73 -3 72 70 0 c129 0 150 19 151 138 l0 82 74 0 73 0 5 -85z"/>
<path d="M1534 2390 c-136 -35 -278 -126 -361 -229 -53 -67 -116 -193 -138 -276 -9 -36 -16 -102 -16 -165 0 -185 60 -336 185 -467 414 -437 1125 -190 1191 413 13 121 -28 295 -97 412 -52 90 -170 201 -266 250 -155 81 -339 104 -498 62z m288 -141 c89 -18 194 -76 262 -144 106 -106 159 -235 160 -385 0 -369 -372 -632 -718 -506 -168 61 -296 199 -343 371 -21 77 -18 218 6 296 55 177 215 325 398 368 54 13 173 13 235 0z"/>
<path d="M1495 2045 l-25 -24 0 -299 c0 -376 -15 -346 174 -350 167 -4 215 8 274 72 49 53 66 102 60 173 -4 39 -13 66 -36 98 -31 44 -31 45 -15 82 36 88 -8 203 -96 250 -40 21 -57 23 -178 23 -129 0 -135 -1 -158 -25z m279 -141 c9 -8 16 -26 16 -39 0 -37 -35 -55 -107 -55 l-63 0 0 55 0 55 69 0 c50 0 74 -4 85 -16z m36 -264 c29 -29 26 -74 -6 -99 -22 -17 -41 -21 -105 -21 l-79 0 0 70 0 70 85 0 c72 0 88 -3 105 -20z"/>
<path d="M3125 1704 c-135 -33 -280 -125 -372 -235 -47 -58 -119 -194 -129 -245 -8 -42 30 -87 74 -87 42 0 58 15 82 80 60 161 206 295 371 338 73 20 212 19 280 -1 137 -41 269 -145 332 -261 33 -62 67 -189 67 -253 0 -255 -185 -482 -435 -535 -87 -18 -132 -18 -216 -1 -190 41 -356 191 -410 373 -15 52 -40 76 -79 76 -71 0 -87 -58 -46 -167 122 -324 480 -508 816 -421 287 74 495 325 516 622 9 123 -13 231 -73 353 -39 79 -60 109 -132 180 -140 140 -288 200 -486 199 -55 0 -127 -7 -160 -15z"/>
<path d="M3205 1348 c-30 -28 -48 -69 -125 -276 -94 -255 -99 -278 -57 -307 48 -34 98 -9 127 63 l12 32 128 0 127 0 13 -41 c15 -46 42 -69 80 -69 33 0 70 38 70 71 0 23 -155 452 -180 500 -18 32 -71 59 -118 59 -34 0 -49 -6 -77 -32z m121 -251 l31 -82 -65 -3 c-35 -2 -66 -1 -68 1 -2 2 10 42 28 90 17 48 34 85 37 81 3 -3 20 -42 37 -87z"/>
<path d="M765 1082 c-71 -34 -105 -87 -105 -163 0 -38 -1 -39 -34 -39 -74 0 -145 -44 -172 -107 -17 -39 -19 -199 -3 -240 25 -67 97 -113 177 -113 31 0 32 -2 32 -40 0 -55 20 -99 63 -137 43 -37 94 -48 203 -41 120 8 184 67 184 171 l0 45 54 4 c67 6 126 42 149 91 26 53 24 225 -3 276 -25 50 -76 81 -145 88 l-55 6 0 44 c0 61 -25 110 -73 141 -35 23 -52 27 -136 30 -78 2 -103 -1 -136 -16z m195 -224 c7 -115 13 -121 128 -128 l87 -5 0 -75 0 -75 -87 -5 c-114 -7 -119 -12 -127 -127 l-6 -88 -70 0 -70 0 -5 87 c-7 115 -13 121 -128 128 l-87 5 0 75 0 75 87 3 c80 3 89 5 108 29 16 21 20 40 20 103 0 42 3 80 7 84 4 4 37 6 73 4 l65 -3 5 -87z"/>
</g>
</svg>