<?xml version="1.0" encoding="UTF-8"?>
<!DOCTYPE svg PUBLIC "-//W3C//DTD SVG 1.1//EN" "http://www.w3.org/Graphics/SVG/1.1/DTD/svg11.dtd">
<svg xmlns="http://www.w3.org/2000/svg" version="1.1" width="398px" height="377px" style="shape-rendering:geometricPrecision; text-rendering:geometricPrecision; image-rendering:optimizeQuality; fill-rule:evenodd; clip-rule:evenodd" xmlns:xlink="http://www.w3.org/1999/xlink">
<g><path style="opacity:0.917" fill="#000000" d="M 186.5,36.5 C 247.369,39.6699 290.869,68.6699 317,123.5C 336.53,175.65 329.197,223.65 295,267.5C 252.69,313.537 201.523,327.703 141.5,310C 82.156,285.803 50.4893,241.636 46.5,177.5C 49.9684,117.033 78.9684,73.8668 133.5,48C 150.645,41.1488 168.311,37.3155 186.5,36.5 Z M 175.5,51.5 C 239.022,49.1534 282.855,77.1534 307,135.5C 324.154,196.772 307.321,246.272 256.5,284C 218.481,306.073 178.815,309.406 137.5,294C 84.3107,267.775 59.144,224.941 62,165.5C 66.4351,122.782 86.9351,90.2823 123.5,68C 139.884,59.0787 157.218,53.5787 175.5,51.5 Z M 182.5,184.5 C 205.386,183.919 218.052,194.919 220.5,217.5C 219.167,238.167 208.167,249.167 187.5,250.5C 166.833,249.167 155.833,238.167 154.5,217.5C 155.696,199.369 165.029,188.369 182.5,184.5 Z"/></g>
<g><path style="opacity:0.865" fill="#000000" d="M 138.5,130.5 C 145.037,130.872 148.37,134.372 148.5,141C 147.122,150.988 142.622,153.155 135,147.5C 132.194,140.874 133.361,135.207 138.5,130.5 Z"/></g>
<g><path style="opacity:0.865" fill="#000000" d="M 232.5,130.5 C 238.586,130.924 241.586,134.257 241.5,140.5C 241.925,146.231 239.425,149.897 234,151.5C 229.202,149.766 226.702,146.266 226.5,141C 226.39,136.171 228.39,132.671 232.5,130.5 Z"/></g>
<g><path style="opacity:0.92" fill="#000000" d="M 180.5,170.5 C 216.305,170.805 234.138,188.805 234,224.5C 226.914,252.134 209.08,265.301 180.5,264C 152.866,256.914 139.699,239.08 141,210.5C 145.68,188.653 158.847,175.32 180.5,170.5 Z M 182.5,184.5 C 165.029,188.369 155.696,199.369 154.5,217.5C 155.833,238.167 166.833,249.167 187.5,250.5C 208.167,249.167 219.167,238.167 220.5,217.5C 218.052,194.919 205.386,183.919 182.5,184.5 Z"/></g>
</svg>
