<svg xmlns="http://www.w3.org/2000/svg" xmlns:xlink="http://www.w3.org/1999/xlink" version="1.1" style="shape-rendering:geometricPrecision; text-rendering:geometricPrecision; image-rendering:optimizeQuality; fill-rule:evenodd; clip-rule:evenodd" viewBox="115.5 221.65 415.45 197.61">
<g><path style="opacity:0.996"  d="M 518.5,222.5 C 520.663,224.083 522.996,225.416 525.5,226.5C 531.556,232.779 532.556,239.779 528.5,247.5C 526.167,247.833 524.833,249.167 524.5,251.5C 519.389,257.399 514.056,263.066 508.5,268.5C 506.5,268.5 505.5,269.5 505.5,271.5C 504.167,273.5 502.5,275.167 500.5,276.5C 496.5,278.5 493.5,281.5 491.5,285.5C 484.201,294.467 476.201,302.8 467.5,310.5C 463.5,312.5 460.5,315.5 458.5,319.5C 456.167,322.5 453.5,325.167 450.5,327.5C 448.5,327.5 447.5,328.5 447.5,330.5C 438.725,335.767 430.058,335.767 421.5,330.5C 421.027,329.094 420.027,328.427 418.5,328.5C 417.833,328.5 417.5,328.167 417.5,327.5C 402.782,311.781 387.449,296.781 371.5,282.5C 367.536,279.037 363.702,275.37 360,271.5C 357.561,273.629 355.061,275.629 352.5,277.5C 349.833,278.167 348.167,279.833 347.5,282.5C 344.789,286.212 341.456,289.212 337.5,291.5C 334.833,292.167 333.167,293.833 332.5,296.5C 329.789,300.212 326.456,303.212 322.5,305.5C 319.833,306.167 318.167,307.833 317.5,310.5C 314.789,314.212 311.456,317.212 307.5,319.5C 304.833,320.167 303.167,321.833 302.5,324.5C 294.479,330.269 285.813,331.436 276.5,328C 273.894,327.208 271.894,325.708 270.5,323.5C 269.415,321.413 267.749,320.08 265.5,319.5C 264.833,319.5 264.5,319.167 264.5,318.5C 263.415,316.413 261.749,315.08 259.5,314.5C 258.833,314.5 258.5,314.167 258.5,313.5C 257.415,311.413 255.749,310.08 253.5,309.5C 252.833,309.5 252.5,309.167 252.5,308.5C 251.415,306.413 249.749,305.08 247.5,304.5C 246.833,304.5 246.5,304.167 246.5,303.5C 245.089,301.086 243.089,299.419 240.5,298.5C 239.833,298.5 239.5,298.167 239.5,297.5C 238.415,295.413 236.749,294.08 234.5,293.5C 233.833,293.5 233.5,293.167 233.5,292.5C 232.415,290.413 230.749,289.08 228.5,288.5C 227.833,288.5 227.5,288.167 227.5,287.5C 226.415,285.413 224.749,284.08 222.5,283.5C 221.833,283.5 221.5,283.167 221.5,282.5C 220.415,280.413 218.749,279.08 216.5,278.5C 215.833,278.5 215.5,278.167 215.5,277.5C 214.409,274.808 212.743,274.142 210.5,275.5C 210.5,276.167 210.167,276.5 209.5,276.5C 207.5,276.5 206.5,277.5 206.5,279.5C 205.564,280.974 204.23,281.974 202.5,282.5C 200.5,282.5 199.5,283.5 199.5,285.5C 195.817,289.18 191.817,292.514 187.5,295.5C 185.5,295.5 184.5,296.5 184.5,298.5C 183.205,299.488 181.872,300.488 180.5,301.5C 178.628,302.511 176.628,303.345 174.5,304C 175.252,304.671 175.586,305.504 175.5,306.5C 174.833,306.833 174.167,307.167 173.5,307.5C 171.5,307.5 170.5,308.5 170.5,310.5C 169.564,311.974 168.23,312.974 166.5,313.5C 164.5,313.5 163.5,314.5 163.5,316.5C 162.564,317.974 161.23,318.974 159.5,319.5C 157.167,319.833 155.833,321.167 155.5,323.5C 154.205,324.488 152.872,325.488 151.5,326.5C 149.5,326.5 148.5,327.5 148.5,329.5C 147.564,330.974 146.23,331.974 144.5,332.5C 142.5,332.5 141.5,333.5 141.5,335.5C 135.935,337.921 130.268,338.088 124.5,336C 123.944,335.617 123.611,335.117 123.5,334.5C 122.738,332.738 121.404,331.738 119.5,331.5C 119.5,331.167 119.5,330.833 119.5,330.5C 119.008,328.181 118.008,326.181 116.5,324.5C 115.663,320.455 116.163,316.455 118,312.5C 118.383,311.944 118.883,311.611 119.5,311.5C 121.167,310.5 122.5,309.167 123.5,307.5C 123.5,306.833 123.833,306.5 124.5,306.5C 127.089,305.581 129.089,303.914 130.5,301.5C 130.5,300.833 130.833,300.5 131.5,300.5C 134.089,299.581 136.089,297.914 137.5,295.5C 137.833,294.5 138.5,293.833 139.5,293.5C 142.089,292.581 144.089,290.914 145.5,288.5C 145.5,287.833 145.833,287.5 146.5,287.5C 149.089,286.581 151.089,284.914 152.5,282.5C 152.5,281.833 152.833,281.5 153.5,281.5C 156.089,280.581 158.089,278.914 159.5,276.5C 159.5,275.833 159.833,275.5 160.5,275.5C 163.089,274.581 165.089,272.914 166.5,270.5C 166.833,269.5 167.5,268.833 168.5,268.5C 170.749,267.92 172.415,266.587 173.5,264.5C 173.833,263.5 174.5,262.833 175.5,262.5C 178.089,261.581 180.089,259.914 181.5,257.5C 181.5,256.833 181.833,256.5 182.5,256.5C 185.089,255.581 187.089,253.914 188.5,251.5C 188.5,250.833 188.833,250.5 189.5,250.5C 192.089,249.581 194.089,247.914 195.5,245.5C 195.5,244.833 195.833,244.5 196.5,244.5C 199.089,243.581 201.089,241.914 202.5,239.5C 202.833,238.5 203.5,237.833 204.5,237.5C 207.089,236.581 209.089,234.914 210.5,232.5C 211.348,231.375 212.348,231.375 213.5,232.5C 213.833,234.833 215.167,236.167 217.5,236.5C 218.167,236.833 218.833,237.167 219.5,237.5C 219.833,239.833 221.167,241.167 223.5,241.5C 224.167,241.833 224.833,242.167 225.5,242.5C 226.167,245.167 227.833,246.833 230.5,247.5C 231.167,247.833 231.833,248.167 232.5,248.5C 232.833,250.833 234.167,252.167 236.5,252.5C 237.167,252.833 237.833,253.167 238.5,253.5C 238.833,255.833 240.167,257.167 242.5,257.5C 243.167,257.833 243.833,258.167 244.5,258.5C 244.833,260.833 246.167,262.167 248.5,262.5C 249.167,262.833 249.833,263.167 250.5,263.5C 250.833,265.833 252.167,267.167 254.5,267.5C 255.167,267.833 255.833,268.167 256.5,268.5C 257.167,271.167 258.833,272.833 261.5,273.5C 262.167,273.833 262.833,274.167 263.5,274.5C 263.833,276.833 265.167,278.167 267.5,278.5C 268.167,278.833 268.833,279.167 269.5,279.5C 269.833,281.833 271.167,283.167 273.5,283.5C 274.167,283.833 274.833,284.167 275.5,284.5C 275.833,286.833 277.167,288.167 279.5,288.5C 280.167,288.833 280.833,289.167 281.5,289.5C 281.833,291.833 283.167,293.167 285.5,293.5C 287.062,293.267 288.395,292.6 289.5,291.5C 294.105,288.564 298.105,284.898 301.5,280.5C 302.167,279.167 303.167,278.167 304.5,277.5C 309.105,274.564 313.105,270.898 316.5,266.5C 317.167,265.167 318.167,264.167 319.5,263.5C 324.105,260.564 328.105,256.898 331.5,252.5C 332.167,251.167 333.167,250.167 334.5,249.5C 339.105,246.564 343.105,242.898 346.5,238.5C 353.443,230.77 361.443,229.603 370.5,235C 375.702,240.37 381.035,245.536 386.5,250.5C 395.446,261.114 405.112,271.114 415.5,280.5C 420.224,286.227 425.558,291.227 431.5,295.5C 432.167,295.833 432.833,296.167 433.5,296.5C 433.897,297.525 434.563,297.692 435.5,297C 442.761,290.244 449.428,283.078 455.5,275.5C 457.833,272.5 460.5,269.833 463.5,267.5C 472.555,259.446 480.889,250.779 488.5,241.5C 490.833,238.5 493.5,235.833 496.5,233.5C 499.5,231.167 502.167,228.5 504.5,225.5C 508.517,221.732 513.183,220.732 518.5,222.5 Z"/></g>
<g><path style="opacity:0.514"  d="M 518.5,222.5 C 521.614,222.555 523.948,223.888 525.5,226.5C 522.996,225.416 520.663,224.083 518.5,222.5 Z"/></g>
<g><path style="opacity:0.514"  d="M 504.5,225.5 C 502.167,228.5 499.5,231.167 496.5,233.5C 498.167,229.833 500.833,227.167 504.5,225.5 Z"/></g>
<g><path style="opacity:0.514"  d="M 213.5,232.5 C 215.167,233.5 216.5,234.833 217.5,236.5C 215.167,236.167 213.833,234.833 213.5,232.5 Z"/></g>
<g><path style="opacity:0.514"  d="M 210.5,232.5 C 209.089,234.914 207.089,236.581 204.5,237.5C 205.911,235.086 207.911,233.419 210.5,232.5 Z"/></g>
<g><path style="opacity:0.506"  d="M 219.5,237.5 C 221.167,238.5 222.5,239.833 223.5,241.5C 221.167,241.167 219.833,239.833 219.5,237.5 Z"/></g>
<g><path style="opacity:0.514"  d="M 346.5,238.5 C 343.105,242.898 339.105,246.564 334.5,249.5C 337.895,245.102 341.895,241.436 346.5,238.5 Z"/></g>
<g><path style="opacity:0.514"  d="M 202.5,239.5 C 201.089,241.914 199.089,243.581 196.5,244.5C 197.911,242.086 199.911,240.419 202.5,239.5 Z"/></g>
<g><path style="opacity:0.514"  d="M 225.5,242.5 C 227.5,243.833 229.167,245.5 230.5,247.5C 227.833,246.833 226.167,245.167 225.5,242.5 Z"/></g>
<g><path style="opacity:0.514"  d="M 195.5,245.5 C 194.089,247.914 192.089,249.581 189.5,250.5C 190.911,248.086 192.911,246.419 195.5,245.5 Z"/></g>
<g><path style="opacity:0.412"  d="M 528.5,247.5 C 527.5,249.167 526.167,250.5 524.5,251.5C 524.833,249.167 526.167,247.833 528.5,247.5 Z"/></g>
<g><path style="opacity:0.412"  d="M 232.5,248.5 C 234.167,249.5 235.5,250.833 236.5,252.5C 234.167,252.167 232.833,250.833 232.5,248.5 Z"/></g>
<g><path style="opacity:0.514"  d="M 386.5,250.5 C 396.833,260.167 406.833,270.167 416.5,280.5C 416.167,280.5 415.833,280.5 415.5,280.5C 405.112,271.114 395.446,261.114 386.5,250.5 Z"/></g>
<g><path style="opacity:0.514"  d="M 488.5,241.5 C 480.889,250.779 472.555,259.446 463.5,267.5C 471.111,258.221 479.445,249.554 488.5,241.5 Z"/></g>
<g><path style="opacity:0.514"  d="M 188.5,251.5 C 187.089,253.914 185.089,255.581 182.5,256.5C 183.911,254.086 185.911,252.419 188.5,251.5 Z"/></g>
<g><path style="opacity:0.412"  d="M 238.5,253.5 C 240.167,254.5 241.5,255.833 242.5,257.5C 240.167,257.167 238.833,255.833 238.5,253.5 Z"/></g>
<g><path style="opacity:0.514"  d="M 331.5,252.5 C 328.105,256.898 324.105,260.564 319.5,263.5C 322.895,259.102 326.895,255.436 331.5,252.5 Z"/></g>
<g><path style="opacity:0.514"  d="M 244.5,258.5 C 246.167,259.5 247.5,260.833 248.5,262.5C 246.167,262.167 244.833,260.833 244.5,258.5 Z"/></g>
<g><path style="opacity:0.514"  d="M 181.5,257.5 C 180.089,259.914 178.089,261.581 175.5,262.5C 176.911,260.086 178.911,258.419 181.5,257.5 Z"/></g>
<g><path style="opacity:0.514"  d="M 250.5,263.5 C 252.167,264.5 253.5,265.833 254.5,267.5C 252.167,267.167 250.833,265.833 250.5,263.5 Z"/></g>
<g><path style="opacity:0.506"  d="M 173.5,264.5 C 172.415,266.587 170.749,267.92 168.5,268.5C 169.585,266.413 171.251,265.08 173.5,264.5 Z"/></g>
<g><path style="opacity:0.231"  d="M 508.5,268.5 C 507.833,269.833 506.833,270.833 505.5,271.5C 505.5,269.5 506.5,268.5 508.5,268.5 Z"/></g>
<g><path style="opacity:0.514"  d="M 316.5,266.5 C 313.105,270.898 309.105,274.564 304.5,277.5C 307.895,273.102 311.895,269.436 316.5,266.5 Z"/></g>
<g><path style="opacity:0.514"  d="M 256.5,268.5 C 258.5,269.833 260.167,271.5 261.5,273.5C 258.833,272.833 257.167,271.167 256.5,268.5 Z"/></g>
<g><path style="opacity:0.514"  d="M 166.5,270.5 C 165.089,272.914 163.089,274.581 160.5,275.5C 161.911,273.086 163.911,271.419 166.5,270.5 Z"/></g>
<g><path style="opacity:0.4"  d="M 210.5,275.5 C 212.743,274.142 214.409,274.808 215.5,277.5C 213.833,276.833 212.167,276.167 210.5,275.5 Z"/></g>
<g><path style="opacity:0.412"  d="M 263.5,274.5 C 265.167,275.5 266.5,276.833 267.5,278.5C 265.167,278.167 263.833,276.833 263.5,274.5 Z"/></g>
<g><path style="opacity:0.412"  d="M 209.5,276.5 C 208.833,277.833 207.833,278.833 206.5,279.5C 206.5,277.5 207.5,276.5 209.5,276.5 Z"/></g>
<g><path style="opacity:0.514"  d="M 216.5,278.5 C 218.749,279.08 220.415,280.413 221.5,282.5C 219.251,281.92 217.585,280.587 216.5,278.5 Z"/></g>
<g><path style="opacity:0.412"  d="M 352.5,277.5 C 351.167,279.5 349.5,281.167 347.5,282.5C 348.167,279.833 349.833,278.167 352.5,277.5 Z"/></g>
<g><path style="opacity:0.514"  d="M 159.5,276.5 C 158.089,278.914 156.089,280.581 153.5,281.5C 154.911,279.086 156.911,277.419 159.5,276.5 Z"/></g>
<g><path style="opacity:0.412"  d="M 415.5,280.5 C 415.833,280.5 416.167,280.5 416.5,280.5C 421.833,285.167 426.833,290.167 431.5,295.5C 425.558,291.227 420.224,286.227 415.5,280.5 Z"/></g>
<g><path style="opacity:0.412"  d="M 500.5,276.5 C 497.833,279.833 494.833,282.833 491.5,285.5C 493.5,281.5 496.5,278.5 500.5,276.5 Z"/></g>
<g><path style="opacity:0.412"  d="M 269.5,279.5 C 271.167,280.5 272.5,281.833 273.5,283.5C 271.167,283.167 269.833,281.833 269.5,279.5 Z"/></g>
<g><path style="opacity:0.514"  d="M 371.5,282.5 C 387.449,296.781 402.782,311.781 417.5,327.5C 401.551,313.219 386.218,298.219 371.5,282.5 Z"/></g>
<g><path style="opacity:0.412"  d="M 202.5,282.5 C 201.833,283.833 200.833,284.833 199.5,285.5C 199.5,283.5 200.5,282.5 202.5,282.5 Z"/></g>
<g><path style="opacity:0.514"  d="M 222.5,283.5 C 224.749,284.08 226.415,285.413 227.5,287.5C 225.251,286.92 223.585,285.587 222.5,283.5 Z"/></g>
<g><path style="opacity:0.514"  d="M 301.5,280.5 C 298.105,284.898 294.105,288.564 289.5,291.5C 292.895,287.102 296.895,283.436 301.5,280.5 Z"/></g>
<g><path style="opacity:0.514"  d="M 152.5,282.5 C 151.089,284.914 149.089,286.581 146.5,287.5C 147.911,285.086 149.911,283.419 152.5,282.5 Z"/></g>
<g><path style="opacity:0.325"  d="M 275.5,284.5 C 277.167,285.5 278.5,286.833 279.5,288.5C 277.167,288.167 275.833,286.833 275.5,284.5 Z"/></g>
<g><path style="opacity:0.514"  d="M 228.5,288.5 C 230.749,289.08 232.415,290.413 233.5,292.5C 231.251,291.92 229.585,290.587 228.5,288.5 Z"/></g>
<g><path style="opacity:0.514"  d="M 455.5,275.5 C 449.428,283.078 442.761,290.244 435.5,297C 434.563,297.692 433.897,297.525 433.5,296.5C 440.833,289.5 448.167,282.5 455.5,275.5 Z"/></g>
<g><path style="opacity:0.514"  d="M 281.5,289.5 C 283.167,290.5 284.5,291.833 285.5,293.5C 283.167,293.167 281.833,291.833 281.5,289.5 Z"/></g>
<g><path style="opacity:0.514"  d="M 145.5,288.5 C 144.089,290.914 142.089,292.581 139.5,293.5C 140.911,291.086 142.911,289.419 145.5,288.5 Z"/></g>
<g><path style="opacity:0.412"  d="M 337.5,291.5 C 336.167,293.5 334.5,295.167 332.5,296.5C 333.167,293.833 334.833,292.167 337.5,291.5 Z"/></g>
<g><path style="opacity:0.514"  d="M 234.5,293.5 C 236.749,294.08 238.415,295.413 239.5,297.5C 237.251,296.92 235.585,295.587 234.5,293.5 Z"/></g>
<g><path style="opacity:0.325"  d="M 187.5,295.5 C 186.833,296.833 185.833,297.833 184.5,298.5C 184.5,296.5 185.5,295.5 187.5,295.5 Z"/></g>
<g><path style="opacity:0.514"  d="M 240.5,298.5 C 243.089,299.419 245.089,301.086 246.5,303.5C 243.911,302.581 241.911,300.914 240.5,298.5 Z"/></g>
<g><path style="opacity:0.514"  d="M 137.5,295.5 C 136.089,297.914 134.089,299.581 131.5,300.5C 132.911,298.086 134.911,296.419 137.5,295.5 Z"/></g>
<g><path style="opacity:1"  d="M 180.5,301.5 C 179.167,303.5 177.5,305.167 175.5,306.5C 175.586,305.504 175.252,304.671 174.5,304C 176.628,303.345 178.628,302.511 180.5,301.5 Z"/></g>
<g><path style="opacity:0.996"  d="M 524.5,306.5 C 524.738,308.404 525.738,309.738 527.5,310.5C 528.79,311.058 529.623,312.058 530,313.5C 531.065,316.573 531.232,319.573 530.5,322.5C 529.264,324.649 528.264,326.982 527.5,329.5C 525.234,333.436 522.234,336.769 518.5,339.5C 514.167,341.833 510.833,345.167 508.5,349.5C 501.535,358.133 493.868,366.133 485.5,373.5C 481.5,375.5 478.5,378.5 476.5,382.5C 469.201,391.467 461.201,399.8 452.5,407.5C 450.5,407.5 449.5,408.5 449.5,410.5C 441.808,415.648 433.475,416.814 424.5,414C 422.416,413.303 420.749,412.136 419.5,410.5C 415.108,405.106 410.108,400.439 404.5,396.5C 399.167,391.833 394.167,386.833 389.5,381.5C 380.369,371.868 371.036,362.368 361.5,353C 357.756,352.236 355.423,353.736 354.5,357.5C 351.789,361.212 348.456,364.212 344.5,366.5C 341.833,367.167 340.167,368.833 339.5,371.5C 336.789,375.212 333.456,378.212 329.5,380.5C 326.833,381.167 325.167,382.833 324.5,385.5C 321.789,389.212 318.456,392.212 314.5,394.5C 311.833,395.167 310.167,396.833 309.5,399.5C 301.21,410.096 290.544,413.596 277.5,410C 273.561,408.209 270.228,405.709 267.5,402.5C 266.415,400.413 264.749,399.08 262.5,398.5C 261.833,398.5 261.5,398.167 261.5,397.5C 260.415,395.413 258.749,394.08 256.5,393.5C 255.833,393.5 255.5,393.167 255.5,392.5C 254.415,390.413 252.749,389.08 250.5,388.5C 249.833,388.5 249.5,388.167 249.5,387.5C 248.415,385.413 246.749,384.08 244.5,383.5C 243.833,383.5 243.5,383.167 243.5,382.5C 242.415,380.413 240.749,379.08 238.5,378.5C 237.5,378.167 236.833,377.5 236.5,376.5C 235.415,374.413 233.749,373.08 231.5,372.5C 230.833,372.5 230.5,372.167 230.5,371.5C 229.415,369.413 227.749,368.08 225.5,367.5C 224.833,367.5 224.5,367.167 224.5,366.5C 223.415,364.413 221.749,363.08 219.5,362.5C 218.833,362.5 218.5,362.167 218.5,361.5C 217.415,359.413 215.749,358.08 213.5,357.5C 212.883,357.389 212.383,357.056 212,356.5C 210.242,358.765 208.075,360.432 205.5,361.5C 203.5,361.5 202.5,362.5 202.5,364.5C 201.564,365.974 200.23,366.974 198.5,367.5C 196.5,367.5 195.5,368.5 195.5,370.5C 194.564,371.974 193.23,372.974 191.5,373.5C 189.5,373.5 188.5,374.5 188.5,376.5C 187.564,377.974 186.23,378.974 184.5,379.5C 182.167,379.833 180.833,381.167 180.5,383.5C 179.205,384.488 177.872,385.488 176.5,386.5C 174.5,386.5 173.5,387.5 173.5,389.5C 172.564,390.974 171.23,391.974 169.5,392.5C 167.5,392.5 166.5,393.5 166.5,395.5C 165.564,396.974 164.23,397.974 162.5,398.5C 160.5,398.5 159.5,399.5 159.5,401.5C 155.817,405.18 151.817,408.514 147.5,411.5C 145.5,411.5 144.5,412.5 144.5,414.5C 139.859,418.942 134.526,420.275 128.5,418.5C 127.486,417.326 126.153,416.66 124.5,416.5C 119.03,413.59 116.03,408.923 115.5,402.5C 115.905,399.495 116.905,396.829 118.5,394.5C 121.5,392.167 124.167,389.5 126.5,386.5C 126.833,385.5 127.5,384.833 128.5,384.5C 130.749,383.92 132.415,382.587 133.5,380.5C 133.833,379.5 134.5,378.833 135.5,378.5C 138.089,377.581 140.089,375.914 141.5,373.5C 141.5,372.833 141.833,372.5 142.5,372.5C 145.089,371.581 147.089,369.914 148.5,367.5C 148.5,366.833 148.833,366.5 149.5,366.5C 152.089,365.581 154.089,363.914 155.5,361.5C 155.5,360.833 155.833,360.5 156.5,360.5C 159.089,359.581 161.089,357.914 162.5,355.5C 162.833,354.5 163.5,353.833 164.5,353.5C 167.089,352.581 169.089,350.914 170.5,348.5C 170.5,347.833 170.833,347.5 171.5,347.5C 174.089,346.581 176.089,344.914 177.5,342.5C 177.5,341.833 177.833,341.5 178.5,341.5C 181.089,340.581 183.089,338.914 184.5,336.5C 184.5,335.833 184.833,335.5 185.5,335.5C 188.089,334.581 190.089,332.914 191.5,330.5C 191.833,329.5 192.5,328.833 193.5,328.5C 195.749,327.92 197.415,326.587 198.5,324.5C 198.833,323.5 199.5,322.833 200.5,322.5C 203.089,321.581 205.089,319.914 206.5,317.5C 206.5,316.833 206.833,316.5 207.5,316.5C 209.044,316.297 210.378,315.63 211.5,314.5C 212.417,315.127 213.417,315.461 214.5,315.5C 215.167,315.833 215.833,316.167 216.5,316.5C 217.167,319.167 218.833,320.833 221.5,321.5C 222.167,321.833 222.833,322.167 223.5,322.5C 223.833,324.833 225.167,326.167 227.5,326.5C 228.167,326.833 228.833,327.167 229.5,327.5C 229.833,329.833 231.167,331.167 233.5,331.5C 234.167,331.833 234.833,332.167 235.5,332.5C 235.833,334.833 237.167,336.167 239.5,336.5C 240.167,336.833 240.833,337.167 241.5,337.5C 241.833,339.833 243.167,341.167 245.5,341.5C 246.167,341.833 246.833,342.167 247.5,342.5C 248.167,345.167 249.833,346.833 252.5,347.5C 253.167,347.833 253.833,348.167 254.5,348.5C 254.833,350.833 256.167,352.167 258.5,352.5C 259.167,352.833 259.833,353.167 260.5,353.5C 260.833,355.833 262.167,357.167 264.5,357.5C 265.167,357.833 265.833,358.167 266.5,358.5C 266.833,360.833 268.167,362.167 270.5,362.5C 271.167,362.833 271.833,363.167 272.5,363.5C 272.833,365.833 274.167,367.167 276.5,367.5C 277.167,367.833 277.833,368.167 278.5,368.5C 279.167,371.167 280.833,372.833 283.5,373.5C 284.167,373.833 284.833,374.167 285.5,374.5C 286.251,375.573 287.251,375.74 288.5,375C 290.373,373.296 292.04,371.463 293.5,369.5C 294.167,368.167 295.167,367.167 296.5,366.5C 301.105,363.564 305.105,359.898 308.5,355.5C 309.167,354.167 310.167,353.167 311.5,352.5C 316.105,349.564 320.105,345.898 323.5,341.5C 324.167,340.167 325.167,339.167 326.5,338.5C 331.105,335.564 335.105,331.898 338.5,327.5C 339.167,326.167 340.167,325.167 341.5,324.5C 345.1,322.57 348.1,319.903 350.5,316.5C 357.608,312.373 364.608,312.706 371.5,317.5C 380.909,328.413 390.909,338.913 401.5,349C 402.094,349.464 402.761,349.631 403.5,349.5C 408.833,354.5 414.167,359.5 419.5,364.5C 423.233,369.74 427.566,374.574 432.5,379C 436.079,378.937 438.412,377.104 439.5,373.5C 441.833,370.5 444.5,367.833 447.5,365.5C 456.555,357.446 464.889,348.779 472.5,339.5C 474.833,336.5 477.5,333.833 480.5,331.5C 489.5,323.167 498.167,314.5 506.5,305.5C 512.585,302.638 518.585,302.971 524.5,306.5 Z"/></g>
<g><path style="opacity:0.514"  d="M 247.5,304.5 C 249.749,305.08 251.415,306.413 252.5,308.5C 250.251,307.92 248.585,306.587 247.5,304.5 Z"/></g>
<g><path style="opacity:0.514"  d="M 130.5,301.5 C 129.089,303.914 127.089,305.581 124.5,306.5C 125.911,304.086 127.911,302.419 130.5,301.5 Z"/></g>
<g><path style="opacity:0.412"  d="M 322.5,305.5 C 321.167,307.5 319.5,309.167 317.5,310.5C 318.167,307.833 319.833,306.167 322.5,305.5 Z"/></g>
<g><path style="opacity:0.514"  d="M 524.5,306.5 C 526.262,307.262 527.262,308.596 527.5,310.5C 525.738,309.738 524.738,308.404 524.5,306.5 Z"/></g>
<g><path style="opacity:0.514"  d="M 123.5,307.5 C 122.5,309.167 121.167,310.5 119.5,311.5C 119.833,309.167 121.167,307.833 123.5,307.5 Z"/></g>
<g><path style="opacity:0.412"  d="M 173.5,307.5 C 172.833,308.833 171.833,309.833 170.5,310.5C 170.5,308.5 171.5,307.5 173.5,307.5 Z"/></g>
<g><path style="opacity:0.514"  d="M 253.5,309.5 C 255.749,310.08 257.415,311.413 258.5,313.5C 256.251,312.92 254.585,311.587 253.5,309.5 Z"/></g>
<g><path style="opacity:0.514"  d="M 214.5,315.5 C 213.417,315.461 212.417,315.127 211.5,314.5C 210.378,315.63 209.044,316.297 207.5,316.5C 209.54,311.936 211.873,311.602 214.5,315.5 Z"/></g>
<g><path style="opacity:0.412"  d="M 166.5,313.5 C 165.833,314.833 164.833,315.833 163.5,316.5C 163.5,314.5 164.5,313.5 166.5,313.5 Z"/></g>
<g><path style="opacity:0.514"  d="M 259.5,314.5 C 261.749,315.08 263.415,316.413 264.5,318.5C 262.251,317.92 260.585,316.587 259.5,314.5 Z"/></g>
<g><path style="opacity:0.412"  d="M 467.5,310.5 C 464.833,313.833 461.833,316.833 458.5,319.5C 460.5,315.5 463.5,312.5 467.5,310.5 Z"/></g>
<g><path style="opacity:0.514"  d="M 506.5,305.5 C 498.167,314.5 489.5,323.167 480.5,331.5C 487.907,322.588 495.907,314.088 504.5,306C 505.094,305.536 505.761,305.369 506.5,305.5 Z"/></g>
<g><path style="opacity:0.514"  d="M 265.5,319.5 C 267.749,320.08 269.415,321.413 270.5,323.5C 268.251,322.92 266.585,321.587 265.5,319.5 Z"/></g>
<g><path style="opacity:0.412"  d="M 159.5,319.5 C 158.5,321.167 157.167,322.5 155.5,323.5C 155.833,321.167 157.167,319.833 159.5,319.5 Z"/></g>
<g><path style="opacity:0.514"  d="M 216.5,316.5 C 218.5,317.833 220.167,319.5 221.5,321.5C 218.833,320.833 217.167,319.167 216.5,316.5 Z"/></g>
<g><path style="opacity:0.412"  d="M 307.5,319.5 C 306.167,321.5 304.5,323.167 302.5,324.5C 303.167,321.833 304.833,320.167 307.5,319.5 Z"/></g>
<g><path style="opacity:0.514"  d="M 206.5,317.5 C 205.089,319.914 203.089,321.581 200.5,322.5C 201.911,320.086 203.911,318.419 206.5,317.5 Z"/></g>
<g><path style="opacity:0.514"  d="M 350.5,316.5 C 348.1,319.903 345.1,322.57 341.5,324.5C 343.9,321.097 346.9,318.43 350.5,316.5 Z"/></g>
<g><path style="opacity:0.514"  d="M 530.5,322.5 C 530.834,325.491 529.834,327.824 527.5,329.5C 528.264,326.982 529.264,324.649 530.5,322.5 Z"/></g>
<g><path style="opacity:0.412"  d="M 223.5,322.5 C 225.167,323.5 226.5,324.833 227.5,326.5C 225.167,326.167 223.833,324.833 223.5,322.5 Z"/></g>
<g><path style="opacity:0.514"  d="M 116.5,324.5 C 118.008,326.181 119.008,328.181 119.5,330.5C 117.461,329.089 116.461,327.089 116.5,324.5 Z"/></g>
<g><path style="opacity:0.325"  d="M 151.5,326.5 C 150.833,327.833 149.833,328.833 148.5,329.5C 148.5,327.5 149.5,326.5 151.5,326.5 Z"/></g>
<g><path style="opacity:0.514"  d="M 198.5,324.5 C 197.415,326.587 195.749,327.92 193.5,328.5C 194.585,326.413 196.251,325.08 198.5,324.5 Z"/></g>
<g><path style="opacity:0.506"  d="M 418.5,328.5 C 420.027,328.427 421.027,329.094 421.5,330.5C 419.973,330.573 418.973,329.906 418.5,328.5 Z"/></g>
<g><path style="opacity:0.412"  d="M 450.5,327.5 C 449.833,328.833 448.833,329.833 447.5,330.5C 447.5,328.5 448.5,327.5 450.5,327.5 Z"/></g>
<g><path style="opacity:0.412"  d="M 229.5,327.5 C 231.167,328.5 232.5,329.833 233.5,331.5C 231.167,331.167 229.833,329.833 229.5,327.5 Z"/></g>
<g><path style="opacity:0.514"  d="M 119.5,331.5 C 121.404,331.738 122.738,332.738 123.5,334.5C 121.596,334.262 120.262,333.262 119.5,331.5 Z"/></g>
<g><path style="opacity:0.514"  d="M 191.5,330.5 C 190.089,332.914 188.089,334.581 185.5,335.5C 186.911,333.086 188.911,331.419 191.5,330.5 Z"/></g>
<g><path style="opacity:0.514"  d="M 338.5,327.5 C 335.105,331.898 331.105,335.564 326.5,338.5C 329.895,334.102 333.895,330.436 338.5,327.5 Z"/></g>
<g><path style="opacity:0.412"  d="M 144.5,332.5 C 143.833,333.833 142.833,334.833 141.5,335.5C 141.5,333.5 142.5,332.5 144.5,332.5 Z"/></g>
<g><path style="opacity:0.514"  d="M 235.5,332.5 C 237.167,333.5 238.5,334.833 239.5,336.5C 237.167,336.167 235.833,334.833 235.5,332.5 Z"/></g>
<g><path style="opacity:0.412"  d="M 371.5,317.5 C 382.5,327.833 393.167,338.5 403.5,349.5C 402.761,349.631 402.094,349.464 401.5,349C 390.909,338.913 380.909,328.413 371.5,317.5 Z"/></g>
<g><path style="opacity:0.514"  d="M 241.5,337.5 C 243.167,338.5 244.5,339.833 245.5,341.5C 243.167,341.167 241.833,339.833 241.5,337.5 Z"/></g>
<g><path style="opacity:0.514"  d="M 184.5,336.5 C 183.089,338.914 181.089,340.581 178.5,341.5C 179.911,339.086 181.911,337.419 184.5,336.5 Z"/></g>
<g><path style="opacity:0.412"  d="M 518.5,339.5 C 515.5,343.167 512.167,346.5 508.5,349.5C 510.833,345.167 514.167,341.833 518.5,339.5 Z"/></g>
<g><path style="opacity:0.514"  d="M 323.5,341.5 C 320.105,345.898 316.105,349.564 311.5,352.5C 314.895,348.102 318.895,344.436 323.5,341.5 Z"/></g>
<g><path style="opacity:0.514"  d="M 177.5,342.5 C 176.089,344.914 174.089,346.581 171.5,347.5C 172.911,345.086 174.911,343.419 177.5,342.5 Z"/></g>
<g><path style="opacity:0.514"  d="M 247.5,342.5 C 249.5,343.833 251.167,345.5 252.5,347.5C 249.833,346.833 248.167,345.167 247.5,342.5 Z"/></g>
<g><path style="opacity:0.412"  d="M 254.5,348.5 C 256.167,349.5 257.5,350.833 258.5,352.5C 256.167,352.167 254.833,350.833 254.5,348.5 Z"/></g>
<g><path style="opacity:0.514"  d="M 170.5,348.5 C 169.089,350.914 167.089,352.581 164.5,353.5C 165.911,351.086 167.911,349.419 170.5,348.5 Z"/></g>
<g><path style="opacity:0.514"  d="M 389.5,381.5 C 379.421,372.925 369.754,363.758 360.5,354C 359.833,353.333 359.167,353.333 358.5,354C 357.295,355.376 355.962,356.542 354.5,357.5C 355.423,353.736 357.756,352.236 361.5,353C 371.036,362.368 380.369,371.868 389.5,381.5 Z"/></g>
<g><path style="opacity:0.514"  d="M 472.5,339.5 C 464.889,348.779 456.555,357.446 447.5,365.5C 455.111,356.221 463.445,347.554 472.5,339.5 Z"/></g>
<g><path style="opacity:0.412"  d="M 260.5,353.5 C 262.167,354.5 263.5,355.833 264.5,357.5C 262.167,357.167 260.833,355.833 260.5,353.5 Z"/></g>
<g><path style="opacity:0.514"  d="M 213.5,357.5 C 215.749,358.08 217.415,359.413 218.5,361.5C 216.251,360.92 214.585,359.587 213.5,357.5 Z"/></g>
<g><path style="opacity:0.514"  d="M 162.5,355.5 C 161.089,357.914 159.089,359.581 156.5,360.5C 157.911,358.086 159.911,356.419 162.5,355.5 Z"/></g>
<g><path style="opacity:0.514"  d="M 266.5,358.5 C 268.167,359.5 269.5,360.833 270.5,362.5C 268.167,362.167 266.833,360.833 266.5,358.5 Z"/></g>
<g><path style="opacity:0.514"  d="M 308.5,355.5 C 305.105,359.898 301.105,363.564 296.5,366.5C 299.895,362.102 303.895,358.436 308.5,355.5 Z"/></g>
<g><path style="opacity:0.412"  d="M 205.5,361.5 C 204.833,362.833 203.833,363.833 202.5,364.5C 202.5,362.5 203.5,361.5 205.5,361.5 Z"/></g>
<g><path style="opacity:0.514"  d="M 219.5,362.5 C 221.749,363.08 223.415,364.413 224.5,366.5C 222.251,365.92 220.585,364.587 219.5,362.5 Z"/></g>
<g><path style="opacity:0.514"  d="M 155.5,361.5 C 154.089,363.914 152.089,365.581 149.5,366.5C 150.911,364.086 152.911,362.419 155.5,361.5 Z"/></g>
<g><path style="opacity:0.514"  d="M 272.5,363.5 C 274.167,364.5 275.5,365.833 276.5,367.5C 274.167,367.167 272.833,365.833 272.5,363.5 Z"/></g>
<g><path style="opacity:0.514"  d="M 419.5,364.5 C 424.465,368.963 429.298,373.63 434,378.5C 435.704,376.627 437.537,374.96 439.5,373.5C 438.412,377.104 436.079,378.937 432.5,379C 427.566,374.574 423.233,369.74 419.5,364.5 Z"/></g>
<g><path style="opacity:0.514"  d="M 225.5,367.5 C 227.749,368.08 229.415,369.413 230.5,371.5C 228.251,370.92 226.585,369.587 225.5,367.5 Z"/></g>
<g><path style="opacity:0.412"  d="M 198.5,367.5 C 197.833,368.833 196.833,369.833 195.5,370.5C 195.5,368.5 196.5,367.5 198.5,367.5 Z"/></g>
<g><path style="opacity:0.412"  d="M 344.5,366.5 C 343.167,368.5 341.5,370.167 339.5,371.5C 340.167,368.833 341.833,367.167 344.5,366.5 Z"/></g>
<g><path style="opacity:0.514"  d="M 148.5,367.5 C 147.089,369.914 145.089,371.581 142.5,372.5C 143.911,370.086 145.911,368.419 148.5,367.5 Z"/></g>
<g><path style="opacity:0.514"  d="M 231.5,372.5 C 233.749,373.08 235.415,374.413 236.5,376.5C 234.251,375.92 232.585,374.587 231.5,372.5 Z"/></g>
<g><path style="opacity:0.514"  d="M 278.5,368.5 C 280.5,369.833 282.167,371.5 283.5,373.5C 280.833,372.833 279.167,371.167 278.5,368.5 Z"/></g>
<g><path style="opacity:0.514"  d="M 293.5,369.5 C 292.04,371.463 290.373,373.296 288.5,375C 287.251,375.74 286.251,375.573 285.5,374.5C 288.167,372.833 290.833,371.167 293.5,369.5 Z"/></g>
<g><path style="opacity:0.412"  d="M 191.5,373.5 C 190.833,374.833 189.833,375.833 188.5,376.5C 188.5,374.5 189.5,373.5 191.5,373.5 Z"/></g>
<g><path style="opacity:0.514"  d="M 141.5,373.5 C 140.089,375.914 138.089,377.581 135.5,378.5C 136.911,376.086 138.911,374.419 141.5,373.5 Z"/></g>
<g><path style="opacity:0.412"  d="M 485.5,373.5 C 482.833,376.833 479.833,379.833 476.5,382.5C 478.5,378.5 481.5,375.5 485.5,373.5 Z"/></g>
<g><path style="opacity:0.514"  d="M 238.5,378.5 C 240.749,379.08 242.415,380.413 243.5,382.5C 241.251,381.92 239.585,380.587 238.5,378.5 Z"/></g>
<g><path style="opacity:0.412"  d="M 184.5,379.5 C 183.5,381.167 182.167,382.5 180.5,383.5C 180.833,381.167 182.167,379.833 184.5,379.5 Z"/></g>
<g><path style="opacity:0.412"  d="M 329.5,380.5 C 328.167,382.5 326.5,384.167 324.5,385.5C 325.167,382.833 326.833,381.167 329.5,380.5 Z"/></g>
<g><path style="opacity:0.514"  d="M 133.5,380.5 C 132.415,382.587 130.749,383.92 128.5,384.5C 129.585,382.413 131.251,381.08 133.5,380.5 Z"/></g>
<g><path style="opacity:0.514"  d="M 244.5,383.5 C 246.749,384.08 248.415,385.413 249.5,387.5C 247.251,386.92 245.585,385.587 244.5,383.5 Z"/></g>
<g><path style="opacity:0.412"  d="M 176.5,386.5 C 175.833,387.833 174.833,388.833 173.5,389.5C 173.5,387.5 174.5,386.5 176.5,386.5 Z"/></g>
<g><path style="opacity:0.514"  d="M 250.5,388.5 C 252.749,389.08 254.415,390.413 255.5,392.5C 253.251,391.92 251.585,390.587 250.5,388.5 Z"/></g>
<g><path style="opacity:0.514"  d="M 126.5,386.5 C 124.167,389.5 121.5,392.167 118.5,394.5C 120.167,390.833 122.833,388.167 126.5,386.5 Z"/></g>
<g><path style="opacity:0.412"  d="M 169.5,392.5 C 168.833,393.833 167.833,394.833 166.5,395.5C 166.5,393.5 167.5,392.5 169.5,392.5 Z"/></g>
<g><path style="opacity:0.514"  d="M 256.5,393.5 C 258.749,394.08 260.415,395.413 261.5,397.5C 259.251,396.92 257.585,395.587 256.5,393.5 Z"/></g>
<g><path style="opacity:0.412"  d="M 314.5,394.5 C 313.167,396.5 311.5,398.167 309.5,399.5C 310.167,396.833 311.833,395.167 314.5,394.5 Z"/></g>
<g><path style="opacity:0.514"  d="M 404.5,396.5 C 410.108,400.439 415.108,405.106 419.5,410.5C 413.892,406.561 408.892,401.894 404.5,396.5 Z"/></g>
<g><path style="opacity:0.514"  d="M 262.5,398.5 C 264.749,399.08 266.415,400.413 267.5,402.5C 265.251,401.92 263.585,400.587 262.5,398.5 Z"/></g>
<g><path style="opacity:0.412"  d="M 162.5,398.5 C 161.833,399.833 160.833,400.833 159.5,401.5C 159.5,399.5 160.5,398.5 162.5,398.5 Z"/></g>
<g><path style="opacity:0.325"  d="M 452.5,407.5 C 451.833,408.833 450.833,409.833 449.5,410.5C 449.5,408.5 450.5,407.5 452.5,407.5 Z"/></g>
<g><path style="opacity:0.325"  d="M 147.5,411.5 C 146.833,412.833 145.833,413.833 144.5,414.5C 144.5,412.5 145.5,411.5 147.5,411.5 Z"/></g>
<g><path style="opacity:0.412"  d="M 124.5,416.5 C 126.153,416.66 127.486,417.326 128.5,418.5C 126.62,418.771 125.287,418.104 124.5,416.5 Z"/></g>
</svg>