<svg xmlns="http://www.w3.org/2000/svg" xmlns:xlink="http://www.w3.org/1999/xlink" version="1.1" style="shape-rendering:geometricPrecision; text-rendering:geometricPrecision; image-rendering:optimizeQuality; fill-rule:evenodd; clip-rule:evenodd" viewBox="143.52 110.98 359.9 336.32">
<g><path style="opacity:0.995"  d="M 215.5,115.5 C 217.181,117.008 219.181,118.008 221.5,118.5C 225.572,120.208 228.905,122.874 231.5,126.5C 232.419,129.089 234.086,131.089 236.5,132.5C 239.277,134.951 241.277,137.951 242.5,141.5C 243.659,145.151 245.326,148.485 247.5,151.5C 250.325,156.452 252.491,161.786 254,167.5C 257.306,179.695 259.972,192.028 262,204.5C 264.884,194.681 268.051,185.014 271.5,175.5C 272.931,174.22 273.598,172.553 273.5,170.5C 273.328,169.508 273.662,168.842 274.5,168.5C 275.931,167.22 276.598,165.553 276.5,163.5C 281.819,150.196 289.819,138.863 300.5,129.5C 302.749,128.92 304.415,127.587 305.5,125.5C 317.942,115.303 332.275,111.47 348.5,114C 352.163,114.572 355.497,115.738 358.5,117.5C 359.78,118.931 361.447,119.598 363.5,119.5C 367.078,121.075 370.411,123.075 373.5,125.5C 375.766,129.436 378.766,132.769 382.5,135.5C 393.021,148.86 398.354,164.193 398.5,181.5C 394.258,212.46 393.758,243.46 397,274.5C 419.692,249.496 446.192,244.663 476.5,260C 478.66,261.332 480.66,262.832 482.5,264.5C 484.43,268.1 487.097,271.1 490.5,273.5C 500.68,285.194 504.847,298.86 503,314.5C 502.588,319.157 501.421,323.491 499.5,327.5C 497.659,329.849 496.326,332.515 495.5,335.5C 486.085,352.229 471.752,362.062 452.5,365C 438.493,367.259 424.827,365.925 411.5,361C 406.93,359.226 402.93,356.726 399.5,353.5C 398.415,351.413 396.749,350.08 394.5,349.5C 392.133,351.198 390.466,353.531 389.5,356.5C 387.554,357.035 386.554,358.368 386.5,360.5C 377.16,379.008 365.993,396.341 353,412.5C 348.594,417.411 343.76,421.745 338.5,425.5C 336.5,425.5 335.5,426.5 335.5,428.5C 335.167,428.5 334.833,428.5 334.5,428.5C 332.973,428.427 331.973,429.094 331.5,430.5C 322.774,437.694 312.774,442.528 301.5,445C 281.267,448.855 261.267,447.855 241.5,442C 230.665,436.331 227.998,428.165 233.5,417.5C 235.5,416.167 237.167,414.5 238.5,412.5C 240.809,410.273 243.642,409.273 247,409.5C 260.962,413.093 275.129,414.259 289.5,413C 304.486,409.343 317.152,401.843 327.5,390.5C 329.587,389.415 330.92,387.749 331.5,385.5C 332.124,383.246 333.457,381.579 335.5,380.5C 336.906,380.027 337.573,379.027 337.5,377.5C 350.04,357.596 361.707,337.096 372.5,316C 366.184,298.417 362.684,280.251 362,261.5C 361.333,245.833 361.333,230.167 362,214.5C 363.333,200.85 363.999,187.183 364,173.5C 362.449,163.378 357.615,155.378 349.5,149.5C 348.713,147.896 347.38,147.229 345.5,147.5C 336.776,145.766 329.109,147.932 322.5,154C 308.707,170.003 299.873,188.503 296,209.5C 287.333,257.5 278.667,305.5 270,353.5C 265.625,363.603 258.125,367.103 247.5,364C 246.058,363.623 245.058,362.79 244.5,361.5C 243.738,359.738 242.404,358.738 240.5,358.5C 238.071,354.245 236.904,349.578 237,344.5C 236.294,300.708 233.627,257.041 229,213.5C 227.063,192.74 221.563,173.073 212.5,154.5C 212.167,152.167 210.833,150.833 208.5,150.5C 208.5,150.167 208.5,149.833 208.5,149.5C 207.738,147.738 206.404,146.738 204.5,146.5C 196.429,143.807 188.429,144.14 180.5,147.5C 178.447,147.402 176.78,148.069 175.5,149.5C 165.313,158.957 155.479,158.623 146,148.5C 142.538,142.275 142.705,136.275 146.5,130.5C 148.167,129.5 149.5,128.167 150.5,126.5C 153.835,123.161 157.835,120.828 162.5,119.5C 164.553,119.598 166.22,118.931 167.5,117.5C 179.804,111.433 192.804,109.6 206.5,112C 209.865,112.505 212.865,113.672 215.5,115.5 Z M 460.5,289.5 C 462.167,291.833 464.167,293.833 466.5,295.5C 469.536,302.26 470.202,309.26 468.5,316.5C 467.326,317.514 466.66,318.847 466.5,320.5C 464.738,321.262 463.738,322.596 463.5,324.5C 452.322,333 440.655,333.667 428.5,326.5C 427.167,324.5 425.5,322.833 423.5,321.5C 423.008,319.181 422.008,317.181 420.5,315.5C 417.846,303.821 421.513,294.821 431.5,288.5C 433.368,287.737 435.035,286.737 436.5,285.5C 445.039,283.635 453.039,284.968 460.5,289.5 Z"/></g>
<g><path style="opacity:0.506"  d="M 215.5,115.5 C 218.089,115.461 220.089,116.461 221.5,118.5C 219.181,118.008 217.181,117.008 215.5,115.5 Z"/></g>
<g><path style="opacity:0.514"  d="M 167.5,117.5 C 166.22,118.931 164.553,119.598 162.5,119.5C 163.78,118.069 165.447,117.402 167.5,117.5 Z"/></g>
<g><path style="opacity:0.506"  d="M 358.5,117.5 C 360.553,117.402 362.22,118.069 363.5,119.5C 361.447,119.598 359.78,118.931 358.5,117.5 Z"/></g>
<g><path style="opacity:0.514"  d="M 373.5,125.5 C 377.234,128.231 380.234,131.564 382.5,135.5C 378.766,132.769 375.766,129.436 373.5,125.5 Z"/></g>
<g><path style="opacity:0.514"  d="M 150.5,126.5 C 149.5,128.167 148.167,129.5 146.5,130.5C 146.833,128.167 148.167,126.833 150.5,126.5 Z"/></g>
<g><path style="opacity:0.514"  d="M 231.5,126.5 C 233.914,127.911 235.581,129.911 236.5,132.5C 234.086,131.089 232.419,129.089 231.5,126.5 Z"/></g>
<g><path style="opacity:0.514"  d="M 305.5,125.5 C 304.415,127.587 302.749,128.92 300.5,129.5C 301.585,127.413 303.251,126.08 305.5,125.5 Z"/></g>
<g><path style="opacity:0.514"  d="M 242.5,141.5 C 245.207,144.247 246.873,147.58 247.5,151.5C 245.326,148.485 243.659,145.151 242.5,141.5 Z"/></g>
<g><path style="opacity:0.514"  d="M 204.5,146.5 C 206.404,146.738 207.738,147.738 208.5,149.5C 206.596,149.262 205.262,148.262 204.5,146.5 Z"/></g>
<g><path style="opacity:0.514"  d="M 180.5,147.5 C 179.22,148.931 177.553,149.598 175.5,149.5C 176.78,148.069 178.447,147.402 180.5,147.5 Z"/></g>
<g><path style="opacity:0.514"  d="M 345.5,147.5 C 347.38,147.229 348.713,147.896 349.5,149.5C 347.847,149.34 346.514,148.674 345.5,147.5 Z"/></g>
<g><path style="opacity:0.514"  d="M 208.5,150.5 C 210.833,150.833 212.167,152.167 212.5,154.5C 210.833,153.5 209.5,152.167 208.5,150.5 Z"/></g>
<g><path style="opacity:0.514"  d="M 276.5,163.5 C 276.598,165.553 275.931,167.22 274.5,168.5C 274.402,166.447 275.069,164.78 276.5,163.5 Z"/></g>
<g><path style="opacity:0.412"  d="M 273.5,170.5 C 273.598,172.553 272.931,174.22 271.5,175.5C 271.402,173.447 272.069,171.78 273.5,170.5 Z"/></g>
<g><path style="opacity:0.412"  d="M 482.5,264.5 C 485.903,266.9 488.57,269.9 490.5,273.5C 487.097,271.1 484.43,268.1 482.5,264.5 Z"/></g>
<g><path style="opacity:0.514"  d="M 436.5,285.5 C 435.035,286.737 433.368,287.737 431.5,288.5C 432.3,286.259 433.966,285.259 436.5,285.5 Z"/></g>
<g><path style="opacity:0.514"  d="M 460.5,289.5 C 463.5,290.5 465.5,292.5 466.5,295.5C 464.167,293.833 462.167,291.833 460.5,289.5 Z"/></g>
<g><path style="opacity:0.514"  d="M 468.5,316.5 C 468.771,318.38 468.104,319.713 466.5,320.5C 466.66,318.847 467.326,317.514 468.5,316.5 Z"/></g>
<g><path style="opacity:0.514"  d="M 420.5,315.5 C 422.008,317.181 423.008,319.181 423.5,321.5C 421.461,320.089 420.461,318.089 420.5,315.5 Z"/></g>
<g><path style="opacity:0.514"  d="M 423.5,321.5 C 425.5,322.833 427.167,324.5 428.5,326.5C 425.833,325.833 424.167,324.167 423.5,321.5 Z"/></g>
<g><path style="opacity:0.514"  d="M 466.5,320.5 C 466.262,322.404 465.262,323.738 463.5,324.5C 463.738,322.596 464.738,321.262 466.5,320.5 Z"/></g>
<g><path style="opacity:0.514"  d="M 499.5,327.5 C 499.206,330.754 497.873,333.421 495.5,335.5C 496.326,332.515 497.659,329.849 499.5,327.5 Z"/></g>
<g><path style="opacity:0.514"  d="M 394.5,349.5 C 396.749,350.08 398.415,351.413 399.5,353.5C 397.251,352.92 395.585,351.587 394.5,349.5 Z"/></g>
<g><path style="opacity:0.514"  d="M 389.5,356.5 C 388.974,358.23 387.974,359.564 386.5,360.5C 386.554,358.368 387.554,357.035 389.5,356.5 Z"/></g>
<g><path style="opacity:0.514"  d="M 240.5,358.5 C 242.404,358.738 243.738,359.738 244.5,361.5C 242.596,361.262 241.262,360.262 240.5,358.5 Z"/></g>
<g><path style="opacity:0.514"  d="M 337.5,377.5 C 337.573,379.027 336.906,380.027 335.5,380.5C 335.427,378.973 336.094,377.973 337.5,377.5 Z"/></g>
<g><path style="opacity:0.514"  d="M 331.5,385.5 C 330.92,387.749 329.587,389.415 327.5,390.5C 328.08,388.251 329.413,386.585 331.5,385.5 Z"/></g>
<g><path style="opacity:0.514"  d="M 238.5,412.5 C 237.167,414.5 235.5,416.167 233.5,417.5C 234.167,414.833 235.833,413.167 238.5,412.5 Z"/></g>
<g><path style="opacity:0.231"  d="M 338.5,425.5 C 337.833,426.833 336.833,427.833 335.5,428.5C 335.5,426.5 336.5,425.5 338.5,425.5 Z"/></g>
<g><path style="opacity:0.231"  d="M 334.5,428.5 C 334.027,429.906 333.027,430.573 331.5,430.5C 331.973,429.094 332.973,428.427 334.5,428.5 Z"/></g>
</svg>