<svg xmlns="http://www.w3.org/2000/svg" xmlns:xlink="http://www.w3.org/1999/xlink" version="1.1" style="shape-rendering:geometricPrecision; text-rendering:geometricPrecision; image-rendering:optimizeQuality; fill-rule:evenodd; clip-rule:evenodd" viewBox="180.08 120.4 255.42 399.85">
<g><path style="opacity:0.995"  d="M 373.5,143.5 C 376.101,147.771 379.434,151.437 383.5,154.5C 392.192,164.214 398.025,175.547 401,188.5C 404.94,213.02 403.94,237.353 398,261.5C 395.406,272.614 392.406,283.614 389,294.5C 376.265,330.707 363.931,367.04 352,403.5C 347.662,417.859 345.162,432.526 344.5,447.5C 343.211,464.431 349.878,476.931 364.5,485C 373.089,488.551 381.423,488.051 389.5,483.5C 392.833,482.167 395.167,479.833 396.5,476.5C 399.579,469.587 402.246,462.587 404.5,455.5C 406.833,453.833 408.833,451.833 410.5,449.5C 412.807,447.953 415.473,447.287 418.5,447.5C 421.737,447.346 424.737,448.013 427.5,449.5C 428.419,452.089 430.086,454.089 432.5,455.5C 434.172,457.98 435.172,460.813 435.5,464C 428.518,503.975 404.851,522.642 364.5,520C 352.888,517.696 342.888,512.529 334.5,504.5C 332.761,501.757 330.427,499.757 327.5,498.5C 314.035,481.585 308.535,462.252 311,440.5C 312.157,425.56 314.823,410.893 319,396.5C 331.733,356.633 345.067,316.966 359,277.5C 366.812,254.448 370.478,230.782 370,206.5C 369.008,195.538 365.508,185.538 359.5,176.5C 357.833,172.833 355.167,170.167 351.5,168.5C 335.37,156.512 317.37,152.012 297.5,155C 279.69,160.068 268.19,171.568 263,189.5C 257.723,214.509 260.723,238.509 272,261.5C 279.576,276.325 287.909,290.658 297,304.5C 312.92,333.517 316.253,363.85 307,395.5C 302.349,407.515 294.849,417.182 284.5,424.5C 282.5,424.5 281.5,425.5 281.5,427.5C 279.483,428.529 277.483,429.529 275.5,430.5C 272.759,430.707 270.426,431.707 268.5,433.5C 251.112,440.302 233.778,439.802 216.5,432C 212.42,429.971 208.754,427.471 205.5,424.5C 204.415,422.413 202.749,421.08 200.5,420.5C 181.734,402.444 175.901,380.777 183,355.5C 185.252,348.648 188.752,342.648 193.5,337.5C 197.5,334.167 201.167,330.5 204.5,326.5C 216.161,316.935 229.661,311.935 245,311.5C 251.252,312.341 257.419,313.174 263.5,314C 247.899,291.959 236.732,267.793 230,241.5C 222.173,209.755 226.84,180.088 244,152.5C 247.336,147.998 251.169,143.998 255.5,140.5C 257.749,139.92 259.415,138.587 260.5,136.5C 271.112,127.564 283.445,122.397 297.5,121C 326,118.114 351.333,125.614 373.5,143.5 Z M 263.5,350.5 C 265.833,353.5 268.5,356.167 271.5,358.5C 277.682,368.984 278.015,379.65 272.5,390.5C 270.413,391.585 269.08,393.251 268.5,395.5C 266.246,396.124 264.579,397.457 263.5,399.5C 261.181,399.992 259.181,400.992 257.5,402.5C 249.167,405.167 240.833,405.167 232.5,402.5C 231.035,401.263 229.368,400.263 227.5,399.5C 227.167,399.5 226.833,399.5 226.5,399.5C 223.833,396.167 220.833,393.167 217.5,390.5C 209.153,370.037 215.153,355.537 235.5,347C 245.305,344.422 254.638,345.588 263.5,350.5 Z"/></g>
<g><path style="opacity:0.514"  d="M 260.5,136.5 C 259.415,138.587 257.749,139.92 255.5,140.5C 256.585,138.413 258.251,137.08 260.5,136.5 Z"/></g>
<g><path style="opacity:0.412"  d="M 373.5,143.5 C 377.566,146.563 380.899,150.229 383.5,154.5C 379.434,151.437 376.101,147.771 373.5,143.5 Z"/></g>
<g><path style="opacity:0.514"  d="M 351.5,168.5 C 355.167,170.167 357.833,172.833 359.5,176.5C 356.5,174.167 353.833,171.5 351.5,168.5 Z"/></g>
<g><path style="opacity:0.514"  d="M 204.5,326.5 C 201.167,330.5 197.5,334.167 193.5,337.5C 196.167,332.833 199.833,329.167 204.5,326.5 Z"/></g>
<g><path style="opacity:0.506"  d="M 263.5,350.5 C 267.167,352.167 269.833,354.833 271.5,358.5C 268.5,356.167 265.833,353.5 263.5,350.5 Z"/></g>
<g><path style="opacity:0.514"  d="M 217.5,390.5 C 220.833,393.167 223.833,396.167 226.5,399.5C 222.5,397.5 219.5,394.5 217.5,390.5 Z"/></g>
<g><path style="opacity:0.514"  d="M 272.5,390.5 C 271.92,392.749 270.587,394.415 268.5,395.5C 269.08,393.251 270.413,391.585 272.5,390.5 Z"/></g>
<g><path style="opacity:0.514"  d="M 227.5,399.5 C 229.368,400.263 231.035,401.263 232.5,402.5C 229.966,402.741 228.3,401.741 227.5,399.5 Z"/></g>
<g><path style="opacity:0.514"  d="M 263.5,399.5 C 262.089,401.539 260.089,402.539 257.5,402.5C 259.181,400.992 261.181,399.992 263.5,399.5 Z"/></g>
<g><path style="opacity:0.514"  d="M 200.5,420.5 C 202.749,421.08 204.415,422.413 205.5,424.5C 203.251,423.92 201.585,422.587 200.5,420.5 Z"/></g>
<g><path style="opacity:0.325"  d="M 284.5,424.5 C 283.833,425.833 282.833,426.833 281.5,427.5C 281.5,425.5 282.5,424.5 284.5,424.5 Z"/></g>
<g><path style="opacity:0.514"  d="M 275.5,430.5 C 273.574,432.293 271.241,433.293 268.5,433.5C 270.426,431.707 272.759,430.707 275.5,430.5 Z"/></g>
<g><path style="opacity:0.514"  d="M 410.5,449.5 C 408.833,451.833 406.833,453.833 404.5,455.5C 405.5,452.5 407.5,450.5 410.5,449.5 Z"/></g>
<g><path style="opacity:0.412"  d="M 427.5,449.5 C 429.914,450.911 431.581,452.911 432.5,455.5C 430.086,454.089 428.419,452.089 427.5,449.5 Z"/></g>
<g><path style="opacity:0.514"  d="M 396.5,476.5 C 395.167,479.833 392.833,482.167 389.5,483.5C 391.5,480.833 393.833,478.5 396.5,476.5 Z"/></g>
<g><path style="opacity:0.506"  d="M 327.5,498.5 C 330.427,499.757 332.761,501.757 334.5,504.5C 331.573,503.243 329.239,501.243 327.5,498.5 Z"/></g>
</svg>