<svg xmlns="http://www.w3.org/2000/svg" xmlns:xlink="http://www.w3.org/1999/xlink" version="1.1" style="shape-rendering:geometricPrecision; text-rendering:geometricPrecision; image-rendering:optimizeQuality; fill-rule:evenodd; clip-rule:evenodd" viewBox="101 207.25 413.5 259.25">
<g><path style="opacity:0.996"  d="M 351.5,216.5 C 353.849,218.341 356.515,219.674 359.5,220.5C 365.478,222.821 370.811,226.155 375.5,230.5C 376.833,233.833 379.167,236.167 382.5,237.5C 383.167,237.5 383.5,237.833 383.5,238.5C 384.757,241.427 386.757,243.761 389.5,245.5C 401.259,259.242 408.092,275.242 410,293.5C 412.247,315.425 408.413,336.092 398.5,355.5C 395.71,359.416 393.71,363.749 392.5,368.5C 428.5,368.5 464.5,368.5 500.5,368.5C 500.833,368.5 501.167,368.5 501.5,368.5C 503.663,370.083 505.996,371.416 508.5,372.5C 509.5,372.833 510.167,373.5 510.5,374.5C 510.992,376.819 511.992,378.819 513.5,380.5C 514.833,383.167 514.833,385.833 513.5,388.5C 511.917,390.663 510.584,392.996 509.5,395.5C 507.156,398.342 504.156,400.175 500.5,401C 454.5,401.667 408.5,401.667 362.5,401C 350.588,397.99 345.588,390.49 347.5,378.5C 349.008,376.819 350.008,374.819 350.5,372.5C 362.737,356.018 371.237,337.685 376,317.5C 379.254,298.853 375.421,281.853 364.5,266.5C 361.5,261.5 357.5,257.5 352.5,254.5C 349.489,253.331 346.822,251.664 344.5,249.5C 343.089,247.461 341.089,246.461 338.5,246.5C 337.508,246.672 336.842,246.338 336.5,245.5C 335.22,244.069 333.553,243.402 331.5,243.5C 297.389,236.149 269.889,246.482 249,274.5C 235.18,295.212 232.846,317.212 242,340.5C 245.005,347.182 248.505,353.516 252.5,359.5C 252.427,361.027 253.094,362.027 254.5,362.5C 256.543,363.579 257.876,365.246 258.5,367.5C 259.08,369.749 260.413,371.415 262.5,372.5C 268.582,381.979 267.249,390.479 258.5,398C 256.283,399.275 253.949,400.275 251.5,401C 205.833,401.667 160.167,401.667 114.5,401C 101.399,395.965 97.8987,387.131 104,374.5C 106.754,371.044 110.254,369.044 114.5,368.5C 149.167,368.5 183.833,368.5 218.5,368.5C 218.737,367.209 218.404,366.209 217.5,365.5C 216.662,365.158 216.328,364.492 216.5,363.5C 215.674,360.515 214.341,357.849 212.5,355.5C 197.531,322.157 199.698,289.824 219,258.5C 221.614,254.91 224.448,251.576 227.5,248.5C 232.5,244.167 237.167,239.5 241.5,234.5C 269.502,209.593 301.835,201.759 338.5,211C 343.22,212.176 347.554,214.01 351.5,216.5 Z"/></g>
<g><path style="opacity:0.514"  d="M 351.5,216.5 C 354.754,216.794 357.421,218.127 359.5,220.5C 356.515,219.674 353.849,218.341 351.5,216.5 Z"/></g>
<g><path style="opacity:0.412"  d="M 375.5,230.5 C 378.167,232.5 380.5,234.833 382.5,237.5C 379.167,236.167 376.833,233.833 375.5,230.5 Z"/></g>
<g><path style="opacity:0.514"  d="M 383.5,238.5 C 386.243,240.239 388.243,242.573 389.5,245.5C 386.757,243.761 384.757,241.427 383.5,238.5 Z"/></g>
<g><path style="opacity:0.514"  d="M 241.5,234.5 C 237.167,239.5 232.5,244.167 227.5,248.5C 231.167,242.833 235.833,238.167 241.5,234.5 Z"/></g>
<g><path style="opacity:0.412"  d="M 331.5,243.5 C 333.553,243.402 335.22,244.069 336.5,245.5C 334.447,245.598 332.78,244.931 331.5,243.5 Z"/></g>
<g><path style="opacity:0.514"  d="M 338.5,246.5 C 341.089,246.461 343.089,247.461 344.5,249.5C 342.181,249.008 340.181,248.008 338.5,246.5 Z"/></g>
<g><path style="opacity:0.514"  d="M 352.5,254.5 C 357.5,257.5 361.5,261.5 364.5,266.5C 360.167,262.833 356.167,258.833 352.5,254.5 Z"/></g>
<g><path style="opacity:0.514"  d="M 212.5,355.5 C 214.341,357.849 215.674,360.515 216.5,363.5C 214.127,361.421 212.794,358.754 212.5,355.5 Z"/></g>
<g><path style="opacity:0.514"  d="M 252.5,359.5 C 253.906,359.973 254.573,360.973 254.5,362.5C 253.094,362.027 252.427,361.027 252.5,359.5 Z"/></g>
<g><path style="opacity:0.514"  d="M 217.5,365.5 C 218.404,366.209 218.737,367.209 218.5,368.5C 183.833,368.5 149.167,368.5 114.5,368.5C 149.012,368.165 183.345,367.165 217.5,365.5 Z"/></g>
<g><path style="opacity:0.514"  d="M 398.5,355.5 C 397.531,359.608 395.864,363.441 393.5,367C 429.336,367.167 465.002,367.667 500.5,368.5C 464.5,368.5 428.5,368.5 392.5,368.5C 393.71,363.749 395.71,359.416 398.5,355.5 Z"/></g>
<g><path style="opacity:0.514"  d="M 258.5,367.5 C 260.587,368.585 261.92,370.251 262.5,372.5C 260.413,371.415 259.08,369.749 258.5,367.5 Z"/></g>
<g><path style="opacity:0.506"  d="M 501.5,368.5 C 504.614,368.555 506.948,369.888 508.5,372.5C 505.996,371.416 503.663,370.083 501.5,368.5 Z"/></g>
<g><path style="opacity:0.514"  d="M 350.5,372.5 C 350.008,374.819 349.008,376.819 347.5,378.5C 347.461,375.911 348.461,373.911 350.5,372.5 Z"/></g>
<g><path style="opacity:0.506"  d="M 510.5,374.5 C 512.539,375.911 513.539,377.911 513.5,380.5C 511.992,378.819 510.992,376.819 510.5,374.5 Z"/></g>
<g><path style="opacity:0.412"  d="M 513.5,388.5 C 513.445,391.614 512.112,393.948 509.5,395.5C 510.584,392.996 511.917,390.663 513.5,388.5 Z"/></g>
<g><path style="opacity:0.985"  d="M 506.5,435.5 C 507.419,438.089 509.086,440.089 511.5,441.5C 516.906,453.098 513.573,461.265 501.5,466C 372.167,466.667 242.833,466.667 113.5,466C 109.475,465.127 106.475,462.961 104.5,459.5C 103.736,456.982 102.736,454.649 101.5,452.5C 100.414,448.513 101.08,444.846 103.5,441.5C 105.5,440.167 107.167,438.5 108.5,436.5C 109.347,435.034 110.68,434.2 112.5,434C 242.833,433.333 373.167,433.333 503.5,434C 504.527,434.513 505.527,435.013 506.5,435.5 Z"/></g>
<g><path style="opacity:0.506"  d="M 108.5,436.5 C 107.167,438.5 105.5,440.167 103.5,441.5C 104.167,438.833 105.833,437.167 108.5,436.5 Z"/></g>
<g><path style="opacity:0.412"  d="M 506.5,435.5 C 508.914,436.911 510.581,438.911 511.5,441.5C 509.086,440.089 507.419,438.089 506.5,435.5 Z"/></g>
<g><path style="opacity:0.514"  d="M 101.5,452.5 C 102.736,454.649 103.736,456.982 104.5,459.5C 102.166,457.824 101.166,455.491 101.5,452.5 Z"/></g>
</svg>