<svg xmlns="http://www.w3.org/2000/svg" xmlns:xlink="http://www.w3.org/1999/xlink" version="1.1" style="shape-rendering:geometricPrecision; text-rendering:geometricPrecision; image-rendering:optimizeQuality; fill-rule:evenodd; clip-rule:evenodd" viewBox="198.58 166.44 249.84 401.94">
<g><path style="opacity:0.996"  d="M 225.5,169.5 C 226.419,172.089 228.086,174.089 230.5,175.5C 231.08,177.749 232.413,179.415 234.5,180.5C 238.975,185.437 242.975,190.77 246.5,196.5C 246.427,198.027 247.094,199.027 248.5,199.5C 257.089,210.999 264.422,223.333 270.5,236.5C 271.042,239.912 272.375,242.912 274.5,245.5C 285.174,266.852 291.507,289.519 293.5,313.5C 293.5,315.833 293.5,318.167 293.5,320.5C 313.5,320.5 333.5,320.5 353.5,320.5C 353.5,318.167 353.5,315.833 353.5,313.5C 355.493,289.519 361.826,266.852 372.5,245.5C 374.293,243.574 375.293,241.241 375.5,238.5C 381.91,224.668 389.576,211.668 398.5,199.5C 399.906,199.027 400.573,198.027 400.5,196.5C 405.097,188.907 410.431,181.907 416.5,175.5C 418.833,173.833 420.833,171.833 422.5,169.5C 423.058,168.21 424.058,167.377 425.5,167C 440.784,164.622 448.284,171.122 448,186.5C 446.253,191 443.753,195 440.5,198.5C 438.5,198.5 437.5,199.5 437.5,201.5C 437.5,201.833 437.5,202.167 437.5,202.5C 435.5,202.5 434.5,203.5 434.5,205.5C 425.402,218.284 417.068,231.617 409.5,245.5C 407.952,245.821 407.285,246.821 407.5,248.5C 406.341,252.151 404.674,255.485 402.5,258.5C 401.069,259.78 400.402,261.447 400.5,263.5C 393.802,280.626 389.135,298.293 386.5,316.5C 385.566,317.568 385.232,318.901 385.5,320.5C 401.833,320.5 418.167,320.5 434.5,320.5C 434.833,320.5 435.167,320.5 435.5,320.5C 437.181,322.008 439.181,323.008 441.5,323.5C 448.843,329.516 450.343,336.849 446,345.5C 444.629,347.041 443.129,348.375 441.5,349.5C 439.181,349.992 437.181,350.992 435.5,352.5C 419.244,353.484 402.911,353.818 386.5,353.5C 388.414,368.822 391.747,383.822 396.5,398.5C 396.402,400.553 397.069,402.22 398.5,403.5C 399.404,404.209 399.737,405.209 399.5,406.5C 399.402,408.553 400.069,410.22 401.5,411.5C 403.341,413.849 404.674,416.515 405.5,419.5C 405.402,421.553 406.069,423.22 407.5,424.5C 414.733,437.966 422.733,450.966 431.5,463.5C 431.427,465.027 432.094,466.027 433.5,466.5C 435.262,467.262 436.262,468.596 436.5,470.5C 436.738,472.404 437.738,473.738 439.5,474.5C 448.721,481.996 450.554,490.996 445,501.5C 437.558,508.608 429.725,509.275 421.5,503.5C 421.027,502.094 420.027,501.427 418.5,501.5C 405.572,485.57 394.238,468.57 384.5,450.5C 384.446,448.368 383.446,447.035 381.5,446.5C 366.343,419.028 357.009,389.694 353.5,358.5C 353.5,356.5 353.5,354.5 353.5,352.5C 333.66,352.17 313.993,352.503 294.5,353.5C 291.066,386.467 281.399,417.467 265.5,446.5C 263.554,447.035 262.554,448.368 262.5,450.5C 262.443,451.609 262.11,452.609 261.5,453.5C 259.554,454.035 258.554,455.368 258.5,457.5C 252.039,469.961 244.372,481.628 235.5,492.5C 233.5,492.5 232.5,493.5 232.5,495.5C 226.634,506.899 217.967,509.899 206.5,504.5C 205.415,502.413 203.749,501.08 201.5,500.5C 198.324,495.429 197.824,490.096 200,484.5C 214.433,465.291 227.6,445.291 239.5,424.5C 240.931,423.22 241.598,421.553 241.5,419.5C 251.474,398.575 257.807,376.575 260.5,353.5C 244.089,353.818 227.756,353.484 211.5,352.5C 209.819,350.992 207.819,349.992 205.5,349.5C 198.157,343.484 196.657,336.151 201,327.5C 203.745,323.233 207.578,320.899 212.5,320.5C 228.833,320.5 245.167,320.5 261.5,320.5C 261.768,318.901 261.434,317.568 260.5,316.5C 257.865,298.293 253.198,280.626 246.5,263.5C 246.293,260.759 245.293,258.426 243.5,256.5C 241.659,254.151 240.326,251.485 239.5,248.5C 239.715,246.821 239.048,245.821 237.5,245.5C 236.89,244.609 236.557,243.609 236.5,242.5C 236.446,240.368 235.446,239.035 233.5,238.5C 225.159,223.812 215.826,209.812 205.5,196.5C 205.167,194.167 203.833,192.833 201.5,192.5C 198.681,188.099 198.014,183.433 199.5,178.5C 200.674,177.486 201.34,176.153 201.5,174.5C 202.989,170.847 205.656,168.347 209.5,167C 215.282,165.751 220.615,166.585 225.5,169.5 Z"/></g>
<g><path style="opacity:0.514"  d="M 225.5,169.5 C 227.914,170.911 229.581,172.911 230.5,175.5C 228.086,174.089 226.419,172.089 225.5,169.5 Z"/></g>
<g><path style="opacity:0.506"  d="M 422.5,169.5 C 420.833,171.833 418.833,173.833 416.5,175.5C 417.5,172.5 419.5,170.5 422.5,169.5 Z"/></g>
<g><path style="opacity:0.514"  d="M 230.5,175.5 C 232.587,176.585 233.92,178.251 234.5,180.5C 232.413,179.415 231.08,177.749 230.5,175.5 Z"/></g>
<g><path style="opacity:0.412"  d="M 201.5,174.5 C 201.34,176.153 200.674,177.486 199.5,178.5C 199.229,176.62 199.896,175.287 201.5,174.5 Z"/></g>
<g><path style="opacity:0.514"  d="M 201.5,192.5 C 203.833,192.833 205.167,194.167 205.5,196.5C 203.833,195.5 202.5,194.167 201.5,192.5 Z"/></g>
<g><path style="opacity:0.514"  d="M 246.5,196.5 C 247.906,196.973 248.573,197.973 248.5,199.5C 247.094,199.027 246.427,198.027 246.5,196.5 Z"/></g>
<g><path style="opacity:0.514"  d="M 400.5,196.5 C 400.573,198.027 399.906,199.027 398.5,199.5C 398.427,197.973 399.094,196.973 400.5,196.5 Z"/></g>
<g><path style="opacity:0.306"  d="M 440.5,198.5 C 439.833,199.833 438.833,200.833 437.5,201.5C 437.5,199.5 438.5,198.5 440.5,198.5 Z"/></g>
<g><path style="opacity:0.325"  d="M 437.5,202.5 C 436.833,203.833 435.833,204.833 434.5,205.5C 434.5,203.5 435.5,202.5 437.5,202.5 Z"/></g>
<g><path style="opacity:0.514"  d="M 233.5,238.5 C 235.446,239.035 236.446,240.368 236.5,242.5C 235.026,241.564 234.026,240.23 233.5,238.5 Z"/></g>
<g><path style="opacity:0.514"  d="M 375.5,238.5 C 375.293,241.241 374.293,243.574 372.5,245.5C 372.707,242.759 373.707,240.426 375.5,238.5 Z"/></g>
<g><path style="opacity:0.506"  d="M 270.5,236.5 C 272.625,239.088 273.958,242.088 274.5,245.5C 272.375,242.912 271.042,239.912 270.5,236.5 Z"/></g>
<g><path style="opacity:0.514"  d="M 237.5,245.5 C 239.048,245.821 239.715,246.821 239.5,248.5C 238.599,247.71 237.932,246.71 237.5,245.5 Z"/></g>
<g><path style="opacity:0.514"  d="M 409.5,245.5 C 409.068,246.71 408.401,247.71 407.5,248.5C 407.285,246.821 407.952,245.821 409.5,245.5 Z"/></g>
<g><path style="opacity:0.514"  d="M 243.5,256.5 C 245.293,258.426 246.293,260.759 246.5,263.5C 244.707,261.574 243.707,259.241 243.5,256.5 Z"/></g>
<g><path style="opacity:0.514"  d="M 402.5,258.5 C 402.598,260.553 401.931,262.22 400.5,263.5C 400.402,261.447 401.069,259.78 402.5,258.5 Z"/></g>
<g><path style="opacity:0.514"  d="M 293.5,313.5 C 294.461,315.265 294.795,317.265 294.5,319.5C 313.833,319.5 333.167,319.5 352.5,319.5C 352.205,317.265 352.539,315.265 353.5,313.5C 353.5,315.833 353.5,318.167 353.5,320.5C 333.5,320.5 313.5,320.5 293.5,320.5C 293.5,318.167 293.5,315.833 293.5,313.5 Z"/></g>
<g><path style="opacity:0.514"  d="M 260.5,316.5 C 261.434,317.568 261.768,318.901 261.5,320.5C 245.167,320.5 228.833,320.5 212.5,320.5C 228.325,319.504 244.325,319.17 260.5,319.5C 260.5,318.5 260.5,317.5 260.5,316.5 Z"/></g>
<g><path style="opacity:0.514"  d="M 386.5,316.5 C 386.5,317.5 386.5,318.5 386.5,319.5C 402.675,319.17 418.675,319.504 434.5,320.5C 418.167,320.5 401.833,320.5 385.5,320.5C 385.232,318.901 385.566,317.568 386.5,316.5 Z"/></g>
<g><path style="opacity:0.514"  d="M 435.5,320.5 C 438.089,320.461 440.089,321.461 441.5,323.5C 439.181,323.008 437.181,322.008 435.5,320.5 Z"/></g>
<g><path style="opacity:0.514"  d="M 205.5,349.5 C 207.819,349.992 209.819,350.992 211.5,352.5C 208.911,352.539 206.911,351.539 205.5,349.5 Z"/></g>
<g><path style="opacity:0.514"  d="M 441.5,349.5 C 440.089,351.539 438.089,352.539 435.5,352.5C 437.181,350.992 439.181,349.992 441.5,349.5 Z"/></g>
<g><path style="opacity:0.153"  d="M 294.5,353.5 C 313.993,352.503 333.66,352.17 353.5,352.5C 353.5,354.5 353.5,356.5 353.5,358.5C 352.549,357.081 352.216,355.415 352.5,353.5C 333.167,353.5 313.833,353.5 294.5,353.5 Z"/></g>
<g><path style="opacity:0.412"  d="M 396.5,398.5 C 397.931,399.78 398.598,401.447 398.5,403.5C 397.069,402.22 396.402,400.553 396.5,398.5 Z"/></g>
<g><path style="opacity:0.514"  d="M 399.5,406.5 C 400.931,407.78 401.598,409.447 401.5,411.5C 400.069,410.22 399.402,408.553 399.5,406.5 Z"/></g>
<g><path style="opacity:0.514"  d="M 241.5,419.5 C 241.598,421.553 240.931,423.22 239.5,424.5C 239.402,422.447 240.069,420.78 241.5,419.5 Z"/></g>
<g><path style="opacity:0.514"  d="M 405.5,419.5 C 406.931,420.78 407.598,422.447 407.5,424.5C 406.069,423.22 405.402,421.553 405.5,419.5 Z"/></g>
<g><path style="opacity:0.514"  d="M 381.5,446.5 C 383.446,447.035 384.446,448.368 384.5,450.5C 383.026,449.564 382.026,448.23 381.5,446.5 Z"/></g>
<g><path style="opacity:0.514"  d="M 265.5,446.5 C 264.974,448.23 263.974,449.564 262.5,450.5C 262.554,448.368 263.554,447.035 265.5,446.5 Z"/></g>
<g><path style="opacity:0.514"  d="M 261.5,453.5 C 260.974,455.23 259.974,456.564 258.5,457.5C 258.554,455.368 259.554,454.035 261.5,453.5 Z"/></g>
<g><path style="opacity:0.514"  d="M 431.5,463.5 C 432.906,463.973 433.573,464.973 433.5,466.5C 432.094,466.027 431.427,465.027 431.5,463.5 Z"/></g>
<g><path style="opacity:0.514"  d="M 436.5,470.5 C 438.262,471.262 439.262,472.596 439.5,474.5C 437.738,473.738 436.738,472.404 436.5,470.5 Z"/></g>
<g><path style="opacity:0.412"  d="M 235.5,492.5 C 234.833,493.833 233.833,494.833 232.5,495.5C 232.5,493.5 233.5,492.5 235.5,492.5 Z"/></g>
<g><path style="opacity:0.506"  d="M 201.5,500.5 C 203.749,501.08 205.415,502.413 206.5,504.5C 204.251,503.92 202.585,502.587 201.5,500.5 Z"/></g>
<g><path style="opacity:0.514"  d="M 418.5,501.5 C 420.027,501.427 421.027,502.094 421.5,503.5C 419.973,503.573 418.973,502.906 418.5,501.5 Z"/></g>
<g><path style="opacity:0.161"  d="M 245.5,564.5 C 248.85,564.335 252.183,564.502 255.5,565C 257.116,565.615 258.449,566.615 259.5,568C 254.362,568.82 249.362,568.32 244.5,566.5C 244.863,565.817 245.196,565.15 245.5,564.5 Z"/></g>
</svg>