<svg xmlns="http://www.w3.org/2000/svg" xmlns:xlink="http://www.w3.org/1999/xlink" version="1.1" style="shape-rendering:geometricPrecision; text-rendering:geometricPrecision; image-rendering:optimizeQuality; fill-rule:evenodd; clip-rule:evenodd" viewBox="146.53 178.48 312.97 315.94">
<g><path style="opacity:0.998"  d="M 445.5,179.5 C 446.93,180.537 448.597,181.204 450.5,181.5C 455.224,183.576 458.058,187.242 459,192.5C 459.667,238.5 459.667,284.5 459,330.5C 458.621,333.03 457.787,335.363 456.5,337.5C 453.833,338.167 452.167,339.833 451.5,342.5C 445.097,346.655 438.764,346.488 432.5,342C 430.536,340.549 429.203,338.716 428.5,336.5C 428.204,334.597 427.537,332.93 426.5,331.5C 426.833,299.826 426.5,268.16 425.5,236.5C 424.893,236.624 424.56,236.957 424.5,237.5C 424.5,238.167 424.167,238.5 423.5,238.5C 421.5,238.5 420.5,239.5 420.5,241.5C 419.167,243.5 417.5,245.167 415.5,246.5C 413.5,246.5 412.5,247.5 412.5,249.5C 411.833,250.833 410.833,251.833 409.5,252.5C 408.761,252.369 408.094,252.536 407.5,253C 400.572,259.423 394.238,266.256 388.5,273.5C 371.53,292.137 353.864,310.137 335.5,327.5C 334.25,327.423 333.417,326.756 333,325.5C 331.883,326.949 331.216,328.616 331,330.5C 324.238,336.756 318.071,343.423 312.5,350.5C 307.536,355.965 302.37,361.298 297,366.5C 296.333,367.167 296.333,367.833 297,368.5C 298.376,369.705 299.542,371.038 300.5,372.5C 313.781,387.449 327.781,401.782 342.5,415.5C 343.458,415.953 344.292,416.619 345,417.5C 349.622,428.774 346.455,436.941 335.5,442C 331.833,442.667 328.167,442.667 324.5,442C 323.584,441.722 322.918,441.222 322.5,440.5C 322.027,439.094 321.027,438.427 319.5,438.5C 318.167,437.833 317.167,436.833 316.5,435.5C 303.422,420.919 289.755,406.752 275.5,393C 274.906,392.536 274.239,392.369 273.5,392.5C 267.556,397.106 261.89,402.106 256.5,407.5C 255.761,407.369 255.094,407.536 254.5,408C 247.904,414.09 241.904,420.59 236.5,427.5C 218.53,447.137 199.864,466.137 180.5,484.5C 177.167,485.833 174.833,488.167 173.5,491.5C 167.622,495.023 161.622,495.357 155.5,492.5C 154.089,490.086 152.089,488.419 149.5,487.5C 145.228,480.799 145.561,474.466 150.5,468.5C 161.887,458.114 172.554,447.114 182.5,435.5C 188.5,428.833 194.833,422.5 201.5,416.5C 217.465,401.035 233.299,385.368 249,369.5C 249.667,368.167 249.667,366.833 249,365.5C 244.631,360.963 240.131,356.63 235.5,352.5C 225.114,341.113 214.114,330.446 202.5,320.5C 195.845,313.909 194.511,306.576 198.5,298.5C 200.833,296.833 202.833,294.833 204.5,292.5C 210.378,288.692 216.378,288.859 222.5,293C 227.037,297.369 231.37,301.869 235.5,306.5C 246.577,319.08 258.244,331.247 270.5,343C 271.094,343.464 271.761,343.631 272.5,343.5C 274.5,341.833 276.5,340.167 278.5,338.5C 298.218,319.783 317.218,300.449 335.5,280.5C 341.5,273.833 347.833,267.5 354.5,261.5C 367.5,249.167 380.167,236.5 392.5,223.5C 396.994,220.35 400.328,216.35 402.5,211.5C 369.833,211.5 337.167,211.5 304.5,211.5C 303.07,210.463 301.403,209.796 299.5,209.5C 296.5,208.5 294.5,206.5 293.5,203.5C 293.204,201.597 292.537,199.93 291.5,198.5C 290.114,188.488 294.447,181.988 304.5,179C 351.668,178.168 398.668,178.335 445.5,179.5 Z"/></g>
<g><path style="opacity:0.514"  d="M 445.5,179.5 C 447.698,179.12 449.365,179.787 450.5,181.5C 448.597,181.204 446.93,180.537 445.5,179.5 Z"/></g>
<g><path style="opacity:0.514"  d="M 291.5,198.5 C 292.537,199.93 293.204,201.597 293.5,203.5C 291.787,202.365 291.12,200.698 291.5,198.5 Z"/></g>
<g><path style="opacity:0.4"  d="M 299.5,209.5 C 301.403,209.796 303.07,210.463 304.5,211.5C 302.302,211.88 300.635,211.213 299.5,209.5 Z"/></g>
<g><path style="opacity:0.514"  d="M 304.5,211.5 C 337.167,211.5 369.833,211.5 402.5,211.5C 400.328,216.35 396.994,220.35 392.5,223.5C 392.5,223.167 392.5,222.833 392.5,222.5C 395.296,219.203 398.296,216.036 401.5,213C 368.997,212.832 336.664,212.332 304.5,211.5 Z"/></g>
<g><path style="opacity:0.514"  d="M 424.5,237.5 C 424.56,236.957 424.893,236.624 425.5,236.5C 426.5,268.16 426.833,299.826 426.5,331.5C 425.833,300.167 425.167,268.833 424.5,237.5 Z"/></g>
<g><path style="opacity:0.239"  d="M 423.5,238.5 C 422.833,239.833 421.833,240.833 420.5,241.5C 420.5,239.5 421.5,238.5 423.5,238.5 Z"/></g>
<g><path style="opacity:0.239"  d="M 415.5,246.5 C 414.833,247.833 413.833,248.833 412.5,249.5C 412.5,247.5 413.5,246.5 415.5,246.5 Z"/></g>
<g><path style="opacity:0.514"  d="M 392.5,222.5 C 392.5,222.833 392.5,223.167 392.5,223.5C 380.167,236.5 367.5,249.167 354.5,261.5C 366.447,247.885 379.114,234.885 392.5,222.5 Z"/></g>
<g><path style="opacity:0.412"  d="M 409.5,252.5 C 402.833,259.833 395.833,266.833 388.5,273.5C 394.238,266.256 400.572,259.423 407.5,253C 408.094,252.536 408.761,252.369 409.5,252.5 Z"/></g>
<g><path style="opacity:0.514"  d="M 204.5,292.5 C 202.833,294.833 200.833,296.833 198.5,298.5C 199.5,295.5 201.5,293.5 204.5,292.5 Z"/></g>
<g><path style="opacity:0.514"  d="M 335.5,280.5 C 317.218,300.449 298.218,319.783 278.5,338.5C 296.782,318.551 315.782,299.217 335.5,280.5 Z"/></g>
<g><path style="opacity:0.506"  d="M 235.5,306.5 C 248.167,318.5 260.5,330.833 272.5,343.5C 271.761,343.631 271.094,343.464 270.5,343C 258.244,331.247 246.577,319.08 235.5,306.5 Z"/></g>
<g><path style="opacity:0.514"  d="M 202.5,320.5 C 214.114,330.446 225.114,341.113 235.5,352.5C 235.5,352.833 235.5,353.167 235.5,353.5C 224.167,342.833 213.167,331.833 202.5,320.5 Z"/></g>
<g><path style="opacity:0.506"  d="M 426.5,331.5 C 427.537,332.93 428.204,334.597 428.5,336.5C 426.787,335.365 426.12,333.698 426.5,331.5 Z"/></g>
<g><path style="opacity:0.412"  d="M 456.5,337.5 C 455.167,339.5 453.5,341.167 451.5,342.5C 452.167,339.833 453.833,338.167 456.5,337.5 Z"/></g>
<g><path style="opacity:0.412"  d="M 335.5,327.5 C 328.167,335.5 320.5,343.167 312.5,350.5C 318.071,343.423 324.238,336.756 331,330.5C 331.216,328.616 331.883,326.949 333,325.5C 333.417,326.756 334.25,327.423 335.5,327.5 Z"/></g>
<g><path style="opacity:0.514"  d="M 300.5,372.5 C 315.219,386.218 329.219,400.551 342.5,415.5C 327.781,401.782 313.781,387.449 300.5,372.5 Z"/></g>
<g><path style="opacity:0.514"  d="M 235.5,352.5 C 240.131,356.63 244.631,360.963 249,365.5C 249.667,366.833 249.667,368.167 249,369.5C 233.299,385.368 217.465,401.035 201.5,416.5C 216.412,400.085 231.912,384.085 248,368.5C 248.667,367.833 248.667,367.167 248,366.5C 243.63,362.298 239.463,357.964 235.5,353.5C 235.5,353.167 235.5,352.833 235.5,352.5 Z"/></g>
<g><path style="opacity:0.412"  d="M 256.5,407.5 C 250.167,414.5 243.5,421.167 236.5,427.5C 241.904,420.59 247.904,414.09 254.5,408C 255.094,407.536 255.761,407.369 256.5,407.5 Z"/></g>
<g><path style="opacity:0.412"  d="M 273.5,392.5 C 274.239,392.369 274.906,392.536 275.5,393C 289.755,406.752 303.422,420.919 316.5,435.5C 301.833,421.5 287.5,407.167 273.5,392.5 Z"/></g>
<g><path style="opacity:0.506"  d="M 319.5,438.5 C 321.027,438.427 322.027,439.094 322.5,440.5C 320.973,440.573 319.973,439.906 319.5,438.5 Z"/></g>
<g><path style="opacity:0.514"  d="M 182.5,435.5 C 172.554,447.114 161.887,458.114 150.5,468.5C 160.446,456.886 171.113,445.886 182.5,435.5 Z"/></g>
<g><path style="opacity:0.412"  d="M 180.5,484.5 C 178.5,487.167 176.167,489.5 173.5,491.5C 174.833,488.167 177.167,485.833 180.5,484.5 Z"/></g>
<g><path style="opacity:0.412"  d="M 149.5,487.5 C 152.089,488.419 154.089,490.086 155.5,492.5C 152.911,491.581 150.911,489.914 149.5,487.5 Z"/></g>
</svg>