<svg xmlns="http://www.w3.org/2000/svg" xmlns:xlink="http://www.w3.org/1999/xlink" version="1.1" style="shape-rendering:geometricPrecision; text-rendering:geometricPrecision; image-rendering:optimizeQuality; fill-rule:evenodd; clip-rule:evenodd" viewBox="76.71 152.5 452.35 320.99">
<g><path style="opacity:0.995"  d="M 160.5,163.5 C 162.43,167.1 165.097,170.1 168.5,172.5C 174.956,179.737 179.623,188.07 182.5,197.5C 182.402,199.553 183.069,201.22 184.5,202.5C 189.537,216.323 192.871,230.656 194.5,245.5C 195.301,247.793 195.968,247.46 196.5,244.5C 198.485,232.202 202.152,220.535 207.5,209.5C 208.931,208.22 209.598,206.553 209.5,204.5C 212.914,195.992 217.581,188.325 223.5,181.5C 225.914,180.089 227.581,178.089 228.5,175.5C 229.167,174.167 230.167,173.167 231.5,172.5C 234.089,171.581 236.089,169.914 237.5,167.5C 256.865,152.472 277.531,150.639 299.5,162C 310.197,168.86 318.197,178.027 323.5,189.5C 323.402,191.553 324.069,193.22 325.5,194.5C 327.266,198.285 328.766,202.285 330,206.5C 333.911,198.449 338.744,191.115 344.5,184.5C 347.573,182.431 349.906,179.764 351.5,176.5C 351.5,175.833 351.833,175.5 352.5,175.5C 355.089,174.581 357.089,172.914 358.5,170.5C 360.629,168.05 363.296,166.383 366.5,165.5C 368.819,165.008 370.819,164.008 372.5,162.5C 397.403,153.739 418.57,159.406 436,179.5C 439.87,183.905 442.703,188.905 444.5,194.5C 444.402,196.553 445.069,198.22 446.5,199.5C 451.775,213.764 452.775,228.431 449.5,243.5C 448.549,244.919 448.216,246.585 448.5,248.5C 450.933,248.727 452.599,247.727 453.5,245.5C 465.566,236.647 477.9,236.314 490.5,244.5C 492.094,247.764 494.427,250.431 497.5,252.5C 502.493,259.286 505.659,266.953 507,275.5C 510.206,307.93 504.873,338.93 491,368.5C 484.364,383.109 476.697,397.109 468,410.5C 467.333,411.833 467.333,413.167 468,414.5C 470.385,417.379 472.552,420.379 474.5,423.5C 475.833,426.833 478.167,429.167 481.5,430.5C 491.835,438.666 503.501,441.999 516.5,440.5C 518.181,442.008 520.181,443.008 522.5,443.5C 523.833,444.167 524.833,445.167 525.5,446.5C 525.992,448.819 526.992,450.819 528.5,452.5C 530.402,461.14 527.402,467.64 519.5,472C 506.33,474.814 493.663,473.647 481.5,468.5C 479.819,466.992 477.819,465.992 475.5,465.5C 469.631,463.404 464.631,460.071 460.5,455.5C 457.437,451.434 453.771,448.101 449.5,445.5C 447.5,443.329 445.666,440.996 444,438.5C 442.887,439.305 441.721,439.972 440.5,440.5C 438.973,440.427 437.973,441.094 437.5,442.5C 428.992,449.928 419.326,455.595 408.5,459.5C 406.447,459.402 404.78,460.069 403.5,461.5C 385.802,469.607 367.135,473.44 347.5,473C 336.311,467.332 333.478,458.832 339,447.5C 341.264,444.567 344.098,442.4 347.5,441C 373.91,438.921 397.91,430.421 419.5,415.5C 421.749,414.92 423.415,413.587 424.5,411.5C 425.29,410.206 426.29,409.039 427.5,408C 418.641,386.043 413.474,363.21 412,339.5C 410.334,315.486 410.667,291.486 413,267.5C 414.689,253.681 416.189,239.847 417.5,226C 417.914,217.487 415.914,209.654 411.5,202.5C 409.833,198.833 407.167,196.167 403.5,194.5C 394.682,190.116 386.348,190.949 378.5,197C 369.732,204.729 363.065,213.896 358.5,224.5C 357.069,225.78 356.402,227.447 356.5,229.5C 352.558,241.599 349.392,253.933 347,266.5C 339.128,310.859 331.128,355.193 323,399.5C 318.412,408.545 311.245,411.711 301.5,409C 293.349,405.536 289.683,399.37 290.5,390.5C 293.499,331.853 295.666,273.186 297,214.5C 295.841,209.185 294.008,204.185 291.5,199.5C 291.5,197.5 290.5,196.5 288.5,196.5C 282.809,189.711 275.476,187.044 266.5,188.5C 263.966,188.259 262.3,189.259 261.5,191.5C 253.735,196.598 247.735,203.264 243.5,211.5C 241.554,212.035 240.554,213.368 240.5,215.5C 235.237,228.459 231.07,241.792 228,255.5C 219.774,301.855 211.441,348.189 203,394.5C 198.557,405.322 190.724,408.822 179.5,405C 178.944,404.617 178.611,404.117 178.5,403.5C 177.089,401.086 175.089,399.419 172.5,398.5C 170.921,393.68 170.088,388.68 170,383.5C 169.229,343.072 166.895,302.739 163,262.5C 161.061,242.97 156.895,223.97 150.5,205.5C 150.416,202.318 149.083,199.985 146.5,198.5C 145.4,197.395 144.733,196.062 144.5,194.5C 143.5,191.5 141.5,189.5 138.5,188.5C 131.375,184.889 124.041,184.555 116.5,187.5C 114.447,187.402 112.78,188.069 111.5,189.5C 107.022,192.24 102.356,194.74 97.5,197C 92.1009,198.255 87.4342,197.089 83.5,193.5C 83.0269,192.094 82.0269,191.427 80.5,191.5C 76.8127,187.015 75.8127,182.015 77.5,176.5C 78.6737,175.486 79.3404,174.153 79.5,172.5C 80.9274,169.236 83.2608,166.736 86.5,165C 102.471,155.007 119.805,151.007 138.5,153C 146.793,154.648 154.127,158.148 160.5,163.5 Z M 463.5,347.5 C 462.069,348.78 461.402,350.447 461.5,352.5C 458.466,358.898 455.132,365.232 451.5,371.5C 450.359,368.938 449.526,366.272 449,363.5C 447.048,351.72 445.548,339.887 444.5,328C 446.873,319.714 449.54,311.547 452.5,303.5C 453.931,302.22 454.598,300.553 454.5,298.5C 458.958,289.53 464.458,281.196 471,273.5C 472.867,275.808 473.867,278.475 474,281.5C 475.476,304.289 471.976,326.289 463.5,347.5 Z"/></g>
<g><path style="opacity:0.514"  d="M 372.5,162.5 C 370.819,164.008 368.819,165.008 366.5,165.5C 367.911,163.461 369.911,162.461 372.5,162.5 Z"/></g>
<g><path style="opacity:0.412"  d="M 160.5,163.5 C 163.903,165.9 166.57,168.9 168.5,172.5C 165.097,170.1 162.43,167.1 160.5,163.5 Z"/></g>
<g><path style="opacity:0.506"  d="M 237.5,167.5 C 236.089,169.914 234.089,171.581 231.5,172.5C 232.911,170.086 234.911,168.419 237.5,167.5 Z"/></g>
<g><path style="opacity:0.514"  d="M 358.5,170.5 C 357.089,172.914 355.089,174.581 352.5,175.5C 353.911,173.086 355.911,171.419 358.5,170.5 Z"/></g>
<g><path style="opacity:0.412"  d="M 79.5,172.5 C 79.3404,174.153 78.6737,175.486 77.5,176.5C 77.2291,174.62 77.8958,173.287 79.5,172.5 Z"/></g>
<g><path style="opacity:0.514"  d="M 228.5,175.5 C 227.581,178.089 225.914,180.089 223.5,181.5C 224.419,178.911 226.086,176.911 228.5,175.5 Z"/></g>
<g><path style="opacity:0.514"  d="M 351.5,176.5 C 349.906,179.764 347.573,182.431 344.5,184.5C 346.094,181.236 348.427,178.569 351.5,176.5 Z"/></g>
<g><path style="opacity:0.412"  d="M 116.5,187.5 C 115.22,188.931 113.553,189.598 111.5,189.5C 112.78,188.069 114.447,187.402 116.5,187.5 Z"/></g>
<g><path style="opacity:0.514"  d="M 138.5,188.5 C 141.5,189.5 143.5,191.5 144.5,194.5C 142.167,192.833 140.167,190.833 138.5,188.5 Z"/></g>
<g><path style="opacity:0.514"  d="M 266.5,188.5 C 265.035,189.737 263.368,190.737 261.5,191.5C 262.3,189.259 263.966,188.259 266.5,188.5 Z"/></g>
<g><path style="opacity:0.514"  d="M 323.5,189.5 C 324.931,190.78 325.598,192.447 325.5,194.5C 324.069,193.22 323.402,191.553 323.5,189.5 Z"/></g>
<g><path style="opacity:0.514"  d="M 80.5,191.5 C 82.0269,191.427 83.0269,192.094 83.5,193.5C 81.9731,193.573 80.9731,192.906 80.5,191.5 Z"/></g>
<g><path style="opacity:0.514"  d="M 403.5,194.5 C 407.167,196.167 409.833,198.833 411.5,202.5C 408.5,200.167 405.833,197.5 403.5,194.5 Z"/></g>
<g><path style="opacity:0.412"  d="M 444.5,194.5 C 445.931,195.78 446.598,197.447 446.5,199.5C 445.069,198.22 444.402,196.553 444.5,194.5 Z"/></g>
<g><path style="opacity:0.412"  d="M 288.5,196.5 C 290.5,196.5 291.5,197.5 291.5,199.5C 290.167,198.833 289.167,197.833 288.5,196.5 Z"/></g>
<g><path style="opacity:0.4"  d="M 182.5,197.5 C 183.931,198.78 184.598,200.447 184.5,202.5C 183.069,201.22 182.402,199.553 182.5,197.5 Z"/></g>
<g><path style="opacity:0.514"  d="M 146.5,198.5 C 149.083,199.985 150.416,202.318 150.5,205.5C 148.929,203.365 147.596,201.032 146.5,198.5 Z"/></g>
<g><path style="opacity:0.514"  d="M 209.5,204.5 C 209.598,206.553 208.931,208.22 207.5,209.5C 207.402,207.447 208.069,205.78 209.5,204.5 Z"/></g>
<g><path style="opacity:0.514"  d="M 243.5,211.5 C 242.974,213.23 241.974,214.564 240.5,215.5C 240.554,213.368 241.554,212.035 243.5,211.5 Z"/></g>
<g><path style="opacity:0.514"  d="M 358.5,224.5 C 358.598,226.553 357.931,228.22 356.5,229.5C 356.402,227.447 357.069,225.78 358.5,224.5 Z"/></g>
<g><path style="opacity:1"  d="M 196.5,244.5 C 195.968,247.46 195.301,247.793 194.5,245.5C 195.167,245.167 195.833,244.833 196.5,244.5 Z"/></g>
<g><path style="opacity:0.306"  d="M 449.5,243.5 C 449.343,244.873 449.51,246.207 450,247.5C 450.816,246.177 451.983,245.511 453.5,245.5C 452.599,247.727 450.933,248.727 448.5,248.5C 448.216,246.585 448.549,244.919 449.5,243.5 Z"/></g>
<g><path style="opacity:0.412"  d="M 490.5,244.5 C 493.573,246.569 495.906,249.236 497.5,252.5C 494.427,250.431 492.094,247.764 490.5,244.5 Z"/></g>
<g><path style="opacity:0.514"  d="M 454.5,298.5 C 454.598,300.553 453.931,302.22 452.5,303.5C 452.402,301.447 453.069,299.78 454.5,298.5 Z"/></g>
<g><path style="opacity:0.412"  d="M 463.5,347.5 C 463.598,349.553 462.931,351.22 461.5,352.5C 461.402,350.447 462.069,348.78 463.5,347.5 Z"/></g>
<g><path style="opacity:0.412"  d="M 172.5,398.5 C 175.089,399.419 177.089,401.086 178.5,403.5C 175.911,402.581 173.911,400.914 172.5,398.5 Z"/></g>
<g><path style="opacity:0.514"  d="M 424.5,411.5 C 423.415,413.587 421.749,414.92 419.5,415.5C 420.585,413.413 422.251,412.08 424.5,411.5 Z"/></g>
<g><path style="opacity:0.514"  d="M 474.5,423.5 C 477.167,425.5 479.5,427.833 481.5,430.5C 478.167,429.167 475.833,426.833 474.5,423.5 Z"/></g>
<g><path style="opacity:0.231"  d="M 440.5,440.5 C 440.027,441.906 439.027,442.573 437.5,442.5C 437.973,441.094 438.973,440.427 440.5,440.5 Z"/></g>
<g><path style="opacity:0.514"  d="M 516.5,440.5 C 519.089,440.461 521.089,441.461 522.5,443.5C 520.181,443.008 518.181,442.008 516.5,440.5 Z"/></g>
<g><path style="opacity:0.514"  d="M 449.5,445.5 C 453.771,448.101 457.437,451.434 460.5,455.5C 456.229,452.899 452.563,449.566 449.5,445.5 Z"/></g>
<g><path style="opacity:0.514"  d="M 525.5,446.5 C 527.539,447.911 528.539,449.911 528.5,452.5C 526.992,450.819 525.992,448.819 525.5,446.5 Z"/></g>
<g><path style="opacity:0.514"  d="M 408.5,459.5 C 407.22,460.931 405.553,461.598 403.5,461.5C 404.78,460.069 406.447,459.402 408.5,459.5 Z"/></g>
<g><path style="opacity:0.514"  d="M 475.5,465.5 C 477.819,465.992 479.819,466.992 481.5,468.5C 478.911,468.539 476.911,467.539 475.5,465.5 Z"/></g>
</svg>