<svg xmlns="http://www.w3.org/2000/svg" viewBox="148.08 -811.92 663.84 667.88"><path d="M506.884-144.04q-11.654 0-19.865-8.211-8.211-8.212-8.211-19.865 0-11.461 8.211-19.673Q495.23-200 506.884-200h236.769q4.616 0 8.462-3.846 3.847-3.847 3.847-8.463v-531.344q0-4.616-3.847-8.462-3.846-3.847-8.462-3.847H506.884q-11.654 0-19.865-8.211-8.211-8.211-8.211-19.865 0-11.461 8.211-19.672 8.211-8.212 19.865-8.212h236.769q28.437 0 48.353 19.916t19.916 48.353v531.344q0 28.438-19.916 48.353-19.916 19.916-48.353 19.916H506.884Zm-20.305-305.961H176.154q-11.653 0-19.864-8.211-8.212-8.211-8.212-19.865 0-11.461 8.212-19.673 8.211-8.211 19.864-8.211h310.425l-76.243-76.243q-8.18-7.988-8.372-19.333-.192-11.346 8.5-19.904 8.5-8.557 19.769-8.615 11.268-.058 20.109 8.59L569.698-502.11q10.379 10.379 10.379 24.22t-10.346 24.005L450.075-334.23q-8.689 8.497-19.842 8.382-11.154-.115-19.769-8.615-8.692-8.615-8.538-19.826.153-11.212 8.588-19.839l76.065-75.873Z"/></svg>