
<svg version="1.0" xmlns="http://www.w3.org/2000/svg"
 viewBox="0 0 2071.000000 2072.000000"
 preserveAspectRatio="xMidYMid meet">
<g transform="translate(0.000000,2072.000000) scale(0.100000,-0.100000)"
>
<path d="M7010 20714 c-591 -39 -1001 -99 -1465 -215 -1284 -320 -2392 -957
-3375 -1939 -604 -603 -1053 -1221 -1413 -1940 -444 -887 -683 -1807 -748
-2875 -15 -259 -6 -983 15 -1215 50 -529 135 -1001 260 -1436 353 -1225 986
-2269 1947 -3209 1192 -1166 2590 -1845 4214 -2044 353 -44 562 -55 1015 -55
454 0 595 8 970 55 1136 143 2289 574 3175 1188 77 54 145 100 151 104 6 4 51
-40 105 -101 93 -107 1275 -1296 4891 -4917 2140 -2144 1993 -2004 2196 -2081
l87 -33 452 -1 c498 0 529 3 670 62 201 83 401 278 488 473 59 135 65 184 65
597 l0 377 -29 133 c-16 73 -40 163 -54 200 -54 150 -167 308 -284 401 -60 47
-4091 4057 -5673 5642 -360 362 -754 747 -875 858 -121 110 -222 202 -224 203
-2 2 11 19 28 39 130 148 459 711 622 1065 562 1218 785 2422 699 3760 -124
1907 -886 3531 -2290 4876 -346 331 -665 587 -1060 849 -1062 706 -2235 1089
-3595 1175 -141 9 -845 11 -965 4z m730 -2510 c1021 -96 1971 -460 2775 -1064
168 -126 371 -296 460 -385 84 -85 256 -289 369 -440 652 -868 1010 -1845
1091 -2980 11 -158 -34 -582 -96 -905 -151 -781 -468 -1516 -929 -2151 -189
-260 -388 -492 -532 -619 -794 -703 -1733 -1148 -2773 -1314 -515 -82 -805
-80 -1329 9 -976 165 -1842 565 -2611 1206 -372 310 -776 842 -1066 1404 -327
634 -530 1347 -589 2065 -6 74 -12 153 -15 175 -4 43 17 332 36 473 51 404
137 777 259 1135 218 639 544 1211 996 1751 135 162 208 235 370 370 859 719
1816 1130 2934 1261 303 35 360 36 650 9z"/>
</g>
</svg>
