<svg xmlns="http://www.w3.org/2000/svg" viewBox="185.35 -851.61 589.5 749.61"><path d="M213.231-210.769q-11.634 0-19.759-8.129-8.124-8.129-8.124-19.769 0-11.64 8.124-19.851 8.125-8.212 19.759-8.212h40.385v-291.193q0-80.5 50.005-142.5 50.004-62 127.995-79.807v-23.33q0-20.154 13.952-34.104 13.953-13.95 34.269-13.95 20.317 0 34.432 13.95 14.115 13.95 14.115 34.104v23.33q78.077 17.807 128.134 79.807 50.058 62 50.058 142.5v291.193h40.289q11.454 0 19.717 8.225 8.263 8.225 8.263 19.865 0 11.64-8.221 19.755-8.221 8.116-19.855 8.116H213.231ZM480-497.692Zm-.068 395.691q-29.355 0-49.989-20.682-20.635-20.683-20.635-50.01h141.384q0 29.423-20.703 50.058-20.702 20.634-50.057 20.634ZM309.576-266.73h341.04v-291.193q0-70.589-50.059-120.506-50.06-49.918-120.644-49.918-70.585 0-120.461 49.918-49.876 49.917-49.876 120.506v291.193Z"/></svg>