<svg xmlns="http://www.w3.org/2000/svg" viewBox="102.65 -818.15 754.69 676.31"><path d="M242.827-141.847q-57.942 0-99.057-41.07-41.115-41.069-41.115-99.198 0-57.846 41.069-98.961 41.07-41.115 99.199-41.115 57.846 0 98.961 41.115t41.115 99.057q0 57.942-41.115 99.057t-99.057 41.115Zm474.346 0q-57.942 0-99.057-41.07-41.115-41.069-41.115-99.198 0-57.846 41.069-98.961 41.07-41.115 99.199-41.115 57.846 0 98.961 41.115t41.115 99.057q0 57.942-41.115 99.057t-99.057 41.115Zm-474.236-55.96q34.703 0 59.402-24.742 24.7-24.741 24.7-59.484t-24.713-59.47q-24.713-24.728-59.417-24.728-34.895 0-59.595 24.741-24.699 24.741-24.699 59.484t24.713 59.471q24.713 24.728 59.609 24.728Zm474.346 0q34.703 0 59.403-24.742 24.699-24.741 24.699-59.484t-24.713-59.47q-24.713-24.728-59.416-24.728-34.896 0-59.595 24.741-24.7 24.741-24.7 59.484t24.713 59.471q24.713 24.728 59.609 24.728ZM480-537.001q-58.346 0-99.461-41.115t-41.115-99.461q0-58.346 41.115-99.461T480-818.153q58.346 0 99.461 41.115t41.115 99.461q0 58.346-41.115 99.461T480-537.001Zm.014-55.96q34.909 0 59.755-24.86 24.847-24.86 24.847-59.77 0-34.909-24.86-59.755-24.86-24.847-59.77-24.847-34.909 0-59.755 24.86-24.847 24.86-24.847 59.77 0 34.909 24.86 59.756 24.86 24.846 59.77 24.846ZM480-677.577Zm237.269 395.462Zm-474.346 0Z"/></svg>