<?xml version="1.0" standalone="no"?>
<!DOCTYPE svg PUBLIC "-//W3C//DTD SVG 20010904//EN"
 "http://www.w3.org/TR/2001/REC-SVG-20010904/DTD/svg10.dtd">
<svg version="1.0" xmlns="http://www.w3.org/2000/svg"
 width="622.000000pt" height="434.000000pt" viewBox="0 0 622.000000 434.000000"
 preserveAspectRatio="xMidYMid meet">

<g transform="translate(0.000000,434.000000) scale(0.100000,-0.100000)"
 stroke="none">
<path d="M2883 4292 c-200 -69 -341 -236 -376 -447 -12 -73 -15 -80 -38 -83
-34 -4 -127 -42 -172 -69 -100 -63 -182 -169 -217 -281 -40 -130 -18 -306 50
-400 16 -23 30 -44 30 -47 0 -16 -92 -2 -131 19 -165 93 -398 66 -519 -59 -24
-25 -43 -35 -64 -35 -17 0 -51 -9 -75 -20 -24 -11 -45 -19 -47 -17 -2 1 3 43
11 92 8 50 15 93 15 98 0 4 12 7 28 7 34 0 87 32 103 62 68 126 -23 333 -180
413 -28 14 -51 29 -51 33 0 5 -14 29 -31 55 -35 53 -106 109 -163 127 -55 18
-163 15 -212 -5 -40 -16 -42 -15 -80 7 -60 35 -169 33 -247 -5 -48 -24 -72
-29 -145 -31 -100 -3 -144 -21 -203 -83 -42 -44 -62 -80 -79 -143 -7 -24 -21
-55 -31 -69 -29 -37 -51 -123 -43 -168 16 -90 77 -160 157 -183 55 -15 61 -29
55 -123 -3 -52 -11 -73 -46 -128 -70 -110 -85 -153 -90 -260 -6 -118 12 -187
64 -247 33 -39 37 -50 38 -102 1 -43 6 -64 21 -80 24 -27 75 -50 111 -50 14 0
40 -12 58 -27 17 -14 62 -40 99 -57 l69 -32 -80 -61 c-79 -62 -329 -317 -346
-353 -16 -35 10 -51 78 -50 34 1 72 1 86 1 64 -1 77 2 113 31 21 16 41 28 44
25 2 -3 0 -37 -6 -76 -16 -101 -14 -202 4 -228 8 -12 20 -56 26 -98 6 -43 20
-112 31 -154 11 -42 26 -100 33 -130 24 -94 75 -122 160 -86 40 16 47 31 69
145 8 46 20 88 25 93 8 8 31 -93 31 -144 1 -68 35 -99 112 -99 57 0 91 19 100
55 27 106 68 288 74 330 5 39 36 133 50 153 1 2 18 -8 38 -22 46 -31 66 -25
66 21 l0 34 39 -31 c40 -33 115 -60 163 -60 15 0 28 -4 28 -10 0 -5 -16 -38
-35 -73 -41 -74 -52 -138 -36 -201 9 -35 8 -61 -4 -123 -8 -43 -15 -122 -15
-175 0 -87 2 -99 24 -125 13 -15 26 -46 30 -68 4 -22 19 -89 33 -150 31 -134
46 -155 114 -155 41 0 51 4 78 35 30 34 62 120 76 203 4 23 11 42 15 42 5 0
14 -26 20 -57 17 -82 47 -158 77 -193 22 -26 31 -30 79 -30 46 0 56 4 70 24
19 30 38 100 59 220 12 71 21 95 45 122 27 31 30 42 30 101 0 36 -7 111 -16
167 -13 82 -14 113 -5 166 13 75 -2 152 -45 229 -13 24 -23 45 -22 46 2 1 23
6 48 12 25 6 52 13 61 17 11 5 18 1 22 -13 12 -46 80 -20 162 62 34 34 78 76
98 92 25 22 40 46 52 88 l17 58 27 -38 c53 -73 145 -128 276 -164 44 -12 84
-23 88 -26 5 -3 -23 -37 -61 -77 -79 -82 -146 -171 -205 -271 -22 -38 -51 -79
-63 -90 -12 -11 -34 -45 -49 -75 -31 -64 -31 -65 -68 -117 -44 -64 -22 -89 63
-73 44 8 53 7 70 -10 26 -26 36 -25 64 5 15 16 34 25 55 25 27 0 31 -3 31 -27
0 -14 8 -35 17 -45 14 -16 18 -50 24 -196 3 -97 12 -195 19 -218 10 -35 10
-45 -4 -72 -16 -30 -15 -32 6 -46 13 -8 57 -18 98 -21 69 -5 77 -4 100 17 45
41 72 141 85 313 10 123 13 135 40 135 27 0 28 -3 50 -165 25 -188 37 -235 66
-266 26 -28 31 -29 112 -29 70 0 89 3 111 21 l26 21 -18 31 c-15 25 -17 39
-11 62 5 17 12 111 15 210 3 99 10 189 14 200 5 11 10 31 12 45 4 33 53 42 63
11 9 -30 44 -37 67 -14 17 18 24 18 66 8 26 -7 56 -9 67 -5 32 12 30 53 -4 93
-17 19 -31 44 -31 56 0 22 -54 116 -74 128 -7 5 -29 40 -50 78 -59 109 -119
193 -196 277 -38 42 -70 78 -70 81 0 2 20 7 45 10 118 17 291 112 343 190 19
29 31 36 72 41 58 8 106 -15 94 -43 -40 -94 -39 -143 3 -185 32 -32 60 -41 79
-25 17 14 28 5 38 -28 6 -18 -2 -32 -38 -67 -35 -33 -46 -52 -46 -74 0 -37 38
-84 81 -102 25 -11 29 -17 23 -34 -3 -12 -8 -37 -9 -56 -2 -25 -11 -42 -37
-65 -19 -16 -40 -40 -47 -52 -10 -19 -8 -24 14 -39 17 -11 35 -14 60 -10 22 4
35 3 35 -4 0 -5 14 -10 30 -10 30 0 30 -1 30 -55 0 -67 20 -121 49 -130 16 -5
21 -15 21 -42 0 -78 33 -329 46 -350 12 -18 24 -23 59 -23 60 0 66 14 101 223
l28 167 27 0 c24 0 29 -5 34 -32 36 -209 59 -317 71 -335 10 -17 24 -23 49
-23 64 0 78 38 106 310 9 84 15 108 30 120 17 14 38 97 39 158 0 7 13 12 29
12 17 0 33 4 36 10 3 5 19 7 34 4 34 -7 71 10 71 33 0 10 -19 36 -41 59 -33
34 -42 51 -43 81 -1 21 -5 45 -9 53 -6 12 3 20 33 34 45 19 70 58 70 106 0 25
4 30 24 30 31 0 56 10 56 21 0 5 -6 9 -14 9 -14 0 -46 36 -46 51 0 3 10 4 23
2 12 -2 31 3 42 11 20 16 20 16 -7 37 -18 13 -28 30 -28 47 0 30 48 154 64
164 6 4 35 8 64 8 53 0 79 10 119 44 13 11 25 17 27 15 3 -3 -10 -45 -29 -94
-31 -82 -34 -99 -35 -201 0 -101 2 -113 24 -143 16 -21 27 -54 31 -90 4 -31
16 -103 27 -160 22 -119 38 -140 103 -140 72 0 94 35 127 198 12 61 25 111 29
111 3 0 19 -48 33 -107 41 -164 71 -203 151 -203 61 0 78 45 110 305 4 28 15
68 25 90 28 59 36 195 17 270 -15 57 -41 121 -72 175 -19 34 -8 41 69 47 37 3
69 10 72 14 3 5 34 9 68 9 84 0 99 16 63 67 -20 28 -24 41 -16 60 5 13 9 39 9
56 0 18 12 50 25 72 23 37 25 50 25 167 0 111 3 137 26 205 22 65 27 97 27
188 1 97 -2 118 -26 178 -40 101 -71 158 -111 206 -47 56 -49 98 -5 130 65 48
76 157 26 244 -13 23 -32 65 -41 94 -26 78 -100 133 -182 133 -11 0 -29 9 -38
19 -22 24 -89 56 -136 65 -50 9 -145 -9 -181 -34 -25 -19 -34 -20 -61 -11 -17
6 -58 11 -91 11 -68 0 -131 -30 -161 -75 -10 -15 -32 -33 -49 -40 -42 -17 -81
-60 -102 -110 -9 -22 -33 -64 -53 -93 -31 -46 -37 -63 -40 -120 -3 -57 0 -72
20 -101 13 -20 38 -39 57 -46 19 -6 37 -17 39 -23 2 -7 -15 -34 -38 -62 l-41
-49 -42 43 c-28 29 -57 48 -87 57 -26 7 -64 30 -91 54 -55 52 -133 82 -232 91
l-76 7 -6 66 c-4 36 -11 82 -17 101 -35 114 -119 212 -231 270 l-65 34 5 106
c9 179 -36 308 -148 419 -110 111 -231 155 -414 154 -103 -1 -124 2 -147 19
-15 10 -58 33 -95 50 -65 31 -74 32 -218 35 -143 3 -154 2 -232 -25z m350 -28
c76 -17 107 -31 170 -72 37 -25 46 -26 180 -26 138 -1 144 -2 220 -34 104 -46
194 -134 246 -241 l36 -76 0 -156 0 -157 64 -27 c232 -102 322 -384 187 -590
-60 -91 -206 -169 -305 -163 -45 3 -46 4 -82 69 -52 96 -83 133 -158 188 -58
43 -140 91 -156 91 -3 0 -5 -6 -5 -13 0 -8 24 -29 53 -47 82 -53 211 -187 232
-245 18 -46 18 -54 3 -157 -8 -60 -18 -111 -21 -114 -3 -3 -31 15 -62 41 -116
94 -269 173 -412 211 -119 32 -296 42 -429 25 -180 -24 -383 -111 -514 -221
-28 -23 -52 -41 -53 -39 -2 2 0 70 4 151 6 121 11 155 29 192 24 51 118 143
202 199 63 42 77 57 52 57 -54 0 -228 -133 -292 -225 l-21 -30 -65 34 c-164
84 -253 261 -226 451 26 183 180 342 364 375 l61 11 7 64 c20 193 135 363 297
438 30 14 75 31 100 38 66 18 210 17 294 -2z m-2503 -547 c26 -9 35 -18 34
-35 -1 -29 13 -28 72 5 126 71 308 5 373 -135 21 -45 29 -52 66 -61 82 -21
177 -145 191 -251 8 -59 -14 -113 -58 -140 -54 -33 -58 -28 -58 55 0 41 -4 75
-9 75 -10 0 -13 -20 -30 -186 -6 -56 -13 -108 -17 -117 -4 -13 -19 -7 -77 32
-184 124 -307 171 -468 179 -173 8 -294 -22 -416 -104 -36 -24 -68 -43 -70
-41 -2 2 -6 76 -10 163 l-6 159 55 42 c136 106 329 145 591 120 57 -6 87 -5
87 1 0 30 -209 49 -355 33 -140 -15 -276 -69 -360 -143 l-45 -40 0 -120 0
-120 -31 6 c-64 13 -116 72 -133 153 -9 39 8 107 38 153 13 20 30 60 39 90 31
107 127 180 235 180 l54 0 -7 -30 c-8 -34 8 -41 25 -10 14 27 73 70 117 86 47
16 127 17 173 1z m5005 -208 c22 -12 57 -37 78 -57 29 -29 40 -34 46 -23 15
24 76 5 110 -35 17 -19 31 -40 31 -47 0 -7 15 -44 33 -82 19 -39 36 -84 40
-101 9 -48 -8 -106 -42 -134 -35 -29 -51 -66 -51 -116 0 -42 -10 -43 -53 -4
-46 40 -149 87 -222 102 -88 17 -268 14 -345 -6 -92 -24 -169 -61 -212 -104
l-38 -36 0 40 c0 51 37 89 141 144 41 22 71 40 68 40 -22 1 -101 -37 -159 -75
-99 -66 -158 -57 -181 27 -14 54 -6 94 33 154 18 27 44 75 60 107 23 49 35 61
72 78 25 11 55 32 68 48 51 63 128 82 216 55 36 -12 56 -14 60 -7 34 53 172
71 247 32z m-4825 -434 c30 -10 82 -31 115 -47 101 -51 255 -166 255 -191 0
-8 -13 -38 -69 -157 -12 -25 -30 -59 -41 -77 -24 -37 -20 -66 16 -108 13 -15
24 -41 24 -56 0 -27 -2 -28 -32 -22 -39 7 -144 59 -207 102 -24 16 -79 64
-123 106 -76 75 -93 82 -64 27 14 -28 136 -148 171 -169 19 -11 18 -12 -7 -12
-15 -1 -66 19 -113 43 -88 46 -113 42 -54 -8 58 -49 154 -86 225 -86 17 0 47
-6 65 -14 19 -7 59 -17 90 -20 l56 -7 7 -46 c12 -87 7 -104 -52 -193 -53 -79
-62 -87 -116 -108 -32 -13 -89 -30 -125 -38 -85 -18 -267 -18 -352 0 -126 27
-182 72 -243 192 -43 88 -59 104 -100 104 -42 0 -68 29 -92 100 -39 119 -13
271 66 390 20 30 44 76 54 102 32 86 137 164 276 203 73 20 291 14 370 -10z
m3716 -76 c54 -17 79 -32 118 -70 33 -33 58 -49 75 -49 45 0 90 -36 116 -93
12 -28 36 -62 53 -74 39 -28 72 -98 72 -151 0 -31 -7 -49 -29 -74 -25 -29 -29
-43 -34 -118 -8 -125 -9 -126 -68 -83 -108 77 -336 147 -404 123 -14 -5 -2 -9
40 -14 129 -16 257 -65 353 -136 37 -28 42 -37 42 -70 0 -47 -13 -58 -30 -25
-32 60 -192 137 -340 162 -154 27 -378 4 -513 -52 -50 -21 -54 -20 -61 18 -3
17 -18 57 -32 87 -29 60 -35 127 -20 233 l7 57 37 0 c59 0 165 26 219 53 86
44 167 137 199 231 8 22 16 47 19 54 7 19 105 15 181 -9z m-2689 -14 c27 -8
67 -26 88 -41 32 -22 47 -25 104 -23 63 2 69 0 132 -42 36 -24 81 -52 99 -62
l33 -18 -5 -120 c-3 -66 -8 -122 -11 -125 -3 -4 -27 12 -54 34 -26 22 -73 53
-103 70 -58 32 -167 68 -177 58 -4 -3 0 -6 8 -6 8 0 51 -17 95 -39 82 -40 180
-114 209 -158 20 -30 13 -69 -14 -76 -17 -4 -95 -93 -103 -118 -3 -8 -25 -1
-63 19 -89 46 -128 60 -210 77 -84 17 -229 21 -205 5 8 -5 38 -10 67 -10 163
0 413 -106 413 -174 0 -22 -1 -21 -84 24 -124 68 -175 82 -327 87 -107 4 -154
2 -214 -12 -93 -20 -239 -92 -285 -139 -37 -37 -50 -38 -50 -3 0 34 85 111
171 157 41 22 66 40 57 40 -21 0 -91 -31 -143 -63 -22 -14 -43 -23 -47 -21 -4
2 -10 40 -14 84 -10 119 -28 102 -20 -19 4 -58 3 -102 -2 -105 -14 -8 -21 25
-28 132 -6 80 -5 92 9 92 8 0 33 22 54 49 44 56 133 120 213 151 101 40 98 39
73 39 -57 2 -198 -75 -283 -155 -41 -38 -54 -45 -82 -42 -44 4 -48 29 -10 82
16 22 32 57 36 77 15 85 103 159 190 159 38 0 48 4 65 28 27 39 91 82 154 103
65 23 194 25 264 4z m3717 -5 c114 -16 194 -52 308 -140 l27 -21 14 27 14 27
26 -34 c67 -88 116 -244 117 -367 0 -62 -17 -152 -28 -152 -3 0 -18 12 -34 27
-21 20 -29 23 -33 12 -2 -8 -11 -32 -19 -54 l-14 -40 -7 30 c-11 42 -47 127
-115 270 -32 68 -69 151 -82 184 -13 33 -28 61 -33 61 -6 0 -9 18 -8 43 3 41
2 40 -19 -23 -43 -123 -136 -220 -272 -284 -79 -37 -200 -71 -289 -82 -82 -9
-70 -30 14 -25 87 4 233 42 306 80 85 42 178 122 221 189 l36 57 24 -55 c14
-30 60 -132 103 -227 50 -107 79 -184 79 -205 0 -94 -61 -185 -159 -237 -163
-87 -449 -82 -622 11 -99 52 -140 120 -155 253 -6 58 -5 62 30 107 42 54 43
58 16 58 -11 0 -20 3 -20 8 1 21 22 30 90 35 41 4 95 13 120 22 49 16 46 16
-80 -6 -30 -5 -67 -9 -82 -9 -27 0 -28 2 -28 53 0 36 -7 64 -24 93 l-23 42 26
40 c14 22 37 55 50 74 l25 33 -29 -25 c-15 -14 -44 -42 -63 -63 -31 -33 -37
-36 -50 -23 -21 20 -9 54 35 100 43 46 53 35 22 -25 l-21 -43 63 58 c35 32 89
71 120 86 60 31 160 60 204 60 25 0 23 -3 -25 -41 -28 -22 -49 -43 -46 -46 3
-3 25 10 48 29 87 71 109 76 242 58z m-2279 -270 c218 -56 362 -137 501 -282
72 -75 83 -92 94 -140 8 -36 9 -65 4 -82 -9 -27 -10 -27 -44 29 -81 131 -132
206 -137 201 -3 -3 5 -22 18 -43 13 -21 45 -81 70 -133 33 -70 58 -106 89
-133 l44 -37 -33 0 c-24 0 -42 9 -67 34 -37 37 -40 37 -23 3 17 -33 61 -77 77
-77 12 0 13 -11 8 -57 -7 -63 -13 -74 -26 -53 -7 12 -10 11 -16 -5 -33 -96
-65 -135 -85 -104 -5 8 -9 55 -10 104 l-2 90 -7 -72 c-10 -91 -33 -161 -66
-196 -14 -16 -27 -27 -28 -25 -2 2 2 55 7 119 7 92 6 127 -6 171 l-15 56 61
53 62 54 -86 5 c-75 5 -93 10 -140 39 l-54 33 35 -37 c41 -43 74 -62 127 -73
l38 -8 -35 -19 c-51 -28 -197 -27 -261 2 -47 21 -113 80 -183 163 l-38 45 29
-54 c35 -69 124 -166 176 -192 21 -11 66 -23 100 -27 l61 -7 43 -110 c46 -120
52 -171 26 -216 -20 -34 -16 -41 31 -42 41 -1 44 -7 16 -32 -24 -21 -26 -35
-6 -35 18 0 55 48 85 108 25 49 41 52 71 15 40 -52 -1 -115 -83 -127 -40 -6
-56 -17 -124 -85 -68 -68 -88 -82 -160 -109 -122 -47 -250 -65 -418 -59 -234
9 -398 66 -503 176 -40 41 -70 63 -99 72 -24 6 -50 21 -60 31 -24 27 -22 84 5
110 l21 21 45 -41 c40 -37 48 -41 66 -30 19 12 19 13 -7 34 l-26 21 36 84 c19
46 46 130 58 187 13 56 28 102 34 102 7 0 20 -10 31 -21 33 -38 98 -61 167
-58 40 2 80 -4 112 -15 45 -17 101 -20 240 -16 11 0 56 -2 100 -6 59 -4 85 -2
98 8 16 12 13 18 -38 73 -44 49 -54 56 -55 38 0 -12 12 -36 26 -53 15 -17 24
-33 21 -36 -9 -9 -136 25 -185 50 -26 13 -64 42 -84 63 -37 38 -118 181 -118
208 0 8 -5 17 -10 20 -13 8 -6 -26 26 -118 27 -78 74 -149 124 -184 l35 -25
-81 4 c-145 8 -243 77 -285 203 l-20 60 6 -63 c8 -78 19 -109 53 -146 l27 -29
-40 8 c-78 13 -135 76 -157 175 l-13 55 -3 -50 c-5 -91 -96 -433 -121 -458
-19 -19 -44 19 -76 117 -24 74 -27 96 -23 178 5 114 24 157 112 247 33 35 52
59 41 53 -40 -20 -136 -133 -162 -189 -34 -74 -41 -174 -18 -262 9 -35 14 -66
10 -69 -3 -3 -20 2 -39 10 -23 11 -41 32 -56 63 -19 40 -22 58 -18 128 6 108
43 181 140 272 37 36 65 65 60 65 -16 0 -59 -35 -134 -109 -72 -70 -78 -74
-78 -49 0 50 23 79 134 167 240 190 339 240 561 282 125 23 283 19 400 -11z
m-1434 -410 c88 -19 219 -78 274 -123 28 -23 29 -28 30 -108 2 -94 23 -150 72
-188 14 -12 35 -36 46 -54 11 -18 24 -35 30 -39 6 -4 4 -21 -7 -49 -29 -72 -4
-131 67 -158 33 -13 35 -38 8 -97 -19 -42 -51 -76 -37 -39 13 34 19 102 9 108
-5 3 -18 -20 -27 -51 -35 -110 -119 -222 -167 -222 -20 0 -20 0 1 29 31 45 50
108 49 165 l-1 51 -17 -55 c-35 -108 -67 -149 -140 -175 -60 -21 -91 -18 -126
10 -27 22 -28 25 -10 31 82 27 151 69 208 126 100 98 120 134 125 227 6 110
-13 140 -21 33 -3 -44 -12 -95 -20 -114 -13 -32 -14 -31 -20 58 -8 110 -65
344 -105 427 -17 34 -44 78 -62 97 l-32 35 20 -35 c10 -19 28 -51 40 -70 18
-31 46 -119 66 -212 9 -39 -10 -36 -68 12 -67 56 -70 52 -18 -17 20 -27 21
-33 9 -33 -31 0 -125 41 -186 80 -34 22 -61 37 -61 35 0 -3 19 -26 41 -50 23
-25 40 -45 38 -45 -20 1 -112 36 -160 61 -56 30 -87 58 -152 139 l-29 35 24
-43 c13 -24 38 -61 57 -83 18 -22 31 -42 28 -45 -10 -10 -82 34 -118 73 -20
21 -53 70 -73 108 -21 39 -41 73 -45 77 -3 4 -33 -88 -66 -205 -53 -192 -59
-221 -59 -312 -1 -55 3 -111 8 -125 9 -25 9 -25 -12 -6 -24 21 -57 102 -78
191 l-14 60 5 -65 c6 -80 65 -207 107 -230 37 -20 44 -8 23 46 -27 70 -16 167
41 382 26 100 51 182 54 182 3 0 13 -20 24 -45 38 -94 135 -165 247 -180 29
-4 78 -16 108 -27 31 -11 97 -24 146 -29 182 -19 194 -21 199 -38 15 -48 26
-162 21 -201 -24 -162 -196 -260 -457 -260 -263 0 -442 85 -514 243 -39 86
-52 244 -32 374 8 50 11 90 7 88 -19 -12 -43 -157 -43 -255 1 -153 29 -243
102 -321 66 -71 102 -94 205 -130 l80 -28 -34 -20 c-98 -60 -244 14 -319 161
l-32 63 6 -50 c4 -27 9 -77 13 -110 l6 -60 -33 30 c-18 17 -44 55 -57 85 -14
30 -34 66 -46 78 -20 22 -22 34 -21 135 0 90 6 130 27 207 42 145 84 250 124
304 33 46 37 48 49 31 7 -10 15 -22 17 -28 1 -5 45 15 96 46 109 66 176 93
280 111 106 20 182 19 282 -4z m4169 -46 c0 -28 -33 -69 -70 -87 -50 -25 -56
8 -10 50 17 14 30 30 30 34 0 4 5 20 11 36 10 27 11 27 25 9 8 -11 14 -30 14
-42z m-1475 26 c98 -25 234 -90 284 -136 47 -42 60 -43 68 -4 3 17 9 30 12 30
4 0 17 -21 30 -47 16 -33 26 -78 32 -143 14 -156 14 -157 -21 -162 -16 -3 -34
0 -40 6 -7 7 -10 -3 -10 -31 0 -39 -16 -100 -30 -116 -3 -4 -7 21 -8 55 -1 34
-11 95 -22 136 -11 40 -21 85 -22 98 -2 20 -7 24 -23 19 -11 -3 -51 -8 -90
-11 -106 -9 -222 23 -332 91 -24 14 -43 22 -43 18 0 -17 115 -78 209 -111 78
-27 109 -33 164 -31 37 1 72 -2 76 -7 24 -25 54 -164 56 -268 l4 -109 -52 -51
c-87 -87 -222 -126 -438 -126 -139 0 -204 11 -284 49 -79 37 -115 68 -150 133
-26 45 -30 64 -30 128 0 66 4 82 33 137 19 34 44 71 57 83 13 12 36 56 51 97
l28 75 20 -28 c57 -82 244 -222 319 -240 49 -11 28 10 -72 73 -54 35 -123 87
-153 116 -54 52 -108 139 -108 174 0 31 -15 0 -43 -87 -32 -101 -66 -164 -90
-168 -15 -3 -17 2 -11 40 4 24 10 54 14 68 6 21 9 22 14 8 3 -10 9 -26 13 -35
4 -11 9 7 14 47 4 36 15 88 23 115 l15 50 -19 -25 c-11 -14 -22 -33 -26 -42
-7 -23 -17 -23 -39 2 -18 20 -18 21 5 45 80 86 426 133 615 85z m395 -49 c5
-17 5 -31 0 -31 -10 0 -20 26 -20 52 0 28 8 19 20 -21z m-4736 -38 c43 -69 45
-83 9 -83 -40 0 -73 36 -73 80 0 29 14 60 26 60 1 0 19 -26 38 -57z m5806 -85
c-6 -20 -31 -64 -55 -97 -25 -34 -45 -64 -45 -68 0 -4 25 17 55 47 30 30 55
48 55 40 0 -46 -25 -90 -79 -144 -56 -56 -62 -59 -86 -48 -14 7 -39 12 -55 12
-17 0 -30 2 -30 5 0 11 43 92 93 173 41 68 58 87 96 106 25 13 49 20 53 17 4
-4 3 -23 -2 -43z m-136 -29 c-8 -17 -31 -52 -49 -78 -19 -26 -43 -69 -55 -96
-19 -44 -22 -47 -37 -33 -13 14 -14 23 -3 67 10 43 19 56 54 80 22 16 54 43
70 60 37 39 41 39 20 0z m-779 -62 c28 -18 50 -44 74 -90 l34 -66 -27 -36
c-16 -20 -35 -39 -43 -42 -17 -7 -78 48 -99 90 -18 34 -13 34 45 1 l46 -27
-52 54 c-44 45 -54 63 -63 108 -16 83 -14 89 18 59 15 -14 45 -37 67 -51z
m-1471 46 c9 -23 21 -173 14 -173 -3 0 -21 37 -39 81 -31 79 -32 82 -14 95 25
18 31 18 39 -3z m-2614 -74 c0 -9 -17 -47 -25 -57 -5 -6 -55 30 -55 38 0 9 45
28 68 29 6 1 12 -4 12 -10z m4216 -46 c4 -12 3 -30 0 -39 -5 -14 -9 -14 -22
-3 -18 14 -43 70 -37 81 8 14 54 -16 59 -39z m499 30 c-3 -10 -9 -30 -12 -45
l-5 -27 -34 26 c-38 29 -37 32 9 49 45 17 50 16 42 -3z m-447 -25 c-6 -18 -25
-20 -31 -3 -5 10 0 15 14 15 12 0 19 -5 17 -12z m-4476 -39 c3 -19 10 -66 13
-106 l7 -72 -28 -8 c-43 -11 -166 -8 -192 6 -21 11 -22 16 -15 84 11 123 10
121 84 128 111 9 123 7 131 -32z m57 19 c15 -40 59 -269 76 -393 11 -76 14
-144 10 -185 -6 -53 -4 -63 6 -52 7 6 15 42 17 80 2 37 8 71 12 76 11 11 40
-87 40 -135 0 -20 -6 -42 -13 -48 -8 -6 -60 -18 -117 -27 -117 -19 -383 -15
-455 6 -69 20 -70 24 -58 152 10 110 12 115 56 180 45 66 59 110 97 301 8 40
16 57 27 57 11 0 14 -6 10 -22 -3 -13 -9 -65 -13 -115 l-7 -93 39 -16 c69 -29
274 -7 274 30 0 6 -7 56 -15 111 -18 122 -17 115 -5 115 6 0 14 -10 19 -22z
m4756 -118 c25 -69 70 -177 100 -240 56 -119 83 -217 72 -262 -13 -50 -139
-80 -332 -81 -132 0 -220 15 -272 49 -43 27 -28 130 40 294 19 47 44 117 55
155 11 39 30 103 42 143 11 39 25 72 31 72 7 0 8 -7 4 -17 -4 -10 -10 -61 -12
-114 l-6 -97 28 -18 c40 -26 140 -30 185 -7 45 23 49 54 21 165 -24 93 -25
106 -11 92 5 -5 30 -66 55 -134z m-4676 100 l33 -28 -11 -54 c-7 -29 -15 -64
-18 -78 -4 -19 -10 -6 -24 55 -10 44 -21 92 -25 108 -8 34 2 34 45 -3z m4570
11 c22 -22 45 -96 37 -117 -6 -15 -87 -19 -146 -8 -30 6 -32 9 -27 39 3 17 12
48 21 68 14 34 18 37 55 37 27 0 48 -7 60 -19z m-5025 -103 c-26 -126 -48
-190 -70 -208 -8 -8 -14 -8 -14 -2 0 9 35 127 47 160 4 9 2 13 -4 9 -6 -4 -25
-43 -43 -86 -25 -62 -43 -91 -82 -127 l-50 -46 -27 26 c-15 15 -38 44 -50 66
l-23 40 89 87 c92 89 220 192 239 193 8 0 4 -35 -12 -112z m4816 99 c0 -16
-73 -254 -80 -261 -10 -10 -80 49 -80 68 0 5 17 30 38 55 20 25 53 67 72 93
29 40 50 58 50 45z m385 -47 c46 -41 62 -50 93 -50 51 0 62 -14 62 -77 0 -48
-2 -53 -22 -51 -13 0 -44 -2 -70 -7 -39 -6 -48 -4 -56 11 -22 42 -81 224 -72
224 5 0 35 -22 65 -50z m-1813 -59 c-23 -50 -29 -57 -39 -45 -9 13 -5 24 20
60 17 24 34 44 38 44 5 0 -4 -27 -19 -59z m-1522 18 c0 -18 -35 -5 -38 14 -3
16 -1 17 17 7 12 -6 21 -15 21 -21z m2708 -40 c27 -32 31 -43 22 -54 -7 -8
-10 -22 -6 -30 7 -18 -8 -20 -21 -2 -5 6 -17 32 -26 57 -30 81 -20 91 31 29z
m905 4 c4 -3 3 -11 -4 -19 -9 -11 -8 -19 6 -34 25 -27 14 -34 -39 -26 -38 6
-47 12 -52 32 -3 13 -4 30 -1 38 9 22 58 26 90 9z m-971 -59 c17 -37 -5 -100
-45 -124 -33 -21 -67 -26 -67 -12 0 7 37 122 55 170 7 19 43 -3 57 -34z m566
16 c5 -34 -22 -50 -84 -50 -73 0 -104 13 -104 44 0 25 2 25 83 28 105 5 101 5
105 -22z m-415 -142 c-27 -30 -52 -41 -67 -29 -8 7 -24 7 -47 1 -57 -17 -65
-13 -37 18 14 15 31 37 37 49 6 13 26 27 44 32 28 8 35 6 60 -21 28 -29 28
-30 10 -50z m-1285 -3 c10 -22 9 -25 -7 -25 -26 0 -44 23 -29 38 17 17 23 15
36 -13z m-3684 -35 c14 -22 26 -41 26 -42 0 -7 -130 -7 -130 -1 0 6 70 83 76
83 1 0 13 -18 28 -40z m4766 -26 c0 -9 -12 -49 -26 -91 -19 -54 -24 -85 -19
-110 5 -27 3 -34 -7 -31 -27 9 -33 56 -16 120 15 60 15 61 -3 37 -10 -13 -23
-44 -30 -68 -11 -39 -10 -48 8 -85 46 -90 52 -106 40 -106 -33 1 -101 93 -117
160 l-12 51 53 57 c45 48 91 79 122 81 4 1 7 -6 7 -15z m-1015 -65 c50 -52
142 -104 203 -115 17 -3 32 -8 32 -9 0 -2 -24 -39 -52 -82 -29 -44 -66 -107
-82 -141 -36 -75 -59 -81 -112 -28 -37 37 -42 61 -19 92 14 18 14 17 15 -13 0
-20 10 -42 26 -60 22 -25 24 -25 14 -5 -8 17 -9 32 -1 50 5 15 13 53 17 85 l6
57 -61 59 c-57 54 -76 58 -50 9 16 -29 0 -37 -22 -9 -10 13 -19 39 -19 57 0
44 25 104 42 104 8 0 36 -23 63 -51z m818 -84 c-3 -13 4 -55 16 -94 24 -77 27
-131 9 -149 -6 -6 -9 -15 -5 -19 11 -10 57 38 57 61 0 14 3 17 11 9 6 -6 9
-28 7 -49 -2 -31 -10 -43 -37 -61 -19 -13 -41 -23 -50 -23 -10 0 -40 43 -79
113 -34 61 -74 126 -87 143 l-25 31 62 18 c35 9 74 23 88 31 35 18 38 17 33
-11z m-505 -117 l-3 -62 40 -8 c57 -10 197 -9 214 1 11 7 12 23 7 70 -15 130
18 56 89 -199 59 -216 79 -364 57 -422 -16 -39 -90 -52 -297 -52 -168 1 -251
12 -267 38 -15 22 -8 181 11 251 60 228 132 445 147 445 3 0 4 -28 2 -62z
m213 46 c4 -2 9 -22 11 -43 l3 -39 -67 -7 c-73 -8 -124 0 -131 18 -2 7 -2 26
0 44 4 25 11 33 32 36 27 5 141 -2 152 -9z m-1185 -66 c89 -92 189 -230 244
-337 l20 -40 -76 -36 c-42 -19 -78 -35 -80 -35 -2 0 -4 8 -4 18 0 9 -18 93
-40 185 -22 93 -41 179 -41 190 -1 16 -2 18 -6 5 -10 -38 52 -411 87 -526 15
-49 17 -68 9 -78 -13 -16 -117 -49 -126 -41 -4 4 -20 443 -23 614 0 57 -16 63
-170 63 -83 0 -149 -5 -164 -11 l-25 -12 5 -231 c2 -127 6 -275 9 -328 4 -96
4 -98 -18 -98 -29 0 -117 24 -145 39 -27 14 -27 29 -2 108 37 120 101 475 87
489 -2 2 -25 -84 -52 -191 -26 -107 -53 -195 -59 -195 -24 1 -131 66 -134 82
-6 34 175 296 259 374 55 51 64 53 229 54 l156 0 60 -62z m864 -104 c-28 -88
-56 -178 -62 -202 -6 -23 -15 -45 -20 -48 -5 -4 -25 9 -44 27 l-34 33 21 35
c12 20 49 86 82 146 75 139 98 177 103 172 3 -2 -18 -76 -46 -163z m-2576 92
l-7 -64 101 -7 c55 -4 119 -4 142 0 l43 7 -6 59 c-8 75 8 85 27 17 46 -164 46
-166 0 -226 -38 -51 -79 -82 -106 -82 -26 0 -61 -39 -55 -60 3 -11 -1 -26 -7
-35 -11 -15 -13 -15 -25 -1 -7 9 -11 23 -7 31 9 25 -4 45 -43 65 -45 22 -108
90 -117 124 -6 26 21 188 37 218 20 37 30 18 23 -46z m211 55 c9 -15 -36 -41
-70 -41 -34 0 -79 26 -70 41 4 5 35 9 70 9 35 0 66 -4 70 -9z m2883 -146 c38
-71 77 -144 88 -162 l19 -32 -35 -36 c-18 -19 -37 -32 -41 -28 -3 5 -30 87
-58 183 -29 96 -57 188 -62 205 -19 57 16 6 89 -130z m-2744 103 c-4 -6 -10
-5 -15 3 -14 22 -10 33 6 19 8 -7 12 -17 9 -22z m-421 -15 c-4 -27 -10 -33
-30 -33 -13 0 -22 4 -18 9 8 14 49 60 51 58 1 -1 -1 -17 -3 -34z m209 -3 c24
0 53 7 64 15 28 21 34 18 34 -15 l0 -30 -100 0 -100 0 0 36 0 35 29 -20 c19
-14 45 -21 73 -21z m248 -20 c11 -21 4 -25 -24 -14 -9 3 -16 12 -16 20 0 21
28 17 40 -6z m3391 -21 c107 -13 274 -6 364 16 78 19 75 19 75 -10 0 -86 -355
-115 -545 -44 -49 18 -55 24 -55 49 l0 29 34 -14 c18 -8 76 -20 127 -26z
m-4708 -5 l68 -6 -6 -41 c-8 -55 -54 -270 -59 -275 -2 -2 -35 0 -72 5 -83 10
-83 10 -119 176 -37 173 -40 164 48 155 39 -4 103 -11 140 -14z m359 -14 c-5
-56 -22 -139 -44 -218 -24 -83 -35 -92 -119 -92 -27 0 -49 1 -49 3 0 1 -9 48
-20 105 -11 56 -20 127 -20 157 0 62 -14 54 140 73 112 14 116 13 112 -28z
m2222 -2 c3 -24 8 -174 12 -335 l6 -292 -45 -6 c-56 -9 -243 -3 -253 8 -9 9
-27 602 -19 634 6 25 26 28 192 31 l102 2 5 -42z m-1736 0 c-3 -24 -28 -34
-55 -24 -14 6 -14 9 2 26 25 28 57 27 53 -2z m499 -3 c3 -9 3 -18 0 -21 -9
-10 -57 8 -57 22 0 19 49 18 57 -1z m-507 -49 c0 -17 -22 -26 -61 -26 -31 0
-32 1 -23 24 8 21 84 23 84 2z m530 10 c0 -2 3 -11 6 -20 7 -19 -26 -22 -57
-6 -30 16 -23 30 16 30 19 0 35 -2 35 -4z m3733 -88 c-9 -109 -14 -121 -52
-131 -18 -4 -51 -7 -74 -5 l-41 3 -19 78 c-11 43 -17 80 -14 83 3 4 40 10 81
15 42 4 84 13 94 18 30 18 32 13 25 -61z m-385 39 c93 -13 90 -8 68 -112 l-13
-60 -62 2 c-34 1 -68 6 -75 12 -7 6 -16 35 -19 64 -4 29 -10 68 -13 87 -6 30
-5 33 12 26 10 -4 56 -13 102 -19z m-3900 -3 c34 -10 27 -19 -28 -36 -53 -17
-68 -11 -50 22 11 20 36 25 78 14z m556 0 c20 -8 21 -44 1 -44 -18 0 -65 21
-65 30 0 19 32 26 64 14z m-516 -65 c2 -9 -3 -23 -10 -31 -70 -76 -73 -82 -24
-40 55 48 62 50 71 22 7 -23 -4 -47 -39 -79 l-26 -25 -28 20 c-26 19 -53 64
-66 110 -5 17 0 23 26 32 47 15 92 11 96 -9z m494 9 c38 -11 40 -13 34 -46 -6
-37 -22 -62 -40 -62 -6 0 -31 18 -56 40 l-45 40 24 20 c27 23 31 24 83 8z
m-61 -84 c27 -20 49 -39 49 -43 0 -4 -12 -13 -27 -20 -24 -11 -29 -9 -60 20
-31 31 -41 58 -26 72 10 10 12 10 64 -29z m-375 -38 c-6 -24 -42 -53 -53 -42
-3 2 7 21 22 41 30 39 41 39 31 1z m74 -6 c0 -5 -5 -10 -12 -12 -7 -3 -2 -18
15 -43 15 -21 25 -41 23 -43 -6 -5 -75 28 -82 40 -10 15 28 77 43 71 7 -3 13
-9 13 -13z m168 7 c6 -6 13 -24 17 -39 6 -24 2 -29 -35 -48 -23 -12 -44 -19
-47 -16 -3 3 7 22 22 42 21 27 24 38 15 44 -7 4 -9 13 -6 19 9 14 21 14 34 -2z
m102 -49 c0 -14 -19 -9 -40 12 -11 11 -20 28 -20 37 0 13 7 10 30 -12 17 -16
30 -32 30 -37z m2132 13 c28 -25 30 -31 19 -45 -18 -22 -28 -20 -36 5 -5 15
-10 18 -18 10 -13 -13 -77 -15 -77 -2 0 11 58 61 71 61 5 0 23 -13 41 -29z
m806 -25 c16 -18 15 -18 -33 -14 -35 3 -53 0 -61 -10 -9 -12 -13 -11 -28 4
-18 17 -17 19 13 46 32 28 32 28 62 11 17 -10 38 -26 47 -37z m-2796 -188 c3
-78 1 -89 -17 -102 -68 -50 -325 -72 -476 -41 -46 9 -105 26 -131 37 -38 16
-47 25 -52 51 -8 43 7 238 20 259 3 4 19 -2 37 -12 18 -11 39 -20 47 -20 9 0
48 -16 89 -35 97 -47 174 -49 259 -6 31 15 74 31 95 35 21 4 52 20 70 36 l32
29 12 -72 c6 -40 13 -111 15 -159z m3353 211 c5 -5 -12 -9 -42 -9 -55 0 -83 7
-83 20 0 11 112 0 125 -11z m323 9 c-3 -8 -28 -14 -64 -16 -70 -4 -65 15 6 21
25 2 49 4 53 5 5 1 7 -4 5 -10z m-3115 -39 c104 -52 128 -91 88 -140 -19 -23
-19 -23 -72 -6 -54 16 -129 69 -129 89 0 20 42 78 56 78 8 0 34 -10 57 -21z
m1002 -19 c14 -22 25 -44 25 -49 0 -16 -63 -59 -109 -76 -65 -23 -87 -20 -101
14 -22 55 -11 73 69 114 40 20 78 37 82 37 5 0 20 -18 34 -40z m-2975 13 c3
-3 -6 -14 -19 -24 -35 -29 -101 -10 -101 28 0 13 10 14 58 8 31 -4 59 -9 62
-12z m290 4 c0 -23 -23 -37 -60 -37 -33 0 -60 14 -60 31 0 5 21 10 48 12 26 2
53 4 60 5 6 1 12 -4 12 -11z m4437 -3 c13 -4 20 -10 17 -15 -11 -18 -84 -7
-84 12 0 10 34 12 67 3z m353 -4 c0 -19 -48 -30 -76 -18 -23 11 -24 13 -7 19
28 11 83 10 83 -1z m-3181 -141 c51 -32 64 -49 37 -49 -8 0 -17 7 -20 16 -5
13 -17 14 -72 8 -71 -7 -73 -5 -36 39 21 24 33 22 91 -14z m1145 -2 c11 -15
17 -29 14 -32 -3 -3 -29 0 -58 6 l-53 11 29 24 c34 27 41 26 68 -9z m-104 -26
c0 -13 -26 -32 -33 -24 -8 7 11 33 24 33 5 0 9 -4 9 -9z m1029 -164 c0 -40 -3
-90 -7 -112 -7 -39 -8 -40 -54 -43 -53 -3 -51 -6 -68 103 -6 39 -13 82 -16 97
l-5 27 68 3 c37 2 71 2 76 0 4 -2 7 -36 6 -75z m-303 67 c20 -5 20 -8 8 -67
-7 -34 -16 -83 -19 -109 l-6 -48 -44 0 c-57 0 -63 11 -71 134 l-7 96 59 0 c32
0 68 -3 80 -6z m-1441 -44 c53 -11 108 -20 121 -20 29 0 29 1 9 -175 -8 -72
-15 -134 -15 -138 0 -4 -44 -6 -97 -5 l-98 3 -7 55 c-5 48 -15 300 -12 300 1
0 46 -9 99 -20z m517 -184 l-5 -156 -87 0 c-59 0 -91 4 -98 13 -14 16 -54 289
-44 297 4 4 50 12 102 19 52 7 102 17 110 21 24 14 28 -23 22 -194z m-1815
142 l103 -23 -6 -35 c-4 -19 -14 -59 -23 -89 l-16 -55 -60 3 c-88 4 -98 14
-119 118 -10 48 -20 94 -22 102 -3 10 2 12 18 7 13 -3 69 -16 125 -28z m408
-83 c-19 -107 -19 -107 -111 -119 -36 -4 -54 -3 -62 6 -10 14 -56 168 -50 172
2 2 48 8 104 15 55 7 107 17 115 21 7 5 15 7 17 5 3 -2 -3 -47 -13 -100z
m2615 -95 c0 -16 -27 -23 -58 -15 l-27 8 25 7 c37 12 60 11 60 0z m-315 -10
c-3 -5 -24 -10 -46 -10 -21 0 -39 5 -39 10 0 6 21 10 46 10 27 0 43 -4 39 -10z
m305 -44 c0 -24 -26 -39 -49 -26 -36 19 -25 40 21 40 17 0 28 -5 28 -14z
m-3002 -2 c29 -8 23 -26 -12 -35 -32 -9 -76 7 -76 28 0 14 47 18 88 7z m362
-9 c0 -23 -46 -40 -77 -29 -56 19 -36 40 40 43 27 1 37 -3 37 -14z m2330 -4
c-16 -30 -30 -35 -51 -15 -28 26 -23 34 21 34 37 0 40 -2 30 -19z m-1305 -101
c8 -13 -35 -13 -55 0 -11 7 -7 10 17 10 17 0 35 -4 38 -10z m305 2 c0 -4 -13
-13 -30 -19 -30 -11 -47 -3 -35 17 7 12 65 14 65 2z m-373 -37 c53 -22 30 -39
-46 -33 -69 5 -84 14 -57 34 25 18 58 18 103 -1z m488 -5 c9 -15 -39 -30 -94
-30 -60 0 -72 11 -29 26 41 15 115 17 123 4z"/>
<path d="M3012 3190 c-93 -13 -168 -37 -199 -64 -15 -14 -25 -27 -22 -30 3 -4
35 3 70 13 91 28 180 41 289 41 149 0 338 -37 407 -80 23 -15 57 -6 51 13 -7
20 -127 64 -237 86 -122 25 -271 33 -359 21z"/>
<path d="M1070 3442 c0 -5 24 -22 53 -37 28 -16 80 -51 114 -77 34 -27 64 -44
67 -39 9 13 -96 105 -146 129 -57 27 -88 35 -88 24z"/>
<path d="M5455 3160 c-22 -6 -50 -12 -62 -15 -13 -3 -23 -10 -23 -16 0 -6 7
-8 17 -5 9 4 63 12 120 18 115 12 210 2 311 -33 30 -10 57 -17 60 -15 8 9 -48
38 -98 51 -66 17 -274 27 -325 15z"/>
<path d="M281 2677 c-17 -32 -23 -60 -24 -117 -3 -101 21 -174 74 -231 l41
-44 -32 60 c-23 41 -35 82 -42 133 -5 41 -7 77 -4 79 2 3 17 -9 33 -25 15 -17
61 -47 100 -67 58 -29 87 -37 145 -40 l73 -5 -50 16 c-177 54 -275 134 -275
226 0 56 -14 61 -39 15z"/>
<path d="M980 2370 c-44 -44 -9 -140 50 -140 59 0 94 96 50 140 -11 11 -33 20
-50 20 -17 0 -39 -9 -50 -20z"/>
<path d="M454 2325 c-22 -34 -11 -90 22 -111 71 -47 143 22 103 99 -16 30 -28
37 -71 37 -29 0 -41 -6 -54 -25z"/>
<path d="M743 2186 c5 -15 79 -14 84 1 3 7 -11 11 -42 11 -28 -1 -44 -5 -42
-12z"/>
<path d="M4613 2622 c4 -5 22 -12 42 -15 47 -8 189 -80 242 -123 29 -24 43
-30 43 -21 0 21 -86 82 -172 121 -74 34 -166 57 -155 38z"/>
<path d="M6030 2793 c23 -42 53 -185 60 -287 l7 -111 1 115 c1 63 -3 133 -9
155 -16 63 -50 145 -60 145 -5 0 -5 -8 1 -17z"/>
<path d="M5555 2705 c-38 -40 -83 -82 -100 -94 -29 -22 -29 -22 14 1 47 25
118 88 146 132 31 47 12 35 -60 -39z"/>
<path d="M5970 2688 c10 -29 24 -82 30 -118 7 -36 14 -76 17 -89 2 -13 6 -21
9 -18 9 9 -17 159 -38 214 -26 69 -42 79 -18 11z"/>
<path d="M5743 2388 c-72 -35 -39 -169 41 -168 79 1 112 90 57 149 -30 32 -59
38 -98 19z"/>
<path d="M5206 2365 c-34 -32 -35 -83 -3 -121 54 -62 145 -14 134 70 -10 73
-78 100 -131 51z"/>
<path d="M5480 2173 c0 -15 34 -43 52 -43 17 0 44 27 35 36 -3 3 -14 0 -25 -7
-18 -11 -24 -10 -41 5 -12 11 -21 15 -21 9z"/>
<path d="M2733 1850 c-25 -10 -53 -58 -53 -92 0 -25 23 -65 48 -85 26 -21 88
-16 117 10 84 73 -7 209 -112 167z"/>
<path d="M3430 1830 c-26 -26 -35 -65 -24 -109 7 -28 18 -40 47 -54 36 -18 38
-18 75 0 20 10 42 29 49 43 16 34 1 99 -28 123 -29 24 -94 22 -119 -3z"/>
<path d="M3070 1616 c0 -40 85 -51 121 -15 27 27 19 34 -24 18 -25 -9 -42 -9
-66 -1 -24 8 -31 8 -31 -2z"/>
<path d="M1487 1782 c-41 -45 -43 -110 -4 -137 50 -35 113 -6 124 57 5 32 1
41 -25 68 -34 34 -71 39 -95 12z"/>
<path d="M1962 1769 c-39 -41 -35 -116 7 -138 52 -28 108 1 118 61 5 32 1 41
-25 68 -36 35 -73 39 -100 9z"/>
<path d="M1710 1561 c0 -31 97 -42 125 -15 21 21 13 29 -15 14 -21 -11 -54 -9
-92 5 -10 4 -18 3 -18 -4z"/>
<path d="M4210 2210 c0 -38 113 -231 127 -217 3 3 -10 27 -28 54 -18 26 -48
77 -66 113 -18 36 -33 58 -33 50z"/>
<path d="M4163 1785 c-77 -33 -66 -145 15 -170 37 -11 69 2 91 39 27 43 27 79
-1 109 -29 32 -65 39 -105 22z"/>
<path d="M4694 1788 c-43 -11 -68 -51 -60 -96 7 -46 33 -71 78 -79 31 -5 41
-1 62 22 72 78 18 179 -80 153z"/>
<path d="M4430 1578 c0 -14 43 -26 69 -18 44 11 33 26 -19 26 -27 0 -50 -4
-50 -8z"/>
<path d="M630 1580 c20 -13 347 -13 355 0 4 7 -59 10 -182 10 -125 0 -183 -4
-173 -10z"/>
<path d="M555 1338 c13 -62 16 -63 235 -63 155 0 202 3 212 14 11 11 7 12 -22
7 -19 -4 -96 -9 -170 -12 -169 -7 -220 5 -234 54 -12 42 -30 42 -21 0z"/>
<path d="M3227 1013 c-4 -3 -7 -17 -7 -30 0 -29 36 -32 45 -3 10 31 -17 55
-38 33z"/>
<path d="M3027 996 c-3 -8 1 -22 8 -33 13 -17 15 -17 31 -1 9 9 14 24 11 32
-8 20 -43 21 -50 2z"/>
<path d="M3034 756 c-9 -24 4 -48 23 -44 12 2 18 12 18 28 0 29 -32 41 -41 16z"/>
<path d="M3230 754 c-10 -11 -11 -20 -3 -32 17 -27 38 -20 38 12 0 34 -16 44
-35 20z"/>
</g>
</svg>
