<?xml version="1.0" standalone="no"?>
<!DOCTYPE svg PUBLIC "-//W3C//DTD SVG 20010904//EN"
 "http://www.w3.org/TR/2001/REC-SVG-20010904/DTD/svg10.dtd">
<svg version="1.0" xmlns="http://www.w3.org/2000/svg"
 width="506.000000pt" height="581.000000pt" viewBox="0 0 506.000000 581.000000"
 preserveAspectRatio="xMidYMid meet">

<g transform="translate(0.000000,581.000000) scale(0.100000,-0.100000)"
>
<path d="M2220 5750 c-124 -32 -261 -93 -362 -161 -138 -93 -292 -267 -366
-415 -46 -91 -45 -91 -160 -63 -85 21 -120 24 -277 23 -197 -1 -249 -10 -414
-74 -160 -62 -353 -216 -450 -358 -55 -82 -127 -232 -146 -306 -20 -79 -29
-274 -17 -366 25 -192 169 -426 336 -544 117 -84 229 -127 390 -151 54 -8 101
-16 103 -19 2 -2 11 -124 19 -270 l16 -267 -56 -122 c-71 -156 -112 -282 -138
-427 -18 -96 -21 -154 -21 -350 1 -202 4 -250 22 -340 86 -411 285 -752 604
-1038 178 -159 392 -287 597 -358 52 -18 120 -42 151 -53 30 -11 117 -29 193
-41 179 -26 533 -28 677 -4 298 51 648 198 856 360 491 383 753 903 753 1494
0 282 -55 520 -185 800 -78 167 -78 169 -70 435 4 126 10 248 14 269 6 39 6
39 71 52 270 55 468 211 590 465 65 137 84 229 77 384 -12 271 -89 453 -275
647 -206 215 -451 318 -751 318 -134 0 -207 -12 -343 -56 -59 -19 -112 -33
-117 -29 -5 3 -35 44 -67 91 -105 159 -271 306 -439 389 -184 91 -301 115
-548 115 -135 -1 -165 -4 -267 -30z m535 -235 c86 -23 229 -95 305 -153 110
-83 211 -205 275 -332 38 -75 82 -138 106 -150 17 -9 41 -2 137 44 179 84 248
100 422 101 122 0 158 -4 224 -23 277 -80 490 -300 550 -569 21 -94 21 -253 0
-324 -59 -199 -230 -364 -421 -407 -45 -10 -55 -5 -67 34 -18 60 -107 90 -163
55 -42 -26 -51 -61 -59 -233 l-7 -137 -76 29 c-42 16 -116 44 -166 63 l-90 35
-6 200 c-7 206 -11 235 -37 265 -17 19 -91 24 -122 7 -35 -19 -42 -51 -49
-226 -4 -95 -9 -176 -12 -178 -3 -3 -62 5 -131 19 -69 13 -163 29 -209 35 -46
5 -101 13 -121 16 l-38 6 0 97 c0 54 -3 138 -6 188 -7 86 -8 90 -38 111 -42
29 -88 28 -123 -2 -25 -21 -28 -33 -34 -107 -4 -46 -8 -127 -8 -180 l-1 -96
-157 -1 c-166 -1 -389 -20 -561 -48 -56 -9 -105 -14 -109 -10 -4 3 -9 69 -11
146 l-5 141 -36 29 c-19 17 -44 30 -54 30 -33 0 -84 -30 -96 -56 -6 -14 -11
-83 -12 -162 -1 -75 -4 -148 -8 -161 -6 -22 -25 -31 -151 -71 -157 -51 -288
-101 -417 -161 l-82 -37 -6 31 c-2 18 -9 82 -15 144 -12 139 -26 177 -73 192
-65 22 -130 -24 -146 -102 -8 -41 -39 -46 -131 -22 -144 38 -282 136 -364 259
-114 172 -124 418 -26 622 62 128 214 281 345 346 215 108 473 116 732 23 54
-19 112 -35 129 -35 45 0 80 43 120 151 19 51 56 127 81 168 52 83 161 203
232 255 87 64 220 122 351 152 76 18 354 11 435 -11z m165 -2061 c332 -11 752
-109 1030 -240 l100 -47 0 -89 c0 -48 -4 -88 -9 -88 -5 0 -40 14 -78 31 -249
114 -630 210 -944 239 -198 19 -730 8 -889 -18 -336 -56 -593 -135 -904 -281
-60 -28 -110 -50 -112 -48 -2 2 -5 43 -6 91 l-3 87 45 26 c80 46 291 133 455
188 180 60 336 97 533 126 254 37 323 39 782 23z m180 -438 c158 -24 210 -36
210 -49 0 -17 -104 -110 -179 -160 -215 -144 -439 -212 -691 -212 -175 1 -256
19 -462 100 -75 30 -145 55 -155 55 -28 0 -73 -32 -159 -111 -208 -194 -371
-261 -592 -243 -98 8 -97 2 -29 142 l42 87 170 86 c216 109 400 181 590 229
126 32 362 76 505 93 90 12 649 -1 750 -17z m607 -147 c125 -49 326 -140 356
-161 64 -45 182 -348 218 -559 28 -167 24 -465 -10 -602 -41 -170 -125 -367
-219 -512 -97 -151 -279 -342 -443 -464 -95 -71 -327 -190 -439 -225 -398
-126 -841 -113 -1210 33 -248 99 -426 217 -606 404 -264 273 -402 564 -445
937 -17 148 -2 431 24 456 3 3 33 0 67 -7 94 -18 266 -7 365 25 148 47 283
125 414 239 l74 64 85 -34 c121 -49 251 -81 374 -94 234 -23 565 39 775 145
79 40 242 145 262 169 27 34 46 20 75 -54 80 -204 225 -351 390 -395 149 -40
276 11 276 110 0 56 -78 106 -167 106 -75 0 -193 90 -252 193 -34 60 -81 193
-81 231 0 35 20 34 117 -5z"/>
<path d="M1266 1964 c-11 -28 -6 -137 8 -189 74 -279 388 -446 658 -349 92 34
160 77 220 141 72 78 128 204 128 291 l0 32 365 0 365 0 0 -32 c0 -87 56 -213
128 -291 60 -64 128 -107 220 -141 270 -97 584 70 658 349 14 52 19 161 8 189
-6 14 -136 16 -1379 16 -1243 0 -1373 -2 -1379 -16z"/>
<path d="M2395 1582 c-42 -9 -65 -42 -65 -94 0 -95 59 -176 162 -224 54 -25
75 -29 143 -28 154 2 266 60 319 165 33 68 33 109 0 148 -21 25 -34 31 -64 31
-34 0 -44 -6 -86 -56 -59 -68 -88 -84 -156 -84 -66 1 -90 14 -136 75 -38 50
-81 75 -117 67z"/>
</g>
</svg>
