<svg xmlns="http://www.w3.org/2000/svg" viewBox="84.13 -910.83 827 863.57"><path d="M230.434-505.478 481.87-910.827l250.87 405.349H230.434ZM718.977-47.26q-79.828 0-135.49-55.863-55.661-55.862-55.661-136.59 0-79.896 55.595-135.939 55.595-56.044 135.59-56.044 80.828 0 136.474 55.977 55.646 55.977 55.646 136.539 0 80.561-55.746 136.241Q799.639-47.26 718.977-47.26ZM84.129-73.13v-339.566H423.13V-73.13h-339ZM719.305-131q46.043 0 77.065-31.007 31.021-31.007 31.021-77.108 0-46.102-31.106-77.472-31.106-31.369-77.149-31.369-46.044 0-77.089 31.387-31.046 31.386-31.046 77.628 0 46.005 31.13 76.973Q673.261-131 719.305-131Zm-551.436-25.87h172.086v-172.086H167.869v172.086Zm212.653-432.348h201.999L481.87-753.043 380.522-589.218Zm101.782 0ZM339.955-328.956Zm379.524 90.043Z"/></svg>