<?xml version="1.0" standalone="no"?>
<!DOCTYPE svg PUBLIC "-//W3C//DTD SVG 20010904//EN"
 "http://www.w3.org/TR/2001/REC-SVG-20010904/DTD/svg10.dtd">
<svg version="1.0" xmlns="http://www.w3.org/2000/svg"
 width="512.000000pt" height="512.000000pt" viewBox="0 0 512.000000 512.000000"
 preserveAspectRatio="xMidYMid meet">

<g transform="translate(0.000000,512.000000) scale(0.100000,-0.100000)">
<path d="M4523 5113 c-13 -2 -23 -8 -23 -13 0 -4 -10 -10 -23 -14 -13 -3 -50
-23 -84 -45 -62 -40 -59 -36 -624 -691 -140 -162 -209 -251 -226 -289 -34 -76
-40 -162 -18 -256 l18 -76 -69 -70 c-85 -86 -140 -128 -230 -173 -94 -47 -160
-67 -364 -110 -96 -20 -228 -48 -293 -62 -151 -32 -319 -99 -427 -171 -153
-101 -312 -274 -361 -392 l-21 -50 -772 -3 c-869 -3 -803 3 -895 -83 -28 -26
-64 -69 -82 -97 l-32 -49 5 -214 c3 -124 9 -220 15 -227 6 -7 18 -58 27 -113
20 -119 74 -313 122 -443 128 -342 315 -625 601 -910 l163 -162 0 -76 c0 -42
5 -95 12 -117 16 -52 95 -138 163 -176 l55 -31 1400 0 1400 0 51 28 c66 35
151 127 167 179 7 22 12 75 12 116 l0 77 163 162 c90 90 193 201 229 248 255
331 420 695 489 1080 12 63 26 124 32 135 5 11 12 115 15 232 l5 212 -32 49
c-18 28 -54 71 -82 97 -92 86 -26 80 -898 83 l-773 3 7 37 c27 153 82 371 110
439 44 108 107 201 199 292 l75 75 69 -17 c87 -21 131 -21 207 -2 81 21 101
36 363 261 125 108 315 272 423 365 195 168 267 247 290 317 6 20 17 40 23 44
15 10 15 256 0 266 -6 4 -15 18 -19 32 -22 72 -148 212 -227 252 -103 52 -125
58 -220 57 -51 -1 -103 -4 -115 -6z m212 -292 c130 -59 149 -233 36 -341 -55
-53 -732 -636 -776 -668 -115 -85 -256 22 -201 151 7 18 144 183 303 369 412
478 404 469 448 489 52 24 138 24 190 0z m-1860 -1742 c4 -6 -73 -91 -176
-195 l-183 -184 -208 0 c-196 0 -208 1 -208 19 0 29 55 91 133 150 118 89 264
148 477 194 132 29 156 31 165 16z m206 -281 c-20 -105 -13 -98 -97 -98 -55 0
-74 3 -74 13 0 8 36 49 80 92 96 92 110 91 91 -7z m-866 -378 c9 -14 -144
-170 -166 -170 -29 0 -66 150 -42 173 11 11 201 8 208 -3z m2625 -7 c3 -3 4
-51 2 -106 -10 -425 -143 -845 -385 -1216 l-61 -93 -50 7 c-81 10 -280 61
-413 104 -152 50 -340 129 -526 223 -344 172 -679 274 -1092 334 -148 21 -721
31 -894 14 -273 -25 -563 -88 -791 -170 -164 -60 -166 -60 -184 -15 -54 129
-119 365 -141 513 -19 123 -36 362 -28 390 l5 22 724 0 724 0 0 -43 c0 -112
65 -275 152 -384 204 -252 536 -332 848 -203 96 39 178 100 276 202 113 118
179 219 238 363 l24 60 179 5 c205 6 1386 0 1393 -7z m-1870 -6 c0 -19 -73
-140 -124 -205 -103 -130 -248 -202 -410 -202 -87 0 -186 26 -186 49 0 9 80
96 177 193 l178 178 182 0 c141 0 183 -3 183 -13z m-1043 -987 c555 -21 854
-95 1378 -342 322 -152 571 -246 818 -309 30 -7 47 -17 45 -25 -2 -7 -34 -40
-73 -73 l-70 -61 -1466 0 -1467 0 -88 79 c-96 85 -182 177 -263 284 -79 105
-141 204 -141 225 0 16 24 28 138 65 293 98 538 143 862 160 30 2 62 4 70 5 8
1 124 -3 257 -8z m2023 -1022 c-1 -71 -27 -160 -52 -180 -56 -43 -43 -43
-1348 -43 -1378 0 -1302 -4 -1347 64 -19 29 -23 47 -23 117 l0 84 1385 0 1385
0 0 -42z"/>
<path d="M4533 4693 c-12 -2 -40 -25 -63 -50 -40 -42 -42 -48 -37 -90 7 -64
57 -113 120 -120 43 -5 48 -3 93 39 43 41 47 49 47 92 0 42 -4 52 -39 86 -39
38 -78 52 -121 43z"/>
</g>
</svg>
