<svg xmlns="http://www.w3.org/2000/svg" xmlns:xlink="http://www.w3.org/1999/xlink" xml:space="preserve" version="1.1" viewBox="242.03 242.03 515.94 515.94">
 <g id="Слой_x0020_1">
  <path id="Vector" class="fil0" d="M382.1 644.16c6.46,0 11.87,-2.18 16.23,-6.54 4.36,-4.35 6.54,-9.76 6.54,-16.22l0 -151.75c0,-6.46 -2.18,-11.87 -6.54,-16.22 -4.36,-4.36 -9.77,-6.54 -16.23,-6.54 -6.45,0 -11.86,2.18 -16.22,6.54 -4.36,4.35 -6.54,9.76 -6.54,16.22l0 151.75c0,6.46 2.18,11.87 6.54,16.22 4.36,4.36 9.77,6.54 16.22,6.54zm117.9 0c6.46,0 11.87,-2.18 16.22,-6.54 4.36,-4.35 6.54,-9.76 6.54,-16.22l0 -242.8c0,-6.46 -2.18,-11.86 -6.54,-16.22 -4.35,-4.36 -9.76,-6.54 -16.22,-6.54 -6.46,0 -11.87,2.18 -16.22,6.54 -4.36,4.36 -6.54,9.76 -6.54,16.22l0 242.8c0,6.46 2.18,11.87 6.54,16.22 4.35,4.36 9.76,6.54 16.22,6.54zm117.9 0c6.45,0 11.86,-2.18 16.22,-6.54 4.36,-4.35 6.54,-9.76 6.54,-16.22l0 -60.7c0,-6.46 -2.18,-11.87 -6.54,-16.23 -4.36,-4.35 -9.77,-6.53 -16.22,-6.53 -6.46,0 -11.87,2.18 -16.23,6.53 -4.36,4.36 -6.54,9.77 -6.54,16.23l0 60.7c0,6.46 2.18,11.87 6.54,16.22 4.36,4.36 9.77,6.54 16.23,6.54zm-321.01 113.81c-15.33,0 -28.3,-5.31 -38.93,-15.93 -10.62,-10.63 -15.93,-23.6 -15.93,-38.93l0 -406.22c0,-15.33 5.31,-28.3 15.93,-38.93 10.63,-10.62 23.6,-15.93 38.93,-15.93l406.22 0c15.33,0 28.3,5.31 38.93,15.93 10.62,10.63 15.93,23.6 15.93,38.93l0 406.22c0,15.33 -5.31,28.3 -15.93,38.93 -10.63,10.62 -23.6,15.93 -38.93,15.93l-406.22 0zm0 -45.53l406.22 0c2.33,0 4.47,-0.97 6.42,-2.91 1.94,-1.95 2.91,-4.09 2.91,-6.42l0 -406.22c0,-2.33 -0.97,-4.47 -2.91,-6.42 -1.95,-1.94 -4.09,-2.92 -6.42,-2.92l-406.22 0c-2.33,0 -4.47,0.98 -6.42,2.92 -1.94,1.95 -2.92,4.09 -2.92,6.42l0 406.22c0,2.33 0.98,4.47 2.92,6.42 1.95,1.94 4.09,2.91 6.42,2.91z"/>
 </g>
</svg>