<svg xmlns="http://www.w3.org/2000/svg" width="489" height="637" viewBox="0 0 489 637" version="1.1"><path d="M 209 0.689 C 197.583 1.549, 175.476 4.318, 162.554 6.508 C 131.864 11.707, 109.541 18.224, 90.020 27.685 C 77.931 33.543, 75.762 35.006, 69 41.859 C 60.067 50.912, 57.503 56.594, 58.196 65.796 C 58.772 73.436, 61.288 78.294, 68.117 84.956 C 77.369 93.981, 95.339 102.375, 117.500 108.024 C 122.450 109.286, 126.850 110.619, 127.277 110.986 C 127.705 111.354, 126.068 114.616, 123.641 118.236 C 121.214 121.855, 119.034 125.398, 118.797 126.109 C 118.447 127.159, 117.258 127.145, 112.433 126.033 C 103.739 124.030, 87.162 124.473, 77.500 126.967 C 45.352 135.265, 20.224 161.685, 11.843 196 C 11.007 199.423, 10.519 207.165, 10.552 216.500 C 10.600 230.645, 10.782 232.021, 13.748 240.648 C 24.339 271.453, 48.074 290.089, 78.820 291.740 L 89.139 292.294 88.320 302.397 C 87.869 307.954, 87.500 322.245, 87.500 334.155 L 87.500 355.810 83 356.422 C 68.359 358.415, 59.445 372.964, 59.670 394.500 C 59.805 407.412, 63.007 417.853, 70.070 428.413 C 78.441 440.928, 87.582 447.437, 98.954 448.980 C 102.544 449.468, 104.779 450.329, 105.461 451.487 C 121.443 478.637, 140.396 497.336, 167.771 512.962 L 175.042 517.113 171.681 521.306 C 169.833 523.613, 166.184 528.538, 163.573 532.250 C 160.961 535.963, 158.479 539, 158.057 539 C 157.635 539, 154.267 536.231, 150.574 532.847 C 144.657 527.425, 143.207 525.315, 138.378 515.097 C 129.131 495.531, 128.646 494.695, 123.696 489.787 C 120.183 486.304, 117.422 484.597, 113.422 483.434 C 104.370 480.803, 96.468 483.418, 83 493.503 C 69.231 503.814, 62.116 507.626, 34.500 519.488 C 12.177 529.077, 5.575 532.528, 2.449 536.243 C -5.405 545.577, 6.165 557.761, 23.853 558.785 C 29.232 559.097, 32.574 558.787, 35.064 557.747 L 38.611 556.264 37.665 561.486 C 35.719 572.222, 41.279 580.058, 49.775 578.553 C 52.744 578.028, 55.126 576.201, 61.518 569.548 L 69.537 561.202 66.133 568.347 C 61.675 577.708, 60.783 586.420, 63.943 589.750 C 65.519 591.411, 67.216 592, 70.426 592 C 77.172 592, 82.938 587.451, 93.473 573.817 C 104.708 559.277, 104.641 559.338, 101.925 566 C 94.890 583.253, 92.926 589.393, 92.790 594.559 C 92.625 600.828, 94.909 604.931, 99.204 606.079 C 104.207 607.417, 107.319 605.890, 114.609 598.517 L 121.717 591.327 121.242 595.545 C 120.627 601.006, 122.457 606.428, 125.807 609.063 C 128.351 611.064, 130.787 611.191, 135.040 609.544 C 136.140 609.118, 136.944 609.956, 137.858 612.483 C 138.583 614.490, 140.303 616.622, 141.833 617.414 C 149.977 621.625, 185.414 630.508, 208.500 634.125 C 234.474 638.194, 278.939 637.740, 301.903 633.172 C 308.924 631.775, 310.647 631.040, 312.382 628.704 C 314.298 626.125, 314.342 625.698, 312.948 623.204 C 310.952 619.632, 307.031 619.342, 292.093 621.659 C 277.973 623.849, 230.249 624.233, 218 622.255 C 193.782 618.343, 186 616.558, 186 614.912 C 186 612.234, 190.846 589.426, 194.055 577 C 198.860 558.394, 207.309 533.840, 210.080 530.428 C 211.158 529.099, 220.009 530.931, 219.983 532.477 C 219.957 534.033, 216.387 547.124, 215.119 550.315 C 213.614 554.100, 213.706 558.563, 215.321 560.179 C 216.371 561.228, 224.176 561.485, 253.295 561.429 C 287.379 561.363, 290.089 561.229, 291.974 559.524 C 293.088 558.515, 294 557.070, 294 556.312 C 294 555.554, 292.145 550.204, 289.877 544.423 C 287.610 538.642, 285.922 533.747, 286.127 533.545 C 286.332 533.344, 288.159 532.868, 290.187 532.490 L 293.875 531.801 297.322 538.650 C 299.219 542.418, 303.104 550.675, 305.957 557 C 308.810 563.325, 311.856 569.288, 312.727 570.250 C 314.947 572.704, 317.662 572.429, 320.641 569.450 C 322.629 567.461, 323.044 566.304, 322.524 564.200 C 321.530 560.180, 314.397 542.729, 310.984 535.969 C 309.343 532.717, 308 529.687, 308 529.235 C 308 528.783, 309.793 527.934, 311.985 527.349 L 315.971 526.286 322.385 535.893 C 325.913 541.177, 330.583 549.100, 332.763 553.500 C 342.980 574.124, 350.002 601.816, 348.522 615.641 C 348.042 620.122, 348.200 622.535, 349.038 623.546 C 350.617 625.448, 355.974 625.407, 358.739 623.471 C 360.917 621.945, 363.392 615.444, 362.403 613.844 C 362.117 613.380, 362.359 613, 362.941 613 C 363.523 613, 364 613.401, 364 613.891 C 364 615.291, 371.663 618, 375.620 618 C 378.358 618, 380 617.200, 382.600 614.600 C 385.533 611.667, 386 610.533, 385.998 606.350 C 385.998 603.683, 385.072 596.626, 383.942 590.669 C 381.595 578.299, 381.776 575.479, 384.458 582.590 C 390.895 599.653, 400.114 613.152, 406.500 614.866 C 410.684 615.990, 415.676 614.424, 417.684 611.359 C 420.299 607.369, 419.657 600.363, 415.546 588.004 C 413.518 581.909, 412.025 576.424, 412.229 575.814 C 412.432 575.204, 414.115 576.684, 415.969 579.103 C 421.087 585.780, 428.183 592.990, 431.200 594.578 C 435.668 596.930, 440.544 596.379, 444.205 593.109 C 446.901 590.699, 447.446 589.490, 447.470 585.859 C 447.487 583.461, 447.139 579.798, 446.699 577.717 L 445.897 573.935 450.444 577.405 C 463.945 587.711, 483.834 578.147, 479.049 563.649 C 477.363 558.538, 471.535 552.427, 455.663 539.125 C 441.755 527.470, 434.171 520.001, 416.773 500.822 C 406.613 489.622, 400.681 486, 392.499 486 C 388.563 486, 386.326 486.675, 382.745 488.947 C 376.812 492.709, 373.756 497.387, 370.029 508.413 C 368.386 513.276, 365.918 519.170, 364.546 521.512 C 361.424 526.838, 353.072 534.423, 346.862 537.570 L 342.135 539.965 335.482 530.901 C 331.823 525.916, 328.980 521.760, 329.165 521.664 C 329.349 521.569, 333.550 519.537, 338.500 517.149 C 363.252 505.205, 383.561 486.282, 396.050 463.526 L 400.043 456.252 405.924 455.095 C 423.712 451.595, 437.950 437.431, 444.037 417.181 C 445.924 410.901, 446.178 408.132, 445.820 397.681 C 445.345 383.799, 443.254 377.608, 436.526 370.161 C 432.456 365.655, 423.713 361.001, 419.312 360.998 L 416.500 360.995 416.332 342.748 C 416.239 332.711, 415.458 317.556, 414.595 309.070 C 413.733 300.583, 413.167 293.499, 413.339 293.328 C 413.510 293.157, 417.216 292.391, 421.575 291.626 C 436.673 288.977, 450.458 281.466, 461.580 269.829 C 477.855 252.800, 486.295 233.065, 487.683 208.791 C 490.174 165.217, 467.289 129.255, 430.455 118.862 C 419.156 115.674, 401.203 115.690, 388.182 118.901 C 383.058 120.164, 378.725 121.041, 378.553 120.849 C 377.672 119.864, 373 109.923, 373 109.033 C 373 108.465, 373.634 108, 374.409 108 C 377.821 108, 401.242 100.497, 408.673 97.023 C 429.051 87.496, 437.422 78.039, 437.460 64.500 C 437.478 58.402, 437.037 56.680, 434.039 51.134 C 420.436 25.970, 363.630 6.599, 287 0.993 C 274.688 0.092, 219.761 -0.122, 209 0.689 M 215.500 13.619 C 213.300 13.836, 204.300 14.718, 195.500 15.578 C 137.106 21.285, 86.017 38.271, 74.544 55.793 C 70.162 62.486, 70.684 67.320, 76.486 73.773 C 84.782 83, 107.899 92.867, 133.159 97.962 L 138.818 99.104 145.854 93.802 C 149.723 90.886, 152.914 88.275, 152.944 88 C 152.974 87.725, 147.151 86.459, 140.004 85.186 C 127.174 82.901, 110.333 78.202, 104.500 75.279 C 99.977 73.013, 95.168 68.040, 94.483 64.922 C 93.610 60.946, 96.265 56.512, 101.256 53.611 C 122.300 41.377, 174.367 31.128, 226 29.056 C 286.787 26.616, 357.484 36.356, 389.409 51.569 C 396.500 54.948, 402 60.141, 402 63.457 C 402 66.610, 397.703 71.601, 392.862 74.070 C 387.988 76.557, 367.870 82.351, 358.205 84.052 C 354.193 84.759, 350.745 85.603, 350.543 85.930 C 350.342 86.256, 352.759 88.842, 355.915 91.676 L 361.653 96.829 368.357 95.423 C 398.235 89.160, 419.683 78.549, 423.043 68.369 C 424.987 62.478, 423.502 58.340, 417.176 52.027 C 400.377 35.262, 356.422 21.474, 300.500 15.430 C 286.362 13.902, 225.699 12.609, 215.500 13.619 M 217 42.602 C 187.040 45.131, 167.059 47.886, 148.343 52.071 C 131.926 55.742, 111.046 62.379, 112.221 63.554 C 114.770 66.103, 135.619 71.042, 158.474 74.511 L 174.868 76.999 186.684 73.859 C 197.342 71.026, 199.970 70.712, 213.500 70.658 C 229.489 70.593, 240.204 72.499, 251.370 77.392 L 256.257 79.535 264.392 76.814 C 282.353 70.806, 301.644 69.463, 319.042 73.009 C 328.410 74.918, 329.409 74.941, 339.199 73.473 C 363.242 69.870, 384.548 64.606, 381.926 62.917 C 379.201 61.162, 359.433 55.167, 348 52.629 C 334.191 49.564, 315.670 46.652, 296 44.455 C 282.356 42.930, 228.170 41.660, 217 42.602 M 193.483 85.981 C 166.559 92.070, 143.779 109.007, 128.955 133.960 C 123.629 142.924, 122.897 143.511, 119.322 141.684 C 111.791 137.838, 93.543 136.811, 82.064 139.587 C 45.779 148.362, 18.085 188.705, 24.015 224.147 C 29.486 256.845, 50.520 276.722, 81.750 278.706 C 88.382 279.127, 91 278.969, 91 278.147 C 91 277.516, 90.341 277, 89.535 277 C 87.819 277, 86 273.983, 86 271.137 C 86 267.215, 88.607 266, 97.022 266 C 101.356 266, 107.286 265.501, 110.201 264.890 C 122.093 262.400, 136.321 252.058, 138.490 244.327 C 139.914 239.254, 141.812 238.321, 147.687 239.807 C 157.567 242.306, 168.741 243.101, 179.081 242.040 C 188.701 241.052, 194 240.139, 194 239.469 C 194 239.295, 192.650 237.804, 191 236.154 C 189.350 234.504, 188 232.319, 188 231.299 C 188 228.368, 190.897 225, 193.417 225 C 195.680 225, 197.491 226.053, 207.500 233.185 L 212.500 236.747 224.500 234.824 C 236.802 232.853, 265.461 232.072, 275.640 233.431 L 280.500 234.080 289.500 223.937 C 304.141 207.437, 303.928 207.582, 308.365 211.073 C 312.939 214.670, 311.413 219.097, 301.741 230.286 C 298.990 233.469, 296.948 236.281, 297.202 236.536 C 298.472 237.806, 318.924 240.040, 329.500 240.064 C 339.354 240.086, 343.288 239.618, 351.500 237.443 C 362.559 234.514, 364.497 234.337, 366.580 236.066 C 369.007 238.081, 368.232 241.980, 364.761 245.223 L 361.523 248.248 365.511 251.737 C 371.489 256.965, 376.156 259.694, 383.171 262.063 C 392.034 265.055, 405.956 264.427, 418.241 260.479 C 425.435 258.168, 427.422 257.871, 429.464 258.801 C 432.257 260.074, 433.804 264.491, 432.301 266.905 C 430.739 269.414, 424.837 272.353, 417.106 274.471 C 411.667 275.961, 410 276.838, 410 278.209 C 410 280.368, 409.361 280.352, 418.792 278.427 C 432.913 275.545, 447.386 266.779, 455.987 255.897 C 469.407 238.919, 475.848 219.452, 474.645 199.500 C 473.632 182.698, 469.941 170.499, 462.391 159 C 457.160 151.034, 454.941 148.581, 448.014 143.106 C 432.043 130.481, 412.432 126.637, 390.695 131.869 C 379.081 134.665, 378.186 135.212, 377.810 139.753 C 377.561 142.765, 377.058 143.563, 375.246 143.820 C 373.761 144.031, 372.789 143.518, 372.399 142.320 C 371.456 139.421, 369.569 135.198, 364.435 124.500 C 360.260 115.799, 358.448 113.312, 350.484 105.353 C 342.682 97.555, 339.943 95.538, 331.916 91.680 C 320.365 86.127, 313.707 84.690, 299.500 84.681 C 286.899 84.672, 279.309 85.930, 266.940 90.073 C 262.136 91.683, 257.068 93, 255.678 93 C 254.288 93, 249.698 91.617, 245.477 89.927 C 241.256 88.237, 234.810 86.220, 231.152 85.445 C 221.871 83.477, 203.392 83.741, 193.483 85.981 M 453 174 C 450.590 176.410, 450.596 176.212, 452.626 186.922 C 453.876 193.513, 454.116 198.762, 453.663 209.580 C 453.175 221.243, 453.334 224.032, 454.593 225.830 C 456.622 228.725, 460.541 228.630, 462.502 225.637 C 467.258 218.379, 468.074 196.907, 464.134 182.717 C 461.298 172.505, 457.482 169.518, 453 174 M 237 246.564 C 235.625 246.801, 230.450 247.487, 225.500 248.090 C 220.550 248.692, 209.300 250.559, 200.500 252.238 C 186.849 254.842, 181.908 255.315, 166.846 255.458 L 149.192 255.626 143.046 261.716 C 134.699 269.986, 122.173 276.280, 107.821 279.417 C 105.516 279.921, 104.996 280.737, 104.103 285.251 C 102.886 291.406, 101 308.446, 101 313.287 C 101 316.407, 101.205 316.623, 103.807 316.242 C 109.893 315.348, 110.719 321.944, 105 325.777 C 102.417 327.508, 101.331 329.088, 100.855 331.811 C 100.501 333.840, 100.321 335.620, 100.456 335.767 C 100.591 335.914, 103.329 334.452, 106.542 332.517 C 113.152 328.537, 115.778 328.190, 119.075 330.860 L 121.372 332.719 118.761 335.110 C 117.325 336.424, 112.971 339.750, 109.085 342.500 L 102.021 347.500 102.010 353.809 C 102.002 358.593, 102.302 359.936, 103.250 359.366 C 103.938 358.952, 106.750 357.186, 109.500 355.442 C 122.115 347.440, 136.708 341.402, 156.500 335.995 C 192.995 326.025, 223.236 322.368, 261.454 323.303 C 315.559 324.627, 367.444 337.230, 397.232 356.285 C 400.364 358.289, 403.173 359.530, 403.473 359.043 C 404.240 357.803, 402.280 316.279, 400.974 306.080 C 399.321 293.176, 396.993 280.593, 396.093 279.693 C 395.648 279.248, 392.396 278.280, 388.866 277.541 C 375.325 274.708, 363.524 268.302, 354.049 258.642 L 348.771 253.261 333.136 253.229 C 320.482 253.203, 313.781 252.594, 298 250.038 C 282.178 247.475, 274.822 246.809, 259 246.506 C 248.275 246.301, 238.375 246.327, 237 246.564 M 386.032 293.940 C 384.569 296.675, 386.815 329.711, 388.672 332.750 C 390.559 335.840, 394.501 335.691, 396.624 332.451 C 398.042 330.287, 398.195 328.254, 397.633 319.014 C 396.921 307.292, 395.658 299.133, 393.876 294.750 C 392.495 291.355, 387.682 290.858, 386.032 293.940 M 232.500 336.583 C 230.300 336.798, 223.550 337.455, 217.500 338.043 C 174.374 342.234, 133.399 354.707, 112.901 369.883 L 106.302 374.768 105.621 384.655 C 104.844 395.942, 106.206 410.574, 109.079 421.811 C 111.511 431.317, 120.246 449.636, 127.021 459.437 C 154.052 498.538, 209.808 523.268, 265 520.635 C 285.767 519.644, 297.276 517.565, 316.500 511.332 C 357.486 498.043, 387.710 464.378, 395.579 423.250 C 397.164 414.965, 397.419 390.883, 396.048 379.029 C 395.009 370.057, 394.465 369.505, 379.283 362.033 C 358.044 351.580, 325.700 342.758, 293 338.500 C 281.243 336.969, 241.452 335.708, 232.500 336.583 M 78.028 373.960 C 76.869 375.588, 75.178 380.342, 74.271 384.524 C 72.913 390.778, 72.810 393.446, 73.688 399.541 C 75.633 413.043, 84.999 428.408, 94.122 433.062 C 96.255 434.150, 98 434.839, 98 434.592 C 98 434.346, 96.903 430.047, 95.563 425.039 C 94.223 420.030, 92.606 411.560, 91.971 406.216 C 91.335 400.872, 90.744 396.466, 90.658 396.424 C 86.767 394.539, 83 391.415, 83 390.073 C 83 387.724, 86.130 385, 88.829 385 C 90.674 385, 90.998 384.436, 90.986 381.250 C 90.965 375.254, 90.086 373.433, 86.608 372.175 C 81.746 370.417, 80.344 370.709, 78.028 373.960 M 415.121 376.057 C 410.211 378.255, 409.558 379.565, 410.439 385.441 C 411.099 389.841, 411.114 389.856, 414.605 389.289 C 419.440 388.505, 423.188 390.608, 422.798 393.888 C 422.569 395.809, 421.207 397.023, 416.904 399.139 L 411.307 401.893 410.702 412.196 C 410.370 417.863, 409.002 426.775, 407.663 432 C 406.324 437.225, 405.359 441.644, 405.517 441.820 C 406.343 442.734, 414.876 437.219, 418.969 433.126 C 433.234 418.862, 437.309 395.339, 428.046 380.734 C 424.300 374.827, 420.743 373.540, 415.121 376.057 M 169.071 388.695 C 158.190 394.423, 155.519 409.210, 163.797 417.903 C 168.836 423.196, 174.265 424.646, 181.336 422.591 C 196.100 418.299, 199.670 399.715, 187.511 390.441 C 182.708 386.777, 174.238 385.975, 169.071 388.695 M 318.500 388.665 C 313.867 391.113, 311.877 393.153, 309.881 397.500 C 307.403 402.895, 307.532 408.650, 310.250 414.030 C 316.646 426.692, 333.512 427.197, 341.814 414.976 C 345.118 410.113, 344.612 401.035, 340.709 395.136 C 335.889 387.852, 325.672 384.876, 318.500 388.665 M 277.735 427.088 C 276.764 427.654, 274.676 430.679, 273.095 433.812 C 271.514 436.944, 269.026 440.701, 267.567 442.160 C 260.953 448.774, 250.077 450.368, 241.539 445.974 C 236.896 443.585, 234.796 441.144, 228.486 430.801 C 224.709 424.609, 217 426.547, 217 433.688 C 217 441.594, 226.978 454.269, 236.707 458.723 C 250.172 464.888, 267.939 461.593, 277.837 451.097 C 282.678 445.964, 285.904 439.983, 286.610 434.831 C 287.169 430.748, 286.969 430.120, 284.479 428.162 C 281.424 425.759, 280.320 425.583, 277.735 427.088 M 183.865 528.250 C 168.399 547.670, 158.095 570.001, 152.949 595.248 C 151.265 603.513, 151.130 605.551, 152.198 606.582 C 154.335 608.645, 172.035 613.104, 172.497 611.694 C 172.712 611.038, 173.625 606.675, 174.526 602 C 179.098 578.264, 189.708 541.373, 194.875 531.245 C 196.044 528.954, 197 526.683, 197 526.198 C 197 525.456, 190.593 523, 188.657 523 C 188.321 523, 186.165 525.362, 183.865 528.250 M 231.622 540.453 C 230.730 544.005, 230 547.156, 230 547.456 C 230 547.755, 240.399 548, 253.108 548 L 276.217 548 275.613 545.593 C 275.280 544.269, 274.171 541.231, 273.147 538.842 L 271.285 534.499 252.265 534.247 L 233.244 533.996 231.622 540.453 M 293.557 566.223 C 291.108 569.719, 291.618 573.772, 294.923 577.077 C 296.531 578.685, 298.763 580, 299.884 580 C 302.944 580, 306 576.135, 306 572.266 C 306 565.398, 297.146 561.098, 293.557 566.223 M 206.089 569.135 C 199.696 575.997, 205.941 587.338, 214.224 583.907 C 221.264 580.991, 222.284 571.750, 215.928 568.463 C 211.945 566.403, 208.409 566.644, 206.089 569.135 M 317.655 577.829 C 315.263 580.472, 315.573 584.160, 319.538 600.193 C 321.483 608.062, 323.350 617.334, 323.687 620.798 C 324.346 627.584, 326.205 630, 330.768 630 C 333.760 630, 338.007 625.756, 337.977 622.795 C 337.965 621.533, 335.753 611.570, 333.062 600.655 C 327.941 579.883, 326.118 576, 321.481 576 C 320.287 576, 318.565 576.823, 317.655 577.829 M 315.606 609.848 L 313.712 612.500 316.050 610.278 C 317.337 609.056, 318.189 607.862, 317.944 607.626 C 317.700 607.389, 316.648 608.389, 315.606 609.848"  fill-rule="evenodd"/></svg>