<svg xmlns="http://www.w3.org/2000/svg" version="1.1" viewBox="0.52 2.14 511.38 507.9"><path d="" stroke="none" fill="#080404" fill-rule="evenodd"/><path d="M 227 3.105 C 207.739 5.278, 180.286 12.316, 160.815 20.074 C 83.361 50.931, 25.643 118.045, 6.508 199.500 C 1.485 220.882, 0.540 229.953, 0.519 257 C 0.507 272.724, 0.991 285.759, 1.780 291 C 10.740 350.516, 35.104 399.487, 75.798 439.772 C 108.974 472.616, 148.870 495.118, 194 506.440 C 211.463 510.821, 217.223 511.095, 223.749 507.853 C 237.208 501.168, 238.949 481.771, 226.874 473.024 C 224.073 470.994, 219.241 469.338, 209.257 466.986 C 191.028 462.690, 178.254 458.199, 162.500 450.545 C 95.686 418.084, 51.607 355.121, 42.948 279.775 C 41.246 264.966, 42.215 235.967, 44.918 220.862 C 52.759 177.035, 72.893 138.375, 104.324 106.795 C 138.350 72.606, 180.590 51.885, 229.371 45.451 C 241.880 43.801, 266.161 43.576, 279.500 44.986 C 308.142 48.014, 339.225 58.404, 365.250 73.650 C 369.512 76.147, 373.241 78.582, 373.538 79.061 C 373.834 79.540, 370.234 85.524, 365.538 92.359 C 354.427 108.532, 354.099 113, 364.023 113 C 373.064 113, 436.549 106.942, 439.368 105.811 C 442.885 104.399, 445.991 99.545, 445.996 95.453 C 446.001 91.889, 427.611 25.082, 425.504 21.007 C 421.926 14.089, 418.043 16.459, 407.109 32.231 L 398.382 44.821 391.459 40.367 C 382.112 34.352, 361.722 24.067, 349.500 19.201 C 330.255 11.539, 308.907 6.147, 287.038 3.426 C 274.535 1.870, 239.604 1.684, 227 3.105 M 236.421 92.896 C 231.580 95.095, 228.383 98.865, 226.998 104.009 C 226.347 106.426, 226.079 137.358, 226.244 191.116 L 226.500 274.476 302.500 313.758 C 344.300 335.362, 380.166 353.545, 382.201 354.163 C 389.495 356.379, 399.069 351.296, 401.939 343.685 C 404.446 337.033, 401.842 328.101, 396.273 324.252 C 394.748 323.199, 363.470 306.848, 326.766 287.918 L 260.032 253.500 260 178.500 L 259.967 103.500 257.734 99.575 C 255.184 95.095, 248.393 90.988, 243.593 91.022 C 241.892 91.034, 238.665 91.878, 236.421 92.896 M 465.500 151.890 C 458.248 155.237, 454 162.070, 454 170.388 C 454 175.528, 459.055 190.798, 462.529 196.152 C 466.018 201.530, 474.505 205.456, 480.982 204.688 C 486.997 203.976, 490.948 202.013, 494.947 197.751 C 498.963 193.469, 500.329 189.031, 499.751 182.144 C 499.186 175.426, 493.808 161.114, 490.268 156.906 C 484.636 150.213, 473.862 148.031, 465.500 151.890 M 483.007 229.593 C 474.607 233.236, 470.825 239.885, 470.206 252.100 C 469.201 271.917, 475.510 281.970, 490.032 283.690 C 496.733 284.484, 504.576 280.707, 508.625 274.737 C 511.394 270.657, 511.510 270.001, 511.781 257 C 512.060 243.598, 512.041 243.463, 509.074 238.361 C 503.930 229.513, 492.250 225.585, 483.007 229.593 M 473.637 308.408 C 469.177 310.064, 464.498 314.204, 462.276 318.461 C 459.487 323.805, 455 338.302, 455.010 341.938 C 455.025 347.470, 459.240 355.471, 463.674 358.387 C 473.618 364.924, 487.303 362.718, 492.891 353.676 C 496.814 347.328, 501.238 333.731, 501.287 327.872 C 501.402 313.920, 486.689 303.562, 473.637 308.408 M 439.316 378.920 C 433.929 380.274, 430.328 383.226, 423.154 392.167 C 414.603 402.825, 412.965 407.930, 415.405 416.322 C 417.063 422.024, 422.453 428.081, 427.617 430.045 C 431.920 431.680, 440.051 431.154, 444.618 428.943 C 449.122 426.763, 458.244 416.395, 462.748 408.335 C 467.836 399.233, 463.933 386.553, 454.427 381.297 C 449.776 378.726, 443.816 377.788, 439.316 378.920 M 374.500 436.936 C 370.100 439.210, 364.435 442.582, 361.910 444.429 C 343.820 457.664, 355.645 485.984, 377.553 481.891 C 383.114 480.852, 397.815 472.114, 401.978 467.372 C 405.059 463.863, 407 458.473, 406.972 453.500 C 406.954 450.133, 403.772 442.512, 401.195 439.662 C 398.565 436.753, 392.334 433.944, 387.182 433.345 C 383.080 432.867, 381.508 433.312, 374.500 436.936 M 302.500 467.063 C 291.259 469.454, 286.680 471.461, 283.057 475.588 C 271.573 488.668, 280.910 510, 298.119 510 C 303.618 510, 318.808 506.672, 322.809 504.590 C 328.008 501.885, 332.143 495.766, 333.373 488.955 C 334.999 479.956, 327.952 469.295, 318.497 466.449 C 312.750 464.720, 313.688 464.684, 302.500 467.063" fill-rule="evenodd"/></svg>