<svg  viewBox="0 0 15 17"  xmlns="http://www.w3.org/2000/svg">
<path d="M3.71043 15.4474H11.4373V12.8421C11.4373 11.8534 11.0618 11.0078 10.3109 10.3053C9.55997 9.60278 8.64763 9.25151 7.57384 9.25151C6.50006 9.25151 5.58771 9.60278 4.8368 10.3053C4.08589 11.0078 3.71043 11.8534 3.71043 12.8421V15.4474ZM7.57384 7.74849C8.64763 7.74849 9.55997 7.39722 10.3109 6.69468C11.0618 5.99215 11.4373 5.14655 11.4373 4.15788V1.55261H3.71043V4.15788C3.71043 5.14655 4.08589 5.99215 4.8368 6.69468C5.58771 7.39722 6.50006 7.74849 7.57384 7.74849ZM0.5 16.75V15.4474H2.29568V12.8421C2.29568 11.8646 2.58619 10.9747 3.16723 10.1725C3.74826 9.37036 4.51823 8.81285 5.47715 8.5C4.51823 8.18159 3.74826 7.62269 3.16723 6.82329C2.58619 6.02389 2.29568 5.13542 2.29568 4.15788V1.55261H0.5V0.25H14.6477V1.55261H12.852V4.15788C12.852 5.13542 12.5615 6.02389 11.9805 6.82329C11.3994 7.62269 10.6295 8.18159 9.67054 8.5C10.6295 8.81285 11.3994 9.37036 11.9805 10.1725C12.5615 10.9747 12.852 11.8646 12.852 12.8421V15.4474H14.6477V16.75H0.5Z" />
</svg>
