<svg  viewBox="0 0 19 20"  xmlns="http://www.w3.org/2000/svg">
<path d="M5.67086 19.5C5.205 19.5 4.80889 19.3347 4.48254 19.0042C4.15618 18.6736 3.993 18.2724 3.993 17.8006C3.993 17.3287 4.15618 16.9275 4.48254 16.597C4.80889 16.2664 5.205 16.1011 5.67086 16.1011C6.13674 16.1011 6.53286 16.2664 6.85921 16.597C7.18557 16.9275 7.34875 17.3287 7.34875 17.8006C7.34875 18.2724 7.18557 18.6736 6.85921 19.0042C6.53286 19.3347 6.13674 19.5 5.67086 19.5ZM14.9638 19.5C14.4979 19.5 14.1018 19.3347 13.7754 19.0042C13.4491 18.6736 13.2859 18.2724 13.2859 17.8006C13.2859 17.3287 13.4491 16.9275 13.7754 16.597C14.1018 16.2664 14.4979 16.1011 14.9638 16.1011C15.4296 16.1011 15.8257 16.2664 16.1521 16.597C16.4784 16.9275 16.6416 17.3287 16.6416 17.8006C16.6416 18.2724 16.4784 18.6736 16.1521 19.0042C15.8257 19.3347 15.4296 19.5 14.9638 19.5ZM4.5793 4.14889L7.00948 9.3033H13.5458C13.6012 9.3033 13.6503 9.28929 13.6934 9.26128C13.7364 9.23326 13.7733 9.19435 13.804 9.14455L16.3761 4.41034C16.413 4.34186 16.4161 4.28117 16.3854 4.22826C16.3546 4.17533 16.3024 4.14887 16.2286 4.14887L4.5793 4.14889ZM3.88972 2.69226H17.2021C17.5942 2.69226 17.8908 2.86127 18.0918 3.19928C18.2927 3.53731 18.3023 3.8825 18.1203 4.23484L15.0486 9.87099C14.8912 10.1511 14.6832 10.3693 14.4244 10.5256C14.1657 10.6818 13.882 10.7599 13.5735 10.7599H6.57802L5.46803 12.8142C5.41886 12.8889 5.41733 12.9699 5.46343 13.057C5.50953 13.1442 5.57868 13.1878 5.67086 13.1878H15.9226C16.1266 13.1878 16.2975 13.2575 16.4351 13.3969C16.5728 13.5364 16.6416 13.7094 16.6416 13.9161C16.6416 14.1228 16.5728 14.2958 16.4351 14.4353C16.2975 14.5747 16.1266 14.6444 15.9226 14.6444H5.67086C5.03168 14.6444 4.55137 14.3652 4.22992 13.8068C3.90848 13.2484 3.89711 12.691 4.19581 12.1345L5.56396 9.64317L2.07542 2.20663H0.969118C0.765055 2.20663 0.594198 2.13691 0.456548 1.99747C0.318849 1.85804 0.25 1.68499 0.25 1.47832C0.25 1.27165 0.318841 1.09859 0.456524 0.959156C0.59419 0.819719 0.765047 0.75 0.969094 0.75H2.43492C2.59841 0.75 2.75083 0.793887 2.89219 0.88166C3.03355 0.969433 3.14111 1.093 3.21487 1.25236L3.88969 2.69224L3.88972 2.69226Z" />
</svg>
