
<svg xmlns="http://www.w3.org/2000/svg" xml:space="preserve" version="1.1" style="shape-rendering:geometricPrecision; text-rendering:geometricPrecision; image-rendering:optimizeQuality; fill-rule:evenodd; clip-rule:evenodd"
viewBox="0 0 29700 29700"
 xmlns:xlink="http://www.w3.org/1999/xlink"
 xmlns:xodm="http://www.corel.com/coreldraw/odm/2003">
 <g id="Слой_x0020_1">
  <metadata id="CorelCorpID_0Corel-Layer"/>
  <path id="Vector" class="fil0" d="M4658.99 25227.85c-461.52,0 -851,-158.26 -1168.44,-474.67 -317.44,-316.54 -476.16,-704.77 -476.16,-1164.94 0,-460.05 158.72,-848.28 476.16,-1164.82 317.44,-316.4 706.92,-474.67 1168.44,-474.67l1143.25 0 0 -9796.51c0,-2068.56 618.24,-3913.47 1854.74,-5534.73 1236.5,-1621.26 2853.16,-2680.75 4850.03,-3178.44l0 -939.99c0,-655.62 230.16,-1212.9 690.5,-1671.83 460.33,-458.95 1019.31,-688.42 1676.95,-688.42 657.63,0 1216.64,229.47 1676.95,688.42 460.32,458.93 690.54,1016.21 690.54,1671.83l0 939.99c2002.55,497.69 3620.69,1555.73 4854.29,3174.12 1233.61,1618.39 1850.47,3464.75 1850.47,5539.05l0 9796.51 1143.2 0c461.51,0 851.04,158.27 1168.51,474.67 317.33,316.54 476.12,704.77 476.12,1164.82 0,460.17 -158.79,848.4 -476.12,1164.94 -317.47,316.41 -707,474.67 -1168.51,474.67l-20430.92 0zm10224.1 4418.89c-823.69,0 -1528.84,-291.63 -2115.41,-874.63 -586.54,-583.13 -879.83,-1284.08 -879.83,-2102.83l5981.91 0c0,821.39 -292.43,1522.99 -877.41,2104.81 -584.84,581.68 -1287.89,872.65 -2109.26,872.65zm-5791.73 -7697.99l11566.22 0 0 -9796.51c0,-1585.48 -566.26,-2942.77 -1698.78,-4071.83 -1132.54,-1129.06 -2493.96,-1693.6 -4084.34,-1693.6 -1590.36,0 -2951.79,564.54 -4084.3,1693.6 -1132.53,1129.06 -1698.8,2486.35 -1698.8,4071.83l0 9796.51z"/>
 </g>
</svg>
