<svg viewBox="0 0 19 23" xmlns="http://www.w3.org/2000/svg">
<path id="Vector" d="M2.21282 19.2928C1.86261 19.2928 1.56706 19.1727 1.32617 18.9326C1.08529 18.6924 0.964844 18.3978 0.964844 18.0486C0.964844 17.6995 1.08529 17.4049 1.32617 17.1647C1.56706 16.9246 1.86261 16.8045 2.21282 16.8045H3.08036V9.37058C3.08036 7.80089 3.5495 6.40091 4.4878 5.17064C5.4261 3.94037 6.65288 3.1364 8.16816 2.75873V2.04544C8.16816 1.54793 8.34282 1.12505 8.69214 0.776796C9.04146 0.428528 9.46563 0.254395 9.96467 0.254395C10.4637 0.254395 10.8879 0.428528 11.2372 0.776796C11.5865 1.12505 11.7612 1.54793 11.7612 2.04544V2.75873C13.2808 3.1364 14.5087 3.93928 15.4448 5.16736C16.3809 6.39545 16.849 7.79653 16.849 9.37058V16.8045H17.7165C18.0667 16.8045 18.3623 16.9246 18.6032 17.1647C18.844 17.4049 18.9645 17.6995 18.9645 18.0486C18.9645 18.3978 18.844 18.6924 18.6032 18.9326C18.3623 19.1727 18.0667 19.2928 17.7165 19.2928H2.21282ZM9.97122 22.646C9.34617 22.646 8.81108 22.4247 8.36597 21.9823C7.92088 21.5398 7.69833 21.0079 7.69833 20.3866H12.2376C12.2376 21.0099 12.0157 21.5423 11.5718 21.9838C11.128 22.4252 10.5945 22.646 9.97122 22.646ZM5.57626 16.8045H14.3531V9.37058C14.3531 8.16746 13.9234 7.13751 13.064 6.28074C12.2046 5.42397 11.1715 4.99558 9.96467 4.99558C8.75785 4.99558 7.72475 5.42397 6.86536 6.28074C6.00596 7.13751 5.57626 8.16746 5.57626 9.37058V16.8045Z" />
</svg>
