<svg xmlns="http://www.w3.org/2000/svg" viewBox="120 -820 718.46 686.85"><path d="M481-133.154q-108-108.23-177.885-182Q233.23-388.923 192.5-442.692q-40.731-53.77-56.616-94.693Q120-578.308 120-620q0-83.539 58.231-141.769Q236.461-820 320-820q38.077 0 73.923 13.038 35.846 13.039 65 37.885L393.077-540h122.462L482-202.743 608.513-620H486.154l59.461-178.154q21.154-10.923 44.808-16.385Q614.077-820 638.462-820q83.538 0 141.769 58.231 58.231 58.23 58.231 141.769 0 42.308-16.744 84.128-16.743 41.821-57.948 96.603-41.206 54.782-110.077 128Q584.821-238.051 481-133.154Z"/></svg>