<svg xmlns="http://www.w3.org/2000/svg" viewBox="147.69 -809.21 665.54 647.83"><path d="M253.385-161.384q-29.659 0-57.291-11.154-27.633-11.154-48.402-31.616 20.846-10.077 38.269-32.615 17.423-22.539 17.423-56.616 0-38.012 27.077-64.006t65.041-25.994q37.964 0 63.923 25.9 25.96 25.899 25.96 63.778 0 54.823-38.775 93.573-38.775 38.75-93.225 38.75Zm0-50.001q33 0 57.5-24.5t24.5-57.5q0-17-11.5-28.5t-28.5-11.5q-17 0-29.5 11.5t-12.5 28.5q0 23-7 44t-21 36.211q5 1.789 14 1.789h14ZM460-378l-78.462-78.462 339.338-341.231q11.372-11 28.43-11.5 17.057-.5 29.463 11.5l22.462 22.462q12 12 12 28t-12 28L460-378Zm-165.615 84.615Z"/></svg>