<svg xmlns="http://www.w3.org/2000/svg" version="1.1" viewBox="32.5 32.19 447.44 447.83"><path d="M 248 33.783 C 243.463 36.252, 234.129 51.238, 222.016 75.500 C 212.406 94.748, 206.539 110.725, 205.447 120.612 C 203.257 140.463, 215.146 161.930, 233.250 170.813 L 240 174.125 240 183.063 L 240 192 172.105 192 C 107.204 192, 103.927 192.088, 97.783 193.985 C 90.812 196.138, 81.074 202.014, 76.851 206.614 C 72.386 211.478, 68.026 219.185, 65.964 225.855 C 64.063 232.006, 64 235.691, 64 340.105 L 64 448 53.901 448 C 42.402 448, 38.305 449.362, 34.730 454.373 C 32.973 456.837, 32.500 458.878, 32.500 464 C 32.500 471.462, 34.198 474.555, 40.148 477.939 L 43.797 480.014 257.148 479.757 L 470.500 479.500 473.712 477.090 C 482.231 470.698, 481.959 457.044, 473.182 450.500 C 470.953 448.838, 468.601 448.443, 459.250 448.164 L 448 447.828 448 340.019 C 448 235.691, 447.937 232.006, 446.036 225.855 C 443.974 219.185, 439.614 211.478, 435.149 206.614 C 430.926 202.014, 421.188 196.138, 414.217 193.985 C 408.073 192.088, 404.796 192, 339.895 192 L 272 192 272 183.063 L 272 174.125 278.741 170.813 C 292.680 163.963, 303.395 149.440, 306.032 133.820 C 307.563 124.746, 306.251 114.769, 301.864 102.132 C 295.169 82.851, 271.086 38.263, 265.310 34.457 C 261.188 31.741, 252.381 31.398, 248 33.783 M 249.006 94.250 C 242.104 108.685, 238 120.379, 238 125.611 C 238 138.888, 252.965 147.644, 264.539 141.139 C 273.665 136.010, 275.896 127.506, 271.530 114.487 C 268.067 104.162, 257.473 82, 256 82 C 255.374 82, 252.227 87.513, 249.006 94.250 M 107.315 225.095 C 102.958 226.365, 98.261 231.316, 97.012 235.956 C 96.361 238.373, 96.073 253.411, 96.238 276.360 L 96.500 312.914 121.500 295.477 C 135.434 285.757, 148.934 277.102, 152 275.923 C 160.920 272.491, 168.918 271.530, 177.246 272.891 C 189.144 274.835, 194.579 278.144, 218.400 297.953 C 230.445 307.969, 241.387 316.577, 242.715 317.082 C 246.369 318.471, 251.741 318.185, 255.156 316.419 C 256.837 315.550, 266.827 307.599, 277.356 298.750 C 287.885 289.900, 298.750 281.232, 301.500 279.487 C 315.462 270.627, 333.670 269.709, 348.363 277.125 C 351.587 278.753, 367.861 289.290, 384.526 300.542 C 401.192 311.794, 415.109 321, 415.454 321 C 415.799 321, 415.950 301.762, 415.790 278.250 C 415.505 236.307, 415.459 235.434, 413.319 232 C 412.120 230.075, 409.645 227.600, 407.819 226.500 C 404.543 224.526, 402.576 224.498, 257.500 224.334 C 169.498 224.234, 109.222 224.540, 107.315 225.095 M 165 305.717 C 164.175 306.024, 148.313 316.849, 129.750 329.771 L 96 353.267 96 400.633 L 96 448 256 448 L 416 448 416 404.495 L 416 360.989 373.974 332.995 C 333.755 306.203, 331.745 305, 327.224 305.004 C 324.393 305.006, 321.298 305.746, 319.500 306.850 C 317.850 307.863, 307.275 316.441, 296 325.913 C 275.365 343.246, 268.434 347.740, 258.972 349.921 C 248.769 352.272, 236.010 350.589, 226.233 345.603 C 223.630 344.275, 211.645 335.009, 199.600 325.012 C 187.555 315.016, 176.613 306.423, 175.285 305.918 C 172.669 304.923, 167.406 304.820, 165 305.717" stroke="none" fill-rule="evenodd"/></svg>