
<svg xmlns="http://www.w3.org/2000/svg" xml:space="preserve" version="1.1"
viewBox="0 0 21000 29700"
 xmlns:xlink="http://www.w3.org/1999/xlink"
 xmlns:xodm="http://www.corel.com/coreldraw/odm/2003">
 <g id="Слой_x0020_1">
  <metadata id="CorelCorpID_0Corel-Layer"/>
  <path class="fil0" d="M2989.29 24093.64c-591.48,0 -1092.22,-190.9 -1502.2,-572.7 -409.98,-382.23 -614.74,-848.55 -614.74,-1399.81l0 -14606.47c0,-550.84 204.76,-1017.58 614.74,-1399.38 409.98,-382.22 910.72,-573.12 1502.2,-573.12l1621.69 0 0 -1469.19c0,-239.26 85.74,-438.99 257.66,-599.19 171.93,-159.79 386.27,-240.1 643.02,-240.1 256.76,0 471.1,80.31 643.02,240.1 171.93,160.2 258.12,359.93 258.12,599.19l0 1469.19 8873.22 0 0 -1490.21c0,-232.11 84.37,-426.38 252.19,-583.22 168.28,-156.84 377.15,-235.05 626.15,-235.05 249.45,0 457.86,78.21 626.14,235.05 168.28,156.84 252.19,351.11 252.19,583.22l0 1490.21 1621.69 0c591.49,0 1092.22,190.9 1502.2,573.12 409.99,381.8 614.75,848.54 614.75,1399.38l0 14606.47c0,551.26 -204.76,1017.58 -614.75,1399.81 -409.98,381.8 -910.71,572.7 -1502.2,572.7l-15675.09 0zm0 -1636.54l15675.09 0c89.84,0 172.84,-34.9 247.63,-105.12 75.25,-69.8 112.64,-146.75 112.64,-230.85l0 -10240.97 -16395.63 0 0 10240.97c0,84.1 37.4,161.05 112.64,230.85 74.79,70.22 157.79,105.12 247.63,105.12zm-360.27 -12213.9l16395.63 0 0 -2728.54c0,-83.68 -37.39,-160.62 -112.64,-230.85 -74.79,-69.8 -157.79,-104.7 -247.63,-104.7l-15675.09 0c-89.84,0 -172.84,34.9 -247.63,104.7 -75.24,70.23 -112.64,147.17 -112.64,230.85l0 2728.54z"/>
 </g>
</svg>
