<?xml version="1.0" standalone="no"?>
<!DOCTYPE svg PUBLIC "-//W3C//DTD SVG 20010904//EN"
 "http://www.w3.org/TR/2001/REC-SVG-20010904/DTD/svg10.dtd">
<svg version="1.0" xmlns="http://www.w3.org/2000/svg"
 width="512.000000pt" height="512.000000pt" viewBox="0 0 512.000000 512.000000"
 preserveAspectRatio="xMidYMid meet">

<g transform="translate(0.000000,512.000000) scale(0.100000,-0.100000)"
>
<path d="M132 5109 c-46 -14 -109 -80 -122 -128 -7 -27 -10 -365 -8 -1083 l3
-1043 24 -38 c13 -21 42 -50 64 -65 l41 -27 1066 0 1066 0 41 27 c22 15 51 44
64 65 l24 38 0 1066 0 1065 -27 41 c-15 22 -44 51 -65 64 l-38 24 -1050 2
c-645 1 -1063 -2 -1083 -8z m1868 -1189 l0 -800 -800 0 -800 0 0 800 0 800
800 0 800 0 0 -800z"/>
<path d="M3745 5106 c-348 -58 -635 -241 -820 -520 -141 -214 -200 -409 -200
-666 0 -257 59 -452 200 -666 173 -261 445 -443 765 -511 117 -24 343 -24 460
0 320 68 592 250 765 511 141 214 200 409 200 666 0 212 -39 372 -133 552
-168 322 -468 548 -827 623 -107 23 -309 28 -410 11z m400 -420 c255 -75 463
-283 541 -541 24 -79 28 -107 28 -225 0 -118 -4 -146 -28 -225 -77 -257 -284
-464 -541 -541 -79 -24 -107 -28 -225 -28 -118 0 -146 4 -225 28 -257 77 -464
284 -541 541 -24 79 -28 107 -28 225 0 118 4 146 28 225 58 194 188 358 369
467 175 106 415 134 622 74z"/>
<path d="M134 2389 c-68 -19 -134 -113 -134 -189 0 -83 2 -85 468 -552 l446
-448 -446 -447 c-402 -404 -447 -452 -458 -493 -42 -158 92 -292 250 -250 41
11 88 55 492 458 l448 446 447 -446 c404 -402 452 -447 493 -458 157 -42 292
93 250 250 -11 41 -55 88 -458 493 l-446 447 446 448 c403 404 447 451 458
492 42 159 -91 292 -250 250 -41 -11 -89 -56 -493 -458 l-447 -446 -448 446
c-379 379 -453 448 -487 457 -47 13 -88 13 -131 0z"/>
<path d="M4850 2388 c-27 -9 -264 -240 -1071 -1047 -903 -903 -1037 -1041
-1047 -1077 -17 -59 -15 -89 9 -144 25 -59 88 -106 153 -115 22 -3 503 -5
1067 -3 l1025 3 41 27 c22 15 51 44 64 65 l24 38 3 1025 c2 564 0 1044 -3
1066 -18 124 -141 199 -265 162z m-130 -1333 l0 -655 -657 0 -658 0 655 655
c360 360 656 655 657 655 2 0 3 -295 3 -655z"/>
</g>
</svg>
