<svg xmlns="http://www.w3.org/2000/svg" version="1.1" viewBox="25.88 -0.07 460.11 512.07"><path d="" stroke="none" fill="#080404" fill-rule="evenodd"/><path d="M 247.669 2.045 C 246.239 3.171, 244.606 5.758, 244.040 7.795 C 242.692 12.650, 242.712 40.421, 244.067 45.302 C 245.764 51.413, 252.842 54.682, 258.316 51.883 C 263.717 49.120, 263.954 48.047, 263.978 26.173 L 264 5.846 261.077 2.923 C 257.447 -0.707, 251.650 -1.086, 247.669 2.045 M 205.388 2.934 C 201.482 4.598, 198.761 9.134, 199.289 13.100 C 199.848 17.286, 212.265 38.277, 215.853 41.099 C 222.741 46.517, 233.377 39.636, 231.629 30.893 C 230.958 27.539, 218.824 7.055, 215.987 4.488 C 213.844 2.548, 208.225 1.725, 205.388 2.934 M 294.052 4.750 C 292.414 6.263, 288.132 12.395, 284.537 18.379 C 276.768 31.307, 276.110 35.263, 280.923 40.077 C 284.295 43.449, 290.044 44.059, 293.781 41.441 C 296.616 39.455, 311.001 15.334, 310.996 12.574 C 310.991 9.437, 307.325 4.074, 304.434 2.975 C 300.164 1.351, 297.182 1.861, 294.052 4.750 M 133.744 38.164 C 129.369 39.762, 121.193 54.760, 108.629 84.239 C 96.040 113.778, 87.014 141.560, 80.606 170.500 C 74.904 196.250, 73.722 208.087, 74.316 233.500 C 74.865 256.970, 76.211 266.267, 81.431 282.659 C 88.881 306.053, 101.266 323.401, 116.405 331.651 L 121.632 334.500 111.330 389.902 C 105.665 420.373, 100.791 445.542, 100.501 445.833 C 100.210 446.123, 89.966 444.398, 77.736 441.998 C 52.853 437.116, 47.463 436.832, 40.633 440.042 C 26.096 446.875, 21.041 469.101, 31.215 481.445 C 37.214 488.723, 38.243 489.018, 99.199 500.925 C 130.384 507.016, 158.345 512, 161.335 512 C 178.204 512, 190.152 493.590, 184.824 475.807 C 183.179 470.315, 176.995 463.667, 171.288 461.255 C 168.654 460.142, 156.262 457.285, 143.749 454.906 C 124.962 451.334, 121.077 450.312, 121.451 449.040 C 121.912 447.470, 142 339.409, 142 338.499 C 142 338.225, 143.480 338, 145.290 338 C 159.887 338, 182.200 325.049, 196.327 308.377 C 229.857 268.806, 245.934 213.437, 247.686 131.496 C 248.257 104.794, 247.147 77.505, 245.027 66.129 C 243.414 57.469, 245.200 58.074, 188.446 46.979 C 160.426 41.502, 137.275 37.051, 137 37.089 C 136.725 37.127, 135.260 37.611, 133.744 38.164 M 321.575 47.009 C 266.433 57.929, 267.811 57.469, 265.985 65.566 C 262.593 80.608, 262.192 147.408, 265.332 174.500 C 271.667 229.166, 283.265 264.823, 304.852 296 C 321.764 320.424, 346.884 337.928, 365.109 337.988 L 368.718 338 374.998 370.250 C 378.452 387.988, 383.394 413.300, 385.980 426.500 L 390.681 450.500 366.793 455.183 C 341.074 460.224, 336.420 461.961, 331.565 468.326 C 321.444 481.596, 325.539 501.771, 339.864 509.213 C 343.810 511.263, 346.666 512, 350.668 512 C 356.826 512, 465.810 490.944, 471.079 488.736 C 480.054 484.976, 485.973 475.898, 485.990 465.865 C 486.018 449.965, 475.735 438.022, 461.777 437.742 C 458.875 437.683, 446.494 439.599, 434.264 441.998 C 422.034 444.398, 411.777 446.111, 411.471 445.805 C 411.166 445.499, 406.226 421.230, 400.494 391.874 C 394.762 362.518, 389.836 337.540, 389.547 336.367 C 389.134 334.696, 389.684 333.959, 392.087 332.964 C 393.774 332.265, 397.707 329.738, 400.827 327.348 C 417.235 314.780, 428.959 292.064, 434.688 261.736 C 437.199 248.447, 437.213 208.993, 434.712 193.229 C 428.092 151.489, 412.194 103.143, 390.902 60 C 381.906 41.774, 379.384 38.336, 374.452 37.576 C 372.828 37.326, 349.034 41.571, 321.575 47.009 M 136.636 72.939 C 116.793 114.360, 101.671 161.848, 96.561 198.784 C 95.702 204.991, 95 212.757, 95 216.042 L 95 222.015 155.727 221.758 L 216.453 221.500 217.711 216 C 219.822 206.764, 222.822 188.265, 224.685 173 C 226.071 161.643, 226.460 150.698, 226.477 122.500 C 226.490 102.700, 226.141 84.003, 225.703 80.952 L 224.906 75.403 184.020 67.390 L 143.133 59.378 136.636 72.939 M 324.500 67.696 C 303.600 71.834, 286.221 75.665, 285.880 76.209 C 284.769 77.980, 283.872 99.220, 283.898 123.114 C 283.923 146.051, 285.019 165.027, 287.336 182.645 L 288.500 191.500 350.750 191.758 C 405.803 191.985, 413 191.840, 413 190.500 C 413 187.808, 406.985 161.794, 403.982 151.500 C 396.027 124.230, 386.333 98.601, 375.047 75 C 368.654 61.631, 367.894 60.487, 365.307 60.336 C 363.763 60.246, 345.400 63.558, 324.500 67.696 M 350.595 75.527 C 346.437 77.696, 345.068 79.929, 345.032 84.604 C 344.996 89.288, 348.107 93.487, 352.415 94.568 C 364.799 97.676, 370.290 79.483, 358.339 74.939 C 355.017 73.676, 353.997 73.753, 350.595 75.527 M 198.111 94.560 C 196.278 96.102, 194.875 98.389, 194.582 100.310 C 194.315 102.065, 193.891 118.052, 193.641 135.838 L 193.185 168.175 195.909 171.224 C 198.141 173.723, 199.405 174.273, 202.911 174.273 C 206.331 174.273, 207.790 173.671, 210.191 171.271 C 212.986 168.475, 213.252 167.554, 214.053 157.884 C 214.526 152.173, 214.932 136.993, 214.956 124.151 C 214.992 105.079, 214.716 100.205, 213.452 97.540 C 210.654 91.643, 203.280 90.211, 198.111 94.560 M 366.388 111.942 C 360.689 114.347, 358.572 121.338, 361.454 128.235 C 362.253 130.148, 365.177 139.060, 367.952 148.040 C 373.197 165.017, 375.114 168.427, 380.022 169.505 C 383.564 170.283, 389.480 167.840, 391.020 164.964 C 392.919 161.415, 392.423 157.107, 388.648 144.361 C 382.964 125.173, 379.014 115.055, 376.585 113.464 C 373.656 111.544, 368.983 110.847, 366.388 111.942 M 190.686 196.415 C 183.580 203, 187.848 214, 197.510 214 C 207.136 214, 211.105 202.834, 203.873 196.096 C 200.635 193.079, 194.115 193.237, 190.686 196.415 M 295.086 223.250 C 305.628 262.637, 324.975 294.888, 346.903 309.627 C 370.905 325.761, 394.225 315.562, 407.153 283.276 C 412.764 269.263, 415.051 255.868, 415.695 233.250 L 416.271 213 354.307 213 L 292.343 213 295.086 223.250 M 95.464 248.250 C 98.940 276.250, 105.998 294.137, 118.450 306.500 C 127.224 315.212, 132.489 317.396, 143.389 316.845 C 154.346 316.292, 163.686 311.259, 175.577 299.500 C 188.135 287.082, 200.874 266.846, 207.841 248.250 L 209.808 243 152.310 243 L 94.812 243 95.464 248.250 M 48.571 459.571 C 46.661 461.482, 46.501 467.341, 48.318 468.849 C 49.703 469.998, 155.638 491, 160.050 491 C 161.452 491, 163.140 490.460, 163.800 489.800 C 165.244 488.356, 165.404 481.368, 164.013 480.508 C 163.304 480.070, 51.847 458, 50.343 458 C 50.233 458, 49.436 458.707, 48.571 459.571 M 405 468.893 C 375.025 474.778, 349.712 479.896, 348.750 480.265 C 347.505 480.743, 347 482.042, 347 484.769 C 347 489.238, 348.400 491, 351.950 491 C 354.709 491, 460.486 470.518, 463.296 469.440 C 466.968 468.031, 464.346 457.685, 460.421 458.097 C 459.915 458.150, 434.975 463.008, 405 468.893" fill-rule="evenodd"/></svg>