<?xml version="1.0" standalone="no"?>
<!DOCTYPE svg PUBLIC "-//W3C//DTD SVG 20010904//EN"
 "http://www.w3.org/TR/2001/REC-SVG-20010904/DTD/svg10.dtd">
<svg version="1.0" xmlns="http://www.w3.org/2000/svg"
 width="100.000000pt" height="100.000000pt" viewBox="0 0 100.000000 100.000000"
 preserveAspectRatio="xMidYMid meet">

<g transform="translate(0.000000,100.000000) scale(0.100000,-0.100000)"
 stroke="none">
<path d="M374 985 c-200 -43 -355 -208 -371 -391 -10 -127 48 -261 151 -346
l36 -29 0 -110 0 -109 104 64 105 64 118 4 c91 4 131 10 175 27 89 35 172 95
223 163 250 333 -98 760 -541 663z m251 -80 c128 -34 234 -123 275 -233 53
-140 -6 -306 -138 -391 -87 -55 -154 -74 -277 -75 -106 -1 -112 -2 -163 -34
-29 -17 -54 -32 -57 -32 -3 0 -5 28 -5 63 l0 63 -44 31 c-82 58 -136 165 -136
268 0 152 122 294 291 339 72 19 181 20 254 1z"/>
</g>
</svg>
