<svg xmlns="http://www.w3.org/2000/svg" viewBox="80.5 -774.5 787.5 649"><path d="m661-342 151.5-130.5 21 1.5q16 1.5 25.25 12.75T868-433.5q0 7.5-3 15.25T855-405l-106 92 32.5 140q1 2 1 4.25v4.25q0 16-11.25 26.75T745-127q-5 0-9.75-1.5t-9.75-4L707-144l-46-198Zm-91.5-283.5L524-732l8-19.5q5-11.5 14.5-17.25t20-5.75q10.5 0 20 5.5t14.5 17l57 134-88.5-7.5ZM290-241.5 420-320l130 79-34.5-148 115-99-151-13.5-59.5-140L360.5-502l-151 13 115 99.5-34.5 148Zm-93.5 70L241-362 93-490q-7-5.5-9.75-13t-2.75-15q0-13.5 9-24.5t25-13l195-17 76-179.5q5-11.5 14.5-17t20-5.5q10.5 0 20 5.5t14.5 17l76 179.5 195 17q16 2 25 13t9 24.5q0 7.5-2.75 15T747-490L599-362l44.5 190.5q1 3 1 8.5 0 16-11.25 26.75T607-125.5q-2 0-19.5-5.5L420-232 252.5-131q-5 3-9.75 4.25T233-125.5q-17 0-29.25-13.75t-7.25-32.25ZM420-421Z"/></svg>