<svg xmlns="http://www.w3.org/2000/svg" version="1.1" viewBox="21.02 21.15 469.83 469.68"><path d="" fill-rule="evenodd"/><path d="M 236.500 21.685 C 234.300 21.877, 227.566 22.731, 221.536 23.583 C 215.505 24.435, 204.705 26.636, 197.536 28.475 C 190.366 30.314, 179.775 33.599, 174 35.776 C 168.225 37.952, 159.225 41.784, 154 44.290 C 148.775 46.796, 140.225 51.419, 135 54.563 C 129.775 57.707, 120.325 64.131, 114 68.839 C 107.675 73.547, 96.866 83.047, 89.980 89.950 C 83.093 96.852, 73.613 107.675, 68.911 114 C 64.210 120.325, 58.428 128.612, 56.062 132.415 C 53.696 136.219, 49.168 144.544, 46 150.915 C 42.831 157.287, 38.609 166.664, 36.616 171.753 C 34.623 176.842, 31.640 185.822, 29.987 191.709 C 28.334 197.597, 26.094 207.158, 25.009 212.957 C 23.925 218.756, 22.579 228.160, 22.019 233.856 C 21.458 239.552, 21.008 249.677, 21.017 256.356 C 21.027 263.035, 21.480 272.775, 22.024 278 C 22.569 283.225, 23.737 291.772, 24.620 296.992 C 25.504 302.213, 27.713 311.909, 29.530 318.538 C 31.347 325.168, 34.496 334.846, 36.529 340.046 C 38.562 345.246, 42.710 354.575, 45.747 360.778 C 48.784 366.981, 54.730 377.331, 58.960 383.778 C 63.190 390.225, 69.510 399.100, 73.004 403.500 C 76.498 407.900, 84.114 416.257, 89.928 422.072 C 95.743 427.886, 104.084 435.477, 108.465 438.940 C 112.845 442.404, 120.289 447.832, 125.006 451.004 C 129.723 454.176, 137.639 459.023, 142.598 461.777 C 147.557 464.530, 156.351 468.846, 162.140 471.367 C 167.930 473.887, 176.904 477.341, 182.083 479.041 C 187.262 480.741, 196 483.216, 201.500 484.541 C 207 485.866, 216 487.648, 221.500 488.500 C 227 489.353, 238.925 490.326, 248 490.661 C 257.844 491.026, 269.180 490.812, 276.101 490.131 C 282.482 489.504, 291.932 488.265, 297.101 487.378 C 302.271 486.491, 311.921 484.281, 318.546 482.466 C 325.171 480.651, 334.846 477.500, 340.046 475.464 C 345.246 473.427, 354.897 469.077, 361.493 465.796 C 368.089 462.515, 377.989 456.887, 383.493 453.288 C 388.997 449.689, 397.325 443.786, 402 440.169 C 406.675 436.552, 415.908 428.172, 422.517 421.546 C 429.127 414.921, 438.401 404.325, 443.127 398 C 447.854 391.675, 454.288 382.225, 457.426 377 C 460.564 371.775, 464.959 363.675, 467.192 359 C 469.425 354.325, 472.993 346.125, 475.121 340.777 C 477.250 335.429, 480.339 326.252, 481.987 320.383 C 483.635 314.514, 485.855 305.165, 486.921 299.606 C 487.987 294.048, 489.400 283.875, 490.061 277 C 490.773 269.596, 491.035 257.977, 490.704 248.500 C 490.396 239.700, 489.397 227.550, 488.484 221.500 C 487.570 215.450, 485.300 204.534, 483.439 197.243 C 481.577 189.952, 478.024 178.794, 475.543 172.449 C 473.062 166.103, 468.237 155.419, 464.822 148.706 C 461.406 141.993, 455.329 131.633, 451.317 125.685 C 447.305 119.737, 441.211 111.412, 437.774 107.185 C 434.336 102.958, 427.244 95.220, 422.012 89.988 C 416.780 84.756, 409.042 77.664, 404.815 74.226 C 400.588 70.789, 392.263 64.695, 386.315 60.683 C 380.367 56.671, 370.100 50.642, 363.500 47.285 C 356.900 43.927, 346.846 39.327, 341.157 37.061 C 335.468 34.795, 326.078 31.612, 320.290 29.987 C 314.502 28.362, 304.982 26.141, 299.133 25.052 C 293.285 23.963, 283.840 22.606, 278.144 22.036 C 272.448 21.466, 261.648 21.076, 254.144 21.168 C 246.640 21.261, 238.700 21.493, 236.500 21.685 M 240.591 65.044 C 235.142 65.521, 225.692 66.865, 219.591 68.029 C 213.491 69.193, 203.017 71.927, 196.316 74.104 C 189.615 76.281, 177.465 81.421, 169.316 85.526 C 161.167 89.631, 150.225 96.024, 145 99.732 C 139.498 103.638, 129.393 112.582, 120.987 120.987 C 112.453 129.522, 103.710 139.413, 99.763 145 C 96.072 150.225, 89.927 160.575, 86.108 168 C 82.289 175.425, 77.309 186.890, 75.041 193.479 C 72.774 200.067, 69.828 210.867, 68.495 217.479 C 67.162 224.090, 65.594 235.463, 65.010 242.750 L 63.950 256 65.010 269.250 C 65.594 276.538, 67.162 287.910, 68.495 294.521 C 69.828 301.133, 72.752 311.857, 74.991 318.353 C 77.231 324.849, 81.334 334.687, 84.109 340.216 C 86.883 345.746, 91.565 354.146, 94.512 358.885 C 97.459 363.623, 102.772 371.100, 106.320 375.500 C 109.867 379.900, 117.433 388.028, 123.134 393.562 C 128.836 399.096, 136.887 406.127, 141.026 409.186 C 145.165 412.244, 151.584 416.603, 155.291 418.872 C 158.997 421.141, 166.487 425.233, 171.933 427.967 C 177.380 430.700, 187.151 434.769, 193.647 437.009 C 200.143 439.248, 210.867 442.175, 217.479 443.513 C 224.090 444.850, 235.329 446.384, 242.453 446.922 L 255.406 447.900 268.897 446.936 C 276.317 446.406, 287.840 444.868, 294.502 443.519 C 301.165 442.170, 311.315 439.443, 317.058 437.460 C 322.801 435.476, 332.225 431.612, 338 428.871 C 343.775 426.131, 351.875 421.807, 356 419.262 C 360.125 416.718, 366.861 412.130, 370.970 409.068 C 375.078 406.005, 382.643 399.483, 387.781 394.574 C 392.918 389.664, 399.960 382.239, 403.428 378.074 C 406.897 373.908, 412.727 365.928, 416.384 360.339 C 420.040 354.751, 425.486 345.076, 428.484 338.839 C 431.483 332.603, 435.718 322.075, 437.894 315.445 C 440.071 308.815, 442.788 298.542, 443.932 292.617 C 445.075 286.691, 446.436 275.895, 446.955 268.624 L 447.900 255.406 446.922 242.453 C 446.384 235.329, 444.850 224.090, 443.513 217.479 C 442.175 210.867, 439.248 200.143, 437.009 193.647 C 434.769 187.151, 430.658 177.297, 427.874 171.749 C 425.090 166.201, 420.609 158.110, 417.917 153.769 C 415.224 149.427, 410.892 143.091, 408.290 139.688 C 405.689 136.284, 399.046 128.838, 393.530 123.140 C 388.013 117.442, 380.125 110.053, 376 106.720 C 371.875 103.387, 364.832 98.288, 360.349 95.388 C 355.866 92.489, 347.271 87.645, 341.248 84.624 C 335.225 81.604, 325.670 77.522, 320.015 75.553 C 314.360 73.585, 306.305 71.107, 302.116 70.048 C 297.927 68.988, 289.775 67.449, 284 66.628 C 278.225 65.806, 268.325 64.919, 262 64.655 C 255.675 64.392, 246.041 64.567, 240.591 65.044 M 249.558 107.248 L 245.615 108.290 240.914 112.991 L 236.212 117.693 235.042 123.096 L 233.871 128.500 234.185 195 L 234.500 261.500 236.347 265 C 237.363 266.925, 253.563 283.943, 272.347 302.818 C 291.131 321.693, 308.170 338.005, 310.210 339.068 L 313.920 341 319.803 341 L 325.685 341 330.093 338.673 C 332.517 337.394, 335.836 334.449, 337.470 332.130 L 340.439 327.914 340.823 321.120 L 341.207 314.327 339.172 310.413 C 338.042 308.242, 323.976 293.373, 307.568 277.006 L 278 247.513 278 187.199 L 278 126.886 276.825 122.221 L 275.651 117.555 271.048 112.952 L 266.445 108.349 261.779 107.175 C 259.214 106.529, 256.301 106.047, 255.307 106.103 C 254.313 106.160, 251.726 106.675, 249.558 107.248"  fill-rule="evenodd"/></svg>