<svg xmlns="http://www.w3.org/2000/svg" viewBox="241.48 -719 477.52 477.52"><path d="M480-410.912 325.044-255.956Q310.087-240.999 291-241.499q-19.087-.5-34.044-15.457-14.957-14.957-14.957-34.544 0-19.587 14.957-34.544L410.912-480 255.956-634.956q-14.957-14.957-14.457-34.544.5-19.587 15.457-34.544 14.957-14.957 34.544-14.957 19.587 0 34.544 14.957L480-549.088l154.956-154.956q14.957-14.957 34.544-14.957 19.587 0 34.544 14.957 14.957 14.957 14.957 34.544 0 19.587-14.957 34.544L549.088-480l154.956 154.956q14.957 14.957 14.957 34.044 0 19.087-14.957 34.044-14.957 14.957-34.544 14.957-19.587 0-34.544-14.957L480-410.912Z"/></svg>