<svg xmlns="http://www.w3.org/2000/svg" width="904" height="758" viewBox="0 0 904 758" version="1.1"><path d="M 145.500 1.785 C 130.090 2.663, 114.953 12.464, 108.844 25.519 C 102.752 38.538, 103.060 27.105, 102.972 243.463 C 102.910 395.485, 102.614 441.762, 101.696 442.875 C 100.764 444.005, 100.776 444.418, 101.750 444.746 C 102.655 445.050, 102.999 448.389, 102.997 456.833 C 102.994 465.915, 103.477 470.131, 105.175 475.860 C 107.319 483.094, 107.324 483.238, 105.428 484.244 C 102.239 485.936, 92.936 496.270, 91.471 499.750 C 90.718 501.538, 89.599 503, 88.984 503 C 88.330 503, 88.122 503.810, 88.484 504.949 C 88.894 506.242, 88.330 507.670, 86.807 509.193 C 85.544 510.456, 84.652 512.104, 84.825 512.856 C 84.997 513.607, 84.223 515.075, 83.103 516.118 C 81.939 517.203, 81.323 518.677, 81.663 519.563 C 82.007 520.462, 81.354 521.953, 80.106 523.116 C 78.923 524.218, 78.179 525.481, 78.453 525.924 C 79.033 526.862, 75.468 534.593, 74.051 535.468 C 73.521 535.796, 73.308 536.639, 73.578 537.342 C 73.848 538.045, 72.928 540.301, 71.534 542.355 C 70.140 544.408, 69 546.681, 69 547.405 C 69 548.129, 67.875 550.379, 66.500 552.405 C 65.125 554.431, 64 556.782, 64 557.629 C 64 558.476, 61.975 563.040, 59.500 567.770 C 57.025 572.499, 55 576.743, 55 577.199 C 55 577.953, 47.195 595.025, 44.907 599.275 C 44.382 600.251, 35.188 620.401, 24.476 644.053 C 11.610 672.462, 5 688.193, 5 690.406 C 5 693.691, 5.940 696.463, 10.458 706.500 C 11.696 709.250, 14.385 715.601, 16.434 720.613 C 19.379 727.818, 21.241 730.781, 25.329 734.770 C 30.957 740.260, 41.264 745.277, 50.364 746.955 C 53.189 747.476, 57.906 748.442, 60.847 749.103 C 63.982 749.807, 66.465 749.929, 66.847 749.399 C 67.235 748.862, 157.723 748.757, 290 749.140 C 579.943 749.980, 851.287 749.945, 847.500 749.069 L 844.500 748.375 847.500 747.722 C 849.150 747.362, 852.300 746.764, 854.500 746.392 C 858.616 745.697, 866.435 742.355, 871.199 739.256 C 875.868 736.219, 882.635 726.824, 886.508 718 C 888.561 713.325, 891.271 707.475, 892.530 705 C 894.723 700.691, 896.541 691.220, 896.167 686.056 C 895.935 682.850, 891.920 671, 891.066 671 C 890.701 671, 889.804 669.313, 889.074 667.250 C 888.343 665.188, 886.496 660.954, 884.970 657.842 C 883.443 654.730, 881.871 651.130, 881.477 649.842 C 880.714 647.347, 877.650 640.287, 873.080 630.500 C 871.539 627.200, 868.684 620.900, 866.735 616.500 C 864.787 612.100, 861.655 605.125, 859.777 601 C 857.899 596.875, 855.493 591.364, 854.431 588.754 C 853.369 586.143, 852.163 584.006, 851.750 584.004 C 851.337 584.002, 851 582.902, 851 581.559 C 851 580.216, 850.550 578.840, 850 578.500 C 849.450 578.160, 849 577.190, 849 576.345 C 849 575.500, 848.194 573.614, 847.208 572.154 C 846.223 570.694, 844.476 567.250, 843.325 564.500 C 838.427 552.788, 836.484 548.470, 835.901 548 C 835.561 547.725, 834.690 545.700, 833.968 543.500 C 833.245 541.300, 831.606 537.165, 830.327 534.312 C 829.047 531.458, 828 528.755, 828 528.303 C 828 527.852, 825.975 523.514, 823.500 518.664 C 821.025 513.815, 819 509.230, 819 508.476 C 819 507.266, 816.078 501.171, 813.491 496.985 C 812.987 496.170, 812.558 494.602, 812.537 493.501 C 812.517 492.401, 811.978 491.599, 811.339 491.720 C 810.701 491.841, 808.565 490.154, 806.592 487.970 C 804.619 485.787, 802.517 484, 801.919 484 C 801.322 484, 801.003 483.663, 801.210 483.250 C 803.163 479.362, 806 472.650, 806 471.917 C 806 471.413, 806.337 471, 806.750 471.001 C 807.163 471.001, 807.373 459.639, 807.217 445.751 C 807.061 431.863, 806.836 334.325, 806.717 229 L 806.500 37.500 804.182 31.581 C 797.938 15.638, 784.165 4.136, 769.305 2.455 C 763.748 1.826, 156.224 1.174, 145.500 1.785 M 139.500 11.169 C 125.602 15.851, 116.785 24.812, 114.018 37.066 C 113.076 41.236, 112.701 91.879, 112.404 254.729 C 112.039 454.869, 112.116 467.211, 113.764 471.405 C 116.807 479.152, 121.142 484.260, 127.316 487.373 C 132.666 490.070, 133.963 490.278, 148.507 490.766 L 164 491.287 164 488.233 L 164 485.179 149.464 485.339 C 139.858 485.446, 134.686 485.128, 134.214 484.404 C 133.821 483.801, 132.271 483.007, 130.769 482.640 C 127.068 481.734, 121.208 475.679, 118.623 470.089 L 116.500 465.500 116.376 256.570 C 116.245 37.750, 116.192 40.710, 120.423 32.393 C 122.541 28.229, 131.599 19.780, 137.073 16.860 L 141.500 14.500 453.500 14.500 C 700.917 14.500, 766.354 14.760, 769.626 15.755 C 774.483 17.233, 782.154 23.103, 786.808 28.904 C 793.661 37.446, 793.218 22.371, 793.366 252 C 793.464 404.380, 793.196 461.014, 792.355 465.199 C 790.616 473.848, 786.133 479.248, 777.500 483.091 C 773.307 484.958, 770.605 485.332, 760.750 485.409 L 749 485.500 749 488.346 L 749 491.192 762.750 490.822 C 775.592 490.476, 776.886 490.258, 782.355 487.512 C 789.136 484.108, 794.501 478.337, 796.264 472.553 C 797.229 469.390, 797.500 421.509, 797.500 254.500 L 797.500 40.500 795.182 34.761 C 791.071 24.580, 787.158 19.968, 778.417 15 L 770.500 10.500 456.500 10.329 C 247.152 10.215, 141.500 10.495, 139.500 11.169 M 141.500 22.668 C 135.194 24.041, 128.938 28.711, 125.349 34.725 L 122.500 39.500 122.241 251.581 L 121.982 463.662 125.857 469.658 C 131.077 477.734, 135.293 479.721, 147.500 479.860 C 152.450 479.916, 158.070 479.616, 159.989 479.192 C 163.033 478.521, 163.555 477.955, 164.073 474.764 C 164.774 470.456, 166.276 468.426, 170.305 466.342 C 172.767 465.069, 177.424 464.862, 198.378 465.093 C 212.195 465.246, 225.075 465.778, 227 466.276 C 228.925 466.775, 231.871 468.491, 233.548 470.091 L 236.595 473 460.239 473 C 689.518 473, 685.430 473.063, 685.485 469.513 C 685.493 468.971, 686.850 467.846, 688.500 467.013 C 690.942 465.781, 696.191 465.500, 716.728 465.500 L 741.956 465.500 744.587 468.132 C 746.422 469.967, 747.380 472.194, 747.751 475.481 L 748.282 480.198 760.391 479.759 C 770.254 479.402, 773.279 478.920, 776.698 477.162 C 782.120 474.374, 785.671 469.642, 786.989 463.447 C 787.713 460.049, 787.958 393.040, 787.771 249.500 L 787.500 40.500 784.624 36.071 C 780.853 30.263, 778.398 27.786, 773.270 24.615 L 769.040 22 456.270 22.116 C 284.246 22.180, 142.600 22.428, 141.500 22.668 M 451.255 27.312 C 449.470 28.515, 447.825 30.175, 447.598 31 C 445.898 37.188, 446.001 37.932, 449.041 41.394 C 453.918 46.949, 460.427 46.423, 464.921 40.111 C 468.707 34.794, 466.823 29.078, 460.401 26.394 C 456.083 24.590, 455.154 24.683, 451.255 27.312 M 156.910 49.927 C 152.101 50.873, 144.482 57.407, 142.328 62.432 C 140.691 66.248, 140.580 77.511, 140.520 244.500 C 140.485 342.400, 140.813 426.255, 141.250 430.845 C 142.160 440.423, 144.203 443.959, 151.923 449.321 L 156.500 452.500 454.500 452.500 C 742.600 452.500, 752.624 452.438, 756.227 450.647 C 758.276 449.628, 761.641 446.928, 763.704 444.647 C 765.767 442.366, 767.706 440.580, 768.013 440.679 C 768.320 440.777, 768.726 440.102, 768.915 439.179 C 769.104 438.255, 769.435 355.150, 769.651 254.500 C 769.920 128.743, 769.713 69.952, 768.989 66.553 C 767.737 60.668, 764.343 55.917, 758.742 52.211 L 754.646 49.500 457.573 49.360 C 294.183 49.283, 158.884 49.538, 156.910 49.927 M 185 56.883 C 185 57.369, 184.156 57.987, 183.125 58.257 C 182.093 58.527, 179.450 61.167, 177.249 64.124 C 175.049 67.081, 169.031 73.953, 163.875 79.396 C 153.262 90.599, 148.432 96.766, 149.462 97.795 C 149.849 98.182, 151.508 96.924, 153.150 94.999 C 154.792 93.075, 157.506 90.077, 159.181 88.338 C 161.057 86.390, 161.931 84.698, 161.459 83.933 C 161.021 83.225, 161.101 82.945, 161.646 83.281 C 162.668 83.913, 170.738 75.944, 180.800 64.366 C 187.089 57.129, 187.791 56, 186 56 C 185.450 56, 185 56.398, 185 56.883 M 158.562 57.771 C 158.161 58.172, 157.308 58.500, 156.667 58.500 C 156.025 58.500, 154.037 60.688, 152.250 63.363 C 149.587 67.347, 149 69.200, 149 73.613 C 149 76.576, 149.186 79, 149.413 79 C 149.641 79, 151.230 77.088, 152.945 74.750 C 154.659 72.412, 158.984 67.522, 162.556 63.881 L 169.049 57.262 164.170 57.152 C 161.486 57.092, 158.963 57.370, 158.562 57.771 M 172.653 58.831 C 171.741 59.838, 171.334 61.035, 171.748 61.491 C 172.162 61.948, 172.001 62.036, 171.391 61.688 C 170.781 61.341, 167.856 63.657, 164.891 66.836 C 152.088 80.564, 149 84.472, 149 86.948 C 149 89.308, 149.287 89.166, 153.586 84.679 C 156.109 82.046, 157.944 79.298, 157.665 78.571 C 157.386 77.843, 157.724 77.305, 158.415 77.374 C 159.689 77.502, 174 62.865, 174 61.435 C 174 61.007, 174.745 59.835, 175.655 58.829 C 177.064 57.272, 177.087 57, 175.810 57 C 174.985 57, 173.564 57.824, 172.653 58.831 M 205.506 57.758 L 192.511 58.063 188.142 62.282 C 185.740 64.602, 181.523 69.200, 178.773 72.500 C 174.058 78.155, 161.070 92.493, 152.750 101.227 L 149 105.163 149.033 127.832 L 149.067 150.500 151.125 148 C 152.257 146.625, 158.202 140.156, 164.335 133.625 C 170.468 127.094, 176.149 120.804, 176.960 119.647 C 177.770 118.490, 181.148 114.834, 184.467 111.522 C 191.430 104.572, 197.977 97.463, 206.570 87.522 C 209.908 83.660, 216.545 76.399, 221.318 71.387 C 226.091 66.375, 230.838 61.200, 231.868 59.887 L 233.739 57.500 226.119 57.476 C 221.929 57.463, 212.652 57.589, 205.506 57.758 M 239.524 58.206 C 238.437 58.837, 235.583 61.410, 233.180 63.926 C 230.777 66.442, 226.449 70.975, 223.561 74 C 220.673 77.025, 212.053 86.467, 204.405 94.983 C 196.757 103.499, 189.779 111.149, 188.898 111.983 C 188.017 112.817, 183.779 117.325, 179.480 122 C 175.180 126.675, 168.751 133.537, 165.193 137.250 C 161.634 140.963, 159 144, 159.339 144 C 159.678 144, 157.940 145.857, 155.478 148.127 C 153.015 150.397, 151 152.835, 151 153.544 C 151 154.253, 150.511 154.996, 149.912 155.196 C 149.314 155.395, 148.977 156.780, 149.162 158.272 C 149.481 160.832, 149.897 160.527, 156.500 152.897 C 160.350 148.448, 164.061 144.289, 164.747 143.654 C 165.843 142.640, 178.369 129.011, 187.406 119 C 189.143 117.075, 196.427 109.200, 203.592 101.500 C 242.281 59.919, 247.579 53.536, 239.524 58.206 M 249.836 58.256 C 248.527 58.741, 248.005 59.569, 248.384 60.558 C 248.744 61.496, 248.562 61.847, 247.923 61.452 C 246.949 60.851, 234.003 73.852, 227.462 82 C 225.917 83.925, 222.201 88.043, 219.206 91.151 C 216.210 94.259, 214.062 97.291, 214.432 97.889 C 214.851 98.567, 214.519 98.753, 213.552 98.382 C 212.137 97.839, 211.499 98.980, 211.906 101.324 C 211.985 101.778, 211.652 101.903, 211.166 101.603 C 210.256 101.040, 203.172 108.168, 187.500 125.415 C 182.550 130.862, 175.125 138.983, 171 143.461 C 166.875 147.940, 160.251 155.180, 156.279 159.552 L 149.059 167.500 149.029 276.193 C 149.001 380.085, 149.080 384.944, 150.816 386.193 C 151.815 386.912, 152.927 388.291, 153.288 389.259 C 153.649 390.226, 154.969 391.509, 156.222 392.111 C 157.475 392.712, 159.897 395.071, 161.605 397.352 C 163.312 399.634, 165.225 401.388, 165.855 401.250 C 166.485 401.113, 167 401.578, 167 402.285 C 167 402.992, 171.838 408.298, 177.750 414.077 C 183.663 419.856, 192.396 428.840, 197.157 434.042 L 205.815 443.500 435.656 443.768 C 598.627 443.958, 666.257 443.722, 668.107 442.956 C 669.542 442.361, 672.446 440.103, 674.561 437.937 C 680.697 431.654, 682.363 432.917, 676.442 439.364 C 674.491 441.489, 673.122 443.455, 673.400 443.733 C 674.017 444.351, 679.804 438.719, 687.511 430 C 690.671 426.425, 694.473 422.150, 695.960 420.500 C 697.448 418.850, 702.634 413, 707.486 407.500 C 712.338 402, 720.626 392.847, 725.904 387.160 C 731.182 381.473, 735.900 376.073, 736.389 375.160 C 736.879 374.247, 738.714 372.150, 740.469 370.500 C 742.223 368.850, 747.223 363.450, 751.579 358.500 C 755.936 353.550, 759.837 349.350, 760.250 349.167 C 760.663 348.983, 761 285.230, 761 207.493 L 761 66.153 758.467 63.143 C 757.074 61.488, 754.429 59.637, 752.589 59.030 C 748.701 57.746, 253.275 56.984, 249.836 58.256 M 320 206.302 C 318.075 206.906, 314.007 209.898, 310.961 212.950 C 304.827 219.096, 303 223.468, 303 232 C 303 240.537, 304.826 244.904, 310.961 251.039 C 317.096 257.174, 321.463 259, 330 259 C 338.537 259, 342.904 257.174, 349.039 251.039 C 355.174 244.904, 357 240.537, 357 232 C 357 229.103, 356.455 224.880, 355.789 222.616 C 354.154 217.056, 344.944 207.846, 339.384 206.211 C 334.418 204.750, 324.803 204.795, 320 206.302 M 571 206.302 C 569.075 206.906, 565.007 209.898, 561.961 212.950 C 555.827 219.096, 554 223.468, 554 232 C 554 240.537, 555.826 244.904, 561.961 251.039 C 568.096 257.174, 572.463 259, 581 259 C 589.537 259, 593.904 257.174, 600.039 251.039 C 606.174 244.904, 608 240.537, 608 232 C 608 229.103, 607.455 224.880, 606.789 222.616 C 605.154 217.056, 595.944 207.846, 590.384 206.211 C 585.418 204.750, 575.803 204.795, 571 206.302 M 410.612 252.876 C 408.174 255.570, 407.632 260.622, 408.903 268.811 C 410.331 278.015, 412.984 282.984, 419.359 288.396 C 429.526 297.027, 443.074 296.776, 452.500 287.780 L 456.500 283.963 459.073 286.982 C 460.488 288.642, 461.993 290, 462.418 290 C 462.843 290, 464.528 290.952, 466.161 292.115 C 470.876 295.472, 482.063 295.201, 488.568 291.572 C 493.397 288.878, 499.061 282.414, 501.206 277.147 C 502.934 272.906, 504.818 258.694, 503.956 256.405 C 502.559 252.693, 500.083 250.945, 497.178 251.619 C 493.363 252.504, 492 254.712, 492 260.010 C 492 270.971, 486.841 279.769, 479.042 282.105 C 475.482 283.172, 474.860 283.039, 470.845 280.354 C 467.850 278.351, 465.683 275.770, 463.870 272.048 C 460.700 265.540, 459.048 264.193, 454.971 264.791 C 452.362 265.174, 451.497 266.066, 449.556 270.373 C 446.913 276.241, 444.267 279.293, 439.840 281.583 C 437.202 282.947, 436.081 283.003, 432.342 281.956 C 429.808 281.246, 426.930 279.518, 425.548 277.874 C 423.438 275.367, 419.740 265.463, 420.103 263.295 C 420.177 262.858, 420.184 260.599, 420.118 258.276 C 420.017 254.665, 419.571 253.830, 417.050 252.526 C 413.272 250.572, 412.667 250.605, 410.612 252.876 M 753.264 361.775 C 749.284 366.128, 744.784 371.225, 743.264 373.101 C 741.744 374.977, 739.375 377.666, 738 379.077 C 736.625 380.487, 732.125 385.418, 728 390.035 C 723.875 394.651, 717.670 401.594, 714.211 405.464 C 710.752 409.334, 706.702 413.881, 705.211 415.570 C 703.720 417.258, 698.624 422.883, 693.887 428.070 C 689.149 433.256, 684.142 438.850, 682.759 440.500 L 680.245 443.500 689.027 443.800 L 697.808 444.100 702.421 438.438 C 704.958 435.323, 709.276 430.759, 712.017 428.295 C 714.758 425.831, 717 423.377, 717 422.843 C 717 422.308, 718.350 420.735, 720 419.347 C 721.650 417.958, 723 416.364, 723 415.804 C 723 415.243, 725.362 412.444, 728.250 409.582 C 735.649 402.248, 745.388 391.875, 753.839 382.328 L 761.072 374.156 760.786 364.008 L 760.500 353.860 753.264 361.775 M 754.146 386.915 C 750.766 390.718, 748 394.073, 748 394.371 C 748 394.668, 745.048 397.969, 741.440 401.706 C 732.155 411.323, 729.480 414.213, 719.416 425.499 C 714.512 430.999, 708.813 437.035, 706.750 438.913 C 702.723 442.580, 702.101 444, 704.522 444 C 706.172 444, 711.256 439.026, 726 422.986 C 731.225 417.302, 737.300 410.787, 739.500 408.509 C 754.704 392.767, 760.508 385.758, 760.663 382.948 C 760.753 381.327, 760.706 380, 760.559 380 C 760.412 380, 757.526 383.112, 754.146 386.915 M 149 392.539 C 149 393.946, 163.239 409.110, 188.165 434.250 C 196.846 443.005, 200 445.416, 200 443.296 C 200 441.866, 165.924 407.423, 164.833 407.750 C 164.375 407.887, 164 407.553, 164 407.008 C 164 405.307, 151.365 391, 149.863 391 C 149.388 391, 149 391.693, 149 392.539 M 758.310 393.795 C 757.205 395.289, 750.046 403.140, 742.401 411.242 C 717.760 437.355, 712.683 443.016, 713.325 443.658 C 714.442 444.776, 760.469 397.139, 761.284 394.021 C 762.100 390.901, 760.537 390.783, 758.310 393.795 M 149 401.891 C 149 404.100, 150.953 406.867, 155.587 411.228 C 161.959 417.223, 176.084 431.685, 180.515 436.750 C 182.560 439.087, 184.707 441, 185.288 441 C 185.868 441, 187.168 441.747, 188.177 442.661 C 189.187 443.574, 190.298 444.035, 190.647 443.686 C 191.581 442.753, 154.824 405.991, 153.670 406.704 C 153.132 407.037, 152.972 406.855, 153.315 406.300 C 153.658 405.745, 152.827 404.247, 151.469 402.971 C 150.085 401.670, 149 401.196, 149 401.891 M 754.250 408.567 C 750.813 412.144, 748 415.256, 748 415.482 C 748 415.709, 744.509 419.405, 740.241 423.697 C 735.974 427.989, 730.461 433.774, 727.991 436.553 C 725.521 439.332, 723.061 441.660, 722.525 441.728 C 721.449 441.863, 720.453 444, 721.466 444 C 723.897 444, 728.846 439.699, 737.500 430.067 C 743 423.945, 750.535 415.688, 754.245 411.718 C 757.955 407.748, 760.992 403.938, 760.995 403.250 C 760.998 402.563, 760.888 402.014, 760.750 402.032 C 760.612 402.049, 757.688 404.990, 754.250 408.567 M 756.821 414.521 C 754.797 417.259, 750.635 421.960, 747.571 424.966 C 744.507 427.972, 742 430.768, 742 431.180 C 742 431.592, 739.207 434.645, 735.793 437.964 L 729.587 444 740.043 443.967 C 749.801 443.936, 750.768 443.749, 754.500 441.173 C 760.415 437.090, 761.108 434.901, 760.782 421.318 L 760.500 409.542 756.821 414.521 M 149 413 C 149 413.550, 149.450 414, 150 414 C 150.550 414, 150.887 414.526, 150.750 415.168 C 150.613 415.811, 151.625 416.929, 153 417.654 C 154.375 418.378, 155.050 418.981, 154.500 418.994 C 152.869 419.032, 179.213 444, 180.884 444 C 182.420 444, 177.650 438.554, 169.595 431.109 C 160.733 422.919, 159.822 422, 160.564 422 C 160.990 422, 158.900 419.753, 155.920 417.006 C 150.484 411.998, 149 411.138, 149 413 M 149.322 427.903 C 150.352 439.460, 154.983 444.006, 165.710 443.989 L 172.500 443.979 161.148 432.989 C 154.905 426.945, 149.571 422, 149.296 422 C 149.021 422, 149.032 424.656, 149.322 427.903 M 172.986 474.517 C 172.070 475.620, 171.918 478.137, 172.426 483.746 C 172.810 487.988, 173.359 491.693, 173.645 491.979 C 173.931 492.266, 183.551 492.595, 195.022 492.712 L 215.880 492.923 215.840 482.962 L 215.801 473 195.023 473 C 177.671 473, 174.037 473.250, 172.986 474.517 M 695.519 473.970 C 695.189 474.503, 694.996 478.804, 695.089 483.527 C 695.226 490.498, 695.526 492.012, 696.681 491.569 C 697.469 491.266, 697.831 491.464, 697.493 492.011 C 697.113 492.627, 699.516 493, 703.858 493 C 708.501 493, 711.003 492.582, 711.341 491.750 C 711.737 490.772, 712.051 490.790, 712.784 491.832 C 713.890 493.408, 736.661 493.298, 738.750 491.707 C 740.178 490.619, 740.466 485, 739.094 485 C 738.568 485, 738.602 483.633, 739.175 481.750 C 739.841 479.556, 739.819 477.607, 739.106 475.750 L 738.050 473 717.084 473 C 704.623 473, 695.875 473.393, 695.519 473.970 M 225.307 483.674 C 225.468 491.002, 225.779 492.527, 227.170 492.794 C 228.637 493.077, 228.819 492.051, 228.667 484.321 C 228.522 476.942, 228.222 475.474, 226.804 475.201 C 225.309 474.913, 225.136 475.891, 225.307 483.674 M 236 485.075 L 236 493 461.500 493 L 687 493 687 485.500 C 687 481.375, 686.888 477.938, 686.750 477.862 C 686.612 477.786, 585.138 477.595, 461.250 477.437 L 236 477.149 236 485.075 M 810 484 C 810 484.550, 811.125 485, 812.500 485 C 813.875 485, 815 484.550, 815 484 C 815 483.450, 813.875 483, 812.500 483 C 811.125 483, 810 483.450, 810 484 M 109.288 492.308 C 103.711 496.115, 102.322 498.579, 84.935 535.500 C 82.604 540.450, 76.715 552.750, 71.849 562.834 C 66.982 572.917, 63 581.309, 63 581.483 C 63 581.829, 53.787 601.399, 45.810 618 C 34.497 641.543, 25 662.221, 25 663.309 C 25 663.711, 23.825 665.901, 22.389 668.177 C 20.952 670.452, 19.682 672.805, 19.565 673.407 C 19.449 674.008, 18.670 676.075, 17.835 678 C 16.999 679.925, 15.768 683.787, 15.098 686.582 C 14.048 690.967, 14.119 692.268, 15.619 696.082 C 16.575 698.512, 17.999 701.507, 18.785 702.738 C 20.559 705.516, 28.713 710.214, 36 712.657 C 41.303 714.434, 56.081 714.510, 449 714.767 C 817.357 715.009, 857.124 714.883, 863 713.457 C 875.499 710.422, 882.726 705.635, 886.065 698.178 C 888.579 692.564, 888.201 687.708, 884.640 679.852 C 883.305 676.908, 880.308 670, 877.980 664.500 C 875.651 659, 872.453 651.676, 870.873 648.225 C 869.293 644.774, 868 641.657, 868 641.300 C 868 640.942, 866.464 637.466, 864.586 633.575 C 862.709 629.684, 859.382 622.450, 857.193 617.500 C 848.937 598.827, 843.653 587.259, 840.293 580.500 C 838.926 577.750, 836.891 573.025, 835.771 570 C 834.650 566.975, 833.350 564.011, 832.880 563.414 C 832.411 562.816, 831.332 560.357, 830.482 557.950 C 829.633 555.542, 827.871 551.306, 826.566 548.536 C 824.469 544.081, 820.798 535.837, 813.665 519.560 C 812.474 516.843, 809.250 510.138, 806.500 504.661 C 802.515 496.724, 800.770 494.289, 797.906 492.663 C 794.430 490.691, 794.191 490.682, 790.633 492.370 C 787.234 493.983, 786.507 495.983, 789.309 496.012 C 789.964 496.019, 792.383 497.774, 794.684 499.912 C 796.986 502.049, 799.195 503.506, 799.595 503.149 C 799.994 502.792, 799.985 503.082, 799.574 503.794 C 799.164 504.505, 799.372 505.743, 800.036 506.544 C 800.701 507.345, 800.934 508, 800.554 508 C 800.175 508, 800.819 509.341, 801.985 510.979 C 803.152 512.618, 804.261 514.756, 804.448 515.729 C 804.636 516.703, 806.004 519.750, 807.489 522.500 C 808.973 525.250, 810.838 529.638, 811.633 532.250 C 812.427 534.862, 813.510 537, 814.039 537 C 814.567 537, 815 537.690, 815 538.533 C 815 539.377, 816.125 542.287, 817.500 545 C 818.875 547.713, 820 550.431, 820 551.038 C 820 551.646, 820.675 552.818, 821.500 553.643 C 822.325 554.468, 823 555.984, 823 557.012 C 823 558.041, 823.416 559.139, 823.924 559.453 C 824.431 559.767, 825.623 562.381, 826.571 565.262 C 827.519 568.143, 828.568 570.725, 828.903 571 C 829.237 571.275, 830.134 573.300, 830.896 575.500 C 831.658 577.700, 832.749 579.802, 833.321 580.170 C 833.892 580.539, 834.469 581.586, 834.603 582.498 C 834.736 583.410, 835.174 584.909, 835.574 585.828 C 835.974 586.748, 836.435 588.167, 836.597 588.982 C 836.759 589.797, 837.366 590.622, 837.946 590.815 C 838.525 591.008, 839 591.662, 839 592.268 C 839 592.873, 839.866 595.198, 840.924 597.434 C 841.982 599.670, 844.058 604.425, 845.537 608 C 847.015 611.575, 848.512 614.725, 848.862 615 C 849.213 615.275, 850.017 616.850, 850.648 618.500 C 852.960 624.540, 856.516 632.513, 857.115 633 C 857.759 633.523, 859.202 637.496, 859.622 639.900 C 859.757 640.670, 860.286 641.570, 860.799 641.900 C 861.311 642.230, 862.071 643.625, 862.488 645 C 862.905 646.375, 865.596 652.450, 868.469 658.500 C 871.341 664.550, 874.481 671.300, 875.445 673.500 C 876.409 675.700, 878.163 679.525, 879.342 682 C 882.067 687.720, 882.167 694.622, 879.574 698.033 C 876.386 702.229, 870.932 705.943, 865.663 707.507 C 861.308 708.801, 809.605 708.990, 452.010 709.018 C 148.592 709.042, 41.958 708.755, 37.992 707.905 C 27.965 705.754, 21.126 698.665, 21.042 690.333 C 20.998 685.960, 21.909 683.480, 29.243 668 C 34.751 656.375, 41.192 642.678, 45.230 634 C 46.894 630.425, 50.855 622.100, 54.032 615.500 C 57.209 608.900, 62.380 598.100, 65.522 591.500 C 68.665 584.900, 74.954 571.850, 79.499 562.500 C 84.044 553.150, 88.770 543.250, 90.002 540.500 C 91.234 537.750, 95.763 528.256, 100.067 519.401 C 108.132 502.808, 111.158 498.834, 117.835 496.068 L 121.062 494.732 118.781 493.123 C 117.526 492.238, 116.200 491.511, 115.833 491.507 C 115.467 491.503, 114.829 491.163, 114.417 490.750 C 113.363 489.697, 112.913 489.834, 109.288 492.308 M 744.500 500.617 C 742.071 501.664, 686.957 501.918, 454.750 501.955 C 297.037 501.980, 168 501.646, 168 501.214 C 168 500.782, 167.100 500.429, 166 500.429 C 164.900 500.429, 164 500.782, 164 501.214 C 164 501.646, 158.375 502, 151.500 502 C 144.625 502, 138.997 501.663, 138.994 501.250 C 138.990 500.837, 135.670 500.365, 131.615 500.199 C 126.348 499.985, 123.850 500.293, 122.863 501.280 C 122.104 502.039, 120.923 502.474, 120.240 502.247 C 119.558 502.019, 117.191 503.264, 114.982 505.014 C 109.004 509.749, 106.700 515.175, 112.163 511.654 C 113.448 510.825, 117.265 509.439, 120.644 508.574 C 126.174 507.158, 159.504 507.004, 453.644 507.036 C 799.868 507.073, 787.354 506.910, 794.341 511.488 C 798.226 514.033, 797.593 511.956, 792.840 506.555 L 788.680 501.829 773.090 502.076 C 751.410 502.418, 748.204 502.239, 747.823 500.662 C 747.556 499.555, 746.980 499.548, 744.500 500.617 M 386.300 511 C 174.410 511.397, 118.841 511.759, 117.850 512.750 C 117.162 513.438, 115.927 514, 115.104 514 C 114.281 514, 111.901 515.182, 109.816 516.628 C 106.647 518.823, 104.706 521.963, 98.012 535.720 C 93.605 544.775, 90 552.355, 90 552.564 C 90 553.087, 78.078 577.943, 70.904 592.378 C 65.499 603.254, 63.757 609.306, 65.786 610.167 C 66.218 610.350, 67.618 611.988, 68.895 613.808 C 70.173 615.627, 71.465 616.868, 71.767 616.566 C 72.069 616.264, 72.927 616.525, 73.674 617.145 C 74.677 617.977, 173.754 618.274, 451.909 618.280 L 828.786 618.289 831.908 616.066 C 835.944 613.192, 838.352 608.512, 837.637 604.933 C 837.330 603.399, 834.811 597.348, 832.039 591.486 C 829.268 585.624, 827 580.639, 827 580.409 C 827 580.179, 825.853 577.630, 824.450 574.745 C 823.048 571.860, 820.752 566.575, 819.348 563 C 816.731 556.334, 814.265 550.854, 807.200 536 C 804.977 531.325, 802.837 526.219, 802.446 524.652 C 801.581 521.192, 794.541 513.547, 793.062 514.462 C 792.478 514.823, 792 514.740, 792 514.277 C 792 510.356, 780.414 510.263, 386.300 511 M 131.402 517.363 C 120.265 519.258, 116.650 522.349, 110.190 535.500 C 102.565 551.023, 93.461 569.988, 90.987 575.500 C 89.753 578.250, 87.311 583.650, 85.560 587.500 C 79.739 600.295, 79.672 600.543, 81.169 603.666 C 83.674 608.893, 85.614 609.192, 115.313 608.927 C 130.266 608.794, 143.850 608.770, 145.500 608.873 C 156.162 609.540, 189.318 609.082, 190.144 608.256 C 190.783 607.617, 192.578 607.780, 195.312 608.727 C 198.703 609.901, 203.211 610.047, 219 609.494 C 229.725 609.119, 240.075 608.955, 242 609.130 C 243.925 609.304, 253.150 609.383, 262.500 609.304 C 271.850 609.225, 282.875 609.182, 287 609.207 C 291.125 609.233, 301.700 609.147, 310.500 609.017 C 319.300 608.886, 327.625 608.817, 329 608.864 C 330.375 608.910, 340.500 608.937, 351.500 608.924 C 362.500 608.911, 372.063 608.987, 372.750 609.093 C 373.785 609.254, 408.684 609.307, 416.250 609.160 C 417.488 609.136, 436.479 609.294, 458.453 609.512 C 481.870 609.744, 498.863 609.528, 499.511 608.990 C 500.185 608.431, 503.266 608.485, 507.396 609.128 C 511.289 609.734, 520.419 609.946, 528.838 609.625 C 536.902 609.317, 544.400 609.043, 545.500 609.015 C 546.600 608.987, 559.650 609.020, 574.500 609.090 C 589.350 609.159, 608.475 609.160, 617 609.091 C 655.599 608.782, 674.764 608.796, 678 609.134 C 679.925 609.335, 690.500 609.444, 701.500 609.376 C 712.500 609.308, 722.625 609.247, 724 609.241 C 725.375 609.236, 735.275 609.149, 746 609.049 C 756.725 608.949, 773.825 608.992, 784 609.145 C 814.927 609.609, 818.122 609.372, 820.750 606.418 C 823.928 602.845, 823.576 599.419, 818.938 588.800 C 816.705 583.685, 813.935 576.800, 812.784 573.500 C 811.634 570.200, 810.141 566.600, 809.467 565.500 C 808.793 564.400, 807.436 561.250, 806.451 558.500 C 805.467 555.750, 804.125 552.825, 803.470 552 C 802.815 551.175, 801.033 547.125, 799.509 543 C 793.676 527.206, 787.998 520.170, 779.500 518.201 C 773.677 516.853, 748.561 516.318, 717 516.871 C 710.125 516.992, 700 516.973, 694.500 516.830 C 689 516.686, 678.650 516.644, 671.500 516.736 C 664.350 516.828, 656.475 516.833, 654 516.746 C 648.232 516.545, 621.884 516.617, 616 516.851 C 613.525 516.949, 605.316 516.763, 597.757 516.437 C 587.366 515.990, 582.830 516.193, 579.157 517.269 C 574.949 518.503, 574.047 518.502, 572.400 517.261 C 569.755 515.268, 540.064 515.872, 537.535 517.971 C 536.086 519.173, 535.722 519.169, 534.961 517.936 C 534.255 516.793, 531.059 516.500, 519.287 516.500 C 511.154 516.500, 502.700 516.569, 500.500 516.654 C 498.300 516.738, 489.300 516.763, 480.500 516.708 C 471.700 516.654, 462.925 516.708, 461 516.829 C 459.075 516.950, 450.975 516.928, 443 516.781 C 435.025 516.634, 426.700 516.579, 424.500 516.658 C 422.300 516.737, 413.075 516.734, 404 516.651 C 392.718 516.548, 386.837 516.881, 385.403 517.703 C 383.769 518.641, 383.041 518.641, 382.104 517.703 C 381.278 516.876, 376.620 516.520, 367.201 516.563 C 347.593 516.653, 339.732 516.676, 324.750 516.690 C 317.462 516.696, 309.025 516.721, 306 516.746 C 302.975 516.771, 295.325 516.726, 289 516.646 C 282.675 516.565, 274.125 516.657, 270 516.849 C 265.875 517.040, 255.525 517.072, 247 516.919 C 230.085 516.615, 217.920 516.595, 202.500 516.844 C 183.087 517.158, 144.462 516.987, 141.500 516.574 C 139.850 516.344, 135.306 516.699, 131.402 517.363 M 145.319 524 C 129.152 524.445, 126.844 524.722, 124.482 526.500 C 121.213 528.961, 114.624 542.642, 116.382 543.316 C 117.038 543.568, 127.008 543.847, 138.537 543.935 L 159.500 544.097 161.181 540.798 C 162.106 538.984, 163.132 536.541, 163.461 535.369 C 163.790 534.197, 164.946 532.215, 166.030 530.966 L 168 528.694 168 530.847 C 168 532.031, 167.550 533, 167 533 C 166.450 533, 166 533.756, 166 534.679 C 166 537.114, 163.736 543, 162.799 543 C 162.360 543, 162 543.675, 162 544.500 C 162 545.780, 158.956 546.024, 141.250 546.162 C 113.017 546.383, 113.743 546.342, 113.261 547.750 C 112.926 548.728, 118.293 549, 137.938 549 L 163.043 549 164.163 546.250 C 164.779 544.737, 166.285 541.250, 167.510 538.500 C 170.414 531.982, 173 525.188, 173 524.080 C 173 523.596, 170.863 523.267, 168.250 523.350 C 165.637 523.432, 155.319 523.725, 145.319 524 M 190.703 523.758 C 183.467 524.022, 181.807 524.383, 181.346 525.790 C 181.038 526.730, 180.159 528.918, 179.393 530.651 C 178.627 532.384, 178 534.245, 178 534.787 C 178 535.328, 177.328 537.060, 176.506 538.636 C 173.730 543.959, 173.828 544, 189.422 544 L 203.845 544 205.057 540.326 C 207.456 533.058, 211.413 525.427, 211.801 527.322 C 212.134 528.944, 209.577 536.758, 206.785 542.655 C 206.223 543.840, 206.053 545.277, 206.407 545.850 C 206.846 546.560, 201.674 546.772, 190.104 546.519 C 176.108 546.213, 173.062 546.396, 172.610 547.574 C 172.149 548.775, 174.836 549, 189.671 549 C 205.268 549, 207.431 548.800, 208.608 547.250 C 209.339 546.288, 209.951 544.797, 209.968 543.938 C 209.986 543.079, 210.900 540.513, 212 538.236 C 213.100 535.959, 214 533.490, 214 532.748 C 214 532.007, 214.403 530.972, 214.895 530.450 C 215.387 529.928, 216.083 528.103, 216.442 526.396 L 217.095 523.292 208.297 523.365 C 203.459 523.405, 195.542 523.582, 190.703 523.758 M 228.323 523.677 C 225.458 524.260, 224.640 525.433, 222.522 532 C 221.546 535.025, 220.355 538.534, 219.874 539.797 C 219.393 541.060, 219 542.535, 219 543.073 C 219 543.681, 224.780 543.947, 234.248 543.776 L 249.497 543.500 251.719 536.579 C 252.941 532.773, 254.405 529.195, 254.971 528.629 C 256.662 526.938, 256.204 532.285, 254.337 536.027 C 253.422 537.860, 252.393 540.742, 252.049 542.430 C 251.465 545.304, 251.077 545.539, 245.963 546.107 C 242.958 546.441, 235.213 546.505, 228.750 546.250 C 218.434 545.843, 217 545.983, 217 547.393 C 217 548.809, 219.128 549, 234.907 549 L 252.814 549 254.852 542.750 C 255.972 539.313, 257.881 533.904, 259.093 530.731 C 260.305 527.559, 260.986 524.653, 260.607 524.274 C 259.837 523.504, 231.731 522.985, 228.323 523.677 M 269.453 524.300 C 268.654 524.740, 268 525.960, 268 527.013 C 268 528.065, 267.100 531.209, 266 534 C 264.900 536.791, 264 540.182, 264 541.537 L 264 544 277.443 544 C 290.243 544, 290.963 543.892, 292.490 541.750 L 294.092 539.500 293.590 542.373 C 293.314 543.953, 292.830 545.504, 292.514 545.819 C 292.199 546.135, 285.129 546.417, 276.804 546.446 C 265.622 546.486, 261.558 546.827, 261.250 547.750 C 260.928 548.717, 264.679 549, 277.837 549 L 294.841 549 295.527 545.750 C 295.904 543.962, 297.289 538.737, 298.606 534.138 C 299.923 529.539, 301 525.186, 301 524.465 C 301 523.435, 297.784 523.192, 285.953 523.327 C 277.677 523.422, 270.252 523.860, 269.453 524.300 M 309.458 524.829 C 309.075 525.748, 308.165 529.200, 307.437 532.500 C 306.709 535.800, 305.810 539.737, 305.440 541.250 L 304.767 544 318.415 544 C 328.460 544, 332.165 543.670, 332.449 542.750 C 332.662 542.063, 333.595 538.800, 334.522 535.500 C 337.060 526.473, 337.147 526.268, 337.738 527.865 C 338.591 530.169, 335.812 543.911, 334.227 545.226 C 333.168 546.106, 328.576 546.406, 318.368 546.264 C 306.311 546.096, 304 546.300, 304 547.532 C 304 548.763, 306.640 549, 320.336 549 L 336.673 549 338.944 537.079 C 340.193 530.522, 340.965 524.752, 340.658 524.256 C 340.352 523.760, 333.363 523.310, 325.127 523.256 C 312.021 523.169, 310.067 523.366, 309.458 524.829 M 349.446 525.500 C 348.189 527.473, 345.350 542.713, 346.109 543.410 C 346.324 543.608, 353.349 543.957, 361.719 544.186 C 373.745 544.516, 377.045 544.324, 377.448 543.275 C 377.870 542.174, 379.423 527.863, 379.483 524.521 C 379.493 523.927, 373.832 523.533, 365.110 523.521 C 351.799 523.502, 350.625 523.650, 349.446 525.500 M 427.080 524.452 C 426.623 525.028, 425.935 529.663, 425.550 534.750 L 424.850 544 440.425 544 L 456 544 456 534.108 C 456 524.673, 455.896 524.193, 453.750 523.691 C 449.681 522.741, 427.944 523.361, 427.080 524.452 M 464.550 523.967 C 464.385 524.260, 464.208 529, 464.156 534.500 L 464.061 544.500 479.620 544.500 L 495.180 544.500 494.471 534.500 C 494.077 528.950, 493.258 524.168, 492.631 523.755 C 491.372 522.925, 465.024 523.125, 464.550 523.967 M 502.455 524.257 C 502.162 525.020, 502.127 527.862, 502.377 530.572 C 502.627 533.283, 502.870 537.686, 502.916 540.358 C 502.994 544.880, 503.156 545.178, 505.250 544.654 C 506.488 544.345, 513.270 544.023, 520.323 543.938 C 530.559 543.816, 533.259 543.489, 533.707 542.320 C 534.016 541.515, 533.709 536.951, 533.025 532.178 L 531.781 523.500 517.384 523.184 C 505.810 522.931, 502.883 523.141, 502.455 524.257 M 540.693 523.751 C 540.288 524.467, 541.433 536.760, 542.393 542 C 542.645 543.375, 542.885 545.513, 542.926 546.750 C 542.999 548.983, 543.117 549, 558.441 549 C 566.934 549, 574.122 548.611, 574.416 548.136 C 575.200 546.867, 566.989 546.243, 554.670 546.636 C 546.371 546.901, 543.937 546.692, 544.258 545.741 C 544.565 544.828, 548.573 544.500, 559.415 544.500 L 574.154 544.500 573.599 540.500 C 573.294 538.300, 572.752 534.145, 572.396 531.267 C 572.039 528.390, 571.241 525.618, 570.623 525.109 C 569.246 523.974, 541.285 522.705, 540.693 523.751 M 579.648 524.474 C 579.264 525.475, 579.865 529.456, 582.368 542.500 L 583.519 548.500 599.260 548.775 C 612.478 549.007, 615 548.818, 615 547.599 C 615 546.389, 612.796 546.195, 601.750 546.432 C 588.311 546.721, 581.959 545.977, 587.036 544.709 C 588.391 544.371, 594.792 544.022, 601.261 543.934 C 607.729 543.846, 613.248 543.407, 613.526 542.958 C 614.022 542.155, 612.988 536.849, 610.610 528 L 609.401 523.500 594.725 523.465 C 585.423 523.443, 579.902 523.813, 579.648 524.474 M 618.419 524.132 C 618.124 524.608, 618.635 527.810, 619.552 531.249 C 620.470 534.687, 621.589 539.300, 622.040 541.500 C 623.685 549.544, 622.297 549, 641.190 549 C 654.328 549, 658.072 548.717, 657.749 547.750 C 657.437 546.817, 653.793 546.549, 643.384 546.694 C 630.939 546.867, 625.506 546.161, 627.090 544.577 C 627.382 544.284, 634.007 543.998, 641.811 543.941 C 649.615 543.884, 655.991 543.536, 655.979 543.168 C 655.925 541.469, 651.322 524.989, 650.738 524.404 C 649.734 523.400, 619.030 523.142, 618.419 524.132 M 660.583 523.750 C 659.702 524.631, 659.884 528.811, 660.829 529.394 C 661.285 529.676, 662.225 532.515, 662.917 535.703 C 663.610 538.892, 664.587 542.281, 665.088 543.236 C 665.590 544.191, 666 545.879, 666 546.986 C 666 548.930, 666.626 549, 684 549 C 698.463 549, 702 548.734, 702 547.647 C 702 546.566, 699.138 546.326, 687.750 546.451 C 679.913 546.537, 672.564 546.433, 671.421 546.220 C 669.499 545.862, 666.994 541.196, 666.470 537 C 666.367 536.175, 665.769 534.233, 665.141 532.685 C 663.742 529.234, 663.700 528, 664.981 528 C 665.520 528, 666.223 529.237, 666.541 530.750 C 666.860 532.263, 667.544 534.281, 668.060 535.236 C 668.577 536.191, 669 537.842, 669 538.905 C 669 543.920, 669.251 544, 685.107 544 C 696.366 544, 699.995 543.695, 699.979 542.750 C 699.955 541.292, 695.354 525.381, 694.607 524.174 C 694.037 523.251, 661.488 522.846, 660.583 523.750 M 704.703 523.823 C 702.502 524.241, 702.544 524.745, 705.360 531.684 C 706.658 534.883, 708.531 540.087, 709.523 543.250 L 711.325 549 729.285 549 C 745.542 549, 747.121 548.850, 745.933 547.420 C 744.817 546.075, 742.281 545.889, 728.895 546.170 C 715.080 546.460, 713.041 546.298, 712.129 544.835 C 711.373 543.625, 711.455 542.868, 712.428 542.060 C 713.439 541.221, 713.912 541.328, 714.360 542.497 C 714.863 543.805, 717.277 544.029, 729.977 543.943 C 738.240 543.888, 745 543.549, 745 543.190 C 745 542.832, 743.574 538.552, 741.831 533.680 C 739.275 526.533, 738.165 524.633, 736.084 523.842 C 733.817 522.980, 709.222 522.965, 704.703 523.823 M 748.461 524.064 C 747.472 525.663, 750.934 536.159, 752.193 535.381 C 752.852 534.973, 753.030 535.142, 752.627 535.795 C 752.252 536.402, 752.745 539.621, 753.722 542.948 L 755.500 548.997 774.750 548.999 C 785.990 548.999, 794 548.612, 794 548.067 C 794 546.466, 790.891 546.129, 778.500 546.387 C 764.193 546.684, 756.786 546.143, 757.223 544.832 C 757.410 544.269, 764.483 543.882, 774.325 543.895 L 791.108 543.917 790.424 541.708 C 788.597 535.814, 783.591 527.190, 781.165 525.756 C 778.006 523.890, 749.480 522.414, 748.461 524.064 M 388.124 525.768 C 387.604 526.740, 386.855 531.240, 386.460 535.768 L 385.742 544 399.121 544.014 C 406.479 544.021, 413.488 544.292, 414.696 544.616 C 416.383 545.069, 416.885 544.776, 416.864 543.352 C 416.849 542.334, 417.166 537.563, 417.567 532.750 L 418.297 524 403.684 524 C 390.733 524, 388.963 524.201, 388.124 525.768 M 345.524 546.810 C 343.750 548.583, 346.696 549, 361 549 C 373.135 549, 376.999 548.698, 376.996 547.750 C 376.993 546.809, 373.172 546.474, 361.520 546.393 C 353.010 546.334, 345.812 546.522, 345.524 546.810 M 386.250 546.625 C 382.386 548.299, 386.593 549, 400.500 549 C 410.167 549, 416 548.624, 416 548 C 416 547.392, 411.542 547, 404.625 547 C 398.369 547, 391.956 546.794, 390.375 546.542 C 388.794 546.290, 386.938 546.327, 386.250 546.625 M 424.646 546.687 C 422.878 548.455, 426.624 549, 440.559 549 C 452.245 549, 456 548.696, 456 547.750 C 455.999 546.813, 452.148 546.449, 440.619 546.298 C 432.159 546.186, 424.972 546.362, 424.646 546.687 M 464.578 546.755 C 462.750 548.583, 465.523 549, 479.500 549 C 493.558 549, 498.705 548.099, 492.750 546.681 C 489.724 545.960, 465.309 546.024, 464.578 546.755 M 507.750 546.695 C 505.688 546.929, 504 547.544, 504 548.060 C 504 548.606, 510.497 549, 519.500 549 C 529.167 549, 535 548.624, 535 548 C 535 547.408, 531.375 547, 526.125 547 C 521.244 547, 515.956 546.836, 514.375 546.635 C 512.794 546.434, 509.813 546.461, 507.750 546.695 M 109.682 556.500 C 108.590 557.050, 107.353 558.175, 106.933 559 C 105.393 562.026, 101 572.070, 101 572.565 C 101 573.386, 145.379 572.502, 146.751 571.654 C 147.438 571.229, 148 570.009, 148 568.941 C 148 567.873, 148.394 567, 148.875 567 C 149.356 567, 150.019 565.763, 150.348 564.250 C 151.086 560.853, 152.674 558.341, 153.537 559.204 C 153.893 559.559, 153.215 562.579, 152.030 565.914 C 150.846 569.250, 149.818 572.771, 149.745 573.739 C 149.623 575.369, 147.773 575.500, 124.809 575.500 C 111.167 575.500, 100.003 575.889, 100.001 576.365 C 99.999 576.841, 111.506 577.291, 125.573 577.365 L 151.149 577.500 152.924 572.465 C 153.901 569.696, 155.316 566.321, 156.070 564.965 C 156.824 563.609, 157.963 561.038, 158.602 559.250 C 159.603 556.452, 159.537 555.970, 158.132 555.784 C 152.616 555.053, 111.343 555.663, 109.682 556.500 M 176.835 555.767 C 168.445 556.066, 168.137 556.162, 167.152 558.788 C 166.592 560.279, 164.754 564.809, 163.067 568.854 C 161.380 572.898, 160 576.527, 160 576.918 C 160 578.212, 193.347 578.013, 195.894 576.704 C 197.329 575.965, 198.795 573.760, 199.683 571 C 200.480 568.525, 201.721 565.150, 202.441 563.500 C 203.161 561.850, 204.031 559.300, 204.373 557.833 L 204.997 555.166 195.248 555.313 C 189.887 555.393, 181.601 555.598, 176.835 555.767 M 213.301 556.657 C 209.824 565.717, 208.359 571.577, 209.418 572.190 C 210.073 572.570, 217.110 572.795, 225.055 572.690 L 239.500 572.500 241.453 566.279 C 242.528 562.857, 244.026 559.820, 244.783 559.530 C 247.624 558.440, 243.442 570.741, 239.739 574.367 C 237.975 576.095, 236.678 576.180, 222.416 575.512 C 208.455 574.858, 207 574.945, 207 576.442 C 207 577.929, 208.818 578.065, 225.157 577.797 L 243.315 577.500 246.244 569.500 C 250.989 556.540, 251.102 556.019, 249.180 555.871 C 248.256 555.799, 239.905 555.687, 230.623 555.621 C 218.665 555.535, 213.616 555.837, 213.301 556.657 M 266.538 555.957 L 258.577 556.500 256.294 564 C 255.038 568.125, 254.009 571.789, 254.006 572.143 C 253.998 573.051, 282.238 572.616, 283.719 571.686 C 284.390 571.265, 285.492 568.238, 286.169 564.960 C 286.846 561.682, 287.760 559, 288.200 559 C 289.305 559, 289.038 564.511, 287.643 570.500 L 286.478 575.500 269.751 575.500 C 259.331 575.500, 253.018 575.875, 253.009 576.495 C 253 577.117, 259.389 577.492, 270.031 577.495 C 288.793 577.500, 288.448 577.615, 289.557 571 C 289.880 569.075, 290.528 566.600, 290.997 565.500 C 291.466 564.400, 292.047 562.375, 292.288 561 C 292.529 559.625, 292.901 557.825, 293.113 557 C 293.436 555.747, 291.936 555.493, 284 555.457 C 278.775 555.433, 270.917 555.658, 266.538 555.957 M 301.293 557 C 301.042 557.825, 300.442 559.494, 299.958 560.710 C 299.475 561.925, 298.773 565.231, 298.398 568.056 L 297.717 573.192 313.108 572.846 C 326.277 572.550, 328.500 572.717, 328.500 574 C 328.500 575.285, 326.242 575.449, 312.750 575.143 C 299.978 574.853, 297 575.042, 297.001 576.143 C 297.002 577.223, 300.364 577.539, 313.479 577.690 C 322.542 577.794, 330.185 577.509, 330.465 577.056 C 330.745 576.603, 331.426 573.143, 331.979 569.366 C 332.531 565.590, 333.253 560.925, 333.582 559 L 334.181 555.500 317.964 555.500 C 304.419 555.500, 301.673 555.747, 301.293 557 M 343.080 556.944 C 341.717 559.655, 339.739 570.769, 340.423 571.875 C 340.840 572.550, 346.187 572.905, 355.087 572.849 C 367.755 572.769, 371.194 573.139, 369.892 574.441 C 369.649 574.684, 362.599 574.977, 354.225 575.093 C 343.207 575.245, 339 575.633, 339 576.498 C 339 578.101, 371.051 578.182, 371.488 576.580 C 372.269 573.713, 373.978 564.008, 374.416 559.944 L 374.908 555.389 359.385 555.389 C 346.343 555.389, 343.737 555.637, 343.080 556.944 M 392.710 555.790 C 382.601 556.122, 382.673 556.052, 381.750 566.599 L 381.217 572.698 397.567 572.599 L 413.917 572.500 414.541 567.500 C 414.885 564.750, 415.016 560.925, 414.833 559 L 414.500 555.500 408 555.500 C 404.425 555.500, 397.545 555.630, 392.710 555.790 M 429.503 555.918 L 423.506 556.500 423.166 564.703 L 422.826 572.905 439.414 573.203 L 456.003 573.500 456.001 564.415 L 456 555.329 445.750 555.333 C 440.113 555.335, 432.801 555.599, 429.503 555.918 M 464.096 564 L 464.163 572.500 480.332 572.500 L 496.500 572.500 496.136 565.579 C 495.936 561.773, 495.668 557.948, 495.540 557.079 C 495.339 555.718, 493.153 555.500, 479.668 555.500 L 464.028 555.500 464.096 564 M 504.527 564.602 C 504.932 570.046, 505.357 575.157, 505.471 575.960 C 505.640 577.148, 508.421 577.481, 520.372 577.742 C 528.994 577.931, 535.774 577.650, 536.782 577.062 C 538.766 575.906, 540.297 576.082, 520 575.132 C 501.184 574.251, 503.110 572.473, 522.750 572.593 C 535.202 572.669, 538 572.429, 538 571.286 C 538 570.515, 537.484 566.761, 536.853 562.943 L 535.707 556 523.603 555.989 C 516.947 555.983, 509.766 555.691, 507.646 555.341 L 503.791 554.704 504.527 564.602 M 544.727 559.452 C 546.176 571.611, 546.635 573.496, 548.059 573.158 C 548.851 572.969, 555.971 572.863, 563.881 572.920 L 578.261 573.025 577.554 566.763 C 577.165 563.318, 576.594 559.231, 576.284 557.679 L 575.722 554.859 559.983 555.131 L 544.244 555.404 544.727 559.452 M 584.423 556.945 C 584.662 557.800, 585.660 562.775, 586.642 568 L 588.426 577.500 604.713 577.612 C 617.258 577.698, 621 577.433, 621 576.456 C 621 575.494, 617.334 575.155, 605.791 575.051 C 597.426 574.976, 590.376 574.709, 590.124 574.457 C 588.678 573.011, 592.720 572.500, 605.594 572.500 C 615.622 572.500, 619.894 572.167, 619.603 571.407 C 619.372 570.805, 618.867 567.786, 618.481 564.697 C 617.336 555.530, 617.610 555.664, 599.628 555.517 C 585.923 555.406, 584.043 555.582, 584.423 556.945 M 625.445 556.089 C 624.938 556.909, 628.771 573.752, 629.944 575.858 C 630.526 576.904, 634.636 577.270, 647.850 577.455 C 657.282 577.587, 664.989 577.426, 664.976 577.097 C 664.948 576.399, 663.861 572.221, 661.176 562.500 L 659.242 555.500 642.569 555.429 C 633.399 555.391, 625.693 555.687, 625.445 556.089 M 668 556.891 C 668 557.831, 668.424 559.028, 668.943 559.550 C 669.927 560.542, 671.815 567.174, 672.703 572.759 C 672.988 574.552, 673.693 576.310, 674.270 576.667 C 676.220 577.872, 712.105 577.814, 711.702 576.606 C 711.273 575.319, 710.306 575.249, 690.812 575.107 C 676.773 575.005, 676.131 574.912, 676.275 573 C 676.418 571.106, 678 570.050, 678 571.848 C 678 572.921, 707.087 573.303, 708.676 572.251 C 709.554 571.670, 709.372 570.081, 707.959 565.986 C 706.917 562.969, 706.051 559.821, 706.033 558.991 C 705.963 555.758, 702.514 555.125, 685.114 555.154 C 669.650 555.180, 668 555.347, 668 556.891 M 714.006 556.913 C 714.010 557.786, 714.685 559.789, 715.506 561.364 C 716.328 562.940, 717 565.051, 717 566.055 C 717 567.060, 717.450 568.160, 718 568.500 C 718.550 568.840, 719.014 570.104, 719.032 571.309 C 719.049 572.514, 719.682 574.316, 720.438 575.313 C 721.654 576.916, 723.782 577.161, 738.817 577.428 C 754.409 577.704, 759.509 577.175, 757.794 575.461 C 757.438 575.105, 749.901 574.875, 741.045 574.950 C 728.430 575.057, 724.640 574.783, 723.542 573.685 C 722.418 572.560, 718 561.025, 718 559.212 C 718 558.961, 718.675 559.315, 719.500 560 C 720.325 560.685, 721 562.087, 721 563.116 C 721 564.144, 721.742 566.700, 722.650 568.795 L 724.300 572.603 740.721 572.739 C 753.245 572.843, 756.932 572.594, 756.259 571.688 C 755.774 571.034, 754.099 567.246, 752.537 563.269 C 750.975 559.293, 748.978 555.832, 748.099 555.579 C 747.219 555.325, 739.188 555.165, 730.250 555.222 C 716.116 555.312, 714.001 555.532, 714.006 556.913 M 759.876 556.077 C 758.900 556.680, 758.854 557.424, 759.686 559.185 C 760.288 560.458, 762.235 564.975, 764.013 569.222 C 765.863 573.642, 767.986 577.178, 768.977 577.493 C 769.930 577.795, 778.649 577.921, 788.353 577.771 C 811.526 577.415, 811.573 575.595, 788.418 575.242 C 779.113 575.100, 770.838 574.738, 770.028 574.438 C 766.302 573.057, 772.103 572.373, 787.011 572.434 C 795.805 572.470, 803 572.285, 803 572.021 C 803 570.902, 797.655 557.417, 796.870 556.555 C 795.821 555.403, 761.680 554.962, 759.876 556.077 M 195.964 565.707 L 193.487 572.414 179.993 572.634 C 160.168 572.956, 161.445 572.845, 162.745 574.145 C 163.872 575.272, 195.931 576.102, 195.753 575 C 195.582 573.943, 197.186 568.354, 198.561 565.216 C 200.148 561.595, 200.423 559, 199.221 559 C 198.792 559, 197.327 562.018, 195.964 565.707 M 673.079 561.551 C 672.998 564.674, 674.953 569.978, 676.189 569.992 C 676.777 569.999, 676.098 567.318, 673.658 560 C 673.383 559.175, 673.122 559.873, 673.079 561.551 M 633.398 573.500 C 631.715 574.774, 632.971 574.949, 644.500 575.045 C 651.650 575.104, 658.227 575.295, 659.116 575.468 C 660.844 575.806, 663.756 574.422, 662.971 573.637 C 662.711 573.378, 656.379 572.918, 648.898 572.614 C 637.979 572.172, 634.922 572.346, 633.398 573.500 M 547.414 574.917 C 547.186 575.146, 547 575.933, 547 576.667 C 547 577.709, 549.671 577.984, 559.250 577.926 C 572.128 577.848, 581.585 576.782, 579 575.701 C 577.313 574.995, 548.058 574.268, 547.414 574.917 M 380 576.395 C 380 578.355, 412.656 578.339, 413.408 576.380 C 413.881 575.147, 411.429 574.949, 396.982 575.049 C 384.280 575.137, 380 575.476, 380 576.395 M 422.500 576 C 422.160 576.550, 422.021 577.021, 422.191 577.046 C 422.361 577.071, 430.038 577.189, 439.250 577.308 C 452.184 577.475, 456 577.237, 456 576.262 C 456 574.672, 423.478 574.418, 422.500 576 M 464.148 575.911 C 464.687 577.477, 497 578.051, 497 576.495 C 497 575.607, 492.597 575.234, 480.398 575.088 C 469.442 574.956, 463.916 575.236, 464.148 575.911 M 94.378 585.810 C 94.095 586.739, 92.995 589.425, 91.932 591.777 C 90.869 594.129, 90 596.412, 90 596.850 C 90 597.287, 100.765 597.613, 113.923 597.573 L 137.845 597.500 138.384 595 C 139.027 592.014, 142.895 585.562, 143.612 586.279 C 143.890 586.557, 143.362 588.520, 142.439 590.642 C 141.517 592.764, 140.476 595.767, 140.128 597.315 L 139.494 600.130 113.747 600.035 C 98.726 599.979, 88 600.321, 88 600.856 C 88 601.944, 103.501 602.663, 124.918 602.568 L 140.337 602.500 142.095 599.500 C 143.063 597.850, 143.887 595.797, 143.927 594.938 C 143.967 594.079, 144.900 591.513, 146 589.236 C 147.100 586.959, 148 584.838, 148 584.522 C 148 584.205, 136.051 583.986, 121.446 584.033 C 97.428 584.111, 94.842 584.281, 94.378 585.810 M 156.072 585.413 C 155.427 586.191, 154.675 588.060, 154.402 589.568 C 154.128 591.076, 153.476 593.110, 152.952 594.089 C 150.914 597.897, 151.569 598.077, 167.046 597.945 C 183.074 597.810, 182.677 597.930, 186.113 592.137 C 188.694 587.786, 189.574 588.689, 187.527 593.589 C 186.653 595.682, 186.156 597.964, 186.423 598.660 C 186.935 599.995, 180.891 601.669, 179.241 600.649 C 178.753 600.347, 172.086 600.028, 164.427 599.940 C 152.667 599.805, 150.452 600.017, 150.193 601.303 C 149.926 602.629, 152.286 602.802, 168.420 602.637 C 178.902 602.530, 187.339 602.025, 187.843 601.474 C 188.623 600.621, 194 585.790, 194 584.491 C 194 584.221, 185.730 584, 175.622 584 C 161.008 584, 157.005 584.289, 156.072 585.413 M 201.539 587.913 C 200.569 590.065, 200.120 592.385, 200.542 593.068 C 201.023 593.846, 200.899 594.055, 200.209 593.629 C 199.223 593.020, 197.022 598.476, 197.006 601.568 C 197.002 602.290, 203.194 602.613, 216.141 602.568 C 232.127 602.511, 235.398 602.253, 235.989 601 C 236.379 600.175, 237.615 596.800, 238.737 593.500 C 239.858 590.200, 241.099 586.712, 241.495 585.750 C 242.165 584.119, 240.895 584, 222.759 584 L 203.304 584 201.539 587.913 M 249.599 584.839 C 249.314 585.301, 248.628 587.700, 248.074 590.169 C 247.521 592.639, 246.769 595.439, 246.403 596.392 C 245.788 597.995, 246.964 598.115, 262.119 597.997 C 282.203 597.840, 281.249 597.788, 280.500 599 C 280.126 599.605, 272.990 600, 262.441 600 C 251.480 600, 245 600.372, 245 601 C 245 602.275, 243.758 602.168, 263.166 602.565 C 275.801 602.824, 280.089 602.598, 280.892 601.631 C 281.474 600.929, 282.667 597.462, 283.543 593.927 C 284.419 590.392, 285.360 586.712, 285.635 585.750 C 286.098 584.130, 284.801 584, 268.126 584 C 258.222 584, 249.885 584.378, 249.599 584.839 M 293.297 588.750 C 292.693 591.362, 291.889 594.467, 291.510 595.648 C 290.823 597.786, 290.879 597.794, 303.245 597.260 C 316.649 596.681, 326.352 597.531, 323.919 599.071 C 323.139 599.565, 315.413 599.976, 306.750 599.985 C 294.825 599.996, 291 600.304, 291.001 601.250 C 291.001 602.182, 294.751 602.563, 305.751 602.749 C 326.087 603.092, 325.571 603.265, 326.803 595.693 C 327.358 592.287, 328.115 588.551, 328.485 587.391 C 329.405 584.515, 326.380 584, 308.572 584 L 294.395 584 293.297 588.750 M 337.452 584.765 C 336.875 585.169, 335.955 588.290, 335.408 591.700 L 334.413 597.900 351.665 597.868 C 371.048 597.833, 369.333 598.617, 370.522 589.250 L 371.188 584 354.844 584.015 C 345.855 584.024, 338.028 584.361, 337.452 584.765 M 378.527 586.226 C 378.238 587.477, 377.890 590.525, 377.751 593 L 377.500 597.500 394.442 597.224 C 403.760 597.073, 411.625 596.708, 411.920 596.413 C 412.214 596.119, 412.465 593.318, 412.478 590.189 L 412.500 584.500 395.775 584.226 C 379.097 583.953, 379.049 583.958, 378.527 586.226 M 420.716 590.194 C 420.405 593.626, 420.356 596.766, 420.607 597.172 C 420.857 597.578, 427.911 597.766, 436.281 597.590 C 452.559 597.247, 454 597.416, 454 599.666 C 454 600.465, 453.626 600.887, 453.169 600.605 C 452.712 600.322, 445.175 600.027, 436.419 599.948 C 424.338 599.840, 420.500 600.105, 420.500 601.046 C 420.500 601.983, 424.794 602.313, 438 602.393 L 455.500 602.500 455.500 593.500 L 455.500 584.500 438.391 584.227 L 421.282 583.954 420.716 590.194 M 464 591 L 464 598 481 598 L 498 598 498 592.582 C 498 583.528, 498.969 584, 480.393 584 L 464 584 464 591 M 505.619 586.959 C 506.076 589.353, 506.553 594.346, 506.866 600 L 507.004 602.500 522.752 602.451 C 540.533 602.396, 541 602.360, 541 601.050 C 541 600.490, 534.401 600.104, 524.891 600.108 C 516.031 600.112, 508.531 599.865, 508.225 599.558 C 506.644 597.977, 510.612 597.505, 525.053 597.557 L 540.931 597.615 540.446 593.057 C 539.434 583.553, 541.452 584.505, 522.221 584.459 L 505.133 584.417 505.619 586.959 M 548.407 590.668 C 548.783 594.336, 549.258 597.608, 549.463 597.940 C 549.668 598.272, 554.485 598.202, 560.168 597.784 C 565.851 597.367, 573.381 597.304, 576.902 597.645 L 583.303 598.265 582.574 594.883 C 582.173 593.022, 581.596 589.813, 581.291 587.750 L 580.737 584 564.230 584 L 547.724 584 548.407 590.668 M 589.551 589.750 C 589.934 592.913, 590.634 595.987, 591.106 596.582 C 591.651 597.267, 598.205 597.735, 608.983 597.858 C 623.364 598.023, 626 597.826, 626 596.586 C 626 595.778, 625.609 594.877, 625.132 594.581 C 624.654 594.286, 623.964 591.785, 623.597 589.022 L 622.931 584 605.894 584 L 588.856 584 589.551 589.750 M 632.389 589.227 C 632.666 592.127, 633.525 596.300, 634.297 598.500 L 635.701 602.500 651.600 602.729 C 668.098 602.967, 672.482 602.590, 671.510 601.015 C 671.186 600.492, 663.350 600.179, 653.468 600.295 C 643.861 600.408, 636 600.178, 636 599.785 C 636 597.955, 640.653 597.372, 654.750 597.433 C 665.139 597.479, 670 597.152, 670 596.409 C 670 595.809, 669.403 593.334, 668.673 590.909 C 667.943 588.484, 667.381 586.050, 667.423 585.500 C 667.471 584.877, 660.781 584.397, 649.692 584.227 L 631.885 583.953 632.389 589.227 M 676.669 587.228 C 677.014 589.028, 678.245 593.200, 679.405 596.500 L 681.514 602.500 700.872 602.772 C 718.294 603.017, 720.169 602.884, 719.615 601.440 C 719.277 600.558, 719.001 599.761, 719.001 599.668 C 719.002 599.576, 711.349 599.633, 701.994 599.796 C 692.639 599.958, 684.235 599.671, 683.318 599.158 C 681.622 598.209, 681.447 597.795, 680.499 592.500 C 679.975 589.573, 679.989 589.561, 681.083 592 C 681.700 593.375, 682.545 595.175, 682.962 596 C 683.593 597.248, 686.682 597.500, 701.348 597.500 C 716.565 597.500, 718.910 597.295, 718.493 596 C 718.228 595.175, 717.154 592.250, 716.106 589.500 L 714.202 584.500 695.122 584.228 L 676.041 583.957 676.669 587.228 M 723 584.431 C 723 584.692, 723.401 585.940, 723.891 587.203 C 724.381 588.466, 725.559 591.525, 726.510 594 C 730.370 604.044, 727.902 603.079, 748.930 602.771 C 773.027 602.419, 773.625 600.618, 749.788 600.193 C 734.072 599.913, 729.178 599.139, 730.419 597.131 C 730.637 596.778, 729.958 594.723, 728.908 592.566 C 727.034 588.712, 726.312 584.979, 727.713 586.379 C 728.105 586.771, 729.416 589.434, 730.627 592.296 L 732.829 597.500 749.401 597.500 C 768.138 597.500, 766.655 598.428, 762.987 589 L 761.237 584.500 742.118 584.228 C 731.603 584.079, 723 584.170, 723 584.431 M 771 585.477 C 771 587.494, 775.767 600.014, 777.185 601.723 C 778.877 603.761, 815 603.316, 815 601.257 C 815 600.418, 814.099 599.930, 812.750 600.039 C 811.513 600.139, 803.297 600.172, 794.494 600.111 L 778.488 600 777.293 597.250 C 774.593 591.036, 774.087 589.065, 775.040 588.475 C 775.876 587.959, 777.843 591.509, 778.377 594.500 C 778.918 597.526, 780.334 597.772, 797.025 597.744 C 806.401 597.728, 813.919 597.442, 813.733 597.108 C 813.044 595.871, 809.734 588.427, 808.906 586.250 C 808.060 584.028, 807.815 584, 789.525 584 C 773.852 584, 771 584.227, 771 585.477 M 238 586.892 C 238 587.566, 237.613 587.879, 237.140 587.586 C 236.378 587.115, 234.155 591.367, 232.632 596.208 C 232.316 597.213, 231.150 597.875, 229.798 597.817 C 228.534 597.762, 220.998 597.781, 213.050 597.859 C 195.002 598.035, 195.354 599.737, 213.500 600.034 C 234.059 600.371, 234.890 600.297, 234.337 598.183 C 234.076 597.183, 235.021 594.186, 236.437 591.522 C 237.854 588.858, 238.785 586.451, 238.506 586.173 C 238.228 585.894, 238 586.218, 238 586.892 M 367.001 599.750 C 367.002 600.163, 359.577 600.367, 350.501 600.203 C 339.488 600.005, 334 600.255, 334 600.953 C 334 602.283, 332.774 602.176, 351.750 602.503 C 367.120 602.767, 368 602.680, 368 600.891 C 368 599.851, 367.775 599, 367.500 599 C 367.225 599, 367.001 599.337, 367.001 599.750 M 393.750 599.774 C 383.714 599.938, 377 600.440, 377 601.024 C 377 601.561, 377.563 602.031, 378.250 602.068 C 392.001 602.817, 411.066 602.702, 411.583 601.866 C 412.854 599.810, 410.250 599.504, 393.750 599.774 M 480.750 599.774 C 468.342 599.977, 464 600.366, 464 601.274 C 464 602.976, 498.153 603.041, 498.720 601.340 C 498.932 600.704, 498.744 600.030, 498.303 599.842 C 497.861 599.654, 489.962 599.623, 480.750 599.774 M 592.015 599.643 C 592.070 602.710, 593.864 603.075, 608.083 602.908 C 623.126 602.732, 626 602.429, 626 601.018 C 626 600.552, 619.025 600.118, 610.499 600.053 C 601.974 599.989, 594.324 599.678, 593.499 599.361 C 592.675 599.045, 592.007 599.172, 592.015 599.643 M 550 601.333 C 550 602.484, 552.980 602.714, 566.664 602.618 C 578.378 602.535, 583.445 602.153, 583.720 601.333 C 584.007 600.478, 579.562 600.136, 567.056 600.049 C 553.035 599.952, 550 600.181, 550 601.333 M 58 619.585 C 56.075 623.778, 54.350 627.612, 54.167 628.105 C 53.972 628.628, 92.751 629, 147.417 629 C 200.860 629, 241 629.379, 241 629.883 C 241 631.237, 202.628 631.815, 123.817 631.650 L 52.134 631.500 50.110 636 C 48.997 638.475, 47.122 642.750, 45.944 645.500 C 43.718 650.697, 40.115 658.538, 34.456 670.500 C 30.016 679.887, 27 687.695, 27 689.805 C 27 692.793, 31.854 698.836, 35.756 700.706 C 39.338 702.422, 57.312 702.500, 451.078 702.500 L 862.657 702.500 867.578 699.460 C 874.465 695.207, 875.580 692.512, 873.468 685.229 C 872.555 682.078, 871.200 678.375, 870.458 677 C 869.716 675.625, 868.357 672.700, 867.438 670.500 C 866.519 668.300, 864.051 662.900, 861.954 658.500 C 859.857 654.100, 857.178 648.025, 856.001 645 C 854.823 641.975, 852.968 637.700, 851.878 635.500 L 849.896 631.500 772.198 631.799 C 695.986 632.092, 662.165 631.429, 675.500 629.904 C 678.800 629.526, 719.188 629.168, 765.250 629.109 C 811.313 629.049, 849 628.769, 849 628.486 C 849 628.204, 848.550 627.191, 848 626.236 C 846.566 623.746, 842.678 614.668, 842.582 613.583 C 842.445 612.053, 840 611.730, 840 613.242 C 840 615.161, 836.241 618.378, 832 620.088 C 826.617 622.260, 74.708 622.207, 71 620.035 C 69.625 619.230, 68.177 618.555, 67.782 618.535 C 67.386 618.516, 65.811 617.028, 64.282 615.230 L 61.500 611.960 58 619.585 M 389.500 626.710 C 376.953 627.295, 343.637 630.003, 337.926 630.902 C 330.379 632.090, 324.325 635.340, 319.340 640.878 C 315.867 644.736, 314.647 647.313, 311.953 656.470 C 310.179 662.503, 308.727 669.044, 308.727 671.006 C 308.727 678.609, 315.477 685.765, 324.705 687.947 C 332.163 689.710, 576.787 689.936, 585.500 688.187 C 593 686.683, 598.803 682.663, 601.783 676.908 C 604.547 671.573, 604.275 669.085, 599.241 653.679 C 596.010 643.790, 595.298 642.506, 590.970 638.778 C 582.930 631.853, 576.133 630.274, 544 627.869 C 530.766 626.879, 405.962 625.942, 389.500 626.710 M 425.935 633.349 C 425.696 633.561, 412.225 634.014, 396 634.355 C 362.105 635.068, 341.828 636.920, 333.905 640.026 C 328.321 642.214, 322.675 646.665, 323.595 648.153 C 323.882 648.619, 323.703 649, 323.196 649 C 321.992 649, 317 666.612, 317 670.856 C 317 675.432, 318.434 677.635, 322.764 679.709 C 326.286 681.397, 332.925 681.500, 438.486 681.500 C 559.576 681.500, 553.463 681.775, 549.440 676.500 C 547.935 674.527, 546.441 674.493, 439.207 674 C 343.800 673.561, 330.194 673.312, 328 671.964 C 326.625 671.120, 325.355 669.770, 325.179 668.964 C 325.002 668.159, 324.522 667.155, 324.113 666.734 C 323.315 665.913, 324.969 657.123, 326.697 653 C 327.274 651.625, 328.056 649.069, 328.437 647.319 C 329.171 643.942, 332.031 640.544, 331.964 643.128 C 331.925 644.663, 329.722 653.649, 328.076 658.993 C 326.464 664.226, 326.724 665.406, 329.904 667.284 C 332.601 668.877, 340.658 669, 442.369 669 L 551.930 669 555.465 672.104 C 558.245 674.544, 559 675.953, 559 678.702 L 559 682.196 572.250 681.774 C 586.946 681.306, 590.760 680.087, 593.952 674.839 C 595.549 672.212, 595.600 671.320, 594.446 666.205 C 590.837 650.219, 587.996 644.605, 581.984 641.586 C 573.425 637.287, 560.962 635.698, 526.500 634.511 C 505.634 633.793, 426.466 632.878, 425.935 633.349 M 875.136 717.131 C 873.286 718.081, 868.561 719.422, 864.636 720.110 C 860.711 720.798, 857.163 721.842, 856.750 722.431 C 856.232 723.169, 855.751 723.116, 855.195 722.257 C 854.557 721.271, 770.025 720.938, 445.945 720.647 C 221.300 720.445, 36.375 720.061, 35 719.794 C 33.625 719.527, 30.743 718.558, 28.596 717.641 C 26.450 716.724, 24.520 716.147, 24.309 716.358 C 23.583 717.084, 26.293 721.937, 27.135 721.417 C 27.598 721.130, 27.712 721.588, 27.387 722.434 C 26.988 723.475, 27.658 724.300, 29.459 724.984 C 30.923 725.541, 31.882 726.382, 31.591 726.853 C 30.248 729.026, 43.398 737, 48.324 737 C 49.717 737, 51.532 737.675, 52.357 738.500 C 53.685 739.828, 98.882 740, 447.079 740 C 804.529 740, 841.037 739.854, 848.400 738.390 C 852.855 737.505, 856.928 736.380, 857.450 735.890 C 857.972 735.401, 859.210 735, 860.200 735 C 861.190 735, 862 734.523, 862 733.941 C 862 733.359, 862.385 733.120, 862.855 733.411 C 863.788 733.987, 871.587 727.760, 873.997 724.515 C 875.940 721.899, 879.208 715.841, 878.809 715.594 C 878.639 715.489, 876.986 716.180, 875.136 717.131" stroke="none" fill-rule="evenodd"/></svg>