<svg  viewBox="0 0 20 18"  xmlns="http://www.w3.org/2000/svg">
<path d="M7.86994 0.876696C7.26942 1.17929 6.47927 1.84498 6.1316 2.38964C5.72072 3.02508 5.24662 3.35793 4.77253 3.38819C2.84455 3.41845 0.790149 5.08269 0.410874 6.95875C0.0315997 8.77428 1.5487 11.1647 3.38186 11.7094C4.04559 11.891 4.0772 12.0725 4.0772 14.5537C4.0772 16.1877 4.20362 17.3073 4.45647 17.5494C4.99377 18.0638 14.5389 18.0638 15.0762 17.5494C15.329 17.3073 15.4554 16.1877 15.4554 14.5235C15.4554 11.9515 15.487 11.8607 16.2456 11.6791C17.1938 11.4673 18.8373 9.71231 19.1218 8.65325C19.7539 6.26279 17.3834 3.38819 14.7601 3.38819C14.286 3.38819 13.8435 3.0856 13.4958 2.51068C12.3896 0.634624 9.82953 -0.0915909 7.86994 0.876696Z" />
</svg>
