<svg  viewBox="0 0 20 18" xmlns="http://www.w3.org/2000/svg">
<path d="M8.05085 0.876698C7.45033 1.17929 6.66018 1.84498 6.31251 2.38964C5.90163 3.02508 5.42753 3.35793 4.95344 3.38819C3.02546 3.41845 0.971057 5.08269 0.591783 6.95875C0.212508 8.77428 1.72961 11.1647 3.56277 11.7094C4.2265 11.891 4.2581 12.0725 4.2581 14.5537C4.2581 16.1877 4.38453 17.3073 4.63738 17.5494C5.17468 18.0638 14.7198 18.0638 15.2571 17.5494C15.5099 17.3073 15.6363 16.1877 15.6363 14.5235C15.6363 11.9515 15.6679 11.8607 16.4265 11.6791C17.3747 11.4673 19.0182 9.71231 19.3027 8.65325C19.9348 6.26279 17.5643 3.38819 14.941 3.38819C14.4669 3.38819 14.0244 3.0856 13.6768 2.51068C12.5705 0.634624 10.0104 -0.091589 8.05085 0.876698ZM11.5275 2.08705C12.4125 2.66197 12.855 3.23689 13.1078 4.14466C13.2659 4.62881 13.5819 4.74984 14.8146 4.74984C16.142 4.7801 16.4581 4.90114 17.2799 5.77865C18.1016 6.65616 18.1964 6.98901 18.07 7.98755C17.8488 9.5005 17.1534 10.257 15.5731 10.6503L14.3721 10.9832V13.8275V16.7021H9.94722H5.52235V13.7065V10.7411L4.32132 10.5293C2.80422 10.3175 2.04567 9.53076 1.82442 7.98755C1.698 6.98901 1.79282 6.65616 2.61458 5.77865C3.43634 4.90114 3.7524 4.7801 5.07986 4.74984C6.31251 4.74984 6.62857 4.62881 6.7866 4.14466C7.16587 2.72249 8.58815 1.57265 9.94722 1.57265C10.3897 1.57265 11.1167 1.81472 11.5275 2.08705Z" />
</svg>
