 <svg version="1.0" xmlns="http://www.w3.org/2000/svg" width="75.000000pt" height="75.000000pt"
            viewBox="0 0 75.000000 75.000000" preserveAspectRatio="xMidYMid meet">
          
            <g transform="translate(0.000000,75.000000) scale(0.100000,-0.100000)"  stroke="none">
              <path fill="var(--sun)"  d="M350 695 c0 -41 2 -45 25 -45 23 0 25 4 25 45 0 41 -2 45 -25 45 -23
          0 -25 -4 -25 -45z" />
              <path fill="var(--sun)"  d="M120 624 c-11 -13 -9 -19 13 -42 25 -25 28 -25 44 -9 16 16 15 18 -7
          42 -27 29 -33 30 -50 9z" />
              <path fill="var(--sun)" d="M580 615 c-22 -24 -23 -26 -7 -42 16 -16 19 -16 44 9 22 23 24 29 13
          42 -17 21 -23 20 -50 -9z" />
              <path  fill="var(--sun)"  d="M335 581 c-27 -6 -31 -11 -26 -41 0 -5 22 -7 49 -4 103 11 190 -75
          178 -178 -4 -36 -1 -48 11 -52 9 -4 21 -2 27 4 15 15 12 120 -4 150 -25 50
          -84 100 -134 115 -53 16 -55 16 -101 6z" />
              <path fill="var(--moon)" d="M218 513 c-50 -57 -65 -159 -33 -227 56 -118 212 -157 313 -79 l34
          26 -63 30 c-82 39 -165 122 -205 205 -28 59 -31 62 -46 45z m34 -120 c33 -49
          93 -109 141 -141 41 -28 36 -42 -17 -42 -72 0 -147 64 -162 138 -6 28 1 82 10
          82 2 0 15 -17 28 -37z" />
              <path fill="var(--sun)" d="M650 375 c0 -23 4 -25 45 -25 41 0 45 2 45 25 0 23 -4 25 -45 25 -41
          0 -45 -2 -45 -25z" />
              <path fill="var(--sun)" d="M570 174 c-11 -13 -9 -19 13 -42 25 -25 28 -25 44 -9 16 16 15 18 -7
          42 -27 29 -33 30 -50 9z" />
            </g>
          </svg>