<svg xmlns="http://www.w3.org/2000/svg" width="481" height="664" viewBox="0 0 481 664" version="1.1"><path d="M 201.215 1.482 C 180.713 5.412, 164.148 13.267, 149.698 25.912 C 145.161 29.882, 143.077 31, 139.264 31.507 C 130.380 32.689, 113.806 37.149, 105.888 40.488 C 88.198 47.949, 69.304 63.927, 57.895 81.075 C 40.486 107.240, 31.388 126.567, 27.050 146.598 C 19.638 180.817, 23.963 212.908, 39.405 238.285 C 46.884 250.575, 58.605 262.463, 68.814 268.113 L 73.128 270.500 72.554 276.500 C 70.586 297.078, 68.841 327.107, 68.683 343.103 L 68.500 361.706 64.228 362.970 C 58.002 364.812, 50.679 371.875, 46.781 379.797 C 43.540 386.383, 43.500 386.635, 43.529 400.482 C 43.556 413.590, 43.742 414.940, 46.399 421.284 C 52.862 436.718, 66.382 448.585, 79.793 450.596 C 83.982 451.224, 84.205 451.451, 87.948 458.871 C 96.298 475.424, 112.045 493.649, 129 506.383 C 133.125 509.480, 142.433 515.049, 149.685 518.758 L 162.871 525.500 154.643 534 C 150.118 538.675, 144.934 544.413, 143.124 546.750 C 141.313 549.087, 139.456 551, 138.997 551 C 138.537 551, 135.762 548.801, 132.831 546.113 C 125.970 539.824, 120.541 530.604, 114.509 515 C 107.007 495.593, 104.521 494.046, 86.500 497.561 C 81.288 498.578, 76.235 498.906, 72 498.502 C 56.742 497.048, 39.651 490.189, 30.542 481.864 C 21.092 473.228, 16.103 459.816, 18.690 450 C 19.989 445.073, 19.319 443, 16.430 443 C 12.731 443, 6.637 449.203, 3.424 456.238 C 0.917 461.728, 0.518 463.935, 0.180 474.143 C -0.425 492.452, 2.904 500.991, 19.028 522.500 C 30.701 538.071, 32.463 544.092, 27.491 551.419 C 23.761 556.914, 21.234 562.200, 20.993 565.008 C 20.156 574.745, 22.779 577.771, 35.777 582.065 C 48.746 586.349, 52.355 588.277, 58.780 594.354 C 64.443 599.709, 66.589 603.153, 70.085 612.497 C 73.847 622.553, 77.965 624.062, 89.192 619.500 C 96.724 616.440, 103.354 616.257, 107.500 618.994 C 110.367 620.888, 110.500 621.291, 110.500 628.100 C 110.500 635.051, 110.588 635.300, 114.143 638.375 C 123.369 646.357, 167.515 658.223, 203.994 662.526 C 228.128 665.373, 279.872 663.815, 286.948 660.028 C 290.201 658.287, 291.352 655.263, 290.002 652.004 C 288.476 648.321, 286.145 647.830, 277.041 649.275 C 272.412 650.010, 258.108 650.467, 240 650.459 C 210.032 650.445, 197.406 649.307, 175.500 644.647 L 169.500 643.371 169.763 638.476 C 170.100 632.220, 177.003 604.636, 181.645 591 C 186.002 578.203, 194.623 556.247, 199.413 545.750 L 202.950 538 207.225 538.015 C 214.489 538.041, 214.554 538.356, 209.943 551.083 C 203.398 569.151, 203.306 569.576, 205.460 571.956 C 207.059 573.723, 208.542 574.005, 216.405 574.036 C 225.635 574.073, 250.004 575.304, 266.638 576.573 C 275.776 577.270, 275.777 577.270, 277.536 574.586 C 279.271 571.938, 279.223 571.713, 274.064 558.201 C 267.030 539.776, 267.125 540.351, 270.974 539.506 C 272.717 539.123, 274.290 538.965, 274.470 539.155 C 274.650 539.345, 279.763 549.625, 285.833 562 C 299.403 589.665, 305.553 608.103, 310.069 634.655 C 311.518 643.173, 311.120 644.595, 307.034 645.493 C 300.794 646.863, 299.157 654.748, 304.597 657.226 C 307.609 658.599, 323.199 655.911, 341.970 650.783 C 356.166 646.906, 358 645.393, 358 637.565 C 358 632.490, 358.206 631.986, 360.524 631.405 C 362.381 630.939, 365.522 632.016, 372.423 635.487 C 385.868 642.249, 388.910 641.253, 393.507 628.579 C 397.381 617.898, 401.567 613.234, 411.899 608.089 C 417.689 605.205, 420.919 604.258, 434.463 601.470 C 443.806 599.547, 447.099 598.025, 449.352 594.586 C 451.941 590.635, 451.369 584.935, 447.500 576.136 C 443.412 566.840, 442.987 560.906, 445.986 555.028 C 447.078 552.887, 448.437 550.848, 449.007 550.496 C 449.577 550.144, 453.863 545.564, 458.533 540.320 C 472.574 524.549, 477.181 513.783, 477.286 496.500 C 477.355 484.999, 475.741 478.456, 471.037 471.179 C 466.769 464.575, 462.177 461.778, 459.395 464.087 C 457.759 465.445, 457.768 465.696, 459.865 477.500 C 461.032 484.070, 459.234 488.896, 453.472 494.659 C 445.286 502.845, 430.188 509.562, 413.391 512.491 C 401.766 514.518, 394.738 514.392, 383.815 511.959 C 374.569 509.899, 370.250 510.039, 366.691 512.513 C 363.270 514.891, 360.058 520.318, 357.469 528.094 C 353.250 540.762, 345.243 551.234, 336.172 555.945 C 332.957 557.614, 331.742 556.918, 327.221 550.811 C 325.059 547.890, 320.470 542.394, 317.025 538.597 L 310.759 531.695 323.130 527.370 C 353.919 516.606, 379.156 499.481, 393.599 479.552 C 397.441 474.250, 397.465 474.237, 403.814 473.727 C 417.397 472.637, 433.380 461.233, 440.725 447.391 C 448.664 432.431, 449.213 409.138, 441.961 394.924 C 438.913 388.949, 433.451 383.385, 428.707 381.422 L 424.500 379.681 424.412 346.591 C 424.359 326.901, 423.666 304.388, 422.700 291 C 421.807 278.625, 421.465 268.365, 421.939 268.200 C 422.413 268.035, 426.963 265.158, 432.049 261.807 C 457.605 244.971, 475.077 217.277, 479.632 186.386 C 481.857 171.293, 480.549 166.940, 473.816 167.031 C 470.151 167.081, 468.187 170.951, 467.007 180.443 C 463.715 206.932, 448.946 232.472, 427.895 248.078 C 424.057 250.923, 420.759 253.082, 420.566 252.875 C 420.373 252.669, 419.535 247.550, 418.704 241.500 L 417.193 230.500 421.998 225.500 C 442.787 203.864, 451.502 160.221, 443.456 118.037 C 441.179 106.097, 439.910 104.044, 434.785 104.015 C 431.257 103.995, 430.532 105.512, 428.572 117.006 C 423.032 149.509, 409.174 164.935, 384 166.621 C 373.530 167.322, 372.497 167.625, 368.459 171.170 C 361.144 177.593, 357.996 188.097, 359.987 199.447 C 362.585 214.251, 371.711 228.197, 382.480 233.821 C 386.694 236.021, 388.826 236.446, 395.761 236.471 C 404.890 236.503, 404.409 236.121, 405.557 244.250 C 406.211 248.888, 406.165 249, 403.582 249 C 399.335 249, 399.257 251.707, 403.389 255.721 C 405.404 257.678, 406.819 259.515, 406.532 259.802 C 406.245 260.089, 404.320 259.767, 402.255 259.088 C 399.487 258.177, 397.758 258.135, 395.677 258.929 C 391.212 260.632, 392.694 263.078, 400.750 267.299 C 407.747 270.965, 408.001 271.227, 408.023 274.799 C 408.035 276.834, 408.472 283.984, 408.993 290.686 C 410.263 307.011, 412.222 356.111, 411.627 356.706 C 411.367 356.966, 407.766 355.122, 403.625 352.608 C 373.948 334.593, 325.098 320.739, 272.500 315.421 C 251.699 313.318, 212.517 313.307, 193.500 315.400 C 157.449 319.368, 121.791 327.748, 95.614 338.405 L 82.500 343.744 82.165 340.122 C 81.805 336.230, 83.295 309.439, 85.165 286.187 L 86.316 271.875 90.488 268.456 C 92.782 266.576, 96.702 264.135, 99.198 263.031 C 101.694 261.927, 104.300 260.343, 104.990 259.512 C 108.543 255.231, 98.565 253.341, 91.735 257.002 C 87.303 259.378, 87.401 259.728, 89.023 247.322 C 90.662 234.777, 90.302 235.416, 96.429 234.186 C 112.081 231.042, 122.914 219.947, 127.492 202.369 C 130.357 191.368, 128.767 181.120, 122.948 173.087 C 119.290 168.037, 114.946 166.004, 107.782 165.988 C 96.943 165.964, 85.042 161.024, 78.362 153.776 C 70.054 144.764, 65.463 134.003, 62.078 115.609 L 59.889 103.719 63.601 97.609 C 69.947 87.166, 76.535 78.779, 84.162 71.435 C 101.377 54.860, 117.152 48.004, 146.219 44.462 C 149.778 44.028, 151.621 43.136, 153.719 40.832 C 157.782 36.371, 171.559 26.251, 177.960 23.026 C 191.435 16.237, 210.390 12.317, 224.906 13.315 C 243.195 14.573, 254.612 19.633, 267.058 31.998 C 271.766 36.674, 277.166 43.154, 279.058 46.398 C 283.413 53.860, 285.107 55.008, 288.759 52.969 C 290.854 51.798, 291.573 50.560, 291.811 47.711 C 292.114 44.081, 292.357 43.871, 301.311 39.525 C 315.423 32.675, 325.401 30.566, 343.500 30.609 C 359.910 30.647, 366.387 31.900, 381.698 37.999 C 407.227 48.168, 432.798 70.845, 447.787 96.608 C 453.997 107.282, 460.544 124.144, 464.455 139.536 C 466.377 147.099, 468.705 154.122, 469.630 155.143 C 473.298 159.197, 480 155.837, 480 149.946 C 480 148.266, 478.670 141.325, 477.044 134.521 C 468.504 98.786, 450.755 69.588, 424.500 48.085 C 391.039 20.679, 353.272 10.973, 315.242 20.005 C 306.416 22.101, 294.435 26.896, 289.722 30.218 L 286.944 32.176 279.222 24.250 C 267.624 12.346, 258.458 6.825, 243.618 2.804 C 234.147 0.238, 211.404 -0.471, 201.215 1.482 M 205.669 22.985 C 193.608 25.163, 187.430 29.084, 188.173 34.090 C 188.735 37.881, 191.193 38.585, 198.196 36.961 C 206.791 34.969, 220.222 35.121, 226.500 37.283 C 229.250 38.229, 234.200 40.801, 237.500 42.999 C 244.205 47.463, 247.992 48.008, 251.051 44.949 C 256.206 39.794, 246.164 29.331, 231.755 24.847 C 224.783 22.677, 212.306 21.786, 205.669 22.985 M 283.039 87.189 C 281.481 88.861, 281 90.723, 281 95.083 C 281 101.013, 278.149 111.797, 274.887 118.210 C 272.518 122.868, 272.503 125.240, 274.829 127.345 C 281.434 133.322, 290.083 121.994, 293.004 103.541 C 294.292 95.403, 293.550 89.550, 290.894 86.894 C 288.392 84.392, 285.545 84.498, 283.039 87.189 M 40.023 151 C 36.530 165.072, 36.094 184.946, 38.972 198.952 C 42.605 216.632, 50.433 232.954, 60.489 243.814 C 65.774 249.524, 73.611 255.722, 74.464 254.869 C 74.700 254.634, 75.447 249.326, 76.125 243.075 L 77.358 231.708 74.929 229.819 C 62.796 220.384, 53.840 206.224, 49.031 188.871 C 46.102 178.301, 44.951 171.239, 43.591 155.500 L 42.382 141.500 40.023 151 M 239.608 151.580 C 238.551 154.333, 237.060 184.633, 236.775 209.139 C 236.518 231.197, 236.627 232.919, 238.405 234.889 C 241.097 237.872, 245.524 237.656, 247.632 234.439 C 249.108 232.187, 249.231 229.806, 248.657 214.689 C 247.778 191.533, 245.233 158.578, 243.958 153.845 C 242.898 149.908, 240.690 148.758, 239.608 151.580 M 183.613 164.817 C 182.174 167.145, 180.833 185.470, 180.300 210.072 L 179.703 237.645 182.040 239.822 C 184.995 242.575, 187.417 242.583, 190.153 239.847 C 192.271 237.729, 192.296 237.324, 191.641 215.597 C 190.917 191.596, 188.875 169.504, 187.068 166.127 C 185.891 163.927, 184.491 163.396, 183.613 164.817 M 300.219 165.236 C 296.932 169.197, 293.980 234.433, 296.848 239.738 C 297.513 240.969, 299.247 242.275, 300.700 242.640 C 302.803 243.167, 303.819 242.750, 305.671 240.596 C 307.781 238.143, 308 236.930, 307.995 227.694 C 307.990 216.037, 306.432 188.752, 305.018 175.566 C 304.024 166.301, 302.341 162.679, 300.219 165.236 M 135.082 203.846 C 133.934 205.992, 132.387 218.180, 131.431 232.622 C 130.431 247.712, 133.094 253.574, 138.951 249.177 L 141.500 247.263 141.382 227.382 C 141.263 207.287, 140.467 202, 137.560 202 C 136.741 202, 135.626 202.831, 135.082 203.846 M 347.445 204.089 C 346.471 205.666, 345.085 223.929, 345.100 235 C 345.117 247.463, 346.424 251.396, 350.688 251.809 C 353.173 252.049, 354.235 251.571, 355.498 249.643 C 356.939 247.445, 356.997 245.566, 356.022 232.834 C 355.007 219.580, 353.638 209.017, 352.381 204.750 C 351.812 202.818, 348.504 202.375, 347.445 204.089 M 197.500 245.612 C 180.576 247.581, 170.891 249.652, 168.906 251.726 C 165.963 254.803, 165.673 257.673, 168.066 260.066 C 169.833 261.833, 170.998 262.130, 174.367 261.674 C 176.640 261.366, 185.250 260.162, 193.500 259 C 215.609 255.884, 250.416 255.209, 273.070 257.456 C 295.881 259.718, 318.661 263.860, 337.119 269.100 L 352.020 273.330 354.510 270.991 C 360.602 265.268, 355.993 260.606, 339.837 256.148 C 326.371 252.431, 291.983 246.519, 275.346 245.060 C 258.584 243.589, 212.050 243.920, 197.500 245.612 M 137.500 255.963 C 115.463 261.737, 98.593 269.223, 96.174 274.303 C 95.028 276.712, 95.066 277.451, 96.443 279.553 C 98.591 282.832, 101.602 282.686, 110.264 278.884 C 119.063 275.022, 137.086 268.858, 146.818 266.383 C 155.201 264.251, 158 262.152, 158 257.996 C 158 252.205, 153.536 251.762, 137.500 255.963 M 365.228 268.399 C 363.004 273.281, 364.487 274.719, 378.779 281.543 C 386.217 285.094, 392.910 288, 393.651 288 C 395.843 288, 399 284.193, 399 281.551 C 399 278.368, 394.789 275.177, 383.786 270.021 C 373.307 265.110, 366.978 264.557, 365.228 268.399 M 220.121 339.123 C 218.813 340.775, 215.419 343.843, 212.580 345.941 C 196.112 358.107, 175.920 362.240, 157.739 357.166 C 153.470 355.975, 149.587 355, 149.110 355 C 148.633 355, 147.642 356.449, 146.909 358.221 C 144.673 363.617, 134.352 376.508, 126.402 383.834 C 117.023 392.476, 105.832 400.569, 95.750 405.999 C 91.487 408.295, 88 410.301, 88 410.456 C 88 413.887, 91.743 429.946, 94.098 436.621 C 103.232 462.507, 117.956 481.608, 140.720 497.103 C 169.877 516.950, 202.150 526, 243.770 526 C 268.408 526, 283.514 524.371, 301 519.827 C 347.529 507.737, 378.234 485.311, 390.020 454.809 C 393.424 445.998, 398 429.221, 398 425.549 C 398 424.109, 396.192 421.884, 392.750 419.085 C 380.980 409.515, 369.398 392.742, 360.381 372.211 C 360.312 372.051, 358.105 373.064, 355.478 374.461 C 342.526 381.347, 329.708 374.323, 320.889 355.505 C 318.750 350.940, 317 346.756, 317 346.206 C 317 345.657, 313.962 348.234, 310.250 351.933 C 299.074 363.069, 284.709 368.650, 269.531 367.753 C 254.419 366.861, 243.035 360.164, 230.701 344.909 C 226.962 340.284, 223.587 336.414, 223.201 336.310 C 222.815 336.205, 221.430 337.471, 220.121 339.123 M 68.422 375.418 C 59.507 379.300, 54.249 394.094, 56.991 407.580 C 58.748 416.218, 63.303 425.103, 68.368 429.772 C 72.850 433.903, 79.016 437.682, 78.980 436.276 C 78.969 435.849, 77.853 431.225, 76.500 426 C 75.147 420.775, 74.031 414.174, 74.020 411.332 C 74.001 406.527, 73.757 406.013, 70.552 404.032 C 62.739 399.203, 65.557 391.756, 74.558 393.445 C 77.660 394.027, 77.992 393.847, 78.539 391.290 C 78.867 389.755, 79.963 386.208, 80.974 383.407 C 83.091 377.539, 82.658 376.336, 77.936 374.982 C 73.541 373.721, 72.176 373.784, 68.422 375.418 M 411.228 393.039 C 409.978 393.541, 408.691 394.643, 408.367 395.487 C 407.725 397.159, 409.871 410, 410.792 410 C 411.103 410, 412.785 409.484, 414.528 408.854 C 418.412 407.449, 422.594 408.373, 423.968 410.939 C 425.370 413.560, 424.514 415.275, 420.719 417.451 C 414.599 420.958, 414.013 421.799, 415.589 424.819 C 416.358 426.294, 416.990 429.035, 416.994 430.912 C 417.001 434.844, 412.821 442.600, 410.247 443.431 C 409.114 443.797, 407.557 446.892, 405.818 452.232 C 404.342 456.762, 403.298 460.632, 403.498 460.831 C 403.697 461.031, 406.804 459.745, 410.402 457.974 C 427.035 449.785, 435.888 432.150, 433.136 412.687 C 430.889 396.800, 421.912 388.748, 411.228 393.039 M 154.637 400.420 C 146.684 403.348, 141.987 410.157, 142.016 418.718 C 142.073 435.095, 161.858 442.817, 173.212 430.894 C 181.544 422.144, 180.203 409.556, 170.203 402.649 C 165.508 399.407, 159.662 398.569, 154.637 400.420 M 304.481 402.338 C 300.168 404.297, 295.277 410.270, 293.919 415.237 C 292.563 420.198, 293.811 426.522, 297.042 431.059 C 299.515 434.532, 306.541 438, 311.104 438 C 315.848 438, 322.775 434.266, 326.335 429.789 C 332.418 422.140, 330.228 409.826, 321.790 404.242 C 317.125 401.156, 309.044 400.266, 304.481 402.338 M 155 442 C 156.970 443.273, 159.287 443.273, 158.500 442 C 158.160 441.450, 156.896 441.007, 155.691 441.015 C 153.910 441.028, 153.781 441.212, 155 442 M 228.734 443.088 C 216.414 445.991, 203 460.181, 203 470.312 C 203 477.453, 210.709 479.391, 214.486 473.199 C 220.796 462.856, 222.896 460.415, 227.539 458.026 C 236.077 453.632, 246.953 455.226, 253.567 461.840 C 255.026 463.299, 257.535 467.098, 259.143 470.283 C 262.808 477.544, 265.852 479.262, 269.779 476.285 C 275.025 472.309, 272.401 461.985, 263.837 452.903 C 255.527 444.090, 241.330 440.121, 228.734 443.088 M 166.530 541.256 C 150.155 558.237, 138.352 577.952, 131.065 600.500 C 127.112 612.728, 123.421 628.755, 124.345 629.679 C 124.626 629.960, 131.526 632.358, 139.678 635.009 L 154.500 639.829 155.642 635.664 C 156.270 633.374, 158.215 625.425, 159.965 618 C 165.194 595.813, 174.724 567.899, 184.636 545.744 C 187.036 540.378, 189 535.558, 189 535.032 C 189 534.507, 187.088 533.583, 184.750 532.979 C 182.412 532.375, 179.635 531.628, 178.578 531.318 C 177.103 530.887, 174.296 533.202, 166.530 541.256 M 290.750 536.689 C 288.655 537.237, 288.520 538.850, 290.344 541.527 C 295.318 548.830, 306.450 572.503, 311.623 586.779 C 315.406 597.219, 319.982 614.678, 322.953 630.004 C 324.048 635.655, 325.158 640.491, 325.418 640.752 C 325.856 641.190, 331.074 640.175, 340.219 637.875 C 343.541 637.039, 343.892 636.649, 343.507 634.220 C 337.007 593.221, 325.594 568.109, 301.027 540.750 C 296.887 536.140, 295.281 535.505, 290.750 536.689 M 227.923 542.143 C 227.293 543.322, 225.523 547.994, 223.992 552.525 L 221.207 560.764 240.659 561.493 C 251.357 561.894, 260.326 562.008, 260.589 561.745 C 260.851 561.482, 259.218 556.482, 256.959 550.633 L 252.852 540 240.961 540 C 229.829 540, 228.997 540.137, 227.923 542.143 M 200.231 577.860 C 197.561 578.613, 194.016 583.599, 194.007 586.615 C 193.996 590.114, 197.749 594, 201.138 594 C 205.420 594, 207.963 592.333, 209.578 588.467 C 212.321 581.903, 207.061 575.935, 200.231 577.860 M 280.655 584.829 C 279.745 585.835, 279 588.270, 279 590.240 C 279 593.012, 279.695 594.407, 282.077 596.411 C 286.022 599.731, 289.292 599.715, 291.927 596.365 C 294.376 593.252, 294.529 590.923, 292.537 587.072 C 290.234 582.617, 283.762 581.396, 280.655 584.829"  fill-rule="evenodd"/></svg>