<svg xmlns="http://www.w3.org/2000/svg" viewBox="201 -854 558 748"><path d="M373.96-248h212.257Q600-248 610-257.789q10-9.79 10-23.5Q620-295 610.162-305q-9.839-10-23.622-10H374.283q-13.783 0-23.783 9.789-10 9.79-10 23.5 0 13.711 9.838 23.711 9.839 10 23.622 10Zm0-142h212.257Q600-390 610-399.789q10-9.79 10-23.5Q620-437 610.162-447q-9.839-10-23.622-10H374.283q-13.783 0-23.783 9.789-10 9.79-10 23.5 0 13.711 9.838 23.711 9.839 10 23.622 10ZM267.717-106q-27.655 0-47.186-19.681Q201-145.363 201-173v-614q0-27.638 19.681-47.319Q240.363-854 268-854h280q13.156 0 25.078 4.5 11.922 4.5 22.54 15.093l143.264 142.814Q749.5-681 754.25-668.917 759-656.833 759-643.5V-173q0 27.637-19.693 47.319Q719.614-106 691.96-106H267.717ZM531-659.5V-787H268v614h424v-453H564.5q-13.8 0-23.65-9.85Q531-645.7 531-659.5ZM268-787v161-161 614-614Z"/></svg>