<svg xmlns="http://www.w3.org/2000/svg" viewBox="128 -832 704 704"><path d="M479-336q-10.571 0-19.821-3.409Q449.929-342.818 442-351L276-517q-16-16.091-15.5-37.545Q261-576 277-592t37.5-16q21.5 0 37.5 16l74 75v-262q0-22 15.5-37.5T479-832q22 0 37.5 15.5T532-779v262l75-75q15.733-16 37.367-15.5Q666-607 682-591q16 16 16 37.5T682-516L516-351q-7.929 8.182-17.179 11.591Q489.571-336 479-336ZM234-128q-43.725 0-74.863-31.137Q128-190.275 128-234v-67q0-22 15.5-37.5T181-354q22 0 37.5 15.5T234-301v67h492v-67q0-22 15.5-37.5T779-354q22 0 37.5 15.5T832-301v67q0 43.725-31.138 74.863Q769.725-128 726-128H234Z"/></svg>