<svg xmlns="http://www.w3.org/2000/svg" height="24" viewBox="0 -960 960 960" width="24"><path d="M480-132q-72 0-135.558-27.391-63.559-27.392-110.575-74.348-47.015-46.957-74.441-110.435Q132-407.652 132-479.826q0-72.174 27.391-135.732 27.392-63.559 74.348-110.574 46.957-47.016 110.435-74.442Q407.652-828 479.826-828q72.174 0 135.732 27.405 63.559 27.405 110.574 74.385 47.016 46.98 74.442 110.49Q828-552.21 828-480v34q0 48-32.979 81-32.978 33-81.021 33-36 0-65-21t-41-55q-21 34-54.5 55T480-332q-62 0-105-43t-43-105q0-62 43-105t105-43q62 0 105 43t43 105v34q0 35 25.5 60.5T714-360q35 0 60.5-25.5T800-446v-34q0-134-93-227t-227-93q-134 0-227 93t-93 227q0 134 93 227t227 93h200v28H480Zm0-228q50 0 85-35t35-85q0-50-35-85t-85-35q-50 0-85 35t-35 85q0 50 35 85t85 35Z"/></svg>