<svg  viewBox="0 0 15 21" xmlns="http://www.w3.org/2000/svg">
<path d="M0.0151367 20.6523V2.45242C0.0151367 1.83716 0.20822 1.31637 0.594387 0.890068C0.980553 0.463763 1.4523 0.25061 2.00963 0.25061H12.3639C12.9212 0.25061 13.393 0.463763 13.7792 0.890068C14.1653 1.31637 14.3584 1.83716 14.3584 2.45242V20.6523L7.18677 17.2559L0.0151367 20.6523ZM1.67011 17.8509L7.18677 15.2322L12.7034 17.8509V2.45242C12.7034 2.35871 12.6681 2.27281 12.5974 2.19471C12.5266 2.11664 12.4488 2.0776 12.3639 2.0776H2.00963C1.92475 2.0776 1.84694 2.11664 1.77619 2.19471C1.70547 2.27281 1.67011 2.35871 1.67011 2.45242V17.8509Z" />
</svg>
