<svg xmlns="http://www.w3.org/2000/svg" height="48" viewBox="0 -960 960 960" width="48"><path d="M738.479-543.957h-92.174q-14.775 0-24.822-10.139-10.048-10.139-10.048-25.308 0-15.649 9.652-25.471 9.652-9.821 25.218-9.821h92.174v-91.609q0-14.294 9.697-24.582 9.697-10.287 24.765-10.287 15.068 0 25.672 9.651 10.605 9.652 10.605 25.218v91.609h90.608q14.72 0 25.295 10.11 10.575 10.11 10.575 24.968 0 15.649-10.18 25.655-10.179 10.006-25.69 10.006h-90.608v91.173q0 15.27-10.626 25.57-10.625 10.3-25.419 10.3-15.641 0-25.168-10.3-9.526-10.3-9.526-25.57v-91.173Zm-377.374 53.566q-74.493 0-120.843-46.633-46.349-46.632-46.349-120.753 0-74.121 46.259-120.585 46.26-46.465 120.753-46.465 74.494 0 121.241 46.401t46.747 120.932q0 73.838-46.657 120.47-46.657 46.633-121.151 46.633ZM22.174-213.174v-30q0-41.177 20.16-73.021 20.159-31.844 57.492-47.979 76.435-35 137.122-48.718 60.688-13.717 123.676-13.717 64.072 0 124.506 14 60.435 14 136.87 48.435 37.334 16.488 57.993 47.849 20.659 31.362 20.659 73.151v30q0 34.932-24.385 59.053Q651.881-130 616.913-130H105.348q-34.141 0-58.658-24.121-24.516-24.121-24.516-59.053Zm83.174 0h511.565v-27.522q0-15.655-8.644-29.932-8.645-14.276-23.335-20.263-68.456-31.805-117.412-41.892-48.957-10.087-106.957-10.087-56.869 0-106.326 10.087-49.456 10.087-116.822 41.868-15.314 5.983-23.692 20.268-8.377 14.285-8.377 29.951v27.522ZM361.11-573.566q36.325 0 60.194-24.065 23.87-24.065 23.87-59.958 0-36.127-23.85-60.378-23.849-24.251-59.891-24.251t-60.194 24.277q-24.152 24.277-24.152 60.072 0 36.027 24.065 60.165 24.065 24.138 59.958 24.138Zm.02-84.043Zm0 444.435Z"/></svg>