<svg xmlns="http://www.w3.org/2000/svg" xmlns:xlink="http://www.w3.org/1999/xlink" xml:space="preserve" version="1.1" viewBox="311.34 261.3 367.24 484.08">
 <g id="Слой_x0020_1">
  <metadata id="CorelCorpID_0Corel-Layer"/>
  <path id="geo.svg" class="fil0" d="M494.96 707.92c47.59,-45.97 84.01,-90.08 109.25,-132.3 25.26,-42.22 37.87,-79.19 37.87,-110.93 0,-47.86 -14.09,-87.2 -42.26,-118.03 -28.18,-30.83 -63.13,-46.24 -104.86,-46.24 -41.73,0 -76.68,15.41 -104.86,46.24 -28.17,30.83 -42.26,70.17 -42.26,118.03 0,31.74 12.61,68.71 37.87,110.93 25.24,42.22 61.66,86.33 109.25,132.3zm0 37.46c-4.74,0 -9.48,-0.89 -14.22,-2.65 -4.74,-1.77 -9.03,-4.5 -12.87,-8.21 -21.83,-21.71 -42.26,-44.07 -61.28,-67.06 -19.02,-23.01 -35.56,-46 -49.61,-68.99 -14.05,-22.99 -25.17,-45.77 -33.35,-68.35 -8.19,-22.58 -12.29,-44.39 -12.29,-65.43 0,-60.58 18.17,-109.63 54.48,-147.14 36.31,-37.5 79.37,-56.25 129.14,-56.25 49.77,0 92.82,18.75 129.14,56.25 36.31,37.51 54.48,86.56 54.48,147.14 0,21.04 -4.09,42.81 -12.29,65.3 -8.18,22.5 -19.26,45.28 -33.23,68.35 -13.97,23.07 -30.47,46.07 -49.5,68.99 -19.03,22.91 -39.45,45.23 -61.28,66.93 -3.78,3.7 -8.07,6.49 -12.89,8.34 -4.81,1.85 -9.62,2.78 -14.43,2.78zm0.04 -238.24c12.11,0 22.45,-4.64 31.04,-13.94 8.6,-9.31 12.9,-20.49 12.9,-33.55 0,-13.07 -4.32,-24.24 -12.93,-33.51 -8.62,-9.27 -18.99,-13.9 -31.09,-13.9 -12.11,0 -22.45,4.65 -31.04,13.95 -8.6,9.3 -12.9,20.49 -12.9,33.54 0,13.07 4.32,24.24 12.93,33.51 8.62,9.27 18.99,13.9 31.09,13.9z"/>
 </g>
</svg>