<svg xmlns="http://www.w3.org/2000/svg" xmlns:xlink="http://www.w3.org/1999/xlink" version="1.1" style="shape-rendering:geometricPrecision; text-rendering:geometricPrecision; image-rendering:optimizeQuality; fill-rule:evenodd; clip-rule:evenodd" viewBox="31.54 31.13 1535.65 1487.87">
<g><path style="opacity:0.995"  d="M 760.5,31.5 C 1002.55,24.8296 1205.72,109.496 1370,285.5C 1518.17,454.698 1582.84,652.031 1564,877.5C 1538.2,1092.36 1442.36,1268.19 1276.5,1405C 1217.77,1451.89 1153.44,1489.89 1083.5,1519C 1052.11,1514.61 1033.28,1496.78 1027,1465.5C 1026.67,1407.17 1026.33,1348.83 1026,1290.5C 1021.78,1221.79 997.28,1161.62 952.5,1110C 1001.6,1100.08 1048.26,1083.41 1092.5,1060C 1205.07,994.722 1257.24,896.555 1249,765.5C 1245.29,731.032 1236.29,698.032 1222,666.5C 1214.71,651.593 1207.21,636.927 1199.5,622.5C 1209.94,584.179 1215.94,545.179 1217.5,505.5C 1217.9,475.999 1211.73,447.999 1199,421.5C 1191.35,409.17 1182.18,398.004 1171.5,388C 1097.98,384.677 1032.64,405.843 975.5,451.5C 874.683,415.524 772.35,410.691 668.5,437C 653.246,441.063 638.246,445.897 623.5,451.5C 579.012,416.934 528.679,396.101 472.5,389C 457.526,387.55 442.526,387.216 427.5,388C 401.784,410.263 387.284,438.43 384,472.5C 380.494,506.724 382.16,540.724 389,574.5C 392.181,590.572 395.681,606.572 399.5,622.5C 399.423,624.299 398.923,625.966 398,627.5C 359.766,685.768 343.766,749.768 350,819.5C 359.038,919.804 405.871,996.637 490.5,1050C 540.066,1078.86 593.066,1098.86 649.5,1110C 640.397,1120.38 631.897,1131.21 624,1142.5C 613.556,1147.91 602.389,1151.07 590.5,1152C 555.874,1155.33 521.207,1156 486.5,1154C 471.824,1151.49 458.824,1145.49 447.5,1136C 431.51,1119.49 416.344,1102.32 402,1084.5C 378.938,1059.39 351.438,1040.89 319.5,1029C 303.822,1024.84 288.822,1026.5 274.5,1034C 259.19,1044.6 254.69,1058.77 261,1076.5C 262.473,1080.78 264.473,1084.78 267,1088.5C 277.572,1097.14 287.572,1106.47 297,1116.5C 308.366,1131.22 317.699,1147.22 325,1164.5C 334.171,1189.18 344.171,1213.51 355,1237.5C 379.504,1276.02 414.337,1299.52 459.5,1308C 470.42,1309.84 481.42,1310.84 492.5,1311C 520.165,1311.5 547.831,1311.67 575.5,1311.5C 575.667,1362.17 575.5,1412.83 575,1463.5C 569.183,1486.66 555.35,1503.16 533.5,1513C 529.583,1514.47 525.583,1515.64 521.5,1516.5C 377.169,1459.09 260.002,1367.09 170,1240.5C 54.8803,1071.63 11.547,885.627 40,682.5C 75.1917,477.837 174.358,312.337 337.5,186C 462.891,92.6939 603.891,41.1939 760.5,31.5 Z"/></g>
</svg>