<svg xmlns="http://www.w3.org/2000/svg" width="512" height="512" viewBox="0 0 512 512" version="1.1"><path d="M 224 1.572 C 166.922 8.893, 115.870 34.025, 74.947 74.947 C 33.664 116.230, 8.625 167.401, 1.536 224.970 C -0.453 241.116, -0.453 270.884, 1.536 287.030 C 11.008 363.958, 54.308 431.792, 120.811 473.888 C 142.040 487.326, 174.798 500.604, 201.066 506.416 C 226.164 511.970, 259.981 513.583, 286.441 510.488 C 363.052 501.526, 431.701 457.835, 473.888 391.189 C 491.934 362.682, 506.822 320.403, 510.283 287.838 C 510.916 281.877, 511.787 277, 512.217 277 C 512.648 277, 512.993 266.988, 512.985 254.750 C 512.976 242.450, 512.596 233.089, 512.134 233.817 C 511.625 234.620, 511.032 231.888, 510.614 226.817 C 507.959 194.544, 493.064 151.531, 473.902 120.803 C 449.436 81.567, 412.123 47.504, 371.137 26.988 C 344.028 13.417, 317.051 5.261, 286.959 1.535 C 271.742 -0.349, 238.824 -0.330, 224 1.572 M 240.425 31.057 C 193.064 34.112, 149.141 52.080, 109.114 84.773 C 107.767 85.873, 112.555 91.046, 144.363 122.863 L 181.170 159.680 189.173 160.905 C 193.574 161.579, 197.699 162.331, 198.338 162.576 C 199.187 162.902, 199.500 159.184, 199.500 148.761 C 199.500 136.918, 199.883 133.177, 201.761 126.698 C 206.742 109.512, 217.272 92.221, 232.526 76.177 C 244.520 63.563, 249.691 60, 256 60 C 262.309 60, 267.480 63.563, 279.474 76.177 C 294.728 92.221, 305.258 109.512, 310.239 126.698 C 312.116 133.175, 312.500 136.919, 312.500 148.738 C 312.500 160.925, 312.716 162.912, 314 162.531 C 320.382 160.639, 332.004 159.548, 346 159.526 C 365.448 159.495, 368.756 160.540, 372.936 168.035 C 375.232 172.152, 375.369 173.290, 375.324 187.951 C 375.250 211.939, 370.827 232.489, 362.444 247.784 C 360.550 251.241, 359 254.278, 359 254.534 C 359 254.790, 360.238 255.002, 361.750 255.004 C 365.927 255.009, 370.671 258.436, 373.113 263.211 C 375.093 267.084, 375.305 269.002, 375.295 283 C 375.280 303.990, 372.015 321.865, 365.509 336.575 L 363.226 341.738 394.591 373.091 C 421.701 400.191, 426.128 404.232, 427.228 402.886 C 460.431 362.235, 477.853 319.180, 480.919 270.197 C 484.353 215.341, 468.508 163.352, 434.691 118.522 C 426.903 108.196, 403.804 85.097, 393.478 77.309 C 348.478 43.364, 295.911 27.478, 240.425 31.057 M 251.391 100.798 C 237.097 117.155, 230.024 132.615, 230.024 147.500 C 230.024 156.470, 231.909 163.510, 236.988 173.500 C 240.858 181.114, 254.194 199, 256 199 C 257.806 199, 271.142 181.114, 275.012 173.500 C 280.091 163.510, 281.976 156.470, 281.976 147.500 C 281.976 136.007, 278.172 125.033, 270.031 113.045 C 266.079 107.226, 257.338 96.728, 256.087 96.298 C 255.764 96.187, 253.651 98.212, 251.391 100.798 M 80 115.051 C 50.548 152.554, 33.981 195.477, 31.082 241.788 C 27.645 296.695, 43.467 348.615, 77.309 393.478 C 91.409 412.171, 118.384 436.285, 139.150 448.762 C 214.268 493.893, 308.010 492.131, 379.838 444.239 C 390.014 437.454, 403.933 426.934, 403.976 425.994 C 403.989 425.715, 390.551 412.044, 374.112 395.612 L 344.225 365.737 339.362 369.456 C 325.717 379.893, 305.232 386.339, 278.750 388.530 L 271 389.171 270.996 415.335 C 270.993 439.680, 270.854 441.727, 269.005 444.759 C 263.116 454.418, 248.884 454.418, 242.995 444.759 C 241.146 441.727, 241.007 439.680, 241.004 415.335 L 241 389.171 233.250 388.541 C 176.624 383.945, 147.433 359.295, 138.459 308.500 C 137.288 301.868, 136.683 293.251, 136.663 282.914 C 136.637 269.199, 136.876 266.858, 138.654 263.414 C 141.058 258.757, 146.190 255, 150.148 255 C 151.717 255, 153 254.790, 153 254.534 C 153 254.278, 151.450 251.241, 149.556 247.784 C 141.267 232.659, 136.777 211.992, 136.660 188.412 C 136.589 174.214, 136.733 173.024, 139.109 168.223 L 141.634 163.121 114.061 135.561 C 98.895 120.402, 86.265 108.011, 85.993 108.024 C 85.722 108.037, 83.025 111.199, 80 115.051 M 167.008 192.102 C 167.013 193.421, 167.456 198.325, 167.994 203 C 171.541 233.837, 184.817 251.292, 210.500 258.886 C 217.184 260.863, 231.147 263, 237.375 263 L 240.302 263 239.692 253.250 C 237.236 214.026, 216.222 193.195, 176.250 190.361 L 167 189.705 167.008 192.102 M 327.193 191.072 C 293.436 195.455, 274.586 216.858, 272.299 253.401 L 271.680 263.301 280.590 262.603 C 319.860 259.525, 339.643 240.932, 344.006 203 C 345.600 189.143, 345.909 189.980, 339.250 190.127 C 336.087 190.197, 330.662 190.622, 327.193 191.072 M 0.428 256 C 0.428 268.375, 0.571 273.438, 0.747 267.250 C 0.922 261.063, 0.922 250.938, 0.747 244.750 C 0.571 238.563, 0.428 243.625, 0.428 256 M 167.008 286.599 C 167.013 287.645, 167.480 292.550, 168.047 297.500 C 171.687 329.305, 185.089 346.888, 211.045 353.911 C 218.044 355.805, 232.448 358, 237.875 358 L 240.302 358 239.666 348.750 C 236.912 308.680, 216.222 287.984, 176.250 285.316 C 167.609 284.739, 167.001 284.824, 167.008 286.599 M 325.342 286.479 C 291.348 292.648, 274.858 312.019, 272.334 348.750 L 271.698 358 274.125 358 C 275.460 358, 280.366 357.534, 285.026 356.965 C 322.413 352.398, 339.662 334.991, 343.953 297.500 C 345.507 283.929, 345.950 284.986, 338.750 285.090 C 335.313 285.140, 329.279 285.765, 325.342 286.479" stroke="none" fill-rule="evenodd"/></svg>