<svg xmlns="http://www.w3.org/2000/svg" height="24" viewBox="0 -960 960 960" width="24"><path d="M481.12-270.769q13.265 0 22.38-9.159 9.115-9.159 9.115-22.423 0-13.264-9.158-22.38-9.159-9.115-22.423-9.115-13.265 0-22.38 9.159-9.116 9.158-9.116 22.423 0 13.264 9.159 22.38 9.159 9.115 22.423 9.115ZM480.134-120q-74.673 0-140.41-28.339-65.737-28.34-114.365-76.922-48.627-48.582-76.993-114.257Q120-405.194 120-479.866q0-74.673 28.339-140.41 28.34-65.737 76.922-114.365 48.582-48.627 114.257-76.993Q405.194-840 479.866-840q74.673 0 140.41 28.339 65.737 28.34 114.365 76.922 48.627 48.582 76.993 114.257Q840-554.806 840-480.134q0 74.673-28.339 140.41-28.34 65.737-76.922 114.365-48.582 48.627-114.257 76.993Q554.806-120 480.134-120ZM480-160q134 0 227-93t93-227q0-134-93-227t-227-93q-134 0-227 93t-93 227q0 134 93 227t227 93Zm0-320Zm2.479-170.462q30.367 0 52.329 18.858 21.961 18.857 21.961 47.142 0 22-12.346 39.77-12.346 17.769-28.577 32.769-20.56 18.642-36.203 41.013-15.643 22.371-17.951 49.295-.769 7.846 4.885 13.115t13.192 5.269q8.077 0 13.577-5.384 5.5-5.385 6.962-12.693 4-20.231 16.077-35.961 12.077-15.731 26.499-29.796 20.732-20.627 36.847-44.961 16.115-24.333 16.115-54.282 0-44.077-33.423-72.731Q529-687.693 484-687.693q-33.385 0-62.115 15.616-28.731 15.615-45.962 43.231-3.923 6.615-2.513 13.687 1.41 7.071 7.616 10.738 7.897 4.19 15.974 1.959 8.077-2.23 14.231-9.307 13.308-16.539 31.346-27.616 18.038-11.077 39.902-11.077Z"/></svg>