<svg xmlns="http://www.w3.org/2000/svg" viewBox="132 -828 696 696"><path d="M482.056-280q10.944 0 18.444-7.556 7.5-7.557 7.5-18.5 0-10.944-7.556-18.444-7.557-7.5-18.5-7.5-10.944 0-18.444 7.556-7.5 7.557-7.5 18.5 0 10.944 7.556 18.444 7.557 7.5 18.5 7.5Zm-1.882 148Q408-132 344.442-159.391q-63.559-27.392-110.575-74.348-47.015-46.957-74.441-110.435Q132-407.652 132-479.826q0-72.174 27.391-135.732 27.392-63.559 74.348-110.574 46.957-47.016 110.435-74.442Q407.652-828 479.826-828q72.174 0 135.732 27.391 63.559 27.392 110.574 74.348 47.016 46.957 74.442 110.435Q828-552.348 828-480.174q0 72.174-27.391 135.732-27.392 63.559-74.348 110.575-46.957 47.015-110.435 74.441Q552.348-132 480.174-132ZM480-160q134 0 227-93t93-227q0-134-93-227t-227-93q-134 0-227 93t-93 227q0 134 93 227t227 93Zm0-320Zm2.023-170Q514-650 537-630.286q23 19.715 23 49.286 0 22-12 40t-28 33q-19.828 18.235-34.914 40.118Q470-446 467-420q-1 6 3.2 10t9.8 4q6 0 10-4t5-9q4-20 15.5-35.5t25.449-29.284Q556-504 572-527.833q16-23.834 16-53.167 0-42-31-69.5T484-678q-32 0-59 15.5T381-621q-3 5-1.917 10.143 1.084 5.143 5.85 7.809Q391-600 397-602t11-7q14-17 32.5-29t41.523-12Z"/></svg>