<?xml version="1.0" standalone="no"?>
<!DOCTYPE svg PUBLIC "-//W3C//DTD SVG 20010904//EN"
 "http://www.w3.org/TR/2001/REC-SVG-20010904/DTD/svg10.dtd">
<svg version="1.0" xmlns="http://www.w3.org/2000/svg"
 width="564.000000pt" height="827.000000pt" viewBox="0 0 564.000000 827.000000"
 preserveAspectRatio="xMidYMid meet">

<g transform="translate(0.000000,827.000000) scale(0.100000,-0.100000)"
stroke="none">
<path d="M2375 8260 c-492 -49 -948 -321 -1206 -720 l-64 -98 -70 -12 c-235
-39 -412 -112 -583 -239 -284 -211 -436 -526 -418 -861 13 -244 93 -432 258
-605 121 -128 270 -213 471 -269 31 -9 57 -20 57 -24 0 -4 -7 -38 -15 -77 -21
-96 -80 -450 -104 -620 -29 -207 -36 -307 -21 -334 9 -18 9 -34 -2 -74 -18
-71 -15 -277 5 -350 l15 -57 -55 -37 c-65 -43 -104 -93 -133 -171 -22 -57 -28
-160 -14 -218 21 -86 100 -191 189 -251 60 -41 146 -65 240 -69 l90 -3 56 -73
c121 -157 272 -277 479 -379 106 -52 161 -75 294 -124 l48 -18 -78 -76 c-148
-143 -243 -297 -285 -461 -28 -109 -23 -254 10 -342 28 -72 99 -168 155 -209
l43 -30 7 -147 c11 -237 40 -392 76 -404 6 -2 20 -68 31 -148 28 -203 97 -430
166 -549 81 -139 204 -202 325 -167 153 44 195 151 219 564 l13 213 150 -3
151 -3 7 -90 c9 -127 37 -348 54 -429 29 -138 87 -222 176 -252 98 -32 196 -4
274 78 111 117 168 307 195 646 8 97 14 130 29 150 16 21 22 54 30 152 5 69
10 155 10 192 l0 66 50 37 c102 75 177 187 201 303 16 78 6 258 -20 347 -45
157 -150 336 -276 473 -37 40 -66 74 -64 75 2 1 57 20 121 41 306 101 546 258
726 476 l59 73 84 2 c211 5 383 132 434 319 42 156 -34 329 -178 403 -42 21
-48 28 -43 46 26 89 37 172 34 262 -2 68 2 111 11 133 11 27 12 62 2 205 -18
261 -57 620 -76 714 -5 20 0 22 52 28 342 35 626 226 771 517 157 314 124 694
-89 1013 -62 92 -158 190 -242 247 -34 22 -63 42 -64 43 -2 1 -14 40 -28 88
-53 183 -169 380 -315 531 -225 234 -520 383 -865 437 -129 20 -359 16 -506
-10 -125 -21 -126 -22 -171 -2 -92 39 -269 91 -379 111 -132 24 -370 33 -504
20z m501 -104 c306 -60 615 -206 816 -386 59 -52 78 -56 78 -17 0 31 -137 158
-243 227 -47 30 -86 58 -86 62 -1 12 33 18 150 27 677 50 1298 -363 1456 -969
20 -78 24 -114 21 -200 -3 -93 -1 -105 14 -108 24 -5 37 32 45 124 l6 73 26
-13 c80 -42 206 -192 278 -331 207 -401 109 -866 -234 -1112 -128 -91 -293
-157 -431 -172 -81 -8 -76 -13 -85 76 -6 47 -14 42 102 58 50 6 160 42 179 57
6 6 12 17 12 25 0 11 -6 13 -22 8 -88 -28 -200 -54 -240 -54 -31 -1 -87 13
-165 42 l-118 42 50 3 c165 8 290 38 410 100 83 42 103 58 89 72 -8 8 -36 0
-104 -30 -240 -106 -460 -107 -668 -5 -88 44 -178 129 -211 199 -26 56 -46
156 -37 189 3 12 35 57 71 101 66 80 76 100 51 109 -8 3 -36 -19 -70 -58 -148
-168 -352 -286 -616 -356 -42 -11 -694 -2 -830 12 -183 18 -338 85 -461 198
-69 62 -143 165 -155 214 -7 31 -30 45 -46 29 -24 -24 59 -183 144 -273 l25
-26 -61 -41 c-124 -84 -255 -122 -416 -122 -158 0 -242 21 -342 87 -22 13 -30
15 -40 5 -26 -26 73 -97 179 -129 l61 -17 -57 -44 c-79 -62 -105 -73 -330
-147 -203 -67 -231 -82 -231 -127 0 -22 0 -22 -90 3 -160 44 -295 123 -401
236 -119 127 -187 270 -215 457 -76 496 275 951 834 1081 108 25 109 25 104
-45 -4 -56 -3 -60 16 -60 17 0 24 10 32 43 13 47 75 159 146 263 63 91 258
284 361 357 212 150 509 262 763 287 141 14 340 4 486 -24z m-672 -2170 c35
-21 53 -37 45 -40 -8 -3 -77 -12 -154 -21 -139 -16 -426 -64 -538 -90 l-58
-13 28 27 c15 15 35 26 43 25 30 -4 186 16 245 31 74 19 208 84 255 124 34 29
35 29 55 11 11 -10 47 -35 79 -54z m1741 -109 c15 -23 37 -53 49 -66 l21 -24
-30 8 c-168 41 -330 76 -372 81 -29 4 -53 11 -53 15 0 5 6 9 14 9 18 0 222
102 266 133 l34 24 22 -69 c12 -38 35 -88 49 -111z m-695 -22 c251 -27 529
-79 765 -141 87 -23 236 -79 343 -130 80 -37 95 -49 107 -79 8 -19 15 -43 15
-53 0 -11 7 -26 17 -33 15 -13 16 -9 11 37 l-5 52 36 -15 c20 -8 40 -18 44
-23 20 -18 107 -719 107 -854 l0 -56 -57 29 c-32 16 -111 48 -176 72 -99 36
-120 40 -127 28 -14 -21 6 -35 95 -67 44 -16 124 -50 178 -75 l97 -46 0 -55 0
-55 -52 19 c-29 10 -111 39 -183 65 -220 78 -528 158 -760 196 -600 99 -1526
102 -2110 8 -283 -46 -521 -102 -728 -174 l-97 -33 0 43 0 42 78 33 c95 39
369 133 440 149 39 10 52 17 52 31 0 11 -4 21 -9 24 -18 11 -356 -94 -484
-151 -31 -14 -59 -24 -62 -22 -12 13 130 918 147 934 2 2 27 12 56 23 49 19
52 19 47 3 -10 -33 -35 -172 -35 -198 0 -55 24 -11 46 83 36 159 22 144 187
202 253 89 574 155 902 186 88 9 178 18 200 20 101 10 777 -3 915 -19z m-326
-1185 c356 -14 821 -69 974 -115 59 -18 59 -16 -1 -82 -45 -48 -29 -61 25 -19
l47 35 22 -69 c20 -61 21 -72 9 -95 -26 -49 -189 -150 -290 -180 -124 -36
-286 -37 -400 -2 l-45 14 60 12 c86 17 221 59 285 88 76 35 190 112 190 129 0
19 -7 18 -38 -5 -113 -80 -340 -155 -528 -176 -113 -13 -108 4 23 75 172 92
299 179 291 199 -1 6 -33 -10 -69 -34 -101 -67 -248 -143 -356 -183 -115 -44
-126 -60 -68 -111 20 -17 40 -31 45 -31 6 0 10 -4 10 -8 0 -25 -242 -54 -380
-45 -118 7 -121 3 46 52 40 11 82 30 95 40 21 18 22 21 9 35 -13 13 -26 14
-88 4 -52 -7 -101 -7 -175 0 -249 27 -481 125 -719 303 -106 79 -158 101 -123
51 9 -12 47 -47 84 -76 190 -152 395 -255 616 -311 l60 -15 -145 4 c-118 3
-161 9 -230 29 -163 49 -280 115 -402 227 -37 33 -69 60 -72 60 -3 0 -24 -37
-48 -82 -49 -95 -180 -236 -283 -305 -77 -51 -222 -131 -303 -165 l-62 -27 0
22 c0 45 29 215 45 263 27 82 101 226 149 291 35 48 54 64 83 73 64 18 293 62
304 58 6 -2 -45 -62 -113 -134 -169 -178 -217 -240 -292 -377 -44 -81 -27
-110 21 -34 66 104 121 183 161 230 75 89 293 315 310 322 27 10 170 33 255
40 75 7 79 6 145 -28 85 -44 112 -53 112 -35 0 7 -23 26 -51 41 -28 16 -48 31
-45 35 6 5 298 18 491 20 61 1 222 -3 359 -8z m1164 -164 c17 -9 63 -72 127
-172 120 -189 174 -264 192 -264 7 0 13 3 13 6 0 16 -53 109 -116 204 -61 92
-126 200 -121 200 27 0 349 -109 363 -123 6 -6 23 -107 30 -180 4 -45 10 -67
17 -64 8 2 12 37 12 105 0 111 6 121 49 79 48 -48 40 -246 -16 -412 -33 -96
-45 -119 -35 -69 7 39 -1 74 -18 74 -15 0 -25 -31 -25 -85 0 -22 -5 -47 -10
-55 -7 -11 -10 -5 -10 23 0 39 -41 323 -62 430 -10 52 -22 76 -34 65 -2 -3 3
-87 12 -187 9 -100 14 -185 10 -188 -3 -3 -36 16 -73 43 -134 98 -261 293
-318 489 -14 48 -25 89 -25 91 0 7 11 4 38 -10z m-2968 -68 c-101 -189 -182
-442 -202 -634 -13 -128 -12 -128 -72 -8 -42 85 -62 151 -76 254 -18 134 16
324 64 355 22 15 289 104 313 105 7 0 -5 -32 -27 -72z m697 -191 c156 -105
298 -160 485 -186 40 -6 90 -17 109 -25 83 -35 240 -58 389 -58 154 1 240 14
370 56 73 24 76 24 145 9 102 -22 303 -22 384 1 84 23 188 73 275 131 38 26
72 43 76 38 3 -4 36 -53 72 -109 74 -111 237 -278 305 -310 l40 -19 6 -123 c3
-68 11 -129 17 -137 22 -27 -75 -246 -159 -355 -68 -91 -212 -226 -301 -285
-341 -223 -848 -340 -1400 -321 -419 14 -755 95 -1068 257 -301 157 -493 376
-587 671 -21 67 -22 74 -7 79 14 5 18 25 22 114 l5 109 170 85 c188 94 272
150 378 250 71 68 157 171 157 190 0 6 2 11 4 11 2 0 53 -33 113 -73z m-1056
-498 l40 -81 -25 -37 c-36 -52 -34 -95 5 -132 17 -16 48 -33 69 -39 35 -9 41
-16 59 -66 12 -30 30 -73 42 -96 l21 -41 -73 6 c-252 21 -408 282 -283 472 21
33 87 95 100 95 2 0 22 -36 45 -81z m4039 15 c177 -160 79 -443 -176 -509 -62
-16 -124 -20 -124 -8 0 4 16 47 36 94 33 76 41 88 71 98 52 19 101 67 109 107
7 36 -11 73 -48 104 -19 15 -18 18 16 93 41 88 41 88 116 21z m-3947 -203 c10
-39 5 -46 -21 -32 -17 9 -20 22 -13 64 3 20 26 -2 34 -32z m3799 14 c10 -22 8
-29 -12 -50 -40 -42 -49 -31 -29 38 12 43 25 47 41 12z m-2592 -1039 c0 0 -9
-46 -19 -101 -25 -124 -61 -401 -61 -460 0 -41 -6 -51 -67 -119 -38 -41 -69
-73 -71 -71 -7 6 44 224 94 399 51 180 57 216 36 216 -10 0 -64 -120 -111
-248 -48 -129 -100 -359 -116 -514 -4 -32 -10 -58 -15 -58 -15 0 -69 72 -97
130 -39 80 -45 228 -13 332 50 165 159 327 306 452 54 46 65 52 98 48 20 -2
36 -5 36 -6z m1444 -67 c213 -195 350 -513 317 -734 -15 -102 -49 -174 -113
-237 l-53 -53 -2 50 c-10 215 -54 426 -141 686 -55 162 -79 219 -94 219 -16 0
-4 -62 60 -310 33 -129 63 -255 67 -280 7 -45 7 -45 -11 -20 -9 14 -38 48 -65
75 -44 46 -48 55 -54 115 -10 99 -55 420 -65 465 -14 61 -12 73 13 78 62 12
74 7 141 -54z m-454 -59 c15 -93 30 -245 30 -312 l0 -57 -52 -5 c-105 -11
-436 -26 -572 -26 l-139 0 6 173 c3 94 11 199 17 232 l11 60 344 0 344 0 11
-65z m215 -630 c8 -13 -6 -17 -72 -24 -41 -4 -53 -2 -53 9 0 13 19 17 97 23
12 1 25 -3 28 -8z m145 -4 c0 -20 -16 -29 -40 -21 -32 10 -25 35 10 35 19 0
30 -5 30 -14z m-1360 -11 c0 -12 -49 -27 -62 -19 -5 3 -4 12 3 20 13 16 60 15
59 -1z m181 5 c19 0 29 -5 29 -15 0 -16 -22 -19 -82 -9 -24 4 -38 12 -38 22 0
11 7 13 31 8 17 -3 44 -6 60 -6z m819 -15 c0 -11 -11 -15 -40 -15 -62 0 -50
27 13 29 18 1 27 -4 27 -14z m-612 -15 c17 0 32 -4 32 -10 0 -5 -25 -10 -55
-10 -44 0 -55 3 -55 16 0 12 6 15 23 10 12 -3 37 -6 55 -6z m462 -5 c0 -11
-11 -15 -42 -15 -24 0 -53 -3 -65 -6 -17 -5 -23 -2 -23 9 0 12 13 17 48 20 26
2 55 4 65 5 9 1 17 -5 17 -13z m-210 -15 c0 -6 -28 -10 -65 -10 -37 0 -65 4
-65 10 0 6 28 10 65 10 37 0 65 -4 65 -10z m320 -45 c0 -19 -4 -35 -10 -35 -5
0 -10 16 -10 35 0 19 5 35 10 35 6 0 10 -16 10 -35z m405 -6 c8 -25 -2 -69
-15 -69 -6 0 -10 20 -10 45 0 47 14 60 25 24z m-1425 -50 c0 -21 -4 -39 -10
-39 -5 0 -10 21 -10 46 0 27 4 43 10 39 6 -3 10 -24 10 -46z m410 -34 c0 -51
-10 -69 -25 -44 -10 15 4 99 16 99 5 0 9 -25 9 -55z m620 -46 c0 -66 -24 -62
-28 4 -2 37 0 47 12 47 12 0 16 -12 16 -51z m400 -55 c0 -32 -4 -44 -15 -44
-11 0 -15 11 -15 43 0 24 3 47 6 50 14 14 24 -6 24 -49z m-1420 -9 c0 -53 -11
-72 -24 -39 -8 21 -8 79 1 87 16 17 23 3 23 -48z m400 -50 c0 -30 -4 -55 -10
-55 -5 0 -10 25 -10 55 0 30 5 55 10 55 6 0 10 -25 10 -55z m620 -20 c0 -19
-4 -35 -10 -35 -5 0 -10 16 -10 35 0 19 5 35 10 35 6 0 10 -16 10 -35z m390
-65 c0 -20 -5 -30 -15 -30 -16 0 -19 17 -9 44 10 26 24 18 24 -14z m-1400 -15
c0 -37 -13 -47 -24 -19 -8 20 2 54 15 54 5 0 9 -16 9 -35z m30 -452 c25 -4 51
-12 58 -20 7 -7 30 -14 50 -14 43 -2 262 -7 310 -8 l32 0 0 -101 c0 -55 -4
-100 -9 -100 -5 0 -12 -48 -16 -107 -15 -226 -61 -381 -121 -403 -41 -16 -132
-1 -162 27 -14 12 -31 23 -39 23 -7 0 -18 11 -23 25 -5 14 -13 25 -18 25 -12
0 -82 151 -82 177 0 12 -4 23 -9 25 -14 5 -72 235 -74 293 -1 28 -5 52 -8 55
-4 3 -10 32 -14 64 l-7 59 44 -7 c23 -4 63 -10 88 -13z m1455 -108 c-4 -59
-10 -103 -14 -97 -3 5 -7 -15 -7 -47 -3 -109 -103 -421 -135 -421 -5 0 -9 -6
-9 -12 0 -21 -71 -61 -116 -66 -57 -6 -82 2 -123 38 -18 16 -37 30 -41 30 -19
0 -63 203 -53 250 3 20 1 30 -6 30 -8 0 -10 11 -6 34 4 21 2 36 -4 41 -8 4 -9
24 -5 56 4 32 3 49 -4 49 -7 0 -11 25 -11 63 0 35 -3 75 -6 89 -6 25 -5 26 62
33 37 4 126 8 196 9 89 2 131 6 136 15 5 8 21 10 47 6 21 -3 53 -2 69 3 17 5
32 8 34 6 1 -1 0 -51 -4 -109z"/>
<path d="M287 6558 c-23 -103 -27 -213 -7 -213 12 0 18 23 26 100 7 55 15 119
19 143 6 33 5 42 -7 42 -10 0 -20 -24 -31 -72z"/>
<path d="M3899 6433 c-97 -148 -293 -312 -491 -409 -71 -35 -100 -64 -63 -64
27 0 222 106 305 166 163 117 369 374 301 374 -5 0 -28 -30 -52 -67z"/>
<path d="M5416 6274 c-10 -74 -8 -104 8 -104 17 0 37 83 29 123 -8 43 -30 32
-37 -19z"/>
<path d="M461 5931 c-11 -7 -5 -20 30 -60 45 -52 54 -58 63 -42 5 7 -68 111
-77 111 -1 0 -8 -4 -16 -9z"/>
<path d="M5245 5793 c-32 -41 -34 -48 -19 -52 19 -3 86 66 81 83 -8 24 -28 13
-62 -31z"/>
<path d="M644 5788 c-13 -21 81 -73 110 -62 27 10 18 22 -40 48 -66 30 -61 29
-70 14z"/>
<path d="M5110 5683 c-62 -36 -82 -55 -71 -66 11 -11 78 22 105 51 31 35 14
43 -34 15z"/>
<path d="M4510 5306 c0 -19 5 -38 10 -41 6 -4 10 10 10 34 0 23 -4 41 -10 41
-5 0 -10 -15 -10 -34z"/>
<path d="M986 5223 c-3 -16 -8 -48 -11 -73 -3 -25 -9 -58 -12 -73 -4 -24 -2
-28 13 -25 31 6 60 198 30 198 -8 0 -17 -12 -20 -27z"/>
<path d="M4532 5097 c4 -64 22 -69 26 -6 2 35 -1 48 -13 53 -14 5 -16 -2 -13
-47z"/>
<path d="M957 4993 c-3 -4 -6 -41 -8 -82 -3 -52 0 -75 8 -78 15 -5 22 23 25
101 2 38 -1 60 -9 63 -6 2 -13 0 -16 -4z"/>
<path d="M2505 4951 c-21 -4 -30 -12 -30 -26 0 -18 7 -20 85 -20 79 0 85 2 88
21 2 15 -4 23 -20 28 -28 7 -82 6 -123 -3z"/>
<path d="M2757 4948 c-11 -8 -16 -20 -11 -31 9 -24 161 -25 171 -1 9 24 -7 32
-77 39 -48 5 -70 3 -83 -7z"/>
<path d="M4540 4856 c0 -58 4 -106 9 -106 10 0 26 153 20 185 -2 10 -10 20
-16 23 -10 3 -13 -22 -13 -102z"/>
<path d="M2217 4933 c-12 -3 -17 -12 -15 -26 3 -20 8 -22 58 -19 95 4 122 11
118 30 -3 14 -16 17 -73 19 -39 0 -78 -1 -88 -4z"/>
<path d="M3014 4927 c-10 -28 4 -35 82 -42 58 -6 79 -4 90 6 27 27 0 42 -85
47 -67 4 -82 2 -87 -11z"/>
<path d="M2011 4919 c-70 -9 -87 -19 -77 -44 5 -15 16 -16 74 -11 89 9 102 14
102 36 0 14 -25 35 -33 29 -1 -1 -31 -5 -66 -10z"/>
<path d="M3284 4905 c-11 -27 17 -41 91 -49 70 -7 85 -4 85 19 0 21 -28 32
-102 40 -59 6 -69 5 -74 -10z"/>
<path d="M1703 4878 c-31 -7 -43 -14 -43 -27 0 -24 28 -31 87 -20 86 16 93 19
93 39 0 17 -6 20 -47 19 -27 -1 -67 -5 -90 -11z"/>
<path d="M3550 4860 c0 -26 30 -37 116 -46 65 -7 66 -7 62 17 -2 20 -12 26
-58 36 -89 18 -120 17 -120 -7z"/>
<path d="M1505 4845 c-5 -2 -29 -9 -52 -15 -32 -8 -43 -16 -43 -30 0 -24 39
-26 115 -7 38 10 50 18 50 33 0 14 -8 19 -30 21 -16 1 -34 0 -40 -2z"/>
<path d="M3814 4825 c-9 -23 5 -34 67 -50 79 -21 119 -20 119 5 0 15 -12 23
-52 34 -97 28 -127 30 -134 11z"/>
<path d="M4080 4760 c-13 -24 8 -36 102 -61 56 -14 69 -15 79 -3 17 20 4 31
-64 52 -98 32 -106 32 -117 12z"/>
<path d="M2307 4526 c-11 -28 109 -61 269 -75 174 -15 394 8 489 51 29 13 35
43 8 35 -150 -42 -189 -49 -308 -54 -137 -6 -313 13 -396 42 -51 18 -56 18
-62 1z"/>
<path d="M4258 4433 c7 -3 16 -2 19 1 4 3 -2 6 -13 5 -11 0 -14 -3 -6 -6z"/>
<path d="M985 4440 c-3 -6 1 -7 9 -4 18 7 21 14 7 14 -6 0 -13 -4 -16 -10z"/>
<path d="M878 4413 c6 -2 18 -2 25 0 6 3 1 5 -13 5 -14 0 -19 -2 -12 -5z"/>
<path d="M1675 3735 c-27 -8 -53 -14 -56 -15 -4 0 -30 -21 -58 -46 -69 -62
-93 -111 -99 -201 -4 -64 -1 -78 25 -135 62 -132 208 -198 342 -153 69 23 152
99 181 167 45 104 14 238 -74 321 -67 63 -172 88 -261 62z m183 -81 c43 -30
17 -104 -36 -104 -57 0 -85 73 -40 104 12 9 29 16 38 16 9 0 26 -7 38 -16z
m-8 -294 c0 -5 -5 -10 -11 -10 -5 0 -7 5 -4 10 3 6 8 10 11 10 2 0 4 -4 4 -10z"/>
<path d="M3536 3724 c-57 -21 -118 -75 -150 -134 -98 -179 18 -401 218 -417
126 -11 231 46 286 154 37 71 35 177 -3 255 -50 102 -144 159 -261 157 -28 0
-69 -7 -90 -15z m226 -81 c25 -23 23 -68 -4 -87 -30 -21 -47 -20 -75 6 -28 26
-29 52 -3 78 24 24 57 26 82 3z"/>
<path d="M2557 3389 c-38 -22 -7 -98 53 -129 51 -26 105 -25 160 3 75 37 103
126 43 135 -12 2 -30 -11 -51 -38 -28 -34 -38 -40 -72 -40 -31 0 -43 6 -65 33
-35 41 -47 48 -68 36z"/>
</g>
</svg>
