<svg xmlns="http://www.w3.org/2000/svg" width="512" height="512" viewBox="0 0 512 512" version="1.1"><path d="M 129.500 1.396 C 116.586 5.523, 106.836 13.951, 101.113 25.935 L 97.500 33.500 97.500 256 L 97.500 478.500 101.113 486.065 C 105.878 496.043, 112.957 503.122, 122.935 507.887 L 130.500 511.500 256 511.500 L 381.500 511.500 389.065 507.887 C 399.043 503.122, 406.122 496.043, 410.887 486.065 L 414.500 478.500 414.500 256 L 414.500 33.500 410.887 25.935 C 406.122 15.957, 399.043 8.878, 389.065 4.113 L 381.500 0.500 257.500 0.309 C 159.166 0.157, 132.672 0.383, 129.500 1.396 M 138.170 30.708 C 134.756 31.370, 128.418 38.158, 127.656 41.969 C 127.295 43.773, 127 82.094, 127 127.125 L 127 209 256.022 209 L 385.044 209 384.772 124.750 C 384.512 44.159, 384.418 40.379, 382.618 37.724 C 381.583 36.197, 379.333 33.947, 377.618 32.724 L 374.500 30.500 257.500 30.378 C 193.150 30.311, 139.451 30.460, 138.170 30.708 M 168.241 98.995 C 161.510 103.098, 161.007 105.115, 161.007 128 C 161.007 150.885, 161.510 152.902, 168.241 157.005 C 175.065 161.166, 184.764 158.715, 189.005 151.759 C 190.818 148.787, 190.993 146.696, 190.993 128 C 190.993 109.304, 190.818 107.213, 189.005 104.241 C 186.227 99.683, 181.416 97.007, 176 97.007 C 173.270 97.007, 170.218 97.789, 168.241 98.995 M 127.234 355.250 L 127.500 471.500 129.724 474.618 C 130.947 476.333, 133.197 478.583, 134.724 479.618 C 137.403 481.434, 141.627 481.500, 256 481.500 L 374.500 481.500 377.618 479.276 C 379.333 478.053, 381.583 475.803, 382.618 474.276 C 384.430 471.603, 384.510 467.180, 384.766 355.250 L 385.033 239 256 239 L 126.967 239 127.234 355.250 M 168.241 290.995 C 166.448 292.088, 164.088 294.448, 162.995 296.241 C 161.108 299.336, 161.007 301.339, 161.007 336 C 161.007 370.661, 161.108 372.664, 162.995 375.759 C 168.884 385.418, 183.116 385.418, 189.005 375.759 C 190.892 372.664, 190.993 370.661, 190.993 336 C 190.993 301.339, 190.892 299.336, 189.005 296.241 C 186.227 291.683, 181.416 289.007, 176 289.007 C 173.270 289.007, 170.218 289.789, 168.241 290.995"  fill-rule="evenodd"/></svg>