<svg xmlns="http://www.w3.org/2000/svg" xmlns:xlink="http://www.w3.org/1999/xlink" xmlns:xodm="http://www.corel.com/coreldraw/odm/2003" xml:space="preserve" version="1.1" viewBox="242.03 235.42 515.94 515.93">
 <g id="Слой_x0020_1">
  <path id="Vector" class="fil0" d="M500.01 622.37c5.77,0 10.61,-1.95 14.51,-5.86 3.9,-3.9 5.84,-8.73 5.84,-14.51l0 -115.4c0,-5.77 -1.95,-10.61 -5.85,-14.51 -3.91,-3.91 -8.75,-5.86 -14.52,-5.86 -5.77,0 -10.61,1.95 -14.51,5.86 -3.9,3.9 -5.85,8.74 -5.85,14.51l0 115.4c0,5.78 1.96,10.61 5.86,14.51 3.91,3.91 8.75,5.86 14.52,5.86zm-0.01 -202.62c6.22,0 11.42,-2.1 15.63,-6.3 4.2,-4.2 6.3,-9.41 6.3,-15.63 0,-6.21 -2.1,-11.42 -6.3,-15.62 -4.21,-4.21 -9.41,-6.31 -15.63,-6.31 -6.22,0 -11.42,2.1 -15.63,6.31 -4.2,4.2 -6.3,9.41 -6.3,15.62 0,6.22 2.1,11.43 6.3,15.63 4.21,4.2 9.41,6.3 15.63,6.3zm0.04 331.6c-35.67,0 -69.21,-6.77 -100.61,-20.31 -31.39,-13.54 -58.7,-31.91 -81.92,-55.13 -23.23,-23.21 -41.61,-50.51 -55.16,-81.89 -13.55,-31.38 -20.32,-64.91 -20.32,-100.59 0,-35.68 6.77,-69.22 20.31,-100.61 13.54,-31.39 31.92,-58.7 55.13,-81.93 23.22,-23.22 50.51,-41.61 81.89,-55.15 31.39,-13.55 64.92,-20.32 100.6,-20.32 35.67,0 69.21,6.77 100.61,20.31 31.39,13.54 58.7,31.92 81.92,55.13 23.23,23.21 41.61,50.51 55.16,81.89 13.55,31.38 20.32,64.91 20.32,100.59 0,35.68 -6.77,69.22 -20.31,100.61 -13.54,31.4 -31.92,58.7 -55.13,81.93 -23.22,23.22 -50.51,41.61 -81.9,55.15 -31.38,13.55 -64.91,20.32 -100.59,20.32zm-0.04 -40.73c60.65,0 112.01,-21.04 154.1,-63.13 42.09,-42.09 63.14,-93.46 63.14,-154.1 0,-60.65 -21.05,-112.02 -63.14,-154.11 -42.09,-42.09 -93.45,-63.13 -154.1,-63.13 -60.65,0 -112.01,21.04 -154.1,63.13 -42.09,42.09 -63.14,93.46 -63.14,154.11 0,60.64 21.05,112.01 63.14,154.1 42.09,42.09 93.45,63.13 154.1,63.13z"/>
 </g>
</svg>