<svg xmlns="http://www.w3.org/2000/svg" version="1.1" viewBox="5.82 106.17 435.53 623"><path d="M 268.500 106.685 C 247.664 108.037, 227.180 115.716, 214.993 126.744 L 208.826 132.325 202.270 134.616 C 190.318 138.792, 180.661 146.757, 172.424 159.234 C 169.979 162.938, 166.832 166.719, 165.430 167.638 C 161.788 170.024, 154.303 180.883, 151.607 187.692 C 150.343 190.887, 148.711 196.790, 147.982 200.811 L 146.656 208.122 147.874 217.271 C 149.157 226.906, 151.434 233.258, 155.530 238.628 C 157.281 240.924, 158 243.132, 158 246.213 C 158 248.604, 158.690 256.134, 159.533 262.946 C 161.231 276.658, 161.339 276.281, 154.777 279.466 L 150.585 281.500 149.770 284.500 C 148.707 288.408, 149.622 293.409, 152.422 299 C 153.661 301.475, 155.965 307.510, 157.541 312.410 C 163.751 331.716, 178.965 348.782, 198.548 358.410 C 202.921 360.560, 207.400 362.630, 208.500 363.010 C 209.600 363.390, 212.075 364.272, 214 364.970 C 215.925 365.668, 220.425 366.885, 224 367.675 C 227.575 368.465, 230.853 369.462, 231.285 369.891 C 231.717 370.319, 229.692 372.264, 226.785 374.212 C 217.172 380.654, 204.510 393.695, 192.642 409.376 C 186.243 417.831, 180.373 425.276, 179.599 425.918 L 178.191 427.087 174.845 425.047 C 173.005 423.925, 170.600 423.003, 169.500 422.997 C 168.352 422.992, 166.807 421.769, 165.873 420.128 C 164.905 418.424, 161.964 416.151, 158.602 414.506 L 152.958 411.745 148.403 412.258 C 145.239 412.615, 142.954 413.628, 140.919 415.577 L 137.990 418.383 135.593 416.442 C 134.274 415.374, 130.873 412.597, 128.036 410.272 C 121.992 405.319, 116.508 403.574, 109.308 404.312 L 104.116 404.843 101.558 402.285 C 100.151 400.878, 99 399.250, 99 398.667 C 99 398.084, 97.875 395.896, 96.500 393.804 C 95.125 391.712, 92.786 388.087, 91.303 385.750 C 89.819 383.413, 87.493 380.271, 86.134 378.769 L 83.662 376.038 84.740 373.671 C 85.333 372.369, 86.372 367.973, 87.048 363.902 L 88.278 356.500 86.507 348.500 C 85.533 344.100, 84.824 338.092, 84.931 335.148 C 85.150 329.126, 83.842 326.983, 78.678 324.903 C 76.930 324.199, 73.354 321.719, 70.731 319.391 C 64.700 314.040, 58.923 311.239, 51.065 309.855 L 44.875 308.764 38.735 309.972 C 26.579 312.364, 17.372 318.817, 12.804 328.148 C 9.685 334.519, 6.903 347.181, 6.921 354.930 C 6.927 357.994, 6.682 362.585, 6.375 365.134 L 5.817 369.769 8.499 371.634 C 9.975 372.660, 12.153 374.621, 13.341 375.992 C 15.980 379.039, 23.210 386.123, 25.110 387.526 C 31.148 391.981, 40.108 395.548, 47.676 396.510 L 52.851 397.167 54.539 400.834 C 55.467 402.850, 57.593 407.324, 59.264 410.776 L 62.300 417.053 59.650 422.291 C 58.193 425.172, 57 428.324, 57 429.296 C 57 432.828, 59.987 438.085, 62.952 439.773 L 65.987 441.500 65.994 445.816 C 66.004 452.554, 69.881 458.376, 75.126 459.528 L 78 460.159 78 462.384 C 78 463.608, 79.523 466.272, 81.385 468.305 C 84.575 471.787, 86.386 472.458, 91.541 472.067 C 92.953 471.959, 94.255 473.109, 95.765 475.796 C 98.735 481.079, 107.381 491.895, 111.297 495.223 L 114.500 497.946 121.500 497.969 L 128.500 497.993 131.673 496.058 C 133.418 494.994, 136.697 491.618, 138.959 488.555 L 143.072 482.988 147.286 483.648 C 149.604 484.012, 153.975 485.172, 157 486.227 C 160.158 487.328, 166.673 488.390, 172.300 488.720 L 182.100 489.296 181.441 490.898 C 181.079 491.779, 180.165 498.350, 179.411 505.500 C 178.656 512.650, 177.638 520.922, 177.148 523.883 C 175.750 532.324, 177.182 535.647, 184.066 539.934 L 188.186 542.500 188.084 569.500 C 187.956 603.857, 189.650 657.372, 191.020 662.207 C 191.636 664.380, 193.297 666.788, 195.035 668.025 L 198 670.136 197.985 673.318 C 197.965 677.465, 197.652 677.885, 190.042 683.967 C 179.270 692.577, 174.892 697.025, 172.923 701.362 C 169.228 709.499, 171.085 715.138, 178.078 717.021 C 184.625 718.784, 205.740 718.516, 214.784 716.555 C 216.278 716.231, 218.625 715.756, 220 715.500 C 221.375 715.244, 223.625 714.813, 225 714.544 L 227.500 714.054 230 719.277 L 232.500 724.500 238.402 726.837 L 244.305 729.173 254.402 729.131 C 259.956 729.108, 266.975 728.617, 270 728.040 C 278.409 726.435, 300.737 719.033, 303.209 717.032 C 306.378 714.465, 307.909 706.430, 307.958 692.096 L 308 679.693 311.895 676.096 C 314.300 673.875, 316.201 670.971, 316.866 668.500 C 317.458 666.300, 319.090 651.900, 320.493 636.500 C 323.840 599.770, 325.822 580.753, 327.007 574 C 328.895 563.246, 331 548.373, 331 545.788 C 331 541.362, 331.993 540.121, 338.170 536.829 C 341.447 535.082, 345.043 532.494, 346.162 531.077 L 348.196 528.500 347.560 518 C 346.961 508.091, 345.865 496.861, 342.533 466.500 C 341.749 459.350, 340.830 450.800, 340.491 447.500 C 338.317 426.322, 333.565 406.706, 327.774 395 L 323.569 386.500 315.330 378.500 C 310.799 374.100, 305.496 369.076, 303.545 367.336 C 301.595 365.595, 300.002 363.795, 300.004 363.336 C 300.006 362.876, 304.169 361.481, 309.254 360.236 C 320.430 357.500, 319.589 357.756, 324.500 355.585 C 326.700 354.612, 328.950 353.728, 329.500 353.619 C 330.050 353.511, 331.625 352.684, 333 351.783 C 334.375 350.882, 336.850 349.571, 338.500 348.870 C 340.150 348.169, 344.350 345.400, 347.834 342.715 C 351.318 340.031, 354.279 337.984, 354.414 338.167 C 354.550 338.350, 355.470 341.650, 356.459 345.500 C 358.712 354.271, 365.084 366.113, 370.243 371.119 C 375.647 376.365, 383.053 379.744, 392.250 381.163 L 400 382.359 407.255 381.231 C 411.245 380.610, 416.083 379.378, 418.005 378.491 C 428.279 373.755, 429.784 372.174, 437.993 357.500 L 441.349 351.500 438.925 353.493 C 437.591 354.590, 434.598 357.177, 432.272 359.243 L 428.045 363 423.522 363 C 412.158 363, 410.787 349.959, 420.836 337.453 C 428.283 328.185, 432.628 321.072, 435.162 314 L 437.492 307.500 437.496 294.460 L 437.500 281.420 434 275.620 C 428.928 267.215, 421.095 259.008, 414.367 255.047 C 411.140 253.148, 407.205 250.081, 405.623 248.231 C 404.040 246.382, 401.196 243.885, 399.303 242.684 L 395.859 240.500 395.566 226.500 C 395.092 203.872, 390.823 186.909, 380.882 168.160 C 374.728 156.552, 369.623 149.450, 361.118 140.663 C 341.152 120.036, 318.584 109.791, 287 107.017 C 280.675 106.461, 275.050 106.086, 274.500 106.184 C 273.950 106.281, 271.250 106.506, 268.500 106.685 M 267 115.047 C 254.745 116.024, 245.008 118.132, 237.500 121.435 C 229.057 125.148, 222.004 130.123, 222.002 132.367 C 222 134.515, 221.556 134.606, 235.015 129.680 C 253.637 122.864, 281.969 120.631, 301 124.480 C 335.145 131.385, 362.717 156.979, 373.511 191.786 L 376.391 201.071 377.945 200.777 C 381.974 200.015, 379.193 181.060, 373.336 169.369 C 365.128 152.981, 349.314 136.293, 334 127.857 C 315.424 117.624, 291.660 113.081, 267 115.047 M 248 136.774 L 248 138.548 255.750 141.371 C 283.830 151.602, 293.517 156.503, 309.454 168.540 C 314.886 172.643, 319.931 176, 320.665 176 C 323.168 176, 322.007 171.338, 318.328 166.615 C 311.312 157.610, 293.878 146.571, 277.350 140.668 C 269.891 138.005, 255.864 135, 250.890 135 L 248 135 248 136.774 M 197.322 144.527 C 187.404 149.469, 175.594 164, 181.496 164 C 182.319 164, 186.114 161.135, 189.930 157.632 C 193.747 154.130, 199.373 149.851, 202.434 148.124 C 212.206 142.609, 207.631 139.390, 197.322 144.527 M 212 157.423 C 212 162.272, 223.730 175.492, 238.979 187.830 C 259.097 204.108, 285.579 223.932, 287.250 223.965 C 290.239 224.025, 289.263 220.026, 284.912 214.386 C 278.870 206.555, 268.319 196.921, 251.632 184 C 243.464 177.675, 231.787 168.563, 225.683 163.750 C 219.579 158.938, 214.003 155, 213.293 155 C 212.582 155, 212 156.091, 212 157.423 M 334 163.792 C 334 164.777, 336.058 167.590, 338.574 170.042 C 341.090 172.494, 346.330 178.662, 350.218 183.750 C 357.443 193.204, 361 195.482, 361 190.655 C 361 184.497, 341.771 162, 336.507 162 C 334.764 162, 334 162.546, 334 163.792 M 266.667 164.667 C 264.917 166.416, 266.335 170.202, 270.250 174.232 C 278.109 182.321, 300.578 199, 303.616 199 C 304.436 199, 305 197.951, 305 196.426 C 305 192.941, 296.129 183.716, 284 174.588 C 270.084 164.114, 268.262 163.071, 266.667 164.667 M 199.487 171.250 C 201.544 181.601, 212.500 196.190, 224.164 204.111 C 229.849 207.972, 235 209.203, 235 206.700 C 235 205.985, 230.645 201.380, 225.322 196.466 C 216.121 187.971, 204.876 174.336, 203.502 170.008 C 203.143 168.874, 201.989 168, 200.853 168 L 198.841 168 199.487 171.250 M 188 174.841 C 188 181.415, 195.654 196, 199.104 196 C 201.823 196, 201.490 194.162, 197.142 185.170 C 195.020 180.782, 193.037 176.249, 192.735 175.096 C 192.032 172.405, 188 172.188, 188 174.841 M 161.702 184.777 C 156.506 190.519, 153.170 204.203, 154.457 214.500 L 155.144 220 157.072 220 L 159 220 159 214.058 C 159 210.133, 160.188 204.196, 162.500 196.569 C 164.425 190.219, 166 184.567, 166 184.011 C 166 182.390, 163.451 182.844, 161.702 184.777 M 179 192.610 C 179 200.959, 189.750 215.107, 205.119 226.985 C 217.079 236.228, 231.594 243.622, 251.425 250.573 C 259.988 253.574, 263 253.704, 263 251.073 C 263 248.291, 259.576 245.960, 243.663 237.911 C 217.322 224.587, 197.104 209.612, 186.526 195.592 C 180.843 188.060, 179 187.330, 179 192.610 M 335 203.250 C 335 206.008, 338.609 209.933, 356.173 226.277 C 369.658 238.826, 374 241.452, 374 237.059 C 374 232.785, 352.329 209.399, 342.770 203.357 C 337.922 200.293, 335 200.253, 335 203.250 M 168.542 211.750 C 165.325 220.133, 163.962 244.146, 166.002 256.500 C 167.405 264.994, 167.497 277.203, 166.177 279.669 C 165.562 280.819, 163.245 282.485, 161.029 283.372 L 157 284.984 157 288.524 C 157 302.829, 172.356 311.728, 179.330 301.465 L 181.716 297.953 182.963 299.455 L 184.209 300.957 182.332 304.229 C 181.285 306.052, 178.542 308.470, 176.136 309.691 L 171.817 311.881 169.344 310.941 C 165.728 309.566, 165 309.761, 165 312.104 C 165 316.178, 172.490 328.491, 179.396 335.771 C 194.369 351.553, 213.634 360.331, 238.785 362.830 C 245.290 363.476, 248.657 364.285, 250.035 365.531 L 252 367.310 252 372.655 L 252 378 255.750 377.990 C 262.601 377.972, 273.874 371.123, 275.504 365.989 C 275.937 364.623, 279.462 362.298, 285.831 359.178 C 291.149 356.573, 297.549 353.031, 300.054 351.307 C 305.597 347.493, 317 335.485, 317 333.463 L 317 332 311.191 332 C 307.729 332, 304.598 331.423, 303.441 330.571 L 301.500 329.143 303 328.608 C 303.825 328.313, 307.535 327.388, 311.245 326.552 C 326.454 323.123, 334.023 314.158, 333.978 299.628 C 333.951 290.923, 331.891 285.923, 326.227 280.817 C 319.699 274.931, 310.557 273.458, 300.006 276.591 L 294.649 278.182 289.378 283.581 C 283.926 289.165, 281.694 289.438, 284.729 284.150 L 286.466 281.123 283.464 276.853 L 280.463 272.583 269.981 270.394 C 242.669 264.690, 224.772 257.192, 205.069 243.198 C 193.757 235.164, 179.392 221.308, 175.575 214.750 C 172.698 209.808, 169.768 208.558, 168.542 211.750 M 342 236.278 C 342 238.650, 343.280 240.017, 350.177 245.013 C 354.253 247.966, 359 248.999, 359 246.934 C 359 244.560, 356.698 241.893, 351.328 238.048 C 344.843 233.405, 342 232.865, 342 236.278 M 314 251.487 L 314 253.973 317.750 255.564 C 319.813 256.439, 326.450 258.755, 332.500 260.711 C 338.550 262.667, 347.941 266.255, 353.369 268.684 C 364.219 273.541, 366.500 273.767, 366.500 269.986 L 366.500 267.500 361.758 264.331 C 353.606 258.883, 324.360 249, 316.391 249 L 314 249 314 251.487 M 393.624 250.750 C 393.344 251.713, 392.830 254.750, 392.483 257.500 C 391.532 265.042, 386.246 280.601, 381.881 288.709 C 379.747 292.674, 378 296.662, 378 297.570 L 378 299.223 381.750 298.537 C 390.555 296.927, 400.024 288.359, 403.460 278.891 C 405.922 272.109, 406.031 260.873, 403.680 256.338 C 401.900 252.906, 397.510 249, 395.433 249 C 394.719 249, 393.905 249.787, 393.624 250.750 M 410 263.416 C 410 264.313, 412.486 268.300, 415.524 272.274 C 424.857 284.482, 427.305 297.796, 422.924 312.522 C 421.782 316.360, 420.600 320.782, 420.296 322.348 L 419.744 325.196 421.616 324.835 C 422.757 324.616, 424.857 321.785, 426.994 317.588 L 430.500 310.702 430.500 298.049 L 430.500 285.396 426.811 277.948 C 422.787 269.823, 417.065 263.520, 412.750 262.459 L 410 261.783 410 263.416 M 208.299 272.960 C 199.941 278.055, 200.167 291.807, 208.656 294.712 L 211.500 295.685 214.657 294.378 C 219.307 292.452, 222 288.095, 222 282.496 L 222 277.800 218.600 274.400 C 214.697 270.497, 212.778 270.228, 208.299 272.960 M 340.500 287 C 339.288 288.962, 341.191 290, 346 290 C 350.972 290, 353.367 288.480, 350.878 286.904 C 348.980 285.702, 341.258 285.773, 340.500 287 M 305.059 291.217 C 299.263 294.196, 296.703 297.811, 296.590 303.172 L 296.500 307.438 298.214 307.786 C 299.386 308.023, 300.098 307.321, 300.464 305.566 C 300.759 304.155, 301.232 301.883, 301.514 300.518 C 301.808 299.104, 303.292 297.383, 304.965 296.518 C 310.915 293.441, 317.287 295.310, 319.049 300.647 C 320.228 304.220, 321.692 304.967, 322.645 302.482 C 323.553 300.118, 321.023 295.119, 317.603 292.517 C 312.856 288.905, 310.109 288.620, 305.059 291.217 M 410.703 302.834 C 410.277 309.822, 409.317 314.935, 407.455 320.128 C 406.001 324.182, 404.576 328.288, 404.289 329.250 L 403.767 331 406.446 331 L 409.125 331 412.137 324.359 L 415.148 317.717 415.687 309.109 C 416.280 299.649, 415.208 293.664, 412.841 293.208 L 411.307 292.913 410.703 302.834 M 397.466 298.055 C 396.896 298.978, 395.719 304.812, 393.393 318.250 L 392.744 322 394.923 322 C 398.040 322, 399.891 316.838, 400.660 306.007 L 401.299 297 399.709 297 C 398.834 297, 397.825 297.475, 397.466 298.055 M 351.500 317.300 C 349.300 318.458, 343.471 320.825, 338.547 322.561 C 328.966 325.939, 326.575 328, 332.239 328 C 336.338 328, 343.671 325.602, 349.451 322.371 C 357.511 317.867, 359.424 313.131, 351.500 317.300 M 44.226 320.179 C 44.737 321.712, 49.879 321.986, 50.250 320.500 C 50.388 319.950, 48.989 319.355, 47.143 319.179 L 43.786 318.857 44.226 320.179 M 375.317 322.750 L 373.607 326.500 373.564 339.500 L 373.521 352.500 375.664 357.108 C 378.151 362.455, 384.475 369, 387.153 369 C 389.901 369, 389.408 366.544, 385.527 360.903 C 379.483 352.116, 377.508 341.634, 379.611 329.500 C 381.389 319.238, 381.376 319, 379.013 319 C 377.688 319, 376.457 320.249, 375.317 322.750 M 34.710 322.644 C 31.781 324.178, 30.953 328, 33.550 328 C 36.404 328, 40.957 325.051, 40.388 323.569 C 39.552 321.391, 37.683 321.086, 34.710 322.644 M 61.250 324.250 C 61.479 324.938, 62.267 325.500, 63 325.500 C 63.733 325.500, 64.521 324.938, 64.750 324.250 C 64.998 323.506, 64.289 323, 63 323 C 61.711 323, 61.002 323.506, 61.250 324.250 M 50.625 326.484 C 48.568 328.041, 49.049 331, 51.358 331 C 52.139 331, 53.800 330.173, 55.048 329.162 C 59.040 325.929, 54.771 323.344, 50.625 326.484 M 38.750 331.221 C 34.919 333.440, 33.931 335.653, 36.355 336.583 C 38.360 337.352, 45.152 333.026, 44.799 331.205 C 44.341 328.844, 42.846 328.848, 38.750 331.221 M 24.008 331.491 C 23.297 332.347, 23.026 333.359, 23.405 333.739 C 24.252 334.586, 27.155 332.871, 27.152 331.525 C 27.148 329.871, 25.368 329.852, 24.008 331.491 M 66.500 330.696 C 49.058 334.747, 31.983 344.300, 18.084 357.784 L 13.668 362.068 14.769 363.169 L 15.871 364.271 19.685 361.272 C 21.783 359.623, 25.075 357.476, 27 356.500 C 28.925 355.524, 32.162 353.420, 34.194 351.824 C 39.597 347.578, 53.934 340.718, 66.382 336.421 L 77.264 332.666 75.441 331.333 C 73.643 330.019, 70.411 329.788, 66.500 330.696 M 16 337.469 C 16 338.363, 16.586 338.712, 17.500 338.362 C 18.325 338.045, 19 337.384, 19 336.893 C 19 336.402, 18.325 336, 17.500 336 C 16.675 336, 16 336.661, 16 337.469 M 26.557 338.937 C 24.921 340.745, 25.115 343, 26.906 343 C 28.451 343, 31.679 339.478, 31.260 338.250 C 30.635 336.420, 28.561 336.723, 26.557 338.937 M 393.006 345.750 C 393.013 352.221, 394.659 357.644, 398.159 362.731 L 401.096 367 403.548 367 C 406.817 367, 406.660 365.550, 402.533 357.633 C 400.627 353.975, 398.769 348.736, 398.404 345.991 L 397.742 341 395.371 341 L 393 341 393.006 345.750 M 73 342.809 C 73 344.554, 75.760 347.266, 76.851 346.592 L 78.005 345.879 76.968 343.939 C 75.954 342.045, 73 341.203, 73 342.809 M 17.200 344.200 C 16.540 344.860, 16 346.243, 16 347.273 C 16 350.322, 19.447 348.939, 19.816 345.741 C 20.153 342.822, 19.162 342.238, 17.200 344.200 M 63.250 345.493 C 61.145 346.407, 60 347.604, 60 348.893 C 60 351.845, 61.417 352.217, 65.871 350.435 L 69.874 348.833 69.091 346.718 C 68.076 343.973, 67.184 343.786, 63.250 345.493 M 48.308 351.172 C 45.410 352.602, 44.583 355.011, 46.374 356.803 L 47.821 358.250 51.661 356.375 C 56.254 354.132, 57.026 350.625, 53 350.295 C 51.625 350.182, 49.514 350.577, 48.308 351.172 M 76.015 353.250 C 76.041 355.361, 77.715 357.294, 78.888 356.569 C 80.841 355.362, 80.187 352, 78 352 C 76.900 352, 76.007 352.563, 76.015 353.250 M 66.250 355.220 C 61.905 357.316, 63.956 361.078, 68.750 359.806 L 72 358.943 72 356.471 C 72 353.751, 70.138 353.345, 66.250 355.220 M 35.082 360.065 L 32.664 362.093 34.272 363.701 L 35.880 365.309 38.501 363.591 C 41.264 361.781, 41.547 358.698, 38.989 358.280 C 38.170 358.146, 36.412 358.950, 35.082 360.065 M 53.250 360.733 C 50.986 361.868, 50 363.067, 50 364.681 C 50 367.568, 51.177 367.590, 56.148 364.797 C 62.627 361.155, 59.935 357.381, 53.250 360.733 M 68.481 364.404 L 66.500 365.865 67.723 367.106 L 68.946 368.346 71.551 367.159 C 74.238 365.935, 74.433 363.713, 71.898 363.221 C 71.108 363.068, 69.570 363.600, 68.481 364.404 M 287.750 364.716 C 286.238 364.945, 285 365.553, 285 366.066 C 285 366.580, 284.366 367, 283.590 367 C 282.815 367, 280.267 369.007, 277.929 371.461 C 273.965 375.620, 263.737 381.807, 258 383.516 C 252.795 385.067, 247 388.273, 247 389.601 C 247 390.361, 248.463 392.903, 250.250 395.251 C 252.037 397.598, 254.356 401.427, 255.402 403.760 C 256.448 406.092, 257.873 408, 258.569 408 C 261.354 408, 268.910 403.989, 275.520 399.002 C 291.518 386.930, 298.660 374.932, 294.839 366.547 C 293.694 364.033, 293.164 363.896, 287.750 364.716 M 24.598 368.163 C 22.856 370.650, 23.327 372, 25.937 372 C 28.286 372, 30.388 369.454, 29.643 367.513 C 28.808 365.336, 26.358 365.651, 24.598 368.163 M 40.689 367.604 C 37.177 369.508, 37.413 372.634, 41.037 372.218 C 44.241 371.850, 46.239 369.785, 45.430 367.678 C 44.654 365.656, 44.292 365.651, 40.689 367.604 M 57.250 369.180 C 53.994 371.188, 53.103 373.327, 55.027 374.517 C 56.642 375.515, 62.500 371.604, 62.500 369.527 C 62.500 366.939, 61.041 366.842, 57.250 369.180 M 71.643 372.271 C 70.496 373.111, 69.943 374.526, 70.167 376.056 L 70.524 378.500 72.356 375.782 C 74.631 372.407, 74.221 370.386, 71.643 372.271 M 239.500 372.569 C 231.701 376.617, 229 382.244, 229 394.443 L 229 401 230.500 401 C 231.325 401, 232 400.521, 232 399.936 C 232 399.350, 235.361 395.554, 239.468 391.499 L 246.937 384.127 246.324 377.564 L 245.711 371 244.105 371.006 C 243.222 371.010, 241.150 371.713, 239.500 372.569 M 31.250 374.558 C 28.583 377.455, 30.184 379.049, 33.399 376.697 L 35.181 375.395 33.840 374.298 L 32.500 373.201 31.250 374.558 M 46.011 375.487 C 44.723 377.039, 45.272 380, 46.846 380 C 48.430 380, 50.247 377.085, 49.643 375.513 C 48.907 373.595, 47.589 373.586, 46.011 375.487 M 61.750 376.613 C 58.479 378.339, 58.179 380.605, 61.101 381.532 C 63.804 382.390, 65.243 380.912, 64.828 377.703 L 64.500 375.162 61.750 376.613 M 298.204 382.263 C 290.072 395.182, 271.309 410.637, 262 412.085 L 257.500 412.784 254.807 411.210 C 253.031 410.172, 251.668 408.122, 250.807 405.196 C 247.845 395.131, 237.566 394.120, 233.985 403.540 C 232.797 406.665, 230.576 406.667, 227.455 403.545 L 225 401.091 225 393.545 L 225 386 223.551 386 C 222.107 386, 212 404.864, 212 407.560 C 212 408.318, 211.086 410.691, 209.970 412.834 C 208.853 414.976, 207.520 419.153, 207.007 422.115 C 206.494 425.077, 205.362 429.750, 204.492 432.500 C 200.203 446.057, 192.939 475.092, 193.577 476.125 C 193.828 476.530, 193.575 477.144, 193.016 477.490 C 191.488 478.435, 191.730 486, 193.289 486 C 193.997 486, 196.342 486.900, 198.500 488 C 202.483 490.031, 209.924 490.526, 215 489.097 L 217.500 488.393 217.214 483.947 C 217.056 481.501, 216.895 476.440, 216.855 472.699 L 216.782 465.898 218.546 463.949 C 219.710 462.663, 221.613 462, 224.142 462 L 227.975 462 230.373 465.799 C 231.692 467.889, 233.784 471.952, 235.021 474.828 C 236.925 479.252, 241.264 484, 243.404 484 C 243.732 484, 244 482.942, 244 481.649 C 244 480.356, 244.466 477.960, 245.037 476.325 L 246.073 473.351 252.787 470.198 C 260.768 466.451, 267.361 464.662, 270.049 465.516 C 271.122 465.856, 272.001 465.767, 272.002 465.317 C 272.003 464.868, 273.982 463.153, 276.400 461.508 L 280.795 458.515 283.045 444.726 C 284.282 437.141, 285.678 430.699, 286.147 430.409 C 286.616 430.119, 287.074 434.071, 287.165 439.191 C 287.255 444.311, 287.383 450.750, 287.449 453.500 L 287.569 458.500 291.284 458.810 C 295.394 459.154, 296.652 461.949, 292.750 462.069 C 286.148 462.271, 281.975 463.834, 277.290 467.857 L 275.081 469.755 277.979 477.282 C 281.864 487.370, 282.896 494.250, 282.628 508.250 L 282.402 520 284.076 520 C 289.370 520, 310.355 509.589, 313.235 505.535 C 313.639 504.966, 313.976 504.876, 313.985 505.335 C 314.001 506.217, 315.952 504.078, 321.133 497.500 C 328.449 488.211, 334.012 470.751, 333.992 457.140 C 333.982 450.393, 331.762 433.374, 329.549 423.073 C 327.132 411.824, 325.063 405.282, 321.445 397.449 L 318.158 390.334 310.957 383.667 C 306.997 380, 303.249 377.006, 302.628 377.013 C 302.008 377.020, 300.017 379.382, 298.204 382.263 M 37.250 382.250 C 37.478 382.938, 38.414 383.645, 39.329 383.823 C 40.489 384.048, 40.810 383.669, 40.390 382.573 C 39.680 380.724, 36.637 380.411, 37.250 382.250 M 51.088 382.945 C 50.349 383.402, 50.053 384.277, 50.431 384.888 C 51.254 386.219, 53.663 386.355, 54.430 385.113 C 55.281 383.737, 52.610 382.005, 51.088 382.945 M 77.315 384.867 C 76.038 386.912, 63.783 394, 61.525 394 C 58.910 394, 58.971 395.817, 61.878 404.469 C 65.245 414.487, 66.797 416.543, 71.578 417.319 C 73.877 417.692, 76.144 419.100, 78.219 421.443 C 81.975 425.685, 84.238 425.914, 87.257 422.355 C 88.490 420.900, 91.412 417.800, 93.750 415.465 C 98.187 411.034, 99.037 408.106, 96.500 406 C 95.675 405.315, 95 404.285, 95 403.711 C 95 401.865, 85.760 387.575, 83.086 385.286 C 79.897 382.556, 78.808 382.477, 77.315 384.867 M 202.245 406.688 C 199.635 410.367, 194.463 417.199, 190.750 421.871 C 187.037 426.543, 184.008 430.845, 184.018 431.432 C 184.028 432.020, 185.378 434.480, 187.018 436.900 C 188.658 439.321, 190 441.683, 190 442.150 C 190 444.068, 188.325 442.626, 185.408 438.196 L 182.316 433.500 178.726 433.466 C 176.751 433.448, 174.282 432.660, 173.239 431.716 C 171.023 429.711, 167 429.427, 167 431.276 C 167 436.768, 164.452 450.836, 162.341 457 C 159.391 465.615, 156.167 472.779, 154.884 473.572 C 154.398 473.872, 154 475.168, 154 476.451 L 154 478.785 161.092 480.523 C 168.365 482.305, 184.651 482.825, 185.993 481.317 C 186.393 480.868, 187.537 477.125, 188.536 473 C 189.534 468.875, 191.423 461.450, 192.733 456.500 C 194.043 451.550, 195.478 445.925, 195.922 444 C 196.366 442.075, 199.516 432.400, 202.923 422.500 C 206.329 412.600, 209.368 403.488, 209.675 402.250 L 210.233 400 208.611 400 C 207.719 400, 204.854 403.010, 202.245 406.688 M 107.200 410.995 C 99.006 414.477, 90 423.878, 90 428.950 C 90 432.697, 91.745 434, 96.766 434 C 101.752 434, 103.921 433.034, 109.395 428.375 C 113.288 425.062, 115 424.821, 115 427.589 C 115 430.106, 130.398 453.981, 132.028 453.991 C 133.981 454.003, 140.156 438.503, 140.745 432.111 L 141.170 427.500 134.006 422 C 120.372 411.533, 118.941 410.695, 114.110 410.349 C 111.574 410.167, 108.465 410.458, 107.200 410.995 M 147.750 419.571 C 147.338 419.990, 147 421.804, 147 423.601 C 147 430.290, 140.395 454.954, 137.936 457.450 C 136.217 459.194, 136.971 463.408, 140.142 469.786 L 143.285 476.105 146.392 475.803 L 149.500 475.500 153.723 467.009 C 159.098 456.203, 162 444.013, 162 432.241 L 162 423.230 159.316 421.471 C 156.403 419.563, 148.961 418.340, 147.750 419.571 M 65.649 426.413 C 61.809 432.273, 65.561 435.294, 70.213 430.088 C 73.540 426.364, 73.425 424.629, 69.822 424.198 L 67.298 423.896 65.649 426.413 M 75.443 434.295 C 73.975 435.558, 72.938 437.329, 73.137 438.231 L 73.500 439.871 77.011 438.185 C 78.943 437.258, 81.102 436.122, 81.810 435.661 L 83.097 434.822 81.926 433.411 C 80.269 431.414, 78.515 431.653, 75.443 434.295 M 105.141 437.550 C 101.031 439.668, 97.760 440.697, 95.891 440.461 C 93.862 440.204, 93 440.528, 93 441.548 C 93 442.346, 93.573 443, 94.273 443 C 94.973 443, 96.389 444.566, 97.419 446.480 L 99.293 449.960 98.693 457.120 L 98.093 464.279 99.670 467.390 C 100.537 469.100, 102.766 472.639, 104.623 475.252 C 106.481 477.866, 108 480.454, 108 481.002 C 108 482.259, 111.216 485.510, 113.859 486.924 C 116.841 488.521, 120.275 488.243, 126.538 485.900 C 132.472 483.680, 135.989 479.705, 135.996 475.210 C 136.001 472.439, 132.723 465.772, 129.011 461 C 127.513 459.075, 125.211 455.669, 123.894 453.431 C 122.577 451.194, 119.927 446.919, 118.005 443.931 C 116.082 440.944, 114.567 438.275, 114.638 438 C 114.709 437.725, 114.032 436.774, 113.134 435.887 L 111.500 434.273 105.141 437.550 M 78.135 445.017 C 73.498 448.376, 72.938 451.275, 76.819 451.827 C 78.429 452.056, 80.163 451.046, 82.603 448.459 C 88.400 442.312, 85.235 439.874, 78.135 445.017 M 87.487 452.626 C 84.414 456.689, 83.814 460.067, 85.665 462.892 L 87.273 465.347 88.743 463.423 C 90.995 460.478, 93 455.347, 93 452.532 C 93 449.134, 90.092 449.184, 87.487 452.626 M 221.792 468.556 L 220.628 471.113 222.467 478.498 L 224.306 485.884 222.599 488.490 C 218.231 495.155, 209.861 497.168, 199.683 494 C 191.365 491.411, 188.623 491.631, 188.157 494.926 C 187.742 497.864, 189.902 499.738, 199.250 504.550 C 202.963 506.461, 206 508.527, 206 509.140 C 206 510.894, 198.144 509.251, 193.130 506.449 C 187.656 503.390, 186 503.358, 186 506.313 C 186 510.372, 194.123 516.606, 204.681 520.649 L 211.500 523.260 222 523.345 L 232.500 523.430 240.248 521.070 C 244.509 519.772, 248.480 518.126, 249.073 517.413 C 250.589 515.585, 250.633 495.052, 249.127 492.237 C 248.468 491.007, 247.023 490, 245.915 490 C 239.094 490, 231.041 480.697, 226.656 467.750 C 225.785 465.179, 223.131 465.619, 221.792 468.556 M 257.502 473.580 C 255.304 474.398, 252.867 475.704, 252.089 476.483 L 250.672 477.899 252.963 484.700 L 255.254 491.500 255.743 505.330 L 256.231 519.161 254.459 523.090 C 253.485 525.252, 252.957 527.291, 253.288 527.621 C 253.618 527.951, 256.773 528.453, 260.299 528.736 C 266.882 529.264, 272.957 527.962, 274.914 525.603 C 275.505 524.892, 276.507 518.727, 277.142 511.905 L 278.296 499.500 277.051 492.209 C 276.364 488.190, 274.390 482.131, 272.653 478.709 L 269.500 472.500 265.500 472.297 C 263.300 472.185, 259.701 472.762, 257.502 473.580 M 333.609 485.020 C 332.724 487.231, 332 489.706, 332 490.520 C 332 491.334, 331.599 492, 331.109 492 C 330.618 492, 329.497 493.800, 328.617 496 C 327.736 498.200, 326.563 500, 326.008 500 C 325.454 500, 325 500.620, 325 501.377 C 325 502.787, 317.586 509.528, 311.116 514 C 309.127 515.375, 307.350 516.837, 307.167 517.250 C 306.983 517.663, 306.280 518, 305.604 518 C 304.928 518, 302.153 519.051, 299.437 520.336 C 296.722 521.620, 291.238 523.702, 287.250 524.961 C 283.262 526.220, 280 527.793, 280 528.456 C 280 531.120, 270.391 534.251, 262.241 534.244 C 258.534 534.240, 255.240 534.648, 254.922 535.150 C 254.603 535.652, 252.803 534.706, 250.922 533.047 C 249.040 531.389, 247.162 530.025, 246.750 530.016 C 246.338 530.007, 246 529.058, 246 527.906 L 246 525.812 240.750 526.517 C 237.863 526.904, 233.925 527.734, 232 528.361 C 227.354 529.873, 203.380 527.979, 202 525.991 C 201.725 525.594, 199.025 523.839, 196 522.090 C 192.975 520.341, 189.774 518.409, 188.886 517.796 C 185.754 515.634, 184.210 517.528, 183.469 524.442 C 182.991 528.911, 183.136 531.459, 183.924 532.409 C 185.570 534.392, 195.624 539, 198.305 539 C 199.542 539, 201.443 539.610, 202.527 540.356 C 207.481 543.761, 219.416 546.222, 239.456 547.970 L 249.411 548.839 252.206 547.394 C 254.180 546.373, 255 546.292, 255 547.117 L 255 548.286 263.250 547.559 C 267.788 547.159, 272.625 546.847, 274 546.866 C 275.375 546.885, 277.850 546.478, 279.500 545.961 C 281.150 545.445, 284.975 544.751, 288 544.419 C 291.025 544.088, 293.950 543.487, 294.500 543.085 C 295.050 542.683, 297.075 542.267, 299 542.160 C 303.919 541.887, 318.062 538.161, 320.715 536.438 C 321.933 535.647, 323.665 535, 324.564 535 C 326.186 535, 330.452 533.340, 336.819 530.231 C 341.726 527.835, 342.083 526.480, 340.998 514.346 C 340.041 503.636, 339.788 501, 338.449 487.750 C 337.654 479.883, 336.030 478.968, 333.609 485.020 M 318 542.607 C 316.075 543.448, 309.775 545.152, 304 546.395 C 296.765 547.951, 293.410 549.118, 293.211 550.148 C 292.777 552.392, 297.646 554.208, 305.500 554.734 L 312.500 555.202 318 553.286 C 323.855 551.247, 325.959 548.735, 325.985 543.750 L 326 541 323.750 541.039 C 322.512 541.061, 319.925 541.766, 318 542.607 M 195.099 572.250 C 195.289 604.417, 196.882 657.955, 197.710 660 C 198.044 660.825, 198.268 661.773, 198.207 662.107 C 198.146 662.440, 199.199 663.228, 200.548 663.857 C 201.897 664.485, 204.084 665.504, 205.409 666.120 C 206.789 666.762, 213.984 667.296, 222.251 667.370 L 236.682 667.500 239.341 666.081 L 242 664.662 241.989 658.081 C 241.974 649.275, 238.119 581.058, 237.215 573.605 C 236.772 569.951, 235.930 567.420, 235 566.945 C 234.175 566.524, 229.506 565.254, 224.625 564.123 C 216.223 562.176, 210.162 559.505, 211.381 558.285 C 211.686 557.980, 213.188 558.221, 214.718 558.820 C 216.248 559.418, 219.123 560.141, 221.106 560.426 L 224.712 560.943 224.235 558.449 C 223.430 554.236, 218.044 551.160, 208.383 549.396 C 207.219 549.183, 204.646 548.332, 202.665 547.505 C 200.685 546.677, 198.137 546, 197.004 546 L 194.943 546 195.099 572.250 M 266.186 553.554 L 261.871 554.910 244.773 554.481 L 227.676 554.052 230.460 556.958 C 231.991 558.556, 236.068 561.213, 239.519 562.861 C 246.641 566.263, 248.187 567.877, 245.101 568.684 L 243 569.233 243.015 572.367 C 243.024 574.090, 243.669 585.175, 244.448 597 C 245.228 608.825, 246.176 627.500, 246.555 638.500 C 247.274 659.422, 247.315 660.017, 248.474 666.556 L 249.194 670.612 253.347 673.211 C 257.104 675.563, 268.703 678.341, 274.500 678.279 C 289.544 678.116, 297.765 676.431, 305.353 671.954 C 308.901 669.861, 311.421 664.986, 310.872 661.279 C 310.727 660.301, 310.984 657.700, 311.443 655.500 C 312.452 650.666, 312.499 650.226, 313.391 637 C 313.780 631.225, 314.297 625.539, 314.540 624.365 C 314.782 623.191, 315.651 615.091, 316.471 606.365 C 318.275 587.174, 320.653 569.099, 321.800 565.872 C 322.263 564.567, 322.761 561.543, 322.905 559.152 L 323.167 554.804 320.016 555.496 C 318.283 555.877, 315.660 556.814, 314.186 557.578 C 309.442 560.040, 290.313 557.313, 284.527 553.351 C 282.022 551.635, 271.934 551.747, 266.186 553.554 M 203.436 676.575 C 203.049 679.157, 203.167 681.567, 203.706 682.106 C 204.232 682.632, 208.874 683.783, 214.022 684.663 L 223.382 686.265 231.629 685.038 C 236.165 684.363, 240.589 683.290, 241.461 682.652 C 243.367 681.258, 244.448 675.061, 243.129 673.091 L 242.185 671.682 231.843 672.930 L 221.500 674.179 215 673.097 C 211.425 672.502, 207.515 672.012, 206.311 672.008 L 204.123 672 203.436 676.575 M 247 685 C 247 689.950, 247.366 691.991, 248.250 691.968 C 250.796 691.903, 252.766 689.347, 253.467 685.198 C 254.300 680.263, 253.015 678, 249.378 678 L 247 678 247 685 M 294.500 682.523 C 288.435 684.082, 270.158 684.333, 264.118 682.941 C 261.708 682.385, 259.518 682.149, 259.251 682.416 C 258.984 682.683, 258.539 684.909, 258.263 687.363 L 257.760 691.824 261.130 693.662 L 264.500 695.500 278 695.458 L 291.500 695.415 296.500 693.431 L 301.500 691.447 301.802 686.223 L 302.105 681 300.802 681.119 C 300.086 681.184, 297.250 681.816, 294.500 682.523" stroke="none"  fill-rule="evenodd"/></svg>