<svg xmlns="http://www.w3.org/2000/svg" version="1.1" viewBox="14.97 91.22 1054.36 821.01"><path d="M 785.500 92.071 C 743.394 95.062, 709.069 107.394, 687 127.461 C 684.765 129.493, 681.512 131.115, 678 131.947 C 671.574 133.470, 655.344 141.360, 646.603 147.209 C 638.594 152.570, 623.816 167.646, 617.370 177.031 C 603.986 196.521, 596 220.723, 596 241.798 C 596 267.081, 604.031 290.917, 624.345 325.928 C 627.992 332.214, 631.249 338.812, 631.583 340.590 L 632.190 343.824 630.116 346.662 C 627.631 350.063, 626.053 354.919, 616.849 387.500 C 606.932 422.602, 601.127 445.768, 601.699 447.955 C 602.005 449.126, 600.071 453.033, 596.512 458.438 C 590.206 468.014, 586.255 476.862, 585.356 483.422 L 584.761 487.761 586.979 489.979 L 589.198 492.198 588.693 494.849 C 588.415 496.307, 586.824 501.325, 585.157 506 C 578.346 525.101, 579.382 538, 587.727 538 C 589.388 538, 607.694 529.058, 618.681 522.879 C 620.980 521.586, 623.101 520.768, 623.395 521.061 C 623.688 521.355, 622.369 531.912, 620.464 544.523 C 618.559 557.134, 617 568.904, 617 570.680 C 617 572.455, 615.647 578.084, 613.992 583.187 C 607.916 601.933, 606.622 614.219, 609.532 625.540 C 612.571 637.368, 620.844 651.858, 628.884 659.437 C 630.598 661.052, 632 662.977, 632 663.714 C 632 664.450, 630.537 666.641, 628.750 668.581 C 624.141 673.583, 618.213 683.590, 616.369 689.480 C 615.505 692.241, 614.561 699.069, 614.272 704.653 L 613.746 714.807 615.951 722.153 C 622.831 745.082, 641.048 763.218, 662 767.997 C 665.025 768.687, 668.012 769.386, 668.637 769.551 C 669.307 769.728, 669.936 772.855, 670.169 777.175 L 670.564 784.500 673.167 790 C 674.599 793.025, 678.072 798.315, 680.885 801.755 C 683.698 805.195, 686 808.463, 686 809.018 C 686 809.572, 683.428 811.163, 680.284 812.553 C 677.140 813.943, 673.793 815.782, 672.846 816.639 L 671.124 818.198 664.332 816.495 C 656.230 814.463, 650.577 815.001, 643.500 818.478 C 637.547 821.403, 633.522 826.194, 630.096 834.437 L 627.576 840.500 627.449 853.814 L 627.321 867.129 629.021 870.314 C 629.955 872.066, 631.072 874.618, 631.502 875.985 C 633.754 883.143, 645.170 894.617, 653.087 897.682 L 657.500 899.389 671.500 899.394 C 679.690 899.397, 689.858 898.710, 696 897.739 C 708.451 895.769, 730.306 892.624, 741.498 891.190 L 749.495 890.166 750.754 891.211 C 751.447 891.786, 752.573 893.417, 753.257 894.835 C 755.008 898.468, 767.105 908.367, 771.677 909.908 C 773.780 910.617, 780.715 911.431, 787.089 911.716 L 798.679 912.235 821.855 905.606 C 853.359 896.594, 891.269 881.327, 892.754 877.053 C 893.564 874.722, 898.193 870, 899.668 870 C 900.380 870, 901.214 868.762, 901.522 867.250 C 901.830 865.737, 902.958 862.700, 904.029 860.500 C 907.169 854.049, 908.934 847.050, 909.577 838.500 C 909.966 833.335, 910.930 829.021, 912.298 826.325 L 914.417 822.151 913.122 817.101 L 911.828 812.051 912.958 808.626 C 914.447 804.114, 913.655 801.160, 908.262 791.128 L 903.762 782.755 904.374 778.628 C 904.711 776.357, 905.406 771.687, 905.918 768.248 C 908.635 749.994, 900.989 720.916, 887.442 697.992 C 882.224 689.160, 880.813 685, 883.038 685 C 883.609 685, 888.222 682.223, 893.288 678.830 C 904.468 671.342, 914.708 661.292, 922.411 650.250 L 928.166 642 931.333 641.988 C 933.075 641.982, 936.916 641.333, 939.869 640.547 C 957.932 635.740, 972.144 620.214, 975.061 602.104 L 976.051 595.956 974.921 589.465 L 973.790 582.975 977.790 575.237 C 982.989 565.180, 988.084 549.209, 988.711 541 L 989.207 534.500 1001.281 498 L 1013.354 461.500 1013.321 454.093 L 1013.289 446.685 1016.894 443.678 C 1023.141 438.467, 1042.799 418.182, 1046.887 412.729 C 1056.315 400.150, 1060.487 390.202, 1064.596 370.500 L 1067.099 358.500 1068.211 331.500 L 1069.323 304.500 1068.096 292.001 C 1065.894 269.595, 1063.395 260.608, 1052.845 237.177 C 1039.262 207.006, 1019.840 183.491, 994.167 166.129 C 980.476 156.871, 961.749 148.333, 946.904 144.580 L 938.265 142.396 932.383 137.144 C 918.375 124.637, 894.262 111.163, 872.484 103.674 C 858.307 98.800, 837.868 94.358, 821.293 92.550 C 806.133 90.896, 802.688 90.850, 785.500 92.071 M 783.500 100.673 C 752.096 102.880, 724.270 111.626, 701.500 126.448 C 694.500 131.005, 690.571 134.185, 678.876 144.760 L 676.252 147.133 676.743 144.566 L 677.233 142 675.170 142 C 674.036 142, 669.821 143.701, 665.804 145.780 C 634.863 161.793, 614.210 188.455, 607.012 221.679 L 605 230.965 605 242.372 C 605 253.485, 606.937 266.162, 610.290 277 C 613.638 287.824, 620.335 303, 621.763 303 L 623.250 303 622.583 299.750 C 620.275 288.515, 618.906 273.951, 618.518 256.500 L 618.073 236.500 618.949 241.500 C 619.430 244.250, 620.302 252.125, 620.885 259 C 622.181 274.262, 625.098 291.539, 629.074 307.500 C 633.180 323.981, 638.251 338.978, 639.723 338.990 C 640.396 338.996, 642.908 338.047, 645.306 336.882 L 649.666 334.764 650.865 311.702 C 652.025 289.392, 654.021 266.435, 655.969 253 L 656.911 246.500 656.497 264 C 656.269 273.625, 655.555 292.654, 654.911 306.287 C 654.267 319.919, 654.024 331.357, 654.371 331.704 C 655.011 332.345, 675.856 326.271, 677.273 325.031 C 677.697 324.659, 678.925 314.488, 680.001 302.427 C 683.330 265.109, 685.986 236.635, 686.431 233.500 C 686.899 230.195, 686.111 258.934, 685.471 268.500 C 685.250 271.800, 684.600 283.050, 684.027 293.500 C 683.453 303.950, 682.730 314.863, 682.420 317.750 L 681.856 323 684.178 323.010 C 686.577 323.021, 714.261 318.916, 714.808 318.469 C 715.223 318.129, 717.476 304.229, 720.556 283 C 722.596 268.940, 728.124 233.770, 730.301 221 L 730.728 218.500 730.862 221.500 C 731.015 224.910, 728.609 246.015, 723.508 285.989 C 721.578 301.109, 720 314.609, 720 315.989 L 720 318.500 733.750 318.295 C 741.312 318.182, 748.513 318.070, 749.750 318.045 L 752 318 751.993 315.750 C 751.981 312.289, 765.907 226.804, 766.600 226.083 C 767.836 224.796, 764.809 251.484, 760.070 283.655 C 758.437 294.740, 756.797 307.155, 756.427 311.245 L 755.753 318.680 766.627 319.305 C 772.607 319.649, 782.378 320.655, 788.339 321.542 C 794.300 322.430, 799.422 322.911, 799.721 322.613 C 800.290 322.043, 803.934 304.072, 816.055 242.059 C 820.080 221.467, 823.535 205.104, 823.733 205.698 C 824.127 206.880, 820.999 226.431, 814.965 260.500 C 806.522 308.169, 803.978 323.312, 804.350 323.684 C 804.564 323.897, 809.991 325.184, 816.411 326.544 C 822.831 327.904, 831.318 329.913, 835.272 331.008 C 839.225 332.104, 843.396 333, 844.541 333 L 846.622 333 852.962 306.750 C 862.324 267.985, 866.864 250.280, 866.936 252.258 C 866.971 253.224, 864.774 264.699, 862.053 277.758 C 852.330 324.426, 851 331.117, 851 333.361 L 851 335.635 856.750 337.417 C 859.913 338.397, 868.387 341.404, 875.582 344.099 C 882.778 346.795, 889.106 349, 889.646 349 C 890.185 349, 894.147 336.738, 898.450 321.750 C 902.753 306.762, 906.672 293.600, 907.160 292.500 L 908.046 290.500 907.631 293 C 907.403 294.375, 904.131 308.062, 900.358 323.416 L 893.500 351.332 894.889 351.796 C 895.653 352.051, 903.360 355.801, 912.014 360.130 C 920.669 364.458, 928.211 368, 928.774 368 C 929.905 368, 932.241 361.791, 940.625 336.500 C 946.029 320.196, 948.062 315.090, 946.595 321.500 C 946.217 323.150, 943.229 334.001, 939.954 345.613 C 936.679 357.226, 934 367.881, 934 369.291 L 934 371.855 939.750 375.352 C 942.913 377.274, 948.995 381.357, 953.266 384.424 C 957.538 387.491, 961.640 390, 962.383 390 C 964.102 390, 974.742 363.888, 987.442 328.500 C 989.416 323, 990.745 320.075, 990.396 322 C 989.171 328.749, 984.932 342.221, 977.413 363.267 C 973.240 374.945, 969.113 386.611, 968.241 389.190 L 966.656 393.881 967.951 395.440 C 968.662 396.298, 970.064 397, 971.066 397 L 972.886 397 980.374 382.750 C 984.492 374.913, 991.925 360.400, 996.892 350.500 C 1001.860 340.600, 1005.941 332.781, 1005.962 333.125 C 1006.022 334.108, 996.750 355.296, 990.482 368.500 C 978.638 393.451, 976 399.212, 976 400.133 C 976 401.291, 996.185 424.797, 997.281 424.915 C 999.113 425.114, 1015.634 404.388, 1025.865 389.058 C 1030.064 382.765, 1036.072 372.640, 1039.215 366.558 C 1045.415 354.561, 1047.127 354.528, 1041.590 366.512 C 1035.618 379.437, 1022.995 399.896, 1014.347 410.668 C 1008.181 418.348, 1010.867 419.331, 1019.060 412.394 C 1022.052 409.860, 1025.871 406.598, 1027.547 405.144 C 1029.222 403.690, 1031.668 401.600, 1032.981 400.500 L 1035.370 398.500 1032.506 402.329 C 1027.990 408.367, 1016.172 418.543, 1008.250 423.213 C 1003.729 425.879, 1001 428.133, 1001 429.203 C 1001 432.103, 1006.334 440, 1008.292 440 C 1010.407 440, 1031.293 419.784, 1038.382 410.875 C 1045.045 402.501, 1051.696 388.712, 1055.047 376.327 L 1057.837 366.011 1059.029 349.256 C 1059.708 339.713, 1060.014 322.813, 1059.739 310 L 1059.258 287.500 1056.102 275.500 C 1054.366 268.900, 1052.252 261.925, 1051.405 260 C 1050.558 258.075, 1049.461 255.600, 1048.968 254.500 C 1047.068 250.266, 1044 240.481, 1044 238.658 C 1044 235.862, 1038.714 225.845, 1031.516 215 C 1020.748 198.777, 1004.200 182.556, 987.199 171.559 C 976.835 164.856, 956.979 155.517, 947 152.653 C 932.271 148.424, 911.807 147.166, 898.500 149.669 C 892.990 150.706, 896.445 149.152, 905.521 146.512 C 910.460 145.075, 916.638 143.879, 919.250 143.854 C 922.289 143.825, 924 143.370, 924 142.591 C 924 140.786, 919.382 136.772, 911.500 131.727 C 888.732 117.153, 861.560 107.034, 832.981 102.486 C 823.086 100.912, 794.835 99.876, 783.500 100.673 M 269.252 171.070 C 239.228 173.973, 213.283 185.063, 198.326 201.385 L 192.364 207.892 184.423 208.888 C 161.909 211.711, 138.750 220.886, 121.157 233.954 C 106.369 244.937, 87.660 267.579, 80.565 283.078 L 78.029 288.616 74.265 290.405 C 63.219 295.656, 48.034 309.470, 39.163 322.337 C 34.015 329.804, 26.036 344.840, 24.483 350 C 24.069 351.375, 23.339 352.753, 22.860 353.062 C 21.467 353.962, 17.394 369.729, 16.145 379.052 C 13.002 402.526, 16.448 434.383, 22.896 441.448 C 23.926 442.577, 26.399 446.875, 28.391 451 C 35.824 466.390, 49.057 479.992, 63.440 487.025 C 71.037 490.740, 83.702 494, 90.537 494 L 95.754 494 104.031 516.250 C 108.583 528.487, 113.364 540.623, 114.654 543.217 L 117 547.934 117 553.415 C 117 560.598, 120.858 572.752, 127.559 586.679 L 132.938 597.857 132.348 604.180 L 131.757 610.503 133.395 616.897 C 135.712 625.941, 139.554 632.573, 146.491 639.504 C 154.881 647.886, 166.203 652.958, 176.591 652.988 L 180.682 653 183.445 658.077 C 188.613 667.572, 197.967 678.833, 206.075 685.320 C 213.896 691.577, 229.854 700.608, 237.250 702.962 L 241 704.155 241 705.935 L 241 707.714 233.250 708.263 C 224.528 708.881, 214.954 712.023, 206.258 717.123 C 202.758 719.176, 194.619 726.401, 185.500 735.551 C 175.675 745.410, 168.523 751.705, 164.770 753.799 L 159.039 756.995 158.411 759.497 C 158.066 760.874, 158.065 763.121, 158.409 764.492 C 159.391 768.407, 169.846 778.211, 177 781.924 C 180.575 783.780, 183.663 785.432, 183.862 785.595 C 184.533 786.144, 180.829 801.479, 179.531 803.527 C 178.825 804.642, 176.616 807.184, 174.623 809.177 C 172.630 811.170, 171 813.720, 171 814.844 C 171 820.407, 181.962 826.022, 192.725 825.974 C 196.331 825.958, 201.129 824.999, 205.500 823.421 C 209.350 822.031, 213.512 820.640, 214.750 820.330 L 217 819.767 217 822.307 C 217 823.704, 218.059 826.119, 219.353 827.673 L 221.706 830.500 222.258 840.005 C 222.603 845.945, 223.617 851.758, 224.961 855.505 C 226.144 858.802, 227.569 863.392, 228.127 865.705 C 228.706 868.100, 229.865 870.147, 230.821 870.460 C 232.410 870.979, 236.986 877.097, 237.012 878.736 C 237.019 879.156, 238.594 880.517, 240.512 881.759 C 242.431 883.002, 244 884.639, 244 885.398 C 244 886.174, 245.480 887.055, 247.382 887.412 C 249.242 887.761, 252.593 889.371, 254.828 890.991 C 257.064 892.610, 260.155 894.233, 261.697 894.596 C 263.238 894.960, 266.075 896.058, 268 897.035 C 273.101 899.626, 295.142 906.896, 305 909.240 L 313.500 911.261 329.500 911.381 L 345.500 911.500 349.290 909.784 C 356.280 906.620, 365.663 898.421, 367.801 893.610 L 369.085 890.719 378.161 891.405 C 383.152 891.781, 392.920 893.158, 399.868 894.463 C 439.499 901.910, 454.705 901.668, 466.711 893.399 C 473.100 888.999, 480.067 880.170, 481.821 874.250 C 482.514 871.913, 483.454 870, 483.911 870 C 484.368 870, 485.054 865.603, 485.435 860.229 L 486.128 850.457 484.439 842.979 C 480.632 826.118, 471.795 816.647, 458.622 815.309 L 453.500 814.789 447.500 816.970 C 444.200 818.170, 440.262 819.393, 438.750 819.689 L 436 820.227 436.004 818.363 C 436.006 817.339, 436.972 814.925, 438.151 813 C 439.561 810.698, 440.267 807.960, 440.214 805 C 440.169 802.525, 440.870 797.350, 441.771 793.500 C 446.871 771.715, 439.237 744.098, 420.458 716.400 C 416.860 711.093, 414.060 706.320, 414.236 705.792 C 414.412 705.263, 420.503 702.661, 427.772 700.009 C 461.836 687.581, 484.937 668.916, 497.778 643.448 C 506.700 625.751, 507.503 608.810, 500.513 585.751 C 498.581 579.377, 497 573.521, 497 572.736 C 497 571.952, 497.968 570.453, 499.151 569.405 C 502.383 566.543, 506.665 556.352, 508.555 547.024 L 510.237 538.726 509.733 527.113 C 509.283 516.768, 508.102 510.490, 504.490 499.250 L 503.767 497 505.348 497 C 506.217 497, 510.392 501.030, 514.625 505.955 C 518.858 510.880, 522.989 515.166, 523.805 515.479 C 528.300 517.204, 530.707 508.139, 529.006 495.889 C 525.597 471.328, 514.220 447.233, 497.513 429.187 L 491.910 423.135 489.006 415.318 C 485.334 405.430, 479.687 391.009, 473.215 374.995 C 470.435 368.117, 467.904 361.367, 467.591 359.995 L 467.020 357.500 473.503 352.731 C 485.794 343.692, 495.839 329.204, 501.282 312.667 L 504.300 303.500 504.765 291.423 L 505.230 279.346 503.191 271.284 C 496.011 242.892, 480.302 223.250, 454.293 210.143 C 437.571 201.716, 416.694 197.856, 399.808 200.071 L 392.115 201.080 387.308 197.691 C 358.573 177.440, 311.994 166.937, 269.252 171.070 M 262.538 180.586 C 240.119 184.070, 218.722 193.050, 207.206 203.807 C 205.443 205.455, 204 207.460, 204 208.264 L 204 209.725 209.250 210.361 C 215.740 211.147, 231.009 215.026, 241 218.425 L 248.500 220.977 244 220.521 C 241.525 220.270, 234.775 219.300, 229 218.366 C 216.573 216.356, 190.875 216.050, 180.423 217.788 C 154.649 222.074, 131.917 233.928, 113 252.948 C 99.668 266.353, 94.848 273.416, 78.624 303.324 L 76.550 307.149 75.691 304.574 C 74.874 302.122, 72 300.896, 72 303 C 72 303.550, 71.181 304, 70.180 304 C 66.100 304, 53.444 316.749, 45.023 329.342 C 34.498 345.081, 28.949 362.112, 26.939 384.837 L 25.799 397.729 26.888 409.659 C 30.183 445.763, 44.043 468.647, 70.071 480.956 C 76.170 483.840, 87.932 486.454, 91.998 485.829 L 94.134 485.500 98.567 477.111 C 103.185 468.372, 103.853 466.030, 101.750 465.956 C 101.063 465.931, 102.142 465.044, 104.148 463.984 C 108.421 461.727, 115.984 453.277, 115.994 450.750 L 116 449 111.160 449 C 104.446 449, 91.987 445.643, 85.124 441.986 C 78.450 438.428, 70.559 431.780, 65.837 425.737 L 62.526 421.500 69.497 427.832 C 77.624 435.214, 85.704 439.939, 95.500 443.037 L 102.500 445.252 110.687 445.274 L 118.873 445.297 124.187 442.644 C 129.724 439.879, 136 434.763, 136 433.014 C 136 432.455, 133.595 432, 130.636 432 C 127.687 432, 122.849 431.551, 119.886 431.001 C 114.274 429.961, 102.317 424.498, 98 421.002 L 95.500 418.977 102.094 422.010 C 111.159 426.179, 121.767 428.275, 131.185 427.759 L 138.871 427.338 145.185 424.171 C 152.354 420.576, 158.399 415.482, 157.690 413.634 C 157.427 412.950, 155.342 411.773, 153.056 411.019 C 150.770 410.264, 148.740 409.389, 148.545 409.073 C 148.350 408.758, 151.902 408.500, 156.440 408.500 L 164.689 408.500 171.582 404.994 C 175.484 403.009, 178.621 400.731, 178.811 399.744 L 179.147 398 176.323 397.994 C 162.914 397.968, 144.155 385.914, 134.311 371 C 130.482 365.199, 129.214 362.642, 132.080 366.500 C 136.921 373.017, 149.817 384.654, 155.594 387.719 C 167.839 394.213, 180.434 395.597, 194.517 391.996 C 209.004 388.291, 246.738 369.825, 259.089 360.397 C 265.456 355.537, 271 349.571, 271 347.580 C 271 346.838, 269.762 345.423, 268.250 344.436 C 260.610 339.453, 250.140 327.518, 243.085 315.750 C 240.018 310.634, 241.075 310.999, 244.533 316.250 C 249.110 323.200, 260.026 333.979, 267.282 338.713 C 276.982 345.042, 284.102 347.922, 293.016 349.122 L 300.811 350.171 310.156 349.040 C 323.781 347.391, 355.462 342.168, 363 340.328 C 370.825 338.417, 377.594 335.126, 384.641 329.806 C 398.825 319.097, 406.121 303.041, 407.956 278.500 L 408.703 268.500 408.852 279.643 C 409.101 298.384, 404.691 313.382, 395.121 326.336 C 392.854 329.404, 391 332.320, 391 332.815 C 391 334.230, 402.413 335.060, 407.807 334.037 C 414.474 332.772, 421.908 329.843, 428.065 326.055 C 430.899 324.311, 433.415 323.081, 433.655 323.322 C 434.185 323.852, 427.907 328.791, 422.750 331.902 C 417.402 335.127, 417.907 336.720, 424.541 337.548 C 433.959 338.725, 440.239 337.680, 448.607 333.545 L 456.289 329.748 462.395 323.624 C 468.404 317.596, 474.027 308.513, 476.677 300.553 L 478.026 296.500 477.476 300.500 C 477.173 302.700, 475.298 307.875, 473.310 312 L 469.694 319.500 462.594 326.500 C 458.356 330.679, 453.179 334.621, 449.747 336.281 C 446.586 337.810, 444 339.670, 444 340.414 C 444 344.631, 460.503 343.276, 470.500 338.238 L 473.500 336.726 471.694 338.754 C 470.700 339.869, 467.874 341.843, 465.413 343.141 L 460.939 345.500 461.219 347.500 C 462.384 355.803, 480.157 338.853, 489.116 320.893 C 490.655 317.809, 492.833 311.968, 493.957 307.913 L 496 300.540 496 289.835 C 496 275.354, 494.024 266.563, 488.027 254.376 L 483.046 244.252 476.093 236.807 C 468.257 228.416, 460.220 222.640, 448.500 216.976 C 436.653 211.252, 427.347 208.923, 413.750 208.281 L 402 207.725 402 208.973 C 402 209.658, 404.137 212.570, 406.750 215.443 C 411.506 220.673, 417.408 229.988, 415.038 228.523 C 414.345 228.095, 409.215 224.081, 403.639 219.603 C 375.316 196.859, 348.265 184.996, 314.473 180.499 C 300.855 178.687, 274.476 178.731, 262.538 180.586 M 702.500 323.999 C 674.530 328.246, 643.592 339.309, 637.731 347.159 C 635.020 350.789, 614.018 424.784, 614.005 430.750 C 613.999 433.522, 614.601 433.536, 620.667 430.901 C 658.193 414.599, 701.304 409.046, 751.384 414.063 C 816.801 420.615, 891.552 450.027, 939.570 488.107 C 950.591 496.847, 966.838 512.829, 974.190 522.164 C 977.585 526.474, 980.872 530, 981.494 530 C 982.116 530, 987.257 515.712, 992.920 498.250 C 998.582 480.788, 1004.133 463.671, 1005.255 460.213 L 1007.295 453.927 1006.166 450.213 C 1004.682 445.332, 996.887 432.358, 989.701 422.810 C 962.716 386.955, 896.780 350.162, 829.547 333.443 C 795.226 324.908, 771.499 321.965, 738 322.090 L 714.500 322.177 702.500 323.999 M 368 342.128 C 337.857 345.187, 301.179 353.854, 270 365.286 C 209.743 387.380, 169.151 409.952, 133.340 441.278 C 118.381 454.364, 105.304 470.539, 101.972 480.079 L 100.722 483.658 103.511 492.079 C 105.046 496.711, 109.186 507.925, 112.711 517 C 116.237 526.075, 120.027 535.862, 121.133 538.750 C 122.239 541.638, 123.708 544, 124.397 544 C 125.087 544, 127.989 541.118, 130.846 537.596 C 133.704 534.074, 141.469 525.960, 148.102 519.565 C 166.407 501.918, 184.288 488.581, 211.752 472.094 C 266.398 439.288, 327.356 417.481, 388.416 408.894 L 403.500 406.773 423.500 406.724 L 443.500 406.676 455.500 408.362 C 462.100 409.290, 469.300 410.477, 471.500 411 C 479.817 412.980, 479.824 412.775, 472.063 393.356 C 456.824 355.225, 454.527 350.324, 451.050 348.526 C 447.196 346.533, 433.897 343.357, 424.091 342.088 C 414.403 340.834, 380.510 340.859, 368 342.128 M 402 415.030 C 374.209 417.669, 332.796 427.117, 303.681 437.462 C 274.215 447.931, 238.502 464.675, 213 479.977 C 180.315 499.588, 147.628 527.060, 128.825 550.721 L 126 554.275 126 557.972 C 126 563.672, 134.866 588, 136.943 588 C 137.315 588, 139.897 585.804, 142.682 583.119 C 147.971 578.022, 156.507 574, 162.038 574 L 165 574 165.118 560.750 C 165.183 553.462, 165.542 546.150, 165.915 544.500 L 166.593 541.500 167.259 551.078 C 168.344 566.711, 174.321 582.683, 185.005 598.500 C 191.509 608.130, 200.010 618, 201.800 618 L 203.285 618 202.630 612.250 C 202.270 609.087, 201.546 603.350, 201.021 599.500 C 199.875 591.101, 199.832 570.275, 200.949 564 L 201.750 559.500 201.875 570.323 L 202 581.147 203.634 580.823 C 204.619 580.629, 209.546 572.205, 216.022 559.645 C 232.208 528.252, 238.597 507.631, 239.690 483.250 C 240.016 475.962, 240.469 470, 240.695 470 C 240.922 470, 244.120 472.394, 247.803 475.320 C 271.719 494.321, 309.807 512.037, 340.851 518.599 C 353.750 521.325, 376.126 522.755, 387.254 521.563 L 394 520.841 393.985 519.170 L 393.970 517.500 384.735 514.663 C 366.790 509.149, 344.150 498.847, 326.739 488.272 C 318.261 483.122, 301 471.172, 301 470.452 C 301 470.257, 304.488 472.169, 308.750 474.700 C 327.348 485.745, 355.826 500, 359.291 500 C 361.013 500, 359.716 497.053, 356.399 493.432 C 351.674 488.271, 345.138 478.262, 340.631 469.284 L 337.009 462.068 338.754 462.792 C 339.715 463.190, 347.925 467.176, 357 471.649 C 385.589 485.741, 414.916 497.681, 433.734 502.890 C 439.912 504.601, 445.425 506, 445.984 506 C 447.941 506, 446.973 503.094, 443.921 499.812 C 438.505 493.987, 422 474.164, 422 473.484 C 422 472.437, 434.463 482.509, 447.668 494.227 C 460.655 505.752, 474.137 519.605, 480.907 528.380 C 485.454 534.273, 493.241 548.171, 495.025 553.576 C 496.453 557.903, 498.626 557.991, 499.289 553.750 C 499.568 551.962, 500.350 547.350, 501.027 543.500 C 502.631 534.374, 501.696 515.862, 499.129 505.928 C 498.053 501.763, 495.621 494.225, 493.725 489.178 C 491.829 484.130, 490.386 480, 490.517 480 C 491.504 480, 498.960 483.581, 502.102 485.564 C 510.394 490.799, 510.212 487.037, 501.616 475.500 L 498.636 471.500 502.415 475 C 506.824 479.082, 514.031 488.872, 516.588 494.250 C 518.564 498.408, 521.001 499.236, 520.999 495.750 C 520.998 494.512, 519.862 488.775, 518.474 483 C 515.479 470.540, 507.562 453.614, 500.233 444 C 495.320 437.555, 479.626 421.938, 476.254 420.139 C 468.894 416.211, 422.895 413.046, 402 415.030 M 733.592 419.169 L 731.683 420.277 708.342 419.778 C 695.504 419.504, 685 419.588, 685 419.966 C 685 420.846, 665.381 424.370, 661.750 424.141 C 660.237 424.046, 659 424.354, 659 424.825 C 659 425.296, 656.413 426.253, 653.250 426.951 C 640.613 429.740, 626.534 435.366, 619.676 440.369 C 611.854 446.074, 596.656 469.465, 594.413 479.250 L 593.783 482 595.894 482 C 597.104 482, 599.606 480.223, 601.753 477.839 C 605.551 473.621, 613.298 467.057, 621.174 461.384 C 630.700 454.522, 631.063 454.872, 622.728 462.885 C 612.572 472.649, 604.795 482.054, 599.893 490.500 C 591.524 504.922, 586.384 524.059, 590.460 525.623 C 591.991 526.211, 595.438 524.656, 613.500 515.237 L 624.500 509.500 625.905 505 C 626.678 502.525, 627.621 500.275, 628.001 500 C 628.381 499.725, 629.006 498.218, 629.390 496.651 C 630.212 493.294, 637.498 482.185, 642.606 476.500 C 646.363 472.318, 646.249 473.355, 642.386 478.509 C 638.917 483.137, 633.140 496.008, 632.404 500.750 L 631.744 505 633.833 505 C 634.982 505, 636.727 504.164, 637.711 503.143 C 638.695 502.121, 641.485 499.867, 643.912 498.134 C 646.338 496.401, 648.918 494.134, 649.645 493.096 C 651.412 490.573, 659.335 486, 661.939 486 C 663.085 486, 665.929 485.123, 668.261 484.052 C 677.606 479.758, 700.266 472.102, 710 469.950 L 715.500 468.734 720.401 463.617 C 723.096 460.803, 724.849 459.175, 724.296 460 C 723.743 460.825, 722.029 464.762, 720.487 468.750 C 718.945 472.738, 717.298 476, 716.826 476 C 716.354 476, 716.042 477.238, 716.133 478.750 C 716.224 480.262, 715.735 485.812, 715.047 491.082 C 713.363 503.977, 714.711 518, 717.635 518 C 718.409 518, 719.441 516.987, 719.928 515.750 C 726.143 499.954, 728.505 495.952, 723.816 509.162 C 722.189 513.748, 720.599 520.538, 720.284 524.250 L 719.710 531 721.729 531 C 722.839 531, 725.717 529.159, 728.124 526.908 C 733.727 521.668, 750.185 510.617, 765.430 501.856 C 776.456 495.519, 782.905 492.669, 776.968 496.757 C 772.586 499.773, 769 503.313, 769 504.621 C 769 506.618, 771.001 507.330, 773.345 506.168 C 774.530 505.580, 780.450 503.997, 786.500 502.649 C 803.472 498.869, 822.531 494.098, 833 491.009 C 847.800 486.641, 859.898 482.976, 861.341 482.422 L 862.657 481.918 865.779 492.209 C 868.741 501.971, 874.530 522.463, 880.552 544.500 C 882.055 550, 884.571 558.391, 886.143 563.148 C 887.714 567.904, 889 572.876, 889 574.198 C 889 575.519, 889.414 577.028, 889.921 577.550 C 891.668 579.353, 895.990 594.523, 896.978 602.320 C 898.458 614.006, 898.845 614.218, 905.558 607.042 C 913.934 598.087, 915.071 596.593, 920.433 587.500 C 930.718 570.061, 936.527 557.862, 938.528 549.500 C 938.923 547.850, 939.445 547.036, 939.687 547.690 C 939.929 548.345, 939.651 550.595, 939.069 552.690 C 938.487 554.786, 938.009 557.513, 938.006 558.750 L 938 561 941.525 561 C 947.615 561, 955.916 564.627, 962.064 569.975 C 967.586 574.778, 971 576.274, 971 573.893 C 971 573.284, 972.270 570.022, 973.822 566.643 C 977.008 559.706, 979.130 552.459, 979.757 546.374 L 980.182 542.248 977.441 537.874 C 975.934 535.468, 974.409 533.275, 974.052 533 C 973.696 532.725, 972.329 530.925, 971.015 529 C 961.504 515.062, 940.692 496.511, 916.040 479.995 C 888.712 461.685, 843.751 441.719, 810 432.904 C 805.875 431.827, 801.488 430.432, 800.252 429.805 C 799.015 429.177, 797.744 428.923, 797.427 429.240 C 797.110 429.557, 794.072 429.024, 790.675 428.056 C 787.279 427.089, 777.750 425.302, 769.500 424.086 C 761.250 422.870, 753.038 421.658, 751.250 421.392 C 749.294 421.102, 748 420.330, 748 419.455 L 748 418 741.750 418.030 C 738.313 418.047, 734.641 418.559, 733.592 419.169 M 706.516 475.734 C 695.497 478.525, 668.274 489.181, 664 492.378 C 663.175 492.995, 660.439 494.534, 657.920 495.799 C 655.402 497.063, 648.596 501.677, 642.798 506.052 L 632.254 514.008 631.569 518.254 C 630.930 522.217, 628.906 537.702, 625.458 565 C 624.660 571.325, 622.660 581.151, 621.015 586.836 C 619.370 592.521, 617.515 601.148, 616.892 606.008 L 615.759 614.842 616.865 621.126 C 618.195 628.677, 623.732 640.713, 628.747 646.957 C 632.698 651.875, 639.060 657.998, 640.220 657.999 C 640.616 658, 643.638 656.629, 646.935 654.953 C 650.233 653.278, 656.209 651.208, 660.215 650.354 L 667.500 648.801 676.500 649.335 C 688.961 650.075, 699.410 653.925, 710.560 661.887 C 719.965 668.602, 731.450 683.496, 734.072 692.379 L 735.382 696.815 742.441 697.984 C 746.323 698.627, 759.625 699.394, 772 699.688 L 794.500 700.223 809 698.565 C 850.634 693.804, 881.231 681.522, 902.765 660.925 C 912.791 651.334, 920.683 639.718, 919.707 635.987 L 919.245 634.223 928.873 633.810 L 938.500 633.398 944.773 630.552 L 951.045 627.707 956.926 621.420 L 962.806 615.134 965.038 609.317 L 967.271 603.500 967.289 596 C 967.310 587.458, 965.830 583.154, 960.970 577.618 C 956.533 572.565, 950.794 569.833, 943.362 569.237 L 937.166 568.739 934.468 574.120 C 926.241 590.527, 912.799 608.951, 903.953 615.943 C 901.130 618.174, 898.443 620, 897.983 620 C 895.642 620, 892.914 613.666, 889.664 600.683 C 887.684 592.772, 883.380 577.569, 880.101 566.900 C 873.382 545.037, 867.646 524.021, 862.867 503.750 L 859.626 490 858.176 490 C 857.379 490, 851.050 491.778, 844.113 493.952 C 837.176 496.126, 815.750 501.944, 796.500 506.881 C 777.250 511.819, 759.656 516.521, 757.403 517.331 C 747.648 520.837, 737.268 527.385, 727.212 536.377 C 723.754 539.470, 720.120 542, 719.137 542 C 715.042 542, 710.923 534.254, 708.402 521.814 L 706.722 513.524 707.374 502.512 C 707.732 496.455, 708.694 488.350, 709.512 484.500 C 711.678 474.312, 711.714 474.418, 706.516 475.734 M 355 481.081 C 355 483.678, 370.335 499.178, 378 504.327 C 381.025 506.360, 388.793 510.083, 395.262 512.600 C 402.366 515.365, 407.425 517.926, 408.035 519.066 L 409.046 520.954 407.088 522.912 C 399.492 530.508, 359.672 530.845, 331 523.557 C 308.373 517.805, 277.784 504.109, 259.147 491.385 C 254.003 487.873, 249.209 485, 248.495 485 C 247.639 485, 246.973 487.128, 246.541 491.250 C 243.497 520.261, 235.585 541.002, 213.065 579 L 206.843 589.500 207.367 599.500 C 207.656 605, 208.787 613.100, 209.880 617.500 L 211.869 625.500 210.443 627.701 L 209.018 629.902 205.966 628.838 C 198.373 626.191, 177.438 602.019, 171.175 588.666 L 167.500 580.832 162.855 581.259 C 151.900 582.267, 143.179 590.017, 140.949 600.729 L 139.747 606.500 140.848 612.437 C 143.287 625.594, 151.843 636.692, 163.897 642.333 L 170.330 645.343 180.676 645.803 L 191.022 646.263 189.261 647.574 L 187.500 648.885 190.483 654.653 C 194.952 663.296, 203.273 673.155, 211.848 679.969 C 252.484 712.262, 337.800 720.280, 409.716 698.565 C 435.857 690.671, 458.831 678.070, 473.363 663.656 C 485.148 651.966, 492.453 639.340, 495.591 625.237 L 497.252 617.770 496.711 607.635 L 496.170 597.500 493.035 587 C 491.311 581.225, 488.979 571.113, 487.853 564.528 C 484.588 545.438, 481.758 539.596, 468.824 525.248 C 461.211 516.804, 461.354 516.881, 449 514.475 C 431.607 511.087, 395.825 497.817, 369.317 484.925 C 362.616 481.666, 356.653 479, 356.067 479 C 355.480 479, 355 479.936, 355 481.081 M 670.900 499.100 C 668.272 501.728, 669.214 502.727, 675.414 503.885 C 678.071 504.381, 682.115 506.106, 684.401 507.717 C 688.829 510.838, 691 510.948, 691 508.052 C 691 503.546, 682.139 497, 676.040 497 C 674.285 497, 672.112 497.888, 670.900 499.100 M 822.419 510.075 C 818.994 511.069, 815.267 514.601, 816.423 515.756 C 816.832 516.165, 820.842 516.500, 825.334 516.500 L 833.500 516.500 838.360 519.241 C 841.033 520.749, 843.620 521.735, 844.110 521.432 C 847.447 519.369, 841.016 511.932, 834.277 510.060 C 829.859 508.833, 826.682 508.837, 822.419 510.075 M 272.328 515.938 C 270.033 516.980, 267.379 519.018, 266.429 520.468 L 264.703 523.103 265.851 524.251 L 266.999 525.399 271.526 523.200 L 276.054 521 282.027 521 L 288 521 288 519.573 C 288 517.297, 283.016 513.998, 279.615 514.022 C 277.902 514.034, 274.623 514.896, 272.328 515.938 M 421 538.958 C 409.379 545.167, 404.070 561.171, 408.938 575.320 C 413.194 587.689, 427.009 596.647, 437 593.516 C 441.817 592.007, 449.432 585.323, 452.759 579.684 L 455 575.886 455 566.759 L 455 557.631 453.026 553.566 C 446.393 539.903, 431.740 533.220, 421 538.958 M 668.355 543.447 C 663.459 545.577, 657.094 551.881, 654.328 557.338 L 651.812 562.304 652.156 570.902 L 652.500 579.500 655.579 584.500 C 661.679 594.408, 670.568 598.391, 680.836 595.816 L 685.500 594.646 690.500 589.520 L 695.500 584.393 697 579.447 C 700.081 569.285, 698.011 556.368, 692.264 549.907 C 690.744 548.197, 687.660 545.719, 685.412 544.399 L 681.324 542 676.412 542.039 C 673.710 542.061, 670.085 542.694, 668.355 543.447 M 282.791 552.988 C 279.206 554.069, 274.251 557.511, 270.263 561.691 C 266.371 565.769, 265 568.177, 265 570.934 C 265 572.070, 264.550 573, 264 573 C 263.413 573, 263.004 576.410, 263.009 581.250 L 263.019 589.500 266.056 594.797 C 270.054 601.768, 275.940 607.366, 280.805 608.823 C 286.927 610.658, 297.163 610.298, 302.167 608.074 C 308.291 605.351, 313.847 598.744, 316.102 591.500 C 318.476 583.876, 318.456 580.037, 316.001 572.206 L 314.028 565.913 309.866 561.472 C 307.577 559.030, 303.432 555.899, 300.656 554.516 L 295.607 552 290.554 552.086 C 287.774 552.133, 284.281 552.539, 282.791 552.988 M 808.711 554.720 C 802.275 556.865, 796.057 562.557, 792.526 569.537 L 789.617 575.286 789.558 582.393 L 789.500 589.500 792.500 595.453 C 797.968 606.304, 806.293 612.054, 816.377 611.944 C 826.309 611.836, 834.144 606.735, 839.942 596.602 L 843 591.257 843 582.518 L 843 573.780 839.811 567.797 C 836.297 561.205, 832.951 558.194, 825.666 555.071 C 819.968 552.629, 815.276 552.531, 808.711 554.720 M 391.688 605.646 C 391.309 606.024, 391 608.708, 391 611.610 L 391 616.887 388.777 618.443 C 385.422 620.793, 381.843 620.330, 377.248 616.951 L 373.102 613.902 371.646 616.701 C 369.555 620.721, 365.860 623.878, 362.448 624.560 L 359.491 625.152 357.299 622.819 C 356.094 621.535, 354.521 618.695, 353.804 616.506 C 353.047 614.198, 351.765 612.386, 350.750 612.190 L 349 611.853 349 615.779 C 349 620.512, 352.166 625.609, 356.778 628.303 L 360.050 630.213 363.704 629.528 C 365.894 629.117, 368.729 627.471, 370.779 625.421 C 372.660 623.540, 374.463 622, 374.784 622 C 375.106 622, 377.304 622.937, 379.670 624.082 L 383.971 626.165 387.453 625.016 C 394.327 622.747, 398.657 614.179, 395.845 608.409 C 394.441 605.527, 392.858 604.475, 391.688 605.646 M 717.203 612.256 C 716.630 612.946, 715.854 614.732, 715.480 616.225 L 714.799 618.938 716.867 622.285 C 720.057 627.446, 722.397 629.082, 726.843 629.259 L 730.922 629.422 733.275 627.211 C 736.449 624.230, 738.648 624.429, 741.625 627.966 C 746.516 633.779, 754.702 632.924, 759.427 626.105 L 762 622.392 762 618.113 L 762 613.833 760.761 614.246 C 760.079 614.474, 758.906 616.874, 758.154 619.580 C 756.581 625.235, 754.499 628, 751.813 628 C 747.575 628, 739.977 623.242, 738.730 619.806 L 738.256 618.500 734.830 621.750 L 731.405 625 727.925 625 C 726.011 625, 723.445 624.299, 722.223 623.443 L 720 621.887 720 616.443 C 720 611.039, 719.203 609.846, 717.203 612.256 M 664.341 658.029 C 648.237 660.926, 634.035 671.513, 626.727 686.068 L 622.996 693.500 621.859 701.368 L 620.722 709.236 621.848 717.368 L 622.974 725.500 626.531 732.500 C 628.487 736.350, 630.958 740.551, 632.023 741.835 L 633.958 744.169 637.729 742.947 C 656.920 736.729, 680.028 717.468, 694.284 695.807 C 697.935 690.260, 706.299 673.507, 707.418 669.498 L 707.977 667.496 703.739 664.830 C 694.125 658.784, 676.785 655.791, 664.341 658.029 M 713.531 676.734 C 710.929 687.101, 699.844 704.972, 687.842 718.152 C 680.602 726.102, 667.250 738, 665.569 738 C 665.179 738, 662.979 739.261, 660.680 740.802 C 656.765 743.426, 645.222 749.255, 642.101 750.183 C 639.982 750.814, 649.514 756.505, 657 759.080 C 664.907 761.800, 679.202 762.723, 687.320 761.037 C 696.139 759.206, 706.385 753.545, 714.172 746.199 L 721.111 739.653 725.305 731.077 L 729.500 722.500 729.464 710 L 729.429 697.500 726.081 691 C 721.994 683.066, 716.091 674, 715.011 674 C 714.574 674, 713.908 675.230, 713.531 676.734 M 865.002 692.135 C 858.303 695.104, 842.929 699.488, 830.500 701.973 C 824.450 703.183, 818.375 704.886, 817 705.759 C 809.613 710.449, 796 721.353, 796 722.580 L 796 724 804.566 724 C 809.277 724, 814.002 724.466, 815.066 725.035 L 817 726.070 817 745.166 L 817 764.262 820.538 763.687 C 822.484 763.372, 825.444 761.963, 827.115 760.557 C 828.786 759.150, 830.773 758, 831.530 758 C 832.287 758, 834.054 757.477, 835.458 756.837 C 838.198 755.589, 839.399 752.402, 840.580 743.250 C 841.382 737.038, 842.502 736.486, 843.365 741.879 C 844.587 749.526, 841.256 759, 837.345 759 C 834.319 759, 836.081 762.627, 839.750 763.952 C 849.634 767.521, 861.645 785.959, 864.850 802.486 C 865.758 807.165, 866.889 810.995, 867.366 810.997 C 869.374 811.004, 882.233 801.542, 885.945 797.325 C 891.392 791.137, 895.544 781.980, 897.481 771.882 L 899.089 763.500 898.480 756 C 897.057 738.460, 893.137 724.942, 884.839 708.953 C 879.818 699.278, 872.813 689.942, 870.672 690.071 C 870.027 690.109, 867.476 691.038, 865.002 692.135 M 737 706.050 C 737 709.314, 739.451 713.141, 744.813 718.250 L 749.798 723 754.968 723 L 760.139 723 759.820 720.821 C 759.640 719.598, 755.892 715.432, 751.272 711.321 L 743.044 704 740.022 704 L 737 704 737 706.050 M 802.120 705.159 L 795.741 706.072 787.870 713.178 C 783.418 717.198, 780 721.092, 780 722.142 L 780 724 783.750 723.994 C 785.813 723.990, 788.652 723.387, 790.060 722.652 C 794.029 720.580, 810.461 706.903, 810.823 705.369 C 811.180 703.860, 811.202 703.860, 802.120 705.159 M 751.008 705.621 C 751.012 706.104, 754.574 710.212, 758.923 714.750 L 766.831 723 770.241 723 L 773.651 723 780.825 715.966 C 784.771 712.098, 788 708.559, 788 708.102 C 788 707.646, 782.712 706.974, 776.250 706.610 C 769.788 706.246, 761.462 705.676, 757.750 705.345 C 754.038 705.013, 751.004 705.137, 751.008 705.621 M 396.363 708.089 L 393.227 708.998 392.646 719.249 C 392.326 724.887, 391.766 731.271, 391.401 733.435 L 390.738 737.369 393.550 752.685 L 396.362 768 403.485 768 L 410.607 768 415.704 770.540 C 420.437 772.898, 427.330 779.269, 431.221 784.881 C 432.256 786.374, 433.456 787.039, 434.436 786.663 L 436 786.063 435.992 780.281 C 435.982 772.281, 434.332 762.865, 431.387 754 C 427.347 741.837, 417.605 723.202, 410.867 714.750 L 404.689 707 402.095 707.090 C 400.668 707.140, 398.089 707.589, 396.363 708.089 M 248.654 711.961 C 244.069 717.036, 241.699 721.755, 237.976 733.221 C 232.477 750.157, 231.834 766.766, 236.139 780.727 C 240.433 794.653, 247.060 804.703, 257.792 813.564 C 264.488 819.093, 276.826 826.024, 279.884 825.973 L 281.500 825.947 287 814.229 C 292.284 802.971, 301.923 788.568, 306.158 785.602 C 307.271 784.822, 308.027 783.379, 307.837 782.394 C 307.488 780.581, 294.216 772.823, 288.500 771.090 L 285.500 770.180 288.250 770.090 C 292.263 769.959, 291.702 767.521, 286.850 764.006 C 282.766 761.048, 282.173 759.842, 285.968 762.212 C 287.036 762.879, 288.201 763.133, 288.557 762.776 C 289.243 762.090, 285.654 750.335, 283.390 745.850 L 282.053 743.201 283.843 743.669 L 285.632 744.137 288.365 752.529 L 291.098 760.921 296.422 767.725 L 301.745 774.528 306.931 776.872 C 309.784 778.161, 312.312 779.021, 312.551 778.783 C 312.926 778.407, 311.313 762.714, 309.362 747.750 L 308.742 743 307.103 743 C 306.202 743, 303.672 741.786, 301.482 740.301 C 297.353 737.503, 277.133 721.390, 271 716.010 C 266.315 711.900, 261.375 709.415, 256.361 708.647 L 252.222 708.012 248.654 711.961 M 382.920 710.985 C 381.158 712.016, 374 723.182, 374 724.901 C 374 725.505, 375.318 726, 376.929 726 C 378.539 726, 380.532 726.675, 381.357 727.500 C 382.182 728.325, 384.187 729, 385.812 729 L 388.767 729 389.370 726.750 C 390.156 723.816, 390.172 713.611, 389.393 711.582 C 388.726 709.844, 385.396 709.537, 382.920 710.985 M 274 712.985 C 274 714.440, 277.912 718.193, 288.062 726.475 C 303.618 739.168, 307.070 740.790, 310.488 737.013 C 311.477 735.920, 313.797 734.480, 315.643 733.812 C 319.845 732.293, 319.941 729.987, 315.901 727.601 C 314.197 726.594, 309.908 723.579, 306.371 720.902 L 299.939 716.034 289.720 714.406 C 284.099 713.511, 278.262 712.553, 276.750 712.276 C 274.986 711.953, 274 712.208, 274 712.985 M 369.250 713.119 C 367.462 713.635, 366 714.390, 366 714.797 C 366 715.204, 364.200 717.715, 362 720.377 C 359.800 723.040, 358 725.880, 358 726.688 L 358 728.159 361 727.579 C 362.650 727.261, 365.349 726.739, 366.998 726.421 L 369.997 725.842 373.498 719.867 C 375.424 716.581, 377 713.467, 377 712.946 C 377 711.787, 373.601 711.862, 369.250 713.119 M 353.500 715.046 C 350.750 715.474, 344.113 715.864, 338.750 715.912 L 329 716 329.008 717.250 C 329.013 717.938, 331.697 720.638, 334.973 723.250 L 340.930 728 346.215 727.992 L 351.500 727.984 356.250 722.027 C 358.863 718.750, 361 715.604, 361 715.035 C 361 713.906, 360.820 713.906, 353.500 715.046 M 225 716.583 C 212.081 719.991, 202.825 726.325, 190.366 740.285 C 181.954 749.709, 173.946 756.676, 169.250 758.656 C 164.870 760.503, 165.067 763.067, 169.966 767.966 C 173.555 771.555, 182.535 777, 184.865 777 C 185.378 777, 187.249 774.188, 189.023 770.750 C 196.328 756.597, 207.296 745.990, 222.368 738.500 L 230.418 734.500 231.853 730.728 C 232.643 728.653, 232.984 726.651, 232.612 726.279 C 232.240 725.907, 229.865 726.156, 227.333 726.833 C 220.250 728.728, 221.096 727.520, 228.957 724.516 C 235.747 721.922, 238 719.941, 238 716.566 L 238 715 234.250 715.066 C 232.188 715.102, 228.025 715.785, 225 716.583 M 736 719 L 736 723 740.500 723 C 746.009 723, 746.302 721.539, 741.553 717.750 C 736.934 714.064, 736 714.274, 736 719 M 307.012 717.327 C 307.019 717.972, 311.182 721.289, 316.262 724.697 L 325.500 730.894 329.750 730.315 L 334 729.737 334 727.950 C 334 726.967, 332.538 725.247, 330.750 724.127 C 328.962 723.008, 326.360 721.018, 324.967 719.707 L 322.434 717.322 314.717 716.738 L 307 716.154 307.012 717.327 M 740 727.158 C 740 727.766, 745.288 733.853, 751.750 740.684 C 758.212 747.515, 766.236 756.089, 769.581 759.737 L 775.662 766.370 781.891 764.041 L 788.120 761.711 796.560 762.307 L 805 762.903 805.014 757.201 C 805.021 754.066, 805.299 750.487, 805.630 749.250 L 806.233 747 804.772 747 C 803.968 747, 802.495 747.900, 801.500 749 C 799.124 751.626, 796.845 751.528, 794.174 748.686 C 791.618 745.964, 791.380 742.330, 793.557 739.223 L 795.113 737 798.370 737 L 801.626 737 804.326 739.818 L 807.026 742.637 807.665 754.068 C 808.301 765.454, 808.833 766.955, 812.250 766.985 L 814 767 814 747.469 L 814 727.937 812.750 727.552 C 812.063 727.340, 795.413 726.916, 775.750 726.610 L 740 726.053 740 727.158 M 346.500 731.621 C 330.738 733.284, 320.332 735.274, 315.565 737.536 L 312 739.228 312 741.942 C 312 745.529, 316.969 781.141, 317.615 782.187 C 317.892 782.634, 319.281 783, 320.703 783 L 323.288 783 322.601 774.750 C 322.223 770.212, 321.227 761.870, 320.387 756.211 C 319.547 750.552, 319.049 745.377, 319.280 744.711 C 319.901 742.921, 321.743 751.886, 323.552 765.500 C 324.429 772.100, 325.365 778.993, 325.631 780.818 L 326.116 784.136 332.487 786.994 C 335.990 788.566, 339.570 790.940, 340.441 792.270 L 342.025 794.687 347.763 795.957 C 350.918 796.656, 355.272 798.076, 357.438 799.114 C 362.525 801.551, 363.181 801.500, 366.043 798.455 C 367.358 797.054, 370.298 794.730, 372.576 793.289 C 375.085 791.701, 377.172 789.413, 377.869 787.486 C 378.502 785.735, 380.652 782.818, 382.646 781.004 L 386.272 777.704 385.641 769.602 C 384.973 761.043, 381.336 734.718, 380.411 731.750 L 379.865 730 369.683 730.124 C 364.082 730.193, 353.650 730.866, 346.500 731.621 M 727 738.113 C 724.525 741.989, 719.237 748.197, 715.250 751.908 C 711.263 755.618, 708 759.407, 708 760.327 L 708 762 710.764 762 L 713.528 762 720.128 756.043 C 723.759 752.766, 728.854 746.975, 731.451 743.174 L 736.174 736.263 735.837 733.881 C 735.624 732.377, 734.763 731.420, 733.500 731.283 L 731.500 731.065 727 738.113 M 383.986 735.250 C 383.979 736.487, 385.195 745.487, 386.690 755.250 L 389.407 773 391.203 773 L 393 773 392.999 768.250 C 392.998 765.638, 392.358 759.868, 391.577 755.429 C 390.796 750.990, 389.838 744.127, 389.449 740.179 L 388.742 733 386.371 733 L 384 733 383.986 735.250 M 734 742.272 C 730.005 748.232, 726.334 752.580, 720.250 758.563 C 717.913 760.861, 716 763.435, 716 764.282 C 716 765.129, 719.263 768.628, 723.250 772.057 C 731.491 779.143, 746.293 792.462, 749.412 795.599 C 756.262 802.485, 765.166 810, 766.475 810 C 768.649 810, 768.361 806.637, 766.006 804.505 C 763.479 802.219, 762.013 796.980, 762.006 790.218 C 761.999 784.334, 763.636 779.655, 767.449 774.656 C 768.852 772.816, 770 770.826, 770 770.234 C 770 769.642, 766.962 765.983, 763.250 762.103 C 759.538 758.224, 752.900 751.022, 748.500 746.100 C 744.100 741.177, 739.825 737.127, 739 737.100 C 738.175 737.074, 735.925 739.401, 734 742.272 M 796.701 740.632 C 796.316 741.018, 796 742.415, 796 743.736 L 796 746.139 798.250 745.820 L 800.500 745.500 800.500 743.014 C 800.500 740.600, 798.185 739.149, 796.701 740.632 M 369.039 743.189 C 367.918 744.392, 367 746.557, 367 748 C 367 751.302, 370.363 755, 373.365 755 C 375.805 755, 380 751.241, 380 749.054 C 380 748.329, 379.063 746.220, 377.918 744.368 L 375.837 741 373.457 741 C 372.149 741, 370.160 741.985, 369.039 743.189 M 219.218 745.050 C 215.779 746.728, 210.041 750.836, 206.467 754.180 L 199.969 760.259 195.983 768.379 L 191.998 776.500 190.056 788.228 C 188.046 800.363, 185.413 807.867, 181.825 811.687 C 178.788 814.919, 180.111 816.674, 186.601 818.021 L 192.329 819.210 197.914 818.094 C 204.517 816.774, 212.152 813.125, 216.941 809 L 220.382 806.036 220.577 802.205 C 220.685 800.098, 221.724 796.405, 222.886 793.999 L 225 789.624 225 777.812 L 225 766 223.500 766 C 222.675 766, 221.980 766.337, 221.956 766.750 C 221.933 767.163, 219.181 770.425, 215.843 774 L 209.773 780.500 212.075 776.500 C 213.341 774.300, 216.317 769.947, 218.689 766.826 C 223.563 760.411, 224.088 758.498, 220.750 759.322 L 218.500 759.878 222.288 756.550 C 225.954 753.330, 228 748.926, 228 744.257 C 228 741.286, 226.690 741.405, 219.218 745.050 M 371.187 747.250 L 371.500 750.500 373.986 750.500 C 375.584 750.500, 376.596 749.858, 376.819 748.702 C 377.271 746.355, 375.265 744, 372.814 744 L 370.873 744 371.187 747.250 M 327.073 747.635 C 324.606 750.771, 324.565 751.258, 326.463 754.928 C 329.866 761.510, 338 759.699, 338 752.360 C 338 748.700, 334.749 745, 331.534 745 C 330.144 745, 328.278 746.102, 327.073 747.635 M 329.607 749.582 C 328.427 752.656, 328.983 754, 331.433 754 C 333.913 754, 335.748 751.020, 334.506 749.009 C 333.536 747.441, 330.283 747.821, 329.607 749.582 M 697 765.722 C 693.094 767.189, 689.559 770.751, 687.394 775.401 L 685.020 780.500 685.032 786.500 C 685.046 793.418, 687.328 799.187, 691.624 803.160 C 701.004 811.837, 718.431 814.312, 731.267 808.790 C 736.329 806.612, 741 801.982, 741 799.142 C 741 795.976, 716.010 773.449, 706.378 767.933 C 701.260 765.002, 699.819 764.662, 697 765.722 M 823.250 767.973 C 820.913 769.034, 819 770.432, 819 771.080 C 819 771.728, 820.565 773.990, 822.478 776.107 C 826.568 780.634, 832.847 792.815, 835.826 802 C 837.586 807.428, 839.964 819.065, 839.992 822.389 C 840.005 823.867, 849.585 822.252, 853.917 820.042 C 856.147 818.905, 858.715 816.838, 859.626 815.449 L 861.281 812.923 860.750 805.190 L 860.220 797.457 856.979 789.254 L 853.737 781.051 848.402 775.155 C 845.468 771.913, 841.522 768.526, 839.633 767.630 C 835.069 765.464, 828.472 765.603, 823.250 767.973 M 784.222 769.406 C 774.461 772.600, 769 779.809, 769 789.500 C 769 797.781, 772.938 804.235, 781 809.164 C 788.268 813.608, 805.713 816.490, 816.978 815.108 L 823.456 814.313 824.661 815.518 C 825.970 816.827, 833.930 818.404, 834.805 817.528 C 836.054 816.279, 832.571 802.803, 828.724 794 L 824.571 784.500 819.036 778.874 L 813.500 773.249 807.501 771.045 C 799.901 768.254, 789.895 767.549, 784.222 769.406 M 678.618 769.715 L 676.736 770.198 677.368 776.245 C 677.716 779.572, 678 783.127, 678 784.147 C 678 785.166, 678.628 786, 679.395 786 C 680.278 786, 681.347 783.705, 682.307 779.750 C 683.141 776.313, 684.140 772.487, 684.528 771.250 L 685.233 769 682.867 769.116 C 681.565 769.180, 679.653 769.449, 678.618 769.715 M 398.162 773.368 C 394.213 775.558, 384 786.235, 384 788.172 L 384 790 386.473 790 C 390.748 790, 400.160 795.203, 405.431 800.481 C 411.331 806.388, 416.491 815.526, 418.061 822.849 C 418.669 825.682, 419.691 827.997, 420.333 827.993 C 421.947 827.983, 431.122 816.757, 433.224 812.221 C 435.881 806.485, 435.447 801.369, 431.633 793.472 C 427.325 784.551, 421.353 777.853, 414.793 774.584 C 409.055 771.725, 402.047 771.213, 398.162 773.368 M 307.170 789.511 C 302.358 793.560, 295.484 803.691, 290.873 813.530 L 286.788 822.247 286.256 828.116 L 285.724 833.984 291.612 836.742 L 297.500 839.500 304.169 839.500 L 310.839 839.500 313.504 837 C 314.970 835.625, 318.464 829.794, 321.268 824.041 C 324.071 818.289, 328.758 810.007, 331.683 805.638 C 334.607 801.269, 337 797.066, 337 796.298 C 337 795.530, 333.541 793.259, 329.313 791.251 L 321.627 787.601 316.015 787.195 L 310.404 786.789 307.170 789.511 M 230 791.116 C 230 792.279, 229.225 795.413, 228.278 798.080 L 226.556 802.928 228.610 805.714 C 232.273 810.684, 247.690 818.643, 249.721 816.612 C 250.111 816.223, 249.995 815.321, 249.465 814.608 C 248.934 813.895, 245.800 809.744, 242.500 805.383 C 239.200 801.022, 235.600 795.557, 234.500 793.238 C 232.366 788.742, 230 787.625, 230 791.116 M 894.153 793.914 C 889.943 800.411, 881.837 807.680, 873.986 812 C 870.487 813.925, 866.247 816.906, 864.562 818.623 C 860.756 822.506, 857.468 824.194, 848.281 826.984 L 841.063 829.176 837.652 828.050 C 835.777 827.431, 833.443 826.042, 832.466 824.962 C 830.304 822.573, 826 822.318, 826 824.579 C 826 825.447, 830.458 831.012, 835.906 836.946 C 847.187 849.233, 849.363 852.745, 849.443 858.798 L 849.500 863.095 863.967 869.658 L 878.434 876.221 881.819 874.398 C 885.991 872.151, 892.277 865.150, 896.087 858.504 C 899.008 853.410, 902 842.555, 902 837.053 L 902 834 900.250 834.015 C 899.288 834.023, 896.700 834.642, 894.500 835.392 C 892.300 836.142, 888.250 837.037, 885.500 837.380 L 880.500 838.005 888.215 835.086 C 898.967 831.018, 903.561 828.234, 905.497 824.613 L 907.162 821.500 906.106 818.750 C 904.878 815.552, 904.638 815.511, 898.970 817.511 C 893.396 819.477, 892.507 818.581, 897.894 816.426 C 902.724 814.493, 905.702 811.106, 906.551 806.578 L 907.155 803.358 903.580 797.429 C 901.614 794.168, 900.004 790.938, 900.003 790.250 C 899.997 787.494, 897.162 789.270, 894.153 793.914 M 378.184 796.519 C 374.239 798.232, 370.164 801.321, 368.258 804.042 L 366.880 806.010 369.972 812.291 C 373.283 819.018, 373.987 824.357, 372.604 832.253 L 371.772 837.007 375.631 838.619 L 379.490 840.232 386.500 839.782 L 393.511 839.332 399.767 836.524 C 403.342 834.920, 407.518 832.062, 409.512 829.855 L 413 825.994 412.991 821.747 L 412.981 817.500 410.113 812.500 C 406.700 806.552, 398.327 798.453, 393.511 796.440 C 389.155 794.620, 382.476 794.654, 378.184 796.519 M 336.520 805.687 C 330.664 812.080, 321.691 829.025, 323.307 830.641 C 323.702 831.035, 326.421 830.602, 329.350 829.679 C 339.355 826.525, 352.879 828.512, 358.772 834.002 C 361.908 836.924, 363.692 836.462, 365.040 832.379 C 366.819 826.989, 366.598 819.985, 364.525 816 C 359.429 806.207, 353.558 802, 344.989 802 L 339.898 802 336.520 805.687 M 743.188 807.960 C 741.985 809.587, 741 811.285, 741 811.731 C 741 812.551, 752.219 815, 755.974 815 C 759.014 815, 758.452 813.499, 753.750 809.061 C 748.662 804.259, 746.120 803.994, 743.188 807.960 M 224.161 813.547 C 222.489 817.216, 222.732 821.461, 224.750 823.850 C 227.127 826.663, 235.359 830.546, 241.799 831.892 C 247.563 833.097, 261.263 833.348, 267.250 832.358 L 271 831.738 271 829.869 C 271 828.841, 270.610 828, 270.132 828 C 269.655 828, 266.168 826.211, 262.382 824.024 C 258.100 821.550, 251.873 819.131, 245.899 817.619 C 240.619 816.284, 234.347 814.248, 231.961 813.095 C 226.403 810.410, 225.568 810.458, 224.161 813.547 M 691.011 814.487 C 690.332 815.305, 687.127 816.940, 683.888 818.121 L 678 820.268 678 822.037 C 678 825.468, 704.881 842.937, 718.628 848.441 C 725.802 851.313, 743.008 856, 746.377 856 L 748.535 856 750.896 850.055 C 753.960 842.342, 761.287 834.144, 767.876 831.058 C 770.694 829.738, 773 828.307, 773 827.877 C 773 826.009, 765.483 820.004, 762.618 819.583 C 760.903 819.330, 755.480 818.618, 750.567 817.999 C 745.653 817.380, 740.053 816.213, 738.121 815.406 L 734.610 813.939 730.555 815.587 C 728.325 816.494, 722.675 817.460, 718 817.735 L 709.500 818.234 701.729 815.617 C 692.638 812.555, 692.616 812.553, 691.011 814.487 M 772 814.484 C 772 817.276, 777.499 821.871, 787 827.017 L 796.500 832.163 809.736 845.331 C 817.015 852.574, 822.978 859.063, 822.986 859.750 C 822.994 860.438, 823.337 861.006, 823.750 861.014 C 824.163 861.022, 826.512 862.843, 828.972 865.061 L 833.444 869.094 836.472 868.797 L 839.500 868.500 841.446 862.848 L 843.392 857.197 841.534 853.076 C 840.341 850.430, 834.708 844.132, 825.796 835.478 L 811.916 822 806.352 822 C 798.574 822, 780.324 816.979, 776.550 813.800 C 774.960 812.461, 772 812.906, 772 814.484 M 448.951 823.324 C 437.134 826.610, 429.330 835.906, 424.414 852.552 C 422.529 858.935, 421.910 874.722, 423.290 881.221 C 424.244 885.716, 428.458 891, 431.089 891 C 433.438 891, 433.469 890.241, 431.293 885.904 C 430.194 883.713, 429.442 879.276, 429.182 873.455 L 428.779 864.410 430.432 857.955 C 434.984 840.176, 445.046 829, 456.500 829 C 461.247 829, 468.640 832.437, 470.153 835.347 L 471.271 837.500 468.886 835.375 C 465.119 832.020, 462.473 831, 457.534 831 C 451.760 831, 447.434 832.832, 443.164 837.083 C 436.065 844.153, 432 856.263, 432 870.344 C 432 881.160, 433.413 886.328, 437.253 889.559 L 440.153 892 446.842 892 L 453.530 892 457.515 889.904 C 463.759 886.621, 470.569 879.334, 473.676 872.610 L 476.500 866.500 476.500 855.337 L 476.500 844.173 474.133 840.968 L 471.765 837.763 472.990 837.006 C 475.550 835.424, 470.411 827.298, 465.118 824.561 C 461.062 822.463, 453.991 821.922, 448.951 823.324 M 650.994 822.886 C 645.376 824.703, 641.947 827.235, 639.539 831.343 C 636.644 836.284, 636.367 838, 638.466 838 L 639.933 838 637.716 841.750 L 635.500 845.500 635.543 855.500 L 635.585 865.500 638.664 872 C 644.936 885.240, 652.453 890.986, 664.533 891.776 L 671.567 892.235 674.694 889.604 C 687.390 878.921, 679.601 841.469, 662.914 832.956 C 657.560 830.225, 651.348 830.442, 645.472 833.566 L 640.645 836.132 642.073 834.408 C 644.268 831.755, 651.056 829.044, 655.500 829.044 C 669.654 829.044, 681.794 846.274, 683.577 868.893 L 684.176 876.500 682.101 883 C 679.563 890.948, 679.562 891, 681.845 891 C 686.613 891, 689.902 882.874, 689.939 871 C 689.989 854.836, 685.651 842.168, 676.716 832.384 C 674.085 829.503, 670.035 826.236, 667.716 825.124 C 662.871 822.801, 654.655 821.702, 650.994 822.886 M 425.053 830.444 C 422.331 833.341, 417.060 836, 414.039 836 C 412.852 836, 409.817 837.575, 407.296 839.500 C 399.945 845.113, 390.682 846.543, 374.593 844.548 L 367.686 843.692 368.450 846.096 C 368.869 847.418, 370.095 851.650, 371.172 855.500 L 373.131 862.500 372.761 871.178 L 372.391 879.855 378.445 881.361 C 387.928 883.720, 420.156 889.177, 420.800 888.534 C 421.118 888.215, 420.616 885.827, 419.684 883.227 C 415.768 872.299, 418.282 854.893, 426 839.500 C 428.758 834, 431.011 829.163, 431.007 828.750 C 430.991 827.078, 427.202 828.156, 425.053 830.444 M 229.652 839.250 C 232.352 864.666, 243.930 878.337, 272.500 889.846 C 285.256 894.985, 304.582 900.751, 305.609 899.724 C 305.948 899.386, 305.471 896.947, 304.550 894.304 C 300.754 883.412, 301.558 867.624, 306.509 855.857 C 307.979 852.361, 309.432 848.418, 309.737 847.096 L 310.292 844.692 307.105 845.329 L 303.919 845.966 294.670 843.004 C 286.080 840.252, 281.747 837.741, 280.827 834.980 L 280.449 833.848 271.975 835.671 C 261.463 837.933, 246.783 837.926, 238.356 835.655 C 234.976 834.745, 231.510 834, 230.653 834 L 229.094 834 229.652 839.250 M 331.324 835.379 C 316.133 840.349, 308.297 853.275, 307.260 875.077 L 306.757 885.654 308.387 891.260 C 310.228 897.593, 314.236 903, 317.089 903 C 319.487 903, 319.477 902.362, 316.995 897.226 C 315.893 894.944, 314.531 889.776, 313.970 885.741 L 312.950 878.405 313.977 871.164 C 315.788 858.394, 322 847.121, 329.312 843.338 C 331.065 842.431, 334.525 841.160, 337 840.515 L 341.500 839.341 346.172 840.547 C 348.742 841.210, 352.186 842.709, 353.827 843.877 C 357.261 846.322, 359 846.581, 359 844.646 C 359 842.706, 354.836 838.484, 350.933 836.465 C 346.548 834.198, 336.616 833.648, 331.324 835.379 M 770.305 835.764 C 765.692 837.696, 760 842.625, 760 844.687 C 760 846.403, 761.933 846.362, 763.921 844.604 C 766.351 842.456, 774.595 839.998, 779.285 840.022 C 787.866 840.067, 797.422 846.984, 801.816 856.331 C 803.043 858.942, 804.759 864.098, 805.628 867.789 L 807.210 874.500 806.645 882.133 C 806.335 886.331, 805.163 892.181, 804.041 895.133 C 801.510 901.792, 801.493 903, 803.927 903 C 808.977 903, 813 892.149, 813 878.529 C 813 858.512, 805.471 843.298, 792.423 836.951 L 787.500 834.556 781 834.281 L 774.500 834.006 770.305 835.764 M 690.678 845.309 C 691.522 848.164, 692.702 851.400, 693.300 852.500 C 693.898 853.600, 694.578 859.971, 694.811 866.658 L 695.235 878.817 693.473 883.431 C 692.504 885.968, 691.923 888.256, 692.181 888.514 C 692.439 888.773, 704.420 887.188, 718.804 884.992 C 733.189 882.796, 745.192 881, 745.479 881 C 745.766 881, 746 877.009, 746 872.130 L 746 863.260 739.750 862.056 C 724.615 859.140, 712.949 854.420, 699.206 845.652 C 695.518 843.299, 691.745 841.091, 690.821 840.745 L 689.143 840.118 690.678 845.309 M 333.625 843.469 C 325.178 846.480, 318.941 856.053, 316.914 869.116 C 314.148 886.941, 319.282 901.383, 329.347 904.093 L 333.289 905.155 339.736 904.032 C 354.578 901.448, 363.822 890.241, 364.804 873.641 C 365.694 858.606, 361.637 849.490, 351.895 844.635 C 345.929 841.662, 339.793 841.270, 333.625 843.469 M 770.500 843.061 C 766.188 844.327, 760.297 849.529, 757.721 854.347 L 755.500 858.500 755.512 869.500 L 755.524 880.500 758.269 886.017 C 761.704 892.921, 767.733 899.208, 773.679 902.087 L 778.251 904.300 785.550 904.400 L 792.849 904.500 795.646 902.414 C 797.184 901.266, 799.579 898.116, 800.969 895.414 L 803.496 890.500 803.415 878 L 803.335 865.500 800.800 859.603 C 797.324 851.515, 794.016 847.685, 787.851 844.613 L 782.607 842 778.054 842.090 C 775.549 842.140, 772.150 842.577, 770.500 843.061 M 817.990 876.750 L 817.980 887.500 815.490 892.849 C 812.937 898.334, 812.385 901, 813.804 901 C 817.780 901, 866.977 882.038, 866.991 880.500 C 866.999 879.541, 849.175 869, 847.544 869 C 847.108 869, 844.970 871.025, 842.791 873.500 C 840.279 876.354, 837.998 878, 836.555 878 C 834.035 878, 828.487 874.534, 822.747 869.374 C 820.683 867.518, 818.771 866, 818.497 866 C 818.224 866, 817.996 870.837, 817.990 876.750" stroke="none" fill-rule="evenodd"/></svg>