<svg xmlns="http://www.w3.org/2000/svg" width="432" height="838" viewBox="0 0 432 838" version="1.1"><path d="M 217.269 0.693 C 218.242 0.947, 219.592 0.930, 220.269 0.656 C 220.946 0.382, 220.150 0.175, 218.500 0.195 C 216.850 0.215, 216.296 0.439, 217.269 0.693 M 233.762 1.707 C 235.006 1.946, 236.806 1.937, 237.762 1.687 C 238.718 1.437, 237.700 1.241, 235.500 1.252 C 233.300 1.263, 232.518 1.468, 233.762 1.707 M 173.612 3.819 C 173.333 4.270, 174.432 4.443, 176.053 4.206 C 177.674 3.968, 179 3.599, 179 3.387 C 179 2.625, 174.107 3.017, 173.612 3.819 M 106 22 C 104.172 23.181, 105.751 23.181, 108.500 22 C 109.819 21.433, 109.989 21.122, 109 21.086 C 108.175 21.055, 106.825 21.467, 106 22 M 195 38.518 C 195 39.327, 197.866 39.701, 198.947 39.032 C 199.757 38.532, 199.274 38.250, 197.607 38.250 C 196.173 38.250, 195 38.371, 195 38.518 M 234 38.387 C 234 38.599, 235.326 38.968, 236.947 39.206 C 238.568 39.443, 239.667 39.270, 239.388 38.819 C 238.893 38.017, 234 37.625, 234 38.387 M 246.269 39.693 C 247.242 39.947, 248.592 39.930, 249.269 39.656 C 249.946 39.382, 249.150 39.175, 247.500 39.195 C 245.850 39.215, 245.296 39.439, 246.269 39.693 M 58 49.122 C 54.515 52.177, 54.514 52.181, 57.720 50.049 C 59.491 48.871, 61.205 47.478, 61.529 46.953 C 62.493 45.393, 61.693 45.884, 58 49.122 M 128.250 53.706 C 127.013 53.944, 126 54.516, 126 54.976 C 126 56.008, 129.826 55.091, 130.575 53.879 C 130.873 53.396, 130.979 53.061, 130.809 53.136 C 130.639 53.211, 129.488 53.467, 128.250 53.706 M 47.116 63.168 C 47.052 64.086, 46.741 65.661, 46.424 66.668 C 45.879 68.404, 45.909 68.407, 46.992 66.719 C 47.620 65.739, 47.931 64.164, 47.683 63.219 C 47.277 61.670, 47.221 61.665, 47.116 63.168 M 156 70 C 154.172 71.181, 155.751 71.181, 158.500 70 C 159.819 69.433, 159.989 69.122, 159 69.086 C 158.175 69.055, 156.825 69.467, 156 70 M 47 72.941 C 47 74.009, 47.385 75.120, 47.856 75.411 C 48.326 75.702, 48.499 74.828, 48.239 73.470 C 47.675 70.519, 47 70.231, 47 72.941 M 383.260 76.548 C 382.578 77.288, 382.418 78.140, 382.905 78.441 C 383.392 78.742, 384.073 78.252, 384.419 77.351 C 385.246 75.196, 384.794 74.882, 383.260 76.548 M 353.315 81.650 C 355.082 83.744, 359.560 85.715, 358.442 83.907 C 358.134 83.408, 357.381 83, 356.770 83 C 356.158 83, 354.722 82.213, 353.579 81.250 C 351.518 79.516, 351.516 79.519, 353.315 81.650 M 108.500 93 C 106.850 94.093, 105.950 94.980, 106.500 94.971 C 107.503 94.955, 112.940 91.058, 112 91.029 C 111.725 91.020, 110.150 91.907, 108.500 93 M 204.184 97.867 C 203.367 98.384, 204.235 98.617, 206.469 98.481 C 208.450 98.361, 210.261 98.073, 210.493 97.841 C 211.312 97.022, 205.482 97.046, 204.184 97.867 M 222 97.383 C 222 97.594, 222.900 98.002, 224 98.290 C 225.100 98.577, 226 98.405, 226 97.906 C 226 97.408, 225.100 97, 224 97 C 222.900 97, 222 97.173, 222 97.383 M 234.259 98.592 C 234.584 98.917, 237.021 99.408, 239.675 99.682 C 242.329 99.957, 244.273 99.951, 243.995 99.669 C 243.718 99.387, 241.280 98.897, 238.579 98.579 C 235.878 98.262, 233.934 98.268, 234.259 98.592 M 156.250 109.031 C 152.901 110.377, 153.527 111.061, 157 109.850 C 158.650 109.275, 160 108.623, 160 108.402 C 160 107.809, 158.783 108.013, 156.250 109.031 M 289 115.350 C 289 115.581, 290.180 116.543, 291.623 117.489 C 293.066 118.434, 293.941 118.713, 293.567 118.109 C 292.854 116.955, 289 114.626, 289 115.350 M 92.232 120 C 92.232 121.925, 92.438 122.713, 92.689 121.750 C 92.941 120.787, 92.941 119.213, 92.689 118.250 C 92.438 117.287, 92.232 118.075, 92.232 120 M 134.559 120.532 C 133.491 121.339, 133.041 121.986, 133.559 121.968 C 134.076 121.951, 135.374 121.276, 136.441 120.468 C 137.509 119.661, 137.959 119.014, 137.441 119.032 C 136.924 119.049, 135.626 119.724, 134.559 120.532 M 309 128.350 C 309 128.581, 310.180 129.543, 311.623 130.489 C 313.066 131.434, 313.941 131.713, 313.567 131.109 C 312.854 129.955, 309 127.626, 309 128.350 M 206.535 129.943 C 206.102 130.644, 218.217 130.083, 218.953 129.368 C 219.202 129.125, 216.599 129.011, 213.169 129.114 C 209.739 129.217, 206.753 129.590, 206.535 129.943 M 235.083 131.367 C 235.313 131.569, 237.300 132.009, 239.500 132.344 C 242.288 132.768, 242.894 132.678, 241.500 132.047 C 239.580 131.177, 234.224 130.610, 235.083 131.367 M 156.861 146.059 L 154.500 148.119 157.500 146.362 C 161.448 144.050, 161.507 144, 160.277 144 C 159.697 144, 158.159 144.927, 156.861 146.059 M 274 145.277 C 274 145.468, 275.462 146.695, 277.250 148.003 C 279.261 149.475, 279.960 149.717, 279.082 148.637 C 277.751 146.997, 274 144.517, 274 145.277 M 143.624 161.539 C 143.281 162.432, 143.029 163.689, 143.063 164.332 C 143.098 164.974, 143.558 164.422, 144.085 163.105 C 144.612 161.787, 144.864 160.531, 144.645 160.312 C 144.426 160.093, 143.966 160.645, 143.624 161.539 M 201.629 166.791 C 201.360 167.226, 202.684 167.402, 204.570 167.182 C 206.457 166.961, 208 166.605, 208 166.391 C 208 165.638, 202.113 166.008, 201.629 166.791 M 256.405 178.750 C 257.453 179.988, 259.028 180.964, 259.905 180.921 C 261.259 180.854, 261.273 180.759, 260 180.291 C 259.175 179.987, 257.600 179.010, 256.500 178.120 C 254.517 176.514, 254.516 176.519, 256.405 178.750 M 279.861 181.059 L 277.500 183.119 280.250 181.444 C 281.762 180.523, 283 179.597, 283 179.385 C 283 178.604, 282.165 179.050, 279.861 181.059 M 266.269 183.693 C 267.242 183.947, 268.592 183.930, 269.269 183.656 C 269.946 183.382, 269.150 183.175, 267.500 183.195 C 265.850 183.215, 265.296 183.439, 266.269 183.693 M 370.750 257.706 C 371.988 257.944, 374.012 257.944, 375.250 257.706 C 376.488 257.467, 375.475 257.272, 373 257.272 C 370.525 257.272, 369.512 257.467, 370.750 257.706 M 358.589 259.856 C 358.298 260.326, 359.172 260.499, 360.530 260.239 C 361.889 259.979, 363 259.594, 363 259.383 C 363 258.610, 359.101 259.027, 358.589 259.856 M 200.830 265.141 C 202.057 266.773, 208.355 268.384, 207.388 266.819 C 207.110 266.369, 205.874 266, 204.641 266 C 203.408 266, 201.769 265.438, 200.998 264.750 C 199.818 263.698, 199.792 263.760, 200.830 265.141 M 212.750 268.706 C 213.988 268.944, 216.012 268.944, 217.250 268.706 C 218.488 268.467, 217.475 268.272, 215 268.272 C 212.525 268.272, 211.512 268.467, 212.750 268.706 M 104.559 275.468 C 105.626 276.276, 106.924 276.951, 107.441 276.968 C 107.959 276.986, 107.509 276.339, 106.441 275.532 C 105.374 274.724, 104.076 274.049, 103.559 274.032 C 103.041 274.014, 103.491 274.661, 104.559 275.468 M 319.861 280.059 L 317.500 282.119 320.250 280.444 C 321.762 279.523, 323 278.597, 323 278.385 C 323 277.604, 322.165 278.050, 319.861 280.059 M 115 281.350 C 115 281.581, 116.180 282.543, 117.623 283.489 C 119.066 284.434, 119.941 284.713, 119.567 284.109 C 118.854 282.955, 115 280.626, 115 281.350 M 32.168 286.949 C 31.583 288.627, 31.317 290, 31.577 290 C 32.252 290, 34.139 284.805, 33.644 284.310 C 33.417 284.083, 32.753 285.271, 32.168 286.949 M 136 296.500 C 137.292 297.875, 138.574 299, 138.849 299 C 139.124 299, 138.292 297.875, 137 296.500 C 135.708 295.125, 134.426 294, 134.151 294 C 133.876 294, 134.708 295.125, 136 296.500 M 293.437 299.250 L 290.500 302.500 293.750 299.563 C 296.779 296.825, 297.460 296, 296.687 296 C 296.515 296, 295.052 297.462, 293.437 299.250 M 351.500 303.625 C 349.702 305.155, 349.334 305.763, 350.582 305.143 C 352.415 304.233, 355.853 300.941, 354.872 301.036 C 354.668 301.056, 353.150 302.221, 351.500 303.625 M 283.500 307.625 C 281.702 309.155, 281.334 309.763, 282.582 309.143 C 284.415 308.233, 287.853 304.941, 286.872 305.036 C 286.668 305.056, 285.150 306.221, 283.500 307.625 M 155.435 313.733 C 157.599 316.060, 159.587 317.747, 159.852 317.482 C 160.117 317.217, 160.141 316.887, 159.906 316.750 C 159.670 316.613, 157.683 314.926, 155.489 313.001 L 151.500 309.503 155.435 313.733 M 175 314 C 172.673 314.745, 172.651 314.808, 174.691 314.900 C 175.896 314.955, 177.160 314.550, 177.500 314 C 177.840 313.450, 177.979 313.045, 177.809 313.100 C 177.639 313.155, 176.375 313.560, 175 314 M 250 313.383 C 250 313.594, 251.111 313.979, 252.470 314.239 C 253.828 314.499, 254.702 314.326, 254.411 313.856 C 253.899 313.027, 250 312.610, 250 313.383 M 57.390 315.427 C 57.088 316.212, 57.009 317.900, 57.214 319.177 C 57.488 320.886, 57.721 320.509, 58.093 317.750 C 58.616 313.868, 58.339 312.952, 57.390 315.427 M 98.110 318.250 C 98.353 318.387, 101.691 321.425, 105.526 325 L 112.500 331.500 106.029 324.750 C 102.470 321.038, 99.132 318, 98.612 318 C 98.092 318, 97.866 318.113, 98.110 318.250 M 323.437 328.250 L 320.500 331.500 323.750 328.563 C 325.538 326.948, 327 325.485, 327 325.313 C 327 324.540, 326.175 325.221, 323.437 328.250 M 55.252 344.500 C 55.263 346.700, 55.468 347.482, 55.707 346.238 C 55.946 344.994, 55.937 343.194, 55.687 342.238 C 55.437 341.282, 55.241 342.300, 55.252 344.500 M 413.252 347.500 C 413.263 349.700, 413.468 350.482, 413.707 349.238 C 413.946 347.994, 413.937 346.194, 413.687 345.238 C 413.437 344.282, 413.241 345.300, 413.252 347.500 M 20.195 351.500 C 20.215 353.150, 20.439 353.704, 20.693 352.731 C 20.947 351.758, 20.930 350.408, 20.656 349.731 C 20.382 349.054, 20.175 349.850, 20.195 351.500 M 55.195 353.500 C 55.215 355.150, 55.439 355.704, 55.693 354.731 C 55.947 353.758, 55.930 352.408, 55.656 351.731 C 55.382 351.054, 55.175 351.850, 55.195 353.500 M 363.551 361.272 C 363.819 361.971, 365.042 363.155, 366.269 363.903 C 368.397 365.200, 368.388 365.141, 366.076 362.631 C 363.369 359.693, 362.835 359.406, 363.551 361.272 M 55.195 365.500 C 55.215 367.150, 55.439 367.704, 55.693 366.731 C 55.947 365.758, 55.930 364.408, 55.656 363.731 C 55.382 363.054, 55.175 363.850, 55.195 365.500 M 378.286 367.500 C 378.294 370.250, 378.488 371.256, 378.718 369.736 C 378.947 368.216, 378.941 365.966, 378.704 364.736 C 378.467 363.506, 378.279 364.750, 378.286 367.500 M 414.195 369.500 C 414.215 371.150, 414.439 371.704, 414.693 370.731 C 414.947 369.758, 414.930 368.408, 414.656 367.731 C 414.382 367.054, 414.175 367.850, 414.195 369.500 M 19.195 383.500 C 19.215 385.150, 19.439 385.704, 19.693 384.731 C 19.947 383.758, 19.930 382.408, 19.656 381.731 C 19.382 381.054, 19.175 381.850, 19.195 383.500 M 20.252 404.500 C 20.263 406.700, 20.468 407.482, 20.707 406.238 C 20.946 404.994, 20.937 403.194, 20.687 402.238 C 20.437 401.282, 20.241 402.300, 20.252 404.500 M 412.232 411 C 412.232 412.925, 412.438 413.712, 412.689 412.750 C 412.941 411.788, 412.941 410.212, 412.689 409.250 C 412.438 408.288, 412.232 409.075, 412.232 411 M 107.694 413.532 C 106.151 414.889, 105.285 416, 105.770 416 C 106.255 416, 107.708 414.875, 109 413.500 C 111.989 410.319, 111.328 410.335, 107.694 413.532 M 235 413.500 C 236.292 414.875, 237.574 416, 237.849 416 C 238.124 416, 237.292 414.875, 236 413.500 C 234.708 412.125, 233.426 411, 233.151 411 C 232.876 411, 233.708 412.125, 235 413.500 M 134 421.500 C 135.866 423.425, 137.617 425, 137.892 425 C 138.167 425, 136.866 423.425, 135 421.500 C 133.134 419.575, 131.383 418, 131.108 418 C 130.833 418, 132.134 419.575, 134 421.500 M 297.946 422.750 L 294.500 426.500 298.250 423.054 C 300.313 421.158, 302 419.471, 302 419.304 C 302 418.540, 301.154 419.260, 297.946 422.750 M 341 426.313 C 341 426.485, 342.462 427.948, 344.250 429.563 L 347.500 432.500 344.563 429.250 C 341.825 426.221, 341 425.540, 341 426.313 M 167.269 431.693 C 168.242 431.947, 169.592 431.930, 170.269 431.656 C 170.946 431.382, 170.150 431.175, 168.500 431.195 C 166.850 431.215, 166.296 431.439, 167.269 431.693 M 16.168 434.949 C 15.583 436.627, 15.317 438, 15.577 438 C 16.252 438, 18.139 432.805, 17.644 432.310 C 17.417 432.083, 16.753 433.271, 16.168 434.949 M 114 440.046 C 112.905 440.787, 113.309 440.880, 115.500 440.390 C 119.177 439.567, 119.975 438.995, 117.417 439.015 C 116.362 439.024, 114.825 439.487, 114 440.046 M 128.250 439.689 C 129.213 439.941, 130.787 439.941, 131.750 439.689 C 132.713 439.438, 131.925 439.232, 130 439.232 C 128.075 439.232, 127.287 439.438, 128.250 439.689 M 296.250 449.689 C 297.212 449.941, 298.788 449.941, 299.750 449.689 C 300.712 449.438, 299.925 449.232, 298 449.232 C 296.075 449.232, 295.288 449.438, 296.250 449.689 M 285.195 463.500 C 285.215 465.150, 285.439 465.704, 285.693 464.731 C 285.947 463.758, 285.930 462.408, 285.656 461.731 C 285.382 461.054, 285.175 461.850, 285.195 463.500 M 347 472.059 C 347 473.191, 347.430 473.852, 347.956 473.527 C 348.482 473.202, 348.659 472.275, 348.349 471.468 C 347.556 469.401, 347 469.644, 347 472.059 M 5.556 474.556 C 5.179 476.562, 5.071 478.404, 5.315 478.649 C 5.560 478.893, 6.068 477.451, 6.444 475.444 C 6.821 473.438, 6.929 471.596, 6.685 471.351 C 6.440 471.107, 5.932 472.549, 5.556 474.556 M 85.015 482.250 C 85.024 482.938, 85.430 484.131, 85.919 484.903 C 86.555 485.907, 86.764 485.552, 86.654 483.654 C 86.504 481.068, 84.985 479.766, 85.015 482.250 M 163.015 484.250 C 163.028 486.069, 163.216 486.213, 164 485 C 165.253 483.061, 165.253 482, 164 482 C 163.450 482, 163.007 483.012, 163.015 484.250 M 429.195 490.500 C 429.215 492.150, 429.439 492.704, 429.693 491.731 C 429.947 490.758, 429.930 489.408, 429.656 488.731 C 429.382 488.054, 429.175 488.850, 429.195 490.500 M 344.237 493.760 C 343.069 496.251, 343.097 496.332, 344.603 494.826 C 345.499 493.930, 346.067 492.717, 345.866 492.131 C 345.665 491.545, 344.931 492.278, 344.237 493.760 M 429.195 498.500 C 429.215 500.150, 429.439 500.704, 429.693 499.731 C 429.947 498.758, 429.930 497.408, 429.656 496.731 C 429.382 496.054, 429.175 496.850, 429.195 498.500 M 331 509.500 C 329.136 510.875, 328.036 511.984, 328.556 511.964 C 329.560 511.926, 335.888 507.013, 334.944 507.005 C 334.639 507.002, 332.864 508.125, 331 509.500 M 209.441 510.468 C 208.374 511.276, 208.007 511.951, 208.628 511.968 C 209.248 511.986, 210.315 511.325, 211 510.500 C 212.581 508.595, 211.935 508.582, 209.441 510.468 M 139.500 513.535 C 136.988 514.745, 136.906 514.882, 139 514.378 C 140.375 514.046, 141.928 513.376, 142.450 512.888 C 143.746 511.677, 143.034 511.833, 139.500 513.535 M 230.083 514.261 C 230.313 514.404, 231.625 515.417, 233 516.511 L 235.500 518.500 233.595 516.250 C 232.547 515.013, 231.235 514, 230.678 514 C 230.122 514, 229.854 514.117, 230.083 514.261 M 74.070 515.691 C 74.109 516.136, 74.527 517.400, 75 518.500 C 75.829 520.428, 75.862 520.421, 75.930 518.309 C 75.968 517.104, 75.550 515.840, 75 515.500 C 74.450 515.160, 74.032 515.246, 74.070 515.691 M 210.500 523.670 C 208.300 525.642, 207.400 526.790, 208.500 526.220 C 210.353 525.260, 215.876 519.948, 214.924 520.042 C 214.691 520.065, 212.700 521.697, 210.500 523.670 M 8.807 529.530 C 9.645 532.540, 10.501 534.832, 10.710 534.623 C 11.274 534.059, 8.874 525.040, 8.019 524.512 C 7.614 524.262, 7.969 526.520, 8.807 529.530 M 48.257 531 C 48.482 531.825, 49.528 532.605, 50.583 532.732 C 51.930 532.896, 52.054 532.777, 51 532.332 C 50.175 531.985, 49.128 531.205, 48.674 530.600 C 48.143 529.893, 47.994 530.035, 48.257 531 M 63.699 531.240 C 63.040 531.678, 64.061 531.779, 65.970 531.465 C 67.878 531.151, 69.642 530.692, 69.889 530.444 C 70.664 529.670, 64.962 530.403, 63.699 531.240 M 386 530.833 C 386 531.475, 384.988 532.052, 383.750 532.116 C 381.898 532.211, 381.828 532.317, 383.356 532.710 C 385.351 533.223, 387.811 531.478, 386.683 530.350 C 386.308 529.974, 386 530.192, 386 530.833 M 373.437 553.250 L 370.500 556.500 373.750 553.563 C 376.779 550.825, 377.460 550, 376.687 550 C 376.515 550, 375.052 551.462, 373.437 553.250 M 409.924 557.750 L 407.500 560.500 410.250 558.076 C 411.762 556.742, 413 555.505, 413 555.326 C 413 554.541, 412.190 555.180, 409.924 557.750 M 366.765 560.527 C 364.710 562.437, 363.384 564, 363.819 564 C 364.253 564, 366.134 562.425, 368 560.500 C 372.353 556.009, 371.607 556.025, 366.765 560.527 M 77 569.350 C 77 569.581, 78.180 570.543, 79.623 571.489 C 81.066 572.434, 81.941 572.713, 81.567 572.109 C 80.854 570.955, 77 568.626, 77 569.350 M 35.865 571.337 C 37.167 572.906, 44 577.274, 44 576.537 C 44 576.320, 41.878 574.710, 39.285 572.960 C 36.692 571.210, 35.153 570.480, 35.865 571.337 M 85 574.350 C 85 574.581, 86.180 575.543, 87.623 576.489 C 89.066 577.434, 89.941 577.713, 89.567 577.109 C 88.854 575.955, 85 573.626, 85 574.350 M 52.441 583.445 C 53.509 584.300, 54.821 585, 55.358 585 C 56.628 585, 56.061 584.538, 53 583.080 C 50.643 581.958, 50.611 581.978, 52.441 583.445 M 374.457 587.070 C 374.093 587.659, 372.829 588.530, 371.648 589.007 C 370.182 589.598, 370.007 589.893, 371.095 589.937 C 371.972 589.971, 373.505 589.100, 374.500 588 C 375.495 586.900, 376.042 586, 375.714 586 C 375.386 586, 374.820 586.482, 374.457 587.070 M 64.559 590.468 C 65.626 591.276, 66.924 591.951, 67.441 591.968 C 67.959 591.986, 67.509 591.339, 66.441 590.532 C 65.374 589.724, 64.076 589.049, 63.559 589.032 C 63.041 589.014, 63.491 589.661, 64.559 590.468 M 78.796 597.570 C 80.029 598.433, 81.816 598.935, 82.769 598.686 C 84.083 598.341, 83.972 598.204, 82.309 598.116 C 81.104 598.052, 79.840 597.550, 79.500 597 C 79.160 596.450, 78.358 596, 77.718 596 C 77.079 596, 77.563 596.706, 78.796 597.570 M 170.269 600.693 C 171.242 600.947, 172.592 600.930, 173.269 600.656 C 173.946 600.382, 173.150 600.175, 171.500 600.195 C 169.850 600.215, 169.296 600.439, 170.269 600.693 M 91.557 602.418 C 92.624 603.198, 93.710 603.624, 93.969 603.364 C 94.520 602.814, 91.941 601.038, 90.559 601.015 C 90.041 601.007, 90.491 601.638, 91.557 602.418 M 190.225 602.559 C 191.042 603.375, 199.981 603.779, 199.486 602.977 C 199.265 602.620, 196.959 602.247, 194.361 602.149 C 191.762 602.051, 189.902 602.235, 190.225 602.559 M 206.053 602.968 C 205.243 603.468, 205.726 603.750, 207.393 603.750 C 210.303 603.750, 210.649 603.463, 208.659 602.700 C 207.922 602.417, 206.749 602.537, 206.053 602.968 M 236.573 603.118 C 236.990 603.793, 241 603.138, 241 602.395 C 241 602.190, 239.907 602.113, 238.572 602.223 C 237.237 602.334, 236.337 602.737, 236.573 603.118 M 100.174 605.603 C 101.070 606.499, 102.283 607.067, 102.869 606.866 C 103.455 606.665, 102.722 605.931, 101.240 605.237 C 98.749 604.069, 98.668 604.097, 100.174 605.603 M 335.714 619.014 C 336.004 620.124, 336.595 621.250, 337.027 621.517 C 337.460 621.784, 337.576 621.095, 337.286 619.986 C 336.996 618.876, 336.405 617.750, 335.973 617.483 C 335.540 617.216, 335.424 617.905, 335.714 619.014 M 96.589 619.856 C 95.184 622.129, 94.076 626.071, 95.003 625.498 C 95.551 625.159, 96 624.266, 96 623.512 C 96 622.759, 96.707 621.436, 97.571 620.571 C 98.436 619.707, 98.687 619, 98.130 619 C 97.574 619, 96.880 619.385, 96.589 619.856 M 209.500 624 C 212.249 625.181, 213.828 625.181, 212 624 C 211.175 623.467, 209.825 623.055, 209 623.086 C 208.011 623.122, 208.181 623.433, 209.500 624 M 90.237 633.760 C 89.069 636.251, 89.097 636.332, 90.603 634.826 C 91.499 633.930, 92.067 632.717, 91.866 632.131 C 91.665 631.545, 90.931 632.278, 90.237 633.760 M 86.970 642.055 C 86.365 643.186, 86.018 644.555, 86.200 645.099 C 86.381 645.642, 87.046 644.717, 87.678 643.043 C 88.991 639.562, 88.598 639.013, 86.970 642.055 M 83.624 649.539 C 83.281 650.432, 83.029 651.689, 83.063 652.332 C 83.098 652.974, 83.558 652.422, 84.085 651.105 C 84.612 649.787, 84.864 648.531, 84.645 648.312 C 84.426 648.093, 83.966 648.645, 83.624 649.539 M 350.015 653.691 C 350.024 654.136, 350.467 655.175, 351 656 C 351.835 657.293, 351.971 657.266, 351.985 655.809 C 351.993 654.879, 351.550 653.840, 351 653.500 C 350.450 653.160, 350.007 653.246, 350.015 653.691 M 353.086 663 C 353.055 663.825, 353.467 665.175, 354 666 C 355.181 667.828, 355.181 666.249, 354 663.500 C 353.433 662.181, 353.122 662.011, 353.086 663 M 356.086 672 C 356.055 672.825, 356.467 674.175, 357 675 C 358.181 676.828, 358.181 675.249, 357 672.500 C 356.433 671.181, 356.122 671.011, 356.086 672 M 177.573 674 C 177.941 675.375, 178.659 677.175, 179.169 678 C 179.813 679.042, 179.892 678.737, 179.427 677 C 179.059 675.625, 178.341 673.825, 177.831 673 C 177.187 671.958, 177.108 672.263, 177.573 674 M 246.479 696.704 C 245.628 698.741, 245.060 700.976, 245.216 701.672 C 245.372 702.367, 246.244 700.700, 247.154 697.968 C 249.094 692.137, 248.698 691.394, 246.479 696.704 M 68.116 721.178 C 68.052 722.100, 66.537 724.049, 64.750 725.509 C 62.962 726.968, 62.400 727.683, 63.500 727.098 C 67.515 724.962, 69.169 723.126, 68.704 721.326 C 68.305 719.784, 68.214 719.761, 68.116 721.178 M 55.500 732.625 C 53.702 734.155, 53.334 734.763, 54.582 734.143 C 56.415 733.233, 59.853 729.941, 58.872 730.036 C 58.668 730.056, 57.150 731.221, 55.500 732.625 M 230.195 759.500 C 230.215 761.150, 230.439 761.704, 230.693 760.731 C 230.947 759.758, 230.930 758.408, 230.656 757.731 C 230.382 757.054, 230.175 757.850, 230.195 759.500 M 155 766 C 153.172 767.181, 154.751 767.181, 157.500 766 C 158.819 765.433, 158.989 765.122, 158 765.086 C 157.175 765.055, 155.825 765.467, 155 766 M 280.589 765.856 C 280.298 766.326, 281.172 766.499, 282.530 766.239 C 283.889 765.979, 285 765.594, 285 765.383 C 285 764.610, 281.101 765.027, 280.589 765.856 M 112.250 774.031 C 111.013 774.529, 110 775.133, 110 775.374 C 110 776.118, 113.998 774.812, 114.575 773.879 C 115.211 772.850, 115.184 772.852, 112.250 774.031 M 318 774.469 C 318 775.361, 318.587 775.712, 319.494 775.364 C 320.316 775.048, 320.740 774.388, 320.435 773.895 C 319.563 772.483, 318 772.851, 318 774.469 M 190.272 787 C 190.272 789.475, 190.467 790.487, 190.706 789.250 C 190.944 788.013, 190.944 785.987, 190.706 784.750 C 190.467 783.513, 190.272 784.525, 190.272 787 M 205.232 786 C 205.232 787.925, 205.438 788.712, 205.689 787.750 C 205.941 786.788, 205.941 785.212, 205.689 784.250 C 205.438 783.288, 205.232 784.075, 205.232 786 M 299.028 785.466 C 298.359 786.273, 297.966 787.383, 298.155 787.934 C 298.345 788.484, 299.020 787.824, 299.656 786.467 C 300.974 783.654, 300.783 783.351, 299.028 785.466 M 243.252 788.500 C 243.263 790.700, 243.468 791.482, 243.707 790.238 C 243.946 788.994, 243.937 787.194, 243.687 786.238 C 243.437 785.282, 243.241 786.300, 243.252 788.500 M 97.972 788.052 C 97.368 789.181, 97.014 790.785, 97.187 791.616 C 97.359 792.447, 97.995 791.523, 98.601 789.563 C 99.838 785.558, 99.606 785, 97.972 788.052 M 50.079 794.128 C 50.036 795.023, 50.788 796.373, 51.750 797.128 C 53.271 798.320, 53.354 798.303, 52.384 797 C 51.771 796.175, 51.019 794.825, 50.713 794 C 50.249 792.745, 50.145 792.766, 50.079 794.128 M 327.500 808.068 C 325.850 809.125, 325.013 809.992, 325.639 809.995 C 326.266 809.998, 327.841 809.115, 329.139 808.033 C 332.112 805.556, 331.397 805.572, 327.500 808.068 M 285.437 811.250 L 282.500 814.500 285.750 811.563 C 288.779 808.825, 289.460 808, 288.687 808 C 288.515 808, 287.052 809.462, 285.437 811.250 M 112.030 810.353 C 112.322 810.651, 114.108 811.167, 116 811.500 C 117.892 811.833, 119.158 811.825, 118.814 811.481 C 118.470 811.137, 116.684 810.621, 114.844 810.334 C 113.005 810.047, 111.739 810.055, 112.030 810.353 M 223.386 815.196 C 224.384 815.755, 225.574 815.825, 226.045 815.354 C 226.516 814.882, 225.707 814.430, 224.239 814.343 C 221.952 814.207, 221.833 814.327, 223.386 815.196 M 263.269 822.693 C 264.242 822.947, 265.592 822.930, 266.269 822.656 C 266.946 822.382, 266.150 822.175, 264.500 822.195 C 262.850 822.215, 262.296 822.439, 263.269 822.693" stroke="none" fill="#737474" fill-rule="evenodd"/><path d="M 197.892 1.420 C 197.676 1.625, 193.691 2.079, 189.035 2.431 C 184.379 2.782, 179.654 3.298, 178.535 3.575 C 177.416 3.853, 174.700 4.248, 172.500 4.453 C 155.923 5.994, 116.567 17.227, 103.764 24.072 C 102.809 24.582, 101.346 25, 100.514 25 C 99.681 25, 99 25.450, 99 26 C 99 26.550, 98.339 27, 97.531 27 C 95.764 27, 87.638 31.081, 87.167 32.205 C 86.983 32.642, 86.077 33, 85.153 33 C 84.229 33, 81.135 34.575, 78.276 36.500 C 75.418 38.425, 72.611 40, 72.039 40 C 71.468 40, 71 40.450, 71 41 C 71 41.550, 70.311 42, 69.469 42 C 68.626 42, 67.685 42.658, 67.376 43.462 C 67.068 44.266, 65.904 45.213, 64.789 45.567 C 61.053 46.753, 52.833 53.704, 50.535 57.621 C 47.248 63.224, 46.617 68.180, 48.413 74.304 C 52.485 88.188, 69.454 90.050, 83.912 78.199 C 86.358 76.194, 95.881 70, 96.518 70 C 96.829 70, 98.033 69.116, 99.193 68.035 C 100.354 66.954, 101.685 66.305, 102.151 66.594 C 102.618 66.882, 103 66.566, 103 65.892 C 103 65.218, 103.274 64.941, 103.610 65.277 C 103.945 65.612, 105.858 64.855, 107.860 63.594 C 109.862 62.333, 113.188 60.693, 115.250 59.950 C 117.313 59.206, 119 58.239, 119 57.799 C 119 57.360, 119.718 57, 120.596 57 C 121.473 57, 123.386 56.361, 124.846 55.581 C 128.332 53.717, 136.097 50.757, 138.018 50.561 C 138.852 50.475, 140.009 50.113, 140.588 49.755 C 141.167 49.397, 142.734 48.863, 144.070 48.569 C 145.407 48.274, 148.975 47.311, 152 46.428 C 155.025 45.545, 158.400 44.653, 159.500 44.446 C 160.600 44.238, 163.516 43.578, 165.980 42.977 C 170.521 41.872, 185.543 39.638, 196.500 38.440 C 203.824 37.638, 227.118 37.609, 236 38.389 C 239.575 38.703, 244.975 39.178, 248 39.444 C 251.025 39.709, 255.027 40.380, 256.892 40.934 C 258.758 41.489, 260.690 41.691, 261.186 41.385 C 261.682 41.079, 262.754 41.381, 263.568 42.056 C 264.382 42.732, 265.320 43.014, 265.651 42.682 C 265.982 42.351, 267.469 42.708, 268.955 43.477 C 270.441 44.245, 272.521 44.735, 273.578 44.565 C 274.635 44.396, 276.063 44.704, 276.750 45.251 C 277.438 45.798, 278 46.004, 278 45.709 C 278 45.414, 280.356 46.034, 283.236 47.086 C 286.116 48.139, 289.011 49, 289.671 49 C 290.330 49, 291.912 49.396, 293.185 49.880 C 294.458 50.364, 295.725 50.773, 296 50.788 C 297.559 50.875, 305.615 54.530, 306.235 55.431 C 306.639 56.019, 306.976 56.158, 306.985 55.740 C 306.993 55.323, 309.232 56.148, 311.960 57.574 C 314.688 59.001, 317.388 59.878, 317.960 59.525 C 318.532 59.171, 319 59.381, 319 59.992 C 319 60.603, 320.688 61.799, 322.750 62.651 C 324.813 63.502, 327.175 64.797, 328 65.528 C 328.825 66.259, 329.842 66.880, 330.260 66.908 C 331.810 67.012, 337.623 70.413, 346.437 76.372 C 358.421 84.475, 359.722 85.152, 365 86.025 C 368.168 86.550, 370.684 86.320, 373.500 85.249 C 377.631 83.677, 383.360 78.693, 382.279 77.612 C 381.942 77.276, 382.148 77, 382.736 77 C 384.301 77, 385.737 72.097, 385.518 67.500 C 385.275 62.407, 384.172 59, 382.766 59 C 382.161 59, 381.937 58.730, 382.267 58.400 C 382.965 57.701, 377.105 51, 375.796 51 C 375.310 51, 373.699 49.875, 372.217 48.500 C 370.734 47.125, 368.976 46, 368.310 46 C 367.644 46, 366.740 45.388, 366.300 44.640 C 364.487 41.556, 335.657 26.010, 334.289 27.378 C 333.964 27.703, 333.203 27.334, 332.599 26.557 C 331.448 25.078, 319.621 20, 317.328 20 C 316.597 20, 316 19.550, 316 19 C 316 18.450, 315.663 18.088, 315.250 18.195 C 314.620 18.359, 299.900 14.023, 295 12.231 C 294.175 11.929, 293.115 11.770, 292.645 11.876 C 292.174 11.983, 291.274 11.680, 290.645 11.203 C 290.015 10.726, 286.800 9.765, 283.500 9.068 C 280.200 8.371, 274.748 7.165, 271.385 6.387 C 268.021 5.610, 263.411 4.868, 261.140 4.737 C 258.869 4.607, 257.008 4.221, 257.005 3.881 C 257.002 3.540, 254.863 3.206, 252.250 3.138 C 249.637 3.070, 246.375 2.762, 245 2.453 C 242.146 1.811, 198.490 0.854, 197.892 1.420 M 203.749 61.585 C 203.582 61.751, 200.758 62.162, 197.473 62.498 C 185.443 63.727, 171.291 66.275, 163 68.704 C 158.325 70.074, 154.050 71.308, 153.500 71.446 C 152.950 71.585, 151.600 72.033, 150.500 72.443 C 149.400 72.852, 147.150 73.649, 145.500 74.212 C 143.850 74.776, 140.592 76.083, 138.261 77.118 C 135.929 78.153, 133.749 79, 133.415 79 C 133.082 79, 131.389 80.011, 129.654 81.246 C 127.919 82.481, 126.383 83.372, 126.240 83.226 C 125.917 82.896, 119.687 86.050, 119 86.891 C 118.725 87.228, 117.174 88.177, 115.554 89.002 C 113.933 89.826, 111.505 91.513, 110.157 92.750 C 108.810 93.987, 107.211 95.010, 106.604 95.022 C 104.732 95.059, 96.389 103.303, 94.480 107 C 93.251 109.381, 92.703 112.538, 92.764 116.876 C 92.841 122.347, 93.268 123.767, 95.766 126.876 C 97.367 128.869, 100.402 131.327, 102.510 132.339 C 106.125 134.073, 107.103 134.111, 115.750 132.849 C 116.438 132.749, 117 132.292, 117 131.833 C 117 131.375, 117.338 131.073, 117.750 131.161 C 119.218 131.478, 123.811 129.099, 126.137 126.818 C 129.023 123.987, 136.577 119, 137.979 119 C 138.540 119, 139.002 118.662, 139.004 118.250 C 139.006 117.838, 141.031 116.668, 143.504 115.651 C 145.977 114.634, 148 113.396, 148 112.901 C 148 112.405, 148.563 111.997, 149.250 111.994 C 149.938 111.990, 151.803 111.308, 153.395 110.478 C 157.388 108.396, 179.579 101.094, 183.938 100.428 C 185.897 100.129, 188.963 99.685, 190.750 99.442 C 192.537 99.199, 195.688 98.765, 197.750 98.477 C 203.883 97.622, 226 97.121, 225.999 97.838 C 225.999 98.202, 228.812 98.441, 232.249 98.369 C 235.687 98.297, 241.834 99.085, 245.910 100.119 C 249.985 101.154, 254.373 102, 255.660 102 C 256.947 102, 258 102.477, 258 103.059 C 258 103.641, 258.402 103.869, 258.894 103.566 C 259.385 103.262, 261.298 103.619, 263.144 104.359 C 264.990 105.099, 267.400 106.064, 268.500 106.503 C 269.600 106.941, 271.258 107.451, 272.185 107.634 C 273.112 107.817, 276.487 109.191, 279.685 110.686 C 282.883 112.181, 285.781 113.425, 286.124 113.452 C 286.788 113.503, 294.950 118.548, 301.381 122.884 C 310.862 129.274, 313.657 131.029, 316 132.062 C 319.085 133.421, 326.924 133.933, 327.612 132.819 C 327.890 132.369, 328.785 132, 329.601 132 C 332.403 132, 337.972 126.296, 339.674 121.682 C 341.519 116.681, 341.198 112.559, 338.555 107.296 C 335.989 102.189, 333.105 99.223, 326.486 94.890 C 322.963 92.584, 320.865 91.293, 312.514 86.295 C 305.180 81.905, 276.546 70.054, 272 69.527 C 271.725 69.495, 270.938 69.112, 270.250 68.676 C 269.563 68.239, 269 68.093, 269 68.350 C 269 68.608, 266.637 68.187, 263.750 67.415 C 253.950 64.793, 239.739 62.949, 225.097 62.398 C 217.069 62.096, 209.049 61.721, 207.276 61.565 C 205.503 61.409, 203.915 61.418, 203.749 61.585 M 219.868 129.455 C 219.666 129.652, 215 130.055, 209.500 130.350 C 198.660 130.932, 190.202 132.312, 183.948 134.518 C 181.761 135.290, 179.866 135.907, 179.736 135.890 C 178.547 135.735, 162.689 143.236, 156.059 147.091 C 152.154 149.360, 148 153.228, 148 154.594 C 148 155.289, 147.320 156.537, 146.489 157.368 C 144.264 159.594, 143.481 167.398, 145.017 172.052 C 145.734 174.223, 146.698 176, 147.160 176 C 147.622 176, 148 176.578, 148 177.284 C 148 178.740, 153.487 182.274, 156.479 182.746 C 157.567 182.917, 158.861 183.461, 159.356 183.956 C 159.887 184.487, 161.281 184.464, 162.766 183.899 C 164.147 183.374, 165.511 183.178, 165.797 183.463 C 166.082 183.749, 166.874 183.520, 167.556 182.954 C 168.238 182.388, 169.762 181.738, 170.942 181.511 C 172.123 181.284, 174.821 179.726, 176.938 178.049 C 179.056 176.372, 181.286 175, 181.894 175 C 182.502 175, 183 174.622, 183 174.160 C 183 173.698, 184.800 172.726, 187 172 C 189.200 171.274, 191 170.353, 191 169.953 C 191 169.321, 192.991 168.755, 199.018 167.677 C 199.852 167.528, 201.036 167.096, 201.647 166.718 C 202.259 166.340, 207.651 166.042, 213.630 166.055 C 228.314 166.087, 227.967 166.066, 232.496 167.205 C 234.694 167.758, 237.331 168.371, 238.355 168.568 C 241.353 169.146, 249.121 173.118, 254.240 176.691 C 256.847 178.511, 259.397 180, 259.906 180 C 260.416 180, 260.983 180.441, 261.167 180.980 C 261.672 182.467, 271.659 184.080, 274.252 183.094 C 275.488 182.624, 276.725 182.229, 277 182.217 C 277.275 182.204, 278.961 181.363, 280.746 180.347 C 283.356 178.862, 287.210 173.511, 287.477 171 C 287.507 170.725, 287.779 170.050, 288.083 169.500 C 288.574 168.612, 288.467 161.887, 287.952 161.250 C 287.841 161.113, 287.675 160.662, 287.583 160.250 C 286.889 157.130, 283.130 152.408, 278.644 149.021 C 275.715 146.810, 272.979 145, 272.564 145 C 272.148 145, 270.486 144.058, 268.868 142.906 C 267.251 141.755, 265.337 140.726, 264.614 140.620 C 263.892 140.514, 262.124 139.656, 260.685 138.713 C 259.247 137.771, 257.449 137, 256.689 137 C 255.929 137, 254.001 136.363, 252.404 135.585 C 250.807 134.807, 244.100 133.214, 237.500 132.045 C 221.578 129.224, 220.299 129.036, 219.868 129.455 M 207.071 204.661 C 202.265 205.891, 192.965 211.243, 192.148 213.248 C 191.954 213.723, 190.982 214.874, 189.988 215.806 C 184.894 220.578, 182.039 240.307, 185.479 246.960 C 186.272 248.492, 186.702 249.964, 186.436 250.231 C 186.170 250.497, 186.638 251.284, 187.476 251.980 C 188.314 252.676, 189 253.644, 189 254.131 C 189 257.189, 200.928 266, 205.067 266 C 206.065 266, 207.178 266.479, 207.540 267.064 C 208.929 269.312, 230 267.288, 230 264.908 C 230 264.528, 231.021 263.960, 232.270 263.647 C 233.518 263.334, 235.645 262.047, 236.996 260.789 C 238.348 259.530, 239.907 258.500, 240.463 258.500 C 241.018 258.500, 241.637 257.644, 241.839 256.598 C 242.040 255.552, 243.076 253.761, 244.141 252.618 C 245.206 251.475, 246.312 249.406, 246.599 248.020 C 246.886 246.634, 247.456 244.825, 247.865 244 C 248.274 243.175, 248.739 240.476, 248.899 238.002 C 249.058 235.528, 249.398 233.165, 249.653 232.752 C 249.909 232.338, 249.737 232, 249.272 232 C 248.806 232, 248.324 230.675, 248.201 229.056 C 247.609 221.285, 240.309 211.233, 232.292 207.147 C 225.285 203.576, 215.198 202.581, 207.071 204.661 M 49.973 259.669 C 45.774 262.504, 41.528 267.570, 39.096 272.645 C 37.817 275.315, 36.147 278.694, 35.385 280.154 C 34.623 281.614, 34 283.346, 34 284.003 C 34 284.660, 33.346 286.616, 32.547 288.349 C 31.262 291.135, 27.635 304.046, 26.605 309.500 C 26.397 310.600, 25.741 313.564, 25.146 316.088 C 24.551 318.611, 23.794 322.661, 23.463 325.088 C 23.133 327.514, 22.696 330.625, 22.492 332 C 20.938 342.510, 20.569 351.281, 20.555 378 C 20.545 397.619, 20.960 410.518, 21.718 414.156 C 22.829 419.484, 22.725 420.267, 19.927 427.656 C 16.908 435.631, 16.135 437.552, 14.155 442 C 12.932 444.746, 7.966 463.017, 7.359 467 C 5.124 481.676, 4.511 495.476, 5.518 508.500 C 6.241 517.847, 6.461 519.319, 7.356 520.768 C 7.775 521.445, 7.859 522.419, 7.543 522.931 C 7.226 523.443, 7.380 524.117, 7.883 524.428 C 8.387 524.739, 9.353 527.358, 10.030 530.247 C 10.708 533.136, 11.708 536.063, 12.253 536.750 C 12.799 537.438, 12.989 538, 12.677 538 C 12.364 538, 13.659 540.743, 15.554 544.096 C 17.449 547.449, 19 550.561, 19 551.013 C 19 551.464, 19.338 551.983, 19.750 552.167 C 20.163 552.350, 21.736 554.322, 23.247 556.550 C 26.976 562.046, 35.572 570.705, 40.202 573.628 C 42.291 574.946, 44 576.544, 44 577.179 C 44 577.814, 44.273 578.060, 44.606 577.727 C 44.940 577.393, 46.177 578.033, 47.356 579.149 C 48.535 580.265, 51.638 582.270, 54.250 583.606 C 56.863 584.941, 59 586.468, 59 586.998 C 59 587.528, 60.237 588.271, 61.750 588.649 C 63.263 589.026, 66.575 590.610, 69.111 592.168 C 71.646 593.725, 74.053 595, 74.459 595 C 75.285 595, 80.719 597.282, 85.946 599.824 C 87.841 600.746, 89.723 601.398, 90.128 601.273 C 90.533 601.148, 92.582 601.795, 94.682 602.712 C 99.290 604.723, 98.967 604.596, 101.778 605.508 C 104.455 606.378, 104.107 608.370, 100.263 614.179 C 98.914 616.217, 98.105 618.361, 98.464 618.942 C 98.824 619.524, 98.650 620, 98.078 620 C 97.506 620, 96.760 621.107, 96.421 622.459 C 96.081 623.811, 95.202 625.418, 94.466 626.028 C 93.730 626.639, 92.825 628.570, 92.453 630.319 C 92.081 632.069, 91.163 634.199, 90.413 635.052 C 89.662 635.906, 88.882 637.481, 88.679 638.552 C 87.887 642.744, 86.751 646, 86.081 646 C 85.694 646, 84.774 648.362, 84.036 651.250 C 83.298 654.138, 82.339 657.175, 81.903 658 C 81.468 658.825, 80.143 662.650, 78.959 666.500 C 77.086 672.589, 76.279 676.092, 74.582 685.500 C 74.384 686.600, 73.732 689.309, 73.134 691.520 C 71.593 697.217, 69.841 710.191, 69.153 721 C 69.012 723.224, 63.993 727.963, 62.523 727.261 C 61.711 726.873, 51.911 737.132, 50.916 739.411 C 50.415 740.560, 49.618 742.175, 49.144 743 C 46.093 748.320, 45.075 751.339, 44.087 758 C 43.475 762.125, 43.197 767.750, 43.469 770.500 C 43.741 773.250, 44.011 776.175, 44.068 777 C 44.125 777.825, 44.804 780.188, 45.577 782.250 C 46.351 784.313, 46.737 786, 46.435 786 C 45.914 786, 48.943 791.945, 50.002 793 C 50.277 793.275, 51.172 794.850, 51.990 796.500 C 52.807 798.150, 56.703 802.773, 60.648 806.773 C 66.421 812.627, 69.502 814.823, 76.437 818.027 C 86.822 822.825, 96.223 825.546, 109.243 827.521 C 119.501 829.078, 134.169 829.381, 137.430 828.103 C 138.741 827.590, 142.129 828.569, 147.994 831.157 C 152.742 833.253, 160.073 835.680, 164.286 836.551 C 172.302 838.209, 183.193 837.922, 183.821 836.036 C 184.014 835.459, 184.528 835.208, 184.964 835.478 C 186.096 836.177, 190.912 833.563, 195 830.030 L 198.500 827.005 217.628 827.002 C 233.147 827, 236.983 827.274, 237.962 828.455 C 240.078 831.004, 247.640 834.932, 253.242 836.391 C 259.556 838.035, 275.193 837.921, 275.758 836.226 C 275.962 835.613, 276.780 835.362, 277.575 835.667 C 278.370 835.972, 281.828 834.487, 285.260 832.367 C 291.216 828.688, 291.887 828.512, 300 828.506 C 304.675 828.503, 309.969 828.860, 311.763 829.301 C 313.558 829.741, 315.577 829.762, 316.249 829.346 C 316.921 828.931, 318.940 828.717, 320.736 828.872 C 322.531 829.027, 324 828.744, 324 828.244 C 324 827.744, 325.012 827.410, 326.250 827.503 C 327.488 827.595, 329.850 827.325, 331.500 826.902 C 340.753 824.531, 346.627 822.711, 347.592 821.917 C 348.193 821.422, 348.980 821.313, 349.342 821.675 C 349.704 822.037, 350 821.782, 350 821.108 C 350 820.434, 350.470 820.172, 351.044 820.527 C 351.618 820.882, 353.193 820.448, 354.544 819.563 C 355.895 818.678, 357 818.221, 357 818.548 C 357 818.875, 357.711 818.432, 358.581 817.562 C 359.450 816.693, 360.578 816.239, 361.088 816.554 C 361.597 816.869, 362.294 816.397, 362.636 815.506 C 363.014 814.522, 363.883 814.125, 364.849 814.495 C 365.723 814.831, 366.153 814.819, 365.803 814.470 C 365.073 813.740, 368.528 810, 369.933 810 C 370.446 810, 371.162 809.066, 371.524 807.925 C 371.886 806.783, 372.420 806.087, 372.710 806.377 C 373.412 807.079, 376 804.444, 376 803.028 C 376 802.414, 377.113 800.713, 378.473 799.246 C 381.200 796.305, 387.519 785, 386.436 785 C 386.062 785, 386.218 784.437, 386.784 783.750 C 389.514 780.431, 390.701 763.119, 388.754 755 C 387.639 750.352, 384.555 742.283, 383.372 740.921 C 382.617 740.053, 382 738.873, 382 738.299 C 382 736.826, 370.258 726.048, 367.519 725.007 C 365.568 724.265, 365.156 723.184, 364.593 717.322 C 363.742 708.454, 362.103 697.413, 360.982 693 C 360.494 691.075, 359.831 687.925, 359.511 686 C 359.190 684.075, 358.700 681.748, 358.422 680.830 C 357.807 678.801, 356.992 675.360, 356.330 672 C 356.060 670.625, 355.244 668.150, 354.518 666.500 C 353.793 664.850, 352.226 660.125, 351.038 656 C 349.849 651.875, 348.273 647.150, 347.535 645.500 C 345.853 641.739, 344.774 638.864, 344.437 637.248 C 344.294 636.560, 340.956 629.428, 337.019 621.401 C 333.082 613.373, 330.005 606.673, 330.181 606.512 C 330.356 606.351, 332.525 605.510, 335 604.642 C 339.678 603.002, 344.715 601.074, 349 599.281 C 350.375 598.706, 351.837 598.434, 352.250 598.676 C 352.663 598.919, 353 598.641, 353 598.059 C 353 597.477, 353.599 597, 354.331 597 C 357.689 597, 385.361 581.172, 390.084 576.550 C 390.955 575.697, 392.167 575, 392.777 575 C 393.387 575, 394.475 574.190, 395.193 573.200 C 395.912 572.210, 397.453 570.746, 398.618 569.948 C 401.811 567.760, 414 553.097, 414 551.445 C 414 550.650, 414.427 550, 414.949 550 C 416.107 550, 421.082 539.715, 423.955 531.383 C 427.933 519.842, 428.917 512.612, 428.970 494.500 C 429.006 482.491, 428.136 472.170, 426.695 467.500 C 426.356 466.400, 425.844 464.375, 425.558 463 C 424.138 456.181, 421.835 447.947, 419.964 443 C 418.821 439.975, 417.709 436.825, 417.494 436 C 416.886 433.671, 412.359 423.025, 411.692 422.359 C 410.930 421.597, 412.043 408.825, 412.986 407.500 C 414.176 405.830, 414.215 357.255, 413.037 345.500 C 411.375 328.920, 410.953 325.858, 409.731 321.500 C 409.114 319.300, 408.538 316.825, 408.452 316 C 408.037 312.037, 403.245 294.605, 401.305 290 C 400.556 288.223, 400.673 288.588, 399.142 283.250 C 398.471 280.913, 397.490 279, 396.961 279 C 396.433 279, 396 278.163, 396 277.140 C 396 276.116, 394.889 273.641, 393.530 271.640 C 392.172 269.638, 391.356 268, 391.717 268 C 393.241 268, 386.184 261.654, 382.625 259.824 C 379.615 258.277, 377.160 257.892, 371.625 258.102 C 367.706 258.250, 364.050 258.644, 363.500 258.977 C 362.950 259.310, 360.700 260.164, 358.500 260.874 C 352.915 262.678, 349.027 264.445, 334.314 271.872 C 332.011 273.034, 329.847 274.439, 329.505 274.993 C 329.162 275.547, 328.009 276, 326.941 276 C 325.873 276, 325 276.357, 325 276.793 C 325 277.230, 322.759 278.917, 320.020 280.543 C 317.281 282.169, 315.031 283.837, 315.020 284.250 C 315.009 284.663, 314.421 285, 313.712 285 C 313.004 285, 310.866 286.332, 308.962 287.959 C 307.058 289.587, 305.066 290.937, 304.535 290.959 C 304.005 290.982, 302.655 291.881, 301.535 292.957 C 297.640 296.703, 291.253 302, 290.633 302 C 290.289 302, 286.355 305.595, 281.890 309.988 C 277.425 314.382, 273.460 317.784, 273.079 317.549 C 272.697 317.313, 270.218 316.860, 267.568 316.542 C 264.918 316.224, 262.448 315.777, 262.080 315.549 C 261.711 315.321, 258.990 314.858, 256.032 314.520 C 253.075 314.182, 250.379 313.734, 250.041 313.526 C 248.824 312.773, 227.236 311.661, 215 311.721 C 200.381 311.792, 188.888 312.527, 180.500 313.927 C 177.200 314.477, 172.908 315.083, 170.963 315.273 C 169.018 315.463, 166.993 315.885, 166.463 316.210 C 165.933 316.536, 164.075 316.950, 162.334 317.131 C 159.537 317.423, 158.111 316.446, 150.084 308.744 C 145.088 303.950, 141 300.275, 141 300.577 C 141 300.879, 139.313 299.527, 137.250 297.572 C 135.188 295.617, 132.938 294.013, 132.250 294.009 C 131.563 294.004, 131 293.619, 131 293.153 C 131 292.255, 113.257 280.035, 106.500 276.279 C 90.846 267.579, 78.321 261.870, 69.500 259.415 C 62.496 257.466, 53.054 257.589, 49.973 259.669 M 63.834 298.148 C 61.658 300.182, 57.672 310.265, 58.092 312.671 C 58.172 313.127, 58.126 313.725, 57.990 314 C 56.046 317.935, 54.204 372.390, 55.978 373.487 C 56.412 373.755, 59.413 371.392, 62.647 368.237 C 71.193 359.900, 77.024 354.940, 81 352.626 C 82.925 351.506, 84.725 350.331, 85 350.016 C 86.284 348.542, 96.020 342.084, 99.314 340.521 C 101.342 339.559, 103 338.373, 103 337.886 C 103 337.399, 103.655 337, 104.456 337 C 105.256 337, 107.600 335.854, 109.664 334.453 L 113.417 331.906 104.958 323.694 C 100.306 319.177, 93.125 312.831, 89 309.593 C 84.875 306.355, 81.045 303.209, 80.489 302.603 C 78.053 299.948, 72.625 296.813, 69.618 296.325 C 67.097 295.916, 65.774 296.333, 63.834 298.148 M 356.500 300.123 C 348.353 305.648, 339.148 313.259, 329.133 322.754 C 322.173 329.352, 320.881 331.051, 321.455 332.857 C 321.834 334.052, 322.511 334.802, 322.959 334.526 C 323.407 334.249, 324.325 334.687, 325 335.500 C 325.675 336.313, 326.575 336.763, 327 336.500 C 327.425 336.237, 328.329 336.692, 329.009 337.511 C 329.689 338.330, 330.865 339, 331.622 339 C 332.380 339, 333.004 339.337, 333.008 339.750 C 333.012 340.163, 334.025 340.992, 335.258 341.593 C 339.492 343.657, 344.499 346.501, 344.999 347.125 C 345.275 347.469, 347.739 349.165, 350.475 350.894 C 355.643 354.159, 363.886 361.062, 372.426 369.276 C 376.638 373.326, 377.530 373.805, 378.301 372.427 C 379.162 370.888, 378.568 337.868, 377.501 328 C 376.673 320.350, 376.032 315.624, 375.396 312.500 C 375.060 310.850, 374.678 308.825, 374.547 308 C 373.278 299.999, 370.107 295.975, 365.115 296.027 C 363.677 296.042, 359.800 297.886, 356.500 300.123 M 210.046 398.250 C 197.507 416.502, 182.497 428.440, 168.826 431.033 C 162.702 432.194, 152.023 432.055, 150.352 430.792 C 149.721 430.315, 148.233 429.737, 147.045 429.509 C 140.821 428.310, 131.145 418.897, 126.479 409.500 C 124.841 406.200, 123.388 403.313, 123.250 403.084 C 122.695 402.158, 106.598 414.107, 94.623 424.335 C 86.503 431.270, 75.210 442.875, 70.264 449.368 C 67.695 452.741, 65.314 455.725, 64.972 456 C 63.548 457.146, 54.109 474.991, 51.749 481 C 49.354 487.095, 46.753 497.812, 45.643 506.153 C 45.174 509.681, 45.283 509.833, 48.829 510.572 C 50.848 510.992, 52.846 511.258, 53.269 511.162 C 54.782 510.818, 68.555 513.128, 71.263 514.180 C 74.448 515.417, 76.068 519.699, 73.885 521.111 C 73.123 521.604, 66.538 521.754, 59.250 521.444 C 51.963 521.135, 46.009 521.246, 46.019 521.691 C 46.030 522.136, 46.627 524.750, 47.347 527.500 C 48.613 532.342, 48.763 532.493, 52.077 532.289 C 64.730 531.508, 68.813 531.129, 71.163 530.518 C 74.345 529.692, 78.341 532.949, 77.341 535.554 C 76.749 537.096, 73.107 539.053, 70 539.498 C 61.605 540.699, 54 542.648, 54 543.597 C 54 545.208, 60.340 553.479, 66.367 559.730 C 73.563 567.193, 87.411 577.219, 93.306 579.235 C 95.063 579.836, 96.725 580.595, 97 580.922 C 97.928 582.024, 118.836 590.613, 121.503 590.988 C 121.765 591.025, 122.546 591.261, 123.240 591.513 C 125.678 592.399, 145.569 596.892, 151.500 597.897 C 154.800 598.456, 158.625 599.159, 160 599.459 C 161.375 599.760, 165.875 600.259, 170 600.569 C 174.125 600.879, 178.175 601.375, 179 601.672 C 184.621 603.693, 252.475 603.672, 255.764 601.648 C 256.169 601.399, 259.799 600.893, 263.832 600.524 C 267.865 600.155, 272.140 599.659, 273.332 599.420 C 274.524 599.182, 276.850 598.803, 278.500 598.577 C 280.150 598.352, 283.750 597.641, 286.500 596.998 C 289.250 596.354, 292.625 595.617, 294 595.359 C 295.375 595.101, 298.917 594.192, 301.872 593.339 C 304.826 592.485, 307.851 591.698, 308.593 591.589 C 309.335 591.480, 310.255 591.078, 310.638 590.696 C 311.020 590.313, 312.157 590, 313.163 590 C 315.621 590, 326.703 586.124, 330.780 583.839 C 332.585 582.827, 334.899 582, 335.923 582 C 336.948 582, 338.045 581.325, 338.362 580.500 C 338.678 579.675, 339.739 578.998, 340.719 578.996 C 341.698 578.993, 344.525 577.645, 347 576 C 349.475 574.355, 352.077 573.007, 352.781 573.004 C 353.486 573.002, 354.315 572.342, 354.624 571.538 C 354.932 570.734, 356.115 569.781, 357.252 569.420 C 359.907 568.577, 374.331 554.020, 377.527 548.958 C 380.561 544.152, 380.929 542.521, 379 542.428 C 377.829 542.372, 371.552 541.061, 365 539.506 C 364.725 539.441, 363.034 539.038, 361.242 538.612 C 357.082 537.623, 355.583 535.040, 357.544 532.241 C 358.557 530.794, 359.819 530.282, 361.746 530.534 C 363.261 530.732, 367.200 531.137, 370.500 531.434 C 373.800 531.731, 378.596 532.230, 381.157 532.542 C 383.718 532.855, 386.053 532.723, 386.347 532.248 C 386.640 531.773, 387.191 529.038, 387.572 526.170 L 388.264 520.955 374.298 521.530 C 362.820 522.003, 360.118 521.848, 359.131 520.658 C 356.820 517.873, 359.479 514.305, 364.518 513.430 C 365.883 513.194, 368.238 512.779, 369.750 512.510 C 371.262 512.240, 375.650 511.763, 379.500 511.449 C 389.723 510.615, 389.231 511.092, 388.469 502.756 C 388.104 498.765, 387.599 495.164, 387.346 494.754 C 387.093 494.343, 386.728 493.218, 386.533 492.254 C 385.112 485.202, 374.777 463, 372.916 463 C 372.412 463, 372 462.478, 372 461.841 C 372 460.874, 367.488 454.314, 362.482 448 C 357.163 441.292, 335.712 420.904, 327.500 414.751 C 326.950 414.339, 324.392 412.314, 321.816 410.251 C 319.240 408.188, 315.793 405.711, 314.158 404.748 L 311.183 402.995 307.174 410.248 C 302.584 418.552, 295.528 425.819, 289 428.966 C 282.474 432.112, 268.323 432.677, 261.206 430.075 C 258.343 429.029, 256 428.366, 256 428.602 C 256 428.839, 252.597 426.690, 248.439 423.828 C 239.231 417.491, 231.434 409.308, 223.570 397.731 C 220.308 392.929, 217.361 389, 217.020 389 C 216.679 389, 213.541 393.163, 210.046 398.250 M 118.777 439.556 C 118.574 439.759, 116.549 440.159, 114.276 440.444 C 109.804 441.006, 103 443.867, 103 445.185 C 103 445.633, 102.535 446, 101.967 446 C 99.726 446, 91 456.421, 91 459.096 C 91 460.026, 90.381 461.023, 89.625 461.314 C 88.869 461.604, 87.934 463.339, 87.547 465.171 C 86.568 469.807, 86.178 486.181, 87.004 488 C 92.176 499.394, 96.447 506, 98.643 506 C 99.272 506, 100.053 506.696, 100.379 507.546 C 101.056 509.308, 113.071 515.206, 116.937 515.673 C 125.696 516.732, 133.736 515.895, 140 513.271 C 143.575 511.774, 146.950 510.056, 147.500 509.455 C 148.050 508.853, 149.738 507.594, 151.250 506.657 C 152.762 505.720, 154 504.289, 154 503.477 C 154 502.665, 154.417 502, 154.927 502 C 157.090 502, 162.014 491.080, 163.152 483.760 C 166.228 463.975, 155.362 445.944, 137.456 441.123 C 133.409 440.033, 119.470 438.864, 118.777 439.556 M 299.716 440.184 C 299.100 440.560, 298.268 440.665, 297.867 440.418 C 297.466 440.170, 296.856 440.425, 296.510 440.984 C 296.165 441.543, 295.034 442, 293.998 442 C 289.762 442, 277 451.839, 277 455.105 C 277 456.082, 276.513 457.183, 275.917 457.551 C 275.322 457.919, 273.931 460.308, 272.828 462.860 C 270.349 468.591, 269.551 483.580, 271.522 487.380 C 272.229 488.743, 272.577 490.090, 272.295 490.372 C 272.013 490.654, 272.731 492.218, 273.891 493.847 C 275.051 495.476, 276 497.224, 276 497.731 C 276 499.159, 284.429 508, 285.790 508 C 286.456 508, 287 508.433, 287 508.961 C 287 510.338, 297 514.937, 298.633 514.311 C 299.385 514.022, 300 514.256, 300 514.831 C 300 515.957, 300.033 515.961, 310.549 516.071 C 324.371 516.216, 337.664 507.834, 343.595 495.234 C 349.050 483.644, 349.003 471.658, 343.457 460.323 C 340.647 454.580, 332.215 445.513, 328.651 444.401 C 327.468 444.032, 326.257 443.355, 325.960 442.896 C 324.335 440.384, 302.998 438.180, 299.716 440.184 M 108.304 450.900 C 103.937 453.640, 101.525 457.644, 101.638 461.964 C 101.895 471.764, 110.748 477.767, 118.802 473.602 C 123.064 471.398, 124.941 468.707, 125.608 463.845 C 127.062 453.232, 116.812 445.563, 108.304 450.900 M 293.966 449.769 C 289.132 452.072, 286.016 455.793, 285.342 460.066 C 283.759 470.115, 293.012 477.529, 302.295 473.650 C 313.763 468.858, 311.538 450.697, 299.328 449.435 C 297.222 449.217, 294.810 449.368, 293.966 449.769 M 128.073 475.635 C 126.933 477.084, 126 478.823, 126 479.500 C 126 481.405, 129.971 486, 131.618 486 C 133.966 486, 138 481.324, 138 478.602 C 138 475.956, 134.755 473, 131.850 473 C 130.912 473, 129.212 474.186, 128.073 475.635 M 313.223 474.557 C 308.301 478.004, 311.710 486.864, 317.409 485.434 C 322.238 484.221, 323.739 477.331, 319.777 474.557 C 318.555 473.701, 317.080 473, 316.500 473 C 315.920 473, 314.445 473.701, 313.223 474.557 M 210.250 495.440 C 208.463 496.245, 207 497.338, 207 497.870 C 207 498.402, 206.731 499.538, 206.401 500.396 C 206.029 501.366, 206.997 503.150, 208.957 505.111 C 212.225 508.379, 212.330 510.571, 209.273 511.700 C 208.298 512.060, 207.275 512.642, 207 512.993 C 206.725 513.344, 204.363 515.086, 201.750 516.864 C 195.348 521.220, 195.186 526.269, 201.413 527.398 C 204.765 528.006, 206.206 527.341, 211.981 522.516 C 216.745 518.535, 218.611 518.571, 222.927 522.722 C 225.659 525.351, 230.938 528, 233.445 528 C 235.585 528, 238.288 523.482, 237.546 521.145 C 237.205 520.072, 234.468 517.500, 231.463 515.430 C 228.458 513.361, 226 511.266, 226 510.775 C 226 510.284, 225.601 510.129, 225.113 510.430 C 224.626 510.731, 223.668 510.305, 222.986 509.483 C 221.964 508.251, 222.187 507.641, 224.252 506.017 C 227.447 503.503, 228.251 499.531, 226.101 496.877 C 223.927 494.192, 214.850 493.369, 210.250 495.440 M 149 619.647 C 149 620.528, 153.714 628.947, 155.691 631.594 C 156.961 633.296, 158 634.968, 158 635.309 C 158 635.650, 160.380 640.108, 163.290 645.215 C 168.626 654.581, 170.688 658.758, 170.779 660.388 C 170.807 660.877, 171.223 661.552, 171.704 661.888 C 172.185 662.225, 173.812 665.425, 175.319 669 C 176.825 672.575, 178.767 676.850, 179.633 678.500 C 185.119 688.948, 197.688 727.766, 196.547 730.738 C 196.259 731.489, 196.418 731.859, 196.902 731.561 C 197.385 731.262, 198.057 732.476, 198.394 734.259 C 199.541 740.320, 199.971 742.495, 201.062 747.774 C 201.661 750.674, 202.326 754.499, 202.538 756.274 C 202.751 758.048, 203.225 761.750, 203.591 764.500 C 204.746 773.167, 204.905 776.170, 204.916 789.500 C 204.923 796.650, 204.933 803.400, 204.939 804.500 C 204.945 805.600, 204.463 808.004, 203.867 809.842 C 203.090 812.241, 203.090 813.490, 203.867 814.267 C 205.042 815.442, 228.380 816.001, 230.166 814.897 C 230.824 814.491, 230.920 812.994, 230.425 810.875 C 229.991 809.019, 229.478 806.825, 229.284 806 C 228.166 801.249, 228.676 778.333, 230.176 765.863 C 232.335 747.909, 232.623 746.143, 234.529 739.169 C 235.381 736.051, 236.258 732.375, 236.477 731 C 236.696 729.625, 237.544 726.628, 238.361 724.340 C 239.179 722.053, 239.651 719.984, 239.411 719.744 C 239.020 719.353, 240.502 715.092, 242.974 709.500 C 244.165 706.805, 248.950 693.283, 250.128 689.286 C 250.648 687.519, 251.507 685.804, 252.037 685.477 C 252.567 685.150, 253 684.151, 253 683.257 C 253 680.988, 260.454 664.803, 262.905 661.750 C 263.678 660.788, 263.971 660, 263.556 660 C 263.142 660, 263.747 658.399, 264.901 656.443 C 266.056 654.486, 267 652.454, 267 651.926 C 267 651.398, 269.023 647.634, 271.495 643.561 C 273.967 639.488, 276.450 635.109, 277.013 633.828 C 277.575 632.548, 279.585 629.025, 281.479 626 C 283.373 622.975, 284.940 620.197, 284.961 619.826 C 284.999 619.173, 278.139 619.526, 271 620.545 C 265.149 621.379, 255.716 622.287, 251.750 622.396 C 249.688 622.453, 248 622.725, 248 623.001 C 248 623.670, 189.129 623.315, 181.500 622.600 C 178.200 622.291, 173.250 621.831, 170.500 621.580 C 167.750 621.328, 163.475 620.823, 161 620.458 C 155.747 619.684, 149 619.228, 149 619.647 M 181 761.204 C 177.975 762.287, 174.150 763.379, 172.500 763.629 C 167.199 764.434, 166.483 764.585, 165.482 765.111 C 164.137 765.819, 141.100 765.319, 138 764.515 C 136.625 764.158, 133.798 763.760, 131.719 763.630 C 128.653 763.438, 128.052 763.687, 128.543 764.947 C 128.877 765.801, 130.305 770.550, 131.716 775.500 C 134.807 786.338, 140.848 800.731, 144.546 806.066 C 150.089 814.065, 158.650 821, 162.980 821 C 164.091 821, 165 821.381, 165 821.846 C 165 823.145, 176.197 822.551, 178.836 821.112 C 180.120 820.411, 181.417 820.084, 181.718 820.385 C 182.562 821.229, 185.750 816.734, 188.123 811.353 C 189.870 807.394, 190.314 804.198, 190.533 794 C 190.785 782.241, 188.729 761.311, 187.179 759.867 C 186.806 759.519, 184.025 760.121, 181 761.204 M 245.872 760.750 C 245.802 761.712, 245.581 763.400, 245.380 764.500 C 244.466 769.517, 243.837 777.472, 243.444 789 C 242.914 804.531, 244.900 812.768, 250.374 817.749 C 256.638 823.449, 266.608 824.281, 275.326 819.834 C 280.456 817.217, 287.699 810.454, 290.095 806.045 C 291.154 804.095, 292.451 801.825, 292.976 801 C 293.502 800.175, 294.895 797.250, 296.071 794.500 C 297.248 791.750, 298.830 788.150, 299.586 786.500 C 300.342 784.850, 301.161 782.375, 301.406 781 C 301.651 779.625, 301.919 778.500, 302.002 778.500 C 302.221 778.500, 302.824 776.124, 303.907 771 C 304.430 768.525, 305.166 765.705, 305.542 764.733 C 306.279 762.832, 306.281 762.832, 291 764.837 C 283.013 765.885, 263.919 765.297, 262.250 763.952 C 262.113 763.841, 261.550 763.638, 261 763.500 C 260.450 763.362, 259.887 763.149, 259.750 763.026 C 259.613 762.903, 258.375 762.673, 257 762.516 C 255.625 762.359, 252.827 761.503, 250.782 760.615 C 246.157 758.606, 246.028 758.609, 245.872 760.750 M 113 773.717 C 109.077 775.179, 101.886 781.519, 99.465 785.649 C 97.229 789.465, 96.846 791.126, 97.204 795.442 C 98.210 807.579, 109.199 813.367, 125.750 810.477 C 129.378 809.843, 129.659 809.010, 127.544 805.154 C 124.987 800.495, 121.126 791.272, 119.443 785.802 C 118.545 782.886, 117.559 779.825, 117.252 779 C 116.661 777.413, 116.401 776.289, 116.152 774.250 C 115.990 772.921, 115.402 772.822, 113 773.717 M 318 774.448 C 318 777.349, 312.667 792.676, 308.940 800.488 C 306.837 804.894, 305.428 808.814, 305.808 809.198 C 307.402 810.806, 317.706 811.605, 322.610 810.500 C 329.029 809.055, 332.522 806.469, 334.459 801.730 C 338.564 791.687, 334.218 781.893, 322.693 775.208 C 318.193 772.598, 318 772.567, 318 774.448" stroke="none"  fill-rule="evenodd"/></svg>