<svg xmlns="http://www.w3.org/2000/svg" version="1.1" viewBox="0.64 0.48 323.56 704.48"><path d="M 181.958 0.919 C 169.192 2.700, 155.290 9.012, 146.386 17.068 L 142.273 20.790 134.386 18.798 C 128.816 17.391, 123.123 16.801, 115 16.787 L 103.500 16.768 95.558 18.892 C 91.190 20.060, 84.215 22.687, 80.058 24.729 L 72.500 28.442 63.468 37.471 L 54.436 46.500 49.518 56.250 C 46.637 61.960, 43.987 66, 43.123 66 C 42.310 66, 37.930 67.799, 33.388 69.997 L 25.130 73.994 17.688 81.247 C 5.414 93.209, 0.433 105.559, 0.648 123.500 L 0.768 133.500 2.889 139.420 C 6.022 148.166, 9.071 152.802, 16.169 159.612 C 25.235 168.310, 35.120 172.747, 49.414 174.533 L 54.845 175.211 55.871 177.856 C 57.113 181.055, 58.328 185.902, 60.542 196.500 C 66.932 227.078, 76.472 261.478, 79.540 265 C 80.439 266.032, 80.961 270.869, 81.214 280.500 C 81.416 288.200, 81.917 295.205, 82.327 296.066 C 83.036 297.554, 82.297 298.782, 75.054 308.158 C 72.088 311.997, 72.432 314.655, 76.143 316.574 L 79.285 318.199 86.893 317.765 C 91.077 317.526, 95.185 317.023, 96.023 316.646 C 97.081 316.170, 98.131 316.958, 99.467 319.230 C 102.393 324.211, 110.663 332.575, 116.127 336.081 L 121.017 339.219 124.555 338.556 L 128.093 337.892 132.797 341.762 C 137.859 345.926, 147.445 352, 148.956 352 C 150.483 352, 151.098 353.760, 150.460 356.302 C 150.093 357.765, 148.427 359.374, 146.180 360.438 C 141.080 362.850, 132.678 369.246, 125.161 376.436 C 109.949 390.988, 102.093 408.419, 98.562 435.458 C 96.775 449.139, 96.593 460.831, 97.980 472.892 L 98.945 481.285 97.546 483.892 C 94.666 489.259, 92.867 500.774, 91.971 519.581 C 91.467 530.153, 90.811 540.534, 90.512 542.651 C 89.692 548.458, 87 602.737, 87 613.459 L 87 622.847 89.636 625.979 C 93.025 630.007, 102.808 634.880, 115.750 638.986 C 121.388 640.775, 126 642.653, 126 643.159 C 126 643.665, 126.483 648.449, 127.072 653.789 L 128.145 663.500 130.649 666.135 L 133.154 668.770 135.672 680.135 C 138.439 692.627, 139.843 695.610, 143.639 697.053 C 145.032 697.583, 155.243 699.587, 166.329 701.508 C 187.685 705.208, 199.433 705.850, 209.343 703.860 L 215.020 702.720 218.510 698.857 C 220.430 696.732, 222 694.096, 222 692.997 C 222 691.899, 222.172 691, 222.383 691 C 222.593 691, 234.181 692.384, 248.133 694.076 L 273.500 697.152 285.500 696.763 C 298.800 696.332, 302.243 695.242, 304.046 690.890 C 305.911 686.386, 304.340 682.987, 297.163 676 C 289.741 668.773, 288.928 668.118, 280.656 662.690 L 274.849 658.879 276.564 656.261 L 278.280 653.644 277.710 642.078 L 277.140 630.513 280.726 627.229 L 284.311 623.946 283.673 592.223 C 283.321 574.775, 282.746 557.986, 282.394 554.914 L 281.754 549.329 286.397 548.029 C 289.487 547.164, 291.953 545.609, 293.770 543.380 C 295.271 541.538, 299.348 536.986, 302.830 533.265 C 310.100 525.495, 316.386 513.635, 318.117 504.423 C 320.512 491.672, 317.686 476.211, 309.815 459 C 308.180 455.425, 304.361 445.975, 301.328 438 C 284.284 393.178, 276.586 381.971, 250.130 363.462 C 245.384 360.141, 241.500 356.780, 241.500 355.994 C 241.500 355.174, 244.522 353.271, 248.587 351.532 C 265.149 344.447, 277.127 334.630, 286.625 320.356 C 297.777 303.595, 301.217 290.564, 301.395 264.397 L 301.518 246.294 305.093 241.897 C 307.059 239.479, 309.193 235.970, 309.834 234.101 C 311.313 229.788, 311.331 222.249, 309.872 218.063 L 308.744 214.828 313.308 210.164 C 318.635 204.719, 323.094 196.347, 323.745 190.567 L 324.204 186.495 322.138 184.625 L 320.071 182.754 316.015 184.377 C 310.937 186.409, 302.145 186.490, 299.348 184.531 C 298.194 183.723, 296.478 180.686, 295.533 177.781 C 292.915 169.733, 281.214 140.508, 277.003 131.500 C 274.946 127.100, 271.815 120.399, 270.046 116.609 L 266.829 109.719 273.766 102.609 C 281.829 94.346, 284.031 90.901, 286.945 82 C 290.883 69.970, 289.425 55.729, 283.126 44.720 C 279.854 39.001, 271.845 30.858, 265.943 27.250 C 261.905 24.781, 252.115 22, 247.464 22 C 245.394 22, 243.535 21.126, 241.924 19.394 C 236.104 13.136, 221.480 5.243, 211 2.701 C 202.898 0.736, 189.264 -0.101, 181.958 0.919 M 183 8.017 C 179.975 8.432, 176.825 8.994, 176 9.266 C 175.175 9.538, 171.947 10.571, 168.827 11.561 C 162.335 13.622, 149.648 21.722, 149.210 24.084 C 149.023 25.094, 151.212 27.152, 155.252 29.765 C 163.266 34.947, 170.422 41.264, 169.901 42.696 C 169.670 43.328, 165.305 41.308, 159.630 37.941 C 145.596 29.617, 136.919 26.257, 125.341 24.665 C 102.017 21.457, 81.822 27.840, 66.846 43.153 L 60.193 49.957 55.039 60.326 C 49.578 71.315, 47.102 81.192, 47.035 92.250 L 47 98 45.625 98 C 43.799 98, 43 93.548, 43 83.375 L 43 75 40.846 75 C 37.291 75, 26.848 81.507, 21.296 87.181 C 18.434 90.107, 14.554 95.460, 12.674 99.078 L 9.256 105.655 8.022 114.345 L 6.789 123.034 8.391 131.674 C 11.385 147.814, 19.967 157.945, 36 164.264 C 46.650 168.462, 59 169.116, 59 165.481 C 59 164.666, 58.438 163.993, 57.750 163.985 C 57.063 163.977, 54.700 162.438, 52.500 160.565 L 48.500 157.159 50.287 156.458 C 51.393 156.025, 52.788 156.403, 53.945 157.450 C 57.343 160.525, 69.902 165, 75.135 165 L 80.064 165 86.282 161.577 C 89.702 159.694, 96.100 156.161, 100.500 153.725 C 108.799 149.132, 110.710 146.677, 106.923 145.476 C 102.303 144.009, 93.238 137.924, 87.019 132.115 L 80.539 126.061 81.704 124.896 L 82.868 123.732 89.684 129.783 C 98.651 137.745, 108.088 143.039, 114.502 143.708 L 119.504 144.229 135.002 137.753 C 143.526 134.192, 152.750 130.395, 155.500 129.317 L 160.500 127.357 160.788 119.332 C 160.946 114.918, 160.677 108.762, 160.189 105.651 L 159.302 99.994 160.562 98.949 C 161.255 98.373, 162.055 98.281, 162.341 98.742 C 163.156 100.061, 165.993 117.141, 165.997 120.750 L 166 124 168.250 123.997 C 169.488 123.995, 175.675 122.402, 182 120.455 C 194.043 116.750, 208.193 113.102, 218.729 110.986 L 224.958 109.736 226.837 106.551 C 229.716 101.672, 233.805 90.936, 235.418 84.019 C 237.031 77.109, 237.566 76.166, 239.043 77.643 C 240.314 78.914, 237.329 91.842, 233.633 101.078 C 232.185 104.697, 231 107.944, 231 108.296 C 231 108.647, 236.963 108.652, 244.250 108.306 L 257.500 107.678 262.500 103.990 C 269.750 98.643, 274.807 92.638, 278.242 85.297 L 281.260 78.848 281.768 69.935 L 282.276 61.022 280.013 54.761 C 278.768 51.318, 276.151 46.306, 274.197 43.624 C 269.991 37.850, 261.299 31.984, 255.873 31.256 L 252 30.737 252 32.077 C 252 32.814, 253.528 37.036, 255.396 41.459 C 260.426 53.372, 261.239 67.457, 256.797 65.752 C 255.874 65.398, 254.989 62.175, 254.215 56.357 L 253.038 47.500 249.366 40 L 245.695 32.500 238.876 25.853 L 232.056 19.205 222.778 14.695 L 213.500 10.184 204.074 8.592 C 194.028 6.895, 191.648 6.830, 183 8.017 M 235.500 114.656 C 215.616 117.021, 204.615 119.351, 184 125.568 C 163.444 131.767, 153.328 135.542, 128.500 146.276 C 100.313 158.463, 66.205 179.021, 65.152 184.456 C 64.961 185.444, 66.219 192.383, 67.947 199.876 C 76.632 237.532, 81.558 255, 83.491 255 C 84.150 255, 85.996 253.845, 87.594 252.433 C 101.478 240.169, 111.237 233.187, 128.149 223.419 C 175.192 196.246, 233.795 178, 274.025 178 L 286.063 178 286.687 176.374 C 287.448 174.389, 286.630 172.001, 277.901 150.738 C 270.346 132.332, 262.486 115.930, 260.666 114.773 C 259.519 114.043, 241.367 113.959, 235.500 114.656 M 61.190 172.742 L 61.500 176.483 63.339 176.832 C 65.610 177.263, 70 173.304, 70 170.826 L 70 169 65.440 169 L 60.879 169 61.190 172.742 M 281.565 184.895 C 280.095 187.274, 282.353 191.017, 286.849 193.654 L 291.500 196.382 299.741 196.816 C 308.398 197.272, 314 195.922, 314 193.379 C 314 192.457, 312.758 191.992, 310.250 191.976 C 304.892 191.941, 298.314 190.263, 292.927 187.557 C 287.165 184.663, 282.398 183.547, 281.565 184.895 M 248.497 189.837 C 242.573 197.714, 228.103 206.788, 214.489 211.164 L 207.500 213.411 195.500 213.432 C 188.055 213.444, 182.048 212.948, 179.675 212.124 C 177.255 211.283, 174.202 211.042, 171.365 211.468 L 166.881 212.140 167.190 214.656 L 167.500 217.172 174.431 220.121 C 178.306 221.770, 185.754 223.766, 191.323 224.648 L 201.284 226.225 210.091 225.096 C 227.220 222.899, 239.419 217.465, 250.162 207.248 C 256.459 201.259, 264 190.685, 264 187.844 L 264 186 257.692 186 L 251.384 186 248.497 189.837 M 227.988 189.937 C 217.992 192.047, 206.040 195.590, 189.750 201.273 L 178 205.372 178 206.986 L 178 208.600 183.810 209.800 C 195.713 212.258, 211.188 210.903, 221.500 206.498 C 226.937 204.176, 237.994 196.755, 240.750 193.578 C 245.874 187.672, 242.832 186.804, 227.988 189.937 M 272 190 C 272 190.550, 271.325 191, 270.500 191 C 269.605 191, 269.008 191.908, 269.020 193.250 C 269.045 196.024, 275.308 202.252, 283.750 207.896 C 290.059 212.114, 291.459 213.480, 288.250 212.286 C 286.300 211.561, 283.631 209.791, 273.776 202.693 L 267.052 197.849 265.028 198.491 C 263.915 198.844, 262.719 200.271, 262.370 201.663 L 261.735 204.192 266.428 208.689 C 273.994 215.939, 289.130 222, 299.668 222 C 304.240 222, 304.892 219.794, 301.926 214.365 C 298.358 207.833, 291.480 200.922, 282.282 194.625 C 274.117 189.036, 272 188.084, 272 190 M 302.750 201.728 C 300.688 201.944, 299 202.538, 299 203.049 C 299 204.770, 302.430 208, 304.257 208 C 307.037 208, 311 204.994, 311 202.885 C 311 200.929, 310.742 200.892, 302.750 201.728 M 253.165 213.324 C 251.964 214.602, 251.323 215.990, 251.741 216.408 C 252.158 216.825, 252.050 217.023, 251.500 216.848 C 250.950 216.672, 246.613 218.885, 241.861 221.764 C 237.110 224.644, 232.704 227, 232.071 227 C 231.438 227, 229.194 227.881, 227.084 228.957 C 224.974 230.034, 223.049 230.715, 222.806 230.473 C 222.563 230.230, 219.064 230.660, 215.030 231.428 C 200.475 234.201, 181.233 231.644, 168.274 225.215 L 162.440 222.320 162.331 230.022 C 162.142 243.368, 157.417 254.309, 149.963 258.658 C 148.124 259.731, 145.749 262.588, 144.275 265.500 C 142.882 268.250, 140.941 271.639, 139.959 273.031 C 138.978 274.424, 138.023 276.895, 137.838 278.523 C 137.265 283.546, 134.460 282.850, 127.999 276.081 C 121.055 268.806, 115.576 266.052, 107.984 266.022 C 100.886 265.994, 96.298 268.430, 92.763 274.106 C 87.273 282.922, 88.433 294.473, 95.657 302.913 C 99.999 307.985, 107.778 311.960, 113.500 312.029 L 117.500 312.078 120 317.289 C 123.213 323.985, 132.570 333.813, 138.710 336.939 C 141.344 338.280, 144.175 339.932, 145 340.610 C 145.825 341.288, 147.173 341.990, 147.996 342.171 C 148.819 342.352, 149.953 343.083, 150.516 343.795 C 151.078 344.507, 152.511 345.163, 153.700 345.252 C 154.889 345.342, 155.668 345.729, 155.431 346.112 C 155.194 346.495, 157.475 347.835, 160.500 349.088 C 163.525 350.342, 166 351.695, 166 352.095 C 166 352.495, 169.938 354.040, 174.750 355.530 C 191.491 360.709, 195.142 362.293, 199.093 366.090 C 201.242 368.154, 203 370.134, 203 370.489 C 203 370.844, 204.438 372.847, 206.195 374.940 L 209.389 378.745 211.195 375.376 C 212.188 373.523, 213 370.633, 213 368.954 C 213 367.275, 213.687 364.573, 214.526 362.950 C 215.365 361.328, 215.804 360, 215.503 360 C 215.201 360, 215.706 358.852, 216.625 357.449 C 218.725 354.244, 221.565 352.780, 234.231 348.371 C 246.907 343.959, 254.903 339.952, 262.148 334.382 C 268.193 329.735, 278.609 318.792, 280.121 315.500 C 280.627 314.400, 282.366 311.475, 283.986 309 C 289.043 301.277, 290.689 297.718, 292.404 290.808 C 295.178 279.629, 294.377 252.173, 290.826 236.690 L 288.805 227.879 284.653 226.007 C 282.369 224.978, 277.350 222.664, 273.500 220.865 C 269.650 219.066, 265.942 217.635, 265.261 217.684 C 264.579 217.734, 264.250 217.405, 264.528 216.954 C 264.807 216.503, 263.677 215.332, 262.018 214.351 C 260.358 213.371, 259 212.216, 259 211.784 C 259 210.119, 255.245 211.110, 253.165 213.324 M 148.046 222.109 L 145.592 224.151 145.732 227.825 C 146.276 242.102, 147.356 251.997, 148.366 251.969 C 148.990 251.951, 150.307 250.829, 151.292 249.474 C 154.624 244.897, 156 239.021, 156 229.374 L 156 220 153.250 220.033 C 151.738 220.052, 149.396 220.986, 148.046 222.109 M 269.250 225.031 C 265.077 226.708, 266.537 229.353, 273.250 232.278 C 280.752 235.546, 281.672 235.610, 282.523 232.928 C 283.334 230.373, 280.766 227.260, 276.282 225.362 C 272.615 223.810, 272.323 223.796, 269.250 225.031 M 136.400 228.765 C 133.611 230.627, 132.842 234.253, 133.516 242.350 L 134.197 250.524 132.451 259.315 L 130.705 268.105 131.880 269.280 L 133.055 270.455 134.754 269.384 C 139.939 266.113, 143.521 245.877, 141.009 234.042 C 139.781 228.258, 138.816 227.152, 136.400 228.765 M 297.477 229.037 C 296.343 230.872, 298.062 238, 299.639 238 C 301.347 238, 304.371 231.410, 303.594 229.383 C 302.976 227.773, 298.418 227.515, 297.477 229.037 M 121.872 235.653 C 120.924 236.795, 120.395 241.045, 120.162 249.403 L 119.824 261.500 122.816 263.250 C 127.337 265.894, 128.657 265.490, 129.358 261.250 C 130.330 255.368, 130.095 241.881, 128.947 237.750 L 127.906 234 125.575 234 C 124.294 234, 122.627 234.744, 121.872 235.653 M 186.583 238.062 C 182.537 241.613, 181.335 244.494, 183.040 246.548 C 184.697 248.545, 184.817 248.510, 191.731 244.017 C 198.821 239.411, 199.615 238.447, 197.964 236.456 C 195.857 233.918, 190.430 234.684, 186.583 238.062 M 110.686 245.750 C 109.701 247.463, 109.065 255.596, 109.825 256.773 C 110.277 257.474, 111.626 258.235, 112.823 258.466 L 115 258.885 115.077 256.693 C 115.119 255.487, 115.316 253.630, 115.515 252.567 C 116.193 248.943, 114.848 245, 112.934 245 C 111.935 245, 110.924 245.338, 110.686 245.750 M 274.061 254.750 C 267.742 259.870, 270.749 274.465, 278.525 276.417 C 281.464 277.154, 286 275.493, 286 273.680 C 286 272.926, 286.900 271.495, 288 270.500 C 291.547 267.290, 289.727 258.024, 284.883 254.631 C 281.837 252.497, 276.773 252.553, 274.061 254.750 M 190.190 264.027 C 183.035 268.387, 181.893 280.703, 188.141 286.122 C 189.276 287.107, 191.761 288.426, 193.661 289.053 L 197.118 290.194 199.960 289.017 C 204.722 287.044, 207.241 283.548, 207.755 278.198 C 208.500 270.450, 203.945 263.856, 197 262.628 L 193.500 262.009 190.190 264.027 M 99.535 278.104 L 96 281.207 96 284.635 C 96 288.888, 98.466 290.208, 100.632 287.115 C 101.460 285.933, 102.505 285.194, 102.956 285.473 C 103.406 285.751, 103.712 285.196, 103.637 284.239 L 103.500 282.500 108 282.500 C 111.067 282.500, 112.420 282.898, 112.250 283.750 C 112.112 284.438, 112.883 285, 113.961 285 L 115.923 285 116.989 288.958 C 118.208 293.487, 119.204 294.387, 122.009 293.497 L 124 292.865 124 289.165 C 124 284.700, 120.198 278.671, 116.021 276.511 C 114.414 275.680, 110.843 275, 108.084 275 L 103.070 275 99.535 278.104 M 254.607 278.582 C 254.273 279.452, 253.993 281.814, 253.985 283.832 C 253.967 288.016, 253.473 288.950, 250.027 291.308 C 244.976 294.765, 238.257 292.385, 234.989 285.979 L 232.959 282 230.588 282 L 228.217 282 227.568 284.587 C 226.694 288.069, 229.563 293.625, 234.105 297.243 L 237.709 300.115 243.160 300.677 L 248.610 301.240 252.704 299.151 C 257.645 296.630, 261.087 291.404, 261.765 285.394 L 262.266 280.951 260.478 278.975 C 258.327 276.599, 255.442 276.405, 254.607 278.582 M 83.457 307.048 C 82.437 308.174, 81.507 309.749, 81.390 310.548 L 81.177 312 86.588 312 L 92 312 92 310.155 C 92 307.990, 88.999 305, 86.826 305 C 85.992 305, 84.476 305.922, 83.457 307.048 M 109 320.804 C 109 322.799, 114.899 329, 116.798 329 C 118.788 329, 118.159 325.897, 115.449 322.344 C 112.672 318.704, 109 317.826, 109 320.804 M 156.607 358.582 C 156.273 359.452, 156 361.640, 156 363.445 L 156 366.726 160.750 371.129 C 167.273 377.175, 174.635 381.683, 180 382.916 C 182.475 383.486, 188.887 383.962, 194.250 383.976 L 204 384 204 382.150 C 204 379.672, 198.929 372.802, 194.818 369.711 C 192.993 368.338, 186.550 365.630, 180.500 363.693 C 174.450 361.756, 167.827 359.457, 165.782 358.585 C 161.041 356.564, 157.382 356.562, 156.607 358.582 M 228.469 358.051 C 226.801 358.542, 224.479 359.837, 223.307 360.929 C 220.894 363.177, 217.052 372.624, 216.263 378.250 L 215.737 382 217.118 381.988 C 219.293 381.969, 228.371 379.407, 230.724 378.148 C 233.283 376.778, 235.338 368.714, 234.836 362.009 C 234.468 357.096, 233.582 356.545, 228.469 358.051 M 238.441 370.546 C 237.631 375.944, 238.146 376.710, 241.543 375.162 C 245.349 373.428, 246.872 373.718, 249.909 376.755 C 252.886 379.732, 254.913 386.887, 256.920 401.500 C 257.525 405.900, 258.706 414.225, 259.545 420 C 261.906 436.252, 262.876 443.700, 263.975 454 C 265.953 472.554, 267.234 481.760, 268.011 483.017 C 269.600 485.589, 272 483.212, 272 479.066 C 272 472.421, 266.565 435.386, 263.993 424.500 C 261.884 415.577, 263.754 412.624, 266.366 420.750 C 267.715 424.945, 271.044 438.806, 275.554 459 C 276.352 462.575, 277.004 466.261, 277.003 467.191 C 276.999 469.753, 278.538 470.202, 283.111 468.970 C 287.314 467.838, 292 468.324, 292 469.890 C 292 470.359, 289.823 471.031, 287.162 471.384 C 281.442 472.143, 278.660 474.687, 277.094 480.591 C 276.497 482.841, 275.107 485.499, 274.004 486.496 C 271.119 489.108, 271.517 490.148, 276.651 493.403 C 284.642 498.470, 291.501 509.628, 295.256 523.668 C 295.893 526.050, 296.956 528, 297.619 528 C 299.221 528, 303.596 522.713, 306.171 517.665 C 310.472 509.233, 312 502.963, 312 493.738 C 312 482.362, 310.557 476.926, 302.636 458.465 C 299.104 450.234, 294.114 437.875, 291.546 431 C 281.968 405.356, 274.142 392.043, 261.769 380.344 C 253.963 372.963, 244.100 366, 241.451 366 L 239.123 366 238.441 370.546 M 142.092 371.019 C 123.171 383.248, 112.477 399.724, 106.730 425.500 L 104.500 435.500 104.529 456 L 104.558 476.500 107.820 487.413 C 113.206 505.432, 119.423 516.234, 130.680 527.135 C 140.113 536.269, 150.715 542.694, 164.429 547.585 C 170.493 549.748, 183.304 552.096, 184.193 551.207 C 184.619 550.781, 185.415 544.372, 185.961 536.966 C 186.964 523.347, 189.284 508.013, 191.041 503.391 C 192.738 498.929, 192.213 498.118, 186.576 496.479 C 183.593 495.612, 179.430 493.521, 177.326 491.832 C 175.222 490.143, 171.760 487.651, 169.634 486.295 L 165.768 483.828 160.382 484.164 C 153.968 484.564, 153.771 483.155, 159.941 481 L 164.236 479.500 163.640 473.500 C 163.312 470.200, 162.355 461.875, 161.514 455 C 158.655 431.650, 158.086 424.670, 158.917 423.184 L 159.746 421.702 160.903 425.207 C 161.979 428.467, 163.198 435.273, 166.060 454 C 168.306 468.694, 170.146 476, 171.600 476 C 173.409 476, 173.395 471.922, 171.535 456.500 C 169.486 439.511, 167.386 425.974, 163.881 407.143 C 162.207 398.147, 161.097 389.748, 161.416 388.478 C 161.736 387.204, 163.340 385.574, 164.998 384.841 C 169.230 382.967, 168.735 380.886, 163.381 378.046 C 160.840 376.698, 157.145 373.662, 155.169 371.298 C 153.193 368.934, 150.842 367, 149.943 367 C 149.045 367, 145.512 368.809, 142.092 371.019 M 231.500 382.638 C 214.966 388.956, 203.826 389.897, 174.970 387.413 L 167.440 386.765 166.061 388.426 L 164.682 390.088 166.928 401.794 C 168.163 408.232, 169.787 416.650, 170.537 420.500 C 171.287 424.350, 172.359 430.875, 172.920 435 C 173.482 439.125, 175.079 450.063, 176.470 459.306 C 177.862 468.549, 179.003 477.324, 179.006 478.806 C 179.023 487.172, 182.143 490.998, 190.177 492.505 L 193.785 493.182 194.976 489.574 C 195.726 487.301, 197.249 485.405, 199.092 484.452 L 202.018 482.939 203.931 483.963 C 207.885 486.079, 209 488.083, 209 493.071 L 209 498 210.732 498 C 211.684 498, 214.749 495.525, 217.542 492.500 L 222.620 487 225.942 487 L 229.264 487 232.719 490.664 L 236.175 494.328 238.992 492.664 C 240.541 491.749, 242.527 491, 243.404 491 C 245.419 491, 245.475 488.639, 243.500 487 C 241.703 485.508, 241.616 483.083, 243.282 480.913 C 244.652 479.129, 248.296 477, 249.980 477 C 252.048 477, 256 481.893, 256 484.455 C 256 487.704, 252.727 491, 249.500 491 C 246.593 491, 246.240 492.702, 248.750 494.608 C 251.349 496.581, 252.728 496.319, 258.110 492.832 L 263 489.663 263 485.138 C 263 482.649, 262.324 475.187, 261.499 468.556 C 258.843 447.228, 256.939 432.740, 255.445 422.500 C 254.642 417, 253.050 405.759, 251.905 397.520 C 250.761 389.281, 249.398 381.744, 248.877 380.770 C 247.442 378.089, 241.826 378.693, 231.500 382.638 M 233.455 391.455 C 230.456 394.453, 230.351 396.905, 233.073 400.365 C 235.499 403.449, 238.843 403.758, 242.014 401.190 C 245.157 398.644, 244.958 394.221, 241.569 391.306 C 238.158 388.372, 236.507 388.402, 233.455 391.455 M 182.923 397.923 C 181.315 399.531, 180 401.590, 180 402.500 C 180 404.777, 185.416 410, 187.777 410 C 190.122 410, 195 405.674, 195 403.595 C 195 400.783, 192.785 397.223, 190.343 396.110 C 186.834 394.512, 186.173 394.673, 182.923 397.923 M 238.049 432.448 C 235.300 435.375, 235.085 439.332, 237.530 442.033 C 239.928 444.683, 244.158 444.525, 246.826 441.686 C 249.554 438.782, 249.607 435.029, 246.961 432.189 C 244.285 429.316, 240.899 429.415, 238.049 432.448 M 191.174 438.314 C 187.014 442.743, 189.728 450, 195.545 450 C 198.623 450, 203 445.890, 203 443 C 203 440.181, 198.651 436, 195.720 436 C 194.416 436, 192.370 437.042, 191.174 438.314 M 216.713 499.422 L 209.199 507.845 208.134 512.811 C 207.548 515.543, 206.762 523.215, 206.386 529.861 L 205.703 541.944 210.602 544.058 C 213.296 545.220, 217.863 546.421, 220.750 546.726 L 226 547.280 226 542.795 L 226 538.310 228 536.500 C 230.538 534.203, 230.542 532.360, 228.012 531.006 C 225.177 529.489, 224.438 525.506, 226.428 522.469 L 228.077 519.952 225.795 514.976 C 224.539 512.239, 222.885 510, 222.119 510 C 221.353 510, 222.813 507.769, 225.363 505.043 L 230 500.086 230 496.743 C 230 493.077, 228.522 491, 225.913 491 C 224.985 491, 220.845 494.790, 216.713 499.422 M 101 496.465 L 101 500.930 102.934 501.965 C 107.346 504.326, 107.922 502.980, 105.364 496.283 C 103.166 490.528, 101 490.618, 101 496.465 M 262.250 494.662 C 259.733 495.678, 261.121 497.585, 266.093 499.946 C 274.672 504.019, 280.941 514.540, 283.107 528.500 C 284.647 538.423, 285.102 540, 286.424 540 C 292.741 540, 292.430 522.630, 285.884 509.778 C 280.311 498.837, 269.322 491.809, 262.250 494.662 M 240.407 497.382 C 239.549 499.618, 240.780 501, 243.629 501 L 246.139 501 245.820 498.750 C 245.439 496.069, 241.311 495.026, 240.407 497.382 M 195.617 502.612 C 192.833 510.781, 189.884 534.433, 190.207 546 L 190.500 556.500 195 556.500 L 199.500 556.500 200.202 546 C 201.407 527.999, 203.093 513.749, 204.786 507.257 C 206.636 500.165, 206.219 499.234, 200.795 498.354 L 197.263 497.781 195.617 502.612 M 247.500 502.943 C 240.587 503.912, 235.086 505.615, 231.250 507.973 C 227.787 510.101, 226.936 513.378, 229.582 514.393 C 233.980 516.081, 250.137 513.935, 256.250 510.851 L 260 508.959 260 505.980 L 260 503 258.250 502.986 C 257.288 502.979, 255.600 502.808, 254.500 502.607 C 253.400 502.406, 250.250 502.557, 247.500 502.943 M 98.598 511.837 C 97.763 519.220, 98.290 520.505, 103.367 523.451 C 107.703 525.968, 118.849 530, 121.468 530 C 123.834 530, 123.287 527.100, 120.250 523.540 C 118.737 521.767, 115.709 517.791, 113.520 514.706 L 109.539 509.096 105.486 507.548 C 103.257 506.697, 100.944 506, 100.346 506 C 99.748 506, 98.961 508.627, 98.598 511.837 M 264 508.345 C 264 509.085, 263.100 510.505, 262 511.500 C 259.523 513.742, 259.437 515.687, 261.784 516.431 C 263.739 517.052, 267 521.952, 267 524.269 C 267 525.073, 266.100 526.874, 265 528.273 C 263.900 529.671, 263 531.349, 263 532 C 263 532.651, 263.900 534.329, 265 535.727 C 266.100 537.126, 267 539.784, 267 541.635 C 267 546.190, 268.668 545.932, 273.937 540.564 L 278.290 536.128 277.660 530.814 C 276.078 517.487, 271.104 507, 266.364 507 C 265.050 507, 264 507.598, 264 508.345 M 242 519.145 C 231.984 520.306, 228.742 521.973, 229.190 525.730 L 229.500 528.334 233 529.591 C 237.451 531.189, 251.649 531.354, 256.101 529.858 C 257.970 529.231, 260.288 528.036, 261.250 527.203 C 263.351 525.387, 263.536 521.689, 261.606 520.088 C 259.571 518.399, 251.702 518.021, 242 519.145 M 97.148 542.750 C 95.505 562.956, 93.651 615.328, 94.432 619.488 C 94.875 621.849, 96.044 623.479, 98.284 624.854 C 101.332 626.726, 112.867 631, 114.872 631 C 115.442 631, 115.750 612.046, 115.659 582.500 C 115.561 550.780, 115.162 534, 114.505 533.999 C 113.952 533.999, 110.647 532.649, 107.160 530.999 C 103.673 529.350, 100.264 528, 99.584 528 C 98.712 528, 97.994 532.350, 97.148 542.750 M 235 536.811 C 228.409 537.814, 228.189 542.312, 234.593 545.144 L 239.187 547.176 247.046 547.210 L 254.906 547.245 258.703 545.280 C 262.747 543.188, 264.066 539.989, 261.940 537.428 L 260.727 535.966 249.113 536.199 C 242.726 536.326, 236.375 536.602, 235 536.811 M 121.592 538.851 C 120.645 540.383, 121.252 620.448, 122.265 627.572 L 123.127 633.644 126.314 634.740 C 128.066 635.343, 130.850 636.105, 132.500 636.435 C 134.150 636.764, 136.625 637.267, 138 637.552 C 149.846 640.008, 170.955 640.419, 189 638.546 C 191.475 638.289, 196.200 637.815, 199.500 637.493 C 202.800 637.172, 207.750 636.689, 210.500 636.420 C 240.467 633.497, 270.182 626.825, 275.498 621.827 L 277.495 619.949 277.369 606.225 C 277.245 592.800, 275.932 551.890, 275.534 549.083 C 275.324 547.601, 272 546.574, 272 547.991 C 272 548.439, 269.637 550.384, 266.750 552.314 C 263.863 554.244, 260.572 556.702, 259.437 557.776 C 255.164 561.821, 250.367 563.451, 243 563.360 C 237.055 563.286, 234 562.752, 234 561.787 C 234 561.354, 233.438 560.985, 232.750 560.967 C 230.923 560.918, 227 557.403, 227 555.815 C 227 554.595, 219.685 552.301, 209.742 550.404 C 206.754 549.833, 206.409 550.296, 205.602 555.954 C 205.328 557.878, 204.158 560.127, 202.961 561.030 C 199.529 563.619, 192.253 563.419, 186.714 560.584 C 184.081 559.237, 179.463 557.827, 176.450 557.451 C 173.438 557.074, 170.752 556.408, 170.482 555.970 C 170.211 555.532, 168.166 554.866, 165.937 554.489 C 159.522 553.406, 141.023 544.695, 141.006 542.750 C 141.003 542.337, 140.100 542, 139 542 C 137.900 542, 137 541.586, 137 541.079 C 137 539.390, 122.550 537.301, 121.592 538.851 M 232 553.911 C 232 556.401, 237.345 558.524, 243 558.280 C 248.940 558.023, 255.421 555.703, 255.815 553.692 L 256.131 552.083 244.065 552.074 L 232 552.065 232 553.911 M 269 640.418 C 269 649.691, 269.520 652, 271.607 652 L 273 652 273 642 L 273 632 271 632 L 269 632 269 640.418 M 260 634.942 C 258.625 635.329, 255.978 636.019, 254.118 636.475 L 250.736 637.303 251.417 646.401 C 251.792 651.406, 252.364 656.568, 252.689 657.873 L 253.278 660.246 258.111 659.673 C 260.768 659.359, 263.856 658.612, 264.971 658.015 L 267 656.930 266.993 652.215 C 266.989 649.622, 266.699 644.462, 266.348 640.750 L 265.711 634 264.105 634.118 C 263.222 634.183, 261.375 634.554, 260 634.942 M 238.500 639.057 C 236.300 639.512, 232.861 639.911, 230.857 639.942 C 228.853 639.974, 227.026 640.563, 226.796 641.250 C 226.566 641.938, 226.563 646.412, 226.789 651.193 L 227.201 659.885 229.880 660.474 C 234.215 661.426, 246.387 661.531, 247.819 660.628 L 249.137 659.797 248.535 653.149 C 248.203 649.492, 247.694 644.587, 247.405 642.250 L 246.877 638 244.689 638.115 C 243.485 638.178, 240.700 638.602, 238.500 639.057 M 215 647.943 L 215 653.887 217.223 655.443 C 218.445 656.299, 220.470 657, 221.723 657 L 224 657 224 649.500 L 224 642 219.500 642 L 215 642 215 647.943 M 132 649.260 C 132 661.744, 133.311 663.792, 142.346 665.430 L 146.191 666.127 145.846 656.111 C 145.656 650.603, 145.050 645.663, 144.500 645.133 C 143.950 644.604, 140.912 643.855, 137.750 643.470 L 132 642.770 132 649.260 M 203.231 652.587 L 203.500 662.173 200.750 664.374 C 196.918 667.441, 197.294 669.052, 202.628 672.422 C 205.172 674.029, 208.646 676.616, 210.349 678.172 C 212.052 679.727, 214.020 681, 214.723 681 L 216 681 216 670.535 L 216 660.070 214.044 659.023 C 211.829 657.838, 210.014 652.321, 210.006 646.750 L 210 643 206.481 643 L 202.962 643 203.231 652.587 M 193.009 647.250 C 193.013 649.038, 193.304 652.886, 193.654 655.802 L 194.291 661.105 196.895 660.802 L 199.500 660.500 199.256 654.500 C 198.890 645.487, 198.355 644, 195.481 644 L 193 644 193.009 647.250 M 149.217 655.765 L 149.680 666.184 151.090 667.077 C 151.865 667.568, 156.438 667.976, 161.250 667.985 L 170 668 170 666.224 C 170 662.346, 167.841 647.461, 167.192 646.859 C 166.811 646.506, 162.507 646.022, 157.627 645.782 L 148.753 645.346 149.217 655.765 M 174.608 645.696 L 172.717 646.201 173.285 654.851 C 173.598 659.608, 174.178 664.337, 174.576 665.359 L 175.298 667.219 181.027 666.804 C 184.178 666.577, 187.936 665.617, 189.378 664.672 L 192 662.954 191.904 659.727 C 191.851 657.952, 191.288 654.025, 190.654 651 L 189.500 645.500 183 645.346 C 179.425 645.261, 175.649 645.419, 174.608 645.696" stroke="none" fill-rule="evenodd"/></svg>