<svg xmlns="http://www.w3.org/2000/svg" version="1.1" viewBox="46.91 70.49 957.98 904.01"><path d="M 471 70.753 C 463.825 71.509, 439.370 77.277, 431.082 80.169 C 421.321 83.575, 400.645 93.715, 391.032 99.812 C 385.386 103.393, 384.365 103.735, 383.004 102.504 C 382.147 101.728, 378.801 99.883, 375.569 98.403 C 370.637 96.145, 368.340 95.719, 361.281 95.751 C 353.877 95.785, 352.088 96.175, 346.351 98.999 C 338.585 102.822, 334.107 106.587, 328.831 113.729 C 325.692 117.977, 320.829 127.146, 321.122 128.263 C 321.156 128.393, 320.879 130.130, 320.505 132.122 L 319.825 135.744 313.069 136.227 C 301.880 137.028, 291.170 142.914, 284.587 151.881 C 280.918 156.879, 277 167.166, 277 171.801 C 277 173.944, 275.984 175.481, 272.965 177.908 C 268.216 181.724, 264.815 186.829, 261.739 194.756 C 260.010 199.211, 259.508 202.576, 259.505 209.750 C 259.502 215.244, 259.094 219.002, 258.500 219.005 C 256.597 219.013, 245.250 225.512, 241.807 228.566 C 230.341 238.734, 225.115 256.920, 229.502 271.381 L 230.983 276.263 226.742 280.019 C 218.519 287.302, 213 300.042, 213 311.742 C 213 318.363, 215.954 327.326, 220.454 334.361 C 224.343 340.440, 235.253 350.774, 238.693 351.638 C 240.868 352.184, 240.744 352.466, 235.982 357.810 C 223.364 371.966, 222.850 393.019, 234.823 405.296 C 240.763 411.388, 246.374 414.677, 253.637 416.327 L 259.380 417.631 260.986 426.138 C 261.869 430.817, 263.852 437.221, 265.393 440.370 C 268.758 447.249, 277.656 457.128, 283.650 460.641 C 287.857 463.106, 288 463.353, 288 468.157 C 288 477.546, 296.677 490.296, 305.897 494.454 C 309.184 495.936, 310.212 497.204, 312.513 502.618 C 318.102 515.768, 332.086 523.957, 349.007 523.988 C 352.585 523.995, 357.085 523.533, 359.007 522.962 C 362.036 522.063, 363.258 522.295, 368.208 524.712 C 371.347 526.246, 373.923 527.950, 373.932 528.500 C 373.941 529.050, 368.770 532.425, 362.441 536 C 323.492 558.001, 312.274 568.457, 291.413 602.213 C 289.811 604.806, 288.245 606.943, 287.934 606.963 C 287.623 606.984, 286.368 605.219, 285.144 603.043 C 283.921 600.867, 281.667 598.054, 280.135 596.793 L 277.350 594.500 279.425 590 C 281.264 586.012, 281.508 583.511, 281.568 568 L 281.637 550.500 285.804 543 C 289.157 536.966, 289.975 534.502, 289.986 530.398 C 290.003 524.255, 287.154 519.378, 281.980 516.695 C 277.504 514.374, 268.872 514.822, 263.431 517.659 L 259.481 519.717 257.699 510.609 C 255.228 497.980, 250.901 488.693, 244.520 482.327 C 237.889 475.710, 234.039 474.777, 227.258 478.140 C 221.277 481.107, 218.026 486.621, 217.257 495.105 L 216.711 501.124 213.106 497.680 C 208.680 493.453, 206.725 492.461, 201.130 491.606 C 191.565 490.144, 183.888 497.395, 183.177 508.562 C 182.831 513.997, 184.782 526.662, 186.758 531.813 C 187.045 532.559, 184.323 531.219, 180.710 528.835 C 175.238 525.225, 174.128 524.024, 174.070 521.651 C 173.983 518.129, 171.318 512.343, 169.032 510.715 C 167.989 509.973, 167.272 508.021, 167.191 505.701 C 167.117 503.611, 166.792 501.473, 166.468 500.949 C 166.145 500.425, 166.959 499.586, 168.278 499.084 C 169.598 498.583, 171.925 496.689, 173.450 494.877 C 176.064 491.770, 176.602 491.579, 182.861 491.541 C 191.031 491.491, 196.299 488.502, 199.871 481.889 C 209.592 463.897, 193.822 421.838, 173.704 412.099 C 164.626 407.704, 153.454 410.121, 149.500 417.336 C 147.581 420.838, 147.329 420.962, 143.260 420.412 C 137.122 419.582, 132.570 421.468, 128.384 426.576 C 126.390 429.009, 124.317 431, 123.777 431 C 123.237 431, 117.575 433.311, 111.194 436.135 C 100.842 440.718, 98.889 441.258, 93.047 441.150 C 85.811 441.017, 83.852 442.046, 80.486 447.750 C 78.341 451.386, 78.087 451.445, 71.326 449.890 C 61.422 447.612, 50.710 454.089, 47.962 464.017 C 46.547 469.128, 46.559 479.401, 47.988 486.935 C 50.437 499.848, 62.371 520.373, 71.749 527.801 C 79.586 534.008, 89.716 535.716, 96.914 532.044 C 101.051 529.934, 105.456 525.290, 106.529 521.908 C 107.069 520.207, 107.704 519.934, 109.848 520.483 C 119.303 522.901, 122.858 521.831, 127.288 515.234 C 128.853 512.905, 130.532 511, 131.021 511 C 131.510 511, 132.211 512.607, 132.579 514.571 C 132.948 516.536, 134.251 519.348, 135.476 520.821 C 136.700 522.295, 137.966 525.525, 138.289 528 C 138.723 531.324, 139.681 533.219, 141.954 535.250 C 143.647 536.763, 145.642 538, 146.388 538 C 147.187 538, 147.996 539.572, 148.356 541.825 C 148.692 543.928, 150.542 548.541, 152.467 552.075 C 154.392 555.609, 162.902 572.243, 171.378 589.041 L 186.790 619.581 183.865 623.041 C 179.972 627.645, 177 633.375, 177 636.279 C 177 637.576, 177.694 640.974, 178.542 643.830 C 180.064 648.956, 180.051 649.066, 177.542 652.356 C 176.144 654.189, 175 656.888, 175 658.354 C 175 659.820, 179.559 670.127, 185.132 681.260 C 190.704 692.392, 200.085 711.625, 205.978 724 C 230.538 775.572, 233.064 780.104, 242.489 789.500 C 246.351 793.350, 252.359 798.075, 255.840 800 C 259.321 801.925, 263.051 804.394, 264.129 805.487 C 265.577 806.954, 266.287 807.154, 266.846 806.249 C 267.433 805.300, 268.375 805.286, 271.051 806.189 C 272.948 806.829, 281.925 807.611, 291 807.926 L 307.500 808.500 300.220 811.420 C 296.217 813.025, 291.397 815.725, 289.510 817.420 C 287.284 819.419, 282.162 827.872, 274.920 841.500 C 257.932 873.470, 255.168 878.644, 249.007 890 C 223.477 937.065, 223.787 936.399, 223.361 945.033 C 223.040 951.529, 223.236 953, 224.426 953 C 225.229 953, 227.443 953.919, 229.347 955.042 C 236.817 959.449, 235.268 959.382, 342 959.960 C 398.375 960.266, 445.278 960.894, 446.230 961.357 C 447.181 961.820, 448.941 963.787, 450.141 965.728 C 451.605 968.097, 454.162 970.121, 457.911 971.879 C 463.445 974.474, 463.733 974.500, 487 974.500 C 516.218 974.500, 520.466 973.393, 527 964.079 C 529.480 960.544, 537.559 960.011, 588.500 960.023 C 645.966 960.036, 731.457 958.244, 738.660 956.876 C 741.565 956.324, 744.909 954.887, 746.310 953.588 C 749.534 950.601, 751.754 940.844, 750.168 936.638 C 749.188 934.038, 741.619 919.655, 722.996 885 C 719.301 878.125, 711.641 863.725, 705.973 853 C 700.305 842.275, 693.553 829.615, 690.969 824.866 L 686.270 816.232 693.385 815.550 C 704.001 814.532, 729.290 808.638, 739.334 804.840 C 756.288 798.430, 767.711 786.312, 773.084 769.038 C 776.951 756.607, 775.476 739.543, 769.275 724.985 C 767.097 719.873, 755.831 699.136, 748.518 686.780 C 721.013 640.307, 690.743 593.972, 678.123 579.024 C 666.854 565.675, 650.906 552.984, 633.500 543.512 C 630.750 542.015, 628.050 540.446, 627.500 540.024 C 626.950 539.602, 621.888 536.869, 616.250 533.950 C 610.612 531.031, 606.014 528.386, 606.032 528.072 C 606.049 527.757, 608.053 526.293, 610.485 524.818 C 614.424 522.428, 615.320 522.250, 618.703 523.188 C 624.196 524.711, 638.405 523.546, 645.832 520.963 C 654.487 517.953, 662.205 510.696, 665.467 502.500 C 667.374 497.707, 668.605 496.098, 671.585 494.500 C 681.392 489.242, 688.972 477.888, 688.990 468.427 L 689 463.353 695.750 458.739 C 707.908 450.428, 714.662 438.650, 717.475 420.857 C 717.992 417.587, 718.433 417.144, 721.775 416.538 C 727.839 415.439, 735.529 411.475, 740.515 406.880 C 749.046 399.016, 752.505 388.685, 750.519 377 C 749.073 368.493, 746.749 363.902, 740.790 357.785 C 738.101 355.024, 736.036 352.687, 736.201 352.592 C 738.465 351.283, 745.353 345.898, 748.346 343.098 C 756.919 335.079, 763 321.815, 763 311.137 C 763 299.602, 757.251 286.795, 748.843 279.598 L 744.884 276.208 746.559 270.446 C 750.122 258.190, 747.089 243.214, 738.970 232.963 C 735.438 228.503, 725.176 221.464, 719.854 219.851 L 716.208 218.746 715.808 207.623 C 715.458 197.885, 715.049 195.753, 712.521 190.500 C 710.845 187.017, 707.403 182.352, 704.317 179.379 C 700.510 175.712, 699 173.502, 699 171.597 C 699 170.134, 698.059 166.139, 696.909 162.718 C 691.987 148.078, 678.284 137.472, 662.773 136.299 L 655.258 135.731 654.064 130.395 C 651.082 117.072, 641.094 104.747, 628.506 98.856 C 617.560 93.734, 603.456 94.808, 593.570 101.517 C 591.638 102.828, 589.820 103.517, 589.530 103.049 C 588.367 101.167, 567.971 89.350, 560 85.939 C 542.271 78.352, 527.672 74.150, 511.125 71.868 C 503.389 70.801, 477.401 70.079, 471 70.753 M 469.552 82.103 C 448.963 84.272, 425.902 91.650, 406.126 102.396 C 396.988 107.362, 387.180 114.367, 386.355 116.518 C 385.752 118.089, 391.086 138, 392.110 138 C 392.486 138, 394.088 136.537, 395.672 134.750 C 401.168 128.546, 414.993 121.241, 431.147 116.005 C 440.392 113.009, 443.799 112.269, 461.152 109.488 C 472.638 107.647, 499.545 107.379, 512.500 108.977 C 539.376 112.291, 566.758 121.931, 578.181 132.099 C 583.033 136.417, 583.989 136.769, 584.025 134.250 C 584.038 133.287, 584.938 129.843, 586.025 126.595 C 588.498 119.201, 588.544 114.802, 586.171 112.655 C 585.165 111.745, 584.062 111, 583.719 111 C 583.376 111, 580.177 108.960, 576.610 106.466 C 564.421 97.946, 540.522 88.222, 523 84.654 C 505.941 81.180, 486.930 80.273, 469.552 82.103 M 351.582 108.480 C 344.633 111.337, 337.815 117.581, 334.432 124.184 C 331.705 129.510, 330.478 138.061, 331.805 142.500 L 332.701 145.500 334.382 141.554 C 336.951 135.519, 340.705 131.164, 346.570 127.412 C 352.681 123.503, 354.510 123.215, 355.965 125.934 C 357.435 128.681, 357.525 128.542, 351.750 132.400 C 342.393 138.651, 337.978 148.999, 340.694 158.314 C 341.446 160.891, 342.442 163, 342.909 163 C 343.376 163, 344.329 161.620, 345.027 159.934 C 346.780 155.703, 354.799 147.955, 360.233 145.241 C 362.714 144.001, 368.366 142.475, 372.793 141.849 L 380.841 140.711 379.854 138.116 C 379.311 136.688, 377.279 134.066, 375.338 132.287 C 371.926 129.163, 369.415 128.310, 362 127.760 C 359.120 127.546, 358.559 127.146, 358.834 125.500 C 359.365 122.316, 360.596 121.657, 366.862 121.204 C 371.963 120.835, 372.691 120.533, 372.279 118.958 C 372.001 117.898, 371.218 117.363, 370.401 117.676 C 369.631 117.972, 369 117.751, 369 117.185 C 369 115.623, 362.548 113.824, 359.601 114.564 C 357.421 115.111, 357 114.878, 357 113.127 C 357 109.805, 364.915 109.018, 373 111.535 C 375.490 112.311, 375.492 112.305, 373.600 110.163 C 369.531 105.555, 360.397 104.857, 351.582 108.480 M 605.741 107.368 C 598.619 110.025, 596.123 113.926, 603.126 111.456 C 608.498 109.560, 613.992 109.605, 616.794 111.568 C 619.866 113.720, 618.798 114.831, 613.731 114.755 C 611.387 114.719, 607.854 115.223, 605.881 115.874 C 601.864 117.200, 596.596 122, 599.159 122 C 599.988 122, 600.986 121.681, 601.376 121.291 C 602.308 120.359, 609.664 120.841, 613.645 122.095 C 616.672 123.049, 618.432 125.850, 617.127 127.639 C 616.782 128.113, 613.800 128.527, 610.500 128.559 C 602.933 128.634, 598.635 130.835, 596.010 135.981 C 594.904 138.148, 594 140.356, 594 140.889 C 594 141.421, 596.489 141.857, 599.530 141.857 C 608.090 141.857, 616.711 145.207, 623.327 151.104 C 626.447 153.885, 629 156.563, 629 157.056 C 629 157.549, 629.851 159.351, 630.891 161.061 L 632.782 164.171 634.519 158.944 C 636 154.485, 636.081 152.940, 635.072 148.432 C 633.588 141.801, 629.560 136.169, 623.613 132.412 C 618.680 129.295, 618.252 128.405, 620.327 125.568 C 621.604 123.821, 621.825 123.829, 626.233 125.779 C 631.739 128.214, 638.629 135.025, 641.078 140.452 L 642.860 144.404 643.561 141.613 C 645.520 133.806, 641.707 122.685, 634.570 115.394 C 627.384 108.052, 613.940 104.310, 605.741 107.368 M 466 115.446 C 442.702 119.204, 427.806 123.641, 411.552 131.664 C 400.938 136.903, 398.355 139.078, 396.991 143.926 C 396.098 147.102, 396.387 148.315, 399.581 154.818 L 403.177 162.137 407.286 158.068 C 410.126 155.256, 412.260 154, 414.197 154 C 418.330 154, 417.805 157.018, 413 160.880 C 410.800 162.648, 409 164.775, 409 165.606 C 409 166.438, 409.412 166.863, 409.916 166.552 C 410.420 166.241, 412.401 167.819, 414.319 170.059 L 417.805 174.132 422.653 171.690 C 434.238 165.853, 450.918 161.327, 469 159.112 C 479.323 157.848, 505.488 158.543, 517.148 160.391 C 530.187 162.458, 553.131 169.424, 555 171.883 C 555.275 172.245, 556.722 173.077, 558.216 173.733 C 561.147 175.021, 562.473 174.260, 565.592 169.501 C 567.513 166.569, 566.830 165.140, 561.519 160.981 C 556.947 157.399, 556.432 156.444, 557.860 154.192 C 559.158 152.145, 563.476 153.752, 568.146 158.021 C 573.081 162.532, 573.603 162.259, 577.426 153.175 C 580.070 146.893, 580.809 141, 578.952 141 C 578.376 141, 576.888 139.903, 575.646 138.563 C 572.631 135.309, 560.478 128.855, 550 124.942 C 539.766 121.120, 538.100 120.681, 521.500 117.429 C 505.264 114.249, 479.195 113.317, 466 115.446 M 485.500 135.677 C 478.843 136.501, 477.858 136.986, 478.185 139.285 C 478.471 141.295, 479.145 141.528, 485.479 141.801 C 494.260 142.179, 497 141.523, 497 139.040 C 497 137.983, 496.663 136.926, 496.250 136.690 C 494.864 135.900, 488.527 135.303, 485.500 135.677 M 465.917 137.405 C 465.688 137.627, 463.734 138.087, 461.576 138.427 C 456.999 139.147, 455 140.542, 455 143.015 C 455 145.751, 457.406 146.079, 464.966 144.371 C 472.675 142.631, 475.011 140.923, 473 138.500 C 471.880 137.151, 466.961 136.390, 465.917 137.405 M 503.250 138.106 C 500.201 141.262, 501.725 142.395, 512 144.609 C 517.938 145.889, 518.608 145.863, 519.750 144.314 C 520.438 143.381, 521 142.264, 521 141.832 C 521 138.692, 505.772 135.495, 503.250 138.106 M 435.150 144.997 C 428.739 147.303, 427 148.617, 427 151.154 C 427 154.254, 429.486 154.341, 436.701 151.492 C 445.094 148.177, 446.844 146.721, 445.042 144.550 C 443.391 142.561, 441.711 142.637, 435.150 144.997 M 530.422 144.342 C 529.380 147.058, 530.341 148.038, 536.520 150.555 C 543.479 153.390, 546.544 153.630, 547.396 151.410 C 548.236 149.221, 547.476 148.284, 543.024 146.012 C 537.401 143.144, 531.198 142.321, 530.422 144.342 M 304.376 148.862 C 295.278 153.879, 290.645 159.892, 288.399 169.597 C 286.073 179.645, 285.283 181.176, 280.683 184.532 C 273.110 190.059, 268.944 201.553, 270.696 212.087 L 271.596 217.500 272.919 213.500 C 274.736 208.009, 277.886 203, 279.523 203 C 281.611 203, 282.351 204.958, 281.165 207.345 C 278.970 211.761, 278.262 216.768, 279.090 222.008 C 280.156 228.749, 281.619 230.351, 281.829 225.007 C 282.108 217.870, 288.794 208.216, 292.478 209.630 C 293.527 210.032, 293.256 211.249, 291.264 215.088 C 288.845 219.751, 287.903 226.768, 289.120 231.064 C 289.653 232.948, 293.525 238, 294.436 238 C 294.792 238, 296.050 238.900, 297.230 240 C 300.951 243.466, 302 242.600, 302 236.065 C 302 228.149, 303.322 224.765, 306.252 225.181 C 308.193 225.456, 308.519 226.141, 308.642 230.185 C 308.858 237.270, 311.706 243.571, 316.668 247.939 C 322.345 252.936, 333.741 258.512, 342.350 260.505 C 348.522 261.933, 349.991 261.941, 357.201 260.581 C 364.881 259.132, 372.253 255.809, 374.923 252.593 C 375.965 251.338, 375.780 250.500, 373.871 247.818 C 372.597 246.030, 370.341 241.999, 368.857 238.861 C 367.372 235.723, 365.161 232.621, 363.942 231.969 C 361.054 230.424, 355.751 231.329, 351.985 234.011 C 348.202 236.704, 345.500 236.294, 345.500 233.026 C 345.500 229.474, 350.862 226.228, 358.076 225.412 C 363.824 224.762, 363.958 224.678, 363.338 222.122 C 362.988 220.680, 362.094 218.612, 361.351 217.527 C 360.608 216.443, 360 214.787, 360 213.849 C 360 210.606, 357.252 209.024, 352.713 209.653 C 345.384 210.669, 339.994 213.876, 336.695 219.183 C 333.535 224.267, 330.448 225.450, 328.010 222.512 C 327.011 221.308, 327.225 220.119, 329.138 216.262 C 332.108 210.273, 340.089 204.679, 348.250 202.865 C 351.413 202.162, 354 201.196, 354 200.717 C 354 200.238, 352.685 198.531, 351.077 196.923 C 348.574 194.420, 347.388 194.001, 342.827 194.010 C 335.636 194.023, 328.338 197.518, 323.791 203.126 C 321.840 205.532, 319.934 208.625, 319.555 210 C 317.933 215.886, 316.690 218, 314.854 218 C 310.289 218, 310.676 209.137, 315.566 201.687 C 320.390 194.339, 325.474 190.757, 336.303 187.076 L 341.130 185.435 339.019 182.752 C 330.559 171.996, 307 183.976, 307 199.034 C 307 202.751, 305.423 206, 303.620 206 C 302.899 206, 301.502 205.107, 300.514 204.015 C 298.945 202.282, 298.852 201.364, 299.782 196.765 C 301.379 188.859, 302.538 186.459, 307.222 181.354 C 312.184 175.947, 319.213 172.492, 327.313 171.480 C 330.441 171.089, 332.971 170.484, 332.937 170.135 C 332.902 169.786, 331.657 167.025, 330.171 164 C 327.562 158.691, 327.315 158.489, 323.052 158.184 C 311.267 157.339, 300.744 166.396, 296.361 181.157 C 295.317 184.670, 294.418 186, 293.084 186 C 286.227 186, 288.670 172.154, 297.256 162.352 C 301.553 157.447, 307.854 153.544, 315.684 150.939 C 320.957 149.184, 321.880 148.561, 320.920 147.404 C 318.845 144.903, 310.168 145.668, 304.376 148.862 M 655 147.500 C 653.994 148.712, 654.024 149, 655.156 149 C 657.373 149, 670.974 155.801, 674.222 158.534 C 675.843 159.897, 677.651 160.716, 678.239 160.352 C 678.878 159.957, 679.017 160.164, 678.583 160.866 C 678.174 161.528, 679.041 163.448, 680.568 165.263 C 686.228 171.989, 688.583 181.275, 685.429 184.429 C 682.699 187.158, 681.204 186.212, 679.611 180.750 C 675.531 166.757, 663.602 157.175, 651.500 158.171 C 647.748 158.480, 647.333 158.841, 644.808 164 C 643.328 167.025, 642.090 169.786, 642.058 170.136 C 642.026 170.487, 644.120 171.091, 646.711 171.479 C 658.284 173.215, 668.835 179.836, 672.982 187.966 C 673.980 189.921, 675.106 193.999, 675.484 197.028 C 676.083 201.820, 675.907 202.775, 674.123 204.388 C 670.936 207.273, 669.245 205.812, 668.455 199.489 C 667.001 187.852, 656.951 179, 645.193 179 C 640.617 179, 639.425 179.421, 636.923 181.923 C 633.335 185.511, 633.218 187, 636.522 187 C 640.651 187, 651.231 192.459, 655.170 196.621 C 659.420 201.112, 664.014 209.351, 663.968 212.399 C 663.905 216.578, 658.571 220.210, 657.579 216.750 C 653.319 201.894, 644.103 194, 631.018 194 C 627.065 194, 625.910 194.497, 623.077 197.420 L 619.762 200.840 623.631 201.915 C 625.759 202.505, 627.905 202.991, 628.400 202.994 C 631.208 203.012, 640.625 208.903, 644.032 212.774 C 648.062 217.352, 648.968 220.632, 646.800 222.800 C 644.374 225.226, 641.564 224.097, 638.684 219.539 C 635.417 214.367, 631.437 211.638, 624.691 209.942 C 617.653 208.173, 615.699 209.394, 613.967 216.645 C 613.197 219.865, 612.553 222.950, 612.534 223.500 C 612.515 224.050, 614.882 224.791, 617.794 225.146 C 627.180 226.292, 634.396 233.112, 629.176 235.906 C 627.777 236.655, 626.324 236.199, 622.926 233.945 C 620.492 232.330, 617.545 231.007, 616.377 231.004 C 613.730 230.999, 605 234.791, 605 235.946 C 605 236.415, 603.200 239.195, 601 242.123 C 598.800 245.051, 597 247.865, 597 248.378 C 597 250.531, 605.318 256.975, 610.693 258.986 C 624.020 263.972, 638.413 261.494, 654.552 251.435 C 663.824 245.656, 666.453 241.281, 666.480 231.583 C 666.491 227.700, 666.956 224.515, 667.540 224.320 C 671.062 223.146, 674.252 231.142, 673.499 239.252 C 673.238 242.055, 673.524 243, 674.634 243 C 675.501 243, 675.821 242.520, 675.405 241.845 C 674.959 241.124, 675.131 240.963, 675.863 241.415 C 676.524 241.824, 678.719 240.806, 680.896 239.082 C 687.470 233.876, 688.156 226.152, 682.994 215.488 C 680.579 210.498, 681.149 208.690, 684.707 210.056 C 687.978 211.312, 692.173 218.665, 692.913 224.440 L 693.562 229.500 694.651 225.341 C 696.053 219.992, 695.449 213.489, 693.112 208.763 C 691.709 205.925, 691.549 204.789, 692.450 204.041 C 695.401 201.592, 700.630 208.984, 701.971 217.500 L 702.600 221.500 704.300 215.846 C 706.527 208.440, 706.446 205.399, 703.806 197.359 C 701.676 190.869, 698.832 187.098, 691.770 181.400 C 689.865 179.864, 688.991 177.987, 688.510 174.400 C 686.938 162.683, 680.683 153.407, 671.067 148.534 C 665.257 145.590, 657.025 145.060, 655 147.500 M 371.920 150.093 C 355.788 152.532, 345.198 168.525, 352.118 180 C 355.064 184.885, 361.320 190.555, 361.869 188.837 C 363.339 184.237, 367.502 176.498, 370.098 173.541 C 373.887 169.226, 378.022 166.658, 384.639 164.510 L 389.777 162.843 388.334 159.171 C 385.122 151.005, 380.993 148.721, 371.920 150.093 M 591.201 151.750 C 588.965 153.688, 584.848 162.514, 585.757 163.423 C 586.074 163.741, 587.311 164, 588.507 164 C 592.292 164, 602.788 169.944, 605.830 173.810 C 609.263 178.172, 613 185.287, 613 187.460 C 613 189.690, 614.414 189.364, 618.066 186.291 C 624.661 180.742, 626.675 171.462, 622.961 163.739 C 620.756 159.154, 613.963 153.222, 608.751 151.331 C 603.551 149.445, 593.588 149.683, 591.201 151.750 M 470 167.661 C 462.856 168.441, 446.440 172.244, 439.581 174.708 C 424.059 180.283, 407.223 190.538, 399.834 198.919 C 393.671 205.909, 391.597 210.561, 391.549 217.500 C 391.489 226.149, 394.580 230.852, 406.714 240.576 C 418.265 249.833, 422.136 252, 427.121 252 L 430.819 252 428.741 247.750 C 424.782 239.652, 425.470 227.362, 430.258 220.638 C 432.754 217.133, 431.634 217.312, 425.040 221.475 C 420.334 224.446, 417.432 228.641, 415.858 234.750 C 414.117 241.507, 411 239.948, 411 232.319 C 411 223.941, 418.136 216.366, 432.500 209.495 C 451.580 200.368, 468.938 196.852, 492 197.444 C 511.542 197.945, 524.928 200.749, 542.293 207.978 C 560.197 215.432, 569.223 226.831, 564.839 236.453 C 563.128 240.210, 561.344 239.555, 560.599 234.895 C 559.468 227.818, 556.816 223.846, 549.986 218.998 L 546.500 216.523 548.664 219.287 C 549.906 220.873, 551.346 224.953, 552.045 228.863 C 553.394 236.410, 552.726 239.927, 548.459 247.750 L 546.141 252 549.413 252 C 551.213 252, 554.554 250.988, 556.837 249.750 C 562.745 246.548, 578.600 232.595, 581.437 228.099 C 588.275 217.267, 583.685 204.291, 568.870 192.576 C 562.102 187.225, 547.459 178.173, 544.535 177.534 C 543.966 177.409, 542.150 176.755, 540.500 176.080 C 534.555 173.648, 520.331 169.892, 512 168.555 C 504.198 167.303, 478.317 166.752, 470 167.661 M 578.396 173.445 C 576.689 174.179, 574.273 176.212, 573.027 177.962 L 570.761 181.144 573.131 182.723 C 578.645 186.396, 588.771 197.812, 591.559 203.500 C 594.069 208.620, 594.500 210.673, 594.500 217.500 C 594.500 224.710, 594.178 226.056, 591.241 231.138 C 589.449 234.238, 586.119 238.408, 583.841 240.405 C 579.332 244.357, 579.254 246.339, 583.719 243.506 C 592.671 237.825, 600.147 226.483, 603.470 213.540 C 607.375 198.329, 602.951 181.845, 593.303 175.661 C 588.506 172.586, 582.476 171.689, 578.396 173.445 M 383.860 175.012 C 379.999 177.052, 375.277 182.530, 373.095 187.500 C 372.371 189.150, 371.557 194.100, 371.286 198.500 C 370.036 218.808, 381.115 239.600, 396.500 245.820 L 399.500 247.032 397 244.967 C 390.989 240, 385.641 234.205, 383.650 230.500 C 381.899 227.243, 381.504 224.828, 381.520 217.500 C 381.539 209.266, 381.817 207.990, 384.789 202.500 C 388.005 196.557, 391.795 192.064, 399.814 184.684 C 403.799 181.018, 403.900 180.777, 402.411 178.504 C 398.695 172.834, 390.797 171.347, 383.860 175.012 M 286.553 190.227 C 285.089 192.318, 285.162 192.621, 287.747 195.170 C 289.261 196.663, 291.850 198.023, 293.500 198.193 C 296.070 198.456, 296.543 198.134, 296.798 195.945 C 297.190 192.577, 293.553 188, 290.484 188 C 289.166 188, 287.420 188.989, 286.553 190.227 M 682.736 188.692 C 681.050 189.132, 678 193.783, 678 195.915 C 678 196.473, 678.937 197.431, 680.082 198.044 C 681.805 198.966, 682.840 198.690, 686.082 196.443 C 690.347 193.488, 691.104 190.661, 688.066 189.035 C 686.052 187.958, 685.651 187.932, 682.736 188.692 M 483.648 210.685 C 483.281 211.053, 480.873 211.484, 478.297 211.644 C 475.721 211.803, 472.982 212.177, 472.209 212.473 C 471.436 212.770, 468.536 213.289, 465.763 213.626 C 460.588 214.257, 447.893 219.516, 442.810 223.135 C 435.414 228.402, 433.914 239.853, 439.917 245.218 C 444.259 249.097, 445.535 248.744, 447.046 243.250 C 449.666 233.721, 454.238 228.580, 464.045 224.134 C 472.307 220.387, 479.886 218.996, 491.934 219.015 C 514.523 219.050, 529.107 226.909, 532.075 240.648 C 532.771 243.867, 533.430 246.629, 533.540 246.787 C 533.651 246.946, 534.900 246.547, 536.317 245.902 C 539.363 244.514, 542.023 238.572, 541.298 234.777 C 539.332 224.493, 516.580 212.549, 496.250 211.129 C 491.095 210.769, 487 210.873, 487 211.364 C 487 211.848, 486.396 211.744, 485.658 211.131 C 484.920 210.519, 484.015 210.318, 483.648 210.685 M 258.435 229.890 C 253.276 232.234, 247.708 237.110, 243.941 242.585 C 239.502 249.038, 240.409 250.039, 245.750 244.580 C 250.172 240.059, 260.571 234.022, 264 233.985 C 264.825 233.977, 266.157 233.554, 266.960 233.046 C 268.210 232.255, 268.152 231.825, 266.555 230.061 C 264.288 227.556, 263.605 227.542, 258.435 229.890 M 477.231 229.662 C 473.355 230.580, 468.582 232.741, 464.731 235.323 C 459.490 238.837, 458.500 239.959, 458.500 242.391 C 458.500 247.032, 461.040 247.764, 464.902 244.236 C 477.578 232.659, 501.105 231.351, 514.392 241.485 C 517.508 243.862, 517.915 243.942, 519.392 242.465 C 521.287 240.570, 521.305 240.438, 519.982 237.966 C 518.565 235.318, 511.043 231.096, 504.764 229.425 C 498.058 227.640, 485.303 227.749, 477.231 229.662 M 709.557 229.937 C 708.701 230.883, 708 231.908, 708 232.214 C 708 232.520, 710.359 233.541, 713.241 234.484 C 720.733 236.935, 726.113 240.345, 731.394 245.990 C 733.927 248.698, 736 250.559, 736 250.124 C 736 249.689, 735.663 248.996, 735.250 248.583 C 734.837 248.171, 734.481 247.533, 734.458 247.167 C 734.435 246.800, 733.647 245.058, 732.707 243.297 C 727.819 234.139, 713.324 225.774, 709.557 229.937 M 320.212 232.188 C 318.588 233.812, 318.675 240.287, 320.376 244.357 C 322.136 248.569, 328.480 253.812, 332.799 254.622 C 338.060 255.609, 338.659 253.702, 334.047 250.650 C 329.179 247.428, 325.486 241.860, 324.325 235.993 C 323.411 231.370, 322.174 230.226, 320.212 232.188 M 651.132 236.697 C 649.810 243.281, 647.071 247.728, 642.340 250.969 C 637.953 253.975, 638.124 255.020, 642.972 254.830 C 647.755 254.643, 654.087 249.480, 656.301 243.963 C 658.567 238.316, 656.995 231, 653.516 231 C 652.809 231, 651.785 233.447, 651.132 236.697 M 272 241.649 C 259.509 243.533, 250.884 249.193, 247.099 257.992 C 244.501 264.032, 243.251 274.871, 244.839 277.605 C 245.818 279.292, 245.944 279.171, 245.979 276.500 C 246.070 269.740, 254.713 256.313, 257.305 258.905 C 258.172 259.772, 258.148 260.479, 257.206 261.778 C 254.025 266.165, 252.042 271.844, 252.022 276.628 C 251.997 282.510, 254.158 288.479, 256.829 289.909 C 258.495 290.800, 258.683 290.379, 258.888 285.313 C 259.485 270.554, 267.462 259.607, 281.727 253.970 C 290.048 250.681, 290.234 250, 282.807 250 C 277.825 250, 276.071 249.628, 275.630 248.477 C 275.009 246.860, 278.151 243.068, 280.250 242.900 C 280.938 242.845, 280.375 242.440, 279 242 C 276.259 241.122, 275.686 241.094, 272 241.649 M 698.115 241.908 C 697.012 242.606, 697.177 243.024, 698.926 243.960 C 700.365 244.731, 701.014 245.887, 700.811 247.318 C 700.537 249.243, 699.793 249.536, 694.500 249.805 C 688.796 250.095, 683.903 252, 688.862 252 C 692.381 252, 701.276 256.611, 706.318 261.049 C 713.412 267.294, 718.801 281.293, 717.269 289.500 L 716.709 292.500 718.957 290.502 C 724.959 285.168, 725.524 275.518, 720.425 265.439 C 718.910 262.445, 717.991 259.675, 718.383 259.283 C 720.549 257.117, 728.422 267.618, 729.524 274.143 C 730.118 277.655, 730.397 278.042, 731.244 276.528 C 732.630 274.051, 731.433 263.762, 729.164 258.657 C 725.151 249.628, 719.332 245.234, 707.781 242.511 C 700.439 240.779, 699.945 240.749, 698.115 241.908 M 481.720 245.470 C 480.224 246.246, 479 246.673, 479 246.418 C 479 246.163, 477.861 246.700, 476.469 247.612 C 472.991 249.891, 473.939 250.341, 478.342 248.502 C 480.349 247.663, 482.218 246.982, 482.495 246.989 C 482.773 246.995, 483.337 246.950, 483.750 246.889 C 484.163 246.828, 485.512 246.861, 486.750 246.961 C 488.065 247.067, 489 246.581, 489 245.790 C 489 243.934, 485.019 243.759, 481.720 245.470 M 497 246.500 C 497.694 247.336, 499.851 247.993, 501.872 247.985 C 504.536 247.973, 505.104 247.719, 504.008 247.026 C 503.188 246.508, 501.388 246.326, 500.008 246.622 C 498.041 247.046, 497.823 246.932, 499 246.096 C 500.234 245.219, 500.080 245.028, 498.128 245.015 C 496.132 245.002, 495.953 245.238, 497 246.500 M 298.047 257.305 C 292.658 259.023, 287.581 264.825, 285.139 272.056 C 282.696 279.289, 282.526 282.208, 284.166 288.807 C 286.268 297.266, 291.113 303.038, 299.804 307.435 C 307.854 311.509, 320.077 309.874, 328.264 303.629 C 337.056 296.923, 340.808 283.419, 336.393 274.377 C 334.609 270.723, 331.148 268.861, 331.802 271.907 C 331.969 272.681, 332.370 276.160, 332.695 279.638 C 333.442 287.634, 331.410 293.373, 325.959 298.663 C 321.348 303.138, 317.282 304.819, 310.815 304.924 C 305.255 305.014, 301.751 303.812, 297.004 300.185 C 295.077 298.712, 293.162 297.618, 292.750 297.753 C 292.337 297.889, 292.093 297.663, 292.206 297.250 C 292.319 296.838, 291.620 295.013, 290.652 293.196 C 288.194 288.580, 287.479 280.932, 288.999 275.505 C 292.289 263.753, 305.970 257.998, 317.200 263.643 C 318.686 264.389, 320.893 265, 322.105 265 C 324.247 265, 324.258 264.943, 322.499 262.999 C 317.401 257.365, 306.107 254.735, 298.047 257.305 M 664 256.820 C 660.115 258.581, 653 263.286, 653 264.095 C 653 265.307, 653.790 265.226, 658.500 263.529 C 668.076 260.079, 679.252 262.647, 683.777 269.337 C 694.391 285.028, 684.108 304.762, 665.218 304.956 C 651.067 305.101, 640.856 291.098, 644.095 275.991 C 644.700 273.170, 644.913 270.579, 644.567 270.234 C 644.222 269.889, 642.755 270.790, 641.307 272.238 C 639.279 274.267, 638.570 276.135, 638.218 280.389 C 637.589 287.967, 638.502 291.905, 642.169 297.442 C 645.905 303.082, 650.623 306.402, 658.026 308.600 C 664.840 310.624, 671.041 309.985, 678.407 306.501 C 685.436 303.175, 689.517 298.046, 691.599 289.920 C 695.978 272.827, 685.189 255.929, 670 256.092 C 667.525 256.119, 664.825 256.446, 664 256.820 M 385.121 262.041 C 382.713 264.218, 379.838 266, 378.732 266 C 377.626 266, 376.221 266.623, 375.610 267.385 C 374.182 269.167, 362.564 273.726, 357.311 274.566 L 353.259 275.214 352.549 286.857 C 352.159 293.261, 351.171 301.397, 350.354 304.938 C 347.899 315.582, 340.738 328.381, 333.815 334.500 C 330.550 337.385, 330.334 338.035, 328.143 351.500 C 325.345 368.692, 322.181 378.423, 316.500 387.313 C 313.107 392.622, 312.240 394.829, 312.570 397.313 C 315.463 419.078, 316.588 425.560, 319.626 438 C 326.970 468.067, 337.114 485.801, 355.854 501.341 C 373.162 515.693, 392.790 525.662, 417 532.397 C 425.510 534.764, 444.942 538.794, 450.500 539.345 C 453.250 539.617, 460.859 540.385, 467.410 541.051 C 478.035 542.130, 506.495 541.886, 518 540.616 C 547.542 537.356, 572.629 530.530, 593.173 520.165 C 638.063 497.516, 656.825 465.238, 663.640 398.935 C 664.166 393.820, 663.932 392.930, 660.755 387.935 C 654.789 378.555, 650.815 365.156, 647.430 343.010 C 646.870 339.352, 645.596 337.281, 640.547 331.828 C 628.720 319.053, 624.004 306.024, 623.994 286.090 L 623.988 274.500 619.075 274.403 C 609.306 274.209, 594.460 268.129, 587.326 261.401 C 583.803 258.078, 583.769 258.070, 580.143 259.620 C 572.975 262.685, 557.744 266, 550.830 266 C 541.963 266, 530.276 263.579, 523.377 260.312 C 518.321 257.918, 517.575 257.823, 512.151 258.891 C 507.279 259.849, 500.866 260.092, 487.500 259.824 C 486.400 259.802, 482.125 260.488, 478 261.348 C 469.117 263.201, 453.227 263.014, 447.769 260.993 C 444.426 259.756, 443.645 259.806, 440.269 261.477 C 435.936 263.622, 435.559 263.727, 427.500 265.030 C 418.045 266.559, 400.812 263.924, 393.220 259.787 C 391.415 258.804, 389.840 258.018, 389.720 258.041 C 389.599 258.064, 387.530 259.864, 385.121 262.041 M 274.476 267.155 C 265.291 275.220, 263.464 289.397, 270.679 296.612 C 274.357 300.290, 278.744 301.340, 277.522 298.250 C 277.141 297.288, 276.205 293.575, 275.443 290 C 273.922 282.872, 274.713 274.325, 277.513 267.623 C 278.346 265.631, 278.811 264, 278.548 264 C 278.285 264, 276.452 265.420, 274.476 267.155 M 698.371 266.500 C 702.070 276.086, 702.714 284.213, 700.506 293.458 C 699.724 296.736, 699.201 299.535, 699.345 299.679 C 699.489 299.823, 701.152 299.166, 703.040 298.220 C 707.884 295.793, 709.132 292.786, 708.777 284.403 C 708.530 278.573, 707.943 276.448, 705.488 272.510 C 702.187 267.212, 696.934 262.776, 698.371 266.500 M 321 280.470 C 321 286.293, 317.699 292.239, 313 294.880 C 308.163 297.598, 307.824 299.226, 312.250 298.483 C 316.048 297.845, 319.549 295.485, 322.438 291.615 C 325.076 288.081, 325.247 280.818, 322.750 278.321 C 321.083 276.655, 321 276.757, 321 280.470 M 652.618 280.393 C 650.559 284.732, 651.345 288.750, 655.158 293.375 C 658.492 297.420, 664.310 299.646, 668.659 298.540 C 671.471 297.825, 671.454 297.802, 667 296.294 C 664.525 295.456, 661.256 293.384, 659.736 291.689 C 656.772 288.385, 654.537 281.877, 655.328 278.853 C 656.138 275.755, 654.331 276.782, 652.618 280.393 M 301.077 281.589 C 297.855 284.300, 297.154 287.551, 299.035 291.066 C 300.363 293.547, 303.632 293.522, 307.770 290.999 C 312.384 288.186, 313.759 284.807, 311.619 281.541 C 309.407 278.165, 305.123 278.184, 301.077 281.589 M 665.655 280.829 C 663.449 283.266, 663.569 285.182, 666.131 288.440 C 669.174 292.308, 672.681 293.439, 675.635 291.504 C 679.113 289.225, 678.799 284.850, 674.923 281.589 C 671.311 278.549, 667.966 278.275, 665.655 280.829 M 232.247 289.250 C 226.297 295.399, 223.077 306.399, 224.491 315.750 L 225.209 320.500 227.487 314.227 C 230.344 306.359, 233.897 300.943, 238.508 297.426 C 240.717 295.741, 241.882 294.135, 241.540 293.245 C 240.858 291.467, 236.706 286.131, 235.946 286.055 C 235.642 286.025, 233.977 287.462, 232.247 289.250 M 736.091 290.140 C 732.877 294.010, 732.792 294.301, 734.591 295.268 C 739.669 297.994, 745.826 306.328, 749.052 314.841 C 750.146 317.728, 750.451 317.946, 751.292 316.443 C 752.572 314.155, 751.535 302.215, 749.667 297.744 C 748.251 294.357, 741.442 285.981, 740.134 286.018 C 739.785 286.028, 737.966 287.883, 736.091 290.140 M 394 293.886 C 385.761 296.550, 380.265 299.672, 374.771 304.811 C 367.046 312.037, 364.791 318.691, 368.829 322.345 C 371.524 324.784, 372.643 324.489, 381.639 318.973 C 390.997 313.234, 398.505 310.508, 409.427 308.883 C 415.683 307.953, 417.417 307.286, 419.083 305.168 C 421.279 302.375, 421.018 298.804, 418.406 295.903 C 414.793 291.892, 403.145 290.929, 394 293.886 M 562.786 293.305 C 556.366 295.405, 554.022 301.336, 557.779 305.976 C 559.207 307.739, 561.198 308.356, 567.871 309.103 C 577.691 310.201, 587.960 313.993, 596.905 319.825 C 600.428 322.121, 603.936 324, 604.700 324 C 605.465 324, 607.206 322.884, 608.570 321.521 C 612.172 317.919, 611.203 314.507, 604.377 306.762 C 600.853 302.764, 589.410 295.530, 584.049 293.911 C 578.632 292.275, 566.954 291.942, 562.786 293.305 M 245.500 302.246 C 237.976 307.720, 234.851 313.650, 234.207 323.677 C 233.816 329.773, 234.069 331.376, 235.891 334.323 C 237.070 336.232, 239.139 338.516, 240.489 339.401 L 242.942 341.008 242.418 337.254 C 241.895 333.513, 243.856 324.006, 245.962 320.071 C 246.572 318.932, 248.005 318, 249.146 318 C 250.937 318, 251.145 318.447, 250.662 321.250 C 249.086 330.383, 248.922 333.997, 249.917 337.691 C 250.962 341.573, 254.405 347, 255.823 347 C 256.195 347, 256.340 343.137, 256.144 338.415 C 255.683 327.309, 257.181 322.188, 263.178 314.363 C 265.830 310.903, 268 307.831, 268 307.536 C 268 306.234, 263.272 307.223, 261 309 C 255.894 312.994, 251.139 310.489, 254.395 305.520 C 255.959 303.133, 255.917 303.008, 253.054 301.528 C 249.318 299.596, 249.116 299.615, 245.500 302.246 M 722.159 301.601 C 720.019 303.100, 719.979 303.319, 721.524 305.027 C 725.601 309.532, 720.083 312.916, 714.904 309.087 C 712.291 307.155, 708 306.225, 708 307.591 C 708 307.916, 709.590 310.040, 711.534 312.311 C 717.405 319.170, 720.283 326.150, 720.399 333.814 C 720.454 337.491, 720.143 342.181, 719.708 344.235 C 718.721 348.882, 720.441 348.586, 723.715 343.545 C 726.740 338.888, 727.681 328.942, 725.634 323.276 C 724.008 318.779, 724.655 317.438, 727.944 318.482 C 730.841 319.402, 733.507 327.407, 733.357 334.736 L 733.230 340.973 736.029 338.979 C 737.569 337.883, 739.813 334.952, 741.016 332.466 C 742.981 328.408, 743.097 327.338, 742.154 321.984 C 740.710 313.789, 738.647 309.878, 732.955 304.554 C 727.711 299.649, 725.722 299.105, 722.159 301.601 M 637 306.444 C 637 309.527, 646.290 324.668, 648.573 325.303 C 649.785 325.641, 652.079 316.547, 650.885 316.138 C 650.303 315.939, 646.941 313.564, 643.413 310.860 C 639.886 308.156, 637 306.169, 637 306.444 M 333.123 311 C 330.195 313.200, 327.374 315, 326.854 315 C 325.873 315, 326.685 321.425, 327.972 323.847 C 328.904 325.601, 335.447 316.818, 337.462 311.107 C 338.259 308.848, 338.807 307, 338.679 307 C 338.551 307, 336.051 308.800, 333.123 311 M 277.388 313.433 C 267.298 317.825, 261.836 334.478, 266.871 345.500 C 269.064 350.301, 276.456 357.328, 281.555 359.458 C 287.342 361.876, 298.438 361.475, 304.556 358.626 C 314.396 354.044, 320.797 343.007, 319.711 332.491 C 319.041 325.996, 315.636 319, 313.146 319 C 310.303 319, 310.194 319.671, 312.124 325.260 C 314.372 331.765, 314.440 335.354, 312.426 341.263 C 310.507 346.896, 303.797 353.407, 298.355 354.919 C 282.104 359.431, 266.896 346.242, 270.957 331.158 C 273.670 321.083, 283.160 315.755, 293.750 318.360 C 298.732 319.585, 297.766 317.422, 292.033 314.517 C 286.522 311.724, 282.071 311.394, 277.388 313.433 M 684.819 314.531 C 679.883 317.101, 677.291 319.650, 680.625 318.655 C 685.775 317.118, 688.317 316.837, 691.566 317.446 C 695.538 318.192, 702.331 323.805, 704.622 328.237 C 706.641 332.141, 706.534 339.630, 704.390 344.500 C 703.421 346.700, 702.723 348.871, 702.839 349.324 C 702.955 349.778, 702.619 349.883, 702.094 349.558 C 701.568 349.233, 700.850 349.433, 700.498 350.003 C 698.891 352.604, 689.919 356, 684.655 356 C 677.116 356, 672.635 353.842, 668.537 348.237 C 662.893 340.518, 661.896 329.668, 666.107 321.800 C 667.038 320.061, 666.848 319.887, 664.332 320.176 C 660.656 320.599, 658.846 324.392, 658.241 332.944 C 657.618 341.757, 659.123 346.588, 664.230 352.158 C 670.582 359.086, 673.930 360.498, 684 360.494 C 691.405 360.492, 693.080 360.149, 697 357.831 C 706.625 352.142, 711.424 344.143, 711.295 334 C 711.190 325.796, 706.160 317.653, 698.914 313.956 C 693.921 311.409, 690.550 311.546, 684.819 314.531 M 284.003 334.616 C 279.198 338.957, 278.792 342.411, 282.560 346.889 C 287.603 352.882, 296.312 351.940, 301.793 344.809 C 304.247 341.616, 305 339.637, 305 336.377 C 305 334.035, 304.550 331.840, 304 331.500 C 303.448 331.159, 303 331.877, 303 333.103 C 303 336.924, 298.338 343.687, 294.870 344.896 C 290.410 346.450, 286.467 346.268, 284.948 344.437 C 283.818 343.076, 283.964 342.953, 286.077 343.483 C 289.174 344.261, 295 339.708, 295 336.510 C 295 333.979, 292.120 331, 289.674 331 C 288.757 331, 286.204 332.627, 284.003 334.616 M 672.479 332.294 C 671.437 334.867, 672.563 340.538, 674.683 343.391 C 676.669 346.063, 682.010 349, 684.885 349 C 691.087 349, 696.671 343.522, 695.446 338.639 C 694.714 335.726, 691.359 332.483, 688.315 331.749 C 685.871 331.159, 682 333.410, 682 335.422 C 682 337.815, 685.984 341.837, 689.012 342.503 C 692.672 343.307, 692.850 344.726, 689.452 346.018 C 684.150 348.034, 676.879 342.596, 674.529 334.857 C 673.500 331.466, 673.045 330.898, 672.479 332.294 M 382.344 357.459 C 375.801 360.435, 369.404 366.961, 366.183 373.948 C 362.553 381.825, 362.531 394.201, 366.134 402 C 370.875 412.260, 379.114 418.291, 390.166 419.590 C 409.606 421.874, 426.350 403.090, 423.157 382.580 C 419.865 361.432, 400.212 349.336, 382.344 357.459 M 572.500 357.876 C 565.820 360.976, 560.352 366.812, 556.716 374.722 C 553.381 381.977, 553.574 394.567, 557.134 402 C 566.287 421.108, 588.154 425.851, 603.295 412.014 C 610.761 405.190, 613.442 398.996, 613.473 388.500 C 613.503 378.327, 611.039 371.384, 605.020 364.683 C 596.168 354.827, 584.385 352.361, 572.500 357.876 M 724 357.991 C 724 358.611, 723.641 358.896, 723.202 358.625 C 722.763 358.354, 721.818 358.495, 721.100 358.938 C 720.142 359.530, 721.037 360.984, 724.478 364.426 C 731.005 370.952, 733.379 376.676, 733.427 386 C 733.458 391.939, 732.990 394.398, 731.180 397.813 C 729.182 401.584, 729.121 402.005, 730.697 401.155 C 736.251 398.162, 740 390.707, 740 382.658 C 740 375.413, 737.695 369.307, 733.207 364.666 C 728.484 359.782, 724 356.531, 724 357.991 M 247.687 360.961 C 237.912 368.072, 234.328 381.720, 239.384 392.579 C 241.453 397.021, 246.633 402.700, 247.671 401.663 C 247.871 401.462, 247.355 399.993, 246.524 398.399 C 245.693 396.804, 245.010 394.911, 245.006 394.191 C 245.003 393.471, 244.662 393.091, 244.250 393.347 C 243.838 393.603, 243.736 390.143, 244.023 385.656 C 244.672 375.546, 247.434 369.098, 253.559 363.394 L 258.038 359.223 254.608 358.823 C 252.083 358.528, 250.255 359.093, 247.687 360.961 M 309.215 366.600 C 306.878 367.994, 305.223 369.552, 305.539 370.063 C 305.855 370.574, 306.293 371.782, 306.513 372.746 C 306.732 373.711, 307.289 375.801, 307.749 377.391 L 308.585 380.282 310.186 377.839 C 312.550 374.231, 315.207 365.807, 314.274 364.874 C 313.829 364.429, 311.553 365.206, 309.215 366.600 M 662.262 365.263 C 662.518 365.944, 663.749 369.313, 664.998 372.750 C 666.246 376.188, 667.545 378.998, 667.884 378.996 C 668.607 378.992, 672.412 370.038, 671.869 369.621 C 669.410 367.733, 661.911 364.332, 662.262 365.263 M 263.223 366.626 C 253.548 371.497, 249.855 384.651, 255.178 395.280 C 257.854 400.624, 259.858 402.775, 265 405.828 C 268.638 407.988, 270.745 408.500, 276 408.500 C 289.640 408.500, 300.917 398.356, 300.978 386.033 C 301.004 380.788, 298.419 373.375, 296.277 372.553 C 295.190 372.136, 294.954 372.439, 295.421 373.656 C 295.776 374.579, 296.330 377.867, 296.654 380.962 C 297.153 385.739, 296.853 387.356, 294.670 391.664 C 293.256 394.456, 290.706 397.911, 289.004 399.343 C 282.840 404.530, 272.330 405.221, 265.339 400.901 C 256.611 395.506, 255.383 379.728, 263.252 374.070 C 267.127 371.285, 272.078 369.989, 276.280 370.661 C 280.840 371.390, 280.782 369.973, 276.152 367.579 C 271.497 365.171, 266.800 364.825, 263.223 366.626 M 701.700 367.414 C 695.403 370.500, 694.705 371.327, 699.091 370.508 C 709.199 368.620, 720 376.881, 720 386.500 C 720 391.083, 718.017 394.900, 713.637 398.746 C 709.144 402.691, 703.957 404.346, 697.914 403.766 C 688.319 402.844, 680.737 394.196, 680.583 384 C 680.537 380.975, 680.861 376.925, 681.301 375 L 682.103 371.500 679.598 374.252 C 677.113 376.981, 674.996 382.656, 675.028 386.500 C 675.054 389.736, 678.863 397.238, 682.307 400.838 C 689.882 408.755, 701.673 410.741, 711.500 405.754 C 717.276 402.822, 718.963 401.131, 722.032 395.196 C 724.827 389.792, 725.594 383.331, 724.011 378.533 C 721.736 371.640, 713.922 364.932, 708.282 365.031 C 707.302 365.048, 704.340 366.121, 701.700 367.414 M 863.942 374.904 C 858.997 376.490, 856.839 378.185, 853.933 382.767 C 850.610 388.007, 849.979 395.591, 852.500 400 C 854.469 403.445, 854.422 403.547, 850.750 403.786 C 844.463 404.194, 837.388 406.337, 826 411.280 C 811.919 417.393, 802.599 420.991, 798.082 422.058 C 795.165 422.747, 794.011 422.416, 790.202 419.795 C 787.575 417.987, 783.974 416.526, 781.446 416.241 C 775.712 415.595, 772 418.966, 772 424.820 C 772 429.917, 774.639 433.187, 781.437 436.513 L 786.827 439.150 784.472 443.825 C 782.154 448.429, 776.226 462.448, 755.969 511.240 C 746.169 534.842, 745.531 536.061, 742.098 537.740 C 737.057 540.206, 736.711 544.820, 740.973 552.747 C 747.074 564.095, 757.140 572.414, 769.317 576.172 C 777.981 578.846, 796.190 579.323, 805 577.108 C 817.925 573.857, 829.570 565.208, 836.250 553.896 C 841.216 545.487, 841.273 541.588, 836.491 537.500 C 833.615 535.041, 831.620 531.164, 825.430 516 C 821.277 505.825, 816.069 492.775, 813.858 487 C 809.092 474.551, 798.474 448.957, 796.020 444 C 794.523 440.978, 794.465 440.073, 795.597 437.371 C 796.815 434.462, 797.350 434.195, 803.238 433.565 C 810.229 432.816, 819.846 429.660, 836.500 422.649 C 849.057 417.363, 852.982 416.891, 855.696 420.341 C 856.709 421.629, 858.542 423.220, 859.769 423.876 L 862 425.070 862 534.153 L 862 643.236 859 646.653 C 857.350 648.532, 856 650.661, 856 651.385 C 856 653.573, 844.132 659.939, 833.219 663.604 C 821.197 667.641, 814.383 671.566, 809.510 677.260 C 806.672 680.575, 806 682.187, 806 685.677 C 806 693.840, 813.860 699.885, 830 704.138 C 840.951 707.024, 847.048 707.508, 871.500 707.432 C 890.236 707.373, 894.968 707.040, 903.394 705.185 C 930.395 699.240, 938.935 685.496, 923.500 672.829 C 919.599 669.627, 912.794 666.527, 901.730 662.912 C 896.818 661.307, 891.515 659.078, 889.944 657.960 C 888.373 656.842, 885.760 655.464, 884.136 654.898 C 882.268 654.246, 880.952 652.943, 880.551 651.348 C 880.203 649.962, 878.815 647.724, 877.467 646.376 L 875.015 643.924 874.982 534.860 L 874.950 425.796 879.525 421.769 C 883.741 418.058, 884.436 417.788, 888.374 418.328 C 890.725 418.650, 896.215 420.334, 900.574 422.069 C 917.113 428.654, 921.745 430.228, 930 432.065 C 934.675 433.105, 940.314 433.966, 942.531 433.978 C 946.126 433.998, 946.707 434.351, 947.911 437.250 C 948.654 439.038, 949.217 440.725, 949.163 441 C 949.109 441.275, 946.190 448.250, 942.676 456.500 C 939.163 464.750, 930.536 486.005, 923.506 503.734 C 911.039 535.172, 910.634 536.011, 907.112 537.734 C 904.040 539.236, 903.453 540.063, 903.189 543.268 C 902.727 548.852, 906.410 555.450, 914.512 563.555 C 924.690 573.737, 933.309 577.399, 950.002 578.635 C 960.201 579.390, 970.878 577.805, 979.966 574.188 C 987.793 571.073, 999.387 560.200, 1002.816 552.761 C 1006.364 545.062, 1005.197 537, 1000.536 537 C 999.809 537, 998.981 536.438, 998.697 535.750 C 998.413 535.063, 995.620 528.425, 992.492 521 C 989.363 513.575, 982.855 498.050, 978.030 486.500 C 964.942 455.175, 960.981 446.082, 958.858 442.483 L 956.936 439.227 962.384 436.152 C 969.075 432.376, 971 429.762, 971 424.452 C 971 415.485, 962.041 413.256, 952.767 419.916 L 948.333 423.100 940.336 421.027 C 935.938 419.887, 926.300 416.480, 918.920 413.456 C 901.845 406.459, 893.588 404, 887.176 404 L 882.067 404 884.029 400.676 C 887.293 395.143, 887.551 389.241, 884.758 384 C 881.039 377.022, 871.008 372.639, 863.942 374.904 M 274.288 383.638 C 272.041 384.571, 268.825 390.873, 269.504 393.011 C 270.542 396.284, 274.073 398.025, 278.285 397.341 C 282.979 396.580, 289.011 390.321, 288.978 386.247 C 288.958 383.709, 288.816 383.808, 287.120 387.542 C 285.211 391.745, 282.611 393.947, 277.486 395.700 C 275.251 396.465, 274.173 396.410, 273.312 395.489 C 272.415 394.529, 272.940 393.481, 275.614 390.889 C 280.280 386.367, 279.393 381.519, 274.288 383.638 M 688 384.625 C 688 385.584, 688.927 388.284, 690.060 390.625 C 691.683 393.976, 693.041 395.232, 696.451 396.534 C 699.745 397.792, 701.266 397.928, 702.812 397.100 C 708.571 394.018, 709.470 390.064, 705.406 385.682 C 702.324 382.359, 698.661 382.367, 698.187 385.700 C 697.959 387.302, 698.838 388.524, 701.425 390.200 C 703.377 391.465, 704.981 393.032, 704.988 393.683 C 705.005 395.309, 701.702 396.214, 698.596 395.435 C 695.473 394.651, 690 388.659, 690 386.024 C 690 384.976, 689.550 383.840, 689 383.500 C 688.450 383.160, 688 383.666, 688 384.625 M 864.159 385.601 C 859.703 388.722, 858.895 396.197, 863.268 393.857 C 864.524 393.184, 867.623 392.989, 871.168 393.360 C 876.824 393.951, 877 393.897, 877 391.574 C 877 388.694, 871.822 384, 868.646 384 C 867.435 384, 865.416 384.720, 864.159 385.601 M 463.773 405.750 C 457.838 412.509, 463.974 427.375, 475.025 433.013 C 486.757 438.998, 504.160 436.276, 512.120 427.211 C 518.724 419.689, 520.664 411.385, 516.927 406.635 C 513.265 401.978, 508 403.349, 508 408.959 C 508 420.011, 494.015 427.191, 481.918 422.351 C 476.870 420.331, 472 414.045, 472 409.550 C 472 407.817, 471.460 405.860, 470.800 405.200 C 469.056 403.456, 465.547 403.730, 463.773 405.750 M 864.635 406.073 C 863.186 407.212, 862 408.787, 862 409.573 C 862 411.346, 861.999 411.346, 865.909 409.395 C 867.678 408.513, 870.222 408.001, 871.563 408.257 C 874.603 408.838, 874.701 407.604, 871.777 405.557 C 868.860 403.513, 867.791 403.590, 864.635 406.073 M 298.673 410.464 C 295.328 413.419, 294.989 414.110, 295.975 415.954 C 297.139 418.128, 305.011 424.323, 305.715 423.618 C 306.275 423.058, 303.672 406.991, 303.029 407.042 C 302.738 407.065, 300.778 408.605, 298.673 410.464 M 672.500 412.731 C 672.154 415.354, 671.622 418.815, 671.318 420.422 L 670.765 423.345 674.133 421.235 C 675.985 420.074, 678.360 417.992, 679.411 416.608 C 681.580 413.752, 681.034 412.604, 676.141 409.731 L 673.128 407.963 672.500 412.731 M 277 417.923 L 270.500 418.500 270.818 421.500 C 272.235 434.889, 282.525 449.117, 294.941 454.854 C 301.684 457.971, 314.706 459.283, 313.734 456.749 C 313.186 455.322, 310.080 444.593, 307.975 436.856 C 307.300 434.375, 306.268 433.032, 304.742 432.646 C 300.260 431.513, 293.249 426.139, 290.408 421.659 C 288.427 418.535, 286.863 417.116, 285.500 417.209 C 284.400 417.284, 280.575 417.605, 277 417.923 M 686.559 421.320 C 684.461 424.639, 682.141 426.558, 677.138 429.112 C 673.487 430.975, 670.328 432.597, 670.118 432.715 C 669.794 432.898, 668.585 437.049, 663.406 455.750 C 662.821 457.864, 663.082 458, 667.735 458 C 684.943 458, 703.162 442.231, 705.756 425.092 C 706.269 421.701, 706.422 418.789, 706.095 418.622 C 705.768 418.454, 703.025 418.231, 700 418.126 C 696.975 418.021, 693.340 417.706, 691.921 417.426 C 689.729 416.993, 688.926 417.576, 686.559 421.320 M 159.980 421.524 C 159.284 422.362, 158.892 423.165, 159.107 423.307 C 159.323 423.450, 160.812 424.226, 162.416 425.033 C 164.020 425.840, 167.834 428.863, 170.892 431.750 C 173.949 434.637, 176.757 437, 177.132 437 C 177.506 437, 177.574 437.915, 177.281 439.033 C 176.986 440.163, 177.451 441.841, 178.328 442.810 C 183.602 448.638, 189.055 469.520, 187.126 476.505 C 185.924 480.860, 186.051 481.301, 188.265 480.452 C 192.622 478.780, 193.474 464.931, 189.999 452.263 C 185.246 434.939, 173.325 420, 164.254 420 C 162.599 420, 160.676 420.686, 159.980 421.524 M 146.548 436.250 C 149.151 439.137, 152.398 443.180, 153.763 445.234 C 155.127 447.287, 156.634 448.726, 157.111 448.432 C 157.587 448.137, 157.727 448.549, 157.420 449.347 C 156.879 450.759, 158.653 452.680, 159.613 451.720 C 161.424 449.909, 146.537 431, 143.300 431 C 142.399 431, 143.677 433.065, 146.548 436.250 M 159.416 433.136 C 158.963 433.869, 159.124 434.042, 159.845 433.595 C 160.480 433.203, 161 433.339, 161 433.897 C 161 434.455, 162.168 436.619, 163.596 438.706 C 166.545 443.015, 173.997 457.480, 174.515 459.899 C 174.703 460.780, 175.557 463.300, 176.412 465.500 L 177.966 469.500 177.387 463.500 C 176.995 459.446, 175.545 454.906, 172.914 449.500 C 168.727 440.899, 160.662 431.121, 159.416 433.136 M 118.935 444.299 C 114.774 446.060, 110.327 448.195, 109.051 449.045 L 106.732 450.590 111.425 457.443 C 118.098 467.191, 125.374 482.987, 126.536 490.252 C 126.734 491.489, 127.204 494.413, 127.580 496.750 C 127.956 499.087, 128.566 501, 128.936 501 C 129.306 501, 131.609 499.743, 134.054 498.207 C 136.499 496.671, 142.051 493.738, 146.391 491.689 L 154.281 487.965 153.641 481.835 C 153.288 478.463, 152.623 475.209, 152.163 474.602 C 151.703 473.996, 150.280 470.800, 149 467.500 C 143.507 453.340, 134.180 440.952, 129.083 441.049 C 127.663 441.076, 123.096 442.539, 118.935 444.299 M 96.980 457.750 C 101.083 462.260, 104.656 467.652, 107.749 474 C 110.294 479.225, 112.293 483.837, 112.189 484.250 C 112.085 484.663, 112.354 485, 112.786 485 C 113.218 485, 113.629 485.788, 113.700 486.750 C 113.770 487.712, 114.306 490.300, 114.890 492.500 C 115.474 494.700, 115.963 499.538, 115.976 503.250 C 115.999 509.642, 117.056 511.903, 118.393 508.418 C 120.658 502.516, 117.773 487.874, 111.892 475.426 C 106.202 463.384, 95.967 451.023, 91.670 451.004 C 91.214 451.002, 93.604 454.038, 96.980 457.750 M 161.265 456.703 C 160.304 457.056, 160.336 457.750, 161.411 459.828 C 164.295 465.408, 166.957 476.540, 166.675 481.843 C 166.431 486.442, 166.573 486.937, 167.696 485.401 C 169.693 482.670, 169.261 476.126, 166.438 466.362 C 163.712 456.932, 163.208 455.990, 161.265 456.703 M 62.880 461.007 C 61.989 461.528, 60.521 463.082, 59.617 464.461 C 57.987 466.950, 57.992 466.961, 60.411 465.858 C 63.589 464.411, 70.052 467.412, 75.217 472.733 C 81.458 479.164, 89.280 496.094, 90.598 506.024 C 90.958 508.740, 91.554 510.776, 91.923 510.548 C 92.291 510.320, 92.572 511.859, 92.546 513.967 C 92.521 516.076, 92.215 517.626, 91.866 517.413 C 91.019 516.895, 88.567 522.901, 89.319 523.652 C 89.642 523.976, 91.165 523.906, 92.703 523.497 C 94.242 523.088, 94.941 522.548, 94.258 522.296 C 93.447 521.998, 93.312 521.259, 93.869 520.169 C 96.493 515.038, 95.472 501.483, 91.985 495.152 C 91.484 494.243, 90.093 491.479, 88.894 489.008 C 86.896 484.894, 86.872 484.642, 88.606 486.008 C 89.648 486.829, 90.831 487.950, 91.235 488.500 C 92.530 490.263, 92.051 488.176, 90.335 484.577 C 89.420 482.657, 88.326 481.299, 87.904 481.559 C 87.483 481.820, 86.813 481.506, 86.415 480.862 C 85.963 480.131, 86.124 479.959, 86.845 480.405 C 90.303 482.541, 85.075 473.950, 79.097 467.672 C 72.317 460.550, 67.236 458.462, 62.880 461.007 M 795.249 468 C 795.261 469.375, 795.173 484.150, 795.053 500.834 C 794.933 517.518, 794.985 531.306, 795.168 531.473 C 795.350 531.641, 798.425 532.043, 802 532.368 C 805.575 532.692, 811.763 533.255, 815.750 533.617 C 819.737 533.979, 823 534.031, 823 533.731 C 823 533.432, 821.613 530.107, 819.918 526.343 C 817.225 520.362, 812.587 508.830, 803.292 485 C 800.168 476.989, 798.748 473.508, 796.766 469 C 795.399 465.891, 795.230 465.779, 795.249 468 M 299.706 468.750 C 298.723 470.538, 301.321 476.216, 304.564 479.365 C 308.428 483.118, 314.117 485, 321.598 485 C 326.309 485, 326.310 485, 324.425 482.917 C 323.389 481.772, 320.956 480.176, 319.020 479.370 C 317.084 478.564, 313.700 476.153, 311.500 474.011 C 306.686 469.324, 300.827 466.710, 299.706 468.750 M 668.027 472.473 C 666.191 474.366, 661.610 477.534, 657.845 479.512 C 654.080 481.490, 651 483.535, 651 484.055 C 651 484.575, 652.913 484.989, 655.250 484.976 C 665.229 484.918, 673.341 481.110, 676.501 474.998 C 678.744 470.660, 678.384 469.528, 674.680 469.265 C 672.045 469.078, 670.678 469.737, 668.027 472.473 M 776.967 484.750 C 773.543 492.863, 769.901 501.388, 768.871 503.695 C 767.842 506.002, 767 508.163, 767 508.496 C 767 509.184, 759.488 527.318, 757.782 530.748 C 757.167 531.985, 756.866 533.199, 757.113 533.447 C 757.360 533.694, 763.624 533.348, 771.031 532.679 L 784.500 531.462 784.764 500.731 C 784.921 482.522, 784.654 470, 784.110 470 C 783.604 470, 780.390 476.637, 776.967 484.750 M 947.364 470.803 C 946.225 471.535, 937.951 491.529, 928.659 516 C 925.631 523.975, 922.826 531.340, 922.425 532.367 C 921.742 534.116, 922.148 534.195, 928.848 533.617 C 932.782 533.278, 939.161 532.728, 943.024 532.396 L 950.048 531.792 949.971 502.119 C 949.928 485.798, 949.568 471.919, 949.170 471.275 C 948.773 470.632, 947.960 470.419, 947.364 470.803 M 959 500.813 L 959 531.626 973.142 532.837 C 980.921 533.503, 987.497 533.836, 987.757 533.576 C 988.017 533.317, 987.256 531.094, 986.066 528.636 C 983.762 523.877, 972.592 497.235, 965.779 480.250 C 963.444 474.428, 961.091 470, 960.334 470 C 959.251 470, 959 475.797, 959 500.813 M 229.861 488.912 C 227.780 490.597, 227.463 491.811, 227.183 499.162 C 227.009 503.748, 227.272 511.550, 227.769 516.500 C 229.085 529.617, 227.085 534.431, 221.109 532.535 C 219.380 531.986, 216.340 526.233, 214.485 520 C 211.875 511.231, 204.260 501.967, 199.715 502.032 C 196.369 502.080, 193.982 504.394, 193.521 508.036 C 193.079 511.529, 195.260 523.733, 197.586 530.785 C 200.686 540.179, 198.398 547.097, 192.250 546.921 C 189.554 546.844, 187.835 545.879, 174.957 537.218 C 165.169 530.635, 160.803 530.452, 160.229 536.601 C 159.712 542.144, 168.312 552.531, 183.051 564.164 C 190.367 569.938, 191 570.726, 191 574.062 C 191 578.428, 194.105 587.796, 197.434 593.478 C 201 599.562, 208.284 605.801, 215.804 609.210 C 221.943 611.994, 222.289 612.316, 220.523 613.607 C 219.475 614.373, 217.354 615, 215.809 615 L 213 615 213 623.614 L 213 632.227 217.681 631.525 C 230.278 629.636, 246.252 622.652, 255.984 614.777 C 262.700 609.343, 263.670 607.101, 259.010 607.785 C 257.366 608.027, 256.244 608.585, 256.517 609.027 C 256.790 609.469, 255.773 609.499, 254.257 609.093 C 252.741 608.688, 251.500 607.872, 251.500 607.281 C 251.500 606.690, 254.301 604.144, 257.724 601.624 C 265.106 596.190, 269.049 590.535, 270.708 583 C 271.254 580.521, 271.019 561.214, 270.424 559.663 C 269.230 556.551, 272.149 545.967, 276.035 539.317 C 278.216 535.585, 280 531.538, 280 530.323 C 280 527.656, 276.506 525, 273 525 C 269.344 525, 266.728 527.156, 260.487 535.310 C 257.460 539.265, 252.807 545.091, 250.147 548.258 C 247.330 551.611, 244.161 556.944, 242.560 561.024 C 239.401 569.077, 236.928 571.149, 233.827 568.343 C 232.200 566.871, 231.939 565.768, 232.449 562.514 C 233.474 555.963, 238.548 546.359, 244.061 540.529 C 249.193 535.102, 249.219 535.042, 249.105 528.787 C 248.837 514.169, 242.634 494.394, 236.768 489.458 C 233.253 486.501, 232.875 486.471, 229.861 488.912 M 333.417 497.542 C 335.571 499.444, 337.539 500.794, 337.791 500.542 C 338.584 499.749, 332.579 493.998, 331.003 494.042 C 330.104 494.067, 331.074 495.473, 333.417 497.542 M 640.946 497.627 L 637.500 501.255 641.742 498.877 C 644.076 497.570, 645.988 495.938, 645.992 495.250 C 646.005 493.148, 644.550 493.834, 640.946 497.627 M 322.494 496.009 C 321.411 497.762, 322.920 500.605, 326.877 504.266 C 332.282 509.267, 338.344 512.092, 344.878 512.655 L 350.500 513.140 344.207 509.655 C 336.967 505.647, 331.637 501.782, 327.849 497.792 C 325.055 494.850, 323.526 494.340, 322.494 496.009 M 648.946 499.612 C 646.941 501.714, 641.319 505.249, 635.500 508.068 C 626.556 512.400, 625.870 512.915, 629 512.944 C 640.332 513.049, 653.412 505.771, 656.306 497.750 C 657.474 494.513, 652.645 495.735, 648.946 499.612 M 148.872 505.917 C 145.464 507.733, 142.016 512.350, 143.191 513.524 C 143.542 513.875, 144.864 513.608, 146.129 512.931 C 147.395 512.254, 150.574 510.945, 153.194 510.022 L 157.957 508.344 155.101 506.232 C 152.309 504.168, 152.167 504.161, 148.872 505.917 M 153.523 519.309 C 150.840 520.926, 149.064 523.191, 149.062 525 C 149.061 526.169, 149.285 526.114, 150.080 524.750 C 151.430 522.432, 156.258 520, 159.509 520 C 160.994 520, 161.852 519.569, 161.500 519 C 160.668 517.654, 155.968 517.836, 153.523 519.309 M 361.363 548.922 C 338.369 561.572, 326 569.998, 326 573.011 C 326 574.305, 326.158 574.218, 336 567.494 C 345.393 561.076, 369.883 547.550, 370.676 548.342 C 371 548.667, 370.093 551.410, 368.659 554.439 C 365.465 561.186, 364.445 565.009, 365.615 565.857 C 366.102 566.211, 368.156 568.562, 370.180 571.083 C 372.204 573.603, 376.356 578.328, 379.408 581.583 C 382.460 584.837, 384.966 587.798, 384.978 588.162 C 384.990 588.527, 380.315 592.239, 374.590 596.411 C 363.420 604.552, 359 608.999, 359 612.098 C 359 613.168, 360.630 618.196, 362.623 623.272 C 364.616 628.347, 369.081 639.925, 372.546 649 C 381.989 673.734, 385.254 681.974, 402.462 724.500 C 411.141 745.950, 419.128 765.750, 420.210 768.500 C 422.710 774.854, 423.690 776, 426.622 776 C 427.930 776, 428.986 775.438, 428.969 774.750 C 428.952 774.063, 427.135 769.225, 424.932 764 C 420.811 754.229, 394.917 690.005, 380.784 654.500 C 367.665 621.542, 364.903 613.882, 365.481 612.060 C 365.784 611.105, 368.950 608, 372.516 605.162 C 376.082 602.323, 381.940 597.659, 385.534 594.798 C 389.128 591.936, 391.941 589.057, 391.784 588.400 C 391.561 587.463, 375.509 569.613, 370.443 564.668 C 369.418 563.668, 371.996 554.945, 376.375 544.596 C 377.283 542.450, 377.890 540.557, 377.724 540.390 C 377.557 540.224, 370.195 544.063, 361.363 548.922 M 606.592 544.781 C 607.468 546.827, 608.864 550.750, 609.694 553.500 C 610.525 556.250, 611.658 559.057, 612.214 559.737 C 614.200 562.171, 611.909 565.744, 600.971 577.263 L 589.874 588.950 593.288 591.948 C 595.166 593.597, 600.893 598.149, 606.014 602.064 C 618.167 611.355, 618.333 611.536, 617.552 614.648 C 616.913 617.193, 603.365 650.970, 592.743 676.500 C 581.567 703.360, 578.934 709.955, 572.477 727.262 C 568.833 737.032, 563.832 749.857, 561.363 755.762 C 558.895 761.668, 555.998 768.666, 554.927 771.314 L 552.979 776.128 556.208 775.814 C 558.457 775.595, 559.828 774.741, 560.722 773 C 565.012 764.652, 569.991 752.527, 578.380 730 C 583.603 715.975, 590.419 698.425, 593.527 691 C 600.388 674.611, 613 643.143, 613 642.416 C 613 642.127, 613.843 640.002, 614.874 637.695 C 618.438 629.716, 624 613.945, 624 611.818 C 624 608.985, 616.493 601.868, 606.260 595 C 601.753 591.975, 598.051 589.042, 598.033 588.482 C 598.015 587.922, 600.742 584.547, 604.092 580.982 C 607.443 577.417, 611.965 572.180, 614.142 569.344 L 618.098 564.188 614.902 556.574 C 613.144 552.387, 611.924 548.743, 612.190 548.477 C 612.804 547.863, 634.178 559.617, 648.197 568.278 C 654.080 571.912, 658.653 574.258, 658.358 573.491 C 656.971 569.876, 640.035 558.768, 620 548.330 C 604.168 540.083, 604.632 540.206, 606.592 544.781 M 420 545.707 C 420 546.462, 420.900 548.844, 422 551 C 424.666 556.226, 424.558 557.178, 421.389 556.383 C 419.093 555.806, 418.857 555.975, 419.430 557.781 C 419.971 559.483, 419.733 559.743, 418.041 559.300 C 416.918 559.007, 416 559.175, 416 559.673 C 416 567.812, 434.489 604.749, 445.642 618.893 C 446.645 620.165, 449.486 615.163, 456.492 599.788 C 460.824 590.279, 465.872 580.112, 467.708 577.193 C 471.080 571.835, 471.222 570, 468.264 570 C 467.374 570, 462.819 568.147, 458.140 565.883 C 451.508 562.673, 448.076 560.171, 442.558 554.527 C 435.060 546.856, 433.910 546.222, 425.396 545.067 C 421.133 544.489, 420 544.623, 420 545.707 M 557.500 544.516 C 556.950 544.712, 553.962 545.373, 550.860 545.985 C 545.662 547.009, 544.860 547.553, 540.641 552.924 C 534.573 560.647, 527.247 565.220, 512.808 570.298 C 511.357 570.808, 511.889 572.287, 516.547 580.696 C 519.534 586.088, 521.983 590.863, 521.989 591.307 C 522.021 593.687, 535.251 619.087, 536.293 618.769 C 539.148 617.895, 554.665 591.694, 561.363 576.436 C 565.470 567.078, 566.840 562.363, 565.146 563.410 C 563.790 564.248, 563.644 562.558, 564.868 560.184 C 565.346 559.258, 566.006 556.700, 566.334 554.500 L 566.932 550.500 565.463 553.750 C 564.655 555.538, 563.744 557, 563.438 557 C 563.132 557, 563.206 556.438, 563.602 555.750 C 563.998 555.063, 563.127 555.589, 561.665 556.921 C 560.204 558.252, 558.782 559.115, 558.506 558.839 C 558.229 558.563, 559.128 555.570, 560.502 552.188 C 561.876 548.807, 563 545.581, 563 545.020 C 563 544.052, 559.653 543.746, 557.500 544.516 M 753 547.500 C 754.925 548.241, 757.625 548.852, 759 548.856 C 760.447 548.861, 759.394 548.280, 756.500 547.477 C 750.195 545.726, 748.424 545.738, 753 547.500 M 919.142 547.411 C 919.496 547.800, 924.446 548.978, 930.142 550.029 C 938.415 551.556, 943.821 551.865, 957 551.566 C 971.397 551.240, 980.815 550.518, 981.657 549.677 C 981.797 549.537, 973.494 549.600, 963.206 549.818 C 946.297 550.176, 927.576 549.086, 921 547.361 C 919.625 547, 918.789 547.023, 919.142 547.411 M 521 550.790 C 508.641 552.597, 475.455 552.719, 462.246 551.006 C 451.639 549.630, 449.263 549.987, 452.573 552.461 C 466.202 562.648, 489.620 566.735, 507.068 561.970 C 511.155 560.854, 515.229 559.766, 516.121 559.553 C 520.944 558.398, 533.071 550.685, 531.386 549.844 C 530.899 549.600, 526.225 550.026, 521 550.790 M 766 550.306 C 771.790 551.543, 808.650 551.638, 812.218 550.424 C 814.023 549.810, 805.962 549.474, 788.218 549.422 C 768.833 549.365, 762.735 549.608, 766 550.306 M 758.070 556.416 C 757.067 557.624, 757.691 558.489, 761.679 561.414 C 767.894 565.973, 773.886 567.950, 784.193 568.842 C 797.819 570.022, 810.181 566.926, 817.951 560.388 C 820.785 558.003, 821.014 557.484, 819.666 556.498 C 818.502 555.647, 815.765 555.655, 808.805 556.530 C 803.687 557.174, 792.580 557.566, 784.121 557.401 C 770.173 557.130, 765.719 556.747, 760.891 555.403 C 760.006 555.156, 758.737 555.612, 758.070 556.416 M 982.858 555.475 C 981.224 557.110, 952.412 557.801, 934.750 556.630 C 922.256 555.802, 921.171 556.192, 925.250 560.050 C 929.340 563.918, 937.224 567.188, 945.809 568.578 C 950.465 569.331, 954.551 569.786, 954.887 569.587 C 955.224 569.388, 958.515 568.952, 962.201 568.617 C 970.550 567.859, 979.105 564.725, 983.603 560.775 C 986.315 558.394, 986.800 557.465, 985.899 556.378 C 984.718 554.956, 983.685 554.649, 982.858 555.475 M 176.467 576.072 C 178.410 580.126, 180.010 583.906, 180.022 584.472 C 180.034 585.037, 180.963 586.625, 182.085 588 L 184.125 590.500 183.440 588 C 182.206 583.497, 176.258 571.459, 174.578 570.065 C 173.573 569.231, 174.307 571.564, 176.467 576.072 M 478.200 577.200 C 477.540 577.860, 477 578.926, 477 579.568 C 477 580.211, 483.574 586.083, 491.608 592.618 C 499.643 599.153, 507.856 605.952, 509.858 607.727 C 514.157 611.536, 514.595 611.626, 516.004 608.993 C 517.123 606.902, 516.267 605.700, 509.946 600.481 C 508.601 599.370, 502.325 594.199, 496 588.991 C 489.675 583.782, 483.628 578.728, 482.561 577.760 C 480.267 575.677, 479.785 575.615, 478.200 577.200 M 469.812 592.513 C 468.289 595.856, 466.542 594.145, 493.253 615.479 C 502.517 622.878, 504.282 623.919, 506.003 622.998 C 507.101 622.411, 508 621.619, 508 621.240 C 508 620.355, 502.369 615.276, 493.500 608.160 C 489.650 605.071, 483.800 600.269, 480.500 597.489 C 470.554 589.108, 471.222 589.419, 469.812 592.513 M 421.351 601.188 C 421.647 602.116, 422.378 605.570, 422.975 608.864 C 424.365 616.527, 428.083 628.937, 432.437 640.447 C 438.107 655.432, 451.763 685, 453.014 685 C 453.342 685, 454.787 680.612, 456.224 675.250 C 458.461 666.903, 464.523 646.062, 467.855 635.259 C 468.613 632.804, 468.539 631.834, 467.552 631.259 C 466.835 630.842, 464.837 627.688, 463.110 624.250 C 461.384 620.813, 459.760 618, 459.502 618 C 459.245 618, 457.909 620.219, 456.535 622.930 C 453.760 628.408, 450.755 631, 447.182 631 C 441.669 631, 439.489 628.469, 423.070 603 C 421.829 601.075, 421.055 600.259, 421.351 601.188 M 551.110 616.080 C 542.772 628.486, 540.136 631, 535.469 631 C 531.667 631, 527.642 627.029, 524.626 620.303 L 522.752 616.123 517.876 623.593 C 515.194 627.701, 513 631.491, 513 632.016 C 513 632.540, 514.150 636.914, 515.555 641.735 C 516.961 646.556, 520.117 657.863, 522.568 666.861 C 525.020 675.860, 527.383 683.863, 527.821 684.645 C 529.208 687.123, 544.514 654.470, 551.795 633.500 C 555.447 622.983, 559.233 608.352, 558.801 606.426 C 558.635 605.688, 555.174 610.033, 551.110 616.080 M 272.626 611.756 C 267.478 621.711, 245.664 635.354, 227.444 640.014 C 214.001 643.453, 197.312 642.482, 190.846 637.887 C 189.386 636.849, 187.943 636, 187.640 636 C 186.433 636, 194.190 654.381, 195.823 655.391 C 196.334 655.706, 196.153 654.285, 195.420 652.232 C 193.666 647.319, 193.686 646, 195.513 646 C 196.362 646, 198.153 648.380, 199.594 651.424 C 202.128 656.776, 202.211 656.840, 205.831 656.285 C 220.312 654.063, 243.932 643.998, 255 635.333 C 268.228 624.977, 274.353 618.425, 275.655 613.237 C 276.627 609.365, 274.421 608.285, 272.626 611.756 M 295.242 617.750 C 294.718 619.263, 294.569 621.295, 294.913 622.266 C 295.352 623.507, 295.850 622.688, 296.586 619.516 C 297.729 614.586, 296.774 613.331, 295.242 617.750 M 198.720 625.126 L 195.594 628.253 197.908 630.126 C 201.824 633.298, 203 632.576, 203 627 C 203 624.250, 202.740 622, 202.423 622 C 202.106 622, 200.439 623.407, 198.720 625.126 M 339.020 627.500 C 338.849 629.700, 338.632 632.850, 338.538 634.500 C 338.444 636.150, 338.038 641.325, 337.636 646 C 336.353 660.927, 336.131 672.374, 336.094 725.500 C 336.074 754.100, 336.449 779.075, 336.927 781 C 337.404 782.925, 337.841 783.712, 337.898 782.750 C 337.954 781.788, 338.685 781, 339.522 781 C 340.869 781, 341.024 774.255, 340.875 722.250 C 340.718 667.772, 339.747 618.167, 339.020 627.500 M 497 633.724 C 496.175 634.035, 493.877 635.687, 491.893 637.395 C 489.909 639.103, 484.815 643.425, 480.574 647 C 473.414 653.035, 468.625 659, 470.940 659 C 472.074 659, 487.714 646.054, 495.963 638.286 C 500.943 633.597, 501.281 632.108, 497 633.724 M 296.504 648 C 298.937 657.573, 320.456 721.135, 320.774 719.685 C 321.888 714.600, 311.227 680.041, 301.129 656 C 297.592 647.580, 295.461 643.894, 296.504 648 M 854.601 661.837 C 853.730 663.246, 854.567 663.621, 861.704 665.023 C 868.611 666.380, 877.716 665.659, 880.637 663.524 C 883.688 661.293, 881.652 660.856, 875.578 662.438 C 869.955 663.902, 868.839 663.837, 857.867 661.397 C 856.419 661.075, 854.949 661.273, 854.601 661.837 M 432.016 671.250 C 432.034 674.806, 433.047 680.146, 449.109 761.417 L 453.441 783.334 457.470 784.859 C 459.687 785.698, 466.130 788.773, 471.790 791.692 C 477.449 794.611, 482.286 797, 482.540 797 C 482.793 797, 483.056 789.013, 483.124 779.250 C 483.193 769.487, 483.530 758.350, 483.874 754.500 L 484.500 747.500 475.680 738 C 468.799 730.588, 464.657 724.764, 456.832 711.500 C 451.316 702.150, 445.328 692.025, 443.526 689 C 441.723 685.975, 438.560 680.013, 436.497 675.750 C 434.434 671.487, 432.578 668, 432.373 668 C 432.168 668, 432.007 669.462, 432.016 671.250 M 843 670.272 C 843 673.798, 858.046 676.521, 872.958 675.692 C 883.131 675.126, 894 672.769, 894 671.128 C 894 669.308, 892.670 669.341, 888.701 671.258 C 878.335 676.267, 858.433 675.492, 844.750 669.546 C 843.527 669.015, 843 669.234, 843 670.272 M 508.532 673.292 C 493.874 684.862, 484.814 692.379, 466.746 707.958 C 466.332 708.315, 466.557 709.375, 467.246 710.312 C 468.369 711.838, 470.122 710.645, 484 698.912 C 492.525 691.705, 501.276 684.051, 503.447 681.904 C 505.618 679.757, 507.726 678, 508.130 678 C 508.534 678, 509.153 677.093, 509.505 675.985 C 509.856 674.877, 510.514 674.200, 510.967 674.480 C 511.420 674.760, 512.043 674.331, 512.352 673.526 C 513.293 671.074, 511.483 670.963, 508.532 673.292 M 544.639 675.188 C 543.820 676.460, 541.916 680.650, 540.408 684.500 C 534.708 699.053, 511.860 734.343, 498.750 748.842 L 493 755.202 492.919 773.851 C 492.874 784.108, 492.749 793.691, 492.640 795.146 L 492.443 797.791 496.472 795.102 C 503.040 790.718, 521.449 783.655, 529.427 782.459 C 531.956 782.079, 534.225 781.444, 534.471 781.047 C 536.536 777.705, 547.511 696.307, 548.154 679.564 C 548.404 673.040, 547.082 671.394, 544.639 675.188 M 827.646 675.003 C 825.527 676.061, 823.078 677.506, 822.204 678.214 C 820.868 679.296, 820.752 679.262, 821.469 678 C 821.939 677.175, 821.133 677.584, 819.678 678.908 C 814.216 683.883, 815.383 687.916, 823.336 691.547 C 843.169 700.604, 876.614 702.438, 902 695.861 C 921.626 690.777, 926.111 684.357, 914.706 677.673 C 908.695 674.151, 905 673.294, 905 675.423 C 905 676.325, 904.212 677.332, 903.250 677.660 C 902.288 677.989, 899.215 679.340, 896.422 680.662 C 889.650 683.869, 882.939 684.854, 868.249 684.800 C 851.874 684.740, 839.989 682.230, 837.697 678.348 C 837.186 677.483, 836.004 677.212, 834.447 677.603 C 832.040 678.207, 831.504 677.494, 831.925 674.250 C 832.125 672.709, 832.306 672.677, 827.646 675.003 M 508.500 691.563 C 504.100 695.705, 494.553 704.081, 487.284 710.176 C 476.037 719.607, 474.213 721.529, 475.039 723.074 C 475.574 724.072, 476.468 725.171, 477.026 725.516 C 479.021 726.749, 518.576 693.241, 518.417 690.454 C 518.107 685.047, 517.917 684.002, 517.250 684.016 C 516.837 684.025, 512.900 687.421, 508.500 691.563 M 697.799 701.586 C 690.816 703.734, 690.392 705.493, 697.099 704.492 C 700.070 704.049, 708.125 703.415, 715 703.083 L 727.500 702.480 722.201 701.240 C 715.242 699.612, 703.683 699.775, 697.799 701.586 M 666 706.955 C 663.815 707.694, 663.761 707.813, 665.568 707.900 C 669.917 708.110, 677.775 711.090, 684.204 714.967 C 687.933 717.217, 692.131 718.982, 693.695 718.958 L 696.500 718.917 692.500 715.364 C 684.529 708.285, 672.941 704.608, 666 706.955 M 625 716.583 C 611.738 720.082, 596.755 731.154, 594.004 739.488 C 592.644 743.610, 593.357 749.222, 595.464 750.970 C 596.600 751.913, 597.172 751.568, 598.396 749.201 C 600.395 745.336, 608.593 738.109, 614.373 735.117 C 618.140 733.167, 619.250 732.963, 620.488 733.990 C 623.483 736.476, 622.284 739.609, 617.053 742.966 C 605.991 750.065, 602.392 757.415, 607.069 763.360 L 609.137 765.990 611.502 763.180 C 614.586 759.515, 625.562 752, 627.831 752 C 628.804 752, 630.140 752.540, 630.800 753.200 C 633.223 755.623, 631.963 757.950, 626.058 761.960 C 618.306 767.225, 616.674 769.500, 618.354 772.706 C 619.045 774.025, 620.886 775.941, 622.445 776.964 L 625.278 778.823 627.657 775.996 C 630.472 772.651, 638.074 768, 640.728 768 C 642.704 768, 645 769.778, 645 771.308 C 645 771.808, 642.952 774.097, 640.449 776.395 C 637.238 779.344, 636.089 781.069, 636.546 782.259 C 638.654 787.753, 660.220 783.827, 670 776.168 C 671.925 774.661, 674.175 773.453, 675 773.486 C 677.091 773.567, 676.700 779.569, 674.440 782.066 C 672.752 783.931, 672.783 784, 675.298 784 C 677.460 784, 678.084 783.359, 678.947 780.250 C 679.520 778.188, 679.991 774.025, 679.993 771 C 679.998 764.456, 677.575 750.986, 676.235 750.115 C 675.715 749.777, 674.708 747.700, 673.997 745.500 C 670.659 735.166, 661.269 723.218, 653.286 719.146 C 649.022 716.971, 639.571 714.964, 634.066 715.066 C 632.105 715.102, 628.025 715.785, 625 716.583 M 674.609 725.250 C 680.750 733.586, 683.467 739.147, 686.550 749.693 C 689.949 761.317, 690.379 776.614, 687.557 785.500 C 686.509 788.800, 685.741 791.871, 685.850 792.324 C 685.960 792.778, 685.588 792.864, 685.025 792.515 C 684.461 792.167, 684 792.308, 684 792.829 C 684 793.350, 682.436 796.049, 680.525 798.827 L 677.051 803.878 679.914 802.880 C 684.942 801.127, 690.532 795.435, 693.314 789.234 C 701.422 771.168, 697.059 743.554, 683.685 728.285 C 680.682 724.857, 672.558 719, 670.806 719 C 670.365 719, 672.076 721.813, 674.609 725.250 M 733.500 720.722 C 735.187 722.319, 748.055 731, 748.735 731 C 749.883 731, 743.575 724.905, 740.500 723.044 C 737.034 720.946, 731.958 719.262, 733.500 720.722 M 853 723.756 C 852.175 723.993, 839.723 730.020, 825.329 737.149 C 806.702 746.374, 798.631 750.887, 797.329 752.805 C 795.721 755.174, 795.473 758.028, 795.280 776.396 C 795.091 794.344, 795.294 797.690, 796.722 800.106 C 798.290 802.761, 798.277 803.036, 796.502 804.998 C 795.468 806.141, 790.094 810.527, 784.561 814.745 C 770.272 825.637, 753.827 838.949, 751.623 841.407 C 747.302 846.226, 746.724 849.578, 746.871 869 L 747.010 887.500 750.799 894.949 C 754.504 902.233, 754.698 902.423, 759.544 903.553 C 767.922 905.506, 795.365 911.709, 819 916.993 C 847.360 923.333, 902.642 933.307, 905.478 932.595 C 909.494 931.587, 914.367 927.507, 918.436 921.745 C 920.671 918.580, 927.710 909.355, 934.077 901.245 C 953.385 876.654, 964.791 861.329, 966.981 857.038 C 968.958 853.162, 969.010 852.262, 968.040 838.731 C 967.479 830.904, 967.015 820.365, 967.010 815.311 L 967 806.123 973.541 801.822 C 977.678 799.103, 980.342 796.599, 980.791 795.011 C 981.181 793.630, 981.480 783.450, 981.456 772.389 C 981.403 747.734, 981.458 747.872, 970.775 745.600 C 966.774 744.749, 957.200 742.899, 949.500 741.489 C 935.826 738.985, 911.767 734.397, 875.500 727.378 C 865.600 725.462, 856.825 723.766, 856 723.610 C 855.175 723.453, 853.825 723.519, 853 723.756 M 830.384 743.794 C 818.771 749.682, 808.533 755.118, 807.634 755.872 C 805.670 757.522, 805.335 764.385, 807.250 763.756 C 807.938 763.530, 808.639 762.176, 808.809 760.746 C 809.239 757.133, 808.876 757.377, 831.500 745.511 C 843.723 739.100, 853.281 733.921, 853.917 733.365 C 854.146 733.164, 853.696 733.020, 852.917 733.044 C 852.138 733.068, 841.998 737.906, 830.384 743.794 M 862.500 736.826 C 861.950 737.346, 857 740.133, 851.500 743.020 C 820.144 759.474, 816.300 761.751, 815.624 764.274 C 815.296 765.498, 815.021 772.897, 815.014 780.715 C 815.002 793.323, 815.201 795.037, 816.778 795.881 C 817.756 796.404, 827.543 798.900, 838.528 801.426 C 849.513 803.952, 860.300 806.438, 862.500 806.950 C 874.996 809.856, 885.563 812.192, 893.750 813.859 L 903 815.741 903.070 808.121 C 903.341 778.479, 904.051 776.780, 919 770.016 C 932.653 763.839, 949.238 754.785, 949.758 753.226 C 949.990 752.530, 949.301 752, 948.164 752 C 947.063 752, 929.138 748.649, 908.331 744.553 C 861.254 735.286, 863.695 735.697, 862.500 736.826 M 959.890 756.251 C 954.394 759.900, 945.065 765.414, 936.500 770.077 C 922.524 777.686, 921.659 778.040, 914.863 778.918 C 914.264 778.995, 913.204 783.184, 912.719 787.399 C 912.307 790.976, 914.673 790.060, 916.256 786.029 C 917.190 783.653, 918.498 782, 919.445 782 C 920.773 782, 946.106 767.932, 949.530 765.294 C 950.096 764.857, 952.715 763.375, 955.350 762 C 961.482 758.799, 967.118 754.097, 964.890 754.041 C 964.004 754.018, 961.754 755.013, 959.890 756.251 M 954 774.540 C 928.916 789.803, 927.185 791.031, 926.001 794.415 C 925.322 796.359, 925.173 800.931, 925.600 806.773 C 926.228 815.373, 926.419 816.002, 928.230 815.427 C 929.304 815.086, 938.354 809.625, 948.341 803.291 C 958.329 796.957, 967.513 791.140, 968.750 790.364 C 970.880 789.029, 971 788.313, 971 776.977 C 971 770.390, 970.663 765.024, 970.250 765.054 C 969.837 765.084, 962.525 769.352, 954 774.540 M 820.388 779.431 C 820.039 780.342, 819.968 781.301, 820.231 781.564 C 820.494 781.827, 824.262 782.687, 828.604 783.476 C 832.947 784.264, 849.775 787.878, 866 791.505 C 900.303 799.174, 899.332 799.022, 899.783 796.797 C 900.217 794.656, 898.373 794.138, 860 785.630 C 823.842 777.613, 821.242 777.206, 820.388 779.431 M 953.967 778.820 C 951.114 780.085, 936.515 789.337, 934.362 791.244 C 931.944 793.386, 932.263 797.010, 934.867 796.983 C 936.949 796.960, 957.161 784.692, 958.430 782.680 C 959.074 781.660, 958.956 780.652, 958.070 779.584 C 956.643 777.865, 956.276 777.797, 953.967 778.820 M 259 787.007 C 269.288 795.780, 290.685 797.639, 299.548 790.529 L 302.500 788.161 296.500 790.192 C 288.237 792.988, 275.848 792.353, 267.427 788.701 C 264.167 787.287, 260.375 785.847, 259 785.502 L 256.500 784.875 259 787.007 M 391.500 788.034 C 371.287 790.074, 337.922 799.531, 320 808.299 L 315.500 810.500 292.491 856.500 C 279.835 881.800, 268.604 903.958, 267.531 905.740 C 264.428 910.895, 265.931 911.514, 281.309 911.416 C 294.154 911.335, 302.481 910.034, 319.500 905.449 C 330.582 902.464, 360.842 896.336, 369 895.425 C 372.025 895.087, 375.625 894.616, 377 894.377 C 378.375 894.139, 387.573 893.971, 397.440 894.003 C 432.222 894.119, 449.886 898.483, 473.152 912.709 C 477.911 915.619, 482.045 918, 482.339 918 C 483.172 918, 482.414 811.714, 481.566 809.785 C 480.415 807.165, 470.843 801.217, 460.657 796.792 C 443.064 789.148, 415.295 785.632, 391.500 788.034 M 820 788.762 C 820 790.072, 821.607 790.973, 826.250 792.268 C 833.270 794.225, 847.816 797.632, 852.748 798.474 C 858.604 799.473, 879.854 804.380, 892.066 807.554 C 899.181 809.403, 899 809.428, 899 806.579 C 899 804.655, 898.333 804.019, 895.750 803.476 C 893.962 803.101, 885.750 801.226, 877.500 799.310 C 869.250 797.394, 858.675 794.997, 854 793.983 C 815.986 785.738, 820 786.354, 820 788.762 M 544 788.955 C 524.258 791.845, 503.350 799.917, 496.023 807.476 L 492.736 810.868 492.618 864.434 C 492.553 893.895, 492.605 917.999, 492.732 918 C 492.860 918, 495.872 916.221, 499.425 914.046 C 502.978 911.871, 508.273 908.856, 511.192 907.345 C 537.838 893.553, 572.052 890.474, 614.500 898.046 C 626.973 900.272, 625.941 900.055, 640 903.408 C 653.456 906.618, 669.133 909.591, 680.300 911.051 C 690.386 912.369, 705.386 912.015, 706.980 910.420 C 707.753 909.647, 701.015 895.149, 683.280 859.420 L 658.500 809.500 635.500 801.839 C 601.290 790.443, 592.867 788.743, 569 788.417 C 558.275 788.270, 547.025 788.512, 544 788.955 M 733.235 790.548 C 732.019 791.400, 729.332 792.718, 727.262 793.478 C 725.193 794.237, 724.302 794.891, 725.283 794.930 C 727.075 795, 737 790.387, 737 789.483 C 737 788.564, 735.436 789.006, 733.235 790.548 M 657.871 792.295 L 655.242 793.500 657.274 795.500 C 658.392 796.600, 658.927 796.825, 658.462 796 C 657.710 794.667, 657.832 794.667, 659.558 796 C 660.626 796.825, 661.983 798.115, 662.572 798.867 C 663.475 800.018, 664.121 799.989, 666.645 798.683 C 668.296 797.830, 670.230 796.427, 670.945 795.566 C 672.062 794.220, 671.911 793.995, 669.872 793.965 C 668.568 793.945, 666.375 793.286, 665 792.500 C 661.974 790.770, 661.244 790.749, 657.871 792.295 M 543.500 805.095 C 536.248 806.221, 527.156 809.107, 525.830 810.704 C 523.978 812.936, 526.158 814.270, 529.551 812.981 C 534.480 811.107, 550.886 808.999, 565.750 808.330 C 575.998 807.869, 580 807.344, 580 806.461 C 580 804.181, 555.338 803.258, 543.500 805.095 M 797.390 815.919 C 790.179 821.739, 780.279 829.641, 775.390 833.481 C 764.815 841.785, 760 846.042, 760 847.089 C 760 847.511, 762.362 848.347, 765.250 848.947 C 780.546 852.123, 787.024 853.415, 803 856.475 C 812.625 858.319, 831.300 861.921, 844.500 864.481 C 886.271 872.581, 895.332 874.134, 897.567 873.573 C 898.800 873.263, 906.148 865.318, 914.503 855.263 C 922.619 845.493, 931.114 835.298, 933.380 832.607 C 939.143 825.762, 940.306 824, 939.057 824 C 938.476 824, 938 824.420, 938 824.933 C 938 825.446, 937.212 826.123, 936.250 826.439 C 934.676 826.955, 927.545 834.779, 904.750 861 C 894.740 872.514, 898.768 872.444, 845.500 862.027 C 831.200 859.231, 810.950 855.366, 800.500 853.437 C 780.194 849.691, 775.796 848.590, 772.250 846.365 C 769.354 844.549, 769.412 843.432, 772.505 841.405 C 774.234 840.272, 775.396 840.073, 776.255 840.765 C 776.940 841.315, 787.625 843.638, 800 845.927 C 812.375 848.215, 837.776 853.007, 856.446 856.576 C 875.116 860.144, 890.937 862.855, 891.602 862.599 C 893.153 862.004, 912 839.552, 912 838.300 C 912 837.782, 902.663 835.205, 891.250 832.575 C 858.513 825.029, 821.711 816.045, 819.250 814.999 C 815.738 813.506, 816.606 812.170, 820.750 812.690 C 825.487 813.284, 829.739 814.183, 866.500 822.356 C 883 826.025, 899.425 829.676, 903 830.469 C 914.467 833.014, 917 833.307, 917 832.087 C 917 831.462, 915.763 830.476, 914.250 829.896 C 910.939 828.625, 885.047 822.337, 861 816.962 C 851.375 814.811, 838.775 811.945, 833 810.592 C 827.225 809.239, 819.800 807.504, 816.500 806.736 L 810.500 805.339 797.390 815.919 M 553.250 817.723 C 550.888 818.017, 550 818.637, 550 819.994 C 550 822.398, 551.405 822.568, 568.250 822.197 C 580.826 821.920, 582 821.737, 582 820.054 C 582 819.042, 581.288 817.941, 580.418 817.607 C 578.735 816.961, 558.702 817.047, 553.250 817.723 M 587.384 819.442 C 587.037 820.346, 587.003 821.336, 587.308 821.641 C 588.360 822.693, 613.502 825.767, 614.383 824.952 C 617.367 822.189, 610.386 819.866, 594.757 818.421 C 589.054 817.893, 587.918 818.051, 587.384 819.442 M 536.769 820.074 C 535.267 820.483, 532.326 821.056, 530.234 821.349 C 525.927 821.951, 512.456 827.144, 510.734 828.866 C 509.889 829.711, 509.909 830.309, 510.814 831.214 C 511.766 832.166, 512.726 832.150, 515.264 831.142 C 521.788 828.551, 534.766 825.045, 540.203 824.406 C 546.809 823.630, 548.508 822.766, 547.679 820.607 C 547.027 818.906, 541.971 818.659, 536.769 820.074 M 947.500 830.349 C 943.100 835.839, 934.935 845.831, 929.356 852.552 C 923.777 859.274, 916.980 867.637, 914.252 871.137 C 909.494 877.242, 909.346 877.622, 910.601 880.500 C 911.444 882.433, 911.926 888.035, 911.955 896.250 C 911.980 903.263, 912.337 908.997, 912.750 908.993 C 913.163 908.990, 916.650 904.871, 920.500 899.841 C 924.350 894.811, 932.600 884.413, 938.833 876.734 C 957.988 853.137, 957.021 854.926, 956.876 843.381 C 956.807 837.946, 956.470 830.545, 956.126 826.934 L 955.500 820.367 947.500 830.349 M 677.227 823.711 C 677.167 825.845, 683.298 839.190, 696.958 866.654 C 720.342 913.667, 723.834 920.039, 729.479 926 C 735.767 932.640, 736.009 935.925, 730.643 941.812 L 728.535 944.123 731.458 943.593 C 735.388 942.881, 738.106 939.963, 738.209 936.347 C 738.262 934.473, 736.069 929.328, 732.279 922.437 C 728.970 916.422, 723.001 905.200, 719.015 897.500 C 701.276 863.240, 695.337 851.701, 689.418 840 C 685.941 833.125, 681.795 825.951, 680.206 824.058 L 677.315 820.615 677.227 823.711 M 295.090 825.134 C 293.929 826.380, 289.197 834.398, 284.576 842.950 C 279.955 851.503, 274.957 860.750, 273.471 863.500 C 271.985 866.250, 268.965 871.875, 266.760 876 C 246.658 913.614, 239.362 927.005, 237.352 929.982 C 234.546 934.136, 234.478 935.120, 236.705 939.300 L 238.411 942.500 239.185 936.627 C 239.610 933.397, 240.457 930.155, 241.065 929.421 C 241.674 928.688, 241.839 927.548, 241.432 926.889 C 240.966 926.136, 241.115 925.953, 241.833 926.397 C 243.378 927.352, 247.081 923.650, 251.230 917 C 255.032 910.906, 271.530 879.190, 285.245 851.607 C 297.690 826.579, 300.311 819.529, 295.090 825.134 M 383.509 828.903 C 379.937 829.330, 378.427 829.977, 378.199 831.178 C 377.973 832.372, 378.691 832.949, 380.691 833.178 C 385.514 833.731, 404.462 831.734, 405.250 830.589 C 405.769 829.835, 406.271 829.920, 406.880 830.864 C 407.488 831.807, 411.489 832.488, 419.839 833.068 C 434.682 834.099, 446.074 836.168, 456.270 839.682 C 462.077 841.683, 464.327 842.073, 465.178 841.222 C 468.796 837.604, 455.038 832.382, 434.500 829.580 C 424.443 828.209, 392.820 827.788, 383.509 828.903 M 545.356 831.072 C 537.178 832.049, 520.017 836.130, 514.638 838.378 C 512.040 839.463, 511 840.518, 511 842.066 C 511 843.685, 511.443 844.086, 512.750 843.651 C 533.115 836.881, 545.998 835.097, 572 835.446 C 593.294 835.732, 604.170 836.895, 620.791 840.665 C 626.344 841.924, 628.360 842.040, 629.248 841.152 C 631.920 838.480, 627.907 837.052, 606.500 833.058 C 591.354 830.233, 560.718 829.238, 545.356 831.072 M 361.256 831.975 C 354.822 833.502, 353.087 837.753, 359.365 836.608 C 361.089 836.293, 364.300 835.790, 366.500 835.489 C 373.491 834.532, 375 833.998, 375 832.481 C 375 831.348, 373.766 831.024, 369.750 831.102 C 366.863 831.159, 363.040 831.551, 361.256 831.975 M 646.500 833.155 C 641.494 835.893, 640.722 839.813, 644.455 843.545 C 647.463 846.554, 653.567 846.939, 655.608 844.250 C 657.903 841.226, 657.313 836.391, 654.365 834.073 C 651.429 831.763, 649.464 831.534, 646.500 833.155 M 325 838.868 C 316.114 840.874, 315 841.465, 315 844.166 C 315 845.668, 315.445 846.043, 316.670 845.573 C 318.209 844.983, 324.708 843.392, 329.500 842.434 C 336.047 841.124, 337.625 840.668, 338.750 839.762 C 342.673 836.602, 336.742 836.216, 325 838.868 M 381.500 840.595 C 380.950 840.770, 375.100 841.619, 368.500 842.481 C 350.864 844.786, 340.877 846.481, 328 849.357 C 313.679 852.554, 307.327 854.705, 306.598 856.604 C 305.631 859.125, 308.715 859.295, 316.754 857.162 C 332.865 852.888, 362.608 847.526, 378.500 846.032 C 391.103 844.847, 418.614 845.596, 430.413 847.446 C 443.144 849.442, 444 849.421, 444 847.119 C 444 845.712, 442.803 844.931, 439.250 844.022 C 434.563 842.823, 433.303 842.632, 419.500 841.022 C 412.860 840.247, 383.628 839.919, 381.500 840.595 M 550 843.202 C 540.007 844.224, 527.115 846.809, 518.513 849.517 C 512.983 851.257, 511.432 852.176, 511.180 853.862 C 510.768 856.622, 512.002 856.588, 521.698 853.576 C 536.721 848.909, 547.751 847.564, 570.750 847.594 C 590.604 847.620, 592 847.503, 592 845.811 C 592 844.802, 591.225 843.944, 590.250 843.872 C 589.288 843.802, 587.375 843.584, 586 843.388 C 580.494 842.602, 557.047 842.481, 550 843.202 M 594.667 844.667 C 593.018 846.316, 594.331 847.820, 598.250 848.773 C 600.587 849.341, 608.350 850.797, 615.500 852.007 C 622.650 853.217, 636.150 856.159, 645.500 858.545 C 662.046 862.766, 666.527 863.030, 662.957 859.576 C 661.698 858.357, 651.210 854.869, 641.500 852.438 C 639.850 852.025, 638.050 851.568, 637.500 851.422 C 634.034 850.503, 615.123 846.695, 608 845.482 C 598.498 843.864, 595.644 843.690, 594.667 844.667 M 558.881 856.426 C 558.671 856.621, 555.575 857.003, 552 857.275 C 544.460 857.849, 539.653 859.480, 540.267 861.256 C 540.578 862.156, 543.018 862.397, 549.098 862.127 C 553.719 861.922, 559.701 861.697, 562.390 861.627 C 565.807 861.538, 567.604 860.987, 568.355 859.798 C 568.946 858.862, 569.218 857.885, 568.960 857.626 C 568.358 857.025, 559.386 855.956, 558.881 856.426 M 395.689 857.603 C 395.585 857.685, 389.501 858.060, 382.169 858.438 C 374.838 858.816, 368.313 859.292, 367.669 859.497 C 367.026 859.701, 364.025 860.132, 361 860.453 C 345.563 862.095, 304.354 870.427, 300.796 872.626 C 299.772 873.259, 299.765 875.737, 300.784 876.367 C 301.215 876.633, 304.703 875.974, 308.534 874.903 C 312.365 873.831, 319.100 872.308, 323.500 871.517 C 327.900 870.727, 336.450 869.188, 342.500 868.098 C 366.071 863.849, 376.945 862.808, 399.500 862.637 C 414.416 862.523, 417.500 862.254, 417.500 861.064 C 417.500 860.274, 416.150 859.297, 414.500 858.894 C 411.916 858.262, 396.223 857.185, 395.689 857.603 M 429.035 859.934 C 427.539 862.730, 427.754 864.467, 429.829 866.345 C 433.303 869.489, 440 867.526, 440 863.363 C 440 859.812, 437.973 858, 434 858 C 431.138 858, 429.789 858.526, 429.035 859.934 M 532.500 860.493 C 531.950 860.690, 527.703 862.014, 523.061 863.435 C 514.577 866.031, 510 868.302, 510 869.916 C 510 871.493, 512.970 871.963, 515.759 870.828 C 517.266 870.214, 522.550 868.480, 527.500 866.974 C 534.614 864.810, 536.500 863.848, 536.500 862.382 C 536.500 860.610, 534.634 859.729, 532.500 860.493 M 770.351 863.527 C 770.029 864.367, 769.947 870.896, 770.170 878.036 C 770.532 889.667, 770.797 891.241, 772.715 893.160 C 774.382 894.827, 779.907 896.379, 797.678 900.172 C 831.805 907.457, 833.756 907.857, 843.500 909.563 C 848.450 910.431, 855.425 911.771, 859 912.543 C 862.575 913.314, 868.425 914.408, 872 914.973 C 875.575 915.538, 880.709 916.675, 883.409 917.500 C 886.109 918.325, 889.570 919, 891.100 919 C 892.630 919, 894.179 919.481, 894.542 920.068 C 894.905 920.656, 895.777 920.916, 896.479 920.646 C 897.182 920.377, 898.222 920.622, 898.791 921.191 C 901.330 923.730, 901.998 920.597, 901.882 906.691 C 901.817 898.886, 901.479 891.172, 901.130 889.549 C 900.334 885.835, 899.208 885.497, 867.500 879.464 C 826.916 871.741, 796.943 865.955, 787.045 863.932 C 775.513 861.575, 771.141 861.469, 770.351 863.527 M 451.641 867.492 C 451.264 868.476, 452.145 869.541, 454.227 870.618 C 455.965 871.516, 458.808 873.050, 460.546 874.026 C 462.561 875.158, 464.211 875.485, 465.103 874.929 C 467.093 873.687, 465.272 871.125, 460.419 868.338 C 455.846 865.711, 452.450 865.384, 451.641 867.492 M 784.667 868.667 C 783.417 869.916, 783.995 873.784, 785.519 874.369 C 786.355 874.690, 793.837 876.352, 802.147 878.063 C 816.018 880.919, 817.386 881.042, 818.861 879.568 C 822.102 876.326, 819.175 874.712, 803.896 871.315 C 788.899 867.982, 785.781 867.552, 784.667 868.667 M 374 870.680 C 367.696 871.328, 366 871.991, 366 873.807 C 366 875.458, 367.635 875.556, 390.667 875.288 C 404.233 875.129, 415.539 874.794, 415.790 874.543 C 417.306 873.027, 414.542 871.223, 409.839 870.659 C 404.420 870.008, 380.398 870.022, 374 870.680 M 353.917 873.380 C 353.688 873.590, 350.727 874.048, 347.337 874.400 C 336.302 875.544, 308.395 881.099, 298.250 884.171 C 293.592 885.581, 293.826 890.100, 298.500 889.002 C 299.050 888.873, 303.775 887.684, 309 886.360 C 314.225 885.037, 320.075 883.712, 322 883.417 C 339.139 880.792, 361.665 876.646, 362.363 875.988 C 363.978 874.465, 361.892 873, 358.108 873 C 356.032 873, 354.146 873.171, 353.917 873.380 M 828.988 878.022 C 827.015 881.708, 829.625 882.941, 846.112 886.115 C 854.576 887.744, 868.885 890.656, 877.910 892.584 C 886.936 894.513, 894.953 895.848, 895.727 895.551 C 896.587 895.221, 897.011 893.940, 896.817 892.256 C 896.510 889.588, 896.117 889.417, 884.500 886.905 C 877.900 885.478, 863.820 882.618, 853.211 880.551 C 842.602 878.484, 833.078 876.572, 832.047 876.302 C 830.810 875.979, 829.768 876.565, 828.988 878.022 M 783.067 884.874 C 782.309 886.291, 782.483 887.115, 783.782 888.252 C 785.523 889.776, 801.640 893.910, 823.500 898.438 C 830.100 899.805, 846.300 903.214, 859.500 906.014 C 896.484 913.857, 894.832 913.597, 896.569 911.860 C 897.408 911.020, 897.791 909.618, 897.434 908.688 C 896.571 906.440, 894.855 906.008, 845 895.481 C 830.425 892.404, 811.525 888.336, 803 886.442 C 784.988 882.440, 784.395 882.394, 783.067 884.874 M 375 903.459 C 363.554 904.972, 350.232 907.643, 322.500 913.986 C 292.844 920.768, 274.476 922.648, 264.612 919.909 C 261.552 919.060, 260.548 919.113, 259.903 920.156 C 259.452 920.886, 259.464 921.864, 259.928 922.328 C 262.253 924.653, 316.460 923.733, 320.282 921.304 C 320.952 920.879, 321.725 920.490, 322 920.441 C 322.275 920.391, 324.750 920.010, 327.500 919.594 C 330.250 919.178, 333.850 918.449, 335.500 917.973 C 337.150 917.497, 339.850 916.887, 341.500 916.616 C 343.150 916.346, 348.100 915.464, 352.500 914.657 C 356.900 913.850, 362.750 912.927, 365.500 912.607 C 368.250 912.286, 374.500 911.548, 379.388 910.967 C 404.567 907.972, 432.938 912.438, 453.192 922.585 C 458.311 925.149, 463.770 928.146, 465.322 929.243 C 468.063 931.181, 468.257 931.188, 472.072 929.468 C 474.232 928.493, 476 927.354, 476 926.935 C 476 925.523, 467.575 919.963, 459.509 916.050 C 450.059 911.467, 435.490 906.586, 425 904.488 C 414.123 902.314, 387.773 901.771, 375 903.459 M 565 902.708 C 548.795 904.082, 533.790 907.818, 520.500 913.786 C 512.018 917.594, 498.994 925.438, 499.008 926.730 C 499.013 927.153, 500.831 928.485, 503.048 929.689 L 507.080 931.877 513.649 927.285 C 523.641 920.300, 532.288 917.111, 553.982 912.412 C 565.413 909.935, 580.188 909.599, 595.500 911.465 C 609.023 913.114, 613.120 913.875, 638.014 919.366 C 644.347 920.763, 653.122 922.238, 657.514 922.644 C 666.854 923.508, 712.656 923.677, 713.483 922.850 C 713.793 922.540, 713.765 921.550, 713.419 920.650 C 712.946 919.417, 712.141 919.197, 710.146 919.757 C 708.691 920.166, 701.200 920.456, 693.500 920.402 C 677.233 920.288, 660.819 917.720, 627 909.998 C 615.175 907.298, 601.675 904.630, 597 904.069 C 587.777 902.962, 570.609 902.232, 565 902.708 M 374.500 926.019 C 369.550 926.414, 355.375 927.791, 343 929.079 C 324.049 931.051, 314.940 931.427, 285.250 931.460 C 251.222 931.499, 245.480 932.027, 254.068 934.328 C 257.395 935.219, 364.045 934.512, 372.500 933.543 C 374.700 933.290, 388.875 933.031, 404 932.967 C 431.185 932.851, 443.440 933.701, 455.897 936.568 C 459.415 937.377, 462.472 937.861, 462.690 937.644 C 463.479 936.854, 455.512 932.822, 448.530 930.478 C 434.067 925.623, 402.953 923.749, 374.500 926.019 M 552 925.664 C 534.477 927.710, 517.175 932.874, 513.387 937.189 C 511.531 939.304, 511.532 939.326, 513.500 938.526 C 517.515 936.895, 531.080 934.214, 538.466 933.593 C 550.619 932.571, 587.004 932.784, 616.968 934.052 C 645.968 935.279, 722.293 935.040, 723.616 933.718 C 724.037 933.297, 723.733 932.308, 722.940 931.521 C 721.827 930.414, 720.593 930.300, 717.500 931.021 C 712.187 932.258, 671.471 932.246, 651.959 931.001 C 643.411 930.456, 627.436 929.089, 616.459 927.964 C 597.969 926.068, 560.109 924.718, 552 925.664 M 460.495 956.251 C 460.855 958.038, 462.265 960.513, 463.630 961.750 C 466.041 963.936, 466.718 964, 487.306 963.985 C 510.956 963.969, 512.796 963.564, 514.656 957.974 C 516.167 953.431, 514.525 951.442, 512.155 954.946 C 508.087 960.958, 507.447 961.349, 500.392 962.132 C 491.862 963.079, 477.776 963.189, 472.686 962.348 C 470.441 961.977, 467.697 960.543, 466.017 958.864 C 464.059 956.905, 462.984 956.400, 462.591 957.255 C 462.276 957.940, 462.253 957.541, 462.539 956.368 C 462.878 954.980, 462.499 954.022, 461.451 953.619 C 460.103 953.102, 459.948 953.529, 460.495 956.251 M 437 966.368 C 437 967.508, 438.010 967.854, 440.988 967.735 C 445.469 967.556, 445.135 966.555, 440.250 965.526 C 437.704 964.989, 437 965.172, 437 966.368" stroke="none"  fill-rule="evenodd"/></svg>