<?xml version="1.0" standalone="no"?>
<!DOCTYPE svg PUBLIC "-//W3C//DTD SVG 20010904//EN"
 "http://www.w3.org/TR/2001/REC-SVG-20010904/DTD/svg10.dtd">
<svg version="1.0" xmlns="http://www.w3.org/2000/svg"
 width="2691.000000pt" height="2825.000000pt" viewBox="0 0 2691.000000 2825.000000"
 preserveAspectRatio="xMidYMid meet">

<g transform="translate(0.000000,2825.000000) scale(0.100000,-0.100000)"
 stroke="none">
<path d="M10201 28240 c-280 -40 -1024 -220 -1251 -303 -306 -112 -850 -378
-1180 -577 -170 -102 -223 -130 -246 -130 -9 0 -45 17 -78 39 -94 59 -217 118
-319 154 l-92 31 -225 1 c-266 0 -294 -6 -475 -94 -156 -77 -261 -148 -359
-241 -145 -139 -261 -301 -372 -520 -48 -95 -57 -121 -78 -244 -14 -76 -26
-139 -28 -141 -2 -2 -65 -8 -141 -14 -232 -19 -360 -52 -533 -137 -171 -85
-353 -245 -451 -396 -90 -139 -182 -373 -203 -518 -6 -41 -14 -91 -16 -110 -5
-29 -29 -58 -138 -165 -73 -71 -151 -159 -175 -195 -97 -149 -189 -375 -211
-515 -5 -39 -14 -171 -19 -295 -5 -124 -12 -232 -15 -241 -4 -8 -28 -23 -55
-33 -63 -22 -239 -120 -365 -203 -330 -215 -546 -645 -546 -1084 0 -127 19
-247 62 -388 l32 -104 -25 -19 c-13 -11 -61 -53 -106 -94 -243 -221 -408 -579
-430 -934 -15 -245 100 -592 274 -825 78 -104 298 -327 393 -399 36 -27 85
-58 110 -70 69 -33 71 -35 60 -56 -5 -10 -53 -69 -106 -132 -151 -179 -221
-305 -278 -501 -89 -307 -36 -645 139 -893 63 -88 239 -250 340 -313 105 -66
229 -114 386 -150 65 -15 121 -30 124 -33 4 -4 20 -75 36 -158 48 -252 102
-437 162 -555 106 -211 352 -485 556 -620 135 -89 137 -91 145 -224 8 -128 33
-224 85 -336 101 -214 271 -397 461 -496 44 -22 95 -57 114 -77 33 -33 48 -60
124 -222 49 -103 110 -189 197 -276 163 -164 363 -268 628 -326 144 -31 454
-32 601 -1 91 20 103 20 154 7 60 -16 249 -110 297 -148 25 -20 27 -26 16 -39
-20 -25 -178 -124 -426 -267 -740 -428 -1042 -645 -1370 -981 -244 -250 -422
-488 -733 -979 -112 -177 -143 -217 -160 -206 -6 3 -31 41 -58 83 -66 109
-142 200 -207 252 l-55 44 35 76 c86 187 90 223 97 846 l5 461 65 115 c163
292 190 366 189 509 -1 187 -77 327 -225 413 -76 45 -157 60 -293 54 -143 -7
-210 -24 -328 -83 -48 -24 -91 -44 -96 -44 -4 0 -23 73 -40 163 -65 331 -131
537 -227 715 -123 226 -335 431 -481 463 -168 38 -404 -95 -497 -280 -49 -96
-71 -186 -86 -346 -7 -71 -14 -132 -16 -134 -3 -3 -39 29 -82 71 -153 150
-215 185 -384 214 -74 13 -102 13 -160 4 -203 -35 -353 -192 -404 -424 -13
-64 -16 -108 -11 -220 7 -154 45 -402 82 -530 13 -44 21 -83 19 -85 -8 -8 -76
29 -219 119 -276 173 -362 217 -454 234 -236 45 -365 -3 -461 -170 -53 -92
-70 -161 -70 -284 l0 -95 60 -124 c103 -213 257 -419 484 -649 96 -97 152
-145 208 -178 59 -35 105 -75 202 -178 l125 -133 46 -161 c83 -295 157 -457
261 -577 81 -92 161 -169 223 -213 25 -18 47 -36 49 -40 1 -4 -35 -27 -80 -52
-45 -25 -118 -72 -163 -105 -44 -33 -110 -80 -148 -104 -102 -66 -239 -239
-315 -399 -57 -120 -56 -170 12 -428 31 -118 30 -124 -45 -234 -25 -36 -53
-90 -62 -121 -17 -52 -17 -59 -1 -105 43 -128 196 -459 404 -874 155 -310 367
-747 667 -1375 457 -957 655 -1338 803 -1548 81 -114 290 -327 431 -438 59
-46 166 -119 238 -163 72 -43 161 -101 197 -130 37 -28 73 -55 80 -61 9 -6 20
-3 37 13 28 26 46 27 115 7 75 -23 292 -43 582 -56 140 -6 325 -14 410 -17
l155 -7 -85 -34 c-240 -97 -378 -168 -458 -237 -76 -65 -230 -316 -480 -784
-66 -124 -229 -430 -362 -680 -134 -250 -394 -734 -578 -1075 -392 -725 -578
-1087 -615 -1203 -29 -89 -46 -222 -47 -364 0 -106 10 -138 45 -138 14 0 77
-27 141 -61 64 -33 149 -69 188 -79 187 -47 541 -57 2506 -70 1840 -12 3467
-28 3833 -39 l258 -8 35 -34 c20 -19 55 -62 79 -95 61 -84 120 -134 225 -189
168 -86 175 -87 741 -93 1029 -9 1203 24 1395 263 40 49 87 96 106 106 48 25
170 47 323 59 73 6 740 15 1515 20 2492 16 4433 58 4708 101 129 20 243 80
288 151 66 102 112 314 93 428 -12 79 -88 227 -756 1475 -171 319 -466 873
-656 1230 -190 358 -399 751 -466 873 -67 123 -121 227 -121 231 0 4 60 13
133 20 256 25 567 84 977 186 636 159 882 277 1166 560 193 192 323 402 410
661 53 160 74 277 81 465 14 386 -67 740 -256 1117 -259 517 -674 1232 -1276
2198 -659 1055 -1216 1878 -1504 2219 -347 411 -811 779 -1391 1105 -91 51
-176 100 -190 110 -14 10 -137 77 -274 149 -277 147 -386 209 -386 221 0 22
188 143 253 162 31 9 55 8 120 -5 126 -26 229 -30 391 -18 433 35 663 127 882
353 91 94 153 188 209 316 55 128 91 178 157 221 164 106 199 133 268 201 208
206 310 437 310 706 l0 91 88 58 c319 211 494 400 623 669 77 161 125 326 179
608 16 84 36 103 127 123 231 51 469 181 632 346 212 214 313 501 282 797 -24
230 -92 423 -198 559 -26 33 -94 111 -150 172 -57 61 -103 115 -103 120 0 5
39 37 88 72 306 223 460 394 591 656 166 333 192 637 82 972 -85 259 -220 459
-421 626 -83 69 -80 45 -24 250 37 138 38 143 38 325 1 143 -3 204 -17 270
-52 241 -153 455 -284 600 -135 151 -438 345 -615 395 l-67 19 -5 81 c-3 44
-10 184 -15 310 -13 274 -25 333 -96 481 -65 133 -141 238 -278 382 -105 110
-147 175 -147 228 0 40 -33 171 -68 276 -151 441 -562 767 -1032 817 -52 6
-134 13 -181 17 l-86 6 -22 102 c-69 312 -193 539 -416 761 -126 127 -229 202
-370 273 -174 87 -327 117 -548 109 -216 -7 -373 -56 -572 -176 -101 -60 -102
-60 -182 -3 -134 97 -599 364 -788 453 -133 63 -444 185 -617 243 -437 147
-855 231 -1273 256 -231 14 -915 21 -994 10z m770 -330 c647 -29 1143 -134
1722 -364 358 -142 602 -267 863 -442 88 -58 178 -115 201 -126 76 -36 123
-109 123 -195 0 -52 -27 -177 -64 -296 -35 -114 -50 -172 -61 -239 -10 -61
-29 -53 -179 76 -399 340 -1351 662 -2181 736 -311 28 -1030 22 -1335 -11
-120 -13 -537 -82 -693 -115 -423 -89 -969 -309 -1280 -514 -69 -45 -147 -110
-214 -176 -58 -57 -109 -104 -114 -104 -27 0 -179 548 -179 647 0 39 18 62
107 133 267 215 673 438 1118 615 588 234 1180 361 1760 378 50 2 113 4 140 5
28 1 147 -3 266 -8z m-3976 -795 c76 -20 156 -68 196 -118 17 -21 29 -40 27
-42 -2 -2 -26 3 -53 11 -137 42 -316 57 -410 33 -58 -15 -95 -49 -95 -88 0
-39 22 -51 74 -39 90 21 243 -15 293 -69 25 -26 38 -33 54 -28 46 15 81 -62
38 -85 -11 -6 -81 -18 -155 -26 -141 -14 -187 -28 -218 -62 -25 -28 -33 -104
-13 -120 8 -7 72 -19 143 -27 71 -8 158 -25 192 -36 78 -26 170 -94 235 -174
46 -56 97 -150 97 -178 0 -9 -41 -19 -132 -31 -237 -31 -443 -85 -536 -139
-161 -92 -369 -298 -438 -431 -39 -75 -61 -106 -76 -106 -5 0 -19 24 -32 53
-80 181 -74 393 17 573 70 139 165 241 327 352 102 70 120 88 120 121 0 15
-14 47 -30 69 -26 37 -35 42 -68 42 -45 0 -99 -24 -194 -86 -220 -141 -316
-255 -424 -503 l-32 -74 -17 54 c-38 120 -29 321 22 484 94 301 391 576 713
659 116 30 282 35 375 11z m7894 -20 c303 -83 518 -265 652 -549 66 -142 84
-222 83 -376 0 -90 -5 -150 -15 -179 l-15 -45 -42 89 c-107 222 -306 416 -515
503 -42 18 -83 32 -92 32 -20 0 -58 -41 -79 -85 -15 -31 -15 -38 -2 -63 9 -17
56 -57 108 -93 217 -147 327 -297 379 -517 34 -141 20 -241 -67 -472 -6 -18
-52 53 -103 160 -51 109 -205 257 -373 359 -162 98 -331 147 -555 161 -161 9
-183 14 -183 38 0 37 93 206 139 252 86 86 171 113 413 129 160 11 178 18 178
67 0 45 -30 89 -79 114 -97 49 -374 73 -436 37 -39 -22 -75 -22 -75 0 0 24 92
106 160 142 75 40 160 59 300 67 132 8 160 15 160 44 0 28 -69 75 -131 90 -78
19 -227 8 -324 -24 -132 -43 -183 -30 -114 29 55 45 182 102 269 119 66 13
267 -3 359 -29z m-3684 -235 c348 -29 895 -124 1170 -203 414 -120 932 -367
1111 -529 37 -33 82 -66 100 -74 22 -9 36 -23 40 -40 18 -70 -35 -266 -119
-445 -80 -172 -100 -177 -249 -54 -167 139 -271 178 -317 119 -40 -51 -30 -81
55 -159 194 -177 214 -199 214 -237 0 -48 -80 -169 -140 -211 -49 -34 -116
-16 -237 66 -146 98 -827 298 -1193 351 -336 48 -1040 72 -1367 46 -334 -26
-805 -122 -1133 -230 -164 -54 -310 -115 -458 -189 l-120 -60 -78 91 c-81 95
-144 148 -176 148 -13 0 -18 7 -18 27 0 22 23 50 111 136 139 136 166 193 102
218 -77 29 -152 -7 -294 -140 l-106 -100 -91 187 c-50 103 -96 205 -102 226
-27 85 9 219 79 299 52 59 170 131 386 237 328 161 623 270 970 358 309 79
726 155 938 172 141 11 750 5 922 -10z m-5698 -996 c61 -46 40 -66 -129 -126
-371 -130 -600 -314 -742 -595 -125 -250 -126 -475 0 -499 64 -12 82 12 140
179 105 300 257 498 466 607 133 70 310 99 432 71 59 -14 87 -50 166 -212 59
-122 70 -153 59 -160 -16 -9 -68 -20 -209 -43 -283 -45 -513 -186 -677 -414
-60 -83 -96 -172 -126 -312 -25 -114 -31 -158 -28 -214 2 -42 89 -126 130
-126 60 0 98 74 110 217 15 161 58 257 170 376 161 171 375 266 569 254 118
-7 194 -45 267 -135 30 -36 55 -69 55 -72 0 -3 -46 -21 -102 -39 -154 -50
-284 -106 -373 -159 -141 -84 -292 -247 -368 -397 -67 -135 -91 -307 -51 -376
24 -40 71 -58 109 -41 28 13 74 99 100 187 48 169 191 349 353 444 37 22 110
55 162 73 89 30 104 32 230 33 129 0 137 -1 181 -27 45 -26 139 -120 159 -159
14 -25 -14 -42 -115 -69 -260 -69 -400 -143 -541 -285 -83 -83 -164 -229 -164
-294 0 -54 46 -96 105 -96 57 0 101 36 177 142 75 105 161 184 250 227 145 71
332 99 411 61 43 -20 61 -50 72 -115 4 -25 27 -84 51 -132 55 -109 72 -174 53
-194 -8 -8 -71 -22 -144 -34 -153 -23 -193 -33 -260 -68 -73 -37 -114 -71
-136 -113 -22 -44 -24 -74 -6 -109 25 -50 91 -43 193 21 111 70 235 100 324
79 70 -17 117 -74 219 -267 46 -86 107 -195 137 -242 30 -47 54 -95 54 -107 0
-76 -224 -206 -462 -268 -133 -34 -270 -56 -352 -56 -164 1 -431 81 -675 204
-305 153 -443 276 -531 470 -41 90 -59 171 -69 302 -10 128 -19 148 -77 160
-24 4 -37 0 -61 -20 -44 -37 -63 -117 -70 -294 -8 -221 -27 -248 -120 -172
-26 22 -71 56 -99 75 -106 70 -187 198 -199 311 -7 66 8 199 32 284 8 30 35
98 59 151 49 107 53 133 24 149 -33 17 -94 -15 -156 -84 -96 -106 -173 -293
-174 -422 0 -22 -6 -49 -14 -60 -14 -18 -15 -17 -30 17 -31 74 -49 208 -43
334 5 124 8 139 59 266 32 80 33 113 2 143 -8 9 -26 16 -39 16 -55 0 -162
-174 -221 -359 -32 -100 -34 -97 -59 74 -35 246 13 481 138 673 52 79 101 131
196 207 113 89 144 148 201 377 43 172 67 241 112 329 71 139 190 260 352 358
139 85 267 122 413 118 85 -2 106 -5 130 -23z m10781 10 c251 -51 484 -237
614 -490 56 -109 92 -219 117 -365 27 -151 45 -184 151 -274 212 -180 298
-318 366 -584 43 -168 31 -292 -54 -566 l-19 -60 -12 75 c-29 174 -88 328
-159 410 -55 65 -114 87 -146 54 -24 -23 -20 -55 19 -142 74 -170 90 -354 45
-535 -13 -53 -27 -92 -31 -85 -3 7 -10 42 -13 78 -20 186 -123 402 -229 477
-48 34 -111 42 -125 16 -14 -26 -4 -67 51 -195 103 -240 118 -400 52 -545 -46
-102 -199 -233 -271 -233 -29 0 -33 -3 -31 -22 1 -15 -4 -23 -16 -26 -40 -8
-46 12 -45 161 0 78 -4 163 -11 189 -29 123 -78 210 -128 229 -56 21 -69 -15
-78 -206 -8 -181 -21 -253 -59 -332 -62 -128 -182 -234 -426 -372 -326 -185
-660 -271 -943 -242 -124 12 -262 46 -351 85 -129 57 -348 222 -382 288 -15
29 -14 32 16 81 18 29 67 100 109 159 42 59 87 129 102 154 21 40 37 53 100
85 97 50 214 89 264 89 48 0 93 -20 218 -95 111 -66 148 -75 194 -46 60 37 56
96 -9 167 -75 82 -191 131 -392 168 -101 19 -126 30 -126 54 1 26 37 188 62
271 17 57 32 85 63 118 41 43 42 43 111 43 123 0 277 -50 396 -127 70 -46 121
-100 202 -215 85 -122 169 -147 235 -72 66 75 27 189 -114 329 -122 122 -346
264 -442 280 -48 9 -276 66 -282 72 -9 8 155 165 194 186 88 46 318 29 472
-34 220 -92 388 -292 484 -576 33 -100 42 -113 78 -113 40 0 87 34 116 85 39
66 33 133 -24 251 -90 188 -212 341 -346 433 -146 102 -376 201 -464 201 -49
0 -76 20 -66 49 10 34 124 150 169 173 51 26 175 35 276 19 168 -26 310 -101
427 -225 113 -118 168 -233 198 -410 21 -119 31 -148 60 -176 33 -31 67 -21
123 36 l45 44 -6 113 c-14 270 -111 459 -318 616 -161 122 -338 198 -559 240
-108 21 -170 38 -170 48 0 13 116 254 138 287 52 75 67 81 215 80 116 0 142
-3 212 -27 269 -90 499 -337 600 -647 36 -109 59 -156 89 -176 22 -14 28 -14
53 -1 150 78 111 350 -90 619 -71 95 -82 118 -73 152 5 20 2 22 -22 18 -20 -2
-43 7 -82 34 -133 90 -163 109 -310 183 -168 86 -263 127 -316 137 -19 3 -34
9 -34 13 0 15 58 62 86 71 47 14 169 11 252 -6z m-8896 -118 c108 -32 180
-114 250 -281 21 -49 38 -95 38 -102 0 -6 -57 -30 -127 -53 -278 -92 -425
-194 -545 -380 -58 -89 -138 -244 -178 -343 -25 -63 -35 -66 -90 -27 -43 30
-177 175 -214 232 -235 353 59 849 564 953 87 18 245 18 302 1z m7055 -12
c131 -27 272 -111 397 -239 76 -76 119 -139 146 -214 74 -195 44 -399 -83
-567 -69 -91 -210 -194 -234 -171 -3 3 -9 28 -14 54 -12 67 -105 251 -180 356
-70 99 -140 159 -279 242 -114 67 -219 111 -285 120 -102 13 -105 14 -105 43
1 65 107 277 167 334 15 15 53 34 83 42 76 20 289 20 387 0z m-3447 -524 c423
-16 555 -33 885 -116 292 -73 600 -176 743 -248 170 -85 509 -306 669 -435
121 -97 251 -232 321 -334 205 -297 202 -616 -8 -841 -210 -224 -573 -532
-709 -600 -78 -40 -178 -66 -252 -66 -38 0 -69 2 -69 5 0 2 31 64 70 138 116
221 140 318 120 484 -22 183 -67 320 -137 414 l-45 62 33 -24 c182 -126 287
-229 337 -331 18 -37 44 -118 58 -180 14 -62 32 -123 40 -136 47 -72 134 64
134 209 0 220 -206 461 -551 643 -194 102 -557 237 -804 300 -142 36 -345 72
-520 93 -220 26 -910 26 -1110 0 -362 -47 -667 -129 -988 -264 -525 -220 -804
-451 -858 -710 -15 -74 -7 -209 16 -256 39 -82 80 -48 131 107 50 156 86 218
174 306 95 94 284 210 306 187 4 -3 -12 -35 -34 -69 -53 -81 -79 -144 -102
-243 -27 -118 -33 -217 -20 -329 14 -120 39 -205 91 -308 22 -43 39 -83 39
-89 0 -8 -32 -10 -109 -7 -106 3 -110 4 -202 50 -134 67 -379 248 -604 446
-232 206 -314 371 -302 612 11 216 90 370 296 583 261 269 764 567 1226 726
177 61 536 149 805 196 181 32 508 41 930 25z m2864 -180 c246 -63 423 -266
501 -575 84 -331 42 -671 -126 -1024 -79 -166 -171 -302 -285 -421 -124 -129
-280 -238 -306 -212 -11 11 51 93 92 122 66 47 218 247 279 367 52 104 61 157
61 359 0 201 -12 271 -69 397 -87 194 -403 557 -601 693 l-69 47 41 56 c139
192 273 245 482 191z m-6054 -1 c82 -13 156 -46 209 -95 55 -49 95 -117 86
-145 -4 -11 -83 -96 -177 -187 -225 -221 -308 -323 -406 -503 -79 -143 -84
-168 -90 -404 -6 -305 9 -379 108 -526 53 -77 237 -268 353 -365 48 -41 86
-74 83 -74 -2 0 -40 15 -83 33 -394 166 -696 620 -774 1162 -24 172 -3 518 41
642 42 119 201 320 308 387 56 35 132 64 195 75 72 12 74 12 147 0z m2875
-1185 c19 -13 28 -13 46 -3 31 16 329 6 459 -16 320 -53 666 -184 904 -342
134 -89 252 -207 295 -295 31 -63 33 -73 29 -146 -8 -137 -83 -258 -184 -297
-25 -10 -49 -13 -53 -9 -4 5 -22 70 -40 145 -34 147 -74 237 -142 325 -113
147 -320 267 -568 329 -371 94 -918 82 -1245 -27 -108 -36 -294 -122 -362
-168 -182 -123 -262 -236 -343 -481 -41 -125 -61 -159 -95 -159 -44 0 -148 82
-192 151 -34 54 -54 134 -54 213 0 171 80 321 223 418 136 93 488 241 643 272
264 52 351 67 451 76 62 6 122 14 135 20 35 13 66 12 93 -6z m-6865 -580 c30
-28 50 -55 50 -68 0 -29 -41 -52 -120 -66 -138 -25 -407 -182 -564 -330 -170
-160 -192 -141 -62 55 119 178 323 350 500 422 112 45 135 44 196 -13z m7410
21 c106 -24 264 -87 362 -146 125 -75 188 -143 188 -203 0 -33 -62 -96 -94
-96 -13 0 -52 20 -87 45 -107 75 -198 122 -309 159 -395 131 -883 58 -1185
-178 -171 -134 -197 -145 -238 -104 -29 29 -41 95 -27 147 12 47 69 101 185
177 171 112 352 181 530 203 50 6 101 13 115 15 14 3 129 3 255 1 167 -2 251
-8 305 -20z m6651 -15 c129 -40 294 -152 409 -278 70 -76 120 -155 157 -244
14 -35 32 -71 40 -80 8 -9 13 -23 11 -30 -3 -7 -65 46 -149 128 -195 189 -299
256 -535 342 -121 45 -184 72 -184 82 0 13 64 82 84 90 36 15 101 11 167 -10z
m-247 -410 c246 -62 373 -126 491 -246 153 -155 245 -405 248 -674 2 -91 -13
-160 -34 -160 -13 0 -18 13 -34 90 -28 135 -127 313 -231 417 -53 53 -97 74
-116 55 -13 -13 12 -86 76 -227 142 -311 121 -569 -60 -745 l-66 -65 6 43 c24
164 14 275 -40 444 -65 201 -177 388 -295 491 -82 72 -209 154 -333 213 -115
55 -174 73 -238 74 -21 0 -38 4 -38 9 0 23 175 59 295 61 71 1 117 20 133 53
22 46 7 84 -49 124 -28 19 -48 40 -46 46 2 6 19 19 38 29 44 24 91 19 293 -32z
m-13400 16 l39 -16 -44 -23 c-53 -27 -109 -97 -109 -138 0 -51 30 -61 215 -68
90 -4 167 -10 171 -14 15 -14 -22 -37 -129 -82 -236 -99 -344 -163 -468 -282
-193 -184 -285 -395 -312 -712 -7 -83 -18 -156 -24 -162 -18 -18 -71 17 -103
68 -60 94 -97 262 -86 393 10 128 69 294 145 404 33 47 39 84 19 104 -85 85
-357 -345 -358 -565 0 -53 -16 -55 -37 -5 -37 85 -9 370 56 552 103 290 361
480 755 555 90 18 219 13 270 -9z m6519 -75 c29 -11 42 -38 26 -57 -8 -10 -37
-14 -98 -14 -67 0 -102 -6 -156 -26 -153 -56 -186 -66 -193 -59 -15 15 81 75
168 105 19 6 64 23 100 36 70 25 114 30 153 15z m352 -17 c14 -6 13 -10 -7
-31 l-23 -25 61 7 c61 7 134 -7 134 -25 0 -15 -77 -22 -134 -11 -60 11 -101
33 -110 58 -11 27 36 43 79 27z m5515 -368 c123 -36 237 -114 333 -225 60 -70
141 -231 168 -336 30 -110 32 -325 5 -440 -66 -285 -210 -460 -468 -571 -284
-122 -564 -99 -846 68 -148 88 -302 295 -347 469 -14 51 -16 96 -13 229 6 209
20 252 109 334 33 31 67 56 75 56 19 0 19 -74 -1 -177 -62 -326 55 -638 301
-802 112 -75 210 -104 354 -104 211 1 373 66 516 208 89 89 149 193 181 315
23 87 22 253 -1 339 -84 311 -295 472 -621 472 -120 0 -164 -7 -300 -50 -123
-40 -132 -41 -147 -24 -15 18 5 37 127 118 126 83 212 127 268 135 78 13 244
5 307 -14z m-11350 -16 c114 -32 216 -87 287 -153 35 -33 63 -66 63 -75 0 -25
-106 -8 -204 33 -120 50 -188 65 -286 65 -106 0 -181 -18 -285 -70 -145 -71
-248 -189 -300 -343 -47 -142 -44 -338 9 -485 47 -133 91 -231 103 -232 6 0
63 -34 125 -76 183 -124 256 -148 433 -147 183 1 300 43 427 151 163 138 239
277 263 483 3 32 -1 123 -10 210 -24 227 -24 223 2 227 47 7 128 -108 158
-225 19 -74 19 -241 0 -333 -83 -394 -431 -660 -863 -660 -185 0 -332 53 -502
181 -185 140 -294 338 -331 604 -15 109 -2 207 49 361 52 154 110 252 207 349
85 86 150 124 252 150 86 22 305 14 403 -15z m2485 -56 c69 -39 185 -84 300
-114 435 -116 896 -104 1185 31 117 54 158 60 236 33 110 -37 180 -46 421 -51
272 -6 375 2 622 47 154 28 177 30 424 30 282 0 451 11 586 36 126 24 187 16
311 -38 126 -55 198 -80 327 -113 212 -53 443 -80 603 -71 206 11 561 87 780
166 172 62 176 63 201 57 13 -3 59 -37 102 -76 104 -92 207 -161 352 -231 233
-113 431 -169 630 -176 72 -3 140 -7 153 -10 l22 -4 0 -288 c0 -399 26 -603
107 -836 87 -251 201 -436 418 -676 98 -109 161 -196 180 -250 8 -24 29 -124
46 -224 104 -617 211 -963 393 -1265 110 -181 110 -185 71 -521 -148 -1251
-438 -2068 -953 -2680 -107 -128 -344 -356 -472 -456 -718 -558 -1649 -914
-2816 -1078 -294 -42 -477 -56 -864 -66 -476 -14 -863 -1 -1260 40 -337 34
-369 39 -615 87 -750 145 -1250 304 -1740 553 -437 223 -800 483 -1116 799
-312 313 -498 601 -672 1041 -131 332 -248 760 -327 1194 -31 172 -120 789
-120 831 0 42 39 131 107 242 205 338 282 572 383 1160 47 269 66 361 87 411
8 19 65 87 126 151 208 216 372 506 462 816 42 145 82 489 101 858 8 156 -5
138 114 157 190 32 511 156 597 230 18 16 53 33 83 39 65 14 131 56 253 164
106 92 102 91 172 51z m-3545 -161 c0 -5 -20 -67 -45 -138 -89 -259 -98 -483
-29 -760 20 -82 39 -165 41 -182 5 -31 4 -33 -26 -33 -47 0 -129 46 -186 104
-95 99 -135 206 -135 367 0 222 97 421 282 578 79 68 98 80 98 64z m13229
-109 c101 -110 172 -233 195 -336 8 -35 17 -115 21 -178 12 -210 -22 -328
-113 -395 -50 -37 -169 -92 -178 -82 -3 3 11 85 32 184 33 158 37 194 37 323
0 165 -21 284 -78 453 -19 55 -32 104 -29 109 9 15 60 -20 113 -78z m-11816
-384 c26 -57 27 -181 4 -261 -46 -156 -240 -309 -397 -313 -49 -1 -55 1 -55
19 0 14 24 36 80 73 186 123 266 253 280 457 4 50 9 96 11 104 7 22 53 -26 77
-79z m10361 27 c-8 -76 12 -160 60 -264 61 -127 160 -213 320 -274 44 -17 85
-34 89 -39 15 -14 -60 -31 -132 -31 -168 0 -329 110 -415 282 -31 62 -36 81
-36 143 0 76 25 153 69 215 37 52 53 42 45 -32z m-10786 -26 c74 -52 93 -154
43 -232 -52 -82 -198 -168 -287 -169 -76 0 -133 75 -134 175 0 90 79 190 191
240 50 23 146 15 187 -14z m11319 5 c61 -29 138 -102 159 -151 31 -76 9 -170
-49 -208 -97 -64 -219 -23 -312 105 -66 89 -71 146 -18 209 62 73 130 87 220
45z m-13588 -241 c59 -64 121 -163 121 -194 0 -19 -27 -50 -114 -133 -165
-157 -240 -280 -342 -559 -54 -150 -54 -150 -75 19 -30 240 29 507 156 703 48
74 177 209 199 209 7 0 32 -20 55 -45z m15795 -27 c78 -86 165 -204 199 -273
39 -77 67 -229 74 -400 5 -124 3 -157 -10 -187 -27 -64 -31 -60 -97 92 -106
243 -281 473 -419 551 -28 15 -41 30 -41 44 0 38 178 245 211 245 10 0 47 -32
83 -72z m-15326 -402 c99 -50 100 -52 57 -131 -40 -77 -43 -102 -14 -139 17
-22 28 -26 73 -26 44 0 64 7 122 42 84 51 153 78 199 78 64 0 62 -5 -108 -235
-111 -150 -172 -272 -197 -397 -17 -77 -20 -136 -20 -350 0 -187 -3 -259 -12
-264 -29 -18 -147 166 -182 285 -22 75 -20 235 4 401 26 178 26 198 -2 209
-29 11 -75 -3 -104 -30 -40 -37 -97 -213 -123 -379 -13 -75 -13 -184 -2 -252
4 -27 5 -48 2 -48 -3 0 -30 18 -59 39 -67 49 -145 140 -180 211 -26 53 -27 61
-26 210 1 348 92 549 330 732 118 90 142 94 242 44z m14869 13 c60 -29 243
-207 298 -289 71 -107 119 -256 145 -448 9 -70 9 -92 -5 -140 -38 -129 -129
-264 -224 -331 l-61 -42 0 159 c0 242 -41 416 -119 504 -34 38 -42 42 -87 42
l-49 1 -3 -39 c-2 -21 6 -69 18 -107 48 -160 46 -354 -5 -519 -39 -121 -148
-271 -177 -242 -9 9 -9 33 0 102 35 259 25 444 -32 612 -44 129 -98 220 -228
385 -59 76 -106 142 -104 148 1 5 26 9 54 9 41 -1 70 -12 145 -53 110 -59 157
-70 210 -47 68 28 72 89 12 165 -19 24 -35 49 -35 56 0 14 47 52 95 78 42 22
101 21 152 -4z m-2666 -302 c91 -67 187 -137 213 -155 l48 -33 -7 -52 c-11
-77 -54 -207 -71 -214 -24 -9 -78 50 -159 172 -135 203 -236 405 -202 405 7 0
87 -55 178 -123z m-9535 29 c-15 -42 -40 -105 -57 -139 -69 -136 -202 -307
-240 -307 -25 0 -49 82 -56 190 l-5 85 39 18 c21 10 106 67 188 127 82 60 151
107 153 105 2 -1 -8 -37 -22 -79z m-1596 -92 c115 -27 310 -133 310 -169 0
-25 -21 -27 -99 -10 -91 19 -239 19 -311 0 -186 -49 -327 -184 -385 -369 -51
-158 -41 -299 31 -445 43 -88 156 -207 246 -259 129 -76 297 -110 448 -91 159
20 255 68 379 189 95 93 154 181 188 285 23 69 27 97 27 205 1 120 -1 130 -42
261 -24 76 -42 150 -40 165 3 27 7 29 49 32 44 3 49 1 87 -43 75 -85 142 -296
142 -445 0 -286 -180 -580 -441 -724 -182 -100 -533 -125 -732 -53 -163 60
-384 259 -470 426 -56 106 -70 186 -65 348 5 114 10 153 33 223 84 259 230
421 428 475 69 18 137 18 217 -1z m12814 -15 c182 -68 341 -238 413 -444 26
-75 28 -90 27 -235 0 -141 -3 -162 -27 -235 -72 -216 -240 -402 -460 -510 -96
-47 -149 -55 -346 -55 -330 1 -436 46 -633 267 -143 160 -182 267 -182 493 0
259 40 410 126 473 30 22 122 35 132 19 4 -6 -4 -33 -18 -59 -141 -280 -76
-661 153 -894 118 -120 256 -167 456 -156 156 8 367 84 453 162 32 28 48 36
67 33 20 -4 25 -1 25 14 0 10 16 60 36 111 79 205 86 403 17 542 -51 104 -187
233 -316 301 -61 32 -81 37 -156 42 -72 4 -105 0 -199 -23 -148 -37 -159 -27
-51 46 75 51 196 108 263 125 65 17 148 10 220 -17z m-12658 -584 c51 -30 94
-97 94 -146 0 -67 -68 -147 -169 -199 -37 -18 -56 -21 -103 -17 -32 3 -58 2
-58 -1 1 -13 35 -50 56 -60 67 -35 230 -16 314 36 91 56 191 212 210 326 5 33
13 63 18 68 29 29 58 -116 43 -213 -26 -161 -182 -330 -345 -374 -126 -34
-238 -4 -331 90 -92 91 -118 190 -74 281 38 79 225 234 283 234 11 0 39 -11
62 -25z m11929 -12 c4 -10 18 -49 31 -86 66 -193 215 -339 359 -354 67 -7 136
11 166 43 28 30 15 48 -51 68 -26 8 -61 21 -79 30 -76 40 -161 143 -161 197 0
50 102 119 175 119 36 -1 104 -38 154 -85 122 -114 122 -246 0 -360 -74 -69
-126 -90 -229 -90 -76 0 -92 4 -150 33 -133 68 -193 129 -230 237 -25 71 -37
198 -21 238 12 31 26 35 36 10z m1695 -861 c145 -116 257 -247 309 -364 52
-115 66 -189 66 -348 0 -163 -16 -232 -82 -364 -50 -99 -204 -248 -230 -223
-3 4 14 51 40 105 26 53 51 117 56 142 16 81 22 223 12 332 -23 250 -79 361
-304 606 -42 45 -79 92 -83 104 -9 28 21 51 59 45 20 -3 31 2 38 15 9 17 12
17 42 2 18 -9 52 -33 77 -52z m-14694 15 c2 -2 -46 -53 -107 -113 -116 -114
-165 -178 -216 -279 -67 -133 -103 -319 -103 -537 0 -116 2 -138 15 -138 9 0
15 -9 15 -22 0 -13 12 -50 26 -83 65 -151 66 -155 45 -155 -45 0 -178 153
-240 279 -97 192 -98 464 -2 674 57 127 161 255 265 327 75 51 110 61 210 56
48 -3 90 -7 92 -9z m1774 -208 c0 -43 -25 -136 -61 -228 -31 -79 -106 -211
-119 -211 -4 0 -22 55 -40 123 -18 67 -38 137 -46 156 -12 29 -12 37 0 56 30
46 186 134 239 135 24 0 27 -4 27 -31z m12465 -19 c100 -49 197 -135 264 -236
87 -129 114 -263 87 -421 -29 -168 -114 -343 -216 -443 -64 -63 -213 -145
-330 -182 -98 -30 -308 -33 -410 -5 -243 67 -423 234 -543 504 -65 145 -57
260 28 428 50 100 155 227 141 170 -41 -162 -51 -402 -22 -510 51 -187 168
-333 331 -413 91 -45 140 -56 260 -56 188 0 314 53 456 194 97 96 143 175 159
275 32 195 -86 402 -289 509 -108 56 -176 69 -320 62 -151 -8 -150 -2 12 78
214 106 258 111 392 46z m-1430 -20 c144 -72 142 -70 126 -128 -15 -57 -94
-226 -110 -236 -12 -8 -50 70 -94 191 -14 37 -39 106 -56 152 l-31 84 32 -7
c18 -3 78 -29 133 -56z m-12303 17 c82 -32 178 -92 178 -112 0 -18 2 -18 -140
-16 -170 3 -296 -39 -397 -131 -150 -139 -178 -408 -66 -632 87 -173 259 -265
494 -266 281 0 461 124 602 417 35 73 41 97 45 167 4 80 -18 278 -39 343 -13
42 -5 55 25 42 76 -35 155 -291 143 -463 -21 -287 -241 -538 -554 -628 -67
-20 -101 -23 -243 -23 -155 0 -169 2 -226 26 -97 42 -219 126 -282 194 -69 76
-143 211 -173 320 -32 112 -32 270 0 375 60 198 186 346 343 402 74 26 198 20
290 -15z m126 -533 c16 -11 22 -25 22 -53 0 -49 -31 -105 -105 -187 -77 -86
-83 -101 -51 -133 25 -24 28 -25 82 -13 88 18 196 76 253 136 27 29 68 91 92
137 38 74 43 81 49 59 24 -94 -94 -261 -240 -340 -57 -30 -74 -34 -140 -35
-95 0 -159 28 -198 88 -32 48 -33 89 -3 167 54 141 168 224 239 174z m13278
-3 c77 -35 164 -152 164 -221 -1 -90 -130 -210 -228 -210 -73 0 -207 57 -261
111 -77 77 -167 329 -117 329 22 0 35 -23 46 -78 5 -28 21 -71 36 -94 39 -61
143 -161 196 -186 75 -37 205 -26 229 19 13 26 -7 54 -73 103 -77 57 -119 98
-129 125 -12 31 5 86 34 106 28 20 53 19 103 -4z m-12477 -768 c38 -140 83
-483 64 -483 -32 0 -227 155 -283 225 -42 53 -39 83 13 137 49 50 177 158 189
158 4 0 12 -17 17 -37z m11649 -47 c86 -54 124 -86 135 -117 16 -48 -87 -167
-221 -253 -40 -25 -75 -46 -78 -46 -3 0 -4 10 -1 23 5 21 48 298 62 400 3 26
8 47 11 47 2 0 44 -24 92 -54z m-12127 -284 c24 -27 64 -77 89 -111 80 -113
258 -254 380 -300 120 -47 118 -43 196 -318 30 -109 73 -258 96 -332 30 -99
37 -136 28 -145 -33 -33 -278 -12 -455 39 -292 85 -587 352 -750 680 -78 158
-114 276 -130 436 l-7 66 179 15 c98 8 212 16 254 17 l76 1 44 -48z m12844 28
c99 -6 191 -16 204 -21 22 -9 23 -13 17 -77 -32 -325 -144 -552 -390 -790
-239 -231 -541 -362 -835 -362 -142 0 -139 -22 -47 311 44 156 93 328 109 381
l30 96 168 88 c204 105 264 152 350 273 86 119 91 123 159 117 30 -3 136 -10
235 -16z m-12303 -1613 c42 -22 112 -71 155 -109 119 -105 187 -154 286 -205
102 -53 198 -136 180 -154 -17 -17 -292 -5 -373 16 -178 47 -310 150 -388 305
-69 137 -59 209 28 194 19 -4 70 -25 112 -47z m11587 3 c64 -18 66 -48 11
-158 -71 -141 -213 -242 -410 -293 -103 -26 -318 -38 -365 -19 l-30 12 37 32
c20 17 87 61 150 96 153 86 277 171 361 248 38 35 83 70 101 78 37 16 98 18
145 4z m-13772 -594 c73 -56 103 -95 164 -210 148 -280 259 -750 259 -1090 0
-146 -3 -153 -164 -333 -142 -159 -257 -354 -321 -547 -43 -127 -54 -220 -32
-263 26 -49 73 -83 117 -83 32 0 44 7 75 41 34 38 51 70 149 283 62 135 134
243 300 451 89 110 211 264 273 341 166 210 238 266 343 268 87 1 174 -43 206
-106 29 -56 14 -106 -89 -309 -101 -197 -166 -370 -188 -500 -10 -59 -10 -100
-1 -190 7 -63 12 -243 12 -400 0 -256 -2 -292 -21 -359 -56 -204 -169 -356
-396 -532 -56 -43 -123 -99 -148 -124 -39 -38 -45 -47 -34 -60 18 -21 58 -41
102 -49 31 -6 40 -4 55 16 16 19 29 22 88 23 88 1 92 -13 23 -88 -217 -238
-713 -502 -1145 -611 -69 -17 -286 -55 -315 -55 -18 0 -19 11 -19 264 l0 263
78 7 c52 4 94 14 130 32 84 41 75 52 -113 148 -191 96 -297 170 -416 289 -129
128 -199 241 -273 440 -51 137 -85 269 -92 362 -4 44 -12 91 -19 105 -18 35
-93 103 -275 250 -173 139 -459 418 -538 525 -66 88 -120 197 -128 255 -8 58
11 125 43 157 22 23 30 25 88 21 88 -8 168 -49 440 -228 339 -224 405 -252
500 -216 142 55 171 231 86 521 -84 287 -135 606 -113 707 30 133 152 194 271
136 89 -43 236 -218 314 -373 14 -27 46 -111 72 -185 49 -141 110 -272 152
-327 29 -38 81 -57 135 -50 50 7 82 36 105 96 23 58 24 277 4 631 -14 255 -6
499 19 565 21 55 114 135 156 135 12 0 48 -20 81 -44z m3054 -212 c80 -58 166
-164 133 -164 -26 0 -214 166 -214 189 0 21 32 11 81 -25z m9769 13 c0 -13
-14 -37 -32 -54 -33 -32 -207 -137 -214 -130 -2 2 43 50 100 105 107 104 146
125 146 79z m-10027 -19 c12 -6 62 -49 111 -95 150 -141 286 -236 539 -375 70
-39 126 -73 123 -75 -9 -9 -234 18 -306 38 -208 56 -468 246 -540 393 -41 86
1 153 73 114z m10347 -23 c19 -23 -1 -81 -53 -152 -107 -144 -306 -270 -527
-332 -88 -24 -262 -45 -299 -36 l-26 7 25 20 c13 11 112 64 220 118 216 110
355 195 433 268 66 61 110 92 156 108 47 17 56 17 71 -1z m-8705 -1407 c-4
-13 -33 -89 -65 -169 -107 -266 -178 -506 -163 -548 4 -9 54 -66 112 -126 198
-207 561 -616 561 -632 0 -26 -116 -131 -359 -325 -449 -360 -477 -388 -461
-468 19 -99 111 -350 370 -1005 197 -499 784 -1962 1118 -2785 135 -333 301
-742 369 -910 68 -168 122 -314 121 -325 -4 -29 -51 -48 -101 -40 -50 9 -86
44 -121 118 -28 61 -893 2202 -1131 2802 -205 515 -752 1938 -795 2065 -17 52
-32 111 -32 130 -4 104 105 212 532 533 107 80 213 162 235 181 39 34 40 35
24 61 -8 14 -85 103 -170 196 -85 94 -216 244 -291 333 -123 144 -137 165
-138 199 0 47 25 123 94 279 59 134 83 204 73 215 -4 3 -73 -26 -155 -66 -299
-147 -680 -369 -993 -577 -241 -161 -276 -175 -234 -95 58 114 550 429 1275
818 347 186 337 182 325 141z m7357 -108 c457 -230 875 -472 1160 -670 127
-88 272 -219 251 -227 -18 -7 -137 57 -378 202 -420 253 -1005 575 -1043 575
-26 0 -3 -75 103 -329 l67 -160 -68 -88 c-92 -119 -200 -247 -309 -368 -152
-168 -225 -255 -238 -282 -11 -24 -8 -29 34 -67 25 -23 119 -92 209 -155 290
-203 497 -388 540 -483 16 -36 16 -46 4 -97 -29 -125 -158 -483 -259 -721 -31
-74 -70 -173 -87 -220 -40 -115 -329 -835 -527 -1317 -186 -453 -306 -759
-543 -1388 -215 -570 -339 -882 -443 -1112 -109 -242 -127 -271 -179 -293 -40
-18 -166 -38 -166 -26 0 5 54 138 225 551 116 282 238 592 412 1055 167 442
298 769 623 1555 257 621 630 1545 709 1757 68 181 67 196 -6 268 -32 30 -175
146 -318 256 -246 190 -353 276 -452 364 l-44 38 227 239 c363 382 473 518
488 598 6 29 2 45 -18 80 -14 24 -50 114 -80 202 -29 87 -70 200 -90 251 -20
51 -34 97 -31 102 9 14 57 -5 227 -90z m-1580 9 c25 -13 24 -18 -52 -220 -57
-152 -79 -229 -65 -229 13 0 51 24 96 62 53 44 59 46 52 16 -4 -23 -4 -23 17
2 12 14 36 55 53 93 16 37 32 66 33 64 10 -9 -29 -191 -57 -270 -34 -98 -33
-121 6 -111 20 5 25 3 25 -13 0 -56 -103 -317 -220 -559 -229 -475 -643 -1154
-703 -1154 -17 0 -62 72 -164 258 -116 210 -247 480 -278 571 -14 41 -81 179
-150 306 -143 265 -164 311 -165 343 0 25 -8 21 165 88 352 136 543 266 735
501 129 157 148 169 350 212 80 17 159 35 175 40 42 13 123 13 147 0z m-4250
-25 c127 -17 210 -42 270 -81 23 -14 116 -97 206 -184 185 -179 267 -244 395
-317 111 -63 345 -167 412 -183 72 -16 80 -22 83 -60 2 -27 -13 -61 -69 -159
-95 -168 -174 -326 -341 -684 -225 -483 -307 -636 -342 -636 -8 0 -45 44 -84
98 -340 477 -824 1456 -849 1716 l-6 59 58 -8 58 -7 -8 39 c-4 21 -7 43 -8 48
-1 6 27 10 68 10 64 0 70 2 73 22 2 12 -22 76 -53 142 -30 67 -58 135 -62 152
-11 54 16 59 199 33z m3278 -164 c-22 -42 -248 -189 -376 -246 -60 -26 -364
-111 -494 -138 -269 -54 -627 -44 -925 28 -224 55 -474 160 -619 262 -151 107
-118 121 199 84 300 -34 547 -43 1075 -37 491 5 621 12 880 47 74 10 166 18
203 19 65 1 67 0 57 -19z m-1570 -817 c14 -9 81 -65 150 -123 69 -58 290 -242
491 -408 202 -167 388 -325 413 -352 53 -57 59 -92 25 -146 -30 -49 -55 -44
-138 24 -694 569 -1028 853 -1057 897 -14 21 -14 26 0 53 17 32 61 72 80 72 6
0 23 -8 36 -17z m-225 -483 c36 -27 132 -105 213 -173 81 -68 248 -206 372
-307 266 -217 441 -370 465 -407 18 -26 18 -27 -14 -55 -43 -39 -82 -37 -160
10 -80 47 -863 671 -953 759 -36 36 -68 74 -71 83 -4 15 25 95 46 128 14 21
34 14 102 -38z m-1448 -557 c281 -431 405 -588 500 -634 59 -29 153 -29 208
-1 67 34 129 107 200 236 37 66 73 127 80 134 10 11 19 3 48 -45 19 -32 52
-92 72 -133 45 -90 114 -198 143 -224 12 -11 22 -31 22 -46 0 -15 -52 -202
-115 -416 -64 -214 -158 -542 -211 -729 -91 -325 -136 -470 -148 -483 -4 -3
-13 3 -21 14 -25 32 -158 298 -260 520 -363 788 -555 1326 -666 1864 -22 107
-42 204 -45 215 -8 32 27 -17 193 -272z m4103 91 c0 -59 -71 -345 -151 -611
-172 -569 -677 -1708 -802 -1811 -14 -12 -20 -1 -51 100 -45 146 -75 253 -185
648 -49 179 -124 446 -165 594 -42 148 -76 278 -76 290 0 12 24 63 53 113 61
107 240 383 247 383 3 -1 35 -63 72 -138 107 -220 210 -316 337 -315 135 2
209 73 470 451 126 183 226 312 241 312 6 0 10 -7 10 -16z m-8849 -111 c16
-44 -14 -138 -74 -229 -121 -184 -537 -544 -818 -707 -155 -89 -412 -213 -594
-285 -360 -143 -737 -238 -802 -203 -12 6 -45 57 -73 113 -29 57 -68 125 -88
151 -30 42 -38 48 -66 45 -43 -4 -44 -32 -7 -150 35 -107 40 -152 17 -128 -43
44 -233 483 -244 563 l-5 41 39 -24 c21 -13 46 -29 54 -36 35 -28 130 -68 215
-89 224 -57 532 -60 814 -9 546 100 1293 530 1509 869 25 38 52 78 60 88 23
26 51 21 63 -10z m665 -203 c-9 -74 -38 -175 -51 -175 -6 0 -11 28 -13 63 -2
50 2 74 22 118 34 74 51 71 42 -6z m-2942 -212 c13 -116 2 -216 -28 -246 -14
-14 -19 -14 -53 2 -39 19 -142 96 -143 108 0 11 192 188 205 188 7 0 15 -21
19 -52z m4285 -633 c26 -1005 40 -3596 21 -4025 -10 -225 -13 -246 -40 -253
-11 -3 -27 -19 -38 -36 l-19 -31 -12 38 c-24 76 -33 803 -28 2252 6 1581 3
1503 83 2510 l8 95 7 -60 c4 -33 12 -253 18 -490z m4998 328 c9 -27 -258 -279
-582 -548 -275 -229 -363 -284 -334 -208 14 38 107 149 187 225 91 85 504 435
570 483 80 57 149 78 159 48z m-6304 -495 c203 -419 553 -1425 668 -1923 33
-140 49 -284 29 -252 -51 80 -698 2003 -754 2240 -13 55 13 25 57 -65z m4328
-830 c138 -273 179 -348 497 -883 421 -711 477 -789 826 -1165 l172 -186 -12
-137 c-16 -180 -23 -397 -34 -945 -4 -249 -11 -456 -14 -460 -4 -3 -149 66
-324 153 -174 88 -378 185 -452 216 l-135 56 -177 894 c-178 901 -405 2065
-454 2324 -28 153 -44 375 -26 375 6 0 66 -109 133 -242z m2369 104 c0 -29
-34 -71 -47 -59 -11 11 -32 -13 -53 -59 -10 -24 -23 -44 -28 -44 -13 0 -72
-50 -218 -184 -260 -239 -857 -742 -958 -808 -68 -44 -89 -47 -110 -16 -34 49
-27 57 217 265 455 389 846 711 1070 881 82 62 127 71 127 24z m1113 -111 c12
-113 -28 -525 -128 -1326 -112 -888 -236 -1723 -286 -1917 -11 -43 -17 -45
-237 -93 -146 -31 -421 -124 -615 -206 -212 -91 -266 -120 -443 -236 l-21 -13
5 662 5 663 118 130 c152 169 205 234 363 445 420 563 843 1256 1006 1650 79
191 130 288 163 316 31 26 31 26 48 6 9 -11 19 -48 22 -81z m-944 -278 c5 -21
11 -70 13 -110 2 -71 2 -72 -38 -120 -178 -210 -1166 -1033 -1240 -1033 -22 0
-74 70 -74 99 0 42 63 107 300 309 410 351 575 496 800 703 118 109 211 188
222 189 4 0 12 -17 17 -37z m6266 -483 c80 -12 267 -52 262 -57 -2 -1 -134
-10 -293 -18 -159 -8 -370 -23 -469 -32 -206 -20 -304 -22 -307 -8 -7 28 182
97 315 114 90 12 410 12 492 1z m-1338 -194 c200 -42 377 -136 563 -297 l85
-74 -62 -3 c-76 -4 -140 21 -334 129 -217 120 -411 194 -537 206 -72 7 -70 19
5 39 65 17 197 17 280 0z m-1133 -271 c143 -19 324 -65 412 -105 93 -42 186
-114 295 -228 164 -171 292 -375 375 -597 20 -55 50 -119 66 -142 68 -100 136
-536 118 -763 -14 -178 -43 -273 -90 -297 -29 -15 -96 -17 -104 -4 -3 5 10 32
29 61 40 59 55 106 55 173 0 118 -33 117 -219 -11 -208 -142 -490 -236 -748
-249 -182 -9 -273 21 -273 91 0 42 25 74 154 202 116 115 124 133 79 176 -39
35 -66 48 -105 48 -87 -1 -282 -120 -405 -247 l-81 -85 -54 35 c-69 44 -141
117 -163 167 -39 86 6 149 216 301 162 118 209 166 209 219 0 42 -20 74 -60
95 -63 32 -111 16 -279 -95 -148 -97 -250 -183 -328 -274 l-41 -49 -25 29
c-46 53 -87 129 -96 181 -28 146 90 319 331 484 123 84 158 117 180 167 16 36
17 48 8 77 -15 45 -54 75 -96 75 -132 0 -535 -308 -636 -487 -38 -68 -52 -79
-82 -65 -66 30 -99 230 -58 358 83 264 546 608 973 724 83 22 232 47 291 49
20 1 89 -6 152 -14z m1072 -151 c96 -58 237 -169 305 -241 220 -236 387 -648
429 -1062 58 -576 -138 -1081 -485 -1251 -149 -73 -150 -72 -41 88 52 78 100
157 107 177 12 32 17 36 40 31 25 -5 27 -2 33 36 4 23 22 96 41 162 53 189 60
248 60 491 -1 244 -14 364 -66 573 -70 284 -170 515 -314 727 -49 72 -113 165
-142 208 -29 43 -53 82 -53 88 0 17 26 9 86 -27z m1969 -27 c104 -42 178 -92
282 -190 81 -77 113 -117 95 -117 -12 0 -232 145 -369 243 -149 106 -151 122
-8 64z m-14909 -2018 c38 -12 128 -45 201 -74 217 -88 351 -114 579 -115 171
0 280 17 434 70 63 21 116 38 117 36 5 -5 -133 -104 -173 -125 -122 -60 -335
-90 -525 -71 -281 27 -503 115 -694 275 -37 30 -27 31 61 4z m4936 -59 c525
-36 995 -136 1358 -292 279 -119 596 -313 635 -389 21 -40 34 -635 41 -2019 7
-1071 3 -1370 -15 -1370 -4 0 -115 64 -247 141 -454 268 -737 393 -1088 478
-376 93 -735 123 -1426 123 -444 0 -474 -1 -665 -26 -449 -59 -1092 -188
-1725 -346 -455 -113 -608 -141 -875 -159 -284 -20 -631 -10 -686 19 -10 6
-24 20 -30 32 -10 18 6 55 122 282 74 143 422 834 774 1535 l640 1276 120 59
c617 303 1734 609 2390 655 175 12 501 13 677 1z m4910 -30 c649 -22 864 -71
2072 -470 l548 -181 513 -1032 c799 -1610 1013 -2061 1003 -2115 -7 -37 -84
-46 -418 -46 -291 0 -329 2 -495 27 -404 61 -798 139 -1315 261 -543 127
-1070 211 -1545 246 -193 15 -672 15 -840 0 -547 -46 -973 -152 -1399 -349
-110 -51 -239 -123 -472 -262 -100 -60 -189 -111 -198 -115 -15 -6 -16 126
-16 1666 l0 1672 63 65 c121 126 290 234 528 337 248 108 609 214 904 267 187
33 609 45 1067 29z m5072 -19 c12 -18 -72 -69 -214 -129 -52 -22 -111 -43
-130 -47 -31 -6 -33 -5 -20 8 8 8 49 29 91 46 42 18 103 48 135 68 58 35 112
62 126 63 4 0 9 -4 12 -9z m-2274 -90 c70 -36 152 -61 197 -61 44 0 43 -23 -2
-66 -40 -37 -145 -99 -187 -109 -23 -6 -33 -1 -68 37 -22 25 -61 60 -86 78
-44 31 -46 32 -39 9 7 -22 7 -23 -11 -9 -37 28 -74 64 -74 72 0 8 91 52 140
68 45 15 71 11 130 -19z m504 -1005 c79 -104 179 -283 427 -768 498 -973 916
-1777 1119 -2153 259 -479 292 -572 241 -672 -41 -81 -108 -122 -241 -149 -40
-7 -44 -15 46 89 141 161 133 264 -36 452 -157 176 -233 299 -496 806 -197
379 -804 1604 -951 1919 -159 338 -203 453 -203 525 0 58 0 58 20 40 12 -11
45 -51 74 -89z m-11964 -1 c0 -78 -252 -612 -740 -1565 -574 -1122 -724 -1392
-856 -1539 -63 -70 -105 -95 -140 -87 -22 6 -23 4 -14 -19 7 -19 3 -41 -19
-97 -26 -65 -46 -158 -69 -328 l-8 -55 -41 75 c-61 111 -70 149 -49 204 9 25
34 71 55 103 71 111 272 478 816 1493 800 1494 953 1766 1022 1820 34 26 43
25 43 -5z m3645 -2465 c212 -19 339 -39 519 -85 279 -70 624 -190 870 -304
185 -86 455 -251 520 -320 26 -27 27 -32 15 -47 -22 -26 -189 -104 -224 -104
-19 0 -54 15 -91 39 -80 52 -215 126 -370 204 -373 187 -807 310 -1314 372
-179 22 -650 31 -835 16 -460 -38 -1242 -157 -1555 -236 -53 -14 -168 -36
-255 -51 -87 -14 -175 -34 -194 -43 -20 -10 -65 -23 -101 -29 -339 -57 -1585
-72 -1772 -21 -32 8 -38 14 -38 37 0 16 6 36 13 46 16 22 75 19 192 -9 43 -10
135 -18 240 -22 365 -11 784 53 1715 262 912 206 1329 282 1654 305 156 11
855 4 1011 -10z m5185 10 c521 -24 665 -47 1584 -250 905 -199 1274 -262 1726
-291 198 -13 662 -6 753 11 71 14 91 8 107 -30 22 -54 13 -64 -70 -73 -107
-12 -1531 -1 -1665 13 -167 17 -441 64 -724 126 -812 177 -1152 230 -1616 255
-379 20 -680 -8 -1083 -101 -596 -137 -818 -231 -1218 -517 l-72 -51 -98 54
c-55 30 -112 66 -129 79 l-29 24 24 26 c58 61 387 258 597 356 418 196 934
330 1438 372 88 8 271 6 475 -3z m-5125 -710 c627 -39 977 -113 1302 -273 109
-54 163 -91 150 -103 -4 -4 -103 11 -220 34 -277 55 -304 59 -489 77 -293 28
-735 38 -1358 31 -327 -4 -658 -11 -735 -16 -272 -18 -1345 -32 -2510 -33
-1156 -1 -1181 -1 -1240 19 -74 24 -79 46 -15 56 56 9 398 16 1365 28 852 11
903 13 1725 95 676 66 760 74 925 84 192 12 916 13 1100 1z m4880 0 c550 -14
1035 -41 1430 -80 520 -51 940 -84 1270 -102 320 -17 1638 -16 1760 1 50 7
119 15 155 18 61 5 67 4 93 -22 15 -15 27 -38 27 -50 0 -32 -16 -33 -525 -46
-493 -13 -2306 -6 -2695 10 -645 27 -1005 34 -1665 35 -787 1 -883 -4 -1185
-55 -190 -32 -436 -89 -496 -114 -20 -8 -39 -13 -42 -10 -3 3 14 26 39 51 106
108 449 230 869 308 236 44 314 53 565 64 17 1 197 -3 400 -8z m-1780 -898 c3
-15 -1 -53 -10 -85 -35 -136 -75 -171 -226 -198 -105 -20 -1223 -20 -1287 -1
-92 28 -177 143 -189 256 -6 62 3 70 45 40 17 -12 22 -25 22 -59 0 -37 3 -42
18 -38 13 3 40 -14 82 -50 75 -66 151 -105 228 -118 169 -27 686 -18 919 17
139 20 174 41 255 149 98 130 129 149 143 87z"/>
<path d="M10620 26205 c-144 -21 -170 -35 -170 -95 0 -53 24 -71 112 -81 105
-12 345 -9 397 4 59 16 85 51 75 101 -9 49 -37 62 -173 75 -121 13 -130 13
-241 -4z"/>
<path d="M10065 26161 c-6 -6 -59 -20 -120 -31 -123 -25 -176 -48 -202 -86
-26 -40 -22 -92 8 -117 21 -17 34 -19 109 -14 102 7 303 56 378 93 65 32 80
59 58 102 -11 21 -29 35 -63 46 -51 17 -153 22 -168 7z"/>
<path d="M11280 26160 c-42 -10 -90 -61 -90 -95 0 -46 81 -80 312 -130 151
-32 207 -33 235 -2 11 12 28 37 37 55 23 45 8 67 -67 103 -129 60 -328 92
-427 69z"/>
<path d="M9210 25957 c-239 -71 -360 -145 -360 -219 0 -52 8 -66 44 -78 42
-13 143 12 297 75 236 96 282 145 204 214 -44 38 -78 39 -185 8z"/>
<path d="M12120 25972 c-46 -14 -63 -78 -33 -121 35 -51 337 -170 434 -173 46
-1 56 3 76 26 53 62 20 112 -117 181 -140 70 -292 107 -360 87z"/>
<path d="M4523 24559 c-43 -21 -93 -82 -93 -113 0 -29 98 -124 163 -156 77
-38 148 -41 171 -8 49 69 -22 226 -125 279 -48 24 -64 24 -116 -2z"/>
<path d="M5539 23216 c-42 -20 -59 -71 -59 -175 0 -98 18 -189 51 -253 50 -98
235 -251 341 -283 53 -15 124 -20 152 -9 40 15 2 65 -117 153 -123 90 -215
235 -263 416 -40 151 -57 175 -105 151z"/>
<path d="M16854 24559 c-54 -16 -137 -127 -158 -211 -5 -21 0 -31 29 -57 68
-59 119 -52 230 31 49 38 77 67 93 100 22 44 22 48 7 77 -29 58 -118 84 -201
60z"/>
<path d="M15896 23193 c-9 -21 -30 -90 -46 -153 -53 -203 -132 -330 -263 -424
-131 -93 -136 -126 -21 -126 251 0 508 295 480 550 -9 83 -23 125 -55 159 -41
44 -73 41 -95 -6z"/>
<path d="M7965 21304 c-169 -30 -425 -135 -568 -232 -163 -110 -328 -285 -388
-409 -54 -113 -51 -198 9 -265 86 -95 120 -88 399 78 322 192 500 257 880 324
206 36 241 49 292 106 71 81 77 173 18 261 -72 107 -210 154 -447 152 -63 0
-151 -7 -195 -15z"/>
<path d="M13142 21299 c-101 -20 -198 -85 -239 -162 -11 -21 -17 -55 -18 -98
0 -56 4 -73 30 -115 51 -82 97 -100 331 -129 165 -22 367 -73 514 -132 150
-59 205 -88 380 -193 191 -116 251 -145 282 -137 64 16 167 142 168 204 1 101
-169 325 -343 454 -153 114 -397 252 -492 278 -128 36 -493 54 -613 30z"/>
<path d="M7650 19346 c-170 -36 -312 -113 -446 -239 -115 -109 -181 -195 -239
-312 -107 -214 -131 -512 -64 -771 40 -155 153 -341 274 -452 256 -234 670
-301 979 -159 105 49 175 97 261 178 134 127 223 270 278 444 93 295 43 637
-133 902 -128 193 -314 334 -522 394 -94 27 -294 35 -388 15z"/>
<path d="M13635 19346 c-206 -40 -370 -130 -515 -282 -160 -168 -251 -351
-280 -562 -15 -110 -9 -315 14 -418 74 -343 341 -631 671 -726 66 -19 104 -22
220 -22 154 0 233 16 361 74 211 95 428 315 507 513 73 182 84 491 26 722 -78
311 -354 601 -651 685 -94 27 -259 34 -353 16z"/>
<path d="M10065 17815 c-94 -33 -141 -137 -132 -289 8 -157 80 -307 214 -447
169 -176 361 -252 643 -253 397 -1 685 158 849 466 59 111 75 170 75 268 -1
98 -15 139 -72 202 -43 47 -85 68 -139 68 -77 0 -111 -50 -125 -180 -11 -115
-49 -194 -131 -274 -113 -110 -258 -166 -432 -166 -215 0 -381 87 -492 258
-43 67 -59 110 -68 192 -13 114 -40 152 -115 164 -20 3 -52 0 -75 -9z"/>
<path d="M7620 4560 c-170 -10 -246 -25 -276 -56 -31 -30 -30 -49 3 -71 23
-15 48 -18 171 -16 233 3 578 46 650 80 32 15 36 15 47 0 26 -36 103 -50 414
-77 520 -45 770 -91 1141 -208 195 -62 233 -69 265 -48 79 52 -44 148 -290
226 -194 61 -542 129 -770 150 -293 26 -1031 37 -1355 20z"/>
<path d="M6925 4473 c-157 -19 -269 -60 -302 -110 -16 -25 -16 -26 6 -44 13
-11 29 -19 36 -19 29 0 463 71 495 82 47 15 60 26 60 54 0 17 -8 28 -26 34
-24 9 -203 11 -269 3z"/>
<path d="M5816 4269 c-131 -23 -341 -74 -390 -94 -55 -23 -76 -49 -76 -94 0
-59 13 -63 107 -36 46 14 158 41 250 61 339 73 381 87 411 132 15 23 15 25 -3
38 -27 20 -166 17 -299 -7z"/>
<path d="M7530 4190 c-63 -4 -214 -21 -335 -39 -121 -17 -332 -48 -470 -67
-443 -62 -812 -132 -1180 -223 -305 -75 -440 -130 -460 -184 -25 -72 70 -72
353 -2 608 152 1515 311 1972 345 173 13 688 13 951 0 286 -14 422 -26 666
-61 228 -32 329 -35 346 -8 16 25 -1 68 -35 89 -80 49 -532 121 -873 140 -234
12 -796 19 -935 10z"/>
<path d="M7879 3656 c-2 -2 -171 -14 -374 -26 -388 -22 -402 -23 -715 -65
-615 -81 -1714 -301 -1857 -372 -45 -21 -62 -60 -45 -98 17 -36 57 -33 267 20
248 63 359 85 860 175 947 169 1136 189 2055 210 228 5 428 12 443 16 16 4 31
13 34 21 9 22 -34 60 -82 72 -68 17 -575 58 -586 47z"/>
<path d="M8970 3627 c-47 -16 -96 -108 -86 -162 15 -80 125 -146 218 -131 60
10 123 49 138 87 18 41 14 105 -8 143 -37 65 -165 96 -262 63z"/>
<path d="M9648 3374 c-41 -21 -38 -65 5 -97 44 -33 295 -163 331 -171 39 -9
76 16 76 51 0 58 -178 186 -303 219 -64 17 -75 17 -109 -2z"/>
<path d="M7275 3249 c-219 -12 -304 -35 -328 -86 -15 -34 6 -49 82 -59 64 -8
1287 5 1401 14 67 6 75 9 78 28 8 55 -95 91 -293 104 -162 11 -749 11 -940 -1z"/>
<path d="M6563 3160 c-11 -5 -97 -18 -190 -30 -431 -54 -1202 -206 -1525 -301
-105 -31 -158 -99 -110 -142 29 -26 80 -21 266 28 314 82 468 114 856 179 717
121 945 167 974 196 17 17 18 21 5 36 -26 31 -75 44 -166 43 -48 0 -98 -4
-110 -9z"/>
<path d="M12615 5309 c-253 -25 -608 -124 -670 -187 -34 -34 -31 -73 7 -86 21
-8 49 -4 120 17 221 63 667 118 1158 142 176 9 329 24 368 36 64 21 18 48
-119 69 -93 15 -741 22 -864 9z"/>
<path d="M12965 4910 c-222 -10 -254 -18 -269 -68 -11 -34 16 -68 61 -77 53
-10 625 -7 771 4 66 5 130 15 141 21 27 14 28 60 2 91 -16 20 -30 24 -132 30
-136 9 -354 8 -574 -1z"/>
<path d="M13903 4879 c-24 -7 -34 -18 -43 -45 -17 -49 -9 -60 52 -74 147 -31
628 -90 743 -90 43 0 56 4 65 19 5 11 7 26 4 35 -21 55 -218 109 -519 140
-216 23 -267 26 -302 15z"/>
<path d="M12295 4829 c-44 -10 -123 -26 -175 -35 -161 -27 -535 -162 -633
-228 -37 -25 -46 -60 -21 -87 25 -28 70 -24 191 19 234 84 534 162 735 192
146 22 213 43 228 69 14 27 1 60 -31 76 -40 21 -194 18 -294 -6z"/>
<path d="M12745 4500 c-247 -18 -504 -64 -820 -145 -304 -79 -412 -123 -440
-181 -16 -35 -12 -79 9 -87 7 -3 53 8 102 24 611 199 1115 257 1971 230 577
-19 789 -43 1305 -152 216 -45 269 -48 299 -18 72 72 -50 120 -552 218 -418
82 -748 111 -1339 116 -228 2 -469 0 -535 -5z"/>
<path d="M15725 4421 c-94 -44 -155 -117 -155 -184 0 -39 49 -125 90 -157 52
-41 113 -62 185 -63 124 -2 191 67 189 193 -1 104 -50 176 -149 221 -56 26
-90 24 -160 -10z"/>
<path d="M12800 4110 c-473 -28 -1259 -215 -1310 -310 -6 -12 -10 -35 -8 -53
3 -29 7 -32 39 -35 42 -4 92 8 349 84 451 133 688 159 1575 173 286 4 528 11
537 15 22 10 29 32 18 60 -11 31 -22 34 -169 52 -149 17 -824 27 -1031 14z"/>
<path d="M14125 4073 c-59 -15 -72 -69 -26 -103 42 -29 127 -49 514 -119 400
-73 643 -125 1056 -225 352 -86 452 -106 527 -106 61 0 72 11 50 45 -64 98
-750 286 -1616 444 -291 53 -464 75 -505 64z"/>
<path d="M12950 3687 c-3 -3 -81 -13 -174 -22 -256 -25 -381 -63 -381 -115 0
-18 8 -26 30 -32 32 -10 482 -2 662 11 67 5 121 15 141 25 33 17 67 69 59 90
-3 7 -31 18 -64 25 -64 13 -265 27 -273 18z"/>
<path d="M11927 3495 c-312 -99 -444 -157 -475 -206 -18 -29 1 -57 46 -65 44
-8 59 -4 392 103 333 108 380 130 380 180 0 36 -34 63 -77 62 -21 -1 -140 -34
-266 -74z"/>
<path d="M22585 18753 c-122 -16 -236 -74 -316 -161 -115 -126 -176 -295 -167
-463 5 -78 11 -100 47 -176 34 -70 39 -89 29 -99 -7 -7 -60 -17 -118 -23 -206
-22 -383 -79 -825 -267 -511 -216 -756 -305 -850 -307 -53 -1 -82 12 -219 96
-204 126 -393 124 -485 -3 -36 -49 -55 -134 -48 -206 15 -141 96 -230 315
-342 78 -40 142 -75 142 -78 0 -2 -24 -53 -54 -112 -84 -167 -224 -497 -784
-1842 -303 -727 -349 -835 -408 -951 -47 -91 -88 -141 -138 -166 -131 -66
-164 -162 -110 -321 64 -192 218 -412 402 -575 227 -200 481 -315 792 -357
224 -31 628 -28 805 5 286 53 588 217 810 440 204 204 371 508 351 638 -10 59
-30 92 -115 182 -130 138 -176 242 -781 1770 -134 338 -364 891 -447 1075 -75
165 -80 197 -40 284 31 68 53 82 147 97 339 51 511 103 1030 314 309 126 411
162 498 175 95 16 132 2 217 -80 38 -37 93 -81 120 -97 l50 -29 3 -3413 2
-3413 -70 -81 c-39 -45 -84 -110 -101 -144 -31 -65 -62 -95 -164 -155 -148
-88 -339 -173 -590 -263 -347 -124 -494 -206 -651 -360 -115 -114 -151 -168
-164 -251 -40 -245 142 -443 531 -579 249 -87 493 -137 759 -155 249 -18 1370
-8 1510 13 486 72 854 226 1013 422 67 84 90 150 85 250 -4 95 -39 177 -111
262 -143 167 -312 260 -737 408 -234 81 -363 135 -450 188 -36 22 -99 56 -140
74 -41 19 -83 42 -92 50 -10 9 -35 52 -57 97 -25 51 -62 106 -100 148 l-61 66
0 3404 0 3405 73 64 c180 162 224 186 315 174 123 -17 257 -61 647 -213 446
-174 761 -257 1067 -280 106 -9 113 -10 138 -39 15 -16 39 -63 54 -104 l27
-74 -126 -300 c-188 -446 -342 -823 -676 -1657 -309 -771 -397 -973 -446
-1020 -15 -15 -55 -42 -88 -60 -84 -47 -100 -79 -99 -193 0 -76 5 -102 31
-167 79 -199 329 -481 581 -656 259 -180 601 -260 1062 -249 229 5 315 17 505
67 282 75 471 191 704 435 164 173 242 305 278 470 36 170 -19 325 -116 325
-11 0 -31 10 -44 23 -17 15 -161 348 -447 1032 -653 1559 -766 1821 -853 1960
l-26 41 145 84 c222 129 282 199 292 341 12 177 -71 285 -229 297 -114 8 -216
-32 -380 -149 l-97 -68 -148 39 c-259 67 -416 122 -875 304 -490 194 -665 243
-896 253 -79 3 -143 8 -143 10 0 2 20 39 44 81 75 131 100 241 85 367 -25 198
-196 381 -414 443 -73 21 -159 31 -210 25z m147 -324 c54 -27 142 -111 162
-154 20 -42 21 -99 1 -115 -12 -10 -43 -10 -150 -1 -142 12 -191 9 -268 -17
-44 -15 -48 -15 -65 1 -24 25 -19 93 11 153 47 92 137 152 230 154 21 0 56 -9
79 -21z m-1 -638 c51 -32 92 -78 83 -93 -4 -6 -27 -8 -56 -5 -63 8 -137 -8
-208 -43 -83 -41 -97 -44 -105 -21 -8 26 14 68 62 113 89 84 148 97 224 49z
m-2322 -2003 c37 -83 83 -197 416 -1038 97 -245 225 -560 286 -701 60 -141
109 -261 109 -268 0 -7 -25 -11 -71 -11 -80 0 -719 57 -764 69 l-30 7 -3 460
c-3 470 7 1564 15 1564 2 0 21 -37 42 -82z m-380 -656 c2 -334 0 -760 -4 -948
l-7 -340 -317 -28 c-174 -15 -365 -28 -426 -29 -110 -2 -110 -2 -107 21 2 13
17 54 34 90 63 140 213 503 263 637 29 77 127 313 217 525 256 597 311 711
332 690 8 -8 12 -189 15 -618z m5519 601 c39 -56 97 -183 229 -507 225 -551
433 -1046 528 -1257 30 -65 58 -134 64 -155 l10 -37 -162 6 c-141 5 -529 35
-684 53 l-53 5 0 862 c0 776 6 1016 25 1047 10 17 23 12 43 -17z m-396 5 c9
-7 19 -29 22 -48 9 -51 26 -1844 18 -1851 -8 -8 -734 -69 -809 -69 -47 0 -53
2 -53 20 0 24 282 765 467 1230 149 371 284 684 309 711 20 22 25 23 46 7z
m-6033 -2387 c56 -16 108 -34 114 -41 27 -28 -181 19 -243 55 l-25 14 26 1
c14 0 72 -13 128 -29z m5261 -20 c268 -46 483 -56 1163 -55 351 0 632 -3 625
-7 -61 -34 -921 -69 -1218 -49 -266 17 -720 101 -720 132 0 5 8 7 18 4 9 -3
69 -14 132 -25z m-3505 -66 c47 -21 -65 -28 -557 -32 -479 -5 -807 4 -878 24
l-25 7 25 7 c35 11 1411 5 1435 -6z m5426 -184 c16 -16 29 -37 29 -46 0 -20
-83 -109 -137 -146 -110 -76 -279 -143 -450 -178 -129 -27 -373 -56 -447 -54
-234 8 -580 102 -753 204 -82 49 -185 147 -181 173 5 36 53 41 292 27 645 -36
1468 -18 1566 34 36 20 48 18 81 -14z m-6943 -1 c271 -55 1046 -62 1462 -14
325 38 399 -5 232 -136 -93 -74 -264 -160 -387 -195 -173 -49 -254 -60 -480
-59 -320 0 -513 36 -710 134 -112 55 -263 164 -285 205 -14 26 -13 28 18 56
18 16 37 29 43 29 6 0 54 -9 107 -20z m3076 -3322 c197 -41 300 -42 446 -5
164 42 228 33 161 -23 -98 -82 -404 -103 -666 -46 -169 37 -192 49 -155 86 26
26 36 26 214 -12z m-466 -253 c233 -90 581 -145 827 -130 213 12 350 42 507
111 89 40 131 42 136 7 5 -33 -43 -58 -167 -87 -373 -88 -847 -96 -1182 -21
-170 38 -255 88 -236 139 9 22 12 21 115 -19z m-466 -143 c-2 -27 1 -59 7 -71
11 -19 17 -21 80 -15 l68 7 34 -38 c96 -105 335 -163 770 -187 154 -8 266 -8
431 0 233 12 347 27 463 62 83 26 383 156 408 178 9 8 21 29 25 46 8 29 11 31
59 31 40 -1 71 -11 156 -54 228 -113 317 -225 262 -330 -85 -164 -593 -330
-1185 -386 -246 -24 -767 -16 -990 14 -522 72 -963 225 -1049 365 -25 40 -27
105 -5 148 19 36 99 125 127 140 17 8 18 7 12 -12 -8 -25 -2 -23 51 17 45 33
263 145 273 139 4 -3 6 -27 3 -54z"/>
<path d="M1010 15080 c0 -13 11 -13 30 0 12 8 11 10 -7 10 -13 0 -23 -4 -23
-10z"/>
<path d="M22130 7822 c-240 -113 -1075 -525 -1240 -611 -399 -209 -476 -264
-499 -356 -7 -26 -16 -118 -21 -204 -12 -209 -12 -998 0 -1084 6 -38 23 -93
40 -127 16 -33 30 -65 30 -73 0 -42 -88 -120 -470 -416 -327 -253 -731 -576
-869 -696 -169 -145 -217 -228 -241 -417 -6 -47 -10 -305 -10 -602 l0 -519 97
-190 c114 -222 152 -270 226 -292 60 -17 819 -190 1632 -371 875 -196 1798
-375 2560 -498 347 -57 423 -63 478 -42 123 47 250 168 436 419 72 98 299 393
503 655 649 834 920 1205 970 1330 20 50 22 74 21 197 0 77 -6 208 -12 290
-22 294 -31 524 -31 785 l0 265 122 80 c156 102 249 177 283 225 26 38 26 40
37 312 5 150 7 426 4 613 -8 455 -21 524 -111 587 -56 39 -195 70 -900 202
-693 130 -919 173 -1220 231 -181 35 -485 94 -675 130 -190 36 -494 95 -677
131 -183 35 -354 64 -380 63 -26 0 -64 -8 -83 -17z m52 -286 c0 -11 -193 -117
-697 -383 -656 -345 -686 -365 -700 -453 -12 -75 -31 -112 -57 -108 -15 2 -24
13 -30 35 -11 43 7 151 30 183 27 36 247 155 802 433 464 233 625 309 643 304
5 -1 9 -6 9 -11z m408 -101 c78 -11 295 -52 975 -185 828 -162 1180 -229 1415
-270 178 -31 220 -45 206 -69 -32 -50 -467 -289 -898 -492 -277 -130 -325
-158 -392 -224 -130 -129 -166 -334 -166 -951 0 -149 -2 -273 -5 -276 -22 -22
-2523 548 -2677 609 -63 25 -63 25 -63 528 0 435 1 451 20 485 37 62 184 152
660 405 622 330 714 380 770 416 41 27 68 37 85 34 14 -2 45 -7 70 -10z m3080
-559 c0 -36 -146 -146 -320 -241 -58 -32 -145 -83 -195 -115 -203 -130 -837
-481 -908 -502 -43 -13 -59 -33 -110 -133 -40 -79 -68 -110 -93 -101 -15 6
-16 17 -11 79 7 75 41 225 55 239 5 5 37 13 73 19 103 16 194 49 335 120 269
137 749 412 984 564 71 46 150 84 178 85 6 0 12 -6 12 -14z m167 -363 c5 -16
8 -174 8 -353 0 -286 -2 -329 -17 -356 -17 -31 -32 -41 -668 -442 -328 -207
-617 -381 -646 -388 -41 -11 -51 1 -63 73 -19 116 -31 382 -21 479 13 138 39
178 187 283 180 127 1175 731 1205 731 4 0 11 -12 15 -27z m-4612 -1318 c204
-48 694 -160 1090 -250 1148 -262 1706 -398 1784 -438 52 -26 71 -51 53 -69
-9 -9 -31 -10 -100 -1 -48 6 -616 128 -1262 272 -1214 269 -1531 336 -1637
347 -120 13 -151 -20 -59 -62 83 -38 826 -222 2089 -518 465 -109 758 -186
803 -209 l26 -14 -68 -89 c-125 -164 -387 -475 -503 -596 -53 -56 -70 -68 -96
-68 -66 0 -585 92 -1495 265 -272 52 -749 142 -1060 200 -724 136 -999 194
-1028 217 -30 25 -155 -32 -183 -83 -24 -46 52 -105 201 -155 122 -41 263 -71
945 -199 585 -110 844 -160 1564 -301 922 -180 1100 -200 1244 -136 62 27 106
73 452 472 525 604 724 818 794 854 17 9 36 28 41 41 6 15 17 25 29 25 46 0
25 -27 -494 -650 -447 -535 -633 -749 -734 -842 -52 -49 -68 -58 -99 -58 -99
0 -433 59 -1457 256 -2372 456 -2743 531 -2795 564 -38 24 33 89 484 449 169
135 482 386 695 557 212 171 391 310 396 308 6 -2 177 -42 380 -89z m4161
-585 c10 -121 17 -304 18 -485 l1 -290 -26 -61 c-39 -94 -104 -185 -348 -489
-124 -154 -306 -381 -406 -505 -99 -124 -249 -313 -332 -420 -188 -242 -252
-315 -266 -301 -5 5 -13 142 -18 318 -10 359 -21 483 -51 574 l-21 66 22 46
c24 49 282 375 672 847 129 157 346 424 483 593 137 169 250 307 251 305 2 -2
11 -91 21 -198z m-5036 -1204 c267 -52 1014 -196 1660 -320 1223 -234 1394
-270 1521 -312 80 -26 110 -49 129 -98 18 -49 32 -397 27 -681 -6 -344 -17
-385 -89 -334 -21 16 -44 23 -70 22 -26 -1 -50 6 -72 21 -24 16 -60 26 -127
34 -52 7 -164 30 -249 52 -85 21 -240 55 -345 74 -104 19 -318 59 -475 90
-157 31 -397 76 -535 102 -223 41 -1045 212 -1486 309 -342 76 -513 125 -569
165 -45 32 -68 87 -80 187 -14 121 -24 679 -13 728 13 59 35 67 173 61 91 -4
218 -25 600 -100z"/>
<path d="M21159 6114 c-24 -28 -31 -70 -14 -84 7 -6 175 -45 372 -85 197 -40
450 -94 563 -119 113 -24 450 -99 750 -165 744 -164 780 -169 793 -119 20 74
-44 93 -1118 332 -828 185 -1128 246 -1240 253 -80 5 -92 3 -106 -13z"/>
<path d="M21130 5820 c0 -67 57 -91 409 -180 238 -59 419 -100 651 -146 228
-45 670 -147 1044 -240 165 -41 313 -74 330 -72 30 3 31 5 34 55 4 61 -15 86
-75 102 -136 34 -1232 281 -1648 371 -570 124 -652 140 -706 140 -37 0 -39 -2
-39 -30z"/>
<path d="M25346 6125 c-47 -16 -158 -81 -351 -203 -208 -132 -298 -198 -319
-233 -37 -63 -14 -139 41 -139 45 0 320 153 570 317 185 122 207 151 161 219
-31 45 -56 55 -102 39z"/>
<path d="M20027 3302 c-21 -23 -22 -102 -2 -141 16 -32 33 -37 287 -92 351
-75 589 -120 664 -126 80 -6 80 -6 117 27 47 41 50 79 9 109 -63 45 -231 93
-588 170 -358 77 -456 88 -487 53z"/>
<path d="M21448 3058 c-28 -24 -48 -62 -48 -95 0 -83 85 -110 755 -243 198
-39 500 -101 670 -136 550 -115 675 -132 695 -95 11 22 14 100 4 126 -15 39
-108 66 -534 155 -352 74 -1492 300 -1511 300 -8 0 -22 -6 -31 -12z"/>
<path d="M19996 2825 c-51 -55 -39 -108 33 -144 72 -37 434 -134 821 -220 239
-53 2362 -498 2455 -515 130 -23 186 -21 213 7 48 51 48 110 -1 141 -72 48
-185 74 -1812 420 -297 63 -736 158 -975 210 -525 114 -587 126 -657 126 -45
0 -58 -4 -77 -25z"/>
<path d="M9173 279 c-48 -49 44 -83 170 -63 52 9 46 27 -16 47 -79 25 -140 31
-154 16z"/>
</g>
</svg>
