<svg xmlns="http://www.w3.org/2000/svg" viewBox="120 -814 720 640.15"><path d="m480-173.846-30.308-27.385q-97.923-89.461-162-153.153-64.077-63.693-101.154-112.347-37.077-48.654-51.807-88.038Q120-594.154 120-634q0-76.308 51.846-128.154Q223.692-814 300-814q52.769 0 99 27t81 78.538Q514.769-760 561-787t99-27q76.308 0 128.154 51.846Q840-710.308 840-634q0 39.846-14.731 79.231-14.73 39.384-51.807 88.038-37.077 48.654-100.769 112.347Q609-290.692 510.308-201.231L480-173.846ZM480-228q96-86.769 158-148.654 62-61.884 98-107.384t50-80.616q14-35.115 14-69.346 0-60-40-100t-100-40q-47.769 0-88.154 27.269-40.384 27.269-72.307 82.116h-39.078q-32.692-55.616-72.692-82.5Q347.769-774 300-774q-59.231 0-99.615 40Q160-694 160-634q0 34.231 14 69.346 14 35.116 50 80.616t98 107q62 61.5 158 149.038Zm0-273Z"/></svg>