<svg viewBox="0 0 19 17" xmlns="http://www.w3.org/2000/svg">
<path d="M9.74641 16.9351L8.69383 16.0091C7.11311 14.6057 5.80592 13.3997 4.77227 12.3911C3.73863 11.3825 2.91954 10.4849 2.31501 9.69819C1.71046 8.91153 1.28808 8.19396 1.04785 7.5455C0.807618 6.89703 0.6875 6.23899 0.6875 5.57138C0.6875 4.24693 1.14381 3.13813 2.05642 2.24499C2.96904 1.35185 4.10201 0.905273 5.45534 0.905273C6.28788 0.905273 7.07458 1.09582 7.81543 1.4769C8.55627 1.85797 9.19993 2.40444 9.74641 3.11632C10.2929 2.40444 10.9365 1.85797 11.6774 1.4769C12.4182 1.09582 13.2049 0.905273 14.0375 0.905273C15.3908 0.905273 16.5238 1.35185 17.4364 2.24499C18.349 3.13813 18.8053 4.24693 18.8053 5.57138C18.8053 6.23899 18.6852 6.89703 18.445 7.5455C18.2047 8.19396 17.7824 8.91153 17.1778 9.69819C16.5733 10.4849 15.7557 11.3825 14.7251 12.3911C13.6945 13.3997 12.3858 14.6057 10.799 16.0091L9.74641 16.9351Z" />
</svg>
