<svg xmlns="http://www.w3.org/2000/svg" xmlns:xlink="http://www.w3.org/1999/xlink" version="1.1" style="shape-rendering:geometricPrecision; text-rendering:geometricPrecision; image-rendering:optimizeQuality; fill-rule:evenodd; clip-rule:evenodd" viewBox="29.44 29.44 780.13 780.13">
<g><path style="opacity:1" d="M 174.5,29.5 C 340.5,29.3333 506.5,29.5 672.5,30C 675.587,30.2589 678.587,30.7589 681.5,31.5C 687.526,33.9244 693.859,35.5911 700.5,36.5C 701.78,37.9313 703.447,38.5979 705.5,38.5C 706.791,38.2627 707.791,38.596 708.5,39.5C 709.93,40.5375 711.597,41.2041 713.5,41.5C 714.791,41.2627 715.791,41.596 716.5,42.5C 717.514,43.6737 718.847,44.3404 720.5,44.5C 727.679,47.3721 734.346,51.0388 740.5,55.5C 741.035,57.4456 742.368,58.4456 744.5,58.5C 744.973,59.9063 745.973,60.573 747.5,60.5C 750.729,62.9416 753.729,65.6082 756.5,68.5C 757.262,70.2624 758.596,71.2624 760.5,71.5C 760.5,73.5 761.5,74.5 763.5,74.5C 765.094,77.7642 767.427,80.4309 770.5,82.5C 771.5,82.8333 772.167,83.5 772.5,84.5C 772.427,86.0269 773.094,87.0269 774.5,87.5C 775.5,87.8333 776.167,88.5 776.5,89.5C 777.08,91.7488 778.413,93.4154 780.5,94.5C 780.427,96.0269 781.094,97.0269 782.5,97.5C 782.427,99.0269 783.094,100.027 784.5,100.5C 785.338,100.842 785.672,101.508 785.5,102.5C 785.427,104.027 786.094,105.027 787.5,105.5C 788.338,105.842 788.672,106.508 788.5,107.5C 788.427,109.027 789.094,110.027 790.5,110.5C 792.341,112.849 793.674,115.515 794.5,118.5C 794.66,120.153 795.326,121.486 796.5,122.5C 796.182,125.481 797.182,127.815 799.5,129.5C 800.363,131.421 801.029,133.421 801.5,135.5C 801.528,138.916 802.528,141.916 804.5,144.5C 804.5,144.833 804.5,145.167 804.5,145.5C 804.565,148.428 805.232,151.095 806.5,153.5C 807.895,157.591 808.728,161.924 809,166.5C 809.5,332.166 809.667,497.833 809.5,663.5C 808.335,668.633 807.668,673.966 807.5,679.5C 807.634,681.292 807.301,682.958 806.5,684.5C 805.087,687.219 804.42,690.219 804.5,693.5C 804.737,694.791 804.404,695.791 803.5,696.5C 801.975,699.583 800.975,702.916 800.5,706.5C 799.069,707.78 798.402,709.447 798.5,711.5C 797.397,715.497 795.731,719.164 793.5,722.5C 792.326,723.514 791.66,724.847 791.5,726.5C 790.59,729.992 788.924,732.992 786.5,735.5C 785.094,735.973 784.427,736.973 784.5,738.5C 782.646,742.221 780.313,745.554 777.5,748.5C 776.094,748.973 775.427,749.973 775.5,751.5C 774.5,753.167 773.167,754.5 771.5,755.5C 770.094,755.973 769.427,756.973 769.5,758.5C 766.167,762.5 762.5,766.167 758.5,769.5C 756.973,769.427 755.973,770.094 755.5,771.5C 754.5,773.167 753.167,774.5 751.5,775.5C 749.973,775.427 748.973,776.094 748.5,777.5C 745.554,780.313 742.221,782.646 738.5,784.5C 736.973,784.427 735.973,785.094 735.5,786.5C 732.992,788.924 729.992,790.59 726.5,791.5C 724.847,791.66 723.514,792.326 722.5,793.5C 719.164,795.731 715.497,797.397 711.5,798.5C 709.447,798.402 707.78,799.069 706.5,800.5C 702.916,800.975 699.583,801.975 696.5,803.5C 695.791,804.404 694.791,804.737 693.5,804.5C 690.219,804.42 687.219,805.087 684.5,806.5C 682.958,807.301 681.292,807.634 679.5,807.5C 673.966,807.668 668.633,808.335 663.5,809.5C 497.833,809.667 332.166,809.5 166.5,809C 161.924,808.728 157.591,807.895 153.5,806.5C 151.095,805.232 148.428,804.565 145.5,804.5C 145.167,804.5 144.833,804.5 144.5,804.5C 141.916,802.528 138.916,801.528 135.5,801.5C 133.421,801.029 131.421,800.363 129.5,799.5C 127.815,797.182 125.481,796.182 122.5,796.5C 121.486,795.326 120.153,794.66 118.5,794.5C 115.515,793.674 112.849,792.341 110.5,790.5C 110.027,789.094 109.027,788.427 107.5,788.5C 106.508,788.672 105.842,788.338 105.5,787.5C 105.027,786.094 104.027,785.427 102.5,785.5C 101.508,785.672 100.842,785.338 100.5,784.5C 100.027,783.094 99.0269,782.427 97.5,782.5C 97.0269,781.094 96.0269,780.427 94.5,780.5C 93.4154,778.413 91.7488,777.08 89.5,776.5C 88.5,776.167 87.8333,775.5 87.5,774.5C 87.0269,773.094 86.0269,772.427 84.5,772.5C 83.5,772.167 82.8333,771.5 82.5,770.5C 80.4309,767.427 77.7642,765.094 74.5,763.5C 74.5,761.5 73.5,760.5 71.5,760.5C 71.2624,758.596 70.2624,757.262 68.5,756.5C 65.6082,753.729 62.9416,750.729 60.5,747.5C 60.573,745.973 59.9063,744.973 58.5,744.5C 58.4456,742.368 57.4456,741.035 55.5,740.5C 51.0388,734.346 47.3721,727.679 44.5,720.5C 44.3404,718.847 43.6737,717.514 42.5,716.5C 41.596,715.791 41.2627,714.791 41.5,713.5C 41.2041,711.597 40.5375,709.93 39.5,708.5C 38.596,707.791 38.2627,706.791 38.5,705.5C 38.5979,703.447 37.9313,701.78 36.5,700.5C 35.5911,693.859 33.9244,687.526 31.5,681.5C 30.7589,678.587 30.2589,675.587 30,672.5C 29.5,506.5 29.3333,340.5 29.5,174.5C 31.2605,168.413 32.2605,162.08 32.5,155.5C 32.2053,153.265 32.5386,151.265 33.5,149.5C 34.9238,147.485 35.5905,145.152 35.5,142.5C 37.6098,138.498 38.9431,134.165 39.5,129.5C 41.3065,124.746 43.3065,120.08 45.5,115.5C 46.9063,115.027 47.573,114.027 47.5,112.5C 47.3284,111.508 47.6618,110.842 48.5,110.5C 50.4077,109.514 51.4077,107.848 51.5,105.5C 51.3284,104.508 51.6618,103.842 52.5,103.5C 54.2624,102.738 55.2624,101.404 55.5,99.5C 56.9063,99.0269 57.573,98.0269 57.5,96.5C 58.9063,96.0269 59.573,95.0269 59.5,93.5C 60.9063,93.0269 61.573,92.0269 61.5,90.5C 64.2427,88.7607 66.2427,86.4274 67.5,83.5C 73.1667,78.5 78.5,73.1667 83.5,67.5C 86.4274,66.2427 88.7607,64.2427 90.5,61.5C 92.0269,61.573 93.0269,60.9063 93.5,59.5C 95.0269,59.573 96.0269,58.9063 96.5,57.5C 96.9731,56.0937 97.9731,55.427 99.5,55.5C 101.404,55.2624 102.738,54.2624 103.5,52.5C 103.842,51.6618 104.508,51.3284 105.5,51.5C 107.027,51.573 108.027,50.9063 108.5,49.5C 109.514,48.3263 110.847,47.6596 112.5,47.5C 115.802,47.0884 118.469,45.755 120.5,43.5C 121.93,42.4625 123.597,41.7959 125.5,41.5C 131.363,39.88 137.03,37.88 142.5,35.5C 145.152,35.5905 147.485,34.9238 149.5,33.5C 152.627,32.4192 155.96,31.7526 159.5,31.5C 164.731,31.5557 169.731,30.889 174.5,29.5 Z M 234.5,172.5 C 236.905,173.768 239.572,174.435 242.5,174.5C 244.849,176.341 247.515,177.674 250.5,178.5C 250.973,179.906 251.973,180.573 253.5,180.5C 253.973,181.906 254.973,182.573 256.5,182.5C 257.585,184.587 259.251,185.92 261.5,186.5C 261.427,188.027 262.094,189.027 263.5,189.5C 266.923,193.581 269.923,197.914 272.5,202.5C 272.707,205.241 273.707,207.574 275.5,209.5C 275.755,213.8 276.755,217.8 278.5,221.5C 278.5,226.5 278.5,231.5 278.5,236.5C 276.882,239.888 275.882,243.554 275.5,247.5C 274.559,249.05 273.893,250.716 273.5,252.5C 271.805,254.897 270.472,257.563 269.5,260.5C 268.662,260.842 268.328,261.508 268.5,262.5C 266.086,263.911 264.419,265.911 263.5,268.5C 262.167,269.167 261.167,270.167 260.5,271.5C 258.596,271.738 257.262,272.738 256.5,274.5C 254.973,274.427 253.973,275.094 253.5,276.5C 251.973,276.427 250.973,277.094 250.5,278.5C 248.847,278.66 247.514,279.326 246.5,280.5C 242.303,281.542 238.303,282.875 234.5,284.5C 232.901,284.232 231.568,284.566 230.5,285.5C 221.16,286.668 211.827,286.668 202.5,285.5C 200.786,284.262 198.786,283.595 196.5,283.5C 194.698,282.542 192.698,281.875 190.5,281.5C 189.486,280.326 188.153,279.66 186.5,279.5C 185.609,278.89 184.609,278.557 183.5,278.5C 182.564,277.026 181.23,276.026 179.5,275.5C 178.205,274.512 176.872,273.512 175.5,272.5C 174.415,270.413 172.749,269.08 170.5,268.5C 169.92,266.251 168.587,264.585 166.5,263.5C 166.262,261.596 165.262,260.262 163.5,259.5C 163.573,257.973 162.906,256.973 161.5,256.5C 161.204,254.597 160.537,252.93 159.5,251.5C 159.204,249.597 158.537,247.93 157.5,246.5C 157.5,246.167 157.5,245.833 157.5,245.5C 156.28,240.441 155.28,235.441 154.5,230.5C 154.927,226.176 155.261,221.842 155.5,217.5C 156.913,214.781 157.58,211.781 157.5,208.5C 158.931,207.22 159.598,205.553 159.5,203.5C 161.083,201.337 162.416,199.004 163.5,196.5C 164.906,196.027 165.573,195.027 165.5,193.5C 166.5,193.167 167.167,192.5 167.5,191.5C 169.833,189.833 171.833,187.833 173.5,185.5C 176.167,183.5 178.833,181.5 181.5,179.5C 183.027,179.573 184.027,178.906 184.5,177.5C 185.492,177.672 186.158,177.338 186.5,176.5C 188.553,176.598 190.22,175.931 191.5,174.5C 205.654,170.103 219.987,169.436 234.5,172.5 Z M 154.5,326.5 C 195.833,326.5 237.167,326.5 278.5,326.5C 278.5,445.833 278.5,565.167 278.5,684.5C 237.167,684.5 195.833,684.5 154.5,684.5C 154.5,565.167 154.5,445.833 154.5,326.5 Z M 450.5,326.5 C 450.333,342.503 450.5,358.503 451,374.5C 452.039,373.756 452.539,372.756 452.5,371.5C 460.206,361.46 469.206,352.793 479.5,345.5C 481.027,345.573 482.027,344.906 482.5,343.5C 483.492,343.672 484.158,343.338 484.5,342.5C 486.027,342.573 487.027,341.906 487.5,340.5C 492.91,338.148 498.244,335.815 503.5,333.5C 506.916,333.472 509.916,332.472 512.5,330.5C 513.167,330.5 513.833,330.5 514.5,330.5C 519.035,329.863 523.368,328.863 527.5,327.5C 527.833,327.5 528.167,327.5 528.5,327.5C 537.812,326.723 547.146,326.39 556.5,326.5C 563.167,327.167 569.833,327.833 576.5,328.5C 579.219,329.913 582.219,330.58 585.5,330.5C 587.214,331.738 589.214,332.405 591.5,332.5C 593.302,333.458 595.302,334.125 597.5,334.5C 601.718,336.441 606.051,338.108 610.5,339.5C 610.973,340.906 611.973,341.573 613.5,341.5C 614.514,342.674 615.847,343.34 617.5,343.5C 617.973,344.906 618.973,345.573 620.5,345.5C 620.833,345.5 621.167,345.5 621.5,345.5C 621.973,346.906 622.973,347.573 624.5,347.5C 624.973,348.906 625.973,349.573 627.5,349.5C 628.262,351.262 629.596,352.262 631.5,352.5C 631.833,353.5 632.5,354.167 633.5,354.5C 634.262,356.262 635.596,357.262 637.5,357.5C 640.5,360.833 643.5,364.167 646.5,367.5C 647.167,368.833 648.167,369.833 649.5,370.5C 651.177,372.54 652.844,374.54 654.5,376.5C 655.351,378.882 656.684,380.882 658.5,382.5C 661.851,388.54 665.184,394.54 668.5,400.5C 668.707,403.241 669.707,405.574 671.5,407.5C 671.733,410.542 672.733,413.208 674.5,415.5C 674.263,416.791 674.596,417.791 675.5,418.5C 675.899,422.116 676.899,425.45 678.5,428.5C 678.5,429.167 678.5,429.833 678.5,430.5C 678.802,433.373 679.469,436.039 680.5,438.5C 680.325,440.621 680.659,442.621 681.5,444.5C 682.504,455.981 683.504,467.314 684.5,478.5C 684.5,547.167 684.5,615.833 684.5,684.5C 643.167,684.5 601.833,684.5 560.5,684.5C 560.667,612.499 560.5,540.499 560,468.5C 559.802,466.618 559.302,464.952 558.5,463.5C 558.5,463.167 558.5,462.833 558.5,462.5C 558.435,459.572 557.768,456.905 556.5,454.5C 556.598,452.447 555.931,450.78 554.5,449.5C 554.204,447.597 553.537,445.93 552.5,444.5C 552.573,442.973 551.906,441.973 550.5,441.5C 550.262,439.596 549.262,438.262 547.5,437.5C 546.92,435.251 545.587,433.585 543.5,432.5C 542.738,430.738 541.404,429.738 539.5,429.5C 537.516,426.836 534.849,425.169 531.5,424.5C 530.22,423.069 528.553,422.402 526.5,422.5C 524.162,420.96 521.495,420.294 518.5,420.5C 509.833,419.167 501.167,419.167 492.5,420.5C 488.838,420.723 485.505,421.723 482.5,423.5C 480.973,423.427 479.973,424.094 479.5,425.5C 476.802,425.845 474.802,427.178 473.5,429.5C 470.911,430.419 468.911,432.086 467.5,434.5C 465.738,435.262 464.738,436.596 464.5,438.5C 463.5,438.833 462.833,439.5 462.5,440.5C 460.412,442.336 459.079,444.669 458.5,447.5C 456.416,450.053 455.083,453.053 454.5,456.5C 454.167,457.833 453.833,459.167 453.5,460.5C 451.96,462.838 451.294,465.505 451.5,468.5C 450.506,540.459 450.173,612.459 450.5,684.5C 409.167,684.5 367.833,684.5 326.5,684.5C 326.5,565.167 326.5,445.833 326.5,326.5C 367.833,326.5 409.167,326.5 450.5,326.5 Z"/></g>
<g><path style="opacity:1" fill="#777777" d="M 174.5,29.5 C 169.731,30.889 164.731,31.5557 159.5,31.5C 164.25,29.9692 169.25,29.3025 174.5,29.5 Z"/></g>
<g><path style="opacity:1" fill="#9c9c9c" d="M 681.5,31.5 C 688.198,32.1841 694.532,33.8508 700.5,36.5C 693.859,35.5911 687.526,33.9244 681.5,31.5 Z"/></g>
<g><path style="opacity:1" fill="#727272" d="M 149.5,33.5 C 147.485,34.9238 145.152,35.5905 142.5,35.5C 144.515,34.0762 146.848,33.4095 149.5,33.5 Z"/></g>
<g><path style="opacity:1" fill="#656565" d="M 142.5,35.5 C 137.03,37.88 131.363,39.88 125.5,41.5C 130.687,38.3255 136.353,36.3255 142.5,35.5 Z"/></g>
<g><path style="opacity:1" fill="#838383" d="M 700.5,36.5 C 702.553,36.4021 704.22,37.0687 705.5,38.5C 703.447,38.5979 701.78,37.9313 700.5,36.5 Z"/></g>
<g><path style="opacity:1" fill="#acacac" d="M 708.5,39.5 C 710.698,39.1201 712.365,39.7868 713.5,41.5C 711.597,41.2041 709.93,40.5375 708.5,39.5 Z"/></g>
<g><path style="opacity:1" fill="#adadad" d="M 716.5,42.5 C 718.38,42.2291 719.713,42.8958 720.5,44.5C 718.847,44.3404 717.514,43.6737 716.5,42.5 Z"/></g>
<g><path style="opacity:1" fill="#565656" d="M 120.5,43.5 C 118.469,45.755 115.802,47.0884 112.5,47.5C 114.789,45.6127 117.455,44.2794 120.5,43.5 Z"/></g>
<g><path style="opacity:1" fill="#828282" d="M 108.5,49.5 C 108.027,50.9063 107.027,51.573 105.5,51.5C 105.973,50.0937 106.973,49.427 108.5,49.5 Z"/></g>
<g><path style="opacity:1" fill="#797979" d="M 103.5,52.5 C 102.738,54.2624 101.404,55.2624 99.5,55.5C 100.262,53.7376 101.596,52.7376 103.5,52.5 Z"/></g>
<g><path style="opacity:1" fill="#848484" d="M 740.5,55.5 C 742.23,56.0256 743.564,57.0256 744.5,58.5C 742.368,58.4456 741.035,57.4456 740.5,55.5 Z"/></g>
<g><path style="opacity:1" fill="#686868" d="M 96.5,57.5 C 96.0269,58.9063 95.0269,59.573 93.5,59.5C 93.9731,58.0937 94.9731,57.427 96.5,57.5 Z"/></g>
<g><path style="opacity:1" fill="#bebebe" d="M 744.5,58.5 C 746.027,58.427 747.027,59.0937 747.5,60.5C 745.973,60.573 744.973,59.9063 744.5,58.5 Z"/></g>
<g><path style="opacity:1" fill="#7d7d7d" d="M 93.5,59.5 C 93.0269,60.9063 92.0269,61.573 90.5,61.5C 90.9731,60.0937 91.9731,59.427 93.5,59.5 Z"/></g>
<g><path style="opacity:1" fill="#6a6a6a" d="M 90.5,61.5 C 88.7607,64.2427 86.4274,66.2427 83.5,67.5C 85.2393,64.7573 87.5726,62.7573 90.5,61.5 Z"/></g>
<g><path style="opacity:1" fill="#a2a2a2" d="M 756.5,68.5 C 758.404,68.7376 759.738,69.7376 760.5,71.5C 758.596,71.2624 757.262,70.2624 756.5,68.5 Z"/></g>
<g><path style="opacity:1" fill="#7a7a7a" d="M 83.5,67.5 C 78.5,73.1667 73.1667,78.5 67.5,83.5C 71.8333,77.1667 77.1667,71.8333 83.5,67.5 Z"/></g>
<g><path style="opacity:1" fill="#7d7d7d" d="M 760.5,71.5 C 761.833,72.1667 762.833,73.1667 763.5,74.5C 761.5,74.5 760.5,73.5 760.5,71.5 Z"/></g>
<g><path style="opacity:1" fill="#818181" d="M 763.5,74.5 C 766.573,76.5691 768.906,79.2358 770.5,82.5C 767.427,80.4309 765.094,77.7642 763.5,74.5 Z"/></g>
<g><path style="opacity:1" fill="#676767" d="M 772.5,84.5 C 773.906,84.9731 774.573,85.9731 774.5,87.5C 773.094,87.0269 772.427,86.0269 772.5,84.5 Z"/></g>
<g><path style="opacity:1" fill="#838383" d="M 67.5,83.5 C 66.2427,86.4274 64.2427,88.7607 61.5,90.5C 62.7573,87.5726 64.7573,85.2393 67.5,83.5 Z"/></g>
<g><path style="opacity:1" fill="#898989" d="M 61.5,90.5 C 61.573,92.0269 60.9063,93.0269 59.5,93.5C 59.427,91.9731 60.0937,90.9731 61.5,90.5 Z"/></g>
<g><path style="opacity:1" fill="#959595" d="M 776.5,89.5 C 778.587,90.5846 779.92,92.2512 780.5,94.5C 778.413,93.4154 777.08,91.7488 776.5,89.5 Z"/></g>
<g><path style="opacity:1" fill="#797979" d="M 59.5,93.5 C 59.573,95.0269 58.9063,96.0269 57.5,96.5C 57.427,94.9731 58.0937,93.9731 59.5,93.5 Z"/></g>
<g><path style="opacity:1" fill="#989898" d="M 780.5,94.5 C 781.906,94.9731 782.573,95.9731 782.5,97.5C 781.094,97.0269 780.427,96.0269 780.5,94.5 Z"/></g>
<g><path style="opacity:1" fill="#676767" d="M 57.5,96.5 C 57.573,98.0269 56.9063,99.0269 55.5,99.5C 55.427,97.9731 56.0937,96.9731 57.5,96.5 Z"/></g>
<g><path style="opacity:1" fill="#979797" d="M 782.5,97.5 C 783.906,97.9731 784.573,98.9731 784.5,100.5C 783.094,100.027 782.427,99.0269 782.5,97.5 Z"/></g>
<g><path style="opacity:1" fill="#797979" d="M 55.5,99.5 C 55.2624,101.404 54.2624,102.738 52.5,103.5C 52.7376,101.596 53.7376,100.262 55.5,99.5 Z"/></g>
<g><path style="opacity:1" fill="#7d7d7d" d="M 785.5,102.5 C 786.906,102.973 787.573,103.973 787.5,105.5C 786.094,105.027 785.427,104.027 785.5,102.5 Z"/></g>
<g><path style="opacity:1" fill="#5b5b5b" d="M 51.5,105.5 C 51.4077,107.848 50.4077,109.514 48.5,110.5C 48.7497,108.326 49.7497,106.659 51.5,105.5 Z"/></g>
<g><path style="opacity:1" fill="#888888" d="M 788.5,107.5 C 789.906,107.973 790.573,108.973 790.5,110.5C 789.094,110.027 788.427,109.027 788.5,107.5 Z"/></g>
<g><path style="opacity:1" fill="#acacac" d="M 47.5,112.5 C 47.573,114.027 46.9063,115.027 45.5,115.5C 45.427,113.973 46.0937,112.973 47.5,112.5 Z"/></g>
<g><path style="opacity:1" fill="#aaaaaa" d="M 794.5,118.5 C 796.104,119.287 796.771,120.62 796.5,122.5C 795.326,121.486 794.66,120.153 794.5,118.5 Z"/></g>
<g><path style="opacity:1" fill="#707070" d="M 796.5,122.5 C 797.912,124.604 798.912,126.937 799.5,129.5C 797.182,127.815 796.182,125.481 796.5,122.5 Z"/></g>
<g><path style="opacity:1" fill="#767676" d="M 39.5,129.5 C 38.9431,134.165 37.6098,138.498 35.5,142.5C 36.0091,137.84 37.3424,133.507 39.5,129.5 Z"/></g>
<g><path style="opacity:1" fill="#848484" d="M 801.5,135.5 C 803.072,138.215 804.072,141.215 804.5,144.5C 802.528,141.916 801.528,138.916 801.5,135.5 Z"/></g>
<g><path style="opacity:1" fill="#7f7f7f" d="M 35.5,142.5 C 35.5905,145.152 34.9238,147.485 33.5,149.5C 33.4095,146.848 34.0762,144.515 35.5,142.5 Z"/></g>
<g><path style="opacity:1" fill="#929292" d="M 804.5,145.5 C 806.04,147.838 806.706,150.505 806.5,153.5C 805.232,151.095 804.565,148.428 804.5,145.5 Z"/></g>
<g><path style="opacity:1" fill="#676767" d="M 32.5,155.5 C 32.2605,162.08 31.2605,168.413 29.5,174.5C 29.331,167.853 30.331,161.52 32.5,155.5 Z"/></g>
<g><path style="opacity:1" fill="#808080" d="M 234.5,172.5 C 237.495,172.294 240.162,172.96 242.5,174.5C 239.572,174.435 236.905,173.768 234.5,172.5 Z"/></g>
<g><path style="opacity:1" fill="#9d9d9d" d="M 191.5,174.5 C 190.22,175.931 188.553,176.598 186.5,176.5C 187.78,175.069 189.447,174.402 191.5,174.5 Z"/></g>
<g><path style="opacity:1" fill="#b7b7b7" d="M 184.5,177.5 C 184.027,178.906 183.027,179.573 181.5,179.5C 181.973,178.094 182.973,177.427 184.5,177.5 Z"/></g>
<g><path style="opacity:1" fill="#949494" d="M 250.5,178.5 C 252.027,178.427 253.027,179.094 253.5,180.5C 251.973,180.573 250.973,179.906 250.5,178.5 Z"/></g>
<g><path style="opacity:1" fill="#868686" d="M 253.5,180.5 C 255.027,180.427 256.027,181.094 256.5,182.5C 254.973,182.573 253.973,181.906 253.5,180.5 Z"/></g>
<g><path style="opacity:1" fill="#757575" d="M 256.5,182.5 C 258.749,183.08 260.415,184.413 261.5,186.5C 259.251,185.92 257.585,184.587 256.5,182.5 Z"/></g>
<g><path style="opacity:1" fill="#acacac" d="M 261.5,186.5 C 262.906,186.973 263.573,187.973 263.5,189.5C 262.094,189.027 261.427,188.027 261.5,186.5 Z"/></g>
<g><path style="opacity:1" fill="#b8b8b8" d="M 173.5,185.5 C 171.833,187.833 169.833,189.833 167.5,191.5C 168.5,188.5 170.5,186.5 173.5,185.5 Z"/></g>
<g><path style="opacity:1" fill="#aaaaaa" d="M 165.5,193.5 C 165.573,195.027 164.906,196.027 163.5,196.5C 163.427,194.973 164.094,193.973 165.5,193.5 Z"/></g>
<g><path style="opacity:1" fill="#adadad" d="M 272.5,202.5 C 274.293,204.426 275.293,206.759 275.5,209.5C 273.707,207.574 272.707,205.241 272.5,202.5 Z"/></g>
<g><path style="opacity:1" fill="#848484" d="M 159.5,203.5 C 159.598,205.553 158.931,207.22 157.5,208.5C 157.402,206.447 158.069,204.78 159.5,203.5 Z"/></g>
<g><path style="opacity:1" fill="#a4a4a4" d="M 275.5,209.5 C 277.692,213.098 278.692,217.098 278.5,221.5C 276.755,217.8 275.755,213.8 275.5,209.5 Z"/></g>
<g><path style="opacity:1" fill="#a2a2a2" d="M 157.5,208.5 C 157.58,211.781 156.913,214.781 155.5,217.5C 155.215,214.171 155.882,211.171 157.5,208.5 Z"/></g>
<g><path style="opacity:1" fill="#8a8a8a" d="M 154.5,230.5 C 155.28,235.441 156.28,240.441 157.5,245.5C 156.207,244.158 155.374,242.491 155,240.5C 154.502,237.183 154.335,233.85 154.5,230.5 Z"/></g>
<g><path style="opacity:1" fill="#9b9b9b" d="M 278.5,236.5 C 278.568,240.57 277.568,244.237 275.5,247.5C 275.882,243.554 276.882,239.888 278.5,236.5 Z"/></g>
<g><path style="opacity:1" fill="#686868" d="M 157.5,246.5 C 158.537,247.93 159.204,249.597 159.5,251.5C 157.787,250.365 157.12,248.698 157.5,246.5 Z"/></g>
<g><path style="opacity:1" fill="#676767" d="M 273.5,252.5 C 273.391,255.899 272.058,258.566 269.5,260.5C 270.472,257.563 271.805,254.897 273.5,252.5 Z"/></g>
<g><path style="opacity:1" fill="#757575" d="M 161.5,256.5 C 162.906,256.973 163.573,257.973 163.5,259.5C 162.094,259.027 161.427,258.027 161.5,256.5 Z"/></g>
<g><path style="opacity:1" fill="#8d8d8d" d="M 163.5,259.5 C 165.262,260.262 166.262,261.596 166.5,263.5C 164.738,262.738 163.738,261.404 163.5,259.5 Z"/></g>
<g><path style="opacity:1" fill="#898989" d="M 166.5,263.5 C 168.587,264.585 169.92,266.251 170.5,268.5C 168.413,267.415 167.08,265.749 166.5,263.5 Z"/></g>
<g><path style="opacity:1" fill="#7b7b7b" d="M 268.5,262.5 C 267.581,265.089 265.914,267.089 263.5,268.5C 264.419,265.911 266.086,263.911 268.5,262.5 Z"/></g>
<g><path style="opacity:1" fill="#a9a9a9" d="M 170.5,268.5 C 172.749,269.08 174.415,270.413 175.5,272.5C 173.251,271.92 171.585,270.587 170.5,268.5 Z"/></g>
<g><path style="opacity:1" fill="#6f6f6f" d="M 260.5,271.5 C 259.738,273.262 258.404,274.262 256.5,274.5C 257.262,272.738 258.596,271.738 260.5,271.5 Z"/></g>
<g><path style="opacity:1" fill="#7d7d7d" d="M 256.5,274.5 C 256.027,275.906 255.027,276.573 253.5,276.5C 253.973,275.094 254.973,274.427 256.5,274.5 Z"/></g>
<g><path style="opacity:1" fill="#7a7a7a" d="M 179.5,275.5 C 181.23,276.026 182.564,277.026 183.5,278.5C 181.368,278.446 180.035,277.446 179.5,275.5 Z"/></g>
<g><path style="opacity:1" fill="#7a7a7a" d="M 253.5,276.5 C 253.027,277.906 252.027,278.573 250.5,278.5C 250.973,277.094 251.973,276.427 253.5,276.5 Z"/></g>
<g><path style="opacity:1" fill="#ababab" d="M 186.5,279.5 C 188.153,279.66 189.486,280.326 190.5,281.5C 188.62,281.771 187.287,281.104 186.5,279.5 Z"/></g>
<g><path style="opacity:1" fill="#747474" d="M 246.5,280.5 C 243.079,283.196 239.079,284.53 234.5,284.5C 238.303,282.875 242.303,281.542 246.5,280.5 Z"/></g>
<g><path style="opacity:1" fill="#939393" d="M 196.5,283.5 C 198.786,283.595 200.786,284.262 202.5,285.5C 200.102,285.741 198.102,285.074 196.5,283.5 Z"/></g>
<g><path style="opacity:1" fill="#797979" d="M 202.5,285.5 C 211.827,286.668 221.16,286.668 230.5,285.5C 221.167,288.167 211.833,288.167 202.5,285.5 Z"/></g>
<g><path style="opacity:1" fill="#929292" d="M 154.5,326.5 C 195.997,325.501 237.663,325.168 279.5,325.5C 279.833,445.334 279.5,565.001 278.5,684.5C 278.5,565.167 278.5,445.833 278.5,326.5C 237.167,326.5 195.833,326.5 154.5,326.5 Z"/></g>
<g><path style="opacity:1" fill="#737373" d="M 556.5,326.5 C 547.146,326.39 537.812,326.723 528.5,327.5C 533.925,326.016 539.591,325.349 545.5,325.5C 549.349,325.501 553.016,325.835 556.5,326.5 Z"/></g>
<g><path style="opacity:1" fill="#959595" d="M 450.5,325.5 C 450.5,325.833 450.5,326.167 450.5,326.5C 409.167,326.5 367.833,326.5 326.5,326.5C 326.5,445.833 326.5,565.167 326.5,684.5C 325.5,565.001 325.167,445.334 325.5,325.5C 367.167,325.5 408.833,325.5 450.5,325.5 Z"/></g>
<g><path style="opacity:1" fill="#3d3d3d" d="M 450.5,325.5 C 451.167,340.833 451.833,356.167 452.5,371.5C 452.539,372.756 452.039,373.756 451,374.5C 450.5,358.503 450.333,342.503 450.5,326.5C 450.5,326.167 450.5,325.833 450.5,325.5 Z"/></g>
<g><path style="opacity:1" fill="#9c9c9c" d="M 527.5,327.5 C 523.368,328.863 519.035,329.863 514.5,330.5C 518.393,328.124 522.727,327.124 527.5,327.5 Z"/></g>
<g><path style="opacity:1" fill="#818181" d="M 576.5,328.5 C 579.781,328.42 582.781,329.087 585.5,330.5C 582.219,330.58 579.219,329.913 576.5,328.5 Z"/></g>
<g><path style="opacity:1" fill="#878787" d="M 585.5,330.5 C 587.898,330.259 589.898,330.926 591.5,332.5C 589.214,332.405 587.214,331.738 585.5,330.5 Z"/></g>
<g><path style="opacity:1" fill="#b9b9b9" d="M 512.5,330.5 C 509.916,332.472 506.916,333.472 503.5,333.5C 506.215,331.928 509.215,330.928 512.5,330.5 Z"/></g>
<g><path style="opacity:1" fill="#777777" d="M 591.5,332.5 C 594.01,332.054 596.01,332.72 597.5,334.5C 595.302,334.125 593.302,333.458 591.5,332.5 Z"/></g>
<g><path style="opacity:1" fill="#9c9c9c" d="M 610.5,339.5 C 612.027,339.427 613.027,340.094 613.5,341.5C 611.973,341.573 610.973,340.906 610.5,339.5 Z"/></g>
<g><path style="opacity:1" fill="#c1c1c1" d="M 487.5,340.5 C 487.027,341.906 486.027,342.573 484.5,342.5C 484.973,341.094 485.973,340.427 487.5,340.5 Z"/></g>
<g><path style="opacity:1" fill="#bfbfbf" d="M 482.5,343.5 C 482.027,344.906 481.027,345.573 479.5,345.5C 479.973,344.094 480.973,343.427 482.5,343.5 Z"/></g>
<g><path style="opacity:1" fill="#b1b1b1" d="M 617.5,343.5 C 619.027,343.427 620.027,344.094 620.5,345.5C 618.973,345.573 617.973,344.906 617.5,343.5 Z"/></g>
<g><path style="opacity:1" fill="#717171" d="M 621.5,345.5 C 623.027,345.427 624.027,346.094 624.5,347.5C 622.973,347.573 621.973,346.906 621.5,345.5 Z"/></g>
<g><path style="opacity:1" fill="#666666" d="M 624.5,347.5 C 626.027,347.427 627.027,348.094 627.5,349.5C 625.973,349.573 624.973,348.906 624.5,347.5 Z"/></g>
<g><path style="opacity:1" fill="#6a6a6a" d="M 627.5,349.5 C 629.404,349.738 630.738,350.738 631.5,352.5C 629.596,352.262 628.262,351.262 627.5,349.5 Z"/></g>
<g><path style="opacity:1" fill="#868686" d="M 633.5,354.5 C 635.404,354.738 636.738,355.738 637.5,357.5C 635.596,357.262 634.262,356.262 633.5,354.5 Z"/></g>
<g><path style="opacity:1" fill="#a2a2a2" d="M 646.5,367.5 C 648.5,367.5 649.5,368.5 649.5,370.5C 648.167,369.833 647.167,368.833 646.5,367.5 Z"/></g>
<g><path style="opacity:1" fill="#6b6b6b" d="M 654.5,376.5 C 656.796,377.733 658.13,379.733 658.5,382.5C 656.684,380.882 655.351,378.882 654.5,376.5 Z"/></g>
<g><path style="opacity:1" fill="#a2a2a2" d="M 668.5,400.5 C 670.293,402.426 671.293,404.759 671.5,407.5C 669.707,405.574 668.707,403.241 668.5,400.5 Z"/></g>
<g><path style="opacity:1" fill="#9b9b9b" d="M 671.5,407.5 C 673.267,409.792 674.267,412.458 674.5,415.5C 672.733,413.208 671.733,410.542 671.5,407.5 Z"/></g>
<g><path style="opacity:1" fill="#989898" d="M 518.5,420.5 C 521.495,420.294 524.162,420.96 526.5,422.5C 523.572,422.435 520.905,421.768 518.5,420.5 Z"/></g>
<g><path style="opacity:1" fill="#747474" d="M 492.5,420.5 C 489.495,422.277 486.162,423.277 482.5,423.5C 485.505,421.723 488.838,420.723 492.5,420.5 Z"/></g>
<g><path style="opacity:1" fill="#7c7c7c" d="M 675.5,418.5 C 677.41,421.452 678.41,424.786 678.5,428.5C 676.899,425.45 675.899,422.116 675.5,418.5 Z"/></g>
<g><path style="opacity:1" fill="#878787" d="M 526.5,422.5 C 528.553,422.402 530.22,423.069 531.5,424.5C 529.447,424.598 527.78,423.931 526.5,422.5 Z"/></g>
<g><path style="opacity:1" fill="#7f7f7f" d="M 482.5,423.5 C 482.027,424.906 481.027,425.573 479.5,425.5C 479.973,424.094 480.973,423.427 482.5,423.5 Z"/></g>
<g><path style="opacity:1" fill="#a5a5a5" d="M 539.5,429.5 C 541.404,429.738 542.738,430.738 543.5,432.5C 541.596,432.262 540.262,431.262 539.5,429.5 Z"/></g>
<g><path style="opacity:1" fill="#535353" d="M 473.5,429.5 C 472.089,431.914 470.089,433.581 467.5,434.5C 468.911,432.086 470.911,430.419 473.5,429.5 Z"/></g>
<g><path style="opacity:1" fill="#8f8f8f" d="M 543.5,432.5 C 545.587,433.585 546.92,435.251 547.5,437.5C 545.413,436.415 544.08,434.749 543.5,432.5 Z"/></g>
<g><path style="opacity:1" fill="#878787" d="M 678.5,430.5 C 680.223,432.78 680.889,435.447 680.5,438.5C 679.469,436.039 678.802,433.373 678.5,430.5 Z"/></g>
<g><path style="opacity:1" fill="#676767" d="M 467.5,434.5 C 467.262,436.404 466.262,437.738 464.5,438.5C 464.738,436.596 465.738,435.262 467.5,434.5 Z"/></g>
<g><path style="opacity:1" fill="#757575" d="M 547.5,437.5 C 549.262,438.262 550.262,439.596 550.5,441.5C 548.738,440.738 547.738,439.404 547.5,437.5 Z"/></g>
<g><path style="opacity:1" fill="#ababab" d="M 550.5,441.5 C 551.906,441.973 552.573,442.973 552.5,444.5C 551.094,444.027 550.427,443.027 550.5,441.5 Z"/></g>
<g><path style="opacity:1" fill="#5a5a5a" d="M 462.5,440.5 C 462.264,443.621 460.931,445.954 458.5,447.5C 459.079,444.669 460.412,442.336 462.5,440.5 Z"/></g>
<g><path style="opacity:1" fill="#646464" d="M 458.5,447.5 C 458.657,448.873 458.49,450.207 458,451.5C 457.098,453.431 455.931,455.097 454.5,456.5C 455.083,453.053 456.416,450.053 458.5,447.5 Z"/></g>
<g><path style="opacity:1" fill="#9e9e9e" d="M 681.5,444.5 C 682.29,445.609 682.79,446.942 683,448.5C 684.054,458.474 684.554,468.474 684.5,478.5C 683.504,467.314 682.504,455.981 681.5,444.5 Z"/></g>
<g><path style="opacity:1" fill="#6a6a6a" d="M 554.5,449.5 C 555.931,450.78 556.598,452.447 556.5,454.5C 554.787,453.365 554.12,451.698 554.5,449.5 Z"/></g>
<g><path style="opacity:1" fill="#888888" d="M 556.5,454.5 C 557.768,456.905 558.435,459.572 558.5,462.5C 556.96,460.162 556.294,457.495 556.5,454.5 Z"/></g>
<g><path style="opacity:1" fill="#a5a5a5" d="M 453.5,460.5 C 453.435,463.428 452.768,466.095 451.5,468.5C 451.294,465.505 451.96,462.838 453.5,460.5 Z"/></g>
<g><path style="opacity:1" fill="#949494" d="M 558.5,463.5 C 559.302,464.952 559.802,466.618 560,468.5C 560.5,540.499 560.667,612.499 560.5,684.5C 559.808,610.99 559.142,537.323 558.5,463.5 Z"/></g>
<g><path style="opacity:1" fill="#a1a1a1" d="M 809.5,663.5 C 809.745,669.084 809.078,674.417 807.5,679.5C 807.668,673.966 808.335,668.633 809.5,663.5 Z"/></g>
<g><path style="opacity:1" fill="#9c9c9c" d="M 31.5,681.5 C 33.9244,687.526 35.5911,693.859 36.5,700.5C 33.8508,694.532 32.1841,688.198 31.5,681.5 Z"/></g>
<g><path style="opacity:1" fill="#9b9b9b" d="M 806.5,684.5 C 806.58,687.781 805.913,690.781 804.5,693.5C 804.42,690.219 805.087,687.219 806.5,684.5 Z"/></g>
<g><path style="opacity:1" fill="#a3a3a3" d="M 803.5,696.5 C 803.605,700.258 802.605,703.592 800.5,706.5C 800.975,702.916 801.975,699.583 803.5,696.5 Z"/></g>
<g><path style="opacity:1" fill="#838383" d="M 36.5,700.5 C 37.9313,701.78 38.5979,703.447 38.5,705.5C 37.0687,704.22 36.4021,702.553 36.5,700.5 Z"/></g>
<g><path style="opacity:1" fill="#9a9a9a" d="M 800.5,706.5 C 800.598,708.553 799.931,710.22 798.5,711.5C 798.402,709.447 799.069,707.78 800.5,706.5 Z"/></g>
<g><path style="opacity:1" fill="#acacac" d="M 39.5,708.5 C 40.5375,709.93 41.2041,711.597 41.5,713.5C 39.7868,712.365 39.1201,710.698 39.5,708.5 Z"/></g>
<g><path style="opacity:1" fill="#adadad" d="M 42.5,716.5 C 43.6737,717.514 44.3404,718.847 44.5,720.5C 42.8958,719.713 42.2291,718.38 42.5,716.5 Z"/></g>
<g><path style="opacity:1" fill="#a4a4a4" d="M 793.5,722.5 C 793.771,724.38 793.104,725.713 791.5,726.5C 791.66,724.847 792.326,723.514 793.5,722.5 Z"/></g>
<g><path style="opacity:1" fill="#a8a8a8" d="M 786.5,735.5 C 786.573,737.027 785.906,738.027 784.5,738.5C 784.427,736.973 785.094,735.973 786.5,735.5 Z"/></g>
<g><path style="opacity:1" fill="#848484" d="M 55.5,740.5 C 57.4456,741.035 58.4456,742.368 58.5,744.5C 57.0256,743.564 56.0256,742.23 55.5,740.5 Z"/></g>
<g><path style="opacity:1" fill="#bebebe" d="M 58.5,744.5 C 59.9063,744.973 60.573,745.973 60.5,747.5C 59.0937,747.027 58.427,746.027 58.5,744.5 Z"/></g>
<g><path style="opacity:1" fill="#bebebe" d="M 777.5,748.5 C 777.573,750.027 776.906,751.027 775.5,751.5C 775.427,749.973 776.094,748.973 777.5,748.5 Z"/></g>
<g><path style="opacity:1" fill="#acacac" d="M 771.5,755.5 C 771.573,757.027 770.906,758.027 769.5,758.5C 769.427,756.973 770.094,755.973 771.5,755.5 Z"/></g>
<g><path style="opacity:1" fill="#a2a2a2" d="M 68.5,756.5 C 70.2624,757.262 71.2624,758.596 71.5,760.5C 69.7376,759.738 68.7376,758.404 68.5,756.5 Z"/></g>
<g><path style="opacity:1" fill="#7d7d7d" d="M 71.5,760.5 C 73.5,760.5 74.5,761.5 74.5,763.5C 73.1667,762.833 72.1667,761.833 71.5,760.5 Z"/></g>
<g><path style="opacity:1" fill="#818181" d="M 74.5,763.5 C 77.7642,765.094 80.4309,767.427 82.5,770.5C 79.2358,768.906 76.5691,766.573 74.5,763.5 Z"/></g>
<g><path style="opacity:1" fill="#b4b4b4" d="M 758.5,769.5 C 758.027,770.906 757.027,771.573 755.5,771.5C 755.973,770.094 756.973,769.427 758.5,769.5 Z"/></g>
<g><path style="opacity:1" fill="#676767" d="M 84.5,772.5 C 86.0269,772.427 87.0269,773.094 87.5,774.5C 85.9731,774.573 84.9731,773.906 84.5,772.5 Z"/></g>
<g><path style="opacity:1" fill="#c5c5c5" d="M 751.5,775.5 C 751.027,776.906 750.027,777.573 748.5,777.5C 748.973,776.094 749.973,775.427 751.5,775.5 Z"/></g>
<g><path style="opacity:1" fill="#959595" d="M 89.5,776.5 C 91.7488,777.08 93.4154,778.413 94.5,780.5C 92.2512,779.92 90.5846,778.587 89.5,776.5 Z"/></g>
<g><path style="opacity:1" fill="#989898" d="M 94.5,780.5 C 96.0269,780.427 97.0269,781.094 97.5,782.5C 95.9731,782.573 94.9731,781.906 94.5,780.5 Z"/></g>
<g><path style="opacity:1" fill="#979797" d="M 97.5,782.5 C 99.0269,782.427 100.027,783.094 100.5,784.5C 98.9731,784.573 97.9731,783.906 97.5,782.5 Z"/></g>
<g><path style="opacity:1" fill="#b6b6b6" d="M 738.5,784.5 C 738.027,785.906 737.027,786.573 735.5,786.5C 735.973,785.094 736.973,784.427 738.5,784.5 Z"/></g>
<g><path style="opacity:1" fill="#7d7d7d" d="M 102.5,785.5 C 104.027,785.427 105.027,786.094 105.5,787.5C 103.973,787.573 102.973,786.906 102.5,785.5 Z"/></g>
<g><path style="opacity:1" fill="#888888" d="M 107.5,788.5 C 109.027,788.427 110.027,789.094 110.5,790.5C 108.973,790.573 107.973,789.906 107.5,788.5 Z"/></g>
<g><path style="opacity:1" fill="#9d9d9d" d="M 726.5,791.5 C 725.713,793.104 724.38,793.771 722.5,793.5C 723.514,792.326 724.847,791.66 726.5,791.5 Z"/></g>
<g><path style="opacity:1" fill="#aaaaaa" d="M 118.5,794.5 C 120.153,794.66 121.486,795.326 122.5,796.5C 120.62,796.771 119.287,796.104 118.5,794.5 Z"/></g>
<g><path style="opacity:1" fill="#707070" d="M 122.5,796.5 C 125.481,796.182 127.815,797.182 129.5,799.5C 126.937,798.912 124.604,797.912 122.5,796.5 Z"/></g>
<g><path style="opacity:1" fill="#a3a3a3" d="M 711.5,798.5 C 710.22,799.931 708.553,800.598 706.5,800.5C 707.78,799.069 709.447,798.402 711.5,798.5 Z"/></g>
<g><path style="opacity:1" fill="#848484" d="M 135.5,801.5 C 138.916,801.528 141.916,802.528 144.5,804.5C 141.215,804.072 138.215,803.072 135.5,801.5 Z"/></g>
<g><path style="opacity:1" fill="#a7a7a7" d="M 706.5,800.5 C 703.592,802.605 700.258,803.605 696.5,803.5C 699.583,801.975 702.916,800.975 706.5,800.5 Z"/></g>
<g><path style="opacity:1" fill="#929292" d="M 145.5,804.5 C 148.428,804.565 151.095,805.232 153.5,806.5C 150.505,806.706 147.838,806.04 145.5,804.5 Z"/></g>
<g><path style="opacity:1" fill="#a1a1a1" d="M 693.5,804.5 C 690.781,805.913 687.781,806.58 684.5,806.5C 687.219,805.087 690.219,804.42 693.5,804.5 Z"/></g>
<g><path style="opacity:1" fill="#a2a2a2" d="M 679.5,807.5 C 674.417,809.078 669.084,809.745 663.5,809.5C 668.633,808.335 673.966,807.668 679.5,807.5 Z"/></g>
</svg>