<svg xmlns="http://www.w3.org/2000/svg" width="1024" height="1024" viewBox="0 0 1024 1024" version="1.1"><path d="M 445.250 45.735 C 447.863 45.941, 452.137 45.941, 454.750 45.735 C 457.363 45.529, 455.225 45.360, 450 45.360 C 444.775 45.360, 442.637 45.529, 445.250 45.735 M 659.768 90.725 C 661.565 90.947, 664.265 90.943, 665.768 90.715 C 667.271 90.486, 665.800 90.304, 662.500 90.310 C 659.200 90.315, 657.971 90.502, 659.768 90.725 M 261.320 219 C 261.320 222.575, 261.502 224.037, 261.723 222.250 C 261.945 220.463, 261.945 217.537, 261.723 215.750 C 261.502 213.963, 261.320 215.425, 261.320 219 M 368.750 327.747 C 374.938 327.922, 385.063 327.922, 391.250 327.747 C 397.438 327.571, 392.375 327.428, 380 327.428 C 367.625 327.428, 362.563 327.571, 368.750 327.747 M 425.768 328.725 C 427.565 328.947, 430.265 328.943, 431.768 328.715 C 433.271 328.486, 431.800 328.304, 428.500 328.310 C 425.200 328.315, 423.971 328.502, 425.768 328.725 M 384.185 336.744 C 392.226 337.051, 392.903 337.240, 393.299 339.288 C 393.658 341.138, 393.750 341.050, 393.864 338.750 L 394 336 384.750 336.206 L 375.500 336.411 384.185 336.744 M 706.160 405.250 C 706.327 415.913, 706.756 414.703, 707.226 402.248 C 707.377 398.259, 707.163 394.997, 706.750 394.998 C 706.337 394.999, 706.072 399.613, 706.160 405.250 M 688.310 406.500 C 688.315 409.800, 688.502 411.029, 688.725 409.232 C 688.947 407.435, 688.943 404.735, 688.715 403.232 C 688.486 401.729, 688.304 403.200, 688.310 406.500 M 720.370 418 C 720.370 423.775, 720.535 426.137, 720.737 423.250 C 720.939 420.363, 720.939 415.637, 720.737 412.750 C 720.535 409.863, 720.370 412.225, 720.370 418 M 737.382 425.500 C 737.384 432.100, 737.546 434.670, 737.741 431.211 C 737.937 427.752, 737.936 422.352, 737.738 419.211 C 737.540 416.070, 737.380 418.900, 737.382 425.500 M 703.365 430.500 C 703.368 436, 703.536 438.122, 703.738 435.216 C 703.941 432.311, 703.939 427.811, 703.734 425.216 C 703.528 422.622, 703.363 425, 703.365 430.500 M 759.440 452.500 C 759.440 467.900, 759.579 474.060, 759.748 466.189 C 759.917 458.319, 759.917 445.719, 759.747 438.189 C 759.578 430.660, 759.439 437.100, 759.440 452.500 M 335 428.833 C 335 429.551, 332.980 430.069, 329.750 430.180 L 324.500 430.360 329.390 430.741 C 333.988 431.098, 337.208 429.875, 335.683 428.350 C 335.308 427.974, 335 428.192, 335 428.833 M 370.750 429.737 C 373.637 429.939, 378.363 429.939, 381.250 429.737 C 384.137 429.535, 381.775 429.370, 376 429.370 C 370.225 429.370, 367.863 429.535, 370.750 429.737 M 394.750 429.740 C 398.188 429.936, 403.813 429.936, 407.250 429.740 C 410.688 429.545, 407.875 429.385, 401 429.385 C 394.125 429.385, 391.313 429.545, 394.750 429.740 M 297.784 431.738 C 300.689 431.941, 305.189 431.939, 307.784 431.734 C 310.378 431.528, 308 431.363, 302.500 431.365 C 297 431.368, 294.878 431.536, 297.784 431.738 M 773.355 439.500 C 773.352 444.450, 773.521 446.601, 773.731 444.280 C 773.940 441.959, 773.943 437.909, 773.736 435.280 C 773.530 432.651, 773.358 434.550, 773.355 439.500 M 722.370 442 C 722.370 447.775, 722.535 450.137, 722.737 447.250 C 722.939 444.363, 722.939 439.637, 722.737 436.750 C 722.535 433.863, 722.370 436.225, 722.370 442 M 705.328 443.500 C 705.333 447.350, 705.513 448.802, 705.730 446.728 C 705.946 444.653, 705.943 441.503, 705.722 439.728 C 705.501 437.952, 705.324 439.650, 705.328 443.500 M 365.250 439.739 C 368.413 439.937, 373.587 439.937, 376.750 439.739 C 379.913 439.541, 377.325 439.378, 371 439.378 C 364.675 439.378, 362.087 439.541, 365.250 439.739 M 405.784 439.738 C 408.689 439.941, 413.189 439.939, 415.784 439.734 C 418.378 439.528, 416 439.363, 410.500 439.365 C 405 439.368, 402.878 439.536, 405.784 439.738 M 333.206 440.741 C 336.895 440.932, 343.195 440.934, 347.206 440.743 C 351.218 440.553, 348.200 440.396, 340.500 440.395 C 332.800 440.393, 329.518 440.549, 333.206 440.741 M 276.768 441.725 C 278.565 441.947, 281.265 441.943, 282.768 441.715 C 284.271 441.486, 282.800 441.304, 279.500 441.310 C 276.200 441.315, 274.971 441.502, 276.768 441.725 M 719.355 453.500 C 719.352 458.450, 719.521 460.601, 719.731 458.280 C 719.940 455.959, 719.943 451.909, 719.736 449.280 C 719.530 446.651, 719.358 448.550, 719.355 453.500 M 801.343 455.500 C 801.346 459.900, 801.522 461.576, 801.733 459.224 C 801.945 456.872, 801.942 453.272, 801.727 451.224 C 801.512 449.176, 801.339 451.100, 801.343 455.500 M 739.310 459.500 C 739.315 462.800, 739.502 464.029, 739.725 462.232 C 739.947 460.435, 739.943 457.735, 739.715 456.232 C 739.486 454.729, 739.304 456.200, 739.310 459.500 M 817.280 456.736 C 819.909 456.943, 823.959 456.940, 826.280 456.731 C 828.601 456.521, 826.450 456.352, 821.500 456.355 C 816.550 456.358, 814.651 456.530, 817.280 456.736 M 811.422 466.344 C 811.138 467.083, 811.045 471.020, 811.214 475.094 L 811.522 482.500 812.011 473.748 C 812.498 465.026, 812.400 463.794, 811.422 466.344 M 773.320 472 C 773.320 475.575, 773.502 477.038, 773.723 475.250 C 773.945 473.462, 773.945 470.538, 773.723 468.750 C 773.502 466.962, 773.320 468.425, 773.320 472 M 575.320 594 C 575.320 597.575, 575.502 599.038, 575.723 597.250 C 575.945 595.462, 575.945 592.538, 575.723 590.750 C 575.502 588.962, 575.320 590.425, 575.320 594 M 256.355 609.500 C 256.352 614.450, 256.521 616.601, 256.731 614.280 C 256.940 611.959, 256.943 607.909, 256.736 605.280 C 256.530 602.651, 256.358 604.550, 256.355 609.500 M 690.750 626.723 C 692.538 626.945, 695.462 626.945, 697.250 626.723 C 699.038 626.502, 697.575 626.320, 694 626.320 C 690.425 626.320, 688.962 626.502, 690.750 626.723 M 307.768 632.725 C 309.565 632.947, 312.265 632.943, 313.768 632.715 C 315.271 632.486, 313.800 632.304, 310.500 632.310 C 307.200 632.315, 305.971 632.502, 307.768 632.725 M 692.768 634.725 C 694.565 634.947, 697.265 634.943, 698.768 634.715 C 700.271 634.486, 698.800 634.304, 695.500 634.310 C 692.200 634.315, 690.971 634.502, 692.768 634.725 M 936.310 813.500 C 936.315 816.800, 936.502 818.029, 936.725 816.232 C 936.947 814.435, 936.943 811.735, 936.715 810.232 C 936.486 808.729, 936.304 810.200, 936.310 813.500 M 589.405 847.500 C 589.406 856.300, 589.559 859.766, 589.745 855.203 C 589.930 850.639, 589.929 843.439, 589.742 839.203 C 589.555 834.966, 589.404 838.700, 589.405 847.500 M 157.360 846 C 157.360 851.225, 157.529 853.362, 157.735 850.750 C 157.941 848.138, 157.941 843.862, 157.735 841.250 C 157.529 838.638, 157.360 840.775, 157.360 846 M 936.378 849 C 936.378 855.325, 936.541 857.913, 936.739 854.750 C 936.937 851.587, 936.937 846.413, 936.739 843.250 C 936.541 840.087, 936.378 842.675, 936.378 849 M 581.374 849.500 C 581.376 855.550, 581.541 857.896, 581.740 854.713 C 581.939 851.531, 581.937 846.581, 581.736 843.713 C 581.535 840.846, 581.372 843.450, 581.374 849.500 M 899.320 854 C 899.320 857.575, 899.502 859.038, 899.723 857.250 C 899.945 855.462, 899.945 852.538, 899.723 850.750 C 899.502 848.962, 899.320 850.425, 899.320 854 M 926.365 866.500 C 926.368 872, 926.536 874.122, 926.738 871.216 C 926.941 868.311, 926.939 863.811, 926.734 861.216 C 926.528 858.622, 926.363 861, 926.365 866.500 M 588.402 895 C 588.402 903.525, 588.556 907.013, 588.743 902.750 C 588.931 898.487, 588.931 891.513, 588.743 887.250 C 588.556 882.987, 588.402 886.475, 588.402 895 M 935.328 886.500 C 935.333 890.350, 935.513 891.802, 935.730 889.728 C 935.946 887.653, 935.943 884.503, 935.722 882.728 C 935.501 880.952, 935.324 882.650, 935.328 886.500 M 157.343 899.500 C 157.346 903.900, 157.522 905.576, 157.733 903.224 C 157.945 900.872, 157.942 897.272, 157.727 895.224 C 157.512 893.176, 157.339 895.100, 157.343 899.500 M 401.750 940.732 C 404.087 940.943, 407.913 940.943, 410.250 940.732 C 412.587 940.522, 410.675 940.349, 406 940.349 C 401.325 940.349, 399.413 940.522, 401.750 940.732 M 229.250 961.728 C 231.313 961.944, 234.688 961.944, 236.750 961.728 C 238.813 961.513, 237.125 961.336, 233 961.336 C 228.875 961.336, 227.188 961.513, 229.250 961.728 M 245.250 962.728 C 247.313 962.944, 250.688 962.944, 252.750 962.728 C 254.813 962.513, 253.125 962.336, 249 962.336 C 244.875 962.336, 243.188 962.513, 245.250 962.728 M 570.750 965.723 C 572.538 965.945, 575.462 965.945, 577.250 965.723 C 579.038 965.502, 577.575 965.320, 574 965.320 C 570.425 965.320, 568.962 965.502, 570.750 965.723 M 561.750 974.737 C 564.638 974.939, 569.362 974.939, 572.250 974.737 C 575.138 974.535, 572.775 974.370, 567 974.370 C 561.225 974.370, 558.862 974.535, 561.750 974.737 M 568.287 980.740 C 571.469 980.939, 576.419 980.937, 579.287 980.736 C 582.154 980.535, 579.550 980.372, 573.500 980.374 C 567.450 980.376, 565.104 980.541, 568.287 980.740" stroke="none" fill="#777777" fill-rule="evenodd"/><path d="M 458.964 45.337 C 458.669 45.650, 452.705 45.975, 445.711 46.059 C 402.310 46.585, 350.605 66.563, 312.493 97.531 C 307.201 101.832, 301.887 106.565, 300.685 108.050 C 299.389 109.651, 294.602 112.442, 288.922 114.908 C 243.265 134.732, 207.294 175.076, 196.099 219.016 C 190.940 239.264, 191.101 263.553, 196.530 284 C 199.765 296.181, 208.244 313.547, 215.955 323.780 C 223.153 333.333, 234.603 344.218, 242.303 348.831 C 247.073 351.688, 259.702 357.477, 265.205 359.329 C 266.727 359.841, 266.443 361.240, 262.554 372.400 C 254.274 396.160, 249.365 422.136, 250.313 437.175 C 250.853 445.730, 250.812 445.930, 247.371 451.643 C 240.533 462.999, 234.513 469.426, 219.343 481.563 C 208.646 490.122, 205.117 494.369, 204.464 499.473 C 203.136 509.841, 213.556 516.623, 234.387 518.949 C 239.275 519.495, 243.522 520.189, 243.825 520.492 C 244.784 521.450, 245.280 533, 244.363 533 C 242.549 533, 232.922 541.743, 229.109 546.853 C 220.800 557.991, 216.509 575.650, 218.718 589.617 C 219.795 596.420, 219.777 596.527, 217.154 598.795 C 215.694 600.057, 210.675 603.490, 206 606.424 C 201.325 609.357, 192.550 614.881, 186.500 618.699 C 180.450 622.517, 166.725 630.952, 156 637.442 C 145.275 643.932, 129.387 653.576, 120.694 658.871 C 94.769 674.665, 69.280 689.998, 54.962 698.411 C 34.610 710.372, 23.990 717.095, 21.892 719.346 C 18.349 723.150, 19.995 728.450, 25.307 730.338 C 29.612 731.869, 68.471 724.261, 103.579 715.012 C 111.749 712.860, 118.604 711.271, 118.813 711.480 C 119.022 711.689, 111.811 723.704, 102.790 738.180 C 93.768 752.656, 85.315 766.300, 84.005 768.500 C 82.695 770.700, 77.742 778.800, 72.998 786.500 C 62.775 803.093, 61.773 805.369, 62.186 811.063 C 62.448 814.683, 63.004 815.695, 65.545 817.173 C 68.756 819.041, 89.818 822.067, 127.500 826.074 C 138.500 827.244, 147.601 828.294, 147.724 828.407 C 147.847 828.521, 148.103 849.739, 148.293 875.557 C 148.654 924.737, 149.456 934.836, 153.705 943.791 C 156.469 949.616, 164.153 952.931, 166.983 949.520 C 167.984 948.315, 167.745 947.485, 165.696 945.051 C 164.313 943.407, 162.487 939.911, 161.638 937.281 C 158.046 926.156, 157.535 917.471, 157.498 867 C 157.478 839.775, 157.107 816.938, 156.672 816.250 C 155.373 814.195, 150.286 814.754, 148.618 817.135 C 147.220 819.131, 146.586 819.223, 138.812 818.555 C 123.095 817.204, 77.497 811.176, 74.638 810.071 C 72.510 809.248, 71.906 808.468, 72.283 807.027 C 72.781 805.122, 83.070 787.997, 103.844 754.500 C 109.642 745.150, 122.097 724.900, 131.521 709.500 C 155.386 670.502, 173.191 641.582, 173.659 641.056 C 174.101 640.559, 178.699 641.128, 228.454 647.838 L 263.407 652.551 264.515 658.525 C 266.903 671.403, 273.717 678, 284.631 678 C 287.106 678, 290.026 677.521, 291.119 676.936 C 292.656 676.114, 294.071 676.340, 297.369 677.936 C 302.490 680.415, 309.314 680.597, 314.628 678.396 C 319.545 676.359, 326.681 670.579, 327.513 667.960 C 327.988 666.462, 328.830 666.047, 330.825 666.328 C 332.296 666.535, 335.653 666.074, 338.285 665.303 C 342.564 664.050, 344.627 664.123, 357.785 665.999 C 386.539 670.097, 419.060 675.152, 460.500 681.963 C 483.600 685.760, 516.100 691.016, 532.721 693.644 L 562.943 698.422 560.325 702.961 C 558.885 705.457, 556.257 709.525, 554.484 712 C 550.725 717.248, 506.355 783.793, 496.759 798.575 C 493.161 804.117, 486.048 815.142, 480.952 823.075 C 469.096 841.533, 464.266 847.895, 461.601 848.564 C 460.425 848.859, 447.996 846.852, 433.981 844.105 C 419.967 841.357, 397.025 837.042, 383 834.516 C 368.975 831.990, 351.650 828.788, 344.500 827.401 C 311.557 821.010, 289.513 817, 287.318 817 C 285.999 817, 283.096 817.930, 280.867 819.068 C 276.899 821.092, 276.591 821.102, 266.157 819.529 C 248.744 816.904, 188.738 809.271, 156 805.516 C 139.225 803.592, 122.350 801.628, 118.500 801.152 C 107.502 799.791, 104.556 800.106, 104.189 802.682 C 103.993 804.062, 104.615 805.259, 105.880 805.936 C 108.516 807.347, 168.793 816.027, 231.969 824.094 C 244.877 825.743, 255.737 827.575, 256.103 828.167 C 256.468 828.758, 258.900 837.400, 261.505 847.371 C 270.303 881.036, 275.840 901.486, 276.923 904.315 C 278.270 907.835, 278.327 914.680, 277.017 915.490 C 276.476 915.824, 271.865 916.563, 266.769 917.132 C 258.041 918.106, 255 919.128, 255 921.087 C 255 923.327, 259.075 923.920, 267.641 922.928 C 281.673 921.303, 284 919.803, 284 912.381 C 284 909.321, 265.532 835.157, 263.362 829.502 C 262.833 828.122, 263.274 827.943, 266.116 828.386 C 277.692 830.186, 278.979 830.151, 283.476 827.905 L 287.925 825.683 316.212 830.919 C 331.771 833.798, 354.175 837.939, 366 840.120 C 394.077 845.299, 407.481 847.864, 436.192 853.551 C 452.472 856.776, 460.989 858.037, 463.413 857.582 C 470.509 856.251, 469.250 857.933, 510.270 795 C 539.525 750.116, 568.923 706.466, 569.737 706.701 C 571.654 707.254, 578.043 748.973, 580.504 777 C 581.725 790.902, 582.382 794.755, 583.700 795.742 C 586.475 797.818, 589 794.629, 589 789.049 C 589 779.260, 584.200 730.717, 582.147 719.750 C 581.658 717.138, 581.538 715.005, 581.879 715.011 C 583.049 715.031, 632.977 792.085, 640.188 805 C 645.257 814.077, 657.227 832.577, 659.753 835.238 C 661.183 836.745, 663.128 838.223, 664.077 838.524 C 665.025 838.825, 671.808 836.864, 679.150 834.166 C 703.943 825.056, 763.311 806.179, 800.873 795.462 L 820.856 789.761 823.739 791.814 C 829.013 795.569, 830.809 795.440, 847.107 790.131 C 863.403 784.822, 878.168 780.240, 907.500 771.389 C 917.400 768.402, 929.100 764.870, 933.500 763.540 C 937.900 762.211, 944.769 760.149, 948.765 758.959 C 957.136 756.467, 960.424 754.269, 959.476 751.798 C 958.665 749.685, 956.359 749.170, 952.500 750.242 C 928.414 756.931, 883.766 770.026, 863.500 776.345 C 859.100 777.717, 850.202 780.482, 843.726 782.489 L 831.952 786.138 828.899 783.569 C 827.220 782.156, 825.011 781, 823.991 781 C 822.102 781, 798.210 787.777, 776.500 794.471 C 733.098 807.854, 682.507 824.163, 673.941 827.533 L 667.500 830.067 665.245 827.283 C 664.004 825.753, 659.761 819.100, 655.815 812.500 C 643.916 792.597, 613.667 744.973, 597.191 720.202 C 586.495 704.121, 582.016 696.584, 582.732 695.868 C 585.004 693.596, 643.556 675.455, 667.740 669.530 L 678.981 666.776 682.690 670.032 C 688.566 675.192, 694.393 677.342, 700.725 676.689 C 703.686 676.383, 707.557 675.279, 709.327 674.235 C 712.138 672.576, 712.983 672.495, 716.022 673.592 C 727.179 677.621, 740.047 671.814, 741.609 662.045 C 742.203 658.330, 742.364 658.203, 747.859 657.086 C 753.244 655.992, 793.392 648.341, 827.500 641.909 C 836.300 640.250, 859.250 635.796, 878.500 632.011 C 897.750 628.227, 914.558 624.988, 915.852 624.815 C 917.925 624.537, 919.345 626.420, 927.852 640.726 C 945.107 669.745, 968.750 706.188, 987.178 732.168 C 993.680 741.335, 999 749.311, 999 749.892 C 999 751.783, 993.922 753.563, 965.786 761.529 C 940.293 768.747, 937.862 769.264, 935.457 767.977 C 933.197 766.767, 932.481 766.781, 930.171 768.079 L 927.500 769.579 927.380 805.040 C 927.216 853.344, 926.178 894.577, 924.893 903.812 C 923.203 915.968, 921.084 919.813, 914.582 922.530 C 911.013 924.021, 884.034 930.574, 867 934.087 C 861.775 935.165, 852.100 937.353, 845.500 938.950 C 838.900 940.547, 824.275 943.984, 813 946.588 C 791.037 951.661, 786.238 953.215, 785.345 955.544 C 784.491 957.768, 786.877 960, 790.108 960 C 791.683 960, 804.116 957.495, 817.736 954.433 C 877.964 940.893, 887.134 938.965, 888.190 939.617 C 888.919 940.068, 889.026 939.851, 888.498 938.997 C 887.894 938.020, 888.237 937.829, 889.844 938.249 C 891.030 938.559, 892 938.479, 892 938.072 C 892 937.664, 896.612 936.320, 902.250 935.085 C 917.999 931.635, 921.910 930.298, 926.592 926.764 C 931.506 923.055, 931.901 922.348, 932.574 916.055 C 932.842 913.550, 933.488 908.268, 934.011 904.319 C 935.146 895.734, 937.320 820.327, 936.472 818.954 C 936.146 818.427, 936.195 812.602, 936.581 806.010 L 937.282 794.023 948.891 790.420 C 992.410 776.912, 1007.662 771.697, 1009.821 769.584 C 1012.939 766.532, 1014.344 759.992, 1012.974 754.904 C 1011.901 750.920, 1006.305 742.336, 987.945 716.512 C 982.475 708.818, 978 702.249, 978 701.912 C 978 701.576, 984.188 700.728, 991.750 700.028 C 1007.510 698.569, 1011 697.315, 1011 693.109 C 1011 689.320, 1008.766 686.680, 997.235 676.839 C 991.881 672.270, 987.275 668.289, 987 667.992 C 986.496 667.449, 962.489 646.032, 949.500 634.538 C 926.580 614.255, 890.010 584.314, 861.500 562.488 C 856.550 558.699, 850.244 553.776, 847.487 551.549 C 844.730 549.322, 836.416 542.775, 829.010 537 C 821.605 531.225, 813.626 524.700, 811.279 522.500 L 807.012 518.500 808.573 508.500 C 809.432 503, 810.442 491.183, 810.817 482.241 L 811.500 465.981 822.701 465.476 C 843.417 464.543, 857.764 460.841, 875.500 451.854 C 893.936 442.512, 906.859 430.552, 919.156 411.450 C 926.090 400.680, 932.584 383.466, 935.550 368 C 938.040 355.011, 938.093 325.593, 935.651 311.506 C 930.302 280.653, 916.503 245.725, 897.981 216.153 C 879.405 186.495, 850.207 156.823, 819.713 136.614 C 788.079 115.649, 745.825 99.415, 707 93.309 C 697.958 91.887, 689.623 91.500, 668 91.500 C 638.254 91.500, 630.564 92.359, 612.874 97.656 L 604.247 100.239 593.874 92.333 C 562.339 68.299, 526.982 52.988, 490.500 47.570 C 478.999 45.861, 459.755 44.499, 458.964 45.337 M 445.837 55.080 C 369.972 59.431, 299.140 104.598, 272.676 165.500 C 264.242 184.910, 259.993 210.363, 261.938 229.822 C 265.084 261.294, 277.759 285.201, 300.226 302.044 C 313.476 311.977, 328.835 316.469, 353.750 317.699 C 365.779 318.293, 367.084 318.747, 365.213 321.689 C 364.031 323.548, 359.654 324.026, 343.500 324.061 C 326.225 324.099, 316.939 322.275, 305.881 316.672 L 299.262 313.318 294.060 323.755 C 291.199 329.495, 289.003 334.332, 289.179 334.504 C 289.356 334.676, 295.125 333.981, 302 332.960 C 331.277 328.612, 348.924 327.731, 395.500 328.290 C 430.304 328.708, 443.784 329.262, 460 330.941 C 518.475 336.995, 558.553 343.824, 607.181 356.021 C 700.181 379.346, 746.931 397.266, 790.250 426.193 L 802 434.039 802.006 428.270 C 802.009 425.096, 801.480 417.903, 800.830 412.285 L 799.648 402.070 795.574 401.614 C 793.333 401.364, 787.450 400.709, 782.500 400.160 C 771.869 398.981, 759.759 395.342, 748.001 389.793 C 737.523 384.848, 734 382.397, 734 380.054 C 734 375.929, 736.341 375.964, 744.546 380.214 C 766.503 391.587, 792.402 395.859, 810.268 391.056 C 835.877 384.171, 863.510 367.431, 876.447 350.964 C 881.238 344.866, 883.709 343.739, 886.064 346.577 C 887.813 348.684, 885.479 353.024, 878.377 360.873 C 864.667 376.023, 838.707 391.282, 815.152 398.036 C 808.672 399.894, 807.867 400.385, 808.340 402.194 C 808.635 403.322, 809.455 409.195, 810.163 415.245 L 811.449 426.246 818.065 425.631 C 827.806 424.725, 843.320 420.519, 849.738 417.042 C 856.723 413.259, 859 413.123, 859 416.487 C 859 418.563, 857.848 419.555, 852.038 422.481 C 842.900 427.082, 829.852 430.799, 819.927 431.626 L 811.941 432.292 812.220 444.396 L 812.500 456.500 823 456.377 C 841.450 456.161, 863.336 449.068, 880.556 437.724 C 888.697 432.360, 902.174 419.075, 908.015 410.656 C 916.213 398.839, 921.946 384.882, 925.663 367.695 C 928.167 356.111, 928.209 324.318, 925.736 311 C 918.566 272.375, 898.140 228.995, 872.527 198 C 844.007 163.487, 808.845 137.331, 769.081 121.053 C 728.725 104.532, 693.392 98.171, 653.163 100.184 C 634.159 101.135, 609.226 106.613, 605.953 110.556 C 603.813 113.136, 601.216 112.107, 594.298 105.939 C 568.703 83.119, 527.361 63.296, 493.500 57.606 C 484.991 56.176, 462.660 53.839, 460.500 54.152 C 459.950 54.231, 453.352 54.649, 445.837 55.080 M 274.846 132.870 C 259.133 142.052, 239.115 160.090, 227.996 175.087 C 217.434 189.331, 209.574 205.687, 204.759 223.444 C 202.865 230.425, 202.577 234.036, 202.600 250.500 C 202.624 267.841, 202.856 270.354, 205.263 279.277 C 212.832 307.353, 231.678 332.716, 252.978 343.493 C 258.596 346.335, 268.456 350.010, 270.407 349.988 C 271.438 349.976, 277.714 335.192, 276.888 334.721 C 276.674 334.599, 274.925 333.643, 273 332.595 C 262.536 326.900, 251 314.738, 251 309.401 C 251 305.604, 254.342 306.408, 257.331 310.924 C 261.648 317.447, 266.052 321.961, 272.121 326.082 C 275.294 328.237, 278.256 330, 278.704 330 C 279.420 330, 290.045 309.313, 290.013 307.982 C 290.006 307.697, 287.268 304.547, 283.929 300.982 C 276.396 292.938, 266.153 277.771, 261.993 268.500 C 254.606 252.036, 251.338 233.553, 252.284 213.585 C 253.594 185.940, 262.006 160.365, 277.391 137.250 C 280.411 132.713, 282.564 129, 282.175 129 C 281.786 129, 278.488 130.741, 274.846 132.870 M 401.200 202.200 C 397.345 206.055, 404.001 237.800, 412.839 257.712 C 417.404 267.998, 420.232 272.792, 426.764 281.318 L 431.221 287.136 428.974 289.527 C 425.430 293.301, 412.195 299.687, 401.912 302.587 C 391.794 305.440, 389.578 306.737, 390.541 309.245 C 391.549 311.874, 393.451 311.982, 402.181 309.908 C 412.648 307.421, 427.928 300.072, 432.833 295.167 L 436.580 291.420 442.040 295.710 C 447.987 300.383, 451.344 301.094, 452.985 298.027 C 453.908 296.304, 452.736 294.760, 443.689 285.777 C 424.911 267.134, 414.330 244.340, 408.975 211 C 408.313 206.875, 407.317 202.938, 406.763 202.250 C 405.486 200.666, 402.758 200.642, 401.200 202.200 M 589.928 223.135 C 588.191 226.381, 587.532 255.821, 588.903 268.920 C 589.999 279.384, 589.953 280.396, 588.294 282.239 C 582.754 288.396, 571.629 293.293, 553.500 297.554 C 540.980 300.496, 538.320 301.786, 539.332 304.422 C 541.027 308.840, 573.293 302.278, 583.837 295.371 C 585.122 294.529, 586.315 293.989, 586.489 294.170 C 586.662 294.352, 589.146 298.325, 592.008 303 C 594.871 307.675, 599.527 314.381, 602.356 317.902 C 610.377 327.886, 623 336.380, 623 331.795 C 623 331.249, 619.063 326.777, 614.250 321.857 C 605.260 312.666, 596.813 301.346, 593.560 294.133 C 592.077 290.845, 591.959 289.755, 592.953 288.557 C 593.994 287.302, 595.137 288.512, 600.216 296.247 C 613.072 315.826, 628.825 328.697, 648.900 336.023 C 658.730 339.610, 662 339.846, 662 336.969 C 662 335.851, 661.212 334.662, 660.250 334.325 C 649.180 330.453, 641.790 327.045, 635.291 322.814 C 624.439 315.750, 610.426 301.442, 604.621 291.500 C 596.810 278.122, 596.576 276.888, 596.535 248.906 C 596.508 229.571, 596.206 223.957, 595.128 222.656 C 593.255 220.397, 591.297 220.577, 589.928 223.135 M 763.243 291.250 C 762.693 291.938, 761.236 294.496, 760.006 296.935 C 751.544 313.722, 734.964 332.631, 723.314 338.783 C 713.734 343.841, 703.286 346.187, 692 345.814 C 682.522 345.501, 682.500 345.506, 682.500 347.928 C 682.500 350.871, 685.388 351.855, 695.149 352.239 C 701.519 352.489, 701.898 352.647, 704.147 356 C 707.180 360.521, 715.921 369.887, 718.290 371.155 C 720.171 372.162, 723 370.767, 723 368.835 C 723 368.328, 721.060 365.796, 718.689 363.207 C 713.532 357.575, 710 353.010, 710 351.976 C 710 351.562, 711.462 350.948, 713.250 350.611 C 726.051 348.204, 746.450 332.536, 756.989 317.016 C 761.979 309.669, 769 296.201, 769 293.978 C 769 290.656, 765.172 288.842, 763.243 291.250 M 338.399 307.403 C 336.759 311.677, 340.022 312.858, 354.910 313.379 C 367.957 313.835, 375.272 311.871, 372.150 308.750 C 371.333 307.934, 367.534 307.474, 361.200 307.424 C 355.865 307.383, 348.690 307.002, 345.256 306.577 C 339.992 305.926, 338.916 306.056, 338.399 307.403 M 356.305 336.790 C 349.600 337.026, 348.015 337.390, 347.589 338.790 C 346.806 341.363, 344.215 360.120, 343.002 372 C 342.412 377.775, 341.741 384.300, 341.512 386.500 C 341.282 388.700, 340.622 397.250, 340.044 405.500 C 339.466 413.750, 338.754 422.637, 338.462 425.250 L 337.931 430 350.420 430 L 362.909 430 363.421 426.750 C 363.703 424.962, 364.420 417.200, 365.016 409.500 C 366.150 394.849, 368.341 372.450, 370.055 358 C 370.609 353.325, 371.333 346.532, 371.664 342.904 L 372.264 336.308 368.382 336.404 C 366.247 336.457, 360.812 336.630, 356.305 336.790 M 375.544 336.929 C 374.345 338.869, 367.987 396.519, 366.410 419.750 L 365.714 430 375.796 430 L 385.877 430 386.411 425.750 C 386.704 423.413, 387.422 413.850, 388.007 404.500 C 389.097 387.065, 392.520 347.845, 393.615 340.250 L 394.227 336 385.173 336 C 380.193 336, 375.860 336.418, 375.544 336.929 M 333.253 337.813 C 330.869 338.043, 329.876 338.707, 329.514 340.313 C 329.012 342.539, 326.046 361.416, 324.063 375 C 322.313 386.989, 319.027 420.015, 319.013 425.750 L 319 431 326.941 431 C 331.309 431, 335.079 430.663, 335.320 430.250 C 335.851 429.341, 336.675 420.315, 337.990 401 C 338.533 393.025, 339.206 384.250, 339.484 381.500 C 340.659 369.900, 343.078 350.070, 343.998 344.500 C 344.543 341.200, 344.991 338.197, 344.994 337.826 C 345 337.174, 339.936 337.169, 333.253 337.813 M 394.582 353.713 C 392.187 376.689, 390.268 399.949, 389.421 416.278 L 388.709 430 400.783 430 L 412.856 430 413.400 424.750 C 413.700 421.863, 414.647 410.725, 415.506 400 C 417.404 376.295, 417.811 371.806, 420.090 349.500 C 420.708 343.450, 421.417 338.163, 421.666 337.750 C 421.915 337.337, 416.315 337, 409.221 337 L 396.325 337 394.582 353.713 M 423.669 339.619 C 423.368 341.203, 422.835 345.650, 422.485 349.500 C 422.135 353.350, 421.678 357.850, 421.471 359.500 C 420.985 363.362, 418.306 392.087, 416.577 411.970 C 415.837 420.478, 415.428 427.951, 415.668 428.577 C 416.093 429.685, 426.916 431, 435.606 431 C 439.689 431, 439.936 430.833, 440.425 427.750 C 441.033 423.923, 444.639 370.354, 445.574 351.250 L 446.223 338 441.258 338 C 438.528 338, 433.576 337.716, 430.255 337.369 L 424.217 336.738 423.669 339.619 M 321 339.090 C 317.975 339.479, 313.357 340.045, 310.739 340.347 C 304.625 341.052, 304.390 341.230, 303.639 345.726 C 299.972 367.673, 293 423.282, 293 430.582 C 293 432.025, 294.324 432.176, 304.047 431.843 C 311.781 431.578, 315.339 431.069, 315.911 430.145 C 316.359 429.419, 317.041 423.802, 317.426 417.662 C 318.079 407.257, 319.719 390.426, 321.926 371.500 C 322.439 367.100, 323.796 357.918, 324.942 351.096 C 326.088 344.274, 326.907 338.622, 326.763 338.537 C 326.618 338.452, 324.025 338.701, 321 339.090 M 447.553 352.615 C 446.395 376.741, 443.965 414.177, 442.988 422.940 C 442.470 427.582, 442.149 431.460, 442.273 431.557 C 442.398 431.655, 446.413 432.041, 451.196 432.415 L 459.891 433.096 460.438 429.798 C 462.210 419.116, 467.604 341.271, 466.639 340.306 C 466.529 340.195, 462.339 339.795, 457.329 339.417 L 448.219 338.730 447.553 352.615 M 469 342.878 C 469 349.248, 465.605 398.980, 464.124 414.315 C 463.177 424.114, 462.752 432.347, 463.179 432.610 C 464.540 433.452, 481.924 435.243, 483.365 434.690 C 485.063 434.038, 485.438 431.430, 487.989 402.500 C 489.104 389.850, 490.688 372.514, 491.508 363.976 C 493.625 341.948, 493.805 343.339, 488.750 342.634 C 486.413 342.308, 481.012 341.745, 476.750 341.383 C 469.278 340.748, 469 340.802, 469 342.878 M 296.500 342.497 C 295.950 342.684, 293.902 343.102, 291.948 343.426 C 287.396 344.182, 287.033 345.195, 282.591 369.500 C 279.500 386.409, 277.519 401.733, 275.449 424.750 L 274.797 432 282.353 432 L 289.909 432 290.446 428.750 C 290.741 426.962, 291.680 418.750, 292.532 410.500 C 293.385 402.250, 294.757 390.325, 295.582 384 C 296.407 377.675, 297.516 369.125, 298.045 365 C 299.125 356.589, 300.840 346.396, 301.619 343.750 C 302.009 342.426, 301.571 342.019, 299.817 342.079 C 298.543 342.122, 297.050 342.311, 296.500 342.497 M 495.540 345.250 C 495.321 345.938, 494.641 352.575, 494.028 360 C 492.365 380.130, 489.045 416.341, 487.982 425.940 C 487.467 430.582, 487.249 434.582, 487.496 434.830 C 488.533 435.866, 506.092 437.308, 506.963 436.428 C 508.204 435.177, 515.803 347.304, 514.744 346.461 C 514.374 346.166, 499.132 344, 497.428 344 C 496.608 344, 495.758 344.563, 495.540 345.250 M 279.174 356.169 C 273.350 369.974, 267.337 387.605, 264.548 399.054 C 261.350 412.187, 258.480 432.880, 259.690 434.090 C 260.782 435.182, 271.106 433.175, 272.139 431.671 C 272.491 431.159, 273.083 425.961, 273.454 420.120 C 274.455 404.361, 277.625 380.557, 281.103 362.674 C 282.797 353.970, 284.012 346.678, 283.804 346.470 C 283.595 346.262, 281.512 350.627, 279.174 356.169 M 517.004 349.250 C 517.012 352.977, 514.033 392.032, 511.956 415.422 C 510.886 427.479, 510.128 437.461, 510.271 437.604 C 510.893 438.227, 532.032 440.302, 532.543 439.790 C 533.199 439.134, 535.293 419.943, 536.993 399 C 537.640 391.025, 538.807 377.799, 539.585 369.610 C 540.363 361.420, 541 353.751, 541 352.568 C 541 350.603, 540.059 350.267, 530.187 348.708 C 516.648 346.569, 516.999 346.555, 517.004 349.250 M 543.530 352.181 C 543.276 352.906, 541.694 369.700, 540.013 389.500 C 538.332 409.300, 536.541 428.621, 536.034 432.436 C 535.527 436.251, 535.300 439.676, 535.529 440.047 C 535.758 440.418, 540.952 441.527, 547.071 442.511 C 555.777 443.912, 558.361 444.034, 558.957 443.070 C 559.627 441.986, 560.916 427.922, 562.540 404 C 562.820 399.875, 563.720 387.319, 564.540 376.099 C 565.360 364.878, 565.911 355.585, 565.765 355.448 C 565.619 355.311, 561.450 354.458, 556.500 353.553 C 551.550 352.647, 546.710 351.672, 545.745 351.384 C 544.780 351.097, 543.783 351.456, 543.530 352.181 M 567.636 362.676 C 567.286 366.429, 566.553 376.700, 566.007 385.500 C 565.013 401.517, 564.813 404.359, 562.982 428.395 C 562.442 435.488, 562 442.075, 562 443.033 C 562 444.455, 563.980 445.153, 572.750 446.825 C 578.663 447.952, 583.815 448.565, 584.200 448.187 C 584.584 447.809, 585.841 431.300, 586.991 411.500 C 588.142 391.700, 589.427 372.258, 589.846 368.295 L 590.609 361.089 581.725 359.044 C 576.838 357.918, 571.812 356.740, 570.556 356.425 C 568.387 355.880, 568.241 356.193, 567.636 362.676 M 591.178 377.250 C 590.536 385.637, 589.562 401.050, 589.012 411.500 C 588.462 421.950, 587.748 434.887, 587.426 440.250 C 586.868 449.531, 586.936 450, 588.841 450 C 589.942 450, 594.768 450.933, 599.567 452.072 C 605.555 453.494, 608.500 453.809, 608.954 453.075 C 609.317 452.486, 610.172 441.766, 610.853 429.252 C 611.534 416.739, 612.788 397.805, 613.641 387.179 C 614.493 376.552, 614.971 367.637, 614.702 367.369 C 614.146 366.812, 595.073 362, 593.424 362 C 592.748 362, 591.907 367.710, 591.178 377.250 M 616.199 381.750 C 615.553 389.313, 614.341 407.650, 613.505 422.500 C 612.670 437.350, 611.804 450.295, 611.582 451.268 C 610.898 454.262, 613.389 455.562, 624.482 457.996 C 632.878 459.839, 635.338 460.072, 635.949 459.083 C 636.376 458.391, 637.025 452.802, 637.391 446.662 C 637.756 440.523, 638.480 429.875, 638.999 423 C 640.721 400.228, 642.162 374.829, 641.756 374.423 C 641.365 374.031, 619.046 368.019, 617.937 368.006 C 617.627 368.003, 616.846 374.188, 616.199 381.750 M 643.613 383.250 C 643.306 387.238, 642.330 402.200, 641.444 416.500 C 640.558 430.800, 639.492 446.325, 639.075 451 C 638.659 455.675, 638.501 460.014, 638.725 460.643 C 639.063 461.593, 657.888 467, 660.856 467 C 661.360 467, 662.044 465.087, 662.376 462.750 C 663.007 458.303, 666.861 398.256, 667.389 384.645 C 667.496 381.887, 667.179 381.694, 658 378.927 C 643.942 374.690, 644.279 374.588, 643.613 383.250 M 669.565 386.250 C 669.166 388.722, 665.753 443.768, 664.652 465.496 C 664.507 468.353, 664.849 468.618, 672 471.184 C 681.487 474.587, 683.819 474.694, 684.427 471.750 C 684.682 470.512, 685.382 462.075, 685.981 453 C 686.580 443.925, 687.254 434.700, 687.477 432.500 C 687.701 430.300, 688.172 420.625, 688.525 411 C 688.877 401.375, 689.322 392.498, 689.512 391.274 C 689.824 389.272, 688.913 388.746, 680.417 386.024 C 675.225 384.361, 670.777 383, 670.533 383 C 670.290 383, 669.854 384.462, 669.565 386.250 M 691.165 395.212 C 690.097 424.123, 687.481 467.079, 686.519 471.508 C 685.915 474.292, 687.001 475.692, 691.035 477.328 C 697.308 479.873, 699.733 480.137, 700.419 478.350 C 701.698 475.017, 703.194 450.666, 703.837 422.704 L 704.500 393.908 699 392.318 C 695.975 391.444, 693.019 390.548, 692.430 390.327 C 691.769 390.078, 691.286 391.943, 691.165 395.212 M 705.997 411.750 C 705.994 432.853, 704.196 470.094, 702.900 475.915 C 702.148 479.296, 702.220 480.519, 703.209 481.133 C 703.919 481.574, 710.957 484.492, 718.848 487.617 C 730.073 492.062, 733.375 493.011, 734.014 491.977 C 735.634 489.355, 737.676 454.370, 737.951 424.500 L 738.108 407.500 731.304 404.742 C 727.562 403.226, 724.216 401.988, 723.869 401.992 C 723.522 401.997, 722.905 415.387, 722.498 431.750 C 721.678 464.722, 721.009 474.172, 719.458 474.684 C 718.754 474.916, 718.643 472.346, 719.116 466.764 C 719.501 462.219, 720.123 445.900, 720.499 430.500 C 720.875 415.100, 721.254 402.123, 721.341 401.663 C 721.460 401.037, 707.802 395, 706.266 395 C 706.120 395, 705.999 402.538, 705.997 411.750 M 740.537 410.289 C 740.334 410.955, 739.904 425.225, 739.581 442 C 739.036 470.401, 738.091 485.844, 736.517 492.086 C 735.909 494.501, 736.327 494.879, 742.856 497.798 C 750.883 501.387, 754.992 502.590, 755.017 501.358 C 755.027 500.886, 755.449 496.450, 755.955 491.500 C 756.461 486.550, 756.993 467.724, 757.137 449.665 L 757.397 416.830 749.152 412.954 C 743.589 410.339, 740.787 409.472, 740.537 410.289 M 759.861 419.167 C 759.785 419.350, 759.372 436.600, 758.944 457.500 C 758.516 478.400, 757.853 497.572, 757.469 500.104 C 756.869 504.072, 757.030 504.788, 758.636 505.289 C 761.715 506.250, 780.008 516.363, 787.500 521.246 C 795.520 526.472, 795.270 526.602, 797.481 516.088 C 802.042 494.410, 803.465 448.371, 799.703 444.221 C 796.977 441.213, 778.505 429, 776.682 429 C 776.436 429, 775.994 442.387, 775.702 458.750 C 775.177 488.154, 774.872 493.462, 773.634 494.699 C 772.073 496.261, 771.878 493.428, 772.901 484.028 C 773.505 478.469, 774 463.202, 774 450.100 L 774 426.279 767.753 422.889 C 760.395 418.898, 760.043 418.731, 759.861 419.167 M 356 439.689 C 353.525 439.869, 332.600 440.427, 309.500 440.928 C 286.400 441.429, 266.466 442.159, 265.201 442.549 C 263.808 442.979, 261.915 445.207, 260.396 448.206 C 251.735 465.297, 242.656 475.753, 222.151 492.254 C 214.523 498.393, 213.561 500.561, 216.961 503.961 C 223.028 510.028, 248.510 511.430, 266.371 506.679 C 283.968 501.999, 293.841 495.992, 311.625 479.147 C 320.351 470.882, 322.838 469.159, 333 464.335 C 339.325 461.332, 345.497 458.385, 346.716 457.787 C 349.388 456.474, 352 458.167, 352 461.210 C 352 462.291, 349.135 466.757, 345.632 471.134 C 337.930 480.762, 335.455 485.137, 336.368 487.516 C 336.974 489.095, 338.021 489.228, 345.775 488.714 C 363.735 487.522, 393.331 477.772, 421.228 463.855 C 425.478 461.735, 429.835 460, 430.910 460 C 434.396 460, 434.400 463.630, 430.923 469.782 C 429.145 472.927, 426.670 477.326, 425.421 479.557 C 422.958 483.960, 419 495, 419 497.468 C 419 498.311, 419.942 499.942, 421.092 501.092 C 422.975 502.975, 423.901 503.116, 430.342 502.505 C 448.890 500.744, 465.457 494.877, 498.281 478.445 L 512.014 471.570 514.171 473.726 L 516.327 475.883 513.434 479.691 C 511.843 481.786, 507.113 487.585, 502.922 492.577 C 495.333 501.619, 492.938 506.338, 494.930 508.330 C 499.006 512.406, 532.011 508.220, 553.500 500.902 C 561.652 498.126, 576.009 491.240, 584.500 486.035 C 592.191 481.319, 606.182 470.653, 609.805 466.742 L 612.110 464.254 609.805 463.722 C 576.996 456.145, 554.679 452.168, 524.664 448.548 C 493.657 444.810, 459.440 441.713, 430 439.980 C 414.916 439.093, 366.772 438.903, 356 439.689 M 618.050 471.178 C 613.840 476.069, 593.837 491.255, 584.158 496.908 C 562.062 509.812, 531.679 518.011, 505 518.267 C 489.997 518.411, 486.757 517.258, 484.917 511.118 C 483.960 507.922, 484.053 506.355, 485.455 502.135 C 486.389 499.324, 487.569 496.767, 488.076 496.453 C 488.584 496.139, 489 495.263, 489 494.506 C 489 493.527, 486.782 494.155, 481.308 496.684 C 470.979 501.456, 449.245 508.487, 440 510.047 C 430.252 511.691, 418.109 511.757, 415.260 510.180 C 412.121 508.443, 410 503.855, 410 498.800 C 410 495.145, 412.969 483.740, 415.479 477.753 C 416.079 476.322, 414.972 476.568, 409.356 479.112 C 405.585 480.821, 400.475 483.127, 398 484.237 C 390.094 487.783, 370.471 493.866, 360.167 495.966 C 354.678 497.085, 346.326 498, 341.609 498 C 333.659 498, 332.808 497.799, 329.975 495.250 C 327.436 492.966, 326.904 491.713, 326.834 487.853 C 326.788 485.298, 327.484 481.737, 328.380 479.941 C 329.276 478.145, 329.877 476.543, 329.715 476.382 C 329.554 476.221, 324.490 480.615, 318.461 486.148 C 312.432 491.680, 303.450 498.838, 298.500 502.052 C 293.550 505.267, 288.715 508.483, 287.756 509.199 C 285.739 510.703, 281.727 523.310, 275.520 547.642 C 268.084 576.794, 266.592 587.404, 266.543 611.500 C 266.512 626.697, 266.874 633.558, 267.853 636.327 C 269.200 640.138, 269.216 640.147, 271.353 638.277 C 283.907 627.298, 305.997 621.597, 320.940 625.480 C 329.317 627.657, 334.170 630.193, 339.689 635.281 C 344.547 639.759, 348.337 646.349, 349.391 652.152 C 350.167 656.427, 346.618 655.551, 389 661.931 C 403.575 664.125, 425.400 667.535, 437.500 669.509 C 554.849 688.653, 572.382 691.127, 576.434 689.115 C 584.115 685.302, 607.128 677.446, 631 670.489 C 637.875 668.486, 646.478 665.980, 650.119 664.920 L 656.737 662.994 657.213 655.747 C 658.381 637.930, 669.864 628.410, 691.568 627.263 C 711.009 626.236, 723.888 630.298, 735.587 641.145 C 739.653 644.915, 743.884 648, 744.988 648 C 747.229 648, 750.572 641.948, 753.535 632.529 C 755.912 624.969, 756.647 624.518, 764.241 625.951 C 779.072 628.749, 798.986 619.923, 808.737 606.229 C 817.933 593.317, 819.418 574.220, 812.379 559.387 C 810.139 554.665, 803.745 548.546, 798.195 545.813 C 791.136 542.336, 779.415 542.536, 772.312 546.255 C 766.751 549.166, 764.238 551.987, 758.621 561.624 C 756.116 565.923, 753.991 568.251, 751.489 569.438 C 748.117 571.038, 747.727 571.032, 744.225 569.315 C 738.500 566.508, 735.544 560.936, 730.474 543.402 C 727.946 534.656, 724.713 524.389, 723.289 520.587 L 720.701 513.674 718.081 521.095 C 715.197 529.268, 712.425 534.300, 707.238 540.784 C 703.544 545.400, 694.854 550.975, 691.327 550.991 C 687.749 551.006, 683.276 546.351, 680.965 540.208 C 677.118 529.986, 672.497 507.631, 669.500 484.753 C 669.111 481.785, 668.240 479.664, 667.176 479.094 C 664.861 477.855, 624.837 466.979, 622.982 467.085 C 622.167 467.131, 619.947 468.973, 618.050 471.178 M 678.521 486.750 C 682.271 509.760, 687.918 533.622, 690.590 537.750 C 692.626 540.896, 694.324 540.573, 698.473 536.250 C 705.109 529.334, 711.843 513.204, 713.589 500.040 L 714.205 495.396 707.353 492.755 C 700.447 490.093, 679.425 483, 678.440 483 C 678.148 483, 678.184 484.688, 678.521 486.750 M 613.239 493.107 C 610.682 494.053, 609.836 496.394, 611.319 498.418 C 611.968 499.305, 616.325 500.942, 621 502.057 C 625.675 503.171, 632.654 505.639, 636.509 507.541 C 640.364 509.443, 644.086 511, 644.780 511 C 645.475 511, 646.555 509.877, 647.180 508.504 C 648.548 505.502, 646.800 503.139, 640.468 499.429 C 632.436 494.721, 617.961 491.361, 613.239 493.107 M 724 500.662 C 724 501.026, 725.100 503.200, 726.443 505.494 C 730.092 511.719, 734.713 523.910, 737.983 535.937 C 743.545 556.394, 746.353 561.634, 749.468 557.375 C 750.806 555.546, 754.516 543.811, 757.101 533.229 C 758.543 527.328, 760.816 524.609, 763.460 525.623 C 764.866 526.163, 765.090 527.048, 764.604 530.147 C 764.272 532.266, 763.705 535.881, 763.343 538.180 L 762.687 542.359 765.593 540.328 C 770.552 536.863, 778.838 534.243, 785.372 534.074 C 787.835 534.011, 788.064 533.782, 786.974 532.469 C 783.384 528.144, 755.947 513.173, 734.578 503.880 C 725.518 499.940, 724 499.479, 724 500.662 M 266 516.035 C 262.425 517.008, 258.262 517.848, 256.750 517.902 C 253.580 518.015, 253.434 518.920, 255.018 528.678 C 256.456 537.538, 259.648 547.283, 262.158 550.474 L 264.321 553.223 266.034 546.862 C 274.071 517.024, 274.775 514.009, 273.677 514.133 C 273.030 514.207, 269.575 515.063, 266 516.035 M 367.108 541.082 C 358.801 542.713, 350.091 547.640, 343.556 554.404 C 332.756 565.583, 327.940 577.548, 327.926 593.233 C 327.901 623.780, 354.011 646.709, 383.676 642.190 C 408.683 638.380, 426.133 617.655, 426.214 591.670 C 426.315 558.743, 398.482 534.920, 367.108 541.082 M 241.239 546.864 C 232.876 554.882, 227 568.990, 227 581.050 C 227 588.574, 230.278 600.995, 233.964 607.438 C 237.201 613.095, 246.465 622.474, 250.194 623.870 C 251.462 624.345, 253.512 625.048, 254.750 625.434 L 257 626.135 257 610.462 C 257 595.203, 256.934 594.710, 254.500 591.818 C 250.422 586.971, 251.811 580.069, 257.952 574.665 C 260.597 572.337, 261.054 571.352, 260.506 569.167 C 260.138 567.702, 259.704 566.370, 259.540 566.207 C 258.980 565.647, 249.966 568.245, 249.424 569.123 C 248.365 570.837, 247 569.964, 247 567.573 C 247 564.961, 250.810 561.337, 254.539 560.401 C 256.705 559.857, 256.653 559.651, 252.127 550.939 C 249.582 546.040, 247.233 542.025, 246.906 542.016 C 246.579 542.007, 244.029 544.189, 241.239 546.864 M 613.112 544.581 C 597.698 548.726, 585.769 559.555, 579.243 575.328 C 575.541 584.273, 574.877 600.951, 577.835 610.667 C 581.910 624.047, 591.328 636.231, 601.990 641.914 C 621.068 652.082, 642.345 649.124, 657.817 634.151 C 668.019 624.278, 672.744 613.667, 673.692 598.500 C 674.637 583.380, 669.778 569.475, 659.787 558.707 C 647.708 545.687, 629.494 540.175, 613.112 544.581 M 775.435 561.836 C 766.386 566.067, 759.992 574.520, 758.594 584.096 C 758.082 587.605, 758.284 588.991, 759.449 589.958 C 761.700 591.825, 763.999 590.474, 764.004 587.281 C 764.009 583.409, 767.441 578.178, 770.476 577.417 C 774.036 576.523, 779.429 577.712, 781.326 579.807 C 782.206 580.780, 783.984 583.973, 785.277 586.903 C 787.525 591.997, 787.705 592.152, 789.396 590.461 C 790.736 589.121, 791.007 587.821, 790.515 585.096 C 789.175 577.676, 782.955 571.305, 776.533 570.773 C 775.140 570.658, 774 570.448, 774 570.308 C 774 569.412, 780.466 566.968, 783.204 566.828 C 789.119 566.527, 790.756 566.964, 793.145 569.483 C 796.261 572.768, 798 572.662, 798 569.187 C 798 567.363, 796.939 565.358, 794.983 563.483 C 792.433 561.041, 790.999 560.542, 785.733 560.264 C 781.163 560.022, 778.416 560.442, 775.435 561.836 M 480.408 610.734 C 477.890 613.253, 479.111 622.110, 482.689 627.274 C 490.725 638.875, 514.309 637.861, 521.490 625.607 C 526.101 617.740, 525.684 611, 520.587 611 C 517.787 611, 516.408 612.477, 515.446 616.506 C 513.084 626.404, 497.713 630.041, 490.821 622.333 C 489.920 621.325, 488.543 618.288, 487.761 615.585 C 486.126 609.931, 483.165 607.978, 480.408 610.734 M 299 633.563 C 286.053 636.359, 275.040 643.989, 273.440 651.271 C 272.298 656.473, 273.865 662.711, 277.135 665.982 C 280.530 669.376, 284.383 669.888, 288.912 667.545 C 291.496 666.209, 291.765 665.526, 292.223 659.125 C 292.988 648.441, 298.259 640, 301.469 644.319 C 302.476 645.673, 302.571 646.950, 301.841 649.319 C 300.391 654.027, 300.492 667.684, 301.991 669.489 C 303.638 671.473, 309.502 671.419, 312.846 669.388 C 318.228 666.120, 320.302 662.298, 320.943 654.466 C 321.599 646.443, 323.653 642.835, 327.057 643.725 C 328.666 644.146, 329 645.125, 329 649.426 C 329 652.281, 329.605 655.445, 330.344 656.456 C 332.257 659.072, 336.548 657.776, 338.505 653.991 C 339.929 651.237, 339.895 650.715, 338.057 647.113 C 335.181 641.474, 328.929 636.586, 321.454 634.132 C 314.045 631.700, 308.299 631.554, 299 633.563 M 686.132 635.078 C 676.143 637.041, 669.814 642.036, 666.924 650.239 C 664.342 657.567, 668.773 662.448, 674.081 658.124 C 676.088 656.489, 676.500 655.250, 676.500 650.853 C 676.500 646.523, 676.834 645.486, 678.324 645.189 C 681.289 644.597, 683.727 647.742, 685.933 655.005 C 688.908 664.801, 694.469 669.073, 702.327 667.598 C 707.913 666.551, 710.627 657.966, 707.872 650.063 C 706.953 647.427, 707.024 646.547, 708.255 645.316 C 711.958 641.613, 716.961 648.644, 717.767 658.685 C 718.269 664.943, 718.280 664.962, 721.787 665.620 C 726.587 666.520, 730.039 665.097, 732.254 661.305 C 740.543 647.111, 710.842 630.221, 686.132 635.078 M 936 635.149 C 936 635.480, 939.651 641.769, 944.113 649.125 C 951.835 661.855, 954.544 666.153, 966.334 684.383 L 971.432 692.267 981.714 691.602 C 997.924 690.554, 997.833 690.745, 986.657 681.185 C 974.616 670.886, 953.882 652.006, 943.750 642.113 C 939.487 637.952, 936 634.818, 936 635.149 M 136.500 660.517 C 100.072 682.907, 63.685 704.783, 50 712.519 C 34.881 721.067, 34.967 721.126, 56 716.653 C 68.791 713.933, 125.126 700.248, 125.516 699.767 C 125.634 699.620, 128.337 695.450, 131.521 690.500 C 134.705 685.550, 138.762 679.250, 140.537 676.500 C 158.549 648.588, 158.982 647.853, 157.250 648.112 C 156.838 648.174, 147.500 653.756, 136.500 660.517 M 995.500 761.701 C 990.245 762.934, 941.224 777.119, 939.250 777.978 C 936.891 779.005, 935.964 784, 938.132 784 C 939.287 784, 971.702 773.753, 991.420 767.154 C 1002.168 763.557, 1006.122 760.879, 1000.333 761.116 C 998.775 761.180, 996.600 761.443, 995.500 761.701 M 138.250 792.707 C 136.099 793.498, 136.820 796.922, 139.250 797.458 C 140.488 797.731, 147.743 798.681, 155.373 799.568 C 166.973 800.917, 169.467 800.962, 170.587 799.841 C 171.350 799.078, 171.588 797.951, 171.141 797.227 C 169.959 795.316, 141.715 791.435, 138.250 792.707 M 810.039 796.452 C 809.094 797.592, 809.170 799.530, 810.394 805.447 C 812.968 817.892, 814.571 834.871, 813.354 836.800 C 812.771 837.724, 809.641 839.450, 806.397 840.634 C 800.794 842.681, 796.634 844.146, 768.500 853.983 C 761.900 856.290, 747.950 861.254, 737.500 865.013 C 727.050 868.772, 716.040 872.562, 713.033 873.434 C 707.662 874.993, 707.528 874.982, 705.377 872.760 C 702.482 869.770, 694.778 844.408, 696.382 843.147 C 697.954 841.912, 728.986 831.755, 765.452 820.542 C 782.476 815.307, 797.035 810.394, 797.805 809.624 C 799.511 807.917, 798.511 804, 796.369 804 C 792.620 804, 734.572 821.678, 701.739 832.819 C 680.033 840.185, 676.601 841.787, 676.180 844.754 C 675.725 847.955, 678.501 848.664, 683.896 846.724 C 686.388 845.827, 688.567 845.234, 688.738 845.405 C 688.909 845.575, 690.760 851.517, 692.853 858.607 C 697.488 874.318, 699.352 878.384, 702.595 879.861 C 708.192 882.411, 708.148 882.424, 764.500 862.261 C 778.250 857.341, 795.067 851.371, 801.870 848.993 C 808.674 846.615, 815.595 843.529, 817.250 842.136 L 820.260 839.603 819.563 827.687 C 818.422 808.175, 815.413 795, 812.099 795 C 811.629 795, 810.702 795.654, 810.039 796.452 M 211.012 801.486 C 208.630 804.356, 211.817 805.799, 225.500 808.046 C 232.650 809.220, 241.949 810.742, 246.164 811.428 C 253.962 812.698, 257 812.165, 257 809.528 C 257 807.550, 252.641 806.433, 233.500 803.505 C 224.150 802.074, 215.567 800.671, 214.426 800.388 C 213.205 800.084, 211.801 800.535, 211.012 801.486 M 786.500 823.719 C 780.754 825.117, 725.825 843.852, 716.750 847.509 C 714.706 848.332, 714.402 851.833, 716.310 852.566 C 717.031 852.842, 725.694 850.301, 735.560 846.918 C 745.427 843.535, 761.825 838.007, 772 834.633 C 782.175 831.260, 791.063 828.136, 791.750 827.691 C 792.438 827.246, 793 826.009, 793 824.941 C 793 822.971, 791.067 822.607, 786.500 823.719 M 214.500 826.722 C 205.408 828.285, 202.609 830.038, 205.148 832.577 C 206.584 834.013, 207.554 834.011, 215.995 832.554 C 221.093 831.674, 225.655 830.713, 226.132 830.418 C 227.194 829.762, 227.292 826.030, 226.250 825.923 C 225.838 825.881, 224.825 825.734, 224 825.596 C 223.175 825.459, 218.900 825.965, 214.500 826.722 M 583.251 829.250 C 582.705 829.938, 581.972 839.275, 581.623 850 C 579.793 906.202, 579.781 910.468, 581.392 930.045 C 583.565 956.462, 583.517 962.222, 581.103 964.407 C 579.352 965.991, 577.486 966.040, 556.853 965.038 C 544.559 964.442, 533.375 963.750, 532 963.502 C 530.625 963.254, 516.689 961.891, 501.030 960.472 C 485.372 959.054, 472.345 957.678, 472.082 957.415 C 471.638 956.971, 474.831 944.095, 485.078 905 C 490.370 884.812, 489.723 880.422, 481.100 878 C 475.351 876.386, 408.806 866.322, 382 863.013 C 368.525 861.350, 351.049 859.091, 343.163 857.994 C 325.888 855.591, 322.126 855.523, 319.217 857.561 C 315.695 860.027, 314.604 863.120, 309.004 886.500 C 301.394 918.276, 292.255 954.079, 291.582 954.752 C 290.774 955.560, 242.514 952.975, 193.173 949.480 C 170.653 947.885, 169.798 947.891, 168.441 949.664 C 166.491 952.211, 167.063 954.263, 170.133 955.735 C 173.266 957.236, 199.022 959.623, 226.500 960.958 C 237.500 961.492, 256.175 962.482, 268 963.158 L 289.500 964.387 289.163 969.597 C 288.584 978.543, 291.362 981.032, 304 982.895 C 331.834 986.998, 428.438 998.498, 444.629 999.636 C 461.401 1000.815, 462.684 999.184, 468.525 969.251 C 469.125 966.175, 469.355 966.026, 472.829 966.465 C 474.848 966.720, 479.200 967.175, 482.500 967.476 C 485.800 967.777, 497.725 968.890, 509 969.951 C 546.563 973.483, 560.269 974.211, 591 974.304 C 622.735 974.401, 643.059 972.876, 669 968.451 C 670.375 968.217, 675.775 967.313, 681 966.442 C 686.225 965.572, 691.625 964.663, 693 964.422 C 694.375 964.181, 699.775 963.318, 705 962.505 C 720.927 960.025, 739.950 956.133, 742.801 954.771 C 746.082 953.203, 746.883 949.543, 744.252 948.135 C 742.482 947.187, 723.563 949.823, 709.705 952.947 C 699.358 955.280, 653.789 962.165, 637 963.932 C 631.775 964.482, 620.750 965.223, 612.500 965.578 L 597.500 966.225 595.073 963.610 C 592.845 961.208, 592.506 959.463, 590.917 942.207 C 588.344 914.248, 587.897 897.904, 588.739 862.569 C 589.357 836.657, 589.251 830.390, 588.179 829.319 C 586.516 827.659, 584.538 827.631, 583.251 829.250 M 182.242 832.036 C 176.480 833.203, 172.589 835.180, 172.213 837.132 C 171.745 839.564, 173.859 839.888, 181.014 838.480 C 184.581 837.777, 189.215 836.907, 191.312 836.545 C 194.510 835.992, 195.074 835.533, 194.812 833.693 C 194.555 831.887, 193.794 831.471, 190.500 831.337 C 188.300 831.247, 184.584 831.562, 182.242 832.036 M 880.500 835.465 C 858.399 838.966, 833.671 846.675, 785 865.238 C 765.096 872.829, 751.851 878.971, 748.250 882.281 C 745.455 884.849, 745.269 891.473, 747.541 907.576 C 751.022 932.261, 751.765 942.093, 750.260 943.597 C 749.488 944.369, 748.439 945, 747.929 945 C 745.989 945, 747.106 948.719, 749.417 949.956 C 751.530 951.086, 752.906 950.861, 760.341 948.171 C 775.339 942.744, 851.506 920.458, 892.500 909.502 C 898.381 907.930, 903.467 905.938, 904.847 904.665 L 907.195 902.500 906.748 873 C 906.440 852.675, 905.910 842.480, 905.042 840.220 C 902.671 834.041, 896.742 832.892, 880.500 835.465 M 880 841.969 C 857.904 846.109, 837.897 852.273, 798 867.231 C 759.570 881.640, 752 885.334, 752 889.681 C 752 892.167, 758.044 941.282, 758.402 941.704 C 758.497 941.816, 762.383 940.630, 767.037 939.069 C 784.918 933.069, 825.525 921.113, 867.497 909.490 C 884.545 904.769, 898.904 900.496, 899.404 899.996 C 900.387 899.013, 900.328 854.640, 899.333 846.714 C 898.408 839.340, 896.512 838.874, 880 841.969 M 174.187 849.630 C 173.248 851.308, 174.767 859.243, 179.234 876 C 181.162 883.233, 181.836 884.548, 183.754 884.820 C 185.057 885.005, 186.248 884.517, 186.576 883.664 C 187.187 882.071, 181.967 859.218, 179.400 852.250 C 177.774 847.837, 175.758 846.823, 174.187 849.630 M 321.270 874.750 C 320.057 880.112, 314.584 902.721, 309.107 924.991 C 303.630 947.261, 299.228 965.551, 299.324 965.636 C 299.421 965.720, 305.879 961.224, 313.676 955.644 C 321.473 950.065, 331.936 942.633, 336.926 939.129 C 341.917 935.625, 346 932.389, 346 931.937 C 346 931.486, 343.413 929.123, 340.250 926.687 C 332.567 920.767, 324.789 912.323, 325.182 910.328 C 325.357 909.440, 326.258 908.237, 327.185 907.654 C 328.561 906.787, 330.116 907.697, 335.685 912.630 C 354.436 929.240, 367.393 935.426, 392 939.518 C 409.953 942.503, 423.741 940.636, 445.221 932.312 C 450.749 930.169, 452.213 929.932, 453.471 930.976 C 454.312 931.674, 455 932.893, 455 933.685 C 455 935.279, 446.193 939.517, 435.750 942.946 C 432.038 944.165, 429 945.382, 429 945.650 C 429 945.917, 434.063 952.096, 440.250 959.381 C 446.438 966.666, 452.671 974.157, 454.102 976.029 L 456.703 979.431 458.421 971.466 C 460.143 963.477, 462.979 952.432, 472.152 918 C 477.690 897.210, 479.623 888.289, 478.772 887.439 C 477.702 886.368, 457.706 883.274, 375.527 871.464 C 350.792 867.909, 328.962 865, 327.015 865 L 323.476 865 321.270 874.750 M 184.326 892.594 C 183.535 894.653, 185.167 903.071, 187.387 908.383 C 188.639 911.381, 189.419 912.079, 191.229 911.822 C 194.092 911.415, 193.989 908.390, 190.775 898.501 C 188.462 891.383, 185.745 888.895, 184.326 892.594 M 235.500 919.724 C 229.997 920.123, 227.183 922.311, 229.139 924.668 C 231.132 927.069, 244.353 925.633, 246.128 922.822 C 247.104 921.277, 244.453 918.903, 242.059 919.180 C 241.201 919.279, 238.250 919.524, 235.500 919.724 M 206.582 922.985 C 201.959 923.876, 199.058 926.893, 201.507 928.264 C 203.691 929.486, 216.864 927.993, 218.522 926.336 C 222.250 922.607, 216.670 921.041, 206.582 922.985 M 180.917 925.379 C 180.688 925.587, 178.075 926.010, 175.111 926.318 C 169.218 926.931, 167.413 928.027, 168.336 930.433 C 169.040 932.267, 172.467 932.399, 182.329 930.973 C 190.852 929.741, 193.608 928.438, 191.942 926.430 C 190.884 925.155, 182.086 924.316, 180.917 925.379 M 343 942.484 C 327.810 953.996, 307.821 967.849, 303.733 969.697 C 301.662 970.633, 300.123 971.872, 300.315 972.450 C 300.507 973.027, 302.877 973.789, 305.582 974.143 C 325.814 976.788, 359.317 980.907, 418.500 988.029 C 432.217 989.680, 448.607 990.798, 451.362 990.271 C 452.813 989.994, 454 989.251, 454 988.620 C 454 986.957, 447.985 979.026, 435.776 964.591 C 429.878 957.618, 424.389 950.966, 423.580 949.810 C 422.193 947.830, 421.306 947.719, 408.304 947.893 C 399.577 948.009, 391.329 947.518, 385.879 946.556 C 377.342 945.050, 362.756 940.399, 356 937.030 L 352.500 935.285 343 942.484 M 760.750 965.362 C 747.453 968, 745 968.765, 745 970.275 C 745 971.258, 745.704 972.333, 746.564 972.663 C 748.083 973.246, 776.227 968.460, 780.750 966.850 C 784.818 965.402, 782.845 961.786, 778.168 962.119 C 777.251 962.184, 769.413 963.643, 760.750 965.362 M 701.500 965.039 C 699.300 965.493, 687.081 967.528, 674.346 969.563 C 661.612 971.598, 650.642 973.603, 649.968 974.020 C 649.291 974.438, 649.086 975.330, 649.510 976.015 C 650.491 977.604, 659.920 976.888, 681.500 973.588 C 700.905 970.620, 712.054 968.346, 713.298 967.102 C 716.084 964.316, 710.091 963.267, 701.500 965.039 M 471.639 973.500 C 471.261 974.482, 471.167 975.501, 471.429 975.763 C 471.691 976.025, 475.849 976.639, 480.668 977.127 C 485.487 977.616, 493.721 978.741, 498.965 979.628 C 504.209 980.515, 509.386 981.299, 510.469 981.370 C 513.201 981.550, 513.602 978.393, 511.023 977.012 C 507.637 975.200, 494.321 972.978, 482.912 972.322 C 473.340 971.771, 472.258 971.884, 471.639 973.500 M 520.214 978.186 C 519.299 979.101, 519.403 979.787, 520.669 981.186 C 522.810 983.553, 524.670 983.484, 526.005 980.991 C 526.923 979.274, 526.700 978.836, 524.475 977.991 C 521.286 976.778, 521.638 976.762, 520.214 978.186 M 583.885 980.448 C 583.639 980.695, 577.396 980.969, 570.013 981.058 C 562.630 981.148, 556.006 981.444, 555.295 981.717 C 553.639 982.353, 553.606 985.659, 555.250 986.189 C 557.579 986.940, 600.294 985.106, 601.183 984.217 C 601.668 983.732, 601.778 982.584, 601.426 981.667 C 600.900 980.298, 599.316 980, 592.560 980 C 588.035 980, 584.132 980.202, 583.885 980.448" fill-rule="evenodd"/></svg>