
<svg version="1.0" xmlns="http://www.w3.org/2000/svg"
 width="851.000000pt" height="944.000000pt" viewBox="0 0 851.000000 944.000000"
 preserveAspectRatio="xMidYMid meet">

<g transform="translate(0.000000,944.000000) scale(0.100000,-0.100000)">
<path d="M4165 9424 c-22 -2 -89 -9 -150 -14 -211 -20 -474 -71 -684 -131
-373 -107 -722 -296 -969 -523 l-57 -53 -180 -6 c-451 -14 -909 -170 -1310
-445 -149 -103 -200 -145 -330 -276 -134 -134 -230 -259 -304 -396 -299 -557
-191 -1218 263 -1612 231 -200 482 -305 798 -333 l66 -6 6 -82 c3 -45 15 -368
26 -717 12 -349 25 -664 31 -700 5 -36 23 -92 39 -124 17 -32 30 -64 30 -70 0
-6 -25 -24 -55 -40 -75 -39 -185 -143 -232 -219 -75 -119 -102 -214 -103 -352
0 -191 71 -355 214 -495 109 -107 233 -163 387 -176 l80 -7 29 -64 c95 -208
275 -369 603 -538 20 -11 37 -22 37 -25 -1 -3 -37 -31 -80 -63 -44 -33 -114
-90 -156 -128 -42 -38 -80 -69 -85 -69 -5 0 -17 17 -28 39 -57 111 -136 154
-218 119 -55 -23 -86 -52 -105 -95 -25 -56 -19 -86 38 -185 24 -43 44 -82 44
-87 0 -6 -26 -39 -58 -73 -290 -314 -419 -576 -382 -779 14 -74 47 -153 84
-196 15 -18 25 -37 21 -43 -4 -6 -163 -10 -461 -10 -499 0 -499 0 -524 -59
-16 -39 -6 -76 27 -107 l27 -25 468 2 c257 1 469 -1 470 -4 2 -3 -13 -16 -32
-29 -70 -47 -60 -127 17 -147 21 -5 227 -15 458 -21 231 -6 564 -15 740 -20
572 -17 1155 -30 1364 -30 l204 0 94 40 c52 22 122 53 156 69 93 43 153 69
242 103 l80 31 1320 -9 c726 -5 1350 -9 1387 -9 60 0 70 3 95 27 37 37 37 89
0 125 -20 20 -41 29 -84 34 -32 4 -398 8 -813 9 -415 1 -766 5 -780 9 -24 7
-23 8 10 14 48 10 148 58 217 105 96 66 176 161 224 268 143 315 24 665 -360
1066 -57 60 -102 110 -100 112 2 1 24 11 49 20 75 30 156 84 237 160 l78 73
97 11 c157 19 257 65 366 166 160 150 262 364 262 551 0 133 -60 286 -154 398
l-58 68 41 44 c52 56 66 93 96 240 26 128 199 1161 210 1257 l7 57 57 6 c178
18 306 53 456 125 332 159 612 488 739 870 158 475 117 1060 -106 1503 -148
297 -351 498 -654 651 -236 119 -570 186 -844 170 l-116 -6 -89 123 c-119 166
-339 385 -492 492 -321 223 -702 363 -1153 422 -118 16 -677 29 -785 19z m545
-214 c708 -54 1232 -287 1595 -711 154 -181 258 -348 360 -584 60 -137 96
-185 141 -185 38 0 84 50 84 93 0 43 -40 185 -75 262 -14 32 -25 61 -25 66 0
14 163 10 280 -6 224 -30 434 -107 607 -220 111 -74 261 -224 336 -336 199
-300 290 -729 246 -1160 -38 -383 -235 -739 -527 -959 -96 -71 -250 -145 -366
-175 -101 -26 -216 -34 -216 -15 0 6 -70 80 -155 164 -142 140 -177 186 -142
186 58 0 375 138 411 179 24 27 25 75 2 100 -35 38 -61 35 -184 -23 -169 -78
-237 -98 -368 -103 -171 -8 -258 26 -549 214 -77 49 -173 109 -212 133 -40 24
-73 47 -73 52 0 4 -5 8 -12 8 -20 0 -199 111 -196 121 2 6 42 23 90 39 129 44
325 146 402 210 129 108 226 229 226 283 0 40 -35 77 -73 77 -23 0 -46 -17
-110 -81 -175 -175 -436 -310 -702 -363 -166 -32 -298 -41 -645 -40 -615 0
-1105 51 -1365 141 -124 43 -269 118 -360 186 -116 86 -262 242 -307 327 -28
53 -140 229 -151 238 -37 31 -101 18 -123 -26 -17 -35 0 -112 45 -201 55 -109
58 -115 119 -195 114 -152 278 -297 438 -387 30 -18 52 -35 47 -40 -4 -4 -91
-28 -192 -54 -204 -52 -320 -89 -552 -175 -189 -71 -276 -90 -412 -90 -167 0
-277 27 -441 107 -97 47 -134 53 -159 26 -32 -37 -23 -88 22 -121 54 -40 215
-120 289 -143 39 -13 72 -28 72 -35 0 -6 -47 -42 -104 -78 -100 -64 -106 -66
-162 -64 -33 1 -104 -2 -159 -6 -187 -15 -385 24 -562 110 -62 31 -113 60
-113 65 0 5 -5 9 -11 9 -35 0 -193 148 -276 258 -158 209 -239 570 -188 837
48 255 172 480 385 695 248 251 528 422 906 553 164 57 519 125 540 104 4 -3
-17 -42 -45 -87 -75 -116 -124 -239 -155 -392 -31 -151 -13 -218 60 -218 52 0
78 32 108 136 85 283 216 481 456 687 367 316 813 498 1430 582 239 33 538 42
770 25z m-1184 -2845 c195 -60 629 -109 1094 -124 234 -8 649 1 691 14 60 19
468 -150 729 -303 170 -99 581 -352 654 -401 97 -67 276 -252 276 -287 0 -20
-167 -1030 -207 -1256 -7 -38 -26 -35 -62 11 -34 43 -119 104 -132 95 -21 -13
-5 -43 52 -102 34 -34 74 -69 90 -78 35 -18 36 -29 9 -166 -11 -57 -20 -104
-20 -105 0 -21 -116 60 -230 159 -99 86 -344 226 -572 327 -572 253 -1215 406
-1983 472 -186 16 -706 16 -875 1 -346 -32 -651 -94 -921 -188 -178 -62 -293
-117 -413 -197 -55 -37 -102 -67 -106 -67 -11 0 -19 120 -30 440 -6 162 -17
449 -25 638 -8 189 -15 355 -15 370 0 24 15 38 123 108 67 45 138 89 157 100
19 10 50 29 69 42 55 36 320 163 481 230 265 110 545 198 785 246 201 39 302
45 381 21z m484 -1949 c259 -26 715 -100 749 -120 4 -3 20 -24 36 -46 75 -109
169 -176 287 -206 72 -19 122 -13 154 17 13 12 26 21 28 18 2 -2 37 -49 79
-104 90 -121 211 -239 309 -301 84 -54 257 -215 276 -257 24 -53 42 -168 42
-265 0 -108 11 -140 54 -161 25 -12 34 -11 78 10 79 37 161 136 237 287 31 61
32 62 74 62 248 -1 415 -211 363 -458 -32 -152 -146 -308 -274 -376 -39 -20
-79 -36 -90 -36 -12 0 -24 -5 -28 -11 -5 -8 -32 -10 -88 -6 l-81 7 -95 -93
c-152 -149 -269 -217 -373 -217 -51 0 -58 3 -66 23 -4 12 -20 57 -35 99 -18
49 -60 127 -119 215 -90 136 -91 139 -103 226 -18 126 -53 168 -99 117 -16
-17 -17 -31 -11 -120 4 -55 5 -100 2 -100 -4 0 -24 11 -45 24 -95 61 -181 77
-259 52 -55 -19 -107 -68 -124 -118 -5 -15 -13 -28 -16 -28 -4 0 -41 -2 -82
-3 -92 -3 -150 -31 -195 -95 -29 -42 -30 -48 -30 -145 0 -87 -3 -107 -22 -137
-49 -80 -57 -111 -58 -225 l-1 -110 -44 -8 c-61 -11 -389 0 -563 19 -319 35
-787 136 -1062 229 -304 103 -562 243 -713 389 -57 54 -135 171 -161 241 -30
80 -40 195 -30 337 25 345 104 1092 119 1133 6 15 36 30 110 55 l101 35 17
-21 c9 -12 24 -31 32 -43 43 -62 242 -77 385 -27 136 47 278 148 304 218 10
28 7 27 181 42 103 9 714 -4 850 -18z m-1330 -56 c0 -14 -71 -48 -137 -65 -62
-17 -133 -12 -133 9 0 10 39 20 235 60 34 6 35 6 35 -4z m2980 -327 c169 -68
398 -179 510 -246 92 -55 261 -174 272 -191 9 -14 -11 -26 -47 -26 -79 -1
-154 -66 -220 -191 -37 -71 -55 -86 -55 -46 0 56 -74 231 -145 343 -114 181
-186 232 -232 168 -26 -36 -51 -27 -122 46 -49 50 -151 187 -151 204 0 11 54
-6 190 -61z m-3800 51 c0 -3 -13 -73 -30 -156 -16 -82 -30 -157 -30 -166 0
-10 -5 -24 -10 -32 -8 -13 -11 -12 -25 5 -26 33 -105 200 -105 220 0 14 28 38
88 77 79 53 112 68 112 52z m-259 -406 c23 -40 69 -99 101 -132 l58 -60 -10
-60 c-13 -87 -47 -385 -55 -488 -5 -62 -11 -88 -20 -88 -40 0 -150 46 -202 84
-75 55 -115 103 -159 192 -89 178 -61 378 71 510 43 44 146 114 166 114 4 0
26 -32 50 -72z m3596 -1143 c23 -19 61 -63 86 -98 79 -110 102 -117 109 -32
l3 40 57 -111 c77 -150 101 -225 95 -289 -15 -151 -166 -323 -376 -427 -68
-34 -96 -42 -157 -46 -65 -4 -80 -2 -129 22 -71 35 -135 108 -188 215 -36 71
-42 93 -42 147 0 89 13 98 69 46 53 -48 88 -54 111 -18 18 28 11 54 -34 119
-15 23 -40 66 -55 95 -53 105 -28 202 51 202 57 0 96 -24 167 -104 67 -75 90
-88 114 -64 20 20 14 65 -19 141 -37 89 -40 139 -8 173 35 38 94 34 146 -11z
m588 -661 l39 -47 -18 -51 c-24 -67 -75 -154 -142 -242 -76 -100 -73 -133 11
-125 38 3 146 133 200 241 15 30 29 57 31 59 13 14 133 -145 209 -277 137
-238 138 -476 1 -627 -19 -22 -36 -43 -36 -47 0 -14 -139 -97 -200 -119 -57
-21 -83 -24 -205 -24 -161 0 -232 17 -367 87 -72 37 -167 118 -211 178 -10 14
-31 43 -48 65 -32 42 -59 88 -59 102 0 4 37 17 83 27 163 38 262 86 255 123
-5 28 -40 27 -109 -3 -52 -21 -81 -26 -155 -28 -62 -1 -99 4 -118 13 -29 16
-84 118 -93 176 l-6 34 99 -6 c83 -5 112 -2 179 16 210 58 442 241 533 421 21
41 41 86 44 98 9 31 32 19 83 -44z m-2996 4 c69 -22 128 -42 130 -44 2 -2 -11
-43 -29 -91 -79 -219 -119 -476 -127 -811 l-6 -243 -26 3 -26 3 -1 100 c-1
141 -30 211 -137 337 -48 56 -182 169 -239 201 -30 17 -48 41 -85 112 -79 150
-77 137 -30 182 68 64 201 170 295 233 63 44 96 60 121 60 18 0 90 -19 160
-42z m363 -102 c51 -13 115 -26 142 -30 28 -3 52 -10 55 -14 12 -17 420 -74
661 -93 161 -12 448 -7 530 10 43 9 47 8 78 -22 29 -28 32 -36 32 -92 0 -76
15 -164 41 -233 29 -79 27 -84 -22 -67 -147 52 -288 -62 -251 -202 17 -63 39
-89 100 -120 50 -25 57 -26 113 -15 71 13 112 40 149 99 28 43 28 43 42 21 8
-13 27 -50 42 -83 31 -67 145 -235 188 -278 15 -16 28 -33 28 -38 0 -12 -106
-12 -415 1 -137 6 -416 17 -620 25 -801 32 -1130 48 -1139 55 -15 15 -19 220
-7 380 15 200 53 429 92 555 34 110 55 165 63 165 3 0 47 -11 98 -24z m-1226
6 c29 -20 283 -476 271 -488 -5 -5 -68 77 -102 133 -80 133 -174 292 -184 310
-20 39 -12 64 15 45z m-33 -386 c7 -18 -1 -26 -25 -26 -20 0 -21 1 -12 24 8
20 30 21 37 2z m174 -247 c137 -66 313 -309 313 -431 0 -103 -68 -116 -200
-38 -47 27 -97 50 -112 50 -32 0 -58 -32 -58 -72 0 -38 65 -107 129 -139 28
-13 50 -26 50 -29 1 -13 -18 -28 -60 -48 -185 -89 -418 -16 -514 160 -25 45
-30 67 -33 143 -5 99 8 154 54 233 98 167 285 242 431 171z m458 -526 c-7 -50
-18 -72 -29 -55 -3 5 1 23 9 38 8 16 15 37 15 47 0 9 3 17 6 17 4 0 3 -21 -1
-47z m970 -138 c619 -29 1034 -45 1177 -45 58 0 113 -3 122 -6 10 -4 -38 -24
-116 -51 -73 -25 -205 -77 -293 -116 l-160 -72 -230 3 c-126 1 -390 6 -585 12
-195 5 -582 15 -859 21 l-504 13 79 21 c78 21 197 84 248 132 35 32 53 29 115
-17 58 -44 98 -51 123 -22 20 21 38 85 38 131 l0 34 168 -7 c92 -3 397 -17
677 -31z m1783 -11 c18 -8 32 -20 32 -25 0 -5 -34 -9 -75 -9 -41 0 -75 2 -75
4 0 7 64 46 76 46 6 0 25 -7 42 -16z"/>
<path d="M3478 4979 c-25 -14 -22 -48 5 -58 32 -12 457 -30 483 -21 32 13 37
38 10 55 -39 26 -460 46 -498 24z"/>
<path d="M2955 4965 c-11 -2 -66 -9 -122 -15 -73 -9 -106 -17 -118 -30 -18
-19 -12 -45 13 -55 14 -5 197 10 368 31 56 7 83 27 68 51 -9 15 -26 18 -100
19 -49 1 -98 0 -109 -1z"/>
<path d="M4284 4926 c-9 -24 2 -45 30 -56 14 -5 130 -25 258 -44 210 -32 235
-34 256 -20 31 20 14 50 -38 64 -67 18 -331 60 -417 67 -71 5 -83 4 -89 -11z"/>
<path d="M2315 4846 c-117 -38 -160 -68 -148 -103 7 -21 45 -15 149 23 117 42
144 58 144 84 0 28 -54 26 -145 -4z"/>
<path d="M5313 4713 c-7 -2 -13 -15 -13 -29 0 -29 20 -40 152 -83 103 -34 151
-37 156 -9 4 22 -30 43 -135 83 -96 36 -141 46 -160 38z"/>
<path d="M1876 4677 c-65 -35 -166 -121 -166 -142 0 -13 21 -25 45 -25 21 0
222 137 229 156 8 20 -10 44 -33 44 -9 0 -43 -15 -75 -33z"/>
<path d="M6011 4446 c-29 -35 4 -62 202 -165 87 -46 99 -48 118 -25 12 15 8
21 -28 53 -45 38 -217 137 -256 146 -15 4 -28 1 -36 -9z"/>
<path d="M2710 3993 c-14 -9 -41 -31 -61 -48 -20 -18 -67 -43 -104 -55 -86
-29 -128 -65 -128 -110 0 -24 8 -40 28 -58 26 -22 35 -24 99 -20 92 6 186 49
255 115 45 43 51 54 51 89 -1 79 -79 129 -140 87z"/>
<path d="M4935 3868 c-32 -18 -44 -40 -45 -77 -1 -114 163 -255 311 -268 96
-9 149 18 149 76 0 46 -32 75 -117 106 -68 25 -86 38 -149 102 -74 76 -102 88
-149 61z"/>
<path d="M2613 3466 c-92 -30 -149 -85 -184 -177 -53 -139 9 -296 143 -363
101 -51 228 -25 317 64 57 57 81 117 81 204 0 182 -190 327 -357 272z"/>
<path d="M4846 3305 c-92 -33 -169 -132 -181 -236 -32 -277 291 -442 483 -246
141 144 101 376 -80 466 -69 35 -152 41 -222 16z"/>
<path d="M2182 2968 c-24 -47 -52 -142 -52 -179 0 -29 6 -42 26 -58 35 -27 49
-26 81 5 25 25 26 29 20 110 -6 90 -22 137 -48 142 -8 1 -21 -8 -27 -20z"/>
<path d="M5616 2778 c-19 -29 -46 -154 -46 -212 0 -82 57 -120 114 -75 31 25
34 69 11 180 -25 118 -50 152 -79 107z"/>
<path d="M3637 2616 c-120 -45 -195 -183 -128 -237 34 -28 54 -24 111 25 29
25 65 48 80 51 46 10 105 -12 157 -58 65 -59 88 -64 124 -27 16 16 29 36 29
45 0 53 -95 161 -167 191 -52 22 -160 27 -206 10z"/>
<path d="M3097 1576 c-12 -13 -14 -23 -7 -42 13 -33 13 -34 -5 -34 -30 0 -47
-48 -61 -182 -17 -163 -19 -510 -3 -556 12 -34 33 -42 43 -16 3 9 6 104 6 212
1 192 16 376 41 487 l12 55 89 0 c73 0 90 3 95 16 15 39 -21 57 -143 70 -39 5
-54 2 -67 -10z"/>
<path d="M3463 1568 c-34 -9 -61 -44 -46 -59 17 -17 120 -28 363 -39 135 -6
329 -15 432 -21 135 -8 192 -7 207 1 27 14 28 56 2 70 -26 13 -194 27 -506 39
-143 6 -296 13 -340 15 -44 1 -95 -1 -112 -6z"/>
<path d="M3225 1281 c-102 -47 -136 -159 -78 -249 71 -109 258 -110 331 -2 26
39 30 125 8 168 -19 36 -65 78 -99 91 -43 17 -117 13 -162 -8z"/>
<path d="M672 5198 c-26 -13 -37 -46 -28 -83 12 -49 242 -205 301 -205 19 0
39 8 50 21 18 19 18 21 1 53 -29 54 -247 227 -285 225 -9 0 -26 -5 -39 -11z"/>
<path d="M1020 4766 c-117 -31 -176 -110 -120 -161 27 -24 65 -22 131 9 63 29
81 43 97 73 17 31 15 41 -13 68 -27 28 -32 29 -95 11z"/>
<path d="M7572 4503 c-64 -44 -191 -162 -207 -193 -19 -37 -5 -77 30 -86 66
-16 325 176 325 241 0 7 -9 24 -21 39 -28 35 -73 35 -127 -1z"/>
<path d="M7245 4065 c-29 -28 -31 -45 -11 -83 15 -29 85 -98 126 -126 57 -37
129 2 115 63 -13 61 -136 170 -193 171 -7 0 -24 -11 -37 -25z"/>
</g>
</svg>
