<svg xmlns="http://www.w3.org/2000/svg" width="592" height="648" viewBox="0 0 592 648" version="1.1"><path d="M 520 0.861 C 520 1.335, 517.413 1.976, 514.250 2.286 C 509.681 2.733, 454.097 10.128, 403 17.085 C 398.875 17.647, 388.525 18.967, 380 20.019 C 352.801 23.376, 321.624 27.881, 317.679 29.025 C 312.363 30.567, 306.541 36.164, 303.443 42.712 C 301.424 46.980, 300.697 50.391, 300.266 57.623 C 299.852 64.563, 299.355 67, 298.353 67 C 297.224 67, 297 85.118, 297 176.500 C 297 249.157, 296.662 286, 295.996 286 C 295.443 286, 291.731 282.710, 287.746 278.689 C 283.760 274.668, 278.250 269.629, 275.500 267.490 C 268.223 261.832, 268 261.416, 268 253.519 C 268 244.583, 265.922 236.528, 261.442 228.092 C 255.827 217.520, 247.838 210.047, 236.908 205.142 C 227.371 200.863, 220.708 199.546, 208.500 199.527 C 190.558 199.499, 177.544 204.185, 165.883 214.870 L 159.436 220.778 151.968 220.787 C 124.162 220.821, 97.674 241.940, 90.051 270.154 C 88.580 275.601, 89.078 289.757, 91.035 298.097 L 92.349 303.695 87.201 311.391 C 71.449 334.943, 74.310 364.079, 94.372 384.403 C 105.485 395.661, 116.913 400.915, 132.472 401.920 L 141.444 402.500 143.706 406.500 C 146.882 412.119, 146.599 413.459, 141.617 416.378 C 136.664 419.281, 135.523 421.240, 137.084 424.157 C 138.813 427.387, 144.316 429.160, 150.194 428.380 C 155.245 427.710, 155.302 427.732, 154.600 430.101 C 154.208 431.420, 153.625 435.338, 153.303 438.807 C 152.760 444.656, 152.873 445.154, 154.859 445.673 C 156.036 445.981, 157 446.647, 157 447.152 C 157 447.658, 152.689 452.893, 147.419 458.786 C 135.888 471.681, 135.126 473.017, 137.358 476.424 C 139.524 479.730, 139.476 480.105, 136.159 485.731 C 131.690 493.310, 128.289 502.730, 126.495 512.500 C 125.457 518.158, 123.959 522.800, 122.462 525 C 119.775 528.952, 117 536.220, 117 539.310 C 117 542.833, 121.048 549.935, 124.600 552.644 C 130.136 556.866, 134.834 558.088, 139 556.387 C 140.925 555.602, 143.267 554.044, 144.204 552.926 C 145.521 551.354, 146.657 551.023, 149.204 551.466 C 156.205 552.686, 161.450 546.272, 160.625 537.500 C 160.367 534.750, 159.845 531.043, 159.466 529.262 C 158.904 526.621, 159.370 525.098, 161.992 521.012 C 165.587 515.410, 168.531 514.219, 167.584 518.750 C 165.961 526.520, 163.036 550.888, 162.512 561 C 162.184 567.325, 161.682 574.413, 161.397 576.750 L 160.877 581 94.689 581.015 C 58.285 581.024, 27.880 581.423, 27.122 581.904 C 22.633 584.746, 28.114 585, 94.059 585 L 161 585 161 587.916 L 161 590.831 93.583 591.166 C 56.503 591.350, 25.858 591.808, 25.483 592.183 C 22.903 594.765, 28.586 595, 93.559 595 L 161 595 161 598 L 161 601 94.059 601 C 50.510 601, 26.902 601.349, 26.500 602 C 26.160 602.550, 26.021 603.098, 26.191 603.219 C 26.361 603.339, 56.875 603.676, 94 603.969 L 161.500 604.500 161.820 606.750 L 162.139 609 93.820 608.996 C 15.302 608.992, 21.486 609.763, 16.365 599.335 L 13.500 593.500 13.782 322 C 13.986 126.206, 14.375 49.524, 15.177 47 C 17.919 38.373, 25.738 30.993, 34.206 29.039 C 36.901 28.418, 80.054 28.040, 150.072 28.024 C 275.466 27.997, 266.867 27.478, 275.916 35.614 C 278.626 38.051, 281.891 42.172, 283.171 44.772 L 285.500 49.500 286 160 C 286.275 220.775, 286.864 271.063, 287.309 271.750 C 287.754 272.437, 288.549 273, 289.076 273 C 289.682 273, 289.936 231.807, 289.767 160.750 L 289.500 48.500 286.750 42.903 C 283.434 36.155, 278.807 31.207, 272.326 27.481 C 267.651 24.793, 266.858 24.681, 247 23.879 C 235.725 23.423, 183.525 23.152, 131 23.275 C 23.689 23.528, 32.447 22.901, 21.324 31.125 C 17.385 34.038, 15.354 36.566, 12.824 41.705 L 9.500 48.458 9.500 321.979 L 9.500 595.500 12.186 600.590 C 15.341 606.570, 20.972 611.844, 25.077 612.665 C 27.448 613.140, 28.189 613.989, 29.062 617.229 C 29.651 619.418, 29.919 621.768, 29.657 622.450 C 29.338 623.283, 25.514 623.884, 18.015 624.280 C 10.080 624.699, 6.114 625.350, 4.309 626.533 C 0.211 629.218, 3.089 630.765, 13.500 631.471 C 30.995 632.658, 38.841 632.870, 71.500 633.039 C 89.650 633.133, 105.260 633.614, 106.189 634.108 C 107.260 634.676, 108.122 634.612, 108.542 633.932 C 108.965 633.248, 110.710 633.124, 113.353 633.589 C 115.634 633.990, 118.963 634.233, 120.750 634.128 C 122.818 634.007, 124.006 634.403, 124.015 635.219 C 124.027 636.176, 124.254 636.147, 124.915 635.103 C 125.862 633.608, 132.801 634.135, 133.919 635.788 C 134.719 636.969, 137.974 638.188, 141.154 638.496 C 142.614 638.637, 144.781 639.433, 145.969 640.266 C 147.157 641.098, 149.046 641.539, 150.167 641.246 C 151.332 640.941, 152.583 641.310, 153.087 642.107 C 153.664 643.017, 153.975 643.086, 153.985 642.305 C 154.001 641, 158.026 641.117, 182.410 643.132 C 193.102 644.015, 196.760 644.006, 198.223 643.093 C 199.315 642.411, 201.057 642.217, 202.313 642.637 C 205.373 643.661, 221.999 643.682, 221.999 642.662 C 222 641.469, 230.351 643.016, 231.235 644.372 C 231.698 645.084, 231.975 644.854, 231.985 643.750 C 231.993 642.788, 232.675 642, 233.500 642 C 234.325 642, 235.003 642.337, 235.006 642.750 C 235.009 643.163, 236.809 643.568, 239.006 643.650 C 241.203 643.733, 243 643.395, 243 642.900 C 243 642.405, 243.675 642, 244.500 642 C 245.325 642, 246 642.408, 246 642.906 C 246 643.405, 246.900 643.577, 248 643.290 C 249.470 642.905, 250.004 643.262, 250.015 644.633 C 250.028 646.126, 250.211 646.216, 250.930 645.079 C 251.565 644.076, 254.276 643.582, 260.164 643.398 C 264.749 643.255, 273 642.836, 278.500 642.467 C 289.475 641.731, 289.287 641.735, 301.576 641.950 C 309.602 642.090, 316 640.674, 316 638.756 C 316 638.340, 316.675 638, 317.500 638 C 318.325 638, 319 638.450, 319 639 C 319 639.550, 319.482 640, 320.071 640 C 321.456 640, 324 637.456, 324 636.071 C 324 635.482, 324.675 635, 325.500 635 C 326.325 635, 327 635.450, 327 636 C 327 636.550, 327.450 637, 328 637 C 328.550 637, 329 636.325, 329 635.500 C 329 634.675, 329.675 634, 330.500 634 C 331.325 634, 332 634.675, 332 635.500 C 332 636.325, 332.675 637, 333.500 637 C 334.325 637, 335 636.498, 335 635.883 C 335 635.269, 335.836 634.985, 336.858 635.253 C 337.880 635.520, 339.439 635.334, 340.322 634.840 C 341.205 634.346, 367.031 633.750, 397.714 633.517 C 499.056 632.746, 532.323 631.989, 533.957 630.416 C 538.703 625.850, 530.376 625.333, 437.250 624.412 C 383.170 623.876, 368 623.454, 368 622.486 C 368 621.804, 368.724 618.040, 369.609 614.123 L 371.217 607 375.600 607 C 378.011 607, 398.549 608.110, 421.242 609.466 C 476.520 612.770, 522.919 615.004, 535.878 614.984 C 549.003 614.963, 553.001 613.182, 557.227 605.474 L 559.953 600.500 559.977 519.250 C 560 439.349, 560.033 437.967, 562 436 C 563.100 434.900, 564.379 434, 564.843 434 C 565.306 434, 566.453 432.538, 567.392 430.750 C 568.971 427.743, 569.077 420.776, 568.799 337.718 L 568.500 247.937 564.250 243.893 L 560 239.850 560 127.893 C 560 35.742, 559.759 15.366, 558.640 12.718 C 556.679 8.078, 552.344 4.179, 547.613 2.798 C 545.351 2.138, 543.128 1.125, 542.674 0.549 C 542.113 -0.164, 541.685 -0.099, 541.341 0.750 C 540.729 2.256, 531.409 2.471, 530.500 1 C 529.747 -0.219, 520 -0.348, 520 0.861 M 506.500 7.470 C 501.550 8.186, 473.425 11.982, 444 15.905 C 414.575 19.828, 384.200 23.891, 376.500 24.933 C 368.800 25.976, 356.650 27.573, 349.500 28.482 C 317.661 32.528, 313.890 33.536, 309.959 39.057 C 304.358 46.923, 304.642 39.082, 304.235 197.069 C 303.913 321.722, 304.062 342.807, 305.275 343.813 C 306.054 344.459, 308.102 345.270, 309.828 345.616 L 312.965 346.243 313.232 321.454 C 313.441 302.120, 313.788 296.570, 314.807 296.230 C 315.864 295.878, 316.080 300.869, 315.936 322.335 C 315.764 347.766, 315.843 348.985, 317.818 351.496 C 319.548 353.696, 322.064 359.485, 323.585 364.766 C 323.836 365.640, 325.119 365.849, 327.725 365.443 C 330.638 364.989, 332.596 365.442, 336.303 367.427 C 338.945 368.842, 341.532 370, 342.053 370 C 343.817 370, 343.012 366.107, 340.475 362.368 C 337.566 358.082, 337.677 356.974, 341.184 355.262 C 343.254 354.253, 344.684 354.311, 348.959 355.580 C 351.840 356.436, 354.423 356.910, 354.699 356.635 C 354.975 356.359, 354.480 353.262, 353.600 349.753 C 350.822 338.675, 351.802 330.381, 356.214 327.626 C 358.393 326.265, 362.781 330.225, 366.168 336.610 C 367.448 339.024, 368.861 341, 369.307 341 C 369.753 341, 371.778 339.678, 373.809 338.063 C 378.035 334.700, 381.828 333.543, 384 334.955 C 386.865 336.817, 384.962 353, 381.879 353 C 381.395 353, 381 353.675, 381 354.500 C 381 355.411, 381.929 356, 383.365 356 C 387.093 356, 391 359.656, 391 363.144 C 391 364.793, 390.325 366.818, 389.500 367.643 C 387.382 369.761, 387.639 372, 390 372 C 391.467 372, 392 371.333, 392 369.500 C 392 368.125, 392.413 367, 392.917 367 C 393.421 367, 395.221 364.152, 396.917 360.671 C 400.189 353.954, 400.837 348.260, 398.893 343.315 C 396.012 335.989, 395.974 334.935, 398.499 332.410 C 400.766 330.143, 401.591 330, 412.389 330 C 418.704 330, 425.012 330.434, 426.407 330.965 C 429.889 332.288, 430.628 336.067, 428.497 341.646 C 426.284 347.441, 426.998 353.261, 430.959 361.727 C 433.949 368.115, 437 370.147, 437.001 365.750 C 437.001 362.844, 439.978 355.089, 444.006 347.500 C 447.119 341.636, 447.176 341.297, 446.503 332.520 C 446.124 327.582, 445.181 322.316, 444.406 320.819 C 442.433 317.003, 444.218 313.427, 448.897 311.821 C 450.917 311.128, 457.627 310.566, 464.166 310.542 C 475.165 310.502, 475.981 310.639, 478.416 312.924 C 481.452 315.773, 481.582 316.998, 479.307 321.300 C 478.377 323.060, 477.503 325.850, 477.367 327.500 C 477.230 329.150, 476.813 332.372, 476.440 334.660 C 475.845 338.305, 476.381 340.164, 480.763 349.660 C 486.694 362.510, 488 369.130, 488 386.332 C 488 396.357, 488.284 399, 489.362 399 C 491.579 399, 491.937 391.406, 491.989 343.250 L 492.037 298 477.269 298.027 C 463.171 298.053, 412.396 299.101, 352.849 300.594 L 325.197 301.288 322.599 298.689 C 320.114 296.205, 320 295.607, 320 285.029 L 320 273.968 323.413 272.340 L 326.826 270.712 327.166 260.606 C 327.557 248.981, 329.249 244.431, 338.058 231.318 C 342.655 224.475, 343.350 222.742, 344.181 216.049 C 344.806 211.014, 344.762 206.455, 344.049 202.359 C 342.812 195.255, 343.333 193.204, 346.701 191.923 C 350.102 190.631, 360.404 190.771, 363.434 192.152 C 366.660 193.622, 367.380 195.969, 366.062 200.716 C 364.742 205.468, 364.702 216.389, 365.986 221 C 366.523 222.925, 368.987 227.650, 371.463 231.500 C 381.009 246.343, 382.322 249.615, 382.801 259.750 C 383.180 267.752, 383.476 269, 385.001 269 C 386.572 269, 386.807 267.605, 387.164 256.149 L 387.564 243.298 392.782 232.566 C 398.322 221.172, 398.954 217.745, 396.419 212.843 C 395.527 211.119, 395.096 208.753, 395.430 207.421 C 396.470 203.279, 399.434 202.500, 414.144 202.500 C 426.157 202.500, 428.039 202.728, 429.894 204.405 C 432.390 206.663, 432.556 209.409, 430.442 213.464 C 428.294 217.584, 429.355 222.761, 434.345 232.500 L 438.444 240.500 438.816 254.750 L 439.188 269 442.094 269 C 444.950 269, 445 268.905, 445 263.500 C 445 260.475, 445.450 258, 446 258 C 447.556 258, 447.187 253.089, 445.002 244.748 C 442.809 236.374, 443.165 233.977, 447.144 230.355 C 452.341 225.624, 456.022 224.497, 466.088 224.553 C 474.269 224.599, 476.081 224.922, 478.724 226.803 C 480.930 228.375, 483.260 229, 486.904 229 L 492 229 492 195.377 L 492 161.754 432.250 162.383 C 399.387 162.729, 361.844 163.287, 348.820 163.622 L 325.140 164.231 322.570 161.661 C 319.518 158.609, 319.142 153.605, 321.748 150.726 C 322.873 149.483, 323.555 146.957, 323.660 143.647 C 323.878 136.765, 323.819 137, 325.327 137 C 326.168 137, 327.084 134.670, 327.826 130.640 C 328.471 127.142, 330.424 120.954, 332.166 116.890 C 334.853 110.621, 335.346 108.211, 335.417 101 C 335.463 96.325, 335.115 90.217, 334.645 87.427 C 333.435 80.254, 334.894 79, 344.449 79 C 354.377 79, 354.736 79.503, 353.093 91.111 C 351.535 102.118, 352.241 107.831, 356.537 118.972 C 358.346 123.662, 360.140 129.188, 360.524 131.250 C 361.022 133.925, 361.735 135, 363.011 135 C 364.618 135, 364.835 133.695, 365.150 122.125 L 365.500 109.251 370.385 99.906 L 375.270 90.561 374.749 77.737 C 374.327 67.331, 374.504 64.639, 375.686 63.457 C 377.493 61.650, 392.003 61.403, 393.749 63.149 C 394.555 63.955, 394.737 68.211, 394.359 77.399 L 393.819 90.500 397.973 98.956 C 402.085 107.327, 402.133 107.552, 402.719 121.255 C 403.289 134.577, 403.390 135.087, 405.406 134.799 C 407.386 134.516, 407.527 133.757, 408 120.796 C 408.340 111.483, 408.916 106.677, 409.797 105.796 C 410.701 104.893, 415.342 104.401, 425.106 104.173 C 444.692 103.717, 444 103.118, 444 120.523 C 444 133.037, 444.134 134, 445.876 134 C 447.608 134, 447.785 132.857, 448.174 119.157 L 448.596 104.314 451.798 99.960 C 454.939 95.689, 455.984 90.726, 454 89.500 C 453.450 89.160, 453 88.060, 453 87.056 C 453 84.834, 457.172 84.304, 476.998 84.011 C 484.422 83.901, 490.835 83.602, 491.248 83.347 C 491.662 83.091, 492 71.916, 492 58.512 C 492 30.888, 491.848 30.293, 485.078 31.367 C 483.110 31.678, 477.225 32.411, 472 32.995 C 466.775 33.579, 459.800 34.490, 456.500 35.021 C 448.948 36.234, 443.290 36.285, 444.550 35.128 C 445.073 34.648, 450.675 33.527, 457 32.637 C 489.621 28.044, 491.072 28.005, 493.927 31.635 L 496 34.270 496 309.680 L 496 585.091 493.545 587.545 C 491.274 589.817, 490.362 590, 481.295 590 C 475.908 590.001, 461.825 589.547, 450 588.993 C 438.175 588.439, 419.050 587.543, 407.500 587.003 C 318.736 582.852, 319.454 582.909, 316.289 579.744 C 313.145 576.600, 312.127 572.101, 311.347 557.899 C 310.894 549.647, 311.040 546.093, 311.855 545.590 C 312.485 545.200, 313 543.334, 313 541.441 C 313 538.825, 312.581 538.004, 311.250 538.015 C 307 538.053, 306.890 538.669, 306.691 563.596 C 306.506 586.700, 306.577 587.656, 308.794 592.157 C 311.953 598.569, 314.740 599.626, 330.500 600.388 C 337.650 600.734, 351.375 601.454, 361 601.989 C 370.625 602.524, 389.300 603.454, 402.500 604.056 C 415.700 604.658, 437.525 605.783, 451 606.556 C 496.576 609.172, 520.053 610.194, 521.531 609.626 C 522.824 609.130, 522.973 572.294, 522.752 307.781 L 522.500 6.500 519 6.333 C 517.075 6.242, 511.450 6.753, 506.500 7.470 M 526.011 307.907 C 526.041 575.178, 526.217 610.146, 527.540 610.654 C 529.918 611.566, 534.854 609.013, 537.276 605.618 L 539.500 602.500 540 388.583 C 540.397 218.695, 540.757 174.581, 541.750 174.250 C 542.729 173.924, 543.011 179.762, 543.050 201.167 C 543.682 550.096, 543.513 602.481, 541.750 604.973 C 540.788 606.332, 540 608.304, 540 609.354 C 540 611.016, 540.538 611.191, 544.157 610.706 C 550.518 609.853, 553.878 605.906, 555.030 597.930 C 556.206 589.797, 556.243 22.208, 555.068 16.127 C 554.499 13.179, 553.291 10.990, 551.362 9.412 C 548.449 7.030, 542.431 5.236, 541.264 6.403 C 540.910 6.756, 541.384 9.173, 542.316 11.773 C 544.283 17.261, 544.432 32.533, 543.336 115.750 C 542.796 156.689, 542.426 166, 541.337 166 C 540.233 166, 540 153.111, 540 92.125 C 540 51.494, 539.732 16.910, 539.404 15.271 C 538.402 10.261, 535.011 6.945, 530.234 6.305 L 525.978 5.734 526.011 307.907 M 480 19.037 C 473.125 20.015, 462.325 21.527, 456 22.399 C 449.675 23.270, 436.400 25.109, 426.500 26.486 C 416.600 27.864, 401.075 29.906, 392 31.025 C 372.082 33.482, 347.658 37.060, 347.083 37.605 C 346.854 37.822, 346.854 38.164, 347.083 38.365 C 347.592 38.811, 389.025 33.913, 413 30.572 C 422.625 29.231, 437.925 27.169, 447 25.989 C 456.075 24.810, 468.900 23.017, 475.500 22.005 C 496.179 18.835, 499.418 18.648, 502.856 20.425 C 504.553 21.303, 506.404 22.887, 506.971 23.946 C 507.560 25.047, 508.053 33.930, 508.121 44.686 C 508.236 62.967, 508.957 69.520, 510.452 65.874 C 510.819 64.980, 510.980 55.157, 510.809 44.045 L 510.500 23.842 506.765 20.421 C 502.321 16.352, 499.806 16.222, 480 19.037 M 437.500 36 C 437.160 36.550, 437.557 37, 438.382 37 C 439.207 37, 440.160 36.550, 440.500 36 C 440.840 35.450, 440.443 35, 439.618 35 C 438.793 35, 437.840 35.450, 437.500 36 M 402 39.505 C 387.975 41.323, 372.563 43.126, 367.750 43.512 C 361.912 43.979, 359 44.618, 359 45.433 C 359 46.176, 360.076 46.528, 361.750 46.332 C 363.262 46.155, 376.200 44.654, 390.500 42.995 C 425.136 38.977, 433 37.838, 433 36.839 C 433 35.611, 430.111 35.860, 402 39.505 M 349.459 46.067 C 349.096 46.653, 349.050 47.384, 349.357 47.690 C 350.179 48.513, 353 47.229, 353 46.031 C 353 44.674, 350.303 44.701, 349.459 46.067 M 324.123 49.002 C 319.198 50.165, 315.673 53.175, 314.246 57.437 C 312.639 62.237, 312.888 288.653, 314.500 288.250 C 315.156 288.086, 315.672 248.166, 316 172.250 C 316.275 108.588, 316.870 55.754, 317.322 54.842 C 318.408 52.651, 322.219 51.242, 329.250 50.432 C 332.413 50.068, 335 49.371, 335 48.885 C 335 47.824, 328.829 47.891, 324.123 49.002 M 41.418 63.969 C 39.061 64.923, 34.029 70.548, 33.943 72.327 C 33.912 72.972, 33.881 96.985, 33.875 125.689 C 33.867 163.217, 34.188 178.483, 35.018 180.033 C 36.670 183.120, 44.429 186.330, 48.427 185.580 C 52.393 184.836, 56.712 180.492, 58.020 175.931 C 59.423 171.037, 59.308 78.648, 57.891 73.547 C 56.333 67.932, 51.119 62.983, 46.850 63.063 C 45.008 63.098, 42.563 63.506, 41.418 63.969 M 378.380 67.452 C 377.363 70.101, 379.056 71, 385.059 71 C 390.729 71, 391 70.886, 391 68.500 C 391 66.110, 390.735 66, 384.969 66 C 380.618 66, 378.782 66.405, 378.380 67.452 M 41.750 68.080 C 39.632 69.314, 39.444 72.573, 41.448 73.342 C 42.244 73.647, 43.620 75.299, 44.506 77.012 C 45.938 79.780, 46.083 85.751, 45.809 130.564 L 45.500 181.001 47.750 181 C 48.987 181, 50.900 180.100, 52 179 C 53.948 177.052, 54 175.667, 54 126.149 C 54 73.728, 53.741 70.002, 49.961 67.979 C 47.625 66.729, 43.993 66.774, 41.750 68.080 M 37.181 79.171 C 37.430 81.775, 38.005 82.572, 39.819 82.829 C 41.896 83.123, 42.105 82.810, 41.819 79.829 C 41.570 77.225, 40.995 76.428, 39.181 76.171 C 37.104 75.877, 36.895 76.190, 37.181 79.171 M 379.667 77.667 C 379.300 78.033, 379 80.921, 379 84.084 C 379 89.747, 376.342 98.053, 374.083 99.449 C 373.487 99.817, 373 100.766, 373 101.559 C 373 102.726, 375.089 103, 384 103 C 396.273 103, 396.936 102.536, 392.750 96.877 C 390.931 94.416, 390.433 92.223, 390.147 85.417 L 389.795 77 385.064 77 C 382.462 77, 380.033 77.300, 379.667 77.667 M 338 85.500 C 338 87.889, 338.267 88, 344 88 C 349.733 88, 350 87.889, 350 85.500 C 350 83.111, 349.733 83, 344 83 C 338.267 83, 338 83.111, 338 85.500 M 508.496 85.250 C 507.455 89.567, 508.448 469.513, 509.500 469.250 C 510.871 468.907, 511.392 83, 510.022 83 C 509.481 83, 508.794 84.013, 508.496 85.250 M 37.457 87.252 C 37.193 87.941, 37.094 106.272, 37.238 127.989 C 37.481 164.678, 37.624 167.497, 39.250 167.810 C 40.894 168.126, 41 165.652, 41 127.073 C 41 90.856, 40.819 86, 39.469 86 C 38.626 86, 37.721 86.563, 37.457 87.252 M 278.784 173 C 278.628 220.025, 278.675 259.100, 278.889 259.834 C 280.544 265.506, 280.969 248.054, 280.969 174.500 C 280.969 123.136, 280.600 89.917, 280.019 89 C 279.413 88.043, 278.965 118.472, 278.784 173 M 459.630 89.281 C 458.501 90.106, 457.941 91.540, 458.155 93.056 L 458.500 95.500 474.433 95.264 C 491.091 95.017, 492.291 94.686, 491.756 90.500 C 491.515 88.614, 490.643 88.484, 476.475 88.225 C 465.190 88.019, 460.997 88.282, 459.630 89.281 M 339.804 100.750 C 339.503 106.479, 338.465 110.977, 335.823 118 C 333.858 123.225, 331.963 129.412, 331.613 131.750 L 330.976 136 343.988 136 C 355.989 136, 357 135.856, 357 134.147 C 357 133.128, 354.975 126.409, 352.500 119.217 C 348.950 108.901, 348 104.752, 348 99.570 L 348 93 344.106 93 L 340.212 93 339.804 100.750 M 466.301 101.610 L 462.102 104.143 460.329 102.071 C 458.207 99.593, 456.682 99.460, 454.571 101.571 C 453.278 102.864, 453 105.881, 453 118.593 L 453 134.044 471.750 133.772 L 490.500 133.500 490.500 130 L 490.500 126.500 474.500 126 C 454.471 125.374, 455.484 123.852, 476.454 123.065 L 491.500 122.500 491.500 111 L 491.500 99.500 487.590 99.180 C 484.830 98.954, 482.857 99.469, 480.881 100.930 C 477.374 103.523, 475.818 103.539, 474.232 101 C 472.626 98.428, 471.424 98.521, 466.301 101.610 M 372.398 106.976 C 369.878 107.995, 369 112.945, 369 126.140 L 369 135 384 135 L 399 135 399 121.117 C 399 107.564, 398.946 107.219, 396.750 106.630 C 393.400 105.733, 374.822 105.997, 372.398 106.976 M 414.221 108.695 C 411.974 109.140, 411.945 109.327, 412.221 121.823 L 412.500 134.500 421 134.814 C 425.675 134.987, 431.876 134.840, 434.779 134.488 L 440.059 133.849 439.779 121.174 L 439.500 108.500 428 108.371 C 421.675 108.300, 415.474 108.446, 414.221 108.695 M 375.724 115.213 C 374.247 116.294, 375.570 116.504, 383.990 116.523 C 396.082 116.550, 397.256 114.642, 385.411 114.213 C 380.117 114.022, 376.898 114.354, 375.724 115.213 M 468.500 115 C 471.355 116.227, 488 116.227, 488 115 C 488 114.391, 483.797 114.027, 477.250 114.070 C 470.313 114.116, 467.209 114.445, 468.500 115 M 461.250 137.744 L 453 138.081 453 141.540 L 453 145 468.875 145 C 477.606 145, 486.156 144.719, 487.875 144.375 C 490.634 143.823, 491 143.355, 491 140.375 L 491 137 480.250 137.204 C 474.337 137.315, 465.788 137.559, 461.250 137.744 M 413.250 138.662 C 412.563 138.940, 412 140.704, 412 142.583 L 412 146 422.250 145.989 C 427.887 145.983, 434.188 145.699, 436.250 145.358 C 439.719 144.785, 440 144.486, 440 141.369 L 440 138 427.250 138.079 C 420.238 138.122, 413.938 138.385, 413.250 138.662 M 444.667 138.667 C 444.300 139.033, 444 140.608, 444 142.167 C 444 144.333, 444.471 145, 446 145 C 447.619 145, 448 144.333, 448 141.500 C 448 138.206, 446.447 136.886, 444.667 138.667 M 329.250 140.031 C 326.906 140.973, 326.620 141.982, 327.630 145.750 C 328.189 147.835, 328.793 147.999, 335.867 147.993 C 340.065 147.989, 346.538 147.699, 350.250 147.348 L 357 146.711 357 142.855 L 357 139 344.250 139.063 C 337.238 139.098, 330.488 139.534, 329.250 140.031 M 369.390 140.427 C 369.088 141.212, 368.990 142.900, 369.171 144.177 C 369.496 146.473, 369.671 146.503, 384.250 146.777 L 399 147.053 399 143.027 L 399 139 384.469 139 C 372.803 139, 369.829 139.282, 369.390 140.427 M 403.701 139.632 C 403.316 140.018, 403 141.608, 403 143.167 C 403 145.541, 403.415 146, 405.563 146 C 407.852 146, 408.093 145.652, 407.813 142.758 C 407.515 139.667, 405.329 138.005, 403.701 139.632 M 361 143 C 361 145.333, 361.444 146, 363 146 C 364.556 146, 365 145.333, 365 143 C 365 140.667, 364.556 140, 363 140 C 361.444 140, 361 140.667, 361 143 M 462 149.063 C 451.825 149.503, 417.031 150.337, 384.680 150.916 C 352.329 151.495, 325.441 152.227, 324.930 152.543 C 323.808 153.237, 323.730 157.027, 324.804 158.717 C 325.410 159.670, 343.338 159.714, 407.539 158.918 C 452.617 158.359, 490.089 157.703, 490.808 157.460 C 491.681 157.165, 492.013 155.602, 491.808 152.759 L 491.500 148.500 486 148.382 C 482.975 148.317, 472.175 148.623, 462 149.063 M 37.626 171.533 C 36.489 174.495, 36.974 178.053, 38.601 178.677 C 40.707 179.485, 42.085 177.231, 41.761 173.508 C 41.472 170.195, 38.656 168.849, 37.626 171.533 M 348.179 197.703 C 348.492 200.427, 348.678 200.508, 355.321 200.797 L 362.142 201.095 361.821 198.297 C 361.508 195.573, 361.322 195.492, 354.679 195.203 L 347.858 194.905 348.179 197.703 M 451.666 203.919 C 451.341 205.543, 450.288 207.048, 449.291 207.313 C 447.740 207.724, 447.801 207.885, 449.750 208.511 C 451.031 208.922, 452 210.044, 452 211.117 C 452 213.822, 453.673 213.439, 454.393 210.569 C 454.766 209.083, 455.877 207.992, 457.252 207.761 C 459.429 207.395, 459.414 207.340, 456.750 206.031 C 455.237 205.287, 454 203.852, 454 202.839 C 454 199.922, 452.309 200.704, 451.666 203.919 M 191.773 205.555 C 177.295 209.064, 161.907 221.343, 152.678 236.750 C 150.948 239.637, 148.963 242, 148.266 242 C 146.437 242, 146.659 241.217, 150.523 234.046 C 155.462 224.879, 155.365 224.624, 147.250 225.474 C 125.135 227.791, 104.935 243.140, 96.548 264 C 92.622 273.764, 93.641 298, 97.977 298 C 98.955 298, 100.315 297.325, 101 296.500 C 102.293 294.942, 105 294.437, 105 295.753 C 105 296.168, 103.568 297.855, 101.819 299.503 C 97.610 303.467, 90.368 313.353, 87.429 319.147 C 81.581 330.673, 80.504 348.923, 84.927 361.554 C 87.731 369.561, 95.079 380.094, 101.356 385.104 C 112.689 394.148, 122.919 397.425, 138.007 396.844 C 145.651 396.549, 148.594 395.967, 153.120 393.854 C 159.962 390.659, 166.250 385.136, 169.650 379.334 C 172.754 374.038, 174.070 373.793, 173.281 378.658 L 172.687 382.316 181.593 381.736 C 202.360 380.383, 219.266 369.228, 227.823 351.233 L 231.500 343.500 231.500 325.750 C 231.500 315.987, 231.816 308, 232.203 308 C 232.919 308, 234.984 314.475, 234.994 316.750 C 235.005 319.079, 237.779 318.016, 240.865 314.501 C 248.689 305.589, 257.672 288.234, 261.162 275.284 C 263.945 264.961, 264.147 248.084, 261.592 239.500 C 256.596 222.719, 242.470 209.681, 224.760 205.506 C 216.954 203.665, 199.461 203.691, 191.773 205.555 M 349 206.050 C 349 207.913, 349.523 208.073, 354.740 207.800 C 359.268 207.563, 360.551 207.130, 360.814 205.750 C 361.101 204.239, 360.318 204, 355.073 204 C 349.617 204, 349 204.208, 349 206.050 M 400 208.830 L 400 211.717 411.107 212.243 C 424.557 212.881, 427.500 212.286, 427.500 208.928 L 427.500 206.500 413.750 206.222 L 400 205.944 400 208.830 M 348.994 213.250 C 348.985 218.935, 347.205 223.194, 339.524 235.918 C 335.401 242.748, 331.771 249.723, 331.458 251.418 C 331.145 253.113, 331.027 258.100, 331.195 262.500 L 331.500 270.500 348.500 270.634 C 357.850 270.708, 368.255 270.546, 371.621 270.273 L 377.742 269.778 378.277 263.887 C 379.185 253.870, 377.271 247.818, 369.006 234.579 C 362.152 223.598, 361.543 222.179, 361.170 216.336 L 360.767 210 354.884 210 L 349 210 348.994 213.250 M 408.418 216.710 L 403.337 217.093 400.668 223.925 C 399.201 227.682, 398 231.261, 398 231.878 C 398 232.660, 402.843 233, 414 233 C 424.415 233, 430 232.637, 430 231.960 C 430 231.387, 429.095 229.695, 427.989 228.199 C 426.882 226.702, 425.634 223.458, 425.215 220.989 L 424.453 216.500 418.976 216.414 C 415.964 216.366, 411.213 216.500, 408.418 216.710 M 42.583 227.461 C 40.429 228.241, 37.571 229.974, 36.233 231.313 L 33.799 233.746 33.807 289.766 C 33.812 327.954, 34.158 346.427, 34.895 347.803 C 36.558 350.911, 42.327 354, 46.468 354 C 51.145 354, 56.279 349.260, 57.891 343.453 C 58.622 340.821, 58.991 322.358, 58.994 288.218 C 59 233.054, 58.903 231.926, 53.834 228.646 C 50.175 226.278, 46.827 225.926, 42.583 227.461 M 450.650 231.137 C 446.438 234.609, 446.125 236.813, 449 242.764 C 450.100 245.041, 451 247.375, 451 247.952 C 451 249.162, 484.835 249.431, 486.558 248.235 C 489.367 246.284, 491 242.256, 491 237.277 L 491 232 486 232 C 482.377 232, 480.463 231.463, 479.051 230.051 C 477.344 228.344, 475.680 228.103, 465.700 228.115 C 454.510 228.129, 454.232 228.184, 450.650 231.137 M 45.821 290.250 C 45.644 322.837, 45.618 349.693, 45.763 349.929 C 45.907 350.165, 47.531 349.640, 49.371 348.763 C 51.813 347.599, 52.890 346.301, 53.358 343.959 C 53.711 342.194, 54 316.801, 54 287.530 C 54 237.241, 53.899 234.219, 52.171 232.655 C 51.165 231.745, 49.397 231, 48.242 231 L 46.142 231 45.821 290.250 M 37.016 236.451 C 35.741 240.315, 36.970 244, 39.535 244 C 40.644 244, 41 242.664, 41 238.500 C 41 232.007, 38.848 230.900, 37.016 236.451 M 393.244 239.750 C 392.067 242.420, 391.477 247.316, 391.197 256.750 L 390.804 270 395.902 270 L 401 270 401 262.056 C 401 255.253, 401.324 253.735, 403.255 251.489 C 405.179 249.253, 406.393 248.842, 411.505 248.693 C 417.920 248.507, 423 249.488, 423 250.913 C 423 251.401, 421.345 251.374, 419.250 250.851 C 417.123 250.320, 413.126 250.263, 410.015 250.719 C 404.592 251.514, 404.522 251.568, 403.803 255.512 C 403.403 257.705, 403.335 261.863, 403.653 264.750 L 404.230 270 414.976 270 C 420.886 270, 427.809 269.714, 430.360 269.364 L 435 268.728 435 256.384 C 435 247.375, 434.566 242.955, 433.391 240.020 L 431.783 236 413.340 236 L 394.898 236 393.244 239.750 M 467 243 C 467 243.550, 467.675 244, 468.500 244 C 469.325 244, 470 243.550, 470 243 C 470 242.450, 469.325 242, 468.500 242 C 467.675 242, 467 242.450, 467 243 M 37 291.500 C 37 335.333, 37.030 336, 39 336 C 40.970 336, 41 335.333, 41 291.500 C 41 247.667, 40.970 247, 39 247 C 37.030 247, 37 247.667, 37 291.500 M 560.357 251.037 C 560.711 252.804, 561 255.769, 561 257.625 C 561 260.307, 561.401 261, 562.955 261 C 567.284 261, 566.414 248.798, 562.040 248.162 C 559.914 247.852, 559.770 248.098, 560.357 251.037 M 164 253.351 C 140.860 261.569, 120.946 281.059, 111.979 304.265 C 108.712 312.719, 107.196 322.385, 108.966 323.479 C 110.627 324.505, 110.716 324.303, 112.512 315.471 C 117.796 289.480, 139.208 266.101, 167.454 255.482 C 173.369 253.259, 175.861 250.981, 172.333 251.021 C 171.325 251.033, 167.575 252.081, 164 253.351 M 451.511 253.832 C 451.230 254.564, 451 255.577, 451 256.082 C 451 256.609, 459.548 257, 471.070 257 C 490.878 257, 491.135 256.973, 490.820 254.905 C 490.509 252.868, 489.965 252.806, 471.261 252.655 C 456.052 252.532, 451.915 252.779, 451.511 253.832 M 343 254.900 C 339.694 255.341, 338.986 255.699, 340.332 256.250 C 342.837 257.276, 368.179 257.173, 369.823 256.131 C 372.714 254.298, 353.971 253.438, 343 254.900 M 449 264 L 449 267 470 267 L 491 267 491 264 L 491 261 470 261 L 449 261 449 264 M 340 264 C 340 265.308, 365.975 265.308, 368 264 C 369.006 263.350, 364.643 263.026, 354.750 263.015 C 345.573 263.006, 340 263.378, 340 264 M 265.034 276.250 C 263.747 280.788, 261.413 287.375, 259.847 290.889 C 256.375 298.679, 247.589 311.857, 241.675 318.146 L 237.306 322.792 236.741 332.146 C 235.373 354.780, 222.041 373.318, 200.838 382.069 C 192.206 385.633, 187.435 386.798, 176.235 388.079 C 168.707 388.941, 167.460 389.411, 162.235 393.364 C 159.081 395.750, 154.700 398.349, 152.500 399.139 C 149.902 400.071, 148.399 401.269, 148.211 402.556 C 147.842 405.082, 152.901 412.739, 159.234 419.240 L 164.155 424.293 174.328 423.668 C 191.412 422.619, 204.940 417.765, 222.173 406.499 C 243.797 392.363, 267.857 363.394, 282.951 333.324 C 289.195 320.884, 294.396 306.632, 295.518 298.889 C 296.184 294.287, 296.173 294.265, 289.214 286.389 C 285.380 282.050, 279.826 276.484, 276.872 274.019 C 273.917 271.555, 271.350 269.192, 271.167 268.769 C 270.983 268.346, 270.055 268, 269.103 268 C 267.792 268, 266.807 269.997, 265.034 276.250 M 451.750 270.689 C 450.332 271.060, 450 272.270, 450 277.073 L 450 283 470.500 283 L 491 283 491 276.500 L 491 270 472.250 270.116 C 461.938 270.180, 452.712 270.438, 451.750 270.689 M 390 273.721 C 386.360 274.374, 385.781 275.318, 386.542 279.370 L 387.223 283 394.111 283 L 401 283 401 278 L 401 273 396.750 273.136 C 394.413 273.211, 391.375 273.474, 390 273.721 M 404 278 L 404 283 419.500 283 L 435 283 435 278 L 435 273 419.500 273 L 404 273 404 278 M 439.195 277.750 C 439.487 282.293, 439.630 282.500, 442.500 282.500 C 445.370 282.500, 445.513 282.293, 445.805 277.750 L 446.110 273 442.500 273 L 438.890 273 439.195 277.750 M 327.250 274.723 C 324.202 275.102, 324 275.371, 324 279.063 L 324 283 352.500 283 L 381 283 381 278.500 L 381 274 355.750 274.160 C 341.863 274.248, 329.038 274.502, 327.250 274.723 M 325.920 289.711 C 325.353 291.202, 325.148 293.452, 325.464 294.711 L 326.038 297 350.769 296.986 C 364.371 296.979, 376.512 296.701, 377.750 296.370 C 379.649 295.861, 380 295.084, 380 291.383 L 380 287 353.475 287 L 326.950 287 325.920 289.711 M 386 291 L 386 295 417.250 294.998 C 434.438 294.996, 458.288 294.700, 470.250 294.338 L 492 293.681 492 290.341 L 492 287 439 287 L 386 287 386 291 M 449.750 314.689 C 448.586 314.993, 448 316.127, 448 318.073 L 448 321 461.933 321 C 475.096 321, 475.901 320.887, 476.515 318.952 C 477.835 314.795, 475.610 313.991, 463.128 314.116 C 456.732 314.180, 450.712 314.438, 449.750 314.689 M 331.986 321.191 C 331.961 325.512, 330.815 327.830, 328.406 328.434 C 325.275 329.220, 325.298 331, 328.439 331 C 330.562 331, 330.965 331.581, 331.551 335.490 C 332.357 340.863, 334 340.495, 334 334.941 C 334 331.429, 334.266 331, 336.441 331 C 340.118 331, 340.577 329.065, 337.066 328.363 C 334.287 327.807, 334 327.392, 334 323.934 C 334 321.835, 333.550 319.840, 333 319.500 C 332.445 319.157, 331.994 319.909, 331.986 321.191 M 451 327.500 L 451 330 462 330 L 473 330 473 327.500 L 473 325 462 325 L 451 325 451 327.500 M 289.057 330.329 C 287.697 334.448, 279.165 349.565, 273.913 357.159 C 269.595 363.403, 269.292 365.061, 271.500 370.346 C 272.325 372.320, 273 375.659, 273 377.765 L 273 381.595 266.656 381.191 C 255.099 380.455, 250.457 385.138, 251.199 396.788 C 251.567 402.567, 251.957 403.572, 254.822 406.132 C 257.407 408.442, 258.962 409, 262.816 409 C 265.447 409, 268.167 408.438, 268.859 407.750 C 269.869 406.748, 269.991 406.835, 269.475 408.190 C 269.122 409.120, 267.806 410.552, 266.552 411.374 C 264.670 412.607, 264.148 414.120, 263.566 420.031 C 263.177 423.970, 263.076 427.410, 263.341 427.674 C 264.131 428.464, 279.051 423.979, 285.500 421.013 C 298.537 415.016, 311.080 403.617, 316.305 393.018 C 319.338 386.863, 319.500 385.952, 319.500 375.018 C 319.500 364.732, 319.233 362.965, 317 358.500 C 314.910 354.321, 313.528 353.004, 308.582 350.477 C 301.994 347.111, 298.537 342.643, 294.866 332.750 C 292.446 326.230, 290.655 325.484, 289.057 330.329 M 356 336.959 C 356 339.767, 356.675 343.680, 357.500 345.654 C 358.325 347.629, 359 350.067, 359 351.073 C 359 352.079, 359.487 355.174, 360.083 357.951 C 361.501 364.565, 364 364.924, 364 358.514 C 364 356.047, 364.520 352.084, 365.156 349.706 C 366.245 345.635, 366.115 345.011, 362.906 338.946 C 361.031 335.402, 358.713 332.361, 357.750 332.180 C 356.269 331.904, 356 332.639, 356 336.959 M 451.711 337.119 C 451.402 339.423, 449.541 344.435, 447.575 348.257 C 445.609 352.078, 444 355.609, 444 356.103 C 444 356.598, 451.836 357, 461.500 357 C 481.422 357, 481.132 357.156, 476.322 349 C 474.862 346.525, 473.145 342.025, 472.507 339 L 471.346 333.500 461.809 333.215 L 452.273 332.931 451.711 337.119 M 401 337 L 401 340.062 413.250 339.781 L 425.500 339.500 425.500 337 L 425.500 334.500 413.250 334.219 L 401 333.938 401 337 M 376.794 339.750 C 372.637 344.548, 370 350.792, 370 355.838 C 370 360.096, 370.306 360.996, 371.750 360.978 C 375.406 360.931, 382 347.027, 382 339.364 C 382 337.422, 378.591 337.675, 376.794 339.750 M 37.667 340.667 C 36.400 341.933, 37.005 346.065, 38.543 346.655 C 40.515 347.411, 40.842 347.041, 41.615 343.177 C 42.155 340.473, 41.959 340, 40.292 340 C 39.215 340, 38.033 340.300, 37.667 340.667 M 404.667 344.667 C 404.300 345.033, 404 347.457, 404 350.052 C 404 353.764, 402.880 356.979, 398.750 365.118 L 393.500 375.466 393.500 390.650 C 393.500 399.001, 393.725 406.047, 394 406.307 C 394.275 406.567, 403.275 406.942, 414 407.140 L 433.500 407.500 433.500 393 L 433.500 378.500 420.500 378.196 C 413.350 378.029, 405.587 378.169, 403.250 378.508 L 399 379.123 399 390.061 C 399 396.687, 398.606 401, 398 401 C 397.395 401, 397 396.718, 397 390.155 C 397 375.105, 396.541 375.444, 416.612 375.684 C 431.915 375.866, 432 375.855, 432 373.638 C 432 372.412, 429.975 367.473, 427.500 362.664 C 423.947 355.759, 423 352.874, 423 348.959 L 423 344 414.167 344 C 409.308 344, 405.033 344.300, 404.667 344.667 M 297.991 354.511 C 295.553 357.449, 302.030 369, 306.116 369 C 306.581 369, 307.259 367.818, 307.621 366.373 C 308.315 363.607, 306.467 359.446, 302.681 355.250 C 300.286 352.595, 299.662 352.497, 297.991 354.511 M 343 359.432 C 343 361.615, 348.209 364.850, 352.943 365.607 C 356.954 366.248, 357.159 366.162, 356.838 363.973 C 356.581 362.214, 355.307 361.244, 351.500 359.909 C 345.266 357.722, 343 357.595, 343 359.432 M 455.865 359.759 L 442.229 360.055 441.045 364.277 C 439.476 369.869, 438.544 404, 439.905 406 C 440.737 407.224, 444.442 407.563, 460.018 407.845 C 470.519 408.034, 480.211 407.913, 481.555 407.576 L 484 406.962 483.992 393.231 C 483.983 379.261, 482.503 362.040, 481.212 360.890 C 480.065 359.868, 470.496 359.441, 455.865 359.759 M 378.250 361.989 C 376.462 363.079, 375 364.710, 375 365.614 C 375 367.016, 375.763 367.156, 380.193 366.569 C 386.600 365.719, 387 365.476, 387 362.441 C 387 360.444, 386.500 360.001, 384.250 360.004 C 382.738 360.006, 380.038 360.899, 378.250 361.989 M 324.655 376.750 C 324.308 381.012, 323.741 385.738, 323.395 387.250 L 322.767 390 330.235 390 L 337.704 390 338.320 382 C 338.660 377.600, 338.690 373.357, 338.389 372.570 C 337.705 370.790, 332.745 369, 328.494 369 L 325.286 369 324.655 376.750 M 348.215 369.762 C 347.547 369.984, 347 371.029, 347 372.083 C 347 373.903, 347.935 374, 365.500 374 C 380.941 374, 384 373.762, 384 372.559 C 384 371.766, 383.572 370.853, 383.048 370.530 C 381.954 369.854, 350.049 369.150, 348.215 369.762 M 458.157 369.966 C 451.532 371.590, 453.247 372.494, 462.299 372.150 C 470.996 371.819, 472.889 371.516, 471.917 370.613 C 470.910 369.678, 461.195 369.221, 458.157 369.966 M 445.924 371.592 C 444.272 373.582, 443.253 396.653, 444.751 398.151 C 445.421 398.821, 445.896 395.066, 446.183 386.827 C 446.428 379.799, 447.141 373.533, 447.842 372.250 C 449.249 369.673, 447.900 369.210, 445.924 371.592 M 477 385.741 C 477 398.198, 478.328 402.665, 479.570 394.385 C 480.432 388.636, 479.461 376.061, 478.045 374.645 C 477.318 373.918, 477 377.297, 477 385.741 M 343 390.909 C 343 402.256, 343.293 405.150, 344.571 406.429 C 345.900 407.757, 349.381 408, 367.097 408 L 388.052 408 387.776 392.750 L 387.500 377.500 365.250 377.231 L 343 376.962 343 390.909 M 354.500 389 C 354.101 389.646, 358.176 390, 366 390 C 373.824 390, 377.899 389.646, 377.500 389 C 377.149 388.432, 372.176 388, 366 388 C 359.824 388, 354.851 388.432, 354.500 389 M 263.203 391.256 C 261.559 393.236, 260.728 397.714, 261.872 398.421 C 262.469 398.790, 263.357 397.387, 263.971 395.108 C 264.556 392.934, 265.590 390.931, 266.268 390.656 C 267.031 390.347, 266.881 390.128, 265.872 390.079 C 264.977 390.036, 263.776 390.565, 263.203 391.256 M 317.886 399.250 C 312.234 407.682, 302.603 416.867, 295.372 420.721 L 289.425 423.891 289.834 434.069 C 290.167 442.375, 289.990 444.164, 288.871 443.793 C 287.892 443.469, 287.417 441.002, 287.210 435.170 C 286.862 425.382, 287.342 425.551, 272.886 430.134 C 262.527 433.417, 260.714 435.185, 265.750 437.090 C 268.504 438.132, 275.779 441.767, 292.364 450.391 C 297.240 452.926, 301.627 455, 302.114 455 C 303.918 455, 302.913 452.569, 300.079 450.073 C 297.276 447.604, 297.131 447.049, 296.504 436.397 L 295.851 425.295 300.885 421.678 C 304.097 419.371, 306.163 418.454, 306.591 419.147 C 306.960 419.745, 307.091 429.293, 306.881 440.367 L 306.500 460.500 312.553 461.363 C 317.796 462.110, 319.302 461.926, 323.803 459.989 L 329 457.754 329 452.057 C 329 446.984, 329.386 445.909, 332.526 442.241 C 337.364 436.589, 345.117 432.922, 352.072 432.998 C 355.058 433.031, 358.798 433.001, 360.385 432.931 C 365.772 432.696, 372.664 444.266, 374.050 455.872 C 375.314 466.462, 378.738 472.552, 380.430 467.220 C 380.741 466.241, 383.045 463.361, 385.551 460.819 C 394.702 451.537, 399.500 452.213, 399.500 462.786 C 399.500 467.507, 398.753 470.008, 395.198 477.180 C 390.304 487.057, 388.830 493, 391.274 493 C 392.119 493, 393.974 491.014, 395.396 488.587 C 398.622 483.083, 404.070 479.432, 406.842 480.916 C 411.242 483.270, 411.082 489.794, 406.409 498.603 C 404.434 502.326, 401.734 506.794, 400.409 508.531 C 397.788 511.967, 397.206 516, 399.332 516 C 400.064 516, 402.112 513.763, 403.884 511.030 C 407.942 504.767, 413.024 500.552, 419.188 498.335 C 424.219 496.526, 425.349 494.364, 422.500 492 C 420.238 490.123, 420.678 488.366, 424 486 C 427.322 483.634, 427.762 481.877, 425.500 480 C 424.675 479.315, 424 478.006, 424 477.090 C 424 475.044, 434.427 467.843, 436.330 468.573 C 437.086 468.863, 440.031 467.655, 442.873 465.888 C 447.883 462.774, 448.086 462.734, 449.459 464.588 C 450.239 465.639, 452.538 470.212, 454.568 474.750 C 456.598 479.288, 458.875 483, 459.629 483 C 460.383 483, 461 482.598, 461 482.106 C 461 480.012, 466.925 475, 469.401 475 C 470.831 475, 472 475.450, 472 476 C 472 476.550, 473.497 477, 475.326 477 C 479.744 477, 482.681 480.245, 484.254 486.866 C 485.436 491.841, 485.638 492.076, 488.497 491.795 L 491.500 491.500 491.763 457.750 L 492.027 424 408.468 424 L 324.909 424 322.455 421.545 C 319.206 418.297, 319.244 414.059, 322.549 410.954 C 324.612 409.016, 326.420 408.485, 332.049 408.167 C 339.870 407.725, 339.550 408.228, 338.352 398.250 L 337.721 393 329.898 393 L 322.075 393 317.886 399.250 M 359.500 399 C 357.419 399.530, 359.316 399.800, 365.691 399.882 C 370.875 399.948, 375.151 399.564, 375.500 399 C 376.226 397.826, 364.114 397.826, 359.500 399 M 83 409.875 C 83 414.492, 82.841 414.782, 80 415.350 C 76.244 416.101, 76.098 417.763, 79.750 418.184 C 82.268 418.473, 82.526 418.900, 82.805 423.250 C 83.193 429.302, 85 429.487, 85 423.475 C 85 419.569, 85.342 418.821, 87.500 418 C 88.875 417.477, 90 416.802, 90 416.500 C 90 416.198, 88.875 415.523, 87.500 415 C 85.342 414.179, 85 413.431, 85 409.525 C 85 407.036, 84.550 405, 84 405 C 83.450 405, 83 407.194, 83 409.875 M 313.538 413.014 C 312.558 416.952, 313.369 438.008, 314.500 438.008 C 315.816 438.007, 316.372 414.487, 315.109 412.231 C 314.276 410.742, 314.079 410.840, 313.538 413.014 M 325.693 412.697 C 324.339 413.051, 323.963 413.962, 324.193 416.334 L 324.500 419.500 408.311 419.756 L 492.121 420.011 491.811 416.256 L 491.500 412.500 409.500 412.363 C 364.400 412.288, 326.687 412.438, 325.693 412.697 M 224.092 440.035 C 220.576 444.411, 215.463 447.991, 210.103 449.832 C 205.566 451.390, 200.011 449.857, 196.129 445.976 C 194.493 444.339, 192.868 443, 192.518 443 C 192.169 443, 190.182 444.366, 188.104 446.036 C 186.026 447.706, 182.674 449.341, 180.656 449.668 C 177.375 450.201, 176.622 449.879, 173.560 446.632 C 171.676 444.634, 169.723 443, 169.220 443 C 168.319 443, 153.381 457.971, 145.028 467.245 C 140.972 471.748, 140.817 472.144, 141.994 474.985 C 144.835 481.844, 165.047 497.347, 169.115 495.786 C 170.070 495.420, 171.503 490.534, 173.343 481.366 C 176.381 466.228, 178.713 458, 179.964 458 C 180.406 458, 180.151 461.236, 179.397 465.191 C 177.383 475.765, 171.875 521.209, 172.529 521.862 C 173.165 522.498, 274.848 520.485, 275.510 519.824 C 275.837 519.496, 274.782 513.214, 273.165 505.864 C 269.410 488.800, 268.862 483.552, 270.593 481.270 C 271.768 479.722, 271.940 480.219, 271.968 485.233 L 272 490.966 276.967 493.483 C 279.698 494.867, 282.344 496, 282.845 496 C 283.347 496, 284.513 492.962, 285.437 489.250 C 286.361 485.538, 289.644 477.201, 292.732 470.724 C 296.086 463.691, 297.976 458.603, 297.424 458.092 C 295.392 456.208, 270.292 444, 268.452 444 C 265.837 444, 264.196 446.797, 260.823 457 C 258.559 463.848, 258.121 464.626, 258.571 461 C 258.878 458.525, 260.450 453.745, 262.065 450.377 C 263.679 447.010, 265 443.582, 265 442.761 C 265 441.156, 256.123 437, 252.695 437 C 251.575 437, 249.869 437.713, 248.906 438.585 C 245.665 441.519, 239.616 441.536, 233.673 438.629 C 230.718 437.183, 228.083 436, 227.818 436 C 227.552 436, 225.876 437.816, 224.092 440.035 M 342.175 439.036 C 334.683 443.601, 332.571 447.248, 333.502 454.017 C 334.166 458.839, 334.151 458.872, 330.050 461.585 C 324.168 465.478, 317.633 466.971, 311.498 465.824 C 299.076 463.501, 300.462 463.129, 297.232 469.648 C 292.996 478.197, 289.785 487.465, 290.167 490.041 C 290.584 492.857, 296.315 494.760, 307.040 495.643 C 315.555 496.344, 323.492 494.586, 330.719 490.397 C 336.153 487.248, 346.326 477.827, 349.047 473.425 C 350.814 470.565, 351.749 470, 354.716 470 C 360.127 470, 366.030 467.883, 367.692 465.347 C 370.030 461.779, 369.799 450.489, 367.272 444.834 C 364.501 438.633, 362.091 437.337, 353 437.157 C 347.049 437.040, 344.813 437.428, 342.175 439.036 M 313.190 449.750 C 313.360 451.813, 313.950 453.500, 314.500 453.500 C 315.050 453.500, 315.640 451.813, 315.810 449.750 C 316.052 446.832, 315.761 446, 314.500 446 C 313.239 446, 312.948 446.832, 313.190 449.750 M 387.255 463.250 C 381.729 471.514, 381.088 474.562, 383.207 482.486 C 384.677 487.982, 386.435 488.258, 388.067 483.250 C 388.740 481.188, 389.614 479.275, 390.011 479 C 391.905 477.686, 395.229 469.177, 395.725 464.372 L 396.280 459 393.188 459 C 390.663 459, 389.575 459.779, 387.255 463.250 M 442.655 469.829 C 440.420 472.298, 440.556 473.717, 443.615 479.855 C 445.053 482.742, 445.983 485.350, 445.682 485.652 C 445.380 485.953, 442.997 483.230, 440.385 479.600 C 435.443 472.730, 433.442 471.749, 430.655 474.829 C 428.217 477.522, 428.574 479.067, 433 485 C 437.738 491.350, 438.073 492.900, 434.096 490.068 C 430.060 487.194, 427 487.328, 427 490.378 C 427 493.606, 428.475 494.578, 435.500 495.983 C 445.830 498.049, 453.259 503.761, 459.526 514.455 C 461.761 518.267, 462.683 519.052, 464.392 518.593 C 465.551 518.282, 467.962 518.021, 469.750 518.014 C 471.975 518.004, 473 517.524, 473 516.491 C 473 515.095, 465.646 501.736, 459.636 492.215 C 456.201 486.774, 448 470.481, 448 469.099 C 448 467.345, 444.466 467.828, 442.655 469.829 M 367.460 471.045 C 365.846 472.828, 365.753 473.627, 366.734 477.295 C 368.651 484.460, 369.892 487, 371.475 487 C 373.167 487, 373.503 481.947, 372.364 473.640 C 371.669 468.571, 370.336 467.866, 367.460 471.045 M 162.910 473.832 C 163.450 474.840, 164.676 476.302, 165.637 477.082 C 166.717 477.960, 166.475 477.261, 165.003 475.250 C 162.377 471.662, 161.392 470.995, 162.910 473.832 M 350.804 477.750 C 349.908 479.262, 347.799 481.850, 346.116 483.500 C 342.413 487.130, 342.176 489, 345.418 489 C 349.407 489, 350.986 487.947, 353.043 483.917 C 356.601 476.942, 354.578 471.372, 350.804 477.750 M 358.250 480.707 C 356.246 485.021, 356.692 488.568, 359.465 490.385 C 360.820 491.273, 362.620 492, 363.465 492 C 364.309 492, 365 492.450, 365 493 C 365 493.550, 365.675 494, 366.500 494 C 368.616 494, 368.380 491.969, 365.394 484.511 C 362.525 477.344, 360.350 476.186, 358.250 480.707 M 464.989 481.250 C 462.051 486.069, 462.595 492.399, 466.025 493.296 C 467.332 493.638, 467.958 494.897, 468.183 497.631 C 468.412 500.414, 469.006 501.579, 470.324 501.829 C 473.142 502.364, 476 499.131, 476 495.411 C 476 492.578, 476.374 492.090, 478.750 491.816 C 481.284 491.525, 481.481 491.188, 481.255 487.532 C 480.928 482.246, 478.020 479.214, 474.719 480.718 C 472.760 481.611, 472.150 481.470, 471.168 479.898 C 469.421 477.100, 467.227 477.580, 464.989 481.250 M 508.667 483.667 C 508.300 484.033, 508 508.356, 508 537.716 C 508 596.212, 508.071 595.485, 502.113 597.953 C 499.771 598.923, 493.595 598.950, 473.316 598.076 C 410.082 595.353, 401.897 594.986, 391.750 594.426 C 384.771 594.040, 381 594.187, 381 594.844 C 381 596.167, 386.986 596.753, 413 597.976 C 424.825 598.532, 449.041 599.694, 466.813 600.559 C 498.166 602.084, 499.235 602.074, 502.757 600.247 C 504.753 599.210, 507.312 597.123, 508.443 595.609 C 510.452 592.919, 510.506 591.580, 510.775 537.927 C 510.926 507.717, 510.663 483, 510.191 483 C 509.719 483, 509.033 483.300, 508.667 483.667 M 138.200 490.250 C 135.159 496.434, 132.167 506.260, 130.028 517.093 C 129.407 520.237, 127.407 525.039, 125.462 528.060 C 122.765 532.245, 122 534.472, 122 538.134 C 122 543.555, 122.733 546, 124.357 546 C 124.986 546, 126.757 547.575, 128.293 549.500 C 130.449 552.203, 131.822 553, 134.320 553 C 140.456 553, 144.530 547.871, 139.787 546.117 L 137.574 545.298 139.721 544.149 C 140.902 543.517, 142.587 543, 143.466 543 C 144.344 543, 145.380 542.212, 145.768 541.250 C 146.293 539.946, 146.603 540.391, 146.986 543 C 147.437 546.074, 147.888 546.538, 150.688 546.809 C 155.272 547.253, 157.475 543.659, 156.689 537.022 C 156.369 534.319, 155.467 530.846, 154.685 529.304 C 153.373 526.714, 153.443 526.313, 155.601 524.054 C 158.407 521.117, 167 504.598, 167 502.140 C 167 501.073, 165.696 499.930, 163.622 499.180 C 160.068 497.895, 148.837 489.768, 145.595 486.135 C 144.547 484.961, 143.147 484, 142.482 484 C 141.818 484, 139.891 486.813, 138.200 490.250 M 400.406 486.695 C 397.372 489.970, 395.685 493.475, 393.042 502 C 390.429 510.425, 390.379 514, 392.875 514 C 394.134 514, 394.936 513.069, 395.317 511.164 C 395.629 509.604, 397.505 506.388, 399.485 504.018 C 404.382 498.157, 404.752 497.315, 405.557 490.201 C 406.169 484.786, 406.046 484, 404.581 484 C 403.659 484, 401.780 485.213, 400.406 486.695 M 375.469 487.099 C 374.525 490.073, 375.818 497.715, 378.159 503 C 379.255 505.475, 380.467 509.296, 380.852 511.491 C 381.863 517.254, 384.539 517.419, 386.056 511.813 C 387.869 505.109, 386.580 496.760, 382.756 490.438 C 379.334 484.783, 376.601 483.530, 375.469 487.099 M 345.500 492.921 C 338.569 494.114, 337.264 495.393, 334.942 503.265 C 332.086 512.946, 328.890 519.139, 323.490 525.460 C 319.075 530.628, 319 530.835, 319 537.898 L 319 545.081 327.203 544.790 L 335.405 544.500 336.572 536.312 C 337.879 527.144, 340.315 521.601, 344.364 518.577 C 346.872 516.705, 347.308 516.662, 349.774 518.047 C 353.357 520.058, 356.046 527.472, 356.737 537.250 C 357.334 545.677, 358.951 547.448, 360.912 541.822 C 361.522 540.074, 363.412 536.474, 365.114 533.822 C 368.127 529.126, 368.191 528.785, 367.541 520.750 C 366.562 508.650, 364.979 501.243, 362.774 498.439 C 359.106 493.777, 352.600 491.698, 345.500 492.921 M 479.384 496.442 C 478.389 499.034, 479.476 501.494, 481.760 501.820 C 484.105 502.154, 484.434 501.220, 483.370 497.250 C 482.694 494.730, 480.233 494.230, 479.384 496.442 M 320.843 503.250 C 316.914 507.238, 315.118 508.797, 316.850 506.715 C 320.288 502.584, 320.892 500, 318.418 500 C 315.986 500, 297.261 517.812, 296.055 521.273 C 293.116 529.703, 295.959 535, 303.422 535 C 306.881 535, 308.784 534.284, 312.156 531.711 C 321.956 524.237, 329.479 511.854, 331.574 499.750 C 332.632 493.636, 329.217 494.750, 320.843 503.250 M 486 498.500 C 486 501.376, 489.371 502.081, 490.393 499.418 C 491.445 496.676, 491.071 496, 488.500 496 C 486.500 496, 486 496.500, 486 498.500 M 276.003 498.139 C 276.016 499.712, 280.177 519.511, 280.580 519.913 C 281.647 520.980, 284.411 518.242, 285.607 514.933 C 286.290 513.045, 286.882 508.943, 286.924 505.817 C 286.985 501.227, 286.664 500.036, 285.250 499.621 C 282.354 498.770, 276 497.752, 276.003 498.139 M 290.788 506.394 C 290.426 512.045, 289.677 514.875, 287.615 518.394 C 286.130 520.927, 284.485 523, 283.958 523 C 282.479 523, 282.820 528.430, 285.088 541 C 286.540 549.048, 287.329 558.728, 287.715 573.250 C 288.140 589.214, 288.564 594, 289.554 594 C 290.262 594, 291.146 592.538, 291.519 590.750 C 292.681 585.176, 294.647 583, 298.523 583 L 302 583 302 561 C 302 541.887, 301.799 539, 300.465 539 C 298.030 539, 294.028 535.955, 292.449 532.901 C 290.090 528.339, 290.637 522.964, 294 517.661 C 296.593 513.572, 297 511.987, 297 505.965 L 297 499 294.132 499 C 291.275 499, 291.261 499.031, 290.788 506.394 M 305 502.073 C 305 504.636, 308.310 504.345, 308.812 501.739 C 309.043 500.539, 308.504 500, 307.073 500 C 305.642 500, 305 500.642, 305 502.073 M 417.383 502.402 C 410.430 505.640, 404 514.598, 404 521.047 C 404 522.857, 404.415 523.068, 406.896 522.523 C 410.836 521.657, 415.472 523.866, 421.368 529.417 C 427.387 535.083, 432.049 535.739, 434.372 531.248 C 437.110 525.952, 439.589 524.563, 445.854 524.810 C 451.063 525.016, 451.855 524.761, 454.459 522.043 L 457.326 519.050 455.475 514.944 C 453.441 510.434, 446.846 504.104, 441.574 501.602 C 436.175 499.040, 423.719 499.452, 417.383 502.402 M 473 503.935 C 473 507.202, 474.868 511, 476.475 511 C 478.258 511, 478.544 506.884, 476.965 503.934 C 475.626 501.433, 473 501.433, 473 503.935 M 370.333 506.250 C 370.641 508.038, 371.467 513.438, 372.168 518.250 C 373.232 525.558, 373.740 527, 375.252 527 C 378.010 527, 378.293 524.867, 376.665 516.325 C 374.756 506.309, 373.452 503, 371.411 503 C 370.115 503, 369.890 503.678, 370.333 506.250 M 484.299 506.250 C 481.201 509.652, 480 512.497, 480 516.434 C 480 519.171, 480.409 520, 481.759 520 C 482.727 520, 484.081 520.900, 484.768 522 C 485.455 523.100, 486.913 524, 488.008 524 C 489.675 524, 490 523.327, 490 519.883 C 490 516.112, 489.811 515.815, 487.750 516.338 C 485.858 516.819, 486.016 516.479, 488.743 514.205 C 491.651 511.780, 491.922 511.112, 491.363 507.750 C 490.862 504.745, 490.302 504, 488.543 504 C 487.336 504, 485.426 505.012, 484.299 506.250 M 436 510 C 436 510.550, 436.927 511, 438.059 511 C 439.191 511, 439.840 510.550, 439.500 510 C 439.160 509.450, 438.234 509, 437.441 509 C 436.648 509, 436 509.450, 436 510 M 418.543 510.931 C 417.521 512.584, 419.648 512.979, 421.603 511.500 C 423.438 510.111, 423.428 510.063, 421.309 510.032 C 420.104 510.014, 418.859 510.419, 418.543 510.931 M 343.546 522.910 C 342.322 525.278, 339 540.784, 339 544.131 C 339 544.609, 342.415 545, 346.588 545 L 354.176 545 353.639 541.250 C 353.344 539.188, 352.809 534.800, 352.450 531.500 C 351.279 520.726, 346.874 516.476, 343.546 522.910 M 386.628 521.528 C 386.282 522.428, 386 524.054, 386 525.142 C 386 526.817, 386.576 527.073, 389.750 526.810 C 393.181 526.526, 393.500 526.245, 393.500 523.500 C 393.500 520.872, 393.113 520.462, 390.378 520.196 C 388.211 519.985, 387.063 520.393, 386.628 521.528 M 242.500 524.027 C 230.950 524.408, 210.700 524.790, 197.500 524.875 C 184.300 524.961, 173.002 525.361, 172.394 525.765 C 171.786 526.169, 170.978 528.188, 170.599 530.250 L 169.909 534 177.307 534 C 188.843 534, 254.210 532.116, 266.804 531.420 L 278.109 530.796 277.804 527.148 L 277.500 523.500 270.500 523.417 C 266.650 523.371, 254.050 523.646, 242.500 524.027 M 466 523.849 C 466 524.347, 464.087 524.542, 461.750 524.283 C 458.045 523.873, 456.905 524.268, 452.862 527.367 C 445.460 533.039, 443.696 541.828, 448.750 547.856 L 451.500 551.136 457.500 550.184 C 460.800 549.661, 464.931 549.452, 466.679 549.719 C 469.670 550.177, 469.877 550.008, 470.179 546.853 C 470.482 543.692, 470.740 543.483, 474.683 543.196 C 478.757 542.899, 478.873 542.977, 479.183 546.196 L 479.500 549.500 485.500 549.500 L 491.500 549.500 491.830 546.026 C 492.695 536.927, 488.938 529.033, 482.102 525.586 C 478.911 523.977, 466 522.584, 466 523.849 M 402.356 525.516 C 401.999 526.446, 403.330 528.719, 405.802 531.401 C 410.369 536.356, 413 540.943, 413 543.950 C 413 546.382, 414.762 546.544, 419.532 544.551 C 422.360 543.369, 423 542.566, 423 540.199 C 423 533.933, 412.815 524, 406.391 524 C 404.228 524, 402.720 524.566, 402.356 525.516 M 439.571 528.571 C 437.558 530.585, 437.442 537, 439.418 537 C 441.045 537, 445 531.070, 445 528.632 C 445 526.538, 441.642 526.501, 439.571 528.571 M 369.525 534.405 C 367.758 536.278, 365.738 539.866, 365.034 542.378 C 363.741 546.996, 363.976 558.309, 365.395 559.729 C 365.819 560.153, 375.050 560.658, 385.908 560.851 L 405.651 561.203 407.325 556.818 C 409.467 551.209, 409.469 542.792, 407.330 538.283 C 404.370 532.046, 401.345 531.008, 386.118 531.004 L 372.736 531 369.525 534.405 M 255 535.142 C 247.025 535.608, 224.532 536.330, 205.016 536.745 L 169.531 537.500 168.839 541.500 C 167.302 550.381, 165.902 583.223, 166.553 595.132 L 167.244 607.765 175.872 608.953 C 180.617 609.606, 189.462 610.392, 195.527 610.700 L 206.553 611.259 208.277 605.792 C 209.224 602.785, 210 599.126, 210 597.662 C 210 595.155, 209.723 594.999, 205.250 594.985 C 202.637 594.976, 199.825 594.533, 199 594 C 197.958 593.327, 199.807 593.026, 205.052 593.015 L 212.605 593 214.307 588.250 C 216.755 581.421, 216.608 581.002, 211.750 580.985 C 209.412 580.976, 206.825 580.533, 206 580 C 204.955 579.325, 206.700 579.026, 211.750 579.015 C 219.983 578.998, 220.971 577.833, 215.921 574.100 C 210.535 570.118, 213.506 570.728, 222.437 575.439 C 230.622 579.755, 231.516 580, 239.102 580 C 244.191 580, 246.892 580.365, 246.500 581 C 246.160 581.550, 243.910 582, 241.500 582 C 239.090 582, 236.818 582.486, 236.451 583.079 C 236.084 583.672, 236.358 586.206, 237.058 588.708 L 238.332 593.258 244.666 592.667 C 252.761 591.911, 253.067 593.667, 245 594.580 C 241.700 594.953, 239.028 595.538, 239.062 595.879 C 239.096 596.221, 239.686 599.425, 240.375 603 L 241.626 609.500 252.063 609.401 C 257.803 609.347, 267.072 608.739, 272.661 608.050 L 282.821 606.797 283.550 596.148 C 284.511 582.099, 283.537 557.951, 281.511 545.562 C 280.617 540.096, 279.660 535.258, 279.384 534.812 C 278.817 533.895, 275.555 533.939, 255 535.142 M 477 535 C 477 535.550, 477.675 536, 478.500 536 C 479.325 536, 480 535.550, 480 535 C 480 534.450, 479.325 534, 478.500 534 C 477.675 534, 477 534.450, 477 535 M 457 536 C 457 536.550, 457.675 537, 458.500 537 C 459.325 537, 460 536.550, 460 536 C 460 535.450, 459.325 535, 458.500 535 C 457.675 535, 457 535.450, 457 536 M 430.750 537.689 C 429.690 537.966, 429 539.103, 429 540.573 C 429 542.680, 429.462 543, 432.500 543 C 436.051 543, 436.705 542.001, 435.393 538.582 C 434.784 536.994, 433.993 536.842, 430.750 537.689 M 376.192 541.075 C 376.389 541.666, 376.978 542.150, 377.500 542.150 C 378.022 542.150, 378.611 541.666, 378.808 541.075 C 379.005 540.484, 378.417 540, 377.500 540 C 376.583 540, 375.995 540.484, 376.192 541.075 M 473 546 C 473 547.333, 473.667 548, 475 548 C 476.333 548, 477 547.333, 477 546 C 477 544.667, 476.333 544, 475 544 C 473.667 544, 473 544.667, 473 546 M 387 547 L 382.500 547.700 386.691 547.850 C 388.996 547.932, 391.160 547.550, 391.500 547 C 391.840 546.450, 391.979 546.068, 391.809 546.150 C 391.639 546.233, 389.475 546.615, 387 547 M 417.019 549.250 C 413.065 551.964, 409.401 557.997, 410.293 560.322 C 410.866 561.813, 413.110 562, 430.469 562 L 450 562 450 557.401 C 450 553.546, 449.498 552.333, 446.894 549.901 C 443.832 547.041, 443.624 547, 432.042 547 C 421.498 547, 419.960 547.230, 417.019 549.250 M 316.187 549.274 C 315.602 549.979, 315.374 552.371, 315.677 554.626 L 316.223 558.703 328.862 559.347 C 335.813 559.702, 345.686 559.994, 350.802 559.996 L 360.105 560 359.802 554.763 L 359.500 549.525 355.500 548.820 C 348.074 547.511, 317.356 547.866, 316.187 549.274 M 455.705 554.250 C 454.782 554.938, 453.740 556.962, 453.388 558.750 L 452.750 562 472.375 562 L 492 562 492 557.500 L 492 553 474.691 553 C 462.405 553, 456.895 553.363, 455.705 554.250 M 317 568.809 C 317 577.950, 317.553 578.315, 332.646 579.131 C 339.716 579.514, 349.663 579.866, 354.750 579.913 L 364 580 364 576.283 C 364 570.872, 361.224 564.295, 358.649 563.604 C 357.467 563.287, 347.613 563.021, 336.750 563.014 L 317 563 317 568.809 M 366.022 566.250 C 366.053 569.404, 369.297 576.126, 371.912 578.453 C 373.774 580.110, 376.339 580.527, 388.803 581.196 C 396.887 581.631, 404.121 581.756, 404.880 581.474 C 405.943 581.080, 406.153 579.279, 405.791 573.646 C 405.533 569.622, 404.998 565.805, 404.602 565.165 C 404.095 564.345, 398.274 564, 384.941 564 L 366 564 366.022 566.250 M 410 570.632 C 410 574.510, 410.620 577.267, 411.990 579.485 L 413.981 582.705 431.062 583.416 C 444.278 583.965, 448.490 583.838, 449.678 582.852 C 451.219 581.573, 451.209 581.115, 449.397 569.889 L 448.814 566.278 441.256 565.639 C 437.099 565.287, 428.366 565, 421.849 565 L 410 565 410 570.632 M 453.545 565.926 C 452.644 567.385, 453.842 574.728, 455.516 578.002 C 458.180 583.214, 459.910 583.907, 472.555 584.827 C 479.125 585.306, 486.188 585.491, 488.250 585.239 L 492 584.781 492 575.391 L 492 566 476.750 565.989 C 468.363 565.983, 459.870 565.708, 457.877 565.379 C 455.620 565.005, 453.987 565.212, 453.545 565.926 M 220.654 585.489 C 219.744 586.399, 219 588.011, 219 589.071 C 219 590.778, 219.747 591, 225.500 591 C 230.189 591, 232 590.635, 232 589.691 C 232 585.453, 223.746 582.396, 220.654 585.489 M 296.391 588.750 C 296.091 589.712, 293.518 595.125, 290.673 600.778 C 285.868 610.324, 285.233 611.127, 281.750 612.066 C 278.014 613.073, 278 613.097, 278 618.390 L 278 623.704 286.250 624.346 C 296.864 625.172, 312.755 625.170, 331.931 624.340 L 347.179 623.680 346.554 619.510 C 346.210 617.217, 345.382 613.127, 344.714 610.420 L 343.500 605.500 330.760 604.791 C 323.753 604.401, 316.248 603.605, 314.083 603.022 C 309.474 601.781, 305.896 597.912, 303.462 591.539 C 302.072 587.899, 301.254 587, 299.333 587 C 297.926 587, 296.712 587.722, 296.391 588.750 M 337 592.996 C 337 593.800, 349.484 595, 357.851 595 C 361.119 595, 363.009 594.636, 362.450 594.115 C 361.307 593.050, 337 591.982, 337 592.996 M 216 597.500 C 216 599.981, 216.067 600, 225 600 C 233.933 600, 234 599.981, 234 597.500 C 234 595.019, 233.933 595, 225 595 C 216.067 595, 216 595.019, 216 597.500 M 213 606.500 L 213 609 224 609 L 235 609 235 606.500 L 235 604 224 604 L 213 604 213 606.500 M 52.632 615.242 C 52.300 616.484, 52.021 618.550, 52.014 619.833 L 52 622.165 110.729 621.520 C 143.031 621.165, 169.606 620.727, 169.786 620.547 C 169.967 620.367, 169.722 618.707, 169.244 616.860 L 168.373 613.500 110.805 613.242 L 53.237 612.984 52.632 615.242 M 174.475 619.755 C 175.159 626.558, 175.101 626.833, 172.842 627.538 C 168.009 629.048, 167.661 633.256, 172.176 635.591 C 176.624 637.891, 194.769 638.748, 197.359 636.780 C 198.659 635.792, 199.631 632.829, 200.589 626.934 C 202.654 614.229, 203.543 615.395, 191.250 614.684 C 185.338 614.343, 178.985 613.757, 177.134 613.383 L 173.767 612.703 174.475 619.755 M 209.400 613.765 C 208.089 614.640, 206 618.431, 206 619.934 C 206 620.648, 211.780 621, 223.500 621 L 241 621 241 618.200 C 241 613.392, 239.751 612.999, 224.550 613.015 C 216.822 613.024, 210.005 613.361, 209.400 613.765 M 255 613.936 C 248.337 614.378, 246.508 614.824, 246.538 616 C 246.700 622.464, 248.489 634.287, 249.519 635.695 C 252.030 639.130, 271.158 638.713, 275.867 635.120 C 278.789 632.891, 278.076 629.487, 274.499 628.589 C 273.164 628.254, 272.242 627.422, 272.451 626.740 C 272.660 626.058, 273.087 622.688, 273.400 619.250 L 273.969 613 268.735 613.186 C 265.856 613.289, 259.675 613.626, 255 613.936" fill-rule="evenodd"/></svg>