<svg xmlns="http://www.w3.org/2000/svg" width="592" height="648" viewBox="0 0 592 648" version="1.1"><path d="M 514 1.057 C 508.677 1.714, 430.500 12.204, 402 16.085 C 397.875 16.647, 387.525 17.967, 379 19.019 C 351.801 22.376, 320.624 26.881, 316.679 28.025 C 311.363 29.567, 305.541 35.164, 302.443 41.712 C 300.424 45.980, 299.697 49.391, 299.266 56.623 C 298.852 63.563, 298.355 66, 297.353 66 C 296.224 66, 296 84.119, 296 175.505 L 296 285.009 288.750 277.694 C 284.762 273.670, 279.250 268.629, 276.500 266.490 C 269.223 260.832, 269 260.416, 269 252.519 C 269 243.583, 266.922 235.528, 262.442 227.092 C 256.827 216.520, 248.838 209.047, 237.908 204.142 C 228.156 199.766, 221.702 198.531, 208.500 198.515 C 189.589 198.491, 176.977 202.899, 165.039 213.703 L 158.634 219.500 151.067 219.649 C 117.639 220.307, 87.955 249.132, 87.878 281.010 C 87.866 285.731, 88.605 292.498, 89.537 296.207 L 91.216 302.893 86.135 310.491 C 60.247 349.196, 86.802 401.193, 133.550 403.331 C 140.475 403.648, 140.508 403.663, 142.734 407.574 C 143.962 409.734, 144.975 411.795, 144.984 412.155 C 144.993 412.515, 142.979 413.994, 140.510 415.441 C 137.754 417.057, 135.780 419.027, 135.400 420.544 C 133.975 426.221, 141.160 430.803, 149.520 429.549 L 153.891 428.894 152.945 432.190 C 152.425 434.003, 152 437.894, 152 440.837 C 152 445.295, 152.324 446.272, 153.944 446.696 C 155.583 447.124, 154.325 448.955, 145.936 458.352 C 140.462 464.483, 135.691 470.600, 135.334 471.944 C 134.936 473.447, 135.310 475.474, 136.307 477.211 C 137.862 479.921, 137.814 480.228, 135.122 484.793 C 130.689 492.312, 127.285 501.756, 125.495 511.500 C 124.457 517.158, 122.959 521.800, 121.462 524 C 118.470 528.400, 116 535.322, 116 539.310 C 116 546.938, 123.591 555.736, 132.166 558.045 C 135.371 558.908, 136.784 558.747, 140.523 557.093 C 142.999 555.998, 145.273 554.451, 145.579 553.655 C 145.970 552.635, 147.221 552.337, 149.817 552.643 C 154.521 553.199, 157.802 551.411, 160.143 547.016 C 162.266 543.032, 162.589 535.271, 160.834 530.417 C 159.771 527.477, 159.956 526.743, 162.938 522.096 C 164.737 519.293, 166.294 517, 166.398 517 C 166.502 517, 165.589 523.948, 164.370 532.439 C 163.150 540.930, 161.875 553.193, 161.537 559.689 C 161.199 566.185, 160.687 573.413, 160.400 575.750 L 159.877 580 93.510 580 C 33.904 580, 26.979 580.164, 25.537 581.606 C 24.297 582.846, 24.195 583.530, 25.088 584.606 C 26.056 585.773, 37.155 586, 93.122 586 C 159.333 586, 160 586.020, 160 588 C 160 589.976, 159.261 590.003, 98.750 590.218 C 65.063 590.338, 35.475 590.530, 33 590.645 C 30.525 590.760, 27.456 590.887, 26.180 590.927 C 24.363 590.984, 23.930 591.487, 24.180 593.250 L 24.500 595.500 92.250 595.757 C 159.168 596.011, 160 596.038, 160 598.007 C 160 599.978, 159.255 600, 92.969 600 C 33.475 600, 25.871 600.174, 25.345 601.543 C 25.019 602.392, 25.071 603.404, 25.459 603.793 C 25.848 604.182, 56.353 604.725, 93.250 605 C 145.670 605.391, 160.425 605.773, 160.750 606.750 C 161.081 607.742, 147.257 607.999, 93.833 607.996 C 16.439 607.992, 22.482 608.756, 17.365 598.335 L 14.500 592.500 14.782 322 C 14.985 126.906, 15.374 50.524, 16.177 48 C 18.919 39.372, 26.738 31.993, 35.206 30.039 C 37.899 29.418, 80.714 29.040, 150.072 29.024 C 274.347 28.997, 265.870 28.482, 274.916 36.614 C 277.626 39.051, 280.891 43.172, 282.171 45.772 L 284.500 50.500 284.750 102 C 284.887 130.325, 285.112 180.147, 285.250 212.715 C 285.481 267.487, 285.631 272.061, 287.243 273.672 C 288.432 274.861, 289.311 275.089, 290.010 274.390 C 290.699 273.701, 290.947 236.502, 290.767 160.433 L 290.500 47.500 287.750 41.903 C 284.434 35.155, 279.807 30.207, 273.326 26.481 C 268.636 23.784, 267.904 23.682, 247.275 22.848 C 235.601 22.375, 182.951 22.104, 130.275 22.245 C 22.663 22.532, 31.445 21.902, 20.324 30.125 C 16.385 33.038, 14.354 35.566, 11.824 40.705 L 8.500 47.458 8.500 321.979 L 8.500 596.500 11.186 601.590 C 14.339 607.565, 19.971 612.844, 24.069 613.664 C 26.345 614.119, 27.185 615.009, 27.949 617.779 C 28.486 619.722, 28.733 621.624, 28.497 622.005 C 28.262 622.385, 23.070 622.960, 16.959 623.283 C 5.717 623.876, 1 625.389, 1 628.401 C 1 631.513, 5.645 632.506, 24.608 633.452 C 27.418 633.592, 30.230 634.024, 30.858 634.412 C 31.486 634.800, 32 634.586, 32 633.937 C 32 633.154, 32.422 633.074, 33.250 633.700 C 33.937 634.219, 37.763 634.539, 41.750 634.410 C 45.934 634.275, 49 634.586, 49 635.147 C 49 635.681, 49.562 635.771, 50.248 635.347 C 52.135 634.181, 66.924 634.068, 67.632 635.214 C 68.012 635.829, 68.616 635.692, 69.201 634.857 C 69.944 633.796, 70.264 633.774, 70.662 634.756 C 70.942 635.447, 71.687 635.693, 72.318 635.304 C 74.066 634.223, 77 634.214, 77 635.290 C 77 635.815, 77.748 635.627, 78.663 634.872 C 79.965 633.797, 80.417 633.772, 80.748 634.756 C 80.981 635.447, 81.681 635.697, 82.306 635.311 C 84.051 634.232, 90.349 634.217, 91.750 635.289 C 92.558 635.907, 93 635.884, 93 635.225 C 93 633.932, 99.260 634.163, 100.208 635.492 C 100.665 636.131, 101.331 636.069, 102.081 635.319 C 102.941 634.459, 103.875 634.441, 105.650 635.250 C 107.429 636.061, 108.359 636.041, 109.227 635.173 C 109.872 634.528, 110.760 634, 111.200 634 C 112.634 634, 112.042 636.247, 110.250 637.608 C 109.287 638.339, 108.993 638.951, 109.595 638.968 C 110.197 638.986, 111.505 638.100, 112.500 637 C 113.495 635.900, 115.028 635.036, 115.905 635.079 C 116.939 635.130, 117.060 635.335, 116.250 635.662 C 115.563 635.940, 115 636.818, 115 637.613 C 115 638.715, 115.692 638.548, 117.902 636.914 C 119.499 635.734, 121.411 635.010, 122.152 635.305 C 123.075 635.673, 122.948 635.867, 121.750 635.921 C 120.787 635.964, 120 636.637, 120 637.417 C 120 638.196, 119.438 639.034, 118.750 639.280 C 118.063 639.525, 117.800 640.050, 118.167 640.446 C 118.533 640.843, 119.771 640.229, 120.917 639.083 C 122.062 637.938, 123.775 637, 124.723 637 C 126.111 637, 125.998 637.313, 124.138 638.616 C 122.428 639.813, 122.123 640.523, 122.957 641.357 C 123.792 642.192, 124.281 642.163, 124.849 641.245 C 125.832 639.654, 130.980 641.823, 130.992 643.833 C 130.996 644.567, 131.534 644.989, 132.187 644.771 C 134.637 643.954, 133.922 642.343, 130.519 641.007 C 126.904 639.589, 125.837 638, 128.500 638 C 129.325 638, 130 638.450, 130 639 C 130 639.550, 130.900 640, 132 640 C 133.100 640, 134 640.450, 134 641 C 134 641.550, 134.900 642, 136 642 C 137.100 642, 138 641.475, 138 640.833 C 138 640.192, 138.337 640.003, 138.748 640.415 C 139.160 640.827, 138.683 641.759, 137.689 642.486 C 136.409 643.421, 136.223 644.020, 137.052 644.532 C 137.696 644.930, 138.575 644.688, 139.004 643.993 C 139.499 643.193, 140.742 642.969, 142.393 643.384 C 143.827 643.744, 145 643.613, 145 643.092 C 145 642.572, 144.213 641.991, 143.250 641.800 C 142.155 641.583, 141.911 641.194, 142.599 640.761 C 143.203 640.381, 144.687 640.991, 145.896 642.118 C 147.675 643.775, 148.377 643.932, 149.572 642.941 C 151.515 641.328, 152.642 642.522, 151.020 644.476 C 150.265 645.385, 150.174 646, 150.794 646 C 151.366 646, 152.037 645.437, 152.286 644.750 C 152.648 643.751, 153.167 643.753, 154.869 644.758 C 156.041 645.451, 157 645.601, 157 645.092 C 157 644.583, 156.438 643.966, 155.750 643.720 C 155.063 643.475, 154.827 642.923, 155.226 642.494 C 155.625 642.066, 156.672 642.313, 157.552 643.043 C 158.889 644.153, 159.302 644.135, 160.061 642.936 C 160.881 641.639, 161.424 642.314, 161.118 644.250 C 160.939 645.386, 161.822 645.163, 164.535 643.385 C 166.829 641.882, 167 641.891, 167 643.507 C 167 644.848, 167.307 644.990, 168.342 644.131 C 169.080 643.519, 169.972 643.305, 170.323 643.656 C 170.674 644.008, 174.008 644.413, 177.731 644.558 C 181.454 644.702, 184.725 644.909, 185 645.016 C 185.275 645.124, 186.760 645.128, 188.300 645.025 C 189.841 644.923, 191.839 645.437, 192.742 646.169 C 194.031 647.214, 194.216 647.221, 193.605 646.204 C 193.007 645.211, 193.839 644.958, 197.163 645.122 C 199.548 645.240, 202.175 645.149, 203 644.918 C 203.825 644.688, 204.388 645.063, 204.250 645.750 C 203.923 647.385, 205.037 647.286, 207.441 645.468 C 208.896 644.368, 209.565 644.297, 210.115 645.186 C 210.672 646.087, 211.226 646.057, 212.424 645.063 C 213.582 644.102, 214.351 644.046, 215.324 644.854 C 216.257 645.629, 216.960 645.640, 217.709 644.891 C 218.457 644.143, 219.674 644.297, 221.835 645.415 C 225.648 647.386, 227.140 647.421, 224.573 645.479 C 223.513 644.677, 222.940 643.727, 223.299 643.368 C 223.658 643.009, 224.618 643.268, 225.432 643.944 C 226.246 644.619, 227.386 644.880, 227.964 644.522 C 228.542 644.165, 229.723 644.580, 230.588 645.445 C 232.480 647.337, 234.128 646.608, 233.362 644.218 C 232.940 642.900, 233.037 642.816, 233.781 643.857 C 234.366 644.676, 235.560 644.957, 236.792 644.566 C 238.518 644.018, 238.758 644.273, 238.343 646.209 C 237.888 648.329, 237.958 648.370, 239.286 646.750 C 240.951 644.719, 243.648 644.443, 244.247 646.241 C 244.544 647.133, 245.150 646.993, 246.402 645.741 C 248.314 643.829, 249.475 643.422, 248.496 645.007 C 248.153 645.561, 248.622 646.302, 249.538 646.653 C 250.477 647.013, 251.567 646.701, 252.040 645.935 C 252.718 644.838, 253.285 644.948, 255.013 646.512 C 256.344 647.716, 257.026 647.936, 256.824 647.097 C 256.646 646.356, 257.125 645.523, 257.889 645.245 C 258.808 644.912, 259.015 645.166, 258.502 645.997 C 257.904 646.964, 258.160 647.010, 259.612 646.197 C 261.044 645.396, 261.920 645.523, 263.249 646.726 C 264.325 647.699, 265 647.865, 265 647.155 C 265 646.520, 264.550 646, 264 646 C 263.450 646, 263 645.534, 263 644.965 C 263 644.277, 263.605 644.254, 264.804 644.895 C 265.897 645.480, 267.177 645.503, 268.054 644.953 C 268.849 644.454, 270.250 644.279, 271.166 644.564 C 272.082 644.848, 273.122 644.612, 273.477 644.038 C 273.914 643.330, 274.725 643.318, 276 644 C 277.083 644.580, 278.113 644.626, 278.432 644.110 C 278.737 643.617, 281.351 643.343, 284.243 643.501 C 287.134 643.658, 289.781 643.337, 290.125 642.787 C 290.530 642.139, 290.991 642.176, 291.434 642.893 C 291.810 643.502, 291.615 644, 291 644 C 290.385 644, 290.178 644.479, 290.540 645.065 C 290.969 645.758, 291.913 645.497, 293.245 644.315 C 294.733 642.996, 295.412 642.841, 295.729 643.750 C 295.970 644.438, 296.606 645, 297.142 645 C 297.679 645, 297.840 644.550, 297.500 644 C 296.089 641.718, 302.675 644.064, 304.235 646.400 C 304.695 647.089, 304.975 646.877, 304.985 645.833 C 304.993 644.917, 304.438 643.978, 303.750 643.748 C 303.063 643.517, 304.597 643.296, 307.160 643.256 C 310.516 643.204, 312.423 643.745, 313.976 645.192 C 315.162 646.297, 316.400 646.934, 316.726 646.607 C 317.053 646.280, 316.326 645.150, 315.111 644.096 C 313.895 643.042, 313.335 641.911, 313.865 641.583 C 314.395 641.256, 315.034 641.553, 315.284 642.244 C 315.645 643.242, 316.196 643.229, 317.967 642.181 C 319.192 641.455, 320.440 641.107, 320.741 641.407 C 321.041 641.707, 320.547 642.237, 319.643 642.583 C 317.629 643.356, 317.475 645, 319.417 645 C 320.196 645, 321.034 645.562, 321.280 646.250 C 321.539 646.977, 322.097 647.129, 322.613 646.613 C 323.129 646.097, 322.977 645.539, 322.250 645.280 C 320.738 644.740, 320.581 643, 322.044 643 C 322.618 643, 324.283 641.891, 325.745 640.535 C 327.207 639.180, 328.611 638.277, 328.863 638.530 C 329.116 638.783, 328.077 640.061, 326.554 641.369 C 325.031 642.678, 324.226 644.022, 324.766 644.356 C 325.307 644.689, 326.988 643.814, 328.503 642.410 C 330.461 640.595, 331.567 640.167, 332.329 640.929 C 333.090 641.690, 332.909 642, 331.700 642 C 330.765 642, 330 642.450, 330 643 C 330 645.183, 333.052 643.790, 336.923 639.841 C 339.165 637.553, 341 636.213, 341 636.862 C 341 637.512, 342.238 638.587, 343.750 639.251 C 345.262 639.916, 346.751 640.805, 347.057 641.227 C 347.692 642.101, 352.980 639.894, 352.992 638.750 C 353.005 637.479, 356.806 637.922, 357.280 639.250 C 357.525 639.938, 358.077 640.174, 358.505 639.775 C 358.933 639.376, 358.207 638.154, 356.892 637.058 C 354.519 635.082, 354.517 635.066, 356.667 635.033 C 357.858 635.015, 359.019 635.558, 359.247 636.241 C 359.541 637.124, 360.185 636.958, 361.476 635.667 C 362.474 634.669, 363.563 634.223, 363.895 634.676 C 364.408 635.374, 372.480 635.664, 374 635.039 C 375.733 634.326, 379 634.490, 379 635.290 C 379 635.815, 379.675 635.685, 380.500 635 C 381.742 633.969, 382.003 634.077, 382.015 635.628 C 382.027 637.100, 382.220 637.202, 382.914 636.104 C 383.400 635.337, 384.475 634.968, 385.301 635.285 C 386.128 635.603, 387.104 635.562, 387.471 635.196 C 388.309 634.357, 394.201 634.018, 395.380 634.740 C 396.281 635.292, 410.106 635.156, 415.500 634.542 C 417.150 634.355, 419.063 634.661, 419.750 635.223 C 420.614 635.930, 421 635.899, 421 635.122 C 421 634.505, 421.675 634, 422.500 634 C 423.325 634, 424.007 634.563, 424.015 635.250 C 424.026 636.086, 424.357 636.003, 425.015 635 C 425.835 633.752, 426.148 633.729, 426.879 634.863 C 427.621 636.014, 427.843 636.014, 428.303 634.863 C 428.750 633.745, 429.039 633.770, 429.909 635 C 430.492 635.825, 430.976 636.050, 430.985 635.500 C 431.007 634.038, 471.272 633.927, 472.235 635.387 C 472.760 636.183, 472.974 636.162, 472.985 635.312 C 472.993 634.659, 473.788 634.133, 474.750 634.144 C 488.700 634.302, 533.806 632.502, 534.750 631.751 C 536.745 630.162, 536.199 627.038, 533.750 626.037 C 530.077 624.535, 471.073 622.980, 418.142 622.990 L 368.783 623 369.352 620.733 C 369.665 619.486, 370.426 616.111, 371.044 613.233 C 372.130 608.165, 372.273 608, 375.574 608 C 377.449 608, 397.549 609.110, 420.242 610.466 C 476.804 613.847, 521.991 616.003, 535.878 615.984 C 550.107 615.963, 553.912 614.344, 558.227 606.474 L 560.953 601.500 560.977 520.250 C 561 440.349, 561.033 438.967, 563 437 C 564.100 435.900, 565.379 435, 565.843 435 C 566.306 435, 567.453 433.537, 568.392 431.750 C 569.971 428.743, 570.076 421.714, 569.799 337.673 L 569.500 246.846 565.500 243.181 L 561.500 239.515 561 125.934 L 560.500 12.353 558 8.662 C 553.797 2.455, 549.121 0.890, 533.773 0.548 C 526.473 0.386, 517.575 0.615, 514 1.057 M 507.500 8.472 C 502.550 9.187, 474.425 12.982, 445 16.905 C 415.575 20.828, 385.200 24.891, 377.500 25.933 C 369.800 26.976, 357.650 28.573, 350.500 29.482 C 318.661 33.528, 314.890 34.536, 310.959 40.057 C 305.361 47.919, 305.643 40.181, 305.235 197.069 C 304.925 316.005, 305.092 341.825, 306.179 342.696 C 306.906 343.279, 308.505 344.063, 309.732 344.439 L 311.965 345.124 312.232 320.312 L 312.500 295.500 314.780 295.177 L 317.060 294.853 316.967 321.529 C 316.891 343.361, 317.135 348.503, 318.309 349.852 C 320.358 352.207, 322.169 355.893, 323.527 360.473 C 324.662 364.302, 324.846 364.436, 328.602 364.167 C 331.267 363.976, 334.003 364.687, 337.250 366.416 C 342.645 369.287, 343.080 368.680, 339.457 363.342 C 336.326 358.728, 336.610 355.944, 340.395 354.135 C 342.882 352.947, 344.054 352.964, 348.708 354.259 C 353.682 355.644, 354.073 355.634, 353.499 354.136 C 351.819 349.759, 350.822 342.132, 351.185 336.436 C 351.630 329.451, 353.735 326, 357.551 326 C 360.069 326, 365.260 331.381, 367.722 336.543 L 369.300 339.853 372.987 336.890 C 376.958 333.699, 382.578 332.313, 385 333.927 C 386.048 334.626, 386.496 336.670, 386.488 340.714 C 386.473 347.557, 385.577 351.280, 383.427 353.430 C 382.001 354.857, 382.099 355, 384.505 355 C 388.424 355, 393.251 360.153, 392.422 363.454 C 391.342 367.757, 392.687 366.301, 395.917 359.671 C 399.531 352.251, 399.702 349.428, 397 341.740 C 394.484 334.582, 394.491 334.418, 397.455 331.455 C 399.798 329.111, 400.472 329, 412.389 329 C 419.254 329, 426.012 329.434, 427.407 329.965 C 430.691 331.213, 431.685 335.227, 429.999 340.440 C 427.770 347.336, 428.340 353.018, 432.024 360.621 C 434.831 366.412, 435.419 367.105, 435.743 365 C 436.337 361.148, 439.480 353.128, 442.993 346.500 C 446.002 340.824, 446.140 340.095, 445.546 333 C 445.200 328.875, 444.200 323.828, 443.323 321.785 C 441.997 318.698, 441.937 317.565, 442.967 315.079 C 444.763 310.743, 449.229 309.575, 464.166 309.534 C 476.218 309.502, 476.958 309.618, 479.416 311.924 C 482.507 314.824, 482.674 317.758, 480.043 322.916 C 478.966 325.026, 478.340 327.006, 478.650 327.317 C 478.961 327.628, 478.649 330.089, 477.958 332.787 C 476.709 337.659, 476.735 337.765, 481.733 348.596 C 487.663 361.443, 488.954 367.903, 489.125 385.582 C 489.218 395.116, 489.450 397.321, 490.014 394 C 490.433 391.525, 490.843 369.081, 490.923 344.124 L 491.070 298.749 451.785 299.435 C 430.178 299.813, 397.425 300.537, 379 301.044 C 325.866 302.505, 324.376 302.467, 321.455 299.545 C 319.120 297.211, 319 296.502, 319 285.029 L 319 272.968 322.413 271.340 L 325.826 269.712 326.166 259.606 C 326.557 247.982, 328.249 243.431, 337.054 230.323 C 341.538 223.649, 342.355 221.662, 343.120 215.572 C 343.692 211.014, 343.626 206.450, 342.931 202.618 C 340.994 191.937, 342.849 190, 355.018 190 C 366.551 190, 369.336 192.639, 367.114 201.463 C 365.743 206.907, 365.685 215.329, 366.986 220 C 367.523 221.925, 369.987 226.650, 372.463 230.500 C 382.009 245.343, 383.322 248.615, 383.801 258.750 C 384.042 263.837, 384.582 268, 385.001 268 C 385.420 268, 385.943 262.229, 386.163 255.176 L 386.563 242.352 391.915 231.268 C 397.409 219.893, 397.575 218.863, 394.949 212.426 C 393.370 208.556, 394.357 204.439, 397.262 202.779 C 398.799 201.900, 404.086 201.500, 414.144 201.500 C 427.140 201.500, 429.024 201.714, 430.894 203.405 C 433.378 205.652, 433.645 210.240, 431.528 214.298 C 429.577 218.039, 430.407 221.757, 435.370 231.500 L 439.444 239.500 439.816 253.750 C 440.161 266.970, 440.325 268, 442.094 268 C 443.738 268, 444 267.243, 444 262.500 C 444 259.475, 444.450 257, 445 257 C 446.483 257, 446.231 254.260, 443.951 245.552 C 441.603 236.590, 441.983 233.333, 445.799 229.730 C 451.265 224.568, 455.625 223.232, 466.508 223.382 C 475.139 223.500, 476.949 223.828, 479.663 225.760 C 481.690 227.203, 484.265 228, 486.904 228 L 491 228 491 195.403 L 491 162.806 434.750 163.409 C 403.813 163.741, 366.263 164.281, 351.307 164.608 L 324.114 165.205 321.557 162.648 C 318.429 159.519, 318 152.763, 320.737 149.738 C 321.816 148.546, 322.516 146.051, 322.585 143.159 C 322.743 136.462, 322.855 136, 324.327 136 C 325.168 136, 326.084 133.670, 326.826 129.640 C 327.471 126.142, 329.419 119.954, 331.155 115.890 C 334.596 107.834, 335.301 99.636, 333.600 87.444 C 332.418 78.967, 333.529 78, 344.449 78 C 355.090 78, 355.587 78.512, 354.415 88.273 C 352.861 101.201, 353.503 107.619, 357.335 117.500 C 359.255 122.450, 361.140 128.188, 361.524 130.250 C 362.841 137.320, 363.799 133.990, 364.150 121.125 L 364.500 108.251 369.393 98.890 L 374.286 89.529 373.678 76.802 C 372.944 61.461, 373.156 61.068, 382.321 60.859 C 396.763 60.528, 396.195 59.855, 395.430 76.388 L 394.823 89.500 398.975 97.956 C 403.084 106.324, 403.134 106.557, 403.719 120.238 C 404.506 138.638, 406.316 138.349, 407 119.715 C 407.339 110.469, 407.917 105.676, 408.797 104.796 C 409.712 103.882, 414.517 103.405, 425.111 103.177 C 445.847 102.731, 445 102.035, 445 119.523 C 445 126.935, 445.394 133, 445.876 133 C 446.358 133, 446.942 126.321, 447.174 118.157 L 447.596 103.314 450.798 98.960 C 454.341 94.143, 454.644 92.436, 452.468 89.559 C 450.656 87.162, 450.640 86.503, 452.355 84.788 C 453.371 83.772, 458.169 83.365, 471.543 83.159 C 481.351 83.009, 489.742 82.660, 490.188 82.384 C 490.635 82.108, 491 71.366, 491 58.512 C 491 38.281, 490.782 34.925, 489.376 33.519 C 488.332 32.474, 486.816 32.090, 485.126 32.440 C 483.682 32.740, 478.225 33.451, 473 34.021 C 467.775 34.591, 460.800 35.490, 457.500 36.021 C 454.200 36.551, 449.555 36.988, 447.177 36.992 C 443.597 36.999, 442.911 36.699, 443.190 35.251 C 443.555 33.357, 447.926 32.477, 471.663 29.517 C 489.462 27.297, 492.414 27.439, 494.927 30.635 L 497 33.270 497 309.680 L 497 586.091 494.545 588.545 C 492.243 590.848, 491.424 591, 481.295 591 C 475.358 591.001, 460.825 590.547, 449 589.993 C 437.175 589.439, 418.050 588.543, 406.500 588.003 C 317.736 583.852, 318.454 583.909, 315.289 580.744 C 312.068 577.523, 311.085 572.989, 310.337 557.898 C 309.891 548.912, 310.040 545.094, 310.856 544.589 C 312.113 543.812, 312.454 538.991, 311.250 539.015 C 308.169 539.078, 307.901 540.932, 307.702 563.589 C 307.507 585.669, 307.583 586.669, 309.794 591.157 C 312.953 597.569, 315.740 598.626, 331.500 599.388 C 338.650 599.734, 352.375 600.453, 362 600.987 C 371.625 601.520, 390.075 602.439, 403 603.029 C 415.925 603.619, 437.750 604.743, 451.500 605.527 C 498.835 608.225, 519.217 609.131, 520.608 608.597 C 521.798 608.140, 521.966 563.891, 521.752 307.781 L 521.500 7.500 519 7.335 C 517.625 7.245, 512.450 7.756, 507.500 8.472 M 527.015 307.831 C 527.041 495.044, 527.414 609.138, 527.999 609.500 C 529.485 610.418, 534.517 607.377, 536.602 604.301 C 538.448 601.577, 538.514 595.594, 539 387.500 L 539.500 173.500 541.750 173.180 C 543.370 172.950, 544.006 173.370, 544.022 174.680 C 544.034 175.681, 544.146 272.575, 544.272 390 C 544.494 597.728, 544.449 603.575, 542.615 606.281 C 540.353 609.617, 540.878 610.405, 544.788 609.547 C 549.821 608.441, 552.994 604.098, 554.037 596.886 C 555.206 588.795, 555.237 23.178, 554.068 17.127 C 553.175 12.503, 549.619 8.679, 545.132 7.516 C 541.918 6.684, 541.732 7.114, 543.487 11.314 C 545.249 15.532, 545.408 35.343, 544.336 116.750 L 543.673 167 541.337 167 L 539 167 539 93.125 C 539 52.494, 538.732 17.910, 538.404 16.271 C 537.543 11.963, 533.996 8.099, 530.236 7.374 L 526.972 6.744 527.015 307.831 M 479 18.037 C 472.125 19.015, 461.325 20.527, 455 21.399 C 448.675 22.270, 435.400 24.109, 425.500 25.486 C 415.600 26.864, 400.075 28.906, 391 30.025 C 365.206 33.207, 346.589 36.102, 345.550 37.093 C 344.950 37.666, 344.957 38.357, 345.569 38.969 C 346.560 39.960, 379.040 36.443, 414 31.558 C 423.625 30.214, 433.975 28.823, 437 28.469 C 440.025 28.114, 451.725 26.500, 463 24.882 C 498.900 19.730, 498.624 19.754, 501.962 21.480 C 503.600 22.327, 505.381 23.843, 505.919 24.848 C 506.457 25.854, 507.033 35.712, 507.199 46.757 C 507.364 57.801, 507.818 67.154, 508.207 67.542 C 508.596 67.930, 509.633 67.971, 510.511 67.634 C 511.920 67.093, 512.073 64.422, 511.804 44.932 L 511.500 22.843 507.765 19.421 C 504.294 16.243, 503.585 16.009, 497.765 16.130 C 494.319 16.202, 485.875 17.060, 479 18.037 M 404.500 38.125 C 388.550 40.154, 371.603 42.125, 366.841 42.506 C 359.609 43.084, 358.102 43.502, 357.700 45.041 C 357.027 47.613, 357.773 48.047, 361.904 47.487 C 363.882 47.219, 377.200 45.645, 391.500 43.989 C 435.376 38.909, 436.190 38.751, 434.304 35.726 C 433.660 34.693, 427.743 35.169, 404.500 38.125 M 436.667 34.667 C 434.965 36.368, 436.118 38.119, 438.741 37.816 C 442.343 37.401, 443.233 34, 439.740 34 C 438.416 34, 437.033 34.300, 436.667 34.667 M 333.683 37.650 C 332.618 38.715, 332.881 42, 334.031 42 C 335.510 42, 336.441 39.041, 335.316 37.916 C 334.794 37.394, 334.059 37.274, 333.683 37.650 M 347.992 46.015 C 347.151 47.587, 347.240 48.155, 348.398 48.599 C 351.031 49.610, 353.492 48.539, 353.820 46.240 C 354.078 44.425, 353.658 44, 351.605 44 C 350.088 44, 348.638 44.809, 347.992 46.015 M 328.134 47.158 C 320.546 48.243, 316.641 50.092, 314.259 53.727 C 312.606 56.250, 312.500 63.408, 312.500 172.956 C 312.500 288.833, 312.511 289.500, 314.500 289.500 C 316.486 289.500, 316.504 288.667, 317 173.500 C 317.275 109.700, 317.870 56.754, 318.322 55.842 C 319.408 53.651, 323.219 52.242, 330.250 51.432 C 335.457 50.832, 336 50.545, 336 48.385 C 336 47.073, 335.663 46.056, 335.250 46.123 C 334.837 46.191, 331.635 46.657, 328.134 47.158 M 40.418 62.969 C 38.067 63.920, 33.034 69.542, 32.935 71.327 C 32.900 71.972, 32.862 96.483, 32.851 125.796 C 32.828 185.749, 32.410 182.463, 40.449 185.534 C 48.792 188.720, 56.774 185.073, 59.001 177.057 C 60.413 171.974, 60.314 77.672, 58.891 72.547 C 58.288 70.373, 56.310 67.110, 54.497 65.297 C 51.745 62.545, 50.481 62.010, 46.850 62.063 C 44.458 62.098, 41.563 62.506, 40.418 62.969 M 379.694 67.639 C 378.267 69.066, 380.389 70, 385.059 70 C 388.784 70, 390 69.631, 390 68.500 C 390 67.374, 388.796 67, 385.167 67 C 382.508 67, 380.046 67.288, 379.694 67.639 M 42.441 69.451 C 40.529 70.879, 40.532 70.924, 42.612 72.411 C 46.998 75.546, 47.104 76.993, 46.794 129.814 C 46.482 182.991, 46.444 182.556, 51 178 C 52.947 176.053, 53 174.667, 53 126.149 C 53 92.331, 52.645 75.279, 51.895 73.128 C 50.198 68.261, 46.144 66.684, 42.441 69.451 M 38.166 79.060 C 38.350 80.316, 39.100 81.541, 39.834 81.783 C 40.741 82.082, 41.061 81.491, 40.834 79.940 C 40.650 78.684, 39.900 77.459, 39.166 77.217 C 38.259 76.918, 37.939 77.509, 38.166 79.060 M 380.667 78.667 C 380.300 79.033, 380 81.903, 380 85.045 C 380 90.858, 378.050 97.095, 375.245 100.250 C 373.775 101.904, 374.248 102, 383.845 102 C 389.430 102, 394 101.757, 394 101.460 C 394 101.162, 392.988 99.550, 391.750 97.877 C 389.931 95.416, 389.433 93.223, 389.147 86.417 L 388.795 78 385.064 78 C 383.012 78, 381.033 78.300, 380.667 78.667 M 508.065 82.878 C 507.313 84.284, 507.070 142.169, 507.247 277.689 C 507.499 469.749, 507.508 470.500, 509.500 470.500 C 511.493 470.500, 511.500 469.833, 511.500 276.083 C 511.500 127.377, 511.222 81.574, 510.318 81.273 C 509.667 81.056, 508.654 81.778, 508.065 82.878 M 339 85.500 C 339 86.633, 340.222 87, 344 87 C 347.778 87, 349 86.633, 349 85.500 C 349 84.367, 347.778 84, 344 84 C 340.222 84, 339 84.367, 339 85.500 M 38.710 87.623 C 37.602 88.731, 37.866 165.799, 38.980 166.488 C 39.667 166.912, 40 154.036, 40 127.059 C 40 105.027, 39.850 87, 39.667 87 C 39.483 87, 39.053 87.281, 38.710 87.623 M 277.792 173.250 C 277.631 220.688, 277.661 260.063, 277.857 260.750 C 278.362 262.519, 280.670 262.302, 281.393 260.418 C 282.186 258.351, 282.186 90.649, 281.393 88.582 C 281.059 87.712, 280.178 87, 279.435 87 C 278.313 87, 278.034 101.616, 277.792 173.250 M 460.564 90.329 C 459.315 91.243, 458.908 92.319, 459.364 93.506 C 460 95.165, 461.168 95.248, 474.744 94.607 C 488.976 93.934, 491.528 93.275, 490.652 90.500 C 490.123 88.826, 462.832 88.671, 460.564 90.329 M 340.724 102.250 C 340.339 108.270, 339.348 112.610, 337.058 118.304 C 335.332 122.597, 333.546 128.109, 333.089 130.554 L 332.258 135 344.129 135 C 350.658 135, 356 134.616, 356 134.147 C 356 133.678, 353.975 127.409, 351.500 120.217 C 347.950 109.901, 347 105.752, 347 100.570 C 347 94, 347 94, 344.125 94 L 341.251 94 340.724 102.250 M 467.500 102.525 C 462.631 105.525, 461.615 105.577, 459.164 102.946 C 457.396 101.048, 457.127 101.015, 455.621 102.522 C 454.258 103.885, 454.002 106.515, 454.061 118.599 L 454.131 133.046 471.816 132.773 L 489.500 132.500 489.500 130 L 489.500 127.500 473.250 127.225 C 464.313 127.074, 457 126.567, 457 126.098 C 457 123.450, 460.807 122.613, 475.321 122.069 L 490.500 121.500 490.500 119.074 C 490.500 116.720, 490.299 116.656, 483.696 116.895 C 479.954 117.031, 472.809 116.822, 467.819 116.432 C 460.516 115.861, 459.112 115.506, 460.623 114.616 C 461.747 113.953, 468.011 113.508, 476.248 113.505 L 489.996 113.500 490.575 110.433 C 490.893 108.746, 491.007 105.821, 490.827 103.933 C 490.529 100.805, 490.206 100.491, 487.194 100.400 C 485.357 100.344, 482.843 101.122, 481.536 102.150 C 478.488 104.548, 475.243 104.502, 473.160 102.030 C 471.516 100.079, 471.462 100.084, 467.500 102.525 M 373.398 107.976 C 370.929 108.974, 370 113.940, 370 126.140 L 370 134 384 134 L 398 134 398 121.117 C 398 108.601, 397.936 108.216, 395.750 107.630 C 392.417 106.737, 375.828 106.994, 373.398 107.976 M 415.219 109.694 C 412.980 110.139, 412.943 110.365, 413.219 121.824 L 413.500 133.500 421 133.816 C 425.125 133.990, 430.876 133.844, 433.781 133.490 L 439.062 132.848 438.781 121.174 L 438.500 109.500 428 109.370 C 422.225 109.299, 416.474 109.445, 415.219 109.694 M 373.937 115.063 C 371.109 117.891, 372.602 119.275, 377.040 117.941 C 379.033 117.342, 383.610 117.173, 387.832 117.543 C 395.101 118.180, 395.161 118.166, 394.832 115.843 C 394.515 113.604, 394.091 113.487, 385.287 113.213 C 376.997 112.955, 375.860 113.140, 373.937 115.063 M 462.250 138.722 C 454.250 139.070, 454 139.155, 454 141.540 L 454 144 468.875 144 C 487.216 144, 490 143.539, 490 140.498 C 490 138.313, 489.714 138.248, 480.250 138.304 C 474.887 138.336, 466.788 138.524, 462.250 138.722 M 414.250 139.662 C 413.563 139.940, 413 141.254, 413 142.583 C 413 144.966, 413.132 145, 422.250 144.989 C 435.813 144.973, 439 144.284, 439 141.369 C 439 139.007, 438.966 139, 427.250 139.079 C 420.788 139.122, 414.938 139.385, 414.250 139.662 M 445.667 139.667 C 444.629 140.704, 444.883 144, 446 144 C 446.550 144, 447 142.875, 447 141.500 C 447 138.882, 446.769 138.564, 445.667 139.667 M 330.145 141.126 C 328.564 141.722, 327.989 142.530, 328.395 143.588 C 328.728 144.455, 329 145.505, 329 145.923 C 329 146.981, 337.934 147.223, 347.750 146.430 L 356 145.763 356 142.836 L 356 139.909 344.250 140.074 C 337.788 140.165, 331.440 140.639, 330.145 141.126 M 370.362 141.500 C 368.824 145.508, 370.368 146, 384.469 146 L 398 146 398 143 L 398 140 384.469 140 C 373.363 140, 370.834 140.269, 370.362 141.500 M 404.639 140.694 C 403.403 141.930, 404.017 145, 405.500 145 C 406.325 145, 407 144.127, 407 143.059 C 407 140.972, 405.682 139.651, 404.639 140.694 M 362 143 C 362 144.100, 362.450 145, 363 145 C 363.550 145, 364 144.100, 364 143 C 364 141.900, 363.550 141, 363 141 C 362.450 141, 362 141.900, 362 143 M 463 150.062 C 452.825 150.503, 417.979 151.338, 385.564 151.918 C 352.945 152.502, 326.220 153.380, 325.714 153.886 C 325.212 154.388, 325.095 155.722, 325.453 156.852 C 326.101 158.894, 326.336 158.902, 372.802 158.336 C 398.486 158.023, 435.475 157.482, 455 157.134 L 490.500 156.500 490.500 153 C 490.500 149.536, 490.453 149.499, 486 149.381 C 483.525 149.315, 473.175 149.622, 463 150.062 M 38.429 173.429 C 38.041 174.974, 38.209 176.609, 38.818 177.218 C 39.580 177.980, 40.086 177.504, 40.571 175.571 C 40.959 174.026, 40.791 172.391, 40.182 171.782 C 39.420 171.020, 38.914 171.496, 38.429 173.429 M 349.176 197.698 C 349.452 199.144, 350.668 199.560, 355.343 199.802 C 360.500 200.070, 361.128 199.899, 360.824 198.302 C 360.548 196.856, 359.332 196.440, 354.657 196.198 C 349.500 195.930, 348.872 196.101, 349.176 197.698 M 451.730 199.697 C 451.481 200.139, 450.981 201.735, 450.621 203.244 C 450.260 204.753, 449.437 205.878, 448.792 205.744 C 446.625 205.293, 446.689 209.106, 448.857 209.673 C 449.974 209.965, 451.025 211.135, 451.194 212.274 C 451.682 215.575, 453.935 215.486, 455.108 212.119 C 455.695 210.436, 456.473 209.099, 456.838 209.148 C 460.656 209.662, 461.181 206.495, 457.552 204.842 C 456.205 204.228, 454.967 202.810, 454.802 201.691 C 454.488 199.576, 452.520 198.299, 451.730 199.697 M 192.773 206.555 C 178.096 210.113, 163.121 222.162, 153.316 238.302 C 150.892 242.294, 149.314 243.951, 148.307 243.564 C 147.498 243.254, 146.648 243, 146.418 243 C 145.135 243, 146.469 238.714, 149.510 233.070 C 151.415 229.534, 152.790 226.457, 152.565 226.231 C 151.734 225.401, 137.886 228.074, 132.957 230.017 C 117.397 236.150, 103.656 249.731, 97.561 265 C 95.216 270.874, 94.368 285.195, 95.969 291.869 C 96.646 294.691, 97.398 297, 97.640 297 C 97.883 297, 99.370 296.047, 100.945 294.882 C 106.405 290.845, 107.998 295.624, 102.819 300.503 C 98.610 304.467, 91.368 314.353, 88.429 320.147 C 82.616 331.603, 81.607 348.215, 85.967 360.668 C 91.738 377.149, 107.429 391.296, 124.037 394.991 C 132.769 396.934, 145.406 395.968, 152.120 392.844 C 158.956 389.664, 165.246 384.142, 168.650 378.334 C 170.314 375.495, 171.885 374, 173.206 374 C 174.985 374, 175.142 374.430, 174.537 377.654 L 173.852 381.308 181.759 380.698 C 201.612 379.167, 218.490 367.757, 226.823 350.233 L 230.500 342.500 230.443 324.750 C 230.390 308.451, 230.529 307, 232.146 307 C 233.804 307, 235.979 312.043, 235.994 315.924 C 236.012 320.411, 248 303.544, 254.205 290.304 C 262.154 273.340, 264.613 254.135, 260.580 240.500 C 255.625 223.746, 241.475 210.682, 223.760 206.506 C 216.012 204.679, 200.410 204.704, 192.773 206.555 M 350 206 C 350 206.550, 351.998 207, 354.441 207 C 356.884 207, 359.160 206.550, 359.500 206 C 359.881 205.384, 358.177 205, 355.059 205 C 352.277 205, 350 205.450, 350 206 M 401 208.854 C 401 210.586, 401.973 210.809, 411.250 211.204 C 422.533 211.684, 426.500 211.092, 426.500 208.928 C 426.500 207.780, 424.001 207.445, 413.750 207.220 C 401.761 206.957, 401 207.054, 401 208.854 M 349.994 214.250 C 349.985 219.935, 348.205 224.194, 340.524 236.918 C 336.401 243.748, 332.770 250.723, 332.456 252.418 C 332.142 254.113, 332.023 258.650, 332.192 262.500 L 332.500 269.500 349 269.546 C 358.075 269.571, 368.047 269.419, 371.159 269.209 L 376.819 268.825 377.214 263.663 C 377.938 254.229, 376.044 248.455, 368.006 235.579 C 361.152 224.598, 360.543 223.179, 360.170 217.336 L 359.767 211 354.884 211 C 350.042 211, 350 211.028, 349.994 214.250 M 409.366 217.711 L 404.233 218.096 401.876 224.298 C 400.580 227.709, 399.365 230.838, 399.177 231.250 C 398.988 231.662, 405.634 232, 413.947 232 L 429.060 232 427.019 229.239 C 425.896 227.720, 424.635 224.458, 424.216 221.989 L 423.454 217.500 418.977 217.413 C 416.515 217.365, 412.190 217.499, 409.366 217.711 M 41.583 226.437 C 39.429 227.230, 36.537 229.009, 35.156 230.390 L 32.645 232.900 32.515 289.200 C 32.413 333.191, 32.665 346.080, 33.668 348.153 C 35.599 352.146, 40.935 355, 46.468 355 C 50.487 355, 51.697 354.503, 54.497 351.703 C 56.310 349.890, 58.288 346.627, 58.891 344.453 C 59.623 341.817, 59.991 323.084, 59.994 288.218 C 60 231.743, 59.933 230.968, 54.689 227.532 C 51.125 225.197, 46.093 224.776, 41.583 226.437 M 451.585 232.190 C 447.424 235.621, 447.324 236.224, 450 241.764 C 451.100 244.041, 452 246.375, 452 246.952 C 452 248.161, 483.837 248.430, 485.558 247.235 C 488.118 245.457, 490 241.239, 490 237.277 L 490 233 485 233 C 481.412 233, 479.461 232.461, 478.090 231.090 C 476.449 229.449, 474.704 229.185, 465.676 229.208 C 455.532 229.234, 455.047 229.337, 451.585 232.190 M 47 284.353 C 47 313.148, 46.706 339.520, 46.347 342.958 L 45.693 349.210 48.713 347.648 C 50.772 346.584, 51.934 345.079, 52.366 342.918 C 52.715 341.176, 53 316.251, 53 287.530 C 53 238.210, 52.898 235.218, 51.171 233.655 C 50.165 232.745, 48.815 232, 48.171 232 C 47.291 232, 47 245.014, 47 284.353 M 38.178 236.919 C 37.409 239.126, 37.499 240.284, 38.549 241.669 C 39.795 243.314, 39.940 243.018, 39.968 238.750 C 40.005 233.259, 39.599 232.844, 38.178 236.919 M 394.251 240.750 C 393.118 243.330, 392.478 248.321, 392.200 256.750 L 391.794 269 395.897 269 L 400 269 400 261.135 C 400 250.912, 401.633 248.526, 409.289 247.570 C 415.244 246.826, 422.864 248.162, 424.104 250.168 C 425.468 252.375, 423.460 253.200, 419.377 252.111 C 417.188 251.527, 413.330 251.391, 410.515 251.798 C 405.647 252.503, 405.515 252.613, 404.850 256.510 C 404.476 258.705, 404.418 262.413, 404.721 264.750 L 405.272 269 414.996 269 C 420.345 269, 426.809 268.714, 429.360 268.364 L 434 267.728 434 256.384 C 434 248.293, 433.539 243.888, 432.391 241.020 L 430.783 237 413.340 237 L 395.898 237 394.251 240.750 M 467.427 240.765 C 465.152 242.323, 465.091 244.790, 467.313 245.372 C 470.357 246.168, 472.798 243.666, 471.042 241.550 C 469.609 239.824, 468.996 239.691, 467.427 240.765 M 479.200 241.200 C 477.604 242.796, 477.687 243.666, 479.500 244.362 C 481.775 245.235, 484 244.014, 484 241.893 C 484 239.740, 481.081 239.319, 479.200 241.200 M 459.526 241.959 C 459.112 242.627, 459.268 243.668, 459.870 244.270 C 461.407 245.807, 462.380 244.501, 461.230 242.447 C 460.530 241.196, 460.077 241.067, 459.526 241.959 M 38 291.500 C 38 319.833, 38.349 335, 39 335 C 39.651 335, 40 319.833, 40 291.500 C 40 263.167, 39.651 248, 39 248 C 38.349 248, 38 263.167, 38 291.500 M 561.341 250.445 C 561.703 251.390, 562 253.927, 562 256.082 C 562 260.367, 563.442 261.358, 564.360 257.704 C 565.111 254.708, 563.761 249.754, 562.036 249.179 C 561.103 248.868, 560.886 249.261, 561.341 250.445 M 163 252.351 C 139.831 260.579, 119.996 280.008, 110.932 303.350 C 107.477 312.249, 106.087 322.997, 108.168 324.724 C 110.557 326.707, 111.830 324.742, 113.511 316.475 C 118.780 290.558, 140.850 266.481, 168.500 256.487 C 174.242 254.412, 176.529 252.665, 175.559 251.096 C 174.505 249.390, 170.097 249.830, 163 252.351 M 342.250 253.678 C 337.930 254.122, 336.445 256.190, 339.582 257.393 C 340.452 257.727, 347.566 258, 355.391 258 C 365.742 258, 370.120 257.633, 371.460 256.653 C 372.980 255.541, 373.058 255.154, 371.903 254.440 C 370.392 253.506, 349.208 252.961, 342.250 253.678 M 452.542 254.750 C 452.169 255.723, 456.284 256, 471.115 256 C 483.940 256, 490.053 255.658, 489.818 254.953 C 489.277 253.330, 453.163 253.133, 452.542 254.750 M 338.500 263 C 336.997 265.433, 339.734 266, 352.977 266 C 367.624 266, 370 265.636, 370 263.393 C 370 262.262, 367.091 262, 354.559 262 C 345.344 262, 338.869 262.403, 338.500 263 M 450 264 C 450 265.933, 450.667 266, 470 266 C 489.333 266, 490 265.933, 490 264 C 490 262.067, 489.333 262, 470 262 C 450.667 262, 450 262.067, 450 264 M 266.034 277.250 C 264.747 281.788, 262.413 288.375, 260.847 291.889 C 257.375 299.679, 248.589 312.857, 242.675 319.146 L 238.306 323.792 237.741 333.146 C 236.373 355.780, 223.041 374.318, 201.838 383.069 C 193.206 386.633, 188.435 387.798, 177.235 389.079 C 169.707 389.941, 168.460 390.411, 163.235 394.364 C 160.081 396.750, 155.736 399.337, 153.580 400.113 C 151.423 400.888, 149.503 401.991, 149.312 402.564 C 148.796 404.112, 154.633 412.489, 160.231 418.237 L 165.149 423.286 173.881 422.721 C 190.116 421.669, 204.390 416.471, 221.173 405.499 C 248.338 387.740, 279.722 345.393, 290.837 311.500 C 296.038 295.640, 296.115 296.330, 288.154 287.321 C 284.353 283.019, 278.826 277.484, 275.872 275.019 C 272.917 272.555, 270.350 270.192, 270.167 269.769 C 269.274 267.709, 268.175 269.699, 266.034 277.250 M 452.750 271.689 C 451.382 272.047, 451 273.222, 451 277.073 L 451 282 470.500 282 L 490 282 490 276.500 L 490 271 472.250 271.116 C 462.488 271.180, 453.712 271.438, 452.750 271.689 M 390.467 275.010 C 388.835 275.290, 387.545 276.078, 387.600 276.760 C 387.655 277.442, 387.767 278.900, 387.850 280 C 387.982 281.761, 388.717 282, 394 282 L 400 282 400 278.001 C 400 274.096, 399.922 274.007, 396.717 274.251 C 394.911 274.388, 392.099 274.729, 390.467 275.010 M 405 278 L 405 282 419.500 282 L 434 282 434 278 L 434 274 419.500 274 L 405 274 405 278 M 440.190 277.750 C 440.436 280.730, 440.911 281.500, 442.500 281.500 C 444.089 281.500, 444.564 280.730, 444.810 277.750 C 445.097 274.292, 444.917 274, 442.500 274 C 440.083 274, 439.903 274.292, 440.190 277.750 M 328.250 275.723 C 325.413 276.076, 325 276.500, 325 279.063 L 325 282 352.500 282 L 380 282 380 278.500 L 380 275 355.750 275.160 C 342.413 275.248, 330.038 275.502, 328.250 275.723 M 327.003 290.491 C 324.929 295.947, 325.165 296.001, 350.857 295.986 C 363.861 295.979, 375.512 295.701, 376.750 295.370 C 378.521 294.895, 379 294.047, 379 291.383 L 379 288 353.475 288 L 327.950 288 327.003 290.491 M 387 291 L 387 294 417.250 293.998 C 433.887 293.996, 457.288 293.700, 469.250 293.338 L 491 292.681 491 290.341 L 491 288 439 288 L 387 288 387 291 M 450.750 315.689 C 449.788 315.941, 449 317.014, 449 318.073 C 449 319.876, 449.830 320, 461.893 320 C 471.924 320, 474.903 319.694, 475.315 318.622 C 476.405 315.780, 473.673 314.999, 463.050 315.116 C 457.248 315.180, 451.712 315.438, 450.750 315.689 M 331.547 318.250 C 331.332 318.938, 330.894 321.090, 330.573 323.032 C 330.114 325.818, 329.337 326.812, 326.896 327.733 C 323.261 329.105, 323.470 331.359, 327.275 331.811 C 329.546 332.081, 329.986 332.723, 330.569 336.611 C 331.080 340.017, 331.635 341.026, 332.871 340.791 C 334.004 340.577, 334.593 339.211, 334.805 336.303 C 335.074 332.601, 335.417 332.087, 337.796 331.811 C 341.793 331.348, 341.994 328.149, 338.075 327.365 C 335.389 326.828, 335 326.334, 335 323.457 C 335 319.568, 334.149 317, 332.862 317 C 332.353 317, 331.761 317.563, 331.547 318.250 M 452 327.500 C 452 328.733, 453.778 329, 462 329 C 470.222 329, 472 328.733, 472 327.500 C 472 326.267, 470.222 326, 462 326 C 453.778 326, 452 326.267, 452 327.500 M 290.057 331.329 C 288.680 335.501, 280.139 350.604, 274.761 358.376 L 270.696 364.252 272.353 368.876 C 273.264 371.419, 274.008 375.621, 274.005 378.212 L 274 382.925 267.695 382.336 C 256.569 381.297, 251.353 386.188, 252.236 396.832 C 252.820 403.879, 256.776 408, 262.957 408 C 265.116 408, 267.160 407.550, 267.500 407 C 268.471 405.429, 271 405.831, 271 407.556 C 271 408.412, 269.706 410.325, 268.124 411.806 C 265.778 414.003, 265.125 415.640, 264.582 420.685 L 263.915 426.870 271.208 424.818 C 279.942 422.361, 288.874 418.367, 294.962 414.197 C 302.833 408.805, 311.905 398.914, 315.305 392.018 C 318.285 385.971, 318.500 384.827, 318.500 375.018 C 318.500 365.799, 318.191 363.883, 316 359.500 C 313.910 355.321, 312.528 354.004, 307.582 351.477 C 300.994 348.111, 297.537 343.643, 293.866 333.750 C 292.692 330.587, 291.602 328, 291.444 328 C 291.285 328, 290.661 329.498, 290.057 331.329 M 357 336.921 C 357 339.142, 357.641 342.656, 358.424 344.730 C 359.207 346.803, 360.143 350.697, 360.505 353.382 C 361.569 361.287, 362.862 363.422, 362.937 357.399 C 362.971 354.594, 363.479 350.925, 364.064 349.247 C 364.982 346.612, 364.713 345.374, 362.086 340.171 C 358.219 332.510, 357 331.731, 357 336.921 M 452.711 338.117 C 452.402 340.422, 450.564 345.388, 448.627 349.154 L 445.106 356 461.553 356 C 470.599 356, 477.995 355.663, 477.988 355.250 C 477.981 354.837, 476.782 352.475, 475.322 350 C 473.862 347.525, 472.145 343.025, 471.507 340 L 470.347 334.500 461.810 334.213 L 453.273 333.926 452.711 338.117 M 402 337 C 402 338.982, 402.456 339.054, 413.250 338.783 C 422.458 338.551, 424.500 338.228, 424.500 337 C 424.500 335.772, 422.458 335.449, 413.250 335.217 C 402.456 334.946, 402 335.018, 402 337 M 377.794 340.750 C 374.051 345.070, 371 351.845, 371 355.838 C 371 358.127, 371.341 360, 371.757 360 C 372.501 360, 377.867 351.945, 379.085 349 C 380.249 346.187, 381.026 339, 380.167 339 C 379.696 339, 378.628 339.788, 377.794 340.750 M 38.336 342.567 C 38.005 343.429, 38.244 344.644, 38.867 345.267 C 39.694 346.094, 40 346.097, 40 345.282 C 40 344.667, 40.273 343.452, 40.607 342.582 C 40.941 341.710, 40.703 341, 40.076 341 C 39.449 341, 38.667 341.705, 38.336 342.567 M 405.667 345.667 C 405.300 346.033, 405 348.457, 405 351.052 C 405 354.764, 403.880 357.979, 399.750 366.119 L 394.500 376.467 394.509 390.659 C 394.514 398.465, 394.739 405.066, 395.009 405.328 C 395.279 405.590, 403.825 405.958, 414 406.146 L 432.500 406.487 432.500 392.994 L 432.500 379.500 419 379.321 C 411.575 379.222, 404.277 379.384, 402.782 379.681 L 400.063 380.221 399.782 391.361 C 399.551 400.470, 399.227 402.500, 398 402.500 C 396.765 402.500, 396.451 400.368, 396.221 390.432 C 395.840 373.969, 395.220 374.476, 415.610 374.575 C 426.348 374.627, 431 374.310, 431 373.529 C 431 372.913, 428.975 368.473, 426.500 363.664 C 422.947 356.759, 422 353.874, 422 349.959 L 422 345 414.167 345 C 409.858 345, 406.033 345.300, 405.667 345.667 M 375.789 347.526 C 375.480 348.612, 374.922 350.400, 374.550 351.500 C 374.177 352.600, 374.605 352.236, 375.500 350.690 C 376.395 349.145, 376.952 347.356, 376.739 346.716 C 376.525 346.075, 376.098 346.440, 375.789 347.526 M 297.655 352.829 C 295.532 355.175, 295.593 357.508, 297.914 362.617 C 300.983 369.376, 307.089 372.302, 308.624 367.750 C 310.022 363.607, 308.442 359.581, 303.131 353.750 C 300.169 350.498, 299.818 350.439, 297.655 352.829 M 344 359.365 C 344 360.494, 349.732 363.802, 352.868 364.481 C 357.413 365.466, 356.689 363.112, 351.944 361.474 C 345.618 359.291, 344 358.862, 344 359.365 M 456.865 360.777 L 443.229 361.055 442.052 365.277 C 440.480 370.915, 439.551 403.018, 440.903 405 C 441.733 406.217, 445.334 406.566, 460.005 406.848 C 469.948 407.039, 479.190 406.918, 480.542 406.579 C 482.992 405.964, 483 405.922, 482.992 393.231 C 482.983 380.104, 481.468 363.013, 480.212 361.884 C 479.056 360.845, 471.399 360.482, 456.865 360.777 M 379 363.157 C 374.971 365.632, 375.921 366.401, 381.562 365.229 C 384.040 364.714, 385.611 363.783, 385.818 362.706 C 386.277 360.325, 383.289 360.523, 379 363.157 M 457.256 368.924 C 453.350 369.912, 451 371.717, 451 373.729 C 451 374.775, 451.518 374.982, 452.750 374.431 C 453.712 374.001, 458.550 373.462, 463.500 373.235 C 472.788 372.808, 474.430 372.314, 473.197 370.318 C 472.264 368.809, 461.449 367.864, 457.256 368.924 M 444.872 370.653 C 443.858 371.876, 443.500 375.846, 443.500 385.883 C 443.500 398.015, 443.686 399.496, 445.250 399.803 C 446.820 400.111, 447.002 399.136, 447.024 390.323 C 447.046 381.398, 447.495 378.007, 449.549 371.250 C 450.099 369.440, 449.843 369, 448.239 369 C 447.142 369, 445.627 369.744, 444.872 370.653 M 325.733 377.750 C 325.428 382.012, 324.866 386.288, 324.483 387.250 C 323.862 388.808, 324.496 389, 330.259 389 L 336.731 389 337.248 381.776 C 337.873 373.046, 337.673 372.430, 333.771 371.070 C 326.932 368.686, 326.345 369.174, 325.733 377.750 M 348.995 370.833 C 348.448 371.017, 348 371.579, 348 372.083 C 348 372.604, 355.639 373, 365.700 373 C 377.469 373, 383.066 372.666, 382.403 372.003 C 381.496 371.096, 351.359 370.041, 348.995 370.833 M 475.393 371.582 C 475.727 372.452, 476 378.991, 476 386.113 C 476 396.862, 476.262 399.163, 477.543 399.655 C 478.392 399.981, 479.404 399.928, 479.793 399.539 C 480.182 399.149, 480.500 393.581, 480.500 387.165 C 480.500 377.431, 480.191 375.045, 478.635 372.750 C 476.627 369.790, 474.397 368.986, 475.393 371.582 M 344 390.909 C 344 401.347, 344.305 404.162, 345.571 405.429 C 346.895 406.752, 350.290 407, 367.099 407 L 387.055 407 386.777 392.750 L 386.500 378.500 365.250 378.230 L 344 377.960 344 390.909 M 353.696 387.637 C 353.313 388.020, 353 388.933, 353 389.667 C 353 390.710, 355.846 391, 366.073 391 C 377.985 391, 379.117 390.845, 378.811 389.250 C 378.517 387.718, 376.977 387.465, 366.434 387.221 C 359.811 387.067, 354.079 387.255, 353.696 387.637 M 262.074 390.411 C 260.002 392.908, 259.625 398.444, 261.426 399.939 C 262.996 401.242, 264.368 400.803, 264.625 398.917 C 264.694 398.413, 264.806 397.132, 264.875 396.071 C 264.944 395.011, 265.675 393.468, 266.500 392.643 C 267.325 391.818, 268 390.661, 268 390.071 C 268 388.502, 263.441 388.763, 262.074 390.411 M 318.867 400.250 C 316.553 403.688, 312.487 408.662, 309.830 411.305 C 305.320 415.792, 303.764 417.882, 305.928 416.544 C 307.789 415.394, 308.233 420.729, 307.870 439.905 L 307.500 459.478 312.668 460.302 C 316.975 460.989, 318.682 460.762, 322.918 458.940 L 328 456.754 328 451.057 C 328 445.984, 328.386 444.909, 331.526 441.241 C 336.310 435.651, 344.239 431.870, 351.140 431.886 C 354.088 431.893, 358.221 431.844, 360.325 431.778 C 363.402 431.680, 364.636 432.228, 366.633 434.578 C 370.720 439.390, 374.210 447.829, 375.026 454.872 C 375.950 462.855, 378.417 469.412, 379.368 466.417 C 380.196 463.812, 387.695 456.209, 391.249 454.371 C 401.496 449.073, 404.190 461.769, 396.265 478.010 C 390.228 490.382, 388.965 496.854, 394.396 487.587 C 399.086 479.584, 407.205 476.777, 410.087 482.162 C 412.947 487.506, 410.228 496.629, 402.374 508.047 C 400.451 510.843, 399.030 513.589, 399.216 514.149 C 399.403 514.708, 401.029 512.892, 402.830 510.113 C 406.939 503.771, 412 499.560, 418.188 497.335 C 423.381 495.468, 423.805 494.913, 421.500 493 C 419.012 490.935, 419.707 487.345, 423.057 484.960 C 425.861 482.963, 425.985 482.641, 424.557 481.063 C 421.456 477.636, 422.594 474.698, 428.584 470.664 C 431.655 468.595, 434.918 467.021, 435.834 467.166 C 436.750 467.310, 439.565 466.207, 442.088 464.714 C 444.611 463.221, 447.418 462, 448.325 462 C 449.433 462, 451.519 465.271, 454.675 471.956 L 459.376 481.912 461.638 478.582 C 462.883 476.750, 464.635 474.970, 465.532 474.626 C 468.085 473.646, 473 473.892, 473 475 C 473 475.550, 474.497 476, 476.326 476 C 480.743 476, 483.681 479.245, 485.252 485.859 C 486.280 490.185, 486.833 491.026, 488.496 490.787 C 490.449 490.507, 490.507 489.661, 490.764 457.750 L 491.027 425 407.468 425 L 323.909 425 321.455 422.545 C 318.018 419.109, 318.062 413.230, 321.549 409.954 C 323.621 408.007, 325.418 407.485, 331.168 407.160 L 338.239 406.761 337.620 402.241 C 337.279 399.755, 337 396.884, 337 395.860 C 337 394.225, 336.159 394, 330.037 394 L 323.075 394 318.867 400.250 M 356.431 397.902 C 356.194 398.139, 356 398.949, 356 399.702 C 356 400.789, 358.103 401.011, 366.238 400.785 C 375.242 400.534, 376.519 400.279, 376.828 398.667 C 377.152 396.971, 376.421 396.858, 367.020 397.153 C 361.434 397.328, 356.668 397.665, 356.431 397.902 M 82 409 C 82 412.871, 81.646 414, 80.434 414 C 75.251 414, 73.829 418.613, 78.835 419.192 C 81.245 419.471, 81.548 419.978, 82 424.500 C 82.356 428.056, 82.933 429.500, 84 429.500 C 85.055 429.500, 85.648 428.079, 86 424.709 C 86.396 420.914, 87.003 419.668, 88.921 418.709 C 92.459 416.942, 92.502 415.371, 89.045 414.166 C 86.253 413.192, 86 412.726, 86 408.552 C 86 404.667, 85.707 404, 84 404 C 82.267 404, 82 404.667, 82 409 M 312.480 412.250 C 312.173 413.488, 312.052 420.125, 312.211 427 C 312.482 438.737, 312.622 439.500, 314.500 439.500 C 316.378 439.500, 316.518 438.737, 316.789 427 C 317.108 413.199, 316.677 410, 314.500 410 C 313.696 410, 312.787 411.012, 312.480 412.250 M 326.692 413.698 C 325.508 414.006, 324.990 414.918, 325.192 416.335 L 325.500 418.500 408.317 418.756 L 491.134 419.012 490.817 416.256 L 490.500 413.500 409.500 413.363 C 364.950 413.288, 327.686 413.438, 326.692 413.698 M 302.449 417.951 C 301.925 418.475, 299.078 420.226, 296.122 421.842 L 290.747 424.782 290.929 435.391 C 291.029 441.226, 290.832 446, 290.490 446 C 290.148 446, 288.998 445.534, 287.934 444.965 C 286.270 444.074, 286 442.816, 286 435.965 C 286 430.777, 285.612 428, 284.886 428 C 282.366 428, 263.962 434.351, 264.700 434.966 C 265.140 435.332, 267.525 436.501, 270 437.563 C 272.475 438.625, 279 441.905, 284.500 444.852 C 290 447.799, 295.603 450.636, 296.952 451.157 C 299.260 452.048, 299.310 451.998, 297.808 450.302 C 296.636 448.978, 296.024 445.281, 295.503 436.369 L 294.793 424.238 299.397 421.071 C 301.928 419.329, 304 417.701, 304 417.452 C 304 416.749, 303.486 416.914, 302.449 417.951 M 224.966 441.192 C 221.333 445.713, 215.942 449.338, 210.369 451.007 C 205.218 452.551, 199.081 450.970, 195.288 447.121 L 192.509 444.301 188.819 447.266 C 186.377 449.228, 183.582 450.405, 180.556 450.747 C 176.312 451.225, 175.740 451.004, 172.600 447.675 L 169.218 444.088 159.760 453.794 C 154.558 459.132, 148.455 465.553, 146.197 468.062 L 142.093 472.623 143.885 475.562 C 148.238 482.700, 166.867 496.667, 168.960 494.361 C 169.389 493.887, 170.956 487.425, 172.440 480 C 176.099 461.707, 177.662 457, 180.080 457 C 181.136 457, 182 457.185, 182 457.412 C 182 457.639, 181.333 461.311, 180.518 465.572 C 179.113 472.911, 177.635 484.032, 174.635 509.837 L 173.316 521.174 219.408 520.443 C 244.759 520.041, 267.576 519.440, 270.113 519.106 L 274.726 518.500 272.335 508 C 267.652 487.428, 267.419 479, 271.535 479 C 272.644 479, 273 480.334, 273 484.483 L 273 489.966 277.901 492.450 L 282.801 494.933 284.474 488.107 C 285.394 484.353, 288.567 476.262, 291.526 470.127 L 296.905 458.973 288.203 454.564 C 283.416 452.140, 277.250 448.998, 274.500 447.582 C 271.750 446.167, 269.046 445.006, 268.491 445.004 C 266.812 444.997, 264.772 449.056, 261.986 457.943 C 260.530 462.587, 258.744 466.585, 258.016 466.828 C 255.729 467.590, 257.685 456.205, 261.015 449.377 C 262.657 446.010, 264 443.025, 264 442.743 C 264 441.692, 252.973 437.803, 251.762 438.428 C 251.068 438.786, 249.375 439.729, 248 440.524 C 244.276 442.679, 237.973 442.321, 232.711 439.657 L 228.083 437.314 224.966 441.192 M 343.175 440.037 C 335.741 444.565, 333.841 447.863, 334.664 454.812 L 335.264 459.877 330.534 462.877 C 322.579 467.921, 316.413 468.514, 303.817 465.446 C 301.335 464.841, 300.916 465.232, 298.233 470.646 C 294.373 478.436, 290.699 488.598, 291.200 490.100 C 291.752 491.757, 299.141 493.855, 307.134 494.626 C 321.403 496.002, 337.813 487.080, 348.048 472.381 C 350.427 468.964, 351.354 468.345, 353.487 468.753 C 357.378 469.497, 364.945 467.014, 366.631 464.440 C 370.031 459.251, 367.589 444.194, 362.693 440.153 C 361.782 439.401, 357.841 438.630, 353.780 438.408 C 347.769 438.081, 345.920 438.365, 343.175 440.037 M 313.185 444.865 C 312.335 445.404, 311.982 447.255, 312.185 450.099 C 312.445 453.728, 312.851 454.500, 314.500 454.500 C 316.229 454.500, 316.500 453.833, 316.500 449.583 C 316.500 444.623, 315.597 443.338, 313.185 444.865 M 388.228 464.250 C 383.211 471.685, 382.526 474.356, 384.029 480.622 C 385.713 487.642, 386.926 485.844, 387.317 475.747 C 387.519 470.546, 388.246 467.140, 389.786 464.187 C 392.591 458.804, 391.884 458.833, 388.228 464.250 M 393.665 460.750 C 392.493 462.691, 388.248 478, 388.882 478 C 390.181 478, 394.051 468.910, 394.668 464.408 C 395.221 460.374, 394.806 458.861, 393.665 460.750 M 443.533 470.964 C 441.820 472.856, 441.872 473.169, 444.964 479.578 C 447.190 484.195, 447.852 486.548, 447.128 487.272 C 445.712 488.688, 443.841 487.017, 438.802 479.834 C 436.552 476.625, 434.395 474, 434.010 474 C 433.625 474, 432.490 474.907, 431.487 476.015 C 429.710 477.978, 429.745 478.138, 432.843 482.265 C 434.592 484.594, 436.708 487.746, 437.546 489.268 C 438.897 491.722, 438.900 492.101, 437.570 492.611 C 436.746 492.928, 434.748 492.245, 433.131 491.093 C 429.724 488.667, 428 488.427, 428 490.378 C 428 492.568, 430.072 493.696, 436.500 495.006 C 446.742 497.093, 452.711 501.417, 459.212 511.460 C 463.013 517.330, 463.134 517.415, 467.285 517.119 C 469.603 516.954, 471.641 516.680, 471.814 516.512 C 472.132 516.202, 463.380 500.731, 458.636 493.215 C 455.201 487.774, 447 471.481, 447 470.099 C 447 468.414, 445.502 468.788, 443.533 470.964 M 368.650 471.832 C 366.874 473.797, 366.869 474.093, 368.523 479.190 C 369.470 482.110, 370.641 484.928, 371.123 485.450 C 372.159 486.572, 372.202 479.268, 371.192 473.643 C 370.504 469.808, 370.489 469.798, 368.650 471.832 M 161 472.423 C 161 474.399, 165.871 480, 167.589 480 C 169.573 480, 169.371 479.143, 166.364 474.804 C 163.714 470.980, 161 469.775, 161 472.423 M 351.828 478.677 C 350.908 480.230, 348.717 482.962, 346.959 484.750 C 344.792 486.954, 344.258 488, 345.300 488 C 348.387 488, 350.128 486.670, 352.101 482.801 C 354.557 477.988, 354.323 474.464, 351.828 478.677 M 360.201 479.750 C 360.404 480.163, 361.390 482.413, 362.393 484.750 C 363.396 487.087, 364.593 489, 365.053 489 C 365.513 489, 364.954 486.750, 363.811 484 C 362.668 481.250, 361.306 479, 360.783 479 C 360.261 479, 359.999 479.337, 360.201 479.750 M 466.120 482.035 C 464.958 483.941, 464.012 485.950, 464.017 486.500 C 464.045 489.287, 465.349 491.678, 467.312 492.540 C 469.013 493.287, 469.433 494.204, 469.198 496.660 C 469.032 498.397, 469.398 500.128, 470.011 500.507 C 471.926 501.690, 475 497.934, 475 494.411 C 475 491.578, 475.374 491.090, 477.750 490.816 C 480.156 490.540, 480.459 490.125, 480.175 487.500 C 479.687 482.994, 477.380 480.870, 474.433 482.212 C 472.415 483.132, 471.772 482.940, 470.146 480.932 L 468.233 478.569 466.120 482.035 M 508.212 482.188 C 507.293 483.107, 507 496.283, 507 536.750 C 507 595.126, 507.062 594.489, 501.178 596.926 C 498.926 597.859, 492.702 597.890, 473.880 597.063 C 460.471 596.473, 439.150 595.544, 426.500 594.999 C 413.850 594.453, 398.212 593.731, 391.750 593.393 C 380.392 592.799, 380 592.847, 380 594.818 C 380 597.315, 381.837 597.556, 411.500 598.955 C 423.050 599.499, 447.686 600.677, 466.248 601.572 C 499.243 603.162, 500.078 603.156, 503.691 601.281 C 505.724 600.226, 508.312 598.123, 509.443 596.609 C 511.462 593.906, 511.500 592.810, 511.500 537.761 C 511.500 499.902, 511.163 481.555, 510.462 481.321 C 509.892 481.131, 508.879 481.521, 508.212 482.188 M 358.667 482.667 C 357.145 484.188, 358.146 487.865, 360.500 489.408 C 363.501 491.374, 363.686 490.687, 361.056 487.344 C 359.987 485.985, 359.360 484.226, 359.663 483.436 C 360.246 481.916, 359.778 481.555, 358.667 482.667 M 139.223 491.203 C 136.161 497.429, 133.172 507.238, 131.028 518.093 C 130.407 521.237, 128.407 526.039, 126.462 529.060 C 124.104 532.719, 123 535.613, 123 538.134 C 123 542.610, 123.821 545, 125.357 545 C 125.986 545, 127.757 546.575, 129.293 548.500 C 132.505 552.526, 135.586 553.001, 139.139 550.017 L 141.500 548.035 139.202 547.388 C 135.894 546.457, 136.862 543.715, 140.968 542.383 C 142.862 541.769, 144.581 540.756, 144.789 540.133 C 145.603 537.692, 147.884 539.113, 148.187 542.250 C 148.603 546.567, 152.115 547.281, 154.562 543.546 C 156.496 540.594, 156.030 535.229, 153.354 529.617 C 151.773 526.301, 151.797 526.132, 154.212 523.528 C 156.701 520.843, 164.247 507.296, 165.395 503.452 C 165.890 501.796, 165.358 501.170, 162.615 500.178 C 158.873 498.825, 151.456 493.553, 145.910 488.304 L 142.320 484.907 139.223 491.203 M 401.406 487.695 C 400.032 489.178, 398.267 491.766, 397.483 493.445 C 395.569 497.546, 392.029 509.069, 392.013 511.250 C 391.992 514.065, 393.698 513.261, 394.317 510.164 C 394.629 508.604, 396.505 505.388, 398.485 503.018 C 400.466 500.647, 402.465 497.986, 402.928 497.104 C 404.035 494.994, 405.371 485, 404.546 485 C 404.193 485, 402.780 486.213, 401.406 487.695 M 376.514 487.956 C 375.654 490.665, 376.827 496.468, 379.571 503.087 C 380.845 506.159, 382.046 509.855, 382.239 511.299 C 382.817 515.613, 383.798 515.464, 385.033 510.876 C 386.688 504.733, 385.462 497.568, 381.689 491.330 C 378.183 485.532, 377.437 485.046, 376.514 487.956 M 400.068 492.904 C 398.931 494.502, 398.010 496.639, 398.022 497.654 C 398.041 499.233, 398.320 499.141, 399.949 497.021 C 401.583 494.895, 403.312 490, 402.429 490 C 402.268 490, 401.206 491.307, 400.068 492.904 M 346.500 494.004 C 339.632 495.044, 338.272 496.366, 335.942 504.265 C 333.086 513.946, 329.890 520.139, 324.490 526.460 C 320.220 531.458, 320 532.019, 320 537.902 L 320 544.088 327.203 543.794 L 334.406 543.500 335.550 535.474 C 336.850 526.350, 339.122 520.836, 342.762 517.973 C 350.405 511.961, 356.466 519.458, 357.738 536.500 L 358.336 544.500 359.751 541 C 360.529 539.075, 362.508 535.389, 364.149 532.809 C 366.976 528.365, 367.099 527.734, 366.498 520.809 C 365.612 510.622, 364.070 502.897, 362.394 500.264 C 359.385 495.532, 353.002 493.018, 346.500 494.004 M 480.467 497.317 C 480.059 498.329, 480.229 499.629, 480.851 500.251 C 482.497 501.897, 483.176 500.637, 482.122 497.895 C 481.293 495.741, 481.127 495.683, 480.467 497.317 M 318.283 508.107 C 312.352 514.217, 306.469 519.612, 305.210 520.098 C 303.277 520.843, 303.089 521.298, 304.006 523.011 C 305.261 525.357, 304.565 527, 302.316 527 C 299.186 527, 301.794 520.774, 307.340 515.005 C 314.817 507.227, 319.209 501.876, 318.609 501.276 C 317.602 500.268, 298.104 519.262, 297.055 522.273 C 294.622 529.251, 297.201 534, 303.422 534 C 310.419 534, 324.006 519.836, 327.791 508.598 C 330.585 500.301, 331.229 497, 330.052 497 C 329.509 497, 324.213 501.998, 318.283 508.107 M 487 498.500 C 487 499.325, 487.402 500, 487.893 500 C 488.384 500, 489.045 499.325, 489.362 498.500 C 489.712 497.586, 489.363 497, 488.469 497 C 487.661 497, 487 497.675, 487 498.500 M 278.503 505.219 C 279.202 508.674, 280.082 513.252, 280.459 515.392 C 281.031 518.644, 281.357 519.055, 282.441 517.892 C 284.415 515.773, 286 510.195, 286 505.370 C 286 501.459, 285.733 500.979, 283.250 500.426 C 281.738 500.090, 279.765 499.617, 278.866 499.376 C 277.383 498.979, 277.349 499.522, 278.503 505.219 M 291.793 507.250 C 291.309 514.701, 289.501 519.499, 285.770 523.230 L 283.646 525.354 285.983 539.427 C 287.595 549.133, 288.506 559.706, 288.918 573.500 C 289.337 587.510, 289.767 592.452, 290.356 590 C 291.780 584.069, 293.634 582, 297.523 582 L 301 582 301 561 C 301 542.786, 300.796 540, 299.465 540 C 298.620 540, 296.797 539.258, 295.414 538.352 C 289.203 534.282, 288.102 524.385, 293 516.661 C 295.469 512.767, 296 510.875, 296 505.965 C 296 500.807, 295.747 500, 294.132 500 C 292.522 500, 292.198 501.005, 291.793 507.250 M 418.383 503.402 C 413.001 505.908, 409.084 510.161, 406.531 516.272 C 404.476 521.191, 404.585 521.802, 407.425 521.259 C 411.407 520.498, 416.179 522.732, 421.856 528.016 C 428.084 533.811, 431.215 534.418, 433.372 530.248 C 436.108 524.956, 438.696 523.481, 444.853 523.703 C 449.708 523.877, 450.864 523.546, 453.194 521.314 L 455.899 518.723 453.984 514.969 C 451.844 510.774, 445.499 504.939, 440.494 502.564 C 435.315 500.107, 424.587 500.513, 418.383 503.402 M 474.503 505.500 C 475.297 509.229, 477 511.201, 477 508.391 C 477 507.286, 476.294 505.509, 475.432 504.441 C 473.941 502.596, 473.895 502.648, 474.503 505.500 M 371.365 506 C 371.716 507.375, 372.552 512.442, 373.224 517.259 C 373.935 522.359, 374.874 525.866, 375.472 525.654 C 377.466 524.946, 374.339 506.828, 371.823 504.509 C 371.042 503.790, 370.911 504.217, 371.365 506 M 485.299 507.250 C 482.420 510.411, 481 513.445, 481 516.434 C 481 517.845, 481.138 519, 481.307 519 C 481.475 519, 483.614 517.087, 486.060 514.750 C 489.562 511.403, 490.439 509.916, 490.187 507.750 C 489.799 504.414, 488.046 504.234, 485.299 507.250 M 435.070 508.869 C 433.811 511.222, 434.580 512, 438.167 512 C 441.486 512, 442.026 509.620, 439.066 508.035 C 436.476 506.649, 436.231 506.701, 435.070 508.869 M 461 508.500 C 461 509.325, 461.675 510, 462.500 510 C 463.325 510, 464 509.325, 464 508.500 C 464 507.675, 463.325 507, 462.500 507 C 461.675 507, 461 507.675, 461 508.500 M 416.937 510.576 C 415.853 511.883, 415.874 512.308, 417.064 513.061 C 418.923 514.237, 419.717 514.222, 422.066 512.965 C 423.130 512.395, 424 511.270, 424 510.465 C 424 508.458, 418.624 508.543, 416.937 510.576 M 486.679 518.453 C 485.035 520.107, 485.008 520.437, 486.405 521.833 C 488.376 523.804, 489.239 522.938, 488.825 519.402 C 488.510 516.708, 488.443 516.678, 486.679 518.453 M 344.622 523.784 C 343.375 526.214, 342.317 530.682, 340.603 540.750 L 340.050 544 346.544 544 C 352.748 544, 353.018 543.900, 352.577 541.750 C 352.324 540.513, 351.839 536.650, 351.499 533.168 C 350.484 522.754, 347.347 518.474, 344.622 523.784 M 387.607 522.582 C 386.553 525.330, 386.930 526, 389.531 526 C 392.221 526, 393.679 523.908, 392.416 521.864 C 391.870 520.980, 391.441 521.179, 390.898 522.566 C 390.238 524.252, 390.132 524.276, 390.070 522.750 C 389.983 520.569, 388.420 520.462, 387.607 522.582 M 243.500 525.013 C 231.950 525.402, 211.700 525.790, 198.500 525.875 C 185.300 525.961, 174.005 526.361, 173.399 526.765 C 172.793 527.169, 172.068 528.737, 171.788 530.250 L 171.277 533 177.491 533 C 188.101 533, 253.893 531.078, 265.807 530.420 L 277.113 529.796 276.807 527.148 C 276.514 524.625, 276.217 524.495, 270.500 524.403 C 267.200 524.349, 255.050 524.624, 243.500 525.013 M 466.291 525.842 C 465.420 527.174, 464.951 527.254, 463.904 526.250 C 461.705 524.142, 458.495 524.842, 453.755 528.461 C 446.609 533.917, 445.012 541.235, 449.750 546.814 C 452.190 549.687, 452.839 549.954, 455.500 549.178 C 457.150 548.697, 460.750 548.386, 463.500 548.488 C 468.195 548.662, 468.510 548.519, 468.656 546.142 C 468.907 542.085, 471.296 541.068, 478.687 541.871 C 479.339 541.942, 480.014 543.462, 480.187 545.250 C 480.494 548.442, 480.590 548.500, 485.500 548.500 C 490.021 548.500, 490.533 548.269, 490.840 546.093 C 491.557 541.019, 489.874 534.927, 486.784 531.407 C 482.795 526.863, 479.761 525.400, 472.937 524.730 C 468.451 524.289, 467.165 524.504, 466.291 525.842 M 403.590 525.855 C 403.299 526.325, 404.236 527.787, 405.672 529.105 C 409.433 532.556, 414 540.010, 414 542.696 C 414 545.413, 414.053 545.423, 418.532 543.551 C 422.655 541.828, 422.952 539.708, 419.739 534.940 C 415.237 528.260, 405.492 522.777, 403.590 525.855 M 440.571 529.571 C 439.196 530.947, 438.290 536, 439.418 536 C 439.947 536, 444 529.482, 444 528.632 C 444 527.476, 442.164 527.979, 440.571 529.571 M 370.525 535.405 C 368.758 537.278, 366.735 540.875, 366.029 543.398 C 364.764 547.914, 365.016 557.349, 366.439 558.772 C 366.839 559.172, 375.600 559.660, 385.908 559.855 L 404.648 560.209 406.324 555.821 C 409.686 547.019, 407.646 537.584, 401.580 533.886 C 399.005 532.316, 396.468 532.007, 386.118 532.004 L 373.736 532 370.525 535.405 M 476.667 532.667 C 476.300 533.033, 476 534.158, 476 535.167 C 476 536.456, 476.742 537, 478.500 537 C 481.376 537, 482.081 533.629, 479.418 532.607 C 477.460 531.855, 477.478 531.855, 476.667 532.667 M 455.667 534.667 C 454.518 535.816, 454.931 536.893, 456.931 537.963 C 458.389 538.744, 459.247 538.610, 460.440 537.417 C 461.308 536.549, 461.763 535.425, 461.450 534.919 C 460.795 533.859, 456.655 533.678, 455.667 534.667 M 256 536.142 C 248.025 536.608, 225.532 537.330, 206.016 537.745 L 170.531 538.500 169.840 542.500 C 168.325 551.267, 166.941 583.199, 167.580 594.633 L 168.258 606.767 176.879 607.942 C 181.620 608.589, 190.012 609.376, 195.526 609.691 L 205.551 610.264 207.276 604.794 C 209.888 596.508, 209.732 596, 204.582 596 C 199.214 596, 197 595.239, 197 593.393 C 197 592.330, 198.727 592, 204.299 592 L 211.598 592 212.940 588.250 C 213.679 586.188, 214.492 583.938, 214.748 583.250 C 215.077 582.368, 213.912 582, 210.798 582 C 205.741 582, 201.771 579.884, 204.099 578.429 C 204.869 577.948, 208.425 577.678, 212 577.830 L 218.500 578.106 215.250 575.480 C 211.826 572.715, 210.965 570, 213.511 570 C 214.342 570, 218.861 572.025, 223.554 574.500 C 231.614 578.751, 232.529 579, 240.116 579 C 247.224 579, 248.109 579.201, 247.815 580.750 C 247.568 582.052, 246.205 582.628, 242.491 583 C 237.191 583.531, 237.108 583.649, 238.383 588.856 L 239.205 592.211 245.603 591.526 C 251.590 590.885, 252 590.971, 252 592.871 C 252 594.602, 251.146 594.997, 246.190 595.558 L 240.380 596.215 241.505 602.358 L 242.629 608.500 252.144 608.383 C 257.377 608.319, 266.195 607.711, 271.740 607.032 L 281.821 605.797 282.550 595.148 C 283.491 581.403, 282.554 559.184, 280.502 546.562 C 279.613 541.096, 278.660 536.258, 278.384 535.812 C 277.827 534.912, 276.748 534.928, 256 536.142 M 431.750 538.778 C 429.018 539.353, 429.634 542, 432.500 542 C 433.875 542, 434.993 541.663, 434.985 541.250 C 434.951 539.608, 433.408 538.429, 431.750 538.778 M 374.573 540.670 C 373.948 542.298, 375.436 543.954, 377.550 543.985 C 379.247 544.009, 380.887 541.870, 380.315 540.378 C 379.572 538.442, 375.346 538.657, 374.573 540.670 M 395.667 539.667 C 394.385 540.949, 395.001 543.823, 396.510 543.601 C 398.674 543.284, 400.340 541.360, 399.554 540.087 C 398.804 538.874, 396.688 538.645, 395.667 539.667 M 381.293 546.337 C 380.221 548.067, 382.883 549.111, 387.601 548.810 C 391.051 548.591, 392.568 548.045, 392.777 546.946 C 393.015 545.686, 392.009 545.403, 387.441 545.446 C 384.345 545.476, 381.578 545.877, 381.293 546.337 M 418.395 549.901 C 414.908 552.027, 410.526 558.424, 411.489 559.982 C 411.879 560.613, 419.124 561, 430.559 561 L 449 561 449 557.401 C 449 554.665, 448.256 553.107, 445.894 550.901 C 442.869 548.075, 442.513 548, 432.144 548.004 C 423.465 548.007, 420.927 548.357, 418.395 549.901 M 317.401 549.999 C 316.851 550.549, 316.577 552.507, 316.793 554.350 L 317.184 557.701 329.842 558.346 C 336.804 558.701, 346.238 558.994, 350.807 558.996 L 359.115 559 358.807 554.762 C 358.511 550.673, 358.359 550.499, 354.500 549.820 C 348.246 548.718, 318.538 548.862, 317.401 549.999 M 456.792 555.250 C 455.918 555.938, 454.901 557.513, 454.534 558.750 L 453.865 561 472.433 561 L 491 561 491 557.500 L 491 554 474.691 554 C 463.159 554, 457.917 554.366, 456.792 555.250 M 318 568.809 C 318 576.829, 318.842 577.331, 333.646 578.131 C 340.716 578.514, 350.212 578.866, 354.750 578.913 L 363 579 363 576.283 C 363 571.747, 360.018 565.240, 357.649 564.604 C 356.467 564.287, 347.063 564.021, 336.750 564.014 L 318 564 318 568.809 M 367 566.010 C 367 568.073, 370.129 574.508, 372.208 576.721 C 374.733 579.409, 376.908 579.801, 392.326 580.349 C 405.536 580.819, 405.335 580.924, 404.789 573.864 L 404.451 569.500 403.229 573 L 402.007 576.500 402.616 573 C 404.042 564.805, 405.668 565.532, 385.250 565.227 C 372.947 565.044, 367 565.299, 367 566.010 M 411 570.632 C 411 573.508, 411.753 576.482, 412.986 578.478 L 414.973 581.692 431.162 582.384 C 450.457 583.209, 451.197 582.926, 449.209 575.491 C 448.544 573.005, 448 570.144, 448 569.132 C 448 567.564, 446.875 567.198, 440.349 566.647 C 436.141 566.291, 427.816 566, 421.849 566 L 411 566 411 570.632 M 454.556 566.777 C 453.759 567.574, 454.992 573.954, 456.531 577.002 C 459.161 582.208, 460.983 582.959, 472.981 583.785 C 479.205 584.213, 485.805 584.388, 487.649 584.172 L 491 583.781 491 575.391 L 491 567 474.750 566.923 C 465.813 566.881, 457.743 566.701, 456.818 566.522 C 455.893 566.343, 454.875 566.458, 454.556 566.777 M 221.629 586.514 C 218.903 589.240, 219.754 590, 225.535 590 C 230.760 590, 231.010 589.888, 230 588 C 229.411 586.900, 228.307 586, 227.547 586 C 226.786 586, 225.510 585.749, 224.711 585.442 C 223.912 585.136, 222.525 585.618, 221.629 586.514 M 297.391 589.750 C 297.091 590.712, 294.518 596.125, 291.673 601.778 C 286.868 611.324, 286.233 612.127, 282.750 613.066 C 279.153 614.036, 279 614.253, 279 618.390 L 279 622.704 287.250 623.346 C 297.830 624.169, 311.787 624.169, 330.857 623.343 L 346.032 622.686 345.367 619.093 C 345.002 617.117, 344.207 613.475, 343.601 611 L 342.500 606.500 329.760 605.791 C 322.753 605.401, 315.248 604.605, 313.083 604.022 C 308.474 602.781, 304.896 598.912, 302.462 592.539 C 300.689 587.898, 298.367 586.621, 297.391 589.750 M 335.626 592.533 C 335.330 593.305, 335.477 594.177, 335.953 594.471 C 336.430 594.766, 342.935 595.300, 350.410 595.658 C 362.749 596.250, 364 596.155, 364 594.624 C 364 592.357, 363.418 592.243, 348.832 591.647 C 338.535 591.227, 336.063 591.393, 335.626 592.533 M 373.667 593.667 C 372.149 595.185, 373.147 597, 375.500 597 C 377.333 597, 378 596.467, 378 595 C 378 593.049, 375.159 592.175, 373.667 593.667 M 217 597.500 C 217 598.708, 218.556 599, 225 599 C 231.444 599, 233 598.708, 233 597.500 C 233 596.292, 231.444 596, 225 596 C 218.556 596, 217 596.292, 217 597.500 M 214 606.500 C 214 607.733, 215.778 608, 224 608 C 232.222 608, 234 607.733, 234 606.500 C 234 605.267, 232.222 605, 224 605 C 215.778 605, 214 605.267, 214 606.500 M 53.632 616.242 C 52.224 621.498, 48.772 621.233, 109.750 620.549 C 140.963 620.199, 167.024 619.933, 167.664 619.956 C 168.447 619.986, 168.587 619.102, 168.092 617.250 L 167.356 614.500 110.797 614.242 L 54.238 613.984 53.632 616.242 M 175.616 620.777 C 176.244 627.538, 176.184 627.806, 173.883 628.525 C 171.585 629.243, 170.047 630.714, 170.015 632.224 C 169.943 635.644, 192.528 638.693, 196.359 635.780 C 197.659 634.793, 198.631 631.828, 199.589 625.934 C 200.343 621.295, 200.969 617.231, 200.980 616.902 C 200.991 616.574, 195.862 616.011, 189.583 615.653 C 183.303 615.294, 177.445 614.724, 176.565 614.387 C 175.156 613.846, 175.043 614.609, 175.616 620.777 M 210.400 614.765 C 209.795 615.169, 208.766 616.513, 208.115 617.750 L 206.930 620 223.465 620 C 238.721 620, 240 619.861, 240 618.200 C 240 614.535, 238.024 614, 224.550 614.015 C 217.373 614.024, 211.005 614.361, 210.400 614.765 M 256.239 614.936 C 251.695 615.246, 247.942 615.725, 247.898 616 C 247.474 618.681, 249.553 633.373, 250.549 634.733 C 252.471 637.358, 270.301 637.314, 274.190 634.675 C 277.267 632.586, 276.957 630.457, 273.449 629.576 C 270.936 628.946, 270.840 627.614, 272.524 616.750 C 273.004 613.649, 273.805 613.738, 256.239 614.936 M 549.460 627.263 C 549.084 628.232, 549.332 629.695, 550.011 630.513 C 552.757 633.822, 554.191 631.001, 551.571 627.441 C 550.234 625.624, 550.099 625.612, 549.460 627.263 M 345 636.500 C 343.985 637.723, 344.040 638, 345.294 638 C 346.141 638, 347.035 638.563, 347.281 639.250 C 347.621 640.198, 348.420 640.096, 350.588 638.829 C 352.161 637.910, 353.609 636.672, 353.807 636.079 C 354.366 634.401, 351.287 634.810, 350.638 636.500 C 350.322 637.325, 349.374 638, 348.531 638 C 346.430 638, 346.595 636.252, 348.750 635.689 C 350.140 635.326, 350.062 635.208, 348.372 635.116 C 347.202 635.052, 345.685 635.675, 345 636.500 M 98 638.548 C 98 639.761, 101.057 642.148, 102.145 641.785 C 102.766 641.578, 102.087 640.632, 100.637 639.681 C 99.186 638.731, 98 638.221, 98 638.548 M 339.433 639.750 C 339.574 640.712, 340.434 641.645, 341.344 641.823 C 343.284 642.202, 343.508 640.908, 341.800 639.200 C 340.093 637.493, 339.135 637.715, 339.433 639.750 M 111.149 641.604 C 109.012 644.021, 110.626 644.427, 113.122 642.101 C 114.655 640.673, 114.916 640.012, 113.939 640.038 C 113.147 640.059, 111.892 640.764, 111.149 641.604 M 336.609 642.576 C 335.779 644.740, 336.170 645.131, 338.021 643.987 C 339.091 643.325, 339.186 642.786, 338.374 641.974 C 337.563 641.163, 337.090 641.324, 336.609 642.576 M 350 643 C 350 643.550, 350.675 644, 351.500 644 C 352.325 644, 353 643.550, 353 643 C 353 642.450, 352.325 642, 351.500 642 C 350.675 642, 350 642.450, 350 643 M 218 647 C 218 647.550, 218.675 648, 219.500 648 C 220.325 648, 221 647.550, 221 647 C 221 646.450, 220.325 646, 219.500 646 C 218.675 646, 218 646.450, 218 647" fill-rule="evenodd"/></svg>