
<svg version="1.0" xmlns="http://www.w3.org/2000/svg"
 viewBox="0 0 1024.000000 918.000000"
 preserveAspectRatio="xMidYMid meet">

<g transform="translate(0.000000,918.000000) scale(0.100000,-0.100000)"
>
<path d="M5065 9134 c-259 -25 -466 -100 -648 -238 -83 -62 -187 -176 -240
-262 l-32 -52 -160 -5 c-128 -4 -180 -10 -258 -30 -206 -54 -366 -147 -505
-291 -141 -147 -219 -287 -268 -481 -24 -95 -28 -129 -28 -250 1 -154 15 -237
63 -360 58 -149 186 -307 318 -392 l53 -34 0 -82 c1 -45 9 -165 19 -267 l18
-185 -29 -58 c-101 -204 -144 -500 -119 -817 11 -130 31 -279 47 -336 5 -18
-2 -24 -38 -38 -64 -26 -129 -78 -162 -130 -16 -25 -31 -46 -33 -46 -3 0 -3
246 -2 548 2 491 1 550 -14 578 -19 37 -70 82 -100 89 -12 3 -679 4 -1482 3
l-1460 -3 0 -70 0 -70 1439 -3 c1043 -1 1443 -5 1453 -13 20 -17 20 -2381 0
-2398 -24 -19 -39 -93 -39 -182 0 -72 4 -96 26 -145 l26 -59 -2 -1390 -3
-1390 -1450 -5 c-797 -3 -1451 -6 -1452 -8 -2 -1 -3 -33 -3 -72 l0 -70 1483 0
c1452 0 1483 0 1514 20 66 40 62 -52 63 1356 1 703 4 1294 7 1312 4 26 9 32
22 27 58 -23 196 -57 249 -62 50 -5 65 -10 74 -27 20 -39 62 -76 98 -86 44
-11 230 -27 423 -36 115 -5 147 -10 143 -20 -3 -7 -12 -79 -22 -161 -13 -120
-16 -201 -11 -428 6 -290 20 -470 88 -1150 51 -517 67 -644 87 -677 29 -49 48
-53 283 -53 204 0 219 1 246 21 50 36 52 44 212 664 34 129 64 245 67 257 6
22 11 23 120 23 l113 0 10 -37 c5 -21 46 -180 91 -353 134 -517 138 -528 200
-562 32 -17 54 -19 245 -16 226 4 249 8 277 56 17 29 38 204 83 687 14 149 27
293 30 320 27 257 55 746 55 950 -1 135 -5 201 -26 411 l-7 62 119 6 c238 13
410 27 446 37 37 10 98 68 98 94 0 10 11 15 34 15 26 0 189 37 273 61 10 3 13
-284 15 -1301 l3 -1305 23 -36 c46 -74 -76 -69 1551 -69 l1461 0 0 64 c0 41
-5 68 -12 73 -7 4 -656 10 -1443 13 l-1430 5 3 1395 3 1395 22 45 c19 38 22
62 22 160 0 102 -3 119 -23 153 l-22 39 0 1186 c0 934 3 1188 13 1194 6 4 646
8 1420 8 951 0 1415 3 1428 10 15 9 19 22 19 63 0 29 -5 58 -12 65 -9 9 -347
12 -1459 12 l-1446 0 -33 -23 c-48 -32 -69 -65 -80 -129 -7 -37 -10 -233 -8
-540 l3 -483 -52 51 c-28 28 -76 64 -107 78 -48 23 -55 30 -51 49 19 86 27
134 40 250 37 334 9 614 -85 848 l-39 97 14 164 c8 90 17 211 21 271 l7 107
61 44 c299 214 421 606 316 1018 -69 271 -269 518 -528 652 -173 89 -330 126
-534 126 l-117 0 -37 62 c-46 75 -208 241 -285 291 -136 88 -307 157 -448 182
-84 14 -254 25 -316 19z m368 -188 c309 -93 548 -317 657 -615 17 -45 35 -114
41 -154 14 -99 59 -136 105 -86 16 17 19 35 17 95 -2 62 -19 162 -39 227 -5
15 3 17 81 17 223 0 452 -94 624 -256 192 -181 283 -396 285 -674 0 -101 -4
-140 -22 -203 -56 -196 -163 -331 -346 -435 l-76 -44 -151 51 c-150 51 -437
129 -556 152 -35 6 -63 12 -63 13 0 0 14 28 30 61 16 33 30 71 30 84 0 52 -60
80 -93 43 -9 -10 -32 -52 -51 -93 l-34 -76 -79 13 c-43 6 -113 15 -156 19
l-79 8 6 31 c18 93 18 152 2 169 -45 44 -87 2 -111 -111 l-17 -77 -281 2
c-203 2 -283 6 -288 15 -4 6 -13 40 -20 76 -7 38 -21 75 -34 90 -20 23 -27 25
-51 17 -35 -13 -42 -51 -23 -138 6 -32 9 -60 5 -64 -8 -8 -287 -44 -302 -39
-8 3 -14 -16 -17 -52 -3 -31 -9 -68 -13 -81 -7 -23 -6 -24 32 -18 744 117
1516 41 2194 -217 78 -30 144 -56 146 -59 6 -5 -16 -339 -22 -346 -2 -2 -47
12 -101 32 -661 240 -1440 315 -2183 212 -216 -30 -604 -115 -658 -144 -12 -6
-30 -11 -42 -11 -21 0 -123 -39 -170 -64 -14 -8 -36 -16 -49 -18 -23 -3 -23
-1 -27 86 -2 48 -8 125 -14 169 -5 45 -10 84 -10 88 0 10 46 29 228 94 l172
61 -26 25 c-14 13 -35 40 -46 60 l-20 36 -57 -17 c-31 -9 -95 -31 -143 -49
l-86 -32 -44 29 c-24 16 -63 42 -87 58 -225 147 -336 397 -309 697 20 222 105
404 262 559 170 169 369 255 615 266 l114 5 -6 -24 c-30 -133 -37 -173 -37
-231 0 -55 4 -72 20 -88 48 -48 87 -12 106 98 25 146 94 298 190 422 144 187
357 311 624 363 14 3 102 4 195 3 150 -3 180 -6 258 -30z m142 -2531 c88 -8
183 -19 210 -25 28 -5 79 -14 115 -21 36 -6 69 -13 73 -16 5 -3 34 -7 65 -9
113 -7 142 -14 142 -34 0 -23 -77 -118 -129 -159 -21 -17 -51 -32 -65 -33 -14
-1 -26 -7 -26 -13 0 -14 -63 -45 -90 -45 -11 0 -20 -4 -20 -9 0 -9 -57 -27
-73 -23 -5 1 -31 -4 -59 -13 -67 -19 -220 -19 -352 0 -97 14 -323 69 -471 114
-47 15 -83 20 -110 16 -62 -10 -72 -14 -78 -35 -3 -11 -13 -23 -24 -27 -10 -4
-26 -14 -36 -23 -9 -9 -30 -23 -45 -31 -15 -8 -30 -19 -34 -25 -4 -7 -24 -15
-43 -18 -19 -4 -35 -11 -35 -16 0 -9 -30 -22 -41 -17 -3 1 -13 -4 -21 -11 -49
-40 -340 -65 -496 -41 -38 5 -70 5 -80 0 -10 -5 -41 -66 -70 -135 -64 -154
-128 -413 -167 -678 l-28 -186 -26 11 c-14 6 -28 14 -31 18 -3 3 -23 10 -45
15 l-39 10 -18 113 c-57 377 -56 589 1 801 17 63 42 138 55 165 13 28 26 57
29 66 5 16 39 35 142 79 68 30 255 90 280 90 11 0 33 7 49 15 16 9 31 13 34
11 2 -3 13 -1 22 4 10 5 34 12 54 14 19 2 39 7 43 9 4 3 25 8 45 11 20 3 77
14 125 25 331 73 849 96 1268 56z m829 -161 c16 -8 35 -14 43 -14 7 0 13 -4
13 -9 0 -5 10 -8 23 -8 12 0 52 -12 88 -27 36 -14 69 -26 73 -26 4 0 36 -13
71 -29 72 -34 79 -44 120 -171 37 -119 65 -286 65 -394 -1 -221 -37 -525 -71
-599 -11 -24 -96 -80 -109 -72 -4 3 -11 26 -14 52 -38 267 -167 680 -345 1111
-71 171 -77 192 -64 205 9 10 71 -2 107 -19z m-168 -236 c14 -46 61 -173 104
-283 177 -458 223 -644 245 -991 8 -110 9 -115 42 -133 34 -17 71 4 83 48 5
20 10 41 10 46 0 19 73 83 112 100 47 19 130 19 167 1 37 -19 90 -80 108 -125
73 -174 -4 -388 -169 -471 -72 -36 -123 -40 -131 -10 -6 24 -52 43 -84 35 -29
-7 -37 -23 -68 -141 -95 -362 -341 -574 -803 -690 -239 -61 -385 -78 -662 -78
-277 0 -393 12 -655 70 -323 72 -524 171 -695 343 -102 103 -157 199 -196 347
-14 55 -30 107 -36 117 -22 42 -104 40 -115 -3 -14 -54 -167 8 -239 97 -129
158 -112 412 34 500 95 58 263 -8 291 -115 20 -71 61 -97 101 -64 21 17 24 30
31 148 16 255 77 560 172 864 l37 115 167 0 c101 0 196 6 238 14 143 28 298
97 411 182 34 25 66 49 71 52 6 4 73 -12 149 -34 233 -66 361 -90 535 -96 305
-11 484 42 653 193 26 24 52 44 56 44 5 0 21 -37 36 -82z m-3061 -1867 c72
-68 164 -111 256 -120 l70 -6 29 -85 c75 -223 210 -372 458 -508 51 -28 102
-54 115 -58 21 -7 21 -8 -6 -15 -32 -9 -502 -34 -617 -33 -41 0 -100 3 -131 8
l-57 7 -6 61 c-15 125 -75 235 -161 296 -30 20 -56 46 -59 57 -3 11 -6 139 -6
285 l0 265 30 -51 c17 -28 55 -74 85 -103z m4003 -431 c-51 -33 -111 -97 -133
-140 -32 -63 -55 -146 -55 -196 l0 -43 -52 -6 c-29 -4 -80 -7 -113 -8 -85 -2
-608 24 -618 30 -5 3 26 23 69 46 257 131 417 306 490 536 l28 89 66 5 c93 7
186 47 258 113 34 30 64 65 69 77 5 12 9 -88 11 -233 l3 -255 -23 -15z m-4072
-221 c37 -74 46 -138 38 -284 -7 -127 -7 -130 -36 -157 -38 -35 -48 -35 -48 0
0 15 -12 54 -25 87 -35 83 -35 183 0 265 14 34 25 79 25 105 0 56 11 52 46
-16z m4132 -106 c32 -61 30 -164 -3 -243 -14 -33 -25 -73 -25 -90 0 -28 -2
-29 -20 -18 -37 23 -50 71 -57 201 -7 140 3 195 45 267 l27 45 6 -60 c3 -33
15 -79 27 -102z m-2771 -129 c20 -6 21 -10 16 -78 -9 -113 12 -239 52 -322
l35 -72 0 -466 0 -466 -22 0 c-23 0 -140 23 -213 41 -22 6 -64 22 -92 36 l-53
26 0 171 c0 156 14 328 41 494 9 61 9 63 -18 87 -35 30 -45 32 -238 45 -240
16 -388 31 -407 41 -15 8 -18 23 -18 87 0 84 25 271 38 284 5 5 102 13 218 18
234 12 413 32 524 59 84 21 105 23 137 15z m1584 -33 c139 -24 328 -41 488
-42 159 -1 163 -3 179 -69 7 -30 15 -112 19 -181 7 -147 10 -143 -97 -153 -69
-7 -483 -36 -512 -36 -9 0 -29 -10 -44 -23 l-27 -23 22 -200 c16 -147 21 -244
19 -374 l-3 -174 -69 -29 c-73 -31 -232 -67 -378 -87 -71 -10 -95 -18 -124
-41 -43 -34 -47 -35 -88 -10 -28 17 -61 19 -341 25 -170 3 -335 10 -365 14
l-55 7 -3 444 -2 443 22 -8 c13 -4 52 -8 88 -8 87 0 148 32 229 120 33 37 61
70 61 73 0 3 39 5 86 5 l86 -1 42 -51 c116 -142 254 -185 377 -115 111 62 153
165 154 373 0 110 3 136 15 142 20 10 80 4 221 -21z m-1335 -17 c49 -8 106
-15 127 -16 20 0 40 -4 42 -9 3 -4 12 -6 20 -2 27 10 65 -6 65 -27 0 -18 -7
-20 -55 -20 -84 0 -124 -26 -110 -71 3 -9 16 -24 29 -33 21 -13 26 -13 36 -1
8 10 31 15 62 15 41 0 49 -3 46 -17 -1 -10 2 -24 6 -32 11 -18 -90 -116 -141
-137 -139 -58 -259 74 -262 289 -2 90 -9 87 135 61z m1004 -43 c0 -132 -53
-278 -112 -309 -59 -31 -131 -14 -201 48 -57 49 -79 85 -71 114 6 24 11 25 77
28 70 3 72 4 75 30 4 32 -28 58 -73 58 -44 0 -75 11 -75 25 0 16 31 22 195 35
71 6 131 13 134 16 2 2 15 4 28 4 21 0 23 -4 23 -49z m-2331 13 l43 -7 -6 -36
c-3 -20 -8 -67 -12 -106 -8 -103 -12 -115 -35 -115 -26 0 -192 41 -202 50 -4
4 6 22 24 41 36 38 64 95 74 152 7 37 9 38 39 33 17 -3 51 -8 75 -12z m3601 6
c0 -34 49 -131 87 -171 l45 -48 -43 -11 c-46 -13 -183 -40 -185 -37 -1 1 -7
43 -13 92 -6 50 -14 107 -17 127 l-6 36 48 7 c27 4 54 8 59 10 18 6 25 5 25
-5z m-1754 -45 c4 -16 -2 -41 -17 -72 -20 -40 -29 -49 -55 -51 -59 -6 -109 65
-89 127 6 19 14 21 80 21 71 0 75 -1 81 -25z m-945 -1380 c193 -59 545 -98
870 -98 234 0 235 0 296 27 59 27 62 27 93 11 30 -15 40 -15 173 4 121 18 244
45 346 77 l24 7 -7 -94 c-14 -183 -125 -1366 -132 -1396 -4 -23 -7 -23 -159
-23 -84 0 -156 4 -159 9 -6 9 -44 156 -161 616 -36 143 -72 274 -80 292 -22
48 -60 56 -273 52 -178 -4 -182 -4 -207 -29 -20 -21 -40 -86 -120 -405 -53
-209 -105 -415 -117 -457 l-20 -78 -153 0 -153 0 -6 33 c-9 50 -51 462 -96
927 -22 234 -43 453 -46 488 -4 34 -4 62 -2 62 2 0 42 -11 89 -25z"/>
<path d="M4141 4779 c-111 -57 -143 -221 -64 -327 76 -102 241 -94 318 16 26
38 30 52 30 110 0 130 -69 212 -183 219 -44 3 -67 -1 -101 -18z"/>
<path d="M5995 4783 c-78 -41 -115 -104 -115 -198 0 -84 26 -137 86 -175 153
-97 343 41 305 221 -16 73 -50 122 -103 148 -53 25 -130 27 -173 4z"/>
<path d="M3356 4639 c-61 -17 -94 -82 -60 -120 23 -25 33 -24 65 7 l27 25 36
-31 c39 -35 44 -54 21 -84 -34 -45 -7 -103 40 -86 13 4 29 0 45 -12 29 -21 55
-16 70 12 7 13 -1 42 -30 110 -42 96 -79 153 -108 165 -38 16 -79 21 -106 14z"/>
<path d="M6876 4643 c-40 -6 -108 -78 -125 -133 -8 -25 -23 -62 -33 -83 -27
-55 -21 -91 16 -95 19 -2 32 2 38 12 7 12 18 15 48 10 33 -5 40 -3 50 17 11
19 9 29 -10 65 -22 40 -23 43 -7 68 29 43 51 49 81 21 34 -31 59 -32 75 -2 19
36 -8 93 -53 112 -20 8 -39 14 -43 14 -4 -1 -21 -4 -37 -6z"/>
<path d="M4937 4312 c-35 -38 -13 -138 41 -195 41 -44 84 -57 181 -57 126 1
189 35 226 122 33 80 8 148 -54 148 -32 0 -43 -11 -60 -59 -20 -61 -36 -71
-111 -71 -75 0 -87 8 -114 75 -9 21 -22 43 -29 47 -22 14 -64 8 -80 -10z"/>
<path d="M4802 2310 c-13 -6 -29 -26 -38 -45 -37 -90 73 -169 141 -100 17 16
25 35 25 59 0 48 -8 65 -41 81 -32 17 -54 18 -87 5z"/>
<path d="M5404 2297 c-21 -19 -27 -32 -27 -67 0 -35 6 -48 27 -67 88 -75 198
46 117 128 -36 36 -79 38 -117 6z"/>
</g>
</svg>
