<svg xmlns="http://www.w3.org/2000/svg" version="1.1" viewBox="1.15 0.27 486 693.58"><path d="M 221.500 1.109 C 179.273 5.043, 138.468 23.746, 111.652 51.457 C 105.573 57.738, 95.335 71.826, 90.518 80.538 C 87.889 85.293, 87.298 85.730, 80.008 88.312 C 52.784 97.956, 24.567 124.764, 10.658 154.201 C 4.135 168.007, 1.819 177.721, 1.255 193.649 C 0.495 215.108, 3.748 227.383, 14.459 243.481 C 28.703 264.890, 51.197 278.313, 77.672 281.204 L 88 282.331 88 288.715 C 88 296.183, 86.204 300.326, 82.033 302.483 C 78.172 304.479, 76.776 304.398, 73.727 302 C 72.329 300.900, 69.995 300, 68.541 300 C 66.448 300, 65.583 300.755, 64.383 303.627 C 61.774 309.869, 64.736 319.836, 71.230 326.674 L 74.245 329.848 71.989 333.016 C 64.299 343.815, 64.060 364.894, 71.484 377.562 C 74.731 383.103, 83.887 392.263, 89.416 395.503 C 94.594 398.537, 103.952 400.993, 110.460 401.026 L 115.500 401.051 120 408.156 C 125.456 416.771, 133.839 424.578, 142.816 429.405 L 149.500 432.999 145 432.404 C 142.525 432.076, 138.135 430.652, 135.245 429.238 C 130.727 427.028, 129.508 426.816, 126.556 427.721 C 123.373 428.698, 122.221 428.322, 110.811 422.576 C 104.040 419.166, 96.198 415.441, 93.385 414.299 L 88.270 412.223 86.503 404.862 C 83.927 394.131, 82.644 391.561, 78.619 389.074 C 75.436 387.107, 74.589 386.981, 71.468 388.011 C 69.521 388.653, 66.954 390.496, 65.763 392.107 C 63.974 394.527, 63.450 394.769, 62.743 393.505 C 61.212 390.770, 52.371 387, 47.485 387 C 43.816 387, 42.416 387.527, 40.452 389.646 C 39.089 391.117, 38 393.510, 38 395.033 C 38 397.727, 37.877 397.781, 30.880 398.177 C 22.406 398.655, 20 400.663, 20 407.254 C 20 410.751, 20.654 411.939, 24.925 416.211 L 29.850 421.135 25.495 423.002 C 23.100 424.029, 20.659 425.769, 20.070 426.869 C 15.570 435.277, 24.964 442.767, 49.640 450.447 C 56.163 452.477, 62.032 454.306, 62.683 454.512 C 63.333 454.717, 65.402 457.274, 67.280 460.193 C 71.371 466.550, 85.635 480.382, 90.487 482.695 C 93.321 484.047, 93.847 484.761, 93.380 486.623 C 92.686 489.386, 96.824 494, 99.995 494 C 101.142 494, 103.300 494.892, 104.790 495.983 C 110.182 499.928, 132.490 506, 141.593 506 L 146.207 506 143.209 509.414 C 139.013 514.194, 137.540 519.075, 138.978 523.434 C 140.035 526.635, 145.471 532.485, 149.467 534.722 C 151.087 535.628, 151.096 535.913, 149.604 538.798 C 147.526 542.816, 147.558 547.854, 149.676 550.194 C 151.248 551.932, 151.182 552.735, 148.598 563.273 C 145.443 576.137, 145.838 573.548, 143.102 599.227 C 141.946 610.077, 141 621.874, 141 625.442 C 141 631.225, 141.326 632.302, 144 635.347 C 146.328 637.998, 147 639.717, 147 643.017 C 147 648.637, 151.629 670.933, 154.252 677.948 C 158.171 688.428, 165.810 692.268, 183 692.396 C 202.452 692.542, 212.689 685.195, 222.170 664.285 C 224.737 658.623, 225.392 657.871, 227.306 658.384 C 228.513 658.708, 239.879 658.979, 252.565 658.986 L 275.630 659 277.409 662.750 C 281.212 670.762, 288.423 681.195, 293.009 685.318 C 298.739 690.470, 305.553 692.944, 316.135 693.714 C 329.164 694.663, 342.876 690.792, 347.144 684.960 C 350.196 680.791, 352.001 671.157, 352.663 655.500 C 353.288 640.711, 353.339 640.452, 356.256 637.093 L 359.214 633.686 358.502 624.182 C 358.110 618.955, 357.648 612.345, 357.476 609.495 C 357.218 605.210, 354.064 583.994, 352.572 576.500 C 351.136 569.289, 347.630 557.070, 344.574 548.631 C 339.822 535.509, 339.888 534.205, 345.477 530.674 C 350.647 527.408, 354.742 522.876, 355.595 519.476 C 356.435 516.131, 354.507 511.001, 350.944 507.099 C 349.270 505.267, 348.035 503.672, 348.200 503.556 C 348.365 503.440, 352.003 502.821, 356.284 502.180 C 367.312 500.531, 381.109 496.428, 390.888 491.892 C 395.502 489.751, 399.820 488, 400.483 488 C 402.434 488, 405 484.540, 405 481.910 C 405 479.947, 406.766 478.321, 414.148 473.489 C 423.462 467.391, 430.087 460.576, 436.623 450.370 C 439.315 446.166, 440.571 445.115, 443.580 444.551 C 458.540 441.745, 474.271 435.702, 479.750 430.658 C 486.309 424.620, 485.612 419.863, 477.566 415.751 C 474.811 414.343, 474.759 414.211, 476.724 413.588 C 477.874 413.223, 480.657 410.926, 482.908 408.484 C 486.996 404.049, 488.085 399.990, 486.379 395.545 C 485.531 393.335, 480.747 391, 477.069 391 C 474.702 391, 473.906 390.473, 473.434 388.595 C 473.102 387.272, 471.706 385.134, 470.330 383.845 C 466.792 380.527, 458.425 380.743, 450.534 384.356 C 447.357 385.810, 444.456 387, 444.087 387 C 443.717 387, 442.861 384.930, 442.185 382.400 C 440.615 376.531, 436.218 372, 432.093 372 C 426.569 372, 423.255 376.215, 419.903 387.502 C 418.270 393.001, 416.486 397.654, 415.939 397.843 C 412.985 398.860, 393.193 408.916, 384.819 413.654 C 375.617 418.862, 374.950 419.080, 371.319 418.070 C 367.857 417.107, 366.827 417.335, 360.312 420.504 C 350.739 425.160, 347.709 424.958, 356.263 420.234 C 370.542 412.349, 382.534 399.688, 387.210 387.562 C 388.711 383.668, 388.833 383.597, 398.030 381.284 C 403.146 379.997, 409.416 377.810, 411.964 376.423 C 419.711 372.207, 426.837 364.545, 430.873 356.095 C 434.392 348.727, 434.500 348.157, 434.500 337 C 434.500 326.612, 434.240 324.946, 431.816 319.774 C 430.340 316.624, 427.675 312.234, 425.894 310.017 L 422.655 305.987 426.854 302.393 C 429.163 300.417, 431.716 297.517, 432.526 295.949 C 434.635 291.872, 434.443 284.711, 432.171 282.655 C 429.786 280.497, 428.365 280.568, 425.273 283 C 421.285 286.137, 415.451 285.694, 411.992 281.992 C 409.450 279.270, 406 271.469, 406 268.441 C 406 267.779, 407.969 266.742, 410.376 266.136 C 417.614 264.313, 434.514 255.282, 442.372 249.038 C 456.076 238.147, 467.446 220.325, 472.060 202.500 C 474.735 192.166, 475.661 173.944, 474.064 163.027 C 469.066 128.843, 446.342 98.578, 413.292 82.086 C 405.576 78.236, 394.492 74.639, 386.750 73.474 C 384.688 73.163, 383 72.367, 383 71.704 C 383 69.195, 369.658 52.866, 360.763 44.489 C 327.226 12.906, 273.731 -3.758, 221.500 1.109 M 219 9.108 C 180.818 13.430, 143.352 31.087, 118.378 56.531 C 110.282 64.780, 101.509 76.930, 96.675 86.590 C 94.175 91.586, 93.962 91.740, 85.119 94.903 C 57.922 104.632, 32.526 128.265, 18.926 156.500 C 11.155 172.633, 9.529 179.783, 9.601 197.500 C 9.655 210.820, 9.949 213.370, 12.228 220.269 C 21.897 249.540, 49.815 271.164, 81.173 273.671 L 88.846 274.285 90.001 269.892 C 92.155 261.704, 97.073 247.659, 100.580 239.682 C 102.501 235.313, 103.867 231.534, 103.617 231.284 C 103.367 231.033, 99.737 231.381, 95.551 232.056 C 87.542 233.348, 74.360 232.860, 71.321 231.160 C 69.704 230.255, 69.772 230.105, 72.014 229.633 C 73.381 229.345, 78.775 228.911, 84 228.669 C 91.081 228.341, 95.282 227.551, 100.500 225.565 C 108.661 222.459, 110.102 221.376, 115.897 214 C 118.274 210.975, 123.594 204.945, 127.719 200.599 L 135.218 192.699 129.609 193.358 C 125.012 193.899, 124 193.749, 124 192.528 C 124 191.708, 125.012 190.852, 126.250 190.624 C 127.487 190.395, 131.425 189.681, 135 189.036 C 140.416 188.058, 149 183.941, 149 182.320 C 149 182.096, 146.839 179.316, 144.199 176.143 C 139.164 170.093, 136.218 164.434, 137.470 163.218 C 137.877 162.823, 139.400 164.067, 140.855 165.983 C 144.973 171.405, 151.193 178.033, 153.142 179.076 C 154.480 179.792, 157.297 178.829, 164.705 175.123 C 184.536 165.204, 208.776 156.956, 225.439 154.457 C 231.673 153.522, 232.036 152.250, 226.269 151.548 C 213.985 150.054, 212.514 149.602, 212.176 147.212 C 211.883 145.150, 212.129 145, 214.676 145.686 C 216.229 146.105, 222.900 146.451, 229.500 146.455 C 247.380 146.465, 258.595 142.802, 270.725 132.987 C 277.470 127.529, 278 127.276, 278 129.522 C 278 133.924, 262.574 145.184, 250.500 149.596 C 247.846 150.566, 247.731 150.763, 249.500 151.301 C 250.600 151.636, 257.125 152.402, 264 153.002 C 288.653 155.156, 310.838 159.778, 326.629 166.051 L 334.498 169.177 340.741 162.589 C 344.174 158.965, 347.437 156, 347.991 156 C 350.605 156, 348.207 160.812, 342.599 166.820 C 339.549 170.087, 339.532 170.164, 341.500 171.650 C 342.600 172.480, 345.750 174.311, 348.500 175.718 C 351.250 177.125, 355.993 179.967, 359.041 182.034 C 365.525 186.430, 370.408 187.974, 378 188.028 L 383.500 188.067 381.139 190.033 C 379.581 191.332, 377.287 192, 374.389 192 C 371.975 192, 370 192.250, 370 192.555 C 370 193.481, 377.694 204.504, 379.145 205.658 C 379.890 206.250, 384.100 207.041, 388.500 207.414 C 401.043 208.478, 404 209.104, 404 210.692 C 404 211.870, 402.106 212.072, 393.498 211.814 C 387.722 211.641, 382.997 211.573, 382.998 211.661 C 383.004 212.134, 390.396 228.780, 394.267 237.039 C 396.727 242.286, 399.771 249.410, 401.033 252.870 L 403.327 259.161 406.913 258.492 C 408.886 258.123, 413.803 256.298, 417.840 254.434 C 455.700 236.961, 474.075 197.429, 463.981 155.166 C 456.442 123.601, 430.128 95.816, 396.250 83.647 C 392.262 82.215, 389 81.249, 389 81.500 C 389 81.752, 390.167 85.433, 391.592 89.680 C 394.291 97.721, 395.841 110.504, 394.501 113.669 C 393.808 115.303, 393.643 115.231, 392.962 113 C 392.543 111.625, 392.155 108.828, 392.100 106.785 C 392.033 104.290, 391.403 102.751, 390.183 102.098 C 389.183 101.563, 387.125 97.963, 385.608 94.099 C 379.734 79.127, 368.564 63.386, 354.427 50.159 C 344.001 40.405, 334.927 34.215, 320.109 26.751 C 290.557 11.864, 252.824 5.280, 219 9.108 M 170.460 113.064 C 169.548 114.541, 175.977 123.945, 181.916 129.822 C 187.090 134.941, 196.378 141.565, 199.210 142.155 C 202.634 142.867, 201.218 140.377, 196.211 136.879 C 188.664 131.606, 184.041 127.198, 177.617 119.147 C 174.481 115.216, 171.736 112, 171.516 112 C 171.297 112, 170.822 112.479, 170.460 113.064 M 284.975 133.565 C 284.439 134.976, 284.010 137.113, 284.022 138.315 C 284.037 139.852, 284.631 139.207, 286.022 136.141 C 288.315 131.088, 288.331 131, 286.975 131 C 286.412 131, 285.512 132.154, 284.975 133.565 M 241.570 158.204 C 220.403 159.405, 201.641 163.933, 179.500 173.186 C 150.694 185.223, 132.684 198.677, 120.640 217.155 C 115.818 224.552, 110 235.940, 110 237.981 C 110 238.384, 115.287 233.490, 121.750 227.107 C 144.031 205.097, 168.747 190.547, 199.998 181.043 C 239.381 169.065, 283.661 170.394, 322 184.704 C 340.351 191.553, 358.568 202.354, 370.499 213.457 C 373.775 216.506, 376.585 219, 376.744 219 C 376.903 219, 375.837 216.637, 374.373 213.750 C 369.718 204.563, 362.760 194.690, 356.458 188.330 C 341.402 173.134, 298.575 159.212, 262.500 157.787 C 258.100 157.613, 248.682 157.801, 241.570 158.204 M 232.500 178.552 C 183.873 185.099, 141.268 207.499, 114.721 240.476 C 106.247 251.002, 103.577 255.988, 100.023 267.922 C 98.822 271.955, 97.591 275.901, 97.288 276.691 C 96.985 277.481, 100.059 274.926, 104.119 271.013 C 133.517 242.675, 177.783 221.644, 225.500 213.342 C 233.190 212.004, 241.390 211.594, 261 211.569 C 283.406 211.539, 288.078 211.818, 299.500 213.864 C 314.246 216.506, 331.769 221.332, 343.394 225.955 C 359.563 232.384, 382.926 245.168, 389.750 251.320 C 392.881 254.143, 392.616 253.029, 387.675 242.616 C 380.733 227.985, 369.959 216.633, 351.500 204.498 C 330.422 190.642, 304.566 181.699, 275.026 178.047 C 263.806 176.661, 244.884 176.885, 232.500 178.552 M 241.322 219.094 C 219.148 221.071, 192.246 228.206, 168.321 238.453 C 147.724 247.275, 142.546 251.301, 138.936 261.295 C 137.707 264.700, 137.796 265.984, 139.809 273.795 C 142.377 283.762, 142.583 288.706, 140.619 293.282 C 138.937 297.204, 133.503 302.499, 129.685 303.939 C 126.208 305.249, 119.949 305.311, 116.676 304.067 C 114.374 303.192, 114.138 303.424, 112.861 307.817 C 112.084 310.490, 111.532 316.792, 111.575 322.500 C 111.640 331.314, 112.039 333.508, 114.937 341 C 120.678 355.840, 121.030 357.031, 120.410 359.504 C 119.601 362.725, 116.074 363.858, 114.622 361.364 C 112.641 357.962, 104 337.882, 104 336.681 C 104 335.834, 100.542 335.516, 91.791 335.556 L 79.582 335.612 77.041 341.056 C 74.910 345.622, 74.500 347.955, 74.500 355.521 C 74.500 363.673, 74.812 365.177, 77.741 371.126 C 83.476 382.775, 95.317 391.441, 106.500 392.173 L 111.500 392.500 111.500 384.904 C 111.500 376.614, 112.842 373.692, 116.412 374.202 C 118.225 374.461, 118.593 375.436, 119.209 381.610 C 120.482 394.361, 126.010 405.091, 136.141 414.470 C 147.390 424.885, 166.508 431.794, 194.500 435.562 C 213.223 438.082, 254.508 438.147, 273.500 435.686 C 321.683 429.443, 357.328 415.362, 372.159 396.710 C 379.529 387.443, 384 374.845, 384 363.349 C 384 356.807, 384.767 355.474, 387.947 356.483 C 390.694 357.355, 392.359 363.236, 391.562 369.247 L 390.895 374.272 395.197 373.621 C 397.564 373.262, 402.726 371.394, 406.669 369.470 C 418.718 363.589, 425.788 353.006, 426.743 339.421 C 427.621 326.943, 422.332 315.170, 413.892 310.814 L 410.283 308.951 403.892 311.976 C 400.376 313.639, 396.038 315.275, 394.250 315.611 C 391.723 316.087, 391 316.725, 391 318.480 C 391 323.217, 387.840 338.573, 386.017 342.694 C 383.932 347.408, 382.994 347.851, 380.463 345.320 C 378.644 343.501, 378.687 342.012, 381.069 324.321 C 382.726 312.010, 381.709 307.475, 372.827 287.562 C 368.887 278.728, 362.881 264.111, 359.481 255.079 L 353.300 238.659 347.900 236.261 C 316.831 222.464, 276.456 215.960, 241.322 219.094 M 364 246.083 C 364 247.680, 370.394 262.799, 378.978 281.500 C 383.269 290.850, 387.366 300.461, 388.081 302.859 L 389.382 307.217 393.778 306.722 C 399.218 306.108, 401.354 304.357, 398.573 302.789 C 395.242 300.911, 389.255 294.726, 391.500 295.483 C 394.648 296.543, 409.199 298.997, 412.349 298.999 C 415.912 299, 421.166 296.564, 422.620 294.237 C 423.610 292.651, 423.340 292.510, 419.925 292.836 C 409.953 293.787, 403.589 288.071, 397.432 272.633 C 395.113 266.818, 393.760 265.008, 388.597 260.814 C 381.511 255.059, 364 244.571, 364 246.083 M 311.628 250.121 C 309.884 252.611, 310.852 256.132, 314.287 259.799 C 317.485 263.212, 326.563 269, 328.719 269 C 330.879 269, 333 267.185, 333 265.337 C 333 263.553, 321.213 251.162, 317.874 249.435 C 314.185 247.527, 313.383 247.616, 311.628 250.121 M 169.027 261.250 C 163.646 266.846, 159.820 273.368, 160.650 275.530 C 162.214 279.607, 167.631 277.429, 174.257 270.059 C 179.934 263.745, 180.996 260.225, 177.966 257.771 C 176.763 256.797, 175.395 256, 174.926 256 C 174.458 256, 171.803 258.363, 169.027 261.250 M 122.527 265.574 C 106.957 278.122, 102.366 283.422, 96.489 295.628 C 90.312 308.456, 87.397 311.054, 78.339 311.805 C 75.403 312.048, 73 312.557, 73 312.935 C 73 313.313, 73.955 314.648, 75.121 315.900 C 76.765 317.664, 77.947 318.051, 80.371 317.615 C 90.945 315.717, 92 315.699, 92 317.413 C 92 318.338, 89.744 320.485, 86.944 322.226 C 81.964 325.321, 81.922 325.389, 84.194 326.649 C 86.986 328.199, 93.203 328.349, 98.113 326.985 C 101.677 325.995, 101.734 325.896, 102.380 319.599 C 103.095 312.618, 105.918 303.499, 108.961 298.341 C 110.691 295.409, 110.779 294.450, 109.760 289.593 C 108.850 285.255, 108.888 283.561, 109.946 281.319 L 111.276 278.500 111.987 281 C 113.207 285.287, 116.696 291.398, 119.324 293.850 L 121.842 296.200 124.839 292.063 C 126.488 289.788, 128.096 288.347, 128.414 288.861 C 128.732 289.376, 127.631 291.254, 125.967 293.036 C 124.303 294.817, 123.145 296.479, 123.395 296.729 C 124.312 297.645, 128.009 295.823, 127.360 294.773 C 126.956 294.119, 127.159 293.980, 127.873 294.422 C 128.558 294.845, 129.872 294.173, 130.995 292.826 C 133.431 289.903, 133.572 283.574, 131.409 274.312 C 130.534 270.565, 130.029 265.587, 130.286 263.250 C 130.544 260.913, 130.697 259.033, 130.627 259.074 C 130.557 259.115, 126.912 262.040, 122.527 265.574 M 324.147 308.091 C 309.697 310.880, 301.262 323.717, 302.195 341.497 C 302.551 348.276, 303.145 350.604, 305.664 355.089 C 310.984 364.560, 320.433 368.854, 331.654 366.900 C 346.230 364.361, 355 353.097, 355 336.912 C 355 317.826, 341.079 304.822, 324.147 308.091 M 162.123 318.152 C 160.263 318.687, 156.374 321.496, 153.461 324.409 C 145.142 332.728, 142.072 345.146, 145.490 356.655 C 148.655 367.311, 157.855 375.717, 167.437 376.706 C 183.267 378.339, 194.320 370.475, 196.882 355.753 C 200.443 335.293, 188.098 316.813, 171.054 317.090 C 167.999 317.140, 163.981 317.617, 162.123 318.152 M 401.241 334.995 C 397.882 337.042, 394.403 341.797, 393.370 345.752 C 392.950 347.361, 393.440 348.536, 395.089 349.871 C 397.228 351.603, 397.308 352.028, 396.197 355.735 C 394.666 360.845, 394.690 362, 396.326 362 C 397.905 362, 401.427 358.273, 402.380 355.594 C 402.752 354.546, 402.306 351.427, 401.388 348.664 L 399.720 343.640 402.876 340.820 C 405.343 338.615, 407.010 338, 410.516 338 C 415.382 338, 416.003 337.218, 413.171 334.655 C 410.700 332.418, 405.210 332.574, 401.241 334.995 M 88.108 352.265 C 86.792 352.944, 84.996 354.593, 84.117 355.930 C 82.548 358.312, 82.566 358.344, 85.009 357.586 C 90.931 355.748, 92.927 355.831, 96.930 358.081 C 101.479 360.637, 101.521 360.727, 99.468 363.441 C 96.191 367.774, 99.093 377.942, 104.056 379.518 C 107.109 380.487, 108.239 378.239, 105.882 375.882 C 103.283 373.283, 103.354 367.416, 106 366 C 108.829 364.486, 108.483 361.620, 104.994 357.646 C 99.815 351.748, 93.195 349.638, 88.108 352.265 M 245.751 376.981 C 242.624 379.441, 240.218 385.293, 239.371 392.498 C 238.654 398.600, 239.226 399.380, 241.388 395.250 C 243.544 391.133, 248.976 386, 251.179 386 C 252.246 386, 255.632 388.363, 258.703 391.250 L 264.285 396.500 263.590 392.709 C 261.839 383.167, 256.032 375, 250.998 375 C 249.498 375, 247.136 375.892, 245.751 376.981 M 429.455 384.750 C 427.066 393.328, 423.085 405.317, 422.118 406.842 C 421.448 407.900, 420.867 407.934, 419.371 407 C 416.984 405.509, 413.021 407.242, 389 420.287 C 373.834 428.524, 371.458 430.140, 371.182 432.407 C 370.136 441.032, 383.328 466.759, 392.139 473.274 L 394.779 475.225 401.654 471.612 C 411.948 466.203, 420.004 459.139, 427.981 448.525 C 435.714 438.237, 436.463 437.620, 442.500 436.563 C 449.704 435.303, 467.419 429.864, 471.204 427.751 C 474.830 425.727, 476.612 423.462, 475.206 422.662 C 474.818 422.441, 471.012 421.496, 466.750 420.562 C 456.717 418.363, 456.621 416.928, 466.111 411.072 C 475.066 405.546, 479 402.251, 479 400.275 C 479 398.206, 473.147 399.010, 462.748 402.508 C 455.065 405.092, 453 405.105, 453 402.568 C 453 401.109, 460.491 393.878, 463.884 392.062 C 465.078 391.423, 465.761 390.423, 465.401 389.840 C 464.401 388.222, 458.916 389.484, 449.655 393.462 C 445.059 395.436, 440.597 396.783, 439.740 396.454 C 438.015 395.792, 436.909 393.303, 434.538 384.750 C 433.661 381.587, 432.519 379, 432 379 C 431.481 379, 430.335 381.587, 429.455 384.750 M 46 395.418 C 46 396.198, 48.025 399.209, 50.500 402.109 C 55.148 407.553, 56.073 410.865, 53.535 412.971 C 52.351 413.953, 51.039 413.597, 46.702 411.115 C 41.310 408.031, 29.332 404.335, 28.245 405.421 C 26.993 406.673, 30.488 410.930, 38.032 417.342 C 48.559 426.290, 48.285 426.871, 32.750 428.530 C 29.587 428.868, 27 429.477, 27 429.885 C 27 430.292, 28.238 431.801, 29.750 433.238 C 32.937 436.265, 43.875 440.788, 57.182 444.582 C 62.307 446.043, 67.014 447.522, 67.642 447.869 C 68.271 448.216, 71.451 452.100, 74.709 456.500 C 77.967 460.900, 83.071 466.689, 86.051 469.364 C 91.287 474.064, 100.447 479.978, 102.500 479.984 C 105.208 479.993, 121.807 446.855, 122.278 440.500 C 122.494 437.597, 122.039 437.274, 106.500 429.306 C 97.700 424.793, 88.362 420.543, 85.750 419.861 C 83.138 419.180, 81 418.144, 81.001 417.561 C 81.003 415.229, 74.525 395, 73.777 395 C 73.336 395, 71.880 397.475, 70.542 400.500 C 69.205 403.525, 67.748 405.990, 67.305 405.978 C 66.862 405.966, 65.375 405.034, 64 403.909 C 58.730 399.594, 49.610 394, 47.845 394 C 46.830 394, 46 394.638, 46 395.418 M 436.131 412.682 C 436.293 414.233, 436.098 416.032, 435.697 416.682 C 434.072 419.310, 439.496 419.359, 442.762 416.745 C 444.357 415.469, 442.896 413.515, 438.740 411.366 C 435.848 409.870, 435.836 409.876, 436.131 412.682 M 65.008 421.221 C 62.657 423.745, 62.722 425.796, 65.202 427.357 C 67.401 428.742, 67.770 428.289, 68.582 423.212 C 69.352 418.397, 68.224 417.769, 65.008 421.221 M 363.238 426.546 C 362.024 427.396, 359.856 430.096, 358.420 432.546 C 355.356 437.775, 354 438.192, 354 433.906 L 354 430.812 349.250 431.394 C 327.768 434.026, 319.211 435.160, 317.385 435.618 C 312.797 436.770, 314.928 451.854, 323.159 476.500 C 329.903 496.692, 329.362 496, 338.392 496 C 353.109 496, 379.653 489.820, 383.790 485.430 C 385.255 483.876, 387.194 483, 389.168 483 L 392.255 483 388.343 478.750 C 381.251 471.044, 376.106 463.504, 372.099 454.943 C 367.058 444.173, 365.653 438.476, 366.194 430.995 C 366.432 427.698, 366.362 425, 366.036 425 C 365.711 425, 364.452 425.696, 363.238 426.546 M 127.040 441.250 C 124.908 452.168, 117.020 469.478, 108.598 481.721 L 105.048 486.882 108.774 487.191 C 111.626 487.428, 112.568 487.975, 112.790 489.524 C 113.015 491.095, 114.692 492.028, 120.290 493.695 C 132.462 497.319, 139.018 498.309, 151.495 498.406 L 163.490 498.500 165.675 492 C 174.083 466.986, 182.116 441.783, 181.787 441.454 C 181.572 441.239, 172.115 440.754, 160.773 440.377 L 140.150 439.691 139.825 443.096 L 139.500 446.500 136.641 442 C 130.968 433.069, 128.672 432.890, 127.040 441.250 M 300.825 439.378 C 297.703 439.995, 294.929 440.725, 294.660 441 C 294.390 441.275, 294.038 454.713, 293.877 470.862 C 293.599 498.732, 293.681 500.294, 295.483 501.612 C 298.596 503.887, 302.729 503.343, 304.656 500.402 C 306.473 497.629, 306.909 492.628, 305.584 489.739 C 304.979 488.417, 305.142 488.117, 306.240 488.538 C 307.482 489.015, 307.808 485.888, 308.406 467.800 C 309.061 448.002, 308.620 437.820, 307.122 438.128 C 306.780 438.199, 303.946 438.761, 300.825 439.378 M 268.500 444.173 C 264.650 444.674, 251.265 445.178, 238.755 445.292 C 226.245 445.406, 216.008 445.802, 216.005 446.172 C 215.993 447.879, 224.540 453.879, 229.254 455.471 C 243.677 460.343, 266.256 457.168, 274.952 449.045 C 278.042 446.159, 279.035 442.891, 276.750 443.131 C 276.063 443.204, 272.350 443.673, 268.500 444.173 M 188.621 469.250 C 188.243 483.137, 188.233 495.979, 188.599 497.786 C 189.756 503.499, 196.779 506.112, 200.355 502.160 C 202.472 499.820, 203.637 475.619, 202.540 456.750 L 201.799 444 195.554 444 L 189.309 444 188.621 469.250 M 357 446.989 C 357 449.163, 361.715 461.725, 363.299 463.774 C 365.467 466.576, 365.034 463.688, 361.921 454.572 C 358.806 445.447, 357 442.665, 357 446.989 M 282.500 450.198 C 266.948 465.424, 232.829 467.123, 214.017 453.608 L 209 450.003 209 469.610 L 209 489.217 211.742 488.529 C 214.057 487.948, 272.282 487.779, 283 488.323 L 286.500 488.500 287.371 469.178 C 287.865 458.207, 287.865 449.084, 287.371 448.069 C 286.595 446.476, 286.066 446.707, 282.500 450.198 M 177.785 472.500 C 171.083 493.824, 167.959 506.441, 167.384 514.500 L 166.886 521.500 170.837 511.356 C 173.010 505.778, 176.649 497.636, 178.923 493.264 L 183.058 485.316 182.779 471.408 L 182.500 457.500 177.785 472.500 M 313.630 480.543 L 312.931 492.500 321.678 510.861 C 326.490 520.959, 330.571 528.787, 330.748 528.256 C 331.389 526.333, 326.032 504.146, 321.628 490.481 C 313.670 465.792, 314.436 466.744, 313.630 480.543 M 225 471.114 C 230.408 472.520, 258.126 472.606, 260.500 471.225 C 262.065 470.314, 258.042 470.076, 242 470.133 C 227.670 470.183, 222.553 470.478, 225 471.114 M 371 475.923 C 371 477.579, 376.138 483, 377.708 483 C 378.748 483, 378.241 481.981, 376.119 479.810 C 374.403 478.056, 373 476.256, 373 475.810 C 373 475.365, 372.550 475, 372 475 C 371.450 475, 371 475.415, 371 475.923 M 115.638 486.500 C 115.322 487.325, 115.451 488, 115.924 488 C 116.398 488, 117.045 487.325, 117.362 486.500 C 117.678 485.675, 117.549 485, 117.076 485 C 116.602 485, 115.955 485.675, 115.638 486.500 M 181.283 497.812 C 180.673 499.290, 177.705 506.575, 174.688 514 C 171.671 521.425, 167.190 532, 164.731 537.500 C 158.440 551.572, 153.226 574.509, 150.998 597.911 C 150.014 608.255, 150.137 611.909, 151.649 617.273 C 152.598 620.637, 171.013 628.409, 186.489 631.976 C 190.895 632.992, 199.191 634.560, 204.924 635.460 C 210.657 636.360, 215.719 637.327, 216.174 637.607 C 218.399 638.983, 216.467 640, 211.631 640 C 195.556 640, 162.911 630.746, 153.404 623.494 C 149.781 620.731, 149 621.083, 149 625.480 C 149 629.898, 152.960 633.325, 162.919 637.525 C 198.692 652.612, 272.652 656.474, 316.084 645.523 C 333.721 641.076, 349.121 634.733, 350.405 631.388 C 351.012 629.805, 350.098 622, 349.305 622 C 349.064 622, 347.434 623.074, 345.683 624.386 C 338.752 629.581, 325.749 634.372, 310.500 637.349 C 298.604 639.672, 295.586 639.787, 295.227 637.930 C 294.984 636.676, 297.193 635.923, 306.218 634.182 C 323.928 630.766, 337.233 626.058, 343.907 620.845 C 345.359 619.711, 347.083 619.209, 348.252 619.580 C 350.093 620.164, 350.155 619.805, 349.514 612.347 C 347.644 590.597, 342.483 565.378, 337.003 551.210 C 335.452 547.201, 332.368 541.126, 330.150 537.710 C 327.932 534.295, 324.565 528.125, 322.669 524 C 320.773 519.875, 317.526 512.788, 315.453 508.250 C 313.381 503.712, 311.378 500, 311.003 500 C 310.628 500, 309.818 501.103, 309.204 502.452 C 306.445 508.507, 294.827 509.825, 290.328 504.594 C 289.096 503.163, 287.794 500.419, 287.433 498.496 L 286.777 495 247.903 495 L 209.029 495 207.889 499.526 C 206.021 506.943, 199.111 510.512, 191.488 507.996 C 187.582 506.707, 184.010 502.084, 184.004 498.309 C 183.998 495.031, 182.540 494.765, 181.283 497.812 M 336.791 516 C 338.220 521.500, 339.652 526, 339.974 526 C 341.357 526, 348 518.620, 348 517.082 C 348 514.379, 337.903 506, 334.646 506 C 334.396 506, 335.362 510.500, 336.791 516 M 154.483 510.650 C 145.478 515.200, 144.261 517.635, 147.960 523.701 C 150.284 527.513, 155.788 530.800, 156.473 528.785 C 157.327 526.271, 160.221 508.887, 159.847 508.514 C 159.638 508.304, 157.224 509.266, 154.483 510.650 M 220.682 523.651 C 220.307 524.026, 220 524.715, 220 525.182 C 220 525.649, 232.713 525.912, 248.250 525.766 C 266.240 525.596, 276.500 525.137, 276.500 524.500 C 276.500 523.364, 221.802 522.532, 220.682 523.651 M 205.866 549.394 C 204.393 552.629, 206.302 566.711, 208.906 571.815 C 213.585 580.988, 223.604 586.130, 240.583 588.072 C 260.932 590.400, 281.169 585.136, 287.611 575.839 C 292.214 569.198, 294.618 554.892, 291.965 549.934 C 290.667 547.509, 288.741 547.511, 279.949 549.947 C 276.085 551.018, 267.509 552.452, 260.891 553.134 C 246.388 554.628, 229.821 553.194, 218 549.420 C 208.613 546.423, 207.221 546.420, 205.866 549.394 M 210.363 558.695 C 210.722 561.888, 212.262 566.975, 213.787 570 C 216.223 574.835, 217.324 575.883, 222.900 578.668 C 234.288 584.357, 252.886 585.738, 267.567 581.983 C 277.268 579.502, 282.303 576.287, 285.113 570.778 C 287.199 566.689, 289.041 554, 287.548 554 C 287.149 554, 281.350 554.949, 274.661 556.109 C 264.311 557.903, 259.894 558.140, 245 557.699 C 234.111 557.377, 225.044 556.580, 221 555.590 C 208.266 552.473, 209.620 552.077, 210.363 558.695 M 223.667 637.667 C 222.149 639.185, 223.147 641, 225.500 641 C 227.333 641, 228 640.467, 228 639 C 228 637.049, 225.159 636.175, 223.667 637.667 M 273.500 638.053 C 268.550 638.457, 257.188 638.836, 248.250 638.894 C 235.244 638.979, 232 639.272, 232 640.364 C 232 642.427, 238.450 642.931, 258 642.398 C 275.025 641.934, 289.625 640.708, 290.680 639.654 C 290.966 639.367, 290.904 638.653, 290.541 638.067 C 289.831 636.917, 287.411 636.915, 273.500 638.053 M 155.722 642.611 C 154.309 644.024, 159.693 669.187, 163.034 676.784 C 165.382 682.125, 169.429 684.013, 180.092 684.744 C 195.226 685.781, 203.491 681.272, 210.238 668.295 C 216.040 657.136, 216.051 657.268, 209.293 656.475 C 192.487 654.502, 170.175 649.019, 161.062 644.623 C 158.335 643.307, 155.932 642.402, 155.722 642.611 M 330.255 649.179 C 322.633 651.809, 313.777 653.877, 302.771 655.597 C 293.840 656.992, 286.396 658.271, 286.229 658.438 C 285.719 658.947, 288.185 664.150, 292.273 671.192 C 298.698 682.257, 305.701 686, 319.977 686 C 328.778 686, 336.849 683.930, 339.510 680.989 C 342.185 678.033, 343.955 668.037, 343.979 655.750 C 343.995 647.727, 343.683 645.038, 342.750 645.149 C 342.063 645.232, 336.440 647.045, 330.255 649.179" fill-rule="evenodd"/></svg>