<svg xmlns="http://www.w3.org/2000/svg" version="1.0" preserveAspectRatio="xMidYMid meet" viewBox="14 53.12 996.42 970.88">

<g transform="translate(0.000000,1024.000000) scale(0.100000,-0.100000)" >
<path d="M6577 9704 c-1 -2 -19 -5 -37 -8 -57 -8 -150 -28 -235 -52 -11 -3 -31 -8 -45 -11 -14 -3 -34 -12 -45 -19 -11 -8 -28 -14 -38 -14 -22 0 -263 -118 -337 -165 -63 -40 -124 -92 -349 -292 -31 -29 -43 -33 -90 -33 -66 0 -203 -32 -279 -66 -113 -50 -206 -125 -288 -235 -58 -77 -78 -120 -109 -233 -22 -82 -26 -113 -23 -190 3 -50 8 -98 12 -107 5 -12 -6 -19 -51 -33 -91 -29 -130 -53 -197 -121 -104 -107 -148 -227 -145 -397 1 -94 11 -148 44 -238 62 -175 203 -359 345 -451 l24 -16 -38 -89 c-21 -49 -42 -98 -46 -109 -4 -11 -17 -41 -29 -67 -12 -26 -21 -51 -21 -55 0 -7 -25 -75 -51 -138 -7 -18 -36 -105 -84 -255 -17 -55 -36 -126 -41 -160 -3 -14 -7 -38 -11 -55 -12 -55 -13 -60 -15 -104 -2 -33 -7 -45 -20 -49 -10 -2 -18 -9 -18 -15 0 -6 -3 -8 -6 -4 -18 18 -134 -60 -134 -90 0 -26 47 -25 102 1 67 32 83 33 68 6 -5 -10 -35 -95 -66 -187 -63 -189 -91 -260 -112 -285 -20 -23 -8 -48 22 -48 25 0 76 57 122 138 10 17 21 32 25 32 4 0 4 -87 1 -193 -5 -190 9 -395 33 -507 20 -87 17 -109 -19 -167 -28 -46 -36 -72 -40 -121 -4 -58 -3 -66 22 -93 28 -31 64 -39 114 -25 22 7 29 4 34 -10 22 -62 133 -277 170 -331 24 -34 44 -65 44 -68 0 -14 135 -170 235 -270 206 -208 500 -417 741 -526 38 -17 70 -32 72 -34 2 -1 -14 -31 -34 -65 -20 -35 -54 -102 -76 -149 -22 -47 -46 -99 -53 -116 -46 -98 -75 -168 -75 -179 0 -6 -4 -16 -9 -22 -5 -5 -19 -36 -30 -69 -11 -33 -32 -91 -46 -130 -15 -38 -40 -113 -57 -165 -17 -52 -34 -104 -39 -115 -9 -23 -43 -140 -59 -205 -7 -25 -18 -67 -25 -95 -11 -39 -23 -91 -27 -112 0 -1 -7 -28 -15 -60 -7 -32 -16 -67 -18 -78 -3 -11 -7 -29 -9 -40 -3 -11 -15 -65 -26 -120 -12 -55 -23 -109 -26 -120 -2 -11 -8 -45 -14 -75 -6 -30 -12 -66 -15 -80 -3 -14 -10 -54 -15 -90 -5 -36 -12 -76 -15 -90 -3 -14 -8 -52 -11 -85 -3 -33 -10 -65 -15 -71 -5 -7 -10 -25 -10 -40 0 -16 -1 -54 -2 -84 -5 -150 0 -215 22 -257 11 -23 28 -46 37 -51 14 -8 17 -35 20 -173 1 -90 4 -174 5 -186 1 -21 6 -23 56 -23 l55 0 -6 43 c-7 44 -25 281 -23 284 1 1 37 -4 79 -10 75 -10 180 -2 232 19 18 7 19 3 12 -72 -4 -43 -9 -106 -12 -139 -2 -33 -7 -75 -10 -92 -5 -32 -4 -33 29 -33 33 0 35 2 35 37 1 21 3 57 6 81 6 46 41 421 51 557 4 44 8 94 10 110 3 17 7 57 10 90 8 91 16 135 25 135 4 0 36 -11 71 -24 93 -35 345 -86 500 -101 256 -26 662 -48 729 -41 25 3 90 8 145 11 55 3 111 7 125 9 14 2 45 7 70 10 77 11 136 28 193 57 17 9 24 2 31 -33 2 -7 8 -24 13 -38 8 -19 7 -32 -5 -55 -22 -42 -20 -150 4 -200 10 -22 33 -52 51 -68 41 -36 101 -77 113 -77 5 0 19 -5 32 -10 23 -11 23 -12 19 -166 -2 -86 0 -184 4 -220 l7 -64 44 0 c44 0 44 0 40 33 -2 17 -7 112 -11 209 l-7 177 68 -5 c38 -3 77 -7 88 -9 52 -11 215 20 319 61 17 6 18 2 14 -52 -4 -51 -27 -215 -43 -309 -3 -16 -7 -47 -11 -68 l-6 -37 58 0 c32 0 56 3 52 6 -3 3 -2 16 3 28 4 12 11 51 15 86 3 36 8 79 11 95 2 17 7 95 10 175 6 130 9 149 31 188 22 36 25 52 21 105 -3 41 0 74 10 97 19 44 35 431 27 635 -7 170 -32 458 -46 540 -6 33 -13 71 -15 85 -16 101 -71 339 -104 450 -15 52 -30 104 -33 115 -30 115 -171 455 -258 624 -32 63 -59 118 -59 122 0 4 24 22 53 40 86 54 246 190 337 285 77 81 240 285 240 300 0 4 15 27 34 53 59 80 170 305 211 426 31 93 61 222 71 305 11 93 17 100 42 48 26 -52 66 -93 81 -83 15 9 14 48 -5 163 -18 113 -34 174 -48 184 -7 5 -4 18 8 38 16 28 38 111 52 195 3 17 9 44 14 60 5 17 11 41 14 55 15 79 42 194 77 335 23 88 45 180 50 205 19 96 18 95 115 93 196 -3 360 91 503 291 103 143 166 311 207 551 2 17 7 37 9 45 3 8 9 76 15 151 18 248 -23 540 -105 744 -104 259 -260 454 -447 560 -38 22 -42 27 -44 68 -4 65 -58 222 -103 298 -98 168 -192 269 -346 371 -76 50 -202 112 -250 124 -16 4 -34 10 -40 14 -5 4 -21 10 -35 13 -14 3 -50 12 -80 20 -30 9 -75 19 -100 22 -25 4 -56 9 -70 12 -110 17 -256 23 -360 14 -147 -13 -202 -26 -422 -97 -11 -4 -23 4 -34 22 -36 53 -184 191 -259 239 -142 92 -305 155 -465 180 -81 12 -352 19 -363 9z m368 -128 c37 -8 131 -34 167 -48 15 -5 30 -10 32 -9 10 1 159 -80 221 -119 33 -22 115 -95 183 -164 l123 -125 32 19 c48 28 133 60 217 82 114 30 436 34 580 8 113 -21 259 -57 275 -70 6 -4 43 -20 83 -35 40 -16 77 -34 83 -42 6 -7 16 -13 21 -13 21 0 126 -83 194 -153 119 -122 245 -345 256 -451 3 -27 0 -30 -46 -42 -59 -15 -83 -34 -44 -34 15 0 30 -4 33 -10 3 -5 15 -10 26 -10 52 0 188 -91 280 -186 96 -100 203 -281 258 -438 54 -155 88 -417 75 -586 -5 -52 -7 -98 -6 -102 1 -5 -2 -41 -8 -80 -53 -389 -208 -668 -437 -783 -49 -24 -147 -45 -215 -45 l-38 0 0 55 c0 30 -5 55 -10 55 -6 0 -22 -26 -36 -57 -14 -32 -29 -65 -34 -73 -4 -9 -11 -30 -14 -48 -4 -17 -12 -34 -17 -37 -5 -4 -9 -14 -9 -24 0 -10 -7 -41 -15 -67 -52 -170 -122 -455 -150 -613 -8 -46 -16 -86 -19 -88 -5 -5 -41 15 -81 45 -16 13 -39 30 -50 38 -30 23 -194 124 -200 124 -4 0 -21 11 -39 25 -18 14 -40 25 -49 25 -10 0 -17 4 -17 8 0 5 -19 19 -42 32 -130 71 -180 98 -353 188 -104 55 -219 112 -255 127 -36 15 -92 40 -125 55 -33 15 -87 37 -120 50 -33 12 -80 30 -105 40 -69 28 -216 76 -305 100 -44 12 -91 26 -105 31 -14 5 -36 11 -50 13 -464 91 -549 100 -985 101 -402 0 -614 -15 -825 -60 -14 -3 -56 -10 -95 -15 -38 -6 -99 -17 -135 -26 -36 -8 -76 -17 -90 -20 -84 -16 -369 -102 -461 -139 -15 -5 -15 -1 -2 52 25 107 92 332 123 419 12 32 28 77 35 100 16 48 150 396 170 439 27 58 62 140 75 175 7 19 19 51 28 70 22 50 29 140 10 140 -25 0 -54 -41 -101 -140 -25 -52 -48 -103 -51 -112 -7 -25 -33 -22 -54 4 -9 12 -33 38 -52 57 -104 107 -200 270 -234 400 -22 86 -20 235 3 310 45 137 171 254 299 276 23 4 42 11 42 16 0 5 6 9 13 9 35 1 39 16 17 66 -40 86 -15 265 56 406 39 76 149 196 223 243 87 54 297 106 371 92 25 -6 36 1 87 54 31 33 85 78 118 99 33 22 88 61 122 87 98 75 169 117 293 176 173 82 359 139 505 156 74 9 300 7 350 -3z m-500 -3430 c17 -2 57 -7 90 -10 71 -8 84 -9 240 -35 66 -11 136 -22 155 -25 54 -9 93 -16 112 -22 10 -3 30 -7 45 -10 16 -3 37 -8 48 -11 11 -4 22 -7 25 -8 57 -12 83 -24 120 -55 54 -44 170 -119 224 -144 50 -23 72 -13 68 32 l-3 31 113 -45 c62 -25 133 -55 158 -66 37 -17 246 -118 259 -125 2 -1 5 -13 7 -25 1 -13 9 -59 18 -103 8 -44 18 -100 21 -125 3 -25 8 -56 10 -70 2 -14 7 -52 11 -85 7 -67 17 -100 34 -110 18 -11 67 5 95 31 14 13 30 24 34 24 5 0 39 32 76 71 36 39 69 68 72 65 4 -4 -1 -45 -13 -91 -14 -58 -25 -160 -20 -188 12 -65 67 -52 164 39 31 30 57 52 58 51 1 -1 4 -29 5 -62 4 -79 26 -156 51 -177 33 -29 62 -22 109 27 24 25 46 45 50 45 12 0 18 -57 9 -91 -4 -19 -11 -59 -14 -89 -9 -81 -42 -224 -66 -285 -4 -11 -18 -47 -30 -80 -51 -132 -170 -352 -249 -458 -179 -240 -443 -486 -603 -560 -20 -10 -40 -22 -43 -27 -11 -17 -25 -11 -25 10 0 21 -35 41 -56 33 -6 -2 -23 10 -38 27 -23 27 -26 41 -26 101 0 38 -3 69 -8 69 -12 0 -32 -77 -32 -124 0 -67 33 -101 95 -100 41 1 46 -1 43 -20 -2 -16 -32 -35 -118 -79 -63 -31 -142 -66 -175 -78 -33 -11 -67 -24 -76 -29 -14 -7 -221 -67 -262 -75 -10 -3 -26 -6 -35 -9 -18 -6 -57 -13 -112 -22 -19 -3 -48 -9 -65 -13 -49 -12 -128 -16 -355 -16 -196 0 -241 4 -372 31 -60 13 -187 50 -284 84 -81 29 -371 167 -435 208 -118 75 -148 94 -153 93 -3 0 -16 9 -28 20 -48 42 -178 139 -178 132 -1 -5 -8 4 -16 20 -8 15 -19 27 -24 27 -24 0 -360 367 -360 394 0 3 -13 25 -29 48 -130 193 -231 514 -267 853 -24 220 -13 553 21 688 10 37 19 34 39 -12 10 -21 44 -66 76 -100 48 -53 62 -62 86 -59 25 3 29 7 27 33 -1 17 -5 111 -8 210 -4 99 -11 193 -17 208 -14 35 -7 41 77 61 33 8 85 21 115 30 30 8 69 17 87 19 17 3 36 7 40 10 5 3 27 8 48 11 71 10 104 15 133 21 15 3 50 8 77 11 28 3 57 8 65 10 8 3 33 7 55 10 22 2 65 7 95 10 77 10 83 10 195 19 55 4 102 9 104 11 5 5 600 -4 636 -10z m-1780 -196 c4 -6 3 -19 -1 -28 -12 -28 -14 -52 -16 -169 -2 -124 -2 -124 -56 -13 -12 25 -30 50 -41 57 -17 11 -21 8 -32 -20 -7 -18 -19 -36 -26 -40 -8 -5 -27 -27 -43 -49 -27 -37 -30 -39 -30 -17 0 14 4 29 9 35 7 8 30 95 46 176 4 20 13 29 33 33 15 3 52 14 82 25 66 23 67 23 75 10z m3571 -359 c10 -10 58 -38 144 -84 70 -37 85 -51 74 -70 -12 -20 -197 -225 -205 -226 -4 -1 -9 47 -12 107 -3 62 -14 139 -26 182 -11 41 -21 81 -21 88 0 14 31 16 46 3z m411 -241 c41 -27 77 -50 81 -50 13 0 192 -125 192 -135 0 -6 -18 -32 -40 -58 -21 -27 -56 -71 -77 -99 l-38 -52 -6 40 c-4 21 -12 78 -19 127 -7 48 -16 87 -21 87 -5 0 -9 16 -9 35 0 19 -4 35 -9 35 -12 0 -99 -85 -139 -134 -17 -22 -34 -38 -36 -35 -3 3 3 38 14 79 10 42 17 101 16 135 -3 59 0 75 11 75 3 0 39 -22 80 -50z m350 -325 c-2 -30 -6 -57 -8 -60 -3 -3 -16 16 -29 42 -22 44 -22 47 -5 60 36 26 45 17 42 -42z m-4537 -437 c6 -24 14 -52 19 -63 19 -48 30 -89 25 -96 -9 -15 -67 -10 -86 8 -28 25 -24 67 17 181 8 21 14 13 25 -30z m3543 -1400 c30 -62 64 -135 76 -163 12 -27 29 -63 36 -78 8 -16 15 -33 15 -38 0 -5 8 -28 19 -52 10 -23 32 -78 49 -122 26 -71 36 -102 71 -220 8 -26 27 -105 61 -250 9 -37 15 -69 24 -120 2 -11 7 -38 11 -60 8 -48 11 -65 20 -128 4 -27 8 -57 10 -67 2 -10 7 -51 10 -92 4 -40 8 -88 10 -106 2 -18 6 -85 10 -150 4 -64 8 -137 10 -162 6 -77 7 -301 2 -306 -2 -3 -26 -7 -53 -10 -27 -2 -87 -10 -134 -16 -87 -13 -455 -16 -500 -6 -14 3 -46 11 -72 18 l-46 12 -7 96 c-13 198 -47 562 -66 712 -21 169 -35 253 -75 450 -32 160 -81 266 -114 245 -15 -9 -12 -54 9 -163 19 -95 26 -135 37 -237 3 -27 7 -56 10 -64 2 -8 7 -37 10 -65 2 -28 6 -60 9 -71 4 -18 7 -44 20 -145 2 -19 7 -64 10 -100 3 -36 8 -75 10 -86 3 -12 7 -52 10 -90 3 -38 7 -85 10 -104 2 -19 7 -75 10 -125 4 -49 8 -96 11 -104 2 -7 7 -62 10 -121 8 -126 19 -114 -121 -125 -44 -3 -129 -10 -190 -15 -254 -22 -887 -1 -1070 35 -11 2 -30 4 -42 4 -52 2 -67 136 -43 391 5 58 12 132 15 165 3 33 7 71 10 85 4 27 10 72 20 160 3 30 8 65 11 78 2 12 7 44 9 70 3 26 7 56 10 68 6 28 14 80 20 129 2 22 6 56 9 75 3 19 8 56 12 83 4 32 12 51 25 58 37 19 214 162 194 156 -99 -30 -131 -47 -162 -82 l-33 -38 -1 34 c-1 23 -3 27 -6 12 -2 -13 -9 -23 -14 -23 -14 0 -36 -56 -44 -110 -4 -25 -8 -47 -10 -50 -2 -3 -6 -30 -9 -60 -4 -30 -11 -75 -16 -100 -5 -25 -11 -65 -14 -90 -2 -25 -7 -52 -9 -60 -3 -8 -8 -37 -11 -65 -2 -27 -7 -63 -10 -80 -7 -37 -13 -82 -26 -204 -5 -51 -12 -96 -14 -100 -7 -11 -21 -241 -20 -316 2 -62 6 -77 34 -118 18 -27 30 -50 28 -52 -4 -4 -222 42 -248 52 -8 4 -35 14 -60 23 -49 18 -52 26 -36 115 9 53 25 153 30 190 2 17 16 91 30 165 33 174 32 165 49 235 8 33 29 123 47 200 18 77 43 180 55 229 23 92 29 226 10 232 -29 10 -42 -21 -106 -251 -56 -204 -131 -516 -149 -624 -19 -109 -50 -368 -50 -413 0 -10 -7 -18 -16 -18 -12 0 -14 -5 -8 -17 4 -10 7 -27 6 -38 -5 -64 -24 -257 -30 -300 l-7 -50 -73 2 c-141 4 -292 33 -326 64 -16 14 104 630 193 987 57 228 190 653 212 677 5 5 9 15 9 23 0 19 46 138 94 245 14 32 26 61 26 65 0 4 7 21 16 37 8 17 29 61 45 99 61 144 74 166 92 166 10 0 59 -15 110 -34 51 -19 126 -42 167 -51 80 -19 100 -29 100 -51 0 -13 30 -78 86 -182 33 -62 36 -57 -91 -123 -44 -22 -98 -51 -120 -65 -22 -13 -47 -27 -55 -30 -36 -17 -100 -77 -100 -95 0 -29 38 -24 95 12 27 17 110 60 185 96 454 219 670 325 735 363 72 42 90 50 108 50 49 0 380 91 467 128 19 8 46 19 60 24 78 31 279 129 286 140 3 4 14 8 24 8 14 0 32 -28 73 -112z m-1372 -223 c137 0 175 -3 172 -12 -3 -7 -11 -13 -18 -13 -7 0 -88 -38 -181 -85 -92 -46 -169 -83 -170 -82 -4 4 -94 200 -94 204 0 3 26 1 58 -3 31 -5 136 -9 233 -9z m1806 -2061 c-3 -79 -9 -120 -18 -129 -38 -35 -279 -56 -420 -36 -94 13 -207 48 -288 89 -53 27 -55 29 -66 85 -13 63 -13 62 50 47 124 -31 365 -33 505 -4 68 14 158 39 180 51 14 7 33 13 44 13 17 0 18 -8 13 -116z m-772 -154 c13 -21 131 -71 222 -95 166 -42 364 -36 480 15 47 20 53 18 53 -20 0 -48 -59 -86 -184 -120 -110 -31 -330 -30 -388 1 -9 5 -23 9 -32 9 -24 0 -132 67 -149 94 -20 30 -34 126 -19 126 6 0 13 -4 17 -10z m-2373 -75 c54 -16 109 -23 180 -24 56 -1 104 -4 107 -6 2 -3 0 -58 -5 -122 l-9 -118 -115 0 c-133 1 -220 17 -257 49 -28 24 -29 32 -25 184 2 71 3 73 25 66 12 -4 57 -17 99 -29z"/>
<path d="M6005 7526 c-56 -11 -43 -13 200 -20 143 -4 274 -9 290 -10 17 -2 73 -7 125 -11 167 -12 81 14 -130 40 -96 12 -429 13 -485 1z"/>
<path d="M5935 7384 c-104 -7 -259 -25 -290 -34 -16 -5 -46 -11 -65 -14 -88 -13 -210 -47 -210 -58 0 -5 3 -7 8 -5 8 6 67 16 185 32 27 4 59 9 70 11 40 8 280 19 427 19 161 0 478 -13 489 -20 7 -4 52 -11 173 -29 21 -3 57 -10 80 -15 24 -5 63 -12 88 -16 25 -3 63 -11 85 -17 39 -10 55 -13 105 -23 14 -3 36 -7 50 -10 14 -3 41 -8 60 -11 19 -3 42 -7 50 -10 8 -3 26 -8 40 -10 67 -12 272 -79 415 -136 119 -47 360 -167 440 -218 17 -11 37 -23 45 -27 8 -4 26 -14 40 -23 14 -9 50 -32 80 -52 163 -104 297 -196 356 -245 22 -17 54 -44 73 -60 19 -15 61 -52 93 -82 32 -30 69 -62 81 -70 12 -8 33 -25 47 -38 90 -83 -65 113 -174 219 -32 32 -63 55 -67 52 -5 -3 -9 -1 -9 4 0 13 -127 109 -249 187 -9 6 -54 36 -101 66 -47 30 -92 59 -100 63 -8 4 -24 12 -35 19 -11 7 -38 24 -60 37 -23 14 -50 31 -60 38 -22 14 -274 137 -349 171 -70 32 -293 105 -356 117 -8 2 -33 7 -55 13 -22 5 -58 13 -80 17 -22 4 -42 8 -45 9 -3 1 -25 5 -50 9 -25 5 -54 10 -65 13 -11 2 -54 11 -95 19 -41 8 -93 19 -115 24 -22 4 -65 13 -95 19 -54 10 -80 15 -130 26 -129 28 -543 50 -725 39z"/>
<path d="M7820 7241 c135 -51 205 -83 318 -148 41 -24 75 -43 77 -43 2 0 50 -31 107 -69 56 -38 106 -67 110 -65 5 3 8 1 8 -5 0 -6 34 -34 76 -63 139 -96 232 -162 318 -225 46 -35 88 -63 92 -63 5 0 -33 40 -84 89 -183 178 -517 418 -704 505 -128 59 -258 100 -353 111 -33 4 -28 0 35 -24z"/>
<path d="M5420 5986 c-108 -74 -123 -89 -116 -114 4 -12 14 -22 22 -22 21 0 121 49 168 82 54 39 71 65 56 83 -22 26 -63 16 -130 -29z"/>
<path d="M7354 5501 c-33 -8 -146 -60 -154 -70 -3 -4 -21 -19 -41 -34 -44 -33 -132 -160 -149 -214 -6 -21 -14 -45 -17 -53 -12 -31 -16 -67 -17 -145 -1 -121 15 -183 60 -242 l24 -32 -45 -42 c-35 -32 -45 -49 -45 -73 0 -41 32 -91 70 -111 37 -19 121 -26 166 -13 25 6 48 4 93 -12 42 -14 94 -21 173 -23 135 -5 178 -21 203 -77 20 -45 23 -68 25 -208 3 -197 39 -272 130 -272 41 0 51 4 74 32 30 37 49 96 42 130 -3 13 -8 40 -11 60 -2 21 -10 59 -16 85 -31 137 -31 166 2 251 37 93 37 140 3 181 -14 17 -34 31 -45 31 -10 0 -19 5 -19 10 0 6 -6 10 -14 10 -27 0 -29 22 -4 44 90 78 133 235 104 375 -41 194 -182 358 -346 402 -54 15 -203 21 -246 10z m-34 -826 c28 -14 39 -15 76 -5 56 16 288 5 363 -17 63 -18 120 -47 139 -71 18 -24 15 -69 -13 -150 -14 -41 -25 -87 -25 -104 0 -30 25 -154 39 -193 4 -11 8 -53 10 -93 2 -68 1 -74 -28 -102 -44 -45 -87 -37 -117 22 -14 27 -16 55 -11 173 11 289 -29 346 -261 366 -95 9 -123 15 -147 33 -35 26 -73 38 -81 25 -3 -5 0 -9 5 -9 6 0 11 -6 11 -14 0 -13 -59 -26 -121 -26 -39 0 -99 54 -99 89 0 32 43 77 86 91 41 13 135 5 174 -15z"/>
<path d="M7595 4641 c-40 -10 -115 -49 -115 -60 0 -14 34 -38 63 -45 24 -6 27 -3 27 18 0 35 25 50 77 47 52 -2 97 -22 112 -48 9 -17 10 -17 17 1 21 55 -92 110 -181 87z"/>
<path d="M5116 5470 c-157 -69 -272 -205 -314 -370 -4 -14 -7 -74 -6 -135 0 -124 19 -205 59 -253 32 -38 31 -44 -3 -64 -36 -21 -80 -84 -88 -125 -4 -23 0 -43 17 -72 12 -23 26 -41 29 -41 4 0 28 -18 53 -40 63 -56 79 -108 86 -286 6 -131 8 -144 33 -181 27 -42 52 -54 131 -68 29 -5 40 -12 48 -33 12 -31 38 -91 47 -110 4 -7 20 -21 35 -30 28 -17 29 -17 59 18 27 32 29 39 23 85 -6 47 -20 87 -50 145 -7 14 -20 55 -29 92 -17 66 -16 68 6 115 21 43 23 63 23 186 l0 139 29 25 c29 24 33 25 120 18 50 -4 108 -7 128 -6 48 2 104 35 124 72 12 25 13 33 0 63 -8 18 -28 42 -45 52 -34 20 -37 27 -18 46 88 91 130 279 93 421 -37 141 -140 270 -263 329 -60 29 -79 33 -163 36 -87 2 -101 0 -164 -28z m108 -785 c68 -30 76 -31 118 -5 65 39 179 21 240 -38 28 -28 33 -77 11 -99 -17 -17 -30 -19 -94 -15 -114 6 -132 5 -176 -14 -67 -29 -82 -67 -82 -205 1 -93 -3 -124 -20 -167 -12 -29 -21 -63 -21 -75 0 -12 23 -89 51 -171 42 -121 50 -154 42 -179 -4 -17 -14 -32 -20 -34 -13 -5 -56 59 -66 97 -12 48 -45 90 -71 90 -121 0 -156 58 -152 247 4 150 -19 232 -91 321 -59 73 -58 101 5 160 45 42 119 86 172 103 47 14 98 9 154 -16z"/>
<path d="M5023 4621 c-25 -21 -42 -59 -36 -78 6 -17 23 -17 23 0 0 7 9 23 20 35 41 44 143 17 124 -33 -6 -15 -3 -16 17 -10 41 12 51 28 34 52 -35 50 -140 69 -182 34z"/>
<path d="M6200 3907 c-25 -13 -58 -32 -74 -42 -29 -19 -86 -90 -86 -107 0 -14 34 -9 60 9 55 39 127 65 195 70 63 5 77 2 135 -25 36 -16 89 -51 119 -76 61 -53 81 -50 61 9 -15 46 -98 127 -160 156 -69 33 -191 36 -250 6z"/>
<path d="M7804 3713 c-21 -52 -29 -93 -16 -93 16 0 29 22 35 60 3 19 8 43 12 53 14 35 -15 16 -31 -20z"/>
<path d="M7908 3041 c-72 -36 -172 -128 -236 -217 -24 -33 -82 -147 -82 -161 0 -2 27 29 60 70 33 41 116 129 185 195 146 140 154 153 73 113z"/>
<path d="M6026 2890 c6 -67 41 -146 83 -189 17 -17 31 -27 31 -22 0 5 -4 13 -10 16 -5 3 -10 13 -10 20 0 8 -20 55 -44 105 -25 49 -47 98 -50 107 -3 10 -3 -7 0 -37z"/>
<path d="M6835 2495 c-55 -12 -122 -29 -150 -38 -27 -9 -84 -25 -125 -37 -117 -34 -140 -41 -140 -46 0 -2 10 -2 23 0 12 3 54 10 92 17 139 24 374 94 399 119 5 5 8 9 6 9 -3 -1 -50 -12 -105 -24z"/>
<path d="M6256 2254 c-46 -47 -27 -114 33 -114 32 0 71 37 71 67 0 27 -37 73 -59 73 -10 0 -30 -12 -45 -26z"/>
<path d="M7140 2253 c-34 -23 -40 -33 -38 -66 3 -38 52 -80 82 -71 65 20 86 86 40 129 -32 29 -51 31 -84 8z"/>
<path d="M6166 1638 c-34 -49 -7 -108 49 -108 60 0 86 67 42 108 -30 29 -71 28 -91 0z"/>
<path d="M7115 1635 c-34 -33 -33 -77 2 -110 42 -38 84 -32 109 16 18 36 10 73 -23 99 -34 27 -59 25 -88 -5z"/>
<path d="M7120 1213 c-43 -30 -5 -123 50 -123 27 0 60 34 60 63 0 54 -67 90 -110 60z"/>
<path d="M6136 1198 c-20 -28 -20 -38 3 -67 15 -20 24 -23 53 -17 50 9 65 45 35 80 -28 33 -70 34 -91 4z"/>
<path d="M1149 6486 c-2 -2 -23 -6 -45 -9 -47 -7 -130 -50 -155 -81 -14 -17 -19 -18 -33 -7 -40 33 -180 47 -253 25 -90 -27 -163 -90 -199 -171 -18 -41 -30 -54 -51 -59 -138 -30 -273 -220 -273 -382 0 -39 34 -135 61 -173 32 -45 94 -80 145 -82 54 -2 52 10 35 -172 -14 -153 -19 -213 -26 -301 -2 -39 -13 -91 -23 -115 -43 -100 -55 -161 -55 -289 0 -102 4 -136 21 -187 25 -70 42 -112 57 -132 26 -37 142 -142 162 -147 13 -4 23 -9 23 -13 0 -12 74 -43 78 -33 3 10 102 -17 102 -27 0 -3 -15 -22 -33 -41 -155 -163 -247 -387 -247 -599 0 -50 -4 -92 -9 -95 -4 -3 -14 -27 -21 -53 -7 -27 -16 -52 -20 -58 -9 -12 -18 -49 -25 -101 -3 -21 -12 -68 -20 -104 -19 -87 -24 -121 -31 -215 -4 -69 -2 -84 15 -113 15 -23 28 -32 48 -32 l28 0 0 -92 c0 -108 4 -132 44 -334 35 -173 49 -220 82 -269 28 -41 76 -55 116 -34 54 29 124 176 153 324 5 28 12 61 15 75 13 62 25 149 27 199 l3 54 183 2 183 3 -5 -36 c-35 -225 -28 -459 17 -602 46 -148 192 -75 251 124 13 45 30 116 36 159 7 43 17 80 21 83 9 5 26 -49 35 -111 21 -138 99 -255 182 -271 49 -10 76 25 100 132 11 49 23 124 27 166 3 42 8 86 10 96 8 45 18 174 19 258 l1 92 165 5 c91 2 176 8 190 11 14 3 51 10 82 15 31 6 66 15 77 20 38 21 44 14 37 -41 -10 -81 -18 -219 -30 -523 -4 -81 -29 -109 -81 -89 -27 11 -64 98 -79 189 -3 17 -10 86 -16 155 -16 180 -17 187 -33 210 -13 19 -15 19 -29 3 -13 -15 -15 -42 -13 -148 2 -71 6 -141 10 -155 3 -14 10 -53 15 -87 17 -107 77 -211 136 -233 51 -20 124 30 145 99 24 78 32 568 10 609 -16 30 -14 36 18 55 43 25 51 22 40 -15 -13 -48 -11 -138 5 -189 10 -28 17 -111 20 -234 4 -119 11 -210 20 -245 9 -30 22 -80 29 -110 28 -108 89 -190 142 -190 37 0 95 58 126 126 99 217 163 547 124 637 -6 16 2 17 96 18 57 0 124 3 149 5 56 6 198 33 225 44 11 4 33 13 49 19 41 17 40 19 50 -101 4 -40 8 -86 10 -103 12 -91 20 -215 20 -333 1 -121 -1 -135 -18 -148 -11 -8 -26 -14 -33 -14 -21 0 -67 55 -82 98 -7 20 -19 51 -26 67 -19 45 -40 121 -60 210 -28 130 -55 215 -69 215 -19 0 -34 -22 -31 -45 18 -174 68 -372 117 -469 67 -133 164 -184 221 -116 39 46 51 95 51 215 1 105 -12 333 -19 345 -3 4 -14 73 -31 191 -3 21 4 31 34 50 30 20 38 31 40 62 4 41 -32 177 -56 215 -19 30 -12 35 68 55 110 26 310 145 310 184 0 21 -85 56 -165 67 -22 4 -53 8 -70 11 -16 2 -61 7 -99 10 -37 3 -72 7 -76 10 -4 3 -11 26 -15 51 -8 57 -24 95 -47 112 -10 7 -18 20 -18 29 0 21 -66 160 -85 179 -8 9 -15 24 -15 34 0 11 -7 23 -16 28 -33 19 -11 46 51 63 75 20 148 54 171 80 9 10 20 19 25 19 4 0 17 -44 29 -97 12 -54 26 -114 31 -134 5 -20 9 -46 9 -58 0 -31 29 -71 51 -71 25 0 36 24 50 106 22 136 24 162 22 404 -2 221 -8 302 -39 520 -2 19 -15 73 -28 120 -27 95 -36 146 -50 270 -4 30 -9 66 -12 78 -3 13 -7 43 -10 65 -10 82 -49 292 -54 292 -1 0 -3 8 -5 18 -4 20 2 26 78 82 84 61 144 167 167 293 34 188 -62 400 -210 464 -102 45 -283 30 -373 -30 l-38 -25 -27 26 c-15 14 -54 38 -87 54 -54 25 -70 28 -170 28 -100 0 -116 -3 -172 -29 -41 -19 -81 -48 -118 -87 l-56 -59 -40 32 c-76 61 -219 48 -307 -27 -43 -37 -62 -44 -62 -21 0 27 -139 119 -196 131 -112 22 -212 9 -275 -36 -27 -19 -59 -25 -59 -11 0 13 -52 39 -94 46 -29 6 -43 3 -56 -9 -17 -16 -20 -16 -44 2 -14 10 -28 25 -31 33 -10 27 -92 81 -167 109 -64 25 -169 46 -179 37z m141 -110 c34 -14 85 -42 114 -63 57 -40 143 -142 152 -180 4 -13 10 -23 14 -23 12 0 23 75 15 110 -6 26 -4 30 13 30 31 0 89 -74 102 -132 19 -76 5 -189 -31 -265 -37 -77 -76 -122 -159 -181 l-65 -47 32 -3 c36 -4 38 -11 48 -167 11 -181 19 -256 31 -312 8 -41 -1 -42 -99 -8 -40 13 -91 27 -114 30 -23 3 -54 10 -68 15 -46 18 -274 29 -390 20 -136 -10 -395 -72 -432 -102 -13 -10 -36 -2 -29 10 2 4 7 32 11 62 3 30 9 69 11 85 3 17 7 99 8 184 l2 154 80 2 c57 0 88 6 110 19 29 18 32 18 65 1 59 -31 152 -31 243 -1 43 15 79 25 80 24 30 -72 152 -89 196 -28 11 15 20 31 20 34 0 11 -28 6 -39 -8 -18 -21 -77 -27 -116 -10 -42 17 -43 27 -10 70 25 33 33 64 16 64 -5 0 -32 -14 -59 -30 -88 -55 -160 -79 -227 -76 -33 2 -71 10 -85 17 -52 30 -70 44 -70 56 0 7 -4 13 -9 13 -5 0 -11 10 -13 22 -2 12 -8 23 -14 25 -17 6 -22 -52 -8 -79 8 -13 13 -26 14 -30 0 -15 -67 -34 -118 -33 -42 1 -59 8 -91 33 -22 18 -42 32 -45 32 -10 0 -6 -40 5 -62 10 -19 0 -37 -22 -38 -18 0 -75 50 -92 80 -25 45 -35 157 -17 202 37 93 54 120 107 167 58 52 86 63 97 36 3 -8 12 -15 21 -15 8 0 15 -4 15 -10 0 -12 10 -13 29 -1 12 8 12 12 2 25 -11 13 -11 25 -1 68 23 93 118 173 220 182 47 4 137 -14 148 -30 9 -12 111 -48 118 -41 3 2 -7 14 -21 25 -30 24 -27 35 18 59 94 51 193 57 287 19z m1872 -113 c46 -22 88 -53 142 -107 73 -73 76 -74 76 -46 0 16 -9 46 -20 65 -11 20 -18 40 -15 45 18 29 189 51 262 34 97 -22 147 -69 189 -177 24 -62 26 -78 22 -165 -7 -129 -31 -191 -107 -273 -53 -57 -165 -139 -176 -128 -2 3 2 23 10 44 17 47 19 81 6 90 -11 6 -51 -33 -51 -51 0 -17 -87 -94 -125 -110 -64 -27 -155 -10 -191 35 -18 23 -35 5 -24 -25 6 -14 8 -30 5 -35 -4 -5 1 -6 9 -3 9 3 32 -3 51 -15 57 -34 146 -31 215 6 53 29 170 54 170 36 3 -48 13 -138 20 -178 5 -27 12 -78 15 -112 3 -34 7 -70 9 -80 2 -10 7 -40 11 -68 11 -78 13 -88 19 -125 4 -19 9 -43 12 -53 6 -19 1 -19 -141 -2 -286 34 -733 40 -818 10 -12 -4 -35 -9 -117 -26 -25 -4 -90 -25 -145 -44 -55 -20 -107 -39 -116 -42 -19 -6 -19 -5 5 197 3 19 7 58 10 85 4 28 9 73 12 100 6 51 8 119 6 188 -2 40 -20 49 -42 22 -19 -23 -68 -10 -109 29 -83 77 -98 225 -32 319 26 37 36 40 85 21 22 -8 20 15 -2 35 -44 40 -55 71 -48 143 10 118 80 227 170 267 48 21 126 19 166 -5 29 -16 109 -120 124 -159 2 -5 6 -8 8 -5 3 3 1 36 -5 75 l-10 69 56 51 c30 27 84 62 119 77 54 24 74 27 143 25 66 -3 93 -9 147 -34z m-1116 -28 c41 -14 101 -51 158 -98 l28 -23 -25 -50 c-22 -43 -35 -94 -43 -159 -1 -11 2 -42 7 -68 8 -45 6 -52 -22 -93 -35 -52 -69 -144 -69 -188 0 -17 7 -56 15 -86 8 -30 15 -62 15 -71 0 -22 -48 -31 -94 -18 -32 9 -36 14 -36 43 l0 33 -49 -24 c-76 -38 -144 -40 -213 -8 -32 15 -60 34 -63 45 -4 11 -11 20 -16 20 -5 0 -9 8 -9 17 0 14 -3 14 -12 5 -10 -10 -9 -19 5 -43 21 -37 22 -59 2 -59 -23 0 -42 40 -49 100 -4 30 -9 71 -12 91 -5 35 -3 37 50 69 56 34 146 138 146 169 0 10 4 21 10 27 10 10 24 98 24 149 0 41 -11 132 -18 143 -9 16 26 54 68 73 50 23 144 25 202 4z m-66 -857 c0 -33 107 -51 130 -23 17 21 25 19 57 -11 36 -34 96 -64 126 -64 23 0 52 -22 43 -31 -3 -3 -7 -17 -10 -32 -17 -92 -26 -149 -31 -202 -13 -137 -12 -137 -101 -110 -66 20 -285 14 -369 -10 -33 -9 -66 -18 -73 -19 -8 0 -27 24 -44 54 -16 30 -39 66 -52 80 -20 22 -25 45 -40 180 -9 85 -16 160 -16 166 0 20 82 24 130 8 62 -22 131 -20 177 4 45 23 73 27 73 10z m-736 -269 c39 -6 76 -12 81 -14 6 -1 28 -5 50 -10 22 -4 65 -14 95 -22 30 -9 66 -17 80 -20 15 -3 36 -20 49 -39 13 -19 27 -34 32 -34 5 0 9 -8 9 -17 0 -10 7 -27 16 -38 31 -41 68 -206 79 -352 2 -17 6 -55 10 -84 7 -48 9 -51 21 -34 8 10 14 40 14 66 0 42 3 48 38 73 65 45 133 128 114 140 -5 3 -20 -4 -33 -15 -51 -45 -106 -89 -112 -89 -5 0 -13 41 -22 119 -3 25 -7 47 -10 49 -13 14 19 40 56 46 111 18 449 29 462 16 5 -4 14 -76 16 -127 2 -27 38 -33 97 -18 31 8 63 20 70 26 8 6 21 9 29 5 12 -4 13 -11 4 -33 -13 -33 -16 -73 -24 -348 -6 -202 -7 -211 -31 -242 -13 -17 -24 -35 -24 -40 -1 -22 -93 -64 -167 -77 -147 -25 -446 -15 -538 19 -118 44 -177 90 -201 155 -10 27 -21 47 -26 44 -22 -14 6 -183 38 -228 14 -20 14 -20 14 5 0 14 3 29 6 32 6 5 124 -53 146 -72 4 -4 -4 -29 -17 -55 -14 -27 -25 -57 -25 -66 0 -9 -5 -21 -11 -27 -6 -6 -9 -21 -7 -34 3 -23 5 -22 22 11 10 19 22 37 25 40 3 3 17 25 30 50 33 62 35 63 86 66 51 2 52 0 57 -96 3 -48 1 -55 -14 -52 -23 4 -23 -7 3 -148 21 -112 39 -160 60 -160 20 0 121 -54 128 -69 13 -25 21 -95 13 -107 -8 -13 -62 -12 -127 2 -22 4 -45 7 -52 6 -6 -2 -13 8 -15 20 -2 14 -11 24 -23 26 -11 2 -29 7 -40 12 -11 5 -31 11 -45 14 -20 4 -28 15 -39 53 -18 63 -33 110 -72 213 -17 47 -38 103 -46 125 -48 131 -112 240 -191 326 -29 31 -52 59 -52 62 0 4 17 14 38 24 46 22 115 67 132 88 19 23 27 18 34 -18 7 -38 54 -86 106 -109 44 -20 181 -41 192 -30 10 10 -19 72 -33 72 -13 0 -11 41 4 73 10 23 16 26 47 21 27 -5 39 -1 54 15 39 43 -13 108 -68 83 -16 -7 -27 -24 -34 -55 -8 -28 -21 -50 -37 -61 -30 -20 -32 -39 -5 -73 36 -46 4 -56 -80 -24 -65 25 -120 67 -120 91 0 11 13 40 30 66 32 51 56 125 71 218 11 64 -7 186 -36 250 -13 28 -14 20 -10 -87 3 -72 0 -138 -7 -170 l-12 -52 -6 55 c-6 59 -46 143 -92 193 -16 16 -28 32 -28 37 0 12 -198 200 -211 200 -7 0 -9 -9 -5 -27 20 -81 21 -77 -28 -91 -80 -21 -83 -19 -84 44 0 30 -3 58 -6 61 -3 4 -28 -16 -54 -44 -52 -54 -158 -130 -168 -120 -4 3 3 26 15 50 11 24 21 46 21 50 0 18 -32 3 -76 -35 -67 -59 -110 -88 -129 -88 -14 0 -13 4 4 26 20 26 29 74 13 74 -11 0 -124 -118 -166 -174 -20 -27 -44 -65 -52 -85 -16 -36 -16 -36 -25 -11 -16 40 -8 155 17 245 l6 20 -14 -20 c-55 -77 -81 -264 -44 -319 28 -44 51 -33 97 47 49 84 92 127 124 127 13 0 27 5 30 10 3 6 14 10 24 10 10 0 35 12 57 26 34 23 39 24 50 10 23 -32 88 -15 164 44 61 47 64 47 56 6 -4 -20 -3 -36 2 -36 25 0 132 44 148 61 9 10 21 19 26 19 13 0 9 -33 -7 -54 -39 -52 6 -63 55 -14 l33 32 74 -79 c157 -170 173 -286 54 -405 -68 -68 -184 -121 -296 -135 -102 -13 -211 -22 -240 -21 -30 1 -30 0 -37 -64 -4 -36 -8 -109 -9 -163 -1 -85 -3 -98 -17 -95 -15 3 -16 17 -13 113 1 61 6 132 11 158 4 26 4 49 1 51 -3 2 -24 7 -46 10 -100 16 -183 54 -240 111 -40 40 -105 155 -105 187 0 9 -5 20 -11 24 -17 10 -5 -126 14 -162 8 -16 18 -45 22 -64 l7 -35 -28 25 c-44 39 -57 58 -91 141 -62 152 -66 318 -13 504 6 22 15 53 18 70 6 24 17 33 57 48 97 36 140 47 290 74 131 24 353 24 499 2z m1850 -278 c4 -5 2 -31 -4 -58 -5 -26 -12 -86 -15 -133 -5 -78 -7 -86 -36 -112 -57 -52 -71 -34 -45 58 20 69 29 134 19 134 -10 0 -62 -108 -74 -153 -4 -18 -17 -65 -29 -104 -11 -40 -23 -90 -26 -110 -3 -21 -9 -51 -14 -68 -4 -16 -11 -52 -14 -80 -8 -63 -13 -97 -22 -160 -4 -27 -9 -57 -10 -65 -9 -68 -47 -216 -67 -260 l-24 -55 -8 59 c-7 54 0 522 10 646 7 86 15 149 22 168 4 12 3 14 -5 7 -17 -16 -57 -198 -67 -306 -5 -56 -5 -510 0 -565 2 -28 9 -80 15 -116 8 -54 7 -71 -5 -94 -8 -16 -15 -35 -15 -42 0 -21 -33 -72 -46 -72 -6 0 -19 -9 -29 -20 -23 -25 -42 -26 -49 -2 -11 34 -16 188 -20 722 -6 605 -3 696 25 711 37 19 227 54 379 68 122 12 148 12 154 2z m208 -17 c93 -16 345 -16 393 1 28 9 42 -20 55 -110 28 -195 32 -227 26 -242 -11 -28 -34 5 -40 57 -10 86 -50 195 -83 222 -15 12 -15 9 -9 -27 4 -22 11 -44 16 -50 20 -26 37 -155 20 -155 -30 0 -226 126 -330 212 l-64 54 -69 -73 c-38 -40 -73 -73 -78 -73 -8 0 -3 158 7 188 5 16 45 15 156 -4z m45 -145 c51 -54 139 -123 198 -155 11 -6 29 -15 40 -22 11 -6 41 -21 68 -33 46 -22 47 -23 47 -71 l0 -48 -32 20 c-40 24 -56 25 -80 3 -25 -22 -23 -61 5 -84 29 -24 48 -24 80 1 14 11 27 20 30 20 7 0 -3 -138 -14 -197 -8 -41 -18 -59 -48 -86 -72 -65 -203 -111 -341 -119 l-55 -3 -25 -52 c-29 -61 -55 -69 -65 -21 -5 21 -4 33 4 36 17 6 13 30 -6 36 -10 3 -36 8 -58 10 -91 12 -112 17 -160 34 -46 16 -50 21 -53 53 -2 20 7 83 19 140 12 57 25 124 29 150 10 57 28 121 37 134 5 6 32 26 61 44 28 18 52 37 52 42 0 5 7 9 16 9 19 0 134 118 134 137 0 7 5 13 10 13 6 0 10 7 10 15 0 8 4 15 9 15 5 0 11 9 14 20 3 11 7 20 10 20 3 0 32 -28 64 -61z m439 -337 c3 -215 3 -572 1 -599 -4 -41 -14 -52 -21 -22 -3 13 -17 72 -31 130 -31 131 -31 130 -1 213 22 60 25 84 25 209 -1 173 -2 164 14 148 7 -7 12 -40 13 -79z m-2964 -228 c-5 -61 -3 -284 3 -294 6 -9 205 -6 315 5 25 3 72 7 106 10 l60 6 11 -168 c7 -92 11 -169 10 -170 -2 -1 -47 -3 -102 -4 -132 -2 -345 -21 -364 -33 -4 -3 -24 0 -45 6 l-37 12 4 155 c4 168 2 191 -19 191 -19 0 -29 -60 -28 -182 0 -104 -1 -107 -24 -113 -35 -9 -23 -25 51 -70 66 -40 117 -82 117 -96 0 -12 -62 -109 -70 -109 -14 0 -116 32 -147 46 -17 8 -35 14 -40 14 -5 0 -26 14 -47 32 -113 93 -107 261 18 518 47 96 96 169 155 228 55 58 77 62 73 16z m338 33 c0 -13 -44 -87 -65 -109 -33 -35 -61 -38 -50 -5 4 12 10 41 12 64 3 28 10 43 21 46 20 6 82 8 82 4z m150 -19 c0 -6 17 -31 38 -57 73 -89 131 -196 177 -321 52 -145 50 -128 21 -155 -15 -14 -31 -25 -35 -25 -10 0 -21 -35 -21 -65 0 -17 2 -17 13 5 14 29 61 54 83 46 18 -7 53 -82 54 -113 0 -28 -26 -30 -85 -7 -22 9 -65 20 -95 25 -30 6 -68 15 -83 22 -24 10 -27 16 -20 37 10 30 9 186 -1 253 -4 26 -16 55 -26 65 -14 13 -19 35 -21 92 -1 41 -6 82 -10 90 -3 8 -10 41 -13 72 -7 50 -5 57 8 52 9 -3 16 -11 16 -16z m-260 1 c0 -19 -20 -49 -33 -49 -14 0 -47 35 -47 50 0 6 18 10 40 10 22 0 40 -5 40 -11z m210 -132 c15 -131 8 -153 -9 -30 -20 139 -23 181 -12 158 4 -11 14 -69 21 -128z m-55 81 c9 -45 9 -46 18 -130 l6 -53 -15 55 c-9 32 -25 64 -39 77 -14 12 -25 27 -25 33 0 13 32 59 41 60 4 0 10 -19 14 -42z m-236 -18 c25 -31 32 -50 33 -85 1 -50 -3 -50 61 2 34 27 78 30 99 6 15 -18 48 -81 48 -92 0 -6 -117 -13 -235 -15 -42 -1 -60 3 -59 12 1 6 2 57 3 112 0 55 5 100 9 100 5 0 23 -18 41 -40z m1504 -315 c3 -148 9 -280 12 -291 7 -21 5 -22 -207 -26 -210 -5 -213 -5 -238 17 -14 13 -51 39 -83 60 -32 20 -60 42 -62 48 -4 13 -10 43 -25 139 -4 32 -11 61 -14 66 -5 9 82 0 99 -10 6 -3 44 -9 85 -12 41 -4 89 -9 105 -12 17 -3 57 -1 90 5 33 5 63 6 66 3 4 -4 10 -36 13 -72 19 -206 19 -206 49 -194 14 5 17 20 17 76 0 62 -26 195 -40 208 -8 7 -51 160 -45 160 2 0 15 -20 29 -44 34 -57 76 -176 76 -212 0 -39 15 -63 30 -48 27 27 3 160 -46 257 -32 64 -31 83 5 95 17 6 37 24 46 42 9 18 20 28 25 24 4 -5 10 -130 13 -279z m-313 200 c0 -8 -9 -15 -19 -15 -24 0 -36 16 -19 23 24 10 38 7 38 -8z m87 -33 c24 -53 47 -122 41 -126 -11 -10 -89 -13 -94 -4 -12 19 -6 148 6 163 18 22 23 19 47 -33z m-342 28 c3 -5 8 -29 11 -52 2 -24 6 -53 9 -65 7 -30 -4 -53 -25 -53 -15 0 -19 12 -25 75 -4 41 -5 81 -1 90 6 17 22 20 31 5z m125 -6 c0 -3 -13 -10 -30 -15 -16 -6 -30 -15 -30 -20 0 -5 -4 -9 -10 -9 -11 0 -14 33 -3 43 8 8 73 9 73 1z m897 -36 c32 -12 34 -15 32 -58 -1 -25 -4 -48 -6 -53 -5 -8 -63 50 -63 63 0 5 -9 12 -20 15 -20 6 -26 25 -13 38 10 10 33 8 70 -5z m-813 -50 c56 -65 51 -70 -65 -60 -76 6 -84 9 -87 29 -2 16 7 27 40 47 24 14 51 26 60 26 9 0 33 -19 52 -42z m940 16 c28 -11 18 -34 -14 -34 -23 0 -30 4 -30 20 0 20 15 25 44 14z m-41 -259 c25 -39 56 -82 69 -96 48 -53 50 -65 24 -104 -14 -20 -27 -49 -31 -65 -4 -17 -8 -30 -10 -30 -13 0 -55 25 -55 33 0 9 -29 49 -65 90 -8 9 -15 22 -15 27 0 6 -4 10 -9 10 -5 0 -13 9 -16 20 -4 11 -10 18 -15 15 -14 -8 10 -88 37 -123 22 -29 24 -37 14 -58 -14 -32 -15 -516 -1 -634 12 -101 12 -92 1 -109 -7 -11 -21 -9 -82 9 -41 12 -96 28 -124 37 -71 20 -136 53 -142 71 -14 35 43 373 100 597 9 33 21 88 28 123 9 50 14 59 23 47 9 -13 13 -8 22 30 9 38 8 45 -3 41 -17 -7 -34 34 -26 65 3 12 14 30 24 40 22 22 57 98 66 142 3 17 10 40 15 50 10 19 7 23 171 -228z m261 229 c3 -9 6 -26 6 -39 0 -13 5 -27 10 -30 6 -3 10 -13 10 -21 0 -11 -9 -14 -32 -12 -30 3 -33 6 -31 36 3 70 22 104 37 66z m121 -71 c19 -29 35 -54 35 -57 0 -2 18 -35 40 -74 22 -38 40 -73 40 -79 0 -5 -12 -15 -26 -22 -22 -10 -28 -9 -39 6 -7 10 -16 36 -20 57 -3 22 -10 45 -14 51 -5 5 -15 30 -23 55 -9 25 -25 70 -37 100 -23 59 -16 54 44 -37z m-269 45 c35 -30 54 -53 51 -63 -5 -14 -127 -19 -140 -6 -8 8 -1 22 23 46 37 39 44 41 66 23z m214 -113 c0 -8 4 -15 9 -15 4 0 14 -28 21 -62 7 -35 16 -70 21 -78 4 -9 8 -42 10 -75 1 -33 6 -65 11 -72 11 -14 -6 -19 -87 -31 -39 -6 -51 -12 -53 -27 -2 -11 -15 -30 -28 -41 -13 -12 -24 -25 -24 -30 0 -23 99 -71 185 -90 11 -2 31 -7 45 -10 14 -3 81 -8 150 -11 96 -5 117 -8 90 -15 -67 -15 -125 -18 -220 -9 -105 10 -120 13 -171 34 -35 14 -151 112 -176 147 -16 23 -9 57 20 94 22 27 23 27 59 12 37 -16 114 -21 155 -10 11 3 23 16 25 27 4 21 1 22 -91 22 -116 0 -151 16 -191 89 -15 26 -31 51 -36 54 -12 9 -37 82 -30 89 3 3 44 1 92 -5 75 -9 93 -8 138 8 64 23 76 24 76 5z m238 -246 c3 -65 1 -67 -75 -61 l-53 4 0 44 c0 32 4 44 15 44 8 0 15 4 15 9 0 10 41 19 75 17 17 -1 20 -9 23 -57z m-2188 12 c53 -14 182 -52 205 -61 11 -5 49 -16 85 -25 37 -9 76 -25 89 -34 l24 -18 -34 -25 c-51 -38 -120 -57 -274 -73 -167 -18 -325 -19 -374 -4 -77 25 -126 54 -129 77 -2 12 1 22 7 22 6 0 33 -10 59 -22 39 -19 64 -23 152 -23 100 0 288 13 301 21 4 2 28 6 53 9 26 3 59 11 74 17 l27 11 -35 8 c-31 8 -96 6 -260 -6 -92 -7 -257 -7 -309 1 -43 6 -60 13 -80 36 -13 17 -35 34 -49 39 -40 15 -19 21 85 25 54 2 114 6 133 8 19 2 62 7 95 11 33 4 62 9 64 11 7 7 54 4 91 -5z m1111 -97 c12 -34 8 -38 -49 -39 -26 -1 -120 -3 -209 -5 -89 -2 -165 -2 -168 2 -3 3 -3 17 1 32 l6 26 102 -5 c55 -3 137 -1 181 4 128 13 124 14 136 -15z m-1994 -21 c27 -34 56 -52 175 -108 21 -10 64 -18 105 -19 44 -1 81 -9 106 -21 34 -17 39 -17 53 -3 14 14 13 16 -13 21 -52 10 -76 95 -38 133 27 27 39 15 51 -53 3 -16 9 -29 15 -31 5 -2 9 -9 9 -16 0 -20 106 -63 200 -82 82 -16 129 -16 285 3 89 10 98 9 101 -12 2 -11 6 -49 9 -85 3 -36 10 -103 14 -150 11 -117 4 -130 -79 -151 -116 -29 -180 -34 -455 -34 -239 0 -363 6 -383 19 -4 2 -29 7 -57 10 -27 3 -76 10 -109 15 -32 6 -61 10 -65 9 -65 -8 -82 16 -69 101 5 31 11 72 13 91 10 73 42 238 56 285 5 17 14 49 19 73 6 23 14 42 19 42 4 0 21 -17 38 -37z m3213 -8 c69 -8 148 -17 175 -21 28 -3 59 -7 70 -8 28 -2 25 -28 -6 -43 -73 -35 -155 -47 -324 -48 -93 0 -201 4 -240 8 -65 8 -135 29 -135 41 0 9 78 44 113 51 18 4 37 11 42 15 26 21 150 23 305 5z m-670 -71 c19 -9 45 -17 58 -19 13 -1 45 -23 70 -47 88 -85 180 -119 332 -122 l105 -3 9 -49 c5 -27 17 -73 27 -102 28 -79 26 -89 -28 -115 -27 -12 -50 -25 -53 -28 -6 -7 -31 -13 -176 -43 -74 -15 -155 -24 -239 -25 -70 -1 -135 -4 -146 -6 -11 -2 -22 1 -24 8 -2 7 -5 144 -8 305 l-3 292 20 -15 c12 -9 37 -23 56 -31z m-1130 10 c37 -18 63 -24 83 -20 23 5 33 1 49 -19 32 -41 136 -67 275 -68 65 -1 137 1 161 5 l42 7 0 -144 0 -144 -27 -15 c-26 -13 -150 -39 -238 -50 -80 -11 -410 -17 -422 -9 -9 6 -14 60 -17 184 -2 95 -8 202 -12 237 l-7 62 30 0 c16 0 53 -12 83 -26z m226 3 c37 -9 173 -11 327 -4 136 6 148 5 145 -10 -2 -9 -16 -20 -32 -24 -100 -27 -476 -26 -476 1 0 4 -9 10 -20 13 -11 3 -20 13 -20 22 0 17 12 18 76 2z m-380 -209 c-1 -146 3 -236 17 -363 1 -15 -3 -19 -18 -18 -11 2 -33 5 -50 7 -94 11 -136 20 -141 28 -4 5 8 22 25 36 30 26 32 31 33 102 0 95 -10 204 -28 294 -7 32 7 46 46 46 14 0 41 9 60 19 19 11 40 20 46 20 8 1 11 -49 10 -171z m844 113 c0 -25 -10 -51 -20 -51 -15 0 -22 53 -8 61 20 13 28 11 28 -10z m-738 -426 c3 -3 -2 -26 -10 -51 -10 -32 -17 -41 -23 -32 -25 38 4 111 33 83z m-1322 -56 c67 -13 85 -16 130 -23 19 -3 52 -8 73 -12 44 -7 44 5 8 -149 -12 -49 -23 -99 -26 -110 -16 -79 -25 -117 -40 -170 -10 -33 -20 -71 -23 -85 -7 -36 -50 -100 -66 -100 -7 0 -20 8 -28 18 -14 16 -50 137 -63 211 -3 19 -7 37 -9 40 -2 3 -7 37 -11 76 -3 38 -8 72 -11 76 -2 4 -6 26 -9 50 -5 44 -16 148 -17 159 -3 29 4 41 20 36 9 -3 42 -11 72 -17z m934 2 c3 -4 1 -35 -5 -67 -5 -32 -12 -77 -15 -99 -3 -22 -7 -51 -9 -64 -2 -13 -7 -45 -10 -70 -4 -25 -10 -68 -15 -96 -5 -27 -12 -68 -15 -90 -10 -76 -17 -100 -44 -150 -17 -32 -33 -51 -47 -53 -44 -6 -58 82 -63 392 -2 120 -7 219 -14 233 -13 29 -11 30 38 37 84 11 126 18 153 26 37 11 40 11 46 1z m226 -57 c47 -3 96 -10 109 -17 24 -12 25 -30 6 -152 -3 -16 -7 -50 -10 -75 -2 -25 -7 -61 -10 -80 -3 -19 -7 -57 -9 -85 -6 -77 -18 -139 -29 -152 -16 -21 -44 -15 -66 15 -12 15 -25 32 -29 37 -9 11 -57 193 -66 250 -3 17 -12 71 -20 120 -9 50 -16 105 -16 124 0 31 2 33 28 27 15 -4 65 -9 112 -12z m1290 -22 c0 -10 -7 -27 -15 -38 -13 -18 -14 -17 -15 19 0 26 4 37 15 37 8 0 15 -8 15 -18z m-270 -65 c25 -8 83 -23 130 -32 47 -10 91 -19 98 -21 10 -3 12 -16 7 -52 -7 -52 -7 -53 -64 -232 -76 -241 -98 -290 -132 -290 -25 0 -65 57 -74 105 -4 22 -6 40 -5 40 1 0 -3 12 -8 26 -6 14 -13 50 -17 80 -4 30 -9 65 -11 79 -1 14 -5 61 -8 105 -3 44 -8 111 -12 149 l-6 69 28 -6 c16 -3 49 -12 74 -20z"/>
<path d="M2927 5509 c-95 -78 -243 -91 -300 -26 -23 26 -30 18 -16 -22 10 -28 9 -35 -12 -57 -29 -31 -69 -31 -99 1 -29 30 -40 32 -40 4 0 -37 19 -57 59 -64 40 -7 100 12 132 41 13 12 25 13 65 4 81 -19 156 2 216 61 27 27 48 56 48 68 0 28 -9 27 -53 -10z"/>
<path d="M3118 5443 c7 -3 16 -2 19 1 4 3 -2 6 -13 5 -11 0 -14 -3 -6 -6z"/>
<path d="M2135 4692 c-30 -48 -158 -182 -174 -182 -13 0 -45 -39 -38 -47 9 -8 68 22 128 64 50 35 69 41 69 21 0 -8 15 -14 38 -15 137 -7 161 -5 205 16 38 19 97 71 97 86 0 8 -73 -24 -80 -36 -8 -12 -138 -39 -156 -32 -18 7 -18 8 11 51 14 20 25 48 25 61 0 24 0 24 -21 5 -11 -10 -28 -31 -37 -46 -9 -15 -22 -30 -30 -33 -12 -4 -13 7 -7 65 4 38 5 70 4 70 -2 0 -17 -21 -34 -48z"/>
<path d="M1310 4650 c-27 -27 -26 -75 2 -94 27 -19 46 -20 81 -3 48 23 43 88 -9 107 -37 14 -52 12 -74 -10z"/>
<path d="M777 4642 c-9 -10 -19 -32 -22 -48 -4 -23 0 -33 21 -48 23 -17 30 -17 66 -5 59 19 73 63 32 104 -21 21 -77 19 -97 -3z"/>
<path d="M1075 4473 c-31 -8 -45 -23 -45 -51 l0 -25 23 21 c27 26 42 27 81 7 38 -20 53 -5 24 22 -26 24 -54 33 -83 26z"/>
<path d="M2257 4422 c-10 -10 -17 -26 -17 -35 0 -16 37 -43 53 -39 4 1 7 -2 7 -8 0 -20 59 -11 71 11 31 58 -70 120 -114 71z"/>
<path d="M2063 4235 c-22 -15 -36 -52 -23 -60 4 -2 15 4 25 15 22 24 38 25 55 5 15 -18 30 -19 30 -2 0 17 -37 57 -53 57 -7 0 -22 -7 -34 -15z"/>
<path d="M3135 4324 c-5 -1 -23 -5 -38 -8 -30 -7 -52 -46 -42 -75 3 -9 19 -25 35 -34 30 -18 30 -18 39 5 6 13 10 17 10 11 1 -20 29 -15 41 8 21 38 -10 102 -45 93z"/>
<path d="M3391 4143 c-24 -10 -51 -43 -51 -63 0 -29 15 -25 40 10 21 29 22 30 57 15 40 -17 46 -16 37 9 -10 26 -53 41 -83 29z"/>
<path d="M4624 4012 c-37 -25 -46 -118 -14 -147 39 -35 104 -11 115 43 5 29 -4 28 -32 -5 l-23 -28 -20 24 c-16 19 -20 34 -17 72 2 27 4 49 3 49 -1 0 -6 -4 -12 -8z"/>
</g>
</svg>