<svg xmlns="http://www.w3.org/2000/svg" xmlns:xlink="http://www.w3.org/1999/xlink" xml:space="preserve" version="1.1" viewBox="3446.35 4657.36 13189.8 11062.55">

 <g id="Слой_x0020_1">
  <path id="non-fill-twitter.svg" class="fil0" d="M10887.37 5413.3c-399.02,432.69 -769.74,1009.89 -769.74,1298.28 -57.04,894.53 -114.07,1067.78 -285.17,1240.81 -341.99,346.28 -3078.99,-721.29 -4333.31,-1702.45l-1311.35 -1038.62 -199.62 778.97c-114.07,461.63 -28.52,1125.24 256.44,1731.18 427.75,865.8 427.75,981.15 28.51,981.15 -627.16,0 -256.44,1125.25 627.38,1933.37 370.51,346.07 541.61,663.61 341.99,721.29 -541.61,201.98 313.69,1384.9 1254.53,1817.8l883.6 375.01 -655.67 346.28c-341.99,201.98 -1225.81,432.9 -1967.04,548.26l-1311.57 201.97 1140.47 519.53c2508.86,1154.19 6471.65,432.68 8495.72,-1500.47 1111.95,-1067.78 2166.87,-3231.86 2394.79,-4905.36 85.55,-750.23 427.75,-1644.77 741.23,-2019.78 541.61,-577.2 541.61,-634.88 85.55,-634.88 -427.54,0 -456.06,-86.41 -171.1,-432.68 484.79,-605.94 199.61,-836.86 -541.61,-432.91 -484.58,230.93 -741.23,230.93 -1225.81,-144.3 -1026.4,-692.55 -2594.41,-548.25 -3478.22,317.55z"/>
 </g>
</svg>