<svg xmlns="http://www.w3.org/2000/svg" xmlns:xlink="http://www.w3.org/1999/xlink" xml:space="preserve" version="1.1" viewBox="6425.51 4086.67 6408.07 12255.52">
 <g id="Слой_x0020_1">
  <path id="Vector_2" class="fil0" d="M10155.91 4312.23c-1098.53,323.88 -1602.02,1156.73 -1785.12,2868.68l-160.17 1503.77 -892.55 0 -892.56 0 0 1041.03 0 1041.04 915.43 0 892.56 0 68.67 2706.78 68.62 2729.83 1098.53 69.42 1075.65 69.41 0 -2776.14 0 -2776.15 984.11 -69.41c961.17,-69.41 961.17,-69.41 1029.85,-1064.19l68.62 -971.62 -1029.85 0 -1052.73 0 0 -902.26c0,-1133.6 480.62,-1642.54 1510.47,-1642.54 755.21,0 778.14,-23.16 778.14,-902.26 0,-809.72 -68.68,-902.26 -709.46,-1041.07 -869.69,-161.94 -1029.91,-161.94 -1968.21,115.68z"/>
 </g>
</svg>