<svg xmlns="http://www.w3.org/2000/svg" viewBox="0.75 0 24.75 17.25">
<path d="M3.77211 0.281019C1.27105 0.646505 0.75 2.10845 0.75 8.63498C0.75 13.9606 0.854211 14.5872 1.94842 15.8403L3.09474 17.25H12.8384C18.9868 17.25 22.8947 17.0412 23.6242 16.6757C25.0832 15.8403 25.5 14.1173 25.5 8.21728C25.5 2.47393 24.7705 0.803141 22.0611 0.228807C20.2895 -0.0844669 6.16895 -0.0844669 3.77211 0.281019ZM16.8505 8.58277C16.9026 8.63498 15.6 9.47038 13.8284 10.3058L10.65 11.9244V8.58277V5.24118L13.6721 6.85976C15.2874 7.69516 16.7463 8.47834 16.8505 8.58277Z"/>
</svg>