<svg xmlns="http://www.w3.org/2000/svg" version="1.1" viewBox="217.17 33.48 619.08 627.31"><path d="M 495 34.420 C 481.950 36.103, 467.150 38.774, 464.500 39.924 C 463.400 40.402, 458 42.264, 452.500 44.063 C 447 45.862, 440.025 48.511, 437 49.950 C 428.249 54.113, 414.136 63.102, 410.155 67.049 C 408.145 69.041, 405.262 71.472, 403.750 72.451 C 402.238 73.429, 401 74.863, 401 75.636 C 401 76.410, 399.875 77.555, 398.500 78.182 C 397.125 78.808, 395.996 79.811, 395.990 80.411 C 395.985 81.010, 394.412 83.473, 392.496 85.884 C 389.114 90.138, 382 103.729, 382 105.935 C 382 106.536, 381.542 107.809, 380.983 108.764 C 380.423 109.719, 379.377 113.192, 378.657 116.483 C 377.182 123.233, 379.047 122.279, 362 125.002 C 354.201 126.247, 345.756 128.473, 342.764 130.072 C 341.809 130.582, 340.389 131, 339.609 131 C 337.545 131, 310 145.021, 310 146.072 C 310 146.560, 308.313 147.828, 306.250 148.890 C 302.254 150.947, 285 167.429, 285 169.189 C 285 169.765, 283.762 171.721, 282.250 173.535 C 280.738 175.350, 278.774 177.887, 277.888 179.173 C 276.911 180.589, 274.362 182.023, 271.429 182.808 C 265.388 184.424, 260.413 186.703, 256.406 189.692 C 254.704 190.961, 252.880 192, 252.354 192 C 250.513 192, 232.856 210.143, 230.456 214.500 C 227.864 219.207, 226.429 221.593, 225.343 223 C 224.707 223.825, 223.650 226.525, 222.995 229 C 222.340 231.475, 221.451 233.950, 221.019 234.500 C 219.560 236.357, 217.932 246.371, 217.365 256.966 C 216.904 265.588, 217.191 269.215, 218.947 276.946 C 220.127 282.141, 221.899 287.991, 222.885 289.946 C 223.871 291.900, 225.521 295.300, 226.552 297.500 C 228.167 300.946, 234.395 309.965, 236.735 312.246 C 243.163 318.513, 247.320 322, 248.364 322 C 249.072 322, 250.708 323.125, 252 324.500 C 253.292 325.875, 255.340 327, 256.552 327 C 257.764 327, 259.315 327.675, 260 328.500 C 260.685 329.325, 262.202 330.003, 263.372 330.006 C 264.543 330.010, 266.786 330.683, 268.359 331.503 C 269.931 332.323, 273.653 333.140, 276.631 333.319 C 279.608 333.498, 282.597 334.197, 283.272 334.872 C 284.154 335.754, 284.559 342.283, 284.711 358.073 C 284.994 387.587, 288.704 425.041, 293.027 442.018 C 293.654 444.483, 294.693 449.051, 295.334 452.170 C 295.975 455.288, 296.837 458.176, 297.250 458.586 C 297.662 458.997, 298 461.578, 298 464.321 C 298 468.936, 297.688 469.576, 293.817 472.904 C 284.399 481, 273.595 485.931, 263.708 486.646 C 255.166 487.264, 250 488.912, 250 491.019 C 250 494.124, 257.742 501.616, 264.760 505.305 C 272.350 509.293, 278.044 510.861, 288.500 511.843 C 294.906 512.444, 295.529 512.704, 295.839 514.899 C 296.026 516.219, 295.709 518.244, 295.136 519.399 C 288.742 532.291, 288.191 557.161, 294.057 568.136 C 295.126 570.136, 296 572.499, 296 573.386 C 296 574.274, 296.438 575, 296.974 575 C 297.510 575, 298.592 576.237, 299.379 577.750 C 301.592 582.004, 311.298 592.017, 313.200 592.008 C 314.135 592.004, 315.260 592.628, 315.700 593.397 C 319.030 599.211, 340.571 604.020, 352.275 601.561 C 355.963 600.786, 356.201 600.921, 362.570 607.384 C 366.155 611.023, 369.329 614, 369.623 614 C 369.917 614, 372.811 616.308, 376.054 619.129 C 382.296 624.557, 388.226 628.064, 404.588 635.999 C 415.513 641.298, 441.579 650.378, 450.171 651.878 C 453.102 652.389, 457.975 653.293, 461 653.886 C 464.025 654.479, 472.350 655.670, 479.500 656.533 C 486.650 657.395, 497.900 658.795, 504.500 659.643 C 513.732 660.830, 521.345 661.038, 537.500 660.545 C 549.050 660.193, 560.075 659.733, 562 659.522 C 563.925 659.312, 570 658.689, 575.500 658.137 C 590.673 656.616, 599.654 655.303, 611.093 652.934 C 627.034 649.633, 662.761 637.545, 668.982 633.349 C 670.897 632.057, 672.869 631, 673.364 631 C 675.325 631, 694.017 616.705, 702.661 608.595 C 711.407 600.389, 714.128 598.780, 715.500 601 C 717.052 603.511, 738.715 601.596, 744.827 598.407 C 746.297 597.640, 747.973 597.010, 748.551 597.006 C 749.129 597.003, 752.279 595.243, 755.551 593.095 C 771.262 582.781, 779.591 567.990, 780.707 548.422 C 781.307 537.897, 780.562 532.805, 776.745 521.364 C 775.619 517.989, 774.938 514.605, 775.230 513.843 C 775.575 512.945, 779.557 511.856, 786.561 510.745 C 795.109 509.389, 799.147 508.147, 805.930 504.787 C 818.835 498.395, 824.613 492.335, 820.750 489.245 C 820.063 488.695, 817.025 487.977, 814 487.649 C 805.532 486.733, 801.781 485.958, 798.349 484.416 C 796.616 483.637, 794.694 483, 794.079 483 C 790.625 483, 772.466 468.264, 770.893 464.185 C 770.265 462.556, 770.733 458.996, 772.470 452.185 C 775.652 439.709, 776.593 433.435, 778.570 411.500 C 780.634 388.608, 780.531 342.917, 778.401 335.788 C 777.537 332.898, 779.677 330.413, 784.191 329.063 C 789.581 327.452, 797.510 323.519, 801.683 320.388 C 803.434 319.075, 805.187 318, 805.580 318 C 806.562 318, 816.158 309.030, 818 306.389 C 826.484 294.226, 828.919 289.489, 831.819 279.500 C 837.248 260.803, 837.614 249.137, 833.340 231.078 C 832.504 227.545, 831.236 223.720, 830.522 222.578 C 829.807 221.435, 828.663 218.700, 827.978 216.500 C 827.294 214.300, 825.444 210.565, 823.867 208.200 C 822.290 205.835, 821 203.713, 821 203.485 C 821 203.256, 819.763 201.141, 818.250 198.785 C 814.714 193.276, 807.659 186.113, 802.250 182.541 C 799.913 180.997, 798 179.384, 798 178.956 C 798 178.528, 795.975 177.198, 793.500 176 C 791.025 174.802, 788.995 173.524, 788.989 173.161 C 788.982 172.797, 787.070 171.661, 784.739 170.635 C 782.407 169.609, 779.355 168.176, 777.956 167.450 C 776.557 166.724, 772.411 165.608, 768.742 164.969 C 762.145 163.820, 761.999 163.724, 755.286 156.160 C 747.692 147.601, 745.616 145.679, 742 143.858 C 740.625 143.166, 738.150 141.401, 736.500 139.936 C 732.991 136.822, 718.691 129.097, 711.500 126.431 C 708.750 125.412, 705.375 124, 704 123.295 C 702.625 122.589, 700.989 122.010, 700.365 122.006 C 699.740 122.003, 697.040 121.343, 694.365 120.540 C 685.713 117.942, 676.671 116.118, 669 115.423 C 664.875 115.050, 661.012 114.358, 660.415 113.886 C 659.818 113.415, 658.727 111.110, 657.991 108.764 C 657.255 106.419, 656.280 104.073, 655.826 103.550 C 655.372 103.028, 655 101.620, 655 100.422 C 655 99.225, 654.342 97.699, 653.539 97.032 C 652.735 96.365, 651.778 94.848, 651.412 93.660 C 651.046 92.472, 649.229 89.415, 647.373 86.866 C 645.518 84.317, 644 81.936, 644 81.573 C 644 80.467, 627.273 64, 626.149 64 C 625.572 64, 624.740 63.407, 624.300 62.681 C 623.248 60.947, 614.472 55, 612.964 55 C 612.318 55, 610.452 53.875, 608.818 52.500 C 607.184 51.125, 605.165 50, 604.331 50 C 603.497 50, 601.671 49.100, 600.273 48 C 598.874 46.900, 596.918 46, 595.924 46 C 594.931 46, 593.875 45.607, 593.579 45.127 C 593.282 44.647, 588.418 43.021, 582.770 41.512 C 577.121 40.004, 571.600 38.359, 570.500 37.857 C 569.400 37.355, 566.925 36.773, 565 36.564 C 563.075 36.354, 559.025 35.702, 556 35.114 C 546.808 33.327, 506.989 32.874, 495 34.420 M 505.500 41.111 C 502.750 41.495, 496.225 42.348, 491 43.006 C 464.289 46.370, 441.548 54.186, 423.998 66.032 C 417.112 70.680, 400.181 87.006, 397.872 91.224 C 392.122 101.729, 390.558 105.173, 388.046 112.860 C 386.479 117.655, 384.913 124.036, 384.567 127.040 C 383.802 133.668, 383.135 140.860, 383.057 143.309 C 382.949 146.710, 381.266 144.053, 380.776 139.709 C 380.024 133.037, 377.924 129.446, 374.966 129.773 C 373.610 129.923, 370.025 130.314, 367 130.641 C 363.975 130.969, 360.825 131.810, 360 132.510 C 359.175 133.210, 356.475 134.107, 354 134.504 C 351.525 134.901, 349.050 135.567, 348.500 135.983 C 347.950 136.399, 345.700 137.305, 343.500 137.996 C 333.073 141.270, 314 151.020, 314 153.075 C 314 153.584, 313.395 154, 312.655 154 C 308.981 154, 287.047 176.747, 287.011 180.595 C 287.005 181.197, 286.100 182.505, 285 183.500 C 283.900 184.495, 283 185.753, 283 186.295 C 283 186.837, 282.162 189.130, 281.139 191.390 C 276.897 200.756, 275.263 206.958, 273.760 219.391 C 270.271 248.265, 286.410 280.498, 311.815 295.392 C 320.033 300.209, 325.545 301.350, 326.653 298.463 C 327.285 296.815, 324.428 293, 322.561 293 C 319.991 293, 305.746 275.921, 307.147 274.520 C 307.353 274.313, 309.731 276.144, 312.430 278.587 C 317.707 283.364, 324.494 288.076, 332.527 292.541 L 337.554 295.335 348.027 292.063 C 360.537 288.155, 387.110 281.187, 395.500 279.615 C 400.415 278.695, 401.555 278.108, 401.803 276.372 C 402.030 274.784, 401.027 273.614, 397.803 271.706 C 391.757 268.128, 378 252.912, 378 249.803 C 378 249.303, 376.875 247.238, 375.500 245.215 C 374.125 243.191, 372.997 240.853, 372.994 240.018 C 372.990 239.183, 372.365 237.307, 371.604 235.848 C 370.843 234.389, 369.435 228.833, 368.474 223.500 C 366.576 212.957, 366.907 202.580, 369.431 193.500 L 370.821 188.500 370.911 196.074 C 371.108 212.815, 376.407 233.115, 384.080 246.526 C 389.042 255.198, 397.919 265.282, 406.202 271.655 L 412.228 276.293 423.164 275.667 C 437.280 274.859, 447.003 273.157, 447.687 271.373 C 447.982 270.606, 446.485 267.918, 444.361 265.402 C 438.728 258.726, 435.299 252.978, 434.576 249 C 433.949 245.549, 434.029 245.598, 440.220 252.492 C 443.674 256.337, 449.292 262.354, 452.704 265.863 L 458.909 272.242 464.204 271.642 C 467.117 271.312, 481.200 270.541, 495.500 269.929 C 512.494 269.201, 521.892 268.414, 522.631 267.658 C 526.425 263.774, 531.923 238.050, 532.281 222.501 C 532.402 217.280, 532.749 213.007, 533.053 213.004 C 534.518 212.993, 535.750 224.871, 535.542 237 C 535.339 248.803, 534.964 251.489, 532.555 258.364 C 530.250 264.945, 530.021 266.440, 531.150 267.525 C 532.103 268.439, 536.769 268.891, 547 269.060 C 569.793 269.438, 567.259 270.145, 577.656 260.503 C 582.704 255.821, 588.882 248.868, 591.427 245.006 C 593.966 241.153, 596.294 238, 596.601 238 C 597.559 238, 595.849 244.313, 593.757 248.500 C 591.361 253.296, 585.732 260.526, 581.630 264.077 C 576.441 268.567, 578.196 269.671, 591.832 270.490 L 603.814 271.210 610.657 266.441 C 614.421 263.818, 619.975 259.693, 623 257.275 C 628.418 252.944, 640.226 240.247, 642.167 236.664 C 642.714 235.655, 643.348 235.014, 643.574 235.241 C 644.397 236.063, 638.686 246.560, 634.352 252.192 C 630.476 257.230, 627.441 259.987, 616.080 268.793 C 611.765 272.138, 613.814 273.527, 625.152 274.943 C 630.843 275.654, 638.600 276.846, 642.389 277.593 C 649.243 278.943, 649.314 278.934, 656.389 275.850 C 660.300 274.145, 667.228 270.331, 671.784 267.375 C 676.341 264.419, 680.370 262, 680.737 262 C 682.192 262, 673.165 270.424, 667.692 274.174 C 658.864 280.222, 659.728 281.289, 675.593 283.935 C 678.394 284.403, 684.244 285.671, 688.593 286.753 C 708.368 291.676, 707.488 291.605, 711.949 288.653 C 714.153 287.194, 716.242 286, 716.590 286 C 717.736 286, 727.396 277.776, 733.250 271.815 C 736.413 268.595, 739 266.434, 739 267.013 C 739 271.284, 728.137 285.436, 721.750 289.486 C 715.945 293.167, 720.570 298.638, 727.205 295.940 C 730.590 294.563, 737.618 289.955, 744.266 284.753 C 752.051 278.662, 763.082 261.656, 766.810 250 C 771.636 234.907, 773.444 215.379, 771.022 204.500 C 768.111 191.425, 768.170 191.603, 763.212 181 C 758.133 170.138, 748.465 159.472, 733.672 148.408 C 722.212 139.838, 711.460 134.434, 695.187 129.065 C 684.891 125.667, 668.537 121.974, 663.872 121.993 C 661.501 122.003, 659.639 124.660, 660.547 126.737 C 660.971 127.707, 661.201 128.950, 661.058 129.500 C 660.915 130.050, 660.365 133.576, 659.835 137.335 C 658.326 148.045, 657.352 149.608, 656.615 142.500 C 655.163 128.493, 652.783 115.413, 650.958 111.407 C 649.881 109.044, 649 106.437, 649 105.614 C 649 104.791, 648.562 103.847, 648.027 103.517 C 647.491 103.186, 646.280 101.247, 645.335 99.208 C 644.389 97.168, 642.577 94.108, 641.308 92.406 C 640.039 90.704, 639 88.849, 639 88.285 C 639 87.721, 635.773 84.163, 631.830 80.379 C 627.886 76.596, 623.242 72.037, 621.509 70.250 C 619.776 68.463, 617.761 67, 617.032 67 C 616.303 67, 613.860 65.504, 611.603 63.677 C 607.226 60.131, 598.123 55.526, 588.772 52.127 C 585.622 50.982, 582.247 49.614, 581.272 49.087 C 578.866 47.786, 563.332 43.816, 559 43.394 C 557.075 43.206, 552.332 42.575, 548.461 41.990 C 539.946 40.704, 512.438 40.141, 505.500 41.111 M 771.392 176.422 C 771.092 177.204, 771.303 178.698, 771.863 179.743 C 773.563 182.921, 776.819 193.101, 778.493 200.478 C 782.757 219.265, 778.467 247.451, 769.052 262.500 C 767.676 264.700, 765.807 268.111, 764.900 270.080 C 762.438 275.421, 751.746 286.336, 742.800 292.641 C 738.036 295.998, 735.015 298.799, 735.197 299.690 C 735.526 301.294, 751.808 308, 755.375 308 C 756.574 308, 758.617 307.256, 759.915 306.347 C 763.543 303.805, 774.204 298.334, 777 297.577 C 779.432 296.919, 779.418 296.972, 776.500 299.514 C 774.850 300.952, 770.886 303.934, 767.692 306.141 C 764.137 308.597, 762.003 310.754, 762.192 311.700 C 762.361 312.551, 764.974 314.568, 767.998 316.182 C 771.022 317.796, 774.471 320.033, 775.663 321.153 C 778.153 323.492, 779.432 323.262, 788.382 318.862 C 816.250 305.163, 830.300 276.514, 826.076 242 C 824.682 230.606, 823.476 226.223, 819.789 219.148 C 818.255 216.205, 816.983 213.280, 816.963 212.648 C 816.884 210.200, 804.964 196.197, 797.913 190.269 C 784.112 178.668, 783.258 178, 782.243 178 C 781.685 178, 779.940 177.328, 778.364 176.506 C 774.752 174.622, 772.095 174.590, 771.392 176.422 M 263.486 194.329 C 252.328 200.817, 244.736 207.969, 238.082 218.257 C 235.734 221.888, 233.130 225.120, 232.293 225.441 C 231.293 225.825, 230.970 226.777, 231.349 228.225 C 231.665 229.436, 231.350 231.118, 230.648 231.963 C 229.946 232.808, 228.816 235.975, 228.137 239 C 227.458 242.025, 226.446 246.306, 225.888 248.513 C 224.665 253.347, 225.265 273.494, 226.735 277 C 227.312 278.375, 229.024 282.830, 230.539 286.900 C 235.777 300.969, 251.973 318.449, 262.817 321.740 C 264.843 322.355, 268.975 323.775, 272 324.896 C 279.770 327.776, 284.524 327.656, 286.573 324.529 C 288.140 322.137, 301.059 313.477, 309.750 308.991 C 315.086 306.238, 315.372 303.600, 310.553 301.586 C 305.123 299.318, 295.371 292.329, 293.012 289.017 C 291.831 287.358, 290.404 286, 289.842 286 C 288.643 286, 285.089 281.951, 285.016 280.500 C 284.988 279.950, 283.880 278.471, 282.554 277.214 C 280.382 275.155, 278.738 272.366, 272.991 261 C 270.312 255.701, 267.138 243.423, 266.214 234.786 C 265.378 226.972, 265.829 220.181, 268.026 207.500 C 269.956 196.356, 269.852 193.530, 267.500 193.329 C 266.400 193.234, 264.594 193.684, 263.486 194.329 M 501.500 275.507 C 500.950 275.719, 491.275 276.368, 480 276.948 C 440.790 278.966, 393.866 285.380, 373.200 291.546 C 356.329 296.580, 345.184 300.379, 334.165 304.853 C 321.146 310.138, 303.067 319.704, 297.571 324.214 C 294.415 326.804, 294.233 327.331, 293.589 335.714 C 292.473 350.238, 292.824 375.453, 294.395 393.500 C 296.628 419.166, 301.996 449.930, 304.821 453.250 C 306.602 455.343, 308.603 455.505, 309.700 453.645 C 311.438 450.699, 335.060 440.633, 351 436.045 C 356.775 434.383, 362.850 432.594, 364.500 432.069 C 368.324 430.853, 383.270 427.031, 388.500 425.932 C 408.956 421.631, 418.614 419.944, 423.500 419.815 C 425.150 419.772, 426.950 419.389, 427.500 418.963 C 428.885 417.892, 446.907 415.329, 462.500 413.985 C 488.921 411.709, 499.303 411.298, 535 411.120 C 575.242 410.919, 600.767 412.329, 633.941 416.588 C 655.619 419.371, 687.907 425.363, 696 428.106 C 697.375 428.572, 701.875 429.635, 706 430.468 C 721.901 433.681, 751.976 445.180, 760.236 451.206 C 764.674 454.443, 766.544 447.096, 770.216 412 C 771.575 399.004, 771.669 339.614, 770.344 331.043 L 769.500 325.587 762 321.008 C 755.626 317.116, 747.319 313.199, 736 308.749 C 734.625 308.209, 732.825 307.435, 731.999 307.031 C 731.174 306.626, 724.424 304.398, 716.999 302.080 C 709.575 299.762, 702.375 297.472, 701 296.991 C 698.723 296.194, 690.644 294.206, 674.500 290.467 C 671.200 289.703, 665.800 288.563, 662.500 287.934 C 659.200 287.305, 654.700 286.435, 652.500 286 C 646.979 284.909, 632.373 282.405, 621 280.598 C 612.634 279.270, 600.816 278.049, 580.500 276.414 C 572.837 275.797, 502.831 274.993, 501.500 275.507 M 455 420.023 C 442.863 422.062, 430.584 424, 429.806 424 C 429.328 424, 423.425 429.123, 416.688 435.384 C 409.951 441.646, 403.558 446.939, 402.481 447.146 C 401.404 447.353, 400.359 448.373, 400.159 449.412 C 399.959 450.451, 397.465 454.127, 394.616 457.580 C 380.817 474.309, 372.827 496.121, 372.859 516.974 C 372.873 526.612, 372.113 529, 369.031 529 C 363.151 529, 351.966 517.835, 345.491 505.500 C 344.913 504.400, 343.573 503.500, 342.511 503.500 C 339.558 503.500, 339.061 508.337, 340.102 526.940 C 341.938 559.740, 344.031 568.751, 353.645 585.247 C 355.827 588.991, 362.447 596.536, 369.955 603.836 C 384.897 618.364, 405.923 630.589, 429.583 638.505 C 442.190 642.723, 449.040 644.410, 462 646.492 C 467.225 647.331, 473.750 648.443, 476.500 648.963 C 494.311 652.329, 518.876 654.685, 533.001 654.381 C 549.209 654.032, 579.891 651.229, 596.546 648.576 C 641.552 641.407, 675.544 625.181, 701.284 598.578 C 710.649 588.901, 719.010 577.174, 723.313 567.683 C 727.093 559.346, 729.050 544.064, 729.294 520.985 C 729.495 502.015, 729.446 501.492, 727.446 501.206 C 725.927 500.989, 724.407 502.344, 721.603 506.415 C 714.891 516.161, 704.630 524, 698.586 524 L 696.093 524 696.190 511.250 C 696.299 496.966, 694.403 487.733, 688.987 476.159 C 685.300 468.279, 678.183 457.477, 674.139 453.620 C 669.472 449.169, 668.367 450.432, 667.770 460.896 C 667.005 474.324, 663.770 478.350, 657.557 473.611 C 655.674 472.175, 653.529 471, 652.789 471 C 652.050 471, 650.557 470.386, 649.473 469.635 C 648.388 468.885, 639.175 464.091, 629 458.983 C 618.825 453.874, 608.619 448.413, 606.320 446.847 C 604.021 445.281, 601.865 444, 601.529 444 C 600.832 444, 596.823 441.275, 589.263 435.664 C 584.046 431.792, 581 431.372, 581 434.526 C 581 435.400, 583.074 439.082, 585.610 442.710 C 590.701 449.994, 598 464.398, 598 467.162 C 598 469.927, 595.497 470.671, 580.500 472.362 C 559.051 474.780, 537.392 473.155, 521.825 467.961 C 514.632 465.561, 500.698 458.405, 494.020 453.682 C 487.787 449.273, 472.730 434.093, 469.383 428.844 C 465.829 423.268, 461.918 418.963, 460.563 419.134 C 459.978 419.207, 457.475 419.607, 455 420.023 M 447.041 444.815 C 440.915 445.759, 427.153 452.959, 421.250 458.309 C 418.597 460.714, 418.234 465.492, 420.635 466.413 C 421.592 466.781, 424.390 465.787, 427.385 464.015 C 432.549 460.961, 440.503 457.001, 449.282 453.113 C 454.412 450.841, 455.912 448.803, 454.079 446.595 C 452.683 444.913, 450.307 444.312, 447.041 444.815 M 430 499.432 C 417.180 504.162, 410 515.526, 410 531.087 C 410 549.638, 420.320 562.861, 436.500 565.039 C 444.576 566.127, 455.915 561.390, 461.051 554.782 C 467.225 546.840, 468.396 543.234, 468.450 532 C 468.495 522.453, 468.244 520.979, 465.682 515.761 C 461.744 507.742, 455.158 501.421, 448.761 499.522 C 442.622 497.699, 434.800 497.661, 430 499.432 M 619.500 499.237 C 610.148 501.647, 601.279 511.856, 598.916 522.930 C 597.470 529.704, 598.185 540.660, 600.356 545.013 C 601.260 546.825, 602 548.688, 602 549.154 C 602 549.619, 602.862 550.938, 603.917 552.083 C 604.971 553.229, 607.108 555.540, 608.667 557.219 C 614.582 563.592, 625.116 566.563, 633.774 564.302 C 658.486 557.849, 666.030 524.935, 647.129 506.034 C 639.877 498.781, 630.358 496.440, 619.500 499.237 M 303.546 518.925 C 303.194 519.495, 301.741 523.682, 300.317 528.230 C 292.541 553.059, 303.031 579.691, 324.694 590.121 C 330.583 592.957, 332.575 593.405, 339.475 593.449 C 349.198 593.511, 349.853 592.433, 344.404 585.334 C 342.363 582.675, 339.353 577.650, 337.714 574.168 C 336.075 570.685, 334.017 567.560, 333.140 567.223 C 331.186 566.474, 326.371 561.705, 322.817 557 C 318.122 550.784, 314.321 542.289, 311.531 531.777 C 310.031 526.125, 308.462 520.825, 308.045 520 C 307.114 518.160, 304.417 517.516, 303.546 518.925 M 763.669 522.750 C 763.423 523.163, 762.485 526.393, 761.585 529.928 C 757.957 544.189, 746.300 561.416, 736.997 566.262 C 733.974 567.837, 731.333 569.660, 731.128 570.313 C 729.495 575.531, 725.411 582.408, 721.048 587.286 C 719.063 589.506, 718.779 590.421, 719.652 591.786 C 720.543 593.182, 722.211 593.482, 728.623 593.406 C 738.318 593.290, 745.520 590.715, 754.014 584.330 C 768.429 573.494, 775.128 554.930, 771.636 535.500 C 769.742 524.964, 768.523 522, 766.084 522 C 765.003 522, 763.916 522.337, 763.669 522.750 M 523 595.356 C 517.553 597.141, 511.675 601.592, 509.547 605.543 C 507.897 608.607, 507.823 609.272, 509.049 610.030 C 510.063 610.657, 511.375 610.063, 513.494 608.016 C 523.412 598.438, 540.475 598.593, 549.871 608.346 C 555.697 614.393, 558.306 610.483, 553.172 603.397 C 549.024 597.671, 540.916 593.970, 532.813 594.105 C 529.341 594.163, 524.925 594.726, 523 595.356" stroke="none"  fill-rule="evenodd"/></svg>