<svg xmlns="http://www.w3.org/2000/svg" viewBox="0.5 0.5 18.87 23.05">
<path d="M9.93506 21.7668C12.3806 19.5777 14.252 17.478 15.5492 15.4675C16.8465 13.4571 17.4952 11.6963 17.4952 10.1851C17.4952 7.90623 16.7712 6.03284 15.3233 4.56488C13.8754 3.09692 12.0793 2.36294 9.93506 2.36294C7.79083 2.36294 5.99476 3.09692 4.54684 4.56488C3.09893 6.03284 2.37497 7.90623 2.37497 10.1851C2.37497 11.6963 3.0236 13.4571 4.32088 15.4675C5.61817 17.478 7.48956 19.5777 9.93506 21.7668ZM9.93506 23.5504C9.69148 23.5504 9.4479 23.5083 9.20431 23.4242C8.96073 23.3401 8.74038 23.2099 8.54325 23.0336C7.42148 21.9999 6.37181 20.9355 5.39425 19.8401C4.41669 18.7448 3.56693 17.6498 2.84497 16.5553C2.12301 15.4607 1.5517 14.3758 1.13103 13.3005C0.710344 12.2251 0.5 11.1867 0.5 10.1851C0.5 7.30048 1.43309 4.96516 3.29928 3.17909C5.16545 1.39303 7.37737 0.5 9.93506 0.5C12.4928 0.5 14.7047 1.39303 16.5708 3.17909C18.437 4.96516 19.3701 7.30048 19.3701 10.1851C19.3701 11.1867 19.1598 12.2231 18.7391 13.2945C18.3184 14.3658 17.7491 15.4507 17.0312 16.5493C16.3132 17.6478 15.4655 18.7428 14.4879 19.8341C13.5103 20.9255 12.4607 21.9879 11.3389 23.0216C11.1446 23.1979 10.9239 23.3301 10.6767 23.4182C10.4295 23.5063 10.1823 23.5504 9.93506 23.5504ZM9.93719 12.2067C10.5592 12.2067 11.0909 11.9852 11.5324 11.5423C11.9739 11.0994 12.1947 10.5669 12.1947 9.94497C12.1947 9.32299 11.9732 8.79125 11.5303 8.34975C11.0874 7.90825 10.5549 7.6875 9.93294 7.6875C9.31096 7.6875 8.77922 7.90896 8.33772 8.35188C7.89622 8.79479 7.67547 9.32724 7.67547 9.94922C7.67547 10.5712 7.89693 11.1029 8.33984 11.5444C8.78276 11.9859 9.31521 12.2067 9.93719 12.2067Z"/>
</svg>