<svg xmlns="http://www.w3.org/2000/svg" width="512" height="512" viewBox="0 0 512 512" version="1.1"><path d="M 387 9.072 C 363.543 11.660, 339.676 17.140, 335.647 20.863 C 329.019 26.988, 318.567 44.755, 306.151 71 C 304.450 74.594, 305.446 49.612, 307.347 41 C 310.097 28.536, 307.447 28.265, 285.676 38.780 C 263.993 49.253, 243.440 61.390, 224.848 74.702 C 217.751 79.783, 216.936 80.749, 213.617 88.010 C 207.612 101.146, 203.028 119.028, 200.885 137.672 C 199.116 153.067, 198.750 153.597, 196.240 144.403 C 193.524 134.455, 191 120.043, 191 114.480 C 191 108.958, 188.197 105.148, 185.161 106.542 C 181.948 108.019, 154.007 134.211, 142.873 146.185 C 135.237 154.396, 132.127 158.607, 129.501 164.292 C 123.483 177.316, 117.853 200.338, 116.387 217.907 C 116.013 222.393, 115.380 226.265, 114.980 226.512 C 114.056 227.084, 111.409 217.681, 109.016 205.325 C 107.064 195.248, 105.464 192.384, 102.362 193.411 C 97.956 194.869, 51.339 258.816, 37.604 282.242 C 27.122 300.120, 19.418 319.979, 14.963 340.606 C 11.943 354.586, 11.176 381.004, 13.416 393.890 C 15.126 403.728, 19.098 416.688, 20.265 416.236 C 20.640 416.091, 25.828 406.416, 31.793 394.736 C 83.200 294.091, 157.884 212.281, 247.500 158.451 C 261.996 149.743, 294.763 133.393, 299.684 132.412 C 305.434 131.265, 310.251 138.660, 306.750 143.260 C 306.063 144.163, 299.973 147.389, 293.218 150.430 C 230.245 178.772, 163.049 232.933, 111.371 297 C 65.563 353.790, 24.192 431.871, 14.459 479.908 C 12.365 490.242, 12.772 494.781, 16 497.087 C 23.132 502.179, 97.351 505.637, 142.500 502.980 C 172.543 501.212, 209.453 496.933, 224.814 493.436 C 238.654 490.286, 248.207 482.915, 251.570 472.790 C 254.033 465.373, 253.004 459.545, 247.422 449.305 C 243.780 442.623, 242.769 439.761, 242.769 436.128 C 242.769 424.053, 252.187 414.199, 268.167 409.554 C 278.833 406.453, 289.863 405.878, 355 405.025 C 421.794 404.151, 432.358 403.552, 453.500 399.441 C 477.194 394.834, 490.779 387.133, 496.932 374.821 C 499.454 369.774, 500 367.469, 500 361.878 C 500 352.128, 497.180 345.335, 489.905 337.558 C 482.262 329.387, 473.420 324.726, 458.337 320.917 C 448.414 318.411, 446.405 318.176, 444.148 319.258 C 440.053 321.220, 438.607 325.124, 440.392 329.395 C 441.934 333.087, 441.298 332.795, 455.831 336.488 C 472.514 340.728, 481.597 347.906, 484.064 358.799 C 485.187 363.758, 483.433 368.376, 478.855 372.512 C 473.506 377.344, 466.587 380.331, 454.842 382.875 C 433.032 387.601, 424.699 388.118, 356 389.015 C 280.476 390.001, 272.773 390.612, 255.808 396.968 C 238.910 403.298, 227.076 419.412, 227.024 436.160 C 227.001 443.391, 227.280 444.371, 231.991 453.660 C 234.737 459.072, 236.987 464.310, 236.991 465.300 C 237.018 470.804, 230.767 475.919, 221.452 478.016 C 213.207 479.871, 183.628 483.822, 164 485.689 C 139.435 488.027, 66.861 488.111, 45.244 485.827 C 37.403 484.999, 30.682 484.016, 30.309 483.642 C 29.257 482.590, 35.328 461.708, 40.581 448.316 L 45.308 436.264 54.404 435.595 C 118.412 430.888, 184.139 401.044, 247.750 347.805 C 259.808 337.713, 259.178 335.897, 243 334.111 C 231.299 332.820, 220.730 330.386, 211.043 326.752 L 204.585 324.330 218.172 323.678 C 242.804 322.497, 266.695 317.769, 285.482 310.358 C 294.249 306.899, 294.885 306.420, 308.322 293.150 C 326.968 274.736, 361 236.603, 361 234.123 C 361 233.716, 360.420 232.589, 359.711 231.620 C 358.704 230.242, 356.032 229.650, 347.461 228.907 C 334.669 227.796, 324.022 225.426, 311.568 220.914 C 301.335 217.208, 301.678 216.678, 315 215.610 C 335.495 213.968, 362.382 208.959, 377.500 203.968 L 386.500 200.997 396.606 185.748 C 414.896 158.152, 434.079 123.331, 445.942 96.194 C 450.548 85.657, 450.346 83.663, 444.559 82.577 C 440.540 81.823, 422.191 80.103, 417 79.994 L 413.500 79.920 416.017 78.550 C 422.139 75.219, 438.226 71.011, 450.792 69.456 C 454.733 68.968, 456.462 68.225, 457.561 66.547 C 459.341 63.830, 468.009 37.417, 470.487 27.158 C 472.208 20.032, 472.205 19.762, 470.380 17.997 C 468.138 15.829, 457.107 12.674, 444 10.454 C 432.644 8.530, 399.252 7.721, 387 9.072" stroke="none"  fill-rule="evenodd"/></svg>