<svg xmlns="http://www.w3.org/2000/svg" viewBox="128 -832 704 704"><path d="M194-194h43.923l407.923-407.923-43.923-42.923L194-236.923V-194Zm-20.693 66q-18.73 0-32.019-13.288Q128-154.577 128-173.307v-53.616q0-18.265 7.231-35.287 7.23-17.021 19.923-29.713l530.077-531.616q5.146-5.481 11.573-6.971 6.427-1.49 12.486-1.49 6.06 0 11.116.538 5.056.539 11.44 6.154l92.693 91.923q5.615 6.385 6.538 12.008.923 5.623.923 12.246 0 6.131-1.741 12.058-1.74 5.927-6.72 11.073L291.923-155.154q-12.692 12.693-29.713 19.923Q245.188-128 226.923-128h-53.616Zm581.462-581.308-45.461-44.461 45.461 44.461Zm-130.27 85.809-22.576-21.347 43.923 42.923-21.347-21.576Z"/></svg>