
<svg xmlns="http://www.w3.org/2000/svg" xml:space="preserve"  version="1.1"
viewBox="0 0 21000 29700"
 xmlns:xlink="http://www.w3.org/1999/xlink"
 xmlns:xodm="http://www.corel.com/coreldraw/odm/2003">

 <g id="Слой_x0020_1">
  <metadata id="CorelCorpID_0Corel-Layer"/>
  <path class="fil0" d="M2707.63 22916.63l1503.96 0 11058.55 -11457.47 -766.63 -824.94 -737.32 -733.26 -11058.56 11457.42 0 1558.25zm-1056.27 2199.74c-298.47,0 -550.92,-104.82 -757.35,-314.58 -206.43,-209.77 -309.64,-469.61 -309.64,-779.64l0 -2653.73c0,-291.89 49.15,-570.21 147.45,-834.95 98.3,-264.86 255.57,-509.19 471.83,-733.33l14066.49 -14573.82c216.26,-224.05 452.84,-387.01 709.71,-488.85 256.88,-101.84 522.19,-152.77 796.18,-152.77 273.98,0 538.72,50.93 794.34,152.77 255.62,101.84 492.54,264.19 710.86,487.05l1500.87 1560.01c216.27,224.06 373.56,468.98 471.77,734.8 98.33,265.82 147.48,545.37 147.48,838.69 0,274.98 -49.38,547.04 -148.05,816.19 -98.78,269.17 -255.84,511.42 -471.2,726.75l-14066.55 14573.79c-216.25,224.14 -451.67,387.03 -706.27,488.89 -254.57,101.86 -522.34,152.73 -803.27,152.73l-2554.65 0zm13618.78 -13657.21l-766.63 -824.94 -737.32 -733.26 1503.95 1558.2z"/>
 </g>
</svg>
