<svg xmlns="http://www.w3.org/2000/svg" width="512" height="512" viewBox="0 0 512 512" version="1.1"><path d="M 365.113 1.545 C 344.814 5.948, 326.731 16.452, 318 28.912 L 314.500 33.906 168.205 33.953 L 21.909 34 19.455 36.455 C 17.005 38.904, 17 38.954, 17 59.780 L 17 80.651 19.580 83.076 L 22.161 85.500 168.454 86 L 314.747 86.500 318.904 91.760 C 327.763 102.966, 344.547 112.974, 361.500 117.156 C 374.119 120.269, 393.829 120.286, 406.301 117.195 C 444.517 107.723, 467.368 77.867, 459.505 47.680 C 453.563 24.867, 430.063 6.275, 400.566 1.051 C 392.377 -0.400, 372.820 -0.127, 365.113 1.545 M 375.412 18.160 C 355.585 19.832, 338.616 29.423, 328.698 44.563 C 326.939 47.248, 324.375 50.013, 323 50.708 C 321.022 51.707, 290.703 51.974, 177.750 51.985 L 35 52 35 60 L 35 68 178.566 68 C 271.138 68, 322.787 68.351, 323.976 68.987 C 324.991 69.530, 326.837 71.668, 328.078 73.737 C 334.095 83.770, 343.177 91.524, 354.500 96.295 C 366.806 101.482, 384.312 103.219, 398.077 100.620 C 424.204 95.687, 441.746 80.537, 442.822 61.978 C 443.305 53.648, 441.892 48.513, 437.231 41.657 C 425.718 24.721, 402.455 15.879, 375.412 18.160 M 368.500 35.402 C 363.301 37.051, 356.362 40.632, 352.143 43.845 C 347.984 47.011, 341.837 54.928, 342.591 56.147 C 342.898 56.644, 346.325 58.649, 350.206 60.604 L 357.263 64.158 361.382 60.132 C 366.599 55.032, 373.169 52.050, 379.250 52.022 L 384 52 384 43 L 384 34 378.250 34.067 C 375.087 34.104, 370.700 34.705, 368.500 35.402 M 47.302 120.012 C 43.099 121.705, 42 125.836, 42 139.950 L 42 153 37.450 153 C 31.703 153, 27.622 155.085, 26.079 158.810 C 25.243 160.827, 24.971 167.584, 25.188 180.946 L 25.500 200.177 28.306 202.589 C 30.864 204.787, 31.988 205, 41.056 205 L 51 205 51 216.256 L 51 227.512 42.500 240.239 L 34 252.965 34 364.394 C 34 470.946, 34.083 476.088, 35.895 481.909 C 39.668 494.032, 46.992 502.409, 58.979 508.310 L 65.458 511.500 144.979 511.500 L 224.500 511.500 231.274 508.291 C 240.173 504.076, 248.076 496.173, 252.291 487.274 L 255.500 480.500 255.767 366.541 L 256.033 252.583 247.517 239.798 L 239 227.013 239 216.006 L 239 205 249.077 205 C 258.925 205, 259.221 204.932, 262.134 202.020 L 265.115 199.039 264.807 178.545 C 264.513 158.940, 264.404 157.955, 262.289 155.842 C 260.645 154.200, 258.547 153.522, 254.111 153.202 L 248.144 152.770 247.822 138.296 C 247.501 123.845, 247.496 123.818, 244.694 121.411 L 241.888 119 145.694 119.063 C 92.389 119.099, 48.520 119.521, 47.302 120.012 M 341 145 L 341 154 350 154 L 359 154 359 145 L 359 136 350 136 L 341 136 341 145 M 60 145 L 60 153 90 153 L 120 153 120 162 L 120 171 81.500 171 L 43 171 43 179 L 43 187 145 187 L 247 187 247 179 L 247 171 221.500 171 L 196 171 196 162 L 196 153 213 153 L 230 153 230 145 L 230 137 145 137 L 60 137 60 145 M 136 162 L 136 171 145 171 L 154 171 154 162 L 154 153 145 153 L 136 153 136 162 M 392 179 L 392 188 401 188 L 410 188 410 179 L 410 170 401 170 L 392 170 392 179 M 69 213 L 69 221 145 221 L 221 221 221 213 L 221 205 145 205 L 69 205 69 213 M 349.422 231.344 C 349.138 232.083, 349.040 236.020, 349.203 240.094 L 349.500 247.500 358.250 247.789 L 367 248.078 367 239.039 L 367 230 358.469 230 C 352.249 230, 349.798 230.364, 349.422 231.344 M 58.250 248.516 L 52 257.986 52 319.100 C 52 376.893, 52.095 380.177, 53.750 379.541 C 54.712 379.171, 61.350 377.339, 68.500 375.470 C 106.824 365.450, 131.734 364.556, 152.337 372.461 C 163.038 376.566, 187.078 385.978, 198.500 390.533 C 210.457 395.302, 222.928 398.614, 232.750 399.630 L 239 400.276 239 329.935 L 239 259.594 232.250 249.315 L 225.500 239.035 145 239.041 L 64.500 239.047 58.250 248.516 M 384 290 L 384 299 392.500 299 L 401 299 401 290 L 401 281 392.500 281 L 384 281 384 290 M 332.211 315.750 L 332.500 324.500 341.250 324.789 L 350 325.078 350 316.039 L 350 307 340.961 307 L 331.922 307 332.211 315.750 M 418 375.500 L 418 384 427 384 L 436 384 436 375.500 L 436 367 427 367 L 418 367 418 375.500 M 332 384 L 332 393 341 393 L 350 393 350 384 L 350 375 341 375 L 332 375 332 384 M 113.500 384.638 C 98.097 386.686, 74.280 392.041, 57 397.341 L 52.500 398.722 52.500 438.190 L 52.500 477.659 55.526 482.553 C 59.225 488.534, 65.492 492.606, 73.185 494.027 C 76.908 494.715, 102.951 494.978, 148.685 494.789 L 218.500 494.500 224.258 491.672 C 230.302 488.704, 233.765 485.022, 236.698 478.446 C 238.211 475.053, 238.507 470.543, 238.810 446.250 L 239.163 418 236.212 418 C 231.553 418, 216.170 415.169, 208.500 412.900 C 200.624 410.570, 179.619 402.610, 158.086 393.795 C 150.158 390.550, 140.933 387.284, 137.586 386.537 C 130.814 385.026, 118.112 384.025, 113.500 384.638 M 76.667 409.667 C 76.300 410.033, 76 414.083, 76 418.667 L 76 427 85 427 L 94 427 94 418 L 94 409 85.667 409 C 81.083 409, 77.033 409.300, 76.667 409.667 M 367.500 413.418 C 355.932 416.084, 346.165 420.759, 336.164 428.415 C 331.756 431.790, 308.149 458.437, 278.716 493.263 C 272.040 501.162, 271.211 505.302, 275.455 509.545 L 277.909 512 384 512 L 490.091 512 492.545 509.545 C 494.225 507.866, 495 505.976, 495 503.559 C 495 499.570, 497.178 502.340, 460.370 459.500 C 432.297 426.827, 426.213 421.753, 407.500 415.416 C 400.775 413.138, 397.428 412.653, 386.500 412.371 C 377.856 412.147, 371.489 412.498, 367.500 413.418 M 111 435 L 111 444 119.500 444 L 128 444 128 435 L 128 426 119.500 426 L 111 426 111 435 M 369 431.583 C 361.163 433.650, 352.312 438.205, 346.429 443.197 C 343.640 445.564, 332.275 458.075, 321.172 471 L 300.986 494.500 342.493 494.761 C 365.322 494.905, 402.679 494.905, 425.510 494.761 L 467.019 494.500 446.627 470.757 C 435.412 457.699, 424.045 445.193, 421.368 442.966 C 415.430 438.028, 406.513 433.557, 398.540 431.522 C 391.110 429.625, 376.305 429.655, 369 431.583 M 384 452 L 384 461 392.500 461 L 401 461 401 452 L 401 443 392.500 443 L 384 443 384 452 M 196 461 L 196 470 205 470 L 214 470 214 461 L 214 452 205 452 L 196 452 196 461 M 162 468.961 L 162 478 171.039 478 L 180.078 478 179.789 469.250 L 179.500 460.500 170.750 460.211 L 162 459.922 162 468.961 M 349.667 460.667 C 349.300 461.033, 349 465.083, 349 469.667 L 349 478 358 478 L 367 478 367 469 L 367 460 358.667 460 C 354.083 460, 350.033 460.300, 349.667 460.667" stroke="none" fill-rule="evenodd"/></svg>