<svg width="20" height="19" viewBox="0 0 20 19" fill="none" xmlns="http://www.w3.org/2000/svg">
<path d="M10.125 9.36539C8.92186 9.36539 7.89193 8.93701 7.03516 8.08026C6.17839 7.22349 5.75 6.19355 5.75 4.99045C5.75 3.78732 6.17839 2.75738 7.03516 1.90063C7.89193 1.04386 8.92186 0.615479 10.125 0.615479C11.3281 0.615479 12.358 1.04386 13.2148 1.90063C14.0716 2.75738 14.4999 3.78732 14.4999 4.99045C14.4999 6.19355 14.0716 7.22349 13.2148 8.08026C12.358 8.93701 11.3281 9.36539 10.125 9.36539ZM0.75 16.9856V16.1058C0.75 15.4936 0.916271 14.9267 1.24881 14.4051C1.58133 13.8835 2.02564 13.4824 2.58172 13.202C3.8173 12.5962 5.0637 12.1419 6.32091 11.839C7.57811 11.5361 8.84614 11.3847 10.125 11.3847C11.4038 11.3847 12.6718 11.5361 13.929 11.839C15.1862 12.1419 16.4326 12.5962 17.6682 13.202C18.2243 13.4824 18.6686 13.8835 19.0011 14.4051C19.3337 14.9267 19.4999 15.4936 19.4999 16.1058V16.9856C19.4999 17.5128 19.3152 17.9611 18.9458 18.3305C18.5765 18.6999 18.1282 18.8846 17.6009 18.8846H2.649C2.12177 18.8846 1.67347 18.6999 1.30409 18.3305C0.934698 17.9611 0.75 17.5128 0.75 16.9856ZM2.62497 17.0096H17.625V16.1058C17.625 15.8526 17.5516 15.6182 17.405 15.4027C17.2584 15.1871 17.0593 15.0112 16.8077 14.875C15.7307 14.3446 14.6326 13.9427 13.5133 13.6695C12.3941 13.3962 11.2646 13.2596 10.125 13.2596C8.98534 13.2596 7.85589 13.3962 6.73659 13.6695C5.6173 13.9427 4.5192 14.3446 3.44228 14.875C3.19068 15.0112 2.99156 15.1871 2.84494 15.4027C2.69829 15.6182 2.62497 15.8526 2.62497 16.1058V17.0096ZM10.125 7.49045C10.8125 7.49045 11.401 7.24566 11.8906 6.75607C12.3802 6.26649 12.625 5.67795 12.625 4.99045C12.625 4.30295 12.3802 3.71441 11.8906 3.22482C11.401 2.73524 10.8125 2.49045 10.125 2.49045C9.43747 2.49045 8.84893 2.73524 8.35934 3.22482C7.86976 3.71441 7.62497 4.30295 7.62497 4.99045C7.62497 5.67795 7.86976 6.26649 8.35934 6.75607C8.84893 7.24566 9.43747 7.49045 10.125 7.49045Z" fill="#F5484A"/>
</svg>
