<svg xmlns="http://www.w3.org/2000/svg"  viewBox="0 0 39 38">
  <g clip-path="url(#clip0_77_323)">
    <path d="M13.7928 1.68354C3.22828 5.10746 -1.97333 17.1727 2.74441 27.2406C6.01054 34.2107 13.067 38.4499 20.5267 37.8792C33.8734 36.8602 41.6557 22.5124 35.3251 10.5287C33.1073 6.28952 28.1073 2.41724 23.5105 1.35746C20.7686 0.705284 16.3331 0.868324 13.7928 1.68354ZM23.9944 3.1917C28.5105 4.5368 32.3815 7.96072 34.5589 12.6482C35.7283 15.1346 35.8493 15.746 35.8493 19.2515C35.8089 23.8982 34.8815 26.7515 32.2605 29.9716C23.7928 40.4471 7.70409 37.4308 3.38957 24.5096C2.26054 21.208 2.42183 16.5613 3.75247 13.0151C4.76054 10.4471 8.06699 6.45257 10.5267 4.94441C14.1557 2.6618 19.7605 1.92811 23.9944 3.1917Z" />
    <path d="M16.4945 10.0803C14.5187 10.7732 11.9784 13.545 11.6155 15.42C11.1316 18.0287 12.3816 21.2895 13.8736 21.2895C14.5591 21.2895 14.8413 20.026 14.3574 19.2107C14.0752 18.8031 13.8736 17.7434 13.8736 16.9281C13.8736 11.5069 21.8171 9.38737 23.8333 14.2379C25.0429 17.2542 23.3494 21.7787 20.8897 22.0232C18.8333 22.227 18.43 21.2895 19.2365 18.314C19.801 16.0722 19.8413 15.7053 19.2768 14.8901C18.5107 13.708 18.1074 13.708 16.8171 15.0124C15.9703 15.9091 15.8494 16.276 16.051 17.6211C16.2123 18.5993 16.0107 20.4336 15.4865 22.5939C15.0429 24.4689 14.68 26.8738 14.68 27.9743C14.68 29.9309 14.68 29.9716 15.4865 29.2379C16.2526 28.545 17.2203 26.2624 17.7042 23.9798C17.9462 22.92 17.9865 22.8792 18.672 23.4906C19.6397 24.3874 22.2607 24.3059 23.8333 23.3276C26.4945 21.6972 27.8252 16.9689 26.4542 13.9118C25.5268 11.7515 24.5187 10.814 22.4623 10.0395C20.4865 9.34661 18.5107 9.34661 16.4945 10.0803Z"/>
  </g>

</svg>