<svg xmlns="http://www.w3.org/2000/svg" xmlns:xlink="http://www.w3.org/1999/xlink" xml:space="preserve" version="1.1" viewBox="4990.06 4999.91 9915.53 9915.34">

 <g id="Слой_x0020_1">
  <path id="Vector.svg" class="fil0" d="M9948.59 14915.25c-685.52,0 -1330.1,-130.11 -1933.56,-390.33 -603.26,-260.22 -1128.12,-613.45 -1574.37,-1059.51 -446.44,-446.06 -799.67,-970.72 -1060.08,-1573.79 -260.41,-603.07 -390.52,-1247.47 -390.52,-1933.18 0,-685.71 130.11,-1330.29 390.33,-1933.56 260.21,-603.46 613.45,-1128.12 1059.5,-1574.56 446.25,-446.25 970.72,-799.68 1573.8,-1059.89 603.26,-260.41 1247.65,-390.52 1933.37,-390.52 685.51,0 1330.1,130.11 1933.56,390.33 603.26,260.21 1128.11,613.45 1574.36,1059.5 446.45,446.06 799.68,970.72 1060.09,1573.8 260.41,603.07 390.52,1247.46 390.52,1933.17 0,685.71 -130.11,1330.11 -390.33,1933.56 -260.21,603.46 -613.45,1128.12 -1059.51,1574.56 -446.25,446.26 -970.72,799.68 -1573.98,1059.9 -603.07,260.41 -1247.47,390.52 -1933.18,390.52zm-522.55 -808.91l0 -1017.61c-287.12,0 -532.92,-102.24 -737.21,-306.53 -204.49,-204.49 -306.53,-450.1 -306.53,-737.22l0 -521.78 -2505.12 -2504.92c-25.94,156.44 -49.97,313.07 -71.68,469.7 -21.72,156.43 -32.68,313.06 -32.68,469.5 0,1052.59 345.74,1974.5 1037.22,2765.91 691.48,791.6 1563.41,1252.65 2616,1382.95zm3600.76 -1330.68c173.93,-191.41 330.56,-397.82 469.7,-619.79 139.14,-221.78 254.45,-452.21 345.74,-691.48 91.28,-239.07 160.85,-484.88 208.71,-737.02 47.85,-252.34 71.87,-508.9 71.87,-769.89 0,-854.83 -236.19,-1635.48 -708.58,-2342.14 -472.39,-706.66 -1106.02,-1216.52 -1900.7,-1529.59l0 218.7c0,287.13 -102.24,532.74 -306.72,737.22 -204.48,204.29 -450.09,306.53 -737.22,306.53l-1043.56 0 0 1043.75c0,147.79 -50.16,271.75 -150.09,371.88 -100.13,99.93 -224.09,150.09 -371.88,150.09l-1043.75 0 0 1043.56 3131.25 0c147.79,0 271.75,50.16 371.88,150.1 99.93,100.12 150.09,223.89 150.09,371.87l0 1565.53 521.78 0c226.2,0 430.5,67.46 613.26,202.37 182.58,134.72 308.65,310.95 378.22,528.31z"/>
 </g>
</svg>