<svg xmlns="http://www.w3.org/2000/svg" version="1.1" viewBox="25.8 55.95 460.2 400.31"><path d="M 242.579 58.042 C 239.322 59.196, 234.761 61.444, 232.444 63.039 C 230.126 64.633, 227.097 67.284, 225.713 68.929 C 224.328 70.575, 222.419 73.956, 221.469 76.442 L 219.742 80.964 220.207 85.799 C 220.462 88.459, 221.422 92.140, 222.340 93.980 C 223.258 95.819, 223.879 97.454, 223.721 97.612 C 223.563 97.770, 218.499 98.627, 212.467 99.516 C 206.435 100.405, 197.450 102.025, 192.500 103.117 C 187.550 104.209, 178.929 106.430, 173.343 108.053 C 167.756 109.677, 158.304 112.967, 152.337 115.364 C 146.371 117.762, 138.596 121.185, 135.060 122.970 C 131.524 124.755, 124.603 128.707, 119.680 131.752 C 114.757 134.797, 106.852 140.517, 102.114 144.463 C 97.377 148.409, 91.475 153.877, 89 156.613 C 86.525 159.349, 83.020 162.192, 81.212 162.931 C 79.403 163.670, 77.491 165.083, 76.962 166.071 C 76.433 167.060, 76 169.835, 76 172.238 L 76 176.607 78.586 181.797 C 80.008 184.651, 82.483 187.920, 84.086 189.061 L 87 191.136 87 195.175 L 87 199.214 85.750 198.694 C 85.063 198.408, 77.975 195.374, 70 191.953 L 55.500 185.731 49.500 185.657 L 43.500 185.583 39.500 187.700 C 37.300 188.864, 34.287 191.096, 32.804 192.658 C 31.321 194.221, 29.138 197.692, 27.954 200.370 L 25.800 205.241 25.800 210.964 L 25.800 216.688 27.808 220.594 C 28.913 222.742, 31.096 225.686, 32.658 227.136 C 34.221 228.586, 37.075 230.572, 39 231.549 C 40.925 232.527, 52.400 237.506, 64.500 242.614 L 86.500 251.901 87 302.724 L 87.500 353.547 90.741 360.128 C 92.697 364.100, 95.979 368.577, 99.018 371.420 C 101.787 374.011, 107.079 377.559, 110.777 379.306 L 117.500 382.482 135.280 382.991 L 153.059 383.500 156.381 391.148 C 158.208 395.354, 161.178 401.204, 162.981 404.148 C 164.785 407.092, 168.452 412.265, 171.132 415.644 C 173.811 419.023, 178.731 424.313, 182.064 427.399 C 185.398 430.486, 190.789 434.820, 194.045 437.030 C 197.300 439.241, 203.459 442.788, 207.732 444.914 C 212.004 447.039, 219.100 449.905, 223.500 451.284 C 227.900 452.663, 234.967 454.346, 239.203 455.025 L 246.907 456.259 260.703 455.738 L 274.500 455.218 282.187 453.166 C 286.414 452.037, 292.939 449.906, 296.687 448.429 C 300.434 446.952, 306.937 443.721, 311.138 441.248 C 315.339 438.775, 322.073 433.988, 326.103 430.611 C 330.132 427.234, 336.066 421.330, 339.290 417.492 C 342.513 413.654, 346.775 407.840, 348.760 404.573 C 350.744 401.305, 353.847 395.227, 355.655 391.066 L 358.941 383.500 376.720 382.935 L 394.500 382.371 399 380.514 C 401.475 379.493, 405.326 377.423, 407.557 375.913 C 409.789 374.404, 413.328 371.273, 415.422 368.955 C 417.516 366.637, 420.415 362.211, 421.865 359.120 L 424.500 353.500 425 302.706 L 425.500 251.911 449.969 241.574 L 474.438 231.236 478.234 228.049 C 480.321 226.296, 482.923 223.111, 484.015 220.971 L 486 217.080 485.978 210.790 L 485.956 204.500 483.919 200 C 482.799 197.525, 480.671 194.221, 479.191 192.658 C 477.711 191.096, 474.700 188.864, 472.500 187.700 L 468.500 185.583 462.500 185.657 L 456.500 185.731 442 191.953 C 434.025 195.374, 426.938 198.408, 426.250 198.694 L 425 199.214 425 195.295 L 425 191.376 427.882 189.245 C 429.467 188.073, 431.942 184.750, 433.382 181.861 L 436 176.607 436 172.238 C 436 169.835, 435.567 167.060, 435.038 166.071 C 434.509 165.083, 432.650 163.684, 430.907 162.962 C 429.164 162.240, 424.085 157.985, 419.619 153.507 C 415.154 149.029, 408.578 143.145, 405.006 140.432 C 401.435 137.720, 393.963 132.765, 388.401 129.422 C 382.840 126.080, 373.933 121.434, 368.608 119.099 C 363.284 116.764, 354.484 113.309, 349.053 111.422 C 343.622 109.535, 333.922 106.664, 327.496 105.041 C 321.071 103.418, 310.794 101.342, 304.657 100.427 C 298.521 99.512, 292.979 98.622, 292.342 98.449 L 291.185 98.134 293.323 93.817 L 295.462 89.500 295.449 84 L 295.436 78.500 292.519 73.176 C 290.915 70.248, 287.930 66.529, 285.887 64.910 C 283.844 63.292, 279.546 60.764, 276.336 59.292 L 270.500 56.616 259.500 56.280 L 248.500 55.945 242.579 58.042 M 251.297 73.008 C 248.985 73.488, 246.060 74.412, 244.797 75.062 C 243.533 75.712, 241.262 77.399, 239.750 78.809 C 238.118 80.332, 237 82.427, 237 83.965 C 237 85.389, 237.705 87.561, 238.566 88.791 C 239.427 90.021, 242.015 91.992, 244.316 93.171 L 248.500 95.316 255.621 95.781 L 262.742 96.246 267.779 94.574 C 270.549 93.653, 273.964 91.836, 275.367 90.536 C 276.771 89.235, 278.221 86.968, 278.590 85.498 L 279.261 82.826 277.294 80.192 C 276.212 78.743, 273.341 76.573, 270.914 75.371 C 268.486 74.168, 264.025 72.948, 261 72.660 C 257.975 72.372, 253.608 72.529, 251.297 73.008 M 237.500 113.575 C 235.300 113.787, 228.775 114.463, 223 115.077 C 217.225 115.691, 206.924 117.308, 200.108 118.670 C 193.293 120.032, 183.843 122.262, 179.108 123.625 C 174.374 124.989, 164.875 128.350, 158 131.095 C 151.125 133.840, 141.132 138.556, 135.794 141.575 C 130.455 144.594, 122.580 149.670, 118.294 152.856 C 114.007 156.042, 109.882 159.403, 109.128 160.324 L 107.755 162 256 162 L 404.245 162 402.872 160.324 C 402.118 159.403, 398.102 156.123, 393.949 153.036 C 389.795 149.949, 382.680 145.244, 378.137 142.580 C 373.593 139.917, 364.662 135.528, 358.290 132.827 C 351.917 130.126, 341.707 126.407, 335.601 124.561 C 329.496 122.716, 319.812 120.239, 314.082 119.056 C 308.353 117.874, 298.678 116.233, 292.582 115.409 C 286.487 114.585, 272.500 113.749, 261.500 113.550 C 250.500 113.351, 239.700 113.363, 237.500 113.575 M 101.317 180.798 L 102.944 182.596 103.222 265.548 L 103.500 348.500 105.662 352.500 C 106.852 354.700, 109.327 357.940, 111.162 359.699 C 112.998 361.459, 116.173 363.596, 118.218 364.449 L 121.936 366 135.316 366 L 148.697 366 147.754 360.250 C 147.236 357.087, 147.060 349.100, 147.364 342.500 C 147.667 335.900, 148.568 327.551, 149.365 323.946 C 150.162 320.341, 152.367 313.257, 154.265 308.204 C 156.163 303.151, 159.852 295.482, 162.463 291.164 C 165.074 286.845, 169.975 280.069, 173.355 276.107 C 176.735 272.144, 183.100 266.006, 187.500 262.467 C 191.971 258.871, 200.352 253.598, 206.500 250.515 C 212.550 247.480, 221.448 243.884, 226.274 242.524 C 231.100 241.164, 237.963 239.752, 241.524 239.387 L 248 238.724 248 231.362 L 248 224 238.450 224 L 228.901 224 226.059 222.530 C 224.496 221.722, 222.736 219.680, 222.147 217.993 L 221.078 214.925 221.976 212.563 C 222.470 211.265, 223.902 209.481, 225.159 208.601 L 227.445 207 256 207 L 284.555 207 286.841 208.601 C 288.098 209.481, 289.530 211.265, 290.024 212.563 L 290.922 214.925 289.853 217.993 C 289.264 219.680, 287.504 221.722, 285.941 222.530 L 283.099 224 273.550 224 L 264 224 264 231.362 L 264 238.724 270.476 239.387 C 274.037 239.752, 280.900 241.164, 285.726 242.524 C 290.552 243.884, 299.450 247.480, 305.500 250.515 C 311.648 253.598, 320.029 258.871, 324.500 262.467 C 328.900 266.006, 335.265 272.144, 338.645 276.107 C 342.025 280.069, 346.926 286.845, 349.537 291.164 C 352.148 295.482, 355.798 303.046, 357.648 307.972 C 359.499 312.898, 361.728 320.207, 362.604 324.214 C 363.479 328.221, 364.416 336.675, 364.688 343 C 364.959 349.325, 364.758 357.087, 364.242 360.250 L 363.303 366 376.684 366 L 390.064 366 393.782 364.449 C 395.827 363.596, 399.002 361.459, 400.838 359.699 C 402.673 357.940, 405.148 354.700, 406.338 352.500 L 408.500 348.500 408.783 265.542 L 409.066 182.584 410.688 180.792 L 412.310 179 256 179 L 99.690 179 101.317 180.798 M 47.465 202.961 C 46.346 203.409, 44.809 204.526, 44.049 205.441 C 43.289 206.357, 42.667 208.458, 42.667 210.109 C 42.667 211.760, 43.529 213.950, 44.583 214.975 C 45.638 216.001, 55.275 220.529, 66 225.038 C 76.725 229.547, 85.838 233.434, 86.250 233.677 C 86.662 233.920, 87 230.366, 87 225.781 L 87 217.444 70.250 210.341 C 61.037 206.434, 52.600 202.991, 51.500 202.691 C 50.400 202.391, 48.584 202.512, 47.465 202.961 M 453.500 205.376 C 449.100 207.206, 440.887 210.660, 435.250 213.054 L 425 217.405 425 225.762 C 425 230.358, 425.337 233.920, 425.750 233.677 C 426.163 233.434, 435.275 229.547, 446 225.038 C 456.725 220.529, 466.363 216.001, 467.417 214.975 C 468.495 213.926, 469.333 211.751, 469.333 210 C 469.333 208.241, 468.501 206.089, 467.417 205.049 C 466.363 204.037, 464.600 202.948, 463.500 202.630 C 462.339 202.294, 458.142 203.447, 453.500 205.376 M 115.500 219.155 C 114.400 219.756, 112.938 220.954, 112.250 221.815 L 111 223.382 111 235.119 L 111 246.855 113.635 248.927 C 115.084 250.067, 117.498 251, 119 251 C 120.502 251, 122.916 250.067, 124.365 248.927 L 127 246.855 127 235.509 C 127 229.269, 126.720 223.435, 126.379 222.545 C 126.037 221.654, 124.485 220.268, 122.928 219.463 C 121.372 218.658, 119.514 218.014, 118.800 218.030 C 118.085 218.047, 116.600 218.553, 115.500 219.155 M 163.291 258.291 L 150 271.582 150 275.180 C 150 277.221, 150.820 279.791, 151.893 281.116 L 153.786 283.455 157.945 283.455 L 162.103 283.455 175.551 269.905 L 189 256.354 189 253.132 L 189 249.909 186.545 247.455 L 184.091 245 180.336 245 L 176.582 245 163.291 258.291 M 325.455 247.455 L 323 249.909 323 253.122 L 323 256.334 336.158 269.622 L 349.316 282.910 352.085 283.519 C 353.742 283.883, 356.040 283.514, 357.806 282.600 C 359.429 281.761, 361.037 280.346, 361.379 279.455 C 361.720 278.565, 362 276.429, 362 274.709 L 362 271.582 348.709 258.291 L 335.418 245 331.664 245 L 327.909 245 325.455 247.455 M 240.342 256.479 C 236.404 257.194, 230.779 258.556, 227.842 259.505 C 224.904 260.455, 218.903 263.009, 214.506 265.181 C 210.109 267.352, 204.102 270.948, 201.156 273.172 C 198.211 275.395, 193.108 279.976, 189.815 283.351 C 186.523 286.726, 181.828 292.498, 179.382 296.177 C 176.936 299.857, 173.603 305.804, 171.975 309.395 C 170.347 312.985, 168 319.428, 166.760 323.711 L 164.505 331.500 164.516 347 L 164.526 362.500 166.388 369.416 C 167.412 373.219, 169.512 379.391, 171.054 383.130 C 172.596 386.870, 175.954 393.170, 178.515 397.130 C 181.077 401.090, 185.722 407.010, 188.837 410.285 C 191.951 413.561, 197.007 418.176, 200.070 420.540 C 203.134 422.905, 208.534 426.429, 212.070 428.371 C 215.607 430.313, 222.647 433.255, 227.716 434.910 C 233.023 436.643, 241.109 438.348, 246.781 438.930 L 256.630 439.940 266.065 438.903 C 271.254 438.333, 279.550 436.521, 284.500 434.877 C 289.450 433.233, 296.393 430.302, 299.930 428.364 C 303.466 426.426, 308.866 422.905, 311.930 420.540 C 314.993 418.176, 320.049 413.561, 323.163 410.285 C 326.278 407.010, 330.923 401.090, 333.485 397.130 C 336.046 393.170, 339.404 386.870, 340.946 383.130 C 342.488 379.391, 344.591 373.219, 345.619 369.416 L 347.487 362.500 347.418 347 L 347.348 331.500 345.165 323.554 C 343.964 319.184, 341.187 311.901, 338.994 307.370 C 336.801 302.839, 332.284 295.519, 328.957 291.103 C 325.629 286.687, 319.890 280.551, 316.203 277.468 C 312.516 274.385, 306.410 270.043, 302.632 267.818 C 298.855 265.594, 292.205 262.475, 287.854 260.887 C 283.503 259.300, 276.072 257.325, 271.341 256.500 C 266.609 255.675, 259.309 255.041, 255.119 255.090 C 250.929 255.140, 244.279 255.765, 240.342 256.479 M 115.315 259.969 C 114.114 260.474, 112.651 261.783, 112.065 262.878 L 111 264.869 111.022 302.684 L 111.044 340.500 112.871 344.522 C 113.876 346.734, 116.215 350.061, 118.069 351.915 C 119.923 353.769, 122.901 355.896, 124.688 356.643 C 126.474 357.389, 129.188 357.986, 130.718 357.968 C 132.248 357.951, 134.270 357.352, 135.211 356.637 C 136.152 355.922, 137.409 354.053, 138.006 352.485 L 139.090 349.632 137.902 346.763 C 137.211 345.095, 135.083 343.063, 132.817 341.906 C 130.673 340.813, 128.488 338.782, 127.960 337.394 C 127.413 335.955, 127 319.686, 127 299.546 L 127 264.222 125.250 262.114 C 124.287 260.955, 122.150 259.791, 120.500 259.529 C 118.850 259.266, 116.517 259.464, 115.315 259.969 M 252.315 261.969 C 251.114 262.474, 249.651 263.783, 249.065 264.878 C 248.479 265.973, 248 268.198, 248 269.823 C 248 271.449, 248.852 273.831, 249.893 275.116 L 251.786 277.455 256 277.455 L 260.214 277.455 262.107 275.116 C 263.148 273.831, 264 271.303, 264 269.500 C 264 267.697, 263.212 265.273, 262.250 264.114 C 261.288 262.955, 259.150 261.791, 257.500 261.529 C 255.850 261.266, 253.517 261.464, 252.315 261.969 M 195.455 286.455 L 193 288.909 193 292.020 C 193 293.731, 193.433 295.940, 193.962 296.929 C 194.491 297.917, 196.291 299.292, 197.962 299.984 L 201 301.243 204.038 299.984 C 205.709 299.292, 207.509 297.917, 208.038 296.929 C 208.567 295.940, 209 293.731, 209 292.020 L 209 288.909 206.545 286.455 L 204.091 284 201 284 L 197.909 284 195.455 286.455 M 277.769 313.769 L 248 343.537 248 347.094 L 248 350.651 250.250 352.677 C 251.488 353.791, 253.313 354.990, 254.306 355.341 C 255.299 355.693, 257.549 355.358, 259.306 354.597 C 261.063 353.836, 275.212 340.435, 290.750 324.816 L 319 296.419 319 292.664 L 319 288.909 316.545 286.455 L 314.091 284 310.814 284 L 307.537 284 277.769 313.769 M 172.455 341.455 L 170 343.909 170 347.366 L 170 350.822 173.077 353.411 C 174.769 354.835, 176.765 356, 177.512 356 C 178.259 356, 180.046 355.553, 181.483 355.006 C 183.018 354.423, 184.693 352.585, 185.542 350.554 L 186.987 347.096 186.057 344.649 C 185.545 343.303, 184.098 341.481, 182.841 340.601 C 181.584 339.720, 179.285 339, 177.732 339 C 176.068 339, 173.901 340.008, 172.455 341.455 M 329.159 340.601 C 327.902 341.481, 326.455 343.303, 325.943 344.649 L 325.013 347.096 326.458 350.554 C 327.307 352.585, 328.982 354.423, 330.517 355.006 C 331.954 355.553, 333.741 356, 334.488 356 C 335.235 356, 337.231 354.835, 338.923 353.411 L 342 350.822 342 347.366 L 342 343.909 339.545 341.455 C 338.099 340.008, 335.932 339, 334.268 339 C 332.715 339, 330.416 339.720, 329.159 340.601 M 195.455 396.455 L 193 398.909 193 402.020 C 193 403.731, 193.433 405.940, 193.962 406.929 C 194.491 407.917, 196.291 409.292, 197.962 409.984 L 201 411.243 204.038 409.984 C 205.709 409.292, 207.509 407.917, 208.038 406.929 C 208.567 405.940, 209 403.731, 209 402.020 L 209 398.909 206.545 396.455 L 204.091 394 201 394 L 197.909 394 195.455 396.455 M 305.455 396.455 L 303 398.909 303 402.020 C 303 403.731, 303.433 405.940, 303.962 406.929 C 304.491 407.917, 306.291 409.292, 307.962 409.984 L 311 411.243 314.038 409.984 C 315.709 409.292, 317.509 407.917, 318.038 406.929 C 318.567 405.940, 319 403.731, 319 402.020 L 319 398.909 316.545 396.455 L 314.091 394 311 394 L 307.909 394 305.455 396.455 M 250.635 419.073 L 248 421.145 248 424.898 L 248 428.651 250.314 430.826 L 252.629 433 256.140 433 L 259.651 433 261.826 430.686 L 264 428.371 264 424.758 L 264 421.145 261.365 419.073 C 259.916 417.933, 257.502 417, 256 417 C 254.498 417, 252.084 417.933, 250.635 419.073"  fill-rule="evenodd"/></svg>