<svg xmlns="http://www.w3.org/2000/svg" width="176" height="200" viewBox="0 0 176 200" version="1.1"><path d="M 65.760 1.558 C 54.136 4.375, 45.209 10.620, 39.435 19.973 C 36.081 25.409, 35.402 25.962, 30.916 26.925 C 19.607 29.350, 8.802 37.519, 4.158 47.154 C -4.975 66.102, 2.809 90.278, 20.574 98.136 L 25 100.094 25.002 105.797 C 25.004 113.093, 27.362 117.837, 32.377 120.628 L 36.253 122.785 33.377 123.339 C 31.794 123.644, 28.475 124.194, 26 124.563 C 19.925 125.467, 18 126.632, 18 129.405 C 18 131.446, 17.407 131.807, 13.289 132.271 C 10.076 132.633, 8.010 133.504, 6.789 135.012 C 4.542 137.787, 4.555 138.164, 6.999 141.271 C 8.449 143.115, 10.339 143.997, 13.893 144.485 L 18.789 145.159 19.474 150.829 C 21.019 163.634, 28.484 178.440, 36.219 184.044 C 40.629 187.238, 40.384 187.432, 30.500 188.575 C 19.404 189.857, 17.112 192.126, 24.375 194.640 C 43.797 201.364, 141.090 201.149, 158.096 194.345 C 160.243 193.486, 162 192.417, 162 191.969 C 162 190.881, 156.654 189.255, 150.500 188.470 C 141.851 187.366, 141.530 187.157, 144.698 184.671 C 154.370 177.083, 162 161.456, 162 149.234 L 162 145.258 166.838 144.616 C 178.911 143.014, 178.486 132, 166.351 132 C 164.525 132, 164 131.455, 164 129.559 C 164 126.673, 163.227 126.106, 157.203 124.569 L 152.651 123.408 149.914 115.261 L 147.176 107.115 149.636 105.503 C 155.498 101.662, 157.154 95.154, 154.832 85.091 C 153.840 80.793, 153.898 79.763, 155.218 78.265 C 156.073 77.294, 158.061 74.025, 159.636 71 C 162.237 66.006, 162.498 64.580, 162.479 55.500 C 162.460 46.283, 162.205 44.978, 159.217 38.832 C 155.428 31.037, 148.683 24.465, 140.192 20.295 C 135.061 17.776, 133.403 17.489, 123.369 17.385 L 112.239 17.270 108.516 13.149 C 98.794 2.388, 81.584 -2.278, 65.760 1.558 M 65 3.747 C 61.425 4.719, 56.415 6.736, 53.866 8.231 C 48.209 11.548, 40.528 19.897, 38.842 24.560 C 37.920 27.109, 37.008 28, 35.320 28 C 34.067 28, 30.056 28.980, 26.407 30.178 C 14.435 34.108, 5.734 44.240, 3.011 57.420 C 0.135 71.339, 6.584 87.361, 17.896 94.403 C 24.281 98.377, 25 98.384, 25 94.469 C 25 91.667, 24.616 91, 23 91 C 21.900 91, 21 90.550, 21 90 C 21 89.450, 22.073 89, 23.383 89 C 25.802 89, 26.132 88.443, 27.962 81.250 L 28.789 78 23.395 78 C 20.200 78, 18 77.560, 18 76.921 C 18 76.252, 19.093 76.081, 20.872 76.472 C 25.814 77.557, 28.493 76.224, 30.763 71.550 L 32.861 67.233 29.154 66.641 C 27.116 66.315, 24.560 65.333, 23.474 64.458 C 21.584 62.936, 21.628 62.896, 24.500 63.515 C 33.642 65.484, 34.616 65.358, 38.493 61.701 C 40.528 59.781, 43.725 57.386, 45.596 56.378 C 49.439 54.309, 49.818 53.394, 47.179 52.557 C 45.081 51.891, 39 46.189, 39 44.888 C 39 44.407, 41.060 45.585, 43.577 47.507 C 46.094 49.428, 49.146 51.250, 50.359 51.554 C 51.575 51.859, 56.655 50.737, 61.680 49.054 C 66.693 47.374, 71.741 46, 72.898 46 C 74.054 46, 75 45.831, 75 45.624 C 75 45.418, 73.851 42.652, 72.447 39.477 C 71.043 36.302, 70.271 33.329, 70.732 32.868 C 71.192 32.408, 72.791 34.837, 74.284 38.266 L 77 44.500 92.959 44.500 L 108.918 44.500 110.542 40.250 C 111.435 37.912, 112.578 36, 113.083 36 C 114.313 36, 114.254 36.457, 112.477 40.709 C 111.639 42.714, 111.302 44.653, 111.727 45.019 C 113.333 46.401, 128.096 51.058, 129.034 50.479 C 129.573 50.146, 130.698 48.552, 131.533 46.937 C 132.368 45.321, 133.490 44, 134.026 44 C 135.674 44, 135.117 45.707, 132.428 48.903 C 131.014 50.584, 130.141 52.419, 130.488 52.980 C 130.835 53.542, 133.117 54.504, 135.560 55.119 C 138.574 55.878, 141.021 57.405, 143.171 59.869 C 144.914 61.866, 147.501 63.789, 148.920 64.142 C 151.500 64.783, 151.500 64.783, 149.222 65.516 C 146.601 66.358, 146.852 68.132, 150.458 74.261 C 152.531 77.786, 152.767 77.911, 154.207 76.261 C 158.770 71.030, 161.332 62.070, 160.769 53.303 C 159.387 31.768, 138.613 15.182, 117.834 19.023 L 112.242 20.057 105.871 13.735 C 101.171 9.071, 97.927 6.817, 93.500 5.142 C 85.226 2.011, 73.501 1.437, 65 3.747 M 74.100 47.489 C 57.621 51.214, 44.429 57.447, 37.852 64.614 C 34.003 68.808, 31.008 74.154, 31.004 76.835 C 31 79.023, 31.298 78.908, 35.734 75.003 C 44.783 67.038, 58.494 60.907, 75 57.447 C 84.973 55.356, 111.895 55.021, 118.734 56.903 C 122.246 57.870, 123.481 57.803, 125.984 56.508 C 127.643 55.651, 129 54.747, 129 54.500 C 129 53.668, 122.543 50.691, 116.500 48.735 C 108.402 46.115, 83.424 45.381, 74.100 47.489 M 127.500 57.824 C 123.513 60.335, 121.521 62.792, 120.142 66.899 C 116.817 76.799, 121.529 88.127, 130.378 91.507 C 135.438 93.439, 135.617 93.891, 140.587 117.250 L 143.300 130 147.091 130 C 149.176 130, 151.149 129.569, 151.474 129.042 C 151.800 128.514, 149.301 119.949, 145.921 110.008 L 139.775 91.933 142.521 87.970 C 145.729 83.341, 147.034 72.663, 145.105 66.819 C 142.447 58.763, 133.371 54.126, 127.500 57.824 M 77.500 58.943 C 60.562 62.192, 50.039 66.453, 39.146 74.472 C 29.766 81.377, 27.824 85.006, 27.219 96.761 L 26.719 106.500 30.759 101.407 C 37.340 93.110, 52.864 83.902, 68.320 79.128 C 78.880 75.867, 95.264 73.746, 106.648 74.167 L 117 74.551 117 71.670 C 117 70.086, 118.084 66.633, 119.408 63.995 L 121.817 59.200 118.658 58.610 C 116.921 58.286, 109.200 57.796, 101.500 57.522 C 90.286 57.124, 85.510 57.406, 77.500 58.943 M 128.449 59.528 C 123.914 61.801, 121.542 66.479, 121.618 73 C 121.695 79.639, 123.957 84.394, 128.299 87.040 C 132.426 89.557, 136.177 89.524, 139.139 86.944 C 141.360 85.009, 141.371 84.950, 139.316 85.944 C 135.443 87.817, 130.127 87.218, 127.524 84.615 C 122.188 79.279, 121.938 67.908, 127.044 62.802 C 130.259 59.588, 133.799 59.216, 137.785 61.674 L 140.500 63.348 138.500 61.237 C 135.750 58.334, 132.076 57.709, 128.449 59.528 M 125.014 75.050 C 125.039 77.690, 126.219 81, 127.136 81 C 127.632 81, 127.746 79.763, 127.390 78.250 C 126.640 75.068, 124.993 72.850, 125.014 75.050 M 112.583 93.542 C 108.083 97.516, 104.449 98.215, 105.305 94.943 C 105.601 93.811, 105.541 93.047, 105.171 93.244 C 99.227 96.415, 93.647 98.272, 87.281 99.196 C 74.318 101.078, 68.243 98.563, 73.146 93.345 C 74.357 92.055, 75.158 91.006, 74.924 91.013 C 74.691 91.020, 71.647 91.920, 68.161 93.013 C 64.674 94.106, 60.357 95, 58.566 95 C 56.716 95, 54.647 95.756, 53.776 96.750 C 49.858 101.218, 46.034 112.301, 46.012 119.250 C 46.002 122.359, 46.348 123, 48.035 123 C 51.140 123, 55.123 126.051, 56.584 129.547 L 57.895 132.686 74.391 133.362 C 96.318 134.260, 125.124 133.022, 124.862 131.192 C 124.305 127.299, 128.958 123.012, 133.750 123.004 C 137.408 122.998, 136.731 117.208, 132.012 108.153 C 128.382 101.186, 119.245 89.940, 117.298 90.042 C 116.859 90.065, 114.738 91.640, 112.583 93.542 M 60.315 104.007 C 55.753 105.845, 54.556 112.576, 58.189 115.961 C 65.158 122.454, 74.290 112.199, 67.545 105.455 C 64.931 102.840, 63.783 102.610, 60.315 104.007 M 112.707 105.016 C 110.705 106.591, 110 108.038, 110 110.573 C 110 117.312, 117.323 120.478, 121.826 115.686 C 127.841 109.282, 119.577 99.612, 112.707 105.016 M 39.073 111.635 C 36.449 114.970, 36.418 119.418, 39 122 C 42.501 125.501, 44 124.601, 44 119 C 44 115.778, 43.573 114, 42.800 114 C 41.867 114, 41.867 113.733, 42.800 112.800 C 43.460 112.140, 44 111.015, 44 110.300 C 44 108.111, 41.261 108.853, 39.073 111.635 M 92.532 113.899 C 91.761 116.329, 88.221 116.740, 87.362 114.500 C 86.621 112.570, 85 112.554, 85 114.477 C 85 116.919, 89.526 119.324, 91.815 118.099 C 94.186 116.830, 95.405 114.005, 94.132 112.732 C 93.554 112.154, 92.945 112.599, 92.532 113.899 M 51.381 119.449 C 50.487 121.779, 52.951 124.145, 55.914 123.801 C 57.926 123.567, 58.500 122.945, 58.500 121 C 58.500 118.909, 57.967 118.449, 55.243 118.186 C 52.990 117.969, 51.800 118.358, 51.381 119.449 M 121.362 119.500 C 120.419 121.957, 121.774 124, 124.346 124 C 125.671 124, 127.315 123.325, 128 122.500 C 129.674 120.483, 127.658 118, 124.346 118 C 123.021 118, 121.678 118.675, 121.362 119.500 M 43 127 C 40.731 129.269, 40.470 131.070, 42.165 132.765 C 43.052 133.652, 43.642 133.521, 44.633 132.215 C 45.823 130.649, 45.939 130.702, 45.968 132.823 C 46.015 136.248, 49.408 135.279, 49.818 131.724 C 50.174 128.637, 52 128.987, 52 132.142 C 52 134.759, 54.399 134.027, 54.804 131.287 C 55.178 128.764, 50.724 125, 47.365 125 C 46.064 125, 44.100 125.900, 43 127 M 129.165 126.597 C 127.594 127.698, 126.981 128.993, 127.193 130.770 C 127.628 134.422, 129.966 134.870, 130.136 131.333 C 130.266 128.624, 130.292 128.609, 130.732 131 C 131.620 135.830, 135 137.367, 135 132.941 C 135 131.873, 135.450 131, 136 131 C 136.550 131, 137 131.661, 137 132.469 C 137 133.363, 137.586 133.712, 138.500 133.362 C 140.749 132.499, 140.306 128.328, 137.777 126.557 C 134.936 124.566, 132.045 124.580, 129.165 126.597 M 20.015 131.642 C 20.037 135.776, 21.047 136.811, 25.412 137.176 C 33.127 137.820, 32.905 144.232, 25.148 144.807 C 20.310 145.166, 20.208 145.601, 22.467 156.257 C 24.397 165.366, 30.182 176.081, 35.980 181.285 C 45.369 189.713, 54.303 192.515, 76.539 194.003 C 101.872 195.698, 125.538 193.267, 136.881 187.805 C 149.339 181.805, 160 163.657, 160 148.451 C 160 145.097, 159.889 145, 156.035 145 C 153.094 145, 151.794 144.484, 151 143 C 149.460 140.123, 151.375 137.030, 154.785 136.885 C 156.278 136.821, 158.157 136.709, 158.960 136.635 C 160.389 136.503, 162.785 130.452, 161.799 129.465 C 161.523 129.190, 158.052 129.648, 154.084 130.482 C 150.116 131.317, 145.915 132, 144.749 132 C 143.583 132, 141.551 133.012, 140.232 134.250 C 138.396 135.975, 136.703 136.483, 132.985 136.428 C 130.318 136.389, 127.538 135.861, 126.808 135.255 C 125.875 134.482, 120.025 134.372, 107.141 134.888 C 97.053 135.291, 81.308 135.295, 72.150 134.897 C 60.469 134.389, 55.102 134.503, 54.166 135.279 C 51.795 137.244, 43.305 136.629, 40.769 134.308 C 39.339 133, 35.911 131.797, 31.500 131.057 C 27.650 130.412, 23.488 129.636, 22.250 129.333 C 20.311 128.859, 20.002 129.178, 20.015 131.642 M 163 135.079 C 163 135.759, 164.113 135.915, 166 135.500 C 169.475 134.737, 170.164 136.455, 166.750 137.370 C 165.512 137.701, 161.961 137.979, 158.857 137.986 C 154.446 137.997, 153.070 138.376, 152.553 139.724 C 151.397 142.735, 154.566 143.961, 161.874 143.329 C 165.518 143.014, 169.619 142.245, 170.988 141.621 C 174.086 140.206, 174.800 137.058, 172.418 135.316 C 170.256 133.735, 163 133.553, 163 135.079" fill-rule="evenodd"/></svg>