<svg xmlns="http://www.w3.org/2000/svg" viewBox="81.33 -878.67 797.33 797.33"><path d="m513.333-493.333 122 122Q645-361.667 645-348q0 13.667-9.667 23.333Q625.667-315 612-315q-13.667 0-23.333-9.667l-132-132Q451.333-462 449-467.833q-2.333-5.834-2.333-12.5V-640q0-14.333 9.5-23.833 9.5-9.5 23.833-9.5 14.333 0 23.833 9.5 9.5 9.5 9.5 23.833v146.667ZM116-310.333Q101.667-342.667 93-377t-11.667-69.667h67q2.333 26.334 9.5 52.334 7.167 26 17.167 50.667l-59 33.333Zm-34.667-203q3-36 11.667-70.5t24-66.834l58 33.333q-10.667 24.667-17.5 51.001-6.834 26.333-9.167 53h-67Zm170.334 364q-30.334-21.334-56.334-47.167-26-25.833-46.666-56.167L207.333-286q16 22.667 35.5 42.167t42.167 35.5l-33.333 59ZM207.666-675l-58.333-33.333q20.667-30.334 46.334-56 25.666-25.667 56-46.334l33.333 59q-22.334 16-41.834 35.167-19.5 19.166-35.5 41.5ZM446.667-81.333q-36-3-70.5-11.667t-66.834-24l33.333-58q24.667 10.667 51.001 17.5 26.333 6.834 53 9.167v67ZM342.666-785l-33.333-58q32.334-15.333 66.834-24t70.5-11.667v67q-26.667 2.333-53 9.167-26.334 6.833-51.001 17.5ZM513.333-81.333v-67q26.667-2.333 53-9.167 26.334-6.833 51.001-17.5l33.333 58q-32.334 15.333-66.834 24t-70.5 11.667ZM617.334-785q-24.667-10.667-51.001-17.5-26.333-6.834-53-9.167v-67q36 3 70.5 11.334Q618.333-859 650.667-843l-33.333 58Zm90.999 635.667-33.333-59q22.334-16 41.5-35.167 19.167-19.166 35.167-41.5l59 33.333Q790-221.333 764.333-195.5q-25.666 25.833-56 46.167ZM751.667-675q-16-22.334-35.167-41.5-19.166-19.167-41.5-35.167l33.333-59q30.334 20.334 55.667 46 25.333 25.667 45.667 56l-58 33.667Zm60 161.667q-2.333-27.334-9.5-53.334-7.167-26-17.833-50.667L843-651q15.667 32.667 24.167 67.167 8.5 34.5 11.5 70.5h-67Zm31.333 204-58-33.333q10.667-24.667 17.5-51.001 6.834-26.333 9.167-53h67q-3 36-11.667 70.5t-24 66.834Z"/></svg>