<svg viewBox="0 0 14 17" xmlns="http://www.w3.org/2000/svg">
<path d="M1.58659 16.75C1.14887 16.75 0.775016 16.6006 0.465019 16.3017C0.155006 16.0028 0 15.6424 0 15.2204V7.27959C0 6.85759 0.155006 6.49716 0.465019 6.1983C0.775016 5.89942 1.14887 5.74999 1.58659 5.74999H2.63305V4.05767C2.63305 3.00107 3.01732 2.10231 3.78584 1.36139C4.55439 0.620463 5.48664 0.25 6.58261 0.25C7.67857 0.25 8.61082 0.620463 9.37937 1.36139C10.1479 2.10231 10.5322 3.00107 10.5322 4.05767V5.74999H11.5786C12.0163 5.74999 12.3902 5.89942 12.7002 6.1983C13.0102 6.49716 13.1652 6.85759 13.1652 7.27959V15.2204C13.1652 15.6424 13.0102 16.0028 12.7002 16.3017C12.3902 16.6006 12.0163 16.75 11.5786 16.75H1.58659ZM1.58659 15.4808H11.5786C11.6574 15.4808 11.7221 15.4564 11.7727 15.4075C11.8234 15.3587 11.8487 15.2963 11.8487 15.2204V7.27959C11.8487 7.20364 11.8234 7.14126 11.7727 7.09244C11.7221 7.04361 11.6574 7.0192 11.5786 7.0192H1.58659C1.50782 7.0192 1.44311 7.04361 1.39247 7.09244C1.34182 7.14126 1.3165 7.20364 1.3165 7.27959V15.2204C1.3165 15.2963 1.34182 15.3587 1.39247 15.4075C1.44311 15.4564 1.50782 15.4808 1.58659 15.4808ZM3.94955 5.74999H9.21566V4.05767C9.21566 3.35254 8.95967 2.75318 8.44768 2.25958C7.9357 1.76599 7.31401 1.51919 6.58261 1.51919C5.8512 1.51919 5.22951 1.76599 4.71753 2.25958C4.20555 2.75318 3.94955 3.35254 3.94955 4.05767V5.74999Z" />
</svg>
