
<svg version="1.0" xmlns="http://www.w3.org/2000/svg"
  viewBox="0 0 744.000000 816.000000"
 preserveAspectRatio="xMidYMid meet">

<g transform="translate(0.000000,816.000000) scale(0.100000,-0.100000)"
>
<path d="M4206 8141 c-3 -4 -29 -11 -58 -15 -94 -12 -261 -57 -335 -91 -94
-43 -195 -109 -264 -173 -31 -29 -62 -52 -68 -52 -6 0 -48 19 -94 41 -45 23
-133 55 -197 72 -108 29 -126 31 -300 31 -199 1 -282 -11 -430 -61 -98 -33
-247 -103 -329 -155 -322 -202 -548 -558 -567 -893 -8 -139 -4 -131 -79 -139
-263 -27 -529 -218 -640 -460 -89 -191 -111 -391 -65 -581 32 -130 130 -288
233 -373 151 -125 364 -169 549 -113 42 13 83 21 90 18 10 -3 19 -80 37 -313
12 -170 29 -362 37 -429 18 -154 18 -208 -2 -291 -8 -37 -16 -115 -16 -173 -2
-118 15 -199 65 -316 46 -111 46 -118 -6 -173 -88 -94 -124 -177 -133 -302
-17 -225 138 -460 344 -521 48 -14 56 -25 66 -87 11 -75 56 -195 97 -264 37
-61 123 -158 177 -200 39 -31 33 -44 -99 -219 -129 -173 -203 -296 -268 -454
-46 -112 -47 -113 -70 -180 -103 -303 -132 -528 -93 -718 21 -101 68 -216 103
-254 12 -12 19 -31 17 -45 l-3 -23 -790 0 c-434 0 -796 -4 -803 -9 -21 -13
-30 -49 -19 -73 7 -17 21 -23 61 -28 28 -4 427 -5 885 -2 l835 4 82 -34 c153
-62 301 -62 454 1 l65 27 1125 0 1126 0 74 -30 c158 -62 303 -58 468 15 l54
24 812 0 c618 0 815 3 824 12 14 14 15 47 2 68 -8 13 -106 16 -747 20 l-738 5
-3 23 c-2 15 5 32 19 45 12 11 34 48 50 82 95 210 90 481 -15 795 -84 251
-198 459 -337 621 -74 86 -108 143 -102 171 2 9 -3 30 -11 47 -9 16 -16 34
-16 39 0 4 21 23 48 42 26 18 42 35 37 37 -6 2 12 27 40 56 118 122 192 263
220 426 28 160 14 270 -55 419 -23 50 -40 98 -38 108 3 16 16 20 78 26 272 28
460 195 504 449 38 216 -47 404 -236 523 -64 40 -68 54 -47 131 7 22 17 78 23
125 13 95 6 88 118 108 126 23 254 94 307 172 37 55 39 83 6 125 -28 38 -41
41 -235 60 -195 19 -182 8 -209 162 -12 70 -27 155 -33 188 -6 33 -29 141 -51
240 -22 99 -40 196 -41 215 l-1 35 85 -3 c297 -11 547 195 636 523 30 112 26
311 -9 439 -52 189 -169 366 -313 474 -91 68 -229 135 -334 163 -97 25 -258
30 -328 10 -58 -16 -77 -8 -91 41 -39 130 -152 316 -262 433 -171 180 -390
294 -633 331 -56 8 -109 19 -118 24 -22 12 -115 13 -122 1z m364 -183 c277
-95 498 -286 616 -533 43 -91 94 -248 94 -290 0 -66 41 -100 85 -71 20 13 25
25 25 60 0 64 13 70 154 74 185 6 306 -34 457 -148 197 -150 311 -373 311
-605 -1 -189 -28 -287 -113 -405 -104 -144 -230 -210 -401 -210 l-78 0 -48 48
c-56 55 -90 84 -129 108 -15 10 -32 22 -38 28 -18 19 -132 96 -157 105 -28 10
-65 -5 -73 -30 -8 -24 18 -58 74 -97 94 -64 181 -143 195 -176 17 -41 32 -176
19 -176 -22 0 -51 48 -58 95 -8 62 -17 78 -41 73 -14 -2 -20 -13 -22 -46 -3
-39 -5 -42 -25 -36 -38 11 -46 24 -49 76 -5 82 -56 95 -63 16 -2 -18 -4 -34
-4 -35 -1 -1 -18 7 -38 17 -37 18 -37 18 -38 80 0 67 -15 90 -50 76 -15 -5
-17 -15 -13 -62 4 -47 2 -54 -11 -49 -167 67 -345 118 -521 149 l-125 22 -11
60 c-7 32 -12 52 -13 44 -6 -61 -41 143 -41 238 0 39 11 56 36 57 6 0 31 18
55 40 102 94 120 137 77 182 -37 40 -77 31 -137 -29 -30 -31 -51 -60 -51 -74
0 -30 -39 -53 -112 -66 -56 -10 -98 -34 -98 -57 0 -21 38 -53 70 -60 l35 -7
19 -140 c10 -78 16 -153 12 -168 -6 -23 -11 -27 -34 -22 -15 3 -101 11 -192
17 -234 16 -468 3 -747 -42 -72 -12 -138 -19 -145 -17 -15 6 -64 287 -55 312
3 7 25 16 48 19 61 8 87 48 53 81 -11 12 -36 16 -97 16 -64 0 -103 7 -179 31
-93 30 -99 31 -123 15 -27 -18 -34 -56 -12 -74 7 -6 49 -26 92 -45 80 -34 80
-34 92 -83 7 -27 21 -104 30 -171 19 -140 18 -145 -55 -162 -286 -70 -725
-259 -907 -392 -87 -64 -145 -99 -164 -99 -17 0 -18 3 -8 29 9 23 7 34 -6 55
-22 33 -45 33 -53 1 -9 -38 4 -74 31 -87 33 -15 32 -21 -12 -57 -40 -33 -53
-32 -53 3 0 29 -24 50 -46 42 -12 -5 -15 -13 -9 -34 4 -15 7 -37 8 -49 1 -13
6 -23 10 -23 5 0 5 -4 2 -10 -12 -20 -45 -10 -55 16 -14 37 -12 84 4 90 8 3
16 17 19 32 3 15 38 80 76 144 39 65 71 123 71 129 0 21 -32 49 -54 49 -49 0
-82 -44 -217 -284 -46 -81 -92 -154 -104 -161 -41 -26 -136 -37 -215 -26 -234
32 -417 237 -450 505 -27 216 44 433 189 583 126 130 270 203 418 211 l83 5
16 -39 c69 -171 127 -224 171 -158 14 23 15 30 3 58 -51 122 -73 205 -77 301
-14 269 86 506 306 726 177 177 375 284 622 337 335 73 661 5 923 -192 82 -61
91 -65 110 -53 34 23 31 59 -8 111 -20 25 -36 55 -36 65 0 43 177 161 309 207
133 46 185 53 371 50 171 -2 177 -3 280 -38z m-200 -2072 c469 -58 797 -169
1181 -397 l66 -39 37 -181 c21 -100 40 -217 43 -260 6 -78 6 -79 -18 -79 -24
0 -113 34 -159 60 -14 8 -43 20 -65 26 -22 6 -78 25 -125 42 -193 70 -466 126
-755 157 -207 22 -837 16 -1005 -9 -350 -54 -466 -78 -690 -143 -122 -35 -346
-117 -364 -134 -6 -5 -18 -9 -28 -9 -18 0 -178 -79 -289 -143 -110 -63 -206
-137 -264 -202 -42 -48 -63 -65 -79 -63 -19 3 -22 13 -33 123 -6 66 -17 200
-23 299 l-12 178 34 35 c51 54 196 174 268 223 90 61 269 159 414 226 366 171
693 258 1151 308 83 9 604 -4 715 -18z m-392 -808 c3 -25 11 -30 90 -54 372
-111 831 -257 992 -314 74 -27 161 -56 192 -65 67 -19 80 -40 49 -84 -12 -16
-43 -45 -69 -64 -156 -114 -380 -169 -589 -146 -78 8 -97 8 -123 -6 -39 -20
-42 -64 -5 -93 51 -40 269 -54 411 -26 81 16 82 16 155 -9 72 -25 235 -51 252
-40 4 3 19 2 33 -1 106 -27 -155 -182 -388 -231 -119 -25 -315 -35 -465 -24
-329 24 -620 119 -912 296 -57 35 -105 63 -107 63 -3 0 -59 37 -126 81 -151
102 -219 134 -247 119 -33 -17 -44 -46 -29 -74 14 -25 83 -84 184 -157 34 -24
77 -56 95 -71 19 -14 106 -70 194 -123 99 -60 160 -103 160 -113 0 -24 -51
-33 -155 -27 -143 9 -233 23 -358 56 -205 55 -307 100 -469 208 -96 64 -145
106 -235 201 -62 66 -121 120 -130 120 -9 0 -26 -12 -37 -26 -19 -24 -19 -29
-6 -61 8 -19 26 -49 40 -65 37 -44 73 -119 111 -229 46 -135 57 -203 52 -311
-6 -113 -35 -204 -97 -306 -41 -68 -46 -73 -75 -70 -27 3 -32 8 -37 38 -9 56
-45 127 -74 146 -25 17 -27 16 -48 -4 -24 -25 -24 -25 29 -274 14 -70 24 -134
20 -143 -11 -30 -52 -17 -85 28 -81 108 -111 151 -111 159 0 5 -18 35 -39 67
-62 91 -147 277 -171 376 -45 181 -11 413 80 554 100 152 231 257 478 380 240
121 669 246 1048 306 113 18 406 43 474 41 41 -1 45 -3 48 -28z m702 -13 c188
-14 428 -67 639 -141 157 -56 413 -140 466 -153 40 -9 206 -30 280 -34 37 -2
40 -4 40 -31 0 -27 -4 -30 -79 -52 -93 -28 -123 -30 -162 -9 -34 18 -89 20
-78 4 20 -33 -259 43 -661 179 -192 65 -406 135 -474 157 -67 21 -125 45 -128
52 -11 28 6 44 39 39 18 -3 71 -8 118 -11z m902 -519 c59 -13 112 -27 118 -31
22 -13 11 -156 -20 -270 -17 -60 -46 -168 -65 -240 -56 -216 -112 -355 -144
-355 -29 0 -37 17 -59 141 -32 169 -31 177 23 222 110 92 162 206 116 254 -26
27 -36 30 -171 40 -135 10 -139 21 -46 105 39 35 77 81 92 109 13 27 30 49 37
49 7 0 60 -11 119 -24z m-2854 -515 c121 -85 361 -176 602 -228 122 -26 440
-26 523 0 50 15 60 23 73 52 8 20 21 35 31 35 9 0 71 -15 137 -34 114 -32 189
-47 315 -64 50 -7 55 -10 63 -38 10 -41 40 -53 147 -61 108 -7 126 1 126 54 0
37 1 38 40 40 120 8 250 33 344 67 24 9 51 16 61 16 23 0 120 -189 149 -290
33 -113 41 -130 74 -146 l29 -16 -4 -111 c-5 -121 -28 -199 -69 -243 -18 -19
-33 -24 -71 -24 -63 0 -120 -29 -158 -82 -42 -58 -53 -106 -45 -203 6 -68 4
-89 -11 -120 -24 -52 -101 -109 -181 -135 -139 -45 -280 -104 -340 -142 -70
-44 -161 -138 -187 -192 -10 -21 -24 -40 -31 -42 -8 -3 -19 -21 -25 -39 -10
-31 -15 -34 -78 -45 -37 -6 -70 -16 -73 -22 -12 -19 -102 -27 -344 -34 -185
-5 -255 -3 -355 10 -69 9 -130 22 -136 29 -6 7 -21 43 -33 81 -57 180 -202
288 -476 355 -221 55 -245 79 -256 259 -6 104 -10 118 -36 156 -33 47 -65 66
-143 81 -46 10 -56 15 -58 34 -2 14 6 33 22 50 36 38 46 73 40 145 -5 61 -3
65 27 97 75 81 162 228 206 349 41 113 53 234 33 329 -7 33 -10 67 -7 76 9 21
43 19 75 -4z m3101 5 c40 -21 90 -82 119 -145 38 -82 43 -234 12 -330 -32 -99
-120 -200 -210 -238 -59 -25 -148 -37 -165 -23 -38 32 -9 191 78 425 l34 90
44 2 c24 1 49 2 55 2 7 1 14 8 18 16 10 27 -13 64 -51 82 -44 21 -51 44 -29
97 17 41 46 47 95 22z m-3904 -636 c22 -42 18 -71 -15 -110 -33 -38 -37 -61
-15 -80 12 -10 21 -10 41 -1 55 25 85 8 157 -90 33 -44 33 -59 2 -123 -14 -28
-33 -85 -44 -126 -13 -53 -24 -76 -36 -78 -47 -10 -148 62 -200 142 -49 75
-68 151 -63 255 5 98 27 159 77 209 42 41 75 42 96 2z m3557 -462 c7 -14 14
-76 16 -153 4 -112 1 -142 -18 -212 -24 -89 -73 -181 -135 -251 -53 -60 -151
-132 -181 -132 -13 0 -52 -15 -86 -34 -35 -19 -133 -62 -218 -94 -85 -33 -206
-83 -268 -111 -63 -28 -116 -51 -118 -51 -10 0 -3 91 10 133 9 30 10 47 3 50
-32 10 91 143 180 193 34 19 112 52 175 73 211 71 282 122 339 243 33 71 34
76 32 184 -3 105 -2 112 21 133 35 33 86 26 106 -14 18 -37 25 -172 13 -240
-16 -86 6 -103 37 -30 32 74 41 178 25 273 -4 23 -4 46 0 52 12 19 54 11 67
-12z m-3240 -118 c-3 -91 0 -116 22 -186 25 -77 48 -115 63 -101 3 4 -2 40
-11 81 -19 81 -15 158 10 209 17 31 49 35 95 12 l30 -16 -2 -87 c-3 -134 27
-219 102 -286 51 -47 99 -68 209 -95 201 -50 273 -84 351 -168 57 -61 81 -121
77 -193 -4 -72 -13 -73 -181 -16 -72 24 -181 59 -242 76 -248 71 -386 153
-491 293 -61 82 -81 123 -104 215 -22 84 -27 243 -10 301 12 44 39 73 64 69
20 -3 21 -8 18 -108z m355 -834 c37 -13 149 -50 248 -81 99 -31 207 -67 240
-80 85 -33 170 -60 172 -54 2 2 10 -6 19 -19 15 -21 14 -30 -17 -130 -40 -136
-44 -142 -77 -142 -15 0 -92 23 -172 51 -80 28 -203 72 -275 96 -265 92 -355
129 -355 146 0 7 12 44 26 82 14 39 31 84 36 100 23 64 47 69 155 31z m2523
-36 c7 -16 18 -30 25 -30 16 0 68 -130 63 -160 -2 -19 -24 -31 -138 -77 -193
-77 -592 -242 -610 -252 -8 -4 -25 -5 -36 0 -27 9 -76 138 -69 177 4 21 3 23
-3 8 -8 -19 -9 -18 -15 5 -13 47 -8 77 11 73 9 -2 177 61 372 140 195 80 362
145 371 145 9 1 22 -12 29 -29z m-1320 -95 c63 0 140 2 170 5 50 5 55 3 58
-16 2 -16 -10 -31 -47 -58 -57 -42 -85 -76 -121 -150 -23 -47 -28 -51 -60 -51
-31 0 -37 5 -61 50 -33 63 -93 132 -136 158 -22 12 -33 27 -33 41 0 33 7 36
64 28 28 -4 103 -7 166 -7z m406 -80 c4 -8 -1 -26 -9 -39 -9 -13 -17 -43 -19
-67 l-3 -43 -100 -18 c-55 -10 -106 -16 -112 -13 -28 10 -11 45 42 91 102 88
187 126 201 89z m-689 -32 c21 -16 61 -52 87 -80 38 -42 47 -57 42 -76 -5 -23
-10 -25 -132 -31 -86 -5 -130 -4 -137 3 -8 8 -4 29 11 73 12 35 22 77 22 94 0
17 3 34 7 37 15 15 62 5 100 -20z m-1251 -55 c13 -13 24 -34 24 -47 0 -22 -93
-316 -160 -506 -34 -95 -38 -117 -25 -121 32 -10 67 67 175 376 88 254 82 244
133 238 23 -3 170 -53 327 -111 157 -58 315 -116 353 -128 64 -23 67 -25 67
-56 0 -33 -121 -433 -183 -603 -38 -104 -116 -273 -129 -278 -4 -2 -8 -8 -8
-14 0 -13 -72 -100 -120 -145 -144 -136 -399 -163 -575 -60 -81 47 -108 71
-151 133 -95 139 -124 314 -89 542 19 122 19 124 45 219 43 153 111 313 235
551 20 38 47 42 81 10z m3127 -85 c20 -32 37 -65 39 -73 2 -8 8 -19 15 -25 15
-14 105 -195 136 -275 37 -97 84 -283 98 -385 14 -106 6 -257 -17 -335 -72
-245 -291 -377 -545 -330 -120 22 -259 118 -338 233 -49 71 -116 213 -141 297
-12 41 -26 80 -30 85 -3 6 -17 46 -30 90 -12 44 -30 100 -40 125 -32 83 -82
266 -78 290 2 19 19 29 93 58 50 19 209 84 354 144 144 59 271 108 281 108 10
0 22 -6 27 -12 6 -7 42 -94 81 -193 81 -208 135 -330 150 -339 15 -9 42 4 42
21 0 9 -27 99 -61 200 -33 101 -59 189 -56 196 2 6 -2 17 -8 22 -19 15 -58
123 -51 140 12 33 44 16 79 -42z m-1139 -117 c7 -18 32 -88 55 -154 l41 -121
-2 -488 -3 -488 -95 0 c-84 0 -95 2 -98 18 -2 11 5 29 16 40 36 41 42 60 26
94 -32 65 -100 68 -137 6 -18 -32 -18 -33 3 -76 12 -24 20 -53 18 -63 -3 -18
-17 -19 -340 -19 -260 0 -340 3 -350 13 -19 19 -25 1164 -6 1179 7 5 148 22
313 37 165 15 336 33 380 40 44 7 99 14 122 15 39 1 44 -2 57 -33z m-966 -800
c1 -292 -1 -433 -8 -442 -7 -8 -32 -12 -68 -11 l-57 2 -3 320 -2 319 36 111
c41 124 49 137 78 133 21 -3 21 -6 24 -432z m1243 -23 c51 -142 114 -272 167
-341 19 -26 32 -53 30 -65 -3 -21 -7 -22 -148 -22 l-145 0 -5 275 c-3 151 -3
279 -2 283 2 5 16 7 30 5 25 -3 31 -14 73 -135z m-1463 -273 c4 -171 10 -161
-106 -158 -121 4 -123 9 -50 116 69 100 76 112 88 140 8 18 17 23 38 20 l27
-3 3 -115z"/>
<path d="M2999 7684 c-7 -8 -9 -17 -6 -20 9 -10 180 -64 199 -64 10 0 18 6 18
14 0 17 -67 49 -143 69 -49 13 -58 13 -68 1z"/>
<path d="M4797 7633 c-12 -11 -8 -17 68 -95 74 -76 141 -170 185 -260 13 -27
30 -48 37 -48 64 0 -51 213 -185 343 -66 63 -89 76 -105 60z"/>
<path d="M3283 7554 c-4 -12 17 -38 74 -90 45 -41 104 -105 133 -144 29 -38
56 -70 61 -70 4 0 13 9 19 21 10 17 7 28 -16 62 -55 84 -191 210 -247 230 -11
4 -20 1 -24 -9z"/>
<path d="M2033 7268 c-51 -56 -107 -140 -138 -208 -53 -120 -91 -309 -66 -324
22 -14 38 15 51 92 24 151 86 287 178 393 63 71 40 115 -25 47z"/>
<path d="M6112 6628 c-17 -17 -15 -53 3 -68 18 -15 65 -5 65 15 0 51 -39 82
-68 53z"/>
<path d="M6121 6485 c-18 -65 16 -117 54 -85 18 15 20 91 3 108 -23 23 -47 14
-57 -23z"/>
<path d="M6128 6358 c-36 -29 -25 -78 17 -78 18 0 26 7 31 27 11 43 -18 74
-48 51z"/>
<path d="M1097 5736 c-3 -8 0 -22 7 -31 11 -15 13 -15 25 -1 11 13 11 19 1 31
-16 19 -26 19 -33 1z"/>
<path d="M1992 5618 c-19 -19 -14 -63 9 -84 21 -19 21 -18 39 4 15 19 17 28 9
50 -15 40 -36 51 -57 30z"/>
<path d="M1165 5520 c-23 -37 202 -141 240 -110 22 19 11 27 -67 51 -39 11
-88 32 -109 45 -42 26 -55 29 -64 14z"/>
<path d="M5073 5504 c-6 -17 2 -88 17 -144 12 -43 30 -55 55 -36 16 12 17 20
6 91 -6 43 -16 84 -22 92 -15 18 -48 16 -56 -3z"/>
<path d="M5251 5467 c-9 -23 -8 -38 10 -134 10 -50 12 -53 40 -53 27 0 29 3
29 39 0 121 -52 219 -79 148z"/>
<path d="M5437 5414 c-12 -12 -8 -88 8 -142 14 -44 19 -52 40 -52 23 0 25 3
24 48 -2 81 -21 147 -44 150 -12 2 -24 0 -28 -4z"/>
<path d="M2368 5334 c-9 -19 -9 -41 -1 -91 13 -76 20 -85 52 -76 23 6 24 8 18
87 -5 60 -11 84 -24 94 -24 17 -32 15 -45 -14z"/>
<path d="M2210 5305 c-10 -13 -11 -34 -2 -106 6 -49 14 -94 17 -99 8 -13 52
-13 60 0 9 15 -14 191 -27 207 -14 17 -33 16 -48 -2z"/>
<path d="M4942 5308 c-20 -20 -14 -56 13 -74 20 -13 28 -14 40 -4 31 25 13 90
-25 90 -9 0 -21 -5 -28 -12z"/>
<path d="M5121 5277 c-12 -12 -15 -56 -3 -73 12 -18 40 -23 52 -9 18 22 8 77
-16 86 -13 4 -26 3 -33 -4z"/>
<path d="M5280 5201 c0 -71 62 -87 68 -17 4 42 -8 56 -45 56 -20 0 -23 -5 -23
-39z"/>
<path d="M2062 5198 c-21 -21 -8 -186 15 -209 6 -6 20 -8 32 -4 18 5 21 14 20
53 -2 133 -29 198 -67 160z"/>
<path d="M5488 5193 c-26 -6 -30 -33 -15 -99 12 -52 16 -59 38 -59 20 0 25 6
27 34 7 72 -17 131 -50 124z"/>
<path d="M2413 5125 c-27 -19 -29 -51 -7 -83 18 -26 27 -27 48 -6 21 20 20 57
-1 83 -17 20 -19 21 -40 6z"/>
<path d="M1935 5077 c-16 -12 -17 -23 -12 -91 7 -82 19 -116 41 -116 32 0 38
27 27 112 -13 93 -26 116 -56 95z"/>
<path d="M2242 5038 c-16 -16 -15 -70 1 -92 32 -44 72 7 55 72 -9 34 -33 43
-56 20z"/>
<path d="M2092 4938 c-16 -16 -15 -70 2 -94 31 -40 68 19 52 82 -7 26 -34 32
-54 12z"/>
<path d="M1960 4830 c-20 -12 -17 -87 4 -108 13 -13 20 -14 34 -6 23 15 25 34
12 83 -11 41 -23 49 -50 31z"/>
<path d="M4330 4748 c-24 -26 -24 -28 -4 -56 17 -24 53 -29 72 -10 19 19 14
55 -10 72 -29 21 -33 20 -58 -6z"/>
<path d="M4510 4694 c-10 -11 -11 -23 -4 -42 17 -48 84 -38 84 12 0 43 -53 63
-80 30z"/>
<path d="M4704 4682 c-46 -32 -4 -109 46 -82 27 14 27 65 1 80 -23 12 -32 12
-47 2z"/>
<path d="M2868 3492 c-56 -56 -77 -84 -72 -95 9 -25 37 -21 101 17 73 43 113
80 113 104 0 21 -30 52 -50 52 -8 0 -49 -35 -92 -78z"/>
<path d="M4730 3513 c-19 -2 -107 -7 -195 -11 -136 -6 -160 -9 -163 -23 -2
-10 5 -19 17 -22 12 -3 24 -13 27 -24 21 -61 57 -126 89 -162 116 -128 304
-52 330 134 5 29 16 58 27 68 10 11 17 24 15 30 -4 12 -82 17 -147 10z"/>
<path d="M3155 3269 c-44 -15 -147 -48 -229 -73 -82 -24 -153 -49 -159 -55 -8
-8 -2 -19 20 -39 18 -15 42 -46 53 -69 39 -77 104 -123 176 -123 38 0 125 51
149 89 30 45 55 139 55 208 0 29 4 53 9 53 11 0 22 28 13 33 -4 2 -43 -8 -87
-24z"/>
<path d="M4846 2998 c-42 -46 -76 -90 -76 -98 0 -19 19 -40 36 -40 16 0 174
160 174 176 0 17 -28 44 -45 44 -7 0 -47 -37 -89 -82z"/>
<path d="M4715 3052 c-33 -24 -155 -162 -155 -175 0 -22 28 -47 46 -40 16 6
127 119 152 154 25 36 -10 86 -43 61z"/>
<path d="M3914 2799 c-84 -16 -166 -72 -217 -149 -24 -34 -22 -77 4 -90 18
-10 27 -5 73 43 28 30 71 64 94 76 77 39 206 22 252 -34 26 -31 50 -38 71 -19
27 24 24 48 -13 90 -57 65 -172 101 -264 83z"/>
<path d="M3071 2673 c-67 -75 -82 -107 -59 -129 22 -22 42 -9 108 68 60 69 70
94 48 116 -21 21 -35 13 -97 -55z"/>
<path d="M2919 2697 c-44 -37 -129 -136 -129 -150 0 -8 12 -20 26 -27 25 -14
28 -12 85 50 85 92 93 104 79 129 -14 27 -29 26 -61 -2z"/>
<path d="M2040 799 c0 -24 23 -21 28 4 2 10 -3 17 -12 17 -10 0 -16 -9 -16
-21z"/>
<path d="M5460 991 c-8 -16 -7 -25 7 -41 31 -35 52 -22 49 30 -1 33 -40 40
-56 11z"/>
<path d="M5507 837 c-3 -8 -2 -20 3 -27 11 -18 42 -4 38 17 -4 22 -34 29 -41
10z"/>
<path d="M4079 1300 c-19 -18 -29 -39 -29 -58 0 -38 41 -82 75 -82 30 0 85 49
85 75 0 28 -29 73 -52 81 -43 14 -51 13 -79 -16z"/>
<path d="M4105 880 c-53 -20 -72 -77 -42 -124 33 -50 100 -41 132 18 16 30 16
35 2 63 -18 34 -61 54 -92 43z"/>
<path d="M66 204 c-19 -18 -19 -20 -6 -45 16 -29 58 -25 66 6 11 45 -29 71
-60 39z"/>
<path d="M7347 203 c-13 -13 -7 -51 9 -57 9 -4 28 1 41 10 24 15 24 16 7 35
-17 19 -45 25 -57 12z"/>
</g>
</svg>
