<svg xmlns="http://www.w3.org/2000/svg" version="1.0" preserveAspectRatio="xMidYMid meet" viewBox="28 42.33 988.3 923.09">

<g transform="translate(0.000000,1024.000000) scale(0.100000,-0.100000)" >
<path d="M7130 9814 c-177 -18 -414 -70 -790 -174 -233 -65 -328 -81 -505 -86 -194 -6 -203 -8 -211 -38 -17 -68 97 -165 263 -226 72 -26 78 -30 81 -58 4 -35 3 -36 -228 -127 -348 -137 -630 -194 -910 -182 -239 10 -385 62 -637 225 -76 49 -146 92 -156 95 -22 8 -67 -33 -67 -61 0 -42 42 -178 79 -257 104 -222 280 -409 458 -486 26 -12 56 -28 66 -37 21 -19 22 -55 2 -72 -25 -21 -122 -153 -173 -237 -171 -280 -308 -652 -362 -988 -34 -211 -28 -537 15 -810 17 -108 24 -186 20 -215 -12 -94 -67 -241 -116 -314 -56 -83 -91 -119 -178 -178 -79 -53 -90 -68 -72 -102 39 -71 253 -109 405 -70 33 8 97 33 142 55 118 59 123 57 150 -71 28 -135 57 -231 99 -332 35 -82 107 -202 128 -212 7 -4 26 -14 42 -24 35 -22 35 -20 59 -363 20 -284 44 -391 119 -532 100 -186 294 -362 514 -464 148 -68 489 -163 587 -163 40 0 66 -17 66 -44 0 -18 -22 -42 -87 -94 -222 -177 -427 -455 -514 -695 -16 -46 -19 -49 -91 -70 -163 -50 -310 -217 -363 -412 -23 -82 -30 -228 -16 -311 18 -103 60 -246 80 -269 10 -11 26 -40 35 -65 48 -124 156 -288 248 -376 58 -57 229 -184 245 -184 8 0 35 -11 61 -24 57 -28 187 -71 262 -85 139 -27 423 -41 845 -41 l430 0 80 -27 c109 -35 258 -37 355 -2 63 22 79 23 520 28 505 7 467 1 562 78 63 51 182 212 236 319 107 210 144 545 107 940 -20 214 -80 623 -111 763 -66 294 -181 518 -355 690 -35 35 -79 75 -96 88 -34 26 -43 63 -20 80 6 5 50 24 97 42 123 48 313 145 400 204 98 68 219 184 287 275 l54 74 48 -7 c67 -9 167 17 281 72 81 39 107 59 185 137 141 142 229 325 256 531 21 163 2 275 -72 434 -27 57 -49 115 -49 129 0 15 20 76 45 137 129 319 198 709 198 1115 -1 326 -27 535 -102 810 -61 220 -94 301 -214 515 -87 155 -169 232 -301 285 -42 16 -92 30 -110 30 -18 0 -48 3 -65 6 -30 6 -32 9 -25 38 4 17 7 87 6 157 0 115 -3 131 -31 205 -111 289 -373 541 -670 648 -85 31 -185 45 -195 27 -17 -27 -74 -11 -153 42 -209 143 -478 250 -737 292 -92 16 -354 27 -436 19z m520 -123 c327 -71 598 -214 829 -436 67 -65 124 -115 127 -112 7 7 -21 63 -53 105 -18 24 -23 42 -21 70 3 35 5 37 42 40 92 8 333 -132 457 -265 114 -122 195 -261 225 -388 12 -54 15 -100 11 -205 -3 -74 -10 -150 -16 -169 -6 -19 -8 -38 -5 -42 3 -5 60 -9 127 -9 148 0 175 -10 270 -100 194 -181 327 -505 398 -970 20 -126 23 -186 23 -460 1 -322 -4 -387 -45 -615 -40 -215 -92 -408 -138 -505 -13 -30 -22 -35 -53 -38 -29 -2 -52 6 -105 38 -37 22 -92 48 -123 57 -93 28 -94 30 -55 175 39 143 64 306 77 488 9 140 9 187 -5 310 -9 80 -28 188 -42 240 -13 52 -23 77 -20 55 2 -22 9 -142 16 -266 18 -324 -7 -599 -75 -827 -39 -129 -44 -137 -91 -136 -22 1 -50 5 -62 9 -33 11 -53 -30 -80 -166 -29 -146 -87 -325 -148 -455 l-44 -95 -38 3 -38 3 1 50 c0 28 9 97 18 155 30 173 23 456 -15 675 -13 79 -27 69 -28 -21 -1 -41 -9 -64 -43 -120 -94 -157 -228 -312 -362 -420 -118 -95 -189 -136 -228 -132 -52 5 -50 44 11 170 131 273 226 605 266 928 25 205 17 390 -19 420 -15 11 -32 -7 -105 -108 -241 -334 -641 -623 -1060 -766 -139 -48 -207 -57 -217 -31 -14 35 7 65 79 111 193 124 438 353 546 510 l55 79 -95 -90 c-313 -299 -485 -424 -774 -565 -240 -116 -452 -183 -667 -210 -134 -17 -568 -9 -623 12 -38 14 -40 17 -40 58 l0 43 210 97 c243 111 354 169 480 253 87 58 255 184 255 192 0 2 -57 -32 -126 -77 -162 -103 -362 -200 -704 -338 -341 -138 -475 -201 -589 -280 -73 -50 -96 -61 -123 -58 -31 3 -33 5 -36 46 -3 34 5 59 39 125 129 253 395 557 709 810 l35 28 -50 -27 c-266 -146 -557 -431 -674 -662 -21 -40 -24 -43 -59 -40 l-37 3 2 100 c3 129 28 300 64 445 34 135 34 137 12 119 -52 -43 -123 -274 -144 -468 -24 -218 8 -544 68 -706 14 -38 27 -90 27 -115 1 -44 0 -45 -33 -48 -41 -4 -60 12 -144 123 -110 145 -178 323 -212 556 -8 59 -15 126 -15 150 0 52 -17 119 -30 119 -46 0 -36 -305 16 -463 14 -41 15 -66 6 -150 -5 -56 -7 -159 -5 -229 5 -115 4 -128 -12 -134 -37 -15 -67 9 -87 66 -26 75 -64 248 -77 351 -14 108 -19 129 -30 129 -5 0 -36 -23 -68 -50 -114 -100 -269 -155 -413 -148 l-65 3 -3 35 c-3 31 2 40 37 68 91 73 182 237 226 407 29 112 31 153 10 250 -45 220 -59 594 -30 817 44 332 177 707 351 988 62 101 175 249 228 299 49 47 47 66 -11 86 -170 60 -258 111 -355 203 -121 115 -231 294 -226 366 3 38 5 41 36 44 25 3 49 -6 95 -37 125 -80 254 -135 392 -167 121 -29 420 -27 570 4 198 39 404 106 652 210 407 172 483 205 483 214 0 16 -48 27 -171 37 -68 6 -162 21 -209 33 l-85 23 0 40 0 40 111 17 c106 16 253 53 564 138 144 40 335 81 460 99 36 5 173 8 305 6 198 -2 257 -7 335 -24z m892 -3276 c-11 -280 -108 -651 -269 -1024 -99 -231 -105 -248 -93 -272 20 -36 46 -42 108 -24 172 50 382 209 546 413 53 65 62 73 90 70 l31 -3 -1 -135 c-1 -166 -24 -324 -70 -494 -36 -133 -36 -159 -3 -176 28 -15 65 7 135 83 116 125 228 357 295 613 39 149 37 148 179 142 129 -5 186 -32 290 -136 123 -123 170 -245 170 -442 0 -427 -309 -778 -655 -745 -38 3 -87 11 -109 16 -51 14 -68 -1 -38 -34 12 -13 22 -34 22 -46 0 -47 -104 -162 -237 -264 -294 -225 -933 -441 -1568 -531 -551 -78 -1188 -72 -1590 14 -296 64 -552 193 -699 351 -167 179 -215 309 -241 645 -20 264 -39 415 -76 615 -36 197 -36 233 2 237 22 3 33 -6 64 -49 57 -80 124 -147 188 -191 69 -47 109 -62 142 -54 45 11 48 37 16 133 -43 129 -71 233 -71 269 0 17 9 43 21 58 54 69 374 247 448 250 31 1 35 -2 44 -34 13 -50 22 -58 94 -80 193 -60 578 -42 921 42 107 26 130 29 178 20 102 -17 333 19 536 84 425 137 792 366 1054 657 79 88 91 98 119 95 l30 -3 -3 -70z m-211 -2917 c271 -194 421 -455 498 -864 74 -392 106 -725 98 -1014 -4 -113 -10 -221 -15 -240 -7 -32 -11 -35 -42 -35 l-34 0 -23 95 c-53 215 -113 432 -128 463 -8 18 -33 82 -54 142 -149 419 -189 478 -376 564 -60 28 -114 57 -119 65 -7 10 4 73 33 198 54 235 53 226 40 233 -6 4 -13 5 -15 2 -13 -12 -65 -155 -99 -268 -21 -68 -42 -129 -46 -135 -6 -7 -60 -14 -132 -17 -85 -4 -143 -12 -192 -27 -38 -12 -83 -23 -100 -24 -29 -1 -30 0 -29 45 2 49 69 250 182 549 58 153 75 186 94 192 101 33 368 106 389 107 14 1 45 -13 70 -31z m-613 -159 c3 -33 -2 -41 -63 -97 -129 -118 -288 -172 -510 -172 -143 0 -211 13 -298 56 -71 35 -107 71 -107 105 0 15 5 31 11 34 6 4 76 11 157 16 211 13 414 36 592 69 85 15 169 27 185 26 27 -1 30 -5 33 -37z m-1129 -88 c14 -26 161 -539 161 -561 0 -30 -16 -33 -118 -20 -72 8 -115 8 -167 0 -134 -21 -152 -23 -159 -11 -4 6 -2 78 3 160 11 158 9 184 -18 179 -22 -4 -47 -107 -63 -265 -9 -92 -17 -128 -28 -134 -8 -4 -57 -31 -109 -60 l-95 -53 -95 12 c-118 15 -193 15 -246 1 -22 -6 -56 -12 -75 -13 -31 -1 -35 2 -38 27 -7 62 154 306 304 460 92 94 234 210 319 261 l60 36 177 0 c164 0 178 -1 187 -19z m1039 -199 c2 -13 -6 -44 -19 -70 -35 -76 -68 -179 -98 -307 l-28 -120 -69 -53 c-38 -28 -80 -65 -94 -81 -22 -25 -36 -30 -119 -42 l-95 -12 -25 34 c-49 65 -124 139 -172 170 -40 25 -51 39 -59 72 -12 46 -76 280 -93 338 -22 76 6 85 123 40 190 -74 405 -65 610 25 89 38 133 40 138 6z m502 -494 c138 -51 254 -155 315 -283 47 -98 59 -173 52 -313 -11 -204 -66 -362 -209 -605 -178 -300 -401 -521 -621 -614 -230 -97 -488 -54 -627 105 -30 33 -47 68 -67 129 -24 79 -25 93 -20 226 3 81 12 166 21 197 9 30 31 118 50 195 60 243 133 430 221 567 136 211 290 342 465 397 93 29 102 30 235 26 97 -2 132 -7 185 -27z m-1412 -2 c103 -28 209 -109 261 -200 79 -139 92 -343 31 -466 -24 -48 -137 -123 -225 -150 -115 -36 -382 -27 -414 14 -5 6 -14 29 -21 51 -18 57 -92 203 -146 288 -26 39 -86 111 -135 158 -126 122 -126 120 54 208 183 91 255 110 417 110 77 1 145 -5 178 -13z m-945 -227 c287 -97 506 -456 603 -987 22 -123 15 -289 -15 -383 -49 -153 -175 -229 -381 -229 -255 0 -470 112 -651 340 -103 129 -217 356 -261 517 -26 96 -31 307 -9 393 45 183 186 323 361 359 30 6 64 13 75 15 46 11 218 -5 278 -25z m2872 -612 c22 -52 155 -590 155 -626 0 -41 -53 -122 -139 -213 -47 -50 -83 -78 -139 -106 l-76 -37 -245 0 -245 0 -7 32 c-6 29 0 37 83 120 202 200 393 493 495 758 44 112 39 105 74 105 24 0 33 -6 44 -33z m-1771 -119 c42 -47 42 -46 12 -183 -9 -38 -21 -122 -28 -186 -16 -158 -3 -255 46 -353 20 -39 36 -79 36 -89 0 -39 -53 -33 -191 20 -79 31 -139 75 -139 103 0 9 16 44 35 76 48 79 65 141 72 254 5 79 2 109 -16 175 -12 44 -31 95 -42 113 -22 38 -25 77 -6 89 16 10 81 20 138 22 42 1 49 -3 83 -41z m-329 -43 c61 -90 80 -160 80 -285 0 -110 -13 -170 -59 -260 -19 -37 -28 -46 -54 -48 -43 -4 -46 9 -33 112 14 100 3 246 -31 408 -18 90 -20 109 -8 123 26 31 62 14 105 -50z"/>
<path d="M7665 4976 c-93 -30 -130 -62 -165 -144 -26 -61 -24 -103 10 -175 26 -55 72 -91 146 -113 43 -13 53 -12 98 2 101 34 144 77 175 175 26 81 -62 219 -158 247 -24 8 -48 15 -55 17 -6 2 -29 -2 -51 -9z"/>
<path d="M9375 4868 c-41 -39 -167 -246 -163 -268 11 -56 91 19 148 138 38 78 41 82 73 82 20 0 47 -10 67 -25 29 -21 35 -23 42 -10 20 35 -56 115 -110 115 -12 0 -38 -15 -57 -32z"/>
<path d="M5618 4830 c-83 -26 -112 -51 -143 -124 -32 -76 -31 -119 7 -194 26 -53 69 -85 141 -107 45 -13 53 -13 105 5 78 28 123 67 150 131 27 65 24 109 -12 183 -20 41 -36 58 -73 78 -79 43 -111 48 -175 28z"/>
<path d="M6665 4303 c-98 -23 -181 -70 -242 -136 -73 -79 -112 -198 -80 -241 14 -19 16 -19 40 -3 15 10 31 34 38 58 18 60 80 123 157 161 63 31 72 33 177 33 98 0 116 -3 165 -26 70 -33 123 -79 156 -135 25 -42 45 -52 71 -36 39 25 -5 139 -81 210 -61 58 -112 86 -193 107 -54 14 -164 18 -208 8z"/>
<path d="M2311 3399 c-117 -25 -224 -66 -321 -123 -157 -93 -240 -178 -332 -339 -64 -112 -75 -126 -113 -144 -31 -15 -41 -14 -171 12 -116 24 -152 27 -233 22 -135 -9 -277 -47 -396 -107 -180 -90 -287 -197 -375 -375 -119 -241 -120 -464 -3 -687 110 -209 290 -334 529 -369 136 -20 164 -48 164 -166 1 -37 7 -153 14 -256 15 -205 22 -227 76 -227 15 0 92 33 171 74 434 223 808 310 1329 309 229 0 526 -26 685 -59 135 -28 321 -97 533 -200 73 -35 139 -64 146 -64 7 0 21 9 31 20 17 18 20 47 26 228 4 114 8 244 8 289 1 76 3 85 30 115 25 29 44 37 124 56 104 26 194 67 275 127 143 106 262 359 262 556 0 245 -132 517 -322 662 -86 66 -234 139 -344 169 -109 30 -326 30 -429 1 -217 -62 -202 -60 -243 -38 -24 13 -54 46 -87 95 -68 103 -193 225 -294 287 -217 134 -495 183 -740 132z m426 -99 c248 -59 476 -245 597 -487 19 -39 43 -76 53 -81 13 -8 36 0 95 29 136 69 209 84 398 84 127 0 180 -4 229 -18 271 -74 510 -333 556 -601 41 -242 -7 -408 -165 -566 -163 -164 -318 -204 -409 -106 -29 31 -56 33 -71 6 -6 -11 -13 -70 -17 -132 -6 -111 -7 -113 -40 -147 -41 -41 -58 -40 -211 19 -141 53 -153 60 -179 99 -22 32 -23 44 -23 200 0 171 -7 204 -37 180 -10 -9 -13 -47 -13 -151 l0 -140 -34 -34 c-41 -41 -74 -43 -204 -15 -48 11 -134 25 -192 32 -97 12 -107 15 -137 45 l-33 32 0 134 c0 108 -3 138 -17 157 -15 23 -17 23 -30 6 -9 -13 -13 -54 -13 -137 0 -192 -17 -208 -217 -208 -132 0 -331 -18 -488 -45 -125 -21 -132 -20 -171 19 l-34 34 0 99 c0 73 -4 104 -15 119 -15 19 -15 19 -30 0 -11 -15 -15 -49 -15 -143 0 -122 0 -122 -31 -157 -25 -30 -51 -42 -172 -82 -78 -25 -199 -71 -269 -101 -170 -73 -188 -75 -231 -32 -34 34 -35 38 -42 139 -4 58 -11 113 -16 123 -14 26 -37 21 -53 -12 -28 -54 -72 -81 -129 -81 -130 0 -241 54 -363 175 -98 98 -152 187 -175 294 -18 86 -7 293 20 371 64 183 254 380 439 455 181 73 474 73 671 -1 93 -35 103 -30 141 68 82 217 260 409 465 504 116 53 215 72 385 73 112 1 164 -4 227 -19z m118 -1890 c309 -16 595 -72 846 -165 246 -91 289 -128 289 -247 0 -67 -2 -72 -35 -105 -33 -33 -39 -35 -78 -30 -23 4 -89 25 -146 47 -217 85 -498 154 -736 182 -142 16 -559 16 -698 0 -314 -37 -609 -120 -894 -251 -153 -71 -173 -73 -219 -27 l-36 36 3 84 c4 78 6 87 34 116 36 38 181 113 320 165 312 118 596 177 925 194 215 12 219 12 425 1z"/>
</g>
</svg>