
<svg version="1.0" xmlns="http://www.w3.org/2000/svg"
  viewBox="0 0 1024.000000 1024.000000"
 preserveAspectRatio="xMidYMid meet">

<g transform="translate(0.000000,1024.000000) scale(0.100000,-0.100000)"
>
<path d="M7125 9874 c-206 -23 -384 -59 -625 -126 -294 -81 -319 -87 -425
-109 -66 -14 -162 -23 -282 -27 -207 -8 -220 -13 -230 -89 -13 -95 54 -177
208 -252 l96 -47 -156 -61 c-185 -73 -361 -125 -520 -155 -93 -18 -152 -22
-296 -22 -161 1 -190 3 -276 26 -123 33 -215 78 -369 179 -200 132 -244 143
-306 78 -27 -28 -29 -36 -28 -102 2 -154 113 -392 266 -570 60 -69 184 -164
264 -203 33 -15 61 -29 63 -31 2 -1 -12 -22 -31 -45 -217 -265 -420 -746 -492
-1164 -41 -234 -37 -589 8 -877 20 -121 23 -168 16 -205 -38 -198 -128 -337
-283 -439 -78 -51 -99 -85 -87 -140 13 -54 38 -83 94 -109 69 -32 139 -44 248
-44 101 0 181 18 277 61 35 16 68 26 71 22 4 -5 17 -53 30 -108 55 -242 167
-474 254 -526 l33 -19 12 -118 c6 -64 16 -188 21 -274 13 -190 42 -316 103
-443 108 -223 284 -389 541 -510 162 -76 350 -134 559 -169 l38 -7 -49 -38
c-113 -90 -246 -240 -347 -391 -54 -82 -138 -241 -161 -306 -9 -25 -22 -34
-75 -53 -180 -66 -327 -235 -385 -446 -22 -83 -29 -258 -14 -353 16 -103 67
-272 89 -297 10 -11 28 -45 40 -75 73 -177 203 -341 366 -463 44 -32 86 -68
93 -78 7 -10 23 -19 35 -19 13 0 60 -16 106 -35 221 -94 424 -115 1085 -115
l431 0 80 -27 c70 -23 96 -26 205 -26 105 0 135 4 190 24 64 23 71 23 524 26
442 2 461 3 499 23 52 28 137 102 173 151 16 23 40 54 54 71 26 32 62 91 105
170 45 84 107 287 111 363 15 277 15 470 0 630 -21 224 -80 631 -112 774 -67
301 -187 535 -367 714 -49 49 -87 90 -85 91 2 1 41 17 88 35 265 104 507 269
634 431 31 40 56 76 56 81 0 5 24 9 53 9 124 0 315 75 434 170 195 156 333
466 333 748 0 133 -32 258 -97 383 l-34 66 46 115 c86 222 146 470 182 763 19
158 22 558 4 723 -29 280 -105 586 -197 799 -4 9 3 9 29 1 29 -9 42 -7 73 8
78 38 95 142 48 282 -37 112 -78 177 -163 263 -60 60 -94 85 -161 117 -109 52
-227 77 -331 69 l-78 -6 -11 57 c-53 255 -236 517 -480 682 -173 118 -435 200
-509 161 -13 -7 -37 3 -101 46 -245 159 -564 271 -861 303 -88 9 -277 11 -344
4z m495 -243 c212 -46 401 -124 579 -238 99 -64 124 -84 246 -203 115 -111
135 -124 179 -116 29 6 37 13 47 43 10 33 9 41 -24 104 l-35 68 37 -15 c78
-32 223 -127 306 -199 40 -35 160 -200 190 -260 60 -123 79 -266 55 -400 -24
-131 -24 -144 0 -170 22 -24 29 -25 143 -25 145 0 179 -13 269 -105 178 -181
301 -492 369 -935 19 -123 23 -188 23 -430 1 -291 -4 -361 -45 -585 -38 -208
-96 -421 -133 -493 -12 -23 -12 -23 -37 -4 -31 24 -113 66 -161 81 -21 7 -38
15 -38 17 0 3 11 49 24 102 92 368 98 763 17 1085 -41 163 -56 191 -103 195
-34 3 -38 0 -44 -25 -4 -15 -2 -82 4 -148 40 -414 37 -641 -8 -895 -20 -111
-64 -268 -79 -283 -5 -5 -18 -4 -31 3 -30 16 -82 5 -107 -23 -27 -30 -39 -65
-63 -190 -20 -102 -89 -332 -111 -366 -7 -11 -8 2 -5 44 16 179 16 234 6 387
-11 166 -30 301 -51 365 -11 36 -41 50 -83 39 -30 -7 -36 -22 -43 -119 -6 -73
-10 -85 -60 -164 -68 -110 -114 -166 -232 -284 -90 -90 -219 -195 -228 -185
-2 2 7 27 22 56 73 144 178 465 220 674 51 252 70 544 44 665 -25 117 -128
138 -193 38 -82 -127 -314 -382 -411 -453 -22 -16 -42 -32 -45 -35 -22 -27
-256 -171 -363 -222 -137 -67 -276 -122 -285 -112 -3 3 -1 5 4 5 6 0 19 7 29
15 201 154 324 267 417 385 82 103 144 206 160 264 12 46 12 49 -11 67 -13 10
-29 19 -37 19 -7 0 -62 -50 -121 -111 -187 -192 -408 -384 -515 -447 -16 -9
-28 -20 -28 -24 0 -4 -4 -8 -8 -8 -5 0 -47 -23 -93 -51 -261 -158 -585 -276
-852 -309 -116 -15 -521 -10 -537 6 -8 8 18 24 89 57 54 26 102 47 105 47 14
0 296 145 366 188 71 44 199 130 210 142 3 3 22 18 44 34 73 55 238 220 257
259 23 45 17 74 -16 83 -22 6 -78 -16 -90 -36 -11 -18 -199 -156 -299 -218
-151 -94 -369 -198 -676 -322 -261 -105 -541 -234 -572 -262 -7 -7 -28 -23
-46 -36 l-33 -23 27 53 c54 108 165 262 301 419 115 134 222 232 452 419 23
19 53 43 64 54 12 10 32 25 45 33 26 18 30 64 7 83 -22 18 -75 1 -215 -71
-257 -133 -512 -355 -668 -583 -31 -47 -48 -64 -50 -53 -6 32 28 241 63 384
39 157 37 181 -13 202 -37 15 -79 -3 -111 -47 -54 -76 -112 -280 -132 -462
-23 -213 3 -559 55 -732 8 -27 11 -46 7 -43 -4 2 -29 36 -55 75 -113 168 -171
360 -196 649 -9 112 -25 148 -72 165 -32 11 -78 -10 -95 -44 -29 -56 -8 -397
31 -509 10 -28 11 -63 2 -161 l-11 -125 -22 115 c-12 63 -25 142 -29 175 -10
89 -33 124 -85 125 -25 0 -53 -18 -141 -92 -57 -48 -156 -93 -237 -108 -35 -6
-65 -10 -67 -7 -2 2 12 21 32 43 89 97 145 209 189 381 29 110 32 205 10 308
-45 218 -58 544 -30 757 23 178 88 423 157 598 96 242 279 540 413 672 36 36
48 56 52 87 5 35 2 44 -24 70 -16 16 -52 36 -79 44 -51 15 -138 54 -189 84
-101 60 -231 199 -295 317 l-31 56 59 -34 c90 -54 214 -105 321 -134 90 -24
111 -26 326 -26 200 -1 244 2 340 21 260 53 439 117 942 334 213 91 219 95
234 131 9 23 8 33 -6 54 -25 38 -68 51 -205 63 -69 6 -138 14 -155 19 l-30 9
30 7 c79 17 406 100 535 136 143 40 334 81 460 99 36 5 160 8 275 6 165 -2
230 -8 305 -24z m2053 -1220 c87 -24 168 -79 226 -154 25 -33 48 -63 49 -68 2
-6 -32 15 -77 45 -144 98 -310 165 -410 166 -22 0 -31 4 -25 9 25 25 152 26
237 2z m-1208 -2158 c-32 -238 -123 -540 -255 -846 -103 -242 -109 -263 -86
-316 37 -80 109 -89 254 -30 152 60 318 186 457 345 l68 78 -7 -90 c-12 -155
-36 -295 -71 -427 -41 -151 -42 -173 -12 -217 125 -186 424 184 556 688 l28
107 84 -1 c72 0 92 -4 139 -28 120 -63 226 -205 256 -345 51 -242 -34 -513
-215 -684 -121 -113 -252 -160 -388 -137 -148 25 -149 25 -177 -3 -30 -30 -33
-68 -11 -110 14 -27 13 -31 -18 -69 -44 -55 -155 -148 -256 -215 -294 -195
-896 -386 -1466 -467 -453 -64 -958 -72 -1347 -21 -428 57 -744 202 -920 424
-123 154 -160 269 -183 566 -21 267 -32 363 -61 532 -13 78 -24 145 -24 149 0
4 35 -27 78 -68 132 -126 246 -167 323 -115 58 39 60 74 11 224 -67 209 -67
211 -40 240 38 41 161 120 270 173 l102 50 12 -29 c26 -62 124 -96 323 -112
225 -17 529 12 773 75 77 20 102 23 143 15 97 -18 355 22 559 88 249 80 446
173 656 311 147 95 241 172 360 292 52 53 96 95 98 94 2 -1 -4 -55 -13 -121z
m-135 -2839 c194 -148 325 -350 395 -610 46 -167 105 -534 130 -800 16 -171
20 -494 7 -478 -5 5 -26 77 -47 159 -21 83 -60 210 -86 283 -27 72 -49 142
-49 153 0 12 -11 42 -24 68 -14 25 -30 64 -37 86 -31 99 -88 203 -147 266 -52
55 -76 72 -166 114 -58 27 -106 54 -106 61 0 6 16 79 36 160 40 165 48 254 24
278 -8 9 -29 18 -45 22 -63 12 -99 -50 -180 -315 l-33 -106 -113 -7 c-63 -4
-139 -14 -169 -22 -30 -8 -55 -14 -56 -13 -4 4 103 310 148 427 25 63 54 139
65 169 l20 54 179 52 c98 28 184 49 189 46 6 -2 35 -23 65 -47z m-734 -138
c-110 -95 -269 -146 -451 -146 -124 0 -202 16 -279 58 l-50 27 125 7 c174 10
402 36 549 62 69 13 130 24 135 24 6 1 -7 -14 -29 -32z m-1035 -138 c12 -40
43 -148 68 -239 l47 -167 -105 2 c-58 0 -129 -2 -156 -7 l-50 -7 8 122 c10
155 5 183 -36 209 -38 23 -73 18 -104 -16 -26 -29 -50 -131 -65 -276 l-11
-109 -93 -50 -94 -51 -66 12 c-37 6 -115 9 -174 7 l-108 -4 48 76 c69 113 124
184 209 273 85 89 235 213 319 263 l56 34 142 0 143 0 22 -72z m974 -165 c-27
-67 -67 -197 -85 -281 -21 -92 -25 -100 -59 -123 -20 -13 -59 -45 -86 -71 -44
-40 -60 -48 -110 -57 -46 -7 -62 -6 -67 4 -27 46 -119 138 -184 183 -27 19
-34 35 -68 164 -21 79 -41 151 -43 160 -5 17 -3 17 38 2 170 -61 401 -57 584
9 85 31 89 31 80 10z m496 -453 c124 -24 250 -109 322 -218 70 -105 81 -146
81 -297 0 -104 -4 -146 -22 -210 -56 -200 -151 -382 -315 -605 -171 -232 -408
-402 -601 -431 -199 -30 -396 64 -457 218 -34 84 -34 287 -1 418 13 50 36 142
52 206 86 342 208 573 393 745 96 90 227 159 337 177 50 8 159 7 211 -3z
m-1330 -26 c63 -19 147 -72 185 -117 92 -108 129 -326 76 -437 -21 -43 -101
-104 -171 -131 -75 -28 -175 -39 -265 -28 -89 9 -111 20 -120 54 -12 46 -95
211 -147 291 -29 43 -85 113 -125 155 l-74 75 128 62 c70 34 154 68 187 76 85
20 258 20 326 0z m-976 -215 c52 -13 157 -76 217 -128 162 -143 292 -422 363
-779 41 -202 28 -359 -37 -457 -38 -58 -85 -90 -163 -110 -220 -57 -506 49
-680 253 -113 132 -231 339 -278 487 -84 267 -45 505 103 639 66 60 135 88
270 110 35 6 157 -3 205 -15z m2949 -914 l69 -275 -39 -58 c-57 -85 -153 -175
-220 -208 -58 -28 -64 -29 -251 -32 -106 -2 -193 -2 -193 1 0 2 30 35 66 73
184 190 387 505 469 727 10 26 20 47 24 47 3 0 37 -124 75 -275z m-1853 189
c24 -23 26 -30 18 -57 -21 -72 -40 -210 -45 -327 -6 -130 8 -237 40 -301 15
-29 14 -30 -7 -24 -12 4 -50 20 -85 36 l-63 28 36 72 c45 89 65 177 65 294 0
91 -24 204 -55 266 -16 30 -15 30 54 38 8 0 27 -11 42 -25z m-260 -211 c10
-57 6 -194 -6 -181 -1 1 -8 56 -14 120 -6 64 -14 132 -17 150 l-5 33 15 -27
c9 -14 21 -57 27 -95z"/>
<path d="M7612 5049 c-212 -74 -282 -344 -129 -498 126 -128 313 -129 443 -1
63 61 88 120 88 205 0 84 -22 138 -83 207 -82 93 -205 126 -319 87z"/>
<path d="M9355 4937 c-31 -18 -56 -49 -117 -147 -43 -69 -80 -139 -84 -157
-17 -89 37 -138 117 -107 49 20 107 89 140 168 12 31 27 56 32 56 5 0 20 -9
34 -20 35 -27 78 -26 108 5 55 54 16 158 -77 206 -49 25 -104 24 -153 -4z"/>
<path d="M5585 4910 c-172 -56 -259 -234 -196 -400 29 -78 71 -124 149 -162
56 -28 77 -33 132 -32 113 1 220 65 275 165 27 48 30 63 30 139 0 69 -5 93
-23 128 -76 142 -226 209 -367 162z"/>
<path d="M6620 4325 c-89 -25 -141 -55 -201 -115 -72 -71 -110 -146 -116 -225
-4 -51 -2 -65 19 -95 28 -41 61 -60 104 -60 51 0 95 38 139 120 48 91 69 102
186 108 102 5 140 -9 179 -65 40 -57 82 -92 117 -99 62 -12 119 29 143 100 9
28 7 43 -10 89 -39 104 -146 197 -265 232 -84 24 -226 29 -295 10z"/>
<path d="M2395 3483 c-68 -7 -207 -41 -279 -68 -128 -48 -237 -117 -339 -215
-110 -104 -157 -174 -243 -358 -1 -2 -29 4 -63 13 -168 43 -356 49 -508 16
-104 -23 -236 -71 -288 -106 -19 -14 -50 -32 -68 -41 -58 -30 -228 -213 -275
-296 -173 -306 -155 -654 47 -920 122 -161 323 -270 526 -285 44 -3 81 -6 82
-8 2 -1 7 -80 13 -176 14 -244 31 -399 47 -431 17 -34 69 -46 133 -30 25 7
113 45 195 86 329 163 590 239 955 281 288 32 792 6 1040 -55 99 -24 291 -101
473 -189 81 -40 161 -73 177 -73 33 -1 74 23 90 51 18 34 30 200 30 423 l0
218 23 4 c169 33 236 57 340 126 211 138 333 379 331 655 -1 242 -93 457 -268
630 -90 89 -164 142 -261 186 -239 108 -468 124 -711 48 -54 -16 -108 -32
-119 -35 -16 -3 -30 12 -70 77 -86 141 -244 284 -400 362 -177 88 -407 130
-610 110z m345 -253 c227 -63 423 -229 531 -447 48 -98 85 -143 116 -143 8 0
58 23 111 50 411 213 881 63 1058 -336 54 -123 71 -303 38 -415 -54 -183 -198
-326 -378 -372 -53 -14 -58 -14 -62 1 -24 75 -55 97 -131 93 -12 0 -33 -13
-46 -27 -28 -30 -36 -73 -38 -219 -1 -55 -3 -103 -5 -107 -2 -3 -44 11 -92 31
-48 21 -117 49 -154 62 l-68 24 0 188 c0 231 -9 256 -96 257 -31 0 -46 -6 -65
-26 -23 -25 -24 -32 -28 -195 -1 -93 -6 -169 -11 -169 -4 0 -61 11 -126 24
-66 13 -167 30 -226 36 l-107 13 -3 169 -3 170 -28 24 c-39 34 -95 33 -128 -2
-23 -25 -24 -32 -27 -190 l-4 -164 -66 6 c-121 11 -525 -26 -678 -61 -21 -5
-22 -2 -26 131 l-4 136 -33 30 c-28 25 -39 29 -70 24 -21 -3 -45 -16 -58 -31
-22 -25 -23 -35 -23 -181 0 -115 -3 -156 -12 -158 -7 -2 -75 -23 -150 -45
-123 -37 -394 -147 -426 -173 -7 -6 -15 -9 -17 -6 -3 2 -9 67 -15 143 -10 149
-20 178 -68 196 -62 24 -128 -20 -136 -91 -2 -19 -8 -36 -15 -38 -27 -9 -151
22 -220 55 -96 46 -202 150 -249 245 -87 177 -78 390 25 568 55 94 181 215
279 267 214 113 473 119 724 17 33 -13 71 -24 86 -24 39 0 79 47 99 115 24 85
76 179 149 272 128 162 299 257 522 293 90 14 267 4 354 -20z m245 -1895 c336
-36 667 -124 896 -240 l49 -25 0 -80 c0 -54 -4 -80 -12 -80 -6 0 -36 12 -66
26 -211 100 -532 185 -827 219 -184 21 -581 21 -760 0 -332 -39 -627 -124
-915 -263 -69 -33 -126 -59 -126 -58 -1 0 -3 39 -5 86 l-4 84 100 51 c265 135
632 240 960 275 225 23 518 25 710 5z"/>
</g>
</svg>
