<svg xmlns="http://www.w3.org/2000/svg" width="489" height="695" viewBox="0 0 489 695" version="1.1"><path d="M 225 0.670 C 221.975 0.915, 219.072 1.539, 218.550 2.057 C 218.028 2.576, 216.332 3, 214.783 3 C 209.868 3, 188.889 7.934, 178 11.651 C 166.120 15.706, 147.413 24.814, 138.569 30.848 C 135.307 33.073, 132.338 34.709, 131.971 34.482 C 130.136 33.348, 105 56.910, 105 59.764 C 105 60.491, 103.261 63.429, 101.136 66.293 C 99.010 69.157, 95.333 74.806, 92.964 78.847 C 90.595 82.888, 87.946 86.439, 87.078 86.737 C 47.687 100.276, 13.988 136.361, 4.794 174.848 C 3.657 179.606, 2.338 184.281, 1.863 185.236 C 0.653 187.671, 0.771 208.741, 2 209.500 C 2.550 209.840, 3 211.193, 3 212.507 C 3 217.067, 7.974 230.541, 12.510 238.269 C 26.530 262.151, 52.010 278.015, 80.495 280.596 L 88 281.276 88 288.188 C 88 296.209, 86.303 300.275, 82.033 302.483 C 78.172 304.479, 76.776 304.398, 73.727 302 C 72.329 300.900, 69.995 300, 68.541 300 C 66.448 300, 65.583 300.755, 64.383 303.627 C 61.695 310.060, 64.754 319.893, 71.696 327.135 L 75.181 330.770 72.662 334.635 C 66.123 344.668, 65.158 361.314, 70.467 372.500 C 72.034 375.800, 73.229 379.042, 73.124 379.705 C 73.019 380.368, 74.117 381.686, 75.565 382.635 C 77.013 383.583, 78.524 385.242, 78.923 386.322 C 79.618 388.199, 82.760 390.395, 91.500 395.111 C 93.700 396.298, 95.725 397.590, 96 397.983 C 96.275 398.376, 97.175 398.738, 98 398.788 C 98.825 398.838, 103.295 399.243, 107.932 399.689 L 116.365 400.500 120.773 407 C 127.744 417.280, 132.130 421.361, 146.863 431.274 L 149.500 433.048 145 432.386 C 142.525 432.022, 137.763 430.644, 134.418 429.323 C 129.648 427.440, 127.775 427.135, 125.736 427.910 C 122.484 429.147, 119.536 428.314, 110 423.470 C 105.875 421.374, 99.125 418.227, 95 416.478 L 87.500 413.297 84.495 402.092 C 81.586 391.244, 81.366 390.818, 77.594 388.694 C 74.753 387.094, 73.581 386.838, 73.266 387.750 C 73.028 388.437, 72.280 389, 71.604 389 C 70.927 389, 69.081 390.350, 67.500 392 C 65.919 393.650, 64.212 395, 63.706 395 C 63.200 395, 60.495 393.176, 57.694 390.946 C 53.049 387.247, 52.247 386.950, 48.551 387.562 C 46.323 387.931, 43.807 388.595, 42.960 389.039 C 41.236 389.942, 39.263 393.474, 38.792 396.500 C 38.525 398.215, 37.507 398.571, 31.651 399 C 26.027 399.412, 24.484 399.917, 22.911 401.861 C 19.715 405.809, 20.447 409.494, 25.500 414.897 C 27.975 417.543, 30 420.190, 30 420.779 C 30 421.368, 28.097 422.900, 25.771 424.183 C 20.248 427.230, 18.809 430.918, 21.648 434.752 C 25.905 440.502, 34.415 444.719, 53.014 450.298 C 64.397 453.712, 64.529 453.787, 67.737 458.622 C 72.189 465.332, 83.271 476.495, 89.755 480.800 C 93.866 483.530, 95.017 484.827, 94.633 486.297 C 94 488.717, 98.098 493, 101.047 493 C 102.223 493, 104.325 493.897, 105.719 494.994 C 109.145 497.689, 124.400 502.439, 135.915 504.396 C 141.093 505.276, 145.458 506.125, 145.615 506.282 C 145.772 506.439, 145.360 507.503, 144.700 508.648 C 139.140 518.288, 138.869 519.074, 139.977 522.318 C 141.306 526.206, 143.331 528.664, 148.321 532.448 C 152.339 535.495, 152.382 535.811, 149.637 542.151 C 148.147 545.590, 148.170 545.947, 150.028 548.309 C 152.540 551.502, 152.503 552.436, 149.396 564.500 C 146.647 575.176, 145.976 579.711, 143.552 604 C 141.258 626.998, 141.397 630.236, 144.853 634.215 C 147.296 637.028, 147.800 638.651, 148.362 645.500 C 149.198 655.689, 154.136 675.706, 157.172 681.210 C 160.307 686.892, 165.389 689.565, 175.892 691.056 C 182.500 691.994, 185.875 692, 190.842 691.085 C 204.253 688.614, 211.388 682.520, 219.554 666.567 L 224.126 657.633 249.795 657.901 C 263.913 658.048, 275.749 658.345, 276.098 658.560 C 276.446 658.776, 278.924 662.900, 281.603 667.726 C 284.500 672.943, 288.945 679.002, 292.568 682.673 C 297.674 687.846, 299.618 689.108, 304.580 690.466 C 307.836 691.358, 311.281 692.518, 312.236 693.044 C 314.474 694.276, 324.506 694.284, 326.764 693.055 C 327.719 692.535, 330.075 691.841, 332 691.513 C 337.080 690.649, 344.084 686.905, 346.292 683.874 C 349.291 679.757, 350.958 670.725, 351.621 655 C 352.222 640.747, 352.284 640.433, 355.297 636.584 L 358.361 632.668 356.646 614.584 C 355.702 604.638, 354.280 592.900, 353.485 588.500 C 352.690 584.100, 352.030 579.128, 352.020 577.450 C 352.009 575.773, 351.612 573.973, 351.138 573.450 C 350.665 572.928, 349.312 568.566, 348.132 563.759 C 346.952 558.951, 344.639 551.627, 342.993 547.483 C 338.723 536.734, 338.933 533.836, 344.250 530.148 C 350.299 525.952, 353.871 521.894, 354.563 518.434 C 355.038 516.062, 354.413 514.328, 351.548 510.071 C 349.560 507.117, 348.082 504.253, 348.264 503.707 C 348.446 503.161, 353.580 501.709, 359.672 500.480 C 373.092 497.774, 382.285 494.825, 391.225 490.359 C 394.924 488.512, 398.604 487, 399.404 487 C 401.771 487, 404 484.068, 404 480.954 C 404 478.752, 404.711 477.684, 406.948 476.527 C 417.543 471.048, 427.518 461.888, 434.337 451.378 L 438.798 444.500 451.649 441.237 C 478.185 434.498, 489.315 425.134, 479 418.224 C 477.075 416.935, 475.347 415.449, 475.161 414.923 C 474.974 414.396, 477.104 411.914, 479.894 409.405 C 489.027 401.194, 489.184 393.683, 480.247 392.486 C 473.638 391.601, 473.084 391.349, 472.100 388.776 C 469.473 381.906, 461.857 380.688, 451.286 385.445 C 447.868 386.983, 444.450 388.003, 443.691 387.712 C 442.932 387.420, 441.729 385.104, 441.018 382.564 C 440.235 379.767, 438.566 376.971, 436.786 375.473 C 430.178 369.913, 425.388 373.721, 420.927 388.077 C 419.259 393.449, 417.355 398.234, 416.697 398.710 C 416.038 399.187, 412.594 400.910, 409.041 402.539 C 402.522 405.528, 389.646 412.272, 380.570 417.452 C 376.364 419.852, 375.117 420.133, 372.070 419.368 C 368.175 418.390, 361.662 419.656, 356.500 422.396 C 354.850 423.271, 352.600 423.969, 351.500 423.947 C 350.223 423.921, 351.297 422.972, 354.472 421.321 C 357.207 419.899, 360.606 417.558, 362.025 416.118 C 363.445 414.678, 367.332 411.166, 370.663 408.314 C 377.220 402.700, 383.309 394.331, 386.008 387.220 L 387.706 382.745 396.698 380.472 C 411.364 376.765, 419.943 371.313, 426.385 361.607 C 436.982 345.643, 436.435 325.437, 425.016 311.020 C 423.357 308.926, 422 306.806, 422 306.309 C 422 305.812, 423.837 303.627, 426.082 301.453 C 428.328 299.279, 430.803 296.285, 431.582 294.800 C 433.627 290.904, 433.378 285.652, 431.049 283.544 C 429.178 281.851, 428.986 281.866, 426.414 283.889 C 423.218 286.403, 415.542 286.769, 412.385 284.557 C 409.800 282.747, 404.760 271.694, 405.183 268.767 C 405.426 267.090, 406.900 266.094, 411.500 264.494 C 420.474 261.374, 434.696 253.597, 441.746 247.955 C 454.919 237.413, 466.575 218.965, 471.098 201.500 C 475.390 184.924, 474.713 164.804, 469.279 147.500 C 458.516 113.224, 424.996 82.345, 391.102 75.480 C 385.471 74.340, 383.111 73.369, 382 71.736 C 358.942 37.840, 327.667 17.010, 284.145 6.561 C 278.450 5.194, 271.025 3.775, 267.645 3.407 C 264.265 3.040, 260.991 2.337, 260.368 1.845 C 259.095 0.839, 233.449 -0.013, 225 0.670 M 218.251 8.059 C 192.669 10.961, 164.006 21.048, 143.668 34.305 C 135.591 39.570, 109 64.630, 109 66.977 C 109 67.540, 108.416 68, 107.702 68 C 106.366 68, 100.782 76.147, 95.500 85.805 C 92.748 90.836, 92.045 91.429, 87 92.975 C 65.416 99.589, 40.854 118.884, 26.438 140.550 C 19.618 150.800, 13.570 163.624, 10.796 173.716 C 9.071 179.993, 8.645 184.405, 8.595 196.500 C 8.525 213.483, 9.760 219.656, 15.619 231.614 C 27.446 255.755, 55.845 274.099, 81.875 274.412 C 90.435 274.514, 89.766 275.199, 93.513 262.500 C 94.973 257.550, 98.212 248.629, 100.709 242.675 C 103.860 235.165, 104.931 231.531, 104.208 230.808 C 103.485 230.085, 101.201 230.108, 96.751 230.883 C 89.688 232.113, 78.897 232.207, 75 231.073 C 73.390 230.604, 76.238 230.159, 83 229.823 C 90.721 229.438, 95.457 228.612, 100.892 226.701 C 108.711 223.951, 111.638 221.703, 118.346 213.292 C 120.631 210.427, 125.361 204.847, 128.857 200.891 C 134.346 194.682, 134.984 193.570, 133.525 192.754 C 132.595 192.234, 130.253 192.105, 128.319 192.468 C 125.944 192.914, 125.016 192.782, 125.461 192.064 C 125.822 191.479, 127.554 190.984, 129.309 190.964 C 138.003 190.867, 150 185.794, 150 182.215 C 150 181.441, 148.155 178.713, 145.900 176.153 C 143.644 173.594, 141.147 170.150, 140.351 168.500 L 138.903 165.500 141.192 168.500 C 146.013 174.820, 151.377 180.057, 153.600 180.615 C 155.148 181.003, 157.670 180.191, 161.211 178.165 C 174.263 170.698, 202.366 160.296, 218.345 157.018 C 221.559 156.358, 225.784 155.153, 227.734 154.338 L 231.278 152.857 228.525 151.428 C 227.010 150.643, 224.052 150, 221.951 150 C 217.707 150, 213 148.519, 213 147.183 C 213 146.707, 215.137 146.669, 217.750 147.099 C 235.625 150.041, 258.867 144.838, 270.020 135.397 C 276.622 129.808, 277.484 129.769, 271.767 135.317 C 268.614 138.378, 263.214 142.245, 259.767 143.912 C 256.320 145.578, 252.284 147.760, 250.797 148.760 C 248.284 150.451, 248.221 150.657, 249.905 151.709 C 250.901 152.331, 257.067 153.340, 263.608 153.951 C 288.318 156.261, 309.758 160.756, 325.764 166.982 C 330.019 168.637, 334.023 169.993, 334.661 169.995 C 335.300 169.998, 338.563 167.010, 341.911 163.355 C 348.923 155.704, 350.242 155.972, 343.500 163.679 C 341.025 166.508, 339 169.519, 339 170.369 C 339 171.220, 341.137 173.116, 343.750 174.583 C 346.363 176.051, 350.750 178.618, 353.500 180.289 C 365.038 187.299, 366.851 188.061, 373.462 188.679 C 380.212 189.309, 380.752 190.954, 374.219 190.985 C 372.118 190.994, 370.712 191.587, 370.312 192.631 C 369.561 194.587, 372.219 199.782, 376.430 204.585 L 379.500 208.088 389.500 208.447 C 395 208.645, 400.512 208.851, 401.750 208.904 C 403.103 208.962, 404 209.636, 404 210.596 C 404 212.002, 402.747 212.107, 393.500 211.477 C 383.379 210.787, 383 210.834, 383 212.792 C 383 214.905, 386.795 224.119, 394.002 239.500 C 396.321 244.450, 398.990 250.722, 399.933 253.438 C 402.347 260.388, 403.533 260.866, 411.766 258.215 C 424.043 254.261, 441.497 242.083, 449.514 231.878 C 455.891 223.762, 461.465 212.892, 464.579 202.500 C 466.969 194.525, 467.284 191.791, 467.340 178.500 C 467.415 160.567, 465.338 150.684, 458.510 136.500 C 452.988 125.027, 446.569 116.602, 435.248 105.967 C 422.686 94.166, 404.392 83.665, 392.514 81.437 C 389.403 80.853, 389 81.018, 389 82.874 C 389 84.026, 390.125 88.852, 391.500 93.597 C 392.875 98.342, 393.924 104.311, 393.832 106.862 L 393.664 111.500 393.262 107.500 C 393.041 105.300, 392.025 102.600, 391.005 101.500 C 389.985 100.400, 388.187 97.025, 387.009 94 C 381.337 79.428, 372.216 66.122, 358.544 52.473 C 336.847 30.812, 307.751 16.396, 272.706 9.946 C 259.727 7.557, 231.344 6.573, 218.251 8.059 M 172 114.740 C 172 118.046, 186.945 133.994, 193.135 137.294 C 196.334 138.999, 196.377 138.999, 194 137.302 C 188.885 133.650, 180.556 125.318, 176.346 119.640 C 173.955 116.417, 172 114.212, 172 114.740 M 232 157.695 C 217.284 159.271, 196.870 164.667, 181.402 171.068 C 144.647 186.281, 125.808 201.942, 112.957 227.965 C 109.074 235.830, 108.491 239.536, 111.249 238.824 C 111.939 238.646, 117.228 233.371, 123.002 227.103 C 164.314 182.252, 237.932 162.262, 302 178.497 C 329.018 185.344, 351.058 196.414, 365.366 210.325 C 369.143 213.996, 372.855 217, 373.616 217 C 374.377 217, 375 217.450, 375 218 C 375 218.550, 375.403 219, 375.895 219 C 376.402 219, 376.445 217.472, 375.993 215.467 C 374.758 209.992, 365.198 195.371, 358 187.949 C 352.507 182.286, 349.718 180.393, 340 175.735 C 312.711 162.656, 285.664 156.867, 253.216 157.160 C 243.472 157.248, 233.925 157.489, 232 157.695 M 232.500 178.552 C 189.315 184.366, 151.835 202.171, 123.716 230.230 C 119.984 233.954, 116.585 237, 116.162 237 C 114.898 237, 105.203 250.269, 103.515 254.310 C 101.213 259.820, 97.288 273.152, 97.199 275.761 C 97.129 277.844, 97.575 277.674, 102.857 273.610 C 106.010 271.184, 109.232 268.426, 110.015 267.482 C 110.799 266.538, 115.053 262.976, 119.470 259.567 C 147.245 238.128, 182.370 222.799, 220.851 215.322 C 233.315 212.900, 236.713 212.663, 260 212.585 C 276.890 212.529, 288.201 212.948, 293.500 213.827 C 314.310 217.279, 338.922 224.462, 351.397 230.725 C 354.091 232.077, 357.492 233.334, 358.955 233.520 C 362.488 233.967, 371.415 238.887, 382.750 246.633 C 391.381 252.532, 392 252.796, 392 250.579 C 392 246.471, 383.244 230.288, 379.460 227.402 C 377.568 225.958, 376.246 224.412, 376.522 223.964 C 377.163 222.926, 364.118 211.400, 362.750 211.796 C 362.187 211.958, 360.775 211.219, 359.613 210.152 C 351.990 203.158, 331.977 192.728, 315.452 187.137 C 288.289 177.949, 259.283 174.947, 232.500 178.552 M 240.885 218.002 C 214.124 220.423, 176.976 231.403, 154.500 243.537 C 145.476 248.408, 142.290 251.350, 139.383 257.500 C 136.494 263.613, 136.418 266.966, 138.987 275.161 C 142.065 284.980, 141.432 291.761, 136.994 296.500 C 135.964 297.600, 135.165 298.932, 135.218 299.461 C 135.582 303.064, 123.218 306.317, 117.171 304.210 C 114.255 303.193, 114.190 303.248, 112.855 307.839 C 112.084 310.489, 111.532 316.813, 111.575 322.500 C 111.640 331.314, 112.039 333.508, 114.937 341 C 120.678 355.840, 121.030 357.031, 120.410 359.504 C 119.601 362.725, 116.074 363.858, 114.622 361.364 C 112.641 357.962, 104 337.882, 104 336.681 C 104 335.834, 100.331 335.500, 91.016 335.500 L 78.031 335.500 75.795 340.500 C 73.972 344.579, 73.555 347.342, 73.535 355.500 C 73.514 364.210, 73.845 366.209, 76.103 371 C 79.859 378.971, 86.974 386.369, 94.398 390.024 C 99.654 392.612, 101.620 393.061, 106.583 392.805 L 112.500 392.500 112.541 385.245 C 112.571 379.945, 113.017 377.554, 114.195 376.376 C 116.544 374.027, 117.998 375.526, 118.012 380.309 C 118.059 396.848, 131.189 416.126, 148 424.339 C 157.173 428.820, 170.915 433, 176.476 433 C 178.744 433, 181.027 433.424, 181.550 433.942 C 184.301 436.670, 223.932 439.542, 246.500 438.648 C 262.596 438.011, 288.641 434.988, 300.321 432.402 C 324.215 427.111, 345.814 419.200, 357.532 411.448 C 365.537 406.152, 374.877 396.634, 378.272 390.311 C 382.286 382.835, 385.164 370.806, 384.801 363.014 C 384.562 357.870, 384.810 356.474, 386 356.265 C 389.565 355.641, 390.499 357.694, 390.526 366.214 L 390.553 374.500 395.433 374.325 C 402.292 374.078, 413.865 368.222, 418.379 362.714 C 429.341 349.335, 431.228 330.636, 422.936 317.560 C 417.932 309.670, 411.367 307.190, 404.700 310.671 C 402.940 311.591, 399.025 313.115, 396 314.059 L 390.500 315.774 389.369 323.637 C 388.047 332.828, 386.372 339.374, 384.333 343.321 C 383.108 345.692, 382.633 345.940, 381.352 344.878 C 379.719 343.522, 379.724 343.371, 381.984 325.368 C 382.936 317.784, 382.983 313.693, 382.174 309.096 C 381.090 302.943, 376.360 291, 375.006 291 C 373.444 291, 354.015 242.976, 353.990 239.052 C 353.977 237.112, 340.536 231.382, 324.837 226.623 C 300.674 219.299, 265.959 215.734, 240.885 218.002 M 364.006 246.268 C 364.010 246.946, 366.969 254.250, 370.582 262.500 C 374.195 270.750, 377.796 279.499, 378.585 281.942 C 379.374 284.384, 381.319 289.334, 382.907 292.942 C 384.495 296.549, 386.419 301.300, 387.183 303.500 C 388.343 306.843, 389.067 307.549, 391.592 307.799 C 396.086 308.244, 400 306.443, 400 303.931 C 400 302.732, 399.219 301.608, 398.200 301.342 C 397.211 301.083, 395.911 300.086, 395.311 299.127 C 394.282 297.479, 394.701 297.458, 402.861 298.759 C 415.627 300.793, 421.309 299.449, 423.244 293.939 C 423.675 292.711, 422.915 292.327, 419.668 292.135 C 413.920 291.796, 407.721 288.822, 405.105 285.147 C 403.888 283.439, 401.555 279.089, 399.918 275.480 C 396.512 267.968, 393.718 264.543, 386.568 259.115 C 379.093 253.440, 363.999 244.845, 364.006 246.268 M 313.200 250.200 C 312.540 250.860, 312 252.300, 312 253.399 C 312 255.723, 320.102 263.663, 325.365 266.497 C 328.793 268.343, 329.074 268.355, 330.710 266.718 C 332.347 265.082, 332.009 264.570, 324.301 256.996 C 319.826 252.598, 315.768 249, 315.282 249 C 314.797 249, 313.860 249.540, 313.200 250.200 M 170.858 261.090 C 164.509 267.870, 160.806 274.061, 162.140 275.668 C 163.831 277.706, 164.441 277.412, 170.854 271.475 C 177.986 264.872, 179.777 261.013, 176.914 258.422 C 175.061 256.745, 174.834 256.845, 170.858 261.090 M 129 259.804 C 127.024 260.438, 117.011 268.259, 110.374 274.353 C 104.592 279.663, 103.327 281.635, 96.112 296.593 C 90.460 308.310, 87.240 311.067, 78.339 311.805 C 75.403 312.048, 73 312.557, 73 312.935 C 73 313.313, 73.955 314.648, 75.121 315.900 C 76.765 317.664, 77.947 318.051, 80.371 317.615 C 90.945 315.717, 92 315.699, 92 317.413 C 92 318.338, 89.744 320.485, 86.944 322.226 C 81.964 325.321, 81.922 325.389, 84.194 326.649 C 86.986 328.199, 93.203 328.349, 98.113 326.985 C 101.677 325.995, 101.734 325.896, 102.380 319.599 C 103.099 312.578, 105.921 303.493, 109.009 298.260 C 110.739 295.328, 110.856 294.314, 109.903 290.528 C 107.914 282.630, 109.847 282.350, 115.835 289.668 L 121.171 296.188 123.400 294.094 C 124.626 292.942, 126.050 292.015, 126.564 292.033 C 127.079 292.052, 126.424 292.963, 125.108 294.058 C 122.406 296.309, 122.812 297.512, 125.939 296.519 C 127.095 296.152, 127.730 295.372, 127.360 294.773 C 126.962 294.129, 127.158 293.979, 127.844 294.403 C 128.501 294.810, 130.058 293.909, 131.467 292.308 C 134.260 289.133, 134.777 283.328, 132.874 276.500 C 132.261 274.300, 131.476 269.535, 131.130 265.911 C 130.630 260.678, 130.191 259.421, 129 259.804 M 325 308.993 C 311.927 311.444, 303 323.563, 303 338.859 C 303 351.086, 307.516 359.406, 316.620 363.953 C 333.418 372.342, 354.011 358.092, 353.994 338.090 C 353.987 329.707, 352.753 325.331, 348.723 319.407 C 343.496 311.722, 333.604 307.379, 325 308.993 M 162 319.590 C 157.556 321.509, 151.348 327.469, 149.072 332 C 144.354 341.393, 143.996 350.681, 148.002 359.737 C 150.468 365.312, 152.901 368.106, 158.914 372.267 C 162.563 374.792, 164.556 375.397, 170.414 375.757 C 176.737 376.145, 178.082 375.885, 182.902 373.345 C 195.627 366.638, 200.004 350.234, 193.333 334.251 C 187.964 321.387, 173.504 314.621, 162 319.590 M 401.241 334.995 C 397.882 337.042, 394.403 341.797, 393.370 345.752 C 392.950 347.361, 393.440 348.536, 395.089 349.871 C 397.262 351.630, 397.321 351.984, 396.121 355.992 C 394.620 361.001, 395.639 362.642, 398.854 360.390 C 402.568 357.788, 403.298 354.415, 401.391 348.672 L 399.720 343.640 402.876 340.820 C 405.343 338.615, 407.010 338, 410.516 338 C 415.382 338, 416.003 337.218, 413.171 334.655 C 410.700 332.418, 405.210 332.574, 401.241 334.995 M 89.500 351.765 C 88.950 352.169, 87.960 353.195, 87.299 354.043 C 86.260 355.378, 86.547 355.535, 89.417 355.199 C 93.048 354.776, 97.468 356.650, 100.352 359.836 C 102.062 361.727, 102.081 362.047, 100.600 364.161 C 97.897 368.020, 99.230 374.456, 103.458 377.965 C 105.700 379.826, 106.664 378.391, 104.661 376.177 C 103.122 374.477, 102.111 364.778, 103.631 366.298 C 104.761 367.428, 108 364.982, 108 363 C 108 360.381, 102.751 354.584, 98.593 352.611 C 94.996 350.904, 91.158 350.547, 89.500 351.765 M 245.751 376.981 C 242.624 379.441, 240.218 385.293, 239.371 392.498 C 238.654 398.600, 239.226 399.380, 241.388 395.250 C 243.544 391.133, 248.976 386, 251.179 386 C 252.246 386, 255.632 388.363, 258.703 391.250 L 264.285 396.500 263.590 392.709 C 261.839 383.167, 256.032 375, 250.998 375 C 249.498 375, 247.136 375.892, 245.751 376.981 M 429.511 380.180 C 429.247 380.906, 427.891 385.469, 426.499 390.321 C 422.548 404.088, 421.639 405.845, 418.753 405.293 C 416.100 404.786, 408.596 408.272, 386.500 420.275 C 370.488 428.974, 369.995 429.382, 370.021 433.905 C 370.090 445.636, 387.724 476, 394.468 476 C 397.219 476, 408.690 469.457, 415 464.289 C 420.819 459.523, 427.201 452.476, 431.958 445.562 C 433.538 443.264, 435.470 440.855, 436.250 440.207 C 437.031 439.560, 442.858 437.719, 449.201 436.117 C 464.438 432.269, 472.368 429.302, 475.053 426.444 C 478.395 422.886, 477.013 421.352, 469.295 420.050 C 465.529 419.415, 461.785 418.481, 460.974 417.976 C 459.300 416.932, 460.419 415.965, 470 410.180 C 477.357 405.738, 480.143 402.994, 479.792 400.537 C 479.538 398.765, 478.850 398.527, 474.500 398.709 C 471.750 398.824, 466.246 400.032, 462.268 401.393 C 458.161 402.799, 454.788 403.467, 454.462 402.939 C 453.794 401.858, 457.856 397.843, 463.292 394.212 C 472.770 387.880, 462.310 386.470, 449.376 392.335 C 440.286 396.457, 438.598 396.102, 437.017 389.733 C 436.439 387.405, 435.621 384.150, 435.200 382.500 C 434.384 379.307, 430.417 377.689, 429.511 380.180 M 45.667 393.667 C 44.096 395.238, 45.287 398.173, 49.500 403.109 C 54.219 408.637, 54.352 408.918, 53.419 411.350 C 52.940 412.599, 51.630 412.233, 45.952 409.267 C 37.621 404.915, 28.483 403.579, 27.344 406.545 C 26.823 407.904, 28.394 409.991, 33.862 415.206 C 37.825 418.985, 41.451 421.839, 41.920 421.549 C 43.240 420.734, 44.985 423.406, 44.085 424.863 C 43.638 425.585, 39.824 426.588, 35.466 427.129 C 26.840 428.200, 26 428.497, 26 430.470 C 26 434.268, 36.468 439.394, 57.556 445.922 L 67.612 449.035 73.531 457.127 C 79.822 465.729, 86.095 471.887, 93.684 476.914 C 99.829 480.984, 102.939 480.939, 105.414 476.744 C 112.738 464.328, 120.624 447.948, 122.506 441.243 C 122.978 439.559, 122.385 438.231, 120.172 436.018 C 116.867 432.713, 92.863 420.498, 86.549 418.908 L 82.498 417.888 79.602 407.694 C 78.008 402.087, 76.306 396.712, 75.817 395.750 C 74.196 392.553, 72.021 393.895, 69.468 399.668 L 66.961 405.337 64.231 402.798 C 56.720 395.814, 47.872 391.462, 45.667 393.667 M 362.155 425.694 C 361.415 425.989, 359.503 428.291, 357.905 430.811 C 355.701 434.287, 355 434.876, 355 433.255 C 355 432.080, 354.581 430.859, 354.068 430.542 C 352.685 429.687, 323.602 433.128, 322.886 434.232 C 322.548 434.753, 321.198 435.089, 319.886 434.979 C 314.355 434.515, 314.246 435.010, 316.142 452 C 317.278 462.180, 326.994 493.920, 329.648 496.123 C 331.505 497.664, 350.978 496.649, 361 494.490 C 374.596 491.560, 382.428 488.901, 384.790 486.412 C 386.050 485.086, 387.977 484, 389.072 484 C 393.058 484, 392.113 481.127, 385.568 473.335 C 381.948 469.026, 377.117 461.900, 374.833 457.500 C 372.548 453.100, 370.299 449.349, 369.833 449.165 C 369.368 448.980, 369.194 448.494, 369.447 448.085 C 369.700 447.676, 369.253 445.168, 368.454 442.512 C 367.654 439.855, 367 434.829, 367 431.341 C 367 424.789, 366.344 424.024, 362.155 425.694 M 127.045 441.250 C 124.704 453.289, 112.995 477.776, 107.248 482.653 C 104.178 485.257, 104.817 488, 108.493 488 C 110.230 488, 111.326 488.727, 111.911 490.267 C 112.551 491.948, 114.545 493.091, 119.637 494.692 C 130.863 498.224, 137.814 499.269, 150.876 499.388 C 164.839 499.514, 163.775 500.121, 166.456 490.500 C 167.375 487.200, 171.289 474.903, 175.153 463.173 C 179.017 451.443, 182.003 441.669, 181.787 441.454 C 181.572 441.239, 172.115 440.754, 160.773 440.377 L 140.150 439.691 139.825 443.096 L 139.500 446.500 136.641 442 C 130.968 433.069, 128.671 432.889, 127.045 441.250 M 305.454 437.926 C 305.769 438.436, 303.540 439.163, 300.500 439.543 C 297.461 439.923, 294.793 440.526, 294.572 440.883 C 294.352 441.240, 294.039 454.738, 293.878 470.878 C 293.599 498.733, 293.681 500.294, 295.483 501.612 C 298.596 503.887, 302.729 503.343, 304.656 500.402 C 306.473 497.629, 306.909 492.628, 305.584 489.739 C 304.979 488.418, 305.142 488.117, 306.237 488.537 C 307.474 489.012, 307.803 485.912, 308.400 468.181 C 309.168 445.353, 308.609 437, 306.312 437 C 305.526 437, 305.140 437.417, 305.454 437.926 M 259.500 444.116 C 250.700 444.560, 237.316 445.053, 229.757 445.211 C 222.198 445.370, 216.011 445.802, 216.007 446.172 C 215.989 447.877, 224.538 453.878, 229.254 455.471 C 243.677 460.343, 266.256 457.168, 274.952 449.045 C 278.038 446.162, 279.042 442.871, 276.750 443.154 C 276.063 443.239, 268.300 443.672, 259.500 444.116 M 188.621 469.250 C 188.243 483.137, 188.233 495.979, 188.599 497.786 C 189.756 503.499, 196.779 506.112, 200.355 502.160 C 202.472 499.820, 203.637 475.619, 202.540 456.750 L 201.799 444 195.554 444 L 189.309 444 188.621 469.250 M 282.500 450.217 C 266.889 465.428, 232.819 467.116, 214.017 453.608 L 209 450.003 208.800 466.002 C 208.690 474.801, 208.577 483.688, 208.550 485.750 C 208.503 489.309, 208.653 489.489, 211.500 489.277 C 213.150 489.154, 230.799 488.929, 250.721 488.777 L 286.942 488.500 287.492 468.500 C 287.795 457.500, 287.696 448.009, 287.271 447.409 C 286.772 446.703, 285.091 447.692, 282.500 450.217 M 357 447.906 C 357 449.789, 362.236 462.444, 363.644 463.964 C 365.775 466.265, 365.319 463.660, 362.084 455.047 C 359.620 448.488, 357 444.808, 357 447.906 M 177.785 472.500 C 171.083 493.824, 167.959 506.441, 167.384 514.500 L 166.886 521.500 170.837 511.356 C 173.010 505.778, 176.649 497.636, 178.923 493.264 L 183.058 485.316 182.779 471.408 L 182.500 457.500 177.785 472.500 M 313.639 480.722 L 312.947 492.944 316.624 500.222 C 318.646 504.225, 320.449 508.732, 320.629 510.237 C 321.018 513.478, 326.663 525, 327.862 525 C 328.320 525, 329.177 526.013, 329.768 527.250 C 330.726 529.257, 330.837 529.068, 330.801 525.500 C 330.750 520.530, 328.271 508.031, 327.042 506.550 C 326.540 505.946, 325.894 503.493, 325.605 501.099 C 324.975 495.872, 318.250 475.117, 316.500 473 C 315.819 472.175, 315.052 470.825, 314.796 470 C 314.540 469.175, 314.019 474, 313.639 480.722 M 225 471.114 C 230.408 472.520, 258.126 472.606, 260.500 471.225 C 262.065 470.314, 258.042 470.076, 242 470.133 C 227.670 470.183, 222.553 470.478, 225 471.114 M 371 475.809 C 371 476.254, 371.638 477.491, 372.418 478.557 C 374.279 481.102, 375.525 479.813, 373.829 477.097 C 372.513 474.990, 371 474.301, 371 475.809 M 208.425 495.122 C 208.035 495.752, 207.625 497.782, 207.512 499.635 C 207.106 506.324, 199.617 510.400, 191.952 508.104 C 187.668 506.820, 184.011 502.363, 184.004 498.417 C 183.993 492.212, 181.848 495.680, 175.293 512.500 C 173.364 517.450, 171.410 521.735, 170.951 522.023 C 169.867 522.702, 162.322 538.978, 159.939 545.776 C 156.534 555.490, 152.058 578.509, 150.390 594.878 C 148.809 610.395, 148.816 611.266, 150.557 615.127 C 151.990 618.304, 153.559 619.755, 157.938 621.956 C 170.123 628.078, 184.831 632.305, 204.924 635.460 C 210.657 636.360, 215.719 637.327, 216.174 637.607 C 218.399 638.983, 216.467 640, 211.631 640 C 195.896 640, 163.890 631.042, 153.700 623.786 C 148.831 620.319, 148 620.586, 148 625.620 C 148 628.929, 148.446 630.234, 149.750 630.733 C 151.587 631.436, 157.110 634.932, 160.490 637.530 C 165.054 641.038, 189.060 647.181, 209 649.944 C 244.625 654.879, 289.329 653.419, 317.500 646.400 C 334.574 642.146, 350.547 635.454, 351.218 632.275 C 351.546 630.722, 350.190 623.104, 349.416 622.149 C 349.259 621.956, 347.639 622.917, 345.816 624.285 C 338.752 629.582, 325.869 634.348, 310.500 637.349 C 298.604 639.672, 295.586 639.787, 295.227 637.930 C 294.984 636.676, 297.193 635.923, 306.218 634.182 C 323.928 630.766, 337.233 626.058, 343.907 620.845 C 345.290 619.765, 347.098 619.214, 348.157 619.550 C 350.178 620.191, 350.303 619.485, 350.025 609 C 349.677 595.867, 343.598 565.653, 338.446 551.450 C 337.145 547.863, 333.368 540.464, 330.054 535.008 C 326.739 529.552, 322.848 522.143, 321.407 518.544 C 319.966 514.945, 318.468 512, 318.078 512 C 317.687 512, 316.077 509.300, 314.500 506 C 311.416 499.549, 310.505 498.835, 309.478 502.069 C 308.592 504.861, 303.225 507.992, 299.315 507.996 C 292.340 508.004, 287.985 504.191, 287.665 497.795 L 287.500 494.500 248.316 494.238 C 219.713 494.048, 208.941 494.286, 208.425 495.122 M 334.325 510.355 C 335.353 517.852, 338.315 525.457, 340.356 525.840 C 343.038 526.342, 349 520.239, 349 516.991 C 349 513.040, 340.764 506, 336.142 506 C 333.868 506, 333.763 506.253, 334.325 510.355 M 152.500 510.163 C 150.300 511.304, 147.713 512.929, 146.750 513.774 C 143.329 516.777, 145.346 524.524, 150.580 528.484 C 152.635 530.038, 156.582 530.485, 157.345 529.250 C 158.268 527.754, 161.011 509.826, 160.454 508.925 C 159.562 507.482, 156.858 507.902, 152.500 510.163 M 220.682 523.651 C 220.307 524.026, 220 524.715, 220 525.182 C 220 525.649, 232.713 525.912, 248.250 525.766 C 266.240 525.596, 276.500 525.137, 276.500 524.500 C 276.500 523.364, 221.802 522.532, 220.682 523.651 M 205.866 549.394 C 204.393 552.629, 206.302 566.711, 208.906 571.815 C 213.585 580.988, 223.604 586.130, 240.583 588.072 C 260.932 590.400, 281.169 585.136, 287.611 575.839 C 292.214 569.198, 294.618 554.892, 291.965 549.934 C 290.667 547.509, 288.741 547.511, 279.949 549.947 C 276.085 551.018, 267.509 552.452, 260.891 553.134 C 246.388 554.628, 229.821 553.194, 218 549.420 C 208.613 546.423, 207.221 546.420, 205.866 549.394 M 210.363 558.695 C 210.722 561.888, 212.262 566.975, 213.787 570 C 216.223 574.835, 217.324 575.883, 222.900 578.668 C 234.288 584.357, 252.886 585.738, 267.567 581.983 C 277.268 579.502, 282.303 576.287, 285.113 570.778 C 287.199 566.689, 289.041 554, 287.548 554 C 287.149 554, 281.350 554.949, 274.661 556.109 C 264.311 557.903, 259.894 558.140, 245 557.699 C 234.111 557.377, 225.044 556.580, 221 555.590 C 208.266 552.473, 209.620 552.077, 210.363 558.695 M 223.667 637.667 C 222.149 639.185, 223.147 641, 225.500 641 C 227.333 641, 228 640.467, 228 639 C 228 637.049, 225.159 636.175, 223.667 637.667 M 273.500 638.053 C 268.550 638.457, 257.188 638.836, 248.250 638.894 C 235.244 638.979, 232 639.272, 232 640.364 C 232 642.427, 238.450 642.931, 258 642.398 C 275.025 641.934, 289.625 640.708, 290.680 639.654 C 290.966 639.367, 290.904 638.653, 290.541 638.067 C 289.831 636.917, 287.411 636.915, 273.500 638.053 M 155.338 643.561 C 153.987 647.081, 158.353 669.488, 161.992 677.714 C 164.776 684.008, 168.511 685.383, 183 685.445 C 196.042 685.502, 200.057 684.116, 205.799 677.577 C 209.514 673.344, 216.389 659.455, 215.680 657.610 C 215.369 656.797, 210.902 655.660, 203.840 654.595 C 189.551 652.441, 175.081 648.848, 165.183 644.998 C 156.254 641.524, 156.127 641.506, 155.338 643.561 M 335.047 646.567 C 325.854 650.120, 314.972 652.743, 299.740 655.076 C 292.458 656.192, 286.054 657.550, 285.508 658.094 C 284.061 659.538, 292.533 675.549, 297.078 679.960 C 302.137 684.869, 309.336 687.011, 320.588 686.956 C 330.968 686.905, 338.442 684.740, 341.143 681 C 343.611 677.583, 345.137 666.500, 344.789 654.506 C 344.451 642.839, 344.529 642.903, 335.047 646.567"  fill-rule="evenodd"/></svg>