<svg xmlns="http://www.w3.org/2000/svg" height="24" viewBox="0 -960 960 960" width="24"><path d="M382.812-354.461q-94.593 0-159.837-65.395-65.244-65.395-65.244-159.5 0-94.106 65.184-159.529 65.185-65.423 159.5-65.423 94.316 0 159.739 65.431 65.423 65.432 65.423 159.59 0 40.979-14.654 79.922-14.654 38.942-38.154 66.271l235.079 234.465q5.114 5.091 5.498 12.706.385 7.615-5.807 13.615-6.193 6-13.231 6-7.039 0-12.914-5.869l-234.79-235.092q-29.796 25.538-68.681 39.173-38.885 13.635-77.111 13.635Zm-.158-36.924q79.115 0 133.557-54.295 54.443-54.295 54.443-133.75t-54.443-133.705q-54.442-54.25-133.749-54.25-79.308 0-133.558 54.296-54.25 54.295-54.25 133.75 0 79.454 54.282 133.704 54.282 54.25 133.718 54.25Z"/></svg>