<svg viewBox="0 0 22 23" xmlns="http://www.w3.org/2000/svg">
<path id="Vector" d="M8.10111 16.9647C5.84414 16.9647 3.92972 16.1782 2.35783 14.6051C0.785943 13.032 0 11.1161 0 8.85736C0 6.59865 0.785943 4.68275 2.35783 3.10965C3.92972 1.53655 5.84414 0.75 8.10111 0.75C10.3581 0.75 12.2725 1.53655 13.8444 3.10965C15.4163 4.68275 16.2022 6.59865 16.2022 8.85736C16.2022 9.75085 16.0749 10.5753 15.8203 11.3306C15.4081 12.5537 15.4701 13.9999 16.3812 14.9141L21.3062 19.8556C21.6021 20.163 21.75 20.5324 21.75 20.9641C21.75 21.3958 21.5965 21.7597 21.2894 22.0558C20.9935 22.3519 20.6271 22.5 20.1902 22.5C19.7532 22.5 19.3868 22.3519 19.0909 22.0558L14.205 17.1662C13.2796 16.24 11.8148 16.1693 10.5725 16.5825C9.80652 16.8373 8.98273 16.9647 8.10111 16.9647ZM8.10111 13.8168C9.48419 13.8168 10.6559 13.3362 11.6162 12.3752C12.5765 11.4141 13.0567 10.2415 13.0567 8.85736C13.0567 7.47321 12.5765 6.30061 11.6162 5.33955C10.6559 4.37849 9.48419 3.89796 8.10111 3.89796C6.71803 3.89796 5.54633 4.37849 4.58601 5.33955C3.62569 6.30061 3.14553 7.47321 3.14553 8.85736C3.14553 10.2415 3.62569 11.4141 4.58601 12.3752C5.54633 13.3362 6.71803 13.8168 8.10111 13.8168Z" />
</g>
</svg>
