<svg xmlns="http://www.w3.org/2000/svg" version="1.0" preserveAspectRatio="xMidYMid meet" viewBox="11 8 493 498">

<g transform="translate(0.000000,512.000000) scale(0.100000,-0.100000)" >
<path d="M415 5019 c-68 -36 -153 -127 -196 -211 -43 -85 -84 -238 -99 -367 -19 -166 -8 -594 20 -771 6 -36 20 -130 31 -210 11 -79 27 -169 34 -200 8 -30 25 -104 38 -165 14 -60 28 -118 32 -127 6 -16 1 -18 -34 -18 -35 0 -49 -7 -86 -41 l-45 -42 0 -1371 0 -1372 33 -32 33 -32 2405 0 2405 0 27 28 27 28 0 1381 0 1381 -41 37 -42 37 -93 -4 -94 -4 0 131 c0 148 -10 219 -46 320 -81 228 -268 386 -484 411 -55 6 -61 8 -40 17 14 5 61 9 105 8 97 -1 136 11 170 50 21 26 25 40 25 101 0 63 -3 72 -28 98 -38 37 -88 50 -197 50 -103 0 -210 -25 -289 -68 -61 -33 -138 -101 -166 -147 -12 -19 -26 -35 -30 -35 -5 0 -31 14 -57 30 -88 56 -164 72 -320 68 -108 -3 -150 -9 -194 -25 l-57 -21 -48 50 c-53 54 -207 161 -261 180 -30 11 -33 15 -33 55 0 37 4 44 29 58 16 8 39 27 50 41 20 25 21 39 21 257 l0 229 -39 39 -39 39 -446 0 -446 0 -40 -36 -40 -36 0 -234 0 -233 31 -35 c16 -19 39 -38 50 -41 14 -5 19 -16 19 -46 0 -37 -3 -40 -52 -65 -87 -44 -169 -103 -238 -170 l-65 -64 -65 133 c-177 363 -319 576 -515 773 -112 113 -141 136 -214 172 l-83 42 -142 0 c-122 -1 -146 -4 -181 -21z m256 -291 c55 -28 162 -128 234 -215 l27 -33 -36 0 c-44 0 -95 -20 -119 -47 -15 -18 -43 -85 -122 -303 -13 -36 -46 -125 -74 -198 -31 -80 -51 -149 -51 -173 0 -88 58 -139 159 -139 58 0 64 2 100 38 32 30 49 64 96 192 80 215 133 357 152 408 l15 43 45 -73 c55 -88 235 -451 282 -568 l35 -85 -3 -335 c-2 -184 -4 -336 -5 -337 0 -1 -26 7 -56 17 -69 24 -225 27 -296 5 -62 -19 -61 -19 -37 8 20 20 59 112 118 277 12 36 46 125 74 199 43 113 51 145 51 202 0 64 -1 68 -35 98 -33 29 -41 31 -110 31 -68 0 -77 -3 -107 -29 -20 -17 -40 -50 -52 -82 -10 -30 -34 -94 -52 -144 -19 -49 -46 -119 -59 -155 -13 -36 -40 -107 -60 -157 -26 -68 -35 -108 -35 -152 0 -56 2 -60 40 -95 37 -33 45 -36 100 -36 l61 0 -67 -62 c-88 -84 -135 -112 -173 -103 -16 3 -34 12 -39 18 -9 11 -44 128 -101 337 -115 422 -177 1009 -140 1315 20 159 75 311 128 352 25 19 49 15 112 -19z m1949 -158 l0 -30 -225 0 -225 0 0 30 0 30 225 0 225 0 0 -30z m-90 -432 c0 -125 1 -133 26 -165 14 -18 32 -33 40 -33 9 0 32 -7 52 -16 108 -47 135 -64 223 -137 l46 -38 -43 -47 c-24 -26 -44 -51 -44 -56 0 -4 -15 -27 -32 -49 -64 -80 -119 -194 -157 -322 -36 -121 -42 -175 -39 -362 1 -100 0 -185 -4 -188 -18 -18 -76 12 -146 76 -42 39 -105 84 -141 102 -64 31 -69 32 -196 32 -128 0 -131 0 -198 -34 -62 -32 -93 -56 -185 -144 l-34 -32 5 355 c5 392 5 392 75 528 76 150 220 270 375 313 29 8 60 27 80 47 l32 33 3 135 4 134 129 0 129 0 0 -132z m1004 -468 c70 -33 114 -77 146 -145 39 -82 74 -108 155 -113 56 -4 64 -1 113 33 33 23 82 43 129 56 72 18 81 18 137 4 34 -9 76 -28 95 -43 45 -37 107 -142 134 -227 39 -128 25 -318 -35 -455 l-24 -53 -74 69 c-134 124 -200 149 -369 142 -134 -5 -189 -29 -292 -123 -84 -77 -126 -101 -163 -91 -14 3 -58 34 -97 69 -105 91 -127 106 -202 129 -57 17 -87 20 -178 16 l-109 -4 0 51 c0 97 55 275 120 390 77 133 216 264 325 303 51 18 144 14 189 -8z m-2294 -1027 c14 -9 57 -47 96 -84 92 -86 151 -110 291 -117 167 -8 264 31 382 152 90 92 127 88 250 -28 111 -103 156 -120 321 -120 166 0 208 16 326 125 124 115 146 116 258 10 118 -112 208 -146 365 -139 110 6 175 25 244 74 l47 34 0 -1110 0 -1110 -1705 0 -1705 0 0 1111 0 1111 22 -16 c98 -69 180 -96 298 -96 132 0 229 39 325 130 101 95 134 108 185 73z m3039 -182 c133 -43 320 -19 416 54 l45 35 0 -1110 0 -1110 -310 0 -310 0 0 1110 0 1110 48 -34 c26 -19 76 -43 111 -55z"/>
</g>
</svg>