<svg  viewBox="0 0 33 33" xmlns="http://www.w3.org/2000/svg">
<path id="Vector" d="M16.3744 32.75C15.9826 32.75 15.6544 32.6175 15.3898 32.3526C15.1252 32.0878 14.9929 31.7595 14.9929 31.3679V23.9964C14.9929 23.6048 15.1254 23.2766 15.3904 23.0117C15.6554 22.7468 15.9838 22.6143 16.3756 22.6143C16.7674 22.6143 17.0956 22.7468 17.3602 23.0117C17.6248 23.2766 17.7571 23.6048 17.7571 23.9964V26.3001H31.1179C31.5095 26.3001 31.8378 26.4326 32.1027 26.6976C32.3676 26.9626 32.5 27.291 32.5 27.6828C32.5 28.0746 32.3676 28.4028 32.1027 28.6674C31.8378 28.932 31.5095 29.0643 31.1179 29.0643H17.7571V31.3679C17.7571 31.7595 17.6246 32.0878 17.3596 32.3526C17.0946 32.6175 16.7662 32.75 16.3744 32.75ZM1.6321 29.0643C1.24049 29.0643 0.912248 28.9318 0.647367 28.6668C0.382456 28.4017 0.25 28.0733 0.25 27.6816C0.25 27.2898 0.382456 26.9616 0.647367 26.697C0.912248 26.4324 1.24049 26.3001 1.6321 26.3001H9.00355C9.39516 26.3001 9.7234 26.4326 9.98828 26.6976C10.2532 26.9626 10.3856 27.291 10.3856 27.6828C10.3856 28.0746 10.2532 28.4028 9.98828 28.6674C9.7234 28.932 9.39516 29.0643 9.00355 29.0643H1.6321ZM9.00295 21.6928C8.61116 21.6928 8.28296 21.5604 8.01835 21.2955C7.75375 21.0306 7.62145 20.7023 7.62145 20.3107V18.0071H1.6321C1.24049 18.0071 0.912248 17.8746 0.647367 17.6096C0.382456 17.3446 0.25 17.0162 0.25 16.6244C0.25 16.2326 0.382456 15.9044 0.647367 15.6398C0.912248 15.3752 1.24049 15.2429 1.6321 15.2429H7.62145V12.9393C7.62145 12.5477 7.75395 12.2194 8.01895 11.9545C8.28399 11.6896 8.61239 11.5572 9.00415 11.5572C9.39594 11.5572 9.72414 11.6896 9.98874 11.9545C10.2533 12.2194 10.3856 12.5477 10.3856 12.9393V20.3107C10.3856 20.7023 10.2531 21.0306 9.98814 21.2955C9.72311 21.5604 9.39471 21.6928 9.00295 21.6928ZM16.375 18.0071C15.9834 18.0071 15.6551 17.8746 15.3903 17.6096C15.1254 17.3446 14.9929 17.0162 14.9929 16.6244C14.9929 16.2326 15.1254 15.9044 15.3903 15.6398C15.6551 15.3752 15.9834 15.2429 16.375 15.2429H31.1179C31.5095 15.2429 31.8378 15.3754 32.1027 15.6404C32.3676 15.9054 32.5 16.2338 32.5 16.6256C32.5 17.0174 32.3676 17.3456 32.1027 17.6102C31.8378 17.8748 31.5095 18.0071 31.1179 18.0071H16.375ZM23.7458 10.6357C23.3541 10.6357 23.0259 10.5032 22.7613 10.2383C22.4966 9.97342 22.3643 9.64516 22.3643 9.25355V1.8821C22.3643 1.49049 22.4968 1.16223 22.7619 0.897322C23.0269 0.632441 23.3553 0.5 23.747 0.5C24.1388 0.5 24.467 0.632441 24.7316 0.897322C24.9962 1.16223 25.1285 1.49049 25.1285 1.8821V4.18572H31.1179C31.5095 4.18572 31.8378 4.31823 32.1027 4.58323C32.3676 4.84827 32.5 5.17666 32.5 5.56843C32.5 5.96022 32.3676 6.28841 32.1027 6.55302C31.8378 6.81762 31.5095 6.94993 31.1179 6.94993H25.1285V9.25355C25.1285 9.64516 24.996 9.97342 24.731 10.2383C24.466 10.5032 24.1376 10.6357 23.7458 10.6357ZM1.6321 6.94993C1.24049 6.94993 0.912248 6.81742 0.647367 6.55242C0.382456 6.28739 0.25 5.95899 0.25 5.56723C0.25 5.17543 0.382456 4.84724 0.647367 4.58263C0.912248 4.31803 1.24049 4.18572 1.6321 4.18572H16.375C16.7666 4.18572 17.0949 4.31823 17.3597 4.58323C17.6246 4.84827 17.7571 5.17666 17.7571 5.56843C17.7571 5.96022 17.6246 6.28841 17.3597 6.55302C17.0949 6.81762 16.7666 6.94993 16.375 6.94993H1.6321Z" />
</svg>
