<svg xmlns="http://www.w3.org/2000/svg" width="971" height="850" viewBox="0 0 971 850" version="1.1"><path d="M 455.500 1.222 C 444.821 5.008, 440.034 14.886, 440.012 33.185 C 439.994 47.759, 443.927 63.820, 448.055 66.029 C 452.651 68.489, 456.848 65.944, 464.415 56.110 C 472.252 45.925, 479 30.131, 479 21.971 C 479 13.137, 472.270 3.085, 464.950 0.986 C 460.813 -0.201, 459.414 -0.166, 455.500 1.222 M 457.913 15.282 C 454.001 18.286, 452.427 26.704, 453.545 38.640 C 454.382 47.568, 454.645 47.456, 460.669 35.601 C 465.224 26.639, 466.167 19.167, 463.127 16.127 C 460.692 13.692, 460.107 13.598, 457.913 15.282 M 198.333 26.171 C 191.180 28.075, 188.182 35.809, 189.332 49.392 C 191.464 74.577, 213.890 101.760, 223.041 90.250 C 225.037 87.740, 225.173 86.757, 224.603 79 C 223.263 60.764, 218.591 40.929, 213.817 33.204 C 210.308 27.526, 204.002 24.662, 198.333 26.171 M 202.071 45.056 C 201.997 50.853, 204.934 61.181, 208.168 66.500 C 209.980 69.480, 209.993 69.483, 209.989 67 C 209.984 63.194, 206.392 49.065, 204.141 44 L 202.141 39.500 202.071 45.056 M 503 85.586 C 495.068 88.114, 484.910 89.818, 468 91.456 C 448.263 93.367, 428.705 97.108, 417.032 101.204 C 387.045 111.726, 362.074 131.603, 346.736 157.160 C 343.690 162.235, 337.149 176.417, 335.544 181.429 C 335.081 182.874, 332.868 179.550, 326.713 168.162 C 314.031 144.699, 299.821 126.044, 289.342 119.103 C 278.340 111.816, 267.246 116.751, 254.383 134.654 C 246.195 146.050, 240.887 161.255, 242.359 169.100 C 243.233 173.761, 246.343 176.458, 259 183.531 C 273.668 191.729, 280.909 196.683, 289.469 204.374 C 302.226 215.836, 312.557 231.258, 317.860 246.754 C 319.854 252.583, 320.647 258, 319.506 258 C 319.234 258, 309.221 253.078, 297.256 247.062 C 258.596 227.624, 235.893 222.017, 201 223.290 C 176.018 224.201, 154.036 229.721, 130.066 241.100 C 110.752 250.269, 96.768 260.208, 79.673 276.919 C 61.375 294.806, 49.271 311.482, 37.346 335.232 C 16.501 376.750, 7.765 417.992, 7.742 475 C 7.730 503.379, 8.821 517.322, 13.006 542.269 C 20.685 588.051, 40.676 635.707, 66.377 669.500 C 85.730 694.946, 110.290 718.061, 130.930 730.255 C 136.121 733.322, 137.746 732.657, 115.500 736.572 C 107.250 738.024, 93.750 740.913, 85.500 742.992 C 60.438 749.309, 53.667 752.677, 53.667 758.829 C 53.667 765.114, 58.998 767.788, 77 770.532 C 100.124 774.056, 125.368 776.105, 175 778.486 C 192.325 779.318, 217.975 780.656, 232 781.461 C 282.021 784.333, 305.401 785.240, 312.604 784.587 C 316.624 784.223, 326.120 782.402, 333.706 780.541 C 355.059 775.303, 359.211 774.896, 416 772.473 C 490.350 769.301, 547.549 763.423, 572.040 756.438 C 572.887 756.196, 577.162 758.626, 581.540 761.836 C 585.918 765.047, 590.146 767.888, 590.936 768.149 C 591.725 768.410, 586.316 769.808, 578.915 771.256 C 559.571 775.039, 549.737 778.336, 546.571 782.098 C 539.745 790.210, 547.098 795.495, 570.064 798.982 C 595.124 802.787, 725.890 805.476, 770.511 803.104 C 856.778 798.518, 914.534 791.962, 928.912 785.123 C 930.789 784.230, 933.248 782.250, 934.377 780.723 C 936.302 778.120, 936.330 777.775, 934.834 775.223 C 933.955 773.725, 931.573 771.659, 929.540 770.630 C 924.988 768.328, 907.937 765.309, 894.339 764.398 L 884.178 763.717 889.339 759.678 C 897.657 753.169, 915.261 735.117, 921.208 727 C 938.013 704.062, 952.235 671.167, 958.388 641 C 966.606 600.713, 965.127 556.971, 954.448 524.496 C 941.374 484.734, 917.418 456.009, 883.500 439.424 C 868.772 432.223, 855.130 428.922, 836.730 428.109 L 822.960 427.500 827.886 420.749 C 834.124 412.200, 838.961 402.287, 843.390 388.974 C 849.479 370.674, 850.501 363.846, 850.494 341.500 C 850.488 319.925, 849.526 314.936, 845.103 313.533 C 843.959 313.170, 839.534 313.830, 835.269 315 C 831.005 316.169, 819.862 318.242, 810.508 319.605 C 783.936 323.478, 770.744 328.241, 756.277 339.188 C 744.183 348.338, 734.451 360.526, 727.427 375.316 L 723.777 383.003 719.011 376.752 C 712.002 367.558, 698.912 355.291, 693.607 352.944 C 687.515 350.250, 683.314 351.091, 677.556 356.160 C 671.350 361.622, 663.449 373.806, 661.027 381.649 C 658.601 389.502, 658.569 390.293, 660.503 394.349 C 661.666 396.787, 664.512 398.857, 673.086 403.500 C 692.505 414.016, 704.587 425.405, 710.990 439.230 C 713.680 445.038, 716.157 458, 714.577 458 C 714.202 458, 708.707 455.525, 702.367 452.500 C 681.144 442.374, 667.889 438.705, 647.835 437.403 L 637.500 436.733 637.452 414.116 C 637.391 385.622, 635.018 369.434, 627.548 346.551 C 619.961 323.309, 610.155 305.277, 594.350 285.500 C 567.440 251.829, 529.143 230.349, 485.135 224.244 L 479.771 223.500 484.256 217.500 C 498.121 198.955, 510.373 167.950, 516.069 137 C 517.866 127.235, 518.383 120.742, 518.435 107.328 C 518.495 91.393, 518.349 89.952, 516.401 87.328 C 513.903 83.963, 509.774 83.426, 503 85.586 M 89.466 95.400 C 81.251 98.979, 76.494 107.278, 76.513 118 C 76.524 124.643, 76.924 126.242, 80.013 132 C 86.947 144.925, 103.831 158.812, 115.618 161.284 C 120.048 162.213, 121.168 162.120, 123.439 160.632 C 127.227 158.150, 128 155.226, 128 143.382 C 128 120.643, 120.308 102.821, 107.805 96.590 C 101.964 93.679, 94.524 93.196, 89.466 95.400 M 93.913 109.282 C 89.682 112.530, 88.974 117.872, 91.923 124.305 C 94.353 129.605, 100.656 137, 102.745 137 C 103.618 137, 104.049 137.285, 103.701 137.633 C 103.056 138.277, 106.280 141.126, 109 142.316 C 109.825 142.677, 111.513 143.708, 112.750 144.608 L 115.001 146.244 114.421 138.872 C 113.767 130.563, 111.715 122.323, 108.952 116.906 C 105.249 109.648, 98.134 106.041, 93.913 109.282 M 492.500 111.598 C 491.950 111.779, 481.375 112.622, 469 113.472 C 442.863 115.267, 436.901 116.118, 425.714 119.646 C 408.309 125.135, 393.582 134.452, 380.247 148.409 C 375.133 153.762, 369.375 161.124, 366.383 166.135 C 360.652 175.736, 354.063 191.882, 351.498 202.609 L 349.798 209.718 352.780 214.938 L 355.762 220.159 359.050 215.579 C 360.859 213.061, 362.713 211, 363.170 211 C 363.626 211, 364.001 208.188, 364.002 204.750 C 364.004 196.625, 366.354 191.631, 370.391 191.170 C 373.550 190.809, 374.961 192.217, 374.985 195.753 C 374.998 197.768, 375.386 197.579, 378.653 193.963 C 382.208 190.028, 382.299 189.727, 382.094 182.696 C 381.773 171.704, 387.601 154.820, 393.125 150.736 C 398.095 147.063, 402.427 152.035, 399.647 158.224 C 396.565 165.086, 394.066 173.025, 393.395 178.081 L 392.698 183.332 396.099 180.745 C 406.425 172.891, 430.918 160, 435.514 160 C 437.524 160, 440.179 164.370, 439.401 166.398 C 439.046 167.321, 437.161 168.896, 435.211 169.896 L 431.666 171.715 435.583 172.433 C 441.262 173.473, 447.631 176.895, 448.844 179.558 C 449.689 181.411, 449.499 182.368, 447.875 184.432 C 445.582 187.347, 443.235 187.595, 437.500 185.529 C 432.705 183.801, 423.001 183.594, 417.566 185.104 C 407.907 187.785, 395.597 195.372, 386.500 204.251 L 382.500 208.154 391.500 207.558 C 396.450 207.230, 402.830 206.704, 405.677 206.389 C 410.657 205.839, 410.913 205.931, 412.408 208.821 C 413.836 211.583, 413.819 212.002, 412.199 214.003 C 410.418 216.203, 402.881 218.727, 395.500 219.597 C 389.917 220.255, 388.750 220.781, 389.629 222.243 C 390.175 223.153, 389.928 223.131, 388.736 222.164 C 387.829 221.429, 386.618 221.118, 386.044 221.473 C 385.470 221.828, 385 221.754, 385 221.309 C 385 220.864, 381.963 220.541, 378.250 220.592 L 371.500 220.684 370.227 224.490 C 368.345 230.119, 366.766 247.013, 367.984 248.481 C 368.533 249.143, 368.649 250.036, 368.241 250.466 C 366.827 251.959, 372.546 249.713, 381.253 245.356 C 393.689 239.134, 403.063 235.546, 422.674 229.501 C 432.120 226.590, 442.020 223.022, 444.674 221.574 C 470.208 207.640, 491.118 165.378, 494.504 120.859 C 495.131 112.623, 494.749 110.860, 492.500 111.598 M 439.223 124.557 C 436.127 126.725, 436.277 130.775, 439.500 132 C 443.086 133.363, 447.881 132.111, 449.700 129.336 C 451.135 127.145, 451.117 126.786, 449.477 124.974 C 447.315 122.585, 442.327 122.382, 439.223 124.557 M 165.500 129.532 C 164.950 129.693, 163.257 130.099, 161.737 130.435 C 158.064 131.245, 153.257 136.413, 152.014 140.889 C 150.430 146.592, 150.827 154.557, 153.003 160.749 C 155.664 168.319, 164.026 176.852, 173.384 181.547 C 181.930 185.834, 185.210 185.944, 189.077 182.077 C 191.780 179.374, 191.999 178.603, 191.983 171.827 C 191.940 153.787, 185.394 137.993, 175.500 132.061 C 172.509 130.268, 167.398 128.975, 165.500 129.532 M 416.164 132.689 C 410.344 135.557, 408.328 140.918, 412.162 143.332 C 415.772 145.606, 426 139.770, 426 135.437 C 426 133.596, 423.160 130.996, 421.179 131.023 C 420.255 131.035, 417.999 131.785, 416.164 132.689 M 614.786 138.119 C 601.113 140.164, 591.617 150.381, 582.765 172.576 C 576.643 187.923, 572.816 206.012, 573.432 216.682 C 573.709 221.490, 574.208 222.782, 576.572 224.816 C 578.985 226.892, 580.069 227.152, 584.238 226.658 C 586.908 226.342, 593.400 224.043, 598.663 221.550 C 623.407 209.828, 643.116 187.837, 644.719 170.161 C 646.526 150.232, 632.706 135.439, 614.786 138.119 M 274.913 142.250 C 271.032 146.490, 267 154.640, 267 158.244 C 267 161.961, 269.864 164.526, 279.568 169.500 C 293.309 176.543, 312.687 193.560, 322.278 207.007 L 324.055 209.500 323.452 207 C 322.495 203.034, 313.998 185.297, 308.603 176 C 297.019 156.041, 283.688 139, 279.657 139 C 278.683 139, 276.549 140.463, 274.913 142.250 M 165.571 144.571 C 163.610 146.533, 163.548 151.983, 165.436 156.502 C 166.961 160.152, 171.908 165.583, 176.370 168.507 L 179.067 170.274 178.434 165.887 C 176.989 155.883, 174.603 149.509, 170.709 145.250 C 168.267 142.580, 167.645 142.498, 165.571 144.571 M 274.384 145.442 C 273.413 147.971, 274.455 150.491, 276.598 150.798 C 279.591 151.228, 281.437 148.685, 280.034 146.064 C 278.767 143.696, 275.205 143.303, 274.384 145.442 M 611.500 152.877 C 609.850 153.905, 607.295 156.041, 605.823 157.623 C 600.162 163.707, 591.090 185.541, 588.424 199.500 C 586.624 208.925, 586.202 211.536, 586.441 211.774 C 587.118 212.452, 596.517 207.702, 603.161 203.325 C 613.382 196.591, 624.194 185.382, 628.078 177.494 C 630.890 171.781, 631.191 170.341, 630.813 164.410 C 630.421 158.244, 630.113 157.492, 626.709 154.372 C 623.731 151.643, 622.217 151.001, 618.765 151.004 C 616.342 151.006, 613.205 151.815, 611.500 152.877 M 273.655 159.829 C 271.486 162.225, 271.564 163.697, 273.928 164.961 C 277.664 166.961, 280.961 163.664, 278.961 159.928 C 277.665 157.506, 275.788 157.471, 273.655 159.829 M 286.735 168.598 C 285.496 169.838, 285.896 170.702, 288.500 172.408 C 289.875 173.309, 291 173.636, 291 173.134 C 291 171.549, 287.504 167.830, 286.735 168.598 M 538.542 170.803 C 529.090 172.848, 519.753 196.330, 523.975 207.434 C 525.460 211.340, 530.483 214.001, 534.352 212.931 C 538.492 211.786, 544.686 204.813, 546.170 199.628 C 547.848 193.763, 547.829 177.943, 546.140 174.773 C 544.583 171.852, 541.395 170.186, 538.542 170.803 M 37.081 189.529 C 25.773 192.694, 18.335 199.889, 15.485 210.419 C 13.900 216.274, 13.804 218.040, 14.813 222.871 C 16.810 232.434, 25.046 241.450, 34.292 244.194 C 45.147 247.416, 63.606 244.605, 81.088 237.068 C 98.463 229.577, 109.005 221.873, 108.996 216.673 C 108.982 208.514, 91.358 196.134, 72.353 190.932 C 62.006 188.100, 44.652 187.410, 37.081 189.529 M 39.716 203.718 C 32.709 206.054, 29 210.681, 29 217.084 C 29 221.405, 29.450 222.552, 32.250 225.369 C 37.167 230.315, 40.493 231.260, 50.689 230.605 C 62.363 229.855, 84 222.912, 84 219.915 C 84 219.347, 84.419 219.141, 84.931 219.457 C 85.443 219.774, 86.149 219.568, 86.500 219 C 86.851 218.432, 87.535 218.212, 88.019 218.512 C 88.503 218.811, 89.427 218.031, 90.072 216.778 C 91.014 214.949, 90.996 214.735, 89.982 215.690 C 88.991 216.624, 88.267 216.215, 86.610 213.785 C 85.021 211.455, 82.377 209.876, 75.899 207.391 C 61.823 201.992, 48.847 200.674, 39.716 203.718 M 836.030 211.113 C 831.027 213.109, 826.709 217.392, 824.153 222.893 C 819.511 232.881, 819.944 256.025, 825.061 271.500 C 827.702 279.486, 829.725 281.919, 834.351 282.670 C 837.971 283.257, 838.412 283.015, 843.485 277.650 C 849.253 271.550, 856.533 257.933, 859.603 247.500 C 863.065 235.737, 861.230 222.422, 855.212 215.645 C 851.125 211.043, 841.753 208.828, 836.030 211.113 M 757.445 221.959 C 753.649 223.497, 749.246 229.626, 748.100 234.970 C 745.970 244.900, 747.699 259.731, 752.213 270.257 C 754.293 275.108, 759.928 281, 762.488 281 C 765.277 281, 768.574 278.835, 770.855 275.507 C 773.824 271.174, 777.664 259.095, 778.543 251.321 C 779.416 243.610, 777.501 232.049, 774.643 227.768 C 770.936 222.218, 763.231 219.616, 757.445 221.959 M 837.783 225.750 C 836.944 226.713, 835.749 228.483, 835.128 229.684 C 833.675 232.498, 833.672 249.455, 835.124 257.792 L 836.248 264.247 838.942 259.873 C 843.281 252.827, 847.196 241.962, 847.724 235.500 C 848.140 230.395, 847.888 229.090, 846.034 226.750 C 843.538 223.600, 840.030 223.175, 837.783 225.750 M 761.161 237.547 C 760.522 238.948, 760 242.248, 760 244.880 C 760 250.472, 761.954 261, 762.992 261 C 763.740 261, 766.004 248.794, 765.994 244.807 C 765.987 241.554, 764.061 235, 763.114 235 C 762.678 235, 761.799 236.146, 761.161 237.547 M 183 246.638 C 172.032 248.647, 153.798 254.658, 143 259.824 C 134.669 263.811, 115.452 275.882, 111.499 279.612 C 110.399 280.650, 107.822 282.752, 105.774 284.282 C 99.642 288.863, 86.562 302.843, 78.438 313.500 C 52.708 347.255, 37.981 387.083, 31.848 439.500 C 29.942 455.790, 30.262 500.329, 32.397 515.867 C 42.981 592.892, 72.028 651.773, 118.877 691.171 C 143.446 711.832, 173.753 726.763, 203.736 732.977 C 237.190 739.910, 278.141 737.111, 305.511 726.021 C 321.153 719.683, 327.421 717.896, 336.060 717.310 C 347.027 716.565, 355.023 717.990, 367.787 722.965 C 381.215 728.198, 387.349 729.693, 400 730.815 C 440.307 734.390, 481.575 720.761, 515.691 692.609 C 521.559 687.767, 523.239 684.884, 521 683.500 C 520.450 683.160, 520 681.953, 520 680.819 C 520 679.010, 519.784 678.920, 518.250 680.095 C 517.288 680.831, 516.822 681.052, 517.215 680.586 C 517.608 680.119, 517.422 678.784, 516.801 677.619 C 515.779 675.700, 515.832 675.631, 517.359 676.891 C 518.831 678.106, 518.966 678.074, 518.416 676.641 C 518.069 675.739, 517.398 675, 516.924 675 C 516.451 675, 516.350 674.251, 516.701 673.336 C 517.128 672.225, 516.955 671.910, 516.181 672.388 C 515.417 672.860, 515.232 672.560, 515.637 671.504 C 515.999 670.559, 515.483 669.279, 514.375 668.378 C 513.344 667.538, 513.139 667.184, 513.920 667.590 C 514.977 668.139, 515.167 667.879, 514.666 666.571 C 514.295 665.605, 513.720 663.731, 513.387 662.407 C 513.055 661.083, 512.373 660, 511.873 660 C 511.372 660, 511.261 658.808, 511.627 657.351 C 512.139 655.310, 511.990 654.888, 510.976 655.515 C 510.061 656.081, 509.831 655.883, 510.221 654.866 C 510.530 654.062, 509.902 649.376, 508.827 644.452 C 506.178 632.325, 506.246 632.870, 504.870 612.500 C 501.136 557.211, 516.911 508.102, 548.500 476.672 C 564.585 460.667, 581.207 450.545, 603.108 443.416 C 609.374 441.376, 615.101 439.236, 615.835 438.660 C 617.169 437.615, 617.090 421.597, 615.648 400.904 C 614.677 386.965, 608.020 359.071, 602.136 344.292 C 582.274 294.402, 540.654 258.445, 489.947 247.367 C 483.478 245.953, 477.403 245.530, 464 245.558 C 448.296 245.591, 445.411 245.874, 435.889 248.314 C 430.053 249.810, 415.558 254.848, 403.678 259.510 C 371.165 272.269, 355.544 276.232, 339.107 275.894 C 323.012 275.563, 311.925 272.686, 273.787 258.942 C 242.828 247.785, 233.170 245.730, 210 245.370 C 196.493 245.159, 189.206 245.502, 183 246.638 M 698.574 265.514 C 692.460 272.112, 694.469 287.833, 703.035 300.416 C 708.140 307.915, 711.025 310.136, 716.458 310.748 C 720.157 311.165, 720.946 310.884, 722.839 308.477 C 727.542 302.498, 724.107 284.321, 716.023 272.411 C 709.632 262.994, 703.248 260.471, 698.574 265.514 M 484.278 270.250 C 481.421 273.941, 483.006 281.024, 489.054 291.595 C 493.268 298.960, 497.759 302.233, 504.409 302.784 C 513.702 303.555, 519.018 298.818, 518.984 289.800 C 518.962 284.219, 515.337 277.627, 512.029 277.155 C 508.382 276.634, 507.048 279.138, 508.357 284.043 C 509.444 288.114, 508.690 290.937, 506.304 291.732 C 504.097 292.468, 498.842 286.516, 495.423 279.407 C 493.465 275.337, 491.187 271.330, 490.360 270.503 C 488.532 268.675, 485.591 268.553, 484.278 270.250 M 162.678 278.480 C 156.612 284.546, 153.500 291.108, 153.500 297.832 C 153.500 302.591, 153.851 303.478, 156.766 306.082 C 162.371 311.091, 171.699 309.154, 178.209 301.631 C 184.725 294.102, 178.843 288.419, 171.347 295 C 162.654 302.633, 161.827 295.286, 170.179 284.619 C 174.171 279.520, 174.813 277.213, 172.800 275.200 C 170.494 272.894, 167.196 273.962, 162.678 278.480 M 299.519 280.390 C 296.849 283.060, 297.065 286.429, 300.009 288.005 C 303.712 289.987, 321.935 294.131, 331.614 295.192 C 344.008 296.552, 354.846 295.360, 366.821 291.322 C 376.128 288.184, 379 286.089, 379 282.440 C 379 277.925, 375.327 277.345, 365.805 280.356 C 348.357 285.875, 333.470 285.923, 312.704 280.528 C 307.353 279.138, 302.735 278, 302.442 278 C 302.149 278, 300.834 279.075, 299.519 280.390 M 98.883 307.683 C 95.076 311.358, 90.119 316.753, 87.867 319.672 C 85.616 322.590, 83.305 324.689, 82.732 324.335 C 82.160 323.981, 81.971 324.144, 82.313 324.698 C 82.655 325.251, 81.293 328.996, 79.286 333.019 C 74.995 341.622, 74.011 348.698, 76.334 354.258 C 80.709 364.728, 96.998 364.465, 102.977 353.827 C 106.760 347.096, 103.369 341.681, 98.049 345.960 C 92.018 350.812, 90.842 351.390, 89.149 350.329 C 88.180 349.722, 87.384 347.690, 87.218 345.398 C 86.849 340.292, 91.748 331.942, 102.341 319.620 C 113.178 307.015, 113.524 306.445, 112.163 303.459 C 110.170 299.084, 106.622 300.212, 98.883 307.683 M 900 307.247 C 898.075 307.876, 893.775 311.116, 890.444 314.446 C 882.132 322.756, 879.500 329.705, 879.500 343.337 C 879.500 352.875, 879.585 353.246, 882.306 355.587 C 885.692 358.499, 891.579 358.779, 900.540 356.453 C 924.399 350.259, 935.912 333.600, 927.628 317.253 C 923.855 309.806, 918.744 306.618, 910.111 306.326 C 906.475 306.203, 901.925 306.617, 900 307.247 M 559.582 316.646 C 559.235 317.552, 559.930 320.139, 561.127 322.396 C 562.324 324.653, 563.907 327.625, 564.646 329 C 566.507 332.468, 566.382 337.639, 564.418 338.393 C 562.067 339.295, 562.159 339.347, 557.448 334.500 C 552.606 329.518, 551.884 329.258, 549.499 331.644 C 545.947 335.195, 551.870 345.281, 559.350 348.420 C 563.291 350.073, 564.478 350.173, 567.912 349.144 C 578.422 345.996, 578.999 333.383, 569.265 319.574 C 566.694 315.926, 565.451 315, 563.128 315 C 561.345 315, 559.969 315.639, 559.582 316.646 M 907.018 319.818 C 900.891 320.760, 891.463 332.782, 895.064 335.061 C 896.361 335.881, 895.686 336.424, 893.750 336.118 C 893.337 336.053, 892.966 337.238, 892.923 338.750 C 892.881 340.262, 892.705 342.229, 892.531 343.120 C 892.260 344.509, 892.778 344.613, 896.185 343.847 C 900.176 342.950, 908.167 339.147, 911.046 336.774 C 915.837 332.826, 917.384 326.421, 914.531 322.347 C 912.883 319.995, 910.684 319.254, 907.018 319.818 M 831 335.294 C 830.725 335.554, 822.400 336.760, 812.500 337.974 C 787.780 341.004, 779.287 344.096, 765.352 355.138 C 753.661 364.402, 741 384.542, 741 393.875 C 741 399.376, 742.665 399.954, 743.534 394.754 C 744.670 387.956, 748.793 377.892, 752.550 372.750 C 754.458 370.137, 756.415 368, 756.899 368 C 757.383 368, 758.838 368.858, 760.134 369.907 L 762.489 371.814 760.129 376.657 C 756.299 384.518, 753.951 392.982, 753.307 401.250 C 752.975 405.512, 752.984 409, 753.326 409 C 753.668 409, 754.613 407.762, 755.425 406.250 C 756.236 404.738, 758.936 401.250, 761.423 398.500 C 764.641 394.942, 765.954 392.633, 765.973 390.493 C 766.010 386.326, 767.634 381.062, 769.527 378.971 C 771.428 376.870, 774.695 377.465, 775.520 380.062 C 776.056 381.753, 776.541 381.635, 781.303 378.649 C 789.034 373.802, 794.653 371.919, 803 371.377 C 811.110 370.851, 815.207 372.119, 815.829 375.350 C 816.511 378.890, 813.374 380.712, 805.712 381.224 C 800.574 381.568, 796.598 382.576, 791.886 384.729 C 783.618 388.507, 782.491 390, 787.907 390 C 792.737 390, 798.760 392.669, 799.551 395.160 C 799.865 396.150, 799.676 397.756, 799.130 398.730 C 798.296 400.221, 796.668 400.507, 788.820 400.543 C 780.725 400.580, 778.825 400.936, 774.366 403.251 C 768.811 406.134, 763.089 412.956, 761.129 419.032 C 759.130 425.224, 758.245 438.505, 759.737 439.899 C 760.456 440.571, 760.817 441.487, 760.540 441.935 C 760.263 442.383, 762.955 441.200, 766.522 439.306 C 770.088 437.412, 777.249 434.136, 782.435 432.027 C 787.620 429.917, 793.806 426.837, 796.182 425.183 C 801.576 421.426, 808.736 413.965, 812.902 407.758 C 821.344 395.181, 829.952 370.296, 831.849 352.987 C 832.783 344.456, 832.285 334.078, 831 335.294 M 528.124 344.194 C 527.621 345.554, 527.871 348.119, 528.784 350.944 C 531.710 360.006, 536.925 380.561, 536.962 383.179 C 537.048 389.219, 531.116 390.818, 526.500 386 C 521.320 380.593, 515.309 383.502, 518.039 390.095 C 520.771 396.690, 528.994 401.039, 535.875 399.527 C 543.017 397.959, 547 392.098, 547 383.159 C 547 373.356, 540.754 352.022, 535.754 344.750 C 533.387 341.306, 529.302 341.009, 528.124 344.194 M 936.347 373.095 C 924.668 375.046, 909.394 383.314, 905.739 389.663 C 903.327 393.851, 904.171 396.756, 909.329 402.028 C 923.710 416.729, 944.108 421.964, 957.854 414.483 C 972.503 406.510, 974.706 388.346, 962.271 378.061 C 955.768 372.683, 947.870 371.170, 936.347 373.095 M 686.243 374.250 C 684.299 376.677, 681 383.944, 681 385.801 C 681 387.669, 681.818 388.208, 696.745 396.169 C 704.092 400.088, 713.125 407.835, 720.047 416.152 C 722.771 419.426, 725 421.705, 725 421.217 C 725 419.302, 714.725 400.472, 710.243 394.172 C 707.634 390.506, 702.405 384.243, 698.623 380.253 C 691.749 373.003, 688.503 371.429, 686.243 374.250 M 68.533 387.143 C 64.785 391.597, 55.392 411.347, 53.550 418.644 C 51.531 426.647, 51.622 430.570, 53.943 435.684 C 57.774 444.121, 69.369 445.639, 76.847 438.683 C 82.541 433.387, 85.864 421.007, 82.496 417.638 C 79.764 414.907, 77.794 416.077, 75.495 421.796 C 72.779 428.551, 69.021 432.459, 66.124 431.539 C 61.232 429.987, 62.630 421.652, 71.070 402.053 C 76.467 389.522, 76.982 386.596, 74.066 385.035 C 71.434 383.627, 71.519 383.595, 68.533 387.143 M 933.909 387.445 C 929.078 388.778, 920.441 394, 923.068 394 C 923.911 394, 925.140 393.460, 925.800 392.800 C 926.603 391.997, 927 391.962, 927 392.693 C 927 393.294, 926.325 394.045, 925.500 394.362 C 924.675 394.678, 924 395.387, 924 395.937 C 924 396.487, 924.736 396.655, 925.636 396.309 C 926.763 395.877, 927.125 396.121, 926.798 397.091 C 926.523 397.909, 927.602 399.281, 929.374 400.364 C 931.367 401.582, 932.553 401.842, 932.795 401.114 C 933 400.501, 933.627 400, 934.190 400 C 934.753 400, 934.955 400.675, 934.638 401.500 C 933.938 403.324, 935.113 403.452, 936.947 401.750 C 938.043 400.733, 938.188 400.805, 937.722 402.137 C 937.284 403.389, 937.622 403.650, 939.159 403.248 C 940.737 402.836, 940.882 402.517, 939.835 401.767 C 938.853 401.064, 938.985 400.969, 940.332 401.406 C 941.339 401.733, 942.438 402, 942.773 402 C 943.108 402, 942.509 402.661, 941.441 403.468 C 939.602 404.859, 939.668 404.938, 942.685 404.968 C 951.711 405.058, 958.776 397.335, 955.486 390.973 C 954.657 389.371, 953.114 387.596, 952.055 387.030 C 949.479 385.651, 939.593 385.877, 933.909 387.445 M 568.945 397.566 C 567.873 398.858, 567.939 400.358, 569.324 406.129 C 572.014 417.335, 568.492 420.525, 561.737 413 C 557.649 408.446, 556.985 408.254, 554.565 410.928 C 552.491 413.219, 553.039 415.784, 556.784 421.320 C 559.863 425.871, 563.598 428, 568.500 428 C 579.317 428, 583.965 417.825, 579.053 404.899 C 575.912 396.631, 572.047 393.828, 568.945 397.566 M 429 418.845 C 414.293 422.759, 404.318 433.223, 398.347 451 C 395.800 458.585, 395.787 475.385, 398.324 482.913 C 402.307 494.737, 412.426 506.497, 423.073 511.679 C 432.125 516.084, 439.037 517.362, 450.754 516.798 C 459.843 516.360, 461.415 515.970, 469.103 512.249 C 486.027 504.057, 497 487.621, 497 470.460 C 497 434.841, 463.745 409.599, 429 418.845 M 158 419.385 C 147.359 422.524, 135.732 429.729, 130.735 436.281 C 123.001 446.420, 118 459.643, 118 469.950 C 118 481.607, 123.679 494.828, 132.431 503.544 C 141.927 513.002, 152.590 517.270, 167 517.381 C 186.795 517.535, 203.559 506.870, 212.401 488.500 C 224.040 464.318, 212.393 430.123, 189.439 421.083 C 182.102 418.194, 165.142 417.278, 158 419.385 M 175.840 432.022 C 162.737 438.944, 165.328 457.049, 179.987 460.996 C 190.639 463.865, 201.490 454.756, 199.576 444.553 C 198.623 439.476, 193.791 433.534, 189.082 431.649 C 183.777 429.527, 180.382 429.622, 175.840 432.022 M 423.500 431.662 C 416.447 435.380, 413 440.722, 413 447.933 C 413 450.963, 413.738 452.771, 416.050 455.404 C 423.460 463.844, 437.866 462.064, 442.960 452.079 C 446.891 444.372, 444.592 434.909, 437.953 431.476 C 434.258 429.565, 427.308 429.654, 423.500 431.662 M 812.500 450.986 C 802.211 453.324, 792.739 457.130, 774.339 466.321 C 756.598 475.182, 748.264 477.533, 735 477.417 C 722.524 477.307, 712.540 475.113, 689.510 467.420 C 679.054 463.927, 667.125 460.318, 663 459.399 C 652.935 457.159, 633.130 457.186, 622.555 459.456 C 594.834 465.406, 566.771 484.777, 550.780 509 C 534.708 533.346, 527 561.869, 527 597 C 527 627.883, 533.152 654.987, 546.421 682.558 C 562.585 716.148, 584.714 739.528, 614.317 754.295 C 633.974 764.101, 646.606 767, 669.673 767 C 686.753 767, 696.142 765.346, 707.500 760.337 C 724.796 752.710, 728.527 751.745, 738.961 752.202 C 747.735 752.587, 749.467 753.030, 760.559 757.733 C 777.856 765.067, 782.933 766.175, 798.965 766.117 C 834.718 765.985, 863.226 754.049, 888.556 728.605 C 913.341 703.709, 930.075 669.253, 938.172 626.449 C 940.160 615.942, 940.433 611.302, 940.441 588 C 940.450 562.944, 940.302 560.811, 937.739 548.849 C 934.734 534.823, 931.668 525.628, 925.847 513.186 C 921.191 503.233, 913.172 490.776, 911.920 491.550 C 911.426 491.854, 911.254 491.502, 911.536 490.767 C 912.151 489.164, 898.060 474.935, 889.500 468.516 C 877.973 459.871, 862.760 453.069, 849.113 450.457 C 838.836 448.491, 822.441 448.728, 812.500 450.986 M 198.200 466.200 C 195.395 469.005, 197.508 474, 201.500 474 C 204.180 474, 206 472.180, 206 469.500 C 206 466.820, 204.180 465, 201.500 465 C 200.345 465, 198.860 465.540, 198.200 466.200 M 475.229 470.749 C 473.380 471.377, 471 476.447, 471 479.759 C 471 483.535, 473.216 486.515, 475.401 485.677 C 477.445 484.892, 480 479.114, 480 475.273 C 480 472.377, 477.477 469.984, 475.229 470.749 M 871.407 483.513 C 870.623 486.639, 871.706 487.976, 879.574 493.590 C 886.443 498.492, 888.817 498.964, 891.527 495.970 C 894.472 492.716, 892.530 489.381, 885.069 484.880 C 877.228 480.150, 872.373 479.664, 871.407 483.513 M 87.988 485.250 C 83.716 492.255, 79.031 510.446, 79.039 520 C 79.045 526.413, 81.795 533.285, 85.054 535.029 C 91.757 538.616, 98.380 538.076, 103.821 533.497 C 109.344 528.850, 113.928 513.845, 110.655 511.129 C 107.909 508.849, 105.607 510.276, 103.499 515.564 C 100.281 523.636, 98.359 526, 95.012 526 C 90.779 526, 89.622 523.211, 90.435 514.966 C 90.800 511.260, 92.201 503.347, 93.549 497.382 C 96.452 484.535, 96.389 485.532, 94.429 483.571 C 92.040 481.183, 90.172 481.669, 87.988 485.250 M 753 484.159 C 745.711 486.326, 731.708 486.792, 723.500 485.142 C 717.513 483.938, 714 485.549, 714 489.497 C 714 496.677, 740.058 499.408, 757.254 494.030 C 765.202 491.544, 768.015 488.522, 766.163 484.459 C 764.801 481.468, 762.248 481.410, 753 484.159 M 854.382 483.448 C 853.700 485.225, 853.844 485.786, 857.434 495.295 C 860.209 502.643, 860.703 507.897, 858.800 509.800 C 856.362 512.238, 853.983 511.012, 850.457 505.500 C 846.737 499.685, 843.896 498.457, 842.068 501.872 C 840.125 505.503, 845.091 516.441, 849.999 519.340 C 851.544 520.253, 854.922 521, 857.504 521 C 861.489 521, 862.703 520.497, 865.521 517.679 C 867.443 515.757, 869.124 512.858, 869.510 510.799 C 870.388 506.117, 867.866 496.428, 863.738 488.622 C 861.115 483.662, 859.977 482.440, 857.744 482.183 C 855.938 481.975, 854.780 482.411, 854.382 483.448 M 295.407 490.968 C 276.676 494.967, 260.945 516.324, 267.456 528.915 C 270.590 534.976, 277.875 536.147, 289 532.378 C 300.342 528.536, 305.593 528.644, 317.392 532.961 C 335.327 539.524, 344.389 530.806, 337.836 513.291 C 334.922 505.503, 326.910 497.130, 318.956 493.561 C 312.358 490.600, 302.313 489.494, 295.407 490.968 M 458.021 493.116 C 454.242 494.624, 452 497.058, 452 499.655 C 452 501.748, 452.457 502, 456.250 501.996 C 461.210 501.992, 467 498.878, 467 496.215 C 467 492.344, 463.223 491.040, 458.021 493.116 M 174.898 495.284 C 167.998 499.923, 171.143 504.438, 179.616 502.058 C 185.397 500.435, 187.367 498.599, 186.602 495.551 C 186.055 493.371, 185.404 493, 182.129 493 C 179.795 493, 176.967 493.893, 174.898 495.284 M 901.095 494.823 C 900.386 496.148, 900.786 498.481, 902.560 503.368 C 905.536 511.569, 905.642 514.586, 903 516 C 900.763 517.197, 900.379 519.979, 902.200 521.800 C 902.860 522.460, 905.117 523, 907.215 523 C 910.445 523, 911.333 522.502, 913.011 519.750 C 916.544 513.956, 914.881 504.259, 908.918 495.885 C 906.551 492.561, 902.593 492.023, 901.095 494.823 M 580.136 499.554 C 573.995 507.361, 571.249 529.964, 575.420 538.368 C 577.772 543.108, 582.257 545.991, 587.282 545.996 C 595.499 546.004, 601.106 541.377, 606.063 530.495 C 609.458 523.041, 610.110 518.104, 607.886 516.700 C 605.171 514.987, 603.335 516.569, 599.443 523.977 C 593.791 534.733, 587.985 538.079, 584.919 532.347 C 583.089 528.926, 583.330 518.163, 585.418 510.012 C 587.495 501.907, 587.418 499.294, 585.066 498.035 C 582.452 496.636, 582.425 496.645, 580.136 499.554 M 294.640 503.632 C 288.730 505.447, 280.849 512.897, 279.040 518.380 C 278.358 520.445, 278.074 522.407, 278.407 522.741 C 278.741 523.074, 280.948 522.382, 283.311 521.201 C 285.675 520.021, 289.947 518.515, 292.804 517.856 L 298 516.657 298 511.528 C 298 505.731, 299.183 504, 303.143 504 C 306.751 504, 309 507.307, 309 512.614 C 309 516.330, 309.299 516.858, 311.750 517.467 C 313.262 517.843, 317.344 519.285, 320.820 520.672 C 324.296 522.059, 327.365 522.968, 327.640 522.694 C 328.864 521.469, 323.384 511.628, 319.742 508.511 C 312.551 502.356, 304.126 500.719, 294.640 503.632 M 553.571 517.319 C 548.073 524.526, 546.319 535.168, 550.068 538.562 C 551.941 540.256, 552.383 540.295, 554.741 538.967 C 556.778 537.820, 557.627 536.192, 558.635 531.500 C 561.361 518.814, 561.464 516.812, 559.465 515.351 C 556.858 513.444, 556.412 513.593, 553.571 517.319 M 494 523.500 C 494 530.876, 493.396 531.288, 487.346 528.045 C 480.135 524.181, 477.255 529.947, 483.414 535.917 C 487.365 539.746, 494.421 541.183, 498.515 538.992 C 506.313 534.819, 505.067 517, 496.977 517 L 494 517 494 523.500 M 806.557 527.223 C 805.701 528.445, 805 530.488, 805 531.762 C 805 534.506, 808.196 541.088, 810.427 542.939 C 812.828 544.932, 812.347 545.713, 808.250 546.473 C 797.714 548.428, 784.660 559.550, 779.167 571.254 C 768.747 593.452, 773.415 617.500, 791.257 633.541 C 800.493 641.845, 811.848 645.968, 825.500 645.973 C 851.361 645.984, 872.518 626.832, 874.662 601.471 C 876.825 575.887, 860.368 553.017, 835.265 546.721 C 829.157 545.189, 820.374 538.193, 816.339 531.647 C 812.022 524.642, 809.244 523.386, 806.557 527.223 M 640.820 529.750 C 640 530.712, 638.353 533.133, 637.158 535.129 C 633.780 540.774, 627.120 546.316, 618.033 551.044 C 597.582 561.683, 587.055 578.491, 587.015 600.568 C 586.968 625.932, 605.069 647.194, 630.008 651.071 C 647.908 653.854, 664.821 648.561, 676.312 636.578 C 682.738 629.878, 688.821 617.308, 690.230 607.819 C 693.262 587.388, 682.485 565.913, 664.368 556.287 C 658.311 553.068, 648.178 550, 643.606 550 C 640.650 550, 640.264 548.856, 642.573 546.939 C 644.652 545.214, 647.557 539.311, 648.335 535.229 C 649.378 529.759, 644.093 525.906, 640.820 529.750 M 125.588 547.250 C 124.785 548.487, 122.877 553.100, 121.347 557.500 C 119.026 564.175, 118.560 567.185, 118.532 575.674 C 118.504 584.460, 118.785 586.233, 120.592 588.674 C 126.143 596.174, 134.717 598.084, 143.093 593.686 C 150.326 589.888, 155.032 578.505, 154.985 564.918 C 154.968 560.079, 154.350 558.667, 151.844 557.744 C 149.347 556.825, 147.356 559.752, 145.545 567 C 142.358 579.751, 139.694 584, 134.882 584 C 128.526 584, 127.518 576.518, 131.449 558.511 C 133.150 550.720, 133.543 547.155, 132.802 546.261 C 131.126 544.242, 127.188 544.782, 125.588 547.250 M 453.571 547.571 C 451.512 549.631, 451.589 552.782, 453.982 564.413 C 457.438 581.209, 461.375 587.534, 469.979 590.112 C 472.978 591.010, 474.855 590.996, 478.184 590.049 C 480.558 589.373, 483.254 588.765, 484.177 588.696 C 485.099 588.627, 485.632 588.214, 485.362 587.776 C 485.091 587.339, 485.799 585.799, 486.935 584.355 C 490.683 579.591, 488.716 565.524, 483.945 562.971 C 478.668 560.146, 476.149 563.125, 478 570 C 478.607 572.254, 478.840 574.928, 478.519 575.941 C 477.661 578.643, 474.387 579.093, 471.590 576.893 C 469.042 574.888, 467.812 572.013, 463.508 558 C 461.172 550.395, 458.408 546, 455.961 546 C 455.511 546, 454.436 546.707, 453.571 547.571 M 910.750 547.080 C 908.141 548.600, 908.583 550.277, 913 555.623 C 917.428 560.981, 918.254 565.765, 915.443 569.777 C 913.008 573.254, 910.525 572.483, 906.500 567 C 902.443 561.473, 898.685 560.267, 897.468 564.100 C 896.521 567.085, 901.902 576.963, 905.993 579.750 C 915.154 585.991, 926.814 578.350, 927.238 565.826 C 927.319 563.447, 926.893 560.600, 926.291 559.500 C 925.690 558.400, 925.249 557.275, 925.313 557 C 925.574 555.877, 920.527 550, 919.302 550 C 918.575 550, 917.210 549.100, 916.268 548 C 914.355 545.766, 913.306 545.591, 910.750 547.080 M 805 558.215 C 799.537 560.901, 791.985 568.415, 789.482 573.652 C 788.471 575.768, 787.441 579.885, 787.194 582.799 C 786.807 587.353, 787.079 588.457, 789.122 590.644 C 792.787 594.567, 796.595 596.107, 802.854 596.196 C 825.612 596.519, 839.334 567.117, 820.647 558.071 C 815.149 555.410, 810.619 555.451, 805 558.215 M 551.214 560.556 C 543.709 569.661, 544.436 584.723, 552.485 586.868 C 556.694 587.990, 561.018 586.569, 564.250 583.003 C 567.202 579.745, 567.723 577.123, 565.800 575.200 C 564.344 573.744, 560.354 573.618, 559.500 575 C 558.566 576.512, 556.290 576.198, 555.625 574.466 C 555.301 573.622, 555.985 570.043, 557.143 566.513 C 558.302 562.983, 558.983 559.398, 558.657 558.547 C 557.649 555.921, 554.286 556.829, 551.214 560.556 M 622.698 560.444 C 613.293 563.799, 604.843 573.011, 601.540 583.511 C 599.980 588.473, 599.937 589.548, 601.173 592.795 C 603.618 599.220, 613.209 603.806, 621.363 602.449 C 643.569 598.753, 654.490 570.050, 637.038 561.250 C 631.977 558.698, 628.190 558.485, 622.698 560.444 M 838.457 601.863 C 832.749 605.344, 828.032 612.944, 828.006 618.703 C 827.993 621.332, 830.535 625.225, 833.145 626.575 C 839.096 629.652, 845.200 627.371, 851.300 619.789 C 853.457 617.109, 854.422 614.663, 854.776 610.983 C 855.215 606.416, 854.972 605.581, 852.446 602.943 C 849.050 599.399, 843.234 598.950, 838.457 601.863 M 797.699 604.019 C 795.900 606.588, 796.668 610.752, 799.189 612.101 C 803.637 614.482, 808.449 606.849, 804.800 603.200 C 802.952 601.352, 799.270 601.776, 797.699 604.019 M 650.988 605.896 C 639.712 613.469, 638.873 627.855, 649.409 632.956 C 654.474 635.408, 655.936 635.472, 660.768 633.452 C 668.147 630.369, 673 623.316, 673 615.675 C 673 604.808, 660.727 599.356, 650.988 605.896 M 718.608 607.474 C 690.878 615.362, 671.582 645.770, 680.010 668.298 C 682.401 674.689, 685.044 677.399, 690.902 679.466 C 694.843 680.856, 699.120 680.809, 736.874 678.962 C 772.457 677.221, 779.008 676.663, 782 675.115 C 787.135 672.459, 789.269 668.072, 789.785 659.111 C 790.969 638.531, 774.961 616.185, 753.484 608.441 C 746.876 606.058, 725.654 605.469, 718.608 607.474 M 610.997 609.503 C 608.119 612.971, 610.294 619, 614.422 619 C 618.591 619, 620.374 614.436, 617.965 609.934 C 616.733 607.633, 612.754 607.386, 610.997 609.503 M 719.500 619.843 C 707.599 624.309, 699.107 631.913, 693.716 642.928 C 690.948 648.584, 690.500 650.565, 690.500 657.145 C 690.500 666.211, 692.333 669.302, 697.410 668.799 C 700.253 668.517, 700.493 668.145, 701.700 662.155 C 704.247 649.511, 712.539 638.828, 722.813 634.951 C 730.212 632.158, 741.368 632.572, 747.795 635.878 C 756.798 640.508, 763.688 648.671, 767.498 659.219 C 769.908 665.893, 771.844 667.224, 775.948 665.028 C 777.665 664.109, 778 662.956, 778 657.975 C 778 644.563, 768.092 630.009, 753.798 622.427 C 746.770 618.699, 746.093 618.545, 735.500 618.261 C 726.664 618.024, 723.516 618.336, 719.500 619.843 M 887.750 619.080 C 886.399 619.867, 886 621.433, 886 625.943 C 886 633.177, 884.412 634.179, 879.617 629.969 C 875.969 626.765, 874.084 626.316, 872.200 628.200 C 869.916 630.484, 870.905 634.141, 874.882 638.118 C 878.150 641.385, 879.425 642, 882.932 642 C 888.860 642, 892.462 639.803, 894.376 635.018 C 895.269 632.786, 895.997 630.406, 895.994 629.730 C 895.982 627.046, 893.839 620.982, 892.391 619.534 C 890.608 617.751, 890.114 617.703, 887.750 619.080 M 571.578 619.750 C 569.658 621.658, 567.797 628.137, 567.282 634.709 L 566.718 641.918 570.259 645.459 C 573.309 648.509, 574.451 649, 578.500 649 C 582.529 649, 583.695 648.505, 586.666 645.534 C 589.420 642.780, 590.067 641.415, 589.816 638.885 C 589.336 634.053, 586.700 632.952, 583.606 636.292 C 578.244 642.077, 574.817 637.789, 576.868 627.860 C 577.824 623.233, 577.839 621.511, 576.933 620.420 C 575.664 618.891, 572.804 618.533, 571.578 619.750 M 729.994 644.912 C 722.269 647.330, 718.325 650.934, 714.576 659 C 710.520 667.727, 710.760 668.221, 718.750 667.575 C 722.462 667.275, 732.587 666.750, 741.250 666.409 C 749.913 666.068, 757 665.372, 757 664.863 C 757 663.003, 753.875 656.525, 751.435 653.326 C 746.661 647.067, 736.211 642.966, 729.994 644.912 M 848.211 654.250 C 847.642 654.938, 847.025 656.846, 846.838 658.491 C 846.394 662.420, 843.806 662.856, 839.990 659.645 C 835.896 656.200, 833.114 655.457, 831.259 657.313 C 829.157 659.414, 830.305 663.271, 834.343 667.678 C 837.095 670.680, 838.459 671.338, 842.796 671.754 C 849.065 672.357, 852.473 670.505, 854.640 665.319 C 857.529 658.404, 852.268 649.345, 848.211 654.250 M 607.989 662.250 C 606.772 664.246, 606.006 667.280, 606.004 670.115 C 605.991 685.450, 626.852 685.405, 630.983 670.062 C 632.229 665.437, 631.599 663.398, 628.681 662.603 C 626.483 662.005, 625.918 662.478, 621.703 668.453 C 620.574 670.054, 618.953 671, 617.340 671 C 614.859 671, 614.796 670.847, 615.457 666.438 C 616.601 658.810, 611.746 656.088, 607.989 662.250 M 50.747 684.984 C 44.725 689.721, 47.166 697.095, 59.325 710.890 C 69.886 722.873, 75.696 726.002, 80.777 722.443 C 85.483 719.148, 82.490 709.448, 72.410 695.321 C 67.399 688.299, 60.315 683, 55.939 683 C 54.471 683, 52.135 683.893, 50.747 684.984 M 23.189 706.039 C 18.549 710.362, 21.268 716.666, 31.197 724.604 C 43.458 734.407, 48.622 736.854, 53.295 735.078 C 60.112 732.486, 58.804 724.922, 50.055 716.344 C 38.081 704.603, 28.624 700.975, 23.189 706.039 M 526.662 715.407 C 522.922 718.387, 519.780 721.171, 519.681 721.593 C 519.581 722.015, 521.975 722.532, 525 722.743 C 528.025 722.954, 533.763 723.462, 537.750 723.873 C 541.737 724.283, 545 724.504, 545 724.362 C 545 723.820, 534.709 710.487, 534.102 710.244 C 533.751 710.103, 530.402 712.426, 526.662 715.407 M 370.500 785.219 C 351.881 786.335, 343.973 787.582, 341.812 789.743 C 339.285 792.270, 340.355 794.632, 344.673 796.057 C 348.829 797.429, 391.841 795.649, 396.865 793.897 C 400.816 792.520, 401.853 789.409, 399.234 786.790 C 396.909 784.465, 389.679 784.070, 370.500 785.219 M 171.923 791.923 C 170.315 793.531, 169 795.576, 169 796.469 C 169 799.091, 173.433 802.769, 178.135 804.048 C 187.253 806.528, 200.683 808.974, 205.250 808.987 C 212.709 809.007, 216.080 804.415, 212.430 799.204 C 208.881 794.136, 193.049 789, 180.976 789 C 175.534 789, 174.518 789.328, 171.923 791.923 M 315.447 794.059 C 312.056 797.805, 317.071 801.638, 321.948 799.028 C 324.538 797.642, 324.601 794.392, 322.066 793.035 C 319.202 791.503, 317.525 791.762, 315.447 794.059 M 238.338 798.999 C 235.357 800.201, 234.361 803.789, 236.433 805.862 C 237.615 807.044, 240.358 807.595, 246.296 807.843 C 253.686 808.151, 254.720 807.967, 256.469 806.034 C 257.959 804.387, 258.169 803.486, 257.362 802.191 C 255.219 798.751, 243.732 796.823, 238.338 798.999 M 421.500 804.563 C 420.400 804.812, 415.971 805.771, 411.658 806.693 C 406.021 807.898, 402.999 809.133, 400.908 811.086 C 397.484 814.284, 397.305 815.846, 399.971 819.236 C 403.056 823.158, 408.774 824.163, 431 824.690 C 453.143 825.214, 463.909 823.929, 469 820.156 C 472.459 817.592, 472.741 813.650, 469.684 810.593 C 465.402 806.311, 458.176 804.814, 440 804.444 C 430.925 804.260, 422.600 804.313, 421.500 804.563 M 816.991 808.199 C 812.960 809.690, 812.085 811.942, 814.571 814.429 C 818.072 817.930, 824.777 815.234, 823.658 810.775 C 822.925 807.853, 820.481 806.908, 816.991 808.199 M 681.662 811.789 C 679.031 814.742, 679.932 817.305, 684.078 818.663 C 689.233 820.352, 723.772 823.248, 733.950 822.845 C 743.145 822.480, 746 821.150, 746 817.232 C 746 813.097, 735.664 811.447, 703 810.370 C 684.147 809.748, 683.439 809.796, 681.662 811.789 M 770.314 814.047 C 766.597 815.187, 765.073 818.501, 767.260 820.688 C 770.681 824.109, 782.857 822.820, 785.385 818.769 C 786.206 817.454, 786.094 816.666, 784.923 815.494 C 783.004 813.575, 774.573 812.740, 770.314 814.047 M 572 824.067 C 552.007 825.281, 536.860 828.547, 532.505 832.582 C 529.446 835.418, 529.225 839.745, 531.962 843.225 C 536.822 849.404, 549.418 849.376, 589.500 843.097 C 620.465 838.247, 623.816 837.496, 626.750 834.754 C 631.188 830.606, 628.659 826.716, 620.459 825.078 C 613.892 823.766, 586.412 823.193, 572 824.067" fill-rule="evenodd"/></svg>