<svg xmlns="http://www.w3.org/2000/svg" version="1.1" viewBox="7.74 84.3 955.91 719.7"><path d="M 503 85.586 C 495.068 88.114, 484.910 89.818, 468 91.456 C 448.263 93.367, 428.705 97.108, 417.032 101.204 C 387.045 111.726, 362.074 131.603, 346.736 157.160 C 343.690 162.235, 337.149 176.417, 335.544 181.429 C 335.081 182.874, 332.868 179.550, 326.713 168.162 C 314.031 144.699, 299.821 126.044, 289.342 119.103 C 278.340 111.816, 267.246 116.751, 254.383 134.654 C 246.195 146.050, 240.887 161.255, 242.359 169.100 C 243.233 173.761, 246.343 176.458, 259 183.531 C 273.668 191.729, 280.909 196.683, 289.469 204.374 C 302.226 215.836, 312.557 231.258, 317.860 246.754 C 319.854 252.583, 320.647 258, 319.506 258 C 319.234 258, 309.221 253.078, 297.256 247.062 C 258.596 227.624, 235.893 222.017, 201 223.290 C 176.018 224.201, 154.036 229.721, 130.066 241.100 C 110.752 250.269, 96.768 260.208, 79.673 276.919 C 61.375 294.806, 49.271 311.482, 37.346 335.232 C 16.501 376.750, 7.765 417.992, 7.742 475 C 7.730 503.379, 8.821 517.322, 13.006 542.269 C 20.685 588.051, 40.676 635.707, 66.377 669.500 C 85.730 694.946, 110.290 718.061, 130.930 730.255 C 136.121 733.322, 137.746 732.657, 115.500 736.572 C 107.250 738.024, 93.750 740.913, 85.500 742.992 C 60.438 749.309, 53.667 752.677, 53.667 758.829 C 53.667 765.114, 58.998 767.788, 77 770.532 C 100.124 774.056, 125.368 776.105, 175 778.486 C 192.325 779.318, 217.975 780.656, 232 781.461 C 282.021 784.333, 305.401 785.240, 312.604 784.587 C 316.624 784.223, 326.120 782.402, 333.706 780.541 C 355.059 775.303, 359.211 774.896, 416 772.473 C 490.350 769.301, 547.549 763.423, 572.040 756.438 C 572.887 756.196, 577.162 758.626, 581.540 761.836 C 585.918 765.047, 590.146 767.888, 590.936 768.149 C 591.725 768.410, 586.316 769.808, 578.915 771.256 C 559.571 775.039, 549.737 778.336, 546.571 782.098 C 539.745 790.210, 547.098 795.495, 570.064 798.982 C 595.124 802.787, 725.890 805.476, 770.511 803.104 C 856.778 798.518, 914.534 791.962, 928.912 785.123 C 930.789 784.230, 933.248 782.250, 934.377 780.723 C 936.302 778.120, 936.330 777.775, 934.834 775.223 C 933.955 773.725, 931.573 771.659, 929.540 770.630 C 924.988 768.328, 907.937 765.309, 894.339 764.398 L 884.178 763.717 889.339 759.678 C 897.657 753.169, 915.261 735.117, 921.208 727 C 938.013 704.062, 952.235 671.167, 958.388 641 C 966.606 600.713, 965.127 556.971, 954.448 524.496 C 941.374 484.734, 917.418 456.009, 883.500 439.424 C 868.772 432.223, 855.130 428.922, 836.730 428.109 L 822.960 427.500 827.886 420.749 C 834.124 412.200, 838.961 402.287, 843.390 388.974 C 849.479 370.674, 850.501 363.846, 850.494 341.500 C 850.488 319.925, 849.526 314.936, 845.103 313.533 C 843.959 313.170, 839.534 313.830, 835.269 315 C 831.005 316.169, 819.862 318.242, 810.508 319.605 C 783.936 323.478, 770.744 328.241, 756.277 339.188 C 744.183 348.338, 734.451 360.526, 727.427 375.316 L 723.777 383.003 719.011 376.752 C 712.002 367.558, 698.912 355.291, 693.607 352.944 C 687.515 350.250, 683.314 351.091, 677.556 356.160 C 671.350 361.622, 663.449 373.806, 661.027 381.649 C 658.601 389.502, 658.569 390.293, 660.503 394.349 C 661.666 396.787, 664.512 398.857, 673.086 403.500 C 692.505 414.016, 704.587 425.405, 710.990 439.230 C 713.680 445.038, 716.157 458, 714.577 458 C 714.202 458, 708.707 455.525, 702.367 452.500 C 681.144 442.374, 667.889 438.705, 647.835 437.403 L 637.500 436.733 637.452 414.116 C 637.391 385.622, 635.018 369.434, 627.548 346.551 C 619.961 323.309, 610.155 305.277, 594.350 285.500 C 567.440 251.829, 529.143 230.349, 485.135 224.244 L 479.771 223.500 484.256 217.500 C 498.121 198.955, 510.373 167.950, 516.069 137 C 517.866 127.235, 518.383 120.742, 518.435 107.328 C 518.495 91.393, 518.349 89.952, 516.401 87.328 C 513.903 83.963, 509.774 83.426, 503 85.586 M 492.500 111.598 C 491.950 111.779, 481.375 112.622, 469 113.472 C 442.863 115.267, 436.901 116.118, 425.714 119.646 C 408.309 125.135, 393.582 134.452, 380.247 148.409 C 375.133 153.762, 369.375 161.124, 366.383 166.135 C 360.652 175.736, 354.063 191.882, 351.498 202.609 L 349.798 209.718 352.780 214.938 L 355.762 220.159 359.050 215.579 C 360.859 213.061, 362.713 211, 363.170 211 C 363.626 211, 364.001 208.188, 364.002 204.750 C 364.004 196.625, 366.354 191.631, 370.391 191.170 C 373.550 190.809, 374.961 192.217, 374.985 195.753 C 374.998 197.768, 375.386 197.579, 378.653 193.963 C 382.208 190.028, 382.299 189.727, 382.094 182.696 C 381.773 171.704, 387.601 154.820, 393.125 150.736 C 398.095 147.063, 402.427 152.035, 399.647 158.224 C 396.565 165.086, 394.066 173.025, 393.395 178.081 L 392.698 183.332 396.099 180.745 C 406.425 172.891, 430.918 160, 435.514 160 C 437.524 160, 440.179 164.370, 439.401 166.398 C 439.046 167.321, 437.161 168.896, 435.211 169.896 L 431.666 171.715 435.583 172.433 C 441.262 173.473, 447.631 176.895, 448.844 179.558 C 449.689 181.411, 449.499 182.368, 447.875 184.432 C 445.582 187.347, 443.235 187.595, 437.500 185.529 C 432.705 183.801, 423.001 183.594, 417.566 185.104 C 407.907 187.785, 395.597 195.372, 386.500 204.251 L 382.500 208.154 391.500 207.558 C 396.450 207.230, 402.830 206.704, 405.677 206.389 C 410.657 205.839, 410.913 205.931, 412.408 208.821 C 413.836 211.583, 413.819 212.002, 412.199 214.003 C 410.418 216.203, 402.881 218.727, 395.500 219.597 C 389.917 220.255, 388.750 220.781, 389.629 222.243 C 390.175 223.153, 389.928 223.131, 388.736 222.164 C 387.829 221.429, 386.618 221.118, 386.044 221.473 C 385.470 221.828, 385 221.754, 385 221.309 C 385 220.864, 381.963 220.541, 378.250 220.592 L 371.500 220.684 370.227 224.490 C 368.345 230.119, 366.766 247.013, 367.984 248.481 C 368.533 249.143, 368.649 250.036, 368.241 250.466 C 366.827 251.959, 372.546 249.713, 381.253 245.356 C 393.689 239.134, 403.063 235.546, 422.674 229.501 C 432.120 226.590, 442.020 223.022, 444.674 221.574 C 470.208 207.640, 491.118 165.378, 494.504 120.859 C 495.131 112.623, 494.749 110.860, 492.500 111.598 M 274.913 142.250 C 271.032 146.490, 267 154.640, 267 158.244 C 267 161.961, 269.864 164.526, 279.568 169.500 C 293.309 176.543, 312.687 193.560, 322.278 207.007 L 324.055 209.500 323.452 207 C 322.495 203.034, 313.998 185.297, 308.603 176 C 297.019 156.041, 283.688 139, 279.657 139 C 278.683 139, 276.549 140.463, 274.913 142.250 M 183 246.638 C 172.032 248.647, 153.798 254.658, 143 259.824 C 134.669 263.811, 115.452 275.882, 111.499 279.612 C 110.399 280.650, 107.822 282.752, 105.774 284.282 C 99.642 288.863, 86.562 302.843, 78.438 313.500 C 52.708 347.255, 37.981 387.083, 31.848 439.500 C 29.942 455.790, 30.262 500.329, 32.397 515.867 C 42.981 592.892, 72.028 651.773, 118.877 691.171 C 143.446 711.832, 173.753 726.763, 203.736 732.977 C 237.190 739.910, 278.141 737.111, 305.511 726.021 C 321.153 719.683, 327.421 717.896, 336.060 717.310 C 347.027 716.565, 355.023 717.990, 367.787 722.965 C 381.215 728.198, 387.349 729.693, 400 730.815 C 440.307 734.390, 481.575 720.761, 515.691 692.609 C 521.559 687.767, 523.239 684.884, 521 683.500 C 520.450 683.160, 520 681.953, 520 680.819 C 520 679.010, 519.784 678.920, 518.250 680.095 C 517.288 680.831, 516.822 681.052, 517.215 680.586 C 517.608 680.119, 517.422 678.784, 516.801 677.619 C 515.779 675.700, 515.832 675.631, 517.359 676.891 C 518.831 678.106, 518.966 678.074, 518.416 676.641 C 518.069 675.739, 517.398 675, 516.924 675 C 516.451 675, 516.350 674.251, 516.701 673.336 C 517.128 672.225, 516.955 671.910, 516.181 672.388 C 515.417 672.860, 515.232 672.560, 515.637 671.504 C 515.999 670.559, 515.483 669.279, 514.375 668.378 C 513.344 667.538, 513.139 667.184, 513.920 667.590 C 514.977 668.139, 515.167 667.879, 514.666 666.571 C 514.295 665.605, 513.720 663.731, 513.387 662.407 C 513.055 661.083, 512.373 660, 511.873 660 C 511.372 660, 511.261 658.808, 511.627 657.351 C 512.139 655.310, 511.990 654.888, 510.976 655.515 C 510.061 656.081, 509.831 655.883, 510.221 654.866 C 510.530 654.062, 509.902 649.376, 508.827 644.452 C 506.178 632.325, 506.246 632.870, 504.870 612.500 C 501.136 557.211, 516.911 508.102, 548.500 476.672 C 564.585 460.667, 581.207 450.545, 603.108 443.416 C 609.374 441.376, 615.101 439.236, 615.835 438.660 C 617.169 437.615, 617.090 421.597, 615.648 400.904 C 614.677 386.965, 608.020 359.071, 602.136 344.292 C 582.274 294.402, 540.654 258.445, 489.947 247.367 C 483.478 245.953, 477.403 245.530, 464 245.558 C 448.296 245.591, 445.411 245.874, 435.889 248.314 C 430.053 249.810, 415.558 254.848, 403.678 259.510 C 371.165 272.269, 355.544 276.232, 339.107 275.894 C 323.012 275.563, 311.925 272.686, 273.787 258.942 C 242.828 247.785, 233.170 245.730, 210 245.370 C 196.493 245.159, 189.206 245.502, 183 246.638 M 831 335.294 C 830.725 335.554, 822.400 336.760, 812.500 337.974 C 787.780 341.004, 779.287 344.096, 765.352 355.138 C 753.661 364.402, 741 384.542, 741 393.875 C 741 399.376, 742.665 399.954, 743.534 394.754 C 744.670 387.956, 748.793 377.892, 752.550 372.750 C 754.458 370.137, 756.415 368, 756.899 368 C 757.383 368, 758.838 368.858, 760.134 369.907 L 762.489 371.814 760.129 376.657 C 756.299 384.518, 753.951 392.982, 753.307 401.250 C 752.975 405.512, 752.984 409, 753.326 409 C 753.668 409, 754.613 407.762, 755.425 406.250 C 756.236 404.738, 758.936 401.250, 761.423 398.500 C 764.641 394.942, 765.954 392.633, 765.973 390.493 C 766.010 386.326, 767.634 381.062, 769.527 378.971 C 771.428 376.870, 774.695 377.465, 775.520 380.062 C 776.056 381.753, 776.541 381.635, 781.303 378.649 C 789.034 373.802, 794.653 371.919, 803 371.377 C 811.110 370.851, 815.207 372.119, 815.829 375.350 C 816.511 378.890, 813.374 380.712, 805.712 381.224 C 800.574 381.568, 796.598 382.576, 791.886 384.729 C 783.618 388.507, 782.491 390, 787.907 390 C 792.737 390, 798.760 392.669, 799.551 395.160 C 799.865 396.150, 799.676 397.756, 799.130 398.730 C 798.296 400.221, 796.668 400.507, 788.820 400.543 C 780.725 400.580, 778.825 400.936, 774.366 403.251 C 768.811 406.134, 763.089 412.956, 761.129 419.032 C 759.130 425.224, 758.245 438.505, 759.737 439.899 C 760.456 440.571, 760.817 441.487, 760.540 441.935 C 760.263 442.383, 762.955 441.200, 766.522 439.306 C 770.088 437.412, 777.249 434.136, 782.435 432.027 C 787.620 429.917, 793.806 426.837, 796.182 425.183 C 801.576 421.426, 808.736 413.965, 812.902 407.758 C 821.344 395.181, 829.952 370.296, 831.849 352.987 C 832.783 344.456, 832.285 334.078, 831 335.294 M 686.243 374.250 C 684.299 376.677, 681 383.944, 681 385.801 C 681 387.669, 681.818 388.208, 696.745 396.169 C 704.092 400.088, 713.125 407.835, 720.047 416.152 C 722.771 419.426, 725 421.705, 725 421.217 C 725 419.302, 714.725 400.472, 710.243 394.172 C 707.634 390.506, 702.405 384.243, 698.623 380.253 C 691.749 373.003, 688.503 371.429, 686.243 374.250 M 429 418.845 C 414.293 422.759, 404.318 433.223, 398.347 451 C 395.800 458.585, 395.787 475.385, 398.324 482.913 C 402.307 494.737, 412.426 506.497, 423.073 511.679 C 432.125 516.084, 439.037 517.362, 450.754 516.798 C 459.843 516.360, 461.415 515.970, 469.103 512.249 C 486.027 504.057, 497 487.621, 497 470.460 C 497 434.841, 463.745 409.599, 429 418.845 M 158 419.385 C 147.359 422.524, 135.732 429.729, 130.735 436.281 C 123.001 446.420, 118 459.643, 118 469.950 C 118 481.607, 123.679 494.828, 132.431 503.544 C 141.927 513.002, 152.590 517.270, 167 517.381 C 186.795 517.535, 203.559 506.870, 212.401 488.500 C 224.040 464.318, 212.393 430.123, 189.439 421.083 C 182.102 418.194, 165.142 417.278, 158 419.385 M 175.840 432.022 C 162.737 438.944, 165.328 457.049, 179.987 460.996 C 190.639 463.865, 201.490 454.756, 199.576 444.553 C 198.623 439.476, 193.791 433.534, 189.082 431.649 C 183.777 429.527, 180.382 429.622, 175.840 432.022 M 423.500 431.662 C 416.447 435.380, 413 440.722, 413 447.933 C 413 450.963, 413.738 452.771, 416.050 455.404 C 423.460 463.844, 437.866 462.064, 442.960 452.079 C 446.891 444.372, 444.592 434.909, 437.953 431.476 C 434.258 429.565, 427.308 429.654, 423.500 431.662 M 812.500 450.986 C 802.211 453.324, 792.739 457.130, 774.339 466.321 C 756.598 475.182, 748.264 477.533, 735 477.417 C 722.524 477.307, 712.540 475.113, 689.510 467.420 C 679.054 463.927, 667.125 460.318, 663 459.399 C 652.935 457.159, 633.130 457.186, 622.555 459.456 C 594.834 465.406, 566.771 484.777, 550.780 509 C 534.708 533.346, 527 561.869, 527 597 C 527 627.883, 533.152 654.987, 546.421 682.558 C 562.585 716.148, 584.714 739.528, 614.317 754.295 C 633.974 764.101, 646.606 767, 669.673 767 C 686.753 767, 696.142 765.346, 707.500 760.337 C 724.796 752.710, 728.527 751.745, 738.961 752.202 C 747.735 752.587, 749.467 753.030, 760.559 757.733 C 777.856 765.067, 782.933 766.175, 798.965 766.117 C 834.718 765.985, 863.226 754.049, 888.556 728.605 C 913.341 703.709, 930.075 669.253, 938.172 626.449 C 940.160 615.942, 940.433 611.302, 940.441 588 C 940.450 562.944, 940.302 560.811, 937.739 548.849 C 927.705 502.019, 901.546 468.784, 863.428 454.437 C 848.546 448.835, 828.073 447.448, 812.500 450.986 M 295.407 490.968 C 276.676 494.967, 260.945 516.324, 267.456 528.915 C 270.590 534.976, 277.875 536.147, 289 532.378 C 300.342 528.536, 305.593 528.644, 317.392 532.961 C 335.327 539.524, 344.389 530.806, 337.836 513.291 C 334.922 505.503, 326.910 497.130, 318.956 493.561 C 312.358 490.600, 302.313 489.494, 295.407 490.968 M 294.640 503.632 C 288.730 505.447, 280.849 512.897, 279.040 518.380 C 278.358 520.445, 278.074 522.407, 278.407 522.741 C 278.741 523.074, 280.923 522.403, 283.257 521.249 C 288.692 518.560, 298.673 516, 303.719 516 C 307.386 516, 317.951 519.109, 324.254 522.043 C 325.769 522.748, 327.263 523.070, 327.574 522.760 C 328.852 521.482, 323.482 511.712, 319.742 508.511 C 312.551 502.356, 304.126 500.719, 294.640 503.632 M 806.557 527.223 C 805.701 528.445, 805 530.488, 805 531.762 C 805 534.506, 808.196 541.088, 810.427 542.939 C 812.828 544.932, 812.347 545.713, 808.250 546.473 C 797.714 548.428, 784.660 559.550, 779.167 571.254 C 768.747 593.452, 773.415 617.500, 791.257 633.541 C 800.493 641.845, 811.848 645.968, 825.500 645.973 C 851.361 645.984, 872.518 626.832, 874.662 601.471 C 876.825 575.887, 860.368 553.017, 835.265 546.721 C 829.157 545.189, 820.374 538.193, 816.339 531.647 C 812.022 524.642, 809.244 523.386, 806.557 527.223 M 640.820 529.750 C 640 530.712, 638.353 533.133, 637.158 535.129 C 633.780 540.774, 627.120 546.316, 618.033 551.044 C 597.582 561.683, 587.055 578.491, 587.015 600.568 C 586.968 625.932, 605.069 647.194, 630.008 651.071 C 647.908 653.854, 664.821 648.561, 676.312 636.578 C 682.738 629.878, 688.821 617.308, 690.230 607.819 C 693.262 587.388, 682.485 565.913, 664.368 556.287 C 658.311 553.068, 648.178 550, 643.606 550 C 640.650 550, 640.264 548.856, 642.573 546.939 C 644.652 545.214, 647.557 539.311, 648.335 535.229 C 649.378 529.759, 644.093 525.906, 640.820 529.750 M 805 558.215 C 799.537 560.901, 791.985 568.415, 789.482 573.652 C 788.471 575.768, 787.441 579.885, 787.194 582.799 C 786.807 587.353, 787.079 588.457, 789.122 590.644 C 792.787 594.567, 796.595 596.107, 802.854 596.196 C 825.612 596.519, 839.334 567.117, 820.647 558.071 C 815.149 555.410, 810.619 555.451, 805 558.215 M 622.698 560.444 C 613.293 563.799, 604.843 573.011, 601.540 583.511 C 599.980 588.473, 599.937 589.548, 601.173 592.795 C 603.618 599.220, 613.209 603.806, 621.363 602.449 C 643.569 598.753, 654.490 570.050, 637.038 561.250 C 631.977 558.698, 628.190 558.485, 622.698 560.444 M 721 617.891 C 716.166 619.459, 707.454 624.320, 703.076 627.891 C 697.921 632.096, 691.480 641.582, 689.813 647.423 C 689.173 649.665, 688.340 651.950, 687.962 652.500 C 687.584 653.050, 687.192 656.650, 687.091 660.500 C 686.833 670.369, 690.024 676.439, 697.736 680.750 C 700.417 682.248, 726.093 682.507, 727.550 681.050 C 728.072 680.528, 738.625 679.798, 751 679.429 C 776.106 678.679, 778.556 678.113, 782.005 672.268 C 783.733 669.337, 784.065 667.266, 783.912 660.336 C 783.810 655.723, 783.338 651.709, 782.863 651.416 C 782.389 651.122, 782 649.923, 782 648.751 C 782 645.427, 774.211 633.356, 769.247 628.986 C 766.781 626.816, 761.780 623.345, 758.132 621.274 L 751.500 617.507 737.500 617.294 C 729.800 617.176, 722.375 617.445, 721 617.891 M 724.384 628.888 C 718.701 630.356, 709.239 636.906, 705.558 641.921 C 703.601 644.587, 701.985 647.158, 701.966 647.634 C 701.947 648.110, 701.063 650.300, 700 652.500 C 697.275 658.142, 697.385 665.192, 700.250 668.438 L 702.500 670.987 736.500 669.419 C 755.200 668.556, 771.063 667.673, 771.750 667.457 C 773.447 666.922, 773.375 657.241, 771.648 653.933 C 770.912 652.522, 770.029 650.272, 769.687 648.933 C 768.685 645.009, 760.431 636.407, 753.807 632.383 C 747.940 628.819, 747.238 628.645, 737.587 628.370 C 732.039 628.212, 726.098 628.445, 724.384 628.888 M 526.662 715.407 C 522.922 718.387, 519.780 721.171, 519.681 721.593 C 519.581 722.015, 521.975 722.532, 525 722.743 C 528.025 722.954, 533.763 723.462, 537.750 723.873 C 541.737 724.283, 545 724.504, 545 724.362 C 545 723.820, 534.709 710.487, 534.102 710.244 C 533.751 710.103, 530.402 712.426, 526.662 715.407" fill-rule="evenodd"/></svg>