<svg xmlns="http://www.w3.org/2000/svg" version="1.1" viewBox="0.04 0.16 543.76 527.84"><path d="M 226.500 1.165 C 190.642 5.212, 152.031 18.694, 120.773 38.081 C 88.161 58.308, 55.372 91.616, 35.976 124.223 C 17.108 155.940, 4.981 192.052, 1.055 228.211 C -0.302 240.704, -0.302 271.296, 1.055 283.789 C 7.379 342.026, 32.929 395.006, 74.962 437.038 C 112.015 474.092, 155.196 497.214, 206.500 507.476 C 225.304 511.237, 239.862 512.321, 263.395 511.712 C 287.366 511.092, 298.932 509.531, 320.500 504.008 C 354.520 495.295, 367.989 487.133, 370.410 473.761 C 371.840 465.861, 366.499 456.948, 358.216 453.412 C 353.114 451.234, 345.242 452.121, 336.500 455.860 C 317.967 463.786, 292.828 469.463, 269.764 470.932 C 207.277 474.910, 148.433 452.618, 103.900 408.096 C 59.496 363.704, 37.099 304.587, 41.068 242.250 C 44.450 189.123, 65.890 141.917, 103.904 103.904 C 137.907 69.900, 178.314 49.653, 226.500 42.473 C 241.254 40.275, 270.734 40.274, 285.500 42.471 C 333.757 49.652, 374.020 69.828, 408.096 103.904 C 440.605 136.412, 460.699 175.081, 468.541 220.223 C 472.355 242.178, 472.155 272.047, 468.044 294.500 C 466.937 300.550, 466.024 307.567, 466.015 310.093 C 465.996 315.879, 469.284 322.295, 474.382 326.421 C 477.897 329.266, 478.773 329.500, 485.921 329.500 C 492.803 329.500, 494.050 329.199, 497.233 326.771 C 502.752 322.562, 504.992 317.954, 507.482 305.690 C 511.130 287.723, 512.332 271.412, 511.714 248.254 C 511.085 224.690, 509.493 212.943, 504.022 191.500 C 492.677 147.032, 470.540 108.515, 437.031 74.940 C 395.092 32.918, 342.149 7.392, 283.789 1.055 C 272.335 -0.189, 237.909 -0.123, 226.500 1.165 M 315.290 184.086 C 310.391 186.511, 304.411 192.771, 302.403 197.578 C 300.283 202.653, 300.607 212.556, 303.058 217.621 C 305.437 222.534, 311.725 228.569, 316.578 230.597 C 321.653 232.717, 331.556 232.393, 336.621 229.942 C 341.534 227.563, 347.569 221.275, 349.597 216.422 C 351.589 211.655, 351.350 201.364, 349.134 196.500 C 347.028 191.875, 340.285 185.435, 335.422 183.403 C 330.304 181.265, 320.304 181.604, 315.290 184.086 M 168.290 185.086 C 163.391 187.511, 157.411 193.771, 155.403 198.578 C 153.283 203.653, 153.607 213.556, 156.058 218.621 C 158.437 223.534, 164.725 229.569, 169.578 231.597 C 174.653 233.717, 184.556 233.393, 189.621 230.942 C 194.534 228.563, 200.569 222.275, 202.597 217.422 C 204.589 212.655, 204.350 202.364, 202.134 197.500 C 200.028 192.875, 193.285 186.435, 188.422 184.403 C 183.304 182.265, 173.304 182.604, 168.290 185.086 M 161.595 299.266 C 159.447 300.495, 156.297 303.229, 154.595 305.343 C 151.739 308.889, 151.500 309.777, 151.500 316.843 C 151.500 324.250, 151.644 324.712, 155.920 331 C 166.178 346.085, 189.442 365.859, 206.524 374.012 C 234.804 387.508, 266.527 388.752, 295.563 377.501 C 316.773 369.283, 341.304 349.673, 354.329 330.525 C 357.784 325.446, 358.489 323.545, 358.820 318.418 C 359.604 306.253, 351.046 297, 339.010 297 C 331.813 297, 327.043 299.799, 320.700 307.748 C 292.080 343.606, 256.697 353.711, 221.817 335.987 C 211.063 330.522, 199.496 320.472, 189.314 307.748 C 186.270 303.943, 182.202 300.123, 179.995 298.998 C 174.589 296.239, 166.685 296.355, 161.595 299.266 M 427.007 309.593 C 425.086 310.426, 422.456 312.096, 421.162 313.304 C 416 318.124, 416 318.122, 416 359.950 L 416 399 377.750 399.022 C 335.180 399.046, 334.414 399.154, 328.708 405.935 C 325.308 409.976, 324.656 412.570, 325.189 419.939 C 325.510 424.370, 326.285 426.685, 328.358 429.403 C 333.844 436.596, 332.997 436.466, 376.750 436.794 L 416 437.087 416 476.093 C 416 518.399, 415.923 517.758, 421.661 523.186 C 425.183 526.519, 428.979 528, 434 528 C 439.021 528, 442.817 526.519, 446.339 523.186 C 452.083 517.752, 452 518.447, 452 475.550 L 452 436 491.550 436 C 533.926 436, 533.871 436.006, 538.702 430.831 C 547.789 421.099, 544.281 405.776, 531.768 400.548 C 528.645 399.243, 522.097 399, 490.032 399 L 452 399 452 359.950 C 452 317.221, 452.068 317.760, 446.005 312.658 C 440.625 308.131, 433.157 306.926, 427.007 309.593" stroke="none" fill-rule="evenodd"/></svg>