<svg xmlns="http://www.w3.org/2000/svg" viewBox="128.42 -787.67 703.16 671.74"><path d="M333.333-218.999 480-307l146.667 89.001-39-166.668 129.001-112-170.001-15L480-669.001l-66.667 156.334-170.001 15 129.001 112.334-39 166.334ZM480-229 300.666-121q-9 5.667-19 5-10-.666-17.666-6.333-7.667-5.667-11.667-14.5t-1.666-19.833L298-361 139.666-498.667q-8.666-7.667-10.5-17.167-1.833-9.499.834-18.499 2.666-9 10-15 7.333-6 18.666-7.334L368-575l81-192.667q4.333-10 13.167-15 8.833-5 17.833-5 9 0 17.833 5 8.834 5 13.167 15L592-575l209.334 18.333q11.333 1.334 18.666 7.334 7.334 6 10 15 2.667 9 .834 18.499-1.834 9.5-10.5 17.167L662-361l47.333 204.334q2.334 11-1.666 19.833-4 8.833-11.667 14.5-7.666 5.667-17.666 6.333-10 .667-19-5L480-229Zm0-204.333Z"/></svg>