<svg xmlns="http://www.w3.org/2000/svg" width="1024" height="1024" viewBox="0 0 1024 1024" version="1.1"><path d="M 230.500 279.630 C 213.296 282.210, 195.631 288.830, 181.741 297.903 C 173.923 303.010, 155 321.108, 155 323.478 C 155 324.181, 154.336 325.306, 153.524 325.980 C 151.802 327.409, 146 339.334, 146 341.444 C 146 342.235, 145.626 343.113, 145.169 343.395 C 144.073 344.073, 142.293 352.476, 141.027 362.947 C 139.846 372.726, 140.268 372.154, 132.500 374.493 C 123.776 377.120, 115.132 381.253, 109.720 385.384 C 107.115 387.373, 104.815 389, 104.609 389 C 104.403 389, 102.284 390.913, 99.899 393.250 C 72.749 419.860, 65.987 462.349, 83.706 495 C 87.513 502.015, 92.397 508.714, 95.231 510.807 C 97.488 512.474, 97.454 513.942, 94.934 523.590 C 85.251 560.660, 106.226 596.084, 142.500 603.921 C 150.500 605.650, 150.500 605.650, 151.313 613.931 C 153.544 636.645, 169.962 649.966, 195.763 649.994 C 201.026 650, 201.026 650, 204.437 657.009 C 211.776 672.088, 220.351 682.959, 232.509 692.594 C 242.164 700.245, 242.167 700.253, 237.692 705.570 C 234.771 709.041, 231.541 713.583, 226.007 722 C 206.319 751.946, 189.778 826.504, 197.895 848.712 C 202.534 861.405, 213.636 868.960, 227.691 868.989 C 234.184 869.003, 233.500 867.432, 236.460 889.114 C 240.406 918.018, 241.097 921.559, 243.591 925.655 C 246.702 930.765, 247.416 932.422, 249.552 939.500 C 253.030 951.023, 258.206 958.318, 263.827 959.619 C 265.297 959.960, 267.474 960.845, 268.665 961.586 C 282.633 970.286, 322 958.993, 322 946.286 C 322 945.564, 322.420 944.191, 322.934 943.236 C 323.447 942.281, 324.381 939.250, 325.009 936.500 C 327.379 926.118, 336 924.268, 336 934.141 C 336 936.199, 336.411 938.136, 336.913 938.446 C 337.415 938.757, 338.132 940.823, 338.507 943.039 C 340.699 956.016, 349.789 962.157, 368.942 963.603 C 391.041 965.271, 407.334 954.891, 410.966 936.827 C 411.705 933.156, 413.037 929.796, 414.140 928.823 C 416.868 926.417, 418.637 921.583, 419.931 913 C 422.105 898.584, 425.951 871.454, 426.595 866 C 427.096 861.753, 427.947 859.758, 430.327 857.241 C 433.371 854.023, 433.424 853.786, 434.455 838.741 C 435.634 821.544, 435.650 821.526, 446 825.479 C 461.168 831.272, 463.565 828.765, 489.483 780 C 507.483 746.134, 510.847 739.335, 511.550 735.403 C 512.429 730.484, 515.263 727.281, 521 724.720 C 529.593 720.884, 535.663 716.299, 539.033 711.099 C 540.850 708.295, 542.701 706, 543.145 706 C 545.650 706, 551.206 686.761, 549.499 683.999 C 549.281 683.645, 549.013 681.363, 548.904 678.928 C 548.460 668.962, 538.998 653.405, 530.488 648.649 C 495.554 629.124, 456.724 662.977, 469.547 701.777 C 473.178 712.764, 464.479 729.981, 457.581 725.461 C 456.161 724.531, 454.991 723.259, 454.979 722.635 C 454.968 722.011, 450.468 717.468, 444.979 712.540 C 434.807 703.405, 432.711 699.778, 436.750 698.295 C 441.580 696.521, 455.376 684.347, 459.571 678.157 C 460.934 676.146, 463.372 672.700, 464.989 670.500 C 480.378 649.566, 483.213 627.877, 475.961 586.591 C 475.121 581.810, 475.208 580.082, 476.418 577.532 C 481.624 566.561, 480.575 528.900, 474.330 502.563 C 469.739 483.203, 459.536 458.570, 452.145 449 C 450.658 447.075, 448.668 444.280, 447.724 442.790 C 444.892 438.322, 434.120 427.259, 428.797 423.351 C 423.029 419.117, 423.040 417.175, 428.913 403.500 C 442.990 370.723, 418.834 321.549, 383.500 311.049 C 381.300 310.396, 378.600 309.482, 377.500 309.019 C 365.882 304.131, 336.226 305.583, 324.846 311.597 C 321.319 313.461, 319.387 313.366, 317.807 311.250 C 302.237 290.398, 260.207 275.176, 230.500 279.630 M 230.500 291.043 C 204.252 294.497, 183.817 306.107, 165.418 328.020 C 155.602 339.710, 150.029 361.118, 152.232 378.666 C 153.818 391.290, 149.034 396.257, 143.814 387.409 C 138.475 378.361, 111.702 392.509, 99.029 411.076 C 73.564 448.381, 84.045 496.945, 121.781 516.500 C 136.893 524.331, 130.752 533.172, 114.959 526.323 C 105.963 522.421, 104.834 523.678, 103.551 539.016 C 101.269 566.304, 126.119 594.310, 152.299 593.957 C 164.718 593.789, 174.416 570.057, 162.095 569.985 C 160.668 569.976, 158.889 569.583, 158.143 569.110 C 155.969 567.732, 158.623 566.707, 162.487 567.432 C 166.886 568.257, 167.160 567.663, 167.694 556.146 C 168.068 548.075, 169.594 538.767, 173.645 519.840 C 174.246 517.032, 170.530 514.776, 155.500 508.822 C 148.780 506.161, 141 501.878, 141 500.841 C 141 499.611, 142.732 499.810, 145.800 501.393 C 169.308 513.521, 175.853 514.167, 180.419 504.810 C 184.609 496.221, 188.644 489.134, 190.603 486.921 C 191.371 486.053, 192 485.040, 192 484.671 C 192 484.302, 192.691 483.212, 193.537 482.250 C 202.871 471.618, 203.164 470.142, 197.211 463.690 C 189.731 455.583, 186 451.016, 186 449.965 C 186 447.395, 189.161 449.777, 196 457.500 C 205.149 467.832, 204.351 467.820, 214.605 457.781 C 224.877 447.723, 224.879 448.409, 214.551 435.887 C 209.904 430.253, 206.334 425.268, 206.618 424.809 C 207.486 423.405, 209.354 425.128, 217.669 435 C 226.987 446.064, 227.309 446.199, 233.668 441.683 C 245.280 433.437, 272.192 418.933, 282.105 415.578 C 296.313 410.769, 296.058 412.104, 286.955 390.203 C 286.430 388.940, 286 386.931, 286 385.739 C 286 381.089, 289.047 386.803, 296.403 405.250 C 297.982 409.210, 299.696 409.826, 304.279 408.084 C 308.072 406.642, 327.028 402.979, 332 402.728 C 336.971 402.476, 337.274 400.957, 335.979 382.783 C 335.686 378.676, 335.888 376.039, 336.500 375.996 C 337.508 375.924, 340.869 390.309, 340.954 395.059 C 341.051 400.448, 342.154 400.818, 359.891 401.411 C 373.669 401.872, 378.266 402.453, 388.730 405.057 C 403.437 408.717, 402.009 409.558, 404.532 395.758 C 405.787 388.895, 407.073 384.476, 407.896 384.201 C 409.338 383.721, 408.785 394.019, 406.897 402.791 C 404.018 416.166, 414.535 412.749, 418.923 398.883 C 434.633 349.238, 380.965 302.367, 329.751 321.005 C 324.939 322.756, 320.750 324.596, 320.442 325.094 C 319.126 327.223, 314.137 325.980, 311.826 322.947 C 293.066 298.325, 263.451 286.707, 230.500 291.043 M 755.500 340.645 C 740.126 342.417, 727.686 348.396, 714.418 360.391 C 709.008 365.283, 709.008 365.283, 703.254 362.239 C 675.838 347.738, 639.764 362.221, 629.387 391.895 C 627.894 396.164, 626.665 397.807, 623.500 399.763 C 592.713 418.798, 592.784 468.303, 623.632 492.102 C 630.527 497.422, 630.399 498.629, 622.225 505.316 C 593.409 528.892, 575.975 573.857, 581.935 609.231 C 582.844 614.622, 582.879 617.663, 582.073 621 C 580.034 629.437, 579.640 647.777, 581.289 657.500 C 582.473 664.482, 582.721 672.140, 582.395 691.655 C 582.014 714.528, 582.170 717.722, 584.116 726.861 C 586.256 736.912, 586.256 736.912, 580.628 742.677 C 577.533 745.847, 575 748.962, 575 749.598 C 575 750.234, 574.370 751.278, 573.600 751.917 C 560.999 762.375, 574.840 790.862, 592.584 790.985 C 593.961 790.995, 595.900 792.781, 598.302 796.250 C 603.776 804.158, 608.761 807.730, 619.500 811.440 C 626.342 813.803, 626.453 814.372, 624.555 837.500 C 623.527 850.039, 623.651 855.480, 625.026 858.048 C 625.695 859.298, 625.609 859.992, 624.742 860.348 C 623.206 860.977, 629.338 867, 631.516 867 C 632.757 867, 633 869.288, 633 881 C 633 895, 633 895, 636.948 898.948 C 641.081 903.081, 652.856 907.799, 654.101 905.820 C 657.234 900.840, 661.519 906.700, 664.142 919.554 C 670.994 953.128, 675.261 959.848, 692 963.427 C 713.770 968.083, 727.539 959.443, 732.390 938.084 C 734.308 929.638, 736.537 930.363, 739.869 940.516 C 746.807 961.655, 758.810 968.178, 781.336 963.053 C 797.380 959.403, 803.783 947.320, 808.480 911.832 C 809.220 906.244, 809.670 905.853, 818 903.567 C 833.781 899.237, 837 896.147, 837 885.326 C 837 879.858, 837.384 877, 838.117 877 C 839.551 877, 838.259 861.794, 836.745 860.849 C 835.605 860.137, 833.469 838.827, 834.316 836.618 C 834.605 835.866, 837.014 834.930, 839.670 834.537 C 872.790 829.641, 882.575 818.072, 882.420 784 C 882.376 774.375, 882.187 741.277, 882 710.448 C 881.659 654.397, 881.659 654.397, 884.375 648.846 C 888.677 640.053, 888.435 631.158, 883.637 621.706 C 880.895 616.303, 880.104 613.700, 880.532 611.479 C 880.848 609.841, 880.438 603.794, 879.622 598.042 C 877.858 585.599, 877.444 586.557, 885.226 585.072 C 944.193 573.820, 956.701 496.451, 904.521 465.710 C 900.360 463.258, 899.847 462.590, 900.295 460.210 C 903.080 445.416, 903.117 444.687, 901.521 436.561 C 899.520 426.376, 894.005 414.959, 887.967 408.504 C 884.361 404.649, 882.804 401.893, 881.185 396.500 C 872.909 368.933, 840.010 349.808, 813.470 357.136 C 810.443 357.972, 809.637 357.645, 803.770 353.204 C 790.903 343.465, 772.523 338.683, 755.500 340.645 M 756.500 351.667 C 738.970 353.812, 722.072 364.638, 711.580 380.446 C 707.147 387.124, 707.356 389.597, 712.265 388.561 C 751.973 380.182, 790.487 390.500, 811.012 415.015 C 818.850 424.376, 822.281 418.957, 819.885 401 C 815.714 369.736, 787.607 347.860, 756.500 351.667 M 675 367.991 C 652.992 370.418, 630.382 392.533, 651.178 391.291 C 660.664 390.724, 669.957 392.502, 678.408 396.500 C 689.333 401.668, 699.502 392.399, 700.342 376.506 C 700.647 370.740, 688.150 366.541, 675 367.991 M 822.250 368.031 C 819.347 369.198, 819.322 369.042, 823.942 378.463 C 830.585 392.009, 832.115 401.087, 830.562 417.742 C 829.950 424.308, 830.068 426.064, 831.147 426.381 C 831.891 426.599, 836.530 427.722, 841.456 428.875 C 857.232 432.571, 868.812 439.051, 880.288 450.607 C 897.274 467.712, 895.518 433.241, 878.434 414.226 C 874.124 409.429, 872.457 406.648, 871.351 402.411 C 865.581 380.318, 838.631 361.447, 822.250 368.031 M 723.062 397.674 C 709.720 399.697, 694.560 405.104, 688.115 410.137 C 684.933 412.623, 683.330 412.489, 679.284 409.403 C 665.276 398.719, 638.768 400.541, 624.608 413.162 C 602.875 432.532, 609.556 473.221, 636.907 488.070 C 638.883 489.143, 641.279 490.571, 642.231 491.244 C 645.884 493.823, 647.378 490.246, 645.566 483.254 C 643.685 475.995, 643.564 472.688, 645.199 473.233 C 645.858 473.453, 647.393 477.294, 648.611 481.770 C 651.656 492.965, 650.799 492.318, 661.369 491.404 C 666.391 490.970, 672.075 490.589, 674 490.557 C 677.500 490.500, 677.500 490.500, 677.791 481.009 C 678.248 466.068, 680.417 466.063, 681.745 481 C 682.595 490.569, 682.330 490.449, 704.234 491.188 C 713.500 491.500, 713.500 491.500, 714.318 485.500 C 715.989 473.251, 716.057 473, 717.682 473 C 719.074 473, 719.187 474.182, 718.583 482.408 C 717.778 493.374, 717.233 492.674, 728.425 495.046 C 732.866 495.987, 740.047 497.517, 744.382 498.446 C 753.617 500.425, 753.199 500.707, 755.921 490.657 C 757.089 486.343, 758.809 481.393, 759.744 479.657 C 762.388 474.744, 762.534 479.074, 760.053 488.792 C 757.698 498.017, 757.468 501.917, 759.250 502.405 C 774.525 506.591, 809.666 521.274, 813.450 525.052 C 815.846 527.443, 818.054 525.810, 821.968 518.750 C 827.416 508.922, 827.620 508.647, 828.874 509.422 C 829.600 509.871, 828.623 512.784, 825.986 518.028 C 820.802 528.338, 820.864 529.081, 827.250 533.075 C 835.583 538.287, 850.325 549.279, 852.365 551.802 C 855.346 555.488, 857.866 554.212, 864.458 545.681 C 867.781 541.380, 870.939 537.859, 871.475 537.856 C 873.838 537.842, 872.673 540.353, 866.548 548.473 C 858.903 558.610, 859.109 557.760, 863.250 562.097 C 865.038 563.969, 867.758 567.354, 869.296 569.621 C 873.324 575.556, 878.058 576.127, 891 572.237 C 894.025 571.328, 897.175 570.056, 898 569.410 C 898.825 568.765, 900.400 567.958, 901.500 567.617 C 904.162 566.793, 914.274 557.394, 917.228 553 C 937.655 522.611, 920.574 477.882, 885.470 469.836 C 880.057 468.595, 879.328 468.075, 875.251 462.545 C 872.836 459.270, 869.880 455.940, 868.680 455.144 C 867.481 454.349, 865.150 452.490, 863.500 451.013 C 854.933 443.347, 835.393 437, 820.358 437 C 813.612 437, 808 433.694, 808 429.720 C 808 427.766, 793.960 413.631, 788.758 410.347 C 769.789 398.373, 747.198 394.015, 723.062 397.674 M 333 413.654 C 316.317 415.559, 297.618 420.256, 285.349 425.622 C 283.616 426.380, 281.854 427, 281.433 427 C 280.753 427, 264.041 435.199, 257.135 438.920 C 240.852 447.695, 212.201 472.623, 205.650 483.716 C 205.017 484.787, 202.925 487.793, 201 490.397 C 187.594 508.530, 178.868 535.819, 178.909 559.479 C 178.940 577.767, 178.480 577.042, 191.505 579.317 C 203.213 581.362, 203.493 581.224, 214.565 567.971 C 223.367 557.435, 232.211 551.766, 235.193 554.749 C 238.002 557.558, 236.497 561.330, 229.837 568.167 C 222.437 575.765, 223.813 580.205, 232.295 576.099 C 234.680 574.945, 237.109 574, 237.693 574 C 238.277 574, 239.315 573.325, 240 572.500 C 240.685 571.675, 241.828 571, 242.541 571 C 243.253 571, 250.961 566.956, 259.668 562.013 C 276.378 552.527, 280.935 551.141, 282.961 554.928 C 284.495 557.794, 280.569 565.512, 275.922 568.767 C 273.285 570.614, 273.690 574.549, 276.500 574.380 C 279.020 574.229, 294.825 570.138, 297.500 568.944 C 298.600 568.453, 302.200 567.100, 305.500 565.938 C 315.584 562.386, 330.968 555.246, 337.500 551.088 C 344.149 546.854, 344.616 546.569, 348.119 544.600 C 355.961 540.193, 374.449 524.010, 381.866 515.061 C 384.272 512.158, 385.997 511, 387.916 511 C 396.376 511, 394.030 519.981, 380.994 537.500 C 371.873 549.757, 374.080 552.476, 387 544.900 C 387.825 544.417, 390.300 543.051, 392.500 541.866 C 401.820 536.844, 421.965 518.759, 424.096 513.500 C 429.545 500.058, 437.363 497.793, 440.508 508.747 C 460.257 577.538, 480.027 577.944, 464.509 509.239 C 448.156 436.844, 404.945 405.437, 333 413.654 M 662.500 502.081 C 658.650 502.497, 653.700 503.047, 651.500 503.301 C 627.987 506.022, 599.532 541.504, 593.930 575.090 C 591.689 588.524, 593.644 589.090, 604.629 578.190 C 612.747 570.134, 620.548 565.174, 632.164 560.682 C 638.351 558.290, 640.905 557.448, 661.500 551.016 C 667 549.298, 672.400 547.491, 673.500 547 C 697.716 536.200, 707.991 529.810, 720.104 518.018 C 728.466 509.878, 730.306 505.588, 725.500 505.437 C 724.400 505.402, 721.250 504.845, 718.500 504.200 C 706.174 501.305, 679.129 500.281, 662.500 502.081 M 736.486 516.750 C 731.134 525.192, 706.639 544.120, 693.416 550.031 C 690.712 551.240, 686.201 553.267, 683.391 554.535 C 678.496 556.744, 644.587 568, 642.828 568 C 641.854 568, 635.406 570.796, 626 575.296 C 561.590 606.115, 587.346 700.396, 665.500 719.889 C 686.118 725.031, 743.291 727.550, 758.500 723.987 C 819.476 709.699, 845.703 680.602, 840.064 633.500 C 837.784 614.457, 836.884 610.892, 834.071 609.751 C 792.882 593.037, 757.440 558.539, 744.947 523 C 741.455 513.065, 739.662 511.741, 736.486 516.750 M 756.667 514.667 C 749.480 521.854, 781.437 565.381, 805.973 581.823 C 827.332 596.137, 845.030 602.997, 866.500 605.287 C 871.355 605.804, 867.262 587.670, 860.183 577.300 C 851.570 564.681, 825.359 543.251, 808.500 535.042 C 806.300 533.971, 803.375 532.417, 802 531.588 C 797.809 529.062, 783.333 522.197, 778.786 520.578 C 776.428 519.739, 771.350 517.918, 767.500 516.531 C 760.295 513.935, 757.824 513.510, 756.667 514.667 M 423 531.640 C 418.875 535.839, 413.925 540.334, 412 541.628 C 410.075 542.922, 405.800 545.817, 402.500 548.061 C 389.872 556.647, 367.261 566, 359.133 566 C 354.569 566, 353.590 564.953, 353.537 560.017 C 353.484 555.033, 351.729 555.170, 341.690 560.947 C 324.935 570.588, 295.980 581.458, 275.047 585.965 C 259.404 589.333, 255.163 588.275, 256.465 581.333 C 257.147 577.701, 255.150 575.807, 252.737 577.796 C 250.707 579.470, 235.603 586.974, 234.236 586.987 C 233.541 586.994, 232.191 587.460, 231.236 588.023 C 230.281 588.586, 225.481 590.053, 220.569 591.284 C 209.515 594.053, 209.795 593.407, 209.640 616.500 C 209.486 639.522, 214.436 658.424, 222.636 666.128 C 223.936 667.349, 225 668.870, 225 669.506 C 225 673.281, 245.959 689.415, 259.975 696.430 C 290.923 711.918, 344.505 718.359, 377.500 710.558 C 378.600 710.298, 383.411 709.165, 388.191 708.039 C 395.918 706.220, 409.692 701.635, 414.685 699.220 C 431.400 691.136, 455 672.686, 455 667.702 C 455 667.112, 455.807 665.700, 456.793 664.564 C 458.312 662.814, 462.076 655.053, 465.068 647.500 C 473.085 627.265, 468.622 587.753, 456.547 572.061 C 450.265 563.897, 441.707 547.947, 438.003 537.500 C 433.377 524.452, 433.168 524, 431.771 524.003 C 431.072 524.004, 427.125 527.441, 423 531.640 M 425.681 584.385 C 415.803 594.263, 423.557 609.339, 437.120 606.626 C 452.869 603.476, 450.533 581, 434.457 581 C 429.665 581, 428.691 581.376, 425.681 584.385 M 178.905 590.879 C 151.092 596.728, 159.291 634.585, 189.153 638.195 C 199.065 639.394, 204.171 631.403, 197.873 624.550 C 197.393 624.027, 197 622.070, 197 620.200 C 197 613.224, 187.913 607.340, 181.749 610.324 C 178.047 612.118, 177.569 611.934, 178.480 609.064 C 180.064 604.072, 186.998 602.831, 192.490 606.557 C 198.229 610.452, 199.455 608.893, 200.302 596.626 C 200.609 592.173, 188.377 588.887, 178.905 590.879 M 280.164 596.689 C 271.607 600.906, 269.896 613.369, 277.048 619.387 C 285.902 626.837, 299.006 620.543, 298.996 608.846 C 298.987 598.544, 289.209 592.232, 280.164 596.689 M 631.088 601.745 C 618.827 608.053, 621.841 626.321, 635.369 627.691 C 640.575 628.218, 645.647 625.717, 648.730 621.102 C 656.074 610.108, 642.910 595.663, 631.088 601.745 M 760.962 608.250 C 746.880 615.351, 753.181 636.893, 768.519 634.088 C 782.850 631.467, 785.690 613.847, 772.729 607.964 C 767.319 605.508, 766.354 605.531, 760.962 608.250 M 376.114 615.956 C 370.627 628.711, 353.971 630.001, 349.022 618.054 C 347.462 614.287, 344.492 613.245, 341.928 615.565 C 338.371 618.784, 339.641 623.502, 345.903 630.332 C 357.595 643.083, 384.856 633.399, 384.978 616.450 C 385.030 609.208, 379.158 608.881, 376.114 615.956 M 849.556 615.909 C 847.896 618.595, 850.654 625.268, 854.500 627.873 C 860.008 631.602, 860.772 636.156, 855.825 635.763 C 852.514 635.500, 852.514 635.500, 852.354 641 C 852.266 644.025, 851.882 648.136, 851.501 650.136 C 848.583 665.446, 871.215 656.780, 874.964 641.151 C 877.472 630.695, 873.964 622.707, 864.949 618.349 C 860.277 616.091, 850.410 614.527, 849.556 615.909 M 681.005 627.486 C 673.592 646.984, 709.115 659.129, 721.015 641.164 C 725.976 633.673, 722.487 623.937, 717.072 630.163 C 708.818 639.653, 708.351 640, 703.834 640 C 696.982 640, 692.881 637.236, 690.324 630.896 C 687.681 624.346, 682.869 622.584, 681.005 627.486 M 507.861 655.980 C 505.846 657.669, 505.720 658.107, 507 658.964 C 509.509 660.645, 510.755 660.140, 511.850 657 C 513.123 653.349, 511.494 652.933, 507.861 655.980 M 518.551 659.902 C 517.249 662.419, 520.928 668.109, 522.384 665.830 C 524.606 662.353, 524.931 659.666, 523.282 658.415 C 520.742 656.488, 520.233 656.648, 518.551 659.902 M 485.750 662.470 C 484.788 663.793, 484 665.074, 484 665.317 C 484 665.929, 489.715 668.237, 491.792 668.463 C 494.117 668.716, 503.066 672.699, 524.279 682.923 C 537.085 689.094, 539 689.496, 539 686.009 C 539 683.373, 535.589 681.214, 517.966 672.697 C 489.710 659.041, 488.518 658.663, 485.750 662.470 M 531 665.918 C 531 666.423, 530.758 667.468, 530.461 668.240 C 530.134 669.092, 530.920 670.098, 532.461 670.800 C 535.424 672.151, 535.515 671.896, 533.474 667.950 C 531.941 664.985, 531 664.212, 531 665.918 M 864.200 668.050 C 862.936 668.557, 859.125 669.316, 855.732 669.736 C 849.564 670.500, 849.564 670.500, 846.196 677.500 C 839.534 691.347, 829.676 703.310, 818.713 710.853 C 813.238 714.620, 812.977 716.047, 816.488 722.976 C 821.317 732.506, 824.138 744.590, 825.481 761.500 C 825.965 767.591, 827.669 783.175, 830.620 808.500 C 832.571 825.249, 831.771 824.140, 841.002 822.887 C 869.508 819.015, 873.569 811.267, 872.634 762.531 C 870.612 657.125, 871.332 665.188, 864.200 668.050 M 476.381 676.750 C 470.206 709.378, 509.153 729.703, 532.477 706.024 C 537.280 701.147, 537.280 701.147, 509.147 687.073 C 477.880 671.432, 477.415 671.286, 476.381 676.750 M 593.667 693.667 C 592.827 694.506, 592.952 714.821, 593.838 721.489 C 594.721 728.145, 596.267 728.265, 605.239 722.375 C 618.800 713.471, 619.453 712.101, 612.510 707.115 C 610.041 705.342, 605.905 701.440, 603.320 698.445 C 598.945 693.378, 595.608 691.726, 593.667 693.667 M 245.928 712.717 C 229.804 732.347, 218.591 758.325, 212.002 791.313 C 206.482 818.946, 206.559 819.779, 214.691 820.430 C 217.336 820.642, 224.827 821.358, 231.338 822.020 C 245.707 823.482, 244.554 824.558, 246.954 807.452 C 252.331 769.134, 257.095 753, 263.031 753 C 266.988 753, 266.970 753.369, 261.569 783.500 C 258.213 802.226, 253.810 838.707, 254.193 844.618 C 254.568 850.409, 254.693 850.459, 274 852.453 C 314.106 856.597, 312.271 857.244, 310.906 839.457 C 307.319 792.713, 309.521 737.108, 315.171 731.727 C 321.944 725.276, 320.838 724.028, 306 721.382 C 286.090 717.830, 274.882 714.633, 260.330 708.350 C 252.798 705.099, 251.983 705.346, 245.928 712.717 M 423.355 712.517 C 423.035 713.351, 422.999 715.038, 423.276 716.267 C 425.939 728.099, 428.257 741.725, 430.459 758.500 C 434.186 786.889, 434.991 787.586, 443.162 769.500 C 458.849 734.779, 458.596 739.877, 445.250 727.263 C 429.680 712.548, 424.645 709.156, 423.355 712.517 M 402.500 714.466 C 400.850 715.203, 395.450 716.869, 390.500 718.169 C 379.039 721.179, 377.942 723.926, 386.849 727.311 C 394.788 730.327, 396.664 733.737, 397.956 747.500 C 399.473 763.665, 400.087 819.712, 398.927 836.057 C 397.746 852.690, 397.931 853.200, 404.846 852.391 C 426.918 849.809, 425.414 852.485, 424.665 817.131 C 424.319 800.834, 423.868 786.150, 423.663 784.500 C 423.457 782.850, 422.515 774.750, 421.571 766.500 C 419.648 749.705, 414.467 721.217, 412.433 716.250 C 410.934 712.591, 407.918 712.049, 402.500 714.466 M 472.615 720.465 C 471.727 721.820, 471 723.445, 471 724.075 C 471 724.705, 469.701 727.758, 468.113 730.860 C 466.525 733.962, 463.069 741, 460.433 746.500 C 457.797 752, 455.269 756.651, 454.814 756.835 C 454.359 757.020, 454.241 757.581, 454.552 758.083 C 454.862 758.585, 454.466 760.234, 453.672 761.748 C 452.879 763.262, 451.315 766.525, 450.197 769 C 449.080 771.475, 446.725 776.650, 444.964 780.500 C 432.667 807.386, 432.946 810.929, 447.759 815.919 C 458.453 819.521, 464.202 816.402, 469.477 804.135 C 470.590 801.549, 472.828 797.197, 474.450 794.466 C 476.073 791.735, 478.442 787.475, 479.714 785 C 480.987 782.525, 483.349 778.250, 484.963 775.500 C 486.578 772.750, 489.047 768.164, 490.451 765.308 C 491.855 762.452, 493.453 759.838, 494.002 759.499 C 494.551 759.160, 495 758.208, 495 757.385 C 495 756.562, 496.414 753.101, 498.143 749.694 C 507.906 730.451, 508.271 732.092, 492.490 724.231 C 478.661 717.343, 475.102 716.669, 472.615 720.465 M 625.530 720.309 C 604.820 732.830, 604.719 733.007, 610.812 746.211 C 613.676 752.420, 616.015 757.993, 616.010 758.596 C 615.982 761.691, 619.261 766, 621.643 766 C 626.847 766, 632.833 760.525, 632.839 755.759 C 632.843 753.417, 633.330 750.233, 633.923 748.685 C 634.515 747.137, 635.003 744.887, 635.006 743.685 C 635.015 739.942, 636.924 734.391, 639.514 730.574 C 642.959 725.498, 642.703 724.577, 637.018 721.605 C 631.628 718.786, 628.611 718.446, 625.530 720.309 M 793.234 725.143 C 788.290 727.570, 786.251 730.214, 782.973 738.451 C 779.430 747.352, 770.130 758.978, 759.917 767.272 C 749.290 775.901, 749.416 774.791, 757.433 789.054 C 766.086 804.452, 768.610 808, 770.908 808 C 773.117 808, 782.612 803.437, 783.546 801.926 C 783.888 801.372, 785.818 799.871, 787.834 798.591 C 802.821 789.074, 814.011 772.109, 813.992 758.933 C 813.972 744.353, 807.711 724.022, 803.230 723.986 C 802.278 723.979, 800.600 723.765, 799.500 723.511 C 798.400 723.257, 795.580 723.991, 793.234 725.143 M 677.200 732.200 C 671.139 738.261, 676.737 742.185, 694 743.975 C 699.775 744.573, 709.751 745.759, 716.169 746.610 C 730.536 748.514, 732.263 747.975, 731.804 741.725 C 731.445 736.830, 731.876 736.972, 711.500 735.036 C 704.350 734.357, 694.450 733.172, 689.500 732.404 C 678.573 730.709, 678.689 730.711, 677.200 732.200 M 768.750 732.559 C 765.546 734.312, 765.273 736.032, 767.829 738.345 C 771.458 741.629, 775.556 738.909, 774.813 733.709 C 774.425 730.993, 772.336 730.597, 768.750 732.559 M 652.129 732.947 C 645.369 734.652, 642.226 748.415, 639.445 788.500 C 639.178 792.350, 638.548 798.650, 638.045 802.500 C 631.184 855.038, 631.552 856.417, 653 858.563 C 654.925 858.756, 657.850 859.157, 659.500 859.455 C 662.391 859.977, 691.534 862.509, 707 863.583 C 711.125 863.869, 723.625 864.757, 734.779 865.556 C 762.253 867.524, 760.124 869.148, 762.085 844.726 C 763.630 825.477, 763.873 825.906, 753.338 829.310 C 737.240 834.512, 727.034 833.084, 718.658 824.460 C 715.037 820.731, 714.595 820.635, 696.466 819.612 C 694.247 819.487, 691.997 819.134, 691.466 818.828 C 690.935 818.522, 685.584 818.200, 679.575 818.113 C 673.566 818.025, 668.119 817.514, 667.471 816.976 C 666.823 816.438, 664.314 816.243, 661.896 816.542 C 657.185 817.124, 651.845 816.034, 651.292 814.377 C 650.553 812.158, 655.676 810.681, 660.186 811.814 C 662.559 812.410, 671.250 813.181, 679.500 813.528 C 687.750 813.874, 696.075 814.525, 698 814.974 C 708.247 817.364, 711.449 815.220, 712.143 805.500 C 712.934 794.424, 713.410 794.888, 700.861 794.506 C 695.162 794.332, 685.550 793.887, 679.500 793.517 C 673.450 793.147, 665.692 792.748, 662.259 792.631 C 655.654 792.405, 653.331 791.187, 654.365 788.492 C 654.909 787.073, 656.187 786.934, 663.747 787.472 C 668.561 787.815, 675.875 788.283, 680 788.512 C 684.125 788.742, 691.775 789.167, 697 789.457 C 702.225 789.748, 708.827 790.214, 711.671 790.492 C 716.842 790.999, 716.842 790.999, 722.921 784.263 C 731.691 774.546, 730.697 773.052, 715 772.367 C 710.325 772.163, 705.825 771.702, 705 771.342 C 704.175 770.983, 699.225 770.540, 694 770.358 C 680.081 769.874, 660.018 768.109, 658.450 767.232 C 656.098 765.916, 661.494 761.498, 664.210 762.515 C 664.920 762.781, 669.550 763.470, 674.500 764.047 C 683.127 765.052, 686.884 765.426, 715 768.076 C 721.875 768.724, 728.625 769.368, 730 769.507 C 731.375 769.646, 733.210 770.057, 734.078 770.421 C 739.204 772.568, 763.888 752.772, 762.825 747.367 C 761.349 739.860, 742.128 739.103, 740.286 746.480 C 738.426 753.928, 736.208 755.258, 727 754.449 C 722.875 754.087, 717.475 753.667, 715 753.517 C 709.416 753.178, 681.816 750.225, 676.813 749.431 C 670.924 748.496, 668 745.070, 668 739.107 C 668 736.363, 667.611 733.878, 667.135 733.584 C 665.439 732.536, 655.442 732.111, 652.129 732.947 M 330.500 735.018 C 317.754 736.976, 318.462 733.985, 318.666 785 C 318.977 863.138, 314.537 857.723, 375.633 854.473 C 391.698 853.618, 390.417 858.756, 390.463 795 C 390.503 739.756, 390.423 738.818, 385.434 735.549 C 382.841 733.850, 340.752 733.443, 330.500 735.018 M 589.902 747.766 C 570.787 767.445, 584.841 791.046, 606.959 776.409 C 612.303 772.872, 612.182 771.997, 604.198 756.500 C 596.532 741.620, 596.117 741.367, 589.902 747.766 M 371.552 749.942 C 367.181 754.772, 373.885 760.335, 378.665 755.845 C 381.512 753.170, 381.548 752.548, 379 750 C 376.473 747.473, 373.806 747.452, 371.552 749.942 M 328.807 750.750 C 324.974 755.213, 327.801 760.334, 333.495 759.246 C 338.849 758.222, 340.368 753.239, 336.096 750.716 C 332.418 748.543, 330.695 748.551, 328.807 750.750 M 616.750 782.112 C 605.572 789.782, 605.493 792.942, 616.357 797.896 C 626.759 802.640, 629.602 799.002, 628.769 782.010 C 628.413 774.750, 627.466 774.758, 616.750 782.112 M 371.750 783.392 C 370.788 784.123, 370 785.971, 370 787.500 C 370 792.440, 376.047 794.815, 379.345 791.171 C 383.884 786.155, 377.170 779.278, 371.750 783.392 M 328.250 784.674 C 325.610 786.516, 325.398 788.695, 327.557 791.777 C 330.742 796.326, 338 793.497, 338 787.706 C 338 783.296, 332.623 781.624, 328.250 784.674 M 732.434 789.771 C 714.808 806.416, 728.168 829.974, 749.148 819.244 C 750.442 818.583, 752.737 817.593, 754.250 817.045 C 757.965 815.700, 757.804 813.033, 753.523 805 C 751.617 801.425, 749.094 796.700, 747.915 794.500 C 741.504 782.535, 740.440 782.210, 732.434 789.771 M 808.631 794.015 C 805.952 797.338, 802.802 800.568, 801.631 801.191 C 792.128 806.247, 792.181 805.992, 792.047 847.249 C 791.917 887.280, 791.672 889.565, 787.287 891.578 C 779.793 895.017, 678.359 891.315, 655.857 886.781 C 649.979 885.597, 643.950 887.892, 648.426 889.610 C 649.292 889.942, 650 890.743, 650 891.389 C 650 893.322, 671.963 898.381, 685.500 899.565 C 729.651 903.429, 800.772 900.150, 815.349 893.580 C 817.082 892.798, 819.544 891.858, 820.819 891.490 C 824.830 890.333, 826.852 885.654, 826.364 878.655 C 824.536 852.409, 823.273 839.281, 819.469 807 C 816.957 785.689, 816.134 784.703, 808.631 794.015 M 777.500 818.143 C 773.996 820.776, 773.489 821.666, 773.410 825.324 C 772.968 845.901, 769.294 869.610, 766.134 872.280 C 762.842 875.062, 755.641 876.984, 750.500 876.454 C 747.750 876.170, 740.775 875.773, 735 875.571 C 721.831 875.110, 682.012 872.267, 676 871.358 C 652.428 867.795, 634.291 871.361, 648.155 876.833 C 648.620 877.017, 649 877.743, 649 878.447 C 649 880.040, 662.459 882.812, 678 884.420 C 702.851 886.991, 781.198 888.202, 783.351 886.049 C 784.423 884.977, 784.730 876.982, 785.120 839.944 C 785.408 812.582, 785.302 812.280, 777.500 818.143 M 327.413 821.493 C 324.290 826.258, 328.199 831.480, 333.834 830.072 C 339.039 828.770, 339.633 820.942, 334.628 819.598 C 330.713 818.548, 329.058 818.982, 327.413 821.493 M 371.200 820.200 C 369.501 821.899, 369.712 826.569, 371.571 828.429 C 374.975 831.832, 382 829.035, 382 824.277 C 382 820.349, 374.052 817.348, 371.200 820.200 M 207.667 831.667 C 199.966 839.367, 216.305 859.794, 228.024 857.117 C 239.457 854.506, 248.554 838.062, 240.301 834.924 C 235.872 833.241, 208.796 830.538, 207.667 831.667 M 650.104 835.914 C 645.029 839.128, 652.864 841.236, 670.483 841.399 C 676.542 841.454, 682.058 841.861, 682.741 842.303 C 683.855 843.025, 691.697 843.630, 711 844.482 C 733.012 845.454, 742.982 845.980, 744.013 846.223 C 745.459 846.564, 747.701 843.368, 746.711 842.378 C 745.912 841.579, 743.785 841.356, 730 840.630 C 724.775 840.355, 716.225 839.859, 711 839.529 C 705.775 839.199, 698.125 838.715, 694 838.455 C 677.551 837.414, 665.342 836.700, 662.336 836.603 C 660.595 836.546, 658.833 836.163, 658.419 835.750 C 657.388 834.722, 651.814 834.832, 650.104 835.914 M 244.750 861.548 C 243.698 862.650, 243.816 870.312, 244.962 875.307 C 245.491 877.613, 247.129 887.600, 248.603 897.500 C 252.938 926.627, 248.988 924.075, 290.141 924.329 C 324.784 924.543, 321.504 926.644, 325.003 902 C 327.669 883.222, 327.583 883.344, 339.518 881.579 C 351.731 879.774, 355.657 883.450, 346.250 887.885 C 343.637 889.116, 340.825 890.489, 340 890.936 C 338.295 891.859, 338.100 913.916, 339.747 919.500 C 341.135 924.202, 347.397 925.060, 378.098 924.755 C 409.468 924.443, 408.436 925.001, 410.936 907 C 411.586 902.325, 412.728 895.350, 413.476 891.500 C 418.828 863.923, 418.162 860.515, 407.609 861.469 C 403.149 861.872, 396.125 862.384, 392 862.607 C 387.875 862.830, 382.025 863.262, 379 863.567 C 375.975 863.872, 355.725 864.249, 334 864.404 C 298.749 864.655, 284.972 864.250, 270 862.522 C 260.036 861.372, 245.455 860.809, 244.750 861.548 M 677.087 911.671 C 673.964 914.500, 673.964 914.500, 675.500 922 C 676.345 926.125, 677.314 930.980, 677.655 932.788 C 678.672 938.190, 688.770 940.549, 705.768 939.354 C 721.170 938.271, 723.982 935.468, 723.994 921.184 C 724.003 911.556, 723.718 911.302, 712.791 911.179 C 703.057 911.071, 692.695 910.421, 684.855 909.429 C 680.730 908.907, 679.859 909.158, 677.087 911.671 M 782 910.042 C 778.975 910.460, 771.423 910.847, 765.218 910.901 C 746.457 911.066, 744.864 912.812, 748.320 929.429 C 750.387 939.364, 779.690 944.343, 791.286 936.729 C 795.602 933.895, 798.293 915.903, 795.021 911.750 C 792.703 908.807, 791.795 908.688, 782 910.042" stroke="none" fill="#040404" fill-rule="evenodd"/></svg>