<svg viewBox="0 0 39 38"  xmlns="http://www.w3.org/2000/svg">
<g id="twitter 1" clip-path="url(#clip0_77_301)">
<g id="Group">
<path id="Vector" d="M15.4862 0.909107C12.5427 1.56128 8.71205 3.68085 6.4943 5.96346C-0.844405 13.3819 -0.804083 24.8765 6.57495 32.295C13.8733 39.6727 25.8088 39.3466 32.825 31.5613C41.6153 21.9417 37.825 6.41183 25.5669 1.68356C23.0266 0.705303 18.2282 0.338455 15.4862 0.909107ZM23.3895 2.70259C30.4862 4.61835 35.5669 10.814 35.9701 18.0287C36.3733 25.0803 32.704 31.3167 26.3733 34.4553C23.9137 35.6781 23.4701 35.7597 19.5185 35.7597C13.7524 35.7189 11.454 34.8222 7.78463 31.1129C6.33301 29.6455 4.76043 27.5667 4.27656 26.5069C1.17172 19.7406 2.42172 12.4444 7.58301 7.18628C11.8572 2.86563 17.825 1.19444 23.3895 2.70259Z" />
<path id="Vector_2" d="M20.97 12.5667C20.4055 13.1781 19.8813 13.9933 19.8813 14.4009C19.8006 15.6645 19.72 15.9091 19.4781 16.1536C18.9942 16.6428 15.1232 15.1346 13.349 13.7488L11.4942 12.2814L11.2119 13.3819C11.0506 14.0341 11.1716 14.9716 11.5748 15.8276C12.1797 17.0504 12.1797 17.2134 11.6152 17.2134C10.7281 17.2134 11.2523 18.8031 12.5023 19.9444C13.0264 20.4335 13.2684 20.8819 12.9861 20.9634C12.22 21.2488 13.4297 22.92 14.7603 23.5314L16.0103 24.0613L15.0829 24.5504C14.599 24.8357 13.349 25.1618 12.3006 25.3248L10.4458 25.6102L12.0587 26.3439C15.6071 27.9743 21.2119 26.9553 24.0748 24.2243C25.6474 22.7161 27.1393 19.6591 27.4619 17.2949C27.5829 16.2352 28.0668 14.9716 28.5103 14.4417C29.2764 13.6265 29.2764 13.5449 28.6313 13.5449C28.0264 13.5449 27.9861 13.4227 28.3893 12.9335C29.0748 12.0776 28.6716 11.7515 27.6232 12.3221C26.9377 12.6482 26.5748 12.6482 25.8893 12.1183C24.4377 11.1401 22.22 11.3439 20.97 12.5667Z" />
</g>
</g>
</svg>
