<svg xmlns="http://www.w3.org/2000/svg" height="48" viewBox="0 -960 960 960" width="48"><path d="M694.348-633.479h172.304q15.736 0 26.999 11.356 11.262 11.357 11.262 27.505 0 16.727-11.262 27.694-11.263 10.967-26.999 10.967H694.348q-17.502 0-28.381-11.143-10.88-11.142-10.88-27.586 0-16.445 10.908-27.619 10.907-11.174 28.353-11.174ZM361.105-490.391q-74.493 0-120.843-46.633-46.349-46.632-46.349-120.753 0-74.121 46.259-120.585 46.26-46.465 120.753-46.465 74.494 0 121.241 46.401t46.747 120.932q0 73.838-46.657 120.47-46.657 46.633-121.151 46.633ZM22.174-213.174v-30q0-41.177 20.16-73.021 20.159-31.844 57.492-47.979 76.435-35 137.122-48.718 60.688-13.717 123.676-13.717 64.072 0 124.506 14 60.435 14 136.87 48.435 37.334 16.488 57.993 47.849 20.659 31.362 20.659 73.151v30q0 34.932-24.385 59.053Q651.881-130 616.913-130H105.348q-34.141 0-58.658-24.121-24.516-24.121-24.516-59.053Zm83.174 0h511.565v-27.522q0-15.655-8.644-29.932-8.645-14.276-23.335-20.263-68.456-31.805-117.412-41.892-48.957-10.087-106.957-10.087-56.869 0-106.326 10.087-49.456 10.087-116.822 41.868-15.314 5.983-23.692 20.268-8.377 14.285-8.377 29.951v27.522ZM361.11-573.566q36.325 0 60.194-24.065 23.87-24.065 23.87-59.958 0-36.127-23.85-60.378-23.849-24.251-59.891-24.251t-60.194 24.277q-24.152 24.277-24.152 60.072 0 36.027 24.065 60.165 24.065 24.138 59.958 24.138Zm.02-84.043Zm0 444.435Z"/></svg>