<svg viewBox="0 0 38 38" xmlns="http://www.w3.org/2000/svg">
<g id="vk 1" clip-path="url(#clip0_77_319)">
<g id="Group">
<path id="Vector" d="M15.0265 0.909111C11.9217 1.56129 8.212 3.59933 5.95393 5.9227C-1.10252 13.0558 -1.38478 24.2243 5.30877 31.5613C12.3652 39.3466 24.0588 39.6727 31.5588 32.295C37.9297 25.977 38.8975 16.2352 33.8572 8.65368C31.9217 5.71889 28.5346 2.98792 25.1878 1.72433C22.6072 0.746067 17.6475 0.338459 15.0265 0.909111ZM24.7846 3.35476C33.6152 6.69715 37.9701 17.4173 33.9781 26.0178C30.9136 32.6618 24.9055 36.2895 17.6475 35.8819C13.1314 35.6374 9.90555 34.0477 6.59909 30.5015C3.25232 26.8738 2.3249 24.3874 2.28458 19.0477C2.28458 15.2977 2.40555 14.7678 3.5749 12.2406C5.79264 7.51237 9.70393 4.12922 14.5426 2.70259C17.083 1.92813 21.8814 2.25422 24.7846 3.35476Z" />
<path id="Vector_2" d="M16.1959 13.4226C15.8733 13.5042 15.3491 13.708 15.0266 13.7895C14.583 13.9525 14.6233 14.0748 15.1879 14.5232C15.7524 14.9308 15.954 15.6237 15.954 17.1726C15.954 18.3139 15.833 19.3737 15.6717 19.496C15.2282 19.9851 13.8975 18.5178 12.6879 16.1536L11.5588 13.9525H9.46205C8.17173 13.9525 7.32495 14.1156 7.32495 14.4009C7.32495 14.6455 8.09108 16.3574 9.0185 18.1509C11.8411 23.6944 15.3895 26.5069 18.9379 26.0993C19.7846 26.0178 20.0669 25.7324 20.1475 24.8357C20.3491 23.083 21.2362 23.083 23.0911 24.7134C24.583 26.14 24.8653 26.2216 26.962 26.0993C28.2927 26.0178 29.3008 25.7732 29.3814 25.4879C29.5024 25.2025 28.7362 24.102 27.7282 23.0014C26.7201 21.9009 25.8733 20.8411 25.8733 20.6373C25.8733 20.4335 26.6798 19.0884 27.6879 17.6618C28.6959 16.1944 29.5024 14.7678 29.5024 14.4824C29.5024 14.1156 28.7766 13.9525 26.962 13.9525H24.3814L23.6153 15.6645C22.6879 17.7841 21.075 19.7406 20.5911 19.4145C20.3895 19.2922 20.2282 18.0286 20.2282 16.5612C20.2282 14.1156 20.1475 13.9118 19.1798 13.5449C18.0911 13.0966 17.1637 13.0558 16.1959 13.4226Z" />
</g>
</g>
</svg>
