<svg xmlns="http://www.w3.org/2000/svg" width="564" height="580" viewBox="0 0 564 580" version="1.1"><path d="M 237.500 1.021 C 188.309 5.899, 142.654 33.140, 116.866 73.001 L 110.500 82.841 103.500 84.009 C 80.026 87.926, 62.316 95.194, 45.196 107.937 C 16.841 129.043, 1.553 160.494, 3.362 194 C 4.679 218.382, 12.699 237.202, 29.157 254.528 C 41.307 267.319, 56.188 275.825, 76.250 281.445 C 79.412 282.331, 81.992 283.381, 81.983 283.778 C 81.973 284.175, 81.289 287.650, 80.462 291.500 C 78.399 301.107, 72.473 336.499, 70.081 353.500 C 67.161 374.246, 66.525 384.244, 67.956 386.917 C 68.902 388.686, 68.879 390.270, 67.848 394.333 C 66.042 401.446, 66.283 421.953, 68.258 429.258 L 69.814 435.016 64.284 438.687 C 57.815 442.981, 53.877 448.040, 50.984 455.772 C 48.847 461.484, 48.181 471.783, 49.575 477.550 C 51.660 486.177, 59.606 496.738, 68.500 502.704 C 74.544 506.759, 83.136 509.219, 92.500 509.577 L 101.500 509.920 107.113 517.210 C 123.387 538.345, 147.517 554.398, 180.569 566.077 C 227.458 582.646, 296.263 584.661, 350 571.037 C 389.777 560.953, 417.558 544.655, 438.759 518.965 L 444.749 511.706 453.124 511.499 C 474.240 510.978, 491.438 498.338, 496.506 479.616 C 500.732 464.003, 493.075 446.734, 478.651 439.349 C 474.543 437.245, 473.899 436.532, 474.441 434.683 C 477.039 425.803, 478.123 417.477, 477.849 408.500 C 477.642 401.697, 477.980 397.449, 478.908 395.214 C 480.042 392.484, 480.070 389.016, 479.075 374.714 C 477.261 348.640, 473.424 312.688, 471.456 303.322 C 471.038 301.334, 471.499 301.092, 476.749 300.544 C 510.901 296.983, 539.270 277.945, 553.848 248.802 C 569.545 217.423, 566.183 179.364, 544.903 147.548 C 538.724 138.308, 529.082 128.470, 520.693 122.844 C 517.287 120.559, 514.398 118.620, 514.272 118.534 C 514.147 118.448, 512.908 114.456, 511.519 109.661 C 506.222 91.384, 494.552 71.731, 480.029 56.633 C 457.484 33.195, 427.999 18.285, 393.500 12.875 C 380.643 10.859, 357.572 11.311, 342.902 13.866 C 330.361 16.050, 330.284 16.051, 325.790 14.124 C 316.629 10.198, 298.935 5.012, 287.877 3.015 C 274.706 0.635, 250.898 -0.307, 237.500 1.021 M 239 8.973 C 213.578 11.476, 183.881 22.654, 162.712 37.688 C 152.402 45.011, 132.877 64.332, 126.605 73.421 C 119.473 83.755, 113.266 94.963, 112.025 99.750 C 111.173 103.036, 110.451 104, 108.841 104 C 106.915 104, 106.792 103.551, 107.194 98 C 107.700 91.003, 107.598 90.959, 96.812 93.469 C 74.873 98.575, 55.416 108.927, 40.785 123.277 C 18.468 145.167, 8.907 172.461, 13.356 201.579 C 16.219 220.317, 22.968 234.628, 34.911 247.288 C 45.548 258.565, 59.018 266.504, 75.047 270.946 C 84.034 273.436, 84 273.435, 84 271.223 C 84 266.732, 86.763 265.215, 107.095 258.542 C 129.637 251.145, 132.179 250.012, 140.138 243.827 L 145.776 239.445 139.700 237.654 C 129.111 234.534, 119.209 227.391, 121.833 224.767 C 122.775 223.825, 123.638 223.951, 125.770 225.341 C 135.786 231.872, 144.193 234, 159.977 234 C 176.090 234, 189.162 230.177, 201.583 221.830 L 207.666 217.742 205.207 215.121 C 196.723 206.077, 188.381 190.219, 190.823 187.777 C 192.445 186.155, 194.672 187.551, 195.438 190.669 C 196.643 195.579, 204.048 205.866, 210.898 212.148 C 223.195 223.425, 238.669 230.058, 257 231.912 C 270.638 233.292, 335.769 234.220, 340 233.095 C 366.404 226.076, 386.752 214.322, 401.604 197.510 C 405.029 193.633, 407.766 191.357, 408.612 191.681 C 411.074 192.626, 410.126 194.644, 403.462 202.648 C 399.867 206.967, 396.668 211.511, 396.355 212.746 C 395.521 216.034, 397.504 225.956, 400.121 231.597 C 403.364 238.584, 412.420 247.110, 421.218 251.458 C 441.997 261.728, 463.958 261.580, 487.979 251.009 C 494.817 248, 497.598 247.203, 498.403 248.020 C 499.764 249.403, 497.814 250.981, 489.500 255.224 C 477.478 261.358, 464.977 264.415, 448.500 265.247 L 443.500 265.500 455.315 269.750 C 463.125 272.559, 468.718 273.982, 471.815 273.948 C 475.763 273.905, 487.023 271.341, 495.750 268.499 C 497.406 267.960, 498 268.161, 498 269.261 C 498 270.083, 497.437 271.219, 496.750 271.787 C 494.891 273.321, 483.885 276.852, 478.877 277.520 C 467.270 279.070, 468.145 278.577, 468.661 283.277 C 469.643 292.226, 469.072 291.717, 477.157 290.853 C 491.039 289.370, 507.535 282.800, 520.292 273.675 C 554.593 249.140, 564.379 202.578, 543.659 162.500 C 536.451 148.558, 523.871 133.583, 515.893 129.448 L 513.285 128.096 512.666 135.421 C 511.891 144.594, 510.583 148.260, 508.247 147.807 C 506.692 147.506, 506.535 146.315, 506.816 136.984 C 507.963 98.973, 478.501 56.365, 436.458 35.231 C 413.453 23.668, 385.276 18.159, 359.119 20.111 C 347.439 20.983, 343.950 21.610, 344.065 22.817 C 344.101 23.193, 347.969 25.975, 352.661 29 C 363.322 35.874, 377.015 48.636, 377.006 51.691 C 376.995 55.633, 375.062 55.215, 369.236 50.013 C 362.014 43.563, 346.924 33.508, 336.500 28.199 C 306.431 12.886, 270.738 5.848, 239 8.973 M 28.726 171.250 C 26.403 181.518, 26.028 192.500, 28 192.500 C 29.157 192.500, 29.761 190.215, 30.640 182.500 C 31.268 177, 32.113 170.588, 32.518 168.250 C 33.105 164.871, 32.960 164, 31.811 164 C 30.834 164, 29.834 166.352, 28.726 171.250 M 389.883 183.680 C 380.221 198.509, 360.582 214.877, 340.750 224.628 C 333.652 228.118, 330.814 231, 334.475 231 C 337.202 231, 356.657 220.445, 364.991 214.445 C 381.280 202.717, 401.930 177, 395.058 177 C 394.606 177, 392.276 180.006, 389.883 183.680 M 541.636 199.640 C 540.621 207.044, 540.844 210, 542.417 210 C 544.137 210, 546.087 201.734, 545.306 197.750 C 544.452 193.394, 542.343 194.479, 541.636 199.640 M 207 224.143 C 202.319 228.116, 188.922 234.616, 181.500 236.515 C 175.600 238.025, 160.005 239.989, 157.023 239.598 C 156.185 239.488, 154.245 240.623, 152.711 242.120 L 149.922 244.841 155.711 243.497 C 166.868 240.906, 195.631 236.086, 209.500 234.482 C 217.200 233.592, 224.129 232.658, 224.899 232.406 C 225.728 232.135, 223.897 230.506, 220.399 228.404 C 217.154 226.454, 213.600 224.030, 212.500 223.016 C 210.546 221.215, 210.419 221.242, 207 224.143 M 383.968 223.734 C 379.608 226.812, 359.167 237, 357.352 237 C 356.608 237, 356 237.388, 356 237.862 C 356 238.337, 358.363 239.009, 361.250 239.356 C 365.539 239.871, 381.681 243.421, 398.500 247.546 L 401.500 248.282 399.378 245.891 C 395.171 241.151, 391.792 235.020, 389.635 228.217 L 387.437 221.285 383.968 223.734 M 46.106 233.913 C 45.008 234.609, 45.644 235.876, 49.106 239.897 C 53.597 245.112, 54.460 245.683, 55.443 244.092 C 55.885 243.377, 48.625 232.955, 47.727 233.015 C 47.602 233.024, 46.873 233.428, 46.106 233.913 M 233.500 239.607 C 231.300 239.831, 222.300 240.706, 213.500 241.552 C 180.689 244.703, 148.580 251.343, 123.313 260.201 C 106.803 265.988, 108.169 264.514, 104.562 280.448 C 102.436 289.837, 100 294.229, 100 288.671 C 100 286.143, 102.493 272.174, 103.523 268.928 C 104.045 267.283, 103.716 267.300, 98.792 269.168 C 95.881 270.273, 93.368 271.306, 93.207 271.464 C 91.506 273.138, 77.282 363.616, 78.525 364.859 C 78.764 365.097, 81.555 364.137, 84.729 362.725 C 97.504 357.045, 131.314 346.458, 133.120 347.574 C 133.604 347.873, 134 348.947, 134 349.959 C 134 351.355, 132.729 352.103, 128.750 353.052 C 121.651 354.745, 94.323 364.053, 84.750 368.039 L 77 371.266 77 375.545 L 77 379.825 86.750 376.461 C 107.408 369.335, 131.162 363.665, 159.500 359.096 C 180.405 355.726, 199.462 354.083, 232.052 352.843 C 290.898 350.603, 350.831 354.764, 391.741 363.930 C 407.871 367.544, 433.057 374.722, 446.500 379.536 C 453.650 382.097, 461.863 385.025, 464.750 386.042 L 470 387.892 470 382.378 L 470 376.863 460.250 372.296 C 454.887 369.784, 446.901 366.425, 442.502 364.830 C 433.557 361.589, 431.628 360.219, 432.963 358.060 C 433.706 356.857, 435.800 357.330, 445.676 360.930 C 452.179 363.300, 460.087 366.542, 463.250 368.134 L 469 371.029 469 365.392 C 469 351.866, 460.259 281.805, 458.345 279.987 C 457.880 279.546, 455.884 278.521, 453.908 277.710 L 450.316 276.234 450.809 281.365 C 451.259 286.048, 451.158 286.376, 449.651 285.125 C 448.743 284.372, 448 282.896, 448 281.845 C 448 280.795, 447.345 278.367, 446.544 276.450 C 445.296 273.464, 443.755 272.337, 435.794 268.591 C 425.074 263.547, 410.164 257.905, 401.500 255.614 C 377.874 249.366, 350.057 244.220, 325 241.461 C 311.217 239.944, 243.642 238.574, 233.500 239.607 M 524.501 247.696 C 521.328 251.845, 521.073 252.550, 522.629 252.865 C 524.516 253.247, 531.227 246.319, 530.672 244.563 C 529.932 242.225, 527.892 243.261, 524.501 247.696 M 64.406 248.152 C 63.107 250.254, 72.454 255.531, 75.444 254.383 C 78.129 253.353, 77.179 252.229, 71.379 249.573 C 64.847 246.583, 65.317 246.678, 64.406 248.152 M 511 258.668 C 504.821 262.278, 502.770 264.170, 503.857 265.257 C 504.956 266.356, 511.722 263.073, 514.353 260.164 C 517.510 256.673, 515.755 255.890, 511 258.668 M 451 296.441 C 451 298.334, 451.450 300.160, 452 300.500 C 452.604 300.873, 453 299.510, 453 297.059 C 453 294.827, 452.550 293, 452 293 C 451.450 293, 451 294.548, 451 296.441 M 98.633 304.750 C 98.344 306.262, 97.834 309.525, 97.500 312 C 97.166 314.475, 96.647 317.779, 96.347 319.343 C 95.896 321.690, 96.114 322.125, 97.600 321.838 C 100.682 321.245, 103.573 302, 100.579 302 C 99.798 302, 98.922 303.238, 98.633 304.750 M 453.198 317.261 C 453.571 323.736, 455.392 324.166, 455.800 317.876 C 456.027 314.367, 455.713 313.104, 454.498 312.638 C 453.133 312.114, 452.941 312.798, 453.198 317.261 M 95.699 327.697 C 95.433 328.139, 95.055 331.831, 94.858 335.903 C 94.607 341.083, 94.864 343.431, 95.713 343.724 C 97.180 344.230, 97.875 341.439, 98.232 333.604 C 98.404 329.818, 98.086 327.563, 97.342 327.302 C 96.705 327.078, 95.966 327.256, 95.699 327.697 M 250.500 331.878 C 248.386 332.330, 247.500 333.108, 247.500 334.510 C 247.500 336.341, 248.181 336.500, 256 336.500 C 263.898 336.500, 264.521 336.350, 264.802 334.380 C 265.017 332.875, 264.438 332.082, 262.802 331.644 C 260.024 330.900, 254.591 331.003, 250.500 331.878 M 275.696 332.191 C 274.558 333.050, 274.136 334.190, 274.553 335.276 C 275.486 337.708, 290.738 337.847, 291.664 335.433 C 292.605 332.982, 291.004 332.154, 284 331.467 C 279.246 331.001, 277.015 331.196, 275.696 332.191 M 454 341.417 C 454 347.238, 454.410 352, 454.910 352 C 455.861 352, 457.471 336.677, 456.855 333.496 C 456.660 332.489, 455.938 331.478, 455.250 331.250 C 454.303 330.934, 454 333.395, 454 341.417 M 221.692 333.681 C 220.512 333.999, 219.990 334.922, 220.192 336.335 C 220.471 338.294, 221.023 338.475, 226 338.233 C 235.452 337.775, 238.161 337.077, 237.802 335.193 C 237.538 333.813, 236.187 333.472, 230.489 333.346 C 226.645 333.262, 222.686 333.412, 221.692 333.681 M 301.429 334.325 C 300.375 337.070, 301.811 337.812, 309.595 338.541 C 315.441 339.089, 317.492 338.937, 318.552 337.876 C 321.260 335.168, 318.611 333.705, 310.110 333.212 C 303.387 332.823, 301.934 333.009, 301.429 334.325 M 201.093 335.083 C 194.099 335.989, 192.393 336.977, 193.380 339.548 C 193.934 340.992, 194.981 341.134, 200.763 340.554 C 209.676 339.659, 211 339.205, 211 337.040 C 211 335.617, 208.542 333.468, 207.668 334.127 C 207.576 334.197, 204.617 334.627, 201.093 335.083 M 328.350 336.529 C 327.340 339.161, 330.125 340.634, 337.546 341.394 C 344.461 342.103, 346 341.754, 346 339.476 C 346 337.364, 343.225 336.283, 335.763 335.488 C 329.857 334.858, 328.942 334.987, 328.350 336.529 M 170.250 339.166 C 167.151 339.860, 166 340.612, 166 341.942 C 166 344.346, 168.754 344.968, 174.671 343.900 C 183.299 342.343, 184 342.048, 184 339.981 C 184 338.269, 183.354 338.015, 179.250 338.107 C 176.637 338.166, 172.588 338.642, 170.250 339.166 M 355 341.025 C 355 343.563, 357.955 344.735, 366.578 345.618 C 373.125 346.289, 373.175 346.275, 372.839 343.897 C 372.553 341.874, 371.642 341.320, 367 340.346 C 358.073 338.474, 355 338.648, 355 341.025 M 150.500 342.502 C 149.950 342.717, 147.588 343.384, 145.250 343.985 C 142.066 344.803, 141 345.569, 141 347.039 C 141 349.426, 144.891 349.638, 152.500 347.665 C 156.330 346.672, 157.500 345.917, 157.500 344.435 C 157.500 342.995, 156.733 342.450, 154.500 342.306 C 152.850 342.199, 151.050 342.287, 150.500 342.502 M 381.378 344.458 C 380.474 346.812, 381.898 347.889, 388.101 349.539 C 396.030 351.650, 400 351.479, 400 349.028 C 400 347.504, 398.808 346.720, 394.750 345.576 C 385.061 342.845, 382.092 342.597, 381.378 344.458 M 407.974 351.048 C 406.713 353.404, 408.813 354.637, 418.199 357.051 C 423.822 358.498, 425.119 358.561, 426.053 357.436 C 427.769 355.368, 426.523 354.329, 419.739 352.172 C 409.915 349.047, 409.087 348.968, 407.974 351.048 M 226.737 360.010 C 216.417 360.386, 207.723 360.944, 207.417 361.250 C 207.111 361.556, 209.141 363.087, 211.929 364.653 C 214.717 366.219, 216.998 368.093, 216.999 368.817 C 217 370.558, 214.290 369.702, 205.760 365.267 C 199.215 361.864, 198.796 361.783, 191.260 362.456 C 182.805 363.210, 168.482 365.491, 165.850 366.503 C 164.118 367.169, 142.286 389.797, 134.817 398.667 C 130.793 403.447, 125.306 411.289, 118.668 421.750 C 113.879 429.298, 112.172 426.406, 116.624 418.285 C 124.131 404.592, 128.949 398.366, 145.821 380.554 C 152.597 373.400, 157.668 367.389, 157.090 367.197 C 155.971 366.824, 133.082 371.225, 126.704 373.039 C 123.773 373.873, 121.873 375.526, 118.362 380.295 C 113.554 386.825, 106.248 401.177, 103.523 409.442 C 101.940 414.244, 99.018 431.243, 99.006 435.721 L 99 437.943 105.250 435.247 C 113.299 431.774, 127.843 423.803, 135.500 418.666 C 145.808 411.751, 158.921 397.664, 163.814 388.250 C 166.172 383.712, 168.347 380, 168.647 380 C 168.948 380, 172.149 382.708, 175.760 386.017 C 187.978 397.213, 199.696 403.808, 216 408.666 C 222.933 410.732, 227.172 411.271, 239 411.591 L 253.500 411.983 247.500 410.474 C 225.357 404.902, 204.940 394.612, 185.923 379.438 C 182.182 376.454, 178.407 372.997, 177.534 371.756 C 174.045 366.801, 179.200 368.965, 189.770 376.893 C 213.550 394.729, 236.758 404.486, 261.742 407.151 C 269.103 407.937, 274.026 407.940, 279.242 407.164 C 285.407 406.246, 286.726 406.313, 288 407.606 C 289.335 408.962, 289.240 409.342, 287.130 411.072 C 285.826 412.141, 281.551 413.951, 277.630 415.095 C 260.862 419.986, 261.213 419.589, 273 420.335 C 286.811 421.210, 311 418.349, 311 415.841 C 311 415.378, 310.566 415, 310.035 415 C 309.504 415, 307.456 413.584, 305.485 411.852 C 299.743 406.811, 300.752 405.168, 312.251 400.844 C 323.063 396.778, 337.757 389.211, 347.876 382.497 C 351.519 380.079, 354.653 378.537, 354.839 379.068 C 355.556 381.112, 342.939 389.758, 325.708 399.029 C 312.612 406.076, 312.072 407.811, 323.368 406.544 C 342.238 404.426, 364.850 396.857, 376.154 388.874 C 379.338 386.626, 380 386.549, 380 388.423 C 380 390.136, 368.648 397.834, 361 401.306 C 354.592 404.216, 341.085 408.393, 332.500 410.120 L 326.500 411.327 331 412.713 C 342.424 416.231, 358.558 416.128, 371 412.458 C 381.123 409.471, 397.369 399.416, 399.993 394.512 C 401.210 392.239, 401.110 391.119, 399.142 385.008 L 396.911 378.081 392.241 381.646 C 386.823 385.782, 385.209 384.527, 389.690 379.663 C 395.720 373.118, 395.717 373.292, 389.822 371.526 C 374.541 366.948, 327.957 361.447, 292.414 360.024 C 265.617 358.950, 255.873 358.948, 226.737 360.010 M 230.686 374.376 C 229.616 377.164, 241.586 380.516, 257.648 381.926 C 274.984 383.447, 297.018 381.139, 306.530 376.804 C 309.369 375.511, 309.984 372.487, 307.250 373.264 C 292.315 377.510, 288.400 378.202, 276.500 378.702 C 262.751 379.279, 245.243 377.408, 236.922 374.472 C 231.788 372.661, 231.347 372.654, 230.686 374.376 M 405 375.388 C 405 375.602, 406.135 379.693, 407.522 384.479 C 413.218 404.135, 425.868 423.605, 439.276 433.354 C 443.003 436.064, 446.317 438.016, 446.641 437.692 C 446.965 437.369, 446.496 428.912, 445.600 418.900 C 444.704 408.888, 444.172 400.495, 444.419 400.248 C 445.577 399.090, 446.827 401.451, 447.849 406.726 C 449.919 417.407, 454 445.839, 454.015 449.687 C 454.027 452.517, 454.281 453.113, 455 452 C 455.533 451.175, 455.982 448.700, 455.998 446.500 C 456.037 441.139, 456.961 438, 458.500 438 C 460.174 438, 461.035 441.537, 460.302 445.399 C 459.348 450.421, 460.513 448.109, 463.779 438.500 C 469.435 421.857, 470.204 402.113, 465.383 397.292 C 461.145 393.054, 460.500 394.094, 460.500 405.163 C 460.500 412.007, 460.120 415.456, 459.335 415.719 C 458.562 415.979, 457.965 413.825, 457.556 409.305 C 456.892 401.955, 455.247 391.913, 454.601 391.267 C 453.247 389.913, 420.977 379, 418.327 379 C 417.785 379, 424.292 389.793, 430.382 398.995 C 436.696 408.534, 442 417.848, 442 419.395 C 442 419.728, 441.401 420, 440.668 420 C 438.885 420, 433.452 412.525, 421.465 393.577 C 415.142 383.582, 410.513 377.309, 408.800 376.413 C 406.053 374.976, 405 374.692, 405 375.388 M 99.584 380.543 C 91.931 382.987, 84.660 385.648, 83.427 386.456 C 78.592 389.624, 75.165 408.600, 77.003 422.024 C 78.408 432.282, 80.403 438.905, 84.646 447.397 C 90.627 459.367, 90.487 459.383, 91.819 446.603 C 93.821 427.397, 101.898 402.064, 112.018 383.250 C 114.216 379.163, 115.390 376.022, 114.709 376.050 C 114.044 376.077, 107.238 378.099, 99.584 380.543 M 170 396.076 C 170 397.988, 161.444 408.339, 154.270 415.107 C 143.721 425.058, 135.259 430.651, 116.534 440.051 L 99.500 448.601 99 459.453 C 98.589 468.371, 98.204 470.411, 96.838 470.902 C 95.323 471.447, 95.380 472.142, 97.487 478.770 C 106.869 508.283, 126.077 530.229, 156.204 545.854 C 187.516 562.094, 221.134 570.204, 263 571.616 C 309.499 573.185, 350.477 565.780, 384.308 549.696 C 399.389 542.526, 408.782 536.181, 419.348 526.029 C 430.640 515.177, 436.987 506.788, 442.445 495.500 C 448.358 483.269, 450.356 477.134, 448.969 475.463 C 448.373 474.744, 447.621 468.608, 447.298 461.828 L 446.712 449.500 442.736 447.610 C 435.920 444.371, 419.586 427.733, 412.246 416.554 C 408.616 411.024, 405.333 406.131, 404.952 405.679 C 404.570 405.228, 401.163 406.942, 397.379 409.488 C 388.721 415.316, 378.255 420.328, 369.940 422.629 C 361.783 424.886, 341.661 424.906, 331.479 422.668 C 324.626 421.161, 324.278 421.182, 316.981 423.572 C 303.970 427.834, 295.424 429.125, 280 429.156 C 265.109 429.187, 249.397 426.864, 241.130 423.410 C 239.167 422.590, 234.238 421.457, 230.175 420.892 C 211.505 418.295, 197.276 412.844, 181.668 402.310 C 175.711 398.290, 170.649 395, 170.418 395 C 170.188 395, 170 395.484, 170 396.076 M 67.747 446.750 C 45.965 463.507, 60.218 498.206, 89.905 500.695 L 97.197 501.307 95.102 497.200 C 93.949 494.941, 92.076 490.606, 90.939 487.568 C 89.083 482.606, 88.480 481.937, 85.027 481.007 C 82.912 480.438, 79.790 478.673, 78.091 477.085 C 74.165 473.418, 73.991 469.064, 77.564 463.908 L 80.127 460.209 76.052 452.104 C 73.811 447.647, 71.830 444, 71.650 444 C 71.470 444, 69.713 445.238, 67.747 446.750 M 468.437 452.707 C 465.002 460.246, 464.949 460.540, 466.770 462.015 C 470.525 465.056, 472.259 468.805, 471.581 472.419 C 470.842 476.359, 465.922 481.175, 460.714 483.059 C 457.702 484.148, 456.862 485.319, 453.648 492.910 C 451.642 497.648, 450 501.856, 450 502.262 C 450 503.484, 456.211 503.096, 462.380 501.489 C 482.932 496.136, 494.608 475.646, 486.443 459.261 C 483.973 454.305, 478.417 448.364, 474.081 446.043 C 472.134 445.001, 471.734 445.474, 468.437 452.707 M 167.500 453.475 C 164.750 454.265, 162.211 454.932, 161.858 454.956 C 161.505 454.980, 158.895 457.087, 156.058 459.637 C 149.228 465.779, 146.800 470.722, 146.215 479.680 C 145.796 486.101, 146.061 487.533, 148.727 493.230 C 154.894 506.409, 169.533 512.973, 182.873 508.542 C 189.826 506.233, 198.050 498.636, 200.986 491.810 C 205.467 481.394, 202.372 467.952, 193.588 459.685 C 186.941 453.429, 176.396 450.919, 167.500 453.475 M 353.606 454.568 C 347.857 456.675, 341.820 462.078, 338.597 467.999 C 328.845 485.916, 340.434 508.141, 360.362 509.741 C 373.049 510.759, 383.516 505.130, 389.039 494.317 C 392.685 487.180, 392.540 476.618, 388.689 468.776 C 383.676 458.567, 374.264 452.908, 362.568 453.070 C 359.781 453.109, 355.748 453.783, 353.606 454.568 M 178.223 461.557 C 173.729 464.704, 176.490 472, 182.174 472 C 187.541 472, 190.100 464.584, 185.777 461.557 C 184.555 460.701, 182.855 460, 182 460 C 181.145 460, 179.445 460.701, 178.223 461.557 M 368 463 C 365.370 465.630, 365.472 468.155, 368.314 470.826 C 371.059 473.404, 372.776 473.546, 375.777 471.443 C 380.108 468.410, 377.549 461, 372.171 461 C 370.977 461, 369.100 461.900, 368 463 M 81.872 467.667 C 81.217 471.947, 81.475 473.184, 83.220 474.118 C 85.840 475.520, 86.275 474.839, 85.261 470.928 C 84.480 467.912, 82.174 465.694, 81.872 467.667 M 461.053 470.750 C 459.140 477.636, 460.009 478.748, 463.991 474.510 C 466.002 472.369, 466.169 471.667, 465.186 469.510 C 463.582 465.988, 462.265 466.383, 461.053 470.750 M 255.732 488.130 C 251.865 490.294, 254.981 497.929, 260.981 500.990 C 266.127 503.615, 271.516 503.535, 277.038 500.750 C 284.516 496.979, 287.340 488.109, 281.350 487.207 C 280.071 487.014, 278.290 488.300, 276.155 490.957 C 273.370 494.423, 272.354 495, 269.042 495 C 265.906 495, 264.667 494.388, 262.465 491.750 C 258.959 487.550, 257.842 486.949, 255.732 488.130" stroke="none"  fill-rule="evenodd"/></svg>