<svg xmlns="http://www.w3.org/2000/svg" width="512" height="512" viewBox="0 0 512 512" version="1.1"><path d="M 191.904 1.760 C 186.508 5.039, 185.022 8.906, 180.407 31.689 C 177.977 43.685, 175.509 55.862, 174.923 58.750 L 173.858 64 143.478 64 C 125.322 64, 110.966 64.441, 107.799 65.097 C 87.700 69.258, 69.118 87.628, 65.028 107.380 C 64.298 110.904, 64.051 168.148, 64.234 291 L 64.500 469.500 66.779 475.500 C 72.613 490.861, 85.139 503.387, 100.500 509.221 L 106.500 511.500 253.293 511.766 C 415.567 512.061, 405.601 512.426, 418.500 505.706 C 426.978 501.289, 437.647 490.265, 441.836 481.593 C 448.384 468.042, 448.059 478.801, 447.766 284.736 L 447.500 108.500 444.921 101.880 C 437.306 82.330, 423.708 69.971, 404.947 65.549 C 399.926 64.366, 391.748 64.026, 367.982 64.015 L 337.464 64 332.265 37.896 C 329.405 23.538, 326.263 10.157, 325.282 8.159 C 324.302 6.161, 321.971 3.508, 320.102 2.263 L 316.704 -0 255.602 0.091 C 201.824 0.172, 194.189 0.372, 191.904 1.760 M 207.623 53.240 C 205.017 66.033, 202.655 77.287, 202.375 78.250 C 201.894 79.901, 204.889 80, 255.433 80 C 297.646 80, 308.990 79.735, 308.952 78.750 C 308.925 78.063, 306.767 66.925, 304.155 54 L 299.407 30.500 255.885 30.240 L 212.362 29.979 207.623 53.240 M 108.168 97.603 C 102.942 100.208, 99.874 103.430, 96.368 110 C 94.564 113.379, 94.500 119.524, 94.500 288 C 94.500 446.940, 94.645 462.819, 96.125 466.073 C 98.573 471.456, 103.538 476.593, 108.794 479.182 L 113.500 481.500 255.500 481.500 C 397.391 481.500, 397.503 481.498, 402.011 479.412 C 407.446 476.896, 412.036 472.488, 414.603 467.320 C 416.441 463.619, 416.508 458.068, 416.758 289.205 L 417.017 114.910 414.869 109.917 C 412.345 104.050, 405.369 97.475, 400.123 96.017 C 398.112 95.459, 384.650 95.009, 369.878 95.006 L 343.256 95 342.628 98.923 C 341.856 103.754, 337.344 108.533, 332.209 109.959 C 329.816 110.623, 302.412 110.983, 255 110.972 C 185.607 110.957, 181.272 110.853, 177.421 109.104 C 172.532 106.883, 169.282 103.020, 168.415 98.399 L 167.777 95 140.585 95 L 113.393 95 108.168 97.603 M 154.619 161.019 C 148.722 162.816, 144 169.514, 144 176.082 C 144 180.609, 147.639 186.429, 152.004 188.882 C 155.727 190.974, 156.499 191, 215.636 190.984 L 275.500 190.967 279.396 188.734 C 289.356 183.023, 289.498 169.871, 279.677 162.592 C 276.894 160.529, 276.022 160.497, 217.177 160.321 C 184.355 160.222, 156.204 160.536, 154.619 161.019 M 151.102 243.161 C 141.819 249.549, 141.819 262.451, 151.102 268.839 C 153.905 270.767, 155.471 271.109, 160.045 270.789 C 168.986 270.165, 174.385 264.596, 174.385 256 C 174.385 247.404, 168.986 241.835, 160.045 241.211 C 155.471 240.891, 153.905 241.233, 151.102 243.161 M 233.500 241.943 C 230.035 243.356, 226.045 248.121, 224.964 252.134 C 223.067 259.178, 227.213 267.601, 233.815 270.118 C 235.088 270.603, 263.213 270.998, 296.315 270.996 C 354.606 270.993, 356.603 270.930, 359.759 269.005 C 364.317 266.227, 366.993 261.416, 366.993 256 C 366.993 250.584, 364.317 245.773, 359.759 242.995 C 356.599 241.068, 354.665 241.009, 296 241.067 C 262.725 241.100, 234.600 241.494, 233.500 241.943 M 151.859 323.158 C 147.590 325.633, 144 331.462, 144 335.918 C 144 343.405, 149.726 350.271, 156.993 351.499 C 166.500 353.105, 176.105 343.500, 174.499 333.993 C 172.734 323.550, 160.927 317.899, 151.859 323.158 M 233.450 322.407 C 221.761 327.498, 221.467 343.953, 232.962 349.750 L 237.424 352 295.896 352 C 352.992 352, 354.469 351.951, 358.647 349.929 C 364.239 347.222, 367 342.711, 367 336.280 C 367 330.242, 364.078 325.313, 358.980 322.752 C 355.781 321.144, 350.698 321.006, 296 321.041 C 248.792 321.071, 235.870 321.353, 233.450 322.407 M 154.619 402.034 C 148.736 403.796, 144 410.507, 144 417.082 C 144 424.249, 151.751 432, 158.918 432 C 166.405 432, 173.271 426.274, 174.499 419.007 C 175.526 412.928, 171.922 406.217, 166.038 403.250 C 161.308 400.865, 159.256 400.646, 154.619 402.034 M 232.962 403.250 C 224.172 407.682, 221.652 418.867, 227.797 426.171 C 232.797 432.113, 231.471 432, 296.218 431.998 C 350.662 431.997, 355.784 431.854, 358.980 430.248 C 364.078 427.687, 367 422.758, 367 416.720 C 367 410.289, 364.239 405.778, 358.647 403.071 C 354.469 401.049, 352.992 401, 295.896 401 L 237.424 401 232.962 403.250"  fill-rule="evenodd"/></svg>