<svg xmlns="http://www.w3.org/2000/svg" viewBox="187.27 -763.42 585.46 565.23"><path d="M480-491.501q-56.442 0-96.201-39.759-39.759-39.759-39.759-96.201 0-56.442 39.759-96.201 39.759-39.759 96.201-39.759 56.442 0 96.201 39.759 39.759 39.759 39.759 96.201 0 56.442-39.759 96.201-39.759 39.759-96.201 39.759ZM187.271-254.924v-27.399q0-28.583 15.304-52.563 15.304-23.98 41.672-37.053 58.614-28.275 117.549-42.667 58.935-14.393 118.21-14.393 59.275 0 118.249 14.384 58.975 14.385 117.544 42.663 26.347 13.074 41.639 37.057 15.291 23.983 15.291 52.569v27.402q0 23.642-16.544 40.186T716-198.194H244q-23.641 0-40.185-16.544-16.544-16.544-16.544-40.186Zm55.96.77h473.538v-28.066q0-12.393-7.038-22.798-7.039-10.406-19.424-17.136-51.434-25.154-104.081-38.02-52.647-12.865-106.251-12.865-53.953 0-106.426 12.865-52.472 12.866-103.664 38.02-12.577 6.73-19.616 17.172-7.038 10.442-7.038 22.713v28.115ZM480-547.461q33 0 56.5-23.5t23.5-56.5q0-33-23.5-56.5t-56.5-23.5q-33 0-56.5 23.5t-23.5 56.5q0 33 23.5 56.5t56.5 23.5Zm0-80Zm0 373.307Z"/></svg>