<svg xmlns="http://www.w3.org/2000/svg" viewBox="147.27 -858.15 665.46 750.08"><path d="M215.448-108.078q-28.346 0-48.262-19.916-19.915-19.916-19.915-48.262v-529.103q0-28.347 19.915-48.262 19.916-19.916 48.353-19.916h59.424V-829.5q0-11.817 8.404-20.235t20.346-8.418q11.942 0 20.346 8.418 8.403 8.418 8.403 20.235v55.963h296.614v-56.732q0-11.432 8.212-19.658 8.211-8.226 19.769-8.226 11.557 0 19.768 8.226 8.212 8.226 8.212 19.658v56.732h59.424q28.437 0 48.353 19.916 19.915 19.915 19.915 48.262v529.103q0 28.346-19.915 48.262-19.916 19.916-48.262 19.916H215.448Zm.091-55.96h528.922q4.615 0 8.462-3.847 3.846-3.846 3.846-8.462v-369.729H203.231v369.729q0 4.616 3.846 8.462 3.847 3.847 8.462 3.847Zm-12.308-437.998h553.538v-103.232q0-4.616-3.846-8.463-3.847-3.846-8.462-3.846H215.539q-4.615 0-8.462 3.846-3.846 3.847-3.846 8.463v103.232Zm0 0v-115.541 115.541Zm276.822 204.305q-14.437 0-24.534-10.043-10.096-10.043-10.096-24.48 0-14.438 10.044-24.534 10.043-10.096 24.48-10.096 14.437 0 24.534 10.044 10.096 10.043 10.096 24.48 0 14.437-10.044 24.533-10.043 10.096-24.48 10.096Zm-160 0q-14.437 0-24.534-10.043-10.096-10.043-10.096-24.48 0-14.438 10.044-24.534 10.043-10.096 24.48-10.096 14.437 0 24.534 10.044 10.096 10.043 10.096 24.48 0 14.437-10.044 24.533-10.043 10.096-24.48 10.096Zm320 0q-14.437 0-24.534-10.043-10.096-10.043-10.096-24.48 0-14.438 10.044-24.534 10.043-10.096 24.48-10.096 14.437 0 24.534 10.044 10.096 10.043 10.096 24.48 0 14.437-10.044 24.533-10.043 10.096-24.48 10.096Zm-160 156.923q-14.437 0-24.534-10.043-10.096-10.044-10.096-24.481 0-14.437 10.044-24.533 10.043-10.096 24.48-10.096 14.437 0 24.534 10.044 10.096 10.043 10.096 24.48 0 14.437-10.044 24.533-10.043 10.096-24.48 10.096Zm-160 0q-14.437 0-24.534-10.043-10.096-10.044-10.096-24.481 0-14.437 10.044-24.533 10.043-10.096 24.48-10.096 14.437 0 24.534 10.044 10.096 10.043 10.096 24.48 0 14.437-10.044 24.533-10.043 10.096-24.48 10.096Zm320 0q-14.437 0-24.534-10.043-10.096-10.044-10.096-24.481 0-14.437 10.044-24.533 10.043-10.096 24.48-10.096 14.437 0 24.534 10.044 10.096 10.043 10.096 24.48 0 14.437-10.044 24.533-10.043 10.096-24.48 10.096Z"/></svg>