
<svg version="1.0" xmlns="http://www.w3.org/2000/svg"
 viewBox="0 0 1750.000000 1923.000000"
>
<g transform="translate(0.000000,1923.000000) scale(0.100000,-0.100000)"
>
<path d="M8480 19219 c-275 -36 -564 -138 -790 -281 -93 -58 -6873 -5187
-7008 -5301 -318 -268 -548 -664 -649 -1117 l-28 -125 -3 -5630 c-2 -4148 0
-5651 8 -5710 14 -98 61 -248 106 -338 124 -246 350 -474 592 -596 91 -46 254
-98 347 -111 57 -8 807 -10 2665 -8 l2585 3 78 22 c220 63 404 188 538 365
101 134 154 260 184 432 13 78 15 467 15 3307 l0 3219 1630 0 1630 0 0 -3219
c0 -3486 -3 -3293 52 -3461 79 -244 262 -452 501 -570 56 -28 138 -60 182 -73
l80 -22 2585 -3 c1885 -2 2607 0 2665 8 433 62 850 417 997 850 63 185 58
-281 58 5841 0 6150 5 5673 -60 5923 -100 388 -326 759 -607 1000 -49 41 -628
484 -1288 983 -660 500 -2200 1666 -3423 2591 -1222 926 -2257 1705 -2300
1732 -249 154 -510 248 -790 285 -122 16 -440 19 -552 4z"/>
</g>
</svg>
