<svg xmlns="http://www.w3.org/2000/svg" viewBox="143.12 -818.15 662.81 663"><path d="M382.235-340.232q-100.362 0-169.74-69.424-69.379-69.424-69.379-169.499 0-100.075 69.319-169.537 69.319-69.461 169.5-69.461 100.18 0 169.641 69.472 69.461 69.472 69.461 169.616 0 41.911-14.076 80.757-14.077 38.846-37.577 67.261l228.348 227.803q7.998 7.975 8.19 19.532.193 11.558-8.403 20.058-8.596 8.499-19.865 8.499-11.269 0-19.644-8.369L529.882-391.886q-29.728 24.77-68.421 38.212-38.692 13.442-79.226 13.442Zm-.158-55.96q76.808 0 129.904-53.023 53.096-53.022 53.096-130 0-76.978-53.096-129.978-53.096-53-130-53T252.077-709.17q-53 53.023-53 130 0 76.978 53.016 129.978 53.016 53 129.984 53Z"/></svg>