
<svg version="1.0" xmlns="http://www.w3.org/2000/svg"
 viewBox="0 0 2358.000000 2113.000000"
 preserveAspectRatio="xMidYMid meet">

<g transform="translate(0.000000,2113.000000) scale(0.100000,-0.100000)"
>
<path d="M11520 21123 c-1086 -73 -1934 -436 -2720 -1165 -701 -650 -1160
-1468 -1325 -2363 -86 -465 -98 -1013 -34 -1499 94 -713 372 -1391 802 -1961
251 -331 610 -691 943 -942 525 -397 1145 -666 1794 -777 303 -52 410 -61 800
-61 372 0 475 6 730 45 836 128 1585 490 2220 1072 970 890 1450 1971 1450
3268 0 1093 -341 2028 -1036 2840 -206 241 -513 527 -767 717 -752 559 -1632
839 -2612 831 -110 -1 -220 -3 -245 -5z"/>
<path d="M4072 8750 c-1093 -76 -2004 -494 -2786 -1276 -743 -742 -1151 -1589
-1263 -2614 -22 -204 -25 -719 -5 -910 47 -451 135 -824 284 -1200 410 -1034
1327 -1972 2353 -2408 511 -217 1013 -323 1610 -339 1024 -27 1946 264 2728
860 234 179 571 499 758 722 549 654 870 1384 973 2215 111 898 -37 1799 -419
2545 -223 434 -492 794 -876 1170 -193 189 -284 267 -513 440 -234 176 -324
234 -513 326 -551 268 -984 396 -1545 454 -173 19 -617 27 -786 15z"/>
<path d="M18892 8749 c-854 -54 -1617 -334 -2287 -839 -178 -135 -294 -235
-469 -408 -777 -767 -1193 -1631 -1298 -2697 -19 -192 -16 -703 5 -895 113
-1030 515 -1872 1245 -2607 790 -795 1702 -1216 2802 -1293 465 -32 988 13
1425 125 740 189 1390 565 1964 1136 573 570 945 1192 1146 1917 215 776 204
1719 -30 2487 -200 659 -545 1229 -1059 1754 -370 377 -718 640 -1139 861
-673 352 -1476 512 -2305 459z"/>
</g>
</svg>
