<svg xmlns="http://www.w3.org/2000/svg" version="1.0" viewBox="12 19 96 111.94">

<g transform="translate(0.000000,155.000000) scale(0.100000,-0.100000)" >
<path d="M162 1353 c-7 -3 -19 -18 -27 -33 -13 -25 -15 -108 -15 -535 0 -496 0 -505 21 -526 20 -20 28 -20 402 -17 428 3 414 1 480 78 19 23 40 61 46 85 7 27 11 165 11 367 l0 323 -136 133 -136 132 -317 -1 c-174 0 -322 -3 -329 -6z m616 -100 l-3 -38 -292 -3 -293 -2 0 40 0 40 296 0 295 0 -3 -37z m124 -50 c22 -22 38 -47 38 -60 0 -21 -4 -23 -55 -23 l-55 0 0 60 c0 73 15 78 72 23z m-126 -95 l9 -43 105 -5 c58 -3 111 -9 118 -13 16 -11 17 -552 1 -626 -8 -37 -20 -58 -44 -80 -32 -28 -38 -29 -167 -36 -73 -3 -239 -5 -368 -3 l-235 3 -5 410 c-3 226 -3 416 -1 423 2 9 69 12 291 12 l287 0 9 -42z"/>
<path d="M325 920 c-4 -7 -3 -16 3 -22 14 -14 45 -2 40 15 -6 16 -34 21 -43 7z"/>
<path d="M474 919 c-16 -27 20 -34 179 -37 127 -2 166 0 181 11 41 30 9 37 -174 37 -118 0 -181 -4 -186 -11z"/>
<path d="M335 760 c-4 -6 -1 -17 5 -25 19 -23 482 -22 504 1 9 8 14 20 11 25 -9 13 -512 12 -520 -1z"/>
<path d="M352 609 c-13 -5 -22 -15 -20 -21 4 -10 64 -13 259 -13 226 0 254 2 257 16 2 10 -6 19 -20 23 -37 9 -451 6 -476 -5z"/>
<path d="M347 453 c-10 -3 -17 -12 -15 -21 3 -15 29 -17 256 -20 225 -2 253 -1 259 14 3 9 0 20 -8 25 -14 9 -458 11 -492 2z"/>
</g>
</svg>