
<svg version="1.0" xmlns="http://www.w3.org/2000/svg"
 viewBox="0 0 300.000000 350.000000"
 preserveAspectRatio="xMidYMid meet">

<g transform="translate(0.000000,350.000000) scale(0.100000,-0.100000)"
>
<path d="M450 3490 c-201 -4 -312 -10 -326 -17 -32 -18 -76 -88 -91 -146 -24
-91 -32 -533 -32 -1692 0 -1084 7 -1440 29 -1517 15 -51 68 -95 127 -105 69
-11 1882 -6 2101 7 307 18 399 45 493 148 122 132 202 271 219 378 18 113 30
608 30 1285 l0 677 -112 11 c-167 16 -492 40 -661 47 -81 4 -150 10 -152 14
-3 5 -14 52 -25 105 -22 107 -28 324 -10 385 6 19 12 124 15 233 l5 197 -652
-2 c-359 -1 -790 -4 -958 -8z m1765 -1349 c27 -6 56 -18 64 -26 13 -13 13 -18
-5 -42 -11 -16 -38 -37 -60 -48 -36 -18 -63 -20 -326 -23 -290 -4 -618 10
-709 29 -66 14 -94 38 -85 72 8 32 26 38 151 48 144 11 909 3 970 -10z m-1457
-7 c22 -15 29 -49 14 -70 -24 -36 -92 -44 -122 -14 -22 22 -27 69 -8 88 17 17
89 15 116 -4z m1500 -490 c37 -5 42 -9 42 -33 0 -39 -26 -69 -68 -80 -179 -47
-1213 -54 -1476 -11 -68 11 -83 22 -92 67 -9 47 13 53 214 63 188 9 1308 4
1380 -6z m-46 -470 c61 -14 91 -81 47 -105 -37 -20 -262 -28 -744 -28 -438 0
-780 10 -832 25 -35 10 -30 50 9 74 41 25 96 31 357 40 238 9 1120 4 1163 -6z
m-68 -501 c114 -7 139 -21 134 -76 -6 -63 9 -62 -708 -61 -623 2 -845 10 -890
34 -27 14 -26 61 1 86 18 16 45 19 222 25 223 8 1085 2 1241 -8z"/>
<path d="M2256 3379 c-2 -8 -7 -77 -10 -154 -3 -77 -11 -156 -16 -175 -6 -19
-10 -94 -10 -165 l0 -131 288 -12 c158 -7 321 -17 362 -22 41 -4 76 -7 78 -6
2 3 -281 284 -560 555 -83 81 -129 119 -132 110z"/>
</g>
</svg>
