<svg xmlns="http://www.w3.org/2000/svg" width="512" height="512" viewBox="0 0 512 512" version="1.1"><path d="" stroke="none" fill="#080404" fill-rule="evenodd"/><path d="M 308.316 9.920 C 305.707 11.119, 303.072 13.443, 301.316 16.096 L 298.500 20.349 298.193 48.607 C 297.994 66.962, 298.272 78.295, 298.985 80.946 C 300.552 86.763, 305.357 91.836, 310.640 93.249 L 315 94.415 315 136.482 L 315 178.549 307.557 179.733 C 287.107 182.987, 269.752 199.529, 265.438 219.878 C 263.525 228.904, 263.293 494.355, 265.195 498.528 C 267.639 503.893, 268.548 504, 311.500 504 C 355.609 504, 355.867 503.964, 357.974 497.579 C 359.382 493.312, 357.276 488.436, 353.387 486.957 C 351.961 486.415, 335.941 486, 316.435 486 L 282 486 282 452.534 L 282 419.068 334.250 418.784 C 390.501 418.478, 389.506 418.574, 391.929 413.257 C 393.587 409.618, 393.223 407.418, 390.411 404.077 L 387.822 401 334.911 401 L 282 401 282 341.500 L 282 282 316.435 282 C 335.941 282, 351.961 281.585, 353.387 281.043 C 357.276 279.564, 359.382 274.688, 357.974 270.421 C 355.894 264.120, 355.118 264, 316.477 264 L 281.855 264 282.178 243.224 L 282.500 222.447 285.792 215.766 C 289.372 208.499, 294.493 203.417, 301.924 199.755 C 306.435 197.532, 307.193 197.493, 355 197 C 381.675 196.725, 404.304 196.108, 405.287 195.629 C 407.451 194.574, 410 189.892, 410 186.973 C 410 185.803, 408.685 183.531, 407.077 181.923 C 404.233 179.079, 403.881 179, 394.077 179 L 384 179 384 136.631 L 384 94.262 387.593 93.679 C 392.266 92.920, 397.847 88.610, 399.606 84.400 C 400.693 81.798, 401 74.433, 401 50.918 C 401 22.364, 400.892 20.579, 398.947 17.119 C 397.817 15.110, 395.264 12.348, 393.272 10.983 L 389.650 8.500 351.075 8.248 C 314.829 8.012, 312.247 8.113, 308.316 9.920 M 316 51 L 316 76 350 76 L 384 76 384 51 L 384 26 350 26 L 316 26 316 51 M 333 136.500 L 333 179 350 179 L 367 179 367 136.500 L 367 94 350 94 L 333 94 333 136.500 M 140 231.310 C 128.994 234.497, 120.128 241.398, 115.390 250.464 C 112.361 256.262, 111.102 257.033, 108.935 254.422 C 108.215 253.554, 105.347 251.663, 102.563 250.219 C 98.364 248.042, 96.134 247.588, 89.500 247.555 C 80.180 247.510, 75.197 249.551, 68.308 256.235 C 56.023 268.155, 56.606 288.441, 69.560 299.844 C 75.278 304.877, 84.563 308.497, 88.205 307.112 C 93.640 305.046, 95.836 297.441, 92.250 293.107 C 91.287 291.944, 88.501 289.981, 86.059 288.746 C 80.328 285.848, 77.727 282.236, 77.727 277.175 C 77.727 265.615, 91.569 261.005, 99.268 270 C 103.877 275.385, 105.753 275.873, 115.349 274.179 C 124.752 272.520, 127.319 270.715, 128.879 264.668 C 132.165 251.920, 144.755 244.891, 156.243 249.390 C 161.599 251.487, 163.769 253.324, 167.753 259.130 C 169.501 261.676, 171.658 264.039, 172.547 264.380 C 178.450 266.645, 185 262.766, 185 257.006 C 185 249.468, 175.975 238.755, 165.494 233.851 C 157.902 230.298, 147.183 229.229, 140 231.310 M 378.306 232.413 L 375.500 234.825 375.201 275.663 C 375.028 299.423, 375.326 319.696, 375.915 324.142 C 377.111 333.166, 380.120 342.381, 384.359 350 C 388.869 358.106, 403.036 371.825, 411.246 376.038 L 417.993 379.500 417.996 409.860 L 418 440.221 398.703 463.360 C 373.660 493.391, 374.601 492.061, 375.393 496.280 C 375.748 498.175, 376.977 500.575, 378.124 501.613 C 380.114 503.414, 383.072 503.512, 443.002 503.772 L 505.795 504.044 508.897 501.433 C 511.369 499.353, 512 498.047, 512 495.007 C 512 491.506, 510.263 489.107, 491 466 L 470 440.809 470 409.921 L 470 379.034 475.209 376.394 C 492.258 367.755, 504.565 352.369, 509.939 332.979 C 511.882 325.965, 511.998 322.970, 511.968 280.520 C 511.944 246.707, 511.633 235.105, 510.718 233.913 C 507.755 230.055, 506.814 230, 443.122 230 L 381.112 230 378.306 232.413 M 393 269 L 393 290 444 290 L 495 290 495 269 L 495 248 444 248 L 393 248 393 269 M 209.500 264.497 C 208.950 264.684, 206.826 265.116, 204.779 265.458 C 195.393 267.026, 191.687 276.035, 198.180 281.498 C 200.681 283.602, 202.017 284.045, 204.430 283.569 C 213.832 281.716, 216.460 281.820, 220.947 284.223 C 229.981 289.062, 232.615 300.571, 226.519 308.564 C 217.178 320.811, 198.713 314.972, 196.608 299.105 C 196.114 295.382, 195.278 293.577, 193.337 292.051 C 189.654 289.154, 184.880 289.393, 181.636 292.636 L 179 295.273 179 318.686 C 179 346.963, 178.401 349, 170.093 349 C 168.517 349, 166.423 348.014, 165.174 346.686 C 163.204 344.589, 162.999 343.296, 162.994 332.936 C 162.988 318.890, 161.922 314.528, 158.003 312.502 C 154.191 310.530, 152.695 310.605, 148 313 C 139.588 317.292, 132.802 314.685, 128.453 305.492 C 124.757 297.680, 119.040 296.112, 113.250 301.323 C 111.214 303.156, 111 304.260, 111 312.931 C 111 327.463, 109.064 331.896, 102.684 331.968 C 98.057 332.020, 96.143 330.301, 94.486 324.599 C 91.762 315.231, 92.719 315.500, 62.143 315.500 C 38.574 315.500, 34.865 315.719, 30 317.398 C 19.135 321.148, 9.563 329.055, 4.956 338.086 C 0.218 347.373, 0.022 349.373, 0.011 388.593 C 0.001 422.426, 0.167 426.172, 1.897 431.200 C 6.379 444.229, 15.763 453.822, 29.120 459.032 C 31.356 459.904, 39.947 460.545, 54.500 460.925 L 76.500 461.500 77.177 466.500 C 78.094 473.273, 79.439 477.367, 82.417 482.449 C 88.542 492.900, 100.486 501.038, 112.613 503.024 C 120.276 504.279, 203.724 504.279, 211.387 503.024 C 229.680 500.029, 244.029 485.680, 247.024 467.387 C 248.445 458.713, 248.310 298.562, 246.877 291.799 C 246.259 288.885, 244.878 284.770, 243.808 282.655 C 241.313 277.724, 234.276 270.687, 229.345 268.192 C 223.537 265.253, 213.036 263.298, 209.500 264.497 M 342.715 299.040 C 336.378 300.105, 326.498 304.882, 321.348 309.369 C 309.582 319.624, 304.430 336.712, 308.451 352.149 C 313.144 370.169, 330.311 384, 347.982 384 C 352.753 384, 354.028 383.599, 356.026 381.473 C 361.425 375.726, 357.677 367.597, 349.114 366.480 C 341.937 365.544, 336.552 363.238, 332.614 359.414 C 326.828 353.795, 325.551 350.554, 325.524 341.426 C 325.502 334.165, 325.804 332.859, 328.524 328.457 C 332.506 322.010, 338.019 318.257, 345.500 316.901 C 348.800 316.302, 352.625 315.276, 354 314.620 C 360.298 311.615, 359.938 302.125, 353.423 299.403 C 349.757 297.871, 349.679 297.869, 342.715 299.040 M 393 314.451 C 393 328.901, 397.825 340.682, 408 351.081 C 418.258 361.565, 428.955 366.082, 443.500 366.073 C 458.069 366.063, 469.322 361.460, 479.391 351.391 C 488.873 341.910, 493.285 331.674, 494.538 316.250 L 495.208 308 444.104 308 L 393 308 393 314.451 M 196.726 338.513 C 196.109 348.865, 194.689 353.006, 189.882 358.481 C 180.712 368.926, 164.296 369.891, 153.328 360.631 C 148.004 356.136, 145 348.805, 145 340.304 L 145 333 140.250 332.956 C 137.637 332.932, 133.810 332.309, 131.745 331.572 L 127.991 330.232 126.154 334.366 C 123.443 340.464, 119.596 344.524, 113.780 347.422 C 101.700 353.442, 85.871 348.509, 79.936 336.874 L 77.959 333 60.029 333 C 50.167 333, 39.807 333.491, 37.006 334.092 C 29.809 335.636, 24.123 340.254, 20.500 347.500 L 17.500 353.500 17.500 388.500 C 17.500 421.886, 17.596 423.708, 19.588 428.011 C 21.936 433.083, 26.662 438.211, 31.356 440.778 C 34.038 442.245, 38.501 442.571, 61.724 442.999 C 94.838 443.608, 93.074 442.829, 94.133 457.312 C 94.507 462.430, 95.553 468.390, 96.457 470.558 C 98.500 475.456, 103.256 480.503, 108.500 483.338 C 112.447 485.471, 113.161 485.500, 162 485.500 C 208.951 485.500, 211.701 485.400, 215.403 483.563 C 220.381 481.094, 225.094 476.381, 227.563 471.403 C 229.414 467.672, 229.512 464.436, 229.770 398.135 C 230.027 332.100, 229.955 328.807, 228.270 329.520 C 218.873 333.501, 210.650 334.024, 202.385 331.167 L 197.270 329.399 196.726 338.513 M 40.295 350.107 C 34.006 351.926, 33.997 351.982, 34.032 388.473 C 34.065 423.201, 34.089 423.389, 38.684 425.837 C 41.718 427.453, 86.282 427.453, 89.316 425.837 C 93.638 423.534, 93.935 422.218, 93.968 405.205 C 93.999 389.217, 93.954 388.863, 91.545 386.455 C 88.283 383.192, 83.088 383.160, 79.346 386.379 C 76.728 388.631, 76.559 389.297, 76.174 398.879 L 75.767 409 63.884 409 L 52 409 52 388 L 52 367 70.364 367 L 88.727 367 91.364 364.364 C 96.322 359.406, 94.172 351.975, 87.221 350.044 C 82.652 348.776, 44.724 348.826, 40.295 350.107 M 122.306 360.413 L 119.500 362.827 119.500 409.500 L 119.500 456.173 122.306 458.587 C 125.892 461.671, 130.108 461.671, 133.694 458.587 L 136.500 456.173 136.500 409.500 L 136.500 362.827 133.694 360.413 C 132.129 359.067, 129.612 358, 128 358 C 126.388 358, 123.871 359.067, 122.306 360.413 M 191.856 376.476 C 187.336 379.001, 187 381.888, 187 418.181 C 187 454.194, 187.388 457.532, 191.850 459.920 C 195.367 461.802, 199.543 461.184, 202.364 458.364 L 205 455.727 205 418.419 C 205 381.154, 204.997 381.109, 202.750 378.555 C 199.964 375.389, 195.372 374.512, 191.856 376.476 M 436 412.875 C 436 428.756, 435.724 443.130, 435.387 444.817 C 434.995 446.777, 429.029 454.767, 418.867 466.942 L 402.961 486 443.636 486 C 482.274 486, 484.235 485.912, 482.819 484.250 C 478.307 478.952, 456.107 452.067, 454.220 449.615 C 452.035 446.776, 452 446.233, 452 415.365 L 452 384 444 384 L 436 384 436 412.875 M 157.786 393.513 C 153.557 395.871, 152.812 400.287, 153.176 420.839 L 153.500 439.177 156.306 441.589 C 160.187 444.924, 164.414 444.740, 168.077 441.077 L 171 438.154 171 418.133 C 171 398.794, 170.923 398.024, 168.750 395.555 C 165.942 392.364, 161.373 391.513, 157.786 393.513"  fill-rule="evenodd"/></svg>