<svg xmlns="http://www.w3.org/2000/svg" width="320" height="281" viewBox="0 0 320 281" version="1.1"><path d="M 156.828 1.627 C 151.747 3.736, 150 8.438, 150 20 C 150 31.802, 151.722 36.271, 157.098 38.422 C 159.266 39.290, 161.948 40, 163.058 40 C 164.956 40, 165.058 40.545, 164.788 49.226 L 164.500 58.452 157.500 62.705 C 148.955 67.898, 145.515 71.161, 143.305 76.169 L 141.615 80 83.828 80 C 18.272 80, 19.468 79.874, 16.578 87.098 C 14.542 92.185, 14.552 102.840, 16.597 107.950 C 17.789 110.930, 19.055 112.252, 21.597 113.171 L 25 114.402 25 122.701 C 25 130.507, 24.873 131, 22.866 131 C 14.528 131, 4.409 139.033, 1.912 147.636 C 0.780 151.536, 0.500 162.404, 0.500 202.500 C 0.500 259.938, 0.429 259.333, 8.120 267.025 C 16.523 275.428, 7.554 274.959, 160 274.959 C 312.617 274.959, 303.463 275.442, 311.963 266.941 C 316.003 262.902, 317.057 261.067, 318.087 256.281 C 318.771 253.101, 319.776 249.920, 320.320 249.211 C 321.644 247.486, 320.248 89.376, 318.847 82.500 C 317.216 74.492, 312.908 69.094, 303.628 63.432 L 295.500 58.473 295.212 49.236 C 294.942 40.545, 295.044 40, 296.942 40 C 298.052 40, 300.734 39.290, 302.902 38.422 C 305.936 37.208, 307.208 35.936, 308.422 32.902 C 310.554 27.576, 310.554 12.424, 308.422 7.098 C 305.489 -0.233, 308.017 -0.007, 229.730 0.052 C 170.057 0.096, 159.993 0.313, 156.828 1.627 M 160 20 L 160 30 230 30 L 300 30 300 20 L 300 10 230 10 L 160 10 160 20 M 175 47.500 L 175 55 230 55 L 285 55 285 47.500 L 285 40 230 40 L 175 40 175 47.500 M 164.236 68.551 C 161.341 70.448, 158.575 72, 158.090 72 C 157.604 72, 155.745 73.666, 153.957 75.701 C 151.644 78.336, 151.110 79.507, 152.104 79.766 C 159.470 81.684, 161.878 83.239, 163.411 87.069 C 165.458 92.184, 165.454 102.825, 163.403 107.950 C 162.211 110.930, 160.945 112.252, 158.403 113.171 L 155 114.402 155 122.701 C 155 130.507, 155.127 131, 157.134 131 C 162.083 131, 167.506 133.601, 172.068 138.164 C 179.722 145.818, 180 148.063, 180 202.311 C 180 247.311, 179.530 255.227, 176.497 261.307 C 175.674 262.957, 175 264.463, 175 264.654 C 175 264.844, 203.238 264.998, 237.750 264.996 C 298.223 264.993, 300.616 264.922, 303.701 263.040 C 310.341 258.992, 310 264.139, 310 168.014 C 310 86.785, 309.882 80.747, 308.250 78.215 C 306.105 74.886, 302.925 72.078, 301.250 72.033 C 300.563 72.015, 300 71.550, 300 71 C 300 70.450, 299.541 70, 298.980 70 C 298.419 70, 296.178 68.875, 294 67.500 L 290.040 65 229.770 65.051 L 169.500 65.101 164.236 68.551 M 217.203 84.256 C 216.630 84.946, 215.846 86.767, 215.460 88.302 C 214.818 90.861, 214.618 90.965, 213.051 89.546 C 212.111 88.696, 210.673 88, 209.855 88 C 209.038 88, 204.204 92.246, 199.115 97.436 C 188.476 108.284, 188.507 107.948, 197.508 115.038 C 200.623 117.492, 204.560 120.686, 206.256 122.136 L 209.341 124.773 206.271 126.360 C 201.503 128.826, 196.229 135.701, 194.473 141.739 C 192.683 147.898, 192.487 146.925, 204.515 191.500 C 205.405 194.800, 207.187 201.550, 208.474 206.500 C 213.648 226.394, 215.926 234.674, 217.006 237.516 C 220.019 245.440, 228.524 249.079, 235.685 245.507 C 241.695 242.509, 242.495 240.868, 247.634 221 C 249.554 213.575, 252.186 203.450, 253.483 198.500 C 261.650 167.321, 264.297 156.990, 265.141 153 C 266.304 147.503, 265.438 140.780, 262.937 135.876 C 261.213 132.497, 259.879 131.175, 253.111 126.135 L 250.721 124.356 258.611 118.015 C 267.389 110.960, 269 109.279, 269 107.180 C 269 105.254, 252.041 88, 250.148 88 C 249.328 88, 247.835 88.745, 246.829 89.655 C 245.117 91.204, 245 91.186, 245 89.377 C 245 88.315, 244.299 86.445, 243.443 85.223 C 241.984 83.139, 241.147 83, 230.066 83 C 221.801 83, 217.931 83.378, 217.203 84.256 M 25 97.500 L 25 105 90 105 L 155 105 155 97.500 L 155 90 90 90 L 25 90 25 97.500 M 225 97.435 C 225 105.193, 223.723 108, 220.192 108 C 218.061 108, 216.518 106.983, 214.120 104 C 212.352 101.800, 210.340 100, 209.649 100 C 208.958 100, 206.842 101.608, 204.946 103.574 L 201.500 107.148 204 109.167 C 205.375 110.278, 208.278 112.607, 210.451 114.343 C 212.624 116.079, 215.833 118.737, 217.583 120.250 C 220.558 122.822, 221.362 123, 230 123 C 238.641 123, 239.440 122.823, 242.404 120.250 C 244.146 118.737, 247.317 116.150, 249.450 114.500 C 251.584 112.850, 254.493 110.520, 255.915 109.322 L 258.500 107.145 255.054 103.572 C 253.158 101.608, 251.056 100, 250.382 100 C 249.708 100, 247.615 101.800, 245.732 104 C 239.467 111.319, 235 108.594, 235 97.453 L 235 92 230 92 L 225 92 225 97.435 M 35 122.500 L 35 130 90 130 L 145 130 145 122.500 L 145 115 90 115 L 35 115 35 122.500 M 210.984 133.852 C 203.364 137.901, 201.388 144.937, 204.567 156.701 C 207.558 167.771, 211.161 181.530, 212.500 187 C 213.241 190.025, 214.980 196.775, 216.364 202 C 217.749 207.225, 220.265 216.862, 221.956 223.415 C 223.646 229.969, 225.528 235.931, 226.137 236.665 C 227.567 238.389, 232.433 238.389, 233.863 236.665 C 234.472 235.931, 236.289 230.194, 237.901 223.915 C 239.513 217.637, 242.036 208, 243.508 202.500 C 247.531 187.471, 250.996 174.150, 252.483 168 C 253.213 164.975, 254.529 159.891, 255.406 156.701 C 258.627 144.985, 256.647 137.907, 249.016 133.852 C 246.055 132.279, 243.195 132, 230 132 C 216.805 132, 213.945 132.279, 210.984 133.852 M 16.299 141.960 C 9.848 145.893, 10 144.431, 10.004 202.700 C 10.007 253.304, 10.089 255.633, 11.960 258.701 C 15.964 265.270, 12.616 265, 90.200 264.996 C 158.161 264.993, 160.607 264.928, 163.701 263.040 C 170.150 259.109, 170 260.548, 170 202.500 C 170 144.452, 170.150 145.891, 163.701 141.960 C 160.606 140.072, 158.163 140.007, 90 140.007 C 21.837 140.007, 19.394 140.072, 16.299 141.960 M 86.557 153.223 C 85.701 154.445, 85 156.686, 85 158.203 C 85 160.396, 84.436 161.089, 82.250 161.581 C 74.115 163.413, 71.817 164.319, 66.380 167.833 C 59.176 172.489, 53.817 178.555, 50.202 186.145 C 48.606 189.497, 46.681 192.050, 45.500 192.384 C 42.602 193.202, 38.548 197.011, 36.648 200.700 C 32.279 209.184, 37.864 221.493, 46.991 223.498 C 48.992 223.938, 50.650 225.429, 52.348 228.317 C 58.240 238.336, 69.225 245.876, 81.894 248.599 C 89.479 250.229, 90.293 250.226, 98.082 248.543 C 110.717 245.813, 120.726 239.134, 127.071 229.197 C 128.924 226.296, 131.457 224.078, 134.849 222.388 C 142.596 218.528, 145.909 210.314, 143.123 201.873 C 141.870 198.075, 137.758 193.638, 134.500 192.568 C 133.362 192.194, 131.336 189.446, 129.798 186.191 C 126.200 178.576, 120.852 172.507, 113.620 167.833 C 108.183 164.319, 105.885 163.413, 97.750 161.581 C 95.564 161.089, 95 160.396, 95 158.203 C 95 154.687, 92.441 151, 90 151 C 88.962 151, 87.413 152, 86.557 153.223 M 0.462 202.500 C 0.463 228.900, 0.592 239.556, 0.749 226.181 C 0.907 212.805, 0.907 191.205, 0.749 178.181 C 0.591 165.156, 0.462 176.100, 0.462 202.500 M 77.688 171.611 C 68.223 175.032, 60.518 182.895, 56.456 193.276 C 54.840 197.405, 53.772 198.710, 51.358 199.501 C 46.347 201.144, 45 202.840, 45 207.500 C 45 212.322, 46.407 213.964, 51.883 215.530 C 54.685 216.331, 56.041 217.591, 57.992 221.206 C 65.036 234.254, 75.648 240.506, 90.511 240.362 C 97.123 240.298, 99.565 239.791, 104.489 237.462 C 111.523 234.134, 118.933 227.090, 121.485 221.306 C 123.302 217.187, 126.297 215, 130.118 215 C 132.500 215, 134.646 213.069, 135.868 209.825 C 137.333 205.939, 134.091 200, 130.506 200 C 127.266 200, 125.139 197.937, 123.559 193.260 C 120.282 183.563, 111.704 174.976, 101.876 171.553 C 96.468 169.670, 82.969 169.702, 77.688 171.611 M 72.040 197.452 C 69.383 200.653, 73.285 205.570, 76.750 203.388 C 80.212 201.207, 78.979 196, 75 196 C 74.035 196, 72.703 196.653, 72.040 197.452 M 102.040 197.452 C 99.383 200.653, 103.285 205.570, 106.750 203.388 C 110.212 201.207, 108.979 196, 105 196 C 104.035 196, 102.703 196.653, 102.040 197.452 M 71.667 215.667 C 69.938 217.396, 71.239 221.051, 74.556 223.786 C 83.069 230.802, 96.956 230.782, 105.499 223.740 C 108.253 221.471, 109.038 220.139, 108.805 218.132 C 108.376 214.431, 104.362 214.136, 99.485 217.446 C 94.211 221.024, 85.824 221.049, 80.595 217.500 C 77.049 215.093, 73.059 214.274, 71.667 215.667" stroke="none" fill-rule="evenodd"/><path d="M 156.828 1.627 C 151.747 3.736, 150 8.438, 150 20 C 150 31.802, 151.722 36.271, 157.098 38.422 C 159.266 39.290, 161.948 40, 163.058 40 C 164.956 40, 165.058 40.545, 164.788 49.226 L 164.500 58.452 157.500 62.705 C 148.955 67.898, 145.515 71.161, 143.305 76.169 L 141.615 80 83.828 80 C 18.272 80, 19.468 79.874, 16.578 87.098 C 14.542 92.185, 14.552 102.840, 16.597 107.950 C 17.789 110.930, 19.055 112.252, 21.597 113.171 L 25 114.402 25 122.701 C 25 130.507, 24.873 131, 22.866 131 C 14.528 131, 4.409 139.033, 1.912 147.636 C 0.780 151.536, 0.500 162.404, 0.500 202.500 C 0.500 259.938, 0.429 259.333, 8.120 267.025 C 16.523 275.428, 7.554 274.959, 160 274.959 C 312.617 274.959, 303.463 275.442, 311.963 266.941 C 316.003 262.902, 317.057 261.067, 318.087 256.281 C 318.771 253.101, 319.776 249.920, 320.320 249.211 C 321.644 247.486, 320.248 89.376, 318.847 82.500 C 317.216 74.492, 312.908 69.094, 303.628 63.432 L 295.500 58.473 295.212 49.236 C 294.942 40.545, 295.044 40, 296.942 40 C 298.052 40, 300.734 39.290, 302.902 38.422 C 305.936 37.208, 307.208 35.936, 308.422 32.902 C 310.554 27.576, 310.554 12.424, 308.422 7.098 C 305.489 -0.233, 308.017 -0.007, 229.730 0.052 C 170.057 0.096, 159.993 0.313, 156.828 1.627 M 160 20 L 160 30 230 30 L 300 30 300 20 L 300 10 230 10 L 160 10 160 20 M 175 47.500 L 175 55 230 55 L 285 55 285 47.500 L 285 40 230 40 L 175 40 175 47.500 M 164.236 68.551 C 161.341 70.448, 158.575 72, 158.090 72 C 157.604 72, 155.745 73.666, 153.957 75.701 C 151.644 78.336, 151.110 79.507, 152.104 79.766 C 159.470 81.684, 161.878 83.239, 163.411 87.069 C 165.458 92.184, 165.454 102.825, 163.403 107.950 C 162.211 110.930, 160.945 112.252, 158.403 113.171 L 155 114.402 155 122.701 C 155 130.507, 155.127 131, 157.134 131 C 162.083 131, 167.506 133.601, 172.068 138.164 C 179.722 145.818, 180 148.063, 180 202.311 C 180 247.311, 179.530 255.227, 176.497 261.307 C 175.674 262.957, 175 264.463, 175 264.654 C 175 264.844, 203.238 264.998, 237.750 264.996 C 298.223 264.993, 300.616 264.922, 303.701 263.040 C 310.341 258.992, 310 264.139, 310 168.014 C 310 86.785, 309.882 80.747, 308.250 78.215 C 306.105 74.886, 302.925 72.078, 301.250 72.033 C 300.563 72.015, 300 71.550, 300 71 C 300 70.450, 299.541 70, 298.980 70 C 298.419 70, 296.178 68.875, 294 67.500 L 290.040 65 229.770 65.051 L 169.500 65.101 164.236 68.551 M 217.203 84.256 C 216.630 84.946, 215.846 86.767, 215.460 88.302 C 214.818 90.861, 214.618 90.965, 213.051 89.546 C 212.111 88.696, 210.673 88, 209.855 88 C 209.038 88, 204.204 92.246, 199.115 97.436 C 188.476 108.284, 188.507 107.948, 197.508 115.038 C 200.623 117.492, 204.560 120.686, 206.256 122.136 L 209.341 124.773 206.271 126.360 C 201.503 128.826, 196.229 135.701, 194.473 141.739 C 192.683 147.898, 192.487 146.925, 204.515 191.500 C 205.405 194.800, 207.187 201.550, 208.474 206.500 C 213.648 226.394, 215.926 234.674, 217.006 237.516 C 220.019 245.440, 228.524 249.079, 235.685 245.507 C 241.695 242.509, 242.495 240.868, 247.634 221 C 249.554 213.575, 252.186 203.450, 253.483 198.500 C 261.650 167.321, 264.297 156.990, 265.141 153 C 266.304 147.503, 265.438 140.780, 262.937 135.876 C 261.213 132.497, 259.879 131.175, 253.111 126.135 L 250.721 124.356 258.611 118.015 C 267.389 110.960, 269 109.279, 269 107.180 C 269 105.254, 252.041 88, 250.148 88 C 249.328 88, 247.835 88.745, 246.829 89.655 C 245.117 91.204, 245 91.186, 245 89.377 C 245 88.315, 244.299 86.445, 243.443 85.223 C 241.984 83.139, 241.147 83, 230.066 83 C 221.801 83, 217.931 83.378, 217.203 84.256 M 25 97.500 L 25 105 90 105 L 155 105 155 97.500 L 155 90 90 90 L 25 90 25 97.500 M 225 97.435 C 225 105.193, 223.723 108, 220.192 108 C 218.061 108, 216.518 106.983, 214.120 104 C 212.352 101.800, 210.340 100, 209.649 100 C 208.958 100, 206.842 101.608, 204.946 103.574 L 201.500 107.148 204 109.167 C 205.375 110.278, 208.278 112.607, 210.451 114.343 C 212.624 116.079, 215.833 118.737, 217.583 120.250 C 220.558 122.822, 221.362 123, 230 123 C 238.641 123, 239.440 122.823, 242.404 120.250 C 244.146 118.737, 247.317 116.150, 249.450 114.500 C 251.584 112.850, 254.493 110.520, 255.915 109.322 L 258.500 107.145 255.054 103.572 C 253.158 101.608, 251.056 100, 250.382 100 C 249.708 100, 247.615 101.800, 245.732 104 C 239.467 111.319, 235 108.594, 235 97.453 L 235 92 230 92 L 225 92 225 97.435 M 35 122.500 L 35 130 90 130 L 145 130 145 122.500 L 145 115 90 115 L 35 115 35 122.500 M 210.984 133.852 C 203.364 137.901, 201.388 144.937, 204.567 156.701 C 207.558 167.771, 211.161 181.530, 212.500 187 C 213.241 190.025, 214.980 196.775, 216.364 202 C 217.749 207.225, 220.265 216.862, 221.956 223.415 C 223.646 229.969, 225.528 235.931, 226.137 236.665 C 227.567 238.389, 232.433 238.389, 233.863 236.665 C 234.472 235.931, 236.289 230.194, 237.901 223.915 C 239.513 217.637, 242.036 208, 243.508 202.500 C 247.531 187.471, 250.996 174.150, 252.483 168 C 253.213 164.975, 254.529 159.891, 255.406 156.701 C 258.627 144.985, 256.647 137.907, 249.016 133.852 C 246.055 132.279, 243.195 132, 230 132 C 216.805 132, 213.945 132.279, 210.984 133.852 M 16.299 141.960 C 9.848 145.893, 10 144.431, 10.004 202.700 C 10.007 253.304, 10.089 255.633, 11.960 258.701 C 15.964 265.270, 12.616 265, 90.200 264.996 C 158.161 264.993, 160.607 264.928, 163.701 263.040 C 170.150 259.109, 170 260.548, 170 202.500 C 170 144.452, 170.150 145.891, 163.701 141.960 C 160.606 140.072, 158.163 140.007, 90 140.007 C 21.837 140.007, 19.394 140.072, 16.299 141.960 M 86.557 153.223 C 85.701 154.445, 85 156.686, 85 158.203 C 85 160.396, 84.436 161.089, 82.250 161.581 C 74.115 163.413, 71.817 164.319, 66.380 167.833 C 59.176 172.489, 53.817 178.555, 50.202 186.145 C 48.606 189.497, 46.681 192.050, 45.500 192.384 C 42.602 193.202, 38.548 197.011, 36.648 200.700 C 32.279 209.184, 37.864 221.493, 46.991 223.498 C 48.992 223.938, 50.650 225.429, 52.348 228.317 C 58.240 238.336, 69.225 245.876, 81.894 248.599 C 89.479 250.229, 90.293 250.226, 98.082 248.543 C 110.717 245.813, 120.726 239.134, 127.071 229.197 C 128.924 226.296, 131.457 224.078, 134.849 222.388 C 142.596 218.528, 145.909 210.314, 143.123 201.873 C 141.870 198.075, 137.758 193.638, 134.500 192.568 C 133.362 192.194, 131.336 189.446, 129.798 186.191 C 126.200 178.576, 120.852 172.507, 113.620 167.833 C 108.183 164.319, 105.885 163.413, 97.750 161.581 C 95.564 161.089, 95 160.396, 95 158.203 C 95 154.687, 92.441 151, 90 151 C 88.962 151, 87.413 152, 86.557 153.223 M 0.462 202.500 C 0.463 228.900, 0.592 239.556, 0.749 226.181 C 0.907 212.805, 0.907 191.205, 0.749 178.181 C 0.591 165.156, 0.462 176.100, 0.462 202.500 M 77.688 171.611 C 68.223 175.032, 60.518 182.895, 56.456 193.276 C 54.840 197.405, 53.772 198.710, 51.358 199.501 C 46.347 201.144, 45 202.840, 45 207.500 C 45 212.322, 46.407 213.964, 51.883 215.530 C 54.685 216.331, 56.041 217.591, 57.992 221.206 C 65.036 234.254, 75.648 240.506, 90.511 240.362 C 97.123 240.298, 99.565 239.791, 104.489 237.462 C 111.523 234.134, 118.933 227.090, 121.485 221.306 C 123.302 217.187, 126.297 215, 130.118 215 C 132.500 215, 134.646 213.069, 135.868 209.825 C 137.333 205.939, 134.091 200, 130.506 200 C 127.266 200, 125.139 197.937, 123.559 193.260 C 120.282 183.563, 111.704 174.976, 101.876 171.553 C 96.468 169.670, 82.969 169.702, 77.688 171.611 M 72.040 197.452 C 69.383 200.653, 73.285 205.570, 76.750 203.388 C 80.212 201.207, 78.979 196, 75 196 C 74.035 196, 72.703 196.653, 72.040 197.452 M 102.040 197.452 C 99.383 200.653, 103.285 205.570, 106.750 203.388 C 110.212 201.207, 108.979 196, 105 196 C 104.035 196, 102.703 196.653, 102.040 197.452 M 71.667 215.667 C 69.938 217.396, 71.239 221.051, 74.556 223.786 C 83.069 230.802, 96.956 230.782, 105.499 223.740 C 108.253 221.471, 109.038 220.139, 108.805 218.132 C 108.376 214.431, 104.362 214.136, 99.485 217.446 C 94.211 221.024, 85.824 221.049, 80.595 217.500 C 77.049 215.093, 73.059 214.274, 71.667 215.667" stroke="none"  fill-rule="evenodd"/><path d="M 152.405 3.250 L 150.500 5.500 152.750 3.595 C 153.988 2.547, 155 1.535, 155 1.345 C 155 0.545, 154.195 1.136, 152.405 3.250 M 306.500 3 C 307.495 4.100, 308.535 5, 308.810 5 C 309.085 5, 308.495 4.100, 307.500 3 C 306.505 1.900, 305.465 1, 305.190 1 C 304.915 1, 305.505 1.900, 306.500 3 M 152.500 37 C 153.495 38.100, 154.535 39, 154.810 39 C 155.085 39, 154.495 38.100, 153.500 37 C 152.505 35.900, 151.465 35, 151.190 35 C 150.915 35, 151.505 35.900, 152.500 37 M 306.405 37.250 L 304.500 39.500 306.750 37.595 C 308.864 35.805, 309.455 35, 308.655 35 C 308.465 35, 307.453 36.013, 306.405 37.250 M 166.441 67.555 C 164.577 69.049, 164.589 69.067, 166.750 68.020 C 167.988 67.420, 169 66.720, 169 66.465 C 169 65.700, 168.481 65.921, 166.441 67.555 M 291 66.430 C 291 66.705, 291.900 67.411, 293 68 C 294.100 68.589, 295 68.845, 295 68.570 C 295 68.295, 294.100 67.589, 293 67 C 291.900 66.411, 291 66.155, 291 66.430 M 161.441 70.555 C 159.577 72.049, 159.589 72.067, 161.750 71.020 C 162.988 70.420, 164 69.720, 164 69.465 C 164 68.700, 163.481 68.921, 161.441 70.555 M 296 69.430 C 296 69.705, 296.900 70.411, 298 71 C 299.100 71.589, 300 71.845, 300 71.570 C 300 71.295, 299.100 70.589, 298 70 C 296.900 69.411, 296 69.155, 296 69.430 M 153.807 75.750 C 152.045 77.802, 150.724 80, 151.253 80 C 151.457 80, 152.622 78.650, 153.842 77 C 156.252 73.740, 156.230 72.929, 153.807 75.750 M 305.500 76 C 306.495 77.100, 307.535 78, 307.810 78 C 308.085 78, 307.495 77.100, 306.500 76 C 305.505 74.900, 304.465 74, 304.190 74 C 303.915 74, 304.505 74.900, 305.500 76 M 17.405 83.250 L 15.500 85.500 17.750 83.595 C 18.988 82.547, 20 81.535, 20 81.345 C 20 80.545, 19.195 81.136, 17.405 83.250 M 161.500 83 C 162.495 84.100, 163.535 85, 163.810 85 C 164.085 85, 163.495 84.100, 162.500 83 C 161.505 81.900, 160.465 81, 160.190 81 C 159.915 81, 160.505 81.900, 161.500 83 M 217.651 82.750 C 217.394 83.162, 221.080 83.380, 225.842 83.232 C 241.115 82.760, 242.830 82.354, 230.309 82.175 C 223.604 82.079, 217.908 82.338, 217.651 82.750 M 249 87.383 C 249 87.594, 249.901 88.002, 251.001 88.290 C 252.102 88.578, 252.751 88.405, 252.442 87.907 C 251.904 87.036, 249 86.594, 249 87.383 M 246.029 88.961 C 245.220 89.473, 244.818 90.152, 245.136 90.470 C 245.455 90.788, 246.284 90.362, 246.980 89.524 C 248.423 87.786, 248.146 87.622, 246.029 88.961 M 227.250 92.716 C 228.762 92.945, 231.238 92.945, 232.750 92.716 C 234.262 92.487, 233.025 92.300, 230 92.300 C 226.975 92.300, 225.738 92.487, 227.250 92.716 M 263.750 100.031 C 269.566 106.159, 270.068 108.153, 266.750 111.936 L 264.500 114.500 267.250 112.076 C 271.329 108.480, 270.750 106.145, 264.250 99.966 L 258.500 94.500 263.750 100.031 M 212 103.313 C 212 103.485, 213.463 104.948, 215.250 106.563 L 218.500 109.500 215.563 106.250 C 212.825 103.221, 212 102.540, 212 103.313 M 244.437 106.250 L 241.500 109.500 244.750 106.563 C 247.779 103.825, 248.460 103, 247.687 103 C 247.515 103, 246.052 104.463, 244.437 106.250 M 223.100 107.295 C 221.835 109.402, 221.857 109.423, 223.579 107.774 C 224.570 106.824, 225.166 105.832, 224.903 105.569 C 224.640 105.306, 223.829 106.083, 223.100 107.295 M 235 105.711 C 235 106.285, 235.787 107.373, 236.750 108.128 C 238.369 109.397, 238.390 109.350, 237.033 107.500 C 236.226 106.400, 235.439 105.313, 235.283 105.083 C 235.127 104.854, 235 105.137, 235 105.711 M 17.500 112 C 18.495 113.100, 19.535 114, 19.810 114 C 20.085 114, 19.495 113.100, 18.500 112 C 17.505 110.900, 16.465 110, 16.190 110 C 15.915 110, 16.505 110.900, 17.500 112 M 161.405 112.250 L 159.500 114.500 161.750 112.595 C 162.988 111.547, 164 110.535, 164 110.345 C 164 109.545, 163.195 110.136, 161.405 112.250 M 210.500 114 C 211.495 115.100, 212.535 116, 212.810 116 C 213.085 116, 212.495 115.100, 211.500 114 C 210.505 112.900, 209.465 112, 209.190 112 C 208.915 112, 209.505 112.900, 210.500 114 M 261.405 116.250 L 259.500 118.500 261.750 116.595 C 262.988 115.547, 264 114.535, 264 114.345 C 264 113.545, 263.195 114.136, 261.405 116.250 M 198.500 117 C 199.495 118.100, 200.535 119, 200.810 119 C 201.085 119, 200.495 118.100, 199.500 117 C 198.505 115.900, 197.465 115, 197.190 115 C 196.915 115, 197.505 115.900, 198.500 117 M 215.500 118 C 216.495 119.100, 217.535 120, 217.810 120 C 218.085 120, 217.495 119.100, 216.500 118 C 215.505 116.900, 214.465 116, 214.190 116 C 213.915 116, 214.505 116.900, 215.500 118 M 203.500 121 C 204.495 122.100, 205.535 123, 205.810 123 C 206.085 123, 205.495 122.100, 204.500 121 C 203.505 119.900, 202.465 119, 202.190 119 C 201.915 119, 202.505 119.900, 203.500 121 M 219.921 121.250 C 221.005 122.683, 222.833 123, 230 123 C 237.167 123, 238.995 122.683, 240.079 121.250 C 241.206 119.761, 241.194 119.687, 240.002 120.750 C 239.111 121.544, 235.466 122, 230 122 C 224.534 122, 220.889 121.544, 219.998 120.750 C 218.806 119.687, 218.794 119.761, 219.921 121.250 M 252.058 123.430 C 251.103 124.581, 251.323 125.080, 253.185 125.985 C 255.236 126.982, 255.304 126.952, 253.785 125.720 C 252.479 124.662, 252.348 124.052, 253.235 123.165 C 253.876 122.524, 254.140 122, 253.822 122 C 253.505 122, 252.711 122.644, 252.058 123.430 M 258.997 130.502 C 260.921 132.701, 262.888 134.950, 263.370 135.500 C 263.851 136.050, 263.778 135.600, 263.208 134.500 C 262.638 133.400, 260.671 131.151, 258.836 129.502 L 255.500 126.504 258.997 130.502 M 19.750 130.662 C 20.438 130.940, 21.563 130.940, 22.250 130.662 C 22.938 130.385, 22.375 130.158, 21 130.158 C 19.625 130.158, 19.063 130.385, 19.750 130.662 M 157.750 130.662 C 158.438 130.940, 159.563 130.940, 160.250 130.662 C 160.938 130.385, 160.375 130.158, 159 130.158 C 157.625 130.158, 157.063 130.385, 157.750 130.662 M 222.250 132.743 C 226.512 132.931, 233.488 132.931, 237.750 132.743 C 242.012 132.556, 238.525 132.402, 230 132.402 C 221.475 132.402, 217.988 132.556, 222.250 132.743 M 6.946 137.750 L 3.500 141.500 7.250 138.054 C 9.313 136.158, 11 134.471, 11 134.304 C 11 133.540, 10.154 134.260, 6.946 137.750 M 172 137.500 C 173.866 139.425, 175.617 141, 175.892 141 C 176.167 141, 174.866 139.425, 173 137.500 C 171.134 135.575, 169.383 134, 169.108 134 C 168.833 134, 170.134 135.575, 172 137.500 M 194.624 137.539 C 193.659 140.053, 193.943 140.702, 195.122 138.675 C 195.706 137.671, 195.973 136.639, 195.715 136.382 C 195.458 136.124, 194.966 136.645, 194.624 137.539 M 264.086 137.500 C 264.190 139.394, 265.856 142.584, 265.914 141 C 265.945 140.175, 265.533 138.825, 265 138 C 264.467 137.175, 264.055 136.950, 264.086 137.500 M 13.924 144.750 L 11.500 147.500 14.250 145.076 C 16.820 142.810, 17.459 142, 16.674 142 C 16.495 142, 15.258 143.238, 13.924 144.750 M 165 144.500 C 166.292 145.875, 167.574 147, 167.849 147 C 168.124 147, 167.292 145.875, 166 144.500 C 164.708 143.125, 163.426 142, 163.151 142 C 162.876 142, 163.708 143.125, 165 144.500 M 203.252 147.500 C 203.263 149.700, 203.468 150.482, 203.707 149.238 C 203.946 147.994, 203.937 146.194, 203.687 145.238 C 203.437 144.282, 203.241 145.300, 203.252 147.500 M 256.252 147.500 C 256.263 149.700, 256.468 150.482, 256.707 149.238 C 256.946 147.994, 256.937 146.194, 256.687 145.238 C 256.437 144.282, 256.241 145.300, 256.252 147.500 M 266.252 147.500 C 266.263 149.700, 266.468 150.482, 266.707 149.238 C 266.946 147.994, 266.937 146.194, 266.687 145.238 C 266.437 144.282, 266.241 145.300, 266.252 147.500 M 0.158 151 C 0.158 152.375, 0.385 152.938, 0.662 152.250 C 0.940 151.563, 0.940 150.438, 0.662 149.750 C 0.385 149.063, 0.158 149.625, 0.158 151 M 179.158 151 C 179.158 152.375, 179.385 152.938, 179.662 152.250 C 179.940 151.563, 179.940 150.438, 179.662 149.750 C 179.385 149.063, 179.158 149.625, 179.158 151 M 85.980 151.524 C 84.142 153.739, 85.188 153.994, 87.250 151.833 C 88.213 150.825, 88.605 150, 88.122 150 C 87.640 150, 86.676 150.686, 85.980 151.524 M 60.405 171.250 L 58.500 173.500 60.750 171.595 C 62.864 169.805, 63.455 169, 62.655 169 C 62.465 169, 61.453 170.012, 60.405 171.250 M 118.500 171 C 119.495 172.100, 120.535 173, 120.810 173 C 121.085 173, 120.495 172.100, 119.500 171 C 118.505 169.900, 117.465 169, 117.190 169 C 116.915 169, 117.505 169.900, 118.500 171 M 83.750 170.662 C 84.438 170.940, 85.563 170.940, 86.250 170.662 C 86.938 170.385, 86.375 170.158, 85 170.158 C 83.625 170.158, 83.063 170.385, 83.750 170.662 M 94.269 170.693 C 95.242 170.947, 96.592 170.930, 97.269 170.656 C 97.946 170.382, 97.150 170.175, 95.500 170.195 C 93.850 170.215, 93.296 170.439, 94.269 170.693 M 75 173 C 74.175 173.533, 73.950 173.969, 74.500 173.969 C 75.050 173.969, 76.175 173.533, 77 173 C 77.825 172.467, 78.050 172.031, 77.500 172.031 C 76.950 172.031, 75.825 172.467, 75 173 M 55.405 176.250 L 53.500 178.500 55.750 176.595 C 57.864 174.805, 58.455 174, 57.655 174 C 57.465 174, 56.453 175.012, 55.405 176.250 M 123.500 176 C 124.495 177.100, 125.535 178, 125.810 178 C 126.085 178, 125.495 177.100, 124.500 176 C 123.505 174.900, 122.465 174, 122.190 174 C 121.915 174, 122.505 174.900, 123.500 176 M 139.492 196.004 C 144.234 201.544, 144.299 201.605, 143.214 199.500 C 142.647 198.400, 140.905 196.377, 139.342 195.004 L 136.500 192.507 139.492 196.004 M 38.807 195.750 C 37.045 197.802, 35.724 200, 36.253 200 C 36.457 200, 37.622 198.650, 38.842 197 C 41.252 193.740, 41.230 192.929, 38.807 195.750 M 70.980 196.524 C 69.142 198.739, 70.188 198.994, 72.250 196.833 C 73.213 195.825, 73.605 195, 73.122 195 C 72.640 195, 71.676 195.686, 70.980 196.524 M 100.980 196.524 C 99.142 198.739, 100.188 198.994, 102.250 196.833 C 103.213 195.825, 103.605 195, 103.122 195 C 102.640 195, 101.676 195.686, 100.980 196.524 M 53.559 198.532 C 52.491 199.339, 52.099 200, 52.686 200 C 53.274 200, 54.315 199.325, 55 198.500 C 56.557 196.624, 56.067 196.634, 53.559 198.532 M 125.226 198.579 C 126.176 199.570, 127.168 200.166, 127.431 199.903 C 127.694 199.640, 126.917 198.829, 125.705 198.100 C 123.598 196.835, 123.577 196.857, 125.226 198.579 M 34.252 207.500 C 34.263 209.700, 34.468 210.482, 34.707 209.238 C 34.946 207.994, 34.937 206.194, 34.687 205.238 C 34.437 204.282, 34.241 205.300, 34.252 207.500 M 70.980 215.524 C 69.142 217.739, 70.188 217.994, 72.250 215.833 C 73.213 214.825, 73.605 214, 73.122 214 C 72.640 214, 71.676 214.686, 70.980 215.524 M 76.083 214.283 C 76.313 214.439, 77.400 215.226, 78.500 216.033 C 80.350 217.390, 80.397 217.369, 79.128 215.750 C 78.373 214.787, 77.285 214, 76.711 214 C 76.137 214, 75.854 214.127, 76.083 214.283 M 100.872 215.750 C 99.603 217.369, 99.650 217.390, 101.500 216.033 C 102.600 215.226, 103.688 214.439, 103.917 214.283 C 104.146 214.127, 103.863 214, 103.289 214 C 102.715 214, 101.627 214.787, 100.872 215.750 M 107.750 215.833 C 108.713 216.842, 109.677 217.528, 109.893 217.357 C 110.483 216.892, 107.886 214, 106.878 214 C 106.395 214, 106.787 214.825, 107.750 215.833 M 55.286 217.301 C 56.504 218.566, 57.685 219.469, 57.911 219.307 C 58.494 218.888, 54.856 215, 53.881 215 C 53.436 215, 54.068 216.035, 55.286 217.301 M 123.247 216.250 C 121.750 218.127, 118.875 224, 119.454 224 C 119.732 224, 120.856 222.242, 121.953 220.092 C 123.049 217.943, 124.521 215.954, 125.223 215.671 C 125.997 215.360, 126.056 215.127, 125.372 215.079 C 124.752 215.036, 123.796 215.563, 123.247 216.250 M 37 217.313 C 37 217.485, 38.462 218.948, 40.250 220.563 L 43.500 223.500 40.563 220.250 C 37.825 217.221, 37 216.540, 37 217.313 M 62 227.313 C 62 227.485, 63.462 228.948, 65.250 230.563 L 68.500 233.500 65.563 230.250 C 62.825 227.221, 62 226.540, 62 227.313 M 84.750 229.662 C 85.438 229.940, 86.563 229.940, 87.250 229.662 C 87.938 229.385, 87.375 229.158, 86 229.158 C 84.625 229.158, 84.063 229.385, 84.750 229.662 M 92.750 229.662 C 93.438 229.940, 94.563 229.940, 95.250 229.662 C 95.938 229.385, 95.375 229.158, 94 229.158 C 92.625 229.158, 92.063 229.385, 92.750 229.662 M 109.500 233.625 C 107.702 235.155, 107.334 235.763, 108.582 235.143 C 110.415 234.233, 113.853 230.941, 112.872 231.036 C 112.668 231.056, 111.150 232.221, 109.500 233.625 M 228.750 237.662 C 229.438 237.940, 230.563 237.940, 231.250 237.662 C 231.938 237.385, 231.375 237.158, 230 237.158 C 228.625 237.158, 228.063 237.385, 228.750 237.662 M 95.750 239.662 C 96.438 239.940, 97.563 239.940, 98.250 239.662 C 98.938 239.385, 98.375 239.158, 97 239.158 C 95.625 239.158, 95.063 239.385, 95.750 239.662 M 228.750 247.662 C 229.438 247.940, 230.563 247.940, 231.250 247.662 C 231.938 247.385, 231.375 247.158, 230 247.158 C 228.625 247.158, 228.063 247.385, 228.750 247.662 M 0.158 254 C 0.158 255.375, 0.385 255.938, 0.662 255.250 C 0.940 254.563, 0.940 253.438, 0.662 252.750 C 0.385 252.063, 0.158 252.625, 0.158 254 M 179.158 254 C 179.158 255.375, 179.385 255.938, 179.662 255.250 C 179.940 254.563, 179.940 253.438, 179.662 252.750 C 179.385 252.063, 179.158 252.625, 179.158 254 M 319.158 254 C 319.158 255.375, 319.385 255.938, 319.662 255.250 C 319.940 254.563, 319.940 253.438, 319.662 252.750 C 319.385 252.063, 319.158 252.625, 319.158 254 M 14 260.500 C 15.292 261.875, 16.574 263, 16.849 263 C 17.124 263, 16.292 261.875, 15 260.500 C 13.708 259.125, 12.426 258, 12.151 258 C 11.876 258, 12.708 259.125, 14 260.500 M 164.924 260.750 L 162.500 263.500 165.250 261.076 C 167.820 258.810, 168.459 258, 167.674 258 C 167.495 258, 166.258 259.238, 164.924 260.750 M 304.924 260.750 L 302.500 263.500 305.250 261.076 C 306.762 259.742, 308 258.505, 308 258.326 C 308 257.541, 307.190 258.180, 304.924 260.750 M 7 267.500 C 8.866 269.425, 10.617 271, 10.892 271 C 11.167 271, 9.866 269.425, 8 267.500 C 6.134 265.575, 4.383 264, 4.108 264 C 3.833 264, 5.134 265.575, 7 267.500 M 311.946 267.750 L 308.500 271.500 312.250 268.054 C 314.313 266.158, 316 264.471, 316 264.304 C 316 263.540, 315.154 264.260, 311.946 267.750 M 19.750 274.662 C 20.438 274.940, 21.563 274.940, 22.250 274.662 C 22.938 274.385, 22.375 274.158, 21 274.158 C 19.625 274.158, 19.063 274.385, 19.750 274.662 M 158.250 274.689 C 159.213 274.941, 160.787 274.941, 161.750 274.689 C 162.713 274.438, 161.925 274.232, 160 274.232 C 158.075 274.232, 157.287 274.438, 158.250 274.689 M 297.750 274.662 C 298.438 274.940, 299.563 274.940, 300.250 274.662 C 300.938 274.385, 300.375 274.158, 299 274.158 C 297.625 274.158, 297.063 274.385, 297.750 274.662" stroke="none"  fill-rule="evenodd"/><path d="M 158.441 61.555 C 156.577 63.049, 156.589 63.067, 158.750 62.020 C 159.988 61.420, 161 60.720, 161 60.465 C 161 59.700, 160.481 59.921, 158.441 61.555 M 299 60.430 C 299 60.705, 299.900 61.411, 301 62 C 302.100 62.589, 303 62.845, 303 62.570 C 303 62.295, 302.100 61.589, 301 61 C 299.900 60.411, 299 60.155, 299 60.430 M 198.978 96.750 L 190.500 105.500 199.250 97.022 C 207.377 89.148, 208.456 88, 207.728 88 C 207.578 88, 203.641 91.938, 198.978 96.750 M 253 89.313 C 253 89.485, 254.463 90.948, 256.250 92.563 L 259.500 95.500 256.563 92.250 C 253.825 89.221, 253 88.540, 253 89.313 M 204.946 103.750 L 201.500 107.500 205.250 104.054 C 207.313 102.158, 209 100.471, 209 100.304 C 209 99.540, 208.154 100.260, 204.946 103.750 M 254 103.500 C 255.866 105.425, 257.617 107, 257.892 107 C 258.167 107, 256.866 105.425, 255 103.500 C 253.134 101.575, 251.383 100, 251.108 100 C 250.833 100, 252.134 101.575, 254 103.500 M 212.500 103 C 213.495 104.100, 214.535 105, 214.810 105 C 215.085 105, 214.495 104.100, 213.500 103 C 212.505 101.900, 211.465 101, 211.190 101 C 210.915 101, 211.505 101.900, 212.500 103 M 245.924 103.750 L 243.500 106.500 246.250 104.076 C 248.820 101.810, 249.459 101, 248.674 101 C 248.495 101, 247.258 102.237, 245.924 103.750 M 218.750 108.662 C 219.438 108.940, 220.563 108.940, 221.250 108.662 C 221.938 108.385, 221.375 108.158, 220 108.158 C 218.625 108.158, 218.063 108.385, 218.750 108.662 M 238.750 108.662 C 239.438 108.940, 240.563 108.940, 241.250 108.662 C 241.938 108.385, 241.375 108.158, 240 108.158 C 238.625 108.158, 238.063 108.385, 238.750 108.662 M 206.869 123.342 C 207.481 124.080, 207.649 125.052, 207.241 125.502 C 206.834 125.952, 207.084 125.983, 207.799 125.571 C 208.799 124.994, 208.828 124.498, 207.926 123.411 C 207.282 122.635, 206.530 122, 206.255 122 C 205.980 122, 206.256 122.604, 206.869 123.342 M 199.924 130.750 L 197.500 133.500 200.250 131.076 C 202.820 128.810, 203.459 128, 202.674 128 C 202.495 128, 201.258 129.238, 199.924 130.750 M 206.405 137.250 L 204.500 139.500 206.750 137.595 C 207.988 136.547, 209 135.535, 209 135.345 C 209 134.545, 208.195 135.136, 206.405 137.250 M 252.500 137 C 253.495 138.100, 254.535 139, 254.810 139 C 255.085 139, 254.495 138.100, 253.500 137 C 252.505 135.900, 251.465 135, 251.190 135 C 250.915 135, 251.505 135.900, 252.500 137 M 13.405 144.250 L 11.500 146.500 13.750 144.595 C 15.864 142.805, 16.455 142, 15.655 142 C 15.465 142, 14.453 143.012, 13.405 144.250 M 165.500 144 C 166.495 145.100, 167.535 146, 167.810 146 C 168.085 146, 167.495 145.100, 166.500 144 C 165.505 142.900, 164.465 142, 164.190 142 C 163.915 142, 164.505 142.900, 165.500 144 M 64.437 180.250 L 61.500 183.500 64.750 180.563 C 67.779 177.825, 68.460 177, 67.687 177 C 67.515 177, 66.052 178.463, 64.437 180.250 M 112 177.313 C 112 177.485, 113.463 178.948, 115.250 180.563 L 118.500 183.500 115.563 180.250 C 112.825 177.221, 112 176.540, 112 177.313 M 114.437 230.250 L 111.500 233.500 114.750 230.563 C 117.779 227.825, 118.460 227, 117.687 227 C 117.515 227, 116.052 228.463, 114.437 230.250 M 88.750 229.662 C 89.438 229.940, 90.563 229.940, 91.250 229.662 C 91.938 229.385, 91.375 229.158, 90 229.158 C 88.625 229.158, 88.063 229.385, 88.750 229.662 M 13.500 261 C 14.495 262.100, 15.535 263, 15.810 263 C 16.085 263, 15.495 262.100, 14.500 261 C 13.505 259.900, 12.465 259, 12.190 259 C 11.915 259, 12.505 259.900, 13.500 261 M 165.405 261.250 L 163.500 263.500 165.750 261.595 C 166.988 260.547, 168 259.535, 168 259.345 C 168 258.545, 167.195 259.136, 165.405 261.250 M 305.405 261.250 L 303.500 263.500 305.750 261.595 C 307.864 259.805, 308.455 259, 307.655 259 C 307.465 259, 306.453 260.012, 305.405 261.250" fill-rule="evenodd"/></svg>