<svg xmlns="http://www.w3.org/2000/svg" version="1.0" preserveAspectRatio="xMidYMid meet" viewBox="18.09 10 475.91 491.85">

<g transform="translate(0.000000,512.000000) scale(0.100000,-0.100000)" stroke="none">
<path d="M2652 5000 c-67 -41 -72 -60 -72 -298 l0 -212 -160 -320 -160 -320 0 -1015 0 -1015 -260 0 -260 0 0 383 c0 435 -5 471 -70 605 -46 91 -133 193 -206 239 l-44 28 0 113 0 112 40 0 c27 0 47 7 61 21 19 19 20 30 17 143 -3 116 -5 125 -33 171 -22 36 -45 57 -84 77 l-53 28 -403 0 c-259 0 -414 -4 -432 -11 -56 -21 -102 -61 -128 -112 -22 -45 -25 -63 -25 -164 0 -133 11 -153 80 -153 l40 0 0 -112 0 -113 -44 -28 c-73 -46 -160 -148 -206 -239 -73 -150 -71 -94 -68 -1356 3 -1122 3 -1127 24 -1173 31 -66 78 -114 142 -146 l57 -28 545 1 c300 0 561 1 580 2 19 0 753 -1 1630 -4 1763 -5 1640 -9 1710 59 18 17 41 50 51 72 18 38 19 118 19 1828 l0 1787 -160 320 -160 320 0 212 c0 238 -5 257 -72 298 -32 20 -53 20 -948 20 -895 0 -916 0 -948 -20z m248 -280 l0 -180 -100 0 -100 0 0 173 c0 96 3 177 7 180 3 4 48 7 100 7 l93 0 0 -180z m318 113 l-3 -68 -50 -7 c-27 -4 -71 -14 -97 -22 l-48 -14 0 89 0 89 100 0 101 0 -3 -67z m322 7 l0 -60 -100 0 -100 0 0 60 0 60 100 0 100 0 0 -60z m320 -30 l0 -90 -27 11 c-16 6 -59 17 -98 23 l-70 12 -3 67 -3 67 101 0 100 0 0 -90z m320 -90 l0 -180 -100 0 -100 0 0 180 0 180 100 0 100 0 0 -180z m318 -2 l2 -178 -100 0 -100 0 0 180 0 181 98 -3 97 -3 3 -177z m-873 -68 c95 -11 205 -38 205 -50 0 -25 -230 -60 -390 -60 -161 0 -390 35 -390 60 0 11 114 40 195 49 103 12 277 12 380 1z m-358 -221 c182 -18 467 1 566 40 l27 11 0 -86 0 -85 -52 -24 c-102 -47 -179 -59 -368 -59 -189 0 -266 12 -367 59 l-53 24 0 84 0 84 65 -18 c35 -9 117 -23 182 -30z m-367 -68 c0 -72 9 -97 46 -135 39 -39 110 -70 219 -98 77 -19 116 -22 275 -22 193 1 270 11 380 53 118 45 153 87 158 189 l4 72 239 0 c131 0 239 -2 239 -5 0 -3 -57 -120 -127 -260 l-128 -255 -892 0 c-491 0 -893 2 -893 5 0 3 57 120 127 260 l128 255 112 0 113 0 0 -59z m1793 -276 l127 -255 0 -1765 c0 -1346 -3 -1770 -12 -1790 -22 -49 -51 -55 -248 -55 -197 0 -226 6 -248 55 -9 20 -12 444 -12 1790 l0 1765 127 255 c70 140 130 255 133 255 3 0 63 -115 133 -255z m-511 -2067 c2 -970 7 -1771 12 -1780 8 -17 -34 -18 -798 -18 -443 0 -806 1 -806 3 0 2 9 21 19 43 11 22 22 51 25 65 5 21 146 1410 146 1438 0 6 -9 20 -20 31 -19 19 -33 20 -200 20 l-180 0 0 980 0 980 900 0 900 0 2 -1762z m-2813 1588 c36 -19 51 -55 51 -126 l0 -60 -460 0 -460 0 0 63 c1 68 15 103 51 123 36 20 779 20 818 0z m-69 -406 l0 -100 -340 0 -340 0 0 100 0 100 340 0 340 0 0 -100z m93 -251 c102 -68 194 -206 217 -328 5 -29 10 -114 10 -187 l0 -134 -661 0 -661 0 4 168 c4 143 8 175 28 227 41 107 112 198 204 259 l39 26 387 0 387 0 46 -31z m227 -949 l0 -180 -180 0 c-167 0 -181 -1 -200 -20 -11 -11 -20 -26 -20 -32 0 -7 16 -168 35 -358 19 -190 35 -355 35 -367 l0 -23 -495 0 -495 0 0 580 0 580 660 0 660 0 0 -180z m1030 -327 c0 -16 -7 -89 -15 -163 -8 -74 -15 -143 -15 -152 0 -17 -36 -18 -620 -18 -584 0 -620 1 -620 18 0 9 -7 78 -15 152 -8 74 -15 147 -15 163 l0 27 650 0 650 0 0 -27z m-86 -874 c-23 -231 -45 -433 -49 -447 -11 -43 -54 -93 -99 -113 -38 -17 -71 -19 -416 -19 -342 0 -379 2 -415 19 -49 22 -91 69 -100 112 -4 17 -26 220 -49 450 l-42 419 606 0 606 0 -42 -421z m-1235 -131 c30 -312 36 -348 60 -398 12 -24 21 -45 21 -47 0 -2 -217 -3 -482 -3 -447 0 -486 2 -523 19 -48 22 -69 44 -90 94 -12 30 -15 86 -15 302 l0 265 503 0 503 0 23 -232z"/>
<path d="M2920 3000 c-25 -25 -25 -24 7 -157 33 -136 34 -133 -101 -187 -223 -88 -329 -210 -268 -308 26 -42 78 -72 162 -93 l66 -16 12 -54 c12 -50 11 -55 -12 -90 -36 -52 -49 -101 -43 -156 16 -132 143 -243 337 -296 90 -24 309 -24 400 0 254 67 393 245 319 407 -11 24 -27 52 -35 61 -13 15 -14 25 -3 73 l13 55 51 11 c78 17 151 56 176 96 62 101 -42 221 -268 311 -135 53 -133 49 -99 189 31 127 28 158 -18 170 -53 13 -66 -7 -106 -163 -6 -24 -12 -43 -13 -43 -1 0 -27 10 -57 22 -79 31 -241 32 -319 0 -30 -12 -56 -20 -58 -18 -2 2 -14 43 -27 92 -24 88 -42 114 -78 114 -10 0 -27 -9 -38 -20z m514 -299 c150 -74 244 -257 222 -433 l-7 -56 -52 23 c-99 46 -172 59 -317 59 -144 0 -218 -13 -316 -58 l-52 -24 -6 37 c-22 134 18 269 112 373 106 117 274 149 416 79z m-640 -261 c-8 -41 -16 -75 -17 -77 -4 -3 -107 34 -114 41 -10 10 38 56 92 87 27 15 50 27 52 25 1 -1 -4 -36 -13 -76z m1082 -1 c15 -16 25 -32 21 -35 -7 -7 -110 -44 -114 -41 -2 2 -33 148 -33 155 0 10 103 -55 126 -79z m-453 -274 c98 -21 181 -61 227 -111 66 -71 66 -117 0 -188 -122 -132 -428 -165 -640 -70 -65 29 -135 96 -146 138 -10 40 3 73 46 120 94 102 322 152 513 111z"/>
</g>
</svg>