<svg xmlns="http://www.w3.org/2000/svg" xmlns:xlink="http://www.w3.org/1999/xlink" version="1.1" style="shape-rendering:geometricPrecision; text-rendering:geometricPrecision; image-rendering:optimizeQuality; fill-rule:evenodd; clip-rule:evenodd" viewBox="-0.5 -0.5 64 64">
<g><path  d="M 32.5,-0.5 C 33.5,-0.5 34.5,-0.5 35.5,-0.5C 35.7949,3.07655 34.7949,6.24322 32.5,9C 35.146,9.49742 37.8127,9.66409 40.5,9.5C 39.7422,12.4873 38.9089,15.4873 38,18.5C 37,30.8333 36,43.1667 35,55.5C 34.9029,58.4823 34.0696,61.1489 32.5,63.5C 24.5,63.5 16.5,63.5 8.5,63.5C 7.53128,62.6906 6.69794,61.6906 6,60.5C 4.45054,44.8572 3.28387,29.1905 2.5,13.5C 1.5,13.5 0.5,13.5 -0.5,13.5C -0.5,12.1667 -0.5,10.8333 -0.5,9.5C 9.18959,9.83175 18.8563,9.49842 28.5,8.5C 29.8401,5.47067 31.1734,2.47067 32.5,-0.5 Z M 6.5,13.5 C 15.8333,13.5 25.1667,13.5 34.5,13.5C 33.0566,28.8212 31.7232,44.1545 30.5,59.5C 23.5,59.5 16.5,59.5 9.5,59.5C 8.50003,44.167 7.50003,28.8336 6.5,13.5 Z"/></g>
<g><path  d="M 41.5,19.5 C 53.2331,19.8996 59.2331,25.8996 59.5,37.5C 58.325,37.719 57.325,37.3857 56.5,36.5C 54.466,28.8005 49.466,24.3005 41.5,23C 40.3157,21.8545 40.3157,20.6879 41.5,19.5 Z"/></g>
<g><path  d="M 63.5,43.5 C 63.5,45.1667 63.5,46.8333 63.5,48.5C 60.7389,50.985 57.4056,52.1517 53.5,52C 49.1454,58.5926 44.3121,59.0926 39,53.5C 38.0752,50.8659 38.9085,49.6992 41.5,50C 42.6853,51.353 44.0186,52.5197 45.5,53.5C 47.6499,51.8509 49.6499,50.0176 51.5,48C 54.3713,47.8823 57.038,47.2156 59.5,46C 53.0119,44.5421 46.3452,44.0421 39.5,44.5C 39.5,43.1667 39.5,41.8333 39.5,40.5C 46.5079,40.3337 53.5079,40.5004 60.5,41C 61.6906,41.6979 62.6906,42.5313 63.5,43.5 Z"/></g>
<g><path  d="M 54.5,63.5 C 48.8333,63.5 43.1667,63.5 37.5,63.5C 37.5,62.1667 37.5,60.8333 37.5,59.5C 42.8437,59.666 48.1771,59.4994 53.5,59C 54.9389,58.0094 55.9389,56.676 56.5,55C 57.448,54.5172 58.448,54.3505 59.5,54.5C 60.5869,59.2269 58.9202,62.2269 54.5,63.5 Z"/></g>
</svg>