<svg xmlns="http://www.w3.org/2000/svg" version="1.1" viewBox="25.5 46.15 319.4 249.74"><path d="M 115 46.652 C 70.979 53.335, 38.852 82.598, 27.336 126.500 C 25.712 132.693, 25.500 137.824, 25.500 171 C 25.500 204.176, 25.712 209.307, 27.336 215.500 C 35.722 247.471, 54.270 271.071, 81.947 284.986 C 95.327 291.713, 107.490 294.880, 123 295.674 C 145.993 296.851, 159.961 293.559, 198 277.993 C 227.509 265.918, 241.250 262.530, 266.640 261.072 C 283.896 260.080, 291.635 258.467, 302 253.701 C 318.493 246.116, 333.306 230.217, 339.920 213 C 344.545 200.961, 345.204 193.789, 344.791 160 C 344.447 131.872, 344.249 128.995, 342.236 123 C 332.622 94.371, 302.760 73.331, 253.500 60.481 C 226.448 53.425, 198.141 49.186, 163.517 47.006 C 148.287 46.047, 120.326 45.843, 115 46.652 M 112.238 60.037 C 101.233 62.024, 89.487 66.806, 78.681 73.699 C 60.891 85.047, 46.989 104.118, 40.776 125.698 C 38.855 132.371, 38.536 135.815, 38.572 149.500 C 38.611 164.040, 38.866 166.321, 41.366 174.500 C 46.307 190.661, 54.931 204.218, 67.835 216.113 C 84.203 231.198, 104.988 239.182, 128 239.221 C 146.903 239.254, 158.492 236.363, 189.248 223.943 C 213.213 214.266, 220.951 211.637, 235 208.399 C 245.879 205.891, 274.537 203.401, 278.401 204.627 C 283.210 206.154, 284.376 211.359, 280.686 214.826 C 278.756 216.639, 277.185 217, 271.237 217 C 260.315 217, 241.702 219.707, 229.585 223.057 C 223.581 224.717, 208.056 230.297, 195.085 235.457 C 158.226 250.119, 147.381 252.595, 123.809 251.731 C 107.319 251.126, 97.869 248.884, 83.990 242.283 C 67.911 234.636, 52.458 221.401, 42.821 207.024 L 37.810 199.548 38.500 204.524 C 43.974 243.963, 74.655 275.706, 113.375 281.991 C 122.405 283.456, 137.623 283.214, 147.140 281.453 C 158.667 279.319, 167.654 276.325, 193.362 266.050 C 222.026 254.594, 230.829 252.029, 250.271 249.464 C 256.377 248.659, 264.776 247.992, 268.936 247.983 C 279.181 247.959, 288.615 245.806, 297.775 241.400 C 308.321 236.327, 320.147 224.560, 325.312 213.999 C 329.748 204.929, 332.217 195.606, 331.805 189.480 L 331.500 184.940 327.185 190.478 C 321.913 197.245, 317.978 199.585, 314.741 197.881 C 309.480 195.111, 309.696 190.994, 315.443 184.500 C 321.189 178.006, 325.627 170.626, 328.828 162.242 C 331.085 156.330, 331.406 153.962, 331.439 143 C 331.470 132.296, 331.152 129.695, 329.220 124.895 C 315.561 90.951, 268.611 70.502, 183.500 61.427 C 166.626 59.628, 119.584 58.710, 112.238 60.037 M 114.763 72.033 C 92.562 75.771, 70.680 91.338, 59.707 111.199 C 51.248 126.512, 48.017 147.108, 51.431 163.957 C 59.032 201.467, 90.264 227.038, 128.410 226.984 C 146.395 226.959, 156.456 224.313, 188.870 211.084 C 219.632 198.530, 234.624 194.701, 259.787 192.970 C 279.600 191.608, 284.409 190.662, 292.766 186.480 C 314.709 175.500, 326.068 147.117, 316.704 126.664 C 306.648 104.700, 270.635 87.189, 216.651 78.014 C 201.950 75.515, 200.486 75.514, 198 78 C 193.221 82.779, 197.374 88.327, 206.566 89.446 C 216.591 90.665, 236.885 95.014, 249.500 98.644 C 279.549 107.292, 299.462 119.349, 305.014 132.254 C 306.849 136.520, 307.155 138.718, 306.784 144.956 C 306.210 154.623, 302.635 162.164, 295.371 169.034 C 287.931 176.070, 282.818 178.028, 269 179.130 C 229.377 182.292, 220.264 184.553, 177.032 201.948 C 158.408 209.442, 147.691 212.617, 136.650 213.913 C 115.783 216.363, 96.726 209.776, 81.989 195.020 C 68.452 181.468, 62.301 165.279, 63.224 145.635 C 64.028 128.530, 69.960 115.181, 82.131 103.088 C 89.884 95.386, 96.984 90.884, 107.165 87.216 C 113.986 84.758, 115.866 84.551, 134 84.259 C 144.725 84.087, 154.435 83.744, 155.579 83.497 C 160.640 82.404, 160.548 73.919, 155.453 71.982 C 152.427 70.832, 121.668 70.870, 114.763 72.033 M 167.557 75.223 C 164.389 79.745, 166.993 85, 172.402 85 C 176.262 85, 179 82.438, 179 78.826 C 179 73.349, 170.700 70.735, 167.557 75.223 M 123.844 97.335 C 113.109 101.343, 106.228 108.127, 103.467 117.424 C 101.497 124.055, 101.614 126.892, 104.131 133.619 C 107.886 143.656, 117.261 151.072, 128.403 152.820 C 139.980 154.635, 151.667 150.594, 159.030 142.228 C 171.648 127.894, 166.174 107.127, 147.500 98.490 C 142.323 96.095, 128.918 95.440, 123.844 97.335 M 127 109.690 C 119.607 112.313, 114.067 120.586, 115.363 127.065 C 117.592 138.211, 133.013 144.049, 144.008 137.910 C 150.257 134.420, 152.500 130.925, 152.500 124.677 C 152.500 115.124, 145.208 108.985, 134 109.101 C 130.975 109.132, 127.825 109.397, 127 109.690 M 298.400 197.765 C 293.549 201.004, 295.160 208.274, 300.850 208.820 C 304.961 209.215, 308 206.741, 308 203 C 308 198.460, 302.142 195.266, 298.400 197.765"  fill-rule="evenodd"/><path d="M 115 46.652 C 70.979 53.335, 38.852 82.598, 27.336 126.500 C 25.712 132.693, 25.500 137.824, 25.500 171 C 25.500 204.176, 25.712 209.307, 27.336 215.500 C 35.722 247.471, 54.270 271.071, 81.947 284.986 C 95.327 291.713, 107.490 294.880, 123 295.674 C 145.993 296.851, 159.961 293.559, 198 277.993 C 227.509 265.918, 241.250 262.530, 266.640 261.072 C 283.896 260.080, 291.635 258.467, 302 253.701 C 318.493 246.116, 333.306 230.217, 339.920 213 C 344.545 200.961, 345.204 193.789, 344.791 160 C 344.447 131.872, 344.249 128.995, 342.236 123 C 332.622 94.371, 302.760 73.331, 253.500 60.481 C 226.448 53.425, 198.141 49.186, 163.517 47.006 C 148.287 46.047, 120.326 45.843, 115 46.652 M 112.238 60.037 C 101.233 62.024, 89.487 66.806, 78.681 73.699 C 60.891 85.047, 46.989 104.118, 40.776 125.698 C 38.855 132.371, 38.536 135.815, 38.572 149.500 C 38.611 164.040, 38.866 166.321, 41.366 174.500 C 46.307 190.661, 54.931 204.218, 67.835 216.113 C 84.203 231.198, 104.988 239.182, 128 239.221 C 146.903 239.254, 158.492 236.363, 189.248 223.943 C 213.213 214.266, 220.951 211.637, 235 208.399 C 245.879 205.891, 274.537 203.401, 278.401 204.627 C 283.210 206.154, 284.376 211.359, 280.686 214.826 C 278.756 216.639, 277.185 217, 271.237 217 C 260.315 217, 241.702 219.707, 229.585 223.057 C 223.581 224.717, 208.056 230.297, 195.085 235.457 C 158.226 250.119, 147.381 252.595, 123.809 251.731 C 107.319 251.126, 97.869 248.884, 83.990 242.283 C 67.911 234.636, 52.458 221.401, 42.821 207.024 L 37.810 199.548 38.500 204.524 C 43.974 243.963, 74.655 275.706, 113.375 281.991 C 122.405 283.456, 137.623 283.214, 147.140 281.453 C 158.667 279.319, 167.654 276.325, 193.362 266.050 C 222.026 254.594, 230.829 252.029, 250.271 249.464 C 256.377 248.659, 264.776 247.992, 268.936 247.983 C 279.181 247.959, 288.615 245.806, 297.775 241.400 C 308.321 236.327, 320.147 224.560, 325.312 213.999 C 329.748 204.929, 332.217 195.606, 331.805 189.480 L 331.500 184.940 327.185 190.478 C 321.913 197.245, 317.978 199.585, 314.741 197.881 C 309.480 195.111, 309.696 190.994, 315.443 184.500 C 321.189 178.006, 325.627 170.626, 328.828 162.242 C 331.085 156.330, 331.406 153.962, 331.439 143 C 331.470 132.296, 331.152 129.695, 329.220 124.895 C 315.561 90.951, 268.611 70.502, 183.500 61.427 C 166.626 59.628, 119.584 58.710, 112.238 60.037 M 114.763 72.033 C 92.562 75.771, 70.680 91.338, 59.707 111.199 C 51.248 126.512, 48.017 147.108, 51.431 163.957 C 59.032 201.467, 90.264 227.038, 128.410 226.984 C 146.395 226.959, 156.456 224.313, 188.870 211.084 C 219.632 198.530, 234.624 194.701, 259.787 192.970 C 279.600 191.608, 284.409 190.662, 292.766 186.480 C 314.709 175.500, 326.068 147.117, 316.704 126.664 C 306.648 104.700, 270.635 87.189, 216.651 78.014 C 201.950 75.515, 200.486 75.514, 198 78 C 193.221 82.779, 197.374 88.327, 206.566 89.446 C 216.591 90.665, 236.885 95.014, 249.500 98.644 C 279.549 107.292, 299.462 119.349, 305.014 132.254 C 306.849 136.520, 307.155 138.718, 306.784 144.956 C 306.210 154.623, 302.635 162.164, 295.371 169.034 C 287.931 176.070, 282.818 178.028, 269 179.130 C 229.377 182.292, 220.264 184.553, 177.032 201.948 C 158.408 209.442, 147.691 212.617, 136.650 213.913 C 115.783 216.363, 96.726 209.776, 81.989 195.020 C 68.452 181.468, 62.301 165.279, 63.224 145.635 C 64.028 128.530, 69.960 115.181, 82.131 103.088 C 89.884 95.386, 96.984 90.884, 107.165 87.216 C 113.986 84.758, 115.866 84.551, 134 84.259 C 144.725 84.087, 154.435 83.744, 155.579 83.497 C 160.640 82.404, 160.548 73.919, 155.453 71.982 C 152.427 70.832, 121.668 70.870, 114.763 72.033 M 167.557 75.223 C 164.389 79.745, 166.993 85, 172.402 85 C 176.262 85, 179 82.438, 179 78.826 C 179 73.349, 170.700 70.735, 167.557 75.223 M 123.844 97.335 C 113.109 101.343, 106.228 108.127, 103.467 117.424 C 101.497 124.055, 101.614 126.892, 104.131 133.619 C 107.886 143.656, 117.261 151.072, 128.403 152.820 C 139.980 154.635, 151.667 150.594, 159.030 142.228 C 171.648 127.894, 166.174 107.127, 147.500 98.490 C 142.323 96.095, 128.918 95.440, 123.844 97.335 M 127 109.690 C 119.607 112.313, 114.067 120.586, 115.363 127.065 C 117.592 138.211, 133.013 144.049, 144.008 137.910 C 150.257 134.420, 152.500 130.925, 152.500 124.677 C 152.500 115.124, 145.208 108.985, 134 109.101 C 130.975 109.132, 127.825 109.397, 127 109.690 M 298.400 197.765 C 293.549 201.004, 295.160 208.274, 300.850 208.820 C 304.961 209.215, 308 206.741, 308 203 C 308 198.460, 302.142 195.266, 298.400 197.765" fill-rule="evenodd"/><path d="M 115 46.652 C 70.979 53.335, 38.852 82.598, 27.336 126.500 C 25.712 132.693, 25.500 137.824, 25.500 171 C 25.500 204.176, 25.712 209.307, 27.336 215.500 C 35.722 247.471, 54.270 271.071, 81.947 284.986 C 95.327 291.713, 107.490 294.880, 123 295.674 C 145.993 296.851, 159.961 293.559, 198 277.993 C 227.509 265.918, 241.250 262.530, 266.640 261.072 C 283.896 260.080, 291.635 258.467, 302 253.701 C 318.493 246.116, 333.306 230.217, 339.920 213 C 344.545 200.961, 345.204 193.789, 344.791 160 C 344.447 131.872, 344.249 128.995, 342.236 123 C 332.622 94.371, 302.760 73.331, 253.500 60.481 C 226.448 53.425, 198.141 49.186, 163.517 47.006 C 148.287 46.047, 120.326 45.843, 115 46.652 M 112.238 60.037 C 101.233 62.024, 89.487 66.806, 78.681 73.699 C 60.891 85.047, 46.989 104.118, 40.776 125.698 C 38.855 132.371, 38.536 135.815, 38.572 149.500 C 38.611 164.040, 38.866 166.321, 41.366 174.500 C 46.307 190.661, 54.931 204.218, 67.835 216.113 C 84.203 231.198, 104.988 239.182, 128 239.221 C 146.903 239.254, 158.492 236.363, 189.248 223.943 C 213.213 214.266, 220.951 211.637, 235 208.399 C 245.879 205.891, 274.537 203.401, 278.401 204.627 C 283.210 206.154, 284.376 211.359, 280.686 214.826 C 278.756 216.639, 277.185 217, 271.237 217 C 260.315 217, 241.702 219.707, 229.585 223.057 C 223.581 224.717, 208.056 230.297, 195.085 235.457 C 158.226 250.119, 147.381 252.595, 123.809 251.731 C 107.319 251.126, 97.869 248.884, 83.990 242.283 C 67.911 234.636, 52.458 221.401, 42.821 207.024 L 37.810 199.548 38.500 204.524 C 43.974 243.963, 74.655 275.706, 113.375 281.991 C 122.405 283.456, 137.623 283.214, 147.140 281.453 C 158.667 279.319, 167.654 276.325, 193.362 266.050 C 222.026 254.594, 230.829 252.029, 250.271 249.464 C 256.377 248.659, 264.776 247.992, 268.936 247.983 C 279.181 247.959, 288.615 245.806, 297.775 241.400 C 308.321 236.327, 320.147 224.560, 325.312 213.999 C 329.748 204.929, 332.217 195.606, 331.805 189.480 L 331.500 184.940 327.185 190.478 C 321.913 197.245, 317.978 199.585, 314.741 197.881 C 309.480 195.111, 309.696 190.994, 315.443 184.500 C 321.189 178.006, 325.627 170.626, 328.828 162.242 C 331.085 156.330, 331.406 153.962, 331.439 143 C 331.470 132.296, 331.152 129.695, 329.220 124.895 C 315.561 90.951, 268.611 70.502, 183.500 61.427 C 166.626 59.628, 119.584 58.710, 112.238 60.037 M 114.763 72.033 C 92.562 75.771, 70.680 91.338, 59.707 111.199 C 51.248 126.512, 48.017 147.108, 51.431 163.957 C 59.032 201.467, 90.264 227.038, 128.410 226.984 C 146.395 226.959, 156.456 224.313, 188.870 211.084 C 219.632 198.530, 234.624 194.701, 259.787 192.970 C 279.600 191.608, 284.409 190.662, 292.766 186.480 C 314.709 175.500, 326.068 147.117, 316.704 126.664 C 306.648 104.700, 270.635 87.189, 216.651 78.014 C 201.950 75.515, 200.486 75.514, 198 78 C 193.221 82.779, 197.374 88.327, 206.566 89.446 C 216.591 90.665, 236.885 95.014, 249.500 98.644 C 279.549 107.292, 299.462 119.349, 305.014 132.254 C 306.849 136.520, 307.155 138.718, 306.784 144.956 C 306.210 154.623, 302.635 162.164, 295.371 169.034 C 287.931 176.070, 282.818 178.028, 269 179.130 C 229.377 182.292, 220.264 184.553, 177.032 201.948 C 158.408 209.442, 147.691 212.617, 136.650 213.913 C 115.783 216.363, 96.726 209.776, 81.989 195.020 C 68.452 181.468, 62.301 165.279, 63.224 145.635 C 64.028 128.530, 69.960 115.181, 82.131 103.088 C 89.884 95.386, 96.984 90.884, 107.165 87.216 C 113.986 84.758, 115.866 84.551, 134 84.259 C 144.725 84.087, 154.435 83.744, 155.579 83.497 C 160.640 82.404, 160.548 73.919, 155.453 71.982 C 152.427 70.832, 121.668 70.870, 114.763 72.033 M 167.557 75.223 C 164.389 79.745, 166.993 85, 172.402 85 C 176.262 85, 179 82.438, 179 78.826 C 179 73.349, 170.700 70.735, 167.557 75.223 M 123.844 97.335 C 113.109 101.343, 106.228 108.127, 103.467 117.424 C 101.497 124.055, 101.614 126.892, 104.131 133.619 C 107.886 143.656, 117.261 151.072, 128.403 152.820 C 139.980 154.635, 151.667 150.594, 159.030 142.228 C 171.648 127.894, 166.174 107.127, 147.500 98.490 C 142.323 96.095, 128.918 95.440, 123.844 97.335 M 127 109.690 C 119.607 112.313, 114.067 120.586, 115.363 127.065 C 117.592 138.211, 133.013 144.049, 144.008 137.910 C 150.257 134.420, 152.500 130.925, 152.500 124.677 C 152.500 115.124, 145.208 108.985, 134 109.101 C 130.975 109.132, 127.825 109.397, 127 109.690 M 298.400 197.765 C 293.549 201.004, 295.160 208.274, 300.850 208.820 C 304.961 209.215, 308 206.741, 308 203 C 308 198.460, 302.142 195.266, 298.400 197.765"  fill-rule="evenodd"/></svg>