<svg xmlns="http://www.w3.org/2000/svg" xmlns:xlink="http://www.w3.org/1999/xlink" version="1.1" style="shape-rendering:geometricPrecision; text-rendering:geometricPrecision; image-rendering:optimizeQuality; fill-rule:evenodd; clip-rule:evenodd" viewBox="35.48 56 305.08 299.5">
<g><path style="opacity:0.972"  d="M 327.5,172.5 C 328.209,173.404 329.209,173.737 330.5,173.5C 330.802,170.941 330.468,168.607 329.5,166.5C 327.942,158.42 326.942,150.253 326.5,142C 327.403,131.467 328.403,120.967 329.5,110.5C 280.167,110.5 230.833,110.5 181.5,110.5C 183.251,121.773 183.751,133.107 183,144.5C 179.171,148.663 175.837,148.329 173,143.5C 172,124.5 171,105.5 170,86.5C 167,78.8333 164,71.1667 161,63.5C 160.056,60.6529 160.556,58.1529 162.5,56C 178.168,56.7661 193.835,57.9328 209.5,59.5C 238.664,55.5332 267.831,55.5332 297,59.5C 310.857,58.1816 324.69,57.015 338.5,56C 339,56.5 339.5,57 340,57.5C 341.242,85.7516 340.409,113.918 337.5,142C 340.37,167.413 341.203,192.913 340,218.5C 337,221.167 334,221.167 331,218.5C 330.667,207.167 330.333,195.833 330,184.5C 309.142,176.443 287.976,175.61 266.5,182C 252.861,188.55 238.527,192.216 223.5,193C 222.667,192.167 221.833,191.333 221,190.5C 220.957,173.767 220.29,157.1 219,140.5C 213.333,133.833 207.667,133.833 202,140.5C 201.08,143.101 200.413,145.768 200,148.5C 197,151.167 194,151.167 191,148.5C 190.97,131.537 199.47,124.037 216.5,126C 219.834,127.331 222.834,129.165 225.5,131.5C 235.5,123.5 245.5,123.5 255.5,131.5C 265.5,123.5 275.5,123.5 285.5,131.5C 296.597,122.967 307.097,123.633 317,133.5C 318,135.5 319,137.5 320,139.5C 320.5,149.828 320.666,160.161 320.5,170.5C 322.965,170.767 325.299,171.434 327.5,172.5 Z M 173.5,67.5 C 173.917,66.8761 174.584,66.5427 175.5,66.5C 186.743,68.4615 198.076,69.4615 209.5,69.5C 223.856,68.8311 238.189,67.8311 252.5,66.5C 267.308,67.859 282.141,68.859 297,69.5C 308.257,69.3908 319.424,68.3908 330.5,66.5C 330.5,71.1667 330.5,75.8333 330.5,80.5C 279.833,80.5 229.167,80.5 178.5,80.5C 177.404,75.8677 175.737,71.5344 173.5,67.5 Z M 180.5,90.5 C 230.5,90.5 280.5,90.5 330.5,90.5C 330.5,93.8333 330.5,97.1667 330.5,100.5C 280.5,100.5 230.5,100.5 180.5,100.5C 180.5,97.1667 180.5,93.8333 180.5,90.5 Z M 238.5,135.5 C 244.402,135.24 248.235,137.907 250,143.5C 250.5,154.828 250.667,166.162 250.5,177.5C 243.982,179.088 237.482,180.754 231,182.5C 230.333,169.5 230.333,156.5 231,143.5C 232.353,139.65 234.853,136.983 238.5,135.5 Z M 268.5,135.5 C 272.883,135.348 276.383,137.015 279,140.5C 280.417,149.752 280.917,159.085 280.5,168.5C 273.699,169.201 267.033,170.534 260.5,172.5C 260.334,162.828 260.5,153.161 261,143.5C 262.353,139.65 264.853,136.983 268.5,135.5 Z M 298.5,135.5 C 302.883,135.348 306.383,137.015 309,140.5C 310.75,149.776 310.917,159.109 309.5,168.5C 303.227,167.54 296.893,167.207 290.5,167.5C 290.086,158.418 290.586,149.418 292,140.5C 293.805,138.174 295.972,136.508 298.5,135.5 Z"/></g>
<g><path style="opacity:0.961"  d="M 45.5,155.5 C 56.505,155.333 67.505,155.5 78.5,156C 81.1667,159 81.1667,162 78.5,165C 68.0683,165.048 57.7349,165.714 47.5,167C 44.8471,170.39 45.5138,173.057 49.5,175C 100.167,175.667 150.833,175.667 201.5,175C 205.486,173.057 206.153,170.39 203.5,167C 166.585,165.679 129.585,165.012 92.5,165C 89.8333,162 89.8333,159 92.5,156C 130.167,155.333 167.833,155.333 205.5,156C 213.871,159.909 217.037,166.409 215,175.5C 212.454,182.187 207.621,185.52 200.5,185.5C 200.666,194.839 200.5,204.173 200,213.5C 199.5,214 199,214.5 198.5,215C 152.501,215.5 106.501,215.667 60.5,215.5C 60.5,245.5 60.5,275.5 60.5,305.5C 83.1691,305.333 105.836,305.5 128.5,306C 131.167,309 131.167,312 128.5,315C 105.836,315.5 83.1691,315.667 60.5,315.5C 60.161,322.574 60.661,329.574 62,336.5C 63.8333,339.667 66.3333,342.167 69.5,344C 90.7828,345.288 112.116,345.955 133.5,346C 136.167,349 136.167,352 133.5,355C 112.167,355.667 90.8333,355.667 69.5,355C 60,352.167 53.8333,346 51,336.5C 50.5,286.168 50.3333,235.834 50.5,185.5C 38.6113,184.081 33.778,177.415 36,165.5C 38.0223,160.98 41.189,157.647 45.5,155.5 Z M 60.5,185.5 C 103.833,185.5 147.167,185.5 190.5,185.5C 190.5,192.167 190.5,198.833 190.5,205.5C 147.167,205.5 103.833,205.5 60.5,205.5C 60.5,198.833 60.5,192.167 60.5,185.5 Z"/></g>
<g><path style="opacity:0.251"  d="M 329.5,166.5 C 330.468,168.607 330.802,170.941 330.5,173.5C 329.209,173.737 328.209,173.404 327.5,172.5C 329.308,171.082 329.975,169.082 329.5,166.5 Z"/></g>
<g><path style="opacity:0.959"  d="M 217.5,205.5 C 236.17,205.333 254.836,205.5 273.5,206C 276.167,209 276.167,212 273.5,215C 254.833,215.667 236.167,215.667 217.5,215C 214.888,211.836 214.888,208.669 217.5,205.5 Z"/></g>
<g><path style="opacity:0.96"  d="M 287.5,205.5 C 297.839,205.334 308.172,205.5 318.5,206C 321.167,209 321.167,212 318.5,215C 308.167,215.667 297.833,215.667 287.5,215C 284.888,211.836 284.888,208.669 287.5,205.5 Z"/></g>
<g><path style="opacity:0.968" d="M 127.5,225.5 C 132.156,224.34 134.823,226.007 135.5,230.5C 133.394,235.717 131.561,241.051 130,246.5C 129.179,249.554 129.345,252.554 130.5,255.5C 134.089,256.875 137.256,258.875 140,261.5C 137.946,248.996 141.446,238.496 150.5,230C 153.215,228.092 156.215,226.759 159.5,226C 213.5,225.333 267.5,225.333 321.5,226C 331,228.833 337.167,235 340,244.5C 340.667,250.833 340.667,257.167 340,263.5C 337,266.167 334,266.167 331,263.5C 330.667,258.5 330.333,253.5 330,248.5C 328.5,241.667 324.333,237.5 317.5,236C 266.167,235.333 214.833,235.333 163.5,236C 156.667,237.5 152.5,241.667 151,248.5C 150.333,276.5 150.333,304.5 151,332.5C 152.5,339.333 156.667,343.5 163.5,345C 216.212,345.982 268.879,345.649 321.5,344C 326.266,341.571 329.1,337.737 330,332.5C 330.333,314.167 330.667,295.833 331,277.5C 334,274.833 337,274.833 340,277.5C 340.667,297.167 340.667,316.833 340,336.5C 337.167,346 331,352.167 321.5,355C 267.5,355.667 213.5,355.667 159.5,355C 150,352.167 143.833,346 141,336.5C 140.667,320.833 140.333,305.167 140,289.5C 132.724,295.847 124.558,297.181 115.5,293.5C 101.396,298.527 91.563,294.193 86,280.5C 84.3039,268.366 89.1373,260.033 100.5,255.5C 104.945,241.196 113.945,231.196 127.5,225.5 Z M 118.5,243.5 C 119.811,247.683 119.811,252.016 118.5,256.5C 115.917,257.938 113.583,257.604 111.5,255.5C 113.34,251.144 115.674,247.144 118.5,243.5 Z M 103.5,265.5 C 113.155,266.308 116.655,271.308 114,280.5C 108.333,287.167 102.667,287.167 97,280.5C 94.4274,273.371 96.5941,268.371 103.5,265.5 Z M 123.5,265.5 C 133.155,266.308 136.655,271.308 134,280.5C 131.331,284.331 127.831,285.664 123.5,284.5C 126.1,278.168 126.1,271.835 123.5,265.5 Z"/></g>
<g><path style="opacity:0.983" d="M 205.5,260.5 C 227.295,258.094 245.628,264.761 260.5,280.5C 273.076,266.693 288.743,260.193 307.5,261C 309.124,262.117 310.124,263.617 310.5,265.5C 307.451,273.553 305.785,281.886 305.5,290.5C 306.3,299.695 307.8,308.695 310,317.5C 307.781,319.995 304.948,320.995 301.5,320.5C 285.013,319.423 271.347,312.756 260.5,300.5C 238.638,322.36 213.638,326.527 185.5,313C 177.048,308.215 170.214,301.715 165,293.5C 164.333,291.5 164.333,289.5 165,287.5C 174.944,273.115 188.444,264.115 205.5,260.5 Z M 208.5,271.5 C 210.554,271.365 212.221,272.032 213.5,273.5C 216.167,284.833 216.167,296.167 213.5,307.5C 212.221,308.968 210.554,309.635 208.5,309.5C 194.968,307.744 184.302,301.41 176.5,290.5C 184.302,279.59 194.968,273.256 208.5,271.5 Z M 223.5,271.5 C 236.25,274.035 246.584,280.368 254.5,290.5C 246.957,300.2 237.124,306.533 225,309.5C 224.5,309.167 224,308.833 223.5,308.5C 226.136,296.167 226.136,283.834 223.5,271.5 Z M 294.5,271.5 C 295.5,271.5 296.5,271.5 297.5,271.5C 294.833,284.167 294.833,296.833 297.5,309.5C 284.426,307.471 274.092,301.137 266.5,290.5C 273.686,280.977 283.019,274.644 294.5,271.5 Z"/></g>
<g><path style="opacity:0.047"  d="M 208.5,271.5 C 209.919,270.549 211.585,270.216 213.5,270.5C 213.5,271.5 213.5,272.5 213.5,273.5C 212.221,272.032 210.554,271.365 208.5,271.5 Z"/></g>
<g><path style="opacity:0.969" d="M 192.5,280.5 C 200.486,279.998 202.486,283.165 198.5,290C 190.424,290.805 188.424,287.638 192.5,280.5 Z"/></g>
<g><path style="opacity:0.047"  d="M 213.5,307.5 C 213.5,308.5 213.5,309.5 213.5,310.5C 211.585,310.784 209.919,310.451 208.5,309.5C 210.554,309.635 212.221,308.968 213.5,307.5 Z"/></g>
</svg>