<svg xmlns="http://www.w3.org/2000/svg" width="2501" height="2625" viewBox="0 0 2501 2625" version="1.1"><path d="M 101.437 126.559 C 76.230 130.796, 54.902 141.996, 35.949 160.949 C 11.134 185.765, 0.008 213.331, 0.008 250 C 0.008 265.315, 1.784 278.044, 5.612 290.172 C 19.208 333.242, 57.498 366.234, 102.328 373.504 C 109.810 374.718, 124.219 374.993, 180.527 374.996 L 249.555 375 473.348 847.457 C 596.434 1107.309, 697.613 1321.171, 698.189 1322.707 C 699.165 1325.307, 693.264 1336.334, 612.960 1482 C 565.508 1568.075, 524.095 1644.125, 520.930 1651 C 514.345 1665.306, 508.062 1682.948, 504.378 1697.479 C 496.552 1728.340, 495.834 1765.563, 502.459 1797 C 512.382 1844.091, 541.554 1896.567, 578.049 1932.976 C 596.591 1951.473, 614.050 1963.971, 637.500 1975.534 C 659.751 1986.506, 680.386 1992.990, 708 1997.689 C 718.003 1999.391, 752.109 1999.490, 1428 1999.775 C 2077.204 2000.049, 2138.350 1999.937, 2147.500 1998.460 C 2186.773 1992.118, 2220.649 1966.699, 2238.070 1930.500 C 2246.236 1913.532, 2249.992 1896.048, 2249.992 1875 C 2249.992 1853.952, 2246.236 1836.468, 2238.070 1819.500 C 2220.696 1783.400, 2186.700 1757.826, 2147.672 1751.496 C 2139.617 1750.189, 2054.041 1750.008, 1444.750 1750.004 C 1063.188 1750.002, 751.022 1749.662, 751.048 1749.250 C 751.074 1748.838, 781.816 1692.700, 819.363 1624.500 L 887.631 1500.500 1367.565 1499.993 L 1847.500 1499.486 1860 1497.218 C 1892.298 1491.355, 1918.420 1481.784, 1944.799 1466.148 C 1962.679 1455.550, 1976.073 1445.047, 1992.095 1429.062 C 2009.888 1411.310, 2019.293 1399.519, 2031.227 1380 C 2038.637 1367.880, 2485.974 557.182, 2489.491 549.500 C 2492.995 541.845, 2496.425 531.981, 2498.649 523.164 C 2500.754 514.819, 2501.537 491.633, 2500.030 482.264 C 2495.753 455.667, 2481.784 428.695, 2462.052 408.934 C 2451.741 398.608, 2444.635 393.352, 2433.211 387.604 C 2416.061 378.973, 2397.853 375, 2375.455 375 C 2352.270 375, 2334.699 379.008, 2316 388.561 C 2298.798 397.350, 2284.333 410.466, 2274.712 426 C 2273.179 428.475, 2169.189 614.775, 2043.623 840 L 1815.321 1249.500 1378.041 1249.500 L 940.761 1249.500 767.856 883 C 672.758 681.425, 562.054 446.750, 521.846 361.500 C 481.638 276.250, 446.090 201.088, 442.851 194.473 C 427.571 163.274, 402.921 141.969, 369 130.642 C 351.869 124.921, 353.836 124.998, 226.500 125.105 C 133.042 125.184, 107.878 125.476, 101.437 126.559 M 976.357 376.571 C 946.793 381.538, 920.313 397.396, 900.857 421.788 C 889.991 435.411, 883.123 449.325, 878.459 467.167 C 874.900 480.780, 873.869 508.214, 876.374 522.636 C 881.066 549.653, 893.117 572.382, 912.634 591.028 C 931.318 608.878, 952.402 619.462, 977.328 623.504 C 985.334 624.803, 1035.913 624.992, 1375.074 624.996 C 1727.472 625, 1764.525 624.850, 1773.074 623.392 C 1812.452 616.676, 1845.698 591.596, 1863.070 555.500 C 1871.236 538.532, 1874.992 521.048, 1874.992 500 C 1874.992 478.063, 1870.927 459.973, 1862.029 442.317 C 1844.464 407.462, 1810.826 382.684, 1772.672 376.496 C 1764.658 375.196, 1714.314 375.020, 1374 375.106 C 1049.469 375.187, 983.142 375.432, 976.357 376.571 M 717.500 2126.549 C 683.807 2130.639, 646.712 2143.591, 620 2160.594 C 587.049 2181.569, 553.954 2214.988, 534.433 2247 C 516.604 2276.238, 504.595 2312.164, 501.056 2346.856 C 499.543 2361.696, 499.754 2391.409, 501.478 2406.150 C 507.781 2460.031, 530.043 2506.646, 568.782 2547.082 C 610.966 2591.113, 661.301 2616.790, 718.559 2623.488 C 735.127 2625.426, 764.873 2625.426, 781.441 2623.488 C 826.756 2618.187, 869.636 2600.055, 905.605 2570.985 C 915.643 2562.871, 937.778 2540.767, 945.644 2531 C 972.664 2497.451, 989.039 2461.563, 996.748 2419 C 999.196 2405.484, 999.375 2402.497, 999.375 2375 C 999.375 2347.503, 999.196 2344.516, 996.748 2331 C 989.176 2289.192, 973.475 2254.222, 947.585 2221.503 C 937.693 2209.002, 916.512 2187.758, 904 2177.789 C 868.101 2149.188, 826.502 2131.783, 781.441 2126.512 C 765.629 2124.663, 732.890 2124.682, 717.500 2126.549 M 1970.500 2126.045 C 1936.564 2129.836, 1898.638 2142.749, 1871.018 2159.917 C 1838.420 2180.179, 1803.221 2215.537, 1784.326 2247 C 1760.547 2286.597, 1749.884 2326.224, 1749.884 2375 C 1749.884 2445.513, 1773.085 2501.202, 1823.442 2551.558 C 1853.285 2581.401, 1883.379 2600.520, 1919.513 2612.594 C 1947.936 2622.092, 1973.305 2625.579, 2007.719 2624.717 C 2047.196 2623.728, 2075.964 2616.879, 2109.528 2600.478 C 2133.277 2588.873, 2155.074 2573.009, 2176.069 2552.048 C 2225.916 2502.283, 2249.993 2444.619, 2249.993 2375 C 2249.993 2304.394, 2224.061 2243.636, 2173.029 2194.680 C 2134.655 2157.865, 2090.549 2135.590, 2039.940 2127.466 C 2027.798 2125.516, 1983.367 2124.607, 1970.500 2126.045" stroke="none"  fill-rule="evenodd"/></svg>