<svg xmlns="http://www.w3.org/2000/svg" width="312" height="296" viewBox="0 0 312 296" version="1.1"><path d="M 109.200 3.200 C 108.442 3.958, 108.004 7.732, 108.010 13.450 C 108.018 20.874, 108.444 23.398, 110.383 27.500 C 113.257 33.578, 116.997 37.228, 123.132 39.941 C 126.666 41.504, 127.893 42.643, 128.305 44.745 C 129.039 48.481, 128.036 49.215, 122.080 49.305 C 115.324 49.407, 112.544 47.193, 109.138 39 C 106.572 32.826, 106.269 32.500, 103.077 32.500 C 98.353 32.500, 97.233 34.661, 98.822 40.708 C 102.168 53.447, 110.993 60.532, 122.500 59.718 C 125.800 59.484, 129.232 58.975, 130.127 58.587 C 131.348 58.057, 131.924 58.580, 132.438 60.690 C 133.631 65.591, 140.695 76.470, 146.538 82.407 C 154.745 90.747, 162.519 95.383, 176.500 100.278 C 178.222 100.880, 193.914 101.577, 213.334 101.914 L 247.168 102.500 250.084 105.766 C 253.120 109.166, 253.666 112.119, 252.045 116.383 C 250.216 121.192, 247.376 122.046, 229.838 123.058 C 220.852 123.577, 206.378 124.481, 197.674 125.066 L 181.847 126.131 177.059 121.652 C 169.517 114.597, 164.388 112.682, 151.736 112.193 C 138.147 111.669, 137.568 112.035, 138.266 120.727 C 138.925 128.929, 142.657 136.470, 148.992 142.396 L 153.959 147.042 149.812 150.771 C 144.230 155.789, 140.335 162.143, 138.894 168.581 L 137.702 173.907 131.101 175.429 C 111.778 179.883, 94.343 187.318, 76.819 198.577 L 70.138 202.870 67.626 199.576 C 59.788 189.300, 47.782 181.339, 35.897 178.537 C 28.090 176.697, 10.920 176.480, 9.200 178.200 C 6.239 181.161, 8.909 196.915, 14.124 207.245 C 17.841 214.610, 28.310 225.825, 34.561 229.142 C 37.003 230.437, 39 231.723, 39 232 C 39 232.277, 37.003 233.563, 34.561 234.858 C 28.310 238.175, 17.841 249.390, 14.124 256.755 C 8.618 267.662, 6.314 282.171, 9.571 285.429 C 10.774 286.631, 13.296 286.997, 20.321 286.985 C 38.757 286.956, 51.401 281.668, 63.310 269.008 L 70.571 261.291 74.035 263.695 C 80.671 268.300, 94.990 276.005, 103.217 279.398 C 123.841 287.902, 137.076 290.866, 158 291.667 C 205.273 293.476, 247.186 283.248, 279 262.140 C 288.701 255.703, 304.905 240.086, 306.901 235.250 C 308.910 230.384, 307.005 226.940, 296.530 216.500 C 272.557 192.607, 234.845 176.799, 194 173.522 C 189.875 173.192, 184.609 172.689, 182.298 172.406 L 178.096 171.892 181.679 167.196 L 185.261 162.500 221.881 161.985 L 258.500 161.470 266.490 158.661 C 286.628 151.583, 299.290 138.255, 305.647 117.444 C 308.208 109.060, 308.183 85.687, 305.605 78.500 C 297.502 55.910, 284.349 42.744, 261.500 34.352 C 256.901 32.663, 251.358 32.475, 192.322 32.008 C 129.467 31.510, 128.087 31.458, 125.384 29.438 C 119.822 25.284, 118.630 22.605, 118.046 12.952 C 117.476 3.531, 116.717 2.047, 112.450 2.015 C 111.323 2.007, 109.860 2.540, 109.200 3.200 M 139 44.788 C 139 53.493, 145.631 66.631, 154.500 75.500 C 163.650 84.650, 173.772 89.609, 187.021 91.432 C 191.282 92.018, 191.752 91.837, 195.210 88.277 C 197.228 86.200, 200.268 81.688, 201.967 78.250 C 204.474 73.177, 205.508 72, 207.456 72 C 210.329 72, 213 74.421, 213 77.024 C 213 79.308, 211.347 83.233, 208.273 88.250 L 205.975 92 221.264 92 L 236.554 92 243.180 85.250 C 254.116 74.111, 261.165 60.689, 262.194 49.045 C 262.751 42.754, 261.601 42.635, 196.250 42.240 L 139 41.895 139 44.788 M 271.686 55.273 C 270.384 64.771, 262.600 79.887, 254.219 89.192 C 251.762 91.919, 250.937 93.469, 251.787 93.756 C 254.487 94.669, 259.168 99.409, 261.089 103.175 C 262.190 105.332, 263.720 107.339, 264.490 107.634 C 267.003 108.599, 280.121 106.001, 285.438 103.486 C 288.297 102.134, 292.300 99.559, 294.335 97.764 L 298.036 94.500 296.966 88.066 C 294.932 75.827, 288.569 64.341, 279.192 55.984 C 276.117 53.243, 273.302 51, 272.936 51 C 272.571 51, 272.008 52.923, 271.686 55.273 M 164.200 53.200 C 161.372 56.028, 163.951 62, 168 62 C 170.386 62, 173 59.386, 173 57 C 173 52.951, 167.028 50.372, 164.200 53.200 M 56.153 78.008 C 42.945 80.806, 29.512 88.570, 19.325 99.295 C 8.103 111.109, 5.566 119.109, 10.250 127.916 C 12.038 131.278, 14.554 133.436, 22.500 138.428 L 32.500 144.710 33.005 153.656 C 33.542 163.184, 34.929 166.597, 39.476 169.576 C 43.870 172.455, 49.182 172.469, 57.428 169.621 C 66.882 166.356, 69.118 166.356, 78.572 169.621 C 86.818 172.469, 92.130 172.455, 96.524 169.576 C 101.067 166.600, 102.458 163.182, 102.995 153.680 L 103.500 144.759 113.500 138.472 C 121.474 133.458, 123.956 131.324, 125.750 127.935 C 130.430 119.096, 127.900 111.111, 116.675 99.295 C 103.439 85.361, 87.985 78.045, 70.500 77.435 C 65 77.244, 58.544 77.501, 56.153 78.008 M 59 87.954 C 39.795 91.545, 15.498 111.980, 18.763 121.795 C 20.326 126.492, 44 140.168, 44 136.374 C 44 136.029, 42.650 133.091, 41 129.844 C 36.452 120.893, 37.394 116.456, 43.690 117.178 C 46.143 117.459, 47.126 118.737, 51.435 127.250 C 56.183 136.630, 56.497 137, 59.685 137 L 63 137 63 125.700 C 63 113.748, 63.591 112, 67.629 112 C 72.127 112, 73 114.288, 73 126.071 L 73 137 76.343 137 C 79.569 137, 79.850 136.669, 84.337 127.569 C 89.058 117.995, 90.945 116.213, 94.998 117.499 C 98.527 118.620, 98.574 122.620, 95.137 129.527 C 93.411 132.993, 92 136.092, 92 136.414 C 92 140.175, 115.687 126.453, 117.237 121.795 C 119.870 113.881, 102.799 96.975, 85.661 90.525 C 78.346 87.771, 66.227 86.602, 59 87.954 M 290.990 112.119 C 283.789 115.754, 274.969 118, 267.898 118 C 262.684 118, 262.166 118.204, 261.594 120.481 C 261.252 121.845, 259.403 124.530, 257.486 126.448 C 255.569 128.365, 254 130.760, 254 131.771 C 254 135.485, 259.627 142.641, 264.343 144.924 L 268.912 147.136 273.571 144.406 C 283.545 138.560, 291.737 127.556, 295.401 115.080 C 296.277 112.099, 296.882 109.588, 296.747 109.499 C 296.611 109.411, 294.020 110.590, 290.990 112.119 M 149.009 123.112 C 149.015 123.876, 150.370 126.857, 152.022 129.737 C 154.234 133.594, 156.406 135.766, 160.263 137.978 C 163.143 139.630, 165.953 140.985, 166.506 140.991 C 168.277 141.007, 172.289 131.053, 171.093 129.612 C 167.240 124.969, 148.986 119.597, 149.009 123.112 M 223 133.698 C 212.067 134.225, 211.661 134.434, 212.302 139.216 C 212.606 141.480, 214.145 145.170, 215.722 147.416 L 218.591 151.500 231.045 151.808 C 237.895 151.978, 245.883 151.830, 248.796 151.480 L 254.092 150.845 250.612 146.993 C 248.698 144.874, 246.322 140.859, 245.331 138.070 L 243.531 133 236.515 133.193 C 232.657 133.299, 226.575 133.526, 223 133.698 M 190 135.704 C 183.420 136.103, 180.601 137.385, 179.110 140.657 C 177.415 144.378, 177.742 145.896, 180.923 149.077 C 183.800 151.954, 184.019 152, 194.874 152 L 205.902 152 203.973 147.750 C 202.912 145.412, 202.034 141.588, 202.022 139.250 C 201.997 134.476, 203.402 134.890, 190 135.704 M 43 152.845 C 43 157.361, 43.441 159.089, 44.941 160.447 C 46.799 162.128, 47.218 162.092, 54.695 159.602 C 59.314 158.063, 64.752 157, 68 157 C 71.248 157, 76.686 158.063, 81.305 159.602 C 88.782 162.092, 89.201 162.128, 91.059 160.447 C 92.559 159.089, 93 157.361, 93 152.845 L 93 147 68 147 L 43 147 43 152.845 M 165.765 153.470 C 159.337 155.680, 154.968 159.128, 151.969 164.357 C 148.184 170.955, 148.223 172.001, 152.250 171.994 C 159.803 171.981, 170.084 166.769, 173.162 161.392 C 174.782 158.562, 174.754 158.408, 172.046 155.377 C 169.405 152.422, 169.091 152.327, 165.765 153.470 M 151.500 182.608 C 127.816 185.044, 101.140 194.657, 81.467 207.846 C 75.614 211.769, 74.012 213.495, 71.262 218.837 C 68.517 224.170, 68 226.256, 68 232 C 68 237.744, 68.517 239.830, 71.262 245.163 C 74.012 250.505, 75.614 252.231, 81.467 256.154 C 97.061 266.608, 119.313 275.753, 138.500 279.593 C 150.200 281.934, 180.978 281.937, 199 279.598 C 211.228 278.011, 228.695 274.425, 230.934 273.041 C 231.721 272.554, 231.013 269.207, 228.583 261.922 C 220.984 239.147, 221.125 222.970, 229.122 200.313 C 230.776 195.629, 231.907 191.573, 231.635 191.302 C 230.340 190.007, 215.080 186.707, 202.500 185.002 C 188.877 183.156, 159.555 181.779, 151.500 182.608 M 19.289 191.118 C 20.138 197.449, 25.820 207.949, 31.435 213.565 C 37.051 219.180, 47.551 224.862, 53.882 225.711 C 57.438 226.188, 58.003 226.006, 58.024 224.382 C 58.037 223.347, 59.103 219.932, 60.394 216.794 L 62.741 211.088 59.421 206.159 C 51.839 194.900, 36.504 187, 22.232 187 L 18.737 187 19.289 191.118 M 135.755 193.750 C 133.759 195.995, 130.409 207.384, 128.915 217 C 127.278 227.540, 128.303 247.445, 131 257.500 C 135.339 273.678, 135.472 273.747, 151.253 268.146 C 157.989 265.756, 167.498 262.382, 172.384 260.650 C 183.735 256.626, 184.568 255.234, 180.433 247.200 C 177.795 242.073, 177.500 240.546, 177.500 232 C 177.500 223.458, 177.795 221.926, 180.429 216.809 C 184.943 208.039, 184.917 208.016, 161.112 199.370 C 149.951 195.317, 140.030 192, 139.065 192 C 138.100 192, 136.610 192.787, 135.755 193.750 M 239.653 201.715 C 235.061 213.936, 233.684 220.924, 233.684 232 C 233.684 243.076, 235.061 250.064, 239.653 262.285 C 241.916 268.309, 242.443 268.999, 244.351 268.428 C 249.103 267.007, 264.955 258.871, 272.218 254.125 C 281.254 248.221, 296 234.502, 296 232 C 296 229.498, 281.254 215.779, 272.218 209.875 C 264.955 205.129, 249.103 196.993, 244.351 195.572 C 242.443 195.001, 241.916 195.691, 239.653 201.715 M 140.630 211.250 C 139.802 215.238, 138.914 220.412, 138.657 222.750 L 138.190 227 142.060 227 C 144.862 227, 146.215 227.533, 146.965 228.934 C 149.337 233.367, 146.886 237, 141.524 237 C 138.196 237, 138.191 237.007, 138.657 241.250 C 139.392 247.947, 142.067 260, 142.818 260.002 C 143.526 260.004, 169.254 250.900, 169.822 250.447 C 169.999 250.305, 169.393 248.009, 168.475 245.345 C 166.252 238.895, 166.252 225.105, 168.475 218.655 C 169.393 215.991, 169.999 213.695, 169.822 213.553 C 169.254 213.100, 143.526 203.996, 142.818 203.998 C 142.443 203.999, 141.459 207.262, 140.630 211.250 M 264.200 223.200 C 261.372 226.028, 263.951 232, 268 232 C 270.386 232, 273 229.386, 273 227 C 273 222.951, 267.028 220.372, 264.200 223.200 M 46.976 240.320 C 39.839 243.257, 32.958 248.021, 29.034 252.745 C 24.817 257.822, 19.964 267.850, 19.289 272.882 L 18.737 277 22.232 277 C 36.504 277, 51.839 269.100, 59.421 257.841 L 62.741 252.912 60.394 247.206 C 59.103 244.068, 58.037 240.713, 58.024 239.750 C 57.990 237.295, 53.803 237.512, 46.976 240.320"  fill-rule="evenodd"/></svg>