<svg xmlns="http://www.w3.org/2000/svg" version="1.1" viewBox="37 48 320 320"><path d="M 38.200 49.200 C 37.277 50.123, 37 86.673, 37 207.629 C 37 349.230, 37.156 365.013, 38.571 366.429 C 39.987 367.844, 55.736 368, 197 368 C 338.264 368, 354.013 367.844, 355.429 366.429 C 356.844 365.013, 357 349.264, 357 208 C 357 66.736, 356.844 50.987, 355.429 49.571 C 354.013 48.156, 338.230 48, 196.629 48 C 75.673 48, 39.123 48.277, 38.200 49.200 M 47 208 L 47 358 197 358 L 347 358 346.948 238.750 C 346.898 126.261, 346.799 119.641, 345.198 121.991 C 344.264 123.361, 342.038 126.116, 340.250 128.112 L 337 131.742 337 238.300 C 337 333.837, 336.837 345.020, 335.429 346.429 C 334.015 347.842, 320.082 348, 197 348 C 73.918 348, 59.985 347.842, 58.571 346.429 C 57.158 345.015, 57 331.048, 57 207.629 C 57 102.229, 57.278 70.122, 58.200 69.200 C 59.118 68.282, 84.495 68, 166.329 68 L 273.258 68 276.888 64.750 C 278.884 62.962, 281.639 60.736, 283.009 59.802 C 285.359 58.201, 278.739 58.102, 166.250 58.052 L 47 58 47 208 M 331 59.761 C 334.227 61.898, 343.102 70.773, 345.239 74 C 346.843 76.421, 346.897 76.207, 346.948 67.250 L 347 58 337.750 58.052 C 328.793 58.103, 328.579 58.157, 331 59.761 M 299.962 63.867 C 289.670 66.046, 280.234 73.637, 275.477 83.562 C 273.038 88.651, 272.631 90.716, 272.631 98 C 272.631 105.284, 273.038 107.349, 275.477 112.438 C 279.096 119.989, 285.011 125.904, 292.562 129.523 C 297.651 131.962, 299.716 132.369, 307 132.369 C 314.284 132.369, 316.349 131.962, 321.438 129.523 C 328.989 125.904, 334.904 119.989, 338.523 112.438 C 340.962 107.349, 341.369 105.284, 341.369 98 C 341.369 90.716, 340.962 88.651, 338.523 83.562 C 332.984 72.005, 322.280 64.539, 309.904 63.603 C 306.382 63.336, 301.908 63.455, 299.962 63.867 M 67 116.525 L 67 155.050 72.305 144.658 C 85.889 118.048, 107.048 96.889, 133.658 83.305 L 144.050 78 105.525 78 L 67 78 67 116.525 M 179.001 79.127 C 121.516 85.780, 75.296 130.739, 66.047 189 C 64.719 197.366, 64.719 218.634, 66.047 227 C 69.526 248.916, 78.601 270.237, 91.689 287.245 C 143.682 354.815, 248.738 354.439, 300.099 286.500 C 317.796 263.091, 326.244 237.734, 326.251 208 C 326.256 186.623, 322.339 169.274, 313.506 151.542 L 309.500 143.500 303.750 142.988 C 300.587 142.707, 298 142.551, 298 142.642 C 298 142.733, 299.557 145.562, 301.459 148.927 C 321.584 184.533, 321.986 228.137, 302.525 264.720 C 275.527 315.470, 214.103 340.180, 160.001 322.054 C 119.712 308.556, 90.918 277.854, 80.303 237.074 C 77.213 225.203, 76.105 203.548, 77.944 190.971 C 85.802 137.229, 128.862 95.040, 182.249 88.776 L 192 87.632 192 82.816 C 192 77.304, 192.798 77.531, 179.001 79.127 M 202 82.813 L 202 87.595 211.517 88.797 C 227.846 90.860, 245.223 96.660, 257.265 104.069 C 259.886 105.681, 262.141 107, 262.277 107 C 262.413 107, 262.293 104.412, 262.012 101.250 C 261.504 95.539, 261.466 95.482, 256.500 92.798 C 243.948 86.014, 223.654 80.048, 208.250 78.613 L 202 78.031 202 82.813 M 251 78.712 C 251.825 79.017, 255.029 80.505, 258.120 82.018 L 263.740 84.769 265.354 81.385 L 266.968 78 258.234 78.079 C 253.430 78.122, 250.175 78.407, 251 78.712 M 182.250 99.066 C 163.350 101.523, 141.844 110.971, 127.340 123.187 L 123.180 126.691 157.590 161.090 L 192 195.489 192 179.291 L 192 163.094 187.250 160.993 C 177.762 156.798, 172.020 148.128, 172.020 138 C 172.020 127.872, 177.762 119.202, 187.250 115.007 L 192 112.906 192 105.453 C 192 97.063, 192.936 97.677, 182.250 99.066 M 202 105.469 L 202 112.906 206.750 115.007 C 216.238 119.202, 221.980 127.872, 221.980 138 C 221.980 148.128, 216.238 156.798, 206.750 160.993 L 202 163.094 202 179.291 L 202 195.489 236.527 160.995 L 271.055 126.500 268.277 124.201 C 261.415 118.521, 247.718 110.069, 240.520 107.073 C 231.290 103.230, 217.084 99.522, 208.250 98.649 L 202 98.031 202 105.469 M 153.200 119.200 C 150.372 122.028, 152.951 128, 157 128 C 159.386 128, 162 125.386, 162 123 C 162 118.951, 156.028 116.372, 153.200 119.200 M 238.200 119.200 C 235.372 122.028, 237.951 128, 242 128 C 244.386 128, 247 125.386, 247 123 C 247 118.951, 241.028 116.372, 238.200 119.200 M 187.764 126.897 C 183.153 130.952, 181.457 136.270, 182.975 141.909 C 183.624 144.319, 185.461 147.077, 187.764 149.103 L 191.500 152.389 191.794 145.194 C 191.955 141.237, 191.955 134.763, 191.794 130.806 L 191.500 123.611 187.764 126.897 M 202 138 C 202 145.700, 202.209 152, 202.465 152 C 202.721 152, 204.515 150.609, 206.451 148.909 C 213.273 142.919, 213.273 133.081, 206.451 127.091 C 204.515 125.391, 202.721 124, 202.465 124 C 202.209 124, 202 130.300, 202 138 M 109.148 142.147 C 97.756 157.652, 90.318 175.985, 88.037 194.181 C 87.473 198.672, 87.164 202.498, 87.349 202.683 C 87.535 202.868, 109.359 202.903, 135.849 202.760 L 184.011 202.500 149.648 168.147 L 115.284 133.795 109.148 142.147 M 243.915 168.585 L 209.511 203 225.709 203 L 241.906 203 244.007 198.250 C 248.202 188.762, 256.872 183.020, 267 183.020 C 277.128 183.020, 285.798 188.762, 289.993 198.250 L 292.094 203 299.556 203 L 307.017 203 306.413 197.250 C 304.230 176.490, 294.956 154.104, 282.213 138.835 L 278.320 134.169 243.915 168.585 M 322.881 140.295 L 320.262 141.500 323.631 148.480 L 327 155.460 327 147.230 C 327 142.704, 326.663 139.020, 326.250 139.045 C 325.837 139.070, 324.322 139.632, 322.881 140.295 M 113.684 161.449 C 97.504 167.219, 98.519 190.562, 115.145 195.039 C 129.366 198.868, 141.824 183.372, 135.106 170.210 C 134.065 168.170, 132.295 165.670, 131.173 164.655 C 128.872 162.574, 122.517 160.088, 119.500 160.088 C 118.400 160.088, 115.783 160.700, 113.684 161.449 M 114.073 173.635 C 112.933 175.084, 112 177.048, 112 178 C 112 181.354, 115.906 185, 119.500 185 C 123.094 185, 127 181.354, 127 178 C 127 174.646, 123.094 171, 119.500 171 C 117.067 171, 115.576 171.724, 114.073 173.635 M 261.450 194.407 C 251.309 198.824, 249.264 211.634, 257.540 218.901 C 263.910 224.494, 272.243 223.904, 277.901 217.460 C 283.228 211.393, 282.947 203.186, 277.227 197.729 C 272.364 193.090, 267.045 191.970, 261.450 194.407 M 87.587 218.750 C 89.771 239.515, 99.044 261.896, 111.793 277.173 L 115.693 281.846 124.744 272.673 C 132.257 265.059, 133.655 263.160, 132.968 261.500 C 132.513 260.400, 132.109 257.798, 132.070 255.718 C 131.850 243.841, 144.380 234.772, 155.282 238.917 C 157.478 239.752, 158.890 238.635, 171.083 226.417 L 184.472 213 135.727 213 L 86.983 213 87.587 218.750 M 244.005 247.527 L 278.500 282.055 280.808 279.277 C 286.175 272.818, 295.116 258.272, 298.047 251.231 C 301.782 242.261, 305.487 227.989, 306.351 219.250 L 306.969 213 299.531 213 L 292.094 213 289.993 217.750 C 285.798 227.238, 277.128 232.980, 267 232.980 C 256.872 232.980, 248.202 227.238, 244.007 217.750 L 241.906 213 225.709 213 L 209.511 213 244.005 247.527 M 178.350 234.236 C 167.300 245.382, 165.333 247.819, 166.030 249.500 C 167.221 252.372, 167.175 258.408, 165.936 261.685 C 162.723 270.190, 151.971 275.220, 143.714 272.081 C 141.536 271.253, 140.388 272.077, 132.055 280.445 L 122.811 289.727 131.155 295.858 C 146.652 307.244, 164.988 314.682, 183.181 316.963 C 187.672 317.527, 191.498 317.836, 191.683 317.651 C 191.868 317.465, 191.903 295.637, 191.760 269.143 L 191.500 220.972 178.350 234.236 M 202 269.264 L 202 318.017 207.750 317.413 C 228.510 315.230, 250.896 305.956, 266.165 293.213 L 270.831 289.320 236.415 254.915 L 202 220.511 202 269.264 M 108.200 229.200 C 105.372 232.028, 107.951 238, 112 238 C 114.386 238, 117 235.386, 117 233 C 117 228.951, 111.028 226.372, 108.200 229.200 M 146.079 249.241 C 141.007 251.879, 141.361 260.046, 146.634 262.051 C 152.200 264.167, 157.861 259.280, 156.433 253.590 C 155.316 249.137, 150.315 247.037, 146.079 249.241 M 213.200 249.200 C 210.372 252.028, 212.951 258, 217 258 C 218.021 258, 219.564 257.293, 220.429 256.429 C 221.293 255.564, 222 254.021, 222 253 C 222 248.951, 216.028 246.372, 213.200 249.200 M 273.200 249.200 C 270.372 252.028, 272.951 258, 277 258 C 279.386 258, 282 255.386, 282 253 C 282 248.951, 276.028 246.372, 273.200 249.200 M 67 299.475 L 67 338 105.750 337.999 L 144.500 337.998 138.027 334.936 C 109.570 321.474, 86.502 299.153, 72.305 271.342 L 67 260.950 67 299.475 M 321.802 270.865 C 309.352 296.657, 287.117 319.027, 260.342 332.695 L 249.950 338 288.475 338 L 327 338 327 299.500 C 327 278.325, 326.887 261.030, 326.750 261.066 C 326.613 261.102, 324.386 265.512, 321.802 270.865 M 222.500 269.417 C 211.043 274.531, 208.484 289.638, 217.627 298.186 C 226.542 306.522, 240.818 303.511, 245.623 292.282 C 251.709 278.060, 236.603 263.123, 222.500 269.417 M 226.079 279.241 C 221.007 281.879, 221.361 290.046, 226.634 292.051 C 232.200 294.167, 237.861 289.280, 236.433 283.590 C 235.316 279.137, 230.315 277.037, 226.079 279.241 M 168.200 284.200 C 165.372 287.028, 167.951 293, 172 293 C 174.386 293, 177 290.386, 177 288 C 177 283.951, 171.028 281.372, 168.200 284.200"  fill-rule="evenodd"/></svg>