<svg xmlns="http://www.w3.org/2000/svg" width="694" height="803" viewBox="0 0 694 803" version="1.1"><path d="M 407.500 1.207 C 405.850 1.783, 402.928 3.429, 401.007 4.864 C 396.651 8.117, 340.138 64.493, 337.757 67.961 C 333.831 73.677, 337.012 82.261, 346.095 90.467 L 350.105 94.089 343.397 101.295 C 337.256 107.892, 327.292 119.890, 323.727 124.979 C 322.281 127.043, 322.251 127.037, 318.886 123.885 C 309.762 115.340, 283.119 100.051, 274.549 98.443 C 261.368 95.970, 250.406 122.789, 255.315 145.500 C 256.147 149.350, 257.146 153.304, 257.535 154.287 C 258.170 155.890, 257.569 155.821, 251.699 153.611 C 233.286 146.681, 219.288 144.279, 190.166 143.052 C 167.401 142.093, 165.722 141.782, 146.278 134.927 C 139.013 132.366, 135.530 133.140, 132.691 137.947 C 128.989 144.213, 131.178 161.023, 137.469 174.639 C 143.589 187.885, 155.696 203.580, 165.403 210.853 C 166.999 212.049, 168.124 213.169, 167.903 213.341 C 167.681 213.513, 162.666 216.531, 156.757 220.047 C 105.714 250.424, 71.247 297.340, 58.505 353.784 C 53.426 376.285, 52.614 384.640, 52.555 415 C 52.496 445.701, 53.187 453.414, 57.984 475.564 C 67.729 520.568, 83.932 557.368, 108.809 591 C 118.071 603.522, 140.856 627.031, 152.998 636.595 C 179.948 657.820, 212.428 675.143, 248 687.263 L 257.500 690.500 258.685 701 C 260.296 715.280, 262.799 730.819, 265.093 740.789 C 267.786 752.492, 267.954 752.002, 261.250 751.990 C 248.344 751.967, 192.865 755.920, 169 758.563 C 130.371 762.840, 115.175 767.375, 113.471 775.132 C 111.050 786.154, 126.441 790.722, 183.671 795.966 C 240.634 801.186, 290.682 802.984, 363 802.407 C 423.523 801.924, 446.081 800.919, 497.500 796.418 C 530.956 793.490, 537.701 792.652, 553.835 789.423 C 566.940 786.800, 572.891 784.422, 575.434 780.791 C 577.709 777.543, 577.381 775.503, 573.955 771.601 C 569.155 766.134, 557.143 762.916, 529 759.555 C 503.679 756.532, 440.427 752.021, 423.142 752.006 C 417.052 752, 416.807 751.905, 417.335 749.750 C 420.413 737.190, 425.970 702.762, 426.010 696 C 426.021 694.075, 426.361 691.981, 426.765 691.346 C 427.169 690.712, 433.350 688.084, 440.500 685.507 C 467.382 675.818, 486.084 666.657, 508 652.444 C 537.414 633.367, 562.236 609.709, 580.307 583.528 C 587.056 573.750, 588.593 571.235, 596.546 556.951 C 610.568 531.766, 622.088 497.068, 628.068 462 C 630.787 446.054, 631.895 403.903, 630.046 386.732 C 623.582 326.703, 598.336 277.424, 555.500 241.227 C 545.954 233.161, 528.145 221.105, 519 216.518 C 515.975 215.001, 513.341 213.617, 513.146 213.443 C 512.952 213.268, 515.806 210.306, 519.490 206.860 C 530.662 196.410, 538.493 183.862, 543.141 168.965 C 546.063 159.601, 546.352 143.681, 543.707 137.842 C 540.247 130.204, 532.295 127.775, 524.210 131.887 C 517.098 135.504, 502.436 139.786, 493.500 140.856 C 488.550 141.448, 478.650 142.613, 471.500 143.445 C 459.672 144.820, 440.871 148.930, 437.041 150.977 C 435.707 151.690, 435.479 150.493, 435.345 142.044 C 435.188 132.180, 433.329 122.602, 430.355 116.336 C 427.072 109.417, 418.890 108.181, 407.770 112.925 L 401.039 115.797 414.459 101.648 C 435.679 79.275, 448.992 62.700, 455.137 51 C 458.564 44.474, 458.423 35.396, 454.779 28 C 445.622 9.414, 422.122 -3.904, 407.500 1.207 M 417.929 16.868 C 421.024 22.651, 441.626 38.707, 443.520 36.813 C 444.651 35.682, 441.090 30.182, 435.564 24.521 C 430.104 18.929, 423.450 15.063, 419.215 15.022 C 417.291 15.003, 417.088 15.296, 417.929 16.868 M 378.378 47.050 C 365.245 60.277, 354.375 71.451, 354.223 71.881 C 353.673 73.433, 358.448 78.311, 363.916 81.782 C 370.547 85.993, 370.965 86.524, 370.985 90.775 C 370.998 93.593, 369.381 95.754, 359.388 106.275 C 328.427 138.871, 310.475 171.830, 307.590 201.372 C 306.970 207.724, 307.055 208.188, 308.710 207.496 C 312.377 205.962, 325.123 202, 326.390 202 C 327.163 202, 328.449 199.244, 329.518 195.295 C 333.107 182.035, 347.433 157.161, 361.363 140 C 372.309 126.516, 388.964 107.758, 405.756 90 C 422.292 72.514, 438 54.549, 438 53.124 C 438 52.727, 436.404 51.825, 434.453 51.119 C 428.686 49.034, 415.981 38.787, 409.025 30.611 C 405.463 26.425, 402.483 23, 402.403 23 C 402.322 23, 391.511 33.822, 378.378 47.050 M 411 40.845 C 411 42.916, 418.315 54.829, 420.755 56.733 C 422.395 58.012, 425 56.831, 425 54.808 C 425 52.362, 414.059 39, 412.056 39 C 411.475 39, 411 39.830, 411 40.845 M 399 46.878 C 399 47.360, 399.675 48.315, 400.500 49 C 401.325 49.685, 402 51.274, 402 52.532 C 402 55.869, 410.074 67.500, 412.391 67.500 C 414.664 67.500, 416.990 64.296, 415.497 63.222 C 414.946 62.825, 413.146 60.510, 411.497 58.077 C 406.031 50.010, 399 43.710, 399 46.878 M 394.099 62.939 C 392.422 63.975, 394.360 68, 396.535 68 C 397.341 68, 398 68.830, 398 69.845 C 398 72.305, 401.398 75.269, 403.676 74.797 C 406.272 74.258, 405.569 70.203, 402.285 66.776 C 399.306 63.666, 398 63.277, 398 65.500 C 398 66.325, 397.592 67, 397.094 67 C 396.595 67, 396.409 66.151, 396.681 65.113 C 397.261 62.895, 395.952 61.793, 394.099 62.939 M 366.667 69.667 C 365.313 71.020, 366.058 73.884, 367.918 74.474 C 374.105 76.438, 378.772 83.839, 379.822 93.351 C 380.414 98.720, 380.785 99.541, 382.748 99.819 C 385.405 100.197, 387.003 96.946, 386.994 91.185 C 386.982 83.064, 383.147 75.364, 377.078 71.274 C 373.877 69.116, 368.107 68.226, 366.667 69.667 M 274.226 122.750 C 268.993 140.747, 275.686 158.743, 292.336 171.443 C 295.480 173.841, 296.321 174.105, 297.065 172.930 C 298.652 170.422, 298.081 166.325, 294.886 157.298 C 291.557 147.891, 290.809 142.928, 292.626 142.303 C 294.415 141.688, 299.155 147.382, 302.112 153.698 C 303.803 157.311, 304.861 158.718, 304.914 157.428 C 304.961 156.288, 306.392 152.785, 308.093 149.644 L 311.186 143.933 308.531 140.452 C 304.855 135.632, 297.212 130.105, 285.917 124.097 C 280.646 121.294, 276.105 119, 275.825 119 C 275.545 119, 274.826 120.688, 274.226 122.750 M 402.437 135.836 C 381.528 146.541, 370.756 157.124, 368.493 169.183 L 367.820 172.773 373.705 167.050 C 379.811 161.112, 391.390 154.546, 394.657 155.169 C 395.670 155.362, 396.636 156.472, 396.803 157.634 C 397.034 159.248, 395.971 160.405, 392.303 162.529 C 384.675 166.945, 379.916 171.063, 376.849 175.900 C 375.282 178.370, 374 180.723, 374 181.129 C 374 182.377, 381.787 181.234, 388.501 179 C 395.946 176.522, 405.419 170.668, 409.142 166.243 C 413.419 161.160, 416.205 154.309, 416.749 147.541 C 417.390 139.548, 416.254 129.971, 414.678 130.086 C 414.030 130.133, 408.522 132.721, 402.437 135.836 M 523.500 152.905 C 513.362 157.819, 506.654 159.203, 488.775 160.070 C 469.999 160.980, 459.869 162.805, 444.205 168.100 C 436.199 170.806, 423.704 177.052, 422.546 178.926 C 421.635 180.399, 433.609 181.265, 449.459 180.872 C 463.924 180.514, 464.500 180.576, 464.500 182.487 C 464.500 186.882, 455.880 188.746, 430 189.947 C 401.966 191.249, 388.667 195.200, 376.992 205.697 L 371.815 210.352 374.157 212.154 C 377.010 214.348, 379.592 214.506, 380.349 212.533 C 381.002 210.832, 394.630 203.766, 400.500 202.085 C 406.415 200.391, 412.825 200.003, 441 199.634 C 458.140 199.410, 467.559 198.894, 469.729 198.060 C 471.505 197.377, 473.524 197.008, 474.217 197.239 C 476.771 198.090, 459.191 203.093, 449.688 204.219 C 442.152 205.112, 436.702 205.102, 426.188 204.174 C 405.716 202.368, 402.462 202.546, 395.457 205.860 C 389.557 208.652, 384 213.809, 384 216.494 C 384 218.300, 390.701 219.634, 407.039 221.080 C 436.154 223.656, 464.909 218.988, 485.020 208.420 C 493.883 203.763, 506.794 193.311, 512.427 186.235 C 520.449 176.155, 527.667 159.855, 526.818 153.737 C 526.514 151.552, 526.366 151.515, 523.500 152.905 M 152.463 159.708 C 153.744 164.812, 160.029 176.502, 165.188 183.377 C 178.121 200.610, 203.732 214.091, 231.150 218.097 C 247.006 220.415, 279.257 219.143, 282.320 216.080 C 283.791 214.609, 280.915 206.588, 277.719 203.250 C 274.338 199.719, 275.143 199.197, 280.510 201.440 C 284.028 202.910, 287.990 208.101, 287.996 211.250 C 287.998 212.213, 288.390 213, 288.866 213 C 290.197 213, 290.974 198.724, 289.726 197.192 C 287.752 194.771, 280.543 191.116, 274.500 189.471 C 269.680 188.159, 263.879 187.860, 245 187.947 C 224.524 188.043, 220.470 187.797, 213.500 186.043 C 201.171 182.939, 184.798 173.928, 191.667 174.026 C 192.675 174.041, 198 175.168, 203.500 176.532 C 220.005 180.625, 231.109 181.577, 244.219 180.023 C 250.424 179.287, 256.625 178.360, 258 177.963 C 260.318 177.293, 260.101 177.059, 255 174.745 C 248.034 171.585, 232.731 166.680, 223 164.488 C 217.738 163.302, 208.041 162.584, 190.500 162.079 C 168.536 161.447, 164.745 161.095, 159.282 159.180 C 151.517 156.458, 151.645 156.448, 152.463 159.708 M 200.551 198.592 C 215.147 205.697, 231.552 206.606, 254 201.552 L 260.500 200.089 249.500 200.576 C 224.770 201.672, 219 201.731, 219 200.886 C 219 200.399, 218.073 200, 216.941 200 C 215.809 200, 215.160 200.450, 215.500 201 C 215.840 201.550, 215.206 202, 214.090 202 C 212.783 202, 212.250 201.513, 212.589 200.628 C 212.928 199.746, 212.214 199.083, 210.593 198.773 C 209.205 198.508, 207.938 198.685, 207.778 199.166 C 207.617 199.648, 204.591 198.907, 201.053 197.521 C 192.289 194.086, 192.104 194.480, 200.551 198.592 M 327.490 219.094 C 329.987 227.392, 339.100 241.865, 348.772 252.890 L 353.500 258.281 347.395 255.199 C 335.664 249.278, 324.009 235.949, 320.281 224.192 C 318.721 219.273, 318.412 218.931, 316.049 219.520 C 311.708 220.603, 307.026 224.048, 306.376 226.637 C 304.666 233.450, 310.128 245.732, 318.692 254.333 C 329.542 265.229, 347.800 273.785, 370.439 278.582 C 377.043 279.981, 400.051 282.282, 400.723 281.611 C 401.084 281.250, 385.934 254.202, 379.291 243.346 C 369.459 227.280, 354.891 218.584, 335.633 217.286 L 326.766 216.689 327.490 219.094 M 184.856 226.523 C 184.110 227.242, 178.775 230.391, 173 233.522 C 144.215 249.125, 116.072 276.279, 100 303.957 C 85.850 328.326, 76.942 357.177, 73.911 388.454 C 72.166 406.459, 73.229 442.351, 75.970 458 C 86.245 516.659, 108.806 563.885, 143.630 599.632 C 157.354 613.719, 167.680 622.261, 185.323 634.122 C 215.338 654.300, 251.472 669.418, 286.801 676.578 C 375.901 694.636, 470.427 667.327, 533.651 605.264 C 551.292 587.947, 556.107 582.294, 566.668 566.500 C 590.147 531.389, 605.236 486.545, 609.527 439.130 C 611.257 420.001, 611.325 411.224, 609.875 394 C 606.323 351.796, 594.475 318.798, 571.997 288.500 C 563.159 276.587, 557.597 270.541, 545.069 259.228 C 532.751 248.104, 521.416 240.309, 507 233.050 C 501.225 230.143, 496.022 227.381, 495.437 226.915 C 494.814 226.417, 491.315 227.311, 486.983 229.074 C 464.318 238.297, 435.956 242.370, 411.515 239.910 C 405.639 239.318, 400.579 239.088, 400.269 239.398 C 399.959 239.708, 402.540 244.807, 406.003 250.731 C 423.593 280.809, 424.852 283.643, 423.599 290.325 C 422.160 297.993, 416.364 300.002, 395.701 299.996 C 368.691 299.988, 341.534 292.817, 319.744 279.940 C 305.146 271.313, 292.723 255.642, 288.334 240.318 C 287.015 235.710, 286.131 234.119, 285.109 234.512 C 279.873 236.521, 263.778 238.292, 251 238.265 C 230.537 238.221, 212.882 235.095, 194.356 228.233 C 187.629 225.742, 185.976 225.444, 184.856 226.523 M 574.250 325.746 C 572.193 326.438, 572.806 330.130, 576.501 339.293 C 581.115 350.736, 584.567 362.835, 587.251 376.967 C 590.385 393.470, 590.304 424.594, 587.077 444 C 583.389 466.181, 583.414 465.613, 586.100 466.316 C 590.203 467.389, 591.647 464.779, 593.359 453.195 C 596.414 432.511, 597.263 422.350, 597.259 406.500 C 597.253 379.394, 591.788 353.339, 581.585 331.772 C 579.090 326.497, 577.035 324.809, 574.250 325.746 M 216.411 377.484 C 189.704 383.295, 171.558 410.167, 175.822 437.593 C 180.106 465.150, 206.478 486.323, 232.983 483.485 C 252.727 481.371, 268.764 470.216, 277.383 452.602 C 283.868 439.348, 284.691 424.085, 279.640 410.740 C 269.857 384.888, 244.258 371.425, 216.411 377.484 M 442.716 377.470 C 423.940 381.577, 407.897 397.552, 403.418 416.603 C 401.256 425.794, 401.943 439.347, 404.974 447.304 C 411.991 465.729, 426.813 478.669, 445.561 482.737 C 467.146 487.421, 490.728 476.742, 502.393 457 C 507.179 448.901, 509.054 442.587, 509.699 432.408 C 510.397 421.396, 509.098 415.087, 504.186 405.621 C 492.490 383.080, 468.110 371.915, 442.716 377.470 M 201.149 396.696 C 195.936 399.265, 192.489 405.272, 192.553 411.677 C 192.748 431.304, 221.084 431.706, 223.711 412.119 C 224.418 406.845, 221.138 399.664, 216.818 397.030 C 212.750 394.550, 205.805 394.402, 201.149 396.696 M 427.411 396.832 C 415.457 404.349, 415.704 419.955, 427.864 425.438 C 435.348 428.813, 444.657 425.432, 448.536 417.931 C 450.393 414.340, 450.423 406.714, 448.595 403.200 C 445.807 397.842, 442.402 395.653, 436.236 395.258 C 431.827 394.975, 429.786 395.339, 427.411 396.832 M 246.575 441.918 C 242.836 446.048, 247.091 452.130, 252.009 449.687 C 253.379 449.007, 254.649 447.412, 254.830 446.143 C 255.211 443.481, 252.474 440, 250 440 C 249.070 440, 247.529 440.863, 246.575 441.918 M 472.381 442.541 C 469.223 447.361, 474.276 452.597, 478.935 449.333 C 481.232 447.724, 481.722 443.122, 479.800 441.200 C 477.770 439.170, 474.162 439.823, 472.381 442.541 M 332.332 448.790 C 319.108 453.517, 310.336 465.452, 306.453 484 C 301.795 506.248, 302.279 540.539, 307.546 561.500 C 309.833 570.600, 315.353 581.406, 320.180 586.230 C 333.075 599.118, 352.051 598.635, 364.213 585.108 C 372.548 575.837, 376.913 563.271, 379.531 541.006 C 382.758 513.561, 379.766 483.607, 372.267 468.293 C 364.105 451.624, 347.327 443.430, 332.332 448.790 M 578.057 510.432 C 577.403 511.219, 574.008 517.696, 570.511 524.825 C 550.785 565.045, 521.156 598.584, 483.500 623.318 C 468.821 632.961, 468.850 632.936, 469.192 635.330 C 469.663 638.616, 472.579 638.500, 479.341 634.927 C 514.916 616.126, 557.953 569.960, 575.375 531.911 C 580.330 521.088, 583.325 512.290, 582.652 510.536 C 581.912 508.606, 579.615 508.554, 578.057 510.432 M 101.347 513.538 C 100.575 515.549, 103.048 521.994, 109.749 535.433 C 134.758 585.592, 180.808 628.277, 236 652.460 C 256.304 661.356, 284.865 669.200, 306.932 671.942 C 321.973 673.811, 344.898 674.314, 359.386 673.094 C 374.224 671.845, 377 671.042, 377 668 C 377 664.642, 373.927 663.918, 364.858 665.139 C 351.852 666.889, 312.272 665.698, 297.745 663.119 C 271.461 658.453, 252.748 652.322, 228.500 640.431 C 192.399 622.728, 164.442 600.338, 139.944 569.510 C 130.281 557.350, 122.619 544.919, 114.212 527.762 C 107.625 514.318, 106.167 512.021, 104.219 512.012 C 102.964 512.005, 101.672 512.692, 101.347 513.538 M 445.500 642.863 C 440.733 645.032, 438.749 647.181, 439.560 649.296 C 440.566 651.917, 442.937 652.083, 448.041 649.887 C 453.888 647.372, 455.385 645.790, 454.515 643.048 C 453.706 640.498, 450.829 640.440, 445.500 642.863 M 378.500 700.184 C 361.533 702.646, 331.211 702.767, 307.594 700.466 L 299.688 699.696 300.331 719.098 C 300.684 729.769, 300.979 741.200, 300.986 744.500 L 300.999 750.500 341.896 750.500 L 382.793 750.500 383.491 728.500 C 383.875 716.400, 384.034 704.916, 383.845 702.979 L 383.500 699.458 378.500 700.184"  fill-rule="evenodd"/></svg>