<svg xmlns="http://www.w3.org/2000/svg" width="982" height="707" viewBox="0 0 982 707" version="1.1"><path d="M 861.759 1.423 C 854.303 4.084, 849.644 8.811, 845.570 17.846 C 843.776 21.824, 843.631 21.919, 842.289 20.002 C 841.516 18.899, 841.169 17.536, 841.516 16.973 C 841.864 16.411, 841.553 16.074, 840.824 16.225 C 840.096 16.376, 839.580 16.034, 839.679 15.464 C 839.777 14.895, 839.102 14.366, 838.179 14.290 C 837.255 14.214, 834.700 13.612, 832.500 12.953 C 820.490 9.354, 810.904 20.009, 809.322 38.716 C 808.715 45.899, 808.621 46.125, 807.298 43.600 C 806.535 42.144, 806.226 40.444, 806.610 39.822 C 807.016 39.166, 806.864 38.966, 806.250 39.346 C 805.656 39.713, 803.991 37.954, 802.462 35.345 C 798.798 29.093, 786.505 16.777, 781.290 14.134 C 775.468 11.183, 767.430 11.236, 762.952 14.253 C 756.884 18.343, 755.487 22.093, 755.598 34 C 755.684 43.324, 756.061 45.452, 758.962 53 C 760.759 57.675, 762.274 62.266, 762.329 63.202 C 762.384 64.139, 762.626 64.708, 762.866 64.467 C 763.107 64.226, 766.048 68.420, 769.402 73.787 C 772.756 79.154, 778.336 87.252, 781.803 91.783 C 785.379 96.458, 787.800 100.515, 787.398 101.165 C 786.990 101.826, 787.131 102.037, 787.732 101.666 C 788.305 101.312, 789.329 101.692, 790.009 102.511 C 790.689 103.330, 791.013 104, 790.730 104 C 790.446 104, 784.654 101.125, 777.857 97.611 C 762.484 89.662, 756.357 87.615, 749.816 88.244 C 737.061 89.469, 732.433 101.768, 739.675 115.190 C 742.969 121.293, 753.335 132.144, 760.500 136.988 C 763.250 138.847, 765.725 140.623, 766 140.934 C 766.821 141.864, 774.126 145.948, 779.893 148.702 L 785.285 151.277 781.393 153.633 C 779.252 154.929, 777.181 155.992, 776.791 155.995 C 775.114 156.007, 760.949 168.783, 754.805 175.826 C 738.560 194.447, 729.654 215.534, 725.522 245.159 C 723.893 256.837, 723.297 312.998, 724.558 336 L 725.134 346.500 723.225 342.500 C 719.096 333.851, 711.601 323.572, 703.559 315.530 L 695.133 307.104 696.182 303.302 C 699.905 289.821, 691.109 272.661, 677.148 266.170 C 671.989 263.771, 670.260 263.523, 657.179 263.303 C 645.202 263.102, 642.485 262.771, 640.586 261.281 C 615.091 241.284, 601.328 234.836, 579.258 232.549 C 570.964 231.690, 557.914 233.553, 550.500 236.655 C 543.740 239.483, 544.263 239.418, 537.500 238.282 L 532.500 237.442 532.746 230.689 C 533.103 220.873, 535.286 217.487, 551.145 202.149 C 570.642 183.292, 577.011 173.183, 576.990 161.124 C 576.972 150.601, 571.231 142.130, 559.001 134.582 C 550.888 129.574, 544.221 128.261, 535.366 129.927 C 527.471 131.413, 524.615 130.882, 512.246 125.634 C 501.041 120.880, 495.939 119.707, 488.513 120.180 C 483.192 120.519, 481.493 121.063, 479.548 123.049 C 475.317 127.370, 475.792 132.027, 480.992 137.227 C 483.187 139.422, 484.739 141.614, 484.440 142.098 C 484.141 142.581, 484.510 142.741, 485.261 142.453 C 487.048 141.767, 490.422 145.509, 489.443 147.091 C 488.999 147.811, 489.108 148.051, 489.712 147.678 C 491.717 146.439, 497.091 155.247, 498.347 161.833 C 500.025 170.626, 491.636 193.266, 481.257 207.959 C 474.979 216.845, 452.986 238.213, 451 237.356 C 450.175 237, 445.900 235.617, 441.500 234.284 C 431.448 231.237, 413.969 230.769, 404.360 233.291 C 400.156 234.394, 396.058 234.728, 391.360 234.349 C 382.690 233.649, 373.053 235.818, 363.740 240.564 C 359.757 242.594, 353.501 244.706, 348.869 245.584 C 333.879 248.428, 320.197 254.113, 310.128 261.681 C 307.723 263.488, 305.291 264.680, 304.723 264.329 C 304.156 263.978, 303.966 264.136, 304.302 264.680 C 305.105 265.979, 296.633 274.276, 295.529 273.273 C 295.062 272.848, 294.984 273.032, 295.356 273.681 C 295.734 274.341, 293.591 278.094, 290.503 282.181 C 284.146 290.594, 274.319 309.847, 270.463 321.441 C 266.776 332.527, 263.228 350.431, 262.050 363.890 C 261.093 374.825, 260 379.779, 260 373.179 C 260 361.422, 257.684 322.659, 256.458 313.901 C 254.845 302.371, 251.055 289.994, 246.191 280.370 C 244.487 276.999, 243.297 273.962, 243.546 273.620 C 243.796 273.279, 243.719 273.206, 243.376 273.457 C 242.434 274.147, 237.878 267.007, 238.558 265.906 C 238.883 265.381, 238.778 265.051, 238.324 265.173 C 237.871 265.296, 234.025 261.935, 229.778 257.706 C 225.531 253.477, 219.792 248.623, 217.024 246.920 C 214.181 245.171, 212.278 243.359, 212.650 242.757 C 213.013 242.171, 212.855 241.971, 212.301 242.314 C 211.747 242.657, 208.190 241.620, 204.396 240.010 C 200.603 238.401, 194.249 236.310, 190.275 235.365 C 183.325 233.711, 183.073 233.549, 183.645 231.073 C 183.973 229.658, 185.594 225.695, 187.250 222.266 C 190.276 215.997, 193.020 213.052, 206.530 201.581 C 220.412 189.794, 228.469 180.657, 232.798 171.794 C 239.857 157.339, 240.575 149.074, 235.432 141.494 C 234.076 139.497, 233.269 137.374, 233.638 136.777 C 234.007 136.180, 233.868 135.964, 233.328 136.297 C 232.788 136.631, 230.168 135.800, 227.504 134.452 C 224.840 133.103, 221.373 132, 219.798 132 C 215.565 132, 210.388 134.479, 208.452 137.433 C 206.201 140.868, 206.910 148.660, 209.848 152.786 C 212.994 157.204, 220.114 160.397, 225.056 159.607 L 228.993 158.978 227.300 163.239 C 223.088 173.847, 217.041 181.150, 201.261 194.687 C 193.962 200.949, 186.192 208.347, 183.995 211.126 L 180 216.180 180 210.196 C 180 199.545, 181.964 184.144, 187.486 151.500 C 195.384 104.813, 196.333 93.361, 193.583 77.950 C 190.573 61.078, 181.494 51.090, 170.264 52.296 C 165.219 52.838, 161.333 55.174, 159.770 58.606 C 158.844 60.637, 159.065 62.550, 160.944 68.803 C 165.219 83.024, 165.929 88.081, 165.957 104.500 C 165.987 122.151, 164.030 140.034, 158.158 175.771 C 157.213 181.523, 156 183.808, 156 179.836 C 156 176.802, 142.761 149.974, 136.881 141.094 C 130.447 131.377, 121.598 122.440, 115.417 119.416 C 110.815 117.164, 109.023 116.829, 103.469 117.183 C 97.530 117.561, 96.600 117.933, 93.267 121.267 C 89.955 124.578, 89.560 125.552, 89.194 131.291 C 88.483 142.461, 89.727 144.255, 114.877 168.335 C 121.590 174.763, 124.954 178.678, 124.586 179.637 C 124.276 180.444, 124.427 180.854, 124.920 180.549 C 126.256 179.724, 136.895 197.439, 135.750 198.583 C 135.571 198.762, 130.700 196.540, 124.925 193.645 C 102.118 182.212, 84.617 182.515, 72.958 194.543 C 68.788 198.846, 65.893 207.140, 67.097 211.337 C 68.547 216.393, 70.338 217.428, 78.348 217.832 C 84.273 218.131, 87.925 217.584, 97.581 214.951 C 106.843 212.425, 111.618 211.678, 119 211.600 C 132.030 211.463, 138.072 213.561, 141.502 219.413 C 142.872 221.750, 144.280 225.763, 144.632 228.331 C 145.266 232.958, 145.246 233, 142.386 233.007 C 136.024 233.022, 122.046 237.265, 112.003 242.229 C 102.711 246.821, 100.350 248.570, 91.448 257.459 C 76.911 271.972, 69.712 285.168, 65.456 305.099 C 64.393 310.075, 63.582 322.001, 62.981 341.500 C 62.028 372.400, 61.338 377.672, 55.955 395.190 C 50.548 412.784, 46.006 422.546, 29.987 451 C 15.994 475.854, 10.642 487.746, 6.953 502.173 C -2.022 537.279, -0.531 571.479, 11.280 601.414 C 17.227 616.486, 31.526 637.649, 43.154 648.589 C 53.656 658.471, 70.645 669.315, 80.024 672.125 C 84.264 673.396, 84.279 673.415, 81.497 674.159 C 79.953 674.572, 68.665 674.976, 56.412 675.057 C 38.075 675.179, 34.038 675.459, 33.585 676.640 C 33.282 677.430, 33.723 678.340, 34.566 678.664 C 35.958 679.198, 87.978 677.739, 112.585 676.476 C 119.853 676.103, 123.576 676.339, 125.911 677.321 C 128.766 678.521, 124.879 678.766, 93.236 679.385 C 57.883 680.076, 52.051 680.517, 52.025 682.500 C 52.016 683.150, 66.964 683.525, 94.756 683.571 C 141.925 683.650, 222.886 685.359, 255.451 686.964 C 268.858 687.625, 276.749 687.651, 277.364 687.036 C 277.979 686.421, 277.393 685.720, 275.737 685.090 C 272.950 684.030, 242.110 682.452, 203.500 681.392 L 179.500 680.733 186 678.904 C 192.958 676.946, 189.802 676.865, 255.750 680.692 C 264.422 681.196, 266 681.058, 266 679.800 C 266 678.290, 254.377 676.845, 227.500 675.016 C 222 674.642, 219.186 674.260, 221.246 674.168 C 229.181 673.812, 250.703 664.729, 259.693 657.942 C 262.612 655.738, 265 654.140, 265 654.390 C 265 654.640, 269.837 650.035, 275.750 644.156 C 287.177 632.796, 294.426 623.102, 300.433 611.148 C 302.466 607.104, 304.256 603.954, 304.411 604.148 C 304.567 604.341, 307.939 608.214, 311.904 612.753 C 316.128 617.586, 318.820 621.482, 318.403 622.157 C 318.001 622.807, 318.127 623.039, 318.692 622.690 C 319.990 621.888, 325.269 627.373, 324.264 628.480 C 323.844 628.942, 324.057 629, 324.738 628.609 C 325.449 628.200, 327.148 628.984, 328.728 630.448 C 330.241 631.852, 331.870 633, 332.347 633 C 332.824 633, 332.946 633.698, 332.618 634.552 C 332.263 635.478, 332.439 635.846, 333.055 635.466 C 334.430 634.616, 337.153 636.943, 336.334 638.268 C 335.947 638.895, 336.180 639.007, 336.920 638.550 C 337.626 638.113, 339.072 638.611, 340.324 639.723 C 343.327 642.389, 358.431 651.857, 362.230 653.454 L 365.343 654.764 359.422 655.353 C 356.165 655.677, 349.785 656.227, 345.244 656.576 C 337.388 657.179, 334.732 658.223, 336.637 659.962 C 337.112 660.395, 344.700 660.136, 353.500 659.387 C 368.758 658.088, 383.496 658.375, 384.495 659.991 C 385.110 660.987, 378.882 661.975, 371.908 661.989 C 364.725 662.003, 332.140 665.601, 325.266 667.140 C 321.916 667.889, 320 668.839, 320 669.748 C 320 671.468, 321.641 671.372, 355.500 667.655 C 382.627 664.678, 390.404 664.444, 394 666.500 C 396.428 667.888, 396.361 667.930, 391.657 667.965 C 383.996 668.021, 332.200 672.661, 328.295 673.641 C 327.033 673.958, 326 674.820, 326 675.556 C 326 676.608, 328.416 676.854, 337.250 676.698 C 343.438 676.589, 348.725 676.211, 349 675.857 C 349.656 675.013, 386.375 671.994, 395.940 671.997 C 403.289 672, 413.615 673.461, 417.500 675.048 C 418.658 675.521, 412.435 675.893, 402.722 675.932 C 387.791 675.993, 359.430 678.159, 354.750 679.597 C 352.475 680.296, 352.475 683.013, 354.750 682.956 C 355.712 682.932, 359.875 682.485, 364 681.962 C 368.125 681.440, 386.350 680.567, 404.500 680.024 C 422.650 679.480, 453.025 678.508, 472 677.864 C 490.975 677.220, 514.150 676.611, 523.500 676.511 C 536.834 676.368, 541.578 675.948, 545.500 674.564 C 549.475 673.161, 556.033 672.609, 577.500 671.867 C 636.548 669.828, 642.332 669.517, 642.714 668.365 C 642.934 667.700, 641.515 667.027, 639.295 666.741 C 635.565 666.261, 584.614 667.429, 566 668.421 C 560.642 668.707, 557.154 668.561, 558 668.087 C 558.825 667.625, 565.800 667.016, 573.500 666.734 C 581.514 666.440, 588.783 665.671, 590.500 664.934 C 592.355 664.138, 600.241 663.429, 611.169 663.074 C 627.586 662.541, 631.326 661.992, 629.691 660.358 C 629.338 660.005, 623.625 659.493, 616.995 659.219 L 604.941 658.723 610.988 654.772 C 614.314 652.598, 619.390 648.704, 622.268 646.117 C 625.146 643.530, 630.627 639.899, 634.448 638.047 C 640.379 635.173, 649.329 629.727, 651 627.976 C 651.275 627.688, 654.425 625.139, 658 622.312 C 665.466 616.409, 682.459 599.394, 689.955 590.317 C 697.854 580.752, 709.496 562.800, 715.186 551.410 C 718.020 545.735, 720.601 541.253, 720.920 541.451 C 721.239 541.648, 721.547 540.839, 721.605 539.655 C 721.663 538.470, 722.883 534.350, 724.318 530.500 C 726.666 524.196, 726.930 523.848, 726.977 527 C 727.109 535.876, 729.133 567.090, 730.544 582 C 733.237 610.447, 739.649 641.267, 746.717 659.733 C 749.504 667.012, 750.040 669.358, 749.056 669.965 C 748.354 670.399, 740.067 671.051, 730.640 671.413 C 715.179 672.009, 702.217 673.022, 690.250 674.572 C 687.303 674.954, 686 675.600, 686 676.681 C 686 677.984, 687.026 678.152, 692.250 677.702 C 715.856 675.671, 752.275 673.875, 753.102 674.702 C 753.707 675.307, 746.068 676.094, 732.206 676.854 C 704.493 678.374, 700 678.902, 700 680.639 C 700 681.519, 701.197 682, 703.389 682 C 708.791 682, 741.971 680.078, 747.862 679.424 C 751.861 678.979, 753.038 679.130, 752.491 680.014 C 751.939 680.908, 752.255 680.934, 753.779 680.118 C 755.389 679.257, 755.927 679.367, 756.424 680.661 C 756.767 681.555, 756.924 682.392, 756.774 682.521 C 756.623 682.650, 746.825 683.266, 735 683.889 C 709.592 685.229, 706 685.710, 706 687.776 C 706 689.087, 707.781 689.199, 719.250 688.607 C 751.942 686.918, 759.439 686.869, 761.434 688.328 C 763.150 689.583, 762.165 689.812, 752.430 690.427 C 735.668 691.485, 721.580 692.840, 719.654 693.579 C 717.389 694.448, 718.123 696.564, 720.593 696.284 C 725.321 695.750, 753.195 694.025, 759.534 693.876 C 764.360 693.762, 767.498 694.213, 769.534 695.315 C 771.165 696.198, 772.050 696.940, 771.500 696.964 C 766.641 697.178, 737.237 700.154, 735.385 700.618 C 734.073 700.947, 733 701.908, 733 702.752 C 733 704.053, 734.104 704.184, 740.250 703.610 C 762.011 701.579, 778.490 701.057, 839 700.484 C 876.673 700.128, 905.905 699.460, 906.433 698.944 C 906.947 698.443, 907.019 697.688, 906.594 697.267 C 905.740 696.421, 808.599 696.615, 803 697.474 L 799.500 698.011 803.191 696.012 C 805.221 694.912, 807.921 694.048, 809.191 694.092 C 815.476 694.308, 920.939 691.835, 923.750 691.406 C 925.851 691.085, 927 690.345, 927 689.314 C 927 687.871, 923.584 687.781, 891.250 688.370 C 871.587 688.729, 845.825 689.269, 834 689.571 C 812.564 690.117, 812.507 690.113, 814.742 688.156 C 816.740 686.406, 818.586 686.182, 831.742 686.095 C 849.642 685.977, 864.880 685.003, 865.540 683.935 C 866.488 682.401, 854.452 681.737, 838.332 682.433 C 829.350 682.821, 822 682.914, 822 682.640 C 822 682.367, 822.707 681.436, 823.571 680.571 C 824.933 679.209, 829.366 678.999, 856.821 678.989 C 890.306 678.977, 896 678.597, 896 676.369 C 896 675.238, 890.239 675, 862.833 675 C 844.592 675, 830.003 674.663, 830.414 674.250 C 830.825 673.837, 843.239 673.275, 858 673 C 872.761 672.725, 885.174 672.163, 885.585 671.750 C 887.474 669.856, 883.148 669.515, 859.874 669.718 L 834.940 669.936 841.662 662.028 C 845.359 657.678, 848.742 654.341, 849.180 654.611 C 849.619 654.882, 849.727 654.452, 849.421 653.656 C 849.116 652.859, 849.687 651.598, 850.691 650.854 C 851.695 650.109, 854.265 646.926, 856.403 643.781 C 858.541 640.635, 860.744 638.342, 861.300 638.685 C 861.855 639.028, 862.023 638.846, 861.673 638.279 C 861.323 637.713, 862.292 635.506, 863.826 633.375 C 868.866 626.374, 878.690 609.695, 884.223 598.745 C 887.212 592.830, 889.863 588.197, 890.115 588.448 C 890.366 588.699, 890.617 588.139, 890.672 587.202 C 890.727 586.266, 892.565 581.450, 894.756 576.500 C 905.027 553.293, 914.544 523.070, 921.523 491.500 C 924.283 479.011, 925.550 475.061, 927.293 473.500 C 931.744 469.515, 940.652 458.335, 945.228 450.991 C 952.086 439.985, 959.471 423.458, 966.219 404.015 C 967.839 399.348, 970.055 393.575, 971.143 391.185 C 976.454 379.527, 978.633 360.845, 975.544 353.452 C 973.884 349.479, 970.502 347.720, 967.500 349.268 C 964.366 350.884, 964.032 351.969, 964.015 360.583 C 964.002 367.619, 962.792 377.357, 961.361 381.949 C 961.099 382.793, 959.932 381.289, 958.571 378.351 C 957.285 375.575, 955.468 373.010, 954.534 372.652 C 951.011 371.300, 948.042 372.006, 946.342 374.600 C 944.859 376.864, 944.798 377.802, 945.871 381.850 C 946.548 384.408, 948.933 389.541, 951.170 393.257 L 955.238 400.014 951.534 410.757 C 945.506 428.240, 934.072 450.781, 931.910 449.444 C 931.422 449.143, 931.263 449.522, 931.557 450.288 C 931.851 451.053, 931.309 452.314, 930.354 453.090 C 929.398 453.865, 928.879 454.050, 929.201 453.500 C 930.372 451.498, 934.012 422.413, 938.523 379 C 939.409 370.475, 941.208 354.725, 942.521 344 C 946.484 311.630, 947.434 296.829, 947.460 267 C 947.481 243.913, 947.150 236.696, 945.718 229 C 942.389 211.115, 936.243 195.333, 927.663 182.635 C 925.111 178.860, 923.313 175.303, 923.666 174.731 C 924.020 174.159, 923.874 173.960, 923.342 174.289 C 922.810 174.617, 919.688 172.099, 916.405 168.693 C 908.821 160.826, 897.498 153.322, 885.834 148.430 L 876.702 144.601 884.918 136.783 C 889.436 132.483, 893.565 129.231, 894.092 129.557 C 894.618 129.882, 894.926 129.730, 894.775 129.219 C 894.624 128.707, 898.647 123.837, 903.716 118.395 C 924.135 96.471, 935.077 75.422, 935.369 57.500 C 935.523 48.090, 933.543 43.597, 927.966 40.699 C 920.605 36.874, 910.555 40.495, 900.555 50.576 L 895.104 56.070 894.596 52.785 C 891.588 33.320, 890.579 28.038, 888.849 22.703 C 886.479 15.395, 882.593 8.229, 879.621 5.684 C 876.699 3.182, 869.919 0.039, 867.500 0.066 C 866.400 0.078, 863.817 0.689, 861.759 1.423 M 862.295 11.968 C 858.273 13.672, 853.151 22.058, 850.021 32.061 C 843.186 53.914, 841.386 78.181, 844.463 107 C 845.745 119.004, 848.458 134.791, 849.401 135.734 C 849.996 136.329, 855.931 110.977, 857.533 101 C 859.622 87.979, 861.982 55.301, 861.992 39.250 C 861.998 28.788, 862.284 26, 863.352 26 C 865.245 26, 865.987 37.284, 865.994 66.199 C 866.001 92.491, 864.753 105.038, 860.086 125.628 C 858.481 132.708, 857.331 138.664, 857.531 138.863 C 858.154 139.487, 866.552 125.892, 870.901 117.218 C 876.286 106.480, 878.694 100.420, 881.714 90 C 885.100 78.321, 885.990 55.603, 883.575 42.500 C 881.291 30.105, 877.267 18.325, 874.127 14.844 C 871.260 11.665, 866.018 10.390, 862.295 11.968 M 767.025 23.975 C 764.074 26.926, 763.730 29.834, 765.392 37.802 C 767.664 48.699, 779.082 72.685, 781.335 71.293 C 781.871 70.962, 782.025 71.151, 781.677 71.713 C 780.889 72.988, 792.684 89.602, 794.109 89.225 C 794.681 89.074, 794.858 89.420, 794.503 89.995 C 793.673 91.338, 809.133 111.033, 810.626 110.534 C 811.245 110.327, 811.695 110.910, 811.626 111.829 C 811.550 112.831, 812.100 113.367, 813 113.167 C 813.825 112.983, 814.190 113.143, 813.812 113.521 C 812.932 114.402, 824.902 129.592, 826.187 129.225 C 826.716 129.074, 826.898 129.355, 826.593 129.850 C 826.287 130.345, 827.381 132.606, 829.024 134.875 C 831.148 137.807, 832.734 139, 834.506 139 C 835.878 139, 837 138.848, 837 138.662 C 837 137.267, 816.462 98.228, 815.214 97.250 C 814.336 96.563, 813.959 96, 814.377 96 C 814.795 96, 814.281 94.763, 813.236 93.250 C 812.190 91.737, 808.926 86.225, 805.981 81 C 794.105 59.928, 783.271 45.576, 773.679 38.211 C 771.586 36.604, 771.491 33.133, 773.518 32.355 C 779.306 30.134, 792.581 44.122, 806.322 66.922 C 809.445 72.105, 812 76.096, 812 75.791 C 812 74.598, 806.689 61.203, 804.153 56 C 799.953 47.382, 796.926 42.928, 795.760 43.648 C 795.114 44.047, 794.984 43.835, 795.431 43.111 C 796.734 41.004, 784.351 26.344, 778.800 23.422 C 774.888 21.362, 769.379 21.621, 767.025 23.975 M 823.621 25.653 C 820.174 29.370, 818.923 35.417, 818.923 48.355 C 818.923 58.075, 819.443 61.586, 822.948 75.509 C 825.162 84.304, 828.596 95.550, 830.581 100.500 C 832.565 105.450, 834.590 110.625, 835.081 112 C 835.703 113.741, 835.832 112.527, 835.505 108 C 833.518 80.502, 834.112 63.189, 837.656 45.207 C 839.572 35.489, 838.749 31.084, 834.086 26.092 C 830.473 22.225, 826.937 22.076, 823.621 25.653 M 912.946 51.832 C 902.431 58.530, 896.349 68.558, 891.550 87.109 C 887.870 101.335, 884.261 110.702, 877.852 122.657 C 875.678 126.711, 874.217 130.542, 874.604 131.169 C 874.992 131.796, 874.872 132.039, 874.338 131.709 C 873.804 131.379, 872.584 132.434, 871.627 134.054 C 870.670 135.674, 870.258 137, 870.712 137 C 871.849 137, 896.593 113.695, 902.284 107.263 C 913.553 94.528, 920.837 82.311, 923.954 70.919 C 929.118 52.048, 924.682 44.356, 912.946 51.832 M 171.399 66.162 C 174.032 75.234, 175.183 83.517, 175.689 97.044 C 176.393 115.871, 174.874 131.986, 168.954 168.500 C 164.563 195.577, 163.965 208.602, 166.460 222.778 C 167.942 231.202, 168.540 233, 169.859 233 C 170.266 233, 170.671 225.308, 170.760 215.906 C 170.953 195.294, 171.880 186.178, 177.153 153 C 184.535 106.561, 185.699 89.984, 182.457 77.460 C 180.712 70.716, 176.412 64.665, 173.008 64.162 C 171.034 63.870, 170.814 64.144, 171.399 66.162 M 913.463 75.133 C 909.740 81.242, 902.938 90.794, 898.347 96.360 C 893.756 101.926, 890 106.822, 890 107.240 C 890 109.641, 894.617 107.269, 899.132 102.548 C 902 99.550, 904.788 97.369, 905.328 97.703 C 905.895 98.053, 905.989 97.791, 905.550 97.080 C 905.113 96.374, 905.609 94.927, 906.717 93.676 C 912.465 87.183, 920.329 73.664, 921.451 68.345 C 922.795 61.978, 920.070 64.294, 913.463 75.133 M 748.882 98.750 C 748.816 99.162, 748.816 99.838, 748.882 100.250 C 748.947 100.662, 748.438 100.888, 747.750 100.750 C 745.735 100.347, 745.646 106.167, 747.609 110 C 749.943 114.559, 752.069 117.076, 753.065 116.460 C 753.503 116.189, 754.187 116.494, 754.585 117.138 C 755.037 117.869, 754.876 118.041, 754.155 117.595 C 751.347 115.860, 753.434 118.696, 758.250 123.159 C 766.216 130.542, 779.400 139.146, 781.632 138.419 C 782.907 138.004, 783.100 138.100, 782.241 138.720 C 780.381 140.063, 796.149 146.405, 799.055 145.483 C 800.915 144.892, 799.832 144.032, 792.088 139.941 C 787.045 137.277, 779.981 133.044, 776.389 130.533 C 772.798 128.023, 769.430 126.234, 768.905 126.559 C 768.380 126.883, 768.067 126.778, 768.210 126.324 C 768.352 125.871, 765.888 123.072, 762.734 120.105 C 754.039 111.924, 755.772 109.357, 765.500 116.009 C 773.010 121.146, 784.888 127.837, 792.698 131.333 C 802.576 135.754, 818.120 141.213, 818.824 140.509 C 819.653 139.681, 813.432 131.469, 812.180 131.738 C 811.570 131.869, 811.306 131.367, 811.592 130.622 C 811.891 129.843, 810.130 127.524, 807.442 125.158 C 801.601 120.016, 780.624 108.864, 778.237 109.631 C 777.021 110.021, 776.876 109.917, 777.755 109.282 C 779.043 108.352, 768.112 102.362, 759.724 99.402 C 755.466 97.900, 749.076 97.516, 748.882 98.750 M 102.229 126.648 C 100.127 127.528, 98.154 132.354, 98.709 135.256 C 98.995 136.753, 99.622 137.734, 100.103 137.436 C 100.584 137.139, 100.741 137.511, 100.453 138.262 C 99.689 140.254, 105.296 146.790, 115.065 155.294 C 125.030 163.968, 129.334 168.783, 135.979 178.684 C 138.630 182.635, 141.142 185.560, 141.560 185.184 C 141.978 184.808, 142.039 184.995, 141.694 185.600 C 141.350 186.204, 142.473 190.029, 144.190 194.100 C 145.907 198.170, 149.236 208.182, 151.588 216.349 C 153.940 224.515, 156.120 231.453, 156.432 231.765 C 157.950 233.283, 157.967 230.225, 156.504 218.868 C 154.629 204.303, 152.079 192.912, 148.662 183.833 C 145.288 174.871, 135.989 156.487, 130.837 148.595 C 127.247 143.097, 126.354 142.279, 125.046 143.297 C 123.679 144.360, 123.664 144.291, 124.914 142.700 C 126.188 141.078, 125.846 140.412, 121.426 135.924 C 115.069 129.471, 105.979 125.078, 102.229 126.648 M 490.891 131.750 C 492.276 134.270, 499.222 140.550, 500.266 140.225 C 500.751 140.074, 500.865 140.409, 500.519 140.969 C 500.173 141.530, 501.008 143.455, 502.376 145.249 C 509.165 154.149, 510.123 167.135, 505.127 182.500 C 502.323 191.122, 497.401 201.494, 492.891 208.283 C 490.742 211.518, 489.282 214.648, 489.647 215.237 C 490.011 215.827, 489.866 216.035, 489.325 215.701 C 488.783 215.366, 486.611 217.434, 484.497 220.296 C 482.383 223.158, 476.583 229.471, 471.608 234.324 C 463.878 241.864, 462.994 243.044, 465.531 242.436 C 470.102 241.339, 471.854 240.179, 473.409 237.220 C 474.196 235.724, 476.885 232.509, 479.385 230.076 C 483.106 226.455, 484.044 225.952, 484.563 227.303 C 484.974 228.375, 483.935 230.426, 481.598 233.157 C 475.968 239.734, 476.388 240.269, 488.087 241.426 C 491.160 241.730, 496.785 242.996, 500.587 244.240 L 507.500 246.500 507.596 236.500 C 507.710 224.686, 510.209 214.507, 515.647 203.709 C 520.502 194.066, 528.103 182.934, 532.182 179.492 C 535.391 176.784, 535.510 176.761, 535.814 178.800 C 535.986 179.960, 535.256 182.167, 534.192 183.704 C 521.328 202.288, 514.293 219.266, 513.352 234 C 512.617 245.492, 514.185 250.373, 518.750 250.813 L 522 251.127 522 239.921 C 522 221.107, 525.675 212.137, 538.166 200.466 C 558.976 181.021, 566.222 171.293, 566.399 162.563 C 566.507 157.262, 564.454 152.513, 561.149 150.419 C 559.692 149.496, 558.989 149.265, 559.587 149.907 C 560.370 150.748, 560.298 152.665, 559.328 156.787 C 554.977 175.261, 548.221 187.372, 535.596 199.324 C 532.793 201.977, 530.607 204.549, 530.738 205.038 C 530.869 205.528, 530.306 205.671, 529.488 205.357 C 528.670 205.043, 528.004 204.497, 528.009 204.143 C 528.014 203.789, 530.308 200.575, 533.107 197 C 540.396 187.690, 547.262 177.288, 549.938 171.500 C 552.604 165.734, 555.007 153.300, 554.351 148.668 C 553.756 144.469, 548.901 140, 544.933 140 L 541.898 140 544.659 143.620 C 548.706 148.925, 549.152 157.841, 545.737 165.167 C 542.977 171.088, 539.685 175, 537.461 175 C 535.486 175, 535.612 173.794, 538.555 164.580 C 541.058 156.742, 541.132 151.817, 538.769 150.357 C 538.120 149.956, 537.981 150.161, 538.420 150.870 C 539.279 152.260, 536.497 165.231, 534.736 168.051 C 533.184 170.537, 528.996 170.682, 529.011 168.250 C 529.017 167.287, 529.692 164.291, 530.511 161.591 C 532.244 155.876, 532.393 150.955, 530.985 145.886 C 530.021 142.417, 529.743 142.235, 523.991 141.308 C 520.696 140.777, 518 140.462, 518 140.607 C 518 140.751, 518.486 142.137, 519.081 143.685 C 520.466 147.291, 522.997 161.524, 522.999 165.715 C 523.001 171.613, 519.779 179.502, 510.424 196.500 C 503.040 209.919, 496.894 224.574, 495.681 231.654 C 494.632 237.777, 492.792 240.192, 490.741 238.141 C 489.589 236.989, 492.354 223.965, 495.653 215 C 496.968 211.425, 502.422 199.814, 507.772 189.198 L 517.500 169.896 517.500 161.698 C 517.500 157.038, 516.682 150.163, 515.605 145.769 L 513.710 138.038 503.431 134.019 C 491.868 129.498, 489.409 129.053, 490.891 131.750 M 217.250 141.662 C 214.892 142.614, 215.888 146.784, 219.002 149.001 C 225.158 153.385, 229.872 148.781, 224.612 143.521 C 222.208 141.117, 219.990 140.557, 217.250 141.662 M 820.500 153.985 C 812.599 154.921, 805.638 156.411, 801.381 158.078 C 798.525 159.196, 798.520 159.214, 800.775 160.080 C 806.007 162.090, 823.382 164.110, 835.543 164.121 C 852.248 164.137, 872 160.838, 872 158.033 C 872 157.677, 868.737 156.565, 864.750 155.562 C 856.498 153.485, 832.075 152.615, 820.500 153.985 M 786.264 164.896 C 783.384 166.499, 779.177 169.276, 776.915 171.067 L 772.803 174.324 775.151 175.643 C 776.443 176.368, 781.775 178.348, 787 180.042 C 792.225 181.737, 797.140 183.752, 797.923 184.521 C 799.150 185.725, 798.942 186.073, 796.423 187.037 C 792.774 188.433, 781.486 186.962, 771.770 183.823 L 765.040 181.648 762.899 184.074 C 755.474 192.488, 746.486 207.219, 747.371 209.523 C 747.678 210.324, 747.410 210.869, 746.773 210.738 C 746.138 210.607, 745.451 211.263, 745.246 212.196 C 744.670 214.820, 751.807 217.708, 765.938 220.569 C 772.797 221.958, 778.982 223.570, 779.683 224.152 C 781.272 225.471, 779.809 228.609, 777.222 229.430 C 775.119 230.097, 752.048 227.494, 747.007 226.021 C 742.223 224.623, 741.320 224.725, 740.537 226.750 C 739.747 228.795, 736 246.669, 736 248.394 C 736 251.587, 743.984 254.061, 762.257 256.531 C 777.539 258.597, 778.743 258.888, 779.434 260.688 C 780.695 263.976, 778.117 265.001, 768.628 264.982 C 759.931 264.965, 746.848 263.835, 738.750 262.402 L 735 261.738 735 268.349 L 735 274.959 738.863 276.930 C 744.212 279.659, 757.169 282.980, 765.258 283.694 C 768.975 284.023, 772.800 284.901, 773.758 285.646 C 775.404 286.925, 775.393 287.083, 773.559 288.500 C 772.242 289.517, 769.346 289.989, 764.559 289.967 C 758.114 289.937, 754.420 289.574, 739.500 287.501 L 734.500 286.806 735.112 312.932 C 735.448 327.300, 735.917 339.250, 736.154 339.487 C 736.822 340.155, 748.204 343, 750.210 343 C 751.197 343, 752 343.730, 752 344.628 C 752 346.036, 750.915 346.194, 744 345.794 L 736 345.331 736 350.801 C 736 355.351, 736.420 356.660, 738.500 358.588 C 741.504 361.372, 741.639 363.827, 739.066 368.871 C 737.228 372.474, 737.160 374.417, 737.699 408.081 C 738.011 427.561, 738.669 444.011, 739.161 444.636 C 739.654 445.261, 744.531 447, 750 448.500 C 760.040 451.254, 763.767 453.385, 760.641 454.584 C 759.312 455.094, 748.954 453.440, 740.250 451.329 L 738 450.783 738 465.281 L 738 479.780 742.250 481.750 C 744.587 482.834, 754.807 485.628, 764.961 487.960 C 786.572 492.922, 797.129 496.500, 796.327 498.591 C 795.696 500.234, 793.864 500.302, 784.956 499.013 C 781.357 498.493, 773.032 497.602, 766.456 497.035 C 759.880 496.467, 750.965 495.490, 746.645 494.863 C 737.426 493.525, 737.039 493.796, 737.015 501.595 C 736.997 507.774, 738.662 509.624, 745.372 510.877 C 753.350 512.368, 752.911 514.492, 744.405 515.555 C 741.275 515.946, 738.620 516.828, 738.334 517.571 C 738.056 518.297, 738.334 528.928, 738.952 541.196 C 739.964 561.252, 740.273 563.666, 742.020 565.146 C 743.976 566.801, 749.236 568.115, 769.500 572.009 C 783.787 574.754, 787.847 577.393, 783.428 581.060 C 782.133 582.135, 778.389 582.083, 762.180 580.763 C 751.359 579.882, 742.372 579.295, 742.209 579.458 C 741.543 580.124, 744.187 597.576, 745.094 598.500 C 745.634 599.050, 748.331 599.950, 751.088 600.500 C 757.403 601.760, 757.488 603.349, 751.275 604 C 746.924 604.456, 746.471 604.750, 746.177 607.318 C 745.870 609.994, 749.045 626.905, 751.121 633.653 C 752.248 637.317, 752.653 637.453, 767 639.020 C 783.842 640.860, 784.160 640.930, 783.811 642.744 C 783.399 644.880, 779.779 645.679, 766.750 646.508 C 754.125 647.312, 754.471 646.752, 758.972 659.085 C 762.655 669.177, 766.086 675.109, 771.735 681.147 C 779.227 689.158, 786.210 690.902, 794.936 686.944 C 799.273 684.976, 809.004 678.125, 808.996 677.045 C 808.990 676.108, 800.814 673.169, 793.250 671.384 C 788.270 670.208, 786 669.207, 786 668.186 C 786 666.913, 787.894 666.796, 799.250 667.370 C 806.538 667.739, 813.850 668.276, 815.500 668.565 C 817.944 668.992, 819.205 668.432, 822.308 665.543 C 824.523 663.479, 825.818 661.514, 825.403 660.844 C 824.989 660.174, 825.128 659.961, 825.735 660.336 C 826.684 660.923, 835.499 652.166, 834.731 651.398 C 834.184 650.851, 807.928 643.077, 804.377 642.411 C 800.760 641.732, 798.459 639.684, 799.473 638.044 C 800.480 636.414, 810.093 636.799, 827.206 639.155 C 840.192 640.943, 843.185 641.092, 844.483 640.014 C 846.963 637.956, 860 618.760, 860 617.166 C 860 615.841, 849.314 612.582, 837.948 610.443 C 828.857 608.732, 826.569 607.567, 829.008 605.893 C 830.488 604.877, 846.291 605.237, 860.023 606.599 L 866.546 607.247 872.273 596.786 C 875.423 591.033, 878 585.627, 878 584.772 C 878 583.233, 877.387 583.047, 858.750 578.947 C 854.110 577.926, 853 577.299, 853 575.700 C 853 573.791, 853.472 573.744, 865.792 574.413 C 879.761 575.173, 883.428 574.476, 884.968 570.770 C 890.151 558.297, 891.187 554.734, 889.867 553.918 C 889.116 553.453, 880.699 551.165, 871.162 548.833 C 854.317 544.712, 849.686 542.981, 851.270 541.396 C 852.004 540.662, 881.613 542.414, 889.152 543.637 C 893.547 544.351, 896.287 542.085, 898.008 536.315 C 900.094 529.320, 901.821 523.001, 901.659 522.953 C 901.572 522.928, 898.575 522.679, 895 522.401 C 878.412 521.111, 865 518.394, 865 516.325 C 865 515.290, 868.681 515.141, 883.250 515.586 C 893.348 515.894, 902.066 515.745, 902.767 515.252 C 903.886 514.465, 908.955 498.279, 908.988 495.392 C 908.996 494.681, 905.137 494.089, 898.250 493.743 C 881.416 492.897, 867.622 489.042, 870.600 486.017 C 871.401 485.204, 873.976 485.185, 880.074 485.950 C 889.292 487.106, 905.092 487.193, 908.986 486.109 C 911.578 485.387, 912.924 481.459, 914.496 470.026 L 915.136 465.376 904.734 464.167 C 893.757 462.891, 877.892 458.986, 875.450 456.958 C 873.485 455.328, 873.616 453, 875.672 453 C 876.592 453, 881.026 453.690, 885.525 454.533 C 890.770 455.516, 897.968 455.964, 905.582 455.783 L 917.458 455.500 918.632 448.500 C 919.278 444.650, 920.116 437.900, 920.493 433.500 L 921.179 425.500 916.770 423.939 L 912.361 422.378 908.811 426.439 C 906.858 428.672, 902.614 431.837, 899.380 433.472 C 894.387 435.995, 892.369 436.439, 886 436.412 C 873.114 436.358, 864.403 430.879, 858.317 419 C 855.915 414.310, 855.502 412.321, 855.513 405.495 C 855.523 398.778, 855.974 396.573, 858.319 391.781 C 861.313 385.660, 867.700 379.320, 873.775 376.436 C 875.824 375.464, 880.650 374.473, 884.500 374.235 C 902.334 373.133, 917.009 386.535, 916.994 403.910 C 916.991 407.534, 916.503 412.250, 915.909 414.388 C 914.678 418.823, 915.728 420.202, 919.995 419.759 C 922.884 419.459, 922.944 419.197, 925.458 396 C 927.682 375.482, 927.892 376.786, 922 374.500 C 918.702 373.220, 917 371.977, 917 370.847 C 917 369.049, 918.102 368.532, 924.259 367.440 C 927.010 366.953, 928.134 366.200, 928.448 364.637 C 928.952 362.134, 931 344.911, 931 343.182 C 931 342.354, 928.101 342, 921.318 342 C 902.897 342, 887.642 338.911, 891.991 336.061 C 893.573 335.025, 895.515 334.762, 917.302 332.640 C 924.893 331.901, 931.500 330.892, 931.984 330.398 C 933.391 328.962, 934.706 311.508, 933.594 309.017 C 932.898 307.455, 933.017 306.221, 934.017 304.668 C 934.978 303.174, 935.540 298.188, 935.823 288.637 L 936.233 274.774 928.867 275.449 C 924.815 275.821, 913.014 277.486, 902.641 279.150 C 872.732 283.947, 856.919 284.543, 856.218 280.898 C 855.966 279.585, 857.229 279.195, 863.205 278.740 C 867.217 278.434, 880.229 275.688, 892.120 272.636 C 904.010 269.584, 918.185 266.338, 923.620 265.422 C 929.054 264.506, 934.208 263.388, 935.074 262.937 C 936.379 262.258, 936.572 260.614, 936.204 253.309 C 935.960 248.464, 935.607 244.331, 935.421 244.125 C 935.235 243.918, 929.101 244.513, 921.791 245.447 C 905.627 247.511, 888.500 247.281, 888.500 245 C 888.500 243.797, 891.174 243.274, 902 242.359 C 916.559 241.128, 931.184 239.250, 933.687 238.290 C 935.630 237.544, 935.062 231.571, 931.954 220.052 C 928.992 209.076, 928.551 208.593, 922.877 210.110 C 914.277 212.410, 912.664 209.019, 920.538 205.194 C 922.992 204.002, 925 202.431, 925 201.704 C 925 199.898, 918.422 189.040, 915.584 186.162 L 913.279 183.825 908.318 186.339 C 901.710 189.687, 892.465 192, 885.687 192 C 878.957 192, 877 191.328, 877 189.015 C 877 186.273, 879.112 185.095, 888.661 182.513 C 901.537 179.030, 905.500 177.473, 905.500 175.899 C 905.500 175.130, 904.904 174.624, 904.176 174.775 C 903.447 174.926, 903.127 174.604, 903.464 174.059 C 904.184 172.893, 897.540 167.855, 890.641 164.335 L 885.782 161.856 880.641 163.899 C 870.447 167.949, 851.226 171.006, 836.026 170.993 C 825.248 170.984, 810.425 168.788, 806.122 166.563 C 804.306 165.624, 802.185 165.099, 801.410 165.396 C 800.634 165.694, 800 165.554, 800 165.085 C 800 164.617, 798.987 163.992, 797.750 163.697 C 796.513 163.403, 794.600 162.896, 793.500 162.571 C 792.263 162.206, 789.503 163.093, 786.264 164.896 M 51.786 168.926 C 43.249 170.118, 39.458 175.852, 40.378 186.180 C 41.125 194.562, 41.349 195.984, 41.848 195.485 C 42.079 195.254, 43.393 195.951, 44.769 197.033 C 47.790 199.409, 53.901 199.620, 58.021 197.489 C 63.807 194.497, 68.163 185.044, 64.418 183.607 C 62.121 182.726, 62.264 182.650, 58 187 C 55.844 189.200, 53.456 191, 52.695 191 C 50.130 191, 47.671 187.144, 47.813 183.349 C 47.982 178.847, 50.425 176, 54.120 176 C 57.606 176, 59.727 172.848, 57.490 170.992 C 56.683 170.322, 56.269 169.374, 56.570 168.887 C 56.871 168.399, 56.979 168.060, 56.809 168.134 C 56.639 168.207, 54.379 168.563, 51.786 168.926 M 88.158 195.273 C 86.319 195.861, 82.769 198.195, 80.268 200.460 C 75.975 204.346, 75.816 204.673, 77.431 206.289 C 80.017 208.874, 83.077 208.542, 102.500 203.568 C 105.800 202.723, 111.650 201.992, 115.500 201.945 L 122.500 201.859 118 199.843 C 111.838 197.083, 99.447 193.978, 95.090 194.102 C 93.116 194.158, 89.996 194.685, 88.158 195.273 M 219.013 200.434 C 217.644 201.199, 216.112 201.569, 215.608 201.258 C 215.104 200.946, 214.984 201.165, 215.342 201.744 C 215.703 202.329, 213.664 204.248, 210.746 206.068 C 204.556 209.928, 197 216.876, 197 218.708 C 197 221.371, 201.847 219.847, 207.575 215.383 C 210.834 212.843, 216.114 208.983, 219.308 206.806 C 223.113 204.212, 225.007 202.273, 224.797 201.184 C 224.377 199.004, 222.100 198.709, 219.013 200.434 M 842.500 219.980 C 836.772 220.780, 834 221.810, 834 223.138 C 834 225.064, 837.671 225.290, 849.363 224.085 C 861.236 222.862, 865 221.870, 865 219.965 C 865 218.880, 850.307 218.890, 842.500 219.980 M 410.916 243.453 C 389.794 248.844, 369.908 267.475, 354.832 296 C 345.992 312.726, 339.635 330.800, 334.609 353.500 C 325.973 392.505, 324.040 433.581, 328.537 482.500 C 332.086 521.101, 340.626 563.333, 349.670 587 C 355.619 602.565, 356.265 603.955, 357.267 603.335 C 357.895 602.947, 358.007 603.179, 357.550 603.918 C 357.108 604.634, 358.773 608.971, 361.545 614.323 C 375.366 641.008, 389.802 655.507, 409.038 662.026 C 416.452 664.538, 430.316 665.041, 436.440 663.020 C 439.964 661.857, 440.054 661.717, 438.439 659.933 C 437.174 658.534, 436.293 658.308, 434.940 659.032 C 430.379 661.473, 416.711 659.458, 408.151 655.081 C 394.922 648.319, 380.618 627.829, 373.526 605.484 C 369.483 592.745, 367.563 580.685, 369.116 577.783 C 369.994 576.144, 373 575.222, 373 576.593 C 373 580.534, 378.029 599.778, 381.136 607.726 C 384.629 616.662, 386.507 620.647, 391.400 629.500 C 394.506 635.122, 401.583 643.331, 406.723 647.273 C 414.999 653.623, 420.963 656, 428.616 656 L 434.978 656 431.165 649.750 C 427.329 643.463, 423.121 632.782, 420.568 622.853 C 416.247 606.049, 410.029 565.654, 410.008 554.250 C 410.004 551.913, 409.761 550, 409.469 550 C 409.178 550, 407.525 551.610, 405.797 553.578 C 404.069 555.546, 400.371 558.467, 397.578 560.069 C 388.582 565.229, 379.218 563.818, 374.068 556.528 C 373.280 555.412, 370.272 552.250, 367.383 549.500 C 351.249 534.142, 347.659 509.239, 358.445 487.500 C 364.337 475.625, 371.672 468, 377.204 468 C 382.919 468, 383.592 473.460, 378.522 478.680 C 376.609 480.650, 375.328 482.722, 375.676 483.285 C 376.024 483.848, 375.850 484.025, 375.288 483.678 C 373.871 482.802, 371.742 485.465, 368.204 492.540 C 364.313 500.320, 362.556 509.338, 363.325 517.576 C 364.043 525.261, 367.323 533.510, 369.226 532.413 C 369.927 532.010, 370.166 532.048, 369.759 532.498 C 368.614 533.761, 370.985 536, 373.467 536 C 375.973 536, 379.404 532.779, 378.252 531.509 C 377.838 531.052, 378.038 530.988, 378.696 531.365 C 380.193 532.224, 386.476 523.089, 390.985 513.500 C 392.796 509.650, 396.533 501.775, 399.292 496 L 404.306 485.500 404.113 464 L 403.919 442.500 400.217 439.500 C 388.777 430.229, 383.837 422.178, 382.012 409.829 C 379.431 392.362, 388.479 373.817, 403.186 366.429 C 406.109 364.961, 408.660 363.616, 408.855 363.442 C 409.050 363.267, 409.505 358.352, 409.866 352.520 L 410.523 341.916 405.364 342.560 C 400.943 343.113, 399.904 342.904, 398.102 341.102 C 393.797 336.797, 396.281 333.147, 406.279 329.090 L 411.610 326.926 412.859 318.213 C 414.767 304.909, 417.814 293.469, 422.238 283 C 428.046 269.257, 434.679 260.309, 445.332 251.850 L 450.164 248.013 447.332 246.909 C 435.859 242.438, 420.577 240.987, 410.916 243.453 M 563.199 243.917 C 561.384 244.385, 559.707 244.959, 559.474 245.193 C 559.240 245.427, 563.425 246.663, 568.774 247.939 C 579.767 250.563, 588.778 254.322, 595.734 259.186 C 607.926 267.712, 620.247 281.446, 629.209 296.500 C 632.563 302.133, 641.313 318.903, 641.472 320 C 641.512 320.275, 643.194 325, 645.210 330.500 C 661.951 376.169, 665.927 436.445, 655.930 493 C 650.406 524.249, 638.421 562.155, 626.477 586.153 C 618.576 602.029, 597.192 633.854, 588.308 642.959 C 584.839 646.515, 582 649.565, 582 649.738 C 582 650.561, 589.083 646.257, 594 642.446 C 606.663 632.630, 615.827 622.378, 626.772 605.783 C 633.968 594.871, 637 591.831, 637 595.525 C 637 598.086, 630.493 610.104, 625.146 617.418 C 622.365 621.222, 620.364 624.779, 620.699 625.322 C 621.035 625.865, 620.817 626.005, 620.215 625.633 C 619.608 625.258, 617.867 626.564, 616.310 628.564 C 609.821 636.893, 593.375 651, 590.153 651 C 589.335 651, 589 651.333, 589.407 651.741 C 589.815 652.148, 586.402 653.455, 581.824 654.645 C 576.334 656.072, 574.545 656.841, 576.568 656.904 C 583.994 657.136, 599.450 650.564, 608 643.539 C 615.091 637.713, 628.098 622.868, 627.519 621.262 C 627.273 620.581, 627.573 620.131, 628.186 620.262 C 630.475 620.751, 649.020 591.647, 657.983 573.500 C 670.686 547.781, 677.938 525.374, 684.196 492.500 C 686.236 481.788, 686.478 477.549, 686.452 453 C 686.419 421.822, 684.984 409.852, 678.304 385 C 677.491 381.975, 676.428 377.881, 675.942 375.902 C 672.985 363.863, 661.513 337.663, 650.610 318.050 C 646.108 309.950, 645.090 305.500, 647.741 305.500 C 648.944 305.500, 657 318.263, 657 320.170 C 657 320.691, 657.520 320.797, 658.155 320.405 C 658.810 320, 659.040 320.127, 658.686 320.698 C 658.344 321.252, 660.544 327.114, 663.576 333.724 C 666.608 340.335, 671.013 351.432, 673.365 358.384 C 675.717 365.336, 677.835 370.832, 678.071 370.596 C 678.307 370.360, 678.547 371.142, 678.604 372.333 C 678.661 373.525, 680.348 380.703, 682.352 388.284 C 687.369 407.264, 689.618 420.647, 692.302 447.500 C 694.157 466.055, 694.450 472.941, 693.819 483.128 C 693.073 495.172, 688.944 517.807, 685.384 529.363 C 680.870 544.019, 677.514 553.961, 675.720 558 C 673.024 564.067, 659.875 590.795, 658 594.020 C 655.985 597.485, 647.447 609.488, 643.253 614.750 C 641.390 617.087, 640.156 619, 640.510 619 C 640.864 619, 639.750 620.181, 638.034 621.624 C 632.638 626.165, 635.618 625.448, 642.473 620.556 C 646.276 617.843, 648.755 615.413, 648.365 614.781 C 647.994 614.182, 648.145 613.972, 648.701 614.315 C 650.082 615.168, 658.179 608.099, 657.353 606.761 C 656.966 606.136, 657.161 605.982, 657.822 606.390 C 659.256 607.276, 674.262 592.954, 682.076 583.244 C 690.081 573.295, 699.835 558.286, 705.304 547.500 C 718.975 520.539, 725.474 491.246, 719.962 481.432 C 715.822 474.062, 714.877 467.526, 713.968 440 C 713.486 425.425, 712.599 410.605, 711.995 407.066 C 710.680 399.358, 707.184 390.768, 705.728 391.668 C 705.128 392.039, 704.991 391.823, 705.404 391.156 C 706.071 390.077, 700.195 373.988, 687.412 341.887 C 684.430 334.399, 681.622 326.298, 681.171 323.883 C 680.282 319.128, 681.508 312.314, 684.472 305.536 C 687.149 299.414, 686.242 290.234, 682.420 284.771 C 678.507 279.177, 670.731 274.967, 663.019 274.268 C 656.926 273.716, 652 274.437, 652 275.882 C 652 277.341, 658.177 284.513, 659.186 284.225 C 659.716 284.074, 659.896 284.359, 659.588 284.858 C 659.280 285.357, 659.862 286.830, 660.883 288.132 C 669.338 298.921, 680.357 324.257, 685.397 344.500 C 687.093 351.309, 687.776 367.241, 686.392 367.703 C 685.889 367.870, 683.939 363.168, 682.058 357.254 C 677.397 342.594, 673.083 331.459, 667.235 318.999 C 660.043 303.676, 647.966 285.285, 645.924 286.547 C 645.428 286.853, 645.266 286.470, 645.564 285.695 C 646.296 283.786, 628.151 264.728, 626.284 265.444 C 625.521 265.737, 625.163 265.545, 625.490 265.017 C 627.076 262.450, 605.405 249.805, 592.627 245.842 C 585.779 243.719, 568.382 242.581, 563.199 243.917 M 138.500 244.649 C 127.034 247.036, 120.612 249.697, 111.557 255.812 C 95.651 266.552, 85.358 279.493, 79.408 296.229 C 75.721 306.599, 74.820 314.416, 74.432 339.434 C 74.219 353.148, 73.558 367.998, 72.962 372.434 C 70.296 392.300, 61.577 417.829, 50.740 437.500 C 48.315 441.900, 44.846 448.200, 43.030 451.500 C 41.214 454.800, 38.264 459.975, 36.474 463 C 30.699 472.763, 25.915 483.053, 26.621 484.196 C 27.003 484.813, 26.860 485.031, 26.300 484.686 C 24.895 483.817, 20.505 495.455, 16.992 509.365 C 7.246 547.957, 12.997 586.710, 33.225 618.738 C 35.640 622.563, 37.634 624.747, 38.341 624.342 C 38.979 623.978, 39.178 624.036, 38.785 624.471 C 37.728 625.642, 39.916 629.170, 41.205 628.373 C 41.846 627.977, 42.028 628.146, 41.637 628.778 C 41.031 629.759, 51.516 641.216, 56.524 645.045 C 66.869 652.956, 79.383 659.459, 91.802 663.379 C 101.041 666.296, 106.338 666.862, 98.500 664.095 C 95.750 663.124, 90.843 660.921, 87.597 659.201 C 84.350 657.480, 81.200 656.353, 80.597 656.696 C 79.993 657.040, 79.815 656.971, 80.199 656.544 C 80.584 656.117, 78.334 653.687, 75.199 651.144 C 63.297 641.489, 52.377 629.361, 44.452 617 C 41.808 612.875, 39.236 609.225, 38.737 608.888 C 38.238 608.552, 37.896 607.978, 37.978 607.614 C 38.060 607.249, 36.795 603.475, 35.168 599.226 C 31.680 590.120, 29.663 581.041, 30.591 578.624 C 31.989 574.980, 34.280 577.631, 37.031 586.078 C 41.827 600.806, 51.058 618.700, 53.183 617.387 C 53.620 617.117, 53.756 617.482, 53.485 618.198 C 52.872 619.822, 65.275 634.601, 66.935 634.225 C 67.603 634.074, 67.841 634.448, 67.465 635.056 C 65.882 637.618, 93.655 659, 98.566 659 C 98.913 659, 96.970 656.413, 94.248 653.250 C 86.948 644.771, 79.492 633.957, 73.463 623.107 C 67.072 611.604, 61.176 595.424, 62.788 593.812 C 64.782 591.818, 66.503 593.711, 71.438 603.328 C 74.140 608.594, 76.791 612.629, 77.330 612.296 C 77.883 611.954, 77.990 612.207, 77.577 612.875 C 75.140 616.819, 105.527 656.163, 109.757 654.540 C 110.498 654.255, 110.857 654.422, 110.556 654.910 C 110.022 655.774, 115.403 659.439, 123.521 663.740 C 137.178 670.976, 158.233 673.927, 172.710 670.634 C 186.926 667.401, 204.407 659.873, 216 651.991 C 227.768 643.991, 240.454 628.525, 249.622 611 C 252.915 604.707, 255.340 603.836, 255.815 608.776 C 256.513 616.024, 246.511 631.491, 231.204 646.834 C 219.131 658.934, 219.253 659.549, 232.358 652.642 C 248.184 644.300, 258.436 633.299, 269.532 612.750 C 278.584 595.986, 281.584 599.884, 273.108 617.396 C 266.336 631.385, 254.219 645.466, 242.780 652.638 C 239.577 654.646, 237.147 656.481, 237.381 656.714 C 238.670 658.004, 258.409 645.471, 257.473 643.957 C 257.156 643.443, 257.510 643.258, 258.260 643.546 C 260.180 644.283, 278.568 625.115, 284.321 616.379 C 297.654 596.134, 303.988 572.105, 303.996 541.743 C 304.005 506.258, 295.436 476.193, 276.360 444.784 C 263.879 424.233, 256.751 408.525, 252.863 393 C 250.473 383.459, 248.001 362.880, 247.998 352.506 C 247.991 331.769, 245.275 310.661, 240.855 297 C 232.076 269.863, 209.003 249.915, 181.298 245.509 L 177.096 244.840 178.956 251.345 C 179.979 254.923, 180.557 258.109, 180.241 258.425 C 178.515 260.151, 176.567 258.287, 173.785 252.250 C 172.074 248.537, 170.481 245.275, 170.244 245 C 170.007 244.725, 168.327 246.267, 166.509 248.426 C 164.691 250.586, 162.424 252.467, 161.471 252.607 C 160.183 252.796, 160.028 252.572, 160.869 251.731 C 161.491 251.109, 161.993 249.453, 161.985 248.050 C 161.976 246.648, 161.639 245.951, 161.235 246.503 C 160.831 247.054, 157.968 249.428, 154.873 251.779 C 147.300 257.532, 133.470 273.616, 130.608 280 C 128.894 283.821, 123.843 291, 122.867 291 C 121.375 291, 121.900 288.518, 124.959 281.100 C 129.701 269.599, 139.881 256.428, 149.875 248.862 L 156.298 244 148.399 244.116 C 144.055 244.180, 139.600 244.419, 138.500 244.649 M 376.500 246.586 C 373.200 247.982, 370.015 249.224, 369.423 249.345 C 367.798 249.679, 354.799 257.548, 352.392 259.655 C 344.209 266.817, 342.002 269.194, 342.616 270.187 C 343.019 270.839, 342.861 271.032, 342.238 270.647 C 340.732 269.716, 332.702 279.427, 327.657 288.280 C 325.322 292.378, 321.207 301.191, 318.513 307.865 C 314.787 317.097, 313.183 320, 311.808 320 C 309.514 320, 309.395 315.967, 311.511 309.970 C 314.112 302.598, 312.494 304.575, 307.205 315.233 C 298.708 332.357, 292.943 353.031, 291.498 371.568 C 290.626 382.754, 290.275 384, 288 384 C 286.715 384, 285.810 383.092, 285.377 381.365 C 284.220 376.754, 285.973 356.890, 288.554 345.366 C 295.486 314.420, 305.931 294.598, 328.086 270.344 C 332.442 265.575, 335.839 261.506, 335.635 261.302 C 334.764 260.430, 319.403 268.303, 314.667 272.048 C 296.597 286.340, 282.312 312.010, 275.058 343.223 C 272.370 354.789, 267.995 385.230, 267.720 394.284 C 267.443 403.372, 269.950 410.116, 280.623 429 C 299.863 463.038, 303.195 470.145, 308.053 487.500 C 315.182 512.971, 317.798 545.634, 314.360 566.270 C 313.832 569.441, 313.983 569.944, 315.311 569.434 C 316.508 568.975, 317.851 570.729, 320.849 576.664 C 329.436 593.667, 342.221 612.183, 353.147 623.440 C 356.421 626.813, 356.543 627.304, 354.529 628.976 C 353.314 629.985, 352.038 629.224, 347.192 624.602 C 343.966 621.525, 340.956 619.343, 340.503 619.753 C 340.050 620.164, 340.027 619.899, 340.452 619.164 C 340.946 618.309, 340.132 616.687, 338.193 614.664 C 331.368 607.543, 319.949 588.571, 314.377 575.094 C 313.505 572.987, 313.099 573.822, 311.101 581.814 L 308.820 590.938 311.112 594.219 C 312.372 596.024, 313.651 597.725, 313.954 598 C 314.257 598.275, 316.394 600.988, 318.704 604.029 C 324.842 612.112, 338.696 625.306, 340.121 624.425 C 340.834 623.984, 341.045 624.118, 340.650 624.758 C 339.587 626.477, 352.514 635.630, 365.002 642.001 L 369.191 644.138 366.033 639.549 C 364.297 637.024, 362.459 635.216, 361.949 635.531 C 361.440 635.846, 361.259 635.489, 361.547 634.737 C 361.836 633.985, 360.952 632.162, 359.584 630.685 C 358.215 629.208, 357.260 628, 357.461 628 C 357.661 628, 354.988 622.263, 351.521 615.250 C 335.393 582.637, 327.192 550.215, 319.840 490 C 317.890 474.036, 317.578 466.634, 317.558 436 C 317.535 401.946, 317.824 396.921, 321.090 374.500 C 322.131 367.348, 324.938 353.464, 327.616 342.212 C 331.732 324.916, 341.743 299.352, 349.969 285.128 C 353.268 279.423, 355.716 274.349, 355.409 273.853 C 355.102 273.357, 355.262 273.074, 355.765 273.225 C 356.267 273.376, 359.379 270.125, 362.681 266 C 368.602 258.602, 375.160 252.066, 382 246.745 C 386.377 243.340, 384.314 243.280, 376.500 246.586 M 464.398 253.889 C 461.042 254.850, 456.317 256.816, 453.898 258.258 C 447.609 262.006, 440.679 268.672, 441.571 270.115 C 441.995 270.801, 441.885 271.047, 441.314 270.694 C 439.140 269.350, 431.785 282.821, 427.101 296.722 C 424.222 305.269, 420.424 322.757, 421.265 323.598 C 421.495 323.828, 425.017 322.615, 429.092 320.901 C 438.016 317.147, 444.506 316.605, 446.580 319.441 C 448.636 322.252, 448.326 325.348, 445.750 327.742 C 443.644 329.698, 431.014 335.317, 422.894 337.909 L 419.288 339.060 418.644 346.681 C 418.290 350.872, 418 355.746, 418 357.512 L 418 360.723 426.981 361.235 C 433.942 361.632, 437.174 362.340, 441.352 364.384 C 467.911 377.378, 474.187 411.061, 454.022 432.383 C 444.887 442.042, 432.717 446.721, 419.359 445.711 L 412 445.154 412.007 454.327 C 412.011 459.372, 412.299 466.516, 412.647 470.203 L 413.280 476.906 416.202 475.395 C 420.201 473.328, 428.178 473.402, 431.799 475.540 C 436.845 478.521, 438.503 482.487, 438.473 491.500 C 438.439 501.468, 435.152 510.123, 424.960 527.077 C 420.207 534.983, 418 539.669, 418 541.855 C 418 549.531, 421.324 576.112, 424.645 595 C 429.350 621.757, 434.026 636.310, 441.551 647.621 C 446.804 655.515, 452.254 661, 454.844 661 C 455.480 661, 456 661.387, 456 661.859 C 456 662.332, 458.934 663.682, 462.521 664.859 C 470.479 667.472, 482.267 667.704, 490.021 665.401 C 496.707 663.416, 506.365 657.400, 505.393 655.827 C 504.946 655.103, 505.139 654.968, 505.927 655.455 C 507.518 656.438, 513.237 651.059, 512.537 649.236 C 512.254 648.499, 512.433 648.150, 512.935 648.460 C 514.015 649.127, 519.645 642.359, 523.324 635.971 C 531.578 621.634, 542.875 584.356, 549.508 549.567 L 552.165 535.633 549.833 533.839 C 545.937 530.842, 545.327 531.536, 544.635 539.750 C 543.887 548.622, 539.643 569.929, 538.020 572.963 C 535.689 577.319, 531 573.978, 532.810 569.251 C 534.925 563.728, 537.060 552.978, 538.520 540.492 L 540.015 527.713 533.470 521.136 C 522.032 509.642, 516.646 497.329, 516.569 482.500 C 516.528 474.683, 516.890 472.711, 519.319 467.503 C 522.590 460.488, 524.990 457.698, 530.581 454.409 C 537.204 450.512, 545.600 450.223, 554.371 453.589 C 555.713 454.104, 556 453.491, 556 450.107 L 556 446 550.443 446 C 539.107 446, 530.654 442.369, 522.115 433.829 C 505.471 417.186, 505.335 390.034, 521.810 373.225 C 526.743 368.192, 536.741 362.705, 543.500 361.320 L 547.500 360.500 547.327 351.500 C 547.231 346.550, 547.119 341.251, 547.077 339.725 C 547.021 337.716, 546.303 336.686, 544.473 335.990 C 538.743 333.811, 529.591 328.827, 528.371 327.221 C 526.543 324.815, 526.687 320.456, 528.659 318.483 C 530.684 316.459, 536.682 316.855, 542.341 319.385 L 546.181 321.103 545.527 317.801 C 543.042 305.258, 535.990 287.827, 530.238 280.012 C 523.825 271.298, 514.003 262.126, 506.841 258.162 C 495.777 252.038, 477.346 250.183, 464.398 253.889 M 538.245 257.146 C 534.805 257.712, 532.204 258.521, 532.465 258.943 C 532.726 259.366, 531.881 259.509, 530.587 259.261 C 526.492 258.479, 526.986 260.394, 532.586 267.011 C 544.581 281.183, 551.246 296.408, 553.996 315.923 C 554.571 320.005, 555.477 323.869, 556.008 324.510 C 556.539 325.150, 560.243 326.936, 564.237 328.479 C 575.411 332.794, 577.737 335.869, 573.529 340.761 C 571.068 343.623, 570.832 343.616, 558.250 340.351 C 556.022 339.773, 556 339.871, 556 350.270 L 556 360.773 560.257 361.411 C 569.168 362.748, 578.161 368.230, 585.125 376.573 C 587.119 378.962, 589.104 380.597, 589.536 380.208 C 589.967 379.819, 590.006 380.047, 589.623 380.716 C 589.239 381.384, 589.832 383.710, 590.940 385.883 C 593.414 390.733, 595.412 402.910, 594.544 407.850 C 593.384 414.449, 590.755 421.430, 587.800 425.758 C 586.201 428.101, 585.211 430.533, 585.601 431.163 C 585.999 431.808, 585.871 432.038, 585.308 431.690 C 584.010 430.888, 578.731 436.373, 579.736 437.480 C 580.156 437.942, 579.968 438.016, 579.319 437.644 C 578.669 437.272, 576.489 438.086, 574.474 439.453 C 572.459 440.820, 569.278 442.493, 567.405 443.170 L 564 444.402 564 451.823 L 564 459.245 570.208 465.873 C 573.622 469.518, 576.805 472.376, 577.282 472.225 C 577.759 472.074, 577.888 472.372, 577.569 472.888 C 577.251 473.403, 579.320 477.577, 582.168 482.163 C 592.747 499.194, 598.572 514.358, 606.499 545.500 C 612.078 567.420, 614.567 583.186, 613.474 589.679 C 612.898 593.100, 613.162 592.820, 615.997 587 C 624.097 570.377, 629.343 557.161, 634.852 539.500 C 656.131 471.283, 657.787 406.978, 639.875 344.500 C 634.803 326.806, 617.848 292.740, 614.993 294.504 C 614.460 294.834, 614.244 294.518, 614.514 293.802 C 615.160 292.087, 604.205 279.514, 596 272.553 C 583.342 261.815, 571.503 257.165, 555.204 256.532 C 549.317 256.303, 541.685 256.579, 538.245 257.146 M 448.292 264.371 C 442.478 270.732, 437.377 280.135, 433.052 292.460 C 429.786 301.767, 429.425 306.500, 431.980 306.500 C 432.951 306.500, 434.510 303.405, 436.513 297.500 C 440.740 285.040, 443.757 278.850, 450.332 269.149 C 455.476 261.562, 456.412 259, 454.041 259 C 453.579 259, 450.992 261.417, 448.292 264.371 M 542 261.392 C 542 262.157, 543.080 263.054, 544.400 263.385 C 545.719 263.717, 549.981 265.790, 553.869 267.994 C 557.757 270.197, 561.164 272, 561.439 272 C 561.714 272, 561.879 270.405, 561.806 268.456 C 561.733 266.507, 561.365 265.409, 560.989 266.018 C 560.537 266.749, 558.304 265.917, 554.403 263.564 C 548.252 259.855, 542 258.760, 542 261.392 M 103.442 267.297 C 94.167 276.803, 85.100 296.500, 90 296.500 C 90.864 296.500, 92.984 293.488, 95 289.396 C 98.836 281.610, 100.965 278.424, 108.188 269.663 C 110.835 266.452, 113 263.189, 113 262.413 C 113 259.390, 109.323 261.269, 103.442 267.297 M 219.042 280.750 C 219.066 281.712, 220.775 285.508, 222.840 289.184 C 225.438 293.807, 226.984 295.628, 227.856 295.089 C 229.487 294.081, 228.530 289.972, 225.214 283.750 C 222.644 278.929, 218.955 277.136, 219.042 280.750 M 53.356 293.729 C 46.274 309.744, 41.493 333.485, 42.224 349.010 C 42.675 358.579, 44.129 363.453, 46.318 362.732 C 47.014 362.502, 47.594 359.906, 47.727 356.421 C 48.602 333.645, 52.768 310.095, 58.024 298.214 C 60.410 292.820, 60.549 289.425, 58.418 288.607 C 56.003 287.680, 56.055 287.627, 53.356 293.729 M 614.373 310.470 C 614.022 311.385, 615.943 317.220, 618.789 323.888 C 621.560 330.378, 624.392 337.576, 625.084 339.884 C 625.962 342.817, 626.817 343.982, 627.920 343.752 C 629.060 343.514, 629.425 342.458, 629.230 339.961 C 628.894 335.660, 623.725 320.034, 620.642 314 C 618.237 309.294, 615.431 307.714, 614.373 310.470 M 788.794 312.053 C 779.402 312.888, 778 313.343, 778 315.559 C 778 317.312, 782.671 317.410, 798.659 315.995 C 811.086 314.895, 813 314.414, 813 312.393 C 813 310.817, 804.103 310.692, 788.794 312.053 M 690.667 318.667 C 688.989 320.344, 690.356 326.639, 694.358 335.668 C 699.471 347.202, 704.573 360.257, 705.627 364.500 C 706.254 367.024, 706.560 366.199, 707.558 359.298 C 708.210 354.787, 709.621 349.322, 710.694 347.154 L 712.644 343.213 709.742 339.356 C 708.146 337.235, 706.393 335.624, 705.846 335.775 C 705.299 335.926, 705.148 335.569, 705.511 334.982 C 706.221 333.833, 702.903 329.068, 696.646 322.250 C 692.704 317.955, 691.875 317.458, 690.667 318.667 M 234 335.364 C 234 339.076, 235.730 349.063, 236.507 349.840 C 238.248 351.582, 238.830 341.766, 237.401 334.750 C 236.583 330.733, 234 331.199, 234 335.364 M 777.250 344.408 C 766.120 349.884, 766 349.980, 766 353.436 C 766 357.540, 768.684 359.535, 772.843 358.525 C 776.458 357.647, 792.083 350.131, 794.250 348.227 C 797.695 345.201, 796.155 340.374, 791.450 339.451 C 789.166 339.003, 785.960 340.123, 777.250 344.408 M 871.104 340.896 C 868.640 343.360, 868.390 346.249, 870.489 347.991 C 871.308 348.671, 871.688 349.695, 871.334 350.268 C 870.962 350.871, 871.175 351.010, 871.840 350.599 C 872.472 350.209, 876.749 351.939, 881.346 354.445 C 885.942 356.950, 890.825 359, 892.196 359 C 897.258 359, 899.938 352.471, 896.006 349.717 C 894.910 348.949, 894.347 347.951, 894.756 347.500 C 895.165 347.049, 894.988 346.972, 894.363 347.329 C 893.738 347.686, 890.138 346.192, 886.363 344.010 C 877.421 338.840, 873.882 338.118, 871.104 340.896 M 719.258 368.750 C 719.754 372.462, 720.198 376.063, 720.246 376.750 C 720.372 378.561, 721.677 378.283, 722.445 376.282 C 723.146 374.456, 720.168 362, 719.030 362 C 718.660 362, 718.763 365.038, 719.258 368.750 M 768.666 374.734 C 762.182 376.895, 754.753 383.766, 751.300 390.797 C 748.900 395.685, 748.500 397.714, 748.500 405 C 748.500 414.859, 750.448 419.697, 757.235 426.692 C 762.941 432.572, 769.758 435.355, 778.581 435.405 C 784.711 435.439, 786.589 434.979, 792.581 431.972 C 808.794 423.836, 814.596 405.278, 805.979 389.112 C 804.158 385.695, 801.387 381.988, 799.822 380.873 C 798.257 379.759, 797.230 378.437, 797.540 377.935 C 797.850 377.433, 797.332 377.319, 796.388 377.681 C 795.132 378.164, 794.891 377.985, 795.490 377.015 C 796.007 376.180, 795.920 375.931, 795.256 376.342 C 794.676 376.700, 792.244 376.104, 789.851 375.018 C 784.501 372.591, 775.463 372.469, 768.666 374.734 M 724.843 394.750 C 723.969 396.262, 723.429 398.400, 723.642 399.500 C 723.855 400.600, 724.480 415, 725.031 431.500 C 725.581 448, 726.189 462.400, 726.380 463.500 C 726.571 464.600, 726.789 448.962, 726.864 428.750 C 726.939 408.538, 726.872 392, 726.716 392 C 726.559 392, 725.716 393.238, 724.843 394.750 M 205.051 395.949 C 202.465 398.535, 202.439 401.182, 204.976 403.479 C 206.063 404.462, 206.669 405.727, 206.322 406.288 C 205.947 406.895, 206.189 407.001, 206.921 406.549 C 207.689 406.074, 211.878 408.650, 218.054 413.394 C 223.500 417.577, 228.541 421, 229.255 421 C 231.763 421, 235 417.881, 235 415.465 C 235 412.897, 226.479 405.078, 216.500 398.489 C 209.565 393.910, 207.539 393.461, 205.051 395.949 M 104.862 398.671 C 88.210 410.072, 85.027 413.314, 86.952 416.910 C 87.554 418.034, 88.973 419.450, 90.106 420.057 C 92.429 421.300, 92.490 421.265, 108.103 409.500 C 113.213 405.650, 117.689 402.590, 118.049 402.701 C 118.985 402.987, 117.923 397.742, 116.743 396.250 C 114.953 393.986, 110.330 394.928, 104.862 398.671 M 822.500 427.812 C 803.495 436.723, 794.097 480.383, 807.243 498.688 C 811.854 505.109, 817.559 508.164, 826.080 508.774 C 832.359 509.223, 833.608 508.975, 839.365 506.141 C 846.325 502.715, 849.802 498.677, 852.939 490.378 C 855.526 483.533, 857.350 467.995, 856.557 459.556 C 855.164 444.727, 851.304 435.745, 843.694 429.622 C 840.441 427.005, 838.913 426.514, 833.194 426.248 C 828.233 426.017, 825.464 426.422, 822.500 427.812 M 202.500 431.903 C 197.523 434.216, 191.592 440.313, 189.549 445.218 C 187.376 450.433, 187.560 461.458, 189.903 466.500 C 192.216 471.477, 198.313 477.408, 203.218 479.451 C 205.291 480.315, 209.840 481, 213.500 481 C 221.377 481, 226.167 479.178, 231.369 474.201 C 236.927 468.885, 238.956 463.883, 238.956 455.500 C 238.956 450.778, 238.351 447.198, 237.097 444.500 C 234.784 439.523, 228.687 433.592, 223.782 431.549 C 218.567 429.376, 207.542 429.560, 202.500 431.903 M 98.290 433.086 C 93.391 435.511, 87.411 441.771, 85.403 446.578 C 83.258 451.711, 83.595 462.533, 86.058 467.621 C 88.437 472.534, 94.725 478.569, 99.578 480.597 C 104.711 482.742, 115.533 482.405, 120.621 479.942 C 125.534 477.563, 131.569 471.275, 133.597 466.422 C 135.742 461.289, 135.405 450.467, 132.942 445.379 C 130.563 440.466, 124.275 434.431, 119.422 432.403 C 114.246 430.240, 103.325 430.593, 98.290 433.086 M 65.670 437.750 C 63.759 440.913, 60.717 446.512, 58.911 450.194 C 57.104 453.875, 55.191 456.618, 54.659 456.289 C 54.126 455.960, 54.010 456.207, 54.399 456.837 C 54.789 457.467, 53.453 462.118, 51.431 467.172 C 43.046 488.129, 38.757 514.575, 40.815 532.621 C 43.509 556.240, 54.320 575.420, 82.301 606.218 C 91.011 615.805, 93.149 617.080, 96.072 614.435 C 99.820 611.043, 97.663 606.437, 87.919 597.027 C 85.532 594.721, 74.814 582.007, 71.664 577.744 C 70.138 575.678, 69.209 573.471, 69.599 572.840 C 70.034 572.137, 69.868 571.963, 69.173 572.393 C 66.565 574.005, 55.443 552.473, 51.921 538.993 C 47.760 523.069, 49.215 498.706, 55.653 476.500 C 58.417 466.965, 65.358 449.175, 69.510 440.980 C 74.506 431.122, 71.304 428.428, 65.670 437.750 M 824.500 437.812 C 820.022 440.681, 816.674 444.663, 817.550 446.080 C 818.036 446.868, 817.895 447.053, 817.155 446.595 C 816.520 446.203, 816 446.359, 816 446.941 C 816 448.453, 818.331 448.265, 826.932 446.060 C 831.094 444.993, 836.188 443.847, 838.250 443.515 C 842.808 442.779, 842.947 441.811, 838.909 438.935 C 834.598 435.866, 828.304 435.375, 824.500 437.812 M 254.573 448.882 C 253.627 450.412, 259.534 463.476, 261.328 463.823 C 263.890 464.319, 263.464 458.850, 260.483 452.967 C 258.144 448.351, 255.872 446.780, 254.573 448.882 M 416.335 456.183 C 417.003 464.853, 417.818 466.668, 420.569 465.612 C 422.056 465.041, 422.184 463.985, 421.577 457.288 C 420.775 448.435, 420.598 448, 417.793 448 C 415.793 448, 415.730 448.349, 416.335 456.183 M 478.070 451.452 C 475.633 452.246, 473.201 452.624, 472.665 452.293 C 472.129 451.962, 471.979 452.157, 472.331 452.727 C 472.683 453.296, 471.389 454.828, 469.456 456.131 C 459.193 463.046, 455.335 478.798, 461.025 490.552 C 465.916 500.656, 474.703 506, 486.423 506 C 502.783 506, 514.709 494.672, 514.924 478.928 C 515.028 471.272, 512.620 464.906, 507.438 459.142 C 505.030 456.464, 503.384 453.915, 503.780 453.476 C 504.176 453.038, 503.951 452.995, 503.279 453.381 C 502.608 453.766, 500.730 453.395, 499.106 452.555 C 494.756 450.305, 483.417 449.711, 478.070 451.452 M 536.554 461.993 C 532.413 464.117, 530.788 465.848, 531.640 467.227 C 531.920 467.679, 531.561 467.926, 530.843 467.775 C 528.183 467.215, 525.494 475.014, 525.593 483 C 525.708 492.303, 528.378 499.645, 534.709 508.066 C 539.855 514.912, 549.259 522.576, 551.110 521.432 C 551.832 520.986, 552.048 521.114, 551.652 521.754 C 551.065 522.703, 560.204 529.408, 566.992 533.008 C 568.363 533.735, 572.144 536.265, 575.394 538.630 C 578.645 540.995, 581.697 542.687, 582.177 542.391 C 582.657 542.094, 582.926 542.274, 582.775 542.790 C 582.624 543.307, 586.438 547.825, 591.250 552.830 C 596.063 557.835, 600 561.701, 600 561.420 C 600 558.994, 591.227 526.964, 587.970 517.500 C 573.699 476.031, 552.920 453.599, 536.554 461.993 M 263.708 473.435 C 262.866 474.276, 262.343 475.760, 262.545 476.732 C 262.747 477.705, 263.573 481.650, 264.379 485.500 C 270.416 514.308, 268.313 536.522, 257.444 558.788 C 253.938 565.971, 251.526 569.825, 250.812 569.384 C 250.130 568.962, 249.970 569.142, 250.403 569.843 C 251.490 571.602, 240.858 585.101, 228.250 597.969 C 217.153 609.296, 215.486 612.086, 218.200 614.800 C 221.447 618.047, 224.257 616.268, 238.098 602.198 C 258.632 581.324, 269.415 563.876, 274.564 543.190 C 278.724 526.478, 277.484 502.946, 271.412 483.354 C 268.518 474.018, 266.160 470.982, 263.708 473.435 M 149.184 482.562 C 142.404 484.387, 136.539 487.835, 131.587 492.908 C 129.436 495.113, 127.229 496.641, 126.683 496.304 C 126.128 495.961, 126.004 496.197, 126.401 496.840 C 126.791 497.471, 125.970 499.484, 124.576 501.311 C 121.038 505.950, 114.565 520.240, 112.487 528 C 109.953 537.461, 109.328 561.409, 111.385 570.211 C 114.503 583.554, 120.435 591.946, 128.264 594.091 C 131.976 595.108, 133.922 594.898, 144 592.399 C 158.432 588.819, 165.965 588.839, 179.917 592.490 C 192.647 595.822, 195.849 595.250, 201.707 588.596 C 216.132 572.208, 214.537 528.566, 198.620 504.124 C 193.854 496.805, 185.258 488.219, 179.942 485.469 C 171.345 481.022, 159.181 479.872, 149.184 482.562 M 819.758 483.267 C 814.692 484.936, 811.882 487.496, 812.673 489.722 C 815.243 496.960, 826.303 501.012, 834.282 497.640 C 838.271 495.954, 843 491.293, 843 489.048 C 843 484.424, 827.754 480.633, 819.758 483.267 M 416.198 487.750 C 413.039 491.098, 408.656 499.400, 402.073 514.500 C 398.897 521.788, 391.550 533.989, 388.028 537.825 C 386.349 539.654, 385.275 541.636, 385.642 542.230 C 386.023 542.846, 385.845 543.022, 385.227 542.640 C 383.532 541.593, 378.551 546.388, 379.302 548.344 C 380.292 550.926, 386.322 553.387, 389.625 552.558 C 397.107 550.680, 415.573 526.150, 424.112 506.745 C 428.999 495.640, 430.099 488.872, 427.486 485.985 C 424.562 482.753, 420.281 483.423, 416.198 487.750 M 151.500 493.399 C 149.300 494.095, 146.150 495.381, 144.500 496.258 C 140.153 498.568, 133.864 505.054, 134.213 506.867 C 135.023 511.074, 152.403 517.571, 155.645 514.879 C 156.633 514.060, 157 510.807, 157 502.878 C 157 496.895, 156.662 492.030, 156.250 492.067 C 155.838 492.104, 153.700 492.703, 151.500 493.399 M 165 502.809 C 165 515.965, 165.573 516.738, 174.090 515.062 C 181.267 513.650, 184.654 512.145, 187.344 509.173 C 189.149 507.177, 189.097 507.059, 184.413 502.571 C 179.245 497.619, 170.988 493, 167.304 493 C 165.055 493, 165 493.236, 165 502.809 M 620.400 502.750 C 620.763 505.363, 621.334 512.799, 621.668 519.276 C 622.003 525.754, 622.715 531.324, 623.250 531.655 C 625.089 532.791, 625.969 529.487, 625.985 521.386 C 625.998 514.542, 625.570 510.901, 623.648 501.500 C 623.280 499.699, 621.903 498, 620.811 498 C 620.107 498, 619.966 499.629, 620.400 502.750 M 702.582 501.250 C 702.332 502.488, 701.881 505.975, 701.581 509 C 699.374 531.262, 685.853 561.224, 665.384 589.210 C 660.083 596.457, 656.520 602.203, 657.102 602.563 C 658.053 603.151, 666.247 595.417, 672.003 588.499 C 680.428 578.375, 693.812 554.443, 700.438 537.655 C 703.431 530.072, 708 509.102, 708 502.949 C 708 499.411, 707.741 499, 705.519 499 C 703.748 499, 702.908 499.644, 702.582 501.250 M 661.171 527.750 C 660.581 529.263, 658.890 535.225, 657.414 541 C 654.381 552.862, 650.886 562.248, 644.435 575.852 C 641.996 580.995, 640 585.382, 640 585.602 C 640 586.818, 644.937 585.727, 646.313 584.207 C 648.536 581.750, 655.266 567.114, 658.363 558 C 661.863 547.699, 666 531.390, 666 527.891 C 666 523.997, 662.671 523.900, 661.171 527.750 M 421.385 537.438 C 421.011 538.413, 421.261 543.551, 421.941 548.855 C 422.621 554.160, 423.585 561.942, 424.083 566.150 C 425.467 577.832, 426.414 581.500, 428.045 581.500 C 429.855 581.500, 429.801 579.632, 427.583 565.500 C 426.634 559.450, 425.460 550.718, 424.974 546.096 C 424.073 537.519, 422.661 534.113, 421.385 537.438 M 556.086 550.250 C 553.561 571.397, 546.110 603.697, 539.419 622.500 C 534.842 635.363, 527.951 647.801, 521.555 654.742 C 518.225 658.357, 515.500 661.786, 515.500 662.363 C 515.500 664.395, 524.309 666.134, 532.641 665.748 C 539.423 665.433, 541.846 664.824, 547.153 662.102 C 555.906 657.613, 564.549 651.612, 564.262 650.223 C 564.131 649.590, 564.582 649.286, 565.263 649.547 C 567.158 650.275, 579.195 638.871, 585.838 630.055 C 594.937 617.979, 600.226 605.367, 601.979 591.564 C 602.942 583.979, 602.570 582.744, 596.695 574 C 589.200 562.846, 572.163 546.163, 569.775 547.639 C 569.126 548.040, 568.979 547.843, 569.409 547.147 C 569.824 546.476, 569.361 545.693, 568.313 545.291 C 567.316 544.909, 564.975 543.563, 563.110 542.298 C 561.246 541.034, 559.178 540, 558.515 540 C 557.732 540, 556.880 543.594, 556.086 550.250 M 785.502 542.344 C 784.402 543.165, 783.830 544.163, 784.230 544.563 C 784.629 544.963, 792.135 546.205, 800.910 547.324 C 814.385 549.042, 817.117 549.148, 818.495 548.004 C 819.963 546.786, 819.970 546.563, 818.567 545.778 C 816.381 544.554, 803.917 542.299, 795 541.513 C 789.128 540.996, 787.066 541.176, 785.502 542.344 M 155.829 564.079 C 147.842 565.247, 137.969 570.014, 132.030 575.569 C 127.228 580.060, 127.053 580.401, 128.638 582.153 C 130.813 584.555, 133.889 584.483, 143.020 581.813 C 153.916 578.628, 169.369 578.673, 181.685 581.926 C 189.307 583.940, 191.136 584.132, 192.435 583.054 C 194.875 581.029, 194.340 579.504, 189.609 574.996 C 183.906 569.560, 180.275 567.409, 173.792 565.622 C 166.035 563.484, 162.168 563.152, 155.829 564.079 M 432.667 603.667 C 431.644 604.689, 431.874 613.285, 433.082 619.201 C 435.142 629.287, 439.767 640.960, 444.194 647.243 C 445.257 648.752, 445.801 650.552, 445.403 651.243 C 445.005 651.934, 445.052 652.162, 445.509 651.748 C 445.965 651.334, 447.172 651.751, 448.192 652.674 C 449.592 653.941, 450.330 654.070, 451.200 653.200 C 452.069 652.331, 451.287 649.928, 448.009 643.404 C 445.621 638.649, 443.667 634.138, 443.667 633.380 C 443.667 632.621, 443.350 632, 442.963 632 C 442.190 632, 436.521 612.742, 435.530 606.750 C 434.934 603.148, 434.092 602.241, 432.667 603.667 M 572.515 621.250 C 570.430 625.237, 567.246 630.818, 565.438 633.651 C 561.116 640.425, 550 652.146, 545.704 654.460 C 543.830 655.469, 541.776 657.129, 541.140 658.147 C 540.114 659.791, 540.310 660, 542.882 660 C 546.971 660, 556.434 652.745, 563.875 643.906 C 570.398 636.156, 580.530 617.823, 579.611 615.430 C 578.449 612.400, 576.161 614.276, 572.515 621.250 M 114.314 638.750 C 113.972 639.712, 113.464 640.950, 113.185 641.500 C 112.907 642.050, 113.008 642.206, 113.409 641.847 C 113.810 641.489, 116.019 643.235, 118.318 645.729 C 128.401 656.668, 140.535 662.004, 157.045 662.758 C 165.747 663.156, 169.066 662.857, 176.038 661.050 C 187.922 657.970, 197.051 652.718, 194.667 650.333 C 194.347 650.014, 191.099 650.949, 187.449 652.410 C 163.019 662.190, 139.991 658.760, 123.451 642.878 C 116.980 636.664, 115.323 635.915, 114.314 638.750 M 528.187 652.695 C 528.425 654.684, 529.365 655.609, 532.106 656.554 C 534.090 657.237, 536.293 657.437, 537.002 656.999 C 539.254 655.607, 537.309 653.293, 532.515 651.660 L 527.875 650.079 528.187 652.695 M 444 672.154 C 442.625 672.720, 439.475 673.538, 437 673.973 C 433.600 674.571, 435.555 674.783, 445 674.840 L 457.500 674.916 454 673 C 450.077 670.852, 447.665 670.648, 444 672.154 M 502 672 C 500.887 672.720, 501.481 672.973, 504.309 672.985 C 506.597 672.994, 507.871 672.601, 507.500 672 C 506.719 670.736, 503.956 670.736, 502 672 M 586 677.116 C 545.423 679.785, 491.370 682.167, 451.821 683.029 C 386.887 684.443, 355 686.930, 355 690.579 C 355 692.249, 355.619 692.269, 367.758 690.990 C 385.476 689.123, 408.768 688.026, 452 687.020 C 496.261 685.991, 513.630 685.268, 570.500 682.089 C 588.100 681.106, 613.030 680.218, 625.899 680.117 C 638.769 680.016, 649.682 679.697, 650.149 679.408 C 650.617 679.119, 651 678.234, 651 677.441 C 651 676.219, 647.007 676.022, 624.750 676.147 C 610.313 676.227, 592.875 676.663, 586 677.116 M 867.459 683.067 C 867.096 683.653, 867.032 684.366, 867.316 684.650 C 868.024 685.357, 909.945 685.152, 911.104 684.436 C 914.074 682.600, 908.752 682, 889.500 682 C 875.435 682, 867.892 682.365, 867.459 683.067 M 101.500 686.640 C 98.200 686.869, 85.825 687.684, 74 688.451 C 62.175 689.218, 51.712 690.154, 50.750 690.530 C 49.788 690.906, 49 691.898, 49 692.735 C 49 693.957, 49.811 694.126, 53.132 693.595 C 67.010 691.376, 150.911 690.359, 182.676 692.025 C 193.224 692.578, 214.824 693.211, 230.676 693.430 C 246.529 693.650, 266.588 694.161, 275.250 694.566 C 288.949 695.206, 291 695.106, 291 693.794 C 291 691.534, 283.451 690.960, 240 689.914 C 218.825 689.405, 192.050 688.574, 180.500 688.068 C 153.853 686.901, 109.338 686.097, 101.500 686.640 M 555.500 688.020 C 537.900 689.001, 512.025 690.512, 498 691.376 C 483.975 692.240, 458.100 693.421, 440.500 694 C 395.189 695.490, 373.230 697.370, 370.618 699.982 C 368.691 701.909, 373.267 702.207, 387.764 701.096 C 395.869 700.476, 417.350 699.296, 435.500 698.475 C 453.650 697.654, 476.375 696.532, 486 695.982 C 522.027 693.921, 581.857 690.948, 591.727 690.728 C 599.180 690.562, 602.097 690.136, 602.480 689.160 C 602.770 688.423, 602.794 687.476, 602.535 687.057 C 601.792 685.855, 589.971 686.097, 555.500 688.020 M 295.750 692.796 C 291.919 693.128, 290.836 694.339, 293.468 695.349 C 294.275 695.659, 295.203 695.481, 295.529 694.953 C 295.856 694.425, 297.220 694.268, 298.561 694.605 C 299.986 694.962, 301 694.780, 301 694.167 C 301 692.681, 300.020 692.425, 295.750 692.796 M 92.210 695.047 C 66 696.097, 56 697.357, 56 699.611 C 56 701.255, 55.845 701.251, 77 700.021 C 86.075 699.493, 112.584 698.825, 135.910 698.537 C 159.235 698.249, 178.548 697.786, 178.826 697.507 C 180.094 696.239, 177.180 695.724, 164.307 694.940 C 148.239 693.960, 118.242 694.005, 92.210 695.047 M 182.621 696.804 C 182.262 697.386, 182.457 698.164, 183.055 698.534 C 184.612 699.496, 249.819 701.515, 250.705 700.628 C 251.981 699.353, 248.927 698.222, 242.604 697.630 C 229.205 696.374, 183.278 695.742, 182.621 696.804" stroke="none"  fill-rule="evenodd"/></svg>