<svg xmlns="http://www.w3.org/2000/svg" xmlns:xlink="http://www.w3.org/1999/xlink" version="1.1" style="shape-rendering:geometricPrecision; text-rendering:geometricPrecision; image-rendering:optimizeQuality; fill-rule:evenodd; clip-rule:evenodd" viewBox="126.82 109.26 420.91 339.54">
<g><path style="opacity:0.995"  d="M 509.5,126.5 C 510.5,129.5 512.5,131.5 515.5,132.5C 516.5,132.833 517.167,133.5 517.5,134.5C 518.757,137.427 520.757,139.761 523.5,141.5C 529.324,147.135 533.657,153.802 536.5,161.5C 536.402,163.553 537.069,165.22 538.5,166.5C 539.931,167.78 540.598,169.447 540.5,171.5C 540.402,173.553 541.069,175.22 542.5,176.5C 553.178,208.957 547.511,238.124 525.5,264C 520.714,267.991 515.38,269.158 509.5,267.5C 507.819,265.992 505.819,264.992 503.5,264.5C 496.091,257.845 494.924,250.179 500,241.5C 509.295,231.968 514.128,220.468 514.5,207C 513.681,197.558 511.681,188.391 508.5,179.5C 508.416,176.318 507.083,173.985 504.5,172.5C 502.5,169.167 500.5,165.833 498.5,162.5C 495.833,157.833 492.167,154.167 487.5,151.5C 487.027,150.094 486.027,149.427 484.5,149.5C 473.904,142.915 462.57,141.248 450.5,144.5C 447.318,144.584 444.985,145.917 443.5,148.5C 441.167,149.833 438.833,151.167 436.5,152.5C 434.5,152.5 433.5,153.5 433.5,155.5C 417.626,171.537 405.459,190.203 397,211.5C 382.295,249.652 371.962,288.986 366,329.5C 360.616,365.01 356.616,400.677 354,436.5C 349.927,446.788 342.427,450.621 331.5,448C 327,446.167 323.833,443 322,438.5C 318.207,391.822 311.874,345.489 303,299.5C 296.433,267.554 286.933,236.554 274.5,206.5C 273.756,202.003 271.756,198.336 268.5,195.5C 263.668,186.499 258.335,177.832 252.5,169.5C 252.167,167.167 250.833,165.833 248.5,165.5C 245.833,162.5 243.167,159.5 240.5,156.5C 239.738,154.738 238.404,153.738 236.5,153.5C 234.205,152.525 232.205,151.192 230.5,149.5C 228.421,147.127 225.754,145.794 222.5,145.5C 213.718,142.741 205.051,143.074 196.5,146.5C 193.966,146.259 192.3,147.259 191.5,149.5C 182.45,154.884 175.45,162.217 170.5,171.5C 167.917,172.985 166.584,175.318 166.5,178.5C 156.843,201.073 158.843,222.406 172.5,242.5C 172.66,244.153 173.326,245.486 174.5,246.5C 176.141,251.736 175.474,256.736 172.5,261.5C 170.167,261.833 168.833,263.167 168.5,265.5C 162.39,269.434 156.39,269.434 150.5,265.5C 149.089,263.086 147.089,261.419 144.5,260.5C 127.719,236.825 122.886,210.825 130,182.5C 131.641,175.396 134.141,168.73 137.5,162.5C 139.588,160.664 140.921,158.331 141.5,155.5C 144.366,148.431 148.7,142.431 154.5,137.5C 157.167,135.5 159.5,133.167 161.5,130.5C 179.837,113.327 201.504,107.16 226.5,112C 238.48,115.155 249.147,120.655 258.5,128.5C 259.167,131.167 260.833,132.833 263.5,133.5C 266.167,135.5 268.5,137.833 270.5,140.5C 271.419,143.089 273.086,145.089 275.5,146.5C 286.748,159.309 295.748,173.642 302.5,189.5C 302.402,191.553 303.069,193.22 304.5,194.5C 307.961,200.43 310.627,206.764 312.5,213.5C 312.402,215.553 313.069,217.22 314.5,218.5C 324.154,244.436 331.654,271.102 337,298.5C 342.036,276.355 347.703,254.355 354,232.5C 357.979,219.712 362.812,207.378 368.5,195.5C 369.931,194.22 370.598,192.553 370.5,190.5C 377.413,172.983 387.079,157.316 399.5,143.5C 404.833,138.833 409.833,133.833 414.5,128.5C 435.078,110.015 458.744,104.848 485.5,113C 494.305,116.232 502.305,120.732 509.5,126.5 Z"/></g>
<g><path style="opacity:0.412"  d="M 509.5,126.5 C 511.833,128.167 513.833,130.167 515.5,132.5C 512.5,131.5 510.5,129.5 509.5,126.5 Z"/></g>
<g><path style="opacity:0.412"  d="M 258.5,128.5 C 260.5,129.833 262.167,131.5 263.5,133.5C 260.833,132.833 259.167,131.167 258.5,128.5 Z"/></g>
<g><path style="opacity:0.514"  d="M 414.5,128.5 C 409.833,133.833 404.833,138.833 399.5,143.5C 403.5,137.5 408.5,132.5 414.5,128.5 Z"/></g>
<g><path style="opacity:0.514"  d="M 161.5,130.5 C 159.5,133.167 157.167,135.5 154.5,137.5C 155.833,134.167 158.167,131.833 161.5,130.5 Z"/></g>
<g><path style="opacity:0.514"  d="M 517.5,134.5 C 520.243,136.239 522.243,138.573 523.5,141.5C 520.757,139.761 518.757,137.427 517.5,134.5 Z"/></g>
<g><path style="opacity:0.514"  d="M 270.5,140.5 C 272.914,141.911 274.581,143.911 275.5,146.5C 273.086,145.089 271.419,143.089 270.5,140.5 Z"/></g>
<g><path style="opacity:0.514"  d="M 196.5,146.5 C 195.035,147.737 193.368,148.737 191.5,149.5C 192.3,147.259 193.966,146.259 196.5,146.5 Z"/></g>
<g><path style="opacity:0.514"  d="M 450.5,144.5 C 448.365,146.071 446.032,147.404 443.5,148.5C 444.985,145.917 447.318,144.584 450.5,144.5 Z"/></g>
<g><path style="opacity:0.514"  d="M 222.5,145.5 C 225.754,145.794 228.421,147.127 230.5,149.5C 227.515,148.674 224.849,147.341 222.5,145.5 Z"/></g>
<g><path style="opacity:0.514"  d="M 484.5,149.5 C 486.027,149.427 487.027,150.094 487.5,151.5C 485.973,151.573 484.973,150.906 484.5,149.5 Z"/></g>
<g><path style="opacity:0.514"  d="M 487.5,151.5 C 492.167,154.167 495.833,157.833 498.5,162.5C 494.5,159.167 490.833,155.5 487.5,151.5 Z"/></g>
<g><path style="opacity:0.514"  d="M 236.5,153.5 C 238.404,153.738 239.738,154.738 240.5,156.5C 238.596,156.262 237.262,155.262 236.5,153.5 Z"/></g>
<g><path style="opacity:0.325"  d="M 436.5,152.5 C 435.833,153.833 434.833,154.833 433.5,155.5C 433.5,153.5 434.5,152.5 436.5,152.5 Z"/></g>
<g><path style="opacity:0.514"  d="M 141.5,155.5 C 140.921,158.331 139.588,160.664 137.5,162.5C 138.079,159.669 139.412,157.336 141.5,155.5 Z"/></g>
<g><path style="opacity:0.514"  d="M 536.5,161.5 C 537.931,162.78 538.598,164.447 538.5,166.5C 537.069,165.22 536.402,163.553 536.5,161.5 Z"/></g>
<g><path style="opacity:0.514"  d="M 248.5,165.5 C 250.833,165.833 252.167,167.167 252.5,169.5C 250.833,168.5 249.5,167.167 248.5,165.5 Z"/></g>
<g><path style="opacity:0.412"  d="M 540.5,171.5 C 541.931,172.78 542.598,174.447 542.5,176.5C 541.069,175.22 540.402,173.553 540.5,171.5 Z"/></g>
<g><path style="opacity:0.514"  d="M 170.5,171.5 C 169.404,174.032 168.071,176.365 166.5,178.5C 166.584,175.318 167.917,172.985 170.5,171.5 Z"/></g>
<g><path style="opacity:0.506"  d="M 504.5,172.5 C 507.083,173.985 508.416,176.318 508.5,179.5C 506.929,177.365 505.596,175.032 504.5,172.5 Z"/></g>
<g><path style="opacity:0.514"  d="M 302.5,189.5 C 303.931,190.78 304.598,192.447 304.5,194.5C 303.069,193.22 302.402,191.553 302.5,189.5 Z"/></g>
<g><path style="opacity:0.514"  d="M 370.5,190.5 C 370.598,192.553 369.931,194.22 368.5,195.5C 368.402,193.447 369.069,191.78 370.5,190.5 Z"/></g>
<g><path style="opacity:0.514"  d="M 268.5,195.5 C 271.756,198.336 273.756,202.003 274.5,206.5C 272.262,203.028 270.262,199.362 268.5,195.5 Z"/></g>
<g><path style="opacity:0.412"  d="M 312.5,213.5 C 313.931,214.78 314.598,216.447 314.5,218.5C 313.069,217.22 312.402,215.553 312.5,213.5 Z"/></g>
<g><path style="opacity:0.412"  d="M 172.5,242.5 C 174.104,243.287 174.771,244.62 174.5,246.5C 173.326,245.486 172.66,244.153 172.5,242.5 Z"/></g>
<g><path style="opacity:0.514"  d="M 144.5,260.5 C 147.089,261.419 149.089,263.086 150.5,265.5C 147.911,264.581 145.911,262.914 144.5,260.5 Z"/></g>
<g><path style="opacity:0.412"  d="M 172.5,261.5 C 171.5,263.167 170.167,264.5 168.5,265.5C 168.833,263.167 170.167,261.833 172.5,261.5 Z"/></g>
<g><path style="opacity:0.514"  d="M 503.5,264.5 C 505.819,264.992 507.819,265.992 509.5,267.5C 506.911,267.539 504.911,266.539 503.5,264.5 Z"/></g>
</svg>