<svg xmlns="http://www.w3.org/2000/svg" xmlns:xlink="http://www.w3.org/1999/xlink" version="1.1" style="shape-rendering:geometricPrecision; text-rendering:geometricPrecision; image-rendering:optimizeQuality; fill-rule:evenodd; clip-rule:evenodd" viewBox="162.19 166.21 350.41 308.54">
<g><path style="opacity:0.995"  d="M 438.5,191.5 C 439.035,193.446 440.368,194.446 442.5,194.5C 455.247,200.912 466.914,208.912 477.5,218.5C 478.5,221.5 480.5,223.5 483.5,224.5C 485.167,225.833 486.833,227.167 488.5,228.5C 489.419,231.089 491.086,233.089 493.5,234.5C 495.167,235.5 496.5,236.833 497.5,238.5C 498.08,240.749 499.413,242.415 501.5,243.5C 506.439,249.466 506.772,255.799 502.5,262.5C 499.833,263.167 498.167,264.833 497.5,267.5C 493.057,269.466 488.39,269.966 483.5,269C 481.68,268.8 480.347,267.966 479.5,266.5C 477.431,263.427 474.764,261.094 471.5,259.5C 468.833,256.5 466.167,253.5 463.5,250.5C 461.1,247.097 458.1,244.43 454.5,242.5C 451.891,241.557 449.891,239.89 448.5,237.5C 448.027,236.094 447.027,235.427 445.5,235.5C 435.965,229.235 426.298,223.235 416.5,217.5C 415.22,216.069 413.553,215.402 411.5,215.5C 368.372,197.24 324.372,194.907 279.5,208.5C 277.102,208.259 275.102,208.926 273.5,210.5C 263.861,214.151 254.528,218.651 245.5,224C 251.401,225.687 257.067,227.854 262.5,230.5C 264.181,232.008 266.181,233.008 268.5,233.5C 274.687,236.353 280.021,240.353 284.5,245.5C 285.419,248.089 287.086,250.089 289.5,251.5C 291.9,253.296 293.567,255.63 294.5,258.5C 295.659,262.151 297.326,265.485 299.5,268.5C 307.882,290.593 305.549,311.593 292.5,331.5C 290.5,331.5 289.5,332.5 289.5,334.5C 289.672,335.492 289.338,336.158 288.5,336.5C 284.5,338.5 281.5,341.5 279.5,345.5C 256.352,363.113 231.352,366.447 204.5,355.5C 202.819,353.992 200.819,352.992 198.5,352.5C 195.296,351.617 192.629,349.95 190.5,347.5C 189.415,345.413 187.749,344.08 185.5,343.5C 167.057,327.019 159.557,306.352 163,281.5C 164.968,272.761 167.801,264.427 171.5,256.5C 172.931,255.22 173.598,253.553 173.5,251.5C 176.841,244.143 181.174,237.476 186.5,231.5C 188.587,230.415 189.92,228.749 190.5,226.5C 190.833,225.5 191.5,224.833 192.5,224.5C 196.167,221.5 199.5,218.167 202.5,214.5C 202.5,213.833 202.833,213.5 203.5,213.5C 206.089,212.581 208.089,210.914 209.5,208.5C 220.828,198.827 233.495,191.16 247.5,185.5C 249.553,185.598 251.22,184.931 252.5,183.5C 284.975,169.519 318.975,164.019 354.5,167C 384.261,169.272 412.261,177.439 438.5,191.5 Z M 249.5,260.5 C 250.514,261.674 251.847,262.34 253.5,262.5C 254.29,263.401 255.29,264.068 256.5,264.5C 259.167,267.833 262.167,270.833 265.5,273.5C 265.5,273.833 265.5,274.167 265.5,274.5C 266.263,276.368 267.263,278.035 268.5,279.5C 272.629,291.41 271.296,302.743 264.5,313.5C 261.5,315.833 258.833,318.5 256.5,321.5C 244.169,329.056 231.169,330.389 217.5,325.5C 216.71,324.599 215.71,323.932 214.5,323.5C 195.547,311.265 191.047,294.932 201,274.5C 213.761,258.431 229.928,253.765 249.5,260.5 Z"/></g>
<g><path style="opacity:0.514"  d="M 252.5,183.5 C 251.22,184.931 249.553,185.598 247.5,185.5C 248.78,184.069 250.447,183.402 252.5,183.5 Z"/></g>
<g><path style="opacity:0.514"  d="M 438.5,191.5 C 440.23,192.026 441.564,193.026 442.5,194.5C 440.368,194.446 439.035,193.446 438.5,191.5 Z"/></g>
<g><path style="opacity:0.514"  d="M 279.5,208.5 C 277.786,209.738 275.786,210.405 273.5,210.5C 275.102,208.926 277.102,208.259 279.5,208.5 Z"/></g>
<g><path style="opacity:0.514"  d="M 209.5,208.5 C 208.089,210.914 206.089,212.581 203.5,213.5C 204.911,211.086 206.911,209.419 209.5,208.5 Z"/></g>
<g><path style="opacity:0.514"  d="M 411.5,215.5 C 413.553,215.402 415.22,216.069 416.5,217.5C 414.447,217.598 412.78,216.931 411.5,215.5 Z"/></g>
<g><path style="opacity:0.514"  d="M 202.5,214.5 C 199.5,218.167 196.167,221.5 192.5,224.5C 194.833,220.167 198.167,216.833 202.5,214.5 Z"/></g>
<g><path style="opacity:0.412"  d="M 477.5,218.5 C 479.833,220.167 481.833,222.167 483.5,224.5C 480.5,223.5 478.5,221.5 477.5,218.5 Z"/></g>
<g><path style="opacity:0.506"  d="M 190.5,226.5 C 189.92,228.749 188.587,230.415 186.5,231.5C 187.08,229.251 188.413,227.585 190.5,226.5 Z"/></g>
<g><path style="opacity:0.514"  d="M 488.5,228.5 C 490.914,229.911 492.581,231.911 493.5,234.5C 491.086,233.089 489.419,231.089 488.5,228.5 Z"/></g>
<g><path style="opacity:0.514"  d="M 262.5,230.5 C 265.089,230.461 267.089,231.461 268.5,233.5C 266.181,233.008 264.181,232.008 262.5,230.5 Z"/></g>
<g><path style="opacity:0.514"  d="M 445.5,235.5 C 447.027,235.427 448.027,236.094 448.5,237.5C 446.973,237.573 445.973,236.906 445.5,235.5 Z"/></g>
<g><path style="opacity:0.514"  d="M 497.5,238.5 C 499.587,239.585 500.92,241.251 501.5,243.5C 499.413,242.415 498.08,240.749 497.5,238.5 Z"/></g>
<g><path style="opacity:0.506"  d="M 454.5,242.5 C 458.1,244.43 461.1,247.097 463.5,250.5C 459.9,248.57 456.9,245.903 454.5,242.5 Z"/></g>
<g><path style="opacity:0.514"  d="M 284.5,245.5 C 286.914,246.911 288.581,248.911 289.5,251.5C 287.086,250.089 285.419,248.089 284.5,245.5 Z"/></g>
<g><path style="opacity:0.412"  d="M 173.5,251.5 C 173.598,253.553 172.931,255.22 171.5,256.5C 171.402,254.447 172.069,252.78 173.5,251.5 Z"/></g>
<g><path style="opacity:0.514"  d="M 249.5,260.5 C 251.38,260.229 252.713,260.896 253.5,262.5C 251.847,262.34 250.514,261.674 249.5,260.5 Z"/></g>
<g><path style="opacity:0.514"  d="M 294.5,258.5 C 297.207,261.247 298.873,264.58 299.5,268.5C 297.326,265.485 295.659,262.151 294.5,258.5 Z"/></g>
<g><path style="opacity:0.514"  d="M 256.5,264.5 C 260.5,266.5 263.5,269.5 265.5,273.5C 262.167,270.833 259.167,267.833 256.5,264.5 Z"/></g>
<g><path style="opacity:0.412"  d="M 471.5,259.5 C 474.764,261.094 477.431,263.427 479.5,266.5C 476.236,264.906 473.569,262.573 471.5,259.5 Z"/></g>
<g><path style="opacity:0.412"  d="M 502.5,262.5 C 501.167,264.5 499.5,266.167 497.5,267.5C 498.167,264.833 499.833,263.167 502.5,262.5 Z"/></g>
<g><path style="opacity:0.514"  d="M 265.5,274.5 C 267.741,275.3 268.741,276.966 268.5,279.5C 267.263,278.035 266.263,276.368 265.5,274.5 Z"/></g>
<g><path style="opacity:0.994"  d="M 486.5,294.5 C 489.436,299.105 493.102,303.105 497.5,306.5C 500.277,308.951 502.277,311.951 503.5,315.5C 504.326,318.485 505.659,321.151 507.5,323.5C 512.054,334.293 513.554,345.626 512,357.5C 508.846,374.128 502.679,389.461 493.5,403.5C 491.5,403.5 490.5,404.5 490.5,406.5C 474.539,427.989 454.206,443.989 429.5,454.5C 427.447,454.402 425.78,455.069 424.5,456.5C 424.158,457.338 423.492,457.672 422.5,457.5C 420.447,457.402 418.78,458.069 417.5,459.5C 376.685,475.346 334.685,478.846 291.5,470C 279.354,467.229 267.688,463.395 256.5,458.5C 255.22,457.069 253.553,456.402 251.5,456.5C 247.849,455.341 244.515,453.674 241.5,451.5C 240.486,450.326 239.153,449.66 237.5,449.5C 226.086,444.402 215.752,437.735 206.5,429.5C 205.738,427.738 204.404,426.738 202.5,426.5C 201.833,426.5 201.5,426.167 201.5,425.5C 200.089,423.086 198.089,421.419 195.5,420.5C 194.5,420.167 193.833,419.5 193.5,418.5C 188.443,412.441 182.776,407.107 176.5,402.5C 171.751,398.667 169.418,393.667 169.5,387.5C 170.612,385.401 171.279,383.067 171.5,380.5C 175.807,372.521 182.474,369.688 191.5,372C 193.193,372.847 194.86,373.68 196.5,374.5C 196.738,376.404 197.738,377.738 199.5,378.5C 200.167,378.5 200.5,378.833 200.5,379.5C 204.167,385.167 208.833,389.833 214.5,393.5C 217.681,395.592 220.681,397.925 223.5,400.5C 223.833,402.833 225.167,404.167 227.5,404.5C 233.816,408.473 240.149,412.473 246.5,416.5C 247.035,418.446 248.368,419.446 250.5,419.5C 303.905,446.386 358.238,448.386 413.5,425.5C 416.241,425.293 418.574,424.293 420.5,422.5C 423.102,420.19 426.102,418.357 429.5,417C 425.009,415.637 420.676,414.137 416.5,412.5C 415.22,411.069 413.553,410.402 411.5,410.5C 404.459,407.985 398.459,403.985 393.5,398.5C 392.089,396.086 390.089,394.419 387.5,393.5C 369.968,372.317 365.802,348.651 375,322.5C 391.25,290.293 417.416,276.126 453.5,280C 465.756,282.132 476.756,286.965 486.5,294.5 Z M 464.5,319.5 C 466.833,322.5 469.5,325.167 472.5,327.5C 478.828,337.462 480.494,348.128 477.5,359.5C 475.659,361.849 474.326,364.515 473.5,367.5C 471.413,368.585 470.08,370.251 469.5,372.5C 468.833,372.5 468.5,372.833 468.5,373.5C 466.251,374.08 464.585,375.413 463.5,377.5C 462.508,377.328 461.842,377.662 461.5,378.5C 459.847,378.66 458.514,379.326 457.5,380.5C 439.582,386.812 424.082,383.145 411,369.5C 399.138,350.148 401.972,333.314 419.5,319C 434.622,310.301 449.622,310.467 464.5,319.5 Z"/></g>
<g><path style="opacity:0.412"  d="M 486.5,294.5 C 490.898,297.895 494.564,301.895 497.5,306.5C 493.102,303.105 489.436,299.105 486.5,294.5 Z"/></g>
<g><path style="opacity:0.514"  d="M 264.5,313.5 C 262.833,317.167 260.167,319.833 256.5,321.5C 258.833,318.5 261.5,315.833 264.5,313.5 Z"/></g>
<g><path style="opacity:0.514"  d="M 503.5,315.5 C 505.873,317.579 507.206,320.246 507.5,323.5C 505.659,321.151 504.326,318.485 503.5,315.5 Z"/></g>
<g><path style="opacity:0.514"  d="M 464.5,319.5 C 468.167,321.167 470.833,323.833 472.5,327.5C 469.5,325.167 466.833,322.5 464.5,319.5 Z"/></g>
<g><path style="opacity:0.514"  d="M 214.5,323.5 C 215.71,323.932 216.71,324.599 217.5,325.5C 215.821,325.715 214.821,325.048 214.5,323.5 Z"/></g>
<g><path style="opacity:0.325"  d="M 292.5,331.5 C 291.833,332.833 290.833,333.833 289.5,334.5C 289.5,332.5 290.5,331.5 292.5,331.5 Z"/></g>
<g><path style="opacity:0.412"  d="M 288.5,336.5 C 285.833,339.833 282.833,342.833 279.5,345.5C 281.5,341.5 284.5,338.5 288.5,336.5 Z"/></g>
<g><path style="opacity:0.514"  d="M 185.5,343.5 C 187.749,344.08 189.415,345.413 190.5,347.5C 188.251,346.92 186.585,345.587 185.5,343.5 Z"/></g>
<g><path style="opacity:0.514"  d="M 198.5,352.5 C 200.819,352.992 202.819,353.992 204.5,355.5C 201.911,355.539 199.911,354.539 198.5,352.5 Z"/></g>
<g><path style="opacity:0.514"  d="M 477.5,359.5 C 477.206,362.754 475.873,365.421 473.5,367.5C 474.326,364.515 475.659,361.849 477.5,359.5 Z"/></g>
<g><path style="opacity:0.514"  d="M 473.5,367.5 C 472.92,369.749 471.587,371.415 469.5,372.5C 470.08,370.251 471.413,368.585 473.5,367.5 Z"/></g>
<g><path style="opacity:0.514"  d="M 196.5,374.5 C 198.262,375.262 199.262,376.596 199.5,378.5C 197.738,377.738 196.738,376.404 196.5,374.5 Z"/></g>
<g><path style="opacity:0.514"  d="M 468.5,373.5 C 467.415,375.587 465.749,376.92 463.5,377.5C 464.585,375.413 466.251,374.08 468.5,373.5 Z"/></g>
<g><path style="opacity:0.514"  d="M 200.5,379.5 C 205.5,383.833 210.167,388.5 214.5,393.5C 208.833,389.833 204.167,385.167 200.5,379.5 Z"/></g>
<g><path style="opacity:0.514"  d="M 461.5,378.5 C 460.713,380.104 459.38,380.771 457.5,380.5C 458.514,379.326 459.847,378.66 461.5,378.5 Z"/></g>
<g><path style="opacity:0.231"  d="M 171.5,380.5 C 171.279,383.067 170.612,385.401 169.5,387.5C 169.171,384.772 169.837,382.438 171.5,380.5 Z"/></g>
<g><path style="opacity:0.506"  d="M 387.5,393.5 C 390.089,394.419 392.089,396.086 393.5,398.5C 390.911,397.581 388.911,395.914 387.5,393.5 Z"/></g>
<g><path style="opacity:0.514"  d="M 223.5,400.5 C 225.167,401.5 226.5,402.833 227.5,404.5C 225.167,404.167 223.833,402.833 223.5,400.5 Z"/></g>
<g><path style="opacity:0.514"  d="M 176.5,402.5 C 182.776,407.107 188.443,412.441 193.5,418.5C 187.224,413.893 181.557,408.559 176.5,402.5 Z"/></g>
<g><path style="opacity:0.325"  d="M 493.5,403.5 C 492.833,404.833 491.833,405.833 490.5,406.5C 490.5,404.5 491.5,403.5 493.5,403.5 Z"/></g>
<g><path style="opacity:0.412"  d="M 411.5,410.5 C 413.553,410.402 415.22,411.069 416.5,412.5C 414.447,412.598 412.78,411.931 411.5,410.5 Z"/></g>
<g><path style="opacity:0.514"  d="M 246.5,416.5 C 248.23,417.026 249.564,418.026 250.5,419.5C 248.368,419.446 247.035,418.446 246.5,416.5 Z"/></g>
<g><path style="opacity:0.514"  d="M 195.5,420.5 C 198.089,421.419 200.089,423.086 201.5,425.5C 198.911,424.581 196.911,422.914 195.5,420.5 Z"/></g>
<g><path style="opacity:0.514"  d="M 420.5,422.5 C 418.574,424.293 416.241,425.293 413.5,425.5C 415.426,423.707 417.759,422.707 420.5,422.5 Z"/></g>
<g><path style="opacity:0.514"  d="M 202.5,426.5 C 204.404,426.738 205.738,427.738 206.5,429.5C 204.596,429.262 203.262,428.262 202.5,426.5 Z"/></g>
<g><path style="opacity:0.4"  d="M 237.5,449.5 C 239.153,449.66 240.486,450.326 241.5,451.5C 239.62,451.771 238.287,451.104 237.5,449.5 Z"/></g>
<g><path style="opacity:0.514"  d="M 429.5,454.5 C 428.22,455.931 426.553,456.598 424.5,456.5C 425.78,455.069 427.447,454.402 429.5,454.5 Z"/></g>
<g><path style="opacity:0.412"  d="M 251.5,456.5 C 253.553,456.402 255.22,457.069 256.5,458.5C 254.447,458.598 252.78,457.931 251.5,456.5 Z"/></g>
<g><path style="opacity:0.514"  d="M 422.5,457.5 C 421.22,458.931 419.553,459.598 417.5,459.5C 418.78,458.069 420.447,457.402 422.5,457.5 Z"/></g>
</svg>