<svg xmlns="http://www.w3.org/2000/svg" xmlns:xlink="http://www.w3.org/1999/xlink" version="1.1" style="shape-rendering:geometricPrecision; text-rendering:geometricPrecision; image-rendering:optimizeQuality; fill-rule:evenodd; clip-rule:evenodd" viewBox="99.52 160.17 475.79 353.31">
<g><path style="opacity:0.995"  d="M 195.5,186.5 C 195.427,188.027 196.094,189.027 197.5,189.5C 202.907,198.531 207.074,208.197 210,218.5C 212.923,230.45 215.59,242.45 218,254.5C 220.565,241.975 224.399,229.975 229.5,218.5C 230.931,217.22 231.598,215.553 231.5,213.5C 235.42,203.311 241.086,194.311 248.5,186.5C 251.833,183.833 254.833,180.833 257.5,177.5C 269.843,165.997 284.51,161.164 301.5,163C 306.577,163.595 311.244,165.095 315.5,167.5C 317.181,169.008 319.181,170.008 321.5,170.5C 323.969,171.569 326.302,172.902 328.5,174.5C 330.766,178.436 333.766,181.769 337.5,184.5C 345.231,192.964 350.064,202.964 352,214.5C 355.667,208.5 359.333,202.5 363,196.5C 364.719,193.712 366.885,191.379 369.5,189.5C 372.5,187.167 375.167,184.5 377.5,181.5C 392.236,167.71 409.569,163.21 429.5,168C 435.252,169.711 440.586,172.211 445.5,175.5C 445.5,177.5 446.5,178.5 448.5,178.5C 448.833,178.5 449.167,178.5 449.5,178.5C 451.43,182.1 454.097,185.1 457.5,187.5C 466.136,197.114 471.302,208.447 473,221.5C 473.109,244.868 472.109,268.201 470,291.5C 469.333,311.833 469.333,332.167 470,352.5C 470.799,371.267 473.966,389.6 479.5,407.5C 479.402,409.553 480.069,411.22 481.5,412.5C 483.008,414.181 484.008,416.181 484.5,418.5C 484.845,421.198 486.178,423.198 488.5,424.5C 490.5,428.5 493.5,431.5 497.5,433.5C 497.833,433.5 498.167,433.5 498.5,433.5C 499.985,436.083 502.318,437.416 505.5,437.5C 510.066,438.807 514.733,439.474 519.5,439.5C 520.919,440.451 522.585,440.784 524.5,440.5C 524.649,439.448 524.483,438.448 524,437.5C 519.574,432.566 514.74,428.233 509.5,424.5C 503.12,412.426 506.12,403.593 518.5,398C 523.592,396.913 528.259,397.746 532.5,400.5C 539.11,408.779 546.444,416.445 554.5,423.5C 557.833,426.167 560.833,429.167 563.5,432.5C 565.766,436.436 568.766,439.769 572.5,442.5C 572.66,444.153 573.326,445.486 574.5,446.5C 575.958,451.221 575.458,455.887 573,460.5C 558.284,477.427 543.451,494.261 528.5,511C 522.245,514.473 516.245,514.306 510.5,510.5C 509.415,508.413 507.749,507.08 505.5,506.5C 502.689,501.998 502.022,497.331 503.5,492.5C 505.008,490.819 506.008,488.819 506.5,486.5C 506.833,485.5 507.5,484.833 508.5,484.5C 510.914,483.089 512.581,481.089 513.5,478.5C 513.5,477.833 513.833,477.5 514.5,477.5C 516.727,476.599 517.727,474.933 517.5,472.5C 516.5,472.5 515.5,472.5 514.5,472.5C 506.665,472.534 499.332,470.867 492.5,467.5C 489.485,465.326 486.151,463.659 482.5,462.5C 480.147,461.66 478.147,460.326 476.5,458.5C 472.773,453.77 468.44,449.77 463.5,446.5C 449.537,426.79 441.37,404.79 439,380.5C 436.692,361.404 435.525,342.238 435.5,323C 436.015,293.27 437.682,263.603 440.5,234C 440.523,221.882 436.19,211.715 427.5,203.5C 426.089,201.461 424.089,200.461 421.5,200.5C 413.287,198.736 405.954,200.57 399.5,206C 391.475,213.872 385.309,223.039 381,233.5C 376.659,244.189 373.326,255.189 371,266.5C 362.763,313.922 354.096,361.256 345,408.5C 339.941,416.783 332.775,419.616 323.5,417C 322.058,416.623 321.058,415.79 320.5,414.5C 319.738,412.738 318.404,411.738 316.5,411.5C 316.5,411.167 316.5,410.833 316.5,410.5C 315.736,407.982 314.736,405.649 313.5,403.5C 315.348,345.307 317.682,287.14 320.5,229C 319.896,220.396 317.229,212.563 312.5,205.5C 311.833,202.833 310.167,201.167 307.5,200.5C 297.431,194.778 287.764,195.445 278.5,202.5C 275.833,203.167 274.167,204.833 273.5,207.5C 262.225,223.798 254.725,241.798 251,261.5C 242.683,308.245 234.183,354.912 225.5,401.5C 223.992,403.181 222.992,405.181 222.5,407.5C 218.31,413.289 212.643,415.456 205.5,414C 202.975,413.576 200.975,412.41 199.5,410.5C 199.027,409.094 198.027,408.427 196.5,408.5C 194.535,406.232 193.368,403.565 193,400.5C 191.936,358.426 189.603,316.426 186,274.5C 184.085,254.004 179.918,234.004 173.5,214.5C 173.416,211.318 172.083,208.985 169.5,207.5C 167.167,204.167 164.833,200.833 162.5,197.5C 162.027,196.094 161.027,195.427 159.5,195.5C 156.607,194.426 153.607,193.76 150.5,193.5C 144.999,194.224 139.665,195.557 134.5,197.5C 131.318,197.584 128.985,198.917 127.5,201.5C 122.579,205.038 117.245,206.038 111.5,204.5C 110.486,203.326 109.153,202.66 107.5,202.5C 106.089,200.086 104.089,198.419 101.5,197.5C 99.5344,193.057 99.0344,188.39 100,183.5C 100.2,181.68 101.034,180.347 102.5,179.5C 104.5,178.167 106.167,176.5 107.5,174.5C 110.24,172.44 113.24,170.774 116.5,169.5C 118.553,169.598 120.22,168.931 121.5,167.5C 121.842,166.662 122.508,166.328 123.5,166.5C 125.553,166.598 127.22,165.931 128.5,164.5C 153.448,155.362 174.614,160.695 192,180.5C 193.421,182.405 194.588,184.405 195.5,186.5 Z"/></g>
<g><path style="opacity:0.514"  d="M 128.5,164.5 C 127.22,165.931 125.553,166.598 123.5,166.5C 124.78,165.069 126.447,164.402 128.5,164.5 Z"/></g>
<g><path style="opacity:0.514"  d="M 121.5,167.5 C 120.22,168.931 118.553,169.598 116.5,169.5C 117.78,168.069 119.447,167.402 121.5,167.5 Z"/></g>
<g><path style="opacity:0.506"  d="M 315.5,167.5 C 318.089,167.461 320.089,168.461 321.5,170.5C 319.181,170.008 317.181,169.008 315.5,167.5 Z"/></g>
<g><path style="opacity:0.514"  d="M 107.5,174.5 C 106.167,176.5 104.5,178.167 102.5,179.5C 103.167,176.833 104.833,175.167 107.5,174.5 Z"/></g>
<g><path style="opacity:0.412"  d="M 445.5,175.5 C 446.833,176.167 447.833,177.167 448.5,178.5C 446.5,178.5 445.5,177.5 445.5,175.5 Z"/></g>
<g><path style="opacity:0.412"  d="M 328.5,174.5 C 332.234,177.231 335.234,180.564 337.5,184.5C 333.766,181.769 330.766,178.436 328.5,174.5 Z"/></g>
<g><path style="opacity:0.514"  d="M 449.5,178.5 C 452.903,180.9 455.57,183.9 457.5,187.5C 454.097,185.1 451.43,182.1 449.5,178.5 Z"/></g>
<g><path style="opacity:0.506"  d="M 257.5,177.5 C 254.833,180.833 251.833,183.833 248.5,186.5C 250.5,182.5 253.5,179.5 257.5,177.5 Z"/></g>
<g><path style="opacity:0.514"  d="M 377.5,181.5 C 375.167,184.5 372.5,187.167 369.5,189.5C 371.167,185.833 373.833,183.167 377.5,181.5 Z"/></g>
<g><path style="opacity:0.514"  d="M 195.5,186.5 C 196.906,186.973 197.573,187.973 197.5,189.5C 196.094,189.027 195.427,188.027 195.5,186.5 Z"/></g>
<g><path style="opacity:0.514"  d="M 159.5,195.5 C 161.027,195.427 162.027,196.094 162.5,197.5C 160.973,197.573 159.973,196.906 159.5,195.5 Z"/></g>
<g><path style="opacity:0.412"  d="M 101.5,197.5 C 104.089,198.419 106.089,200.086 107.5,202.5C 104.911,201.581 102.911,199.914 101.5,197.5 Z"/></g>
<g><path style="opacity:0.514"  d="M 134.5,197.5 C 132.365,199.071 130.032,200.404 127.5,201.5C 128.985,198.917 131.318,197.584 134.5,197.5 Z"/></g>
<g><path style="opacity:0.514"  d="M 307.5,200.5 C 310.167,201.167 311.833,202.833 312.5,205.5C 310.5,204.167 308.833,202.5 307.5,200.5 Z"/></g>
<g><path style="opacity:0.514"  d="M 421.5,200.5 C 424.089,200.461 426.089,201.461 427.5,203.5C 425.181,203.008 423.181,202.008 421.5,200.5 Z"/></g>
<g><path style="opacity:0.412"  d="M 107.5,202.5 C 109.153,202.66 110.486,203.326 111.5,204.5C 109.62,204.771 108.287,204.104 107.5,202.5 Z"/></g>
<g><path style="opacity:0.412"  d="M 278.5,202.5 C 277.167,204.5 275.5,206.167 273.5,207.5C 274.167,204.833 275.833,203.167 278.5,202.5 Z"/></g>
<g><path style="opacity:0.514"  d="M 169.5,207.5 C 172.083,208.985 173.416,211.318 173.5,214.5C 171.929,212.365 170.596,210.032 169.5,207.5 Z"/></g>
<g><path style="opacity:0.412"  d="M 231.5,213.5 C 231.598,215.553 230.931,217.22 229.5,218.5C 229.402,216.447 230.069,214.78 231.5,213.5 Z"/></g>
<g><path style="opacity:0.514"  d="M 532.5,400.5 C 540.556,407.555 547.89,415.221 554.5,423.5C 546.444,416.445 539.11,408.779 532.5,400.5 Z"/></g>
<g><path style="opacity:0.514"  d="M 225.5,401.5 C 225.539,404.089 224.539,406.089 222.5,407.5C 222.992,405.181 223.992,403.181 225.5,401.5 Z"/></g>
<g><path style="opacity:0.514"  d="M 313.5,403.5 C 314.736,405.649 315.736,407.982 316.5,410.5C 314.166,408.824 313.166,406.491 313.5,403.5 Z"/></g>
<g><path style="opacity:0.514"  d="M 196.5,408.5 C 198.027,408.427 199.027,409.094 199.5,410.5C 197.973,410.573 196.973,409.906 196.5,408.5 Z"/></g>
<g><path style="opacity:0.412"  d="M 479.5,407.5 C 480.931,408.78 481.598,410.447 481.5,412.5C 480.069,411.22 479.402,409.553 479.5,407.5 Z"/></g>
<g><path style="opacity:0.514"  d="M 316.5,411.5 C 318.404,411.738 319.738,412.738 320.5,414.5C 318.596,414.262 317.262,413.262 316.5,411.5 Z"/></g>
<g><path style="opacity:0.506"  d="M 484.5,418.5 C 486.326,420.147 487.66,422.147 488.5,424.5C 486.178,423.198 484.845,421.198 484.5,418.5 Z"/></g>
<g><path style="opacity:0.514"  d="M 488.5,424.5 C 491.833,427.167 494.833,430.167 497.5,433.5C 493.5,431.5 490.5,428.5 488.5,424.5 Z"/></g>
<g><path style="opacity:0.412"  d="M 509.5,424.5 C 514.74,428.233 519.574,432.566 524,437.5C 524.483,438.448 524.649,439.448 524.5,440.5C 522.585,440.784 520.919,440.451 519.5,439.5C 520.873,439.657 522.207,439.49 523.5,439C 518.63,434.298 513.963,429.465 509.5,424.5 Z"/></g>
<g><path style="opacity:0.514"  d="M 563.5,432.5 C 567.234,435.231 570.234,438.564 572.5,442.5C 568.766,439.769 565.766,436.436 563.5,432.5 Z"/></g>
<g><path style="opacity:0.514"  d="M 498.5,433.5 C 501.032,434.596 503.365,435.929 505.5,437.5C 502.318,437.416 499.985,436.083 498.5,433.5 Z"/></g>
<g><path style="opacity:0.412"  d="M 572.5,442.5 C 574.104,443.287 574.771,444.62 574.5,446.5C 573.326,445.486 572.66,444.153 572.5,442.5 Z"/></g>
<g><path style="opacity:0.412"  d="M 463.5,446.5 C 468.44,449.77 472.773,453.77 476.5,458.5C 471.56,455.23 467.227,451.23 463.5,446.5 Z"/></g>
<g><path style="opacity:0.506"  d="M 482.5,462.5 C 486.151,463.659 489.485,465.326 492.5,467.5C 488.58,466.873 485.247,465.207 482.5,462.5 Z"/></g>
<g><path style="opacity:0.514"  d="M 514.5,472.5 C 515.5,472.5 516.5,472.5 517.5,472.5C 517.727,474.933 516.727,476.599 514.5,477.5C 514.511,475.983 515.177,474.816 516.5,474C 515.584,473.722 514.918,473.222 514.5,472.5 Z"/></g>
<g><path style="opacity:0.514"  d="M 513.5,478.5 C 512.581,481.089 510.914,483.089 508.5,484.5C 509.419,481.911 511.086,479.911 513.5,478.5 Z"/></g>
<g><path style="opacity:0.506"  d="M 506.5,486.5 C 506.008,488.819 505.008,490.819 503.5,492.5C 503.461,489.911 504.461,487.911 506.5,486.5 Z"/></g>
<g><path style="opacity:0.514"  d="M 505.5,506.5 C 507.749,507.08 509.415,508.413 510.5,510.5C 508.251,509.92 506.585,508.587 505.5,506.5 Z"/></g>
</svg>