<svg xmlns="http://www.w3.org/2000/svg" xmlns:xlink="http://www.w3.org/1999/xlink" version="1.1" style="shape-rendering:geometricPrecision; text-rendering:geometricPrecision; image-rendering:optimizeQuality; fill-rule:evenodd; clip-rule:evenodd" viewBox="147.71 108.93 319.84 340.57">
<g><path style="opacity:0.995"  d="M 208.5,122.5 C 210.766,126.436 213.766,129.769 217.5,132.5C 218.167,132.5 218.5,132.833 218.5,133.5C 218.738,135.404 219.738,136.738 221.5,137.5C 231.82,153.464 242.153,169.464 252.5,185.5C 254.5,189.5 257.5,192.5 261.5,194.5C 279.082,205.999 298.415,210.166 319.5,207C 327.082,206.082 334.416,204.249 341.5,201.5C 344.089,201.539 346.089,200.539 347.5,198.5C 350.796,196.179 354.129,193.846 357.5,191.5C 361.167,189.833 363.833,187.167 365.5,183.5C 376.429,167.301 387.096,150.968 397.5,134.5C 399.587,133.415 400.92,131.749 401.5,129.5C 401.5,128.833 401.833,128.5 402.5,128.5C 405.167,126.5 407.5,124.167 409.5,121.5C 411.296,119.1 413.63,117.433 416.5,116.5C 418.819,116.008 420.819,115.008 422.5,113.5C 433.494,108.748 444.828,108.248 456.5,112C 464.343,115.181 468.009,121.014 467.5,129.5C 466.262,131.214 465.595,133.214 465.5,135.5C 465.5,135.833 465.5,136.167 465.5,136.5C 462.833,137.167 461.167,138.833 460.5,141.5C 454.395,144.826 447.895,145.492 441,143.5C 437.642,143.423 434.475,144.089 431.5,145.5C 428.5,146.5 426.5,148.5 425.5,151.5C 414.685,170.457 402.851,188.79 390,206.5C 386.258,210.747 382.092,214.414 377.5,217.5C 375.5,217.5 374.5,218.5 374.5,220.5C 372.073,222.558 369.407,224.391 366.5,226C 373.214,230.018 379.547,234.518 385.5,239.5C 389.105,244.774 393.438,249.441 398.5,253.5C 399.167,253.5 399.5,253.833 399.5,254.5C 399.738,256.404 400.738,257.738 402.5,258.5C 406.494,262.479 409.494,267.145 411.5,272.5C 412.659,276.151 414.326,279.485 416.5,282.5C 423.712,297.386 427.045,313.219 426.5,330C 427.087,347.577 423.421,364.077 415.5,379.5C 413.659,381.849 412.326,384.515 411.5,387.5C 403.855,402.463 393.189,414.796 379.5,424.5C 377.5,424.5 376.5,425.5 376.5,427.5C 370.795,431.353 364.795,434.686 358.5,437.5C 356.447,437.402 354.78,438.069 353.5,439.5C 322.833,452.833 292.167,452.833 261.5,439.5C 260.22,438.069 258.553,437.402 256.5,437.5C 251.5,435.336 246.833,432.669 242.5,429.5C 242.027,428.094 241.027,427.427 239.5,427.5C 235.242,425.207 231.576,422.207 228.5,418.5C 225.769,414.766 222.436,411.766 218.5,409.5C 213.697,404.37 209.697,398.703 206.5,392.5C 206.446,390.368 205.446,389.035 203.5,388.5C 186.266,355.765 183.932,322.098 196.5,287.5C 197.931,286.22 198.598,284.553 198.5,282.5C 202.927,270.627 209.594,260.294 218.5,251.5C 222.5,248.167 226.167,244.5 229.5,240.5C 229.5,239.833 229.833,239.5 230.5,239.5C 232.749,238.92 234.415,237.587 235.5,235.5C 239.411,231.866 243.744,228.699 248.5,226C 246.907,225.051 245.574,223.885 244.5,222.5C 243.738,220.738 242.404,219.738 240.5,219.5C 239.833,219.5 239.5,219.167 239.5,218.5C 236.105,214.102 232.105,210.436 227.5,207.5C 222.854,202.218 218.688,196.552 215,190.5C 208.074,178.307 200.907,166.307 193.5,154.5C 191.833,150.833 189.167,148.167 185.5,146.5C 177.23,143.101 168.564,141.601 159.5,142C 157.68,141.8 156.347,140.966 155.5,139.5C 154.167,137.5 152.5,135.833 150.5,134.5C 144.985,123.875 147.651,115.708 158.5,110C 177.118,106.753 193.785,110.919 208.5,122.5 Z M 358.5,260.5 C 359.262,262.262 360.596,263.262 362.5,263.5C 362.5,264.167 362.833,264.5 363.5,264.5C 366.5,268.167 369.833,271.5 373.5,274.5C 400.708,312.691 400.042,350.357 371.5,387.5C 368.833,389.5 366.5,391.833 364.5,394.5C 359.796,397.846 355.129,401.179 350.5,404.5C 346.849,405.659 343.515,407.326 340.5,409.5C 316.079,418.258 292.079,417.258 268.5,406.5C 267.71,405.599 266.71,404.932 265.5,404.5C 257.26,399.263 249.593,393.263 242.5,386.5C 242.262,384.596 241.262,383.262 239.5,382.5C 234.712,375.921 230.712,368.921 227.5,361.5C 227.598,359.447 226.931,357.78 225.5,356.5C 217.138,325.308 223.138,297.308 243.5,272.5C 246.167,270.5 248.5,268.167 250.5,265.5C 256.19,261.468 261.857,257.468 267.5,253.5C 270.241,253.293 272.574,252.293 274.5,250.5C 304.286,239.786 332.286,243.119 358.5,260.5 Z"/></g>
<g><path style="opacity:0.514"  d="M 422.5,113.5 C 420.819,115.008 418.819,116.008 416.5,116.5C 417.911,114.461 419.911,113.461 422.5,113.5 Z"/></g>
<g><path style="opacity:0.506"  d="M 208.5,122.5 C 212.234,125.231 215.234,128.564 217.5,132.5C 213.766,129.769 210.766,126.436 208.5,122.5 Z"/></g>
<g><path style="opacity:0.514"  d="M 409.5,121.5 C 407.5,124.167 405.167,126.5 402.5,128.5C 403.833,125.167 406.167,122.833 409.5,121.5 Z"/></g>
<g><path style="opacity:0.514"  d="M 467.5,129.5 C 467.741,131.898 467.074,133.898 465.5,135.5C 465.595,133.214 466.262,131.214 467.5,129.5 Z"/></g>
<g><path style="opacity:0.514"  d="M 401.5,129.5 C 400.92,131.749 399.587,133.415 397.5,134.5C 398.08,132.251 399.413,130.585 401.5,129.5 Z"/></g>
<g><path style="opacity:0.514"  d="M 218.5,133.5 C 220.262,134.262 221.262,135.596 221.5,137.5C 219.738,136.738 218.738,135.404 218.5,133.5 Z"/></g>
<g><path style="opacity:0.412"  d="M 150.5,134.5 C 152.5,135.833 154.167,137.5 155.5,139.5C 152.833,138.833 151.167,137.167 150.5,134.5 Z"/></g>
<g><path style="opacity:0.412"  d="M 465.5,136.5 C 464.167,138.5 462.5,140.167 460.5,141.5C 461.167,138.833 462.833,137.167 465.5,136.5 Z"/></g>
<g><path style="opacity:0.514"  d="M 185.5,146.5 C 189.167,148.167 191.833,150.833 193.5,154.5C 190.5,152.167 187.833,149.5 185.5,146.5 Z"/></g>
<g><path style="opacity:0.412"  d="M 431.5,145.5 C 429.833,147.833 427.833,149.833 425.5,151.5C 426.5,148.5 428.5,146.5 431.5,145.5 Z"/></g>
<g><path style="opacity:0.514"  d="M 252.5,185.5 C 255.833,188.167 258.833,191.167 261.5,194.5C 257.5,192.5 254.5,189.5 252.5,185.5 Z"/></g>
<g><path style="opacity:0.514"  d="M 365.5,183.5 C 363.833,187.167 361.167,189.833 357.5,191.5C 359.833,188.5 362.5,185.833 365.5,183.5 Z"/></g>
<g><path style="opacity:0.514"  d="M 347.5,198.5 C 346.089,200.539 344.089,201.539 341.5,201.5C 343.181,199.992 345.181,198.992 347.5,198.5 Z"/></g>
<g><path style="opacity:0.514"  d="M 227.5,207.5 C 232.105,210.436 236.105,214.102 239.5,218.5C 234.895,215.564 230.895,211.898 227.5,207.5 Z"/></g>
<g><path style="opacity:0.325"  d="M 377.5,217.5 C 376.833,218.833 375.833,219.833 374.5,220.5C 374.5,218.5 375.5,217.5 377.5,217.5 Z"/></g>
<g><path style="opacity:0.514"  d="M 240.5,219.5 C 242.404,219.738 243.738,220.738 244.5,222.5C 242.596,222.262 241.262,221.262 240.5,219.5 Z"/></g>
<g><path style="opacity:0.514"  d="M 235.5,235.5 C 234.415,237.587 232.749,238.92 230.5,239.5C 231.585,237.413 233.251,236.08 235.5,235.5 Z"/></g>
<g><path style="opacity:0.514"  d="M 229.5,240.5 C 226.167,244.5 222.5,248.167 218.5,251.5C 221.167,246.833 224.833,243.167 229.5,240.5 Z"/></g>
<g><path style="opacity:0.412"  d="M 385.5,239.5 C 390.562,243.559 394.895,248.226 398.5,253.5C 393.438,249.441 389.105,244.774 385.5,239.5 Z"/></g>
<g><path style="opacity:0.514"  d="M 274.5,250.5 C 272.574,252.293 270.241,253.293 267.5,253.5C 269.426,251.707 271.759,250.707 274.5,250.5 Z"/></g>
<g><path style="opacity:0.514"  d="M 399.5,254.5 C 401.262,255.262 402.262,256.596 402.5,258.5C 400.738,257.738 399.738,256.404 399.5,254.5 Z"/></g>
<g><path style="opacity:0.514"  d="M 358.5,260.5 C 360.404,260.738 361.738,261.738 362.5,263.5C 360.596,263.262 359.262,262.262 358.5,260.5 Z"/></g>
<g><path style="opacity:0.514"  d="M 363.5,264.5 C 367.833,266.833 371.167,270.167 373.5,274.5C 369.833,271.5 366.5,268.167 363.5,264.5 Z"/></g>
<g><path style="opacity:0.412"  d="M 250.5,265.5 C 248.5,268.167 246.167,270.5 243.5,272.5C 244.833,269.167 247.167,266.833 250.5,265.5 Z"/></g>
<g><path style="opacity:0.506"  d="M 411.5,272.5 C 414.207,275.247 415.873,278.58 416.5,282.5C 414.326,279.485 412.659,276.151 411.5,272.5 Z"/></g>
<g><path style="opacity:0.412"  d="M 198.5,282.5 C 198.598,284.553 197.931,286.22 196.5,287.5C 196.402,285.447 197.069,283.78 198.5,282.5 Z"/></g>
<g><path style="opacity:0.412"  d="M 225.5,356.5 C 226.931,357.78 227.598,359.447 227.5,361.5C 226.069,360.22 225.402,358.553 225.5,356.5 Z"/></g>
<g><path style="opacity:0.514"  d="M 239.5,382.5 C 241.262,383.262 242.262,384.596 242.5,386.5C 240.738,385.738 239.738,384.404 239.5,382.5 Z"/></g>
<g><path style="opacity:0.514"  d="M 415.5,379.5 C 415.206,382.754 413.873,385.421 411.5,387.5C 412.326,384.515 413.659,381.849 415.5,379.5 Z"/></g>
<g><path style="opacity:0.514"  d="M 203.5,388.5 C 205.446,389.035 206.446,390.368 206.5,392.5C 205.026,391.564 204.026,390.23 203.5,388.5 Z"/></g>
<g><path style="opacity:0.514"  d="M 371.5,387.5 C 370.167,390.833 367.833,393.167 364.5,394.5C 366.5,391.833 368.833,389.5 371.5,387.5 Z"/></g>
<g><path style="opacity:0.514"  d="M 265.5,404.5 C 266.71,404.932 267.71,405.599 268.5,406.5C 266.821,406.715 265.821,406.048 265.5,404.5 Z"/></g>
<g><path style="opacity:0.514"  d="M 350.5,404.5 C 347.753,407.207 344.42,408.873 340.5,409.5C 343.515,407.326 346.849,405.659 350.5,404.5 Z"/></g>
<g><path style="opacity:0.514"  d="M 218.5,409.5 C 222.436,411.766 225.769,414.766 228.5,418.5C 224.564,416.234 221.231,413.234 218.5,409.5 Z"/></g>
<g><path style="opacity:0.325"  d="M 379.5,424.5 C 378.833,425.833 377.833,426.833 376.5,427.5C 376.5,425.5 377.5,424.5 379.5,424.5 Z"/></g>
<g><path style="opacity:0.514"  d="M 239.5,427.5 C 241.027,427.427 242.027,428.094 242.5,429.5C 240.973,429.573 239.973,428.906 239.5,427.5 Z"/></g>
<g><path style="opacity:0.514"  d="M 256.5,437.5 C 258.553,437.402 260.22,438.069 261.5,439.5C 259.447,439.598 257.78,438.931 256.5,437.5 Z"/></g>
<g><path style="opacity:0.514"  d="M 358.5,437.5 C 357.22,438.931 355.553,439.598 353.5,439.5C 354.78,438.069 356.447,437.402 358.5,437.5 Z"/></g>
</svg>